<svg width="512" height="480" viewBox="0 0 512 480" fill="none" xmlns="http://www.w3.org/2000/svg">
<path d="M461.407 103.721C459.727 100.931 457.987 98.1808 456.157 95.5008C431.877 59.8308 391.467 35.4108 352.187 24.3508C334.977 19.5008 317.317 16.9608 299.677 16.3108C184.007 12.1108 141.507 107.491 104.237 132.081C66.967 156.671 9.77696 198.681 16.957 286.921C22.407 354.011 60.567 418.161 130.277 447.351C137.957 450.571 146.017 453.371 154.467 455.701C170.177 460.021 187.207 462.741 205.557 463.551C258.257 465.901 301.047 453.191 342.907 421.211C352.637 413.771 362.317 405.391 374.937 404.471C384.117 403.801 392.817 407.101 383.227 415.971C371.957 426.391 384.957 446.901 413.587 432.651C461.387 408.861 481.057 357.531 490.317 305.331C501.687 241.261 496.177 161.591 461.427 103.731L461.407 103.721Z" fill="#0B6BCB"/>
<path opacity="0.7" d="M461.407 103.721C459.727 100.931 457.987 98.1808 456.157 95.5008C431.877 59.8308 391.467 35.4108 352.187 24.3508C334.977 19.5008 317.317 16.9608 299.677 16.3108C184.007 12.1108 141.507 107.491 104.237 132.081C66.967 156.671 9.77696 198.681 16.957 286.921C22.407 354.011 60.567 418.161 130.277 447.351C137.957 450.571 146.017 453.371 154.467 455.701C170.177 460.021 187.207 462.741 205.557 463.551C258.257 465.901 301.047 453.191 342.907 421.211C352.637 413.771 362.317 405.391 374.937 404.471C384.117 403.801 392.817 407.101 383.227 415.971C371.957 426.391 384.957 446.901 413.587 432.651C461.387 408.861 481.057 357.531 490.317 305.331C501.687 241.261 496.177 161.591 461.427 103.731L461.407 103.721Z" fill="white"/>
<path d="M215.937 447.311C212.237 447.311 208.407 447.221 204.557 447.051C187.887 446.311 171.907 443.861 157.037 439.771C149.457 437.691 142.047 435.131 134.997 432.171C76.3469 407.611 38.1269 353.271 32.7269 286.811C29.9469 252.571 37.5169 223.761 55.8869 198.741C71.3969 177.601 92.0769 162.461 112.117 149.241C125.187 140.621 136.847 127.571 150.357 112.451C182.107 76.9207 221.627 32.7007 293.877 32.7007C296.087 32.7007 298.357 32.7407 300.607 32.8207C317.627 33.4507 333.987 35.9407 349.227 40.2407C388.377 51.2607 423.487 75.1007 443.167 104.011C444.737 106.311 446.307 108.781 447.837 111.331C482.507 169.061 484.417 248.481 474.637 303.561C464.947 358.131 447.047 392.911 418.677 411.761C418.267 409.281 417.617 407.231 417.037 405.761C412.027 392.971 399.067 385.331 382.357 385.331C380.957 385.331 379.527 385.381 378.107 385.491C358.317 386.931 343.947 398.051 333.457 406.161C332.557 406.851 331.667 407.551 330.767 408.231C295.407 435.261 259.987 447.311 215.927 447.311H215.937Z" fill="#051423"/>
<path d="M372.277 92.3307C374.867 92.3307 376.967 90.2309 376.967 87.6407C376.967 85.0505 374.867 82.9507 372.277 82.9507C369.687 82.9507 367.587 85.0505 367.587 87.6407C367.587 90.2309 369.687 92.3307 372.277 92.3307Z" fill="#B2B2B2"/>
<path d="M450.817 171.691C453.407 171.691 455.507 169.591 455.507 167.001C455.507 164.41 453.407 162.311 450.817 162.311C448.227 162.311 446.127 164.41 446.127 167.001C446.127 169.591 448.227 171.691 450.817 171.691Z" fill="#B2B2B2"/>
<path d="M126.537 394.061C129.127 394.061 131.227 391.961 131.227 389.371C131.227 386.78 129.127 384.681 126.537 384.681C123.946 384.681 121.847 386.78 121.847 389.371C121.847 391.961 123.946 394.061 126.537 394.061Z" fill="#B2B2B2"/>
<path d="M412.227 389.981C414.817 389.981 416.917 387.881 416.917 385.291C416.917 382.7 414.817 380.601 412.227 380.601C409.637 380.601 407.537 382.7 407.537 385.291C407.537 387.881 409.637 389.981 412.227 389.981Z" fill="#B2B2B2"/>
<path d="M258.237 46.7806C258.237 48.2606 257.037 49.4606 255.557 49.4606C254.077 49.4606 252.877 48.2606 252.877 46.7806C252.877 45.3006 254.077 44.1006 255.557 44.1006C257.037 44.1006 258.237 45.3006 258.237 46.7806Z" fill="#B2B2B2"/>
<path d="M71.7466 213.281C74.3369 213.281 76.4366 211.181 76.4366 208.591C76.4366 206 74.3369 203.901 71.7466 203.901C69.1564 203.901 67.0566 206 67.0566 208.591C67.0566 211.181 69.1564 213.281 71.7466 213.281Z" fill="#B2B2B2"/>
<path d="M409.987 93.4605C411.274 93.4605 412.317 92.4174 412.317 91.1305C412.317 89.8437 411.274 88.8005 409.987 88.8005C408.7 88.8005 407.657 89.8437 407.657 91.1305C407.657 92.4174 408.7 93.4605 409.987 93.4605Z" fill="#B2B2B2"/>
<path d="M96.6874 360.361C97.9742 360.361 99.0174 359.318 99.0174 358.031C99.0174 356.744 97.9742 355.701 96.6874 355.701C95.4006 355.701 94.3574 356.744 94.3574 358.031C94.3574 359.318 95.4006 360.361 96.6874 360.361Z" fill="#0B6BCB"/>
<path d="M440.357 341.171C441.644 341.171 442.687 340.127 442.687 338.841C442.687 337.554 441.644 336.51 440.357 336.51C439.071 336.51 438.027 337.554 438.027 338.841C438.027 340.127 439.071 341.171 440.357 341.171Z" fill="#0B6BCB"/>
<path d="M225.997 403.091C225.997 404.381 224.957 405.421 223.667 405.421C222.377 405.421 221.337 404.381 221.337 403.091C221.337 401.801 222.377 400.76 223.667 400.76C224.957 400.76 225.997 401.801 225.997 403.091Z" fill="#0B6BCB"/>
<path d="M106.697 320.931C106.697 322.221 105.657 323.261 104.367 323.261C103.077 323.261 102.037 322.221 102.037 320.931C102.037 319.641 103.077 318.601 104.367 318.601C105.657 318.601 106.697 319.641 106.697 320.931Z" fill="#B2B2B2"/>
<path d="M203.107 432.54C203.107 433.83 202.067 434.87 200.777 434.87C199.487 434.87 198.447 433.83 198.447 432.54C198.447 431.25 199.487 430.21 200.777 430.21C202.067 430.21 203.107 431.25 203.107 432.54Z" fill="#B2B2B2"/>
<path d="M337.157 57.4406C337.157 58.7306 336.117 59.7706 334.827 59.7706C333.537 59.7706 332.497 58.7306 332.497 57.4406C332.497 56.1506 333.537 55.1106 334.827 55.1106C336.117 55.1106 337.157 56.1506 337.157 57.4406Z" fill="#0B6BCB"/>
<path d="M341.177 311.981C341.177 313.271 340.137 314.311 338.847 314.311C337.557 314.311 336.517 313.271 336.517 311.981C336.517 310.691 337.557 309.651 338.847 309.651C340.137 309.651 341.177 310.691 341.177 311.981Z" fill="#B2B2B2"/>
<path d="M448.067 221.491C448.067 222.781 447.027 223.821 445.737 223.821C444.447 223.821 443.407 222.781 443.407 221.491C443.407 220.201 444.447 219.161 445.737 219.161C447.027 219.161 448.067 220.201 448.067 221.491Z" fill="#B2B2B2"/>
<path d="M67.0771 313.031C68.3639 313.031 69.4071 311.987 69.4071 310.701C69.4071 309.414 68.3639 308.371 67.0771 308.371C65.7902 308.371 64.7471 309.414 64.7471 310.701C64.7471 311.987 65.7902 313.031 67.0771 313.031Z" fill="#0B6BCB"/>
<path d="M274.487 418.561C275.774 418.561 276.817 417.517 276.817 416.231C276.817 414.944 275.774 413.901 274.487 413.901C273.2 413.901 272.157 414.944 272.157 416.231C272.157 417.517 273.2 418.561 274.487 418.561Z" fill="#B2B2B2"/>
<path d="M190.067 327.741C191.354 327.741 192.397 326.697 192.397 325.411C192.397 324.124 191.354 323.081 190.067 323.081C188.78 323.081 187.737 324.124 187.737 325.411C187.737 326.697 188.78 327.741 190.067 327.741Z" fill="#0B6BCB"/>
<path d="M345.237 137.391C345.237 138.681 344.197 139.721 342.907 139.721C341.617 139.721 340.577 138.681 340.577 137.391C340.577 136.101 341.617 135.061 342.907 135.061C344.197 135.061 345.237 136.101 345.237 137.391Z" fill="#0B6BCB"/>
<path d="M169.199 284.091C169.199 295.426 166.995 304.988 162.587 312.777C158.179 320.533 152.229 326.416 144.739 330.426C137.248 334.403 128.896 336.392 119.682 336.392C110.402 336.392 102.016 334.387 94.5256 330.376C87.0682 326.333 81.1354 320.433 76.7273 312.678C72.3523 304.889 70.1648 295.36 70.1648 284.091C70.1648 272.756 72.3523 263.21 76.7273 255.455C81.1354 247.666 87.0682 241.783 94.5256 237.805C102.016 233.795 110.402 231.79 119.682 231.79C128.896 231.79 137.248 233.795 144.739 237.805C152.229 241.783 158.179 247.666 162.587 255.455C166.995 263.21 169.199 272.756 169.199 284.091ZM140.761 284.091C140.761 277.992 139.949 272.855 138.325 268.679C136.734 264.47 134.365 261.288 131.216 259.134C128.1 256.946 124.256 255.852 119.682 255.852C115.108 255.852 111.247 256.946 108.098 259.134C104.982 261.288 102.613 264.47 100.989 268.679C99.3977 272.855 98.6023 277.992 98.6023 284.091C98.6023 290.189 99.3977 295.343 100.989 299.553C102.613 303.729 104.982 306.911 108.098 309.098C111.247 311.252 115.108 312.33 119.682 312.33C124.256 312.33 128.1 311.252 131.216 309.098C134.365 306.911 136.734 303.729 138.325 299.553C139.949 295.343 140.761 290.189 140.761 284.091ZM219.176 336.392C210.89 336.392 203.797 334.751 197.897 331.47C191.998 328.156 187.474 323.549 184.325 317.649C181.176 311.716 179.602 304.839 179.602 297.017C179.602 289.195 181.176 282.334 184.325 276.435C187.474 270.502 191.998 265.895 197.897 262.614C203.797 259.299 210.89 257.642 219.176 257.642C227.462 257.642 234.555 259.299 240.454 262.614C246.354 265.895 250.878 270.502 254.027 276.435C257.175 282.334 258.75 289.195 258.75 297.017C258.75 304.839 257.175 311.716 254.027 317.649C250.878 323.549 246.354 328.156 240.454 331.47C234.555 334.751 227.462 336.392 219.176 336.392ZM219.375 316.108C221.695 316.108 223.7 315.329 225.39 313.771C227.081 312.214 228.39 309.993 229.318 307.109C230.246 304.226 230.71 300.795 230.71 296.818C230.71 292.808 230.246 289.377 229.318 286.527C228.39 283.643 227.081 281.423 225.39 279.865C223.7 278.307 221.695 277.528 219.375 277.528C216.922 277.528 214.817 278.307 213.061 279.865C211.304 281.423 209.962 283.643 209.034 286.527C208.106 289.377 207.642 292.808 207.642 296.818C207.642 300.795 208.106 304.226 209.034 307.109C209.962 309.993 211.304 312.214 213.061 313.771C214.817 315.329 216.922 316.108 219.375 316.108ZM269.886 363.636V258.636H297.13V271.96H297.727C298.721 269.375 300.18 267.005 302.102 264.851C304.024 262.663 306.411 260.923 309.261 259.631C312.111 258.305 315.426 257.642 319.204 257.642C324.242 257.642 329.031 258.984 333.572 261.669C338.146 264.354 341.858 268.58 344.708 274.347C347.592 280.114 349.034 287.604 349.034 296.818C349.034 305.634 347.658 312.943 344.907 318.743C342.19 324.543 338.544 328.868 333.97 331.719C329.429 334.569 324.441 335.994 319.005 335.994C315.426 335.994 312.227 335.414 309.41 334.254C306.626 333.061 304.24 331.454 302.251 329.432C300.296 327.377 298.788 325.057 297.727 322.472H297.329V363.636H269.886ZM296.733 296.818C296.733 300.53 297.213 303.745 298.174 306.463C299.169 309.148 300.561 311.236 302.35 312.727C304.173 314.186 306.344 314.915 308.863 314.915C311.382 314.915 313.52 314.202 315.277 312.777C317.066 311.319 318.425 309.247 319.353 306.562C320.315 303.845 320.795 300.597 320.795 296.818C320.795 293.04 320.315 289.808 319.353 287.124C318.425 284.406 317.066 282.334 315.277 280.909C313.52 279.451 311.382 278.722 308.863 278.722C306.344 278.722 304.173 279.451 302.35 280.909C300.561 282.334 299.169 284.406 298.174 287.124C297.213 289.808 296.733 293.04 296.733 296.818ZM430.332 283.494H405.076C404.943 281.937 404.397 280.594 403.435 279.467C402.474 278.34 401.231 277.479 399.707 276.882C398.215 276.252 396.558 275.938 394.735 275.938C392.382 275.938 390.36 276.368 388.67 277.23C386.979 278.092 386.151 279.318 386.184 280.909C386.151 282.036 386.631 283.08 387.626 284.041C388.653 285.002 390.625 285.748 393.542 286.278L409.053 289.062C416.875 290.488 422.692 292.891 426.504 296.271C430.348 299.619 432.287 304.11 432.32 309.744C432.287 315.18 430.663 319.903 427.448 323.913C424.266 327.891 419.908 330.973 414.373 333.161C408.871 335.315 402.59 336.392 395.531 336.392C383.864 336.392 374.733 334.006 368.137 329.233C361.575 324.46 357.912 318.163 357.15 310.341H384.394C384.759 312.76 385.952 314.633 387.974 315.959C390.029 317.251 392.614 317.898 395.729 317.898C398.248 317.898 400.32 317.467 401.944 316.605C403.601 315.743 404.446 314.517 404.479 312.926C404.446 311.468 403.717 310.308 402.292 309.446C400.9 308.584 398.712 307.888 395.729 307.358L382.207 304.972C374.418 303.613 368.585 301.027 364.707 297.216C360.829 293.404 358.906 288.499 358.94 282.5C358.906 277.197 360.299 272.706 363.116 269.027C365.966 265.315 370.026 262.498 375.296 260.575C380.599 258.62 386.88 257.642 394.138 257.642C405.175 257.642 413.876 259.929 420.239 264.503C426.636 269.077 430 275.407 430.332 283.494Z" fill="#0B6BCB"/>
<g opacity="0.3">
<path d="M427.142 280.627C427.142 280.627 427.246 280.72 427.293 280.767C427.491 280.931 427.712 281.083 427.945 281.223C428.003 281.258 428.061 281.293 428.119 281.316C428.317 281.433 428.538 281.527 428.759 281.632C428.841 281.667 428.91 281.702 428.992 281.726C429.283 281.842 429.597 281.936 429.935 282.029C429.993 282.041 430.051 282.053 430.097 282.065C430.4 282.135 430.726 282.193 431.063 282.24C431.168 282.252 431.285 282.275 431.389 282.287C431.797 282.333 432.227 282.38 432.693 282.392C434.275 282.45 435.916 282.146 437.499 281.515C438.29 281.2 439.07 280.802 439.827 280.334C440.327 280.019 440.827 279.668 441.305 279.294C441.549 279.107 441.782 278.908 442.015 278.698C442.48 278.289 442.922 277.845 443.353 277.377C447.205 273.134 449.486 266.506 447.601 258.698C447.135 256.757 446.635 254.922 446.099 253.18C445.215 250.246 444.237 247.57 443.19 245.173C442.911 244.542 442.62 243.922 442.329 243.326C441.63 241.9 440.886 240.603 440.118 239.399C439.606 238.592 439.082 237.821 438.535 237.119C437.173 235.366 435.719 233.928 434.171 232.806C433.787 232.525 433.391 232.268 432.995 232.023C432.902 231.964 424.151 230.31 424.046 230.252V252.128V274.63C424.872 276.945 425.431 279.025 426.897 280.451C426.897 280.451 426.885 280.451 426.874 280.451C426.955 280.522 427.037 280.592 427.118 280.662L427.142 280.627Z" fill="black"/>
<path d="M392 254.5L376.047 242.687C374.87 242.734 373.789 242.781 372.84 242.839C372.888 241.586 373.068 233.09 370.666 223.973C370.558 215.911 367.158 208.587 361.717 203.572C361.152 195.779 356.695 186.698 351.71 180.323C351.83 180.323 351.951 180.358 352.083 180.346C354.077 180.136 355.326 177.71 356.203 173.503C356.323 172.929 356.407 172.39 356.479 171.863C358.053 170.831 360.011 169.296 360.924 167.585C361.416 166.671 361.885 165.148 362.101 163.39C363.699 162.465 365.849 160.965 367.999 158.633C369.536 156.969 370.594 154.649 371.05 152.117C370.521 150.653 369.969 149.211 369.368 147.805C366.702 141.63 363.17 136.286 358.81 131.74C357.56 131.095 356.203 130.556 354.725 130.169C353.392 129.818 352.071 129.654 350.773 129.63C347.074 128.88 339.302 127.603 328.659 127.357C325.067 127.275 321.848 127.287 318.953 127.462C316.491 126.431 313.8 125.974 311.037 126.267C309.343 126.443 307.746 126.9 306.256 127.556C301.68 126.384 297.067 126.08 293.271 126.478C292.358 126.572 291.457 126.689 290.58 126.818C290.544 126.373 290.52 125.927 290.472 125.482C290.376 124.627 290.244 123.783 290.076 122.951C290.184 121.404 290.196 119.834 290.1 118.252C285.715 119.623 281.727 121.439 278.148 123.689C268.97 129.466 262.159 137.517 257.715 147.817C282.501 186 270.565 233.161 293.837 252C346.726 284.192 334.866 201.983 340 259.5C340 261.223 341.542 267.246 342.697 268.992C342.757 269.332 342.829 269.648 342.913 269.929C342.913 269.929 342.913 269.929 342.913 269.953C343.021 270.304 343.141 270.621 343.261 270.902C343.285 270.96 343.321 271.007 343.345 271.066C343.453 271.288 343.573 271.499 343.706 271.675C343.742 271.722 343.778 271.769 343.814 271.816C343.982 272.027 344.15 272.226 344.354 272.39C344.354 272.39 344.366 272.39 344.378 272.402C344.57 272.554 344.763 272.695 344.979 272.824C345.027 272.859 345.087 272.882 345.147 272.917C345.339 273.023 345.543 273.117 345.76 273.199C345.796 273.21 345.832 273.234 345.868 273.245C346.12 273.339 346.396 273.421 346.673 273.503C346.733 273.515 346.805 273.538 346.865 273.55C347.105 273.609 347.345 273.679 347.598 273.738C347.694 273.761 347.778 273.784 347.874 273.808C348.162 273.878 348.462 273.937 348.775 274.007C353.123 274.991 351 277 352.5 280.5C353 283 354 283.5 355 283.5C355.24 283.465 356.26 284.035 356.5 284C360.284 284.75 369 280.5 379.5 262.5L392 254.5ZM348.479 176.62C348.479 176.62 348.455 176.597 348.443 176.585C348.467 176.421 348.491 176.257 348.515 176.081C348.491 176.304 348.479 176.491 348.479 176.62ZM348.851 173.691C348.936 173.093 349.008 172.507 349.08 171.945H349.116C349.02 172.566 348.936 173.152 348.851 173.691Z" fill="black"/>
<path d="M233.556 161.203C230.636 164.002 228.019 166.556 226.623 167.998C222.184 172.594 217.331 177.849 215.752 181.442C214.172 185.035 214.308 190.57 215.956 191.504C217.594 192.434 219.343 191.847 220.679 189.581L233.556 161.203Z" fill="black"/>
</g>
<path d="M350.716 240.455C350.716 240.455 351.868 249.21 351.798 258.094C351.728 266.978 353.811 267.165 358.024 268.147C362.237 269.129 369.429 263.389 371.268 257.615C373.107 251.84 372.932 240.712 372.932 240.712L350.704 240.455H350.716Z" fill="#DEDEDE" stroke="#051423" stroke-miterlimit="10"/>
<path d="M369.964 251.151C369.778 255.09 368.603 261.414 362.784 264.523C357.838 267.165 353.543 264.839 352.356 264.067C353.218 267.153 355.115 267.457 358.036 268.135C362.248 269.117 369.441 263.377 371.279 257.603C373.118 251.829 372.944 240.7 372.944 240.7L370.348 240.665C370.255 243.588 370.092 248.485 369.964 251.139V251.151Z" fill="#DEDEDE" stroke="#051423" stroke-miterlimit="10"/>
<path d="M330.662 248.836C330.662 248.836 337.633 248.696 347.118 245.177C356.603 241.67 367.251 233.687 364.97 225.89C362.689 218.093 350.33 215.931 345.454 216.457C340.577 216.983 334.98 218.42 334.98 218.42C334.98 218.42 336.12 240.385 330.662 248.824V248.836Z" fill="#DEDEDE" stroke="#051423" stroke-miterlimit="10"/>
<path d="M326.078 252.015C326.078 252.015 332.304 250.717 336.086 245.761C339.869 240.805 341.265 232.809 339.24 227.456C337.215 222.102 326.066 252.015 326.066 252.015H326.078Z" fill="#0B6BCB" stroke="#051423" stroke-miterlimit="10"/>
<path d="M288.685 200.781C288.685 200.781 285.03 218.315 292.234 235.486C299.438 252.658 315.079 256.726 326.077 252.027C337.074 247.328 339.704 231.758 339.821 221.424C339.937 211.091 339.635 206.38 339.635 206.38C339.635 206.38 302.627 210.004 288.685 200.793V200.781Z" fill="#DEDEDE" stroke="#051423" stroke-miterlimit="10"/>
<path d="M287.336 195.965C287.336 195.965 285.695 201.716 289.011 203.832C292.328 205.948 309.447 216.047 329.778 212.178C341.137 210.016 338.635 206.672 338.437 204.837C338.239 203.002 287.336 195.965 287.336 195.965Z" fill="#0B6BCB" stroke="#051423" stroke-miterlimit="10"/>
<path d="M284.564 177.906C284.564 177.906 285.077 192.097 287.346 195.977C289.615 199.858 319.664 211.653 334.921 208.333C350.178 205.013 375.013 191.372 378.039 181.331C381.064 171.301 373.197 155.509 365.796 147.923C358.394 140.337 355.147 138.829 355.147 138.829C355.147 138.829 337.016 163.095 314.462 171.138C291.908 179.168 284.576 177.906 284.576 177.906H284.564Z" fill="white" stroke="#051423" stroke-miterlimit="10"/>
<path d="M404.342 213.756C404.342 213.756 420.309 207.467 426.686 211.313C433.064 215.159 437.94 224.125 441.292 238C444.643 251.875 434.844 262.033 426.384 261.717C417.923 261.402 419.378 255.873 416.096 250.25C412.814 244.628 408.764 241.343 408.496 240.758C408.229 240.174 412.267 222.395 404.342 213.756Z" fill="white" stroke="#051423" stroke-miterlimit="10"/>
<path d="M426.685 211.313C424.986 210.285 422.588 209.981 420.005 210.086C423.24 212.482 429.618 218.35 433.796 229.525C439.58 244.99 436.961 253.126 434.005 256.13C431.037 259.134 424.788 260.233 422.088 259.905C421.646 259.847 421.122 259.789 420.575 259.718C421.739 260.864 423.473 261.589 426.394 261.706C434.855 262.021 444.654 251.875 441.302 237.988C437.95 224.113 433.074 215.147 426.697 211.302L426.685 211.313Z" fill="white" stroke="#051423" stroke-miterlimit="10"/>
<path d="M370.59 253.149C370.59 253.149 385.649 257.497 399.626 251.84C413.603 246.182 421.842 236.819 418.758 225.399C415.674 213.967 409.879 213.569 397.147 213.721C384.427 213.873 381.867 214.972 381.867 214.972C381.867 214.972 381.448 247.223 370.578 253.149H370.59Z" fill="white" stroke="#051423" stroke-miterlimit="10"/>
<path d="M387.146 198.44C388.593 183.041 378.291 169.469 364.137 168.128C349.982 166.787 337.335 178.183 335.889 193.583C334.442 208.982 344.744 222.554 358.898 223.895C373.053 225.237 385.7 213.84 387.146 198.44Z" fill="#0B6BCB" stroke="#051423" stroke-miterlimit="10"/>
<path d="M392.6 230.814C393.912 216.841 384.571 204.528 371.734 203.311C358.898 202.095 347.428 212.436 346.116 226.409C344.803 240.382 354.145 252.695 366.981 253.912C379.818 255.128 391.287 244.787 392.6 230.814Z" fill="#0B6BCB" stroke="#051423" stroke-miterlimit="10"/>
<path d="M389.385 214.142C389.385 214.142 390.432 191.523 379.435 179.109C368.437 166.683 343.428 176.841 339.285 195.462C335.13 214.083 343.905 242.021 355.38 249.233C366.843 256.445 376.56 249.396 383.089 239.402C389.606 229.396 389.397 214.153 389.397 214.153L389.385 214.142Z" fill="white" stroke="#051423" stroke-miterlimit="10"/>
<path d="M234.011 150.798C234.011 150.798 225.306 171.967 223.165 177.999C221.023 184.031 218.777 190.834 218.824 194.761C218.871 198.689 221.28 203.669 223.165 203.832C225.05 203.996 226.4 202.733 226.668 200.08C226.935 197.427 226.819 196.316 228.157 194.867C229.496 193.417 233.65 190.518 234.186 190.273C234.721 190.027 235.117 192.038 233.872 194.235C232.615 196.433 229.856 198.42 231.591 200.664C233.325 202.909 236.769 200.29 238.608 198.397C240.458 196.515 242.344 193.312 243.112 190.039C243.88 186.778 243.508 179.893 243.508 179.893L258.893 165.304C258.893 165.304 238.503 162.85 234.034 150.798H234.011Z" fill="#DEDEDE" stroke="#051423" stroke-miterlimit="10"/>
<path d="M234.966 192.436C234.966 192.436 234.733 195.451 240.343 195.592" stroke="#051423" stroke-miterlimit="10"/>
<path d="M220.163 189.934C220.163 189.934 221.723 195.755 228.147 194.866" stroke="#051423" stroke-miterlimit="10"/>
<path d="M219.649 198.046C219.649 198.046 223.443 201.003 226.341 197.8" stroke="#051423" stroke-miterlimit="10"/>
<path d="M227.541 168.998C227.541 168.998 227.029 180.594 243.484 179.892" stroke="#051423" stroke-miterlimit="10"/>
<path d="M238.363 144.521C238.363 144.521 234.266 144.591 234.01 150.798C233.754 157.005 238.7 166.567 248.185 168.156C257.67 169.746 263.582 164.042 265.304 159.366C267.038 154.69 244.845 140.827 238.351 144.521H238.363Z" fill="#0B6BCB" stroke="#051423" stroke-miterlimit="10"/>
<path d="M249.025 127.641C249.025 127.641 238.97 139.786 237.212 145.958C235.455 152.142 239.854 163.457 250.991 164.86C262.14 166.263 268.774 156.935 268.774 156.935L249.025 127.641Z" fill="#DEDEDE" stroke="#051423" stroke-miterlimit="10"/>
<path d="M254.773 117.834C254.773 117.834 247.592 123.936 247.092 133.837C246.592 143.738 255.669 155.158 267.516 154.059C279.363 152.961 264.525 117.355 254.773 117.834Z" fill="#0B6BCB" stroke="#051423" stroke-miterlimit="10"/>
<path d="M259.732 125.175C259.732 125.175 254.46 131.557 257.486 142.265C260.511 152.984 268.041 158.899 268.041 158.899C268.041 158.899 282.623 179.951 288.745 183.212C294.878 186.473 305.701 186.602 327.649 177.66C349.598 168.717 358.245 155.602 361.62 148.869C364.995 142.136 345.246 111.16 338.426 106.671C331.606 102.171 322.692 100.709 316.245 101.422C309.797 102.136 303.815 103.714 303.815 103.714L259.732 125.187V125.175Z" fill="#0B6BCB" stroke="#051423" stroke-miterlimit="10"/>
<path d="M255.82 121.657C255.82 121.657 250.548 128.039 253.574 138.746C256.599 149.465 264.129 155.38 264.129 155.38C264.129 155.38 278.699 176.433 284.832 179.694C290.966 182.955 301.789 183.084 323.737 174.141C345.686 165.199 354.333 152.084 357.708 145.351C361.083 138.618 341.334 107.641 334.514 103.153C327.694 98.6523 318.78 97.1911 312.332 97.9042C305.885 98.6055 299.903 100.195 299.903 100.195L255.82 121.668V121.657Z" fill="white" stroke="#051423" stroke-miterlimit="10"/>
<path d="M308.536 109.611C313.552 91.9218 303.343 73.4974 285.732 68.4586C268.121 63.4197 249.778 73.6747 244.761 91.3635C239.744 109.052 249.954 127.477 267.565 132.516C285.176 137.554 303.519 127.3 308.536 109.611Z" fill="#0B6BCB" stroke="#051423" stroke-miterlimit="10"/>
<path d="M301.273 115.099C314.077 98.7915 311.295 75.1464 295.059 62.286C278.824 49.4256 255.283 52.22 242.479 68.5275C229.675 84.8349 232.457 108.48 248.693 121.34C264.929 134.201 288.469 131.406 301.273 115.099Z" fill="#ABABAB" stroke="#051423" stroke-miterlimit="10"/>
<path d="M297.564 97.1439C297.948 96.3607 298.448 94.9697 298.309 93.1812C298.076 90.3524 294.922 85.1507 293.607 83.7363C292.292 82.3219 290.279 83.9935 290.279 83.9935L287.951 79.797C282.342 69.6742 269.622 66.0271 259.543 71.6613C249.465 77.2955 245.834 90.0719 251.444 100.195L256.262 108.903L253.562 104.508C253.562 104.508 251.094 105.35 251.595 107.22C252.095 109.09 254.842 114.526 257.111 116.209C258.717 117.401 260.323 117.647 261.138 117.682L267.504 129.172C270.25 129.5 273.066 129.523 275.929 129.219C288.533 127.84 298.984 120.335 304.674 109.979L297.575 97.1556L297.564 97.1439Z" fill="#051423" stroke="#051423" stroke-miterlimit="10"/>
<path d="M287.765 86.635C283.528 78.9902 273.916 76.2316 266.305 80.4864L263.453 82.0762C255.842 86.3311 253.096 95.9864 257.332 103.631L271.611 129.418C273.031 129.418 274.474 129.359 275.917 129.207C287.101 127.992 296.586 121.925 302.556 113.345L287.753 86.635H287.765Z" fill="white" stroke="#051423" stroke-miterlimit="10"/>
<path d="M270.204 102.252C270.739 103.222 270.704 104.274 270.122 104.59C269.54 104.906 268.632 104.391 268.097 103.421C267.562 102.451 267.597 101.399 268.179 101.083C268.76 100.768 269.668 101.282 270.204 102.252Z" fill="#051423"/>
<path d="M282.039 95.6358C282.574 96.606 282.539 97.658 281.957 97.9737C281.375 98.301 280.467 97.7749 279.932 96.8047C279.397 95.8345 279.432 94.7825 280.014 94.4669C280.595 94.1396 281.503 94.6656 282.039 95.6358Z" fill="#051423"/>
<path d="M276.231 97.2021L282.306 104.8L276.778 107.36" stroke="#051423" stroke-miterlimit="10"/>
<path d="M285.251 111.078C285.786 112.036 285.437 113.252 284.483 113.79C283.528 114.327 282.318 113.977 281.783 113.018C281.247 112.06 281.596 110.844 282.551 110.306C283.505 109.768 284.715 110.119 285.251 111.078Z" fill="#051423"/>
<path d="M261.976 100.884C261.976 100.884 262.86 97.1672 267.748 96.8516" stroke="#051423" stroke-miterlimit="10"/>
<path d="M275.382 92.3161C275.382 92.3161 276.674 88.3768 281.841 89.5107" stroke="#051423" stroke-miterlimit="10"/>
<path d="M278.851 123.644C278.851 123.644 282.982 124.824 285.88 124.275C288.778 123.725 291.117 122.159 292.199 120.745C293.281 119.33 294.759 114.76 294.759 114.76" stroke="#051423" stroke-miterlimit="10"/>
<path d="M244.333 113.556C242.098 92.9128 256.948 74.3503 277.512 72.1059C289.382 70.8084 300.555 75.2503 308.317 83.199C304.057 64.9638 286.845 52.3628 267.841 54.4435C247.289 56.6878 232.427 75.2386 234.662 95.8935C235.604 104.614 239.457 112.305 245.124 118.115C244.775 116.63 244.507 115.111 244.333 113.544V113.556Z" fill="white" stroke="#051423" stroke-miterlimit="10"/>
<path d="M333.656 135.701C342.909 134.692 349.489 125.361 348.353 114.861C347.217 104.361 338.796 96.668 329.544 97.6776C320.292 98.6872 313.712 108.017 314.847 118.517C315.983 129.017 324.404 136.711 333.656 135.701Z" fill="#0B6BCB" stroke="#051423" stroke-miterlimit="10"/>
<path d="M370.393 101.563C370.393 101.563 361.327 99.1081 346.617 98.7574C331.907 98.395 323.26 99.8328 320.467 107.174C317.674 114.515 318.302 126.402 327.368 130.33C332.431 132.516 339.856 131.265 345.267 130.014C350.679 128.764 363.934 123.223 368.1 116.548C372.267 109.874 372.348 104.625 370.393 101.563Z" fill="white" stroke="#051423" stroke-miterlimit="10"/>
<path d="M385.79 112.819C385.79 112.819 380.925 104.017 371.86 101.563C362.794 99.108 354.473 105.093 350.702 110.914C346.932 116.735 348.607 118.676 348.607 118.676C348.607 118.676 361.909 111.99 368.776 110.739C375.642 109.488 385.79 112.808 385.79 112.808V112.819Z" fill="#0B6BCB" stroke="#051423" stroke-miterlimit="10"/>
<path d="M348.271 124.613C348.271 124.613 346.141 118.465 354.73 110.481C363.319 102.497 379.123 105.361 384.267 110.703C389.411 116.033 388.794 125.443 384.721 129.979C380.647 134.514 376.562 135.94 376.562 135.94C376.562 135.94 368.556 122.24 348.271 124.613Z" fill="white" stroke="#051423" stroke-miterlimit="10"/>
<path d="M341.092 136.7C341.092 136.7 344.385 127.991 348.261 124.613C352.136 121.247 363.716 119.821 372.362 122.801C380.998 125.794 379.473 135.776 377.855 138.909C376.238 142.042 371.292 144.543 371.292 144.543L341.103 136.7H341.092Z" fill="white" stroke="#051423" stroke-miterlimit="10"/>
<path d="M342.08 135.274C342.08 135.274 340.322 135.625 338.565 137.46C336.808 139.295 336.249 140.172 332.723 142.194C329.197 144.216 325.449 144.298 326.834 148.074C328.219 151.849 333.375 151.288 335.923 150.681C338.472 150.073 339.508 149.138 341.463 147.618C343.418 146.098 344.896 135.613 345.001 135.11C345.105 134.608 342.08 135.262 342.08 135.262V135.274Z" fill="white" stroke="#051423" stroke-miterlimit="10"/>
<path d="M351.33 131.814C351.33 131.814 346.14 130.575 343.591 132.656C341.042 134.737 341.252 142.732 341.461 147.63C341.659 152.516 343.393 156.42 345.255 157.04C347.117 157.659 349.026 157.285 349.771 156.549C350.515 155.812 349.736 148.694 350.248 142.907C350.76 137.121 351.33 131.814 351.33 131.814Z" fill="white" stroke="#051423" stroke-miterlimit="10"/>
<path d="M351.33 131.814C351.33 131.814 349.003 137.471 348.328 143.281C347.653 149.091 350.783 156.934 351.994 157.624C353.204 158.313 356.614 158.103 357.405 156.373C358.196 154.643 357.615 148.787 357.708 145.35C357.801 141.913 359.442 134.526 359.197 132.27C358.953 130.002 353.867 129.745 351.319 131.814H351.33Z" fill="white" stroke="#051423" stroke-miterlimit="10"/>
<path d="M359.2 132.258C359.2 132.258 362.295 130.773 364.553 132.001C366.811 133.228 367.334 136.606 367.02 138.278C366.718 139.949 365.67 149.885 364.949 152.258C364.227 154.631 362.4 155.812 360.91 155.648C359.421 155.484 358.408 153.626 358.187 151.522C357.954 149.418 357.71 145.338 357.71 145.338L359.2 132.258Z" fill="white" stroke="#051423" stroke-miterlimit="10"/>
<path d="M367.02 135.18C367.02 135.18 371.209 136.197 372.443 137.05C373.677 137.904 374.13 140.627 373.281 144.824C372.431 149.009 371.221 151.44 369.289 151.65C367.357 151.861 365.786 149.418 365.786 147.933C365.786 146.46 367.38 138.593 367.02 135.192V135.18Z" fill="white" stroke="#051423" stroke-miterlimit="10"/>
<path d="M311.785 138.338C314.404 142.592 313.484 147.934 309.714 150.272C305.955 152.61 300.776 151.055 298.157 146.812C295.539 142.557 296.458 137.215 300.229 134.878C303.999 132.54 309.167 134.094 311.785 138.338Z" fill="#0B6BCB" stroke="#051423" stroke-miterlimit="10"/>
<path d="M291.15 152.656C292.989 155.637 292.337 159.378 289.696 161.014C287.054 162.651 283.434 161.564 281.596 158.583C279.757 155.602 280.409 151.862 283.05 150.225C285.692 148.589 289.311 149.676 291.15 152.656Z" fill="#051423"/>
<path d="M308.036 159.775C309.875 162.756 309.223 166.497 306.581 168.133C303.939 169.77 300.32 168.683 298.481 165.702C296.643 162.721 297.294 158.98 299.936 157.344C302.578 155.707 306.197 156.795 308.036 159.775Z" fill="#ABABAB" stroke="#051423" stroke-miterlimit="10"/>
</svg>
