<svg width="512" height="480" viewBox="0 0 512 480" fill="none" xmlns="http://www.w3.org/2000/svg">
<path d="M461.407 103.721C459.727 100.931 457.987 98.1808 456.157 95.5008C431.877 59.8308 391.467 35.4108 352.187 24.3508C334.977 19.5008 317.317 16.9608 299.677 16.3108C184.007 12.1108 141.507 107.491 104.237 132.081C66.967 156.671 9.77696 198.681 16.957 286.921C22.407 354.011 60.567 418.161 130.277 447.351C137.957 450.571 146.017 453.371 154.467 455.701C170.177 460.021 187.207 462.741 205.557 463.551C258.257 465.901 301.047 453.191 342.907 421.211C352.637 413.771 362.317 405.391 374.937 404.471C384.117 403.801 392.817 407.101 383.227 415.971C371.957 426.391 384.957 446.901 413.587 432.651C461.387 408.861 481.057 357.531 490.317 305.331C501.687 241.261 496.177 161.591 461.427 103.731L461.407 103.721Z" fill="#0B6BCB"/>
<path opacity="0.7" d="M461.407 103.721C459.727 100.931 457.987 98.1808 456.157 95.5008C431.877 59.8308 391.467 35.4108 352.187 24.3508C334.977 19.5008 317.317 16.9608 299.677 16.3108C184.007 12.1108 141.507 107.491 104.237 132.081C66.967 156.671 9.77696 198.681 16.957 286.921C22.407 354.011 60.567 418.161 130.277 447.351C137.957 450.571 146.017 453.371 154.467 455.701C170.177 460.021 187.207 462.741 205.557 463.551C258.257 465.901 301.047 453.191 342.907 421.211C352.637 413.771 362.317 405.391 374.937 404.471C384.117 403.801 392.817 407.101 383.227 415.971C371.957 426.391 384.957 446.901 413.587 432.651C461.387 408.861 481.057 357.531 490.317 305.331C501.687 241.261 496.177 161.591 461.427 103.731L461.407 103.721Z" fill="white"/>
<path d="M215.937 447.311C212.237 447.311 208.407 447.221 204.557 447.051C187.887 446.311 171.907 443.861 157.037 439.771C149.457 437.691 142.047 435.131 134.997 432.171C76.3469 407.611 38.1269 353.271 32.7269 286.811C29.9469 252.571 37.5169 223.761 55.8869 198.741C71.3969 177.601 92.0769 162.461 112.117 149.241C125.187 140.621 136.847 127.571 150.357 112.451C182.107 76.9207 221.627 32.7007 293.877 32.7007C296.087 32.7007 298.357 32.7407 300.607 32.8207C317.627 33.4507 333.987 35.9407 349.227 40.2407C388.377 51.2607 423.487 75.1007 443.167 104.011C444.737 106.311 446.307 108.781 447.837 111.331C482.507 169.061 484.417 248.481 474.637 303.561C464.947 358.131 447.047 392.911 418.677 411.761C418.267 409.281 417.617 407.231 417.037 405.761C412.027 392.971 399.067 385.331 382.357 385.331C380.957 385.331 379.527 385.381 378.107 385.491C358.317 386.931 343.947 398.051 333.457 406.161C332.557 406.851 331.667 407.551 330.767 408.231C295.407 435.261 259.987 447.311 215.927 447.311H215.937Z" fill="#051423"/>
<path d="M372.277 92.3307C374.867 92.3307 376.967 90.2309 376.967 87.6407C376.967 85.0505 374.867 82.9507 372.277 82.9507C369.687 82.9507 367.587 85.0505 367.587 87.6407C367.587 90.2309 369.687 92.3307 372.277 92.3307Z" fill="#B2B2B2"/>
<path d="M450.817 171.691C453.407 171.691 455.507 169.591 455.507 167.001C455.507 164.41 453.407 162.311 450.817 162.311C448.227 162.311 446.127 164.41 446.127 167.001C446.127 169.591 448.227 171.691 450.817 171.691Z" fill="#B2B2B2"/>
<path d="M126.537 394.061C129.127 394.061 131.227 391.961 131.227 389.371C131.227 386.78 129.127 384.681 126.537 384.681C123.947 384.681 121.847 386.78 121.847 389.371C121.847 391.961 123.947 394.061 126.537 394.061Z" fill="#B2B2B2"/>
<path d="M412.227 389.981C414.817 389.981 416.917 387.881 416.917 385.291C416.917 382.7 414.817 380.601 412.227 380.601C409.637 380.601 407.537 382.7 407.537 385.291C407.537 387.881 409.637 389.981 412.227 389.981Z" fill="#B2B2B2"/>
<path d="M258.237 46.7806C258.237 48.2606 257.037 49.4606 255.557 49.4606C254.077 49.4606 252.877 48.2606 252.877 46.7806C252.877 45.3006 254.077 44.1006 255.557 44.1006C257.037 44.1006 258.237 45.3006 258.237 46.7806Z" fill="#B2B2B2"/>
<path d="M71.7471 213.28C74.3373 213.28 76.4371 211.181 76.4371 208.59C76.4371 206 74.3373 203.9 71.7471 203.9C69.1569 203.9 67.0571 206 67.0571 208.59C67.0571 211.181 69.1569 213.28 71.7471 213.28Z" fill="#B2B2B2"/>
<path d="M409.987 93.4608C411.274 93.4608 412.317 92.4176 412.317 91.1308C412.317 89.844 411.274 88.8008 409.987 88.8008C408.7 88.8008 407.657 89.844 407.657 91.1308C407.657 92.4176 408.7 93.4608 409.987 93.4608Z" fill="#B2B2B2"/>
<path d="M96.6869 360.361C97.9738 360.361 99.0169 359.318 99.0169 358.031C99.0169 356.744 97.9738 355.701 96.6869 355.701C95.4001 355.701 94.3569 356.744 94.3569 358.031C94.3569 359.318 95.4001 360.361 96.6869 360.361Z" fill="#0B6BCB"/>
<path d="M440.357 341.171C441.644 341.171 442.687 340.128 442.687 338.841C442.687 337.554 441.644 336.511 440.357 336.511C439.07 336.511 438.027 337.554 438.027 338.841C438.027 340.128 439.07 341.171 440.357 341.171Z" fill="#0B6BCB"/>
<path d="M225.997 403.091C225.997 404.381 224.957 405.421 223.667 405.421C222.377 405.421 221.337 404.381 221.337 403.091C221.337 401.801 222.377 400.761 223.667 400.761C224.957 400.761 225.997 401.801 225.997 403.091Z" fill="#0B6BCB"/>
<path d="M106.697 320.931C106.697 322.221 105.657 323.261 104.367 323.261C103.077 323.261 102.037 322.221 102.037 320.931C102.037 319.641 103.077 318.601 104.367 318.601C105.657 318.601 106.697 319.641 106.697 320.931Z" fill="#B2B2B2"/>
<path d="M203.107 432.54C203.107 433.83 202.067 434.87 200.777 434.87C199.487 434.87 198.447 433.83 198.447 432.54C198.447 431.25 199.487 430.21 200.777 430.21C202.067 430.21 203.107 431.25 203.107 432.54Z" fill="#B2B2B2"/>
<path d="M337.157 57.4403C337.157 58.7303 336.117 59.7704 334.827 59.7704C333.537 59.7704 332.497 58.7303 332.497 57.4403C332.497 56.1503 333.537 55.1104 334.827 55.1104C336.117 55.1104 337.157 56.1503 337.157 57.4403Z" fill="#0B6BCB"/>
<path d="M341.177 311.98C341.177 313.27 340.137 314.31 338.847 314.31C337.557 314.31 336.517 313.27 336.517 311.98C336.517 310.69 337.557 309.65 338.847 309.65C340.137 309.65 341.177 310.69 341.177 311.98Z" fill="#B2B2B2"/>
<path d="M448.067 221.491C448.067 222.781 447.027 223.821 445.737 223.821C444.447 223.821 443.407 222.781 443.407 221.491C443.407 220.201 444.447 219.161 445.737 219.161C447.027 219.161 448.067 220.201 448.067 221.491Z" fill="#B2B2B2"/>
<path d="M67.0771 313.031C68.3639 313.031 69.4071 311.987 69.4071 310.701C69.4071 309.414 68.3639 308.371 67.0771 308.371C65.7902 308.371 64.7471 309.414 64.7471 310.701C64.7471 311.987 65.7902 313.031 67.0771 313.031Z" fill="#0B6BCB"/>
<path d="M274.487 418.56C275.774 418.56 276.817 417.517 276.817 416.23C276.817 414.944 275.774 413.9 274.487 413.9C273.2 413.9 272.157 414.944 272.157 416.23C272.157 417.517 273.2 418.56 274.487 418.56Z" fill="#B2B2B2"/>
<path d="M190.067 327.741C191.354 327.741 192.397 326.697 192.397 325.411C192.397 324.124 191.354 323.081 190.067 323.081C188.78 323.081 187.737 324.124 187.737 325.411C187.737 326.697 188.78 327.741 190.067 327.741Z" fill="#0B6BCB"/>
<path d="M345.237 137.391C345.237 138.681 344.197 139.721 342.907 139.721C341.617 139.721 340.577 138.681 340.577 137.391C340.577 136.101 341.617 135.061 342.907 135.061C344.197 135.061 345.237 136.101 345.237 137.391Z" fill="#0B6BCB"/>
<path d="M331.3 259.636L372.102 139.283H414.701L373.899 259.636H331.3ZM331.3 291.969V259.636H454.219V291.969H331.3ZM398.277 324.046V221.657H437.539V324.046H398.277Z" fill="#0B6BCB"/>
<path d="M278.357 266.82V196.764H320.956V266.82H278.357ZM202.912 266.82V196.764H245.51V266.82H202.912ZM260.394 167.51V135.176H263.474V167.51H260.394ZM260.394 328.152V295.818H263.474V328.152H260.394ZM202.912 196.764C202.912 184.96 205.393 174.439 210.354 165.2C215.486 155.962 222.415 148.691 231.14 143.388C239.865 137.914 249.702 135.176 260.651 135.176V167.51C255.861 167.51 252.097 170.076 249.36 175.208C246.793 180.341 245.51 187.526 245.51 196.764H202.912ZM320.956 196.764H278.357C278.357 187.526 276.989 180.341 274.251 175.208C271.685 170.076 268.007 167.51 263.217 167.51V135.176C274.337 135.176 284.174 137.914 292.728 143.388C301.453 148.691 308.296 155.962 313.257 165.2C318.389 174.439 320.956 184.96 320.956 196.764ZM202.912 266.564H245.51C245.51 275.802 246.793 282.987 249.36 288.12C252.097 293.252 255.861 295.818 260.651 295.818V328.152C249.702 328.152 239.865 325.5 231.14 320.197C222.415 314.722 215.486 307.366 210.354 298.128C205.393 288.718 202.912 278.197 202.912 266.564ZM320.956 266.564C320.956 278.197 318.389 288.718 313.257 298.128C308.296 307.366 301.453 314.722 292.728 320.197C284.174 325.5 274.337 328.152 263.217 328.152V295.818C268.007 295.818 271.685 293.252 274.251 288.12C276.989 282.987 278.357 275.802 278.357 266.564H320.956Z" fill="#0B6BCB"/>
<path d="M68.5195 259.636L109.322 139.283H151.92L111.118 259.636H68.5195ZM68.5195 291.969V259.636H191.439V291.969H68.5195ZM135.496 324.046V221.657H174.759V324.046H135.496Z" fill="#0B6BCB"/>
<g opacity="0.3">
<path d="M357.243 252.69C357.243 252.69 357.341 252.778 357.385 252.821C357.57 252.974 357.777 253.116 357.995 253.247C358.05 253.279 358.105 253.312 358.159 253.334C358.345 253.443 358.552 253.53 358.759 253.628C358.835 253.661 358.901 253.694 358.977 253.716C359.25 253.825 359.545 253.912 359.861 253.999C359.916 254.01 359.97 254.021 360.014 254.032C360.297 254.098 360.603 254.152 360.919 254.196C361.017 254.207 361.126 254.228 361.225 254.239C361.606 254.283 362.01 254.327 362.446 254.338C363.93 254.392 365.468 254.108 366.952 253.519C367.694 253.225 368.425 252.854 369.134 252.418C369.603 252.123 370.072 251.796 370.519 251.447C370.749 251.272 370.967 251.087 371.185 250.89C371.621 250.508 372.036 250.094 372.439 249.657C376.051 245.697 378.189 239.512 376.421 232.224C375.985 230.413 375.516 228.701 375.014 227.075C374.185 224.337 373.269 221.838 372.287 219.602C372.025 219.013 371.752 218.435 371.479 217.878C370.825 216.547 370.127 215.336 369.407 214.213C368.927 213.46 368.436 212.74 367.923 212.085C366.647 210.449 365.283 209.107 363.832 208.06C363.472 207.798 363.101 207.558 362.73 207.329C362.643 207.274 362.534 207.231 362.436 207.176L354.341 226.093V247.094C355.115 249.254 355.639 251.196 357.014 252.527C357.014 252.527 357.003 252.527 356.992 252.527C357.068 252.592 357.145 252.658 357.221 252.723L357.243 252.69Z" fill="black"/>
<path d="M320.841 261.176L321.841 254.676V240.176C320.73 240.22 321.737 230.321 320.841 230.375C320.886 229.206 321.056 221.279 318.788 212.774C318.686 205.252 311.95 208.456 306.813 203.776C306.28 196.506 302.073 188.033 297.367 182.086C297.48 182.086 297.594 182.119 297.718 182.108C299.601 181.911 300.78 179.648 301.608 175.723C301.721 175.188 301.801 174.685 301.869 174.193C303.354 173.231 305.202 171.799 306.064 170.202C306.529 169.35 306.971 167.928 307.176 166.289C308.684 165.425 310.713 164.026 312.743 161.85C314.195 160.298 315.193 158.133 315.624 155.771C315.125 154.405 314.603 153.06 314.036 151.748C311.519 145.987 308.185 141.002 304.068 136.76C302.889 136.158 301.608 135.655 300.213 135.295C298.954 134.967 297.707 134.814 296.482 134.792C292.99 134.092 285.653 132.9 275.606 132.671C272.216 132.594 269.176 132.605 266.444 132.769C264.119 131.807 261.579 131.381 258.971 131.654C257.372 131.818 255.864 132.245 254.458 132.857C250.137 131.763 245.783 131.479 242.2 131.851C241.338 131.938 240.487 132.048 239.659 132.168C239.625 131.753 239.603 131.337 239.557 130.922C239.467 130.124 239.342 129.336 239.183 128.56C239.285 127.117 239.297 125.652 239.206 124.176C235.067 125.455 231.302 127.15 227.923 129.249C219.26 134.639 211.036 144.567 206.841 154.176C202.645 163.786 202.341 171.929 202.341 184.676V194.91C206.4 199.972 211.299 205.646 214.531 207.821C214.769 208.062 215.007 208.292 215.234 208.521C215.461 212.293 216.141 220.788 217.842 223.586C217.842 223.586 216.515 228.101 218.772 230.375C218.08 235.426 217.162 248.086 222.605 260.538C226.834 270.214 237.666 272.373 245.082 274.035V264.676V254.676V185.847C245.082 180.818 245.502 175.833 246.341 170.891C247.18 165.95 245.386 161.773 248.187 158.362C250.976 154.951 255.354 153.246 261.329 153.246C267.305 153.246 271.671 154.951 274.472 158.362C277.273 161.773 279.087 165.961 279.926 170.891C280.766 175.833 277.976 180.818 277.976 185.847L278.157 266.667C278.157 268.274 278.078 269.903 277.976 271.532C278.033 271.849 278.101 272.144 278.18 272.406C278.18 272.406 278.18 272.406 278.18 272.428C278.282 272.756 278.396 273.051 278.509 273.314C278.532 273.368 278.566 273.412 278.588 273.467C278.69 273.674 278.804 273.871 278.929 274.035C278.963 274.079 278.997 274.123 279.031 274.166C279.189 274.363 279.348 274.549 279.541 274.702C279.541 274.702 279.552 274.702 279.564 274.713C279.745 274.855 279.926 274.986 280.131 275.107C280.176 275.139 280.233 275.161 280.289 275.194C280.471 275.292 280.664 275.38 280.868 275.456C280.902 275.467 280.936 275.489 280.97 275.5C281.208 275.588 281.469 275.664 281.729 275.741C281.786 275.752 281.854 275.773 281.911 275.784C282.138 275.839 282.364 275.905 282.603 275.959C282.693 275.981 282.773 276.003 282.863 276.025C283.136 276.091 283.419 276.145 283.714 276.211C287.819 277.129 294.827 271.761 296.618 266.361C296.97 265.311 297.242 264.076 297.457 262.775C297.684 262.742 297.911 262.709 298.138 262.676C301.71 263.376 309.217 264.393 317.302 262.895L320.841 261.176ZM294.316 178.631C294.316 178.631 294.294 178.61 294.282 178.599C294.305 178.446 294.328 178.293 294.35 178.129C294.328 178.336 294.316 178.511 294.316 178.631ZM294.668 175.898C294.747 175.341 294.815 174.794 294.883 174.269H294.917C294.827 174.849 294.747 175.395 294.668 175.898Z" fill="black"/>
</g>
<path d="M279.978 221.19C279.978 221.19 281.058 229.362 280.992 237.653C280.927 245.944 282.88 246.118 286.829 247.035C290.778 247.951 297.52 242.595 299.244 237.205C300.967 231.816 300.804 221.43 300.804 221.43L279.967 221.19H279.978Z" fill="#DEDEDE" stroke="#051423" stroke-miterlimit="10"/>
<path d="M298.022 231.172C297.847 234.849 296.745 240.751 291.29 243.653C286.654 246.118 282.628 243.947 281.516 243.227C282.323 246.107 284.101 246.391 286.839 247.024C290.789 247.94 297.531 242.584 299.254 237.194C300.978 231.805 300.814 221.419 300.814 221.419L298.382 221.387C298.294 224.114 298.142 228.685 298.022 231.162V231.172Z" fill="#DEDEDE" stroke="#051423" stroke-miterlimit="10"/>
<path d="M261.181 229.013C261.181 229.013 267.715 228.882 276.607 225.598C285.498 222.325 295.48 214.874 293.342 207.598C291.203 200.321 279.618 198.303 275.046 198.794C270.475 199.285 265.228 200.627 265.228 200.627C265.228 200.627 266.297 221.125 261.181 229.002V229.013Z" fill="#DEDEDE" stroke="#051423" stroke-miterlimit="10"/>
<path d="M256.882 231.98C256.882 231.98 262.719 230.769 266.264 226.143C269.81 221.518 271.119 214.056 269.221 209.059C267.322 204.063 256.871 231.98 256.871 231.98H256.882Z" fill="#0B6BCB" stroke="#051423" stroke-miterlimit="10"/>
<path d="M221.831 184.164C221.831 184.164 218.405 200.528 225.158 216.554C231.911 232.58 246.573 236.376 256.883 231.991C267.192 227.605 269.657 213.074 269.767 203.43C269.876 193.786 269.592 189.39 269.592 189.39C269.592 189.39 234.9 192.772 221.831 184.175V184.164Z" fill="#DEDEDE" stroke="#051423" stroke-miterlimit="10"/>
<path d="M220.565 179.669C220.565 179.669 219.027 185.037 222.136 187.011C225.245 188.986 241.293 198.412 260.352 194.801C270.999 192.783 268.654 189.662 268.468 187.95C268.283 186.237 220.565 179.669 220.565 179.669Z" fill="#0B6BCB" stroke="#051423" stroke-miterlimit="10"/>
<path d="M217.969 162.815C217.969 162.815 218.449 176.059 220.576 179.681C222.703 183.303 250.871 194.31 265.174 191.212C279.476 188.114 302.757 175.382 305.593 166.011C308.429 156.651 301.055 141.912 294.116 134.832C287.178 127.752 284.134 126.345 284.134 126.345C284.134 126.345 267.137 148.993 245.995 156.498C224.853 163.993 217.98 162.815 217.98 162.815H217.969Z" fill="white" stroke="#051423" stroke-miterlimit="10"/>
<path d="M330.248 196.273C330.248 196.273 345.216 190.404 351.194 193.993C357.172 197.583 361.743 205.95 364.885 218.899C368.027 231.849 358.842 241.329 350.91 241.035C342.979 240.74 344.343 235.58 341.267 230.333C338.19 225.085 334.394 222.02 334.143 221.474C333.892 220.929 337.677 204.335 330.248 196.273Z" fill="white" stroke="#051423" stroke-miterlimit="10"/>
<path d="M351.194 193.993C349.601 193.033 347.354 192.75 344.932 192.848C347.965 195.084 353.943 200.561 357.86 210.99C363.282 225.423 360.827 233.016 358.056 235.82C355.274 238.624 349.416 239.649 346.885 239.344C346.47 239.289 345.979 239.235 345.467 239.169C346.558 240.238 348.183 240.915 350.921 241.024C358.853 241.318 368.038 231.849 364.896 218.889C361.754 205.939 357.183 197.572 351.205 193.983L351.194 193.993Z" fill="white" stroke="#051423" stroke-miterlimit="10"/>
<path d="M298.611 233.038C298.611 233.038 312.727 237.097 325.829 231.816C338.932 226.536 346.656 217.798 343.765 207.139C340.874 196.47 335.441 196.099 323.506 196.241C311.582 196.383 309.182 197.408 309.182 197.408C309.182 197.408 308.789 227.507 298.6 233.038H298.611Z" fill="white" stroke="#051423" stroke-miterlimit="10"/>
<path d="M314.13 181.979C315.486 167.607 305.829 154.941 292.56 153.689C279.291 152.437 267.436 163.074 266.08 177.446C264.724 191.818 274.381 204.484 287.649 205.736C300.918 206.988 312.774 196.352 314.13 181.979Z" fill="#0B6BCB" stroke="#051423" stroke-miterlimit="10"/>
<path d="M319.244 212.194C320.474 199.153 311.717 187.661 299.684 186.526C287.651 185.39 276.899 195.042 275.669 208.082C274.438 221.123 283.196 232.615 295.228 233.75C307.261 234.885 318.013 225.234 319.244 212.194Z" fill="#0B6BCB" stroke="#051423" stroke-miterlimit="10"/>
<path d="M316.229 196.633C316.229 196.633 317.211 175.524 306.902 163.938C296.593 152.341 273.148 161.821 269.264 179.2C265.37 196.579 273.595 222.652 284.352 229.383C295.098 236.114 304.207 229.536 310.327 220.208C316.437 210.87 316.24 196.644 316.24 196.644L316.229 196.633Z" fill="white" stroke="#051423" stroke-miterlimit="10"/>
<path d="M170.578 137.516C170.578 137.516 162.418 157.273 160.411 162.902C158.403 168.531 156.298 174.88 156.341 178.546C156.385 182.211 158.643 186.859 160.411 187.012C162.178 187.164 163.443 185.986 163.694 183.51C163.945 181.033 163.836 179.997 165.091 178.644C166.345 177.291 170.24 174.586 170.742 174.357C171.244 174.128 171.615 176.004 170.447 178.055C169.269 180.106 166.684 181.96 168.309 184.055C169.935 186.15 173.164 183.706 174.887 181.939C176.622 180.182 178.389 177.193 179.109 174.138C179.829 171.095 179.48 164.669 179.48 164.669L193.903 151.054C193.903 151.054 174.789 148.763 170.6 137.516H170.578Z" fill="#DEDEDE" stroke="#051423" stroke-miterlimit="10"/>
<path d="M171.473 176.375C171.473 176.375 171.255 179.19 176.513 179.321" stroke="#051423" stroke-miterlimit="10"/>
<path d="M157.596 174.04C157.596 174.04 159.058 179.473 165.08 178.644" stroke="#051423" stroke-miterlimit="10"/>
<path d="M157.116 181.611C157.116 181.611 160.672 184.371 163.389 181.382" stroke="#051423" stroke-miterlimit="10"/>
<path d="M164.512 154.501C164.512 154.501 164.032 165.323 179.458 164.669" stroke="#051423" stroke-miterlimit="10"/>
<path d="M174.658 131.657C174.658 131.657 170.818 131.723 170.578 137.516C170.338 143.309 174.975 152.232 183.866 153.716C192.757 155.2 198.299 149.876 199.914 145.512C201.539 141.148 180.735 128.21 174.647 131.657H174.658Z" fill="#0B6BCB" stroke="#051423" stroke-miterlimit="10"/>
<path d="M184.651 115.904C184.651 115.904 175.225 127.239 173.578 132.999C171.931 138.77 176.055 149.33 186.495 150.639C196.946 151.948 203.164 143.243 203.164 143.243L184.651 115.904Z" fill="#DEDEDE" stroke="#051423" stroke-miterlimit="10"/>
<path d="M190.04 106.751C190.04 106.751 183.309 112.446 182.84 121.686C182.371 130.926 190.88 141.585 201.986 140.559C213.092 139.534 199.182 106.304 190.04 106.751Z" fill="#0B6BCB" stroke="#051423" stroke-miterlimit="10"/>
<path d="M194.688 113.602C194.688 113.602 189.746 119.559 192.582 129.552C195.419 139.556 202.477 145.076 202.477 145.076C202.477 145.076 216.147 164.724 221.885 167.767C227.634 170.811 237.78 170.931 258.355 162.585C278.93 154.24 287.036 141.999 290.2 135.715C293.363 129.432 274.85 100.522 268.457 96.3325C262.064 92.1324 253.708 90.7687 247.664 91.4342C241.62 92.0997 236.013 93.5725 236.013 93.5725L194.688 113.613V113.602Z" fill="#0B6BCB" stroke="#051423" stroke-miterlimit="10"/>
<path d="M191.022 110.318C191.022 110.318 186.08 116.275 188.917 126.268C191.753 136.272 198.812 141.792 198.812 141.792C198.812 141.792 212.47 161.44 218.219 164.484C223.969 167.527 234.114 167.647 254.689 159.302C275.265 150.956 283.37 138.716 286.534 132.432C289.698 126.148 271.184 97.238 264.792 93.0488C258.399 88.8487 250.042 87.4851 243.998 88.1505C237.954 88.8051 232.347 90.2888 232.347 90.2888L191.022 110.329V110.318Z" fill="white" stroke="#051423" stroke-miterlimit="10"/>
<path d="M240.439 99.076C245.142 82.5673 235.571 65.372 219.062 60.6694C202.553 55.9667 185.358 65.5375 180.656 82.0463C175.953 98.555 185.524 115.75 202.032 120.453C218.541 125.156 235.736 115.585 240.439 99.076Z" fill="#0B6BCB" stroke="#051423" stroke-miterlimit="10"/>
<path d="M233.63 104.198C245.632 88.9787 243.024 66.911 227.804 54.9086C212.585 42.9063 190.517 45.5142 178.515 60.7337C166.513 75.9532 169.121 98.0209 184.34 110.023C199.559 122.026 221.627 119.418 233.63 104.198Z" fill="#ABABAB" stroke="#051423" stroke-miterlimit="10"/>
<path d="M230.154 87.4413C230.514 86.7104 230.983 85.4122 230.852 83.7431C230.634 81.103 227.678 76.2483 226.445 74.9283C225.212 73.6082 223.325 75.1683 223.325 75.1683L221.143 71.2518C215.885 61.8043 203.961 58.4005 194.513 63.6589C185.065 68.9172 181.662 80.8412 186.92 90.2887L191.437 98.4162L188.906 94.3143C188.906 94.3143 186.593 95.0997 187.062 96.8452C187.531 98.5907 190.106 103.664 192.233 105.235C193.738 106.347 195.244 106.576 196.008 106.609L201.975 117.333C204.55 117.639 207.19 117.66 209.873 117.377C221.688 116.089 231.485 109.086 236.82 99.4199L230.165 87.4522L230.154 87.4413Z" fill="#051423" stroke="#051423" stroke-miterlimit="10"/>
<path d="M220.968 77.6336C216.997 70.4989 207.986 67.9242 200.851 71.8953L198.179 73.3789C191.044 77.35 188.469 86.3611 192.44 93.4959L205.826 117.562C207.157 117.562 208.51 117.507 209.862 117.366C220.346 116.231 229.238 110.569 234.834 102.562L220.957 77.6336H220.968Z" fill="white" stroke="#051423" stroke-miterlimit="10"/>
<path d="M204.506 92.2088C205.007 93.1142 204.975 94.0961 204.429 94.3906C203.884 94.6852 203.033 94.2052 202.531 93.2997C202.029 92.3942 202.062 91.4124 202.607 91.1178C203.153 90.8233 204.004 91.3033 204.506 92.2088Z" fill="#051423"/>
<path d="M215.601 86.0338C216.103 86.9392 216.07 87.9211 215.525 88.2156C214.979 88.5211 214.128 88.0302 213.627 87.1247C213.125 86.2192 213.158 85.2374 213.703 84.9428C214.248 84.6374 215.099 85.1283 215.601 86.0338Z" fill="#051423"/>
<path d="M210.157 87.4956L215.852 94.5867L210.67 96.9759" stroke="#051423" stroke-miterlimit="10"/>
<path d="M218.612 100.445C219.113 101.34 218.786 102.475 217.892 102.976C216.997 103.478 215.862 103.151 215.361 102.256C214.859 101.362 215.186 100.227 216.081 99.7254C216.975 99.2236 218.11 99.5508 218.612 100.445Z" fill="#051423"/>
<path d="M196.793 90.9327C196.793 90.9327 197.623 87.4635 202.205 87.1689" stroke="#051423" stroke-miterlimit="10"/>
<path d="M209.361 82.9356C209.361 82.9356 210.572 79.2591 215.416 80.3173" stroke="#051423" stroke-miterlimit="10"/>
<path d="M212.612 112.173C212.612 112.173 216.485 113.275 219.201 112.762C221.918 112.249 224.11 110.787 225.125 109.467C226.139 108.147 227.525 103.882 227.525 103.882" stroke="#051423" stroke-miterlimit="10"/>
<path d="M180.255 102.758C178.16 83.4922 192.08 66.1681 211.357 64.0735C222.485 62.8625 232.958 67.0081 240.234 74.4265C236.242 57.4078 220.107 45.6475 202.292 47.5894C183.026 49.684 169.094 66.9972 171.189 86.2741C172.073 94.4125 175.684 101.591 180.996 107.013C180.669 105.627 180.418 104.209 180.255 102.747V102.758Z" fill="white" stroke="#051423" stroke-miterlimit="10"/>
<path d="M263.986 123.426C272.66 122.484 278.828 113.776 277.763 103.977C276.699 94.1774 268.804 86.9972 260.131 87.9395C251.458 88.8817 245.29 97.5895 246.354 107.389C247.419 117.188 255.313 124.368 263.986 123.426Z" fill="#0B6BCB" stroke="#051423" stroke-miterlimit="10"/>
<path d="M298.426 91.5654C298.426 91.5654 289.927 89.2744 276.138 88.9471C262.348 88.6089 254.243 89.9508 251.624 96.8019C249.006 103.653 249.595 114.748 258.094 118.413C262.839 120.453 269.799 119.286 274.872 118.119C279.945 116.952 292.371 111.78 296.276 105.551C300.182 99.3219 300.258 94.4236 298.426 91.5654Z" fill="white" stroke="#051423" stroke-miterlimit="10"/>
<path d="M312.859 102.071C312.859 102.071 308.299 93.8563 299.8 91.5653C291.302 89.2743 283.501 94.8599 279.967 100.293C276.432 105.726 278.003 107.537 278.003 107.537C278.003 107.537 290.473 101.296 296.909 100.129C303.346 98.9619 312.859 102.06 312.859 102.06V102.071Z" fill="#0B6BCB" stroke="#051423" stroke-miterlimit="10"/>
<path d="M277.687 113.078C277.687 113.078 275.691 107.34 283.742 99.8888C291.793 92.4377 306.608 95.1105 311.43 100.096C316.252 105.071 315.674 113.853 311.855 118.086C308.037 122.319 304.208 123.649 304.208 123.649C304.208 123.649 296.702 110.864 277.687 113.078Z" fill="white" stroke="#051423" stroke-miterlimit="10"/>
<path d="M270.956 124.358C270.956 124.358 274.043 116.231 277.676 113.078C281.309 109.936 292.163 108.605 300.269 111.387C308.364 114.18 306.935 123.497 305.418 126.42C303.902 129.344 299.265 131.679 299.265 131.679L270.966 124.358H270.956Z" fill="white" stroke="#051423" stroke-miterlimit="10"/>
<path d="M271.883 123.028C271.883 123.028 270.236 123.355 268.588 125.068C266.941 126.78 266.417 127.599 263.112 129.486C259.806 131.373 256.293 131.45 257.592 134.973C258.89 138.497 263.723 137.974 266.112 137.406C268.501 136.839 269.472 135.966 271.305 134.548C273.137 133.13 274.523 123.344 274.621 122.875C274.719 122.406 271.883 123.017 271.883 123.017V123.028Z" fill="white" stroke="#051423" stroke-miterlimit="10"/>
<path d="M280.555 119.799C280.555 119.799 275.69 118.642 273.3 120.584C270.911 122.526 271.108 129.988 271.304 134.559C271.489 139.119 273.115 142.763 274.861 143.341C276.606 143.919 278.395 143.57 279.093 142.883C279.792 142.196 279.061 135.552 279.541 130.152C280.021 124.752 280.555 119.799 280.555 119.799Z" fill="white" stroke="#051423" stroke-miterlimit="10"/>
<path d="M280.556 119.798C280.556 119.798 278.374 125.078 277.741 130.5C277.108 135.922 280.043 143.242 281.178 143.886C282.312 144.53 285.509 144.333 286.251 142.719C286.992 141.104 286.447 135.639 286.534 132.431C286.621 129.224 288.16 122.329 287.931 120.224C287.701 118.107 282.934 117.867 280.545 119.798H280.556Z" fill="white" stroke="#051423" stroke-miterlimit="10"/>
<path d="M287.931 120.213C287.931 120.213 290.832 118.827 292.949 119.973C295.065 121.118 295.556 124.271 295.262 125.831C294.978 127.391 293.996 136.664 293.32 138.879C292.643 141.093 290.931 142.195 289.534 142.042C288.138 141.89 287.189 140.155 286.981 138.191C286.763 136.228 286.534 132.42 286.534 132.42L287.931 120.213Z" fill="white" stroke="#051423" stroke-miterlimit="10"/>
<path d="M295.261 122.94C295.261 122.94 299.189 123.889 300.345 124.685C301.502 125.482 301.927 128.024 301.131 131.94C300.334 135.846 299.2 138.115 297.389 138.311C295.578 138.508 294.105 136.228 294.105 134.842C294.105 133.468 295.6 126.125 295.261 122.951V122.94Z" fill="white" stroke="#051423" stroke-miterlimit="10"/>
<path d="M243.485 125.886C245.94 129.857 245.078 134.843 241.544 137.025C238.02 139.207 233.165 137.756 230.711 133.796C228.256 129.825 229.118 124.839 232.652 122.657C236.187 120.475 241.031 121.926 243.485 125.886Z" fill="#0B6BCB" stroke="#051423" stroke-miterlimit="10"/>
<path d="M224.143 139.25C225.867 142.032 225.256 145.523 222.779 147.05C220.303 148.578 216.91 147.563 215.187 144.781C213.463 141.999 214.074 138.508 216.55 136.981C219.027 135.454 222.419 136.468 224.143 139.25Z" fill="#051423"/>
<path d="M239.973 145.894C241.696 148.676 241.085 152.167 238.609 153.694C236.133 155.222 232.74 154.207 231.016 151.425C229.292 148.643 229.903 145.152 232.38 143.625C234.856 142.098 238.249 143.112 239.973 145.894Z" fill="#ABABAB" stroke="#051423" stroke-miterlimit="10"/>
</svg>
