<svg width="512" height="480" viewBox="0 0 512 480" fill="none" xmlns="http://www.w3.org/2000/svg">
<path d="M461.407 103.721C459.727 100.931 457.987 98.1808 456.157 95.5008C431.877 59.8308 391.467 35.4108 352.187 24.3508C334.977 19.5008 317.317 16.9608 299.677 16.3108C184.007 12.1108 141.507 107.491 104.237 132.081C66.967 156.671 9.77696 198.681 16.957 286.921C22.407 354.011 60.567 418.161 130.277 447.351C137.957 450.571 146.017 453.371 154.467 455.701C170.177 460.021 187.207 462.741 205.557 463.551C258.257 465.901 301.047 453.191 342.907 421.211C352.637 413.771 362.317 405.391 374.937 404.471C384.117 403.801 392.817 407.101 383.227 415.971C371.957 426.391 384.957 446.901 413.587 432.651C461.387 408.861 481.057 357.531 490.317 305.331C501.687 241.261 496.177 161.591 461.427 103.731L461.407 103.721Z" fill="#0B6BCB"/>
<path opacity="0.7" d="M461.407 103.721C459.727 100.931 457.987 98.1808 456.157 95.5008C431.877 59.8308 391.467 35.4108 352.187 24.3508C334.977 19.5008 317.317 16.9608 299.677 16.3108C184.007 12.1108 141.507 107.491 104.237 132.081C66.967 156.671 9.77696 198.681 16.957 286.921C22.407 354.011 60.567 418.161 130.277 447.351C137.957 450.571 146.017 453.371 154.467 455.701C170.177 460.021 187.207 462.741 205.557 463.551C258.257 465.901 301.047 453.191 342.907 421.211C352.637 413.771 362.317 405.391 374.937 404.471C384.117 403.801 392.817 407.101 383.227 415.971C371.957 426.391 384.957 446.901 413.587 432.651C461.387 408.861 481.057 357.531 490.317 305.331C501.687 241.261 496.177 161.591 461.427 103.731L461.407 103.721Z" fill="white"/>
<path d="M215.937 447.311C212.237 447.311 208.407 447.221 204.557 447.051C187.887 446.311 171.907 443.861 157.037 439.771C149.457 437.691 142.047 435.131 134.997 432.171C76.3469 407.611 38.1269 353.271 32.7269 286.811C29.9469 252.571 37.5169 223.761 55.8869 198.741C71.3969 177.601 92.0769 162.461 112.117 149.241C125.187 140.621 136.847 127.571 150.357 112.451C182.107 76.9207 221.627 32.7007 293.877 32.7007C296.087 32.7007 298.357 32.7407 300.607 32.8207C317.627 33.4507 333.987 35.9407 349.227 40.2407C388.377 51.2607 423.487 75.1007 443.167 104.011C444.737 106.311 446.307 108.781 447.837 111.331C482.507 169.061 484.417 248.481 474.637 303.561C464.947 358.131 447.047 392.911 418.677 411.761C418.267 409.281 417.617 407.231 417.037 405.761C412.027 392.971 399.067 385.331 382.357 385.331C380.957 385.331 379.527 385.381 378.107 385.491C358.317 386.931 343.947 398.051 333.457 406.161C332.557 406.851 331.667 407.551 330.767 408.231C295.407 435.261 259.987 447.311 215.927 447.311H215.937Z" fill="#051423"/>
<path d="M372.277 92.3307C374.867 92.3307 376.967 90.2309 376.967 87.6407C376.967 85.0505 374.867 82.9507 372.277 82.9507C369.687 82.9507 367.587 85.0505 367.587 87.6407C367.587 90.2309 369.687 92.3307 372.277 92.3307Z" fill="#B2B2B2"/>
<path d="M450.817 171.691C453.407 171.691 455.507 169.591 455.507 167.001C455.507 164.41 453.407 162.311 450.817 162.311C448.227 162.311 446.127 164.41 446.127 167.001C446.127 169.591 448.227 171.691 450.817 171.691Z" fill="#B2B2B2"/>
<path d="M126.537 394.061C129.127 394.061 131.227 391.961 131.227 389.371C131.227 386.78 129.127 384.681 126.537 384.681C123.946 384.681 121.847 386.78 121.847 389.371C121.847 391.961 123.946 394.061 126.537 394.061Z" fill="#B2B2B2"/>
<path d="M412.227 389.981C414.817 389.981 416.917 387.881 416.917 385.291C416.917 382.7 414.817 380.601 412.227 380.601C409.637 380.601 407.537 382.7 407.537 385.291C407.537 387.881 409.637 389.981 412.227 389.981Z" fill="#B2B2B2"/>
<path d="M258.237 46.7806C258.237 48.2606 257.037 49.4606 255.557 49.4606C254.077 49.4606 252.877 48.2606 252.877 46.7806C252.877 45.3006 254.077 44.1006 255.557 44.1006C257.037 44.1006 258.237 45.3006 258.237 46.7806Z" fill="#B2B2B2"/>
<path d="M71.7466 213.28C74.3369 213.28 76.4366 211.181 76.4366 208.59C76.4366 206 74.3369 203.9 71.7466 203.9C69.1564 203.9 67.0566 206 67.0566 208.59C67.0566 211.181 69.1564 213.28 71.7466 213.28Z" fill="#B2B2B2"/>
<path d="M409.987 93.4608C411.274 93.4608 412.317 92.4176 412.317 91.1308C412.317 89.844 411.274 88.8008 409.987 88.8008C408.7 88.8008 407.657 89.844 407.657 91.1308C407.657 92.4176 408.7 93.4608 409.987 93.4608Z" fill="#B2B2B2"/>
<path d="M96.6874 360.361C97.9742 360.361 99.0174 359.318 99.0174 358.031C99.0174 356.744 97.9742 355.701 96.6874 355.701C95.4006 355.701 94.3574 356.744 94.3574 358.031C94.3574 359.318 95.4006 360.361 96.6874 360.361Z" fill="#0B6BCB"/>
<path d="M440.357 341.171C441.644 341.171 442.687 340.128 442.687 338.841C442.687 337.554 441.644 336.511 440.357 336.511C439.071 336.511 438.027 337.554 438.027 338.841C438.027 340.128 439.071 341.171 440.357 341.171Z" fill="#0B6BCB"/>
<path d="M225.997 403.091C225.997 404.381 224.957 405.421 223.667 405.421C222.377 405.421 221.337 404.381 221.337 403.091C221.337 401.801 222.377 400.761 223.667 400.761C224.957 400.761 225.997 401.801 225.997 403.091Z" fill="#0B6BCB"/>
<path d="M106.697 320.931C106.697 322.221 105.657 323.261 104.367 323.261C103.077 323.261 102.037 322.221 102.037 320.931C102.037 319.641 103.077 318.601 104.367 318.601C105.657 318.601 106.697 319.641 106.697 320.931Z" fill="#B2B2B2"/>
<path d="M203.107 432.54C203.107 433.83 202.067 434.87 200.777 434.87C199.487 434.87 198.447 433.83 198.447 432.54C198.447 431.25 199.487 430.21 200.777 430.21C202.067 430.21 203.107 431.25 203.107 432.54Z" fill="#B2B2B2"/>
<path d="M337.157 57.4403C337.157 58.7303 336.117 59.7704 334.827 59.7704C333.537 59.7704 332.497 58.7303 332.497 57.4403C332.497 56.1503 333.537 55.1104 334.827 55.1104C336.117 55.1104 337.157 56.1503 337.157 57.4403Z" fill="#0B6BCB"/>
<path d="M341.177 311.98C341.177 313.27 340.137 314.31 338.847 314.31C337.557 314.31 336.517 313.27 336.517 311.98C336.517 310.69 337.557 309.65 338.847 309.65C340.137 309.65 341.177 310.69 341.177 311.98Z" fill="#B2B2B2"/>
<path d="M448.067 221.491C448.067 222.781 447.027 223.821 445.737 223.821C444.447 223.821 443.407 222.781 443.407 221.491C443.407 220.201 444.447 219.161 445.737 219.161C447.027 219.161 448.067 220.201 448.067 221.491Z" fill="#B2B2B2"/>
<path d="M67.0771 313.031C68.3639 313.031 69.4071 311.987 69.4071 310.701C69.4071 309.414 68.3639 308.371 67.0771 308.371C65.7902 308.371 64.7471 309.414 64.7471 310.701C64.7471 311.987 65.7902 313.031 67.0771 313.031Z" fill="#0B6BCB"/>
<path d="M274.487 418.56C275.774 418.56 276.817 417.517 276.817 416.23C276.817 414.944 275.774 413.9 274.487 413.9C273.2 413.9 272.157 414.944 272.157 416.23C272.157 417.517 273.2 418.56 274.487 418.56Z" fill="#B2B2B2"/>
<path d="M190.067 327.741C191.354 327.741 192.397 326.697 192.397 325.411C192.397 324.124 191.354 323.081 190.067 323.081C188.78 323.081 187.737 324.124 187.737 325.411C187.737 326.697 188.78 327.741 190.067 327.741Z" fill="#0B6BCB"/>
<path d="M345.237 137.391C345.237 138.681 344.197 139.721 342.907 139.721C341.617 139.721 340.577 138.681 340.577 137.391C340.577 136.101 341.617 135.061 342.907 135.061C344.197 135.061 345.237 136.101 345.237 137.391Z" fill="#0B6BCB"/>
<path d="M409.293 266.01V194.789H452.6V266.01H409.293ZM332.593 266.01V194.789H375.9V266.01H332.593ZM391.031 165.048V132.176H394.162V165.048H391.031ZM391.031 328.362V295.49H394.162V328.362H391.031ZM332.593 194.789C332.593 182.788 335.115 172.092 340.158 162.7C345.376 153.308 352.42 145.916 361.29 140.525C370.16 134.959 380.161 132.176 391.292 132.176V165.048C386.422 165.048 382.596 167.657 379.813 172.874C377.204 178.092 375.9 185.397 375.9 194.789H332.593ZM452.6 194.789H409.293C409.293 185.397 407.902 178.092 405.119 172.874C402.51 167.657 398.771 165.048 393.901 165.048V132.176C405.206 132.176 415.206 134.959 423.902 140.525C432.773 145.916 439.729 153.308 444.773 162.7C449.991 172.092 452.6 182.788 452.6 194.789ZM332.593 265.749H375.9C375.9 275.141 377.204 282.446 379.813 287.664C382.596 292.881 386.422 295.49 391.292 295.49V328.362C380.161 328.362 370.16 325.666 361.29 320.274C352.42 314.709 345.376 307.23 340.158 297.838C335.115 288.272 332.593 277.576 332.593 265.749ZM452.6 265.749C452.6 277.576 449.991 288.272 444.773 297.838C439.729 307.23 432.773 314.709 423.902 320.274C415.206 325.666 405.206 328.362 393.901 328.362V295.49C398.771 295.49 402.51 292.881 405.119 287.664C407.902 282.446 409.293 275.141 409.293 265.749H452.6Z" fill="#0B6BCB"/>
<path d="M273.552 266.01V194.789H316.859V266.01H273.552ZM196.852 266.01V194.789H240.158V266.01H196.852ZM255.29 165.048V132.176H258.42V165.048H255.29ZM255.29 328.362V295.49H258.42V328.362H255.29ZM196.852 194.789C196.852 182.788 199.373 172.092 204.417 162.7C209.635 153.308 216.679 145.916 225.549 140.525C234.419 134.959 244.42 132.176 255.551 132.176V165.048C250.681 165.048 246.854 167.657 244.072 172.874C241.463 178.092 240.158 185.397 240.158 194.789H196.852ZM316.859 194.789H273.552C273.552 185.397 272.16 178.092 269.378 172.874C266.769 167.657 263.029 165.048 258.159 165.048V132.176C269.465 132.176 279.465 134.959 288.161 140.525C297.031 145.916 303.988 153.308 309.032 162.7C314.25 172.092 316.859 182.788 316.859 194.789ZM196.852 265.749H240.158C240.158 275.141 241.463 282.446 244.072 287.664C246.854 292.881 250.681 295.49 255.551 295.49V328.362C244.42 328.362 234.419 325.666 225.549 320.274C216.679 314.709 209.635 307.23 204.417 297.838C199.373 288.272 196.852 277.576 196.852 265.749ZM316.859 265.749C316.859 277.576 314.25 288.272 309.032 297.838C303.988 307.23 297.031 314.709 288.161 320.274C279.465 325.666 269.465 328.362 258.159 328.362V295.49C263.029 295.49 266.769 292.881 269.378 287.664C272.16 282.446 273.552 275.141 273.552 265.749H316.859Z" fill="#0B6BCB"/>
<path d="M69.6088 244.618V136.351H107.437V244.618H69.6088ZM136.656 266.011V246.966H179.963V266.011H136.656ZM69.6088 169.223V136.351H173.963V169.223H69.6088ZM136.656 246.966C136.656 239.14 135.178 233.052 132.221 228.704C129.265 224.356 125.09 222.182 119.699 222.182L128.569 190.876C138.482 190.876 147.266 193.311 154.918 198.181C162.745 203.051 168.832 209.747 173.18 218.269C177.702 226.617 179.963 236.183 179.963 246.966H136.656ZM84.4793 244.357C84.4793 234.096 86.3924 224.965 90.2188 216.964C94.0451 208.964 99.2628 202.616 105.872 197.92C112.655 193.224 120.221 190.876 128.569 190.876L119.699 222.182C115.872 222.182 112.829 224.182 110.568 228.183C108.481 232.009 107.437 237.4 107.437 244.357H84.4793ZM179.963 265.489C179.963 277.316 177.354 288.012 172.137 297.578C167.093 306.97 160.136 314.448 151.266 320.014C142.57 325.406 132.569 328.101 121.264 328.101V295.23C126.134 295.23 129.873 292.621 132.482 287.403C135.265 282.186 136.656 274.881 136.656 265.489H179.963ZM104.828 274.881C105.698 281.316 107.611 286.36 110.568 290.012C113.524 293.665 117.177 295.491 121.525 295.491V328.362C111.785 328.362 103.089 326.536 95.4364 322.884C87.7838 319.231 81.5226 313.927 76.6527 306.97C71.9568 299.839 68.7392 291.404 67 281.664L104.828 274.881Z" fill="#0B6BCB"/>
<g opacity="0.3">
<path d="M368.096 250.375C368.096 250.375 368.2 250.468 368.247 250.515C368.445 250.679 368.666 250.831 368.899 250.971C368.957 251.006 369.015 251.041 369.073 251.064C369.271 251.181 369.492 251.275 369.713 251.38C369.795 251.415 369.865 251.45 369.946 251.474C370.237 251.59 370.551 251.684 370.889 251.777C370.947 251.789 371.005 251.801 371.052 251.813C371.354 251.883 371.68 251.941 372.018 251.988C372.122 252 372.239 252.023 372.343 252.035C372.751 252.081 373.181 252.128 373.647 252.14C375.23 252.198 376.87 251.894 378.453 251.263C379.245 250.948 380.024 250.55 380.781 250.083C381.281 249.767 381.782 249.416 382.259 249.042C382.503 248.855 382.736 248.656 382.969 248.446C383.434 248.037 383.876 247.593 384.307 247.125C388.159 242.882 390.44 236.254 388.555 228.446C388.089 226.505 387.589 224.67 387.053 222.928C386.169 219.994 385.191 217.318 384.144 214.921C383.865 214.29 383.574 213.671 383.283 213.074C382.585 211.648 381.84 210.351 381.072 209.147C380.56 208.34 380.036 207.569 379.489 206.867C378.127 205.114 376.673 203.676 375.125 202.554C374.741 202.274 374.345 202.016 373.949 201.771C373.856 201.712 365.105 200.058 365 200V221.876V244.378C365.826 246.693 366.385 248.773 367.851 250.199C367.851 250.199 367.84 250.199 367.828 250.199C367.909 250.27 367.991 250.34 368.072 250.41L368.096 250.375Z" fill="black"/>
<path d="M317 252.617V212.435C315.823 212.482 314.742 212.529 313.793 212.587C313.841 211.334 314.021 202.838 311.619 193.721C311.51 185.659 308.111 178.335 302.669 173.32C302.105 165.527 297.648 156.446 292.663 150.071C292.783 150.071 292.903 150.106 293.036 150.095C295.03 149.884 296.279 147.458 297.156 143.251C297.276 142.677 297.36 142.138 297.432 141.611C299.006 140.579 300.964 139.044 301.877 137.333C302.369 136.419 302.838 134.896 303.054 133.138C304.651 132.213 306.802 130.713 308.952 128.381C310.489 126.717 311.546 124.397 312.003 121.865C311.474 120.401 310.922 118.959 310.321 117.553C307.654 111.378 304.123 106.034 299.762 101.488C298.513 100.843 297.156 100.304 295.678 99.9174C294.345 99.5658 293.024 99.4018 291.726 99.3783C288.027 98.6284 280.255 97.3511 269.612 97.105C266.02 97.023 262.801 97.0347 259.906 97.2105C257.443 96.1793 254.753 95.7223 251.99 96.0152C250.296 96.191 248.699 96.648 247.209 97.3042C242.632 96.1324 238.02 95.8277 234.224 96.2261C233.311 96.3199 232.41 96.4371 231.533 96.566C231.497 96.1207 231.473 95.6754 231.425 95.2301C231.329 94.3747 231.197 93.531 231.029 92.699C231.137 91.1522 231.149 89.582 231.053 88C226.668 89.371 222.68 91.1873 219.1 93.4372C209.923 99.2143 203.112 107.265 198.668 117.565C194.223 127.865 196.674 139.078 196.674 152.741V163.03C200.975 168.455 201.491 175.324 204.914 177.656C205.166 177.913 205.419 178.16 205.659 178.406C205.899 182.448 206.62 191.553 208.422 194.553C208.422 194.553 207.016 199.393 209.407 201.83C208.674 207.244 207.701 220.814 213.467 234.161C217.947 244.531 231.502 250.836 239.358 252.617L240.566 153.919C240.566 148.529 233.9 143.368 234.788 138.072C235.677 132.775 237.599 128.299 240.566 124.643C243.521 120.987 248.158 119.159 254.488 119.159C260.819 119.159 265.444 120.987 268.411 124.643C271.378 128.299 273.3 132.787 274.188 138.072C275.077 143.368 274.088 146.956 274.088 152.347L272.633 252.382C272.633 254.105 274.175 260.128 275.33 261.874C275.39 262.214 275.462 262.53 275.546 262.811C275.546 262.811 275.546 262.811 275.546 262.835C275.654 263.186 275.774 263.503 275.894 263.784C275.918 263.843 275.954 263.89 275.978 263.948C276.086 264.171 276.207 264.382 276.339 264.557C276.375 264.604 276.411 264.651 276.447 264.698C276.615 264.909 276.783 265.108 276.987 265.272C276.987 265.272 276.999 265.272 277.011 265.284C277.204 265.436 277.396 265.577 277.612 265.706C277.66 265.741 277.72 265.764 277.78 265.8C277.972 265.905 278.177 265.999 278.393 266.081C278.429 266.093 278.465 266.116 278.501 266.128C278.753 266.221 279.029 266.303 279.306 266.385C279.366 266.397 279.438 266.421 279.498 266.432C279.738 266.491 279.978 266.561 280.231 266.62C280.327 266.643 280.411 266.667 280.507 266.69C280.795 266.76 281.095 266.819 281.408 266.889C285.756 267.874 293.18 262.12 295.078 256.331C295.45 255.206 295.738 253.882 295.967 252.488C296.207 252.453 296.447 252.417 296.687 252.382C300.471 253.132 308.423 254.222 316.988 252.617H317ZM289.432 146.368C289.432 146.368 289.408 146.345 289.396 146.333C289.42 146.169 289.444 146.005 289.468 145.829C289.444 146.052 289.432 146.239 289.432 146.368ZM289.804 143.439C289.888 142.841 289.961 142.255 290.033 141.693H290.069C289.973 142.314 289.888 142.9 289.804 143.439Z" fill="black"/>
<path d="M174.51 130.951C171.59 133.751 168.973 136.304 167.577 137.746C163.138 142.342 158.285 147.597 156.706 151.19C155.126 154.783 155.262 160.318 156.91 161.252C158.548 162.182 160.297 161.595 161.633 159.329L174.51 130.951Z" fill="black"/>
</g>
<path d="M291.668 210.203C291.668 210.203 292.82 218.958 292.75 227.842C292.68 236.726 294.764 236.913 298.976 237.895C303.189 238.877 310.381 233.137 312.22 227.363C314.059 221.588 313.884 210.46 313.884 210.46L291.656 210.203H291.668Z" fill="#DEDEDE" stroke="#051423" stroke-miterlimit="10"/>
<path d="M310.915 220.898C310.729 224.838 309.554 231.162 303.735 234.271C298.789 236.913 294.495 234.586 293.308 233.815C294.169 236.901 296.066 237.205 298.987 237.883C303.2 238.865 310.392 233.125 312.231 227.351C314.069 221.576 313.895 210.448 313.895 210.448L311.3 210.413C311.206 213.335 311.043 218.233 310.915 220.887V220.898Z" fill="#DEDEDE" stroke="#051423" stroke-miterlimit="10"/>
<path d="M271.615 218.584C271.615 218.584 278.586 218.443 288.071 214.925C297.556 211.418 308.204 203.434 305.923 195.638C303.642 187.841 291.283 185.678 286.407 186.205C281.531 186.731 275.933 188.168 275.933 188.168C275.933 188.168 277.073 210.132 271.615 218.572V218.584Z" fill="#DEDEDE" stroke="#051423" stroke-miterlimit="10"/>
<path d="M267.03 221.763C267.03 221.763 273.256 220.466 277.039 215.509C280.821 210.553 282.217 202.558 280.192 197.204C278.167 191.85 267.019 221.763 267.019 221.763H267.03Z" fill="#0B6BCB" stroke="#051423" stroke-miterlimit="10"/>
<path d="M229.639 170.529C229.639 170.529 225.984 188.063 233.188 205.235C240.392 222.406 256.033 226.474 267.031 221.775C278.028 217.076 280.658 201.506 280.775 191.173C280.891 180.839 280.589 176.128 280.589 176.128C280.589 176.128 243.581 179.752 229.639 170.541V170.529Z" fill="#DEDEDE" stroke="#051423" stroke-miterlimit="10"/>
<path d="M228.289 165.713C228.289 165.713 226.648 171.464 229.965 173.58C233.281 175.696 250.4 185.795 270.731 181.926C282.09 179.764 279.588 176.421 279.39 174.586C279.192 172.75 228.289 165.713 228.289 165.713Z" fill="#0B6BCB" stroke="#051423" stroke-miterlimit="10"/>
<path d="M225.519 147.654C225.519 147.654 226.031 161.845 228.3 165.725C230.569 169.606 260.618 181.401 275.875 178.081C291.132 174.761 315.967 161.12 318.993 151.079C322.019 141.049 314.151 125.257 306.75 117.671C299.348 110.085 296.101 108.577 296.101 108.577C296.101 108.577 277.97 132.844 255.416 140.886C232.862 148.916 225.53 147.654 225.53 147.654H225.519Z" fill="white" stroke="#051423" stroke-miterlimit="10"/>
<path d="M345.294 183.504C345.294 183.504 361.261 177.216 367.638 181.061C374.016 184.907 378.892 193.873 382.244 207.748C385.595 221.623 375.796 231.781 367.336 231.465C358.875 231.15 360.33 225.621 357.048 219.998C353.766 214.376 349.716 211.091 349.449 210.507C349.181 209.922 353.219 192.143 345.294 183.504Z" fill="white" stroke="#051423" stroke-miterlimit="10"/>
<path d="M367.638 181.061C365.939 180.032 363.542 179.728 360.958 179.834C364.193 182.23 370.571 188.098 374.749 199.273C380.533 214.738 377.914 222.873 374.958 225.878C371.991 228.882 365.741 229.981 363.041 229.653C362.599 229.595 362.075 229.536 361.528 229.466C362.692 230.612 364.426 231.336 367.347 231.453C375.808 231.769 385.607 221.623 382.255 207.736C378.903 193.861 374.027 184.895 367.65 181.049L367.638 181.061Z" fill="white" stroke="#051423" stroke-miterlimit="10"/>
<path d="M311.544 222.897C311.544 222.897 326.603 227.246 340.58 221.588C354.557 215.93 362.796 206.567 359.712 195.147C356.628 183.715 350.833 183.317 338.101 183.469C325.381 183.621 322.821 184.72 322.821 184.72C322.821 184.72 322.402 216.971 311.532 222.897H311.544Z" fill="white" stroke="#051423" stroke-miterlimit="10"/>
<path d="M328.099 168.188C329.545 152.789 319.243 139.217 305.089 137.876C290.935 136.535 278.288 147.931 276.841 163.331C275.394 178.73 285.696 192.302 299.85 193.643C314.005 194.985 326.652 183.588 328.099 168.188Z" fill="#0B6BCB" stroke="#051423" stroke-miterlimit="10"/>
<path d="M333.554 200.562C334.867 186.589 325.525 174.276 312.689 173.06C299.852 171.843 288.382 182.184 287.07 196.157C285.757 210.13 295.099 222.443 307.935 223.66C320.772 224.876 332.241 214.535 333.554 200.562Z" fill="#0B6BCB" stroke="#051423" stroke-miterlimit="10"/>
<path d="M330.339 183.89C330.339 183.89 331.387 161.271 320.389 148.857C309.391 136.432 284.382 146.59 280.239 165.211C276.084 183.832 284.859 211.769 296.334 218.981C307.797 226.193 317.514 219.145 324.043 209.15C330.56 199.144 330.351 183.902 330.351 183.902L330.339 183.89Z" fill="white" stroke="#051423" stroke-miterlimit="10"/>
<path d="M174.964 120.546C174.964 120.546 166.259 141.715 164.118 147.747C161.977 153.778 159.731 160.582 159.777 164.509C159.824 168.437 162.233 173.416 164.118 173.58C166.003 173.744 167.353 172.481 167.621 169.828C167.889 167.174 167.772 166.064 169.111 164.614C170.449 163.165 174.604 160.266 175.139 160.02C175.674 159.775 176.07 161.786 174.825 163.983C173.568 166.181 170.81 168.168 172.544 170.412C174.278 172.657 177.722 170.038 179.561 168.145C181.412 166.263 183.297 163.06 184.065 159.787C184.833 156.525 184.461 149.64 184.461 149.64L199.846 135.052C199.846 135.052 179.456 132.598 174.988 120.546H174.964Z" fill="#DEDEDE" stroke="#051423" stroke-miterlimit="10"/>
<path d="M175.918 162.183C175.918 162.183 175.686 165.199 181.295 165.339" stroke="#051423" stroke-miterlimit="10"/>
<path d="M161.115 159.682C161.115 159.682 162.675 165.503 169.099 164.615" stroke="#051423" stroke-miterlimit="10"/>
<path d="M160.603 167.793C160.603 167.793 164.396 170.751 167.294 167.548" stroke="#051423" stroke-miterlimit="10"/>
<path d="M168.494 138.746C168.494 138.746 167.982 150.341 184.438 149.64" stroke="#051423" stroke-miterlimit="10"/>
<path d="M179.317 114.269C179.317 114.269 175.221 114.339 174.965 120.546C174.709 126.753 179.655 136.315 189.139 137.905C198.624 139.494 204.536 133.79 206.258 129.114C207.992 124.438 185.799 110.575 179.305 114.269H179.317Z" fill="#0B6BCB" stroke="#051423" stroke-miterlimit="10"/>
<path d="M189.977 97.3892C189.977 97.3892 179.922 109.534 178.165 115.706C176.407 121.89 180.806 133.205 191.944 134.608C203.093 136.01 209.726 126.682 209.726 126.682L189.977 97.3892Z" fill="#DEDEDE" stroke="#051423" stroke-miterlimit="10"/>
<path d="M195.725 87.5824C195.725 87.5824 188.545 93.6842 188.044 103.585C187.544 113.486 196.621 124.906 208.468 123.807C220.316 122.709 205.477 87.1032 195.725 87.5824Z" fill="#0B6BCB" stroke="#051423" stroke-miterlimit="10"/>
<path d="M200.684 94.9233C200.684 94.9233 195.412 101.306 198.438 112.013C201.464 122.732 208.993 128.647 208.993 128.647C208.993 128.647 223.575 149.699 229.697 152.96C235.83 156.222 246.653 156.35 268.602 147.408C290.55 138.466 299.197 125.35 302.572 118.617C305.947 111.884 286.198 80.9079 279.378 76.4192C272.558 71.9189 263.644 70.4577 257.197 71.1708C250.749 71.8838 244.768 73.4619 244.768 73.4619L200.684 94.935V94.9233Z" fill="#0B6BCB" stroke="#051423" stroke-miterlimit="10"/>
<path d="M196.773 91.4048C196.773 91.4048 191.501 97.7871 194.527 108.494C197.552 119.213 205.082 125.128 205.082 125.128C205.082 125.128 219.653 146.181 225.786 149.442C231.919 152.703 242.742 152.832 264.69 143.889C286.639 134.947 295.286 121.832 298.661 115.099C302.036 108.366 282.287 77.3894 275.467 72.9007C268.647 68.4003 259.733 66.9392 253.286 67.6522C246.838 68.3536 240.856 69.9433 240.856 69.9433L196.773 91.4165V91.4048Z" fill="white" stroke="#051423" stroke-miterlimit="10"/>
<path d="M249.489 79.3587C254.506 61.6699 244.296 43.2454 226.685 38.2066C209.074 33.1678 190.731 43.4227 185.714 61.1116C180.698 78.8005 190.907 97.2249 208.518 102.264C226.129 107.303 244.472 97.0476 249.489 79.3587Z" fill="#0B6BCB" stroke="#051423" stroke-miterlimit="10"/>
<path d="M242.225 84.847C255.029 68.5396 252.247 44.8944 236.011 32.034C219.776 19.1737 196.235 21.9681 183.431 38.2755C170.627 54.5829 173.41 78.2281 189.645 91.0885C205.881 103.949 229.422 101.154 242.225 84.847Z" fill="#ABABAB" stroke="#051423" stroke-miterlimit="10"/>
<path d="M238.517 66.8924C238.901 66.1092 239.401 64.7182 239.262 62.9298C239.029 60.101 235.875 54.8993 234.56 53.4849C233.245 52.0705 231.232 53.742 231.232 53.742L228.904 49.5456C223.295 39.4227 210.575 35.7756 200.497 41.4099C190.418 47.0441 186.787 59.8204 192.397 69.9433L197.215 78.6518L194.515 74.2566C194.515 74.2566 192.048 75.0983 192.548 76.9685C193.048 78.8388 195.795 84.2743 198.064 85.9576C199.67 87.1499 201.276 87.3954 202.091 87.4304L208.457 98.921C211.203 99.2482 214.02 99.2716 216.882 98.9677C229.486 97.5884 239.937 90.0839 245.628 79.7272L238.529 66.9041L238.517 66.8924Z" fill="#051423" stroke="#051423" stroke-miterlimit="10"/>
<path d="M228.718 56.3833C224.481 48.7385 214.869 45.9798 207.258 50.2347L204.406 51.8245C196.795 56.0794 194.049 65.7347 198.285 73.3794L212.564 99.1659C213.984 99.1659 215.427 99.1075 216.87 98.9555C228.054 97.7398 237.539 91.6731 243.509 83.0932L228.706 56.3833H228.718Z" fill="white" stroke="#051423" stroke-miterlimit="10"/>
<path d="M211.157 72.0005C211.692 72.9707 211.657 74.0227 211.075 74.3383C210.493 74.6539 209.586 74.1396 209.05 73.1694C208.515 72.1992 208.55 71.1471 209.132 70.8315C209.714 70.5159 210.621 71.0303 211.157 72.0005Z" fill="#051423"/>
<path d="M222.993 65.3839C223.528 66.3541 223.493 67.4061 222.911 67.7217C222.329 68.049 221.422 67.523 220.886 66.5528C220.351 65.5826 220.386 64.5305 220.968 64.2149C221.55 63.8876 222.457 64.4137 222.993 65.3839Z" fill="#051423"/>
<path d="M217.186 66.9502L223.26 74.5482L217.733 77.1082" stroke="#051423" stroke-miterlimit="10"/>
<path d="M226.205 80.8257C226.74 81.7842 226.391 82.9999 225.437 83.5376C224.482 84.0753 223.272 83.7247 222.737 82.7661C222.201 81.8076 222.551 80.5919 223.505 80.0542C224.459 79.5165 225.669 79.8672 226.205 80.8257Z" fill="#051423"/>
<path d="M202.929 70.6329C202.929 70.6329 203.813 66.9157 208.701 66.6001" stroke="#051423" stroke-miterlimit="10"/>
<path d="M216.337 62.0641C216.337 62.0641 217.629 58.1249 222.796 59.2587" stroke="#051423" stroke-miterlimit="10"/>
<path d="M219.805 93.3916C219.805 93.3916 223.936 94.5723 226.834 94.0229C229.732 93.4735 232.071 91.9071 233.153 90.4927C234.235 89.0783 235.713 84.5078 235.713 84.5078" stroke="#051423" stroke-miterlimit="10"/>
<path d="M185.287 83.3038C183.052 62.6606 197.902 44.0981 218.466 41.8537C230.336 40.5562 241.509 44.9981 249.271 52.9468C245.012 34.7116 227.799 22.1106 208.795 24.1913C188.243 26.4356 173.381 44.9865 175.616 65.6414C176.559 74.3615 180.411 82.0531 186.078 87.8626C185.729 86.3781 185.461 84.8585 185.287 83.2921V83.3038Z" fill="white" stroke="#051423" stroke-miterlimit="10"/>
<path d="M274.608 105.449C283.861 104.44 290.441 95.1096 289.305 84.6097C288.169 74.1098 279.748 66.4163 270.496 67.4259C261.244 68.4355 254.664 77.7658 255.799 88.2657C256.935 98.7656 265.356 106.459 274.608 105.449Z" fill="#0B6BCB" stroke="#051423" stroke-miterlimit="10"/>
<path d="M311.347 71.3111C311.347 71.3111 302.281 68.8564 287.571 68.5057C272.861 68.1433 264.214 69.5811 261.421 76.922C258.628 84.2628 259.257 96.1508 268.322 100.078C273.385 102.264 280.81 101.013 286.221 99.7627C291.633 98.512 304.888 92.9713 309.054 86.2967C313.221 79.6222 313.302 74.3737 311.347 71.3111Z" fill="white" stroke="#051423" stroke-miterlimit="10"/>
<path d="M326.744 82.5678C326.744 82.5678 321.879 73.7658 312.814 71.311C303.748 68.8563 295.427 74.8412 291.656 80.6624C287.886 86.4837 289.562 88.4241 289.562 88.4241C289.562 88.4241 302.863 81.7378 309.73 80.4871C316.596 79.2363 326.744 82.5561 326.744 82.5561V82.5678Z" fill="#0B6BCB" stroke="#051423" stroke-miterlimit="10"/>
<path d="M289.224 94.3617C289.224 94.3617 287.095 88.2132 295.683 80.2294C304.272 72.2456 320.076 75.1095 325.22 80.4515C330.364 85.7818 329.747 95.1916 325.674 99.7271C321.6 104.262 317.516 105.689 317.516 105.689C317.516 105.689 309.509 91.9888 289.224 94.3617Z" fill="white" stroke="#051423" stroke-miterlimit="10"/>
<path d="M282.042 106.448C282.042 106.448 285.335 97.7397 289.211 94.3615C293.086 90.995 304.666 89.5689 313.313 92.5497C321.948 95.5421 320.423 105.525 318.806 108.657C317.188 111.79 312.242 114.292 312.242 114.292L282.054 106.448H282.042Z" fill="white" stroke="#051423" stroke-miterlimit="10"/>
<path d="M283.033 105.022C283.033 105.022 281.275 105.373 279.518 107.208C277.761 109.044 277.202 109.92 273.676 111.942C270.15 113.965 266.402 114.047 267.787 117.822C269.172 121.598 274.328 121.037 276.876 120.429C279.425 119.821 280.461 118.886 282.416 117.366C284.371 115.847 285.849 105.361 285.954 104.859C286.058 104.356 283.033 105.011 283.033 105.011V105.022Z" fill="white" stroke="#051423" stroke-miterlimit="10"/>
<path d="M292.284 101.563C292.284 101.563 287.094 100.324 284.545 102.405C281.996 104.485 282.206 112.481 282.415 117.378C282.613 122.265 284.347 126.169 286.209 126.788C288.071 127.408 289.98 127.034 290.725 126.297C291.469 125.561 290.69 118.442 291.202 112.656C291.714 106.87 292.284 101.563 292.284 101.563Z" fill="white" stroke="#051423" stroke-miterlimit="10"/>
<path d="M292.284 101.562C292.284 101.562 289.957 107.22 289.282 113.029C288.607 118.839 291.737 126.682 292.948 127.372C294.158 128.062 297.568 127.851 298.359 126.121C299.151 124.391 298.569 118.535 298.662 115.098C298.755 111.662 300.396 104.274 300.151 102.018C299.907 99.7503 294.821 99.4931 292.273 101.562H292.284Z" fill="white" stroke="#051423" stroke-miterlimit="10"/>
<path d="M300.152 102.006C300.152 102.006 303.247 100.522 305.505 101.749C307.763 102.977 308.287 106.355 307.972 108.026C307.67 109.698 306.622 119.634 305.901 122.007C305.179 124.38 303.352 125.56 301.862 125.397C300.373 125.233 299.36 123.374 299.139 121.27C298.907 119.166 298.662 115.087 298.662 115.087L300.152 102.006Z" fill="white" stroke="#051423" stroke-miterlimit="10"/>
<path d="M307.972 104.928C307.972 104.928 312.161 105.945 313.395 106.799C314.629 107.652 315.083 110.375 314.233 114.572C313.383 118.757 312.173 121.188 310.241 121.398C308.309 121.609 306.738 119.166 306.738 117.681C306.738 116.208 308.333 108.341 307.972 104.94V104.928Z" fill="white" stroke="#051423" stroke-miterlimit="10"/>
<path d="M252.739 108.085C255.358 112.34 254.438 117.682 250.668 120.02C246.909 122.358 241.73 120.803 239.111 116.56C236.493 112.305 237.412 106.963 241.183 104.625C244.954 102.287 250.121 103.842 252.739 108.085Z" fill="#0B6BCB" stroke="#051423" stroke-miterlimit="10"/>
<path d="M232.105 122.404C233.944 125.385 233.292 129.126 230.651 130.762C228.009 132.399 224.39 131.312 222.551 128.331C220.712 125.35 221.364 121.61 224.005 119.973C226.647 118.337 230.267 119.424 232.105 122.404Z" fill="#051423"/>
<path d="M248.991 129.524C250.83 132.504 250.178 136.245 247.536 137.881C244.895 139.518 241.275 138.431 239.436 135.45C237.598 132.469 238.249 128.729 240.891 127.092C243.533 125.456 247.152 126.543 248.991 129.524Z" fill="#ABABAB" stroke="#051423" stroke-miterlimit="10"/>
</svg>
