<svg width="120" height="121" viewBox="0 0 120 121" fill="none" xmlns="http://www.w3.org/2000/svg">
<path fill-rule="evenodd" clip-rule="evenodd" d="M41.5625 33H31.5625V88H41.5625V33ZM61.875 60.5H51.875V88H61.875V60.5ZM72.1875 46.75H82.1875V88H72.1875V46.75ZM21.25 67.375H11.25V88H21.25V67.375Z" fill="#636B74"/>
<path fill-rule="evenodd" clip-rule="evenodd" d="M91.9773 61.3036C90.7082 60.0536 88.4983 60.2619 87.5427 61.9286L67.8844 96.2143C66.7922 98.119 68.1574 100.5 70.3417 100.5H109.658C111.843 100.5 113.208 98.119 112.116 96.2143L92.4573 61.9286C92.3208 61.6905 92.1587 61.4821 91.9773 61.3036Z" fill="#9FA6AD"/>
<path fill-rule="evenodd" clip-rule="evenodd" d="M89.5001 71.9287C88.3955 71.9287 87.5001 72.8241 87.5001 73.9287V84.2144C87.5001 85.319 88.3955 86.2144 89.5001 86.2144H91.2144C92.3189 86.2144 93.2144 85.319 93.2144 84.2144V73.9287C93.2144 72.8241 92.3189 71.9287 91.2144 71.9287H89.5001ZM90.3571 94.7862C91.9351 94.7862 93.2143 93.507 93.2143 91.9291C93.2143 90.3511 91.9351 89.0719 90.3571 89.0719C88.7792 89.0719 87.5 90.3511 87.5 91.9291C87.5 93.507 88.7792 94.7862 90.3571 94.7862Z" fill="white"/>
</svg>
