<svg width="120" height="120" viewBox="0 0 120 120" fill="none" xmlns="http://www.w3.org/2000/svg">
<path fill-rule="evenodd" clip-rule="evenodd" d="M41.5625 32.5H31.5625V87.5H41.5625V32.5ZM61.875 60H51.875V87.5H61.875V60ZM72.1875 46.25H82.1875V87.5H72.1875V46.25ZM21.25 66.875H11.25V87.5H21.25V66.875Z" fill="black" fill-opacity="0.12"/>
<path fill-rule="evenodd" clip-rule="evenodd" d="M91.9773 60.8036C90.7082 59.5536 88.4983 59.7619 87.5427 61.4286L67.8844 95.7143C66.7922 97.619 68.1574 100 70.3417 100H109.658C111.843 100 113.208 97.619 112.116 95.7143L92.4573 61.4286C92.3208 61.1905 92.1587 60.9821 91.9773 60.8036Z" fill="#9FA6AD"/>
<path fill-rule="evenodd" clip-rule="evenodd" d="M89.5001 71.4285C88.3955 71.4285 87.5001 72.3239 87.5001 73.4285V83.7142C87.5001 84.8187 88.3955 85.7142 89.5001 85.7142H91.2144C92.3189 85.7142 93.2144 84.8187 93.2144 83.7142V73.4285C93.2144 72.3239 92.3189 71.4285 91.2144 71.4285H89.5001ZM90.3571 94.286C91.9351 94.286 93.2143 93.0068 93.2143 91.4288C93.2143 89.8509 91.9351 88.5717 90.3571 88.5717C88.7792 88.5717 87.5 89.8509 87.5 91.4288C87.5 93.0068 88.7792 94.286 90.3571 94.286Z" fill="white"/>
</svg>
