<svg width="24" height="24" viewBox="0 0 24 24" fill="none" xmlns="http://www.w3.org/2000/svg">
<g id="Corner Kick">
<path id="Union" fill-rule="evenodd" clip-rule="evenodd" d="M13.9934 6.56272C14.3041 6.10614 14.1859 5.48411 13.7293 5.17338C13.2727 4.86266 12.6507 4.98089 12.34 5.43747L4.17329 17.4375C3.96483 17.7438 3.94282 18.1402 4.11608 18.4677C4.28935 18.7952 4.62949 19.0001 5 19.0001H19C19.5523 19.0001 20 18.5524 20 18.0001C20 17.4478 19.5523 17.0001 19 17.0001H15.9023C15.9665 16.6545 16 16.3002 16 15.9394C16 14.3358 15.5339 12.8093 14.5455 11.5696C13.8818 10.7372 13.0063 10.0638 11.9365 9.58509L13.9934 6.56272ZM10.7875 11.2734L6.89017 17.0001H13.8494C13.9486 16.6562 14 16.3017 14 15.9394C14 14.7261 13.6509 13.6558 12.9817 12.8164C12.4758 12.1819 11.7568 11.6416 10.7875 11.2734Z" fill="#8F959C"/>
</g>
</svg>
