<svg width="138" height="73" viewBox="0 0 138 73" fill="none" xmlns="http://www.w3.org/2000/svg">
<path d="M53.9302 7.42371H82.9429L92.3856 16.9297V40.6085C92.3856 53.9484 81.5736 64.7898 68.2939 64.718C55.0856 64.6462 44.4875 53.6469 44.4875 40.35V16.9153L53.9302 7.40935V7.42371Z" fill="#001331"/>
<path d="M68.4367 66.111H68.2798C54.3868 66.0248 43.0898 54.4654 43.0898 40.3357V16.9153C43.0898 16.542 43.2324 16.183 43.5034 15.9245L52.9461 6.4329C53.2029 6.17443 53.5595 6.01648 53.9303 6.01648H82.9431C83.314 6.01648 83.6706 6.16007 83.9273 6.4329L93.37 15.9389C93.6268 16.1974 93.7837 16.5563 93.7837 16.9297V40.6085C93.7837 47.4436 91.1306 53.8623 86.2951 58.6871C81.5024 63.4832 75.1693 66.111 68.4367 66.111ZM45.8855 17.5041V40.3357C45.8855 52.929 55.9415 63.2247 68.3083 63.2965H68.4367C74.4276 63.2965 80.0618 60.9559 84.3267 56.6911C88.6201 52.3977 90.9879 46.6826 90.9879 40.5941V17.5041L82.3725 8.83094H54.5152L45.8998 17.5041H45.8855Z" fill="white"/>
<path d="M65.8833 11.4444V59.8215C66.6108 59.8933 67.3525 59.9364 68.0942 59.9364C69.0784 59.9364 70.0341 59.8789 70.9898 59.7784V11.4444H65.8833Z" fill="#0091D2"/>
<path d="M56.3408 11.4444V56.1024C57.7957 57.5384 59.6358 58.3999 61.4473 58.9456V11.4444H56.3408Z" fill="white"/>
<path d="M75.4258 11.4444V58.8307C77.2373 58.2563 78.8491 57.3804 80.5322 56.1024V11.4444H75.4258Z" fill="white"/>
<path d="M132.367 46.4835C132.246 42.5766 130.399 39.4674 128.754 36.7367C128.121 35.6687 127.514 34.6684 127.042 33.668C128.013 33.7086 128.62 33.7356 129.698 33.7897L132.34 33.9248V30.356C132.475 27.774 131.869 24.2321 129.752 21.9746C128.485 20.6227 126.854 19.9062 124.993 19.9062C123.793 19.9062 122.675 20.2036 121.704 20.7714V20.2442H119.183C115.813 20.2442 106.551 20.2307 106.551 20.2307V21.1094C105.513 20.5281 104.313 20.2307 103.019 20.2307H95.5508V21.596C94.2836 20.501 92.7333 19.9198 91.0077 19.9062H90.9807C89.0664 19.9062 87.3813 20.5957 86.0871 21.8934C85.831 22.1503 85.5883 22.4477 85.3592 22.7586C85.2783 22.664 85.1974 22.5694 85.1165 22.4747C83.7819 21.0147 81.9889 20.2307 79.9533 20.2172H72.5792V21.3257C71.3929 20.4064 69.9639 19.9198 68.4001 19.9062H68.3597C66.7554 19.9062 65.313 20.3929 64.1266 21.3392V20.3523H57.0761H51.7915H49.2706C46.2913 20.3523 37.8387 20.3659 37.8387 20.3659L37.7983 43.7122C37.1512 43.7663 36.585 43.8068 36.0323 43.8474L36.0727 20.3659H27.7549L27.7145 44.6044C27.0674 44.672 26.5012 44.7261 25.962 44.7801L25.9889 20.3794H17.6712V21.8529C16.404 20.6903 14.8537 20.0685 13.1146 20.0685C11.2947 20.0685 9.67695 20.7309 8.42322 21.9881C5.8888 24.5431 5.63266 28.7473 5.63266 30.4371V46.5916C5.63266 48.1733 5.84836 52.1071 8.18056 54.4593C9.29949 55.5814 10.7285 56.1897 12.3327 56.1897C12.7237 56.1897 13.1281 56.1491 13.5325 56.0816C15.1368 55.7977 16.5253 55.0541 17.6307 53.9456V55.0812L20.4887 54.6892C23.3332 54.2971 26.2316 53.9321 29.0896 53.5942L29.7906 53.5131L30.4781 53.4455C33.3226 53.1345 36.221 52.8506 39.0924 52.5938L39.416 52.5668L40.4945 52.4721C43.4333 52.2288 46.4126 52.026 49.3515 51.8503L50.3895 51.7962L51.3601 51.7421C52.6543 51.6745 53.3149 51.6475 54.6091 51.5934L56.429 51.5123L58.3163 51.4582C59.6375 51.4177 60.298 51.4042 61.6326 51.3771L64.0997 51.3231V50.2146C65.2725 51.1203 66.715 51.5934 68.3057 51.5934H68.3597C69.9504 51.5934 71.3929 51.0662 72.5792 50.1064V51.296L75.0597 51.3366C76.3674 51.3636 77.0144 51.3771 78.3086 51.4042L80.897 51.4718V41.5628C81.8406 41.4546 82.7304 41.1572 83.5258 40.6841V42.8335C83.5392 48.2003 86.4916 51.9855 90.8594 52.2694C91.0212 52.2694 91.183 52.2829 91.3447 52.2829C92.949 52.2829 94.3914 51.7557 95.5912 50.7688V52.2829L97.8965 52.4721C99.1907 52.5803 99.8512 52.6343 101.145 52.756L102.925 52.9182L104.691 53.1075C106.012 53.2427 106.673 53.3103 107.994 53.459L110.043 53.6888L112.2 53.9592C113.494 54.1214 114.141 54.2025 115.449 54.3782L118.307 54.7567V50.2957C119.291 53.1886 121.326 55.5814 124.602 56.0816C124.953 56.1356 125.29 56.1627 125.627 56.1627H125.64C126.651 56.1627 127.662 55.9328 128.525 55.4191C132.286 53.1886 132.394 47.8759 132.354 46.4699L132.367 46.4835ZM46.1295 29.2204C46.9519 29.2204 47.7472 29.2069 48.7583 29.1934V31.505L48.0303 31.5186C47.2889 31.5321 46.6957 31.5591 46.1295 31.5726V29.2204ZM46.1295 40.4272C46.7496 40.4002 47.3698 40.3867 48.1921 40.3596H48.7583V43.0227C47.7338 43.0768 46.9384 43.1174 46.1295 43.1579V40.4272ZM64.1401 38.3994V36.7502C64.3828 37.0882 64.6389 37.4126 64.8816 37.7235C65.0568 37.9533 65.2186 38.1696 65.3938 38.3859C64.9759 38.3859 64.5985 38.3859 64.1401 38.3859V38.3994ZM72.013 33.9113C71.5951 33.3706 71.2041 32.8434 70.8536 32.3297C71.4738 32.3297 71.9726 32.3297 72.6062 32.3297V34.6954C72.404 34.425 72.2152 34.1682 72.013 33.9113ZM110.016 34.9793V39.1294C109.827 38.413 109.571 37.71 109.194 37.0611C109.544 36.4528 109.827 35.7498 110.016 34.9793ZM120.41 41.0355L118.334 40.8192V33.7761C119.035 36.0337 120.234 37.9804 121.34 39.7648C121.65 40.265 121.947 40.7517 122.23 41.2248C121.663 41.1707 121.138 41.1031 120.396 41.0355H120.41Z" fill="#001331"/>
<path d="M8.15361 30.4371C8.15361 27.1386 9.2186 22.6099 13.1146 22.6099C16.741 22.6099 18.2778 26.7871 18.0756 30.0315C18.0756 35.155 18.0756 40.265 18.0621 45.3885C18.1161 48.8222 16.8488 52.9318 13.1011 53.5807C9.1512 54.2701 8.14012 49.6873 8.15361 46.6051C8.15361 41.2113 8.15361 35.8174 8.15361 30.4371ZM11.416 46.4835C11.416 48.6599 12.0631 49.4035 13.1011 49.2548C14.1392 49.1061 14.7862 48.2003 14.7997 46.0644C14.7997 40.657 14.7997 35.2632 14.7997 29.8558C14.7997 27.7064 14.1526 26.9088 13.1146 26.9358C12.0766 26.9629 11.416 27.801 11.416 29.991C11.416 35.493 11.416 40.995 11.416 46.4835Z" fill="white"/>
<path d="M20.1923 22.9344C21.5 22.9344 22.1605 22.9344 23.4682 22.9344C23.4682 31.1671 23.4412 39.3863 23.4412 47.619C25.5847 47.3757 26.2857 47.2675 28.4427 47.0512C28.4427 48.6599 28.4427 49.4575 28.4427 51.0662C25.5577 51.4177 23.0638 51.7827 20.1788 52.1747C20.1788 42.4279 20.2058 32.6811 20.2058 22.9479L20.1923 22.9344Z" fill="white"/>
<path d="M30.2759 22.9209C31.5835 22.9209 32.2441 22.9209 33.5517 22.9209C33.5517 30.8156 33.5248 38.7104 33.5113 46.6187C35.6682 46.4294 36.3558 46.3483 38.5127 46.1861C38.5127 47.7407 38.5127 48.5112 38.5127 50.0659C35.6278 50.3227 33.1203 50.6066 30.2354 50.9175C30.2489 41.5898 30.2624 32.2621 30.2759 22.9344V22.9209Z" fill="white"/>
<path d="M43.595 34.1817C45.3879 34.1276 46.2912 34.1006 48.0841 34.0465C48.0841 35.5606 48.0841 36.3176 48.0841 37.8317C46.2912 37.8993 45.3879 37.9263 43.595 38.0074C43.595 40.6165 43.595 43.2391 43.595 45.8481C45.8598 45.7129 46.9922 45.6453 49.2435 45.5372C49.2435 47.0513 49.2435 47.7948 49.2435 49.3088C46.2642 49.4711 43.2849 49.6873 40.3191 49.9307C40.3326 40.9274 40.3461 31.9106 40.3595 22.9073C43.3388 22.9073 46.3046 22.9073 49.2839 22.9073C49.2839 24.4214 49.2839 25.1649 49.2839 26.679C47.0191 26.6925 45.9002 26.706 43.6354 26.733C43.6354 29.2204 43.6354 31.7078 43.6354 34.1952L43.595 34.1817Z" fill="white"/>
<path d="M54.5281 49.0384C53.2204 49.0925 52.5599 49.1195 51.2522 49.1871C51.2522 40.4137 51.2792 31.6537 51.2792 22.8803C52.5868 22.8803 53.2474 22.8803 54.555 22.8803C54.555 26.6114 54.555 30.356 54.555 34.0871C56.0379 34.06 56.7929 34.0465 58.2758 34.033C58.2758 30.3154 58.2758 26.5979 58.2758 22.8803C59.6104 22.8803 60.271 22.8803 61.6056 22.8803C61.6056 31.5321 61.6056 40.1703 61.5921 48.8221C60.2575 48.8492 59.5969 48.8627 58.2623 48.9032C58.2623 45.1857 58.2623 41.4681 58.2623 37.7506C56.7794 37.7776 56.0245 37.7911 54.5416 37.8317C54.5416 41.5627 54.5416 45.3074 54.5416 49.0384H54.5281Z" fill="white"/>
<path d="M68.3732 22.4342C71.7839 22.4477 73.4016 25.8543 73.1859 28.9771C73.1859 29.3015 73.1859 29.4638 73.1859 29.8017C71.9457 29.8017 71.3256 29.8017 70.0988 29.8017C70.0988 29.3691 70.0988 29.1528 70.0988 28.7203C70.0988 26.8682 69.5056 26.1517 68.4676 26.1517C67.4296 26.1517 66.7959 26.8953 66.8364 28.7203C66.9577 34.0735 73.159 36.9259 73.2399 42.5226C73.2803 45.5101 71.7839 49.0249 68.3597 49.0384C64.7873 49.0655 63.4661 45.6994 63.4796 42.5361C63.4796 41.9007 63.4796 41.5763 63.4796 40.9409C64.7199 40.9274 65.34 40.9274 66.5802 40.9139C66.5802 41.6574 66.5802 42.0224 66.5802 42.7659C66.5802 44.6179 67.2408 45.2938 68.2789 45.2803C69.3169 45.2803 70.0044 44.5909 69.9775 42.7524C69.8966 37.4396 63.6279 34.7495 63.5875 28.9771C63.5605 25.8679 64.8547 22.4071 68.4002 22.4207L68.3732 22.4342Z" fill="white"/>
<path d="M84.7928 29.261C84.7928 30.6264 84.7928 31.3158 84.7928 32.6947C85.0219 35.8715 83.4177 39.1294 79.9126 39.0889C79.2925 39.0889 78.9825 39.0754 78.3623 39.0619C78.3623 42.3333 78.3623 45.6048 78.3623 48.8762C77.0547 48.8357 76.3941 48.8222 75.0865 48.8086C75.0865 40.1163 75.0865 31.4375 75.0865 22.7451C77.0142 22.7451 77.9714 22.7451 79.8992 22.7451C83.3907 22.7857 84.995 26.0842 84.7793 29.261H84.7928ZM78.3623 26.4762C78.3623 29.4232 78.3623 32.3702 78.3623 35.3308C78.9825 35.3308 79.2925 35.3308 79.9126 35.3578C80.9507 35.3713 81.5169 34.79 81.5169 32.911C81.5169 31.3428 81.5169 30.5452 81.5169 28.9771C81.5169 27.098 80.9507 26.5032 79.9126 26.4897C79.2925 26.4897 78.9825 26.4897 78.3623 26.4897V26.4762Z" fill="white"/>
<path d="M86.0468 29.0853C86.0468 25.8814 87.4218 22.4342 91.0078 22.4477C94.4993 22.4612 96.1844 26.0436 95.9822 29.2475C95.9822 33.9384 95.9957 38.6157 96.0092 43.3066C96.2384 46.47 94.5398 49.9847 91.0482 49.7549C87.4757 49.5251 86.0737 46.0914 86.0737 42.8335C86.0737 38.2508 86.0737 33.668 86.0602 29.0988L86.0468 29.0853ZM89.3361 43.2255C89.3361 45.1316 89.9967 45.8751 91.0347 45.9427C92.0727 45.9968 92.7333 45.3074 92.7333 43.4013C92.7333 38.5752 92.7198 33.7491 92.7064 28.923C92.7064 27.0034 92.0458 26.2734 91.0078 26.2599C89.9697 26.2599 89.3092 26.9629 89.3226 28.869C89.3226 33.6545 89.3226 38.44 89.3361 43.2255Z" fill="white"/>
<path d="M104.961 50.5931C104.785 49.8631 104.664 49.417 104.664 47.1459C104.664 45.402 104.664 44.5233 104.664 42.7794C104.664 40.1974 104.003 39.197 102.52 39.1159C102.062 39.0889 101.846 39.0754 101.388 39.0483C101.388 42.7794 101.388 46.5105 101.402 50.2416C100.094 50.1199 99.4333 50.0659 98.1257 49.9577C98.1122 40.8868 98.0987 31.816 98.0852 22.7451C100.053 22.7451 101.051 22.7451 103.019 22.7451C106.592 22.7451 108.115 25.9895 107.872 29.2204C107.872 30.0991 107.872 30.5452 107.872 31.4375C107.872 34.3304 107.198 36.1959 105.742 37.0341C107.374 38.0345 107.913 40.2109 107.926 43.1444C107.926 44.8883 107.926 45.7535 107.926 47.4838C107.926 48.8492 107.953 49.8631 108.29 50.9445C106.956 50.7958 106.295 50.7283 104.961 50.5796V50.5931ZM101.348 26.679C101.348 29.4908 101.348 32.3026 101.361 35.128C101.873 35.155 102.13 35.155 102.642 35.1821C103.855 35.2361 104.597 34.5602 104.597 32.3297C104.597 31.2347 104.597 30.6804 104.597 29.5854C104.597 27.5982 104.084 26.7195 102.925 26.706C102.291 26.706 101.981 26.6925 101.348 26.679Z" fill="white"/>
<path d="M109.072 22.7586C112.443 22.7586 115.813 22.7586 119.183 22.7722C119.183 24.462 119.183 25.3136 119.183 27.0034C117.821 26.9764 117.134 26.9629 115.759 26.9358C115.759 35.2497 115.786 43.577 115.786 51.8909C114.478 51.7151 113.831 51.634 112.523 51.4718C112.523 43.2661 112.496 35.0739 112.483 26.8682C111.121 26.8412 110.434 26.8277 109.059 26.8006C109.059 25.1784 109.059 24.3808 109.059 22.7586H109.072Z" fill="white"/>
<path d="M125.007 22.4342C128.768 22.4342 130.008 27.0981 129.819 30.3019C129.819 30.694 129.819 30.8967 129.819 31.2888C128.579 31.2347 127.972 31.1941 126.732 31.1401C126.732 30.6264 126.732 30.3695 126.732 29.8693C126.732 27.6793 126.139 26.8277 125.101 26.8006C124.063 26.7736 123.443 27.5982 123.47 29.7477C123.524 35.9932 129.658 40.0757 129.86 46.5781C129.954 49.5116 128.889 54.2025 125.007 53.6077C121.245 53.0399 120.005 48.6735 120.14 45.375C120.14 44.645 120.14 44.28 120.14 43.55C121.38 43.6716 121.987 43.7392 123.227 43.8744C123.227 44.7396 123.227 45.1722 123.227 46.0239C123.227 48.1733 123.888 49.0385 124.926 49.1872C125.964 49.3359 126.584 48.6194 126.611 46.4429C126.705 40.5354 120.491 36.7772 120.221 29.9099C120.1 26.7331 121.259 22.4207 125.034 22.4342H125.007Z" fill="white"/>
</svg>
