<svg width="86" height="19" viewBox="0 0 86 19" fill="none" xmlns="http://www.w3.org/2000/svg">
<g id="Group 1">
<path id="Vector" d="M85.9999 8.06812V6.52692H84.1269V4.13094L84.0638 4.15078L82.3045 4.70079L82.2698 4.71156V6.527H79.493V5.51565C79.493 5.04472 79.5961 4.68435 79.7992 4.44401C80.0009 4.20656 80.2894 4.08584 80.6573 4.08584C80.9218 4.08584 81.1957 4.14951 81.4713 4.27506L81.5404 4.30659V2.6835L81.5079 2.67129C81.2508 2.57686 80.9011 2.5293 80.4676 2.5293C79.9212 2.5293 79.4249 2.65078 78.9919 2.89154C78.5588 3.13264 78.218 3.47682 77.9793 3.91443C77.7415 4.35152 77.6207 4.85635 77.6207 5.41502V6.52692H76.3165V8.06812H77.6207V14.5609H79.493V8.06812H82.2698V12.1942C82.2698 13.8935 83.0543 14.7546 84.6014 14.7546C84.8556 14.7546 85.1231 14.7242 85.3963 14.6646C85.6744 14.6034 85.8639 14.5423 85.9754 14.477L86 14.4621V12.9066L85.9238 12.9581C85.8222 13.0273 85.6957 13.0838 85.5473 13.1258C85.3983 13.1687 85.2739 13.1901 85.1775 13.1901C84.8151 13.1901 84.5469 13.0903 84.3806 12.8934C84.2123 12.6947 84.127 12.3472 84.127 11.8611V8.06812H85.9999ZM72.1353 13.1904C71.4558 13.1904 70.92 12.9601 70.5424 12.5066C70.1625 12.0507 69.97 11.4009 69.97 10.5752C69.97 9.72325 70.1625 9.0565 70.5426 8.59262C70.9204 8.13178 71.451 7.89789 72.1201 7.89789C72.7693 7.89789 73.2861 8.12127 73.6563 8.56218C74.0283 9.00538 74.2171 9.66679 74.2171 10.5286C74.2171 11.401 74.0396 12.0712 73.6895 12.5195C73.3418 12.9643 72.8189 13.1904 72.1353 13.1904ZM72.2186 6.33338C70.9221 6.33338 69.8923 6.72156 69.158 7.48716C68.4243 8.25284 68.0522 9.31244 68.0522 10.6368C68.0522 11.8947 68.4154 12.9065 69.1317 13.6436C69.8481 14.3809 70.8229 14.7544 72.029 14.7544C73.2858 14.7544 74.295 14.3608 75.029 13.5846C75.7628 12.8093 76.1346 11.7597 76.1346 10.4663C76.1346 9.18875 75.7857 8.16942 75.0973 7.43723C74.4086 6.70469 73.4399 6.33338 72.2186 6.33338ZM65.0335 6.33338C64.1516 6.33338 63.4221 6.56388 62.8648 7.01836C62.3041 7.47555 62.0197 8.07516 62.0197 8.80074C62.0197 9.1779 62.0811 9.51293 62.2019 9.79709C62.3234 10.0822 62.5115 10.3332 62.7614 10.5439C63.0094 10.7528 63.3922 10.9717 63.8995 11.1944C64.3259 11.3737 64.6439 11.5254 64.8459 11.6449C65.0434 11.7621 65.1835 11.8798 65.2627 11.9945C65.3396 12.1068 65.3786 12.2604 65.3786 12.4499C65.3786 12.9897 64.983 13.2523 64.169 13.2523C63.8671 13.2523 63.5227 13.1879 63.1455 13.0609C62.7709 12.9358 62.4174 12.7527 62.0973 12.5178L62.0195 12.4609V14.3028L62.0481 14.3163C62.313 14.4413 62.647 14.5467 63.0407 14.6296C63.4336 14.7126 63.7906 14.7548 64.1007 14.7548C65.0577 14.7548 65.8284 14.5232 66.3908 14.066C66.9567 13.6057 67.2435 12.9919 67.2435 12.2412C67.2435 11.6997 67.0891 11.2353 66.7848 10.8608C66.4825 10.4893 65.9579 10.1482 65.2262 9.84677C64.6433 9.60771 64.2699 9.40925 64.1158 9.25691C63.9673 9.10974 63.8919 8.90162 63.8919 8.63806C63.8919 8.40442 63.985 8.21724 64.1761 8.06566C64.3686 7.91332 64.6367 7.83584 64.9729 7.83584C65.2848 7.83584 65.604 7.88619 65.9214 7.98487C66.2386 8.08355 66.5172 8.21571 66.7498 8.37738L66.8263 8.43078V6.68358L66.7969 6.6707C66.5823 6.57668 66.2994 6.49623 65.9558 6.43096C65.6137 6.3661 65.3034 6.33338 65.0335 6.33338ZM57.1387 13.1904C56.4593 13.1904 55.9233 12.9601 55.5458 12.5066C55.1658 12.0507 54.9737 11.401 54.9737 10.5752C54.9737 9.72325 55.1661 9.0565 55.5462 8.59262C55.9237 8.13178 56.4543 7.89789 57.1237 7.89789C57.7726 7.89789 58.2894 8.12127 58.6597 8.56218C59.0318 9.00538 59.2206 9.66679 59.2206 10.5286C59.2206 11.401 59.0429 12.0712 58.6928 12.5195C58.3451 12.9643 57.8225 13.1904 57.1387 13.1904ZM57.2222 6.33338C55.9253 6.33338 54.8954 6.72156 54.1616 7.48716C53.4279 8.25284 53.0556 9.31244 53.0556 10.6368C53.0556 11.8952 53.419 12.9065 54.1353 13.6436C54.8516 14.3809 55.8264 14.7544 57.0325 14.7544C58.2891 14.7544 59.2986 14.3608 60.0326 13.5846C60.7662 12.8093 61.1382 11.7597 61.1382 10.4663C61.1382 9.18875 60.7892 8.16942 60.1007 7.43723C59.4118 6.70469 58.4433 6.33338 57.2222 6.33338ZM50.2135 7.91824V6.52692H48.364V14.5607H50.2135V10.4511C50.2135 9.75233 50.3686 9.17824 50.6745 8.74462C50.9766 8.31617 51.3792 8.09906 51.8707 8.09906C52.0373 8.09906 52.2243 8.12712 52.4268 8.18265C52.6272 8.23784 52.7724 8.29777 52.858 8.36085L52.9358 8.41841V6.51319L52.9058 6.50005C52.7336 6.42528 52.4899 6.38755 52.1816 6.38755C51.7168 6.38755 51.3009 6.54014 50.9447 6.84059C50.632 7.10466 50.406 7.46673 50.2332 7.91824H50.2135ZM45.0519 6.33338C44.2034 6.33338 43.4466 6.51929 42.8029 6.88577C42.1578 7.2531 41.6589 7.77751 41.3195 8.44435C40.9816 9.10957 40.81 9.88662 40.81 10.7532C40.81 11.5122 40.9764 12.2088 41.3052 12.8228C41.6341 13.4377 42.0997 13.9188 42.6891 14.2525C43.2777 14.5857 43.9579 14.7547 44.7111 14.7547C45.59 14.7547 46.3405 14.5751 46.9421 14.221L46.9664 14.2068V12.4755L46.8887 12.5334C46.6162 12.7363 46.3116 12.8982 45.9839 13.0149C45.657 13.1314 45.359 13.1904 45.0976 13.1904C44.3719 13.1904 43.7893 12.9583 43.3665 12.5009C42.9427 12.0429 42.7278 11.3997 42.7278 10.5903C42.7278 9.7759 42.9519 9.11619 43.3935 8.62941C43.8338 8.14408 44.4175 7.89789 45.1282 7.89789C45.7361 7.89789 46.3284 8.10822 46.8889 8.52361L46.9664 8.58117V6.75691L46.9414 6.7425C46.7305 6.62187 46.4428 6.52226 46.0858 6.44672C45.7302 6.37136 45.3824 6.33338 45.0519 6.33338ZM39.5362 6.527H37.6867V14.5607H39.5362V6.527ZM38.6304 3.10458C38.326 3.10458 38.0605 3.21046 37.8424 3.42028C37.6234 3.63069 37.5123 3.89561 37.5123 4.20825C37.5123 4.51599 37.622 4.77607 37.839 4.98089C38.0545 5.18511 38.3209 5.28862 38.6305 5.28862C38.94 5.28862 39.2074 5.18511 39.4255 4.98123C39.645 4.77607 39.7563 4.51607 39.7563 4.20825C39.7563 3.90654 39.648 3.64433 39.4345 3.42875C39.2212 3.2136 38.9506 3.10458 38.6304 3.10458ZM34.0158 5.93426V14.5607H35.9033V3.35051H33.2909L29.9705 11.6771L26.7481 3.35051H24.0294V14.5607H25.8032V5.93341H25.8641L29.2667 14.5607H30.6053L33.9549 5.93426H34.0158Z" fill="#706D6E"/>
<path id="Vector_2" d="M8.85294 8.43137H0V0H8.85294V8.43137Z" fill="#F1511B"/>
<path id="Vector_3" d="M18.549 8.43137H9.69608V0H18.549V8.43137Z" fill="#80CC28"/>
<path id="Vector_4" d="M8.85294 18.1274H0V9.27441H8.85294V18.1274Z" fill="#00ADEF"/>
<path id="Vector_5" d="M18.549 18.1274H9.69608V9.27441H18.549V18.1274Z" fill="#FBBC09"/>
</g>
</svg>
