<svg width="108" height="56" viewBox="0 0 108 56" fill="none" xmlns="http://www.w3.org/2000/svg">
<path d="M42.2061 5.72443H64.9117L72.3017 13.118V31.5348C72.3017 41.9103 63.8401 50.3425 53.4473 50.2867C43.1103 50.2308 34.8162 41.6758 34.8162 31.3338V13.1068L42.2061 5.71326V5.72443Z" fill="#001331"/>
<path d="M53.5591 51.37H53.4364C42.5635 51.303 33.7224 42.3124 33.7224 31.3226V13.1068C33.7224 12.8164 33.834 12.5372 34.0461 12.3361L41.4361 4.95377C41.637 4.75274 41.9161 4.62988 42.2063 4.62988H64.912C65.2022 4.62988 65.4813 4.74157 65.6822 4.95377L73.0722 12.3473C73.2731 12.5483 73.3959 12.8276 73.3959 13.1179V31.5348C73.3959 36.851 71.3195 41.8433 67.5353 45.5959C63.7845 49.3262 58.8281 51.37 53.5591 51.37ZM35.9104 13.5647V31.3226C35.9104 41.1174 43.7803 49.1252 53.4587 49.181H53.5591C58.2476 49.181 62.657 47.3606 65.9948 44.0435C69.3549 40.7041 71.2079 36.2591 71.2079 31.5236V13.5647L64.4654 6.81891H42.664L35.9215 13.5647H35.9104Z" fill="white"/>
<path d="M51.5608 8.85156V46.4782C52.1301 46.5341 52.7106 46.5676 53.2911 46.5676C54.0613 46.5676 54.8092 46.5229 55.5572 46.4447V8.85156H51.5608Z" fill="#0091D2"/>
<path d="M44.0928 8.85156V43.5856C45.2314 44.7024 46.6714 45.3726 48.0891 45.797V8.85156H44.0928Z" fill="white"/>
<path d="M59.0288 8.85156V45.7076C60.4465 45.2609 61.7079 44.5796 63.0252 43.5856V8.85156H59.0288Z" fill="white"/>
<path d="M103.592 36.1042C103.497 33.0655 102.052 30.6472 100.764 28.5233C100.269 27.6927 99.7938 26.9146 99.4245 26.1366C100.184 26.1681 100.659 26.1891 101.503 26.2312L103.571 26.3363V23.5606C103.676 21.5523 103.202 18.7976 101.545 17.0417C100.553 15.9902 99.2768 15.433 97.8208 15.433C96.8819 15.433 96.0062 15.6643 95.2466 16.1059V15.6958H93.2737C90.6361 15.6958 83.388 15.6853 83.388 15.6853V16.3688C82.5756 15.9166 81.6366 15.6853 80.6238 15.6853H74.7789V16.7473C73.7872 15.8956 72.5739 15.4435 71.2235 15.433H71.2024C69.7042 15.433 68.3854 15.9692 67.3726 16.9786C67.1721 17.1784 66.9822 17.4097 66.8029 17.6515C66.7396 17.5779 66.6763 17.5043 66.613 17.4307C65.5685 16.2952 64.1653 15.6853 62.5722 15.6748H56.8012V16.537C55.8727 15.822 54.7544 15.4435 53.5306 15.433H53.4989C52.2434 15.433 51.1145 15.8115 50.1861 16.5475V15.78H44.6683H40.5325H38.5596C36.228 15.78 29.6129 15.7905 29.6129 15.7905L29.5813 33.9487C29.0749 33.9908 28.6318 34.0223 28.1992 34.0539L28.2309 15.7905H21.7213L21.6896 34.6427C21.1832 34.6952 20.7401 34.7373 20.3181 34.7794L20.3392 15.801H13.8296V16.947C12.8379 16.0428 11.6246 15.5592 10.2636 15.5592C8.83934 15.5592 7.5733 16.0744 6.59212 17.0522C4.60866 19.0394 4.4082 22.3094 4.4082 23.6236V36.1883C4.4082 37.4185 4.57701 40.4781 6.40222 42.3076C7.27789 43.1803 8.39623 43.6535 9.65172 43.6535C9.95768 43.6535 10.2742 43.6219 10.5907 43.5693C11.8462 43.3485 12.9329 42.7703 13.798 41.9081V42.7913L16.0347 42.4864C18.2608 42.1814 20.5291 41.8976 22.7658 41.6347L23.3144 41.5716L23.8525 41.519C26.0786 41.2772 28.3469 41.0564 30.5941 40.8566L30.8473 40.8356L31.6914 40.762C33.9913 40.5728 36.323 40.415 38.6229 40.2784L39.4353 40.2363L40.1949 40.1942C41.2078 40.1417 41.7247 40.1206 42.7376 40.0786L44.1619 40.0155L45.6389 39.9734C46.6728 39.9419 47.1898 39.9314 48.2343 39.9104L50.165 39.8683V39.0061C51.0829 39.7106 52.2118 40.0786 53.4567 40.0786H53.4989C54.7438 40.0786 55.8727 39.6685 56.8012 38.922V39.8473L58.7424 39.8788C59.7658 39.8998 60.2722 39.9104 61.285 39.9314L63.3107 39.9839V32.2769C64.0492 32.1928 64.7456 31.9615 65.368 31.5935V33.2653C65.3786 37.4395 67.6891 40.3835 71.1074 40.6043C71.234 40.6043 71.3606 40.6148 71.4872 40.6148C72.7427 40.6148 73.8716 40.2048 74.8106 39.4372V40.6148L76.6147 40.762C77.6275 40.8461 78.1445 40.8882 79.1573 40.9828L80.5499 41.109L81.932 41.2562C82.966 41.3613 83.4829 41.4139 84.5169 41.5296L86.1205 41.7083L87.8086 41.9186C88.8214 42.0448 89.3278 42.1078 90.3512 42.2445L92.5879 42.5389V39.0692C93.3581 41.3193 94.9512 43.1803 97.5149 43.5693C97.7892 43.6114 98.053 43.6324 98.3167 43.6324H98.3273C99.1185 43.6324 99.9098 43.4537 100.585 43.0541C103.529 41.3193 103.613 37.1871 103.581 36.0936L103.592 36.1042ZM36.1014 22.6774C36.745 22.6774 37.3674 22.6668 38.1587 22.6563V24.4543L37.589 24.4648C37.0087 24.4753 36.5445 24.4963 36.1014 24.5069V22.6774ZM36.1014 31.3937C36.5867 31.3727 37.072 31.3622 37.7156 31.3412H38.1587V33.4125C37.3569 33.4546 36.7344 33.4861 36.1014 33.5176V31.3937ZM50.1966 29.8166V28.5338C50.3866 28.7967 50.587 29.049 50.7769 29.2909C50.9141 29.4696 51.0407 29.6378 51.1778 29.8061C50.8508 29.8061 50.5554 29.8061 50.1966 29.8061V29.8166ZM56.358 26.3258C56.031 25.9053 55.725 25.4952 55.4507 25.0957C55.936 25.0957 56.3264 25.0957 56.8223 25.0957V26.9357C56.664 26.7254 56.5163 26.5256 56.358 26.3258ZM86.0994 27.1565V30.3844C85.9517 29.8271 85.7513 29.2804 85.4559 28.7757C85.7302 28.3025 85.9517 27.7558 86.0994 27.1565ZM94.2337 31.8669L92.609 31.6987V26.2207C93.1576 27.9766 94.0966 29.4906 94.9617 30.8785C95.2044 31.2676 95.4365 31.6461 95.658 32.0141C95.2149 31.972 94.8034 31.9195 94.2232 31.8669H94.2337Z" fill="#001331"/>
<path d="M6.38121 23.6237C6.38121 21.0582 7.21468 17.5359 10.2637 17.5359C13.1018 17.5359 14.3045 20.7848 14.1463 23.3083C14.1463 27.2932 14.1463 31.2676 14.1357 35.2525C14.1779 37.9232 13.1862 41.1195 10.2532 41.6242C7.16193 42.1605 6.37066 38.5961 6.38121 36.1988C6.38121 32.0036 6.38121 27.8084 6.38121 23.6237ZM8.93439 36.1042C8.93439 37.797 9.4408 38.3753 10.2532 38.2596C11.0656 38.144 11.572 37.4395 11.5825 35.7783C11.5825 31.5725 11.5825 27.3773 11.5825 23.1716C11.5825 21.4998 11.0761 20.8794 10.2637 20.9005C9.45135 20.9215 8.93439 21.5734 8.93439 23.2767C8.93439 27.5561 8.93439 31.8354 8.93439 36.1042Z" fill="white"/>
<path d="M15.8028 17.7882C16.8262 17.7882 17.3431 17.7882 18.3665 17.7882C18.3665 24.1914 18.3454 30.5842 18.3454 36.9874C20.0229 36.7981 20.5715 36.714 22.2596 36.5458C22.2596 37.797 22.2596 38.4173 22.2596 39.6685C20.0018 39.9419 18.05 40.2258 15.7922 40.5307C15.7922 32.9499 15.8133 25.369 15.8133 17.7987L15.8028 17.7882Z" fill="white"/>
<path d="M23.6942 17.7777C24.7176 17.7777 25.2346 17.7777 26.258 17.7777C26.258 23.9181 26.2369 30.0585 26.2263 36.2093C27.9144 36.0621 28.4524 35.9991 30.1405 35.8729C30.1405 37.082 30.1405 37.6813 30.1405 38.8905C27.8827 39.0903 25.9204 39.3111 23.6626 39.5529C23.6731 32.298 23.6837 25.0431 23.6942 17.7882V17.7777Z" fill="white"/>
<path d="M34.1179 26.5362C35.5211 26.4941 36.228 26.4731 37.6312 26.431C37.6312 27.6086 37.6312 28.1974 37.6312 29.375C36.228 29.4276 35.5211 29.4486 34.1179 29.5117C34.1179 31.541 34.1179 33.5808 34.1179 35.61C35.8904 35.5049 36.7766 35.4523 38.5385 35.3682C38.5385 36.5458 38.5385 37.1241 38.5385 38.3017C36.2069 38.4279 33.8753 38.5961 31.5542 38.7854C31.5647 31.7828 31.5753 24.7698 31.5859 17.7672C33.9175 17.7672 36.2385 17.7672 38.5702 17.7672C38.5702 18.9448 38.5702 19.5231 38.5702 20.7007C36.7977 20.7112 35.922 20.7217 34.1496 20.7428C34.1496 22.6774 34.1496 24.612 34.1496 26.5467L34.1179 26.5362Z" fill="white"/>
<path d="M42.6741 38.0913C41.6507 38.1334 41.1337 38.1544 40.1104 38.207C40.1104 31.3832 40.1315 24.5699 40.1315 17.7461C41.1548 17.7461 41.6718 17.7461 42.6952 17.7461C42.6952 20.648 42.6952 23.5605 42.6952 26.4625C43.8557 26.4414 44.4465 26.4309 45.6071 26.4204C45.6071 23.529 45.6071 20.6375 45.6071 17.7461C46.6516 17.7461 47.1685 17.7461 48.213 17.7461C48.213 24.4753 48.213 31.1939 48.2025 37.9231C47.158 37.9441 46.641 37.9546 45.5965 37.9862C45.5965 35.0947 45.5965 32.2033 45.5965 29.3119C44.436 29.3329 43.8452 29.3434 42.6846 29.3749C42.6846 32.2769 42.6846 35.1894 42.6846 38.0913H42.6741Z" fill="white"/>
<path d="M53.5095 17.3992C56.1788 17.4097 57.4448 20.0593 57.276 22.4882C57.276 22.7405 57.276 22.8667 57.276 23.1295C56.3054 23.1295 55.8201 23.1295 54.86 23.1295C54.86 22.7931 54.86 22.6248 54.86 22.2884C54.86 20.8479 54.3958 20.2907 53.5834 20.2907C52.771 20.2907 52.2752 20.8689 52.3068 22.2884C52.4018 26.4521 57.2549 28.6706 57.3182 33.0235C57.3499 35.3472 56.1788 38.0809 53.499 38.0914C50.7031 38.1125 49.6692 35.4944 49.6798 33.034C49.6798 32.5399 49.6798 32.2875 49.6798 31.7933C50.6504 31.7828 51.1357 31.7828 52.1063 31.7723C52.1063 32.3506 52.1063 32.6345 52.1063 33.2128C52.1063 34.6532 52.6233 35.179 53.4357 35.1684C54.2481 35.1684 54.7861 34.6322 54.765 33.2023C54.7017 29.0701 49.7958 26.9778 49.7642 22.4882C49.7431 20.0699 50.7559 17.3782 53.5306 17.3887L53.5095 17.3992Z" fill="white"/>
<path d="M66.3597 22.7089C66.3597 23.7708 66.3597 24.3071 66.3597 25.3795C66.539 27.8504 65.2835 30.3844 62.5404 30.3528C62.0551 30.3528 61.8125 30.3423 61.3272 30.3318C61.3272 32.8763 61.3272 35.4207 61.3272 37.9652C60.3038 37.9336 59.7868 37.9231 58.7634 37.9126C58.7634 31.1519 58.7634 24.4017 58.7634 17.641C60.2721 17.641 61.0212 17.641 62.5299 17.641C65.2624 17.6725 66.5179 20.238 66.3491 22.7089H66.3597ZM61.3272 20.5429C61.3272 22.8351 61.3272 25.1272 61.3272 27.4298C61.8125 27.4298 62.0551 27.4298 62.5404 27.4509C63.3528 27.4614 63.7959 27.0093 63.7959 25.5478C63.7959 24.3281 63.7959 23.7078 63.7959 22.4881C63.7959 21.0266 63.3528 20.564 62.5404 20.5535C62.0551 20.5535 61.8125 20.5535 61.3272 20.5535V20.5429Z" fill="white"/>
<path d="M67.3411 22.5722C67.3411 20.0803 68.4172 17.3992 71.2236 17.4097C73.9561 17.4202 75.2749 20.2065 75.1167 22.6984C75.1167 26.3469 75.1272 29.9848 75.1378 33.6333C75.3171 36.0937 73.9878 38.8274 71.2552 38.6487C68.4594 38.4699 67.3622 35.7993 67.3622 33.2653C67.3622 29.701 67.3622 26.1366 67.3516 22.5828L67.3411 22.5722ZM69.9153 33.5702C69.9153 35.0528 70.4323 35.631 71.2447 35.6836C72.0571 35.7257 72.574 35.1894 72.574 33.7069C72.574 29.9533 72.5635 26.1997 72.5529 22.4461C72.5529 20.953 72.036 20.3853 71.2236 20.3747C70.4112 20.3747 69.8942 20.9215 69.9048 22.404C69.9048 26.1261 69.9048 29.8482 69.9153 33.5702Z" fill="white"/>
<path d="M82.1431 39.3005C82.006 38.7327 81.911 38.3858 81.911 36.6194C81.911 35.263 81.911 34.5796 81.911 33.2232C81.911 31.215 81.394 30.4369 80.2335 30.3738C79.8748 30.3528 79.706 30.3423 79.3473 30.3213C79.3473 33.2232 79.3473 36.1252 79.3578 39.0271C78.3345 38.9325 77.8175 38.8905 76.7941 38.8063C76.7836 31.7512 76.773 24.6961 76.7625 17.641C78.3028 17.641 79.0835 17.641 80.6239 17.641C83.4197 17.641 84.6119 20.1644 84.422 22.6774C84.422 23.3608 84.422 23.7078 84.422 24.4017C84.422 26.6518 83.8945 28.1027 82.755 28.7546C84.0316 29.5327 84.4536 31.2255 84.4642 33.5071C84.4642 34.8635 84.4642 35.5364 84.4642 36.8822C84.4642 37.9442 84.4853 38.7327 84.7491 39.5739C83.7046 39.4582 83.1876 39.4057 82.1431 39.29V39.3005ZM79.3156 20.7007C79.3156 22.8876 79.3156 25.0746 79.3262 27.2721C79.7271 27.2931 79.9275 27.2931 80.3285 27.3142C81.278 27.3562 81.8583 26.8305 81.8583 25.0957C81.8583 24.244 81.8583 23.8129 81.8583 22.9612C81.8583 21.4156 81.4573 20.7322 80.55 20.7217C80.0542 20.7217 79.8115 20.7112 79.3156 20.7007Z" fill="white"/>
<path d="M85.3609 17.6515C87.9985 17.6515 90.6361 17.6515 93.2736 17.662C93.2736 18.9763 93.2736 19.6387 93.2736 20.953C92.2081 20.932 91.67 20.9214 90.5939 20.9004C90.5939 27.3667 90.615 33.8436 90.615 40.3099C89.5916 40.1732 89.0852 40.1101 88.0618 39.9839C88.0618 33.6017 88.0407 27.2301 88.0301 20.8478C86.9645 20.8268 86.4265 20.8163 85.3503 20.7953C85.3503 19.5336 85.3503 18.9132 85.3503 17.6515H85.3609Z" fill="white"/>
<path d="M97.8312 17.3992C100.775 17.3992 101.745 21.0266 101.598 23.5185C101.598 23.8235 101.598 23.9812 101.598 24.2861C100.627 24.244 100.152 24.2125 99.1817 24.1704C99.1817 23.7709 99.1817 23.5711 99.1817 23.1821C99.1817 21.4788 98.7174 20.8164 97.9051 20.7953C97.0927 20.7743 96.6074 21.4157 96.6285 23.0875C96.6707 27.9451 101.471 31.1204 101.629 36.1778C101.703 38.4594 100.87 42.1079 97.8312 41.6453C94.8877 41.2037 93.917 37.8075 94.0225 35.242C94.0225 34.6742 94.0225 34.3904 94.0225 33.8226C94.9932 33.9172 95.4679 33.9698 96.4386 34.0749C96.4386 34.7478 96.4386 35.0843 96.4386 35.7467C96.4386 37.4185 96.9555 38.0914 97.7679 38.2071C98.5803 38.3227 99.0656 37.7655 99.0867 36.0727C99.1606 31.4779 94.2969 28.5549 94.0858 23.2136C93.9909 20.7428 94.8982 17.3887 97.8523 17.3992H97.8312Z" fill="white"/>
</svg>
