<svg width="40" height="48" viewBox="0 0 40 48" fill="none" xmlns="http://www.w3.org/2000/svg">
<path d="M20.0029 46.0943C9.6731 46.0943 1.30005 37.724 1.30005 27.3976V9.19561C1.30005 8.54737 1.76079 7.98442 2.40356 7.87069C4.87225 7.41578 6.8233 5.47105 7.27267 3.00318C7.39213 2.36631 7.94957 1.90002 8.59803 1.90002H31.3964C32.0448 1.90002 32.608 2.36062 32.7217 3.00318C33.1768 5.47105 35.1222 7.42147 37.5909 7.87069C38.2279 7.9901 38.6944 8.54737 38.6944 9.19561V27.3976C38.6944 37.724 30.3213 46.0943 19.9915 46.0943H20.0029Z" fill="#001331"/>
<path d="M19.9517 44.2406C10.6401 44.2122 3.14868 36.547 3.14868 27.2327V10.2249C3.14868 9.86663 3.3819 9.54819 3.72319 9.43447C6.14637 8.65544 8.0633 6.73914 8.84258 4.31675C8.95066 3.97557 9.2692 3.74243 9.63324 3.74243H30.3668C30.7251 3.74243 31.0437 3.97557 31.1574 4.31675C31.9367 6.73914 33.8537 8.65544 36.2768 9.43447C36.6181 9.54251 36.8513 9.86094 36.8513 10.2249V27.3976C36.8513 36.7005 29.269 44.269 19.9517 44.2406Z" fill="white"/>
<path d="M19.912 42.3925C11.6356 42.347 5.00317 35.5063 5.00317 27.2384V11.5099C5.00317 11.1687 5.20226 10.8617 5.50942 10.7138C7.51168 9.74716 9.14988 8.10949 10.1169 6.10789C10.2648 5.80083 10.5719 5.60181 10.9132 5.60181H29.0871C29.4284 5.60181 29.7355 5.80083 29.8834 6.10789C30.8504 8.10949 32.4886 9.74716 34.4909 10.7138C34.798 10.8617 34.9971 11.1687 34.9971 11.5099V27.4033C34.9971 35.6997 28.2225 42.4437 19.912 42.3925Z" fill="#001331"/>
<path d="M18.3704 7.76831V39.7256C18.8368 39.7711 19.3089 39.7995 19.781 39.8052C20.4067 39.8052 21.0211 39.7711 21.624 39.6972V7.76831H18.3704Z" fill="#0091D2"/>
<path d="M12.2839 7.76831V37.7069C13.2964 38.3097 14.3886 38.7987 15.5376 39.1513V7.76831H12.2839Z" fill="white"/>
<path d="M24.4624 7.76831V39.083C25.6171 38.7134 26.7036 38.2073 27.7161 37.5818V7.76831H24.4624Z" fill="white"/>
<path d="M19.9978 37.5806C27.839 37.5806 34.1956 31.2261 34.1956 23.3875C34.1956 15.5488 27.839 9.19434 19.9978 9.19434C12.1566 9.19434 5.80005 15.5488 5.80005 23.3875C5.80005 31.2261 12.1566 37.5806 19.9978 37.5806Z" fill="#001331"/>
<path d="M19.9978 36.1703C27.0599 36.1703 32.7849 30.4472 32.7849 23.3874C32.7849 16.3276 27.0599 10.6045 19.9978 10.6045C12.9357 10.6045 7.21069 16.3276 7.21069 23.3874C7.21069 30.4472 12.9357 36.1703 19.9978 36.1703Z" fill="white"/>
<path d="M32.7053 24.7977C30.976 25.0251 29.0136 25.2071 26.7838 25.3037C16.6304 25.7473 13.2971 17.9229 12.222 13.2373C9.17881 15.5744 7.21069 19.2478 7.21069 23.3818C7.21069 30.4385 12.933 36.1647 19.9978 36.1647C26.5791 36.1647 31.9999 31.1891 32.7053 24.7977Z" fill="#DBE8EF"/>
<path d="M9.11629 18.9122L9.73631 21.1811L8.78638 25.6676L9.39502 21.147L9.11629 18.9122Z" fill="white"/>
<path d="M19.9978 9.85962C18.5473 9.85962 17.1423 10.0928 15.834 10.5192C15.834 10.5192 15.8283 10.5192 15.8226 10.5192C10.4017 12.282 6.47119 17.3827 6.47119 23.3818C6.47119 30.8366 12.5405 36.9039 19.9978 36.9039C27.455 36.9039 33.5243 30.8366 33.5243 23.3818C33.5243 15.927 27.455 9.85962 19.9978 9.85962ZM32.4379 20.8229C31.7781 19.3274 30.9419 18.3835 30.3446 17.8489C30.1342 17.6613 29.9806 17.4282 29.8953 17.1609L29.0193 14.4485C30.72 16.1658 31.9316 18.3607 32.4322 20.8172L32.4379 20.8229ZM28.2855 13.7661L25.2082 12.2593C25.0261 12.1683 24.8669 12.0375 24.7417 11.8783L24.4346 11.4802C25.8566 12.0091 27.1592 12.7881 28.2912 13.7605L28.2855 13.7661ZM25.8794 18.7644C25.5495 20.4192 24.9465 22.0853 24.0535 23.831C23.9169 24.0982 23.6667 24.2859 23.3709 24.3371L19.2412 25.0592C18.9454 25.1104 18.6497 25.0194 18.4278 24.8147C17.2731 23.7457 16.1241 22.4435 15.0035 20.9366C14.8101 20.6751 14.7589 20.3396 14.8727 20.0325L16.198 16.4672C16.3004 16.1942 16.5223 15.9838 16.7953 15.8928C18.6098 15.3015 20.6405 14.8807 22.0114 14.6703C22.3186 14.6248 22.6257 14.7328 22.8419 14.9546L25.6348 17.9115C25.8452 18.1333 25.9363 18.446 25.8737 18.7531L25.8794 18.7644ZM16.1753 11.304C16.2094 11.2755 16.2435 11.2585 16.2834 11.2471C17.4608 10.8888 18.7065 10.6955 20.0034 10.6955C21.016 10.6955 22 10.8149 22.9386 11.0367C23.0068 11.0538 23.0694 11.0936 23.1149 11.1504L23.8373 12.0773C23.9283 12.191 23.9283 12.3502 23.8373 12.464L22.9272 13.6354C22.876 13.7036 22.7964 13.7434 22.711 13.7548C22.0341 13.823 21.198 13.9708 20.4585 14.1187C19.4176 14.3234 17.5803 14.7328 15.8852 15.3413C15.7942 15.3754 15.6975 15.364 15.6178 15.3128L13.9683 14.312C13.8147 14.2154 13.7692 14.0107 13.8716 13.8628C14.4404 13.044 15.2481 12.0432 16.1753 11.304ZM14.1844 12.1057C13.3994 13.0155 12.768 13.9708 12.4438 14.585C12.3699 14.7271 12.2732 14.8579 12.1651 14.9773L10.0946 17.2121C9.91825 17.4054 9.69641 17.5589 9.4575 17.6613L8.46207 18.0935C9.64521 15.5175 11.6702 13.4079 14.1787 12.1114L14.1844 12.1057ZM8.08664 27.783C7.58039 26.4126 7.30736 24.9341 7.30736 23.3931C7.30736 21.8521 7.55764 20.5102 8.01838 19.1909L9.39493 18.5939L10.0661 21.1527L8.60996 27.5726L8.08664 27.783ZM12.3869 30.7797L9.73623 28.0218C9.54851 27.8285 9.46888 27.5499 9.53145 27.2883L10.6691 22.2729C10.7374 21.9772 10.9649 21.7441 11.2607 21.6702L13.4848 21.1186C13.7976 21.039 14.1275 21.1584 14.3209 21.4143C15.5553 23.0804 16.8294 24.502 18.1093 25.6563C18.3084 25.8326 18.3994 26.0998 18.3652 26.3671L17.8874 29.6595C17.8362 30.0064 17.5689 30.2793 17.2219 30.3362L13.1036 31.0128C12.842 31.0583 12.5746 30.9674 12.3926 30.774L12.3869 30.7797ZM22.3584 35.488C22.3584 35.7098 22.1934 35.9031 21.9716 35.9372C21.3288 36.0396 20.6747 36.0907 20.0034 36.0907C17.7737 36.0907 15.6804 35.5164 13.8602 34.5099C13.7464 34.4474 13.6668 34.3394 13.6383 34.2143L13.2231 32.3264C13.1662 32.0762 13.3369 31.826 13.5928 31.7862L18.2799 31.0128C18.3652 30.9958 18.4563 31.0128 18.5359 31.047L22.0853 32.6221C22.2503 32.696 22.3527 32.8552 22.3527 33.0372V35.4994L22.3584 35.488ZM30.7655 30.1371C29.1444 32.7131 26.6245 34.6692 23.6439 35.5619C23.4164 35.6302 23.1889 35.4596 23.1889 35.2207V32.6789C23.1889 32.588 23.223 32.5027 23.2855 32.4344L26.2434 29.3467C26.3003 29.2899 26.3686 29.2558 26.4425 29.2444C27.7394 29.051 29.1842 28.7952 30.4698 28.4199C30.7087 28.3516 30.9419 28.5393 30.9191 28.7895L30.8111 29.9836C30.8111 30.0405 30.7883 30.0917 30.7599 30.1428L30.7655 30.1371ZM26.3572 27.982L24.7247 24.9796C24.6223 24.792 24.6223 24.5645 24.7247 24.3712C25.6917 22.5174 26.3401 20.7376 26.6928 18.9748C26.7497 18.6905 26.9943 18.4801 27.2844 18.4631L29.3264 18.3323C29.5028 18.3209 29.6734 18.3778 29.8042 18.4972C30.5892 19.208 31.9089 20.7888 32.4436 23.6718C32.4663 23.7855 32.4549 23.8992 32.4151 24.0073L31.3344 27.0097C31.2661 27.1916 31.1182 27.3395 30.9362 27.402C29.7644 27.8114 28.3594 28.1014 27.0398 28.3118C26.7667 28.3573 26.4994 28.2265 26.3686 27.982H26.3572Z" fill="#001331"/>
<path d="M18.2856 31.3882L22.0911 33.0315V35.1753L21.6701 33.2817L18.2856 31.3882Z" fill="white"/>
<path d="M19.0593 25.7814L23.371 25.0478C23.627 25.0024 23.8772 25.1275 23.9967 25.3549L25.9136 28.943L23.7407 25.8326C23.6213 25.662 23.4279 25.5653 23.2231 25.5767L19.0593 25.7814Z" fill="white"/>
</svg>
