<svg width="24" height="24" viewBox="0 0 24 24" fill="none" xmlns="http://www.w3.org/2000/svg">
<path d="M24 4H0V20H24V4Z" fill="#FF0000"/>
<path d="M16.66 13.86C16.51 13.68 16.34 13.67 16.13 13.9C15.91 13.9 15.76 13.91 15.53 13.92C15.65 13.82 15.71 13.74 15.83 13.64C16.01 13.7 16.19 13.68 16.27 13.48C16.33 13.41 16.39 13.37 16.55 13.37C16.45 13.28 16.36 13.25 16.17 13.34C15.89 13.22 15.87 13.39 15.82 13.51C15.63 13.63 15.48 13.74 15.29 13.86C14.91 13.75 14.6 13.69 14.21 13.57C14.29 13.48 14.38 13.41 14.46 13.32C14.48 13.25 14.44 13.21 14.38 13.2C13.76 13.07 13.41 12.83 13.19 12.21C13.1 11.95 13.29 11.87 13.36 12.03C13.45 12.25 13.55 12.49 13.83 12.68C13.93 12.74 14.21 12.69 14.04 12.53C13.86 12.39 13.79 12.33 13.7 11.99C13.7 11.82 13.88 11.74 13.98 11.9C14.09 12.24 14.1 12.39 14.29 12.61C14.44 12.78 14.63 12.89 14.73 12.89C14.9 12.89 15.08 12.7 14.85 12.57C14.51 12.44 14.39 12.26 14.34 12.08C14.29 11.78 14.34 11.63 14.53 11.78C14.79 12.07 15.3 12.62 15.56 12.87C15.86 13.09 16.19 13.1 16.46 12.87C16.61 12.7 16.56 12.51 16.32 12.55C15.78 12.6 15.36 12.33 14.91 11.61C14.82 11.45 14.8 11.22 14.99 11.39C15.22 11.69 15.54 11.94 15.85 12.05C16.16 12.16 16.44 12.12 16.51 12C16.62 11.81 16.6 11.59 16.39 11.66C16.22 11.72 15.98 11.73 15.74 11.64C15.49 11.55 15.24 11.34 14.96 11C14.87 10.8 14.9 10.64 15.09 10.74C15.54 11.11 16.12 11.41 16.41 11.23C16.63 11.1 16.63 10.76 16.36 10.78C15.8 10.86 15.59 10.73 15.06 10.27C14.94 10.18 14.95 9.96 15.14 10.1C15.59 10.38 16.2 10.49 16.44 10.35C16.66 10.22 16.62 9.81 16.26 9.96C15.97 10.13 15.65 10.13 15 9.68C14.84 9.55 14.96 9.38 15.09 9.45C15.61 9.74 16.36 9.86 16.56 9.28C16.64 9.05 16.5 8.92 16.29 9.08C15.84 9.48 15.34 9.28 15.06 9.08C14.99 9.08 14.83 8.8 15.09 8.84C15.77 8.99 16.43 8.86 16.55 8.39C16.62 8.24 16.48 7.97 16.24 8.2C15.92 8.51 15.57 8.52 15.14 8.52C14.92 8.48 14.92 8.24 15.1 8.2C15.44 8.2 15.78 8.06 16.05 7.91C16.31 7.76 16.53 7.55 16.6 7.27C16.64 7.01 16.39 6.74 16.24 7.01C16.01 7.41 15.51 7.79 14.96 7.85C14.93 7.8 14.86 7.68 14.77 7.71C14.44 7.83 13.99 8.04 13.62 8.25C13.54 8.29 13.63 8.51 13.65 8.59C13.67 8.8 13.6 8.94 13.54 9.02C13.47 9.1 13.29 9.15 13.19 9.12C12.98 9.07 12.87 8.89 12.91 8.57C12.92 8.54 12.93 8.38 13.1 8.19C13.18 8.09 13.3 7.96 13.49 7.86C13.68 7.76 13.96 7.7 14.3 7.63C14.51 7.59 14.61 7.51 14.63 7.43C14.53 7.45 14.37 7.54 14.26 7.52C14.15 7.5 14.1 7.45 14.05 7.42C14.13 7.4 14.27 7.42 14.4 7.42C14.53 7.42 14.64 7.39 14.72 7.38C14.88 7.35 15 7.29 15.08 7.15C15.11 6.99 15.01 6.97 14.91 7.07C14.83 7.15 14.81 7.19 14.76 7.23C14.71 7.27 14.62 7.3 14.56 7.31C14.43 7.33 14.3 7.36 14.14 7.31C14.17 7.27 14.25 7.2 14.31 7.16C14.38 7.12 14.44 7.1 14.5 7.11C14.54 7.11 14.6 7.15 14.64 7.22C14.67 7.05 14.62 6.86 14.15 6.94C14.15 6.81 13.88 6.76 13.71 6.76C13.62 6.76 13.42 6.82 13.28 6.88C13.06 6.95 12.84 7 12.58 7.01C12.73 7.13 12.76 7.14 12.91 7.25C12.68 7.33 12.51 7.5 12.43 7.61C12.63 7.61 12.69 7.61 12.76 7.63C12.48 7.71 12.36 7.76 12.21 7.9C12.26 7.9 12.34 7.92 12.37 7.94C12.4 7.95 12.39 7.97 12.37 7.99C12.31 8.03 12.07 8.31 11.99 8.38C11.92 8.31 11.68 8.03 11.61 7.99C11.59 7.97 11.57 7.95 11.61 7.94C11.64 7.93 11.72 7.91 11.77 7.9C11.62 7.75 11.5 7.71 11.22 7.63C11.29 7.6 11.35 7.62 11.55 7.61C11.47 7.5 11.3 7.33 11.07 7.25C11.22 7.14 11.25 7.14 11.4 7.01C11.14 6.99 10.92 6.94 10.7 6.88C10.56 6.81 10.37 6.76 10.27 6.76C10.1 6.76 9.82999 6.81 9.82999 6.94C9.36999 6.86 9.31999 7.05 9.33999 7.22C9.37999 7.15 9.43999 7.12 9.47999 7.11C9.53999 7.1 9.60999 7.11 9.66999 7.16C9.73999 7.2 9.80999 7.27 9.83999 7.31C9.67999 7.35 9.54999 7.32 9.41999 7.31C9.35999 7.3 9.26999 7.26 9.21999 7.23C9.16999 7.19 9.14999 7.16 9.06999 7.07C8.96999 6.97 8.86999 7 8.89999 7.15C8.96999 7.29 9.09999 7.36 9.25999 7.38C9.33999 7.39 9.44999 7.42 9.57999 7.42C9.70999 7.42 9.84999 7.4 9.92999 7.42C9.87999 7.45 9.82999 7.5 9.71999 7.52C9.60999 7.54 9.44999 7.46 9.34999 7.43C9.35999 7.51 9.46999 7.59 9.67999 7.63C10.02 7.7 10.3 7.76 10.49 7.86C10.68 7.96 10.8 8.09 10.88 8.19C11.05 8.39 11.06 8.54 11.07 8.57C11.1 8.89 10.99 9.07 10.79 9.12C10.69 9.15 10.5 9.1 10.44 9.02C10.37 8.94 10.31 8.81 10.33 8.59C10.35 8.51 10.44 8.29 10.36 8.25C9.98999 8.04 9.53999 7.84 9.20999 7.71C9.11999 7.68 9.04999 7.8 9.01999 7.85C8.45999 7.78 7.95999 7.41 7.73999 7.01C7.58999 6.74 7.32999 7.01 7.37999 7.27C7.44999 7.56 7.66999 7.77 7.92999 7.91C8.19999 8.06 8.53999 8.2 8.87999 8.2C9.05999 8.23 9.05999 8.47 8.83999 8.52C8.40999 8.52 8.05999 8.52 7.73999 8.2C7.48999 7.97 7.34999 8.24 7.42999 8.39C7.54999 8.86 8.21999 8.99 8.88999 8.84C9.14999 8.8 8.99999 9.08 8.91999 9.08C8.63999 9.28 8.12999 9.48 7.68999 9.08C7.48999 8.92 7.34999 9.06 7.41999 9.28C7.61999 9.87 8.36999 9.74 8.88999 9.45C9.01999 9.38 9.13999 9.55 8.97999 9.68C8.32999 10.13 8.00999 10.14 7.71999 9.96C7.35999 9.82 7.31999 10.22 7.53999 10.35C7.77999 10.5 8.38999 10.39 8.83999 10.1C9.02999 9.96 9.03999 10.18 8.91999 10.27C8.38999 10.73 8.17999 10.85 7.61999 10.78C7.33999 10.76 7.34999 11.1 7.56999 11.23C7.86999 11.41 8.43999 11.11 8.88999 10.74C9.07999 10.64 9.10999 10.8 9.01999 11C8.74999 11.35 8.48999 11.55 8.23999 11.64C7.98999 11.73 7.74999 11.72 7.58999 11.66C7.37999 11.59 7.35999 11.8 7.46999 12C7.53999 12.12 7.81999 12.15 8.12999 12.05C8.43999 11.94 8.76999 11.69 8.98999 11.39C9.18999 11.22 9.15999 11.45 9.06999 11.61C8.61999 12.33 8.19999 12.59 7.65999 12.55C7.41999 12.51 7.35999 12.7 7.51999 12.87C7.78999 13.09 8.12999 13.09 8.41999 12.87C8.67999 12.62 9.18999 12.07 9.44999 11.78C9.63999 11.63 9.69999 11.78 9.63999 12.08C9.58999 12.25 9.46999 12.43 9.12999 12.57C8.89999 12.7 9.06999 12.88 9.24999 12.89C9.34999 12.89 9.53999 12.78 9.68999 12.61C9.87999 12.39 9.89999 12.24 9.99999 11.9C10.1 11.73 10.28 11.81 10.28 11.99C10.19 12.33 10.12 12.39 9.93999 12.53C9.76999 12.69 10.06 12.74 10.15 12.68C10.43 12.49 10.53 12.25 10.62 12.03C10.69 11.87 10.88 11.95 10.79 12.21C10.57 12.83 10.22 13.08 9.59999 13.2C9.53999 13.21 9.49999 13.25 9.51999 13.32C9.59999 13.41 9.68999 13.48 9.76999 13.57C9.38999 13.68 9.07999 13.74 8.68999 13.86C8.49999 13.74 8.34999 13.63 8.15999 13.51C8.10999 13.39 8.08999 13.22 7.80999 13.34C7.61999 13.25 7.53999 13.28 7.42999 13.37C7.57999 13.37 7.64999 13.42 7.70999 13.48C7.78999 13.68 7.96999 13.7 8.14999 13.64C8.26999 13.74 8.32999 13.82 8.44999 13.92C8.22999 13.92 8.06999 13.91 7.84999 13.9C7.63999 13.67 7.46999 13.69 7.31999 13.86C7.20999 13.88 7.15999 13.88 7.07999 14.02C7.19999 13.97 7.27999 13.95 7.33999 14.01C7.55999 14.14 7.70999 14.11 7.81999 14.01C8.03999 14.02 8.22999 14.03 8.44999 14.05C8.36999 14.12 8.25999 14.15 8.17999 14.22C7.85999 14.13 7.68999 14.25 7.62999 14.52C7.58999 14.63 7.56999 14.74 7.57999 14.85C7.60999 14.75 7.65999 14.66 7.74999 14.6C8.03999 14.67 8.14999 14.56 8.15999 14.38C8.29999 14.27 8.50999 14.24 8.64999 14.13C8.80999 14.18 8.88999 14.21 9.04999 14.27C9.10999 14.45 9.23999 14.52 9.44999 14.47C9.69999 14.47 9.65999 14.58 9.67999 14.67C9.74999 14.55 9.74999 14.43 9.58999 14.33C9.52999 14.17 9.40999 14.1 9.23999 14.19C9.07999 14.15 9.03999 14.08 8.88999 14.04C9.27999 13.91 9.55999 13.89 9.95999 13.76C10.06 13.85 10.14 13.92 10.24 14C10.29 14.03 10.34 14.04 10.37 14C10.62 13.64 10.73 13.33 10.96 13.09C11.05 12.99 11.16 12.86 11.28 12.83C11.34 12.81 11.42 12.83 11.46 12.88C11.51 12.93 11.55 13.03 11.53 13.17C11.51 13.38 11.46 13.44 11.4 13.57C11.34 13.69 11.27 13.77 11.2 13.86C11.05 14.05 10.86 14.16 10.75 14.23C10.52 14.38 10.43 14.31 10.25 14.3C10.02 14.33 9.95999 14.44 10.15 14.59C10.32 14.68 10.48 14.69 10.61 14.67C10.72 14.65 10.85 14.51 10.94 14.43C11.04 14.31 11.21 14.45 11.1 14.59C10.89 14.84 10.68 15.01 10.42 15C10.15 15.04 10.2 15.19 10.38 15.26C10.71 15.39 11 15.14 11.15 14.98C11.27 14.85 11.35 14.85 11.33 15.04C11.22 15.39 11.06 15.53 10.8 15.55C10.59 15.53 10.59 15.69 10.74 15.8C11.08 16.04 11.33 15.63 11.45 15.39C11.53 15.17 11.66 15.27 11.67 15.46C11.67 15.7 11.56 15.9 11.27 16.15C11.5 16.51 11.76 16.88 11.99 17.24C12.22 16.88 12.48 16.51 12.71 16.15C12.41 15.9 12.3 15.7 12.31 15.46C12.32 15.28 12.45 15.17 12.53 15.39C12.65 15.64 12.9 16.04 13.24 15.8C13.39 15.69 13.39 15.53 13.18 15.55C12.92 15.53 12.77 15.4 12.65 15.04C12.63 14.84 12.71 14.85 12.83 14.98C12.98 15.15 13.27 15.4 13.6 15.26C13.78 15.19 13.83 15.03 13.56 15C13.3 15 13.09 14.84 12.88 14.59C12.76 14.45 12.93 14.31 13.04 14.43C13.13 14.51 13.26 14.65 13.37 14.67C13.5 14.69 13.65 14.68 13.83 14.59C14.02 14.44 13.96 14.33 13.73 14.3C13.55 14.3 13.46 14.37 13.23 14.23C13.12 14.16 12.92 14.05 12.78 13.86C12.71 13.77 12.64 13.69 12.58 13.57C12.52 13.45 12.47 13.38 12.45 13.17C12.43 13.03 12.47 12.93 12.52 12.88C12.57 12.83 12.64 12.82 12.7 12.83C12.82 12.86 12.93 12.99 13.02 13.09C13.25 13.32 13.36 13.64 13.61 14C13.64 14.04 13.69 14.03 13.74 14C13.84 13.92 13.92 13.85 14.02 13.76C14.41 13.89 14.69 13.91 15.08 14.04C14.92 14.08 14.88 14.15 14.73 14.19C14.56 14.1 14.44 14.17 14.38 14.33C14.22 14.44 14.22 14.55 14.29 14.67C14.31 14.59 14.27 14.48 14.52 14.47C14.73 14.52 14.87 14.45 14.92 14.27C15.08 14.22 15.16 14.19 15.32 14.13C15.46 14.25 15.67 14.27 15.81 14.38C15.83 14.55 15.93 14.67 16.22 14.6C16.31 14.66 16.36 14.75 16.39 14.85C16.41 14.74 16.39 14.63 16.35 14.52C16.29 14.26 16.12 14.13 15.8 14.22C15.72 14.15 15.61 14.12 15.53 14.05C15.75 14.04 15.94 14.02 16.16 14.01C16.27 14.11 16.42 14.14 16.64 14.01C16.69 13.95 16.77 13.97 16.9 14.02C16.82 13.88 16.77 13.88 16.66 13.86ZM13.69 7.06C13.83 7.06 13.91 7.1 13.91 7.16C13.91 7.22 13.82 7.27 13.69 7.27C13.56 7.27 13.47 7.22 13.47 7.17C13.47 7.12 13.55 7.07 13.69 7.07V7.06ZM10.31 7.27C10.17 7.27 10.09 7.22 10.09 7.16C10.09 7.1 10.18 7.06 10.31 7.06C10.44 7.06 10.53 7.11 10.53 7.16C10.53 7.21 10.45 7.26 10.31 7.26V7.27Z" fill="black"/>
</svg>
