<svg width="24" height="24" viewBox="0 0 24 24" fill="none" xmlns="http://www.w3.org/2000/svg">
<path d="M0 4H24V20H0V4Z" fill="white"/>
<path d="M0 4H12V20H0V4Z" fill="#006633"/>
<path d="M15.46 10C14.36 8.09 11.91 7.43 10 8.54C8.09 9.65 7.43 12.09 8.54 14C9.65 15.91 12.09 16.57 14 15.46C14.61 15.11 15.11 14.6 15.46 14C14.36 15.38 12.34 15.6 10.96 14.5C9.58 13.4 9.36 11.38 10.46 10C11.56 8.62 13.58 8.4 14.96 9.5C15.14 9.65 15.31 9.81 15.46 10ZM15.62 12L12 10.82L14.24 13.9V10.1L12 13.18L15.62 12Z" fill="#D21034"/>
</svg>
