<svg width="24" height="24" viewBox="0 0 24 24" fill="none" xmlns="http://www.w3.org/2000/svg">
<path d="M23.99 4H0V20H23.99V4Z" fill="#75D4F9"/>
<path d="M24 9.26001H0V14.64H24V9.26001Z" fill="white"/>
<path d="M12.87 12.18C12.87 12.18 12.87 12.21 12.86 12.23L14.19 12.85L12.83 12.36H12.82C12.82 12.36 12.81 12.38 12.8 12.4L13.97 13.24L12.73 12.51C12.73 12.51 12.71 12.54 12.7 12.55L13.68 13.62L12.61 12.65C12.61 12.65 12.59 12.66 12.59 12.67L13.35 13.9L12.48 12.75C12.48 12.75 12.45 12.77 12.44 12.78L12.94 14.14L12.33 12.84C12.33 12.84 12.31 12.84 12.29 12.85L12.53 14.3L12.17 12.9C12.17 12.9 12.13 12.9 12.12 12.9L12.06 14.36L12 12.91C12 12.91 11.98 12.9 11.97 12.9L11.64 14.33L11.84 12.9C11.84 12.9 11.8 12.88 11.79 12.88L11.17 14.2L11.66 12.84L11.62 12.82L10.77 14.01L11.51 12.76C11.51 12.76 11.48 12.73 11.47 12.72L10.4 13.7L11.38 12.63C11.38 12.63 11.36 12.61 11.36 12.6L10.12 13.37L11.28 12.5C11.28 12.5 11.26 12.47 11.25 12.46L9.89 12.96L11.2 12.34C11.2 12.34 11.2 12.33 11.2 12.32L9.77 12.56L11.17 12.2C11.17 12.2 11.17 12.16 11.17 12.14L9.72 12.07L11.16 12.01C11.16 12.01 11.16 11.98 11.16 11.97L9.75 11.65L11.17 11.85C11.17 11.85 11.17 11.81 11.19 11.8L9.88 11.19L11.23 11.68C11.23 11.68 11.23 11.66 11.24 11.65L10.06 10.8L11.31 11.54C11.31 11.54 11.33 11.51 11.35 11.5L10.37 10.43L11.44 11.41C11.44 11.41 11.46 11.39 11.47 11.38L10.7 10.15L11.57 11.3C11.57 11.3 11.6 11.28 11.62 11.27L11.12 9.90999L11.73 11.22C11.73 11.22 11.76 11.22 11.78 11.21L11.55 9.78999L11.91 11.18C11.91 11.18 11.95 11.18 11.97 11.18L12.03 9.73999L12.09 11.18C12.09 11.18 12.12 11.18 12.13 11.18L12.45 9.76999L12.25 11.2C12.25 11.2 12.29 11.2 12.31 11.22L12.92 9.90999L12.43 11.26C12.43 11.26 12.45 11.27 12.46 11.28L13.31 10.09L12.57 11.34C12.57 11.34 12.6 11.37 12.62 11.38L13.7 10.39L12.72 11.46C12.72 11.46 12.74 11.48 12.74 11.49L13.98 10.72L12.82 11.59H12.81C12.81 11.59 12.83 11.63 12.84 11.64L14.22 11.14L12.91 11.76H12.89C12.89 11.76 12.89 11.79 12.9 11.8L14.34 11.56L12.94 11.92C12.94 11.92 12.94 11.96 12.94 11.97L14.4 12.03L12.95 12.09H12.94C12.94 12.09 12.94 12.11 12.94 12.12L14.37 12.45L12.93 12.25L12.87 12.18Z" fill="#EFE94D"/>
<path d="M12.87 12.18V12.23H12.86L14.19 12.85L12.83 12.36H12.82L12.8 12.4L13.97 13.24L12.73 12.51L12.7 12.55L13.68 13.61L12.61 12.64L12.59 12.66L13.35 13.88L12.48 12.73L12.44 12.76L12.94 14.11L12.33 12.81L12.29 12.82L12.53 14.26H12.52L12.16 12.84L12.11 12.85L12.05 14.31H12.04L11.98 12.85H11.95L11.62 14.27H11.61L11.81 12.83H11.76L11.14 14.15L11.63 12.78L11.59 12.77L10.74 13.95L11.48 12.7L11.44 12.68L10.37 13.66L11.35 12.59L11.33 12.57L10.09 13.34L11.25 12.46L11.22 12.42L9.86 12.92L11.17 12.3V12.28L9.74 12.52L11.14 12.16V12.11L9.69 12.05L11.13 11.98V11.95L9.72 11.63L11.14 11.82C11.14 11.82 11.14 11.79 11.16 11.77L9.85 11.17L11.2 11.65L11.22 11.62L10.04 10.78L11.29 11.51L11.33 11.47L10.35 10.4L11.42 11.37L11.45 11.34L10.68 10.12H10.69L11.56 11.27L11.61 11.24L11.11 9.89H11.12L11.73 11.19L11.78 11.17L11.55 9.76H11.56L11.92 11.15L11.98 11.14L12.04 9.7H12.05L12.11 11.14H12.15L12.47 9.74H12.48L12.28 11.17H12.34L12.95 9.86H12.96L12.47 11.22H12.5L13.35 10.03H13.36L12.62 11.29L12.66 11.32L13.74 10.33L12.75 11.42L12.77 11.44L14.01 10.67L12.84 11.56L12.87 11.6L14.25 11.1L12.92 11.73L12.93 11.76L14.37 11.52L12.97 11.89V11.94L14.43 12L12.97 12.07C12.97 12.07 12.97 12.09 12.97 12.1L14.4 12.43L12.96 12.23L12.87 12.18ZM12.87 12.18L14.31 12.38L12.88 12.05V12.02L14.34 11.95L12.88 11.89V11.83L14.28 11.47L12.84 11.71V11.68H12.83L14.16 11.06L12.78 11.57L12.75 11.52L13.92 10.64L12.68 11.42L12.66 11.4L13.65 10.32L12.57 11.32L12.52 11.29V11.28L13.26 10.03H13.27L12.42 11.23L12.39 11.21L12.88 9.86H12.89L12.28 11.18H12.23V11.16L12.43 9.73H12.44L12.12 11.14H12.08L12.02 9.69H12.03L11.97 11.13H11.91L11.55 9.73H11.56L11.79 11.15L11.74 11.17L11.13 9.86H11.14L11.64 11.22L11.59 11.25L10.72 10.1H10.73L11.5 11.32L11.47 11.35L10.4 10.37L11.38 11.44L11.34 11.48L10.09 10.74L11.27 11.58V11.61H11.25L9.9 11.12L11.21 11.72L11.19 11.77L9.77 11.57L11.18 11.89V11.93L9.74 11.99L11.19 12.05V12.11L9.79 12.47L11.22 12.23V12.25L9.91 12.87L11.27 12.37L11.3 12.41L10.14 13.28L11.38 12.5L11.4 12.53L10.42 13.6L11.49 12.61L11.53 12.64L10.79 13.89L11.64 12.7L11.68 12.72L11.19 14.08L11.81 12.75H11.86V12.76V12.77L11.66 14.2H11.65L11.98 12.77H12.02L12.08 14.24H12.07L12.14 12.78H12.19L12.55 14.2H12.54L12.3 12.76H12.34V12.75L12.95 14.06L12.45 12.71L12.49 12.68L13.36 13.83L12.6 12.61L12.62 12.59L13.69 13.56L12.71 12.5L12.74 12.46L13.98 13.2L12.81 12.36L12.83 12.32H12.84L14.2 12.82L12.87 12.2L12.89 12.15L12.87 12.18Z" fill="#513B2F"/>
<path d="M12.15 11.73C12.27 11.6 12.5 11.61 12.62 11.73C12.55 11.68 12.47 11.65 12.39 11.64C12.3 11.64 12.23 11.68 12.16 11.72L12.15 11.73Z" fill="#84533A"/>
<path d="M12.21 11.76C12.29 11.66 12.44 11.66 12.53 11.76C12.44 11.84 12.29 11.84 12.21 11.76ZM12.21 11.76C12.3 11.82 12.43 11.81 12.52 11.75C12.44 11.67 12.3 11.69 12.21 11.76Z" fill="#84533A"/>
<path d="M12.43 11.74C12.43 11.74 12.4 11.8 12.37 11.8C12.34 11.8 12.31 11.77 12.31 11.74C12.31 11.71 12.34 11.68 12.37 11.68C12.4 11.68 12.43 11.71 12.43 11.74Z" fill="#84533A"/>
<path d="M12.18 11.79C12.23 11.84 12.3 11.85 12.37 11.84C12.43 11.84 12.51 11.84 12.56 11.79C12.52 11.85 12.44 11.85 12.37 11.86C12.3 11.86 12.23 11.84 12.18 11.79Z" fill="#84533A"/>
<path d="M11.9 11.73C11.83 11.69 11.75 11.64 11.67 11.65C11.59 11.65 11.51 11.69 11.44 11.74C11.55 11.6 11.79 11.6 11.91 11.73H11.9Z" fill="#84533A"/>
<path d="M11.84 11.76C11.75 11.69 11.61 11.67 11.53 11.76C11.62 11.81 11.75 11.82 11.84 11.76ZM11.84 11.76C11.75 11.84 11.61 11.84 11.52 11.76C11.61 11.67 11.76 11.67 11.84 11.76Z" fill="#84533A"/>
<path d="M11.62 11.74C11.62 11.74 11.65 11.8 11.68 11.8C11.71 11.8 11.74 11.77 11.74 11.74C11.74 11.71 11.71 11.68 11.68 11.68C11.65 11.68 11.62 11.71 11.62 11.74Z" fill="#84533A"/>
<path d="M11.88 11.79C11.84 11.85 11.76 11.86 11.69 11.86C11.63 11.86 11.54 11.86 11.5 11.79C11.54 11.84 11.62 11.84 11.69 11.84C11.75 11.84 11.83 11.84 11.88 11.79Z" fill="#84533A"/>
<path d="M12.62 11.66C12.52 11.53 12.31 11.49 12.17 11.57C12.1 11.62 12.07 11.7 12.07 11.79C12.07 11.87 12.08 11.97 12.16 12.01C12.08 11.97 12.06 11.87 12.05 11.79C12.05 11.7 12.08 11.61 12.16 11.56C12.31 11.48 12.53 11.49 12.62 11.66Z" fill="#84533A"/>
<path d="M11.82 12.05C11.79 12.1 11.83 12.15 11.88 12.13C11.93 12.1 11.98 12.16 12.02 12.14C12.05 12.14 12.06 12.12 12.09 12.11C12.12 12.11 12.14 12.13 12.17 12.13C12.21 12.14 12.26 12.08 12.22 12.05C12.27 12.08 12.22 12.17 12.16 12.15C12.11 12.12 12.08 12.15 12.02 12.15C11.97 12.15 11.93 12.1 11.88 12.15C11.82 12.18 11.77 12.1 11.81 12.05H11.82Z" fill="#84533A"/>
<path d="M12.24 12.33C12.18 12.27 12.11 12.24 12.03 12.28C11.95 12.25 11.87 12.26 11.81 12.33C11.84 12.3 11.86 12.26 11.91 12.26C11.95 12.25 12 12.26 12.03 12.26C12.06 12.26 12.11 12.24 12.15 12.26C12.19 12.28 12.22 12.31 12.25 12.34L12.24 12.33Z" fill="#84533A"/>
<path d="M11.87 12.34C11.92 12.34 11.98 12.34 12.03 12.35C12.07 12.33 12.13 12.33 12.18 12.35C12.15 12.35 12.13 12.35 12.1 12.35C12.07 12.35 12.06 12.36 12.02 12.37C11.97 12.35 11.92 12.35 11.87 12.34Z" fill="#84533A"/>
<path d="M12.23 12.36C12.23 12.36 12.16 12.39 12.13 12.42C12.11 12.45 12.07 12.48 12.03 12.47C11.93 12.47 11.9 12.37 11.82 12.36C11.9 12.36 11.94 12.47 12.03 12.45C12.07 12.45 12.1 12.45 12.13 12.41C12.16 12.39 12.2 12.37 12.24 12.36H12.23Z" fill="#84533A"/>
<path d="M11.88 12.58C11.88 12.58 11.95 12.48 12.02 12.48C12.08 12.48 12.14 12.54 12.15 12.59C12.1 12.47 11.93 12.47 11.88 12.58Z" fill="#84533A"/>
<path d="M11.89 12.02C11.94 11.95 11.96 11.86 11.97 11.78C11.98 11.7 11.97 11.6 11.88 11.56C11.72 11.48 11.53 11.53 11.41 11.65C11.51 11.5 11.73 11.45 11.89 11.54C11.97 11.58 12 11.69 11.99 11.77C11.99 11.86 11.94 11.94 11.89 12.01V12.02Z" fill="#84533A"/>
</svg>
