<svg width="24" height="24" viewBox="0 0 24 24" fill="none" xmlns="http://www.w3.org/2000/svg">
<path d="M24 4H0V20H24V4Z" fill="#509E2F"/>
<path d="M24 4H0V14.67H24V4Z" fill="#EF3340"/>
<path d="M24 4H0V9.33H24V4Z" fill="#00B5E2"/>
<path d="M11.4 13.8C12.3941 13.8 13.2 12.9941 13.2 12C13.2 11.0059 12.3941 10.2 11.4 10.2C10.4059 10.2 9.60001 11.0059 9.60001 12C9.60001 12.9941 10.4059 13.8 11.4 13.8Z" fill="white"/>
<path d="M11.8 13.5C12.6284 13.5 13.3 12.8284 13.3 12C13.3 11.1716 12.6284 10.5 11.8 10.5C10.9716 10.5 10.3 11.1716 10.3 12C10.3 12.8284 10.9716 13.5 11.8 13.5Z" fill="#EF3340"/>
<path d="M13.4 11L13.59 11.54L14.11 11.29L13.86 11.81L14.4 12L13.86 12.19L14.11 12.71L13.59 12.46L13.4 13L13.21 12.46L12.69 12.71L12.94 12.19L12.4 12L12.94 11.81L12.69 11.29L13.21 11.54L13.4 11Z" fill="white"/>
</svg>
