<svg width="24" height="24" viewBox="0 0 24 24" fill="none" xmlns="http://www.w3.org/2000/svg">
<path d="M0 4H24V20H0V4Z" fill="#00267F"/>
<path d="M8 4H16V20H8V4Z" fill="#FFC726"/>
<path d="M12 8.12C11.74 8.83 11.48 9.57 10.91 10.13C11.09 10.07 11.39 10.02 11.59 10.02V13L10.75 13.12C10.75 13.12 10.71 13.07 10.71 13.01C10.63 12.08 10.41 11.31 10.16 10.5C10.14 10.39 9.82 9.97 10.07 10.04C10.1 10.04 10.43 10.18 10.38 10.11C9.93 9.65 9.28 9.31 8.64 9.21C8.58 9.2 8.55 9.22 8.6 9.29C9.44 10.59 10.15 12.12 10.14 13.94C10.47 13.94 11.26 13.75 11.59 13.75V15.85H12L12.1 9.97L12 8.09V8.12Z" fill="black"/>
<path d="M12 8.12C12.26 8.83 12.52 9.57 13.09 10.13C12.91 10.07 12.61 10.02 12.41 10.02V13L13.25 13.12C13.25 13.12 13.29 13.07 13.29 13.01C13.37 12.08 13.59 11.31 13.84 10.5C13.86 10.39 14.18 9.97 13.93 10.04C13.9 10.04 13.57 10.18 13.62 10.11C14.07 9.65 14.72 9.31 15.36 9.21C15.42 9.2 15.45 9.22 15.4 9.29C14.56 10.59 13.85 12.12 13.86 13.94C13.53 13.94 12.74 13.75 12.41 13.75V15.85H12L11.9 9.97L12 8.09V8.12Z" fill="black"/>
</svg>
