<svg width="24" height="24" viewBox="0 0 24 24" fill="none" xmlns="http://www.w3.org/2000/svg">
<path d="M0 4H24V20H0V4Z" fill="#CE1720"/>
<path d="M3.88 14.67H24V20H3.88V14.67Z" fill="#007C30"/>
<mask id="mask0_161_2568" style="mask-type:luminance" maskUnits="userSpaceOnUse" x="0" y="4" width="4" height="16">
<path d="M0.179993 4H3.73999V14.81H3.87999V19.86L3.73999 20H0.179993V4Z" fill="white"/>
</mask>
<g mask="url(#mask0_161_2568)">
<path d="M0.819993 4V4.25H0.659993V4.5H0.459993V4.78H0.319993V5.01H0.0399933V4.43H0.319993V4.11H0.0399933V4H0.819993ZM1.28999 5.37V5.64H1.14999V5.85H1.00999V5.64H0.869993V5.37H0.729993V5.01H0.869993V4.74H1.00999V4.53H1.14999V4.74H1.28999V5.01H1.42999V5.37H1.28999ZM0.979993 5.35H1.15999V5.03H0.979993V5.35ZM0.519993 7.25H0.659993V6.93H0.519993V7.25ZM1.47999 7.25H1.61999V6.93H1.47999V7.25ZM0.0399933 9.42H0.289993V9.65H0.399993V9.93H0.559993V10.2H0.769993V9.93H0.929993V9.65H1.06999V9.42H0.859993V9.15H1.22999V9.33H1.45999V9.63H1.65999V9.97H1.51999V10.22H1.39999V10.45H1.28999V10.7H1.12999V10.91H1.00999V11.11H0.849993V11.36H0.619993V11.09H0.459993V10.84H0.339993V10.68H0.0399933V10.27H0.319993V9.91H0.0399933V9.41V9.42Z" fill="white"/>
<path d="M3.09999 4V4.25H3.25999V4.5H3.45999V4.78H3.59999V5.01H3.87999V4.43H3.59999V4.11H3.87999V4H3.09999ZM2.63999 5.37V5.64H2.77999V5.85H2.91999V5.64H3.05999V5.37H3.19999V5.01H3.05999V4.74H2.91999V4.53H2.77999V4.74H2.63999V5.01H2.49999V5.37H2.63999ZM2.93999 5.35H2.75999V5.03H2.93999V5.35ZM3.39999 7.25H3.25999V6.93H3.39999V7.25ZM2.43999 7.25H2.29999V6.93H2.43999V7.25ZM3.87999 9.42H3.62999V9.65H3.51999V9.93H3.35999V10.2H3.14999V9.93H2.98999V9.65H2.84999V9.42H3.05999V9.15H2.68999V9.33H2.45999V9.63H2.25999V9.97H2.39999V10.22H2.51999V10.45H2.62999V10.7H2.78999V10.91H2.90999V11.11H3.06999V11.36H3.29999V11.09H3.45999V10.84H3.57999V10.68H3.85999V10.27H3.57999V9.91H3.85999V9.41L3.87999 9.42Z" fill="white"/>
<path d="M1.88999 4V4.57H2.02999V4H2.59999V4.25H2.45999V4.5H2.24999V4.78H2.10999V5.01H1.82999V4.78H1.68999V4.5H1.47999V4.25H1.33999V4H1.90999H1.88999ZM1.85999 8.87V8.67H1.74999V8.44H1.62999V8.19H1.48999V7.94H1.34999V7.76H1.18999V7.51H0.979993V7.76H0.819993V7.94H0.699993V8.19H0.559993V8.44H0.449993V8.67H0.339993V8.97H0.0399933V8.19H0.319993V7.83H0.0399933V7.24H0.319993V7.49H0.499993V7.74H0.679993V7.49H0.859993V7.24H0.999993V6.92H0.859993V6.67H0.679993V6.42H0.499993V6.67H0.319993V6.92H0.0399933V6.19H0.319993V5.85H0.0399933V5.35H0.319993V5.58H0.459993V5.86H0.659993V6.09H0.819993V6.36H0.939993V6.57H1.18999V6.36H1.30999V6.09H1.46999V5.86H1.66999V5.58H1.80999V5.35H2.08999V5.58H2.22999V5.86H2.42999V6.09H2.58999V6.36H2.70999V6.57H2.95999V6.36H3.07999V6.09H3.23999V5.86H3.43999V5.58H3.57999V5.35H3.85999V5.85H3.57999V6.19H3.85999V6.92H3.57999V6.67H3.39999V6.42H3.21999V6.67H3.03999V6.92H2.89999V7.24H3.03999V7.49H3.21999V7.74H3.39999V7.49H3.57999V7.24H3.85999V7.83H3.57999V8.19H3.85999V8.97H3.57999V8.67H3.46999V8.44H3.35999V8.19H3.21999V7.94H3.09999V7.76H2.93999V7.51H2.72999V7.76H2.56999V7.94H2.42999V8.19H2.28999V8.44H2.16999V8.67H2.05999V8.87H1.84999H1.85999ZM1.88999 5.9V6.38H2.02999V5.9H1.88999ZM1.81999 6.93V6.68H1.63999V6.43H1.45999V6.68H1.27999V6.93H1.13999V7.25H1.27999V7.5H1.45999V7.75H1.63999V7.5H1.81999V7.25H2.09999V7.5H2.27999V7.75H2.45999V7.5H2.63999V7.25H2.77999V6.93H2.63999V6.68H2.45999V6.43H2.27999V6.68H2.09999V6.93H1.81999ZM1.88999 7.75V8.23H2.02999V7.75H1.88999Z" fill="white"/>
<path d="M0.819993 20V19.75H0.659993V19.5H0.459993V19.22H0.319993V18.99H0.0399933V19.58H0.319993V19.9H0.0399933V20.01H0.819993V20ZM1.28999 18.63V18.36H1.14999V18.15H1.00999V18.36H0.869993V18.63H0.729993V18.99H0.869993V19.26H1.00999V19.47H1.14999V19.26H1.28999V18.99H1.42999V18.63H1.28999ZM0.979993 18.65H1.15999V18.97H0.979993V18.65ZM0.519993 16.75H0.659993V17.07H0.519993V16.75ZM1.47999 16.75H1.61999V17.07H1.47999V16.75ZM0.0399933 14.58H0.289993V14.35H0.399993V14.07H0.559993V13.8H0.769993V14.07H0.929993V14.35H1.06999V14.58H0.859993V14.85H1.22999V14.67H1.45999V14.37H1.65999V14.03H1.51999V13.78H1.39999V13.55H1.28999V13.3H1.12999V13.09H1.00999V12.89H0.849993V12.64H0.619993V12.91H0.459993V13.16H0.339993V13.32H0.0399933V13.73H0.319993V14.09H0.0399933V14.59V14.58Z" fill="white"/>
<path d="M3.09999 20V19.75H3.25999V19.5H3.45999V19.22H3.59999V18.99H3.87999V19.58H3.59999V19.9H3.87999V20.01H3.09999V20ZM2.63999 18.63V18.36H2.77999V18.15H2.91999V18.36H3.05999V18.63H3.19999V18.99H3.05999V19.26H2.91999V19.47H2.77999V19.26H2.63999V18.99H2.49999V18.63H2.63999ZM2.93999 18.65H2.75999V18.97H2.93999V18.65ZM3.39999 16.75H3.25999V17.07H3.39999V16.75ZM2.43999 16.75H2.29999V17.07H2.43999V16.75ZM3.87999 14.58H3.62999V14.35H3.51999V14.07H3.35999V13.8H3.14999V14.07H2.98999V14.35H2.84999V14.58H3.05999V14.85H2.68999V14.67H2.45999V14.37H2.25999V14.03H2.39999V13.78H2.51999V13.55H2.62999V13.3H2.78999V13.09H2.90999V12.89H3.06999V12.64H3.29999V12.91H3.45999V13.16H3.57999V13.32H3.85999V13.73H3.57999V14.09H3.85999V14.59L3.87999 14.58Z" fill="white"/>
<path d="M1.88999 20V19.43H2.02999V20H2.59999V19.75H2.45999V19.5H2.24999V19.22H2.10999V18.99H1.82999V19.22H1.68999V19.5H1.47999V19.75H1.33999V20H1.90999H1.88999ZM1.85999 15.13V15.33H1.74999V15.56H1.62999V15.81H1.48999V16.06H1.34999V16.24H1.18999V16.49H0.979993V16.24H0.819993V16.06H0.699993V15.81H0.559993V15.56H0.449993V15.33H0.339993V15.03H0.0399933V15.81H0.319993V16.17H0.0399933V16.76H0.319993V16.51H0.499993V16.26H0.679993V16.51H0.859993V16.76H0.999993V17.08H0.859993V17.33H0.679993V17.58H0.499993V17.33H0.319993V17.08H0.0399933V17.81H0.319993V18.15H0.0399933V18.65H0.319993V18.42H0.459993V18.14H0.659993V17.91H0.819993V17.64H0.939993V17.43H1.18999V17.64H1.30999V17.91H1.46999V18.14H1.66999V18.42H1.80999V18.65H2.08999V18.42H2.22999V18.14H2.42999V17.91H2.58999V17.64H2.70999V17.43H2.95999V17.64H3.07999V17.91H3.23999V18.14H3.43999V18.42H3.57999V18.65H3.85999V18.15H3.57999V17.81H3.85999V17.08H3.57999V17.33H3.39999V17.58H3.21999V17.33H3.03999V17.08H2.89999V16.76H3.03999V16.51H3.21999V16.26H3.39999V16.51H3.57999V16.76H3.85999V16.17H3.57999V15.81H3.85999V15.03H3.57999V15.33H3.46999V15.56H3.35999V15.81H3.21999V16.06H3.09999V16.24H2.93999V16.49H2.72999V16.24H2.56999V16.06H2.42999V15.81H2.28999V15.56H2.16999V15.33H2.05999V15.13H1.84999H1.85999ZM1.88999 18.1V17.62H2.02999V18.1H1.88999ZM1.81999 17.07V17.32H1.63999V17.57H1.45999V17.32H1.27999V17.07H1.13999V16.75H1.27999V16.5H1.45999V16.25H1.63999V16.5H1.81999V16.75H2.09999V16.5H2.27999V16.25H2.45999V16.5H2.63999V16.75H2.77999V17.07H2.63999V17.32H2.45999V17.57H2.27999V17.32H2.09999V17.07H1.81999ZM1.88999 16.25V15.77H2.02999V16.25H1.88999Z" fill="white"/>
<path d="M0.0399933 11.25H0.319993V11.5H0.439993V11.64H0.579993V11.89H0.699993V12.1H0.579993V12.35H0.439993V12.49H0.319993V12.74H0.0399933V11.25ZM3.87999 11.25V12.74H3.59999V12.49H3.47999V12.35H3.33999V12.1H3.21999V11.89H3.33999V11.64H3.47999V11.5H3.59999V11.25H3.87999ZM1.28999 12.16H1.42999V11.84H1.28999V12.16ZM2.63999 12.16V11.84H2.49999V12.16H2.63999ZM1.88999 11.11H2.02999V10.79H1.88999V11.11ZM1.88999 12.89V13.21H2.02999V12.89H1.88999ZM0.999993 11.56H1.24999V11.36H1.42999V11.18H1.51999V11H1.62999V10.75H1.76999V10.5H1.83999V10.27H2.08999V10.5H2.15999V10.75H2.29999V11H2.40999V11.18H2.49999V11.36H2.67999V11.56H2.92999V12.45H2.67999V12.65H2.49999V12.83H2.40999V13.01H2.29999V13.26H2.15999V13.51H2.08999V13.74H1.83999V13.51H1.76999V13.26H1.62999V13.01H1.51999V12.83H1.42999V12.65H1.24999V12.45H0.999993V11.56ZM1.88999 11.72V11.45H1.74999V11.27H1.60999V11.71H1.74999V11.87H1.83999V12.12H1.74999V12.28H1.60999V12.72H1.74999V12.54H1.88999V12.27H2.02999V12.54H2.16999V12.72H2.30999V12.28H2.16999V12.12H2.07999V11.87H2.16999V11.71H2.30999V11.27H2.16999V11.45H2.02999V11.72H1.88999Z" fill="white"/>
</g>
</svg>
