<svg width="24" height="24" viewBox="0 0 24 24" fill="none" xmlns="http://www.w3.org/2000/svg">
<g clip-path="url(#clip0_169_614)">
<mask id="mask0_169_614" style="mask-type:luminance" maskUnits="userSpaceOnUse" x="0" y="4" width="24" height="16">
<path d="M24 3.99999H0V20H24V3.99999Z" fill="white"/>
</mask>
<g mask="url(#mask0_169_614)">
<path d="M24 3.99999H0V20H24V3.99999Z" fill="#002395"/>
<path d="M5.93 3.99999H21.93V20L5.93 3.99999Z" fill="#FECB00"/>
<mask id="mask1_169_614" style="mask-type:luminance" maskUnits="userSpaceOnUse" x="-3" y="4" width="33" height="16">
<path d="M29.33 3.99999H-2.67V20H29.33V3.99999Z" fill="white"/>
</mask>
<g mask="url(#mask1_169_614)">
<path d="M2.93 4.39999L3.82 5.04999L3.48 3.99999L4.38 3.34999H3.27L2.93 2.29999L2.59 3.34999H1.48L2.38 3.99999L2.04 5.04999L2.93 4.39999Z" fill="white"/>
<path d="M4.93 6.39999L5.82 7.04999L5.48 5.99999L6.38 5.34999H5.27L4.93 4.29999L4.59 5.34999H3.48L4.38 5.99999L4.04 7.04999L4.93 6.39999Z" fill="white"/>
<path d="M6.93 8.39999L7.82 9.04999L7.48 7.99999L8.38 7.34999H7.27L6.93 6.29999L6.59 7.34999H5.48L6.38 7.99999L6.04 9.04999L6.93 8.39999Z" fill="white"/>
<path d="M8.93 10.4L9.82 11.05L9.48 9.99999L10.38 9.34999H9.27L8.93 8.29999L8.59 9.34999H7.48L8.38 9.99999L8.04 11.05L8.93 10.4Z" fill="white"/>
<path d="M10.93 12.4L11.82 13.05L11.48 12L12.38 11.35H11.27L10.93 10.3L10.59 11.35H9.48L10.38 12L10.04 13.05L10.93 12.4Z" fill="white"/>
<path d="M12.93 14.4L13.82 15.05L13.48 14L14.38 13.35H13.27L12.93 12.3L12.59 13.35H11.48L12.38 14L12.04 15.05L12.93 14.4Z" fill="white"/>
<path d="M14.93 16.4L15.82 17.05L15.48 16L16.38 15.35H15.27L14.93 14.3L14.59 15.35H13.48L14.38 16L14.04 17.05L14.93 16.4Z" fill="white"/>
<path d="M16.93 18.4L17.82 19.05L17.48 18L18.38 17.35H17.27L16.93 16.3L16.59 17.35H15.48L16.38 18L16.04 19.05L16.93 18.4Z" fill="white"/>
<path d="M19.48 20L20.38 19.35H19.27L18.93 18.3L18.59 19.35H17.48L18.38 20L18.04 21.05L18.93 20.4L19.82 21.05L19.48 20Z" fill="white"/>
</g>
</g>
</g>
<defs>
<clipPath id="clip0_169_614">
<rect width="24" height="24" fill="white"/>
</clipPath>
</defs>
</svg>
