<svg width="24" height="24" viewBox="0 0 24 24" fill="none" xmlns="http://www.w3.org/2000/svg">
<g clip-path="url(#clip0_104_7957)">
<path d="M24 4H-7.62939e-06V20H24V4Z" fill="#009B3A"/>
<path d="M1.64 12L11.6 18.36L21.56 12L11.6 5.64001L1.64 12Z" fill="#FEDF00"/>
<path d="M11.6 16.2C13.9196 16.2 15.8 14.3196 15.8 12C15.8 9.68039 13.9196 7.79999 11.6 7.79999C9.2804 7.79999 7.4 9.68039 7.4 12C7.4 14.3196 9.2804 16.2 11.6 16.2Z" fill="#002776"/>
<mask id="mask0_104_7957" style="mask-type:luminance" maskUnits="userSpaceOnUse" x="7" y="7" width="9" height="10">
<path d="M11.6 16.2C13.9196 16.2 15.8 14.3196 15.8 12C15.8 9.68039 13.9196 7.79999 11.6 7.79999C9.2804 7.79999 7.4 9.68039 7.4 12C7.4 14.3196 9.2804 16.2 11.6 16.2Z" fill="white"/>
</mask>
<g mask="url(#mask0_104_7957)">
<path d="M-1 20.4C-1 14.77 3.57 10.2 9.2 10.2C14.83 10.2 19.4 14.77 19.4 20.4H18.8C18.8 15.1 14.5 10.8 9.2 10.8C3.9 10.8 -0.4 15.1 -0.4 20.4H-1Z" fill="white"/>
</g>
<path fill-rule="evenodd" clip-rule="evenodd" d="M8.02 10.77C8.12 10.76 8.19 10.66 8.17 10.55C8.15 10.44 8.07 10.36 7.97 10.37C7.87 10.38 7.8 10.48 7.82 10.59C7.84 10.7 7.92 10.78 8.02 10.77ZM8.01 10.7C8.07 10.7 8.11 10.63 8.1 10.56C8.09 10.49 8.04 10.44 7.98 10.45C7.92 10.46 7.88 10.52 7.89 10.59C7.9 10.66 7.95 10.71 8.01 10.7Z" fill="#009B3A"/>
<path fill-rule="evenodd" clip-rule="evenodd" d="M8.34 10.74H8.41L8.4 10.59H8.56C8.63 10.57 8.68 10.51 8.68 10.44C8.68 10.37 8.62 10.32 8.55 10.32L8.32 10.34L8.34 10.74ZM8.4 10.51H8.55C8.55 10.51 8.6 10.47 8.6 10.44C8.6 10.41 8.57 10.39 8.55 10.39H8.4V10.5V10.51Z" fill="#009B3A"/>
<path d="M8.68 10.71C8.68 10.65 8.67 10.53 8.58 10.53H8.47C8.6 10.53 8.6 10.65 8.61 10.71" fill="#009B3A"/>
<path fill-rule="evenodd" clip-rule="evenodd" d="M8.85 10.7H9.04C9.13 10.7 9.21 10.62 9.21 10.52V10.46C9.21 10.37 9.13 10.29 9.03 10.29H8.84V10.69L8.85 10.7ZM8.92 10.63H9.03C9.09 10.63 9.14 10.58 9.14 10.52V10.49C9.14 10.43 9.09 10.38 9.03 10.38H8.92V10.63Z" fill="#009B3A"/>
<path d="M9.36 10.7H9.72V10.64H9.43V10.53H9.66V10.47H9.43V10.38H9.7V10.32H9.36L9.35 10.71L9.36 10.7Z" fill="#009B3A"/>
<path d="M9.87 10.72H9.94L9.96 10.45L10.02 10.73H10.08L10.18 10.47L10.16 10.74H10.23L10.26 10.35H10.16L10.06 10.61L10 10.33H9.9L9.87 10.72Z" fill="#009B3A"/>
<path d="M10.69 10.81L10.99 10.86V10.79L10.77 10.75L10.79 10.66L10.98 10.69V10.62L10.81 10.59V10.53L11.04 10.57V10.5L10.76 10.45L10.7 10.8L10.69 10.81Z" fill="#009B3A"/>
<path fill-rule="evenodd" clip-rule="evenodd" d="M11.45 10.96L11.52 10.98L11.56 10.84L11.71 10.88C11.78 10.9 11.85 10.86 11.86 10.79C11.87 10.72 11.84 10.65 11.77 10.64L11.55 10.58L11.44 10.97L11.45 10.96ZM11.58 10.77L11.73 10.81C11.73 10.81 11.79 10.81 11.79 10.77C11.79 10.73 11.79 10.71 11.75 10.71L11.6 10.67L11.57 10.77H11.58Z" fill="#009B3A"/>
<path fill-rule="evenodd" clip-rule="evenodd" d="M11.95 11.09L12.02 11.11L12.06 10.97L12.21 11.02C12.28 11.04 12.35 11 12.37 10.94C12.39 10.88 12.35 10.8 12.29 10.78L12.07 10.71L11.94 11.09H11.95ZM12.08 10.9L12.23 10.95C12.23 10.95 12.29 10.95 12.29 10.92C12.29 10.89 12.29 10.86 12.26 10.86L12.11 10.81L12.08 10.91V10.9Z" fill="#009B3A"/>
<path d="M12.27 11.2C12.29 11.15 12.32 11.03 12.24 11L12.14 10.97C12.26 11.01 12.22 11.13 12.2 11.18" fill="#009B3A"/>
<path fill-rule="evenodd" clip-rule="evenodd" d="M12.6 11.31C12.69 11.34 12.8 11.29 12.84 11.19C12.88 11.09 12.84 10.97 12.74 10.94C12.64 10.91 12.54 10.96 12.5 11.06C12.46 11.16 12.5 11.28 12.6 11.31ZM12.62 11.24C12.67 11.26 12.74 11.22 12.76 11.16C12.78 11.1 12.76 11.03 12.71 11.01C12.66 10.99 12.59 11.03 12.57 11.09C12.55 11.15 12.57 11.22 12.62 11.24Z" fill="#009B3A"/>
<mask id="mask1_104_7957" style="mask-type:luminance" maskUnits="userSpaceOnUse" x="12" y="11" width="2" height="1">
<path d="M12.9 11.43L13.06 11.06L13.39 11.2L13.23 11.57L12.9 11.43ZM13.17 11.26L13.14 11.32L13.31 11.39L13.34 11.33L13.17 11.26Z" fill="white"/>
</mask>
<g mask="url(#mask1_104_7957)">
<path fill-rule="evenodd" clip-rule="evenodd" d="M13.07 11.5C13.16 11.54 13.27 11.49 13.31 11.39C13.35 11.29 13.31 11.17 13.22 11.13C13.13 11.09 13.02 11.14 12.98 11.24C12.94 11.34 12.98 11.46 13.07 11.5ZM13.1 11.44C13.15 11.46 13.22 11.44 13.25 11.37C13.28 11.3 13.25 11.24 13.2 11.21C13.15 11.18 13.08 11.21 13.05 11.28C13.02 11.35 13.05 11.41 13.1 11.44Z" fill="#009B3A"/>
</g>
<path d="M13.1699 11.3276L13.1459 11.3826L13.2835 11.4424L13.3074 11.3874L13.1699 11.3276Z" fill="#009B3A"/>
<path d="M13.255 11.3669L13.1752 11.5503L13.2302 11.5742L13.31 11.3908L13.255 11.3669Z" fill="#009B3A"/>
<path fill-rule="evenodd" clip-rule="evenodd" d="M13.37 11.64L13.44 11.67L13.51 11.54L13.65 11.61C13.71 11.64 13.79 11.61 13.82 11.55C13.85 11.49 13.82 11.41 13.76 11.38L13.56 11.28L13.38 11.64H13.37ZM13.53 11.47L13.67 11.54C13.67 11.54 13.73 11.54 13.74 11.52C13.75 11.5 13.74 11.46 13.72 11.45L13.58 11.38L13.53 11.47Z" fill="#009B3A"/>
<path d="M13.67 11.79C13.7 11.74 13.75 11.63 13.67 11.59L13.57 11.54C13.68 11.6 13.63 11.71 13.6 11.76" fill="#009B3A"/>
<path d="M13.82 11.87L14.13 12.05L14.17 11.99L13.92 11.85L13.97 11.76L14.17 11.87L14.2 11.81L14 11.7L14.04 11.63L14.28 11.77L14.32 11.71L14.02 11.54L13.82 11.89V11.87Z" fill="#009B3A"/>
<path d="M14.4 12.06C14.4 12.06 14.4 12.13 14.45 12.16C14.5 12.19 14.53 12.19 14.54 12.16C14.58 12.09 14.33 11.99 14.41 11.87C14.48 11.77 14.59 11.85 14.64 11.87C14.69 11.89 14.75 11.97 14.7 12.05L14.63 12C14.63 12 14.63 11.93 14.59 11.9C14.55 11.87 14.52 11.87 14.5 11.9C14.46 11.96 14.71 12.06 14.63 12.18C14.57 12.27 14.48 12.23 14.41 12.18C14.35 12.14 14.27 12.06 14.33 11.98L14.41 12.03L14.4 12.06Z" fill="#009B3A"/>
<path d="M14.83 12.35C14.83 12.35 14.83 12.42 14.87 12.45C14.91 12.48 14.95 12.48 14.96 12.46C15.01 12.39 14.76 12.28 14.84 12.16C14.91 12.06 15.02 12.15 15.07 12.18C15.12 12.21 15.18 12.28 15.12 12.36L15.05 12.31C15.05 12.31 15.05 12.24 15.01 12.21C14.97 12.18 14.94 12.17 14.92 12.21C14.88 12.26 15.12 12.38 15.04 12.5C14.98 12.58 14.88 12.54 14.82 12.5C14.77 12.46 14.69 12.37 14.75 12.29L14.82 12.34L14.83 12.35Z" fill="#009B3A"/>
<path fill-rule="evenodd" clip-rule="evenodd" d="M15.24 12.81C15.32 12.87 15.44 12.85 15.51 12.77C15.58 12.69 15.57 12.56 15.49 12.5C15.41 12.44 15.29 12.46 15.22 12.54C15.15 12.62 15.16 12.75 15.24 12.81ZM15.28 12.75C15.28 12.75 15.4 12.77 15.44 12.72C15.48 12.67 15.48 12.59 15.44 12.56C15.4 12.53 15.32 12.54 15.28 12.59C15.24 12.64 15.24 12.72 15.28 12.75Z" fill="#009B3A"/>
<path d="M8.17 11.07L8.11 11.24L8.2 11.27" fill="white"/>
<path d="M8.17 11.07L8.23 11.24L8.14 11.27" fill="white"/>
<path d="M8.34 11.19H8.16V11.28" fill="white"/>
<path d="M8.34 11.19L8.19 11.3L8.14 11.23" fill="white"/>
<path d="M8 11.19L8.15 11.3L8.2 11.23" fill="white"/>
<path d="M8 11.19H8.18V11.28" fill="white"/>
<path d="M8.28 11.39L8.22 11.22L8.13 11.25" fill="white"/>
<path d="M8.28 11.39L8.13 11.28L8.18 11.21" fill="white"/>
<path d="M8.07 11.39L8.22 11.28L8.17 11.21" fill="white"/>
<path d="M8.07 11.39L8.13 11.22L8.22 11.25" fill="white"/>
<path d="M8.54 12.83L8.48 13L8.57 13.03" fill="white"/>
<path d="M8.54 12.83L8.6 13L8.51 13.03" fill="white"/>
<path d="M8.71 12.96H8.53V13.05" fill="white"/>
<path d="M8.71 12.96L8.56 13.07L8.51 13" fill="white"/>
<path d="M8.37 12.96L8.52 13.07L8.57 13" fill="white"/>
<path d="M8.37 12.96H8.55V13.05" fill="white"/>
<path d="M8.65 13.16L8.59 12.99L8.5 13.02" fill="white"/>
<path d="M8.65 13.16L8.5 13.05L8.55 12.98" fill="white"/>
<path d="M8.44 13.16L8.59 13.05L8.54 12.98" fill="white"/>
<path d="M8.44 13.16L8.5 12.99L8.59 13.02" fill="white"/>
<path d="M8.03 13.24L7.98 13.38L8.05 13.4" fill="white"/>
<path d="M8.03 13.24L8.08 13.38L8.01 13.4" fill="white"/>
<path d="M8.17 13.34H8.02V13.42" fill="white"/>
<path d="M8.17 13.34L8.05 13.43L8.01 13.37" fill="white"/>
<path d="M7.89 13.34L8.01 13.43L8.05 13.37" fill="white"/>
<path d="M7.89 13.34H8.04V13.42" fill="white"/>
<path d="M8.12 13.51L8.07 13.37L8 13.39" fill="white"/>
<path d="M8.12 13.51L8 13.42L8.04 13.36" fill="white"/>
<path d="M7.94 13.51L8.06 13.42L8.02 13.36" fill="white"/>
<path d="M7.94 13.51L7.99 13.37L8.06 13.39" fill="white"/>
<path d="M8.95 12.67L8.92 12.75H8.96" fill="white"/>
<path d="M8.95 12.67L8.98 12.75H8.94" fill="white"/>
<path d="M9.04 12.73H8.95V12.77" fill="white"/>
<path d="M9.04 12.73L8.97 12.78L8.94 12.75" fill="white"/>
<path d="M8.87 12.73L8.94 12.78L8.97 12.75" fill="white"/>
<path d="M8.87 12.73H8.96V12.77" fill="white"/>
<path d="M9 12.82L8.97 12.74H8.93" fill="white"/>
<path d="M9 12.82L8.93 12.77L8.96 12.74" fill="white"/>
<path d="M8.9 12.82L8.97 12.77L8.94 12.74" fill="white"/>
<path d="M8.9 12.82L8.93 12.74H8.97" fill="white"/>
<path d="M9.42 13.28L9.37 13.42L9.43999 13.44" fill="white"/>
<path d="M9.41999 13.28L9.46999 13.42L9.39999 13.44" fill="white"/>
<path d="M9.56 13.38H9.41V13.46" fill="white"/>
<path d="M9.55999 13.38L9.43999 13.47L9.39999 13.41" fill="white"/>
<path d="M9.27 13.38L9.39 13.47L9.43 13.41" fill="white"/>
<path d="M9.27 13.38H9.42V13.46" fill="white"/>
<path d="M9.51 13.55L9.46 13.41L9.39 13.43" fill="white"/>
<path d="M9.51 13.55L9.39 13.46L9.43 13.4" fill="white"/>
<path d="M9.32999 13.55L9.44999 13.46L9.40999 13.4" fill="white"/>
<path d="M9.32999 13.55L9.37999 13.41L9.44999 13.43" fill="white"/>
<path d="M9.29 13.73L9.25 13.84L9.31 13.86" fill="white"/>
<path d="M9.29 13.73L9.33 13.84L9.27 13.86" fill="white"/>
<path d="M9.41 13.81H9.29V13.87" fill="white"/>
<path d="M9.41 13.81L9.31 13.88L9.27 13.83" fill="white"/>
<path d="M9.18 13.81L9.28 13.88L9.32 13.83" fill="white"/>
<path d="M9.18 13.81H9.3V13.87" fill="white"/>
<path d="M9.36 13.94L9.32 13.83L9.26 13.85" fill="white"/>
<path d="M9.36 13.94L9.26 13.87L9.3 13.82" fill="white"/>
<path d="M9.22 13.94L9.32 13.87L9.28 13.82" fill="white"/>
<path d="M9.22 13.94L9.26 13.83L9.32 13.85" fill="white"/>
<path d="M12.9 10.52L12.84 10.69L12.93 10.72" fill="white"/>
<path d="M12.9 10.52L12.96 10.69L12.87 10.72" fill="white"/>
<path d="M13.07 10.64H12.89V10.73" fill="white"/>
<path d="M13.07 10.64L12.92 10.75L12.87 10.68" fill="white"/>
<path d="M12.73 10.64L12.88 10.75L12.93 10.68" fill="white"/>
<path d="M12.73 10.64H12.91V10.73" fill="white"/>
<path d="M13.01 10.84L12.95 10.67L12.86 10.7" fill="white"/>
<path d="M13.01 10.84L12.86 10.73L12.91 10.66" fill="white"/>
<path d="M12.8 10.84L12.95 10.73L12.9 10.66" fill="white"/>
<path d="M12.8 10.84L12.86 10.67L12.95 10.7" fill="white"/>
<path d="M14.54 13.29L14.48 13.46L14.57 13.49" fill="white"/>
<path d="M14.54 13.29L14.6 13.46L14.51 13.49" fill="white"/>
<path d="M14.71 13.42H14.53V13.51" fill="white"/>
<path d="M14.71 13.42L14.56 13.53L14.51 13.46" fill="white"/>
<path d="M14.37 13.42L14.52 13.53L14.57 13.46" fill="white"/>
<path d="M14.37 13.42H14.55V13.51" fill="white"/>
<path d="M14.65 13.62L14.59 13.45L14.5 13.48" fill="white"/>
<path d="M14.65 13.62L14.5 13.51L14.55 13.44" fill="white"/>
<path d="M14.44 13.62L14.59 13.51L14.54 13.44" fill="white"/>
<path d="M14.44 13.62L14.5 13.45L14.59 13.48" fill="white"/>
<path d="M15.13 13.39L15.09 13.5L15.15 13.52" fill="white"/>
<path d="M15.13 13.39L15.17 13.5L15.11 13.52" fill="white"/>
<path d="M15.24 13.48H15.12V13.54" fill="white"/>
<path d="M15.24 13.48L15.14 13.55L15.1 13.5" fill="white"/>
<path d="M15.01 13.48L15.11 13.55L15.15 13.5" fill="white"/>
<path d="M15.01 13.48H15.13V13.54" fill="white"/>
<path d="M15.2 13.61L15.16 13.5L15.1 13.52" fill="white"/>
<path d="M15.2 13.61L15.1 13.54L15.14 13.49" fill="white"/>
<path d="M15.06 13.61L15.16 13.54L15.12 13.49" fill="white"/>
<path d="M15.06 13.61L15.1 13.5L15.16 13.52" fill="white"/>
<path d="M14.71 13.7L14.66 13.84L14.73 13.86" fill="white"/>
<path d="M14.71 13.7L14.76 13.84L14.69 13.86" fill="white"/>
<path d="M14.86 13.8H14.71V13.88" fill="white"/>
<path d="M14.86 13.8L14.74 13.89L14.7 13.83" fill="white"/>
<path d="M14.57 13.8L14.69 13.89L14.73 13.83" fill="white"/>
<path d="M14.57 13.8H14.72V13.88" fill="white"/>
<path d="M14.8 13.97L14.75 13.83L14.68 13.85" fill="white"/>
<path d="M14.8 13.97L14.68 13.88L14.72 13.82" fill="white"/>
<path d="M14.63 13.97L14.75 13.88L14.71 13.82" fill="white"/>
<path d="M14.63 13.97L14.68 13.83L14.75 13.85" fill="white"/>
<path d="M13.7 14.58L13.65 14.72L13.72 14.74" fill="white"/>
<path d="M13.7 14.58L13.75 14.72L13.68 14.74" fill="white"/>
<path d="M13.85 14.68H13.7V14.76" fill="white"/>
<path d="M13.85 14.68L13.73 14.77L13.69 14.71" fill="white"/>
<path d="M13.56 14.68L13.68 14.77L13.72 14.71" fill="white"/>
<path d="M13.56 14.68H13.71V14.76" fill="white"/>
<path d="M13.79 14.85L13.74 14.71L13.67 14.73" fill="white"/>
<path d="M13.79 14.85L13.67 14.76L13.71 14.7" fill="white"/>
<path d="M13.61 14.85L13.73 14.76L13.69 14.7" fill="white"/>
<path d="M13.61 14.85L13.66 14.71L13.73 14.73" fill="white"/>
<path d="M13.7 15.03L13.66 15.14L13.72 15.16" fill="white"/>
<path d="M13.7 15.03L13.74 15.14L13.68 15.16" fill="white"/>
<path d="M13.81 15.11H13.69V15.17" fill="white"/>
<path d="M13.81 15.11L13.71 15.18L13.67 15.13" fill="white"/>
<path d="M13.58 15.11L13.68 15.18L13.72 15.13" fill="white"/>
<path d="M13.58 15.11H13.7V15.17" fill="white"/>
<path d="M13.77 15.25L13.73 15.14L13.67 15.16" fill="white"/>
<path d="M13.77 15.25L13.67 15.18L13.71 15.13" fill="white"/>
<path d="M13.63 15.25L13.73 15.18L13.69 15.13" fill="white"/>
<path d="M13.63 15.25L13.67 15.14L13.73 15.16" fill="white"/>
<path d="M14.12 14.27L14.08 14.38L14.14 14.4" fill="white"/>
<path d="M14.12 14.27L14.16 14.38L14.1 14.4" fill="white"/>
<path d="M14.23 14.36H14.11V14.42" fill="white"/>
<path d="M14.23 14.36L14.13 14.43L14.09 14.38" fill="white"/>
<path d="M14.01 14.36L14.11 14.43L14.15 14.38" fill="white"/>
<path d="M14.01 14.36H14.13V14.42" fill="white"/>
<path d="M14.19 14.49L14.15 14.38L14.09 14.4" fill="white"/>
<path d="M14.19 14.49L14.09 14.42L14.13 14.37" fill="white"/>
<path d="M14.05 14.49L14.15 14.42L14.11 14.37" fill="white"/>
<path d="M14.05 14.49L14.09 14.38L14.15 14.4" fill="white"/>
<path d="M14.46 14.03L14.41 14.17L14.48 14.19" fill="white"/>
<path d="M14.46 14.03L14.51 14.17L14.44 14.19" fill="white"/>
<path d="M14.6 14.14H14.45V14.22" fill="white"/>
<path d="M14.6 14.14L14.48 14.23L14.44 14.17" fill="white"/>
<path d="M14.31 14.14L14.43 14.23L14.47 14.17" fill="white"/>
<path d="M14.31 14.14H14.46V14.22" fill="white"/>
<path d="M14.55 14.3L14.5 14.16L14.43 14.18" fill="white"/>
<path d="M14.55 14.3L14.43 14.21L14.47 14.15" fill="white"/>
<path d="M14.37 14.3L14.49 14.21L14.45 14.15" fill="white"/>
<path d="M14.37 14.3L14.42 14.16L14.49 14.18" fill="white"/>
<path d="M13.69 14.19L13.65 14.3L13.71 14.32" fill="white"/>
<path d="M13.69 14.19L13.73 14.3L13.67 14.32" fill="white"/>
<path d="M13.8 14.28H13.68V14.34" fill="white"/>
<path d="M13.8 14.28L13.7 14.35L13.66 14.3" fill="white"/>
<path d="M13.57 14.28L13.67 14.35L13.71 14.3" fill="white"/>
<path d="M13.57 14.28H13.69V14.34" fill="white"/>
<path d="M13.76 14.41L13.72 14.3L13.66 14.32" fill="white"/>
<path d="M13.76 14.41L13.66 14.34L13.7 14.29" fill="white"/>
<path d="M13.62 14.41L13.72 14.34L13.68 14.29" fill="white"/>
<path d="M13.62 14.41L13.66 14.3L13.72 14.32" fill="white"/>
<path d="M10 12.02L9.95 12.16L10.02 12.18" fill="white"/>
<path d="M10 12.02L10.05 12.16L9.98 12.18" fill="white"/>
<path d="M10.14 12.13H9.99V12.21" fill="white"/>
<path d="M10.14 12.13L10.02 12.22L9.98 12.16" fill="white"/>
<path d="M9.86 12.13L9.98 12.22L10.02 12.16" fill="white"/>
<path d="M9.86 12.13H10.01V12.21" fill="white"/>
<path d="M10.09 12.29L10.04 12.15L9.97 12.17" fill="white"/>
<path d="M10.09 12.29L9.97 12.2L10.01 12.14" fill="white"/>
<path d="M9.91 12.29L10.03 12.2L9.99 12.14" fill="white"/>
<path d="M9.91 12.29L9.96 12.15L10.03 12.17" fill="white"/>
<path d="M12.74 11.67L12.7 11.78L12.76 11.8" fill="white"/>
<path d="M12.74 11.67L12.78 11.78L12.72 11.8" fill="white"/>
<path d="M12.86 11.75H12.74V11.81" fill="white"/>
<path d="M12.86 11.75L12.76 11.82L12.72 11.77" fill="white"/>
<path d="M12.63 11.75L12.73 11.82L12.77 11.77" fill="white"/>
<path d="M12.63 11.75H12.75V11.81" fill="white"/>
<path d="M12.81 11.89L12.77 11.78L12.71 11.8" fill="white"/>
<path d="M12.81 11.89L12.71 11.82L12.75 11.77" fill="white"/>
<path d="M12.67 11.89L12.77 11.82L12.73 11.77" fill="white"/>
<path d="M12.67 11.89L12.71 11.78L12.77 11.8" fill="white"/>
<path d="M11.6 13.71L11.54 13.88L11.63 13.91" fill="white"/>
<path d="M11.6 13.71L11.66 13.88L11.57 13.91" fill="white"/>
<path d="M11.77 13.83H11.59V13.92" fill="white"/>
<path d="M11.77 13.83L11.62 13.94L11.57 13.87" fill="white"/>
<path d="M11.43 13.83L11.58 13.94L11.63 13.87" fill="white"/>
<path d="M11.43 13.83H11.61V13.92" fill="white"/>
<path d="M11.71 14.03L11.65 13.86L11.56 13.89" fill="white"/>
<path d="M11.71 14.03L11.56 13.92L11.61 13.85" fill="white"/>
<path d="M11.49 14.03L11.64 13.92L11.59 13.85" fill="white"/>
<path d="M11.49 14.03L11.55 13.86L11.64 13.89" fill="white"/>
<path d="M12.09 12.9L12.04 13.04L12.11 13.06" fill="white"/>
<path d="M12.09 12.9L12.14 13.04L12.07 13.06" fill="white"/>
<path d="M12.23 13.01H12.08V13.09" fill="white"/>
<path d="M12.23 13.01L12.11 13.1L12.07 13.04" fill="white"/>
<path d="M11.94 13.01L12.06 13.1L12.1 13.04" fill="white"/>
<path d="M11.94 13.01H12.09V13.09" fill="white"/>
<path d="M12.17 13.17L12.12 13.03L12.05 13.05" fill="white"/>
<path d="M12.17 13.17L12.05 13.08L12.09 13.02" fill="white"/>
<path d="M12 13.17L12.12 13.08L12.08 13.02" fill="white"/>
<path d="M12 13.17L12.05 13.03L12.12 13.05" fill="white"/>
<path d="M11.6 12.52L11.55 12.66L11.62 12.68" fill="white"/>
<path d="M11.6 12.52L11.65 12.66L11.58 12.68" fill="white"/>
<path d="M11.74 12.63H11.59V12.71" fill="white"/>
<path d="M11.74 12.63L11.62 12.72L11.58 12.66" fill="white"/>
<path d="M11.46 12.63L11.58 12.72L11.62 12.66" fill="white"/>
<path d="M11.46 12.63H11.61V12.71" fill="white"/>
<path d="M11.69 12.8L11.64 12.66L11.57 12.68" fill="white"/>
<path d="M11.69 12.8L11.57 12.71L11.61 12.65" fill="white"/>
<path d="M11.51 12.8L11.63 12.71L11.59 12.65" fill="white"/>
<path d="M11.51 12.8L11.56 12.66L11.63 12.68" fill="white"/>
<path d="M11.18 12.93L11.14 13.04L11.2 13.06" fill="white"/>
<path d="M11.18 12.93L11.22 13.04L11.16 13.06" fill="white"/>
<path d="M11.29 13.01H11.17V13.07" fill="white"/>
<path d="M11.29 13.01L11.19 13.08L11.15 13.03" fill="white"/>
<path d="M11.06 13.01L11.16 13.08L11.2 13.03" fill="white"/>
<path d="M11.06 13.01H11.18V13.07" fill="white"/>
<path d="M11.25 13.15L11.21 13.04L11.15 13.06" fill="white"/>
<path d="M11.25 13.15L11.15 13.08L11.19 13.03" fill="white"/>
<path d="M11.11 13.15L11.21 13.08L11.17 13.03" fill="white"/>
<path d="M11.11 13.15L11.15 13.04L11.21 13.06" fill="white"/>
<path d="M11.39 13.26L11.36 13.34H11.4" fill="white"/>
<path d="M11.39 13.26L11.42 13.34H11.38" fill="white"/>
<path d="M11.47 13.32H11.38V13.36" fill="white"/>
<path d="M11.47 13.32L11.4 13.37L11.37 13.34" fill="white"/>
<path d="M11.31 13.32L11.38 13.37L11.41 13.34" fill="white"/>
<path d="M11.31 13.32H11.4V13.36" fill="white"/>
<path d="M11.44 13.41L11.41 13.33H11.37" fill="white"/>
<path d="M11.44 13.41L11.37 13.36L11.4 13.33" fill="white"/>
<path d="M11.34 13.41L11.41 13.36L11.38 13.33" fill="white"/>
<path d="M11.34 13.41L11.37 13.33H11.41" fill="white"/>
<path d="M12.86 14.68L12.81 14.82L12.88 14.84" fill="white"/>
<path d="M12.86 14.68L12.91 14.82L12.84 14.84" fill="white"/>
<path d="M13 14.78H12.85V14.86" fill="white"/>
<path d="M13 14.78L12.88 14.87L12.84 14.81" fill="white"/>
<path d="M12.71 14.78L12.83 14.87L12.87 14.81" fill="white"/>
<path d="M12.71 14.78H12.86V14.86" fill="white"/>
<path d="M12.95 14.95L12.9 14.81L12.83 14.83" fill="white"/>
<path d="M12.95 14.95L12.83 14.86L12.87 14.8" fill="white"/>
<path d="M12.77 14.95L12.89 14.86L12.85 14.8" fill="white"/>
<path d="M12.77 14.95L12.82 14.81L12.89 14.83" fill="white"/>
<path d="M13.22 14.34L13.18 14.45L13.24 14.47" fill="white"/>
<path d="M13.22 14.34L13.26 14.45L13.2 14.47" fill="white"/>
<path d="M13.33 14.42H13.21V14.48" fill="white"/>
<path d="M13.33 14.42L13.23 14.49L13.19 14.44" fill="white"/>
<path d="M13.1 14.42L13.2 14.49L13.24 14.44" fill="white"/>
<path d="M13.1 14.42H13.22V14.48" fill="white"/>
<path d="M13.29 14.55L13.25 14.44L13.19 14.46" fill="white"/>
<path d="M13.29 14.55L13.19 14.48L13.23 14.43" fill="white"/>
<path d="M13.15 14.55L13.25 14.48L13.21 14.43" fill="white"/>
<path d="M13.15 14.55L13.19 14.44L13.25 14.46" fill="white"/>
<path d="M12.53 14.23L12.49 14.34L12.55 14.36" fill="white"/>
<path d="M12.53 14.23L12.57 14.34L12.51 14.36" fill="white"/>
<path d="M12.64 14.32H12.52V14.38" fill="white"/>
<path d="M12.64 14.32L12.54 14.39L12.5 14.34" fill="white"/>
<path d="M12.41 14.32L12.51 14.39L12.55 14.34" fill="white"/>
<path d="M12.41 14.32H12.53V14.38" fill="white"/>
<path d="M12.6 14.45L12.56 14.34L12.5 14.36" fill="white"/>
<path d="M12.6 14.45L12.5 14.38L12.54 14.33" fill="white"/>
<path d="M12.46 14.45L12.56 14.38L12.52 14.33" fill="white"/>
<path d="M12.46 14.45L12.5 14.34L12.56 14.36" fill="white"/>
<path d="M9.91 14.05L9.85 14.22L9.94 14.25" fill="white"/>
<path d="M9.91 14.05L9.97 14.22L9.88 14.25" fill="white"/>
<path d="M10.09 14.17H9.91V14.26" fill="white"/>
<path d="M10.09 14.17L9.94 14.28L9.89 14.21" fill="white"/>
<path d="M9.74 14.17L9.89 14.28L9.94 14.21" fill="white"/>
<path d="M9.74 14.17H9.92V14.26" fill="white"/>
<path d="M10.02 14.37L9.96 14.2L9.87 14.23" fill="white"/>
<path d="M10.02 14.37L9.87 14.26L9.92 14.19" fill="white"/>
<path d="M9.81 14.37L9.96 14.26L9.91 14.19" fill="white"/>
<path d="M9.81 14.37L9.87 14.2L9.96 14.23" fill="white"/>
<path d="M11.6 15.23L11.58 15.29H11.61" fill="white"/>
<path d="M11.6 15.23L11.62 15.29H11.59" fill="white"/>
<path d="M11.66 15.27H11.6V15.3" fill="white"/>
<path d="M11.66 15.27L11.61 15.31L11.59 15.29" fill="white"/>
<path d="M11.54 15.27L11.59 15.31L11.61 15.29" fill="white"/>
<path d="M11.54 15.27H11.6V15.3" fill="white"/>
<path d="M11.64 15.33L11.62 15.27H11.59" fill="white"/>
<path d="M11.64 15.33L11.59 15.29L11.61 15.27" fill="white"/>
<path d="M11.56 15.33L11.61 15.29L11.59 15.27" fill="white"/>
<path d="M11.56 15.33L11.58 15.27H11.61" fill="white"/>
</g>
<defs>
<clipPath id="clip0_104_7957">
<rect width="24" height="24" fill="white"/>
</clipPath>
</defs>
</svg>
