<svg width="24" height="24" viewBox="0 0 24 24" fill="none" xmlns="http://www.w3.org/2000/svg">
<path d="M0 4H24V20H0V4Z" fill="#F7E017"/>
<path d="M0 5.11V12.22L24 15.55V11.77L0 5.11Z" fill="white"/>
<path d="M0 8.89V12.22L24 18.89V15.56L0 8.89Z" fill="black"/>
<path d="M11.45 16.79C11.01 16.73 10.6 16.59 10.32 16.4C10.27 16.36 10.21 16.33 10.21 16.33C10.21 16.33 10.2 16.37 10.2 16.42C10.2 16.57 10.14 16.64 9.99 16.68C9.85 16.72 9.63 16.64 9.46 16.5C9.28 16.35 9.07 16.24 8.9 16.19C8.75 16.15 8.56 16.16 8.42 16.2C8.36 16.22 8.28 16.25 8.26 16.27C8.23 16.29 8.21 16.3 8.2 16.3C8.18 16.3 8.18 16.14 8.2 16.09C8.23 16.02 8.32 15.96 8.42 15.92C8.47 15.9 8.51 15.88 8.51 15.87C8.51 15.86 8.49 15.82 8.47 15.79C8.4 15.67 8.43 15.56 8.55 15.47C8.67 15.38 8.87 15.36 9.05 15.43C9.09 15.45 9.14 15.46 9.14 15.46C9.16 15.46 9.14 15.43 9.08 15.33C9.01 15.22 8.99 15.17 9 15.04C9.01 14.88 9.14 14.74 9.31 14.73C9.44 14.73 9.53 14.77 9.72 14.95C10.31 15.51 10.94 15.82 11.69 15.9C11.88 15.92 12.26 15.9 12.48 15.88C13.15 15.78 13.82 15.44 14.35 14.95C14.5 14.81 14.57 14.78 14.69 14.78C14.79 14.78 14.87 14.81 14.94 14.9C15.01 14.98 15.03 15.05 15.02 15.16C15.02 15.23 15 15.27 14.96 15.34C14.9 15.44 14.91 15.45 15.03 15.41C15.2 15.34 15.41 15.37 15.53 15.48C15.63 15.58 15.64 15.67 15.56 15.8C15.53 15.85 15.51 15.89 15.51 15.9C15.51 15.91 15.53 15.92 15.64 15.94C15.78 15.96 15.86 16.06 15.86 16.22C15.86 16.27 15.86 16.3 15.85 16.3C15.84 16.3 15.79 16.28 15.73 16.26C15.57 16.19 15.48 16.18 15.29 16.18C15.15 16.18 15.1 16.18 15 16.22C14.85 16.27 14.69 16.37 14.55 16.48C14.4 16.61 14.31 16.65 14.17 16.65C14.04 16.65 13.95 16.61 13.9 16.54C13.87 16.5 13.87 16.48 13.88 16.38C13.88 16.32 13.88 16.27 13.88 16.27C13.88 16.27 13.82 16.3 13.77 16.34C13.62 16.44 13.52 16.5 13.35 16.56C12.82 16.77 12.06 16.86 11.47 16.78L11.45 16.79ZM11.69 15.77C10.81 15.69 9.96 15.23 9.45 14.5C8.89 13.74 8.72 12.74 8.89 11.82C8.98 11.4 9.16 10.98 9.47 10.69C9.22 11.22 9.14 11.82 9.27 12.39C9.48 13.53 10.44 14.49 11.59 14.66C12.04 14.79 12.52 14.66 12.95 14.51C13.91 14.17 14.64 13.26 14.73 12.25C14.81 11.7 14.73 11.13 14.47 10.63C14.61 10.7 14.79 11 14.89 11.19C15.26 11.9 15.27 12.75 15.06 13.5C14.77 14.46 14.03 15.3 13.06 15.61C12.62 15.75 12.15 15.8 11.69 15.77Z" fill="#CF1126"/>
<path d="M7.25001 14.51C7.19001 14.51 7.13001 14.56 7.15001 14.62C7.19001 14.68 7.26001 14.71 7.33001 14.74C7.49001 14.8 7.65001 14.83 7.82001 14.82C7.76001 14.82 7.84001 14.82 7.86001 14.82C7.99001 14.82 8.12001 14.8 8.25001 14.75C8.32001 14.73 8.41001 14.7 8.44001 14.63C8.47001 14.58 8.42001 14.53 8.37001 14.54C8.30001 14.56 8.23001 14.59 8.16001 14.61C8.01001 14.65 7.85001 14.67 7.70001 14.66C7.59001 14.65 7.48001 14.61 7.37001 14.57C7.33001 14.55 7.30001 14.53 7.26001 14.53L7.25001 14.51Z" fill="#CF1126"/>
<path d="M7.31 14.27C7.25 14.27 7.2 14.33 7.23 14.38C7.27 14.45 7.35 14.48 7.42 14.51C7.54 14.56 7.68 14.58 7.81 14.58C7.76 14.58 7.83 14.58 7.85 14.58C7.96 14.58 8.07 14.56 8.18 14.52C8.24 14.5 8.32 14.47 8.35 14.4C8.37 14.36 8.35 14.31 8.31 14.3C8.27 14.3 8.23 14.33 8.19 14.34C8.04 14.4 7.88 14.43 7.72 14.41C7.62 14.4 7.53 14.36 7.44 14.32C7.41 14.3 7.38 14.28 7.34 14.27H7.31ZM7.39 14.05C7.34 14.05 7.31 14.1 7.31 14.15C7.31 14.19 7.35 14.22 7.38 14.24C7.5 14.33 7.66 14.37 7.81 14.36C7.75 14.36 7.89 14.36 7.85 14.36C7.94 14.36 8.04 14.34 8.12 14.3C8.18 14.28 8.24 14.25 8.26 14.18C8.26 14.15 8.27 14.11 8.24 14.09C8.2 14.07 8.17 14.1 8.14 14.11C8.03 14.17 7.91 14.2 7.79 14.2C7.68 14.2 7.58 14.16 7.49 14.11C7.46 14.09 7.43 14.06 7.39 14.06V14.05ZM6.55 10.69C6.48 10.76 6.53 10.9 6.53 11C6.57 11.3 6.62 11.61 6.73 11.89C6.87 12.17 7.16 12.31 7.34 12.56C7.4 12.68 7.38 12.82 7.39 12.95C7.4 13.3 7.39 13.65 7.39 14C7.55 14.08 7.72 14.16 7.9 14.13C8.01 14.1 8.21 14.09 8.23 13.98L8.21 12.16C8.15 11.97 7.96 11.88 7.82 11.76C7.7 11.65 7.6 11.52 7.5 11.39C7.44 11.29 7.21 11.25 7.29 11.43C7.34 11.58 7.47 11.7 7.5 11.86C7.5 11.95 7.61 12.11 7.52 12.16C7.46 12.06 7.38 11.98 7.28 11.93C7.18 11.85 7.01 11.82 6.97 11.69C6.94 11.5 6.85 11.33 6.72 11.19C6.75 11.02 6.72 10.81 6.57 10.7H6.55V10.69ZM6.78 10.72C6.71 10.73 6.71 10.82 6.75 10.86C6.78 10.96 6.79 11.06 6.77 11.17C6.89 11.31 6.98 11.48 7.01 11.66C7.01 11.73 7.08 11.75 7.13 11.79C7.24 11.86 7.37 11.91 7.47 12C7.49 12.02 7.51 12.05 7.49 12C7.47 11.94 7.47 11.88 7.42 11.83C7.36 11.76 7.28 11.7 7.19 11.68C7.19 11.59 7.14 11.5 7.1 11.42C7.05 11.34 7.01 11.26 6.93 11.2C6.93 11.06 6.93 10.91 6.87 10.79C6.85 10.76 6.83 10.72 6.78 10.72ZM6.97 10.78C6.97 10.78 6.93 10.85 6.95 10.89C6.97 10.99 6.98 11.09 6.97 11.19C7.06 11.26 7.11 11.36 7.16 11.45C7.19 11.51 7.22 11.58 7.23 11.65C7.3 11.67 7.36 11.72 7.42 11.77C7.4 11.7 7.35 11.65 7.32 11.59C7.28 11.53 7.25 11.46 7.24 11.39C7.17 11.32 7.14 11.22 7.15 11.12C7.15 11.01 7.12 10.9 7.04 10.82C7.02 10.8 7 10.78 6.97 10.78ZM7.18 10.81C7.18 10.81 7.14 10.84 7.13 10.86C7.13 10.88 7.15 10.9 7.15 10.92C7.18 11 7.19 11.08 7.18 11.16C7.18 11.22 7.2 11.27 7.23 11.32C7.23 11.28 7.27 11.26 7.31 11.26C7.32 11.26 7.34 11.26 7.33 11.24C7.33 11.13 7.3 11.02 7.27 10.92C7.26 10.88 7.24 10.84 7.21 10.82C7.21 10.82 7.2 10.82 7.19 10.82L7.18 10.81Z" fill="#CF1126"/>
<path d="M16.75 14.51C16.81 14.51 16.87 14.56 16.85 14.62C16.81 14.68 16.74 14.71 16.67 14.74C16.51 14.8 16.35 14.83 16.18 14.82C16.24 14.82 16.16 14.82 16.14 14.82C16.01 14.82 15.88 14.8 15.75 14.75C15.68 14.73 15.59 14.7 15.56 14.63C15.53 14.58 15.58 14.53 15.63 14.54C15.7 14.56 15.77 14.59 15.84 14.61C15.99 14.65 16.15 14.67 16.3 14.66C16.41 14.65 16.52 14.61 16.63 14.57C16.67 14.55 16.7 14.53 16.74 14.53L16.75 14.51Z" fill="#CF1126"/>
<path d="M16.69 14.27C16.75 14.27 16.8 14.33 16.77 14.38C16.73 14.45 16.65 14.48 16.58 14.51C16.46 14.56 16.32 14.58 16.19 14.58C16.24 14.58 16.17 14.58 16.15 14.58C16.04 14.58 15.93 14.56 15.82 14.52C15.76 14.5 15.68 14.47 15.65 14.4C15.63 14.36 15.65 14.31 15.69 14.3C15.73 14.3 15.77 14.33 15.81 14.34C15.96 14.4 16.12 14.43 16.28 14.41C16.38 14.4 16.47 14.36 16.56 14.32C16.59 14.3 16.62 14.28 16.66 14.27H16.69ZM16.61 14.05C16.66 14.05 16.69 14.1 16.69 14.15C16.69 14.19 16.65 14.22 16.62 14.24C16.5 14.33 16.34 14.37 16.19 14.36C16.25 14.36 16.11 14.36 16.15 14.36C16.06 14.36 15.96 14.34 15.88 14.3C15.82 14.28 15.76 14.25 15.74 14.18C15.74 14.15 15.73 14.11 15.76 14.09C15.8 14.07 15.83 14.1 15.86 14.11C15.97 14.17 16.09 14.2 16.21 14.2C16.32 14.2 16.42 14.16 16.51 14.11C16.54 14.09 16.57 14.06 16.61 14.06V14.05ZM17.45 10.69C17.52 10.76 17.47 10.9 17.47 11C17.43 11.3 17.38 11.61 17.27 11.89C17.13 12.17 16.84 12.31 16.66 12.56C16.6 12.68 16.62 12.82 16.61 12.95C16.6 13.3 16.61 13.65 16.61 14C16.45 14.08 16.28 14.16 16.1 14.13C15.99 14.1 15.79 14.09 15.77 13.98L15.79 12.16C15.85 11.97 16.04 11.88 16.18 11.76C16.3 11.65 16.4 11.52 16.5 11.39C16.56 11.29 16.79 11.25 16.71 11.43C16.66 11.58 16.53 11.7 16.5 11.86C16.5 11.95 16.39 12.11 16.48 12.16C16.54 12.06 16.62 11.98 16.72 11.93C16.82 11.85 16.99 11.82 17.03 11.69C17.06 11.5 17.15 11.33 17.28 11.19C17.25 11.02 17.28 10.81 17.43 10.7H17.45V10.69ZM17.22 10.72C17.29 10.73 17.29 10.82 17.25 10.86C17.22 10.96 17.21 11.06 17.23 11.17C17.11 11.31 17.02 11.48 16.99 11.66C16.99 11.73 16.92 11.75 16.87 11.79C16.76 11.86 16.63 11.91 16.53 12C16.51 12.02 16.49 12.05 16.51 12C16.53 11.94 16.53 11.88 16.58 11.83C16.64 11.76 16.72 11.7 16.81 11.68C16.81 11.59 16.86 11.5 16.9 11.42C16.95 11.34 16.99 11.26 17.07 11.2C17.07 11.06 17.07 10.91 17.13 10.79C17.15 10.76 17.17 10.72 17.22 10.72ZM17.03 10.78C17.03 10.78 17.07 10.85 17.05 10.89C17.03 10.99 17.02 11.09 17.03 11.19C16.94 11.26 16.89 11.36 16.84 11.45C16.81 11.51 16.78 11.58 16.77 11.65C16.7 11.67 16.64 11.72 16.58 11.77C16.6 11.7 16.65 11.65 16.68 11.59C16.72 11.53 16.75 11.46 16.76 11.39C16.83 11.32 16.86 11.22 16.85 11.12C16.85 11.01 16.88 10.9 16.96 10.82C16.98 10.8 17 10.78 17.03 10.78ZM16.82 10.81C16.82 10.81 16.86 10.84 16.87 10.86C16.87 10.88 16.85 10.9 16.85 10.92C16.82 11 16.81 11.08 16.82 11.16C16.82 11.22 16.8 11.27 16.77 11.32C16.77 11.28 16.73 11.26 16.69 11.26C16.68 11.26 16.66 11.26 16.67 11.24C16.67 11.13 16.7 11.02 16.73 10.92C16.74 10.88 16.76 10.84 16.79 10.82C16.79 10.82 16.8 10.82 16.81 10.82L16.82 10.81Z" fill="#CF1126"/>
<path d="M11.9 14.65C11.59 14.62 11.31 14.4 11.22 14.1C11.22 14.05 11.29 14.13 11.32 14.13C11.38 14.16 11.44 14.19 11.5 14.19C11.58 14.22 11.63 14.31 11.71 14.35C11.75 14.38 11.87 14.43 11.85 14.35C11.82 14.3 11.8 14.24 11.83 14.19C11.87 14.1 11.94 14.01 12.01 13.93C12.06 13.91 12.09 14.01 12.13 14.04C12.18 14.11 12.24 14.21 12.21 14.3C12.18 14.33 12.16 14.44 12.24 14.4C12.33 14.36 12.41 14.29 12.48 14.23C12.55 14.18 12.63 14.18 12.7 14.14C12.73 14.14 12.8 14.07 12.81 14.1C12.77 14.2 12.71 14.29 12.64 14.38C12.53 14.51 12.38 14.6 12.21 14.63C12.11 14.65 12.01 14.65 11.91 14.64L11.9 14.65ZM12.26 14.29C12.26 14.23 12.26 14.16 12.22 14.11C12.17 14.01 12.1 13.92 12.04 13.84C11.98 13.8 11.94 13.92 11.9 13.96C11.83 14.06 11.75 14.16 11.75 14.28C11.71 14.34 11.64 14.23 11.62 14.2C11.56 14.12 11.52 14.03 11.53 13.93C11.53 13.77 11.55 13.61 11.61 13.46C11.65 13.33 11.73 13.21 11.72 13.07C11.72 12.97 11.7 12.85 11.62 12.78C11.54 12.72 11.67 12.7 11.71 12.74C11.78 12.74 11.82 12.86 11.89 12.83C11.92 12.77 11.92 12.69 11.98 12.64C12.03 12.57 12.09 12.67 12.11 12.72C12.15 12.76 12.11 12.87 12.17 12.87C12.24 12.82 12.3 12.73 12.39 12.71C12.43 12.69 12.49 12.71 12.44 12.75C12.37 12.81 12.31 12.9 12.3 12.99C12.28 13.11 12.3 13.23 12.36 13.34C12.46 13.55 12.54 13.8 12.49 14.04C12.47 14.15 12.39 14.24 12.31 14.3C12.3 14.3 12.28 14.3 12.28 14.3L12.26 14.29ZM12.15 12.68C12.12 12.62 12.08 12.56 12.02 12.52C11.97 12.52 11.93 12.59 11.9 12.62C11.87 12.67 11.84 12.75 11.78 12.69C11.68 12.63 11.66 12.5 11.66 12.39C11.66 12.22 11.72 12.05 11.79 11.9C11.83 11.8 11.82 11.69 11.79 11.59C11.76 11.47 11.67 11.39 11.59 11.3C11.59 11.26 11.69 11.28 11.72 11.3C11.8 11.32 11.84 11.39 11.9 11.44C11.94 11.43 11.92 11.35 11.94 11.31C11.94 11.26 12.01 11.18 12.04 11.26C12.08 11.31 12.04 11.41 12.1 11.44C12.16 11.42 12.18 11.36 12.23 11.33C12.28 11.3 12.35 11.29 12.41 11.32C12.43 11.37 12.35 11.41 12.33 11.46C12.24 11.57 12.2 11.73 12.24 11.87C12.27 11.98 12.33 12.08 12.35 12.2C12.37 12.33 12.37 12.46 12.34 12.59C12.32 12.67 12.25 12.72 12.18 12.75C12.16 12.73 12.15 12.71 12.14 12.69L12.15 12.68ZM11.81 11.24C11.73 11.18 11.71 11.13 11.71 11.02C11.71 10.97 11.72 10.94 11.76 10.89C11.81 10.82 11.8 10.79 11.73 10.82C11.61 10.85 11.55 10.82 11.55 10.72C11.55 10.67 11.55 10.65 11.63 10.57C11.68 10.51 11.7 10.47 11.69 10.46C11.68 10.45 11.62 10.5 11.48 10.64C11.38 10.75 11.26 10.85 11.22 10.88C11 11.03 10.78 11.06 10.68 10.94C10.63 10.88 10.63 10.85 10.69 10.81C10.72 10.79 10.76 10.76 10.79 10.73C10.86 10.66 11.06 10.51 11.16 10.46C11.24 10.42 11.26 10.39 11.21 10.39C11.14 10.39 10.92 10.53 10.76 10.68C10.71 10.73 10.64 10.78 10.6 10.79C10.52 10.83 10.35 10.84 10.28 10.82C10.23 10.8 10.14 10.72 10.14 10.68C10.14 10.68 10.16 10.65 10.19 10.64C10.22 10.63 10.26 10.59 10.29 10.57C10.42 10.45 10.67 10.33 10.87 10.29C10.93 10.28 10.91 10.24 10.84 10.25C10.7 10.25 10.43 10.38 10.27 10.52C10.08 10.68 9.79 10.66 9.7 10.49C9.68 10.46 9.67 10.43 9.68 10.43C9.68 10.43 9.74 10.41 9.81 10.39C9.88 10.37 10.02 10.32 10.15 10.25C10.36 10.15 10.42 10.12 10.56 10.1C10.62 10.09 10.63 10.06 10.56 10.05C10.48 10.05 10.36 10.08 10.14 10.19C9.86 10.33 9.78 10.35 9.63 10.34C9.5 10.34 9.42 10.3 9.31 10.19C9.24 10.12 9.14 9.95 9.16 9.93C9.16 9.93 9.2 9.93 9.23 9.94C9.27 9.95 9.38 9.96 9.52 9.96C9.71 9.96 9.76 9.96 9.86 9.93C10.03 9.88 10.25 9.77 10.41 9.65C10.7 9.43 10.94 9.34 11.25 9.34C11.53 9.34 11.71 9.4 11.87 9.57C11.92 9.62 11.97 9.66 11.98 9.65C11.98 9.65 11.99 9.55 12 9.44C12 9.44 12.08 9.44 12.1 9.46C12.1 9.64 12.1 9.65 12.13 9.65C12.15 9.65 12.16 9.63 12.18 9.61C12.2 9.55 12.29 9.47 12.39 9.42C12.6 9.32 12.95 9.31 13.24 9.42C13.36 9.46 13.5 9.54 13.62 9.64C13.75 9.74 14.01 9.87 14.17 9.91C14.33 9.95 14.6 9.97 14.75 9.93C14.81 9.92 14.86 9.91 14.87 9.91C14.92 9.91 14.83 10.08 14.73 10.19C14.54 10.38 14.29 10.38 13.94 10.19C13.72 10.07 13.46 10.01 13.46 10.07C13.46 10.08 13.47 10.09 13.49 10.09C13.57 10.09 13.71 10.14 13.92 10.24C14.14 10.35 14.27 10.39 14.34 10.39C14.39 10.39 14.4 10.42 14.34 10.5C14.29 10.58 14.2 10.62 14.07 10.62C13.95 10.62 13.88 10.59 13.77 10.5C13.59 10.35 13.14 10.18 13.16 10.27C13.16 10.29 13.19 10.3 13.23 10.31C13.39 10.33 13.57 10.42 13.76 10.56C13.82 10.6 13.88 10.65 13.89 10.66C13.92 10.68 13.92 10.68 13.89 10.72C13.86 10.78 13.77 10.83 13.68 10.84C13.56 10.85 13.46 10.82 13.35 10.73C13.12 10.54 12.91 10.4 12.84 10.4C12.78 10.4 12.81 10.43 12.91 10.48C13.04 10.55 13.17 10.64 13.27 10.73C13.32 10.77 13.37 10.82 13.39 10.82C13.43 10.84 13.43 10.87 13.39 10.93C13.34 10.99 13.27 11.02 13.17 11.01C12.97 10.99 12.82 10.89 12.58 10.64C12.49 10.54 12.4 10.46 12.39 10.46C12.36 10.46 12.38 10.5 12.44 10.57C12.52 10.66 12.53 10.71 12.5 10.78C12.47 10.84 12.43 10.86 12.34 10.83C12.25 10.81 12.24 10.83 12.29 10.9C12.38 11.01 12.37 11.14 12.26 11.24C12.23 11.27 12.19 11.29 12.18 11.29C12.17 11.29 12.15 11.27 12.13 11.24C12.06 11.13 12 11.14 11.93 11.24C11.91 11.28 11.89 11.31 11.89 11.31C11.89 11.31 11.86 11.29 11.82 11.26L11.81 11.24Z" fill="#CF1126"/>
<path d="M12.15 9.1L12.03 9.19L11.92 9.11V9.74H12.14V9.09L12.15 9.1ZM11.43 8.44C11.41 8.74 11.33 8.95 11.22 9.18L11.47 8.94L11.65 9.15L11.84 8.94L12.03 9.12L12.22 8.93L12.41 9.16L12.58 8.97L12.87 9.18C12.77 8.95 12.63 8.75 12.64 8.43C12.36 8.64 11.7 8.67 11.42 8.44H11.43ZM11.93 8.29C11.83 8.29 11.72 8.29 11.62 8.31C11.55 8.32 11.49 8.34 11.44 8.38C11.44 8.57 12.38 8.66 12.63 8.38C12.58 8.34 12.51 8.32 12.44 8.31C12.35 8.29 12.24 8.29 12.15 8.29V8.45H11.93V8.29ZM12.11 7.29H11.97V8.42H12.12V7.29H12.11Z" fill="#CF1126"/>
<path d="M12.11 7.32L12.05 7.86L12.61 8.13L12.33 7.75L12.71 7.63L12.11 7.32Z" fill="#CF1126"/>
<path d="M12.05 7.18C11.97 7.18 11.9 7.21 11.9 7.25C11.9 7.29 11.96 7.32 12.05 7.32C12.14 7.32 12.2 7.29 12.2 7.25C12.2 7.21 12.14 7.18 12.05 7.18Z" fill="#CF1126"/>
<path d="M11.8 16.66C11.89 16.63 11.94 16.57 11.98 16.47C12 16.42 12.01 16.36 12.01 16.35C12.01 16.32 11.96 16.32 11.92 16.35C11.89 16.37 11.89 16.39 11.9 16.44C11.92 16.57 11.88 16.6 11.63 16.63C11.61 16.63 11.54 16.63 11.48 16.63C11.36 16.62 11.32 16.63 11.37 16.66C11.38 16.67 11.41 16.68 11.44 16.69C11.5 16.71 11.74 16.69 11.81 16.67L11.8 16.66ZM12.3 16.64C12.3 16.64 12.36 16.61 12.4 16.59C12.46 16.57 12.49 16.55 12.51 16.51C12.58 16.4 12.57 16.31 12.46 16.19C12.4 16.12 12.38 16.13 12.33 16.19C12.29 16.25 12.29 16.26 12.35 16.27C12.38 16.27 12.41 16.3 12.42 16.33C12.48 16.44 12.46 16.5 12.37 16.5C12.29 16.5 12.27 16.51 12.24 16.57C12.23 16.6 12.22 16.63 12.22 16.64C12.22 16.66 12.25 16.66 12.28 16.64H12.3ZM12.13 16.52C12.13 16.52 12.15 16.4 12.15 16.25C12.15 16.13 12.15 16.03 12.14 16.03C12.13 16.02 12.06 16.06 12.05 16.09C12.05 16.1 12.05 16.14 12.07 16.16C12.09 16.2 12.09 16.24 12.09 16.4C12.09 16.6 12.09 16.64 12.14 16.52H12.13ZM11.75 16.42C11.75 16.42 11.77 16.31 11.77 16.25C11.77 16.19 11.79 16.12 11.8 16.09C11.82 16.01 11.8 15.99 11.74 16.03L11.69 16.06V16.17C11.71 16.27 11.69 16.46 11.67 16.54C11.67 16.56 11.67 16.55 11.7 16.52C11.72 16.5 11.74 16.44 11.75 16.41V16.42ZM11.4 16.48C11.48 16.41 11.47 16.29 11.49 16.19C11.49 16.13 11.53 16.05 11.5 15.99C11.42 16 11.37 16.08 11.41 16.15C11.41 16.24 11.41 16.33 11.37 16.4C11.33 16.45 11.22 16.44 11.23 16.37C11.26 16.26 11.13 16.32 11.08 16.34C11.04 16.37 10.96 16.37 10.99 16.3C10.97 16.21 10.86 16.27 10.8 16.27C10.74 16.27 10.8 16.15 10.71 16.17C10.55 16.16 10.38 16.17 10.25 16.08C10.17 16.04 10.18 15.95 10.22 15.89C10.27 15.81 10.28 15.7 10.36 15.64C10.44 15.57 10.29 15.6 10.25 15.62C10.17 15.66 10.25 15.77 10.18 15.83C10.14 15.89 10.1 15.97 10.01 15.96C9.88999 15.94 9.81999 15.83 9.73999 15.75C9.66999 15.74 9.70999 15.87 9.73999 15.9C9.81999 15.96 9.89999 16 9.98999 16.02C10.08 16.01 10.08 16.12 10.16 16.14C10.3 16.21 10.46 16.23 10.61 16.23C10.67 16.23 10.64 16.34 10.72 16.32C10.76 16.33 10.87 16.3 10.87 16.36C10.8 16.44 10.93 16.44 10.98 16.42C11.04 16.42 11.12 16.39 11.14 16.47C11.19 16.53 11.29 16.52 11.35 16.49C11.35 16.49 11.37 16.48 11.38 16.47L11.4 16.48ZM10.04 15.78C10.04 15.78 10.1 15.68 10.12 15.64C10.14 15.59 10.17 15.54 10.19 15.52C10.23 15.48 10.21 15.45 10.14 15.46C10.11 15.46 10.09 15.48 10.09 15.51C10.07 15.61 10.04 15.71 9.99999 15.75C9.93999 15.83 9.93999 15.84 9.96999 15.84C9.97999 15.84 10.01 15.81 10.04 15.78ZM9.17999 15.25C9.11999 15.25 9.10999 15.29 9.17999 15.31C9.20999 15.32 9.23999 15.35 9.25999 15.39C9.31999 15.51 9.35999 15.53 9.51999 15.55H9.61999V15.62C9.61999 15.65 9.62999 15.68 9.63999 15.68C9.64999 15.68 9.68999 15.66 9.72999 15.64C9.80999 15.6 9.87999 15.51 9.87999 15.46C9.87999 15.42 9.81999 15.38 9.75999 15.38C9.73999 15.38 9.68999 15.4 9.64999 15.43C9.52999 15.51 9.40999 15.5 9.33999 15.39C9.27999 15.3 9.22999 15.25 9.17999 15.25ZM9.73999 15.47C9.73999 15.47 9.77999 15.49 9.75999 15.54C9.74999 15.57 9.70999 15.57 9.69999 15.54C9.68999 15.51 9.69999 15.47 9.73999 15.47ZM14.08 15.33C14.08 15.33 14.03 15.34 14 15.38C13.96 15.44 13.95 15.58 14 15.63C14.02 15.66 14.03 15.66 14.08 15.63C14.15 15.6 14.17 15.6 14.17 15.63C14.17 15.73 14.02 15.93 13.87 16.03C13.83 16.06 13.79 16.09 13.79 16.1C13.78 16.13 13.84 16.12 13.9 16.09C13.99 16.04 14.12 15.92 14.17 15.82C14.21 15.74 14.22 15.71 14.22 15.58C14.22 15.45 14.22 15.41 14.2 15.37C14.18 15.32 14.17 15.32 14.11 15.32C14.11 15.32 14.1 15.32 14.09 15.32L14.08 15.33ZM14.08 15.42C14.08 15.42 14.12 15.42 14.12 15.47C14.12 15.51 14.12 15.53 14.1 15.55C14.07 15.58 14.07 15.58 14.04 15.54C14 15.49 14.03 15.42 14.08 15.42ZM13.39 16.39C13.52 16.32 13.6 16.25 13.65 16.14C13.67 16.09 13.69 16.04 13.69 16.03C13.69 16.01 13.62 15.98 13.58 15.98C13.54 15.98 13.53 15.95 13.55 15.88C13.57 15.81 13.55 15.71 13.51 15.71C13.5 15.71 13.48 15.73 13.46 15.75C13.44 15.78 13.44 15.8 13.46 15.84C13.48 15.91 13.46 15.96 13.4 16.01C13.37 16.03 13.35 16.06 13.35 16.08C13.35 16.1 13.35 16.12 13.35 16.12C13.35 16.12 13.39 16.1 13.42 16.08L13.49 16.04L13.53 16.07C13.53 16.07 13.57 16.11 13.57 16.13C13.57 16.21 13.34 16.35 13.18 16.36C13.1 16.36 13.08 16.36 13.05 16.33C13.03 16.31 13.02 16.29 13.03 16.26L13.05 16.17C13.06 16.1 13.03 16.11 12.98 16.19C12.94 16.26 12.92 16.33 12.95 16.37C12.97 16.4 13.1 16.43 13.2 16.43C13.26 16.43 13.32 16.41 13.38 16.38L13.39 16.39ZM14.28 15.9C14.36 15.82 14.4 15.71 14.4 15.56V15.44L14.47 15.41C14.56 15.37 14.65 15.28 14.65 15.23C14.65 15.18 14.63 15.18 14.59 15.23C14.56 15.27 14.52 15.29 14.38 15.36C14.34 15.38 14.34 15.38 14.33 15.53C14.33 15.7 14.3 15.76 14.2 15.88C14.14 15.95 14.14 15.96 14.18 15.96C14.2 15.96 14.24 15.93 14.27 15.9H14.28ZM13.36 15.8C13.36 15.8 13.32 15.76 13.3 15.78C13.3 15.78 13.29 15.8 13.3 15.81C13.31 15.83 13.36 15.82 13.36 15.8ZM14.63 15.47C14.63 15.47 14.59 15.43 14.57 15.45C14.57 15.45 14.56 15.47 14.57 15.48C14.58 15.5 14.63 15.49 14.63 15.47ZM13.11 14.59C13.11 14.59 13.06 14.64 13.04 14.67C13.02 14.68 13.04 14.69 13.04 14.7C13.1 14.76 13.12 14.85 13.15 14.92C13.18 15.01 13.21 15.11 13.18 15.21C13.17 15.25 13.14 15.28 13.1 15.27C13.03 15.27 12.96 15.25 12.89 15.25C12.83 15.25 12.78 15.31 12.72 15.3C12.68 15.3 12.68 15.22 12.64 15.24C12.62 15.28 12.64 15.33 12.63 15.38C12.63 15.38 12.66 15.38 12.67 15.38H12.79C12.79 15.38 12.79 15.47 12.83 15.51C12.87 15.53 12.92 15.51 12.96 15.5C13 15.48 13.01 15.43 13.02 15.39C13.03 15.35 13.09 15.36 13.13 15.34C13.21 15.32 13.27 15.23 13.26 15.14C13.26 15.01 13.2 14.89 13.17 14.76C13.15 14.71 13.14 14.65 13.12 14.6C13.12 14.6 13.12 14.6 13.11 14.6V14.59ZM12.9 15.34C12.9 15.34 12.97 15.39 12.96 15.43C12.94 15.48 12.88 15.45 12.87 15.41C12.85 15.38 12.87 15.33 12.91 15.34H12.9ZM11.18 14.91C11.18 14.91 11.14 14.91 11.11 14.93C10.99 15.02 10.96 15.12 11.04 15.15C11.1 15.18 11.09 15.21 10.99 15.26C10.85 15.33 10.73 15.32 10.5 15.23C10.44 15.21 10.43 15.22 10.44 15.27C10.45 15.32 10.5 15.35 10.61 15.37C10.73 15.4 10.88 15.39 10.98 15.35C11.03 15.33 11.08 15.29 11.13 15.24L11.2 15.16H11.29C11.4 15.18 11.4 15.18 11.4 15.24C11.4 15.28 11.4 15.28 11.5 15.29C11.56 15.29 11.63 15.3 11.66 15.3C11.7 15.3 11.73 15.3 11.74 15.33C11.76 15.36 11.77 15.36 11.93 15.34C12.08 15.33 12.11 15.33 12.18 15.35C12.23 15.37 12.28 15.37 12.32 15.37C12.44 15.36 12.59 15.26 12.62 15.19C12.62 15.19 12.66 15.17 12.71 15.16C12.83 15.14 12.83 15.11 12.72 15.1C12.67 15.1 12.6 15.08 12.56 15.06C12.52 15.04 12.47 15.03 12.44 15.03C12.38 15.03 12.33 15.07 12.33 15.1C12.33 15.12 12.33 15.13 12.41 15.12C12.48 15.12 12.49 15.12 12.53 15.14C12.55 15.16 12.57 15.18 12.56 15.19C12.54 15.21 12.41 15.28 12.35 15.29C12.31 15.29 12.28 15.29 12.25 15.28C12.2 15.25 12.12 15.25 12.1 15.28C12.1 15.29 12.08 15.28 12.05 15.26L12.01 15.23L11.93 15.26C11.85 15.29 11.82 15.29 11.82 15.26C11.82 15.24 11.8 15.24 11.68 15.25C11.55 15.25 11.53 15.25 11.51 15.23C11.49 15.2 11.49 15.2 11.51 15.17C11.53 15.15 11.53 15.14 11.51 15.12C11.49 15.1 11.48 15.11 11.42 15.12C11.29 15.16 11.25 15.14 11.25 15.03C11.25 14.97 11.21 14.93 11.17 14.93L11.18 14.91ZM11.14 15C11.14 15 11.15 15 11.16 15.01C11.17 15.02 11.18 15.04 11.17 15.06C11.16 15.09 11.1 15.09 11.09 15.06C11.09 15.04 11.09 15.03 11.11 15.02C11.12 15.02 11.13 15.01 11.14 15.01V15ZM10.91 15.1C10.99 15.05 10.99 15.05 11 14.91C11 14.81 11 14.8 10.98 14.8C10.94 14.8 10.92 14.84 10.92 14.93C10.92 14.98 10.92 15.01 10.88 15.03C10.81 15.1 10.65 15.07 10.62 14.98C10.62 14.95 10.62 14.93 10.66 14.88C10.73 14.78 10.72 14.75 10.63 14.83C10.57 14.88 10.56 14.89 10.57 14.83C10.58 14.79 10.56 14.77 10.51 14.78C10.48 14.78 10.47 14.8 10.46 14.83C10.46 14.86 10.44 14.88 10.42 14.88C10.38 14.89 10.31 14.85 10.31 14.82C10.31 14.8 10.41 14.67 10.55 14.53C10.6 14.48 10.64 14.43 10.64 14.42C10.64 14.41 10.61 14.41 10.58 14.41C10.53 14.41 10.52 14.41 10.52 14.44C10.52 14.46 10.45 14.54 10.37 14.63C10.2 14.82 10.19 14.86 10.27 14.91C10.34 14.95 10.42 14.95 10.49 14.91L10.55 14.87V14.94C10.55 15.03 10.57 15.06 10.64 15.09C10.73 15.14 10.83 15.13 10.92 15.08L10.91 15.1ZM14.48 13.91C14.42 13.95 14.47 14.03 14.48 14.08C14.45 14.15 14.36 14.17 14.29 14.18C14.19 14.2 14.13 14.28 14.09 14.36C14.07 14.42 14.02 14.5 13.97 14.42C13.93 14.37 13.84 14.34 13.79 14.39C13.75 14.43 13.74 14.48 13.72 14.54C13.7 14.5 13.69 14.44 13.63 14.43C13.55 14.44 13.58 14.54 13.62 14.58C13.65 14.63 13.69 14.69 13.65 14.75C13.62 14.82 13.52 14.87 13.46 14.81C13.4 14.78 13.44 14.67 13.39 14.67C13.36 14.69 13.36 14.8 13.32 14.74C13.29 14.69 13.31 14.62 13.27 14.57C13.22 14.57 13.19 14.65 13.2 14.7C13.26 14.78 13.29 14.89 13.31 14.98C13.32 15.02 13.31 15.1 13.34 15.12C13.37 15.06 13.34 14.98 13.36 14.92C13.42 14.92 13.49 14.94 13.55 14.92C13.64 14.91 13.71 14.83 13.74 14.75C13.74 14.69 13.74 14.63 13.74 14.57C13.81 14.58 13.88 14.58 13.95 14.6C13.98 14.65 13.94 14.72 13.93 14.78C13.89 14.9 13.8 14.98 13.72 15.06C13.68 15.08 13.68 15.14 13.73 15.11C13.85 15.06 13.94 14.95 13.99 14.84C14.03 14.75 13.99 14.65 14.02 14.56C14.06 14.49 14.14 14.51 14.21 14.51C14.28 14.51 14.33 14.43 14.31 14.37C14.29 14.3 14.37 14.26 14.42 14.23C14.49 14.19 14.55 14.12 14.54 14.04C14.54 14 14.54 13.92 14.48 13.91ZM14.23 14.34C14.31 14.36 14.22 14.51 14.18 14.41C14.17 14.37 14.2 14.34 14.23 14.34ZM13.88 14.45C13.98 14.45 13.94 14.59 13.86 14.52C13.82 14.5 13.83 14.44 13.88 14.45ZM10.29 15C10.29 15 10.29 14.98 10.27 14.98C10.24 14.98 10.23 15 10.24 15.03C10.25 15.05 10.28 15.03 10.29 15.01V15ZM11.45 14.87C11.45 14.87 11.45 14.84 11.42 14.84C11.38 14.84 11.38 14.9 11.42 14.9C11.44 14.9 11.45 14.9 11.45 14.87ZM10.01 14.18C10.01 14.18 9.92999 14.21 9.91999 14.25C9.88999 14.31 9.83999 14.37 9.77999 14.4C9.73999 14.41 9.68999 14.4 9.64999 14.37C9.59999 14.35 9.60999 14.29 9.58999 14.25C9.55999 14.22 9.49999 14.26 9.49999 14.3C9.49999 14.35 9.54999 14.39 9.58999 14.41C9.62999 14.43 9.67999 14.44 9.68999 14.49C9.68999 14.53 9.69999 14.57 9.74999 14.56C9.79999 14.56 9.81999 14.62 9.78999 14.66C9.76999 14.7 9.74999 14.75 9.75999 14.8C9.77999 14.82 9.80999 14.77 9.82999 14.75L9.86999 14.7C9.95999 14.7 10.05 14.72 10.14 14.71C10.21 14.71 10.26 14.67 10.3 14.62C10.36 14.56 10.41 14.49 10.47 14.43C10.52 14.42 10.49 14.33 10.44 14.35C10.4 14.37 10.38 14.42 10.35 14.45C10.3 14.51 10.24 14.58 10.18 14.63C10.13 14.65 10.08 14.64 10.03 14.63C10.01 14.61 10.07 14.6 10.08 14.58C10.11 14.55 10.14 14.52 10.16 14.49C10.14 14.46 10.1 14.45 10.06 14.45C9.97999 14.46 9.90999 14.53 9.82999 14.54C9.76999 14.54 9.79999 14.47 9.82999 14.45C9.88999 14.38 9.94999 14.32 10.01 14.25C10.03 14.23 10.09 14.21 10.05 14.18C10.04 14.18 10.02 14.18 10.01 14.18ZM10.05 14.52C10.05 14.52 10.02 14.58 9.98999 14.58C9.94999 14.59 9.94999 14.55 9.98999 14.54C10.01 14.54 10.03 14.52 10.05 14.52ZM9.91999 14.61C9.91999 14.61 9.98999 14.63 9.94999 14.65C9.91999 14.68 9.87999 14.62 9.91999 14.61ZM10.95 14.67C10.95 14.67 10.89 14.64 10.89 14.67C10.89 14.69 10.89 14.7 10.92 14.69C10.94 14.69 10.95 14.68 10.95 14.66V14.67ZM13.51 14.44C13.51 14.44 13.47 14.39 13.45 14.41C13.43 14.43 13.45 14.48 13.48 14.47C13.49 14.47 13.51 14.45 13.51 14.44ZM9.52999 14.13C9.52999 14.13 9.56999 14.09 9.54999 14.02C9.52999 13.91 9.52999 13.9 9.56999 13.89C9.61999 13.88 9.74999 13.95 9.77999 14C9.79999 14.04 9.79999 14.05 9.75999 14.08C9.71999 14.12 9.71999 14.16 9.75999 14.16C9.78999 14.16 9.88999 14.07 9.88999 14.04C9.88999 14 9.78999 13.89 9.69999 13.85C9.64999 13.83 9.59999 13.82 9.53999 13.82C9.42999 13.82 9.41999 13.84 9.44999 13.96C9.47999 14.1 9.43999 14.12 9.31999 14.01C9.22999 13.93 9.19999 13.85 9.19999 13.71C9.19999 13.57 9.24999 13.5 9.37999 13.48C9.45999 13.47 9.45999 13.45 9.37999 13.44C9.25999 13.42 9.15999 13.5 9.11999 13.65C9.07999 13.81 9.17999 14.01 9.34999 14.11C9.43999 14.16 9.47999 14.16 9.52999 14.11V14.13ZM14.3 13.95C14.3 13.95 14.32 13.92 14.32 13.9C14.32 13.88 14.34 13.85 14.36 13.82C14.38 13.79 14.4 13.76 14.4 13.76C14.4 13.73 14.35 13.73 14.32 13.76C14.28 13.79 14.25 13.79 14.25 13.76C14.25 13.76 14.27 13.74 14.29 13.73C14.34 13.7 14.35 13.68 14.3 13.66C14.24 13.63 14.18 13.68 14.18 13.76C14.18 13.81 14.18 13.82 14.22 13.85C14.26 13.87 14.27 13.88 14.26 13.92C14.25 13.98 14.27 13.99 14.31 13.96L14.3 13.95ZM14.75 13.9C14.75 13.9 14.81 13.84 14.81 13.83C14.81 13.82 14.84 13.79 14.87 13.76C14.97 13.69 14.99 13.62 14.95 13.51C14.93 13.47 14.88 13.41 14.76 13.3C14.67 13.22 14.59 13.15 14.58 13.15C14.55 13.15 14.55 13.27 14.58 13.28C14.64 13.3 14.67 13.32 14.77 13.41C14.88 13.51 14.93 13.6 14.9 13.65C14.87 13.7 14.84 13.68 14.75 13.58C14.7 13.53 14.65 13.48 14.64 13.48C14.63 13.48 14.62 13.5 14.62 13.53C14.62 13.56 14.64 13.6 14.69 13.65C14.77 13.74 14.78 13.79 14.72 13.84C14.7 13.86 14.68 13.87 14.67 13.87C14.66 13.87 14.65 13.84 14.63 13.81C14.6 13.74 14.39 13.53 14.36 13.53C14.35 13.53 14.34 13.55 14.34 13.58C14.34 13.62 14.34 13.64 14.38 13.65C14.42 13.67 14.52 13.77 14.62 13.89C14.65 13.92 14.68 13.95 14.68 13.95C14.68 13.95 14.72 13.93 14.75 13.9ZM14.95 13.33C14.95 13.33 14.66 13.01 14.63 13.01C14.62 13.01 14.61 13.03 14.61 13.07C14.61 13.12 14.61 13.13 14.66 13.14C14.68 13.14 14.76 13.2 14.82 13.27C14.88 13.33 14.94 13.38 14.95 13.38C14.95 13.38 14.95 13.36 14.95 13.34V13.33ZM13.31 16.5C13.31 16.5 13.29 16.54 13.27 16.54C13.25 16.54 13.23 16.52 13.23 16.5C13.23 16.48 13.25 16.46 13.27 16.46C13.29 16.46 13.31 16.48 13.31 16.5ZM13.46 16.45C13.46 16.45 13.44 16.49 13.42 16.49C13.4 16.49 13.38 16.47 13.38 16.45C13.38 16.43 13.4 16.41 13.42 16.41C13.44 16.41 13.46 16.43 13.46 16.45Z" fill="#F7E017"/>
<path d="M13.31 14.7V14.72L13.33 14.77V14.82L13.36 14.88V14.93V14.98L13.38 14.94V14.88L13.33 14.74L13.3 14.7H13.31Z" fill="#CF1126"/>
<path d="M13.49 14.93H13.46L13.44 14.91V14.89L13.41 14.86V14.83L13.39 14.8V14.77L13.38 14.74V14.71V14.68L13.33 14.75L13.37 14.93L13.48 14.91L13.49 14.93ZM13.4 14.67H13.41H13.38H13.4ZM13.73 14.54V14.56L13.75 14.57H13.8H13.78V14.55L13.76 14.52V14.49L13.77 14.42L13.72 14.51V14.55L13.73 14.54Z" fill="#CF1126"/>
<path d="M12.64 15.27L12.61 15.21H12.62L12.67 15.25L12.64 15.27Z" fill="#F7E017"/>
<path d="M12.62 15.19L12.67 15.24L12.64 15.28L12.61 15.2L12.63 15.18L12.62 15.19Z" fill="#F7E017"/>
<path d="M10.58 14.87H10.57L10.56 14.9L10.55 14.94V14.97L10.54 14.91V14.89V14.87V14.85L10.56 14.86L10.58 14.87Z" fill="#CF1126"/>
<path d="M10.51 14.91L10.53 14.89V14.87L10.56 14.85V14.82L10.57 14.79V14.84L10.53 14.9H10.51V14.91Z" fill="#CF1126"/>
<path d="M10.54 14.98V14.95V14.93V14.91L10.57 14.89L10.59 14.87L10.64 14.82H10.6L10.53 14.9V14.98H10.54ZM10.99 14.97V15.02L10.97 15.04L10.94 15.07L10.91 15.1L10.86 15.14H10.93L10.96 15.09L10.98 15.05V14.98L10.99 14.97ZM9.87999 14.69H9.86999L9.85999 14.68H9.84999V14.66V14.64L9.82999 14.62V14.6L9.76999 14.79L9.79999 14.81H9.82999L9.89999 14.73V14.7L9.87999 14.69ZM9.75999 14.55H9.74999V14.54V14.52V14.5V14.49V14.48H9.73999V14.52V14.55L9.76999 14.56H9.79999H9.80999L9.75999 14.55Z" fill="#CF1126"/>
<path d="M9.77998 14.56H9.75998L9.74998 14.54H9.73998V14.52V14.5V14.48V14.46L9.72998 14.45V14.5L9.73998 14.57H9.75998H9.82998L9.77998 14.56Z" fill="#CF1126"/>
<path d="M12.63 15.18L12.67 15.25L12.64 15.29L12.61 15.22L12.63 15.18Z" fill="#F7E017"/>
<path d="M12.71 15.39H12.68L12.67 15.37V15.35V15.33V15.31L12.66 15.28L12.63 15.3V15.39L12.68 15.4H12.74L12.71 15.39ZM11.99 15.22H12.05V15.18L12 15.22H11.99Z" fill="#CF1126"/>
<path d="M11.98 15.22H12.05L12 15.18V15.22H11.98ZM9.23999 15.36L9.21999 15.33V15.3V15.27V15.25H9.17999H9.10999V15.29L9.17999 15.31L9.22999 15.35L9.23999 15.36Z" fill="#CF1126"/>
<path d="M9.17 15.24H9.12V15.26H9.14999L9.17 15.25V15.24ZM9.60999 15.55V15.57L9.63 15.59L9.64 15.6H9.64999H9.67H9.68H9.72H9.79L9.6 15.71V15.54L9.60999 15.55Z" fill="#CF1126"/>
<path d="M9.63 15.59V15.6H9.64H9.64999H9.66H9.7H9.72H9.75H9.76L9.62 15.57L9.63 15.59Z" fill="#F7E017"/>
<path d="M9.23998 15.36V15.34V15.33V15.31V15.29V15.27L9.20998 15.24H9.19998V15.28V15.33L9.22998 15.35L9.23998 15.36ZM12.33 16.62H12.31H12.3H12.29V16.6V16.56L12.25 16.65L12.28 16.67L12.36 16.61L12.33 16.62Z" fill="#CF1126"/>
<path d="M14.57 15.14V15.16L14.58 15.17V15.19V15.21V15.23L14.57 15.25V15.27L14.54 15.29L14.59 15.32L14.63 15.27V15.24V15.22V15.2V15.18L14.62 15.17V15.15L14.57 15.14Z" fill="#F7E017"/>
<path d="M14.66 13.87V13.88H14.65L14.63 13.9L14.61 13.88L14.65 13.83L14.68 13.87H14.66Z" fill="#CF1126"/>
<path d="M14.67 13.86V13.87V13.85H14.7L14.67 13.86Z" fill="#CF1126"/>
<path d="M14.7 13.84L14.62 13.9L14.71 13.84H14.7Z" fill="#CF1126"/>
<path d="M14.6 13.87H14.61L14.59 13.82L14.56 13.87H14.6ZM14.56 15.26V15.23V15.21V15.2V15.19V15.18V15.16V15.14V15.12L14.55 15.11V15.1H14.56L14.58 15.14V15.28L14.53 15.31L14.51 15.28L14.56 15.26Z" fill="#F7E017"/>
<path d="M14.61 15.12V15.14H14.62V15.16V15.18V15.2V15.22V15.24V15.26H14.63L14.64 15.2V15.17L14.62 15.15V15.12H14.61ZM13.63 16H13.64V16.02V16.03V16.05V16.08V16.1V16.14V16.16L13.63 16.19L13.71 16.08V16.03L13.68 16H13.64H13.61H13.63ZM12.26 16.61L12.24 16.63H12.21L12.19 16.62V16.61H12.26ZM12.09 16.26V16L12.01 16.02L12.05 16.19L12.09 16.26Z" fill="#CF1126"/>
<path d="M10.22 15.78L10.33 15.55L10.22 15.6V15.68V15.78ZM10.32 15.7L10.38 15.58H10.41L10.39 15.67L10.34 15.71L10.32 15.7Z" fill="#CF1126"/>
<path d="M10.22 15.78L10.19 15.83H10.21V15.8V15.77L10.22 15.78ZM10.04 16.03H10.09H10.05H10.04ZM9.63999 15.6H9.64999H9.66999H9.70999H9.72999L9.69999 15.58H9.64999H9.60999L9.63999 15.6Z" fill="#F7E017"/>
<path d="M9.62999 15.59H9.63999H9.66999L9.63999 15.6H9.60999H9.55999H9.53999H9.52999V15.57L9.62999 15.59ZM9.23999 15.36V15.35V15.34V15.33V15.32V15.31V15.29V15.28L9.20999 15.33V15.36H9.22999H9.23999ZM14.68 13.14L14.6 13.08V13.12L14.64 13.14H14.67H14.68ZM14.59 13.87H14.6L14.58 13.82L14.6 13.85V13.88V13.89H14.57L14.56 13.88L14.59 13.87ZM14.38 13.65L14.29 13.57V13.61L14.35 13.68H14.39V13.65H14.38Z" fill="#CF1126"/>
<path d="M12.01 15.22L11.89 15.27H12L12.01 15.22Z" fill="#F7E017"/>
<path d="M11.5 15.19L11.45 15.09L11.5 15.07L11.54 15.1V15.18L11.5 15.19Z" fill="#CF1126"/>
<path d="M11.36 15.11H11.47L11.45 15.06L11.36 15.09V15.11Z" fill="#CF1126"/>
<path d="M11.36 15.11H11.48L11.46 15.09H11.38L11.36 15.11Z" fill="#CF1126"/>
<path d="M11.5 15.19L11.45 15.08L11.5 15.12V15.19ZM11.92 15.26L12.01 15.23L12.05 15.27L11.97 15.21H11.93L11.86 15.26H11.92Z" fill="#CF1126"/>
<path d="M10.72 16.33H10.78L10.75 16.31L10.73 16.33H10.72Z" fill="#F7E017"/>
<path d="M10.49 14.5L10.57 14.4H10.53L10.5 14.45L10.48 14.5H10.49Z" fill="#CF1126"/>
<path d="M12.7 15.39H12.69V15.38V15.36V15.33V15.3H12.7L12.75 15.39V15.41L12.7 15.39Z" fill="#F7E017"/>
<path d="M13.74 14.57V14.6V14.63V14.69V14.71V14.74V14.78V14.8L13.71 14.83L13.66 14.89L13.75 14.86L13.78 14.78V14.69L13.74 14.57ZM13.49 14.93L13.46 14.91H13.44L13.42 14.87V14.85L13.4 14.81V14.77L13.38 14.68V14.72V14.84L13.43 14.93H13.49Z" fill="#CF1126"/>
<path d="M13.39 14.79V14.75V14.72V14.7L13.41 14.68H13.36V14.71L13.38 14.77V14.79H13.39ZM13.49 14.83H13.47V14.81L13.49 14.8L13.51 14.82V14.83H13.49Z" fill="#CF1126"/>
<path d="M13.51 14.93H13.49L13.47 14.92H13.45L13.43 14.9L13.41 14.87V14.85L13.38 14.81V14.79V14.77V14.74L13.35 14.78L13.41 14.94H13.49L13.51 14.93ZM13.65 14.61L13.59 14.5L13.56 14.54L13.62 14.6H13.64V14.62L13.65 14.61ZM13.64 14.43H13.66L13.67 14.44L13.69 14.47L13.71 14.51V14.53L13.73 14.55V14.58V14.68V14.71V14.76L13.69 14.83L13.64 14.88L13.76 14.82L13.78 14.71L13.75 14.57L13.69 14.43H13.63H13.64Z" fill="#CF1126"/>
<path d="M13.73 14.56V14.6V14.62V14.7V14.75V14.78L13.72 14.79L13.67 14.87H13.72L13.82 14.77L13.75 14.55H13.73V14.56ZM13.68 14.45V14.44H13.71C13.71 14.44 13.71 14.47 13.72 14.47L13.68 14.45Z" fill="#CF1126"/>
<path d="M13.73 14.55V14.57L13.74 14.58V14.55V14.53H13.72L13.73 14.55ZM13.41 14.68L13.43 14.7V14.72L13.44 14.71V14.68H13.41Z" fill="#CF1126"/>
<path d="M13.42 14.69C13.42 14.69 13.42 14.7 13.42 14.71V14.69ZM13.74 14.68V14.62V14.61V14.58V14.56L13.72 14.52L13.7 14.49V14.47L13.67 14.44V14.42L13.74 14.45L13.77 14.64L13.75 14.68H13.74Z" fill="#CF1126"/>
<path d="M13.73 14.62V14.57L13.7 14.53L13.68 14.5V14.48L13.66 14.46V14.43L13.73 14.54L13.75 14.64H13.72L13.73 14.62Z" fill="#CF1126"/>
<path d="M13.66 14.44L13.72 14.57V14.63L13.74 14.58L13.71 14.48L13.66 14.44ZM13.79 14.58V14.57V14.56V14.54V14.52V14.5V14.47V14.43L13.8 14.41L13.84 14.37H13.77L13.75 14.46L13.78 14.59H13.82L13.79 14.58Z" fill="#CF1126"/>
<path d="M13.8 14.58V14.56V14.53V14.5V14.47L13.81 14.44L13.84 14.39L13.79 14.43V14.58H13.83H13.8Z" fill="#CF1126"/>
<path d="M12.63 15.31L12.58 15.21L12.62 15.18L12.7 15.3L12.66 15.32H12.63V15.31Z" fill="#F7E017"/>
<path d="M14.58 13.85H14.59H14.6H14.61V13.83L14.6 13.79L14.64 13.84V13.87L14.61 13.88H14.56V13.84L14.58 13.85Z" fill="#CF1126"/>
<path d="M14.58 13.85H14.6H14.62L14.61 13.8V13.79L14.64 13.84V13.87L14.6 13.88L14.58 13.84V13.85ZM9.88 14.69H9.89999L9.87 14.7L9.88 14.69ZM10.02 14.25L10.08 14.17L10.1 14.23L10.04 14.28L10.02 14.25Z" fill="#CF1126"/>
<path d="M10.62 15.37L10.58 15.35L10.54 15.33H10.53L10.51 15.29L10.49 15.27L10.47 15.25L10.44 15.21L10.4 15.31L10.49 15.38H10.61L10.62 15.37Z" fill="#CF1126"/>
<path d="M10.63 15.37L10.54 15.32V15.34L10.63 15.38V15.37ZM10.49 15.27L10.45 15.21L10.48 15.28L10.49 15.27Z" fill="#CF1126"/>
<path d="M10.53 15.32L10.67 15.39H10.62L10.51 15.37V15.32H10.53Z" fill="#CF1126"/>
<path d="M10.54 15.33L10.49 15.28L10.47 15.24V15.22H10.45L10.47 15.26H10.48L10.5 15.33H10.55H10.54Z" fill="#CF1126"/>
<path d="M10.5 15.28V15.26H10.48V15.28H10.5Z" fill="#CF1126"/>
</svg>
