<svg width="24" height="24" viewBox="0 0 24 24" fill="none" xmlns="http://www.w3.org/2000/svg">
<path d="M24 4H0V20H24V4Z" fill="#009E49"/>
<path d="M24 4H0V12H24V4Z" fill="#EF2B2D"/>
<path d="M12 9.33L11.18 11.87L12.45 12.28" fill="#FCD116"/>
<path d="M12 9.33L12.82 11.87L11.55 12.28" fill="#FCD116"/>
<path d="M14.54 11.18H11.87V12.51" fill="#FCD116"/>
<path d="M14.54 11.18L12.38 12.75L11.6 11.67" fill="#FCD116"/>
<path d="M13.57 14.16L12.75 11.62L11.48 12.03" fill="#FCD116"/>
<path d="M13.57 14.16L11.41 12.59L12.19 11.51" fill="#FCD116"/>
<path d="M10.43 14.16L12.59 12.59L11.81 11.51" fill="#FCD116"/>
<path d="M10.43 14.16L11.25 11.62L12.52 12.03" fill="#FCD116"/>
<path d="M9.46 11.18L11.62 12.75L12.4 11.67" fill="#FCD116"/>
<path d="M9.46 11.18H12.13V12.51" fill="#FCD116"/>
</svg>
