<svg width="24" height="24" viewBox="0 0 24 24" fill="none" xmlns="http://www.w3.org/2000/svg">
<g clip-path="url(#clip0_161_2337)">
<path d="M-7.62939e-06 4H24V20H-7.62939e-06V4Z" fill="#C8102E"/>
<mask id="mask0_161_2337" style="mask-type:luminance" maskUnits="userSpaceOnUse" x="0" y="4" width="24" height="16">
<path d="M24 4H-7.62939e-06V20H24V4Z" fill="white"/>
</mask>
<g mask="url(#mask0_161_2337)">
<path d="M-1.2 3.2V20.8L25.2 3.2V20.8L-1.2 3.2Z" fill="#43B02A"/>
<path d="M26.21 22.69L12 13.22L-2.21001 22.69V1.31L12 10.78L26.21 1.31V22.69ZM13.83 12L24.19 18.91V5.09L13.83 12ZM-0.190007 5.09V18.91L10.17 12L-0.190007 5.09Z" fill="white"/>
</g>
<path d="M12 16.08C14.2533 16.08 16.08 14.2533 16.08 12C16.08 9.74668 14.2533 7.92 12 7.92C9.74667 7.92 7.91999 9.74668 7.91999 12C7.91999 14.2533 9.74667 16.08 12 16.08Z" fill="white"/>
<path d="M12 9.00999L12.25 9.45H12.75L12.5 9.88999L12.75 10.33H12.25L12 10.77L11.75 10.33H11.25L11.5 9.88999L11.25 9.45H11.75L12 9.00999Z" fill="#C8102E"/>
<path d="M12 10.85L11.72 10.37H11.17L11.45 9.88999L11.17 9.40999H11.72L12 8.92999L12.28 9.40999H12.83L12.55 9.88999L12.83 10.37H12.28L12 10.85ZM11.32 10.28H11.77L12 10.67L12.23 10.28H12.68L12.45 9.88999L12.68 9.49999H12.23L12 9.10999L11.77 9.49999H11.32L11.55 9.88999L11.32 10.28Z" fill="#43B02A"/>
<path d="M14.59 13.49H14.09L13.84 13.93L13.59 13.49H13.09L13.34 13.05L13.09 12.61H13.59L13.84 12.17L14.09 12.61H14.59L14.34 13.05L14.59 13.49Z" fill="#C8102E"/>
<path d="M13.83 14.02L13.55 13.54H13L13.28 13.06L13 12.58H13.55L13.83 12.1L14.11 12.58H14.66L14.38 13.06L14.66 13.54H14.11L13.83 14.02ZM13.15 13.45H13.6L13.83 13.84L14.06 13.45H14.51L14.28 13.06L14.51 12.67H14.06L13.83 12.28L13.6 12.67H13.15L13.38 13.06L13.15 13.45Z" fill="#43B02A"/>
<path d="M9.42 13.49L9.67 13.05L9.42 12.61H9.92L10.17 12.17L10.42 12.61H10.92L10.67 13.05L10.92 13.49H10.42L10.17 13.93L9.92 13.49H9.42Z" fill="#C8102E"/>
<path d="M10.17 14.02L9.89 13.54H9.34L9.62 13.06L9.34 12.58H9.89L10.17 12.1L10.45 12.58H11L10.72 13.06L11 13.54H10.45L10.17 14.02ZM9.49 13.45H9.94L10.17 13.84L10.4 13.45H10.85L10.62 13.06L10.85 12.67H10.4L10.17 12.28L9.94 12.67H9.49L9.72 13.06L9.49 13.45Z" fill="#43B02A"/>
</g>
<defs>
<clipPath id="clip0_161_2337">
<rect width="24" height="24" fill="white"/>
</clipPath>
</defs>
</svg>
