<svg width="24" height="24" viewBox="0 0 24 24" fill="none" xmlns="http://www.w3.org/2000/svg">
<path d="M0 4H24V20H0V4Z" fill="#032EA1"/>
<path d="M0 8H24V16H0V8Z" fill="#E00025"/>
<path d="M9.83 11.51H14.2V13.19H9.83V11.51Z" fill="white"/>
<path d="M14.2 13.21H9.83L9.81 13.19V11.51L9.83 11.49H14.2L14.22 11.51V13.19L14.2 13.21ZM9.85 13.18H14.19V11.53H9.85V13.18Z" fill="black"/>
<path d="M9.81 11.86H14.18V12.03H9.81V11.86ZM9.81 12.13H14.18V12.33H9.81V12.13ZM9.87 12.44V13.07H10.01V12.44H9.87ZM10.14 12.44V13.07H10.28V12.44H10.14ZM10.43 12.44V13.07H10.57V12.44H10.43ZM10.72 12.44V13.07H10.86V12.44H10.72ZM10.99 12.44V13.07H11.13V12.44H10.99ZM12.87 12.44V13.07H13.01V12.44H12.87ZM13.13 12.44V13.07H13.27V12.44H13.13ZM13.42 12.44V13.07H13.56V12.44H13.42ZM13.71 12.44V13.07H13.85V12.44H13.71ZM13.98 12.44V13.07H14.12V12.44H13.98Z" fill="white"/>
<path d="M14.12 13.09H13.98L13.96 13.07V12.44L13.98 12.42H14.12L14.14 12.44V13.07L14.12 13.09ZM14 13.06H14.1V12.46H14V13.06ZM13.85 13.09H13.71L13.69 13.07V12.44L13.71 12.42H13.85L13.87 12.44V13.07L13.85 13.09ZM13.73 13.06H13.83V12.46H13.73V13.06ZM13.56 13.09H13.42L13.4 13.07V12.44L13.42 12.42H13.56L13.58 12.44V13.07L13.56 13.09ZM13.44 13.06H13.54V12.46H13.44V13.06ZM13.27 13.09H13.13L13.11 13.07V12.44L13.13 12.42H13.27L13.29 12.44V13.07L13.27 13.09ZM13.15 13.06H13.25V12.46H13.15V13.06ZM13.01 13.09H12.87L12.85 13.07V12.44L12.87 12.42H13.01L13.03 12.44V13.07L13.01 13.09ZM12.89 13.06H12.99V12.46H12.89V13.06ZM11.13 13.09H10.99L10.97 13.07V12.44L10.99 12.42H11.13L11.15 12.44V13.07L11.13 13.09ZM11.01 13.06H11.11V12.46H11.01V13.06ZM10.86 13.09H10.72L10.7 13.07V12.44L10.72 12.42H10.86L10.88 12.44V13.07L10.86 13.09ZM10.74 13.06H10.84V12.46H10.74V13.06ZM10.57 13.09H10.43L10.41 13.07V12.44L10.43 12.42H10.57L10.59 12.44V13.07L10.57 13.09ZM10.45 13.06H10.55V12.46H10.45V13.06ZM10.28 13.09H10.14L10.12 13.07V12.44L10.14 12.42H10.28L10.3 12.44V13.07L10.28 13.09ZM10.16 13.06H10.26V12.46H10.16V13.06ZM10.01 13.09H9.87L9.85 13.07V12.44L9.87 12.42H10.01L10.03 12.44V13.07L10.01 13.09ZM9.89 13.06H9.99V12.46H9.89V13.06ZM14.18 12.34H9.81L9.79 12.32V12.12L9.81 12.1H14.18L14.2 12.12V12.32L14.18 12.34ZM9.83 12.31H14.17V12.15H9.83V12.31ZM14.18 12.05H9.81L9.79 12.03V11.86L9.81 11.84H14.18L14.2 11.86V12.03L14.18 12.05ZM9.83 12.02H14.17V11.88H9.83V12.02Z" fill="black"/>
<path d="M9.81 11.6H14.18V11.77H9.81V11.6Z" fill="white"/>
<path d="M14.18 11.78H9.81L9.79 11.76V11.59L9.81 11.57H14.18L14.2 11.59V11.76L14.18 11.78ZM9.83 11.75H14.17V11.62H9.83V11.75Z" fill="black"/>
<path d="M8.12 13.28C8.19 13.25 8.26 13.17 8.29 13.08H15.7C15.73 13.17 15.8 13.25 15.87 13.28H8.12Z" fill="white"/>
<path d="M15.94 13.3H8.06L8.12 13.27C8.18 13.24 8.26 13.16 8.28 13.08L15.72 13.07C15.74 13.17 15.82 13.24 15.88 13.28L15.94 13.31V13.3ZM8.17 13.27H15.82C15.77 13.23 15.71 13.17 15.69 13.1H8.3C8.28 13.17 8.22 13.23 8.17 13.27Z" fill="black"/>
<path d="M11.91 8.95C11.91 8.95 11.91 8.79 12 8.79C12.09 8.79 12.09 8.95 12.09 8.95H11.92H11.91ZM11.43 11.05V10.84C11.43 10.73 11.32 10.73 11.32 10.65C11.32 10.65 11.31 10.53 11.34 10.48C11.38 10.64 11.46 10.61 11.46 10.54C11.46 10.48 11.42 10.43 11.33 10.3C11.3 10.26 11.32 10.12 11.36 10.07C11.38 10.19 11.39 10.24 11.44 10.24C11.47 10.24 11.5 10.22 11.5 10.16C11.5 10.08 11.45 10.05 11.42 9.98C11.39 9.9 11.42 9.82 11.46 9.77C11.48 9.89 11.47 9.93 11.53 9.93C11.63 9.9 11.53 9.75 11.51 9.71C11.48 9.67 11.54 9.58 11.54 9.58C11.57 9.68 11.58 9.69 11.62 9.68C11.67 9.67 11.66 9.6 11.6 9.55C11.57 9.52 11.57 9.47 11.6 9.42C11.64 9.49 11.69 9.49 11.69 9.45L11.66 9.28H12.32L12.29 9.44C12.29 9.44 12.34 9.5 12.38 9.42C12.42 9.46 12.42 9.51 12.38 9.55C12.33 9.6 12.32 9.67 12.36 9.68C12.4 9.68 12.41 9.68 12.44 9.58C12.44 9.58 12.49 9.64 12.47 9.71C12.45 9.75 12.34 9.9 12.45 9.93C12.5 9.93 12.5 9.88 12.52 9.77C12.57 9.82 12.59 9.9 12.56 9.98C12.54 10.05 12.48 10.09 12.48 10.16C12.48 10.22 12.51 10.24 12.54 10.24C12.59 10.24 12.61 10.18 12.62 10.07C12.66 10.12 12.68 10.25 12.65 10.3C12.56 10.44 12.52 10.49 12.52 10.54C12.52 10.6 12.6 10.63 12.64 10.48C12.67 10.53 12.66 10.65 12.66 10.65C12.66 10.73 12.55 10.74 12.55 10.84V11.05H11.42H11.43ZM11.71 9.28L11.69 9.16H12.3L12.28 9.28H11.7H11.71ZM11.75 9.16V9.06H12.26V9.16H11.75ZM11.83 9.06V8.96H12.17V9.06H11.83ZM13.1 13.28C13.02 13.25 12.91 13.17 12.91 13.09V12.16L13.01 12.03H10.98L11.08 12.16V13.09C11.08 13.17 11 13.25 10.92 13.28H13.09H13.1Z" fill="white"/>
<path d="M10.83 13.3L10.92 13.27C10.99 13.24 11.06 13.17 11.06 13.09V12.16L10.95 12.01H13.05L12.93 12.16V13.09C12.93 13.16 13.03 13.24 13.11 13.27L13.2 13.3H10.84H10.83ZM11.02 12.04L11.1 12.15V13.09C11.1 13.16 11.05 13.23 10.99 13.27H13.03C12.96 13.23 12.89 13.16 12.89 13.09V12.15L12.97 12.04H11.01H11.02ZM12.58 11.07H11.41V10.84C11.41 10.84 11.38 10.77 11.35 10.74C11.32 10.72 11.3 10.69 11.3 10.65C11.3 10.65 11.29 10.53 11.32 10.47L11.34 10.43V10.47C11.37 10.55 11.4 10.57 11.42 10.57C11.43 10.57 11.44 10.55 11.44 10.54C11.44 10.5 11.41 10.46 11.36 10.37C11.35 10.35 11.33 10.33 11.32 10.3C11.29 10.25 11.31 10.11 11.35 10.05L11.38 10.02V10.06C11.4 10.18 11.42 10.22 11.45 10.22C11.45 10.22 11.49 10.22 11.49 10.16C11.49 10.12 11.47 10.09 11.45 10.06C11.44 10.04 11.42 10.02 11.41 9.99C11.38 9.91 11.4 9.82 11.45 9.76L11.47 9.74V9.77C11.47 9.77 11.48 9.81 11.49 9.83C11.5 9.9 11.51 9.91 11.53 9.92C11.54 9.92 11.55 9.91 11.56 9.9C11.58 9.86 11.53 9.78 11.51 9.74C11.51 9.74 11.51 9.74 11.51 9.73C11.48 9.68 11.54 9.59 11.55 9.58L11.57 9.55V9.58C11.61 9.68 11.62 9.68 11.64 9.67C11.64 9.67 11.65 9.67 11.66 9.65C11.66 9.63 11.66 9.6 11.62 9.56C11.58 9.52 11.58 9.46 11.62 9.41L11.64 9.39V9.41C11.64 9.41 11.69 9.46 11.7 9.46C11.7 9.46 11.7 9.46 11.7 9.45L11.67 9.26H11.71L11.69 9.14H11.75V9.04H11.83V8.94H11.91C11.91 8.91 11.91 8.84 11.95 8.8C11.97 8.78 11.99 8.77 12.01 8.77C12.03 8.77 12.06 8.77 12.07 8.8C12.11 8.84 12.11 8.91 12.11 8.94H12.2V9.04H12.29V9.14H12.33L12.31 9.26H12.35L12.31 9.44C12.31 9.44 12.31 9.45 12.31 9.46C12.31 9.46 12.34 9.46 12.37 9.41V9.39L12.4 9.41C12.44 9.46 12.45 9.52 12.4 9.56C12.37 9.59 12.36 9.63 12.36 9.65C12.36 9.65 12.36 9.66 12.38 9.67C12.4 9.67 12.41 9.67 12.44 9.58V9.55L12.47 9.57C12.47 9.57 12.53 9.64 12.51 9.72C12.51 9.72 12.51 9.73 12.51 9.74C12.49 9.77 12.44 9.86 12.46 9.9C12.46 9.91 12.47 9.92 12.49 9.92C12.51 9.92 12.52 9.91 12.53 9.83C12.53 9.81 12.53 9.79 12.54 9.77V9.74L12.57 9.76C12.63 9.81 12.64 9.9 12.61 9.99C12.61 10.02 12.59 10.04 12.57 10.06C12.55 10.09 12.53 10.12 12.53 10.16C12.53 10.22 12.56 10.22 12.57 10.22C12.6 10.22 12.62 10.18 12.64 10.06V10.02L12.67 10.05C12.71 10.1 12.73 10.25 12.7 10.3C12.68 10.33 12.67 10.35 12.66 10.37C12.6 10.45 12.58 10.5 12.58 10.54C12.58 10.56 12.58 10.57 12.6 10.57C12.61 10.57 12.64 10.55 12.67 10.47V10.43L12.7 10.47C12.73 10.53 12.72 10.64 12.72 10.65C12.72 10.69 12.69 10.72 12.67 10.74C12.64 10.77 12.62 10.79 12.61 10.84V11.07H12.58ZM11.45 11.03H12.55V10.83C12.55 10.76 12.59 10.73 12.62 10.7C12.64 10.68 12.66 10.66 12.66 10.63C12.66 10.61 12.66 10.56 12.66 10.52C12.63 10.59 12.59 10.6 12.57 10.59C12.54 10.59 12.52 10.56 12.52 10.52C12.52 10.47 12.55 10.42 12.61 10.33C12.62 10.31 12.64 10.29 12.65 10.26C12.67 10.23 12.66 10.15 12.65 10.1C12.64 10.18 12.62 10.23 12.56 10.23C12.54 10.23 12.49 10.23 12.49 10.13C12.49 10.08 12.51 10.04 12.53 10.01C12.54 9.99 12.55 9.97 12.56 9.95C12.58 9.89 12.58 9.83 12.55 9.79V9.81C12.54 9.88 12.53 9.93 12.48 9.93C12.48 9.93 12.44 9.91 12.43 9.88C12.41 9.82 12.46 9.73 12.49 9.69C12.49 9.66 12.49 9.62 12.48 9.6C12.46 9.67 12.44 9.69 12.39 9.68C12.37 9.68 12.35 9.66 12.35 9.64C12.35 9.6 12.35 9.56 12.4 9.52C12.42 9.5 12.42 9.47 12.4 9.44C12.37 9.48 12.34 9.49 12.32 9.48C12.3 9.48 12.29 9.45 12.29 9.43L12.32 9.29H11.7L11.73 9.44C11.73 9.44 11.71 9.48 11.69 9.49C11.67 9.49 11.64 9.48 11.62 9.45C11.6 9.48 11.6 9.51 11.62 9.53C11.66 9.57 11.68 9.62 11.67 9.65C11.67 9.67 11.65 9.69 11.63 9.69C11.58 9.7 11.57 9.69 11.54 9.61C11.53 9.64 11.51 9.67 11.52 9.69C11.52 9.69 11.52 9.69 11.52 9.7C11.55 9.74 11.6 9.83 11.58 9.89C11.58 9.91 11.55 9.93 11.53 9.94C11.47 9.94 11.47 9.9 11.46 9.83V9.81C11.43 9.85 11.43 9.91 11.45 9.97C11.45 9.99 11.47 10.01 11.48 10.03C11.5 10.06 11.52 10.1 11.52 10.15C11.52 10.24 11.47 10.25 11.45 10.25C11.39 10.25 11.37 10.19 11.36 10.12C11.34 10.18 11.34 10.25 11.36 10.28C11.38 10.31 11.39 10.33 11.4 10.35C11.46 10.44 11.49 10.48 11.49 10.54C11.49 10.58 11.47 10.6 11.44 10.61C11.42 10.61 11.39 10.61 11.35 10.53C11.35 10.57 11.35 10.62 11.35 10.64C11.35 10.67 11.37 10.69 11.39 10.71C11.42 10.74 11.45 10.77 11.46 10.83V11.03H11.45ZM11.72 9.26H12.27V9.17H11.71V9.26H11.72ZM11.76 9.14H12.23V9.08H11.76V9.14ZM11.84 9.04H12.14V8.98H11.84V9.04ZM11.93 8.94H12.07C12.07 8.94 12.07 8.86 12.04 8.83C12.04 8.82 12.02 8.81 12 8.81C11.99 8.81 11.97 8.81 11.96 8.83C11.94 8.86 11.93 8.91 11.93 8.94Z" fill="black"/>
<path d="M11.35 12.44H11.49V13.07H11.35V12.44ZM12.51 12.44H12.65V13.07H12.51V12.44Z" fill="white"/>
<path d="M12.65 13.09H12.51L12.49 13.07V12.44L12.51 12.42H12.65L12.67 12.44V13.07L12.65 13.09ZM12.53 13.06H12.64V12.46H12.53V13.06ZM11.48 13.09H11.34L11.32 13.07V12.44L11.34 12.42H11.48L11.5 12.44V13.07L11.48 13.09ZM11.36 13.06H11.47V12.46H11.36V13.06Z" fill="black"/>
<path d="M10.96 10.97V12.03H13.03V10.97C12.95 11 12.93 11.08 12.93 11.08V11.53H11.06V11.08C11.06 11.08 11.04 11 10.95 10.97H10.96Z" fill="white"/>
<path d="M13.05 12.04H10.94V10.94H10.96C11.05 10.99 11.08 11.07 11.08 11.07V11.51H12.92V11.07C12.92 11.07 12.94 10.98 13.03 10.95H13.05V12.05V12.04ZM10.98 12.01H13.02V10.99L12.96 11.07V11.54H11.05V11.07C11.05 11.07 11.03 11.01 10.98 10.98V12V12.01Z" fill="black"/>
<path d="M11.29 11.92C11.36 11.95 11.43 11.98 11.45 12.05V13.09C11.45 13.17 11.34 13.25 11.27 13.28H12.74C12.67 13.25 12.56 13.17 12.56 13.09V12.05C12.59 11.98 12.66 11.96 12.72 11.92H11.29Z" fill="white"/>
<path d="M12.81 13.3H12.73H11.17L11.25 13.27C11.32 13.24 11.42 13.16 11.42 13.09V12.05C11.42 12.05 11.35 11.98 11.29 11.95C11.29 11.95 11.27 11.95 11.26 11.94L11.2 11.91H12.77L12.71 11.94C12.71 11.94 12.69 11.94 12.68 11.95C12.63 11.98 12.57 12 12.55 12.05V13.09C12.55 13.16 12.65 13.24 12.72 13.27L12.79 13.3H12.81ZM11.35 13.27H12.66C12.6 13.23 12.53 13.17 12.53 13.09V12.04C12.55 11.99 12.59 11.96 12.64 11.93H11.36C11.36 11.93 11.45 11.99 11.47 12.04V13.09C11.47 13.16 11.4 13.23 11.34 13.27H11.36H11.35Z" fill="black"/>
<path d="M12.93 11.93V11.18H12.74V11.11H11.25V11.18H11.06V11.93H12.93ZM12.45 13.28C12.38 13.25 12.29 13.17 12.29 13.09V12.2L12.34 12.12H11.66L11.71 12.2V13.09C11.71 13.17 11.61 13.25 11.55 13.28H12.45Z" fill="white"/>
<path d="M11.47 13.3L11.54 13.27C11.6 13.24 11.69 13.16 11.69 13.09V12.2L11.62 12.1H12.36L12.29 12.2V13.09C12.29 13.16 12.38 13.24 12.44 13.27L12.51 13.3H11.45H11.47ZM11.7 12.13L11.74 12.19V13.09C11.74 13.16 11.68 13.23 11.62 13.27H12.39C12.33 13.23 12.27 13.16 12.27 13.09V12.19L12.31 12.13H11.7ZM12.95 11.94H11.05V11.15H11.24V11.08H12.77V11.15H12.96V11.94H12.95ZM11.08 11.91H12.91V11.19H12.72V11.12H11.26V11.19H11.07V11.91H11.08Z" fill="black"/>
<path d="M11.83 12.12H12.17V13.29H11.83V12.12Z" fill="white"/>
<path d="M12.19 13.3H11.81V12.1H12.19V13.3ZM11.84 13.27H12.15V12.14H11.84V13.27Z" fill="black"/>
<path d="M12.34 11.86C12.34 11.78 12.56 11.78 12.68 11.71H11.3C11.41 11.78 11.63 11.78 11.63 11.86L11.68 12.01L12.25 12.03L12.34 11.86Z" fill="white"/>
<path d="M12.25 12.05L11.68 12.03H11.67L11.62 11.86C11.62 11.83 11.54 11.81 11.47 11.79C11.41 11.77 11.34 11.76 11.3 11.73V11.7H12.69V11.73C12.69 11.73 12.58 11.77 12.52 11.79C12.44 11.81 12.37 11.83 12.37 11.86L12.28 12.04H12.26L12.25 12.05ZM11.7 11.99L12.25 12.01L12.33 11.85C12.33 11.8 12.42 11.77 12.51 11.75C12.54 11.75 12.58 11.73 12.61 11.72H11.39C11.39 11.72 11.45 11.74 11.49 11.75C11.58 11.77 11.66 11.79 11.66 11.85L11.7 11.99Z" fill="black"/>
<path d="M12.62 11.05C12.62 10.86 12.62 10.79 12.69 10.79V11.39C12.55 11.44 12.45 11.62 12.45 11.62H11.56C11.56 11.62 11.46 11.44 11.32 11.39V10.79C11.39 10.79 11.39 10.87 11.39 11.05H12.63H12.62ZM12.69 10.97C12.69 10.75 12.88 10.73 12.88 10.73V10.92C12.81 10.92 12.77 10.98 12.77 11.08C12.77 11.18 12.83 11.18 12.83 11.18V11.72H12.69V10.97Z" fill="white"/>
<path d="M12.84 11.74H12.67V11.42C12.55 11.48 12.46 11.63 12.46 11.63H11.55C11.55 11.63 11.45 11.45 11.32 11.4H11.31V10.77H11.33C11.42 10.77 11.42 10.85 11.42 11.03H12.63C12.63 10.86 12.63 10.77 12.71 10.77H12.73V10.83C12.79 10.73 12.9 10.72 12.9 10.72H12.92V10.95H12.9C12.9 10.95 12.86 10.95 12.85 10.97C12.83 10.99 12.81 11.03 12.81 11.09C12.81 11.17 12.85 11.17 12.85 11.17H12.87V11.19V11.75L12.84 11.74ZM12.7 11.7H12.8V11.19C12.8 11.19 12.74 11.16 12.74 11.08C12.74 11.01 12.76 10.96 12.79 10.93C12.81 10.91 12.83 10.91 12.85 10.9V10.75C12.85 10.75 12.7 10.81 12.7 10.97V11.7ZM11.56 11.6H12.43C12.43 11.6 12.54 11.42 12.67 11.37V10.81C12.67 10.81 12.64 10.89 12.64 11.05V11.07H11.37V11.05C11.37 10.89 11.37 10.82 11.33 10.81V11.38C11.45 11.43 11.54 11.57 11.57 11.61L11.56 11.6Z" fill="black"/>
<path d="M11.31 10.97C11.31 10.75 11.12 10.73 11.12 10.73V10.92C11.19 10.92 11.23 10.98 11.23 11.08C11.23 11.18 11.17 11.18 11.17 11.18V11.72H11.31V10.97Z" fill="white"/>
<path d="M11.33 11.74H11.16V11.16H11.18C11.18 11.16 11.22 11.16 11.22 11.08C11.22 11.02 11.21 10.98 11.18 10.96C11.17 10.95 11.15 10.94 11.13 10.94H11.11V10.71H11.13C11.13 10.71 11.33 10.74 11.33 10.97V11.74ZM11.19 11.7H11.29V10.97C11.29 10.81 11.18 10.76 11.14 10.75V10.9C11.14 10.9 11.18 10.91 11.2 10.93C11.23 10.96 11.25 11.01 11.25 11.08C11.25 11.16 11.21 11.18 11.19 11.19V11.7Z" fill="black"/>
<path d="M12.58 10.61H11.41V10.58H12.58V10.61ZM12.57 10.26H11.44V10.23H12.57V10.26ZM12.47 9.95H11.51V9.92H12.47V9.95ZM12.4 9.7H11.6V9.67H12.4V9.7ZM12.33 9.5H11.67V9.47H12.33V9.5Z" fill="black"/>
<path d="M12.36 12H11.63V11.75H11.05V11.72H12.92V11.75H12.35V12H12.36ZM11.66 11.96H12.32V11.74H11.66V11.96Z" fill="black"/>
<path d="M11.56 11.16C11.67 11.3 11.66 11.53 11.66 11.67H12.33C12.33 11.53 12.32 11.3 12.43 11.16H11.56ZM11.93 9.58L11.84 9.53V9.4C11.84 9.4 11.92 9.42 11.92 9.48C11.93 9.4 11.96 9.4 11.99 9.37C12.03 9.4 12.05 9.4 12.06 9.48C12.06 9.42 12.11 9.42 12.14 9.4V9.53L12.05 9.58H11.92H11.93Z" fill="white"/>
<path d="M12.35 11.69H11.65V11.65C11.65 11.51 11.65 11.3 11.55 11.18L11.53 11.15H12.48L12.46 11.18C12.36 11.3 12.36 11.51 12.36 11.65V11.69H12.35ZM11.68 11.65H12.31C12.31 11.51 12.31 11.31 12.4 11.18H11.6C11.69 11.31 11.69 11.51 11.69 11.65H11.68ZM11.93 9.6L11.83 9.55V9.38H11.85C11.85 9.38 11.85 9.38 11.86 9.38C11.88 9.38 11.91 9.39 11.92 9.41C11.93 9.38 11.95 9.37 11.96 9.36C11.96 9.36 11.97 9.36 11.98 9.34H11.99H12C12 9.34 12.01 9.35 12.02 9.36C12.04 9.37 12.05 9.39 12.06 9.41C12.08 9.39 12.1 9.38 12.12 9.38C12.12 9.38 12.12 9.38 12.13 9.38H12.15V9.54L12.05 9.59H11.91L11.93 9.6ZM11.86 9.52L11.94 9.56H12.06L12.14 9.52V9.42C12.14 9.42 12.09 9.44 12.09 9.47H12.06C12.06 9.41 12.04 9.4 12.02 9.39C12.02 9.39 12.02 9.39 12.01 9.39C12.01 9.39 12.01 9.39 12 9.39C11.98 9.41 11.97 9.42 11.96 9.47H11.93C11.93 9.47 11.91 9.42 11.88 9.42V9.52H11.86Z" fill="black"/>
<path d="M11.93 9.8L11.78 9.7V9.58C11.83 9.59 11.89 9.6 11.9 9.66C11.92 9.57 11.95 9.52 12 9.48C12.05 9.52 12.09 9.56 12.1 9.66C12.1 9.59 12.17 9.59 12.22 9.58V9.7L12.07 9.8H11.93Z" fill="white"/>
<path d="M12.08 9.82H11.93L11.77 9.71V9.56H11.79C11.79 9.56 11.8 9.56 11.81 9.56C11.84 9.56 11.88 9.58 11.9 9.6C11.92 9.54 11.95 9.5 12 9.46C12.05 9.49 12.08 9.54 12.1 9.6C12.12 9.57 12.16 9.57 12.19 9.56C12.19 9.56 12.2 9.56 12.21 9.56H12.23V9.71L12.07 9.82H12.08ZM11.93 9.78H12.06L12.2 9.68V9.59C12.2 9.59 12.12 9.61 12.12 9.65H12.09C12.07 9.58 12.05 9.53 12 9.49C11.95 9.53 11.93 9.57 11.91 9.65H11.88C11.88 9.65 11.85 9.6 11.8 9.59V9.68L11.94 9.78H11.93Z" fill="black"/>
<path d="M11.92 10.14L11.75 9.99V9.81C11.81 9.83 11.88 9.84 11.89 9.93C11.91 9.79 11.95 9.72 12.01 9.67C12.07 9.72 12.11 9.79 12.13 9.93C12.13 9.83 12.21 9.83 12.27 9.81V9.99L12.1 10.14H11.94H11.92ZM12.24 10.35L12.08 10.57H11.9L11.74 10.35H12.23H12.24ZM11.65 10.71C11.73 10.75 11.76 10.84 11.77 11H12.21C12.21 10.84 12.25 10.75 12.33 10.71H11.65Z" fill="white"/>
<path d="M12.23 11.02H11.75V11C11.75 10.84 11.71 10.76 11.64 10.72L11.58 10.69H12.39L12.33 10.72C12.26 10.76 12.23 10.83 12.22 11V11.02H12.23ZM11.79 10.99H12.2C12.2 10.88 12.23 10.79 12.28 10.73H11.71C11.77 10.79 11.78 10.87 11.79 10.99ZM12.09 10.58H11.89L11.71 10.33H12.27L12.09 10.58ZM11.91 10.55H12.07L12.2 10.37H11.77L11.9 10.55H11.91ZM11.91 10.16L11.72 10V9.79H11.74C11.74 9.79 11.75 9.8 11.76 9.8C11.8 9.81 11.84 9.82 11.87 9.86C11.89 9.77 11.93 9.71 11.98 9.66H11.99H12C12.06 9.71 12.09 9.77 12.11 9.86C12.14 9.82 12.18 9.81 12.22 9.8C12.22 9.8 12.23 9.8 12.24 9.8H12.26V10.01L12.08 10.17H11.9L11.91 10.16ZM11.76 9.98L11.92 10.12H12.07L12.23 9.98V9.83C12.18 9.84 12.13 9.86 12.13 9.93H12.1C12.08 9.82 12.05 9.75 12 9.69C11.95 9.74 11.92 9.81 11.9 9.93H11.87C11.87 9.86 11.82 9.84 11.77 9.83V9.98H11.76Z" fill="black"/>
<path d="M12.34 10.35V10.13C12.27 10.15 12.22 10.19 12.2 10.26C12.2 10.19 12.1 10.02 12 9.94C11.9 10.03 11.8 10.18 11.8 10.26C11.78 10.2 11.73 10.16 11.66 10.13V10.35H12.35H12.34Z" fill="white"/>
<path d="M12.34 10.36H11.65L11.63 10.34V10.12L11.65 10.1C11.71 10.12 11.75 10.15 11.78 10.19C11.81 10.1 11.89 9.98 11.98 9.91H12C12.09 9.98 12.17 10.11 12.2 10.2C12.23 10.16 12.27 10.13 12.33 10.11L12.35 10.13V10.35L12.33 10.37L12.34 10.36ZM11.67 10.33H12.33V10.15C12.27 10.17 12.23 10.21 12.22 10.26H12.19C12.19 10.19 12.1 10.03 12.01 9.95C11.91 10.04 11.82 10.18 11.83 10.25H11.8C11.8 10.25 11.74 10.17 11.69 10.15V10.33H11.67Z" fill="black"/>
<path d="M12.38 10.71V10.49C12.3 10.51 12.24 10.55 12.22 10.62C12.22 10.55 12.12 10.38 12 10.3C11.89 10.39 11.78 10.54 11.78 10.62C11.76 10.56 11.7 10.52 11.62 10.49V10.71H12.38Z" fill="white"/>
<path d="M12.38 10.73H11.62L11.6 10.71V10.49L11.62 10.47C11.69 10.49 11.74 10.52 11.77 10.56C11.8 10.47 11.89 10.35 11.99 10.27H12.01C12.11 10.34 12.2 10.47 12.23 10.56C12.26 10.52 12.31 10.48 12.38 10.47L12.4 10.49V10.71L12.38 10.73ZM11.64 10.7H12.36V10.52C12.3 10.54 12.25 10.58 12.23 10.63H12.2C12.2 10.56 12.1 10.4 12 10.32C11.89 10.41 11.79 10.55 11.8 10.62H11.77C11.77 10.62 11.71 10.54 11.64 10.52V10.7Z" fill="black"/>
<path d="M12.47 11.16V10.91C12.37 10.94 12.3 11.01 12.27 11.06C12.27 10.92 12.12 10.71 12 10.65C11.88 10.72 11.73 10.94 11.73 11.06C11.7 11.02 11.63 10.94 11.53 10.91V11.16H12.47Z" fill="white"/>
<path d="M12.47 11.18H11.53L11.51 11.16V10.91L11.53 10.89C11.61 10.91 11.67 10.96 11.71 11.01C11.74 10.87 11.88 10.69 11.99 10.62H12.01C12.12 10.68 12.26 10.87 12.29 11.01C12.34 10.95 12.4 10.91 12.47 10.89L12.49 10.91V11.16L12.47 11.18ZM11.54 11.15H12.45V10.94C12.39 10.96 12.33 11.01 12.28 11.07H12.25C12.25 10.94 12.11 10.74 11.99 10.67C11.88 10.74 11.73 10.94 11.73 11.06H11.7C11.7 11.06 11.61 10.96 11.53 10.94V11.15H11.54Z" fill="black"/>
<path d="M12.41 11.72V11.46C12.32 11.5 12.29 11.58 12.26 11.64C12.27 11.38 12.11 11.09 11.99 11.02C11.87 11.09 11.71 11.38 11.72 11.64C11.69 11.58 11.66 11.49 11.57 11.46V11.72H12.4H12.41Z" fill="white"/>
<path d="M12.41 11.74H11.58L11.56 11.72V11.46L11.58 11.44C11.65 11.47 11.68 11.52 11.7 11.56C11.71 11.31 11.87 11.06 11.98 11H12C12.11 11.07 12.26 11.31 12.28 11.56C12.3 11.51 12.34 11.46 12.4 11.44L12.42 11.46V11.72L12.4 11.74H12.41ZM11.6 11.71H12.4V11.49C12.34 11.52 12.32 11.58 12.3 11.63C12.3 11.63 12.3 11.65 12.29 11.66H12.26C12.27 11.4 12.12 11.13 12.01 11.05C11.9 11.13 11.74 11.4 11.76 11.65H11.73C11.73 11.65 11.73 11.64 11.72 11.63C11.7 11.58 11.67 11.53 11.62 11.5V11.72L11.6 11.71Z" fill="black"/>
<path d="M12.35 12.12V11.86C12.26 11.88 12.25 11.92 12.22 11.98C12.23 11.82 12.12 11.64 12 11.57C11.88 11.64 11.77 11.82 11.78 11.98C11.75 11.92 11.75 11.89 11.65 11.86V12.12H12.35Z" fill="white"/>
<path d="M12.37 12.13H11.63V11.83H11.65C11.72 11.85 11.74 11.87 11.76 11.9C11.78 11.75 11.88 11.61 11.99 11.54C12.09 11.6 12.2 11.75 12.22 11.9C12.24 11.87 12.27 11.85 12.33 11.83H12.35V12.12L12.37 12.13ZM11.66 12.1H12.33V11.88C12.27 11.9 12.26 11.92 12.24 11.96C12.24 11.96 12.24 11.97 12.23 11.98L12.19 12.05V11.97C12.21 11.82 12.1 11.65 11.99 11.58C11.88 11.65 11.77 11.82 11.79 11.97V12.05L11.76 11.98C11.76 11.98 11.76 11.96 11.75 11.96C11.73 11.92 11.72 11.9 11.66 11.88V12.1Z" fill="black"/>
<path d="M8.3 13.08V12.3C8.27 12.2 8.19 12.11 8.13 12.09V11.4L8.27 11.48L8.43 12.2V13.08H8.3Z" fill="white"/>
<path d="M8.45 13.1H8.28V12.3C8.26 12.21 8.18 12.12 8.12 12.11H8.11V11.37L8.29 11.47L8.46 12.2V13.1H8.45ZM8.31 13.06H8.41V12.2L8.25 11.49L8.14 11.43V12.08C8.21 12.11 8.29 12.19 8.31 12.29V13.06Z" fill="black"/>
<path d="M8.3 13.08V12.29C8.27 12.19 8.19 12.1 8.13 12.08V11.34C8.23 11.34 8.27 11.47 8.27 11.47L8.43 12.19V13.07H8.3V13.08Z" fill="white"/>
<path d="M8.28 13.1V12.3C8.26 12.21 8.18 12.12 8.12 12.11H8.11V11.34H8.13C8.24 11.34 8.29 11.47 8.29 11.48L8.46 12.21V13.11H8.29L8.28 13.1ZM8.14 12.08C8.21 12.11 8.29 12.19 8.31 12.29V13.06H8.41V12.2L8.25 11.48C8.25 11.48 8.21 11.38 8.14 11.37V12.08Z" fill="black"/>
<path d="M8.19 13.28C8.26 13.25 8.35 13.17 8.35 13.09V12.11L8.3 12.03H9.97L9.9 12.11V13.09C9.9 13.17 9.97 13.25 10.03 13.28H8.17H8.19Z" fill="white"/>
<path d="M10.13 13.3H8.11L8.18 13.27C8.24 13.24 8.33 13.16 8.33 13.09V12.11L8.27 12.01H10.01L9.93 12.11V13.08C9.93 13.16 9.99 13.23 10.05 13.26L10.12 13.29L10.13 13.3ZM8.26 13.27H9.99C9.94 13.23 9.9 13.16 9.9 13.09V12.1L9.95 12.04H8.34L8.37 12.1V13.09C8.37 13.16 8.31 13.23 8.25 13.27H8.26Z" fill="black"/>
<path d="M9.71 13.28C9.64 13.25 9.55 13.17 9.55 13.09V12.16L9.69 12.03H8.55L8.69 12.16V13.09C8.69 13.17 8.59 13.25 8.53 13.28H9.71Z" fill="white"/>
<path d="M9.79 13.3H8.44L8.51 13.27C8.57 13.24 8.66 13.16 8.66 13.09V12.16L8.49 12.01H9.71L9.54 12.16V13.09C9.54 13.16 9.63 13.24 9.69 13.27L9.76 13.3H9.79ZM8.59 13.27H9.65C9.59 13.23 9.53 13.16 9.53 13.09V12.15L9.64 12.05H8.59L8.7 12.15V13.09C8.7 13.16 8.64 13.23 8.58 13.27H8.59Z" fill="black"/>
<path d="M9.56 13.28C9.49 13.25 9.4 13.17 9.4 13.09V12.25L9.49 12.12H8.77L8.86 12.25V13.09C8.86 13.17 8.76 13.25 8.7 13.28H9.57H9.56Z" fill="white"/>
<path d="M9.64 13.3H8.61L8.68 13.27C8.74 13.24 8.83 13.16 8.83 13.09V12.25L8.72 12.1H9.51L9.4 12.25V13.09C9.4 13.16 9.49 13.24 9.55 13.27L9.62 13.3H9.64ZM8.76 13.27H9.5C9.44 13.23 9.38 13.16 9.38 13.09V12.24L9.45 12.13H8.79L8.86 12.24V13.09C8.86 13.16 8.8 13.23 8.74 13.27H8.76Z" fill="black"/>
<path d="M8.95 12.12H9.29V13.29H8.95V12.12Z" fill="white"/>
<path d="M9.32 13.3H8.94V12.1H9.32V13.3ZM8.97 13.27H9.28V12.14H8.97V13.27Z" fill="black"/>
<path d="M8.48 12.44H8.62V13.07H8.48V12.44ZM9.62 12.44H9.76V13.07H9.62V12.44ZM8.36 11.37H8.53V12.02H8.36V11.37ZM8.36 11.25H8.52V11.37H8.36V11.25Z" fill="white"/>
<path d="M9.76 13.09H9.62L9.6 13.07V12.44L9.62 12.42H9.76L9.78 12.44V13.07L9.76 13.09ZM9.64 13.06H9.75V12.46H9.64V13.06ZM8.62 13.09H8.48L8.46 13.07V12.44L8.48 12.42H8.62L8.64 12.44V13.07L8.62 13.09ZM8.49 13.06H8.6V12.46H8.49V13.06ZM8.53 12.04H8.36L8.34 12.02V11.25L8.36 11.23H8.52L8.54 11.25V11.37V12.02L8.52 12.04H8.53ZM8.38 12.01H8.51V11.39H8.38V12.01ZM8.38 11.36H8.51V11.27H8.38V11.36Z" fill="black"/>
<path d="M9.73 11.51H9.97V12.01H9.73V11.51Z" fill="white"/>
<path d="M9.96 12.03H9.72L9.7 12.01V11.51L9.72 11.49H9.96L9.98 11.51V12.01L9.96 12.03ZM9.74 12H9.94V11.54H9.74V12Z" fill="black"/>
<path d="M8.52 12.02V10.91C8.52 10.91 8.57 11.07 8.68 11.07C8.74 11.07 8.73 11 8.7 10.95C8.67 10.9 8.64 10.83 8.68 10.71C8.71 10.81 8.8 10.84 8.78 10.78C8.75 10.68 8.67 10.66 8.73 10.5C8.75 10.63 8.84 10.63 8.82 10.55C8.8 10.46 8.75 10.43 8.81 10.3C8.84 10.44 8.89 10.43 8.89 10.34C8.89 10.21 8.89 10.07 9.05 10.02C9.05 10.02 9.05 9.9 9.12 9.9C9.19 9.9 9.19 10.02 9.19 10.02C9.36 10.07 9.35 10.21 9.35 10.34C9.35 10.43 9.4 10.44 9.43 10.3C9.49 10.42 9.44 10.46 9.42 10.55C9.4 10.63 9.48 10.63 9.51 10.5C9.57 10.66 9.49 10.68 9.46 10.78C9.44 10.84 9.53 10.81 9.56 10.71C9.61 10.84 9.57 10.9 9.54 10.95C9.51 11 9.5 11.07 9.56 11.07C9.67 11.07 9.68 10.91 9.72 10.91V12.02H8.51H8.52ZM8.26 11.18V12.03H8.36V11.18C8.36 11.18 8.29 11.16 8.26 11.18Z" fill="white"/>
<path d="M8.38 12.04H8.25V11.17C8.25 11.17 8.32 11.14 8.36 11.17V12.05L8.38 12.04ZM8.28 12.01H8.34V11.19C8.34 11.19 8.3 11.18 8.28 11.19V12.01ZM9.75 12.04H8.5V10.89H8.52C8.52 10.89 8.56 10.92 8.58 10.96C8.6 11.01 8.63 11.06 8.68 11.06C8.69 11.06 8.7 11.06 8.7 11.06C8.7 11.04 8.7 11.01 8.68 10.97C8.65 10.93 8.61 10.85 8.66 10.71L8.68 10.66L8.7 10.71C8.72 10.77 8.76 10.79 8.77 10.8C8.77 10.77 8.75 10.75 8.74 10.73C8.71 10.68 8.68 10.63 8.73 10.51L8.75 10.45V10.52C8.77 10.58 8.79 10.61 8.8 10.61C8.8 10.61 8.8 10.6 8.8 10.58C8.8 10.56 8.79 10.54 8.78 10.53C8.76 10.47 8.74 10.43 8.78 10.33L8.8 10.29V10.34C8.83 10.41 8.84 10.43 8.85 10.43C8.85 10.43 8.85 10.41 8.85 10.39C8.85 10.26 8.85 10.11 9.01 10.06C9.01 10.03 9.03 9.94 9.1 9.94C9.17 9.94 9.18 10.03 9.19 10.06C9.35 10.12 9.35 10.26 9.35 10.38C9.35 10.38 9.35 10.43 9.35 10.44C9.35 10.44 9.37 10.41 9.39 10.35V10.3L9.42 10.34C9.47 10.44 9.45 10.49 9.42 10.54C9.42 10.56 9.41 10.57 9.4 10.59C9.4 10.61 9.4 10.62 9.4 10.62C9.41 10.62 9.43 10.59 9.44 10.53V10.46L9.47 10.52C9.51 10.64 9.49 10.69 9.46 10.74C9.45 10.76 9.43 10.78 9.43 10.81C9.44 10.81 9.48 10.78 9.5 10.72L9.52 10.67L9.54 10.72C9.59 10.86 9.54 10.93 9.52 10.98C9.5 11.01 9.49 11.05 9.5 11.07C9.5 11.07 9.5 11.07 9.52 11.07C9.57 11.07 9.6 11.02 9.62 10.97C9.64 10.93 9.65 10.9 9.68 10.9H9.7V12.05L9.75 12.04ZM8.54 12H9.72V10.94C9.72 10.94 9.72 10.96 9.71 10.97C9.69 11.02 9.65 11.09 9.58 11.09C9.55 11.09 9.54 11.08 9.53 11.06C9.51 11.03 9.53 10.97 9.55 10.94C9.57 10.9 9.6 10.85 9.58 10.76C9.55 10.81 9.51 10.83 9.48 10.83C9.46 10.83 9.45 10.81 9.46 10.78C9.46 10.75 9.48 10.72 9.5 10.7C9.52 10.66 9.54 10.63 9.53 10.57C9.52 10.6 9.5 10.62 9.48 10.63C9.46 10.63 9.45 10.63 9.44 10.63C9.43 10.62 9.42 10.59 9.43 10.56C9.43 10.54 9.44 10.52 9.45 10.5C9.47 10.46 9.48 10.43 9.46 10.37C9.44 10.42 9.42 10.45 9.4 10.44C9.39 10.44 9.36 10.43 9.36 10.36C9.36 10.22 9.36 10.1 9.21 10.06H9.2V10.04C9.2 10.01 9.18 9.94 9.15 9.94C9.12 9.94 9.1 10.02 9.1 10.04L9.09 10.06C8.94 10.11 8.94 10.23 8.94 10.35C8.94 10.43 8.92 10.44 8.9 10.44C8.88 10.44 8.86 10.42 8.84 10.37C8.82 10.43 8.84 10.46 8.85 10.5C8.85 10.52 8.86 10.54 8.87 10.56C8.87 10.59 8.87 10.61 8.86 10.63C8.85 10.64 8.83 10.64 8.82 10.63C8.8 10.63 8.78 10.6 8.77 10.57C8.76 10.63 8.77 10.66 8.8 10.7C8.81 10.72 8.83 10.75 8.84 10.78C8.84 10.81 8.84 10.83 8.82 10.83C8.79 10.83 8.75 10.81 8.72 10.76C8.7 10.86 8.72 10.91 8.75 10.94C8.77 10.98 8.79 11.03 8.77 11.06C8.77 11.07 8.75 11.09 8.72 11.09C8.64 11.09 8.61 11.02 8.59 10.97C8.59 10.97 8.59 10.95 8.58 10.94V12H8.54Z" fill="black"/>
<path d="M8.27 11.73C8.39 11.79 8.51 11.86 8.54 12.03H8.27V11.73ZM9.93 11.47V12.02H10.01V11.47C10.01 11.47 9.95 11.46 9.93 11.47Z" fill="white"/>
<path d="M10.02 12.04H9.91V11.46C9.91 11.46 9.98 11.44 10.01 11.46V12.05L10.02 12.04ZM9.94 12.01H9.98V11.48C9.98 11.48 9.95 11.48 9.94 11.48V12.01ZM8.56 12.04H8.25V11.7H8.28C8.41 11.78 8.53 11.85 8.56 12.02V12.04ZM8.28 12.01H8.51C8.48 11.88 8.39 11.81 8.28 11.76V12.01Z" fill="black"/>
<path d="M10 11.72C9.88 11.78 9.76 11.85 9.73 12.02H10V11.72ZM9.21 10.43L9.28 10.37V10.3C9.28 10.3 9.24 10.31 9.22 10.34C9.2 10.29 9.17 10.25 9.12 10.23C9.07 10.25 9.04 10.29 9.02 10.34C9 10.32 8.99 10.31 8.96 10.31V10.38L9.03 10.44H9.2L9.21 10.43Z" fill="white"/>
<path d="M10.02 12.04H9.71V12.02C9.74 11.85 9.86 11.77 9.99 11.71H10.02V12.04ZM9.76 12.01H9.99V11.76C9.89 11.82 9.79 11.88 9.76 12.01ZM9.22 10.45H9.03L8.95 10.38V10.28H8.97C8.97 10.28 9.01 10.28 9.02 10.3C9.04 10.26 9.07 10.23 9.12 10.21C9.16 10.23 9.2 10.27 9.22 10.31C9.23 10.3 9.25 10.29 9.27 10.29H9.29V10.39L9.21 10.46L9.22 10.45ZM9.05 10.41H9.21L9.27 10.36V10.31C9.27 10.31 9.25 10.32 9.24 10.33L9.22 10.36V10.33C9.22 10.33 9.17 10.25 9.13 10.23C9.09 10.25 9.06 10.29 9.05 10.33V10.36L9.02 10.33C9.01 10.32 9 10.31 8.99 10.31V10.36L9.05 10.41Z" fill="black"/>
<path d="M9.25 10.62L9.28 10.55V10.45C9.28 10.45 9.24 10.46 9.22 10.49C9.2 10.44 9.17 10.4 9.12 10.38C9.07 10.4 9.04 10.44 9.02 10.49C9 10.47 8.99 10.46 8.96 10.46V10.56L8.99 10.63H9.24L9.25 10.62Z" fill="white"/>
<path d="M8.99 10.64L8.95 10.56V10.44H8.97C8.97 10.44 9.01 10.44 9.02 10.46C9.04 10.42 9.07 10.39 9.12 10.36C9.16 10.38 9.2 10.42 9.22 10.46C9.23 10.45 9.25 10.44 9.27 10.44H9.29V10.56L9.25 10.64H8.98H8.99ZM8.99 10.55L9.02 10.61H9.25L9.28 10.55V10.48C9.28 10.48 9.26 10.49 9.25 10.51L9.23 10.54V10.51C9.23 10.51 9.18 10.43 9.14 10.41C9.1 10.43 9.07 10.47 9.06 10.51V10.54L9.03 10.51C9.02 10.5 9.01 10.49 9 10.49V10.56L8.99 10.55Z" fill="black"/>
<path d="M9.26 10.87L9.36 10.74V10.62C9.36 10.62 9.3 10.64 9.27 10.68C9.25 10.59 9.19 10.58 9.12 10.53C9.05 10.57 9 10.59 8.97 10.67C8.94 10.63 8.92 10.62 8.88 10.61V10.73L8.98 10.86H9.24L9.26 10.87Z" fill="white"/>
<path d="M9.26 10.89H8.99L8.88 10.75V10.6H8.9C8.9 10.6 8.96 10.62 8.98 10.64C9 10.58 9.05 10.56 9.09 10.54C9.09 10.54 9.11 10.53 9.12 10.52C9.12 10.52 9.14 10.53 9.15 10.54C9.2 10.57 9.24 10.59 9.27 10.65C9.29 10.62 9.32 10.61 9.35 10.61H9.37V10.76L9.26 10.9V10.89ZM9.01 10.86H9.25L9.34 10.74V10.64C9.34 10.64 9.3 10.66 9.29 10.69L9.27 10.72V10.68C9.24 10.61 9.2 10.59 9.15 10.56C9.15 10.56 9.14 10.56 9.13 10.55C9.13 10.55 9.11 10.55 9.11 10.56C9.06 10.59 9.02 10.61 9 10.67V10.71L8.97 10.68C8.95 10.65 8.94 10.64 8.92 10.63V10.73L9.01 10.85V10.86Z" fill="black"/>
<path d="M9.29 11.12C9.29 11.12 9.41 11.01 9.42 10.96V10.83C9.42 10.83 9.33 10.85 9.29 10.9C9.26 10.79 9.21 10.76 9.13 10.71C9.04 10.76 9 10.79 8.97 10.9C8.94 10.85 8.89 10.83 8.84 10.83V10.96C8.86 11.02 8.97 11.12 8.97 11.12H9.29Z" fill="white"/>
<path d="M9.29 11.14H8.96C8.95 11.13 8.84 11.03 8.83 10.97V10.81H8.85C8.85 10.81 8.93 10.83 8.97 10.86C9 10.77 9.05 10.74 9.13 10.69C9.21 10.74 9.26 10.77 9.29 10.86C9.32 10.82 9.37 10.81 9.41 10.81H9.43V10.96C9.43 11.02 9.31 11.12 9.3 11.14H9.29ZM8.97 11.11H9.28C9.28 11.11 9.39 11 9.4 10.96V10.85C9.4 10.85 9.33 10.87 9.31 10.91L9.29 10.94V10.9C9.25 10.8 9.22 10.77 9.13 10.72C9.05 10.77 9.01 10.8 8.98 10.9V10.94L8.95 10.91C8.92 10.87 8.9 10.86 8.86 10.85V10.96C8.86 10.96 8.94 11.08 8.98 11.11H8.97Z" fill="black"/>
<path d="M9.34 11.59C9.34 11.59 9.51 11.41 9.51 11.34V11.13C9.45 11.13 9.39 11.18 9.34 11.27C9.3 11.1 9.24 10.98 9.13 10.9C9.02 10.98 8.95 11.1 8.92 11.27C8.87 11.18 8.82 11.14 8.75 11.13V11.34C8.76 11.41 8.92 11.59 8.92 11.59H9.34Z" fill="white"/>
<path d="M9.34 11.6H8.9C8.88 11.58 8.74 11.41 8.73 11.34V11.11H8.75C8.81 11.12 8.86 11.16 8.91 11.22C8.95 11.06 9.02 10.95 9.12 10.88H9.13H9.14C9.24 10.96 9.31 11.06 9.35 11.22C9.39 11.16 9.45 11.12 9.51 11.11H9.53V11.33C9.53 11.41 9.37 11.58 9.36 11.6H9.34ZM8.92 11.57H9.33C9.38 11.52 9.49 11.38 9.49 11.33V11.14C9.44 11.15 9.39 11.2 9.36 11.26L9.34 11.3V11.25C9.29 11.08 9.23 10.97 9.13 10.89C9.03 10.97 8.97 11.07 8.93 11.25V11.3L8.9 11.26C8.86 11.19 8.82 11.15 8.77 11.14V11.32C8.78 11.37 8.88 11.5 8.93 11.56L8.92 11.57Z" fill="black"/>
<path d="M9.34 11.86C9.34 11.86 9.48 11.72 9.51 11.65V11.44C9.45 11.44 9.39 11.49 9.34 11.58C9.3 11.41 9.24 11.31 9.13 11.23C9.02 11.31 8.95 11.41 8.92 11.58C8.87 11.49 8.82 11.45 8.75 11.44V11.65C8.79 11.71 8.92 11.86 8.92 11.86H9.34Z" fill="white"/>
<path d="M9.34 11.88H8.9C8.9 11.88 8.77 11.73 8.73 11.67V11.43H8.75C8.81 11.44 8.86 11.48 8.91 11.54C8.95 11.39 9.01 11.3 9.12 11.22H9.13H9.14C9.25 11.3 9.31 11.39 9.35 11.54C9.39 11.48 9.45 11.44 9.51 11.43H9.53V11.66C9.5 11.73 9.36 11.87 9.36 11.87L9.34 11.88ZM8.92 11.84H9.33C9.33 11.84 9.46 11.7 9.49 11.65V11.47C9.44 11.48 9.39 11.53 9.36 11.59L9.34 11.63V11.58C9.29 11.42 9.24 11.32 9.13 11.24C9.02 11.32 8.97 11.42 8.93 11.58V11.63L8.9 11.59C8.86 11.52 8.82 11.48 8.77 11.47V11.65C8.8 11.7 8.91 11.82 8.93 11.84H8.92Z" fill="black"/>
<path d="M9.4 12.02C9.36 11.84 9.32 11.71 9.12 11.57C8.92 11.7 8.89 11.84 8.84 12.02H9.39H9.4Z" fill="white"/>
<path d="M9.42 12.03H8.83V12.01C8.87 11.84 8.91 11.7 9.12 11.55C9.33 11.69 9.36 11.84 9.4 12.01V12.03H9.42ZM8.87 12H9.38C9.34 11.83 9.3 11.71 9.13 11.59C8.96 11.71 8.92 11.83 8.88 12H8.87Z" fill="black"/>
<path d="M9.5 12.12V11.86C9.41 11.9 9.33 11.95 9.3 12.01C9.27 11.87 9.2 11.8 9.12 11.72C9.04 11.81 8.99 11.87 8.95 12.01C8.92 11.95 8.84 11.9 8.75 11.86V12.12H9.5Z" fill="white"/>
<path d="M9.52 12.13H8.74V11.83H8.76C8.84 11.87 8.91 11.91 8.95 11.96C8.98 11.84 9.04 11.78 9.11 11.69H9.12L9.15 11.7C9.22 11.77 9.28 11.84 9.31 11.95C9.35 11.9 9.41 11.86 9.5 11.83H9.52V12.12V12.13ZM8.77 12.1H9.49V11.88C9.41 11.92 9.34 11.96 9.32 12.01L9.3 12.05V12C9.26 11.87 9.2 11.81 9.13 11.73C9.06 11.81 9.01 11.87 8.98 12V12.05L8.95 12.01C8.93 11.97 8.86 11.92 8.78 11.88V12.1H8.77Z" fill="black"/>
<path d="M15.7 13.08V12.3C15.73 12.2 15.81 12.11 15.87 12.09V11.4L15.73 11.48L15.57 12.2V13.08H15.7Z" fill="white"/>
<path d="M15.72 13.1H15.55V12.2L15.72 11.47L15.9 11.37V12.1H15.89C15.83 12.12 15.75 12.2 15.73 12.3V13.1H15.72ZM15.59 13.06H15.69V12.29C15.72 12.19 15.8 12.1 15.86 12.08V11.43L15.75 11.49L15.59 12.2V13.06Z" fill="black"/>
<path d="M15.7 13.08V12.29C15.73 12.19 15.81 12.1 15.87 12.08V11.34C15.77 11.34 15.73 11.47 15.73 11.47L15.57 12.19V13.07H15.7V13.08Z" fill="white"/>
<path d="M15.72 13.1H15.55V12.19L15.71 11.47C15.71 11.47 15.76 11.33 15.87 11.33H15.89V12.1H15.88C15.82 12.12 15.74 12.2 15.72 12.3V13.1ZM15.59 13.06H15.69V12.29C15.72 12.19 15.8 12.1 15.86 12.08V11.37C15.79 11.38 15.75 11.48 15.75 11.48L15.59 12.2V13.06Z" fill="black"/>
<path d="M15.8 13.28C15.73 13.25 15.64 13.17 15.64 13.09V12.11L15.69 12.03H14.02L14.09 12.11V13.09C14.09 13.17 14.02 13.25 13.96 13.28H15.82H15.8Z" fill="white"/>
<path d="M15.88 13.3H13.86L13.93 13.27C13.99 13.24 14.05 13.17 14.05 13.09V12.12L13.97 12.02H15.71L15.65 12.12V13.1C15.65 13.17 15.74 13.25 15.8 13.28L15.87 13.31L15.88 13.3ZM14.01 13.27H15.74C15.68 13.23 15.62 13.16 15.62 13.09V12.1L15.65 12.04H14.04L14.09 12.1V13.09C14.09 13.16 14.05 13.23 14 13.27H14.01Z" fill="black"/>
<path d="M14.28 13.28C14.35 13.25 14.44 13.17 14.44 13.09V12.16L14.3 12.03H15.44L15.3 12.16V13.09C15.3 13.17 15.4 13.25 15.46 13.28H14.28Z" fill="white"/>
<path d="M15.55 13.3H14.2L14.27 13.27C14.33 13.24 14.42 13.16 14.42 13.09V12.16L14.25 12.01H15.47L15.3 12.16V13.09C15.3 13.16 15.39 13.24 15.45 13.27L15.52 13.3H15.55ZM14.35 13.27H15.41C15.35 13.23 15.29 13.16 15.29 13.09V12.15L15.4 12.05H14.35L14.46 12.15V13.09C14.46 13.16 14.4 13.23 14.34 13.27H14.35Z" fill="black"/>
<path d="M14.44 13.28C14.51 13.25 14.6 13.17 14.6 13.09V12.25L14.51 12.12H15.23L15.14 12.25V13.09C15.14 13.17 15.24 13.25 15.3 13.28H14.43H14.44Z" fill="white"/>
<path d="M15.38 13.3H14.35L14.42 13.27C14.48 13.24 14.57 13.16 14.57 13.09V12.25L14.46 12.1H15.25L15.14 12.25V13.09C15.14 13.16 15.23 13.24 15.29 13.27L15.36 13.3H15.38ZM14.5 13.27H15.24C15.18 13.23 15.12 13.16 15.12 13.09V12.24L15.19 12.13H14.53L14.6 12.24V13.09C14.6 13.16 14.54 13.23 14.48 13.27H14.5Z" fill="black"/>
<path d="M15.04 12.12H14.7V13.29H15.04V12.12Z" fill="white"/>
<path d="M15.06 13.3H14.68V12.1H15.06V13.3ZM14.72 13.27H15.03V12.14H14.72V13.27Z" fill="black"/>
<path d="M15.52 12.44H15.38V13.07H15.52V12.44ZM14.37 12.44H14.23V13.07H14.37V12.44ZM15.64 11.37H15.47V12.02H15.64V11.37ZM15.64 11.25H15.48V11.37H15.64V11.25Z" fill="white"/>
<path d="M15.52 13.09H15.38L15.36 13.07V12.44L15.38 12.42H15.52L15.54 12.44V13.07L15.52 13.09ZM15.4 13.06H15.51V12.46H15.4V13.06ZM14.37 13.09H14.23L14.21 13.07V12.44L14.23 12.42H14.37L14.39 12.44V13.07L14.37 13.09ZM14.25 13.06H14.36V12.46H14.25V13.06ZM15.64 12.04H15.47L15.45 12.02V11.37V11.25L15.47 11.23H15.63L15.65 11.25V12.02L15.63 12.04H15.64ZM15.49 12.01H15.62V11.39H15.49V12.01ZM15.49 11.36H15.62V11.27H15.49V11.36Z" fill="black"/>
<path d="M14.27 11.51H14.03V12.01H14.27V11.51Z" fill="white"/>
<path d="M14.27 12.03H14.03L14.01 12.01V11.51L14.03 11.49H14.27L14.29 11.51V12.01L14.27 12.03ZM14.05 12H14.25V11.54H14.05V12Z" fill="black"/>
<path d="M15.47 12.02V10.91C15.47 10.91 15.42 11.07 15.31 11.07C15.25 11.07 15.26 11 15.29 10.95C15.32 10.9 15.35 10.83 15.31 10.71C15.28 10.81 15.19 10.84 15.21 10.78C15.24 10.68 15.32 10.66 15.26 10.5C15.24 10.63 15.15 10.63 15.17 10.55C15.19 10.46 15.24 10.43 15.18 10.3C15.15 10.44 15.1 10.43 15.1 10.34C15.1 10.21 15.1 10.07 14.94 10.02C14.94 10.02 14.94 9.9 14.87 9.9C14.8 9.9 14.8 10.02 14.8 10.02C14.63 10.07 14.64 10.21 14.64 10.34C14.64 10.43 14.59 10.44 14.56 10.3C14.5 10.42 14.55 10.46 14.57 10.55C14.59 10.63 14.51 10.63 14.48 10.5C14.42 10.66 14.5 10.68 14.53 10.78C14.55 10.84 14.46 10.81 14.43 10.71C14.38 10.84 14.42 10.9 14.45 10.95C14.48 11 14.49 11.07 14.43 11.07C14.32 11.07 14.31 10.91 14.27 10.91V12.02H15.48H15.47ZM15.73 11.18V12.03H15.63V11.18C15.63 11.18 15.7 11.16 15.73 11.18Z" fill="white"/>
<path d="M15.75 12.04H15.62V11.16C15.62 11.16 15.7 11.13 15.73 11.16V12.04H15.75ZM15.65 12.01H15.71V11.19C15.71 11.19 15.67 11.18 15.65 11.19V12.01ZM14.25 12.04V10.89H14.27C14.27 10.89 14.31 10.92 14.33 10.96C14.35 11.01 14.38 11.06 14.43 11.06C14.44 11.06 14.45 11.06 14.45 11.06C14.45 11.04 14.45 11.01 14.43 10.97C14.4 10.93 14.36 10.85 14.41 10.71L14.43 10.66L14.45 10.71C14.47 10.77 14.51 10.79 14.52 10.8C14.52 10.77 14.5 10.75 14.49 10.73C14.46 10.68 14.43 10.63 14.48 10.51L14.5 10.45V10.52C14.52 10.58 14.54 10.61 14.55 10.61C14.55 10.61 14.55 10.6 14.55 10.58C14.55 10.56 14.54 10.54 14.53 10.53C14.51 10.47 14.49 10.43 14.53 10.33L14.55 10.29V10.34C14.58 10.41 14.59 10.43 14.6 10.43C14.6 10.43 14.6 10.41 14.6 10.39C14.6 10.26 14.6 10.11 14.76 10.06C14.76 10.03 14.78 9.94 14.85 9.94C14.92 9.94 14.93 10.03 14.94 10.06C15.1 10.12 15.1 10.26 15.1 10.38C15.1 10.38 15.1 10.43 15.1 10.44C15.1 10.44 15.12 10.41 15.14 10.35V10.3L15.17 10.34C15.22 10.44 15.2 10.49 15.17 10.54C15.17 10.56 15.16 10.57 15.15 10.59C15.15 10.61 15.15 10.62 15.15 10.62C15.16 10.62 15.18 10.59 15.19 10.53V10.46L15.22 10.52C15.26 10.64 15.24 10.69 15.21 10.74C15.2 10.76 15.18 10.78 15.18 10.81C15.19 10.81 15.23 10.78 15.25 10.72L15.27 10.67L15.29 10.72C15.34 10.86 15.29 10.93 15.27 10.98C15.25 11.01 15.24 11.05 15.25 11.07C15.25 11.07 15.25 11.07 15.27 11.07C15.32 11.07 15.35 11.02 15.37 10.97C15.39 10.93 15.4 10.9 15.43 10.9H15.45V12.05H14.2L14.25 12.04ZM14.28 10.95V12.01H15.46V10.95C15.46 10.95 15.46 10.97 15.45 10.98C15.43 11.03 15.39 11.1 15.32 11.1C15.29 11.1 15.28 11.09 15.27 11.07C15.25 11.04 15.27 10.98 15.29 10.95C15.31 10.91 15.34 10.86 15.32 10.77C15.29 10.82 15.25 10.84 15.22 10.84C15.2 10.84 15.19 10.82 15.2 10.79C15.2 10.76 15.22 10.73 15.24 10.71C15.26 10.67 15.28 10.64 15.27 10.58C15.26 10.61 15.24 10.63 15.22 10.64C15.2 10.64 15.19 10.64 15.18 10.64C15.17 10.63 15.16 10.6 15.17 10.57C15.17 10.55 15.18 10.53 15.19 10.51C15.21 10.47 15.22 10.44 15.2 10.38C15.18 10.43 15.16 10.46 15.14 10.45C15.13 10.45 15.1 10.44 15.1 10.37C15.1 10.23 15.1 10.11 14.95 10.07H14.94V10.05C14.94 10.02 14.92 9.95 14.89 9.95C14.86 9.95 14.84 10.03 14.84 10.05L14.83 10.07C14.68 10.12 14.68 10.24 14.68 10.36C14.68 10.44 14.66 10.45 14.64 10.45C14.62 10.45 14.6 10.43 14.58 10.38C14.56 10.44 14.58 10.47 14.59 10.51C14.59 10.53 14.6 10.55 14.61 10.57C14.61 10.6 14.61 10.62 14.6 10.64C14.59 10.65 14.57 10.65 14.56 10.64C14.54 10.64 14.52 10.61 14.51 10.58C14.5 10.64 14.51 10.67 14.54 10.71C14.55 10.73 14.57 10.76 14.58 10.79C14.58 10.82 14.58 10.84 14.56 10.84C14.53 10.84 14.49 10.82 14.46 10.77C14.44 10.87 14.46 10.92 14.49 10.95C14.51 10.98 14.53 11.04 14.51 11.07C14.51 11.08 14.49 11.1 14.46 11.1C14.38 11.1 14.35 11.03 14.33 10.98C14.33 10.98 14.33 10.96 14.32 10.95H14.28Z" fill="black"/>
<path d="M15.73 11.73C15.61 11.79 15.49 11.86 15.46 12.03H15.73V11.73ZM14.07 11.47V12.02H13.99V11.47C13.99 11.47 14.05 11.46 14.07 11.47Z" fill="white"/>
<path d="M14.09 12.04H13.98V11.46C13.98 11.46 14.05 11.44 14.08 11.46V12.04H14.09ZM14.01 12.01H14.05V11.48C14.05 11.48 14.02 11.48 14.01 11.48V12.01ZM15.75 12.04H15.44V12.02C15.47 11.85 15.59 11.77 15.72 11.71H15.75V12.04ZM15.48 12.01H15.71V11.76C15.61 11.82 15.51 11.88 15.48 12.01Z" fill="black"/>
<path d="M13.99 11.72C14.11 11.78 14.23 11.85 14.26 12.02H13.99V11.72ZM14.78 10.43L14.71 10.37V10.3C14.71 10.3 14.75 10.31 14.77 10.34C14.79 10.29 14.82 10.25 14.87 10.23C14.92 10.25 14.95 10.29 14.97 10.34C14.99 10.32 15 10.31 15.03 10.31V10.38L14.96 10.44H14.79L14.78 10.43Z" fill="white"/>
<path d="M14.28 12.04H13.97V11.7H14C14.13 11.78 14.25 11.85 14.28 12.02V12.04ZM14.01 12.01H14.24C14.21 11.88 14.12 11.81 14.01 11.76V12.01ZM14.96 10.45H14.77L14.69 10.38V10.28H14.71C14.71 10.28 14.75 10.28 14.76 10.3C14.78 10.26 14.81 10.23 14.86 10.2C14.9 10.22 14.94 10.25 14.96 10.29C14.97 10.28 14.99 10.27 15.01 10.27H15.03V10.37L14.95 10.44L14.96 10.45ZM14.79 10.41H14.95L15.01 10.36V10.31C15.01 10.31 14.99 10.32 14.98 10.33L14.96 10.36V10.33C14.96 10.33 14.91 10.26 14.87 10.23C14.83 10.25 14.8 10.29 14.79 10.33V10.36L14.76 10.33C14.75 10.32 14.74 10.31 14.73 10.31V10.36L14.79 10.41Z" fill="black"/>
<path d="M14.75 10.62L14.72 10.55V10.45C14.72 10.45 14.76 10.46 14.78 10.49C14.8 10.44 14.83 10.4 14.88 10.38C14.93 10.4 14.96 10.44 14.98 10.49C15 10.47 15.01 10.46 15.04 10.46V10.56L15.01 10.63H14.76L14.75 10.62Z" fill="white"/>
<path d="M15.01 10.64H14.74L14.7 10.56V10.44H14.72C14.72 10.44 14.76 10.45 14.77 10.46C14.79 10.42 14.82 10.38 14.87 10.36C14.91 10.38 14.95 10.42 14.97 10.46C14.98 10.45 15 10.44 15.02 10.44H15.04V10.56L15 10.64H15.01ZM14.76 10.6H14.99L15.02 10.54V10.47C15.02 10.47 15 10.48 14.99 10.49L14.97 10.52V10.49C14.97 10.49 14.92 10.42 14.88 10.39C14.84 10.41 14.81 10.45 14.8 10.49V10.52L14.77 10.49C14.76 10.48 14.75 10.47 14.74 10.46V10.53L14.77 10.59L14.76 10.6Z" fill="black"/>
<path d="M14.74 10.87L14.64 10.74V10.62C14.64 10.62 14.7 10.64 14.73 10.68C14.75 10.59 14.81 10.58 14.88 10.53C14.95 10.57 15 10.59 15.03 10.67C15.06 10.63 15.08 10.62 15.12 10.61V10.73L15.02 10.86H14.76L14.74 10.87Z" fill="white"/>
<path d="M15.01 10.89H14.74L14.63 10.75V10.6H14.65C14.65 10.6 14.71 10.62 14.73 10.64C14.75 10.58 14.8 10.56 14.85 10.53C14.85 10.53 14.87 10.53 14.88 10.51C14.89 10.51 14.9 10.52 14.91 10.53C14.96 10.56 15 10.58 15.02 10.63C15.04 10.6 15.06 10.59 15.1 10.59H15.12V10.74L15.01 10.88V10.89ZM14.75 10.86H14.99L15.08 10.74V10.64C15.08 10.64 15.05 10.66 15.03 10.69L15.01 10.72V10.68C14.98 10.62 14.95 10.6 14.89 10.57C14.89 10.57 14.87 10.57 14.87 10.56C14.87 10.56 14.86 10.56 14.85 10.57C14.79 10.6 14.76 10.62 14.74 10.69V10.73L14.71 10.7C14.69 10.67 14.68 10.66 14.66 10.65V10.75L14.75 10.87V10.86Z" fill="black"/>
<path d="M14.71 11.12C14.71 11.12 14.59 11.01 14.58 10.96V10.83C14.58 10.83 14.67 10.85 14.71 10.9C14.74 10.79 14.79 10.76 14.87 10.71C14.96 10.76 15 10.79 15.03 10.9C15.06 10.85 15.11 10.83 15.16 10.83V10.96C15.14 11.02 15.03 11.12 15.03 11.12H14.71Z" fill="white"/>
<path d="M14.71 11.14C14.71 11.14 14.58 11.02 14.58 10.96V10.81H14.6C14.64 10.81 14.68 10.82 14.72 10.86C14.75 10.77 14.8 10.74 14.88 10.69C14.96 10.74 15.01 10.77 15.04 10.86C15.07 10.82 15.12 10.81 15.16 10.81H15.18V10.96C15.16 11.02 15.06 11.12 15.05 11.13H14.72L14.71 11.14ZM14.6 10.85V10.96C14.6 10.96 14.67 11.07 14.72 11.11H15.03C15.03 11.11 15.13 11 15.15 10.96V10.85C15.15 10.85 15.08 10.87 15.06 10.91L15.04 10.94V10.9C15 10.8 14.97 10.77 14.88 10.72C14.8 10.77 14.76 10.8 14.73 10.9V10.94L14.7 10.91C14.67 10.87 14.65 10.86 14.61 10.85H14.6Z" fill="black"/>
<path d="M14.66 11.59C14.66 11.59 14.49 11.41 14.49 11.34V11.13C14.55 11.13 14.61 11.18 14.66 11.27C14.7 11.1 14.76 10.98 14.87 10.9C14.98 10.98 15.05 11.1 15.08 11.27C15.13 11.18 15.18 11.14 15.25 11.13V11.34C15.24 11.41 15.08 11.59 15.08 11.59H14.66Z" fill="white"/>
<path d="M14.65 11.6C14.65 11.6 14.48 11.4 14.48 11.33V11.1H14.5C14.56 11.1 14.61 11.15 14.66 11.21C14.7 11.05 14.77 10.94 14.87 10.87H14.88H14.89C14.99 10.95 15.06 11.05 15.1 11.21C15.14 11.15 15.2 11.11 15.26 11.1H15.28V11.33C15.27 11.4 15.12 11.57 15.11 11.59H14.67L14.65 11.6ZM14.51 11.15V11.34C14.51 11.39 14.62 11.52 14.67 11.58H15.08C15.13 11.53 15.23 11.39 15.24 11.34V11.16C15.19 11.17 15.14 11.22 15.11 11.28L15.09 11.32V11.27C15.04 11.1 14.98 10.99 14.88 10.91C14.78 10.99 14.72 11.09 14.68 11.27V11.32L14.65 11.28C14.61 11.21 14.57 11.17 14.52 11.16L14.51 11.15Z" fill="black"/>
<path d="M14.66 11.86C14.66 11.86 14.52 11.72 14.49 11.65V11.44C14.55 11.44 14.61 11.49 14.66 11.58C14.7 11.41 14.76 11.31 14.87 11.23C14.98 11.31 15.05 11.41 15.08 11.58C15.13 11.49 15.18 11.45 15.25 11.44V11.65C15.21 11.71 15.08 11.86 15.08 11.86H14.66Z" fill="white"/>
<path d="M14.65 11.88C14.65 11.88 14.51 11.73 14.48 11.66V11.43H14.5C14.56 11.44 14.61 11.48 14.66 11.54C14.7 11.39 14.76 11.3 14.87 11.22H14.88H14.89C15 11.3 15.06 11.39 15.1 11.54C15.14 11.48 15.2 11.44 15.26 11.43H15.28V11.66C15.24 11.73 15.11 11.87 15.11 11.87H14.67L14.65 11.88ZM14.51 11.65C14.54 11.7 14.64 11.82 14.67 11.84H15.08C15.08 11.84 15.21 11.7 15.24 11.65V11.47C15.19 11.48 15.14 11.53 15.11 11.59L15.09 11.63V11.58C15.04 11.42 14.99 11.32 14.88 11.24C14.77 11.32 14.72 11.42 14.68 11.58V11.63L14.65 11.59C14.61 11.52 14.57 11.48 14.52 11.47V11.65H14.51Z" fill="black"/>
<path d="M14.6 12.02C14.64 11.84 14.68 11.71 14.88 11.57C15.08 11.7 15.11 11.84 15.16 12.02H14.61H14.6Z" fill="white"/>
<path d="M15.17 12.03H14.58V12.01C14.62 11.84 14.66 11.7 14.87 11.55C15.08 11.69 15.11 11.84 15.15 12.01V12.03H15.17ZM14.62 12H15.13C15.09 11.83 15.05 11.71 14.88 11.59C14.71 11.71 14.67 11.83 14.63 12H14.62Z" fill="black"/>
<path d="M14.5 12.12V11.86C14.59 11.9 14.67 11.95 14.7 12.01C14.73 11.87 14.8 11.8 14.88 11.72C14.96 11.81 15.01 11.87 15.05 12.01C15.08 11.95 15.16 11.9 15.25 11.86V12.12H14.5Z" fill="white"/>
<path d="M15.26 12.13H14.48V11.83H14.5C14.58 11.87 14.65 11.92 14.69 11.96C14.72 11.84 14.78 11.78 14.85 11.71L14.88 11.68H14.89C14.97 11.78 15.02 11.84 15.05 11.96C15.09 11.91 15.15 11.87 15.24 11.84H15.26V12.13ZM14.51 12.1H15.23V11.88C15.15 11.92 15.08 11.96 15.06 12.01L15.04 12.05V12C15 11.87 14.95 11.81 14.88 11.73C14.81 11.81 14.75 11.87 14.72 12V12.05L14.69 12.01C14.67 11.97 14.6 11.92 14.52 11.88V12.1H14.51Z" fill="black"/>
<path d="M7.93 13.27V13.51H16.07V13.27H7.93ZM7.78 13.51V13.82H16.21V13.51H7.78ZM16.21 13.82H7.78H7.53V14.23H16.45V13.82H16.2H16.21ZM7.29 14.23V14.71H16.71V14.23H7.29ZM16.71 14.71H7.29H7.04V15.19H16.96V14.71H16.71Z" fill="white"/>
<path d="M16.97 15.21H7.02V14.7H7.27V14.22H7.52V13.81H7.77V13.5H7.92V13.26H16.09V13.5H16.24V13.81H16.49V14.22H16.74V14.7H16.99V15.21H16.97ZM7.06 15.18H16.94V14.73H7.06V15.18ZM7.31 14.7H16.7V14.25H7.31V14.7ZM7.55 14.21H16.44V13.84H16.21H7.78H7.55V14.21ZM7.8 13.8H16.2V13.53H7.8V13.8ZM7.95 13.49H16.05V13.29H7.95V13.49Z" fill="black"/>
<path d="M8.81 13.27H9.42V15.19H8.81V13.27Z" fill="white"/>
<path d="M9.45 15.21H8.8V13.25H9.45V15.21ZM8.83 15.17H9.41V13.29H8.83V15.17Z" fill="black"/>
<path d="M8.95 13.27H9.29V15.19H8.95V13.27Z" fill="white"/>
<path d="M9.31 15.21H8.93V13.25H9.31V15.21ZM8.97 15.17H9.27V13.29H8.97V15.17Z" fill="black"/>
<path d="M11.69 13.27H12.3V15.19H11.69V13.27Z" fill="white"/>
<path d="M12.32 15.21H11.67V13.25H12.32V15.21ZM11.71 15.17H12.29V13.29H11.71V15.17Z" fill="black"/>
<path d="M11.83 13.27H12.17V15.19H11.83V13.27Z" fill="white"/>
<path d="M12.19 15.21H11.81V13.25H12.19V15.21ZM11.85 15.17H12.15V13.29H11.85V15.17Z" fill="black"/>
<path d="M14.56 13.27H15.17V15.19H14.56V13.27Z" fill="white"/>
<path d="M15.2 15.21H14.55V13.25H15.2V15.21ZM14.58 15.17H15.16V13.29H14.58V15.17Z" fill="black"/>
<path d="M14.7 13.27H15.04V15.19H14.7V13.27Z" fill="white"/>
<path d="M15.06 15.21H14.68V13.25H15.06V15.21ZM14.72 15.17H15.02V13.29H14.72V15.17Z" fill="black"/>
<path d="M12.15 14.97H11.82V14.94H12.15V14.97ZM15.05 14.97H14.7V14.94H15.05V14.97ZM9.3 14.97H8.95V14.94H9.3V14.97ZM12.15 14.73H11.82V14.7H12.15V14.73ZM15.05 14.73H14.7V14.7H15.05V14.73ZM9.3 14.73H8.95V14.7H9.3V14.73ZM12.15 14.49H11.82V14.46H12.15V14.49ZM15.05 14.49H14.7V14.46H15.05V14.49ZM9.3 14.49H8.95V14.46H9.3V14.49ZM15.05 14.25H14.7V14.22H15.05V14.25ZM12.15 14.25H11.82V14.22H12.15V14.25ZM9.3 14.25H8.95V14.22H9.3V14.25ZM15.05 14.01H14.7V13.98H15.05V14.01ZM9.3 14.01H8.95V13.98H9.3V14.01ZM12.15 14.01H11.82V13.98H12.15V14.01ZM15.05 13.77H14.7V13.74H15.05V13.77ZM9.3 13.77H8.95V13.74H9.3V13.77ZM12.15 13.77H11.82V13.74H12.15V13.77ZM15.05 13.53H14.7V13.5H15.05V13.53ZM9.3 13.53H8.95V13.5H9.3V13.53ZM12.15 13.53H11.82V13.5H12.15V13.53ZM15.71 13.1H8.3V13.07H15.71V13.1Z" fill="black"/>
</svg>
