<svg width="24" height="24" viewBox="0 0 24 24" fill="none" xmlns="http://www.w3.org/2000/svg">
<path d="M24 4H0V20H24V4Z" fill="#FF3B45"/>
<path d="M18 4H6V20H18V4Z" fill="white"/>
<path d="M11.71 14.42V16.84H12.15V14.35L14.48 14.84L14.19 14.07L16.44 12.03L15.82 11.93L16.23 10.46L14.91 10.7L14.62 9.99999L13.42 11.16L13.78 8.44999L12.95 8.79999L11.96 7.14999L11.02 8.87999L10.07 8.34999L10.54 11.16L9.27 9.88999L9.16 10.67L7.81 10.38L8.25 11.79L7.56 12.03L9.74 13.93L9.41 14.7L11.71 14.42Z" fill="#FF3B45"/>
</svg>
