<svg width="24" height="24" viewBox="0 0 24 24" fill="none" xmlns="http://www.w3.org/2000/svg">
<path d="M0 4H24V20H0V4Z" fill="white"/>
<path d="M0 4H8V16H0V4Z" fill="#0033A0"/>
<path d="M0 12H24V20H0V12Z" fill="#DA281B"/>
<path d="M4 6L3.38 7.9L4.33 8.21" fill="white"/>
<path d="M4 6L4.62 7.9L3.67 8.21" fill="white"/>
<path d="M5.9 7.38H3.9V8.38" fill="white"/>
<path d="M5.9 7.38L4.28 8.56L3.69 7.75" fill="white"/>
<path d="M5.18 9.61999L4.56 7.71999L3.61 8.02999" fill="white"/>
<path d="M5.18 9.62L3.56 8.44L4.15 7.63" fill="white"/>
<path d="M2.82 9.62L4.44 8.44L3.85 7.63" fill="white"/>
<path d="M2.82 9.61999L3.44 7.71999L4.39 8.02999" fill="white"/>
<path d="M2.1 7.38L3.72 8.56L4.31 7.75" fill="white"/>
<path d="M2.1 7.38H4.1V8.38" fill="white"/>
</svg>
