<svg width="24" height="24" viewBox="0 0 24 24" fill="none" xmlns="http://www.w3.org/2000/svg">
<path d="M24 4H0V20H24V4Z" fill="#F42525"/>
<path d="M4.93001 8.72L5.59001 10.56L4.02001 9.41V9.4V9.41L2.45001 10.56L3.11001 8.72L3.13001 8.71H3.12001L1.51001 7.62H3.45001L3.98001 5.77L4.58001 7.62H4.57001H4.58001H6.53001L4.92001 8.71H4.91001L4.93001 8.72Z" fill="#FFDE00"/>
<path d="M9.22998 10.6L9.33998 10.22L9.45998 10.59L9.34998 10.95L9.22998 10.6Z" fill="#FFDE00"/>
<path d="M9.46 10.59H9.86L9.53 10.82L9.16 10.81L9.46 10.59Z" fill="#FFDE00"/>
<path d="M9.53998 10.82L9.66998 11.2L9.34998 10.96L9.22998 10.61L9.53998 10.82Z" fill="#FFDE00"/>
<path d="M9.24 10.59H8.84L9.17 10.82L9.54 10.81L9.24 10.59Z" fill="#FFDE00"/>
<path d="M9.16 10.82L9.03 11.2L9.35 10.96L9.47 10.61L9.16 10.82Z" fill="#FFDE00"/>
<path d="M7.42999 12.49L7.63999 12.16L7.64999 12.56L7.44999 12.86L7.42999 12.49Z" fill="#FFDE00"/>
<path d="M7.64999 12.56L8.02999 12.67L7.65999 12.79L7.29999 12.68L7.64999 12.56Z" fill="#FFDE00"/>
<path d="M7.65999 12.79L7.67999 13.19L7.43999 12.87L7.42999 12.5L7.65999 12.79Z" fill="#FFDE00"/>
<path d="M7.42999 12.49L7.04999 12.38L7.29999 12.68L7.65999 12.78L7.42999 12.49Z" fill="#FFDE00"/>
<path d="M7.29998 12.69L7.06998 13.01L7.43998 12.87L7.64998 12.57L7.29998 12.69Z" fill="#FFDE00"/>
<path d="M9.69999 8.26L10.01 8L9.89999 8.38L9.60999 8.62L9.69999 8.26Z" fill="#FFDE00"/>
<path d="M9.9 8.39L10.23 8.61H9.84L9.53 8.4L9.9 8.39Z" fill="#FFDE00"/>
<path d="M9.83999 8.61L9.73999 9L9.60999 8.63L9.69999 8.27L9.83999 8.61Z" fill="#FFDE00"/>
<path d="M9.71 8.25999L9.38 8.03999L9.53 8.39999L9.84 8.59999L9.71 8.25999Z" fill="#FFDE00"/>
<path d="M9.52999 8.39999L9.20999 8.63999L9.59999 8.61999L9.89999 8.39999H9.52999Z" fill="#FFDE00"/>
<path d="M8.57999 6.06L8.79999 5.73V6.12L8.58999 6.43L8.57999 6.06Z" fill="#FFDE00"/>
<path d="M8.79998 6.12L9.17998 6.24L8.80998 6.36L8.44998 6.24L8.79998 6.12Z" fill="#FFDE00"/>
<path d="M8.80999 6.35999L8.81999 6.75999L8.58999 6.43999L8.57999 6.06999L8.80999 6.35999Z" fill="#FFDE00"/>
<path d="M8.58998 6.06L8.19998 5.94L8.44998 6.25L8.80998 6.35L8.58998 6.06Z" fill="#FFDE00"/>
<path d="M8.44999 6.25L8.20999 6.57L8.58999 6.44L8.79999 6.14L8.44999 6.25Z" fill="#FFDE00"/>
</svg>
