<svg width="24" height="24" viewBox="0 0 24 24" fill="none" xmlns="http://www.w3.org/2000/svg">
<path d="M0 4H24V20H0V4Z" fill="white"/>
<path d="M0 4H24V8H0V4Z" fill="#FFD100"/>
<path d="M0 12H24V20H0V12Z" fill="#EF3340"/>
<path d="M0 16H24V20H0V16Z" fill="#003DA5"/>
<path d="M13.33 12L0 20V4L13.33 12Z" fill="#009639"/>
<path d="M5.44999 8.72C3.63999 8.94 2.34999 10.58 2.56999 12.39C2.74999 13.9 3.93999 15.09 5.44999 15.27C3.63999 15.77 1.76999 14.71 1.26999 12.9C0.769994 11.09 1.82999 9.22 3.63999 8.72C4.22999 8.56 4.85999 8.56 5.45999 8.72H5.44999Z" fill="white"/>
<path d="M5.20001 9.88L5.04001 10.37L5.45001 10.07L5.86001 10.37L5.71001 9.88L6.12001 9.58H5.61001L5.45001 9.1L5.29001 9.58H4.79001L5.20001 9.88Z" fill="white"/>
<path d="M5.45001 10.6L5.29001 11.08H4.79001L5.20001 11.38L5.04001 11.87L5.45001 11.57L5.86001 11.87L5.71001 11.38L6.12001 11.08H5.61001L5.45001 10.6Z" fill="white"/>
<path d="M5.45001 12.1L5.29001 12.58H4.79001L5.20001 12.88L5.04001 13.37L5.45001 13.07L5.86001 13.37L5.71001 12.88L6.12001 12.58H5.61001L5.45001 12.1Z" fill="white"/>
<path d="M5.61001 14.08L5.45001 13.6L5.29001 14.08H4.79001L5.20001 14.38L5.04001 14.87L5.45001 14.57L5.86001 14.87L5.71001 14.38L6.12001 14.08H5.61001Z" fill="white"/>
</svg>
