<svg width="24" height="24" viewBox="0 0 24 24" fill="none" xmlns="http://www.w3.org/2000/svg">
<path d="M24 4H0V20H24V4Z" fill="#171796"/>
<path d="M24 4H0V14.67H24V4Z" fill="white"/>
<path d="M24 4H0V9.33H24V4Z" fill="#FF0000"/>
<path d="M12 15.38C13.38 15.38 14.5 14.25 14.5 12.88V9.91H9.49V12.88C9.49 14.26 10.62 15.38 11.99 15.38H12Z" fill="#FF0000"/>
<path d="M12 15.34C13.35 15.34 14.46 14.23 14.46 12.88V9.95001H9.55V12.88C9.55 14.23 10.66 15.34 12.01 15.34H12Z" fill="white"/>
<path d="M10.58 10.04H9.63V11.08H10.58V10.04Z" fill="#FF0000"/>
<path d="M10.58 12.11H11.53V11.07H10.58V12.11Z" fill="#FF0000"/>
<path d="M9.64 12.87C9.64 12.96 9.64 13.06 9.66 13.15H10.59V12.11H9.64V12.87Z" fill="#FF0000"/>
<path d="M12.47 12.11H11.52V13.15H12.47V12.11Z" fill="#FF0000"/>
<path d="M12.47 14.19H13.42V13.15H12.47V14.19Z" fill="#FF0000"/>
<path d="M13.42 14.76C13.63 14.6 13.81 14.41 13.96 14.19H13.42V14.76Z" fill="#FF0000"/>
<path d="M10.58 14.19H11.53V13.15H10.58V14.19Z" fill="#FF0000"/>
<path d="M10.04 14.19C10.19 14.41 10.37 14.6 10.58 14.76V14.19H10.04Z" fill="#FF0000"/>
<path d="M12.16 15.23C12.26 15.23 12.37 15.21 12.47 15.19V14.19H11.52V15.19C11.62 15.21 11.72 15.22 11.83 15.23C11.94 15.23 12.05 15.23 12.16 15.23Z" fill="#FF0000"/>
<path d="M14.34 13.15C14.35 13.06 14.36 12.96 14.36 12.87V12.11H13.42V13.15H14.35H14.34Z" fill="#FF0000"/>
<path d="M12.47 12.11H13.42V11.07H12.47V12.11Z" fill="#FF0000"/>
<path d="M12.47 10.04H11.52V11.08H12.47V10.04Z" fill="#FF0000"/>
<path d="M14.36 11.08V10.04H13.42V11.08H14.36Z" fill="#FF0000"/>
<path d="M14.41 9.87001L15 8.54001L14.55 7.82001L13.81 8.09001L13.29 7.50001L12.61 7.89001L12 7.39001L11.39 7.89001L10.71 7.50001L10.19 8.09001L9.45 7.82001L9 8.54001L9.59 9.87001C10.33 9.54001 11.15 9.35001 12 9.35001C12.85 9.35001 13.68 9.54001 14.41 9.87001Z" fill="white"/>
<path d="M10.2 8.15L9.47 7.88L9.06 8.54L9.22 8.9L9.62 9.8C9.92 9.67 10.23 9.56 10.55 9.48L10.21 8.15H10.2Z" fill="#0093DD"/>
<path d="M10.16 8.81C10.16 8.81 10.2 8.92 10.2 8.98C10.2 9.18 10.04 9.34 9.84 9.34C9.67 9.34 9.52 9.21 9.49 9.05C9.55 9.16 9.67 9.23 9.8 9.23C10 9.23 10.16 9.07 10.16 8.87C10.16 8.85 10.16 8.83 10.16 8.81Z" fill="white" stroke="black" stroke-width="0.35" stroke-miterlimit="10"/>
<path d="M9.83 8.31001V8.32001L9.81 8.44001L9.89999 8.53001H9.91L9.89999 8.54001L9.77999 8.58001L9.75 8.71001L9.64999 8.62001L9.52999 8.67001H9.52V8.66001L9.55 8.53001L9.45 8.45001L9.43999 8.44001H9.45L9.56999 8.40001L9.6 8.27001V8.26001V8.27001L9.7 8.35001L9.83 8.31001Z" fill="black"/>
<path d="M9.68 8.48999L9.77 8.56999L9.89 8.52999L9.68 8.48999Z" fill="#F7DB17"/>
<path d="M9.68 8.49001L9.89 8.53001L9.8 8.45001L9.68 8.49001Z" fill="#F7DB17"/>
<path d="M9.46 8.43999L9.67 8.47999L9.58 8.39999L9.46 8.43999Z" fill="#F7DB17"/>
<path d="M9.67 8.49001L9.46 8.45001L9.55 8.53001L9.67 8.49001Z" fill="#F7DB17"/>
<path d="M9.68 8.48001L9.82 8.32001L9.7 8.36001L9.68 8.48001Z" fill="#F7DB17"/>
<path d="M9.53 8.64999L9.67 8.48999L9.55 8.52999L9.53 8.64999Z" fill="#F7DB17"/>
<path d="M9.67 8.5L9.53 8.66L9.65 8.62L9.67 8.5Z" fill="#F7DB17"/>
<path d="M9.82 8.32001L9.68 8.48001L9.8 8.44001L9.82 8.32001Z" fill="#F7DB17"/>
<path d="M9.67 8.48L9.6 8.28L9.58 8.4L9.67 8.48Z" fill="#F7DB17"/>
<path d="M9.74 8.7L9.67 8.5L9.65 8.62L9.74 8.7Z" fill="#F7DB17"/>
<path d="M9.68 8.5L9.75 8.7L9.77 8.58L9.68 8.5Z" fill="#F7DB17"/>
<path d="M9.61 8.28L9.68 8.48L9.7 8.36L9.61 8.28Z" fill="#F7DB17"/>
<path d="M11.4 7.95003L10.72 7.56003L10.21 8.15003L10.55 9.48003C10.86 9.40003 11.19 9.35003 11.52 9.32003L11.41 7.95003H11.4Z" fill="#171796"/>
<path d="M10.46 9.15004C10.79 9.07004 11.13 9.01004 11.48 8.98004L11.45 8.63004C11.08 8.66004 10.72 8.72004 10.37 8.81004L10.46 9.15004Z" fill="#FF0000"/>
<path d="M10.29 8.48004C10.66 8.39004 11.04 8.32004 11.43 8.29004L11.4 7.95004C10.99 7.98004 10.59 8.05004 10.21 8.15004L10.29 8.48004Z" fill="#FF0000"/>
<path d="M12.61 7.95002L12 7.46002L11.4 7.95002L11.51 9.32002C11.67 9.31002 11.84 9.30002 12 9.30002C12.16 9.30002 12.33 9.30002 12.49 9.32002L12.6 7.95002H12.61Z" fill="#0093DD"/>
<path d="M12 8.57001C11.99 8.59001 11.98 8.60001 11.97 8.62001C11.96 8.62001 11.95 8.63001 11.96 8.64001C11.94 8.64001 11.94 8.65001 11.94 8.67001C11.92 8.65001 11.91 8.64001 11.89 8.65001C11.89 8.64001 11.88 8.63001 11.86 8.63001C11.85 8.63001 11.84 8.63001 11.83 8.63001C11.83 8.63001 11.83 8.63001 11.82 8.63001H11.81C11.83 8.66001 11.84 8.69001 11.86 8.71001C11.86 8.71001 11.86 8.71001 11.86 8.72001C11.86 8.72001 11.86 8.74001 11.86 8.75001C11.85 8.75001 11.83 8.75001 11.82 8.75001C11.81 8.75001 11.8 8.75001 11.8 8.75001C11.8 8.78001 11.81 8.81001 11.84 8.84001C11.83 8.84001 11.81 8.84001 11.8 8.84001C11.8 8.86001 11.82 8.88001 11.85 8.89001C11.84 8.89001 11.83 8.91001 11.83 8.92001C11.83 8.93001 11.83 8.94001 11.82 8.95001C11.84 8.96001 11.86 8.96001 11.88 8.95001C11.88 8.97001 11.87 8.99001 11.87 9.00001C11.88 9.00001 11.9 9.00001 11.91 9.00001C11.91 9.00001 11.91 9.01001 11.91 9.02001C11.91 9.02001 11.91 9.03001 11.91 9.04001C11.93 9.04001 11.95 9.04001 11.97 9.04001C11.97 9.06001 11.97 9.07001 11.97 9.09001C11.97 9.08001 11.99 9.06001 12 9.06001V9.07001C12 9.07001 12 9.08001 12 9.09001C12 9.09001 12.03 9.07001 12.04 9.05001C12.05 9.05001 12.06 9.07001 12.07 9.08001C12.07 9.06001 12.07 9.05001 12.07 9.03001C12.09 9.03001 12.11 9.03001 12.13 9.03001V9.01001C12.13 9.01001 12.13 9.00001 12.13 8.99001C12.14 8.99001 12.16 8.99001 12.17 8.99001C12.17 8.97001 12.17 8.95001 12.16 8.94001C12.18 8.94001 12.2 8.94001 12.22 8.94001C12.22 8.94001 12.21 8.93001 12.21 8.91001C12.21 8.90001 12.21 8.88001 12.19 8.88001C12.22 8.87001 12.23 8.85001 12.24 8.83001C12.23 8.83001 12.21 8.83001 12.19 8.83001C12.22 8.80001 12.23 8.77001 12.23 8.73001C12.23 8.73001 12.22 8.73001 12.21 8.73001C12.2 8.73001 12.18 8.73001 12.17 8.73001V8.71001C12.17 8.71001 12.17 8.71001 12.17 8.70001C12.19 8.67001 12.2 8.64001 12.22 8.62001C12.22 8.62001 12.22 8.61001 12.21 8.62001C12.21 8.62001 12.21 8.62001 12.2 8.62001C12.2 8.62001 12.18 8.62001 12.17 8.62001C12.15 8.62001 12.14 8.63001 12.14 8.65001C12.12 8.64001 12.1 8.65001 12.09 8.67001C12.09 8.65001 12.09 8.64001 12.07 8.64001C12.07 8.63001 12.07 8.62001 12.06 8.62001C12.05 8.60001 12.03 8.59001 12.02 8.57001H12Z" fill="black"/>
<path d="M12.16 8.66C12.16 8.66 12.16 8.66 12.15 8.66C12.14 8.66 12.15 8.67 12.15 8.67V8.66H12.16Z" fill="#F7DB17"/>
<path d="M11.84 8.66C11.84 8.66 11.84 8.66 11.85 8.66C11.86 8.66 11.85 8.67 11.85 8.67V8.66H11.84Z" fill="#F7DB17"/>
<path d="M11.86 8.69C11.86 8.69 11.96 8.69 12.01 8.69C12.06 8.69 12.11 8.69 12.15 8.69V8.68C12.15 8.68 12.15 8.67 12.15 8.66C12.15 8.66 12.16 8.65 12.17 8.66L12.2 8.61C12.2 8.61 12.18 8.62 12.16 8.63C12.14 8.63 12.13 8.63 12.14 8.65C12.14 8.65 12.14 8.65 12.13 8.65C12.11 8.64 12.1 8.65 12.09 8.67C12.09 8.68 12.08 8.68 12.08 8.67C12.08 8.67 12.08 8.67 12.08 8.66C12.08 8.65 12.08 8.64 12.07 8.65C12.06 8.65 12.06 8.65 12.07 8.65C12.07 8.65 12.07 8.65 12.07 8.64C12.06 8.62 12.04 8.61 12.03 8.59C12.02 8.61 12.01 8.62 11.99 8.64C11.99 8.64 11.99 8.64 11.99 8.65C11.99 8.65 11.98 8.65 11.98 8.66C11.98 8.66 11.98 8.66 11.98 8.67C11.98 8.68 11.98 8.68 11.97 8.67C11.97 8.65 11.95 8.64 11.93 8.65H11.92C11.92 8.64 11.92 8.63 11.9 8.63C11.88 8.63 11.88 8.63 11.86 8.61L11.89 8.65C11.89 8.65 11.9 8.65 11.91 8.65V8.67V8.68L11.86 8.69Z" fill="#F7DB17"/>
<path d="M12.14 8.75C12.14 8.75 12.14 8.75 12.13 8.76C12.13 8.76 12.13 8.76 12.14 8.75C12.14 8.75 12.13 8.75 12.12 8.75C12.12 8.75 12.12 8.75 12.11 8.75C12.11 8.75 12.11 8.75 12.12 8.75C12.12 8.75 12.11 8.75 12.1 8.75C12.1 8.75 12.09 8.75 12.08 8.75C12.08 8.75 12.07 8.75 12.06 8.75H12.04H12.02C12.02 8.75 12.01 8.75 12 8.75C12 8.75 11.99 8.75 11.98 8.75C11.98 8.75 11.97 8.75 11.96 8.75C11.96 8.75 11.96 8.75 11.97 8.75C11.97 8.75 11.96 8.75 11.95 8.75C11.95 8.75 11.94 8.75 11.93 8.75C11.93 8.75 11.93 8.75 11.94 8.76C11.94 8.76 11.94 8.76 11.93 8.75C11.92 8.75 11.91 8.75 11.89 8.75C11.89 8.75 11.87 8.75 11.86 8.75V8.76C11.86 8.76 11.86 8.76 11.87 8.76C11.87 8.76 11.87 8.78 11.88 8.78C11.88 8.78 11.88 8.78 11.89 8.78C11.89 8.78 11.89 8.77 11.88 8.76C11.88 8.76 11.88 8.74 11.88 8.73V8.75C11.88 8.75 11.89 8.77 11.9 8.77C11.9 8.77 11.88 8.77 11.88 8.76C11.88 8.76 11.88 8.74 11.87 8.73C11.87 8.73 11.86 8.73 11.86 8.72C11.86 8.72 11.86 8.72 11.86 8.71C11.86 8.74 11.87 8.76 11.89 8.78C11.89 8.78 11.9 8.79 11.91 8.79H11.92C11.92 8.79 11.93 8.8 11.93 8.81C11.93 8.81 11.93 8.8 11.92 8.8C11.92 8.8 11.9 8.8 11.89 8.79C11.89 8.79 11.87 8.79 11.86 8.79C11.86 8.79 11.87 8.79 11.88 8.79H11.89C11.89 8.79 11.89 8.79 11.9 8.79C11.9 8.79 11.9 8.79 11.89 8.79C11.89 8.79 11.89 8.79 11.88 8.79C11.87 8.79 11.86 8.79 11.86 8.79C11.86 8.79 11.86 8.79 11.85 8.79C11.86 8.81 11.88 8.83 11.9 8.83C11.9 8.83 11.91 8.83 11.92 8.83C11.92 8.83 11.93 8.83 11.94 8.83C11.94 8.83 11.93 8.83 11.92 8.83C11.92 8.83 11.92 8.83 11.91 8.83C11.9 8.83 11.88 8.84 11.88 8.86C11.88 8.86 11.89 8.86 11.9 8.85H11.92C11.92 8.85 11.91 8.85 11.9 8.85C11.9 8.85 11.89 8.86 11.88 8.87C11.88 8.87 11.88 8.89 11.87 8.89C11.87 8.89 11.87 8.89 11.88 8.89C11.88 8.89 11.89 8.89 11.9 8.89C11.9 8.89 11.91 8.89 11.92 8.89C11.92 8.89 11.91 8.89 11.9 8.89C11.9 8.89 11.9 8.89 11.89 8.89C11.9 8.89 11.92 8.89 11.93 8.89C11.93 8.89 11.93 8.89 11.94 8.89C11.94 8.89 11.94 8.89 11.95 8.89C11.95 8.89 11.95 8.89 11.94 8.89C11.94 8.89 11.94 8.9 11.93 8.91C11.93 8.91 11.93 8.91 11.93 8.92C11.93 8.92 11.93 8.91 11.94 8.9C11.94 8.9 11.95 8.89 11.96 8.88C11.96 8.88 11.94 8.88 11.94 8.9C11.94 8.9 11.93 8.91 11.93 8.92C11.93 8.92 11.94 8.91 11.95 8.9C11.95 8.9 11.97 8.9 11.98 8.9H11.96C11.96 8.9 11.94 8.91 11.94 8.92C11.95 8.92 11.96 8.92 11.97 8.92C11.97 8.92 11.98 8.92 11.99 8.92C11.99 8.92 11.99 8.93 11.98 8.94C11.98 8.95 11.98 8.96 11.98 8.98C11.98 8.98 11.98 8.98 11.99 8.98C11.99 8.98 11.99 8.98 11.99 8.97C11.99 8.97 11.99 8.96 12 8.95C12 8.95 12.01 8.95 12.02 8.94C12.02 8.94 12.01 8.94 12 8.94C12 8.94 12 8.94 12 8.96C12 8.96 12 8.97 12 8.98C12 8.98 12.01 8.98 12.02 8.98C12.02 8.98 12.02 8.98 12.02 8.97C12.02 8.97 12.02 8.98 12.01 8.98C12.01 8.98 12.01 8.98 12 8.98C12.01 8.98 12.02 8.98 12.03 8.98V8.97C12.03 8.97 12.03 8.97 12.03 8.96C12.03 8.96 12.03 8.96 12.04 8.96C12.04 8.96 12.04 8.97 12.04 8.98C12.04 8.99 12.04 9.01 12.04 9.02C12.04 9.02 12.04 9.02 12.05 9.01C12.05 9.01 12.05 9 12.05 8.99C12.05 8.99 12.05 8.98 12.05 8.97C12.05 8.97 12.05 8.98 12.05 8.99C12.05 8.99 12.05 9 12.05 9.01C12.05 9.01 12.05 9 12.05 8.99C12.05 8.99 12.05 8.99 12.05 8.98C12.05 8.98 12.05 8.99 12.05 9C12.05 9 12.05 9 12.05 9.01C12.05 9.01 12.05 9.01 12.06 9.01C12.06 9.01 12.06 9.01 12.06 9C12.06 9 12.06 9 12.06 8.99C12.06 8.99 12.06 8.99 12.06 9C12.06 9 12.06 9.01 12.06 9.02V9.03C12.06 9.03 12.07 9.04 12.07 9.05C12.07 9.05 12.07 9.03 12.07 9.02C12.07 9.02 12.07 9.04 12.07 9.05C12.07 9.05 12.09 9.03 12.09 9.01C12.09 9.01 12.09 9.01 12.09 9C12.09 9 12.09 8.99 12.09 8.98C12.09 8.98 12.09 8.98 12.09 8.99C12.09 8.99 12.09 8.99 12.09 9.01C12.09 9.01 12.09 9 12.09 8.99C12.09 8.99 12.09 8.98 12.09 8.97C12.09 8.97 12.09 8.98 12.09 8.99C12.09 8.99 12.09 9 12.09 9.01C12.09 9.01 12.09 9.01 12.09 9.02C12.09 9.01 12.09 8.99 12.09 8.98C12.09 8.98 12.09 8.97 12.09 8.96C12.09 8.96 12.09 8.96 12.1 8.96V8.97C12.1 8.97 12.12 8.97 12.13 8.97C12.13 8.97 12.13 8.97 12.12 8.97C12.12 8.97 12.12 8.97 12.11 8.96C12.11 8.96 12.11 8.96 12.11 8.97C12.11 8.97 12.13 8.97 12.14 8.97C12.14 8.97 12.14 8.97 12.14 8.95C12.14 8.95 12.14 8.94 12.14 8.93C12.14 8.93 12.14 8.93 12.12 8.93C12.12 8.93 12.13 8.93 12.14 8.94C12.14 8.94 12.14 8.95 12.15 8.96V8.97C12.15 8.97 12.15 8.97 12.16 8.97C12.16 8.96 12.16 8.95 12.16 8.93L12.15 8.91C12.15 8.91 12.15 8.91 12.17 8.91C12.18 8.91 12.19 8.91 12.2 8.91L12.18 8.89H12.16C12.16 8.89 12.18 8.89 12.19 8.89C12.19 8.89 12.2 8.9 12.21 8.91C12.21 8.91 12.21 8.89 12.2 8.89C12.2 8.89 12.19 8.88 12.18 8.87C12.18 8.87 12.2 8.87 12.2 8.89C12.2 8.89 12.2 8.9 12.21 8.91C12.21 8.91 12.21 8.91 12.21 8.9C12.21 8.9 12.21 8.89 12.2 8.88C12.2 8.88 12.19 8.88 12.19 8.87C12.19 8.87 12.19 8.87 12.18 8.87C12.18 8.87 12.18 8.87 12.19 8.87C12.19 8.87 12.19 8.87 12.2 8.87C12.21 8.87 12.23 8.87 12.24 8.87C12.24 8.87 12.24 8.87 12.23 8.87C12.23 8.87 12.22 8.87 12.21 8.87C12.21 8.87 12.22 8.87 12.23 8.87C12.23 8.87 12.24 8.87 12.25 8.87C12.25 8.87 12.25 8.87 12.26 8.87C12.26 8.87 12.25 8.86 12.25 8.85C12.25 8.85 12.24 8.84 12.23 8.83C12.23 8.83 12.22 8.83 12.21 8.83H12.23C12.23 8.83 12.24 8.83 12.25 8.84C12.25 8.82 12.24 8.81 12.22 8.81H12.21C12.21 8.81 12.21 8.81 12.22 8.81C12.24 8.81 12.26 8.79 12.27 8.77C12.27 8.77 12.27 8.77 12.26 8.77C12.26 8.77 12.25 8.77 12.24 8.77C12.24 8.77 12.24 8.77 12.23 8.77C12.23 8.77 12.23 8.77 12.22 8.77C12.22 8.77 12.22 8.77 12.23 8.77C12.23 8.77 12.23 8.77 12.24 8.77H12.26C12.26 8.77 12.24 8.77 12.23 8.77C12.23 8.77 12.21 8.77 12.2 8.78C12.2 8.78 12.19 8.78 12.19 8.79C12.19 8.79 12.19 8.78 12.2 8.77C12.2 8.77 12.2 8.77 12.21 8.77C12.21 8.77 12.22 8.77 12.23 8.76C12.25 8.74 12.26 8.71 12.26 8.69C12.26 8.69 12.26 8.69 12.26 8.7C12.26 8.7 12.26 8.7 12.25 8.71C12.25 8.72 12.25 8.73 12.24 8.74C12.24 8.74 12.23 8.75 12.22 8.75C12.22 8.75 12.23 8.74 12.24 8.73V8.71C12.24 8.71 12.24 8.73 12.24 8.74C12.24 8.74 12.24 8.75 12.23 8.76C12.23 8.76 12.23 8.76 12.24 8.76C12.24 8.76 12.24 8.75 12.25 8.74C12.25 8.74 12.25 8.74 12.26 8.74C12.26 8.74 12.26 8.74 12.26 8.73C12.26 8.73 12.24 8.73 12.23 8.73C12.22 8.73 12.21 8.73 12.19 8.73L12.14 8.75Z" fill="#F7DB17"/>
<path fill-rule="evenodd" clip-rule="evenodd" d="M11.87 8.72999C11.87 8.72999 11.96 8.72999 12 8.72999C12.04 8.72999 12.09 8.72999 12.13 8.72999C12.13 8.72999 12.04 8.70999 11.99 8.70999C11.94 8.70999 11.9 8.70999 11.85 8.70999L11.87 8.72999Z" fill="#F7DB17"/>
<path d="M12 8.66C12 8.66 12 8.66 12 8.65C12 8.65 12 8.65 11.99 8.65C11.99 8.65 11.99 8.65 11.99 8.63C11.99 8.63 11.99 8.63 11.99 8.64C11.99 8.64 11.99 8.64 12 8.64C12 8.64 12 8.64 12 8.65V8.66ZM12 8.65C12 8.65 12 8.65 12 8.66V8.65Z" fill="black"/>
<path d="M12.06 8.97H12.03V8.98H12.06V8.97ZM11.95 8.97H11.98C11.98 8.97 11.98 8.98 11.98 8.99H11.95C11.95 8.99 11.95 8.98 11.95 8.97ZM11.96 9H11.98C11.98 9 11.98 9 11.99 9V8.97C11.99 8.97 11.98 8.97 11.97 8.97C11.97 8.97 11.96 8.97 11.96 8.96C11.96 8.96 11.96 8.95 11.96 8.94C11.96 8.94 11.96 8.95 11.96 8.96C11.96 8.96 11.97 8.96 11.98 8.96C11.99 8.96 11.99 8.96 12 8.96C12 8.96 12 8.96 12.01 8.96C12.02 8.96 12.01 8.96 12.01 8.95C12.01 8.95 12.01 8.95 12.02 8.95C12.02 8.95 12.02 8.95 12.03 8.95V8.96C12.03 8.96 12.03 8.96 12.02 8.96C12.02 8.96 12.01 8.96 12 8.96V8.99C12 8.99 12 8.99 12.01 8.99C12.01 8.99 12.02 8.99 12.03 8.99H12.01H12C12 8.99 12 8.99 11.99 8.99H11.97L11.96 9Z" fill="black"/>
<path d="M12.02 8.81C12.02 8.81 12.04 8.8 12.05 8.79H12.07C12.07 8.79 12.06 8.79 12.05 8.79C12.05 8.79 12.03 8.8 12.02 8.81ZM11.98 8.82C11.98 8.82 11.96 8.8 11.95 8.8H11.93C11.93 8.8 11.95 8.8 11.96 8.8C11.96 8.8 11.98 8.81 11.99 8.82H11.98ZM11.97 8.88C11.97 8.88 11.97 8.88 11.97 8.87C11.97 8.87 11.97 8.87 11.98 8.86C11.98 8.86 11.98 8.86 11.97 8.87C11.97 8.87 11.97 8.87 11.97 8.88ZM11.99 8.77C11.99 8.77 11.99 8.77 11.99 8.78C11.99 8.78 11.99 8.79 11.99 8.8C11.99 8.8 11.99 8.81 11.99 8.82C11.99 8.82 11.99 8.83 11.99 8.84C11.99 8.84 11.99 8.84 11.98 8.84C11.98 8.84 11.98 8.84 11.97 8.84C11.97 8.84 11.97 8.85 11.97 8.86C11.97 8.86 11.96 8.86 11.95 8.86C11.95 8.86 11.95 8.86 11.95 8.85C11.95 8.85 11.95 8.85 11.95 8.84C11.95 8.84 11.95 8.84 11.94 8.84C11.94 8.84 11.94 8.84 11.93 8.84C11.93 8.84 11.93 8.84 11.94 8.84H11.96C11.96 8.84 11.97 8.84 11.98 8.85C11.98 8.85 11.98 8.85 11.98 8.84C11.98 8.84 11.98 8.84 11.98 8.83C11.98 8.83 11.98 8.82 11.98 8.81C11.98 8.81 11.98 8.81 11.98 8.8L11.99 8.77ZM11.97 8.84C11.97 8.84 11.96 8.84 11.95 8.83C11.95 8.83 11.94 8.83 11.93 8.83C11.93 8.83 11.93 8.83 11.94 8.83C11.94 8.83 11.94 8.82 11.94 8.81L11.97 8.84ZM12.02 8.77C12.02 8.77 12.02 8.77 12.02 8.78C12.02 8.78 12.02 8.79 12.02 8.8C12.02 8.8 12.02 8.81 12.02 8.82C12.02 8.82 12.02 8.82 12.02 8.83C12.02 8.83 12.03 8.83 12.04 8.82H12.06C12.06 8.82 12.06 8.82 12.07 8.82C12.07 8.82 12.07 8.82 12.06 8.82C12.06 8.82 12.06 8.82 12.05 8.82C12.05 8.82 12.05 8.82 12.05 8.83C12.05 8.83 12.05 8.83 12.05 8.84C12.05 8.84 12.05 8.84 12.03 8.84C12.03 8.84 12.03 8.83 12.03 8.82C12.03 8.82 12.03 8.82 12.02 8.82C12.02 8.82 12.02 8.82 12.01 8.82C12.01 8.82 12.01 8.81 12.01 8.8C12.01 8.8 12.01 8.79 12.01 8.78C12.01 8.78 12.01 8.77 12.01 8.76V8.75L12.02 8.77ZM12.08 8.82C12.08 8.82 12.07 8.82 12.06 8.82C12.06 8.82 12.05 8.82 12.04 8.83C12.04 8.83 12.04 8.84 12.04 8.85H12.05L12.08 8.82Z" fill="black"/>
<path fill-rule="evenodd" clip-rule="evenodd" d="M12.06 8.82001C12.06 8.82001 12.05 8.82001 12.05 8.83001C12.05 8.84001 12.05 8.84001 12.06 8.84001C12.07 8.84001 12.07 8.84001 12.07 8.83001C12.07 8.82001 12.07 8.82001 12.06 8.82001ZM11.95 8.82001C11.95 8.82001 11.96 8.82001 11.96 8.83001C11.96 8.84001 11.96 8.84001 11.95 8.84001C11.94 8.84001 11.94 8.84001 11.94 8.83001C11.94 8.82001 11.94 8.82001 11.95 8.82001Z" fill="black"/>
<path d="M11.72 7.95001C11.71 7.97001 11.7 7.98001 11.69 8.00001C11.68 8.00001 11.68 8.01001 11.69 8.02001C11.67 8.02001 11.67 8.03001 11.67 8.05001C11.65 8.03001 11.64 8.02001 11.62 8.03001C11.62 8.02001 11.61 8.01001 11.59 8.01001C11.58 8.01001 11.57 8.01001 11.56 8.01001C11.56 8.01001 11.56 8.01001 11.55 8.01001H11.54C11.56 8.04001 11.58 8.06001 11.59 8.09001C11.59 8.09001 11.59 8.09001 11.59 8.10001V8.12001C11.58 8.12001 11.56 8.12001 11.55 8.12001C11.54 8.12001 11.53 8.12001 11.53 8.12001C11.53 8.15001 11.54 8.18001 11.57 8.21001C11.56 8.21001 11.54 8.21001 11.53 8.21001C11.53 8.23001 11.55 8.25001 11.58 8.26001C11.57 8.26001 11.56 8.28001 11.56 8.29001C11.56 8.30001 11.56 8.31001 11.55 8.32001C11.57 8.33001 11.59 8.33001 11.61 8.32001C11.61 8.34001 11.6 8.36001 11.6 8.37001C11.61 8.37001 11.63 8.37001 11.64 8.37001C11.64 8.37001 11.64 8.38001 11.64 8.39001C11.64 8.39001 11.64 8.40001 11.64 8.41001C11.66 8.41001 11.68 8.41001 11.7 8.41001C11.7 8.43001 11.7 8.44001 11.7 8.46001C11.7 8.45001 11.72 8.43001 11.73 8.43001C11.73 8.43001 11.73 8.44001 11.74 8.44001C11.74 8.44001 11.74 8.45001 11.75 8.46001C11.75 8.46001 11.78 8.43001 11.79 8.42001C11.8 8.42001 11.81 8.43001 11.82 8.45001C11.82 8.43001 11.82 8.42001 11.82 8.40001C11.84 8.40001 11.86 8.40001 11.88 8.40001V8.38001C11.88 8.38001 11.88 8.37001 11.88 8.36001C11.89 8.36001 11.91 8.36001 11.92 8.36001C11.92 8.34001 11.92 8.32001 11.9 8.31001C11.92 8.31001 11.94 8.31001 11.96 8.31001C11.96 8.31001 11.95 8.30001 11.95 8.28001C11.95 8.27001 11.94 8.25001 11.93 8.25001C11.96 8.24001 11.97 8.22001 11.98 8.20001C11.97 8.20001 11.95 8.20001 11.93 8.20001C11.96 8.17001 11.97 8.14001 11.96 8.10001C11.96 8.10001 11.95 8.10001 11.94 8.11001C11.93 8.11001 11.91 8.11001 11.9 8.11001C11.9 8.11001 11.9 8.09001 11.9 8.08001C11.9 8.08001 11.9 8.08001 11.9 8.07001C11.92 8.04001 11.93 8.01001 11.95 7.99001C11.95 7.99001 11.95 7.98001 11.94 7.99001C11.94 7.99001 11.94 7.99001 11.93 7.99001C11.93 7.99001 11.91 7.99001 11.9 8.00001C11.88 8.00001 11.87 8.01001 11.87 8.03001C11.85 8.02001 11.83 8.03001 11.82 8.05001C11.82 8.03001 11.82 8.02001 11.8 8.02001C11.8 8.01001 11.8 8.00001 11.79 8.00001C11.78 7.98001 11.76 7.97001 11.75 7.96001L11.72 7.95001Z" fill="black"/>
<path d="M11.89 8.03C11.89 8.03 11.89 8.03 11.88 8.03C11.87 8.03 11.88 8.04 11.88 8.04V8.03H11.89Z" fill="#F7DB17"/>
<path d="M11.57 8.04001C11.57 8.04001 11.57 8.04001 11.58 8.04001C11.59 8.04001 11.58 8.05001 11.58 8.05001C11.58 8.05001 11.58 8.05001 11.58 8.04001H11.57Z" fill="#F7DB17"/>
<path d="M11.87 8.07001C11.87 8.07001 11.77 8.07001 11.73 8.07001C11.69 8.07001 11.63 8.07001 11.59 8.08001C11.64 8.08001 11.69 8.07001 11.73 8.07001C11.77 8.07001 11.82 8.07001 11.87 8.07001Z" fill="#F7DB17"/>
<path d="M11.59 8.08001C11.59 8.08001 11.69 8.07001 11.74 8.07001C11.79 8.07001 11.84 8.07001 11.88 8.07001V8.06001C11.88 8.06001 11.88 8.05001 11.88 8.04001C11.88 8.04001 11.88 8.03001 11.89 8.04001L11.92 7.99001C11.92 7.99001 11.9 8.00001 11.88 8.01001C11.86 8.01001 11.85 8.01001 11.86 8.03001C11.86 8.03001 11.86 8.03001 11.85 8.03001C11.83 8.02001 11.82 8.03001 11.81 8.05001C11.81 8.06001 11.81 8.06001 11.8 8.05001C11.8 8.05001 11.8 8.05001 11.8 8.04001C11.8 8.03001 11.8 8.02001 11.79 8.03001C11.78 8.03001 11.78 8.03001 11.79 8.03001C11.79 8.03001 11.79 8.03001 11.79 8.02001C11.78 8.00001 11.76 7.99001 11.75 7.98001C11.74 8.00001 11.73 8.01001 11.72 8.03001C11.72 8.03001 11.72 8.03001 11.72 8.04001C11.72 8.04001 11.71 8.04001 11.71 8.05001C11.71 8.05001 11.71 8.05001 11.71 8.06001C11.71 8.07001 11.71 8.07001 11.7 8.06001C11.7 8.04001 11.68 8.03001 11.66 8.04001H11.65C11.65 8.03001 11.65 8.02001 11.62 8.02001C11.6 8.02001 11.6 8.02001 11.58 8.01001L11.61 8.05001C11.61 8.05001 11.62 8.05001 11.63 8.05001C11.63 8.05001 11.63 8.06001 11.63 8.07001V8.08001H11.59Z" fill="#F7DB17"/>
<path d="M11.87 8.12002C11.87 8.12002 11.87 8.12002 11.86 8.13002C11.86 8.13002 11.86 8.13002 11.87 8.12002C11.87 8.12002 11.86 8.12002 11.85 8.12002C11.85 8.12002 11.85 8.12002 11.84 8.12002C11.84 8.12002 11.83 8.12002 11.82 8.12002C11.82 8.12002 11.81 8.12002 11.8 8.12002C11.8 8.12002 11.79 8.12002 11.78 8.12002H11.76H11.74C11.74 8.12002 11.73 8.12002 11.72 8.12002C11.72 8.12002 11.71 8.12002 11.7 8.12002C11.7 8.12002 11.69 8.12002 11.68 8.12002C11.68 8.12002 11.68 8.12002 11.69 8.12002C11.69 8.12002 11.68 8.12002 11.67 8.12002C11.67 8.12002 11.66 8.12002 11.65 8.12002C11.65 8.12002 11.65 8.12002 11.66 8.13002C11.66 8.13002 11.65 8.13002 11.65 8.12002C11.64 8.12002 11.63 8.12002 11.61 8.12002C11.61 8.12002 11.59 8.12002 11.58 8.12002V8.13002C11.58 8.13002 11.58 8.13002 11.59 8.13002C11.59 8.13002 11.59 8.15002 11.6 8.15002C11.6 8.15002 11.6 8.15002 11.61 8.15002C11.61 8.15002 11.61 8.14002 11.6 8.13002C11.6 8.13002 11.6 8.11002 11.6 8.10002V8.12002C11.6 8.12002 11.61 8.13002 11.62 8.14002C11.62 8.14002 11.6 8.14002 11.6 8.13002C11.6 8.13002 11.59 8.12002 11.59 8.11002H11.58C11.58 8.11002 11.58 8.11002 11.58 8.10002C11.58 8.13002 11.59 8.15002 11.61 8.17002C11.61 8.17002 11.62 8.18002 11.63 8.18002C11.63 8.18002 11.64 8.18002 11.65 8.18002C11.65 8.18002 11.66 8.18002 11.66 8.20002C11.66 8.20002 11.66 8.20002 11.65 8.19002C11.65 8.19002 11.63 8.19002 11.62 8.19002C11.62 8.19002 11.6 8.19002 11.59 8.19002C11.59 8.19002 11.6 8.19002 11.61 8.19002C11.61 8.19002 11.62 8.19002 11.63 8.19002C11.63 8.19002 11.63 8.19002 11.64 8.19002C11.64 8.19002 11.64 8.19002 11.63 8.19002C11.63 8.19002 11.63 8.19002 11.62 8.19002C11.61 8.19002 11.6 8.19002 11.6 8.19002C11.6 8.19002 11.6 8.19002 11.59 8.19002C11.6 8.21002 11.62 8.23002 11.64 8.23002C11.64 8.23002 11.65 8.23002 11.66 8.23002C11.66 8.23002 11.67 8.23002 11.68 8.23002C11.68 8.23002 11.67 8.23002 11.66 8.23002C11.66 8.23002 11.66 8.23002 11.65 8.23002C11.64 8.23002 11.62 8.25002 11.62 8.26002C11.62 8.26002 11.63 8.25002 11.64 8.25002C11.64 8.25002 11.65 8.25002 11.66 8.25002C11.66 8.25002 11.65 8.25002 11.64 8.25002C11.64 8.25002 11.63 8.26002 11.62 8.27002C11.62 8.27002 11.62 8.29002 11.61 8.29002C11.61 8.29002 11.61 8.29002 11.62 8.29002C11.62 8.29002 11.63 8.29002 11.64 8.29002C11.64 8.29002 11.65 8.29002 11.66 8.29002C11.66 8.29002 11.65 8.29002 11.64 8.29002C11.64 8.29002 11.64 8.29002 11.63 8.29002C11.64 8.29002 11.66 8.29002 11.67 8.29002C11.67 8.29002 11.67 8.29002 11.68 8.29002C11.68 8.29002 11.68 8.29002 11.69 8.29002C11.69 8.29002 11.69 8.29002 11.68 8.29002C11.68 8.29002 11.68 8.30002 11.67 8.31002C11.67 8.31002 11.67 8.31002 11.67 8.32002C11.67 8.32002 11.67 8.31002 11.68 8.30002C11.68 8.30002 11.69 8.29002 11.7 8.28002C11.7 8.28002 11.69 8.28002 11.68 8.30002C11.68 8.30002 11.68 8.31002 11.67 8.32002C11.67 8.32002 11.68 8.31002 11.69 8.30002C11.69 8.30002 11.71 8.29002 11.72 8.30002H11.7C11.7 8.30002 11.69 8.31002 11.68 8.32002C11.69 8.32002 11.7 8.32002 11.71 8.32002C11.71 8.32002 11.72 8.32002 11.72 8.31002C11.72 8.31002 11.72 8.32002 11.71 8.33002C11.71 8.34002 11.71 8.35002 11.71 8.37002C11.71 8.37002 11.71 8.37002 11.72 8.37002C11.72 8.37002 11.72 8.37002 11.72 8.36002C11.72 8.36002 11.72 8.35002 11.72 8.34002C11.72 8.34002 11.73 8.34002 11.74 8.33002C11.74 8.33002 11.73 8.33002 11.73 8.34002C11.73 8.34002 11.73 8.34002 11.73 8.36002C11.73 8.36002 11.73 8.37002 11.73 8.38002C11.73 8.38002 11.74 8.38002 11.75 8.38002C11.75 8.38002 11.75 8.38002 11.75 8.37002C11.75 8.37002 11.75 8.38002 11.74 8.39002C11.74 8.39002 11.74 8.39002 11.73 8.39002C11.74 8.39002 11.75 8.39002 11.76 8.39002V8.38002C11.76 8.38002 11.76 8.38002 11.76 8.37002C11.76 8.37002 11.76 8.37002 11.77 8.37002C11.77 8.37002 11.77 8.38002 11.77 8.39002C11.77 8.40002 11.77 8.42002 11.77 8.43002C11.77 8.43002 11.77 8.43002 11.77 8.42002C11.77 8.42002 11.77 8.41002 11.77 8.40002C11.77 8.40002 11.77 8.39002 11.77 8.38002C11.77 8.38002 11.77 8.39002 11.77 8.40002C11.77 8.40002 11.77 8.41002 11.77 8.42002C11.77 8.42002 11.77 8.41002 11.77 8.40002C11.77 8.40002 11.77 8.40002 11.77 8.39002C11.77 8.39002 11.77 8.40002 11.77 8.41002C11.77 8.41002 11.77 8.41002 11.77 8.42002C11.77 8.42002 11.77 8.42002 11.78 8.42002C11.78 8.42002 11.78 8.42002 11.78 8.41002C11.78 8.41002 11.78 8.41002 11.78 8.40002C11.78 8.40002 11.78 8.40002 11.78 8.41002C11.78 8.41002 11.78 8.42002 11.78 8.43002V8.44002C11.78 8.44002 11.79 8.44002 11.79 8.46002C11.79 8.46002 11.79 8.44002 11.79 8.43002C11.79 8.43002 11.79 8.45002 11.79 8.46002C11.79 8.46002 11.81 8.44002 11.81 8.42002C11.81 8.42002 11.81 8.42002 11.81 8.41002C11.81 8.41002 11.81 8.40002 11.81 8.39002C11.81 8.39002 11.81 8.39002 11.81 8.40002C11.81 8.40002 11.81 8.40002 11.81 8.41002C11.81 8.41002 11.81 8.40002 11.81 8.39002C11.81 8.39002 11.81 8.38002 11.81 8.37002C11.81 8.37002 11.81 8.38002 11.81 8.39002C11.81 8.39002 11.81 8.40002 11.81 8.41002C11.81 8.41002 11.81 8.41002 11.82 8.42002C11.82 8.41002 11.82 8.39002 11.82 8.38002C11.82 8.38002 11.82 8.37002 11.82 8.36002C11.82 8.36002 11.82 8.36002 11.83 8.36002V8.37002C11.83 8.37002 11.85 8.37002 11.86 8.37002C11.86 8.37002 11.86 8.37002 11.85 8.37002C11.85 8.37002 11.85 8.37002 11.84 8.36002C11.84 8.36002 11.84 8.36002 11.85 8.37002C11.85 8.37002 11.87 8.37002 11.88 8.37002C11.88 8.37002 11.88 8.37002 11.87 8.37002C11.87 8.37002 11.87 8.37002 11.87 8.35002C11.87 8.35002 11.87 8.34002 11.86 8.33002C11.86 8.33002 11.86 8.33002 11.84 8.33002C11.84 8.33002 11.85 8.33002 11.86 8.34002C11.86 8.34002 11.86 8.35002 11.87 8.36002V8.37002C11.87 8.37002 11.87 8.37002 11.88 8.37002C11.88 8.36002 11.88 8.35002 11.88 8.33002C11.88 8.33002 11.86 8.31002 11.87 8.31002C11.87 8.31002 11.87 8.31002 11.89 8.31002C11.9 8.31002 11.91 8.31002 11.92 8.31002L11.9 8.29002H11.88C11.88 8.29002 11.9 8.29002 11.91 8.29002C11.91 8.29002 11.92 8.30002 11.93 8.31002C11.93 8.31002 11.93 8.30002 11.92 8.29002C11.92 8.29002 11.91 8.28002 11.9 8.27002C11.9 8.27002 11.92 8.27002 11.92 8.29002C11.92 8.29002 11.92 8.30002 11.93 8.31002C11.93 8.31002 11.93 8.31002 11.93 8.30002C11.93 8.30002 11.93 8.29002 11.92 8.28002C11.92 8.28002 11.91 8.28002 11.91 8.27002C11.91 8.27002 11.91 8.27002 11.9 8.27002C11.9 8.27002 11.9 8.27002 11.91 8.27002C11.91 8.27002 11.91 8.27002 11.92 8.27002C11.93 8.27002 11.95 8.27002 11.96 8.27002C11.96 8.27002 11.96 8.27002 11.95 8.27002C11.95 8.27002 11.94 8.27002 11.93 8.27002C11.93 8.27002 11.94 8.27002 11.95 8.27002C11.95 8.27002 11.96 8.27002 11.97 8.27002C11.97 8.27002 11.97 8.27002 11.98 8.27002C11.98 8.27002 11.97 8.26002 11.97 8.25002C11.97 8.25002 11.96 8.24002 11.95 8.23002C11.95 8.23002 11.94 8.23002 11.93 8.23002H11.95C11.95 8.23002 11.96 8.23002 11.97 8.24002C11.97 8.22002 11.96 8.21002 11.94 8.21002H11.93C11.93 8.21002 11.93 8.21002 11.94 8.21002C11.96 8.21002 11.98 8.19002 11.99 8.16002C11.99 8.16002 11.99 8.16002 11.98 8.16002C11.98 8.16002 11.97 8.16002 11.96 8.16002C11.96 8.16002 11.96 8.16002 11.95 8.16002C11.95 8.16002 11.95 8.16002 11.96 8.16002C11.96 8.16002 11.96 8.16002 11.97 8.16002H11.99C11.99 8.16002 11.97 8.16002 11.96 8.16002C11.96 8.16002 11.94 8.16002 11.93 8.17002C11.93 8.17002 11.92 8.17002 11.92 8.18002C11.92 8.18002 11.92 8.17002 11.93 8.16002C11.93 8.16002 11.93 8.16002 11.94 8.16002C11.94 8.16002 11.95 8.16002 11.96 8.15002C11.98 8.13002 11.98 8.10002 11.99 8.08002C11.99 8.08002 11.99 8.08002 11.99 8.09002C11.99 8.09002 11.99 8.09002 11.98 8.10002C11.98 8.11002 11.98 8.12002 11.97 8.13002C11.97 8.13002 11.96 8.14002 11.95 8.15002C11.95 8.15002 11.96 8.14002 11.97 8.13002V8.11002C11.97 8.11002 11.97 8.13002 11.97 8.14002C11.97 8.14002 11.97 8.15002 11.96 8.16002C11.96 8.16002 11.96 8.16002 11.97 8.16002C11.97 8.16002 11.97 8.15002 11.97 8.14002C11.97 8.14002 11.97 8.14002 11.98 8.14002C11.98 8.14002 11.98 8.14002 11.98 8.13002C11.98 8.13002 11.96 8.13002 11.95 8.13002C11.94 8.13002 11.93 8.13002 11.92 8.14002L11.87 8.12002Z" fill="#F7DB17"/>
<path d="M11.86 8.11C11.86 8.11 11.77 8.11 11.73 8.11C11.69 8.11 11.64 8.11 11.6 8.12C11.64 8.12 11.68 8.12 11.72 8.11C11.76 8.1 11.81 8.11 11.85 8.11H11.86Z" fill="#F7DB17"/>
<path fill-rule="evenodd" clip-rule="evenodd" d="M11.6 8.12C11.6 8.12 11.69 8.11 11.73 8.11C11.77 8.11 11.82 8.11 11.86 8.11C11.86 8.11 11.77 8.09 11.72 8.1C11.67 8.11 11.63 8.1 11.58 8.11L11.6 8.12Z" fill="#F7DB17"/>
<path d="M11.73 8.04001C11.73 8.04001 11.73 8.04001 11.73 8.03001C11.73 8.03001 11.73 8.03001 11.72 8.03001C11.72 8.03001 11.72 8.02001 11.72 8.01001C11.72 8.01001 11.72 8.01001 11.72 8.02001C11.72 8.02001 11.72 8.02001 11.73 8.02001C11.73 8.02001 11.73 8.02001 11.73 8.03001V8.04001ZM11.73 8.03001C11.73 8.03001 11.73 8.03001 11.73 8.04001V8.03001Z" fill="black"/>
<path d="M11.79 8.35001H11.76C11.76 8.35001 11.76 8.37001 11.76 8.36001H11.79C11.79 8.36001 11.79 8.34001 11.79 8.35001ZM11.69 8.35001H11.72V8.36001H11.69V8.35001ZM11.7 8.38001H11.72C11.72 8.38001 11.72 8.38001 11.73 8.38001V8.35001C11.73 8.35001 11.72 8.35001 11.71 8.35001C11.71 8.35001 11.7 8.35001 11.7 8.34001C11.7 8.34001 11.7 8.33001 11.7 8.32001C11.7 8.32001 11.7 8.33001 11.7 8.34001C11.7 8.34001 11.71 8.34001 11.72 8.34001C11.73 8.34001 11.73 8.34001 11.74 8.34001C11.74 8.34001 11.74 8.34001 11.75 8.34001C11.76 8.34001 11.75 8.34001 11.75 8.33001C11.75 8.33001 11.75 8.33001 11.76 8.33001C11.76 8.33001 11.76 8.33001 11.77 8.33001V8.34001C11.77 8.34001 11.77 8.34001 11.76 8.34001C11.76 8.34001 11.75 8.34001 11.74 8.34001V8.37001C11.74 8.37001 11.74 8.37001 11.75 8.37001C11.75 8.37001 11.76 8.37001 11.77 8.37001H11.75H11.74C11.74 8.37001 11.74 8.37001 11.73 8.37001H11.71L11.7 8.38001Z" fill="black"/>
<path d="M11.75 8.2C11.75 8.2 11.77 8.18 11.78 8.18H11.8C11.8 8.18 11.79 8.18 11.78 8.18C11.78 8.18 11.76 8.19 11.75 8.2ZM11.72 8.2C11.72 8.2 11.7 8.19 11.69 8.18H11.67C11.67 8.18 11.69 8.18 11.7 8.18C11.7 8.18 11.72 8.19 11.73 8.2H11.72ZM11.7 8.27V8.26C11.7 8.26 11.7 8.26 11.71 8.25C11.71 8.25 11.71 8.25 11.7 8.26C11.7 8.26 11.7 8.26 11.7 8.27ZM11.72 8.15C11.72 8.15 11.72 8.15 11.72 8.16C11.72 8.16 11.72 8.17 11.72 8.18C11.72 8.18 11.72 8.19 11.72 8.2C11.72 8.2 11.72 8.21 11.72 8.22C11.72 8.22 11.72 8.22 11.71 8.22C11.71 8.22 11.71 8.22 11.7 8.22C11.7 8.22 11.7 8.23 11.7 8.24C11.7 8.24 11.69 8.24 11.68 8.24C11.68 8.24 11.68 8.24 11.68 8.23C11.68 8.23 11.68 8.23 11.68 8.22C11.68 8.22 11.68 8.22 11.67 8.22C11.67 8.22 11.67 8.22 11.66 8.22C11.66 8.22 11.66 8.22 11.67 8.22H11.69C11.69 8.22 11.7 8.22 11.71 8.23C11.71 8.23 11.71 8.23 11.71 8.22V8.21C11.71 8.21 11.71 8.2 11.71 8.19C11.71 8.19 11.71 8.19 11.71 8.18L11.72 8.15ZM11.7 8.22C11.7 8.22 11.69 8.22 11.68 8.21C11.68 8.21 11.67 8.21 11.66 8.21C11.66 8.21 11.66 8.21 11.67 8.21C11.67 8.21 11.67 8.2 11.67 8.19L11.7 8.22ZM11.75 8.16C11.75 8.16 11.75 8.16 11.75 8.17C11.75 8.17 11.75 8.18 11.75 8.19V8.2C11.75 8.2 11.75 8.2 11.75 8.21C11.75 8.21 11.76 8.21 11.77 8.2H11.79C11.79 8.2 11.79 8.2 11.8 8.2C11.8 8.2 11.8 8.2 11.79 8.2C11.79 8.2 11.79 8.2 11.79 8.21C11.79 8.21 11.79 8.21 11.79 8.22C11.79 8.22 11.79 8.22 11.78 8.22C11.78 8.22 11.78 8.21 11.78 8.2C11.78 8.2 11.78 8.2 11.77 8.2C11.77 8.2 11.77 8.2 11.76 8.2C11.76 8.2 11.76 8.2 11.76 8.18C11.76 8.18 11.76 8.17 11.76 8.16C11.76 8.16 11.76 8.15 11.76 8.14V8.13L11.75 8.16ZM11.81 8.2C11.81 8.2 11.8 8.2 11.79 8.2C11.79 8.2 11.78 8.2 11.77 8.21C11.77 8.21 11.77 8.22 11.77 8.23H11.78L11.81 8.2Z" fill="black"/>
<path fill-rule="evenodd" clip-rule="evenodd" d="M11.79 8.20001C11.79 8.20001 11.78 8.20001 11.78 8.21001C11.78 8.22001 11.78 8.22001 11.79 8.22001C11.8 8.22001 11.8 8.22001 11.8 8.21001C11.8 8.20001 11.8 8.20001 11.79 8.20001ZM11.68 8.21001C11.68 8.21001 11.69 8.21001 11.69 8.22001C11.69 8.23001 11.69 8.23001 11.68 8.23001C11.67 8.23001 11.67 8.23001 11.67 8.22001C11.67 8.21001 11.67 8.21001 11.68 8.21001Z" fill="black"/>
<path d="M12.28 7.95001C12.27 7.97001 12.26 7.98001 12.24 7.99001C12.23 7.99001 12.22 8.00001 12.23 8.01001C12.21 8.01001 12.21 8.02001 12.21 8.04001C12.2 8.02001 12.18 8.01001 12.16 8.02001C12.16 8.01001 12.15 8.00001 12.13 7.99001C12.12 7.99001 12.11 7.99001 12.1 7.98001C12.1 7.98001 12.1 7.98001 12.09 7.98001H12.08C12.1 8.01001 12.11 8.04001 12.13 8.06001C12.13 8.06001 12.13 8.06001 12.13 8.07001C12.13 8.07001 12.13 8.09001 12.13 8.10001C12.12 8.10001 12.1 8.10001 12.09 8.09001C12.08 8.09001 12.07 8.09001 12.07 8.09001C12.07 8.12001 12.07 8.15001 12.1 8.19001C12.09 8.19001 12.07 8.19001 12.06 8.19001C12.06 8.21001 12.08 8.23001 12.11 8.24001C12.1 8.24001 12.09 8.26001 12.09 8.27001C12.09 8.28001 12.09 8.29001 12.08 8.30001C12.1 8.31001 12.12 8.31001 12.14 8.30001C12.13 8.32001 12.12 8.33001 12.13 8.35001C12.14 8.35001 12.16 8.35001 12.17 8.35001C12.17 8.35001 12.17 8.36001 12.17 8.37001C12.17 8.37001 12.17 8.38001 12.17 8.39001C12.19 8.39001 12.21 8.39001 12.23 8.39001C12.23 8.41001 12.23 8.42001 12.23 8.44001C12.24 8.43001 12.25 8.42001 12.26 8.41001V8.42001C12.26 8.42001 12.26 8.43001 12.26 8.44001C12.26 8.44001 12.29 8.42001 12.3 8.40001C12.31 8.40001 12.32 8.42001 12.33 8.43001C12.33 8.41001 12.33 8.40001 12.33 8.38001C12.35 8.38001 12.37 8.39001 12.39 8.38001V8.36001C12.39 8.36001 12.39 8.35001 12.39 8.34001C12.4 8.34001 12.42 8.34001 12.43 8.34001C12.43 8.32001 12.43 8.30001 12.42 8.29001C12.44 8.29001 12.46 8.29001 12.48 8.29001C12.48 8.29001 12.47 8.27001 12.47 8.26001C12.47 8.24001 12.47 8.23001 12.45 8.23001C12.48 8.22001 12.5 8.20001 12.5 8.18001C12.49 8.18001 12.47 8.18001 12.45 8.18001C12.48 8.15001 12.49 8.12001 12.49 8.09001C12.49 8.09001 12.48 8.09001 12.47 8.09001C12.46 8.09001 12.44 8.09001 12.43 8.09001C12.43 8.09001 12.43 8.07001 12.44 8.07001C12.44 8.07001 12.44 8.07001 12.44 8.06001C12.46 8.03001 12.47 8.01001 12.49 7.98001C12.49 7.98001 12.49 7.97001 12.48 7.98001C12.48 7.98001 12.48 7.98001 12.47 7.98001C12.47 7.98001 12.45 7.98001 12.44 7.98001C12.42 7.98001 12.41 7.98001 12.41 8.00001C12.39 7.99001 12.37 8.00001 12.36 8.02001C12.36 8.00001 12.36 7.99001 12.34 7.99001C12.34 7.98001 12.34 7.97001 12.33 7.97001C12.32 7.95001 12.3 7.94001 12.29 7.92001L12.28 7.95001Z" fill="black"/>
<path d="M12.43 8.04001C12.43 8.04001 12.43 8.04001 12.42 8.04001C12.41 8.04001 12.42 8.05001 12.42 8.05001V8.04001H12.43Z" fill="#F7DB17"/>
<path d="M12.12 8.03C12.12 8.03 12.12 8.03 12.13 8.03C12.14 8.03 12.13 8.04 12.13 8.04V8.03H12.12Z" fill="#F7DB17"/>
<path d="M12.42 8.08001C12.42 8.08001 12.32 8.07001 12.28 8.07001C12.24 8.07001 12.18 8.07001 12.14 8.07001C12.19 8.07001 12.24 8.07001 12.28 8.07001C12.32 8.07001 12.37 8.07001 12.42 8.08001Z" fill="#F7DB17"/>
<path d="M12.13 8.07C12.13 8.07 12.23 8.07 12.28 8.07C12.33 8.07 12.38 8.07 12.42 8.08V8.07C12.42 8.07 12.42 8.06 12.42 8.05C12.42 8.05 12.43 8.04 12.44 8.05L12.47 8C12.47 8 12.45 8.01 12.43 8.01C12.41 8.01 12.4 8.01 12.41 8.03C12.41 8.04 12.41 8.03 12.4 8.03C12.38 8.02 12.37 8.03 12.36 8.05C12.36 8.06 12.35 8.06 12.35 8.05C12.35 8.05 12.35 8.05 12.35 8.04C12.35 8.03 12.35 8.02 12.34 8.03C12.33 8.03 12.33 8.03 12.34 8.03C12.34 8.03 12.34 8.03 12.34 8.02C12.33 8 12.31 7.99 12.3 7.97C12.29 7.99 12.28 8 12.26 8.01V8.02C12.26 8.02 12.25 8.02 12.25 8.03C12.25 8.03 12.25 8.03 12.25 8.04C12.25 8.05 12.25 8.05 12.24 8.04C12.24 8.02 12.22 8.01 12.2 8.02H12.19C12.19 8.01 12.19 8 12.17 8C12.15 8 12.15 8 12.13 7.98L12.15 8.02H12.16V8.04V8.05L12.13 8.07Z" fill="#F7DB17"/>
<path d="M12.41 8.13C12.41 8.13 12.41 8.13 12.4 8.14C12.4 8.14 12.4 8.14 12.41 8.13C12.41 8.13 12.4 8.13 12.39 8.13H12.38C12.38 8.13 12.38 8.13 12.39 8.13C12.39 8.13 12.38 8.13 12.37 8.13C12.37 8.13 12.36 8.13 12.35 8.13C12.35 8.13 12.34 8.13 12.33 8.13H12.31H12.29C12.29 8.13 12.28 8.13 12.27 8.13C12.27 8.13 12.26 8.13 12.25 8.13C12.25 8.13 12.24 8.13 12.23 8.13C12.23 8.13 12.23 8.13 12.21 8.13C12.21 8.13 12.2 8.13 12.19 8.13C12.19 8.13 12.19 8.13 12.2 8.14C12.2 8.14 12.2 8.14 12.19 8.13C12.18 8.13 12.17 8.13 12.15 8.12C12.15 8.12 12.13 8.12 12.12 8.12V8.13C12.12 8.13 12.12 8.13 12.13 8.13C12.13 8.14 12.13 8.15 12.13 8.15C12.13 8.15 12.13 8.15 12.14 8.15C12.14 8.15 12.14 8.14 12.13 8.13C12.13 8.13 12.13 8.11 12.13 8.1V8.12C12.13 8.12 12.13 8.14 12.15 8.14C12.15 8.14 12.13 8.14 12.13 8.12C12.13 8.12 12.13 8.1 12.12 8.09C12.12 8.09 12.11 8.09 12.11 8.08C12.11 8.08 12.11 8.08 12.11 8.07C12.11 8.1 12.11 8.12 12.14 8.14C12.14 8.14 12.15 8.15 12.16 8.15H12.17C12.17 8.15 12.18 8.16 12.18 8.17C12.18 8.17 12.18 8.16 12.17 8.16C12.17 8.16 12.15 8.16 12.14 8.15C12.14 8.15 12.12 8.15 12.11 8.15C12.11 8.15 12.12 8.15 12.13 8.15H12.14C12.14 8.15 12.14 8.15 12.15 8.15C12.15 8.15 12.15 8.15 12.14 8.15C12.13 8.15 12.12 8.15 12.12 8.15C12.12 8.15 12.12 8.15 12.11 8.15C12.12 8.18 12.14 8.19 12.16 8.2C12.16 8.2 12.17 8.2 12.18 8.2C12.18 8.2 12.19 8.2 12.2 8.2C12.2 8.2 12.19 8.2 12.18 8.2C12.18 8.2 12.18 8.2 12.17 8.2C12.16 8.2 12.14 8.21 12.14 8.23C12.14 8.23 12.15 8.23 12.16 8.22H12.18C12.18 8.22 12.17 8.22 12.16 8.22C12.16 8.22 12.15 8.22 12.14 8.24C12.14 8.24 12.14 8.26 12.13 8.26C12.13 8.26 12.13 8.26 12.14 8.26C12.14 8.26 12.15 8.26 12.16 8.26C12.16 8.26 12.17 8.26 12.18 8.26C12.18 8.26 12.17 8.26 12.16 8.26C12.16 8.26 12.16 8.26 12.15 8.26C12.16 8.26 12.18 8.26 12.19 8.26C12.19 8.26 12.19 8.26 12.2 8.26C12.2 8.26 12.2 8.26 12.21 8.26C12.21 8.26 12.21 8.26 12.2 8.26C12.2 8.26 12.2 8.27 12.19 8.28C12.19 8.28 12.19 8.28 12.19 8.29C12.19 8.29 12.19 8.28 12.2 8.27C12.2 8.27 12.21 8.26 12.22 8.25C12.22 8.25 12.2 8.25 12.2 8.27C12.2 8.27 12.19 8.28 12.19 8.29C12.19 8.29 12.2 8.28 12.21 8.27C12.21 8.27 12.23 8.27 12.24 8.27H12.22C12.22 8.27 12.2 8.28 12.2 8.29C12.21 8.29 12.22 8.29 12.23 8.29C12.23 8.29 12.24 8.29 12.25 8.29C12.25 8.29 12.25 8.29 12.24 8.3C12.24 8.31 12.24 8.32 12.24 8.34C12.24 8.34 12.24 8.34 12.25 8.34C12.25 8.34 12.25 8.34 12.25 8.33C12.25 8.33 12.25 8.32 12.26 8.31C12.26 8.31 12.27 8.31 12.28 8.3C12.28 8.3 12.27 8.3 12.26 8.3C12.26 8.3 12.26 8.3 12.25 8.32C12.25 8.32 12.25 8.33 12.25 8.34C12.25 8.34 12.25 8.34 12.24 8.34C12.24 8.34 12.25 8.34 12.26 8.34C12.26 8.34 12.26 8.34 12.27 8.33C12.27 8.33 12.27 8.34 12.26 8.34C12.26 8.34 12.26 8.34 12.25 8.34C12.26 8.34 12.27 8.34 12.28 8.34V8.33C12.28 8.33 12.28 8.33 12.29 8.33C12.29 8.33 12.29 8.34 12.29 8.35C12.29 8.36 12.29 8.38 12.29 8.39C12.29 8.39 12.29 8.39 12.3 8.38C12.3 8.38 12.3 8.37 12.3 8.36C12.3 8.36 12.3 8.35 12.3 8.34C12.3 8.34 12.3 8.35 12.3 8.36C12.3 8.36 12.3 8.37 12.3 8.38C12.3 8.38 12.3 8.38 12.3 8.37C12.3 8.37 12.3 8.37 12.3 8.36C12.3 8.36 12.3 8.37 12.3 8.38C12.3 8.38 12.3 8.38 12.3 8.39C12.3 8.39 12.3 8.39 12.31 8.39C12.31 8.39 12.31 8.39 12.31 8.38C12.31 8.38 12.31 8.38 12.31 8.37C12.31 8.37 12.31 8.37 12.31 8.38C12.31 8.38 12.31 8.39 12.31 8.4V8.41C12.31 8.41 12.31 8.42 12.32 8.43C12.32 8.43 12.32 8.41 12.32 8.4V8.38C12.32 8.38 12.32 8.4 12.32 8.41C12.32 8.41 12.32 8.43 12.32 8.44C12.32 8.44 12.34 8.42 12.34 8.4C12.34 8.4 12.34 8.4 12.34 8.39C12.34 8.39 12.34 8.38 12.34 8.37C12.34 8.37 12.34 8.37 12.34 8.38C12.34 8.38 12.34 8.39 12.34 8.4C12.34 8.4 12.34 8.39 12.34 8.38C12.34 8.38 12.34 8.37 12.34 8.36C12.34 8.36 12.34 8.37 12.34 8.38C12.34 8.38 12.34 8.39 12.34 8.4C12.34 8.4 12.34 8.4 12.34 8.41C12.34 8.4 12.34 8.38 12.34 8.37C12.34 8.37 12.34 8.36 12.34 8.35C12.34 8.35 12.34 8.35 12.35 8.35C12.35 8.35 12.35 8.35 12.35 8.36V8.37C12.35 8.37 12.37 8.37 12.38 8.37C12.38 8.37 12.38 8.37 12.37 8.37C12.37 8.37 12.37 8.37 12.36 8.35V8.36C12.36 8.36 12.38 8.36 12.39 8.36C12.39 8.36 12.39 8.36 12.39 8.34C12.39 8.34 12.39 8.33 12.39 8.32C12.39 8.32 12.39 8.32 12.38 8.31C12.38 8.31 12.39 8.31 12.4 8.32C12.4 8.32 12.4 8.33 12.4 8.34V8.35C12.4 8.35 12.4 8.35 12.41 8.35C12.41 8.34 12.41 8.33 12.41 8.31L12.4 8.29C12.4 8.29 12.4 8.29 12.42 8.29C12.43 8.29 12.44 8.29 12.45 8.29C12.45 8.29 12.44 8.27 12.43 8.27C12.43 8.27 12.42 8.27 12.41 8.27C12.41 8.27 12.43 8.27 12.44 8.27C12.44 8.27 12.45 8.28 12.46 8.29C12.46 8.29 12.46 8.27 12.45 8.27C12.45 8.27 12.44 8.26 12.43 8.25C12.43 8.25 12.45 8.26 12.45 8.27C12.45 8.27 12.45 8.28 12.46 8.29V8.28C12.46 8.28 12.46 8.27 12.45 8.26C12.45 8.26 12.44 8.26 12.44 8.25C12.44 8.25 12.44 8.25 12.43 8.25C12.43 8.25 12.43 8.25 12.44 8.25C12.44 8.25 12.44 8.25 12.45 8.25C12.46 8.25 12.48 8.25 12.49 8.25C12.49 8.25 12.49 8.25 12.48 8.25C12.48 8.25 12.47 8.25 12.46 8.25C12.46 8.25 12.47 8.25 12.48 8.25C12.48 8.25 12.49 8.25 12.5 8.25C12.5 8.25 12.5 8.25 12.51 8.25L12.5 8.23C12.5 8.23 12.49 8.22 12.48 8.21C12.48 8.21 12.47 8.21 12.46 8.21H12.48C12.48 8.21 12.49 8.21 12.5 8.22C12.5 8.2 12.49 8.19 12.47 8.19H12.46C12.46 8.19 12.46 8.19 12.48 8.19C12.5 8.19 12.52 8.17 12.53 8.15C12.53 8.15 12.53 8.15 12.52 8.15C12.52 8.15 12.51 8.15 12.5 8.15C12.5 8.15 12.5 8.15 12.49 8.15C12.49 8.15 12.49 8.15 12.48 8.15C12.48 8.15 12.48 8.15 12.49 8.15C12.49 8.15 12.49 8.15 12.51 8.15H12.53C12.53 8.15 12.51 8.15 12.5 8.15C12.5 8.15 12.48 8.15 12.47 8.15C12.47 8.15 12.46 8.15 12.46 8.16C12.46 8.16 12.46 8.15 12.47 8.14C12.47 8.14 12.47 8.14 12.49 8.14C12.49 8.14 12.5 8.14 12.51 8.13C12.53 8.11 12.54 8.09 12.54 8.06C12.54 8.06 12.54 8.06 12.54 8.07C12.54 8.07 12.54 8.07 12.53 8.07C12.53 8.08 12.53 8.09 12.52 8.09C12.52 8.09 12.51 8.1 12.5 8.1C12.5 8.1 12.51 8.09 12.52 8.08V8.06C12.52 8.06 12.52 8.08 12.52 8.09C12.52 8.09 12.52 8.1 12.51 8.11C12.51 8.11 12.51 8.11 12.52 8.11C12.52 8.11 12.52 8.1 12.53 8.09H12.54C12.54 8.09 12.54 8.09 12.54 8.08C12.54 8.08 12.52 8.08 12.51 8.08C12.5 8.08 12.49 8.08 12.47 8.08L12.41 8.13Z" fill="#F7DB17"/>
<path d="M12.4 8.12002C12.4 8.12002 12.31 8.11002 12.27 8.11002C12.23 8.11002 12.18 8.11002 12.14 8.11002C12.18 8.11002 12.22 8.11002 12.26 8.11002C12.3 8.11002 12.35 8.11002 12.39 8.12002H12.4Z" fill="#F7DB17"/>
<path fill-rule="evenodd" clip-rule="evenodd" d="M12.14 8.11001C12.14 8.11001 12.23 8.11001 12.27 8.11001C12.31 8.11001 12.36 8.11001 12.4 8.12001C12.4 8.12001 12.31 8.10001 12.26 8.10001C12.21 8.10001 12.17 8.10001 12.12 8.10001L12.14 8.11001Z" fill="#F7DB17"/>
<path d="M12.28 8.04001C12.28 8.04001 12.28 8.04001 12.28 8.03001C12.28 8.03001 12.28 8.03001 12.27 8.03001C12.27 8.03001 12.27 8.03001 12.28 8.03001C12.28 8.03001 12.28 8.03001 12.28 8.01001C12.28 8.01001 12.28 8.01001 12.28 8.02001C12.28 8.02001 12.28 8.02001 12.29 8.02001C12.29 8.02001 12.29 8.02001 12.29 8.03001L12.28 8.04001Z" fill="black"/>
<path d="M12.32 8.36001H12.29V8.37001H12.32V8.36001ZM12.21 8.35001H12.24V8.37001H12.21V8.35001ZM12.22 8.38001H12.24C12.24 8.38001 12.24 8.38001 12.25 8.38001V8.35001C12.25 8.35001 12.24 8.35001 12.23 8.35001C12.23 8.35001 12.22 8.35001 12.22 8.34001C12.22 8.34001 12.22 8.33001 12.22 8.32001C12.22 8.32001 12.22 8.33001 12.22 8.34001C12.22 8.34001 12.23 8.34001 12.24 8.34001C12.25 8.34001 12.25 8.34001 12.26 8.34001C12.26 8.34001 12.26 8.34001 12.27 8.34001C12.28 8.34001 12.27 8.34001 12.27 8.33001C12.27 8.33001 12.27 8.33001 12.28 8.33001C12.28 8.33001 12.28 8.33001 12.29 8.33001V8.34001C12.29 8.34001 12.29 8.34001 12.28 8.34001C12.28 8.34001 12.27 8.34001 12.26 8.34001V8.37001C12.26 8.37001 12.26 8.37001 12.27 8.37001C12.27 8.37001 12.28 8.37001 12.29 8.37001H12.27H12.26C12.26 8.37001 12.26 8.37001 12.25 8.37001H12.23L12.22 8.38001Z" fill="black"/>
<path d="M12.29 8.20001C12.29 8.20001 12.31 8.19001 12.32 8.18001H12.34C12.34 8.18001 12.33 8.18001 12.32 8.18001C12.32 8.18001 12.3 8.18001 12.29 8.20001ZM12.25 8.20001C12.25 8.20001 12.23 8.18001 12.22 8.18001H12.2C12.2 8.18001 12.22 8.18001 12.23 8.18001C12.23 8.18001 12.25 8.19001 12.26 8.20001H12.25ZM12.23 8.26002C12.23 8.26002 12.23 8.26001 12.23 8.25001C12.23 8.25001 12.23 8.25001 12.24 8.24001C12.24 8.24001 12.24 8.24001 12.23 8.24001C12.23 8.24001 12.23 8.24001 12.23 8.25001V8.26002ZM12.26 8.15001C12.26 8.15001 12.26 8.15001 12.26 8.16001C12.26 8.16001 12.26 8.17001 12.26 8.18001C12.26 8.18001 12.26 8.19001 12.26 8.20001C12.26 8.20001 12.26 8.21001 12.26 8.22001C12.26 8.22001 12.26 8.22001 12.25 8.22001C12.25 8.22001 12.25 8.22001 12.24 8.22001C12.24 8.22001 12.24 8.23001 12.24 8.24001H12.23C12.23 8.24001 12.23 8.24001 12.23 8.23001C12.23 8.23001 12.23 8.23001 12.23 8.22001C12.23 8.22001 12.23 8.22001 12.22 8.22001C12.22 8.22001 12.22 8.22001 12.23 8.22001H12.25C12.25 8.22001 12.26 8.22001 12.27 8.23001C12.27 8.23001 12.27 8.23001 12.27 8.22001C12.27 8.22001 12.27 8.22001 12.27 8.21001C12.27 8.21001 12.27 8.20001 12.27 8.19001C12.27 8.19001 12.27 8.19001 12.27 8.18001L12.26 8.15001ZM12.24 8.22001C12.24 8.22001 12.23 8.22001 12.22 8.21001C12.22 8.21001 12.21 8.21001 12.2 8.21001C12.2 8.21001 12.2 8.21001 12.21 8.21001C12.21 8.21001 12.21 8.20001 12.21 8.19001L12.24 8.22001ZM12.29 8.16001C12.29 8.16001 12.29 8.16001 12.29 8.17001C12.29 8.17001 12.29 8.18001 12.29 8.19001C12.29 8.19001 12.29 8.20001 12.29 8.21001C12.29 8.21001 12.29 8.21001 12.29 8.22001C12.29 8.22001 12.3 8.22001 12.31 8.21001H12.33C12.33 8.21001 12.33 8.21001 12.34 8.21001C12.34 8.21001 12.34 8.21001 12.33 8.21001C12.33 8.21001 12.33 8.21001 12.32 8.21001C12.32 8.21001 12.32 8.21001 12.32 8.22001C12.32 8.22001 12.32 8.22001 12.32 8.23001C12.32 8.23001 12.32 8.23001 12.3 8.23001C12.3 8.23001 12.3 8.22001 12.3 8.21001C12.3 8.21001 12.3 8.21001 12.29 8.21001C12.29 8.21001 12.29 8.21001 12.28 8.21001C12.28 8.21001 12.28 8.20001 12.28 8.19001C12.28 8.19001 12.28 8.18001 12.28 8.17001C12.28 8.17001 12.28 8.16001 12.28 8.15001C12.28 8.15001 12.28 8.15001 12.28 8.14001L12.29 8.16001ZM12.35 8.21001C12.35 8.21001 12.34 8.21001 12.33 8.21001C12.33 8.21001 12.32 8.21001 12.31 8.22001C12.31 8.22001 12.31 8.23001 12.31 8.24001H12.32L12.35 8.21001Z" fill="black"/>
<path fill-rule="evenodd" clip-rule="evenodd" d="M12.32 8.21001C12.32 8.21001 12.31 8.21001 12.31 8.22001C12.31 8.23001 12.31 8.23001 12.32 8.23001C12.33 8.23001 12.33 8.23001 12.33 8.22001C12.33 8.21001 12.33 8.21001 12.32 8.21001ZM12.22 8.20001C12.22 8.20001 12.23 8.20001 12.23 8.21001C12.23 8.22001 12.23 8.22001 12.22 8.22001C12.21 8.22001 12.21 8.22001 12.21 8.21001C12.21 8.20001 12.21 8.20001 12.22 8.20001Z" fill="black"/>
<path d="M13.8 8.15003L13.29 7.56003L12.61 7.95003L12.5 9.32003C12.83 9.35003 13.16 9.40003 13.47 9.48003L13.81 8.15003H13.8Z" fill="#171796"/>
<path d="M12.74 8.24003C12.74 8.24003 12.79 8.24003 12.81 8.24003C12.81 8.24003 12.83 8.24003 12.83 8.26003C12.84 8.26003 12.85 8.24003 12.86 8.24003C12.88 8.23003 12.89 8.22003 12.91 8.21003C12.93 8.20003 12.96 8.19003 12.98 8.19003C13.01 8.19003 13.03 8.19003 13.06 8.19003C13.08 8.19003 13.1 8.19003 13.12 8.21003C13.14 8.21003 13.16 8.23003 13.17 8.24003C13.19 8.25003 13.21 8.26003 13.23 8.27003C13.25 8.27003 13.28 8.28003 13.31 8.28003C13.32 8.28003 13.34 8.28003 13.35 8.28003C13.36 8.28003 13.37 8.28003 13.35 8.29003C13.26 8.34003 13.19 8.29003 13.13 8.27003C13.15 8.28003 13.17 8.30003 13.19 8.32003C13.21 8.34003 13.24 8.36003 13.28 8.38003C13.31 8.39003 13.34 8.40003 13.37 8.40003C13.38 8.40003 13.4 8.40003 13.41 8.40003H13.42C13.42 8.40003 13.42 8.40003 13.42 8.41003C13.4 8.43003 13.38 8.43003 13.35 8.43003C13.3 8.43003 13.26 8.42003 13.21 8.39003C13.17 8.37003 13.15 8.35003 13.12 8.33003C13.09 8.31003 13.07 8.30003 13.04 8.29003C13.01 8.29003 12.99 8.29003 12.96 8.29003C12.96 8.29003 12.97 8.29003 12.98 8.29003C12.99 8.29003 13.01 8.30003 13.03 8.30003C13.04 8.30003 13.03 8.30003 13.02 8.32003C13.01 8.33003 12.99 8.34003 12.98 8.34003C12.95 8.36003 12.94 8.34003 12.94 8.34003C12.94 8.34003 12.94 8.35003 12.94 8.36003C12.94 8.36003 12.94 8.36003 12.94 8.37003C12.94 8.37003 12.94 8.38003 12.94 8.39003C12.94 8.39003 12.94 8.39003 12.94 8.40003C12.94 8.40003 12.94 8.41003 12.94 8.42003C12.94 8.42003 12.94 8.42003 12.94 8.43003C12.94 8.43003 12.95 8.43003 12.96 8.44003C12.98 8.44003 12.98 8.46003 12.99 8.47003C13 8.47003 13.01 8.48003 13.01 8.49003C13.01 8.49003 13.02 8.49003 13.03 8.50003C13.05 8.50003 13.08 8.50003 13.1 8.50003C13.12 8.50003 13.14 8.52003 13.15 8.53003C13.16 8.53003 13.17 8.53003 13.18 8.53003C13.19 8.53003 13.2 8.53003 13.22 8.53003C13.24 8.53003 13.26 8.53003 13.28 8.53003C13.29 8.53003 13.3 8.54003 13.31 8.55003C13.32 8.56003 13.34 8.56003 13.36 8.55003C13.38 8.55003 13.4 8.55003 13.42 8.55003C13.42 8.55003 13.44 8.55003 13.45 8.55003C13.45 8.55003 13.47 8.54003 13.48 8.54003C13.49 8.54003 13.51 8.54003 13.5 8.56003V8.57003C13.5 8.58003 13.48 8.59003 13.46 8.59003C13.46 8.60003 13.46 8.61003 13.45 8.61003C13.45 8.63003 13.45 8.64003 13.43 8.64003C13.43 8.64003 13.43 8.65003 13.41 8.64003C13.41 8.64003 13.4 8.65003 13.39 8.65003C13.39 8.65003 13.39 8.65003 13.39 8.67003C13.4 8.69003 13.39 8.69003 13.37 8.70003C13.37 8.71003 13.37 8.72003 13.37 8.74003C13.39 8.74003 13.39 8.76003 13.37 8.77003C13.38 8.79003 13.37 8.80003 13.36 8.81003C13.36 8.82003 13.36 8.83003 13.36 8.84003C13.36 8.84003 13.35 8.84003 13.36 8.85003C13.36 8.86003 13.36 8.88003 13.36 8.88003C13.34 8.88003 13.33 8.90003 13.32 8.91003C13.32 8.93003 13.29 8.95003 13.27 8.97003C13.27 8.99003 13.26 9.00003 13.24 9.00003C13.24 9.00003 13.25 9.02003 13.24 9.03003C13.24 9.04003 13.22 9.05003 13.21 9.05003C13.18 9.05003 13.17 9.05003 13.16 9.05003V9.03003C13.14 9.03003 13.14 9.03003 13.14 9.01003C13.14 9.01003 13.16 9.01003 13.17 9.01003C13.17 9.01003 13.17 9.00003 13.18 9.00003C13.18 8.98003 13.19 8.97003 13.21 8.96003C13.22 8.96003 13.24 8.94003 13.25 8.93003C13.25 8.92003 13.26 8.90003 13.27 8.89003C13.27 8.89003 13.27 8.88003 13.27 8.87003C13.27 8.87003 13.26 8.87003 13.26 8.86003C13.25 8.86003 13.24 8.86003 13.24 8.85003C13.24 8.85003 13.23 8.85003 13.22 8.85003C13.22 8.85003 13.2 8.87003 13.19 8.87003C13.19 8.87003 13.18 8.88003 13.17 8.88003C13.15 8.88003 13.13 8.91003 13.12 8.93003C13.12 8.93003 13.12 8.94003 13.11 8.95003C13.11 8.97003 13.11 8.98003 13.1 8.98003C13.1 8.98003 13.1 8.98003 13.09 8.98003V9.00003C13.09 9.00003 13.08 9.01003 13.07 9.01003C13.05 9.01003 13.04 9.01003 13.03 9.01003C13.02 9.01003 13.02 9.00003 13.02 8.99003C13.02 8.99003 13.01 8.99003 13.02 8.98003C13.02 8.98003 13.02 8.98003 13.03 8.98003C13.03 8.98003 13.04 8.98003 13.05 8.98003C13.07 8.96003 13.08 8.95003 13.1 8.94003C13.1 8.94003 13.11 8.93003 13.12 8.92003C13.12 8.90003 13.13 8.89003 13.14 8.88003C13.14 8.88003 13.14 8.87003 13.14 8.86003C13.14 8.86003 13.14 8.84003 13.14 8.83003V8.82003C13.11 8.84003 13.1 8.83003 13.1 8.82003C13.09 8.82003 13.08 8.83003 13.07 8.82003C13.06 8.82003 13.05 8.82003 13.04 8.82003C13.04 8.82003 13.03 8.82003 13.02 8.82003C13.02 8.82003 13.02 8.83003 13.01 8.84003C13.01 8.85003 13.01 8.87003 13 8.88003C13 8.89003 12.99 8.91003 12.98 8.92003C12.98 8.92003 12.98 8.92003 12.98 8.93003C12.98 8.95003 12.98 8.95003 12.97 8.96003C12.97 8.96003 12.97 8.97003 12.96 8.98003C12.96 8.98003 12.96 9.00003 12.96 9.01003C12.96 9.01003 12.94 9.01003 12.94 9.02003C12.94 9.02003 12.92 9.02003 12.91 9.02003C12.9 9.02003 12.9 9.01003 12.9 9.01003C12.9 9.01003 12.9 9.01003 12.89 9.01003V9.00003C12.89 9.00003 12.91 9.00003 12.91 8.99003C12.91 8.99003 12.91 8.98003 12.92 8.98003C12.92 8.97003 12.92 8.96003 12.94 8.96003C12.94 8.95003 12.95 8.93003 12.96 8.92003C12.96 8.92003 12.96 8.92003 12.96 8.91003C12.96 8.90003 12.96 8.89003 12.96 8.88003C12.96 8.87003 12.98 8.84003 12.96 8.83003V8.81003C12.96 8.81003 12.95 8.81003 12.94 8.81003C12.94 8.81003 12.94 8.83003 12.93 8.83003C12.93 8.85003 12.92 8.87003 12.9 8.87003C12.9 8.88003 12.9 8.89003 12.9 8.90003C12.9 8.91003 12.9 8.92003 12.9 8.92003C12.9 8.92003 12.89 8.92003 12.89 8.93003C12.89 8.93003 12.89 8.95003 12.89 8.96003C12.87 8.98003 12.85 8.97003 12.83 8.96003C12.81 8.96003 12.81 8.95003 12.81 8.94003C12.79 8.94003 12.79 8.92003 12.81 8.92003C12.83 8.92003 12.85 8.90003 12.86 8.88003C12.86 8.86003 12.86 8.84003 12.88 8.84003C12.88 8.83003 12.88 8.81003 12.89 8.80003C12.89 8.79003 12.89 8.78003 12.89 8.76003C12.88 8.76003 12.88 8.74003 12.89 8.74003C12.89 8.74003 12.89 8.74003 12.89 8.73003C12.87 8.73003 12.88 8.73003 12.89 8.71003C12.89 8.71003 12.89 8.71003 12.89 8.70003C12.89 8.70003 12.89 8.70003 12.89 8.69003C12.88 8.69003 12.89 8.67003 12.89 8.67003C12.89 8.67003 12.89 8.66003 12.89 8.65003C12.87 8.65003 12.86 8.64003 12.87 8.63003C12.87 8.63003 12.88 8.62003 12.89 8.61003C12.89 8.61003 12.89 8.60003 12.89 8.59003C12.89 8.58003 12.9 8.57003 12.92 8.55003C12.92 8.55003 12.92 8.55003 12.92 8.54003V8.52003C12.92 8.52003 12.92 8.52003 12.92 8.51003C12.9 8.51003 12.9 8.51003 12.91 8.48003C12.9 8.48003 12.91 8.46003 12.92 8.44003C12.92 8.44003 12.92 8.44003 12.92 8.43003C12.91 8.43003 12.9 8.43003 12.89 8.43003C12.89 8.43003 12.87 8.43003 12.86 8.43003C12.86 8.43003 12.86 8.43003 12.85 8.42003C12.85 8.42003 12.85 8.41003 12.85 8.40003C12.83 8.40003 12.82 8.38003 12.84 8.37003C12.84 8.37003 12.85 8.36003 12.86 8.35003C12.86 8.33003 12.88 8.32003 12.89 8.31003C12.89 8.31003 12.89 8.31003 12.89 8.30003C12.89 8.30003 12.88 8.30003 12.87 8.30003C12.87 8.30003 12.87 8.29003 12.85 8.28003C12.85 8.28003 12.85 8.28003 12.85 8.27003C12.84 8.26003 12.85 8.25003 12.85 8.24003H12.74Z" fill="black"/>
<path d="M13.19 8.88005C13.19 8.88005 13.18 8.89005 13.17 8.90005C13.17 8.90005 13.17 8.91005 13.16 8.91005C13.16 8.91005 13.16 8.91005 13.16 8.90005C13.16 8.90005 13.16 8.90005 13.16 8.91005C13.16 8.91005 13.16 8.91005 13.16 8.92005C13.14 8.92005 13.13 8.95005 13.11 8.97005C13.11 8.97005 13.11 8.98005 13.1 8.99005V9.01005C13.1 9.01005 13.08 9.01005 13.07 9.01005C13.07 9.01005 13.07 9.01005 13.09 9.01005C13.09 9.01005 13.09 9.01005 13.09 9.02005C13.09 9.04005 13.04 9.03005 13.03 9.02005C13.03 9.02005 13.03 9.02005 13.03 9.01005C13.03 9.01005 13.03 9.01005 13.04 9.01005C13.04 9.01005 13.04 9.01005 13.03 9.01005C13.03 9.01005 13.03 9.01005 13.02 9.01005C13.02 9.01005 13.03 9.01005 13.04 9.01005C13.05 8.99005 13.07 8.98005 13.09 8.97005C13.09 8.97005 13.1 8.96005 13.11 8.95005C13.11 8.93005 13.12 8.92005 13.13 8.91005C13.13 8.91005 13.13 8.90005 13.13 8.89005C13.13 8.89005 13.13 8.89005 13.13 8.88005C13.13 8.88005 13.13 8.86005 13.13 8.85005C13.13 8.85005 13.13 8.84005 13.13 8.83005C13.13 8.83005 13.13 8.83005 13.14 8.83005C13.14 8.83005 13.14 8.83005 13.15 8.83005C13.15 8.83005 13.15 8.84005 13.15 8.85005C13.15 8.85005 13.16 8.85005 13.17 8.85005C13.17 8.85005 13.18 8.84005 13.19 8.83005C13.19 8.83005 13.19 8.85005 13.19 8.86005C13.19 8.86005 13.18 8.87005 13.18 8.88005C13.18 8.88005 13.18 8.87005 13.19 8.86005C13.19 8.86005 13.2 8.86005 13.21 8.85005V8.87005C13.21 8.87005 13.21 8.89005 13.22 8.89005L13.19 8.88005Z" fill="#F7DB17"/>
<path d="M12.78 8.64005C12.78 8.64005 12.78 8.63005 12.78 8.62005C12.78 8.62005 12.78 8.61005 12.79 8.60005C12.79 8.60005 12.79 8.60005 12.78 8.62005C12.78 8.62005 12.78 8.62005 12.78 8.64005C12.78 8.64005 12.78 8.65005 12.78 8.66005C12.78 8.66005 12.78 8.66005 12.78 8.65005C12.78 8.65005 12.78 8.65005 12.79 8.65005C12.79 8.65005 12.79 8.65005 12.78 8.65005C12.78 8.65005 12.77 8.66005 12.78 8.67005C12.78 8.67005 12.78 8.67005 12.78 8.68005C12.78 8.68005 12.78 8.69005 12.78 8.70005C12.78 8.70005 12.78 8.70005 12.78 8.69005C12.78 8.69005 12.78 8.69005 12.79 8.68005C12.79 8.68005 12.79 8.68005 12.79 8.67005C12.79 8.67005 12.79 8.67005 12.79 8.68005C12.79 8.68005 12.79 8.68005 12.78 8.69005C12.78 8.69005 12.78 8.69005 12.78 8.70005C12.78 8.70005 12.78 8.71005 12.78 8.72005V8.71005C12.78 8.71005 12.78 8.72005 12.78 8.73005C12.78 8.73005 12.78 8.74005 12.78 8.75005C12.77 8.75005 12.78 8.76005 12.78 8.77005V8.79005C12.78 8.81005 12.77 8.82005 12.76 8.84005C12.74 8.84005 12.75 8.86005 12.74 8.88005C12.73 8.90005 12.71 8.91005 12.69 8.92005H12.68C12.68 8.92005 12.68 8.92005 12.69 8.92005C12.7 8.91005 12.71 8.92005 12.69 8.92005C12.7 8.93005 12.73 8.93005 12.75 8.92005C12.76 8.92005 12.77 8.91005 12.75 8.90005C12.75 8.89005 12.75 8.87005 12.77 8.87005C12.77 8.87005 12.77 8.87005 12.77 8.86005C12.77 8.85005 12.77 8.84005 12.77 8.83005C12.77 8.83005 12.79 8.81005 12.79 8.80005C12.79 8.80005 12.79 8.80005 12.79 8.79005C12.79 8.79005 12.8 8.77005 12.81 8.78005C12.81 8.78005 12.81 8.77005 12.81 8.76005C12.81 8.76005 12.81 8.74005 12.81 8.73005C12.81 8.73005 12.81 8.72005 12.81 8.71005C12.81 8.70005 12.81 8.70005 12.81 8.69005C12.81 8.69005 12.81 8.70005 12.81 8.71005C12.81 8.71005 12.81 8.72005 12.81 8.73005C12.81 8.73005 12.81 8.75005 12.81 8.76005C12.81 8.76005 12.81 8.78005 12.81 8.79005C12.81 8.79005 12.81 8.79005 12.81 8.81005C12.81 8.83005 12.81 8.85005 12.81 8.87005C12.81 8.87005 12.81 8.88005 12.81 8.89005V8.90005V8.91005C12.81 8.92005 12.8 8.94005 12.79 8.95005C12.78 8.95005 12.78 8.95005 12.77 8.97005C12.77 8.97005 12.76 8.98005 12.75 8.99005C12.75 8.99005 12.75 8.99005 12.75 9.00005C12.75 9.00005 12.76 9.00005 12.77 8.99005C12.77 8.99005 12.77 9.00005 12.77 9.01005H12.79C12.8 9.01005 12.81 9.01005 12.82 8.99005C12.82 8.99005 12.82 8.98005 12.82 8.97005C12.82 8.97005 12.82 8.97005 12.81 8.97005C12.81 8.97005 12.81 8.97005 12.79 8.97005C12.79 8.97005 12.79 8.97005 12.8 8.97005C12.8 8.97005 12.8 8.97005 12.81 8.97005C12.81 8.97005 12.81 8.95005 12.82 8.94005C12.83 8.94005 12.83 8.93005 12.83 8.92005C12.83 8.92005 12.83 8.92005 12.83 8.91005C12.83 8.90005 12.84 8.88005 12.85 8.87005C12.85 8.86005 12.86 8.85005 12.86 8.83005C12.86 8.83005 12.86 8.83005 12.86 8.82005C12.86 8.82005 12.86 8.82005 12.86 8.81005C12.86 8.81005 12.86 8.81005 12.86 8.80005C12.86 8.80005 12.86 8.80005 12.86 8.81005C12.86 8.82005 12.86 8.81005 12.86 8.82005C12.86 8.82005 12.87 8.82005 12.88 8.82005C12.88 8.82005 12.88 8.82005 12.88 8.81005C12.88 8.81005 12.88 8.81005 12.88 8.79005C12.88 8.79005 12.88 8.80005 12.88 8.81005C12.89 8.81005 12.9 8.81005 12.91 8.81005C12.91 8.80005 12.91 8.79005 12.91 8.78005V8.76005C12.91 8.76005 12.91 8.77005 12.91 8.78005C12.91 8.78005 12.91 8.80005 12.91 8.81005C12.91 8.81005 12.91 8.82005 12.92 8.81005L12.94 8.79005C12.94 8.79005 12.96 8.78005 12.96 8.77005C12.96 8.77005 12.94 8.78005 12.94 8.79005C12.94 8.79005 12.93 8.80005 12.92 8.81005C12.92 8.81005 12.92 8.83005 12.94 8.81005C12.94 8.81005 12.94 8.81005 12.96 8.81005C12.96 8.81005 12.96 8.81005 12.97 8.81005C12.97 8.81005 12.97 8.81005 12.98 8.81005V8.80005C12.98 8.79005 12.99 8.78005 13 8.77005C13 8.77005 13.01 8.77005 13.02 8.76005C13.02 8.76005 13.02 8.75005 13.03 8.74005C13.03 8.74005 13.03 8.75005 13.02 8.76005C13.02 8.76005 13.01 8.77005 13 8.77005C13 8.78005 12.98 8.79005 12.98 8.80005C12.98 8.80005 12.98 8.80005 12.98 8.81005C12.98 8.81005 12.98 8.82005 12.98 8.83005C12.98 8.83005 12.99 8.83005 13 8.83005C13 8.83005 13.01 8.82005 13.02 8.81005C13.02 8.81005 13.02 8.81005 13.02 8.80005C13.02 8.80005 13.02 8.80005 13.03 8.80005C13.03 8.80005 13.03 8.80005 13.03 8.81005C13.03 8.81005 13.03 8.83005 13.03 8.84005C13.03 8.84005 13.05 8.84005 13.05 8.83005C13.05 8.83005 13.05 8.85005 13.05 8.86005C13.05 8.86005 13.05 8.87005 13.06 8.88005C13.06 8.88005 13.06 8.88005 13.06 8.87005C13.06 8.87005 13.06 8.87005 13.08 8.87005C13.08 8.88005 13.08 8.88005 13.09 8.88005C13.09 8.88005 13.09 8.88005 13.09 8.87005C13.09 8.87005 13.09 8.87005 13.09 8.86005C13.09 8.86005 13.09 8.86005 13.09 8.87005C13.09 8.87005 13.09 8.87005 13.09 8.88005C13.09 8.88005 13.09 8.89005 13.11 8.90005C13.11 8.90005 13.11 8.90005 13.11 8.89005C13.11 8.89005 13.11 8.89005 13.11 8.88005C13.11 8.88005 13.11 8.88005 13.11 8.89005C13.11 8.90005 13.11 8.89005 13.11 8.90005C13.11 8.90005 13.11 8.90005 13.11 8.91005C13.09 8.94005 13.08 8.98005 13.04 8.99005C13.02 8.99005 13.02 9.01005 13.01 9.02005C13.01 9.02005 13 9.02005 13 9.04005C12.99 9.04005 12.98 9.04005 12.97 9.04005C12.97 9.04005 12.97 9.05005 12.98 9.05005C12.99 9.05005 13 9.05005 13 9.05005C13 9.05005 13 9.06005 12.99 9.07005C13 9.09005 13.03 9.08005 13.04 9.07005C13.05 9.07005 13.07 9.06005 13.07 9.05005C13.07 9.05005 13.07 9.04005 13.07 9.03005C13.05 9.01005 13.05 9.03005 13.07 9.03005C13.09 9.03005 13.09 9.02005 13.1 9.00005C13.12 8.98005 13.13 8.97005 13.14 8.95005V8.94005C13.14 8.94005 13.14 8.94005 13.14 8.93005C13.14 8.93005 13.14 8.93005 13.14 8.92005C13.14 8.92005 13.14 8.92005 13.14 8.93005C13.15 8.92005 13.17 8.91005 13.18 8.90005C13.18 8.90005 13.18 8.90005 13.19 8.90005C13.19 8.90005 13.19 8.89005 13.19 8.88005C13.19 8.87005 13.19 8.87005 13.19 8.86005C13.19 8.86005 13.19 8.84005 13.19 8.83005C13.19 8.83005 13.2 8.83005 13.21 8.81005V8.79005C13.21 8.79005 13.21 8.79005 13.2 8.79005C13.2 8.79005 13.2 8.79005 13.21 8.79005C13.21 8.79005 13.21 8.78005 13.2 8.77005C13.2 8.77005 13.19 8.76005 13.18 8.75005L13.2 8.77005C13.2 8.77005 13.2 8.75005 13.2 8.74005C13.2 8.74005 13.2 8.74005 13.19 8.73005C13.19 8.73005 13.19 8.73005 13.19 8.72005C13.19 8.72005 13.19 8.72005 13.19 8.73005C13.19 8.73005 13.19 8.73005 13.2 8.73005H13.22V8.71005C13.22 8.71005 13.22 8.71005 13.22 8.70005C13.22 8.70005 13.23 8.70005 13.24 8.69005C13.24 8.69005 13.24 8.69005 13.23 8.68005C13.23 8.68005 13.23 8.68005 13.22 8.68005C13.22 8.68005 13.22 8.68005 13.23 8.68005C13.23 8.68005 13.23 8.68005 13.24 8.69005C13.24 8.69005 13.24 8.69005 13.25 8.69005C13.25 8.69005 13.25 8.69005 13.25 8.68005C13.25 8.68005 13.25 8.68005 13.25 8.67005C13.25 8.67005 13.25 8.67005 13.25 8.68005C13.25 8.68005 13.25 8.68005 13.25 8.69005C13.25 8.69005 13.25 8.69005 13.26 8.69005C13.26 8.69005 13.26 8.67005 13.26 8.66005C13.26 8.66005 13.26 8.65005 13.26 8.64005C13.26 8.64005 13.26 8.64005 13.27 8.64005C13.28 8.64005 13.29 8.64005 13.29 8.62005V8.61005C13.28 8.61005 13.27 8.61005 13.26 8.61005C13.26 8.61005 13.24 8.61005 13.23 8.61005C13.23 8.61005 13.23 8.61005 13.23 8.62005C13.23 8.62005 13.23 8.62005 13.23 8.61005C13.23 8.60005 13.23 8.61005 13.23 8.60005C13.23 8.60005 13.21 8.60005 13.2 8.60005C13.2 8.60005 13.19 8.60005 13.18 8.60005C13.18 8.60005 13.17 8.60005 13.16 8.60005C13.16 8.60005 13.16 8.60005 13.16 8.61005C13.16 8.61005 13.16 8.62005 13.16 8.63005C13.16 8.63005 13.16 8.62005 13.16 8.61005C13.16 8.60005 13.16 8.61005 13.16 8.60005C13.16 8.60005 13.16 8.60005 13.15 8.60005V8.61005C13.15 8.61005 13.15 8.60005 13.14 8.59005C13.14 8.59005 13.14 8.60005 13.14 8.61005C13.14 8.61005 13.14 8.60005 13.14 8.59005C13.14 8.59005 13.14 8.59005 13.12 8.58005C13.12 8.58005 13.12 8.58005 13.12 8.59005C13.12 8.59005 13.12 8.59005 13.12 8.58005C13.12 8.58005 13.1 8.58005 13.09 8.58005C13.09 8.58005 13.09 8.58005 13.09 8.59005C13.09 8.59005 13.09 8.59005 13.09 8.60005C13.09 8.60005 13.09 8.60005 13.09 8.61005C13.09 8.61005 13.09 8.61005 13.09 8.62005C13.09 8.62005 13.09 8.62005 13.09 8.61005C13.09 8.61005 13.09 8.61005 13.09 8.60005C13.09 8.60005 13.09 8.60005 13.09 8.59005C13.09 8.59005 13.09 8.59005 13.09 8.58005C13.09 8.58005 13.09 8.58005 13.08 8.58005C13.08 8.58005 13.07 8.58005 13.06 8.58005C13.06 8.58005 13.07 8.60005 13.08 8.61005C13.08 8.61005 13.07 8.59005 13.06 8.58005C13.06 8.58005 13.05 8.58005 13.04 8.58005C13.04 8.58005 13.04 8.58005 13.05 8.59005C13.05 8.59005 13.06 8.60005 13.06 8.61005C13.06 8.61005 13.06 8.60005 13.05 8.59005C13.05 8.59005 13.05 8.59005 13.03 8.58005C13.03 8.58005 13.02 8.58005 13.01 8.58005C13.01 8.58005 13.01 8.59005 13.01 8.60005V8.58005C13.01 8.58005 13.01 8.58005 13 8.58005C13 8.58005 13 8.59005 13 8.60005C13 8.60005 13 8.59005 13 8.58005C12.99 8.57005 12.98 8.56005 12.97 8.55005C12.97 8.55005 12.97 8.55005 12.97 8.56005C12.97 8.56005 12.97 8.57005 12.97 8.58005C12.97 8.58005 12.97 8.57005 12.97 8.56005C12.97 8.56005 12.97 8.56005 12.97 8.55005C12.97 8.55005 12.95 8.55005 12.94 8.55005C12.94 8.55005 12.95 8.56005 12.95 8.57005C12.95 8.57005 12.95 8.56005 12.94 8.55005C12.94 8.55005 12.93 8.55005 12.92 8.55005C12.92 8.55005 12.92 8.55005 12.92 8.56005C12.92 8.56005 12.92 8.57005 12.92 8.58005C12.92 8.58005 12.92 8.58005 12.93 8.59005C12.93 8.59005 12.92 8.59005 12.92 8.58005C12.92 8.58005 12.92 8.57005 12.92 8.56005C12.92 8.56005 12.92 8.56005 12.92 8.55005C12.92 8.55005 12.92 8.55005 12.92 8.54005C12.92 8.54005 12.91 8.54005 12.9 8.54005C12.9 8.54005 12.9 8.55005 12.9 8.56005C12.9 8.56005 12.9 8.58005 12.9 8.59005C12.9 8.59005 12.9 8.57005 12.9 8.56005C12.9 8.56005 12.9 8.55005 12.9 8.54005C12.9 8.54005 12.9 8.54005 12.89 8.53005C12.89 8.52005 12.89 8.51005 12.87 8.51005C12.87 8.51005 12.87 8.51005 12.87 8.52005C12.87 8.52005 12.87 8.52005 12.87 8.53005C12.87 8.53005 12.87 8.53005 12.87 8.52005C12.87 8.52005 12.87 8.52005 12.87 8.51005C12.87 8.49005 12.87 8.48005 12.85 8.48005C12.85 8.48005 12.85 8.48005 12.85 8.49005C12.85 8.49005 12.85 8.49005 12.85 8.48005C12.85 8.48005 12.85 8.48005 12.84 8.47005C12.84 8.47005 12.84 8.48005 12.84 8.49005C12.84 8.49005 12.84 8.50005 12.83 8.51005C12.83 8.51005 12.83 8.50005 12.84 8.49005C12.84 8.49005 12.84 8.48005 12.84 8.47005C12.84 8.47005 12.84 8.47005 12.84 8.46005C12.84 8.46005 12.84 8.45005 12.84 8.44005C12.84 8.44005 12.84 8.44005 12.83 8.44005C12.83 8.44005 12.83 8.44005 12.84 8.44005C12.84 8.44005 12.84 8.44005 12.85 8.44005C12.84 8.44005 12.83 8.44005 12.82 8.44005C12.82 8.44005 12.81 8.44005 12.8 8.44005C12.8 8.44005 12.81 8.44005 12.82 8.44005C12.82 8.44005 12.84 8.44005 12.85 8.44005C12.85 8.44005 12.85 8.43005 12.85 8.42005C12.85 8.42005 12.85 8.42005 12.84 8.42005C12.84 8.42005 12.84 8.42005 12.85 8.42005C12.85 8.42005 12.85 8.42005 12.86 8.42005C12.86 8.42005 12.86 8.42005 12.87 8.43005H12.89C12.91 8.43005 12.92 8.43005 12.93 8.42005H12.91C12.91 8.42005 12.9 8.42005 12.89 8.42005C12.89 8.42005 12.9 8.42005 12.91 8.42005C12.91 8.42005 12.93 8.42005 12.94 8.42005C12.94 8.42005 12.94 8.42005 12.95 8.42005C12.93 8.42005 12.91 8.42005 12.9 8.41005C12.9 8.41005 12.89 8.41005 12.88 8.41005C12.87 8.41005 12.85 8.41005 12.84 8.41005C12.84 8.41005 12.84 8.41005 12.83 8.41005C12.83 8.41005 12.82 8.41005 12.81 8.41005C12.81 8.41005 12.82 8.41005 12.83 8.41005C12.83 8.41005 12.84 8.41005 12.85 8.41005C12.87 8.41005 12.88 8.40005 12.9 8.41005C12.92 8.41005 12.93 8.41005 12.95 8.41005C12.95 8.41005 12.96 8.39005 12.95 8.39005C12.95 8.39005 12.94 8.38005 12.93 8.37005C12.92 8.37005 12.91 8.37005 12.9 8.37005C12.9 8.37005 12.89 8.37005 12.88 8.37005C12.88 8.37005 12.89 8.37005 12.9 8.38005C12.9 8.38005 12.9 8.39005 12.91 8.41005C12.91 8.41005 12.91 8.39005 12.9 8.39005C12.9 8.39005 12.88 8.39005 12.88 8.38005C12.87 8.38005 12.86 8.38005 12.85 8.38005C12.85 8.38005 12.84 8.38005 12.83 8.38005H12.85C12.85 8.38005 12.86 8.38005 12.87 8.40005C12.87 8.40005 12.87 8.39005 12.86 8.38005C12.85 8.38005 12.83 8.38005 12.82 8.38005C12.82 8.38005 12.81 8.38005 12.8 8.40005C12.8 8.40005 12.81 8.39005 12.82 8.38005C12.82 8.38005 12.83 8.38005 12.84 8.38005C12.84 8.38005 12.86 8.37005 12.87 8.37005C12.88 8.37005 12.89 8.37005 12.91 8.37005C12.91 8.37005 12.91 8.36005 12.9 8.36005C12.9 8.36005 12.89 8.36005 12.88 8.36005C12.87 8.36005 12.85 8.37005 12.84 8.38005C12.84 8.38005 12.84 8.38005 12.85 8.38005C12.85 8.38005 12.85 8.38005 12.84 8.38005C12.84 8.38005 12.84 8.38005 12.83 8.38005C12.81 8.38005 12.8 8.40005 12.79 8.41005H12.77C12.77 8.41005 12.77 8.41005 12.77 8.43005C12.77 8.43005 12.77 8.44005 12.77 8.45005C12.76 8.46005 12.74 8.47005 12.73 8.49005C12.73 8.49005 12.73 8.49005 12.73 8.50005C12.73 8.50005 12.73 8.50005 12.73 8.49005C12.73 8.49005 12.73 8.49005 12.73 8.50005C12.73 8.50005 12.73 8.50005 12.74 8.50005C12.76 8.50005 12.74 8.51005 12.75 8.52005C12.75 8.52005 12.75 8.52005 12.76 8.53005C12.76 8.53005 12.76 8.53005 12.77 8.53005C12.77 8.52005 12.77 8.51005 12.77 8.51005C12.77 8.51005 12.77 8.51005 12.77 8.52005C12.77 8.52005 12.79 8.52005 12.8 8.52005C12.82 8.50005 12.83 8.50005 12.8 8.52005C12.8 8.52005 12.8 8.52005 12.8 8.54005C12.8 8.54005 12.77 8.56005 12.78 8.57005C12.78 8.57005 12.77 8.59005 12.78 8.59005C12.78 8.59005 12.79 8.58005 12.8 8.57005C12.8 8.57005 12.81 8.56005 12.82 8.55005C12.82 8.55005 12.82 8.54005 12.82 8.53005C12.82 8.53005 12.82 8.52005 12.82 8.51005C12.82 8.51005 12.82 8.52005 12.82 8.53005C12.82 8.53005 12.82 8.54005 12.82 8.55005C12.82 8.55005 12.81 8.57005 12.8 8.57005C12.8 8.57005 12.8 8.58005 12.78 8.58005C12.78 8.58005 12.78 8.58005 12.78 8.59005C12.78 8.59005 12.8 8.57005 12.81 8.56005C12.81 8.56005 12.82 8.54005 12.83 8.53005C12.83 8.53005 12.83 8.53005 12.83 8.54005C12.83 8.54005 12.83 8.55005 12.83 8.56005C12.83 8.56005 12.83 8.55005 12.83 8.54005C12.83 8.54005 12.81 8.56005 12.8 8.57005C12.8 8.57005 12.78 8.57005 12.8 8.59005L12.81 8.58005H12.8V8.59005C12.8 8.59005 12.81 8.58005 12.82 8.57005C12.82 8.57005 12.81 8.58005 12.8 8.59005C12.8 8.59005 12.77 8.61005 12.77 8.62005C12.77 8.62005 12.78 8.62005 12.79 8.62005C12.79 8.62005 12.8 8.62005 12.81 8.61005C12.81 8.61005 12.8 8.61005 12.79 8.62005C12.79 8.62005 12.79 8.62005 12.77 8.62005C12.77 8.62005 12.77 8.64005 12.77 8.65005C12.77 8.65005 12.74 8.67005 12.75 8.68005L12.78 8.64005Z" fill="#F7DB17"/>
<path d="M12.79 8.29004C12.79 8.29004 12.78 8.29004 12.77 8.29004C12.77 8.29004 12.77 8.28004 12.76 8.27004C12.76 8.27004 12.76 8.27004 12.76 8.26004C12.78 8.26004 12.8 8.26004 12.82 8.26004C12.82 8.26004 12.83 8.26004 12.84 8.28004C12.83 8.28004 12.82 8.28004 12.81 8.28004C12.81 8.28004 12.81 8.29004 12.81 8.30004L12.79 8.29004Z" fill="#F7DB17"/>
<path d="M13.21 8.87002C13.21 8.87002 13.21 8.87002 13.2 8.87002C13.2 8.87002 13.2 8.87002 13.2 8.86002L13.21 8.87002Z" fill="black"/>
<path d="M13.26 8.98004C13.26 8.98004 13.26 8.98004 13.25 8.99004C13.25 8.99004 13.25 8.99004 13.24 8.99004C13.24 8.99004 13.24 8.99004 13.25 8.99004C13.25 8.99004 13.25 8.99004 13.25 8.98004H13.26Z" fill="black"/>
<path d="M13.27 8.94003C13.27 8.94003 13.27 8.94003 13.27 8.95003C13.27 8.96003 13.27 8.95003 13.26 8.95003C13.26 8.95003 13.26 8.95003 13.27 8.95003C13.27 8.95003 13.27 8.95003 13.27 8.94003Z" fill="black"/>
<path d="M13.32 8.74004C13.32 8.74004 13.33 8.77004 13.33 8.78004C13.33 8.78004 13.33 8.78004 13.33 8.77004C13.33 8.77004 13.33 8.76004 13.33 8.75004C13.33 8.74004 13.33 8.74004 13.33 8.73004C13.33 8.73004 13.33 8.74004 13.33 8.75004C13.33 8.75004 13.33 8.76004 13.33 8.77004C13.33 8.77004 13.33 8.79004 13.33 8.80004C13.33 8.78004 13.33 8.77004 13.32 8.75004V8.74004Z" fill="black"/>
<path d="M13.3 8.63004C13.3 8.63004 13.32 8.64004 13.32 8.65004V8.67004C13.32 8.67004 13.32 8.67004 13.31 8.67004C13.31 8.69004 13.31 8.71004 13.31 8.72004C13.31 8.73004 13.3 8.74004 13.28 8.75004V8.73004C13.28 8.73004 13.28 8.74004 13.28 8.75004C13.28 8.75004 13.3 8.74004 13.3 8.73004C13.3 8.72004 13.3 8.70004 13.3 8.68004C13.3 8.68004 13.3 8.68004 13.31 8.68004C13.31 8.68004 13.31 8.67004 13.31 8.66004C13.31 8.66004 13.3 8.65004 13.29 8.64004L13.3 8.63004Z" fill="black"/>
<path d="M13.22 8.66003C13.22 8.66003 13.22 8.67003 13.22 8.68003C13.22 8.68003 13.22 8.69003 13.22 8.70003C13.22 8.70003 13.22 8.71003 13.22 8.72003C13.22 8.72003 13.22 8.73003 13.24 8.74003V8.72003C13.24 8.72003 13.24 8.70003 13.24 8.69003C13.24 8.69003 13.24 8.69003 13.24 8.68003C13.24 8.68003 13.24 8.68003 13.24 8.67003C13.24 8.67003 13.24 8.67003 13.24 8.68003C13.24 8.69003 13.24 8.68003 13.24 8.69003V8.71003C13.24 8.71003 13.24 8.73003 13.24 8.74003C13.24 8.74003 13.22 8.73003 13.22 8.72003V8.70003C13.22 8.70003 13.22 8.69003 13.22 8.68003C13.22 8.67003 13.22 8.67003 13.22 8.66003Z" fill="black"/>
<path d="M13.2 8.69003C13.2 8.69003 13.2 8.70003 13.2 8.71003C13.2 8.71003 13.2 8.72003 13.19 8.73003C13.19 8.73003 13.19 8.73003 13.2 8.73003C13.2 8.73003 13.2 8.73003 13.19 8.73003C13.19 8.73003 13.19 8.72003 13.2 8.71003C13.2 8.71003 13.2 8.70003 13.2 8.69003Z" fill="black"/>
<path d="M13.15 8.66003C13.15 8.66003 13.15 8.68003 13.15 8.69003C13.15 8.69003 13.15 8.71003 13.14 8.71003C13.14 8.71003 13.14 8.72003 13.13 8.73003C13.13 8.73003 13.13 8.73003 13.13 8.74003C13.13 8.74003 13.13 8.74003 13.14 8.74003C13.14 8.74003 13.15 8.74003 13.16 8.73003C13.16 8.73003 13.17 8.73003 13.17 8.72003C13.17 8.72003 13.17 8.72003 13.16 8.73003C13.15 8.74003 13.15 8.73003 13.14 8.74003C13.14 8.74003 13.14 8.74003 13.13 8.74003C13.12 8.74003 13.13 8.74003 13.13 8.75003V8.73003C13.13 8.73003 13.13 8.72003 13.14 8.71003C13.14 8.71003 13.14 8.70003 13.15 8.69003C13.16 8.68003 13.15 8.67003 13.15 8.67003V8.66003Z" fill="black"/>
<path d="M13.21 8.75002C13.21 8.75002 13.21 8.76002 13.21 8.77002V8.79002C13.21 8.79002 13.21 8.77002 13.2 8.77002C13.2 8.77002 13.19 8.76002 13.18 8.75002C13.18 8.75002 13.2 8.76002 13.2 8.77002C13.2 8.77002 13.2 8.78002 13.2 8.79002C13.2 8.79002 13.2 8.78002 13.2 8.77002C13.2 8.77002 13.2 8.76002 13.2 8.75002C13.2 8.75002 13.2 8.75002 13.2 8.74002L13.21 8.75002Z" fill="black"/>
<path d="M13.09 8.60002C13.09 8.60002 13.09 8.60002 13.08 8.59002C13.08 8.59002 13.08 8.59002 13.08 8.58002C13.08 8.58002 13.08 8.58002 13.09 8.59002V8.60002Z" fill="black"/>
<path d="M13.08 8.62003C13.08 8.62003 13.09 8.64003 13.1 8.65003C13.1 8.65003 13.1 8.66003 13.1 8.67003C13.1 8.67003 13.1 8.66003 13.1 8.65003C13.1 8.65003 13.1 8.65003 13.1 8.64003C13.1 8.63003 13.1 8.64003 13.1 8.63003C13.1 8.63003 13.1 8.64003 13.11 8.65003C13.12 8.66003 13.11 8.67003 13.11 8.67003V8.65003C13.11 8.65003 13.11 8.64003 13.11 8.63003C13.11 8.63003 13.11 8.63003 13.11 8.64003C13.11 8.64003 13.11 8.64003 13.11 8.65003C13.11 8.66003 13.11 8.67003 13.11 8.67003C13.11 8.67003 13.11 8.67003 13.1 8.68003C13.1 8.68003 13.1 8.68003 13.1 8.69003C13.1 8.68003 13.1 8.67003 13.1 8.66003C13.1 8.66003 13.1 8.64003 13.09 8.63003L13.08 8.62003Z" fill="black"/>
<path d="M13.08 8.69003C13.08 8.69003 13.08 8.70003 13.08 8.71003C13.08 8.71003 13.08 8.72003 13.07 8.73003C13.07 8.73003 13.07 8.73003 13.06 8.74003C13.06 8.74003 13.06 8.74003 13.06 8.75003C13.06 8.75003 13.06 8.75003 13.06 8.74003C13.06 8.73003 13.06 8.74003 13.07 8.73003C13.07 8.73003 13.07 8.73003 13.07 8.72003C13.07 8.72003 13.07 8.72003 13.07 8.71003L13.08 8.69003Z" fill="black"/>
<path d="M13.02 8.72003C13.02 8.72003 13.02 8.74003 13.02 8.75003C13.02 8.75003 13.01 8.76003 13 8.77003C13 8.77003 13.01 8.76003 13.02 8.75003C13.03 8.74003 13.02 8.73003 13.02 8.72003Z" fill="black"/>
<path d="M12.9 8.77002C12.9 8.77002 12.9 8.78002 12.9 8.79002C12.9 8.79002 12.9 8.80002 12.9 8.81002C12.9 8.81002 12.9 8.81002 12.9 8.82002C12.9 8.82002 12.9 8.82002 12.9 8.81002C12.9 8.81002 12.9 8.80002 12.9 8.79002C12.9 8.79002 12.9 8.80002 12.9 8.81002C12.9 8.81002 12.9 8.82002 12.89 8.83002C12.89 8.83002 12.89 8.83002 12.89 8.82002C12.89 8.81002 12.89 8.82002 12.89 8.81002C12.89 8.81002 12.89 8.80002 12.89 8.79002C12.89 8.78002 12.89 8.78002 12.89 8.77002H12.9Z" fill="black"/>
<path d="M12.93 8.69003C12.93 8.69003 12.93 8.71003 12.93 8.72003C12.93 8.72003 12.93 8.73003 12.93 8.74003C12.93 8.74003 12.93 8.75003 12.94 8.76003C12.94 8.76003 12.94 8.76003 12.94 8.75003C12.94 8.75003 12.94 8.75003 12.94 8.76003C12.94 8.76003 12.94 8.76003 12.94 8.77003C12.94 8.77003 12.94 8.76003 12.93 8.75003C12.93 8.75003 12.93 8.74003 12.93 8.73003C12.93 8.73003 12.93 8.71003 12.93 8.70003V8.69003Z" fill="black"/>
<path d="M12.87 8.52004C12.87 8.52004 12.86 8.54004 12.86 8.55004V8.57004C12.86 8.57004 12.86 8.58004 12.86 8.59004C12.86 8.59004 12.86 8.60004 12.86 8.61004C12.86 8.61004 12.86 8.60004 12.86 8.59004C12.86 8.59004 12.86 8.58004 12.86 8.57004C12.86 8.57004 12.86 8.55004 12.86 8.54004C12.86 8.53004 12.86 8.52004 12.87 8.51004V8.52004Z" fill="black"/>
<path d="M12.87 8.49002C12.87 8.49002 12.87 8.50002 12.87 8.51002C12.87 8.51002 12.87 8.52002 12.86 8.53002C12.86 8.53002 12.86 8.53002 12.86 8.55002C12.86 8.55002 12.86 8.56002 12.86 8.57002C12.86 8.57002 12.86 8.56002 12.86 8.55002C12.86 8.54002 12.86 8.54002 12.87 8.53002C12.87 8.53002 12.87 8.52002 12.87 8.51002C12.87 8.51002 12.87 8.50002 12.87 8.49002Z" fill="black"/>
<path d="M12.92 8.48004C12.92 8.48004 12.92 8.48004 12.91 8.49004C12.91 8.49004 12.91 8.50004 12.91 8.51004C12.91 8.51004 12.91 8.51004 12.91 8.52004C12.91 8.52004 12.91 8.53004 12.91 8.54004C12.91 8.54004 12.91 8.53004 12.91 8.52004C12.91 8.52004 12.91 8.52004 12.91 8.51004C12.9 8.51004 12.89 8.53004 12.89 8.54004C12.89 8.55004 12.89 8.57004 12.9 8.58004C12.9 8.57004 12.89 8.55004 12.89 8.54004C12.89 8.53004 12.89 8.52004 12.91 8.51004V8.49004C12.91 8.49004 12.91 8.49004 12.92 8.48004Z" fill="black"/>
<path d="M13.03 8.63004C13.03 8.63004 13.05 8.65004 13.05 8.66004C13.05 8.67004 13.05 8.68004 13.05 8.70004C13.05 8.69004 13.05 8.68004 13.05 8.67004C13.05 8.66004 13.05 8.65004 13.03 8.64004V8.63004Z" fill="black"/>
<path d="M13.02 8.68001C13.02 8.68001 13.02 8.69001 13.02 8.70001C13.02 8.71001 13.02 8.71001 13.01 8.72001C13.01 8.72001 13.01 8.72001 13.01 8.73001C13.01 8.73001 13.01 8.73001 13.01 8.74001C13.01 8.74001 13.01 8.74001 13.01 8.73001C13.01 8.72001 13.01 8.73001 13.01 8.72001V8.70001C13.01 8.70001 13.01 8.69001 13.01 8.68001C13.01 8.68001 13.01 8.67001 13.01 8.66001C13.01 8.65001 13.01 8.65001 13.01 8.64001C13.01 8.64001 13.01 8.65001 13.01 8.66001C13.01 8.67001 13.01 8.67001 13.01 8.68001C13.01 8.68001 13.01 8.69001 13.01 8.70001C13.01 8.70001 13.01 8.71001 13.01 8.72001C13.01 8.72001 13.01 8.72001 13.01 8.73001C13.01 8.73001 13.01 8.73001 13.01 8.72001C13.01 8.72001 13.01 8.71001 13.02 8.70001C13.02 8.70001 13.02 8.69001 13.02 8.68001Z" fill="black"/>
<path d="M12.87 8.72004C12.87 8.72004 12.87 8.69004 12.87 8.67004C12.87 8.66004 12.87 8.65004 12.89 8.64004C12.89 8.64004 12.89 8.63004 12.9 8.62004C12.91 8.61004 12.9 8.61004 12.9 8.60004C12.9 8.61004 12.9 8.62004 12.9 8.63004C12.9 8.63004 12.9 8.64004 12.89 8.65004C12.89 8.65004 12.88 8.67004 12.88 8.68004C12.88 8.69004 12.88 8.71004 12.88 8.72004H12.87Z" fill="black"/>
<path d="M13 8.58002C13 8.58002 13 8.59002 13 8.60002V8.62002C13 8.62002 13 8.61002 13 8.60002C13 8.59002 13 8.59002 12.99 8.59002C12.99 8.59002 12.99 8.59002 13 8.61002C13 8.61002 13 8.61002 13 8.62002C13 8.62002 13 8.62002 13 8.61002C13 8.61002 13 8.60002 13 8.59002V8.58002Z" fill="black"/>
<path d="M13.02 8.55002C13.02 8.55002 13.02 8.56002 13.03 8.57002C13.03 8.57002 13.03 8.59002 13.03 8.60002C13.03 8.60002 13.03 8.60002 13.03 8.61002C13.03 8.61002 13.03 8.61002 13.03 8.62002C13.03 8.62002 13.03 8.62002 13.03 8.61002C13.03 8.61002 13.03 8.61002 13.03 8.60002C13.03 8.60002 13.03 8.58002 13.03 8.57002C13.03 8.57002 13.03 8.56002 13.03 8.55002H13.02Z" fill="black"/>
<path d="M12.85 8.62003C12.85 8.62003 12.85 8.64003 12.85 8.65003C12.85 8.65003 12.84 8.66003 12.83 8.67003C12.83 8.67003 12.85 8.66003 12.85 8.65003C12.85 8.65003 12.85 8.63003 12.85 8.62003Z" fill="black"/>
<path d="M12.82 8.32003C12.82 8.32003 12.84 8.31003 12.85 8.31003C12.85 8.31003 12.87 8.31003 12.88 8.31003C12.88 8.31003 12.88 8.31003 12.89 8.31003C12.89 8.31003 12.89 8.31003 12.9 8.31003C12.9 8.31003 12.9 8.31003 12.89 8.31003C12.89 8.31003 12.87 8.33003 12.86 8.33003H12.84C12.84 8.33003 12.85 8.33003 12.86 8.33003C12.86 8.33003 12.88 8.33003 12.89 8.32003C12.89 8.32003 12.87 8.32003 12.86 8.32003C12.86 8.32003 12.84 8.32003 12.83 8.33003L12.82 8.32003Z" fill="black"/>
<path d="M12.94 8.32003C12.94 8.32003 12.94 8.32003 12.95 8.31003C12.95 8.31003 12.96 8.31003 12.97 8.31003C12.97 8.31003 12.96 8.31003 12.95 8.31003C12.95 8.31003 12.95 8.31003 12.95 8.32003H12.94Z" fill="black"/>
<path d="M12.88 8.48002C12.88 8.48002 12.88 8.47002 12.88 8.46002C12.88 8.45002 12.88 8.45002 12.89 8.44002C12.89 8.44002 12.89 8.43002 12.89 8.42002C12.89 8.42002 12.89 8.41002 12.89 8.40002C12.89 8.40002 12.89 8.41002 12.89 8.42002C12.89 8.42002 12.89 8.43002 12.89 8.44002C12.89 8.44002 12.89 8.44002 12.88 8.45002C12.88 8.45002 12.88 8.46002 12.88 8.47002V8.48002Z" fill="black"/>
<path d="M13.31 8.28003C13.31 8.28003 13.34 8.28003 13.35 8.28003C13.34 8.29003 13.32 8.30003 13.3 8.30003L13.31 8.28003Z" fill="#FF0000"/>
<path d="M13.27 8.27004C13.27 8.27004 13.29 8.27004 13.3 8.27004C13.3 8.27004 13.29 8.27004 13.28 8.27004C13.28 8.27004 13.28 8.27004 13.27 8.27004C13.27 8.27004 13.27 8.27004 13.27 8.26004V8.27004Z" fill="#FF0000"/>
<path d="M12.99 8.19003C12.99 8.19003 13.03 8.19003 13.04 8.19003C13.04 8.19003 13.05 8.19003 13.05 8.20003C13.05 8.20003 13.05 8.21003 13.05 8.22003V8.20003C13.07 8.20003 13.09 8.20003 13.11 8.22003C13.11 8.22003 13.11 8.22003 13.11 8.23003C13.11 8.23003 13.11 8.23003 13.11 8.24003C13.11 8.24003 13.11 8.23003 13.11 8.22003C13.13 8.22003 13.14 8.24003 13.16 8.24003C13.16 8.24003 13.16 8.24003 13.16 8.25003C13.16 8.25003 13.16 8.25003 13.15 8.25003C13.15 8.25003 13.16 8.25003 13.17 8.24003C13.17 8.24003 13.17 8.24003 13.17 8.23003C13.18 8.23003 13.19 8.24003 13.2 8.25003C13.2 8.25003 13.2 8.25003 13.2 8.26003C13.2 8.26003 13.2 8.26003 13.19 8.26003C13.19 8.26003 13.2 8.26003 13.2 8.25003C13.2 8.25003 13.2 8.25003 13.21 8.25003C13.22 8.25003 13.23 8.25003 13.25 8.25003C13.21 8.25003 13.17 8.23003 13.14 8.21003C13.14 8.21003 13.14 8.21003 13.13 8.21003C13.12 8.21003 13.1 8.20003 13.09 8.19003C13.08 8.19003 13.06 8.19003 13.05 8.19003C13.04 8.19003 13.02 8.19003 13.01 8.19003C13.01 8.19003 13.01 8.18003 13.01 8.17003C13.01 8.17003 13.01 8.17003 13 8.16003L12.99 8.19003Z" fill="#FF0000"/>
<path d="M12.93 8.21003C12.93 8.21003 12.97 8.20003 12.99 8.19003C12.99 8.19003 13 8.19003 13.01 8.20003C13.01 8.20003 13.01 8.21003 13.01 8.22003H12.99C12.99 8.22003 12.97 8.22003 12.96 8.22003C12.96 8.22003 12.96 8.21003 12.94 8.20003C12.94 8.20003 12.94 8.20003 12.93 8.20003V8.21003Z" fill="#FF0000"/>
<path d="M13.13 8.31002C13.13 8.31002 13.13 8.31002 13.11 8.31002C13.09 8.30002 13.06 8.29002 13.03 8.29002C13.04 8.28002 13.04 8.27002 13.03 8.26002C13.03 8.26002 13.03 8.25002 13.01 8.24002C13.01 8.24002 13.03 8.24002 13.04 8.24002C13.05 8.24002 13.07 8.24002 13.09 8.25002V8.27002C13.09 8.27002 13.09 8.28002 13.07 8.29002C13.07 8.29002 13.09 8.28002 13.09 8.27002C13.09 8.27002 13.09 8.26002 13.09 8.25002C13.1 8.25002 13.11 8.26002 13.12 8.27002C13.12 8.27002 13.14 8.28002 13.15 8.29002C13.15 8.30002 13.15 8.31002 13.15 8.31002C13.15 8.31002 13.14 8.31002 13.13 8.31002Z" fill="#FF0000"/>
<path d="M13.18 8.35004C13.18 8.35004 13.15 8.32004 13.13 8.31004H13.15C13.15 8.31004 13.16 8.30004 13.16 8.29004C13.17 8.29004 13.18 8.31004 13.19 8.32004C13.19 8.32004 13.19 8.32004 13.2 8.33004C13.2 8.33004 13.2 8.33004 13.2 8.34004C13.2 8.34004 13.19 8.34004 13.18 8.34004V8.35004Z" fill="#FF0000"/>
<path d="M13.24 8.39004C13.24 8.39004 13.23 8.39004 13.22 8.39004C13.21 8.39004 13.2 8.37004 13.18 8.36004C13.18 8.36004 13.19 8.36004 13.2 8.36004C13.2 8.36004 13.2 8.36004 13.2 8.35004C13.21 8.35004 13.22 8.37004 13.24 8.38004C13.24 8.38004 13.25 8.38004 13.26 8.39004C13.26 8.39004 13.26 8.39004 13.26 8.40004C13.26 8.40004 13.24 8.40004 13.23 8.40004L13.24 8.39004Z" fill="#FF0000"/>
<path d="M13.3 8.41004C13.3 8.41004 13.26 8.40004 13.24 8.39004H13.26C13.26 8.39004 13.27 8.39004 13.27 8.38004C13.28 8.38004 13.29 8.39004 13.3 8.39004C13.3 8.39004 13.3 8.39004 13.3 8.40004C13.3 8.40004 13.3 8.40004 13.29 8.40004L13.3 8.41004Z" fill="#FF0000"/>
<path d="M13.42 8.40004C13.38 8.42004 13.34 8.42004 13.29 8.41004C13.29 8.41004 13.3 8.41004 13.31 8.40004C13.31 8.40004 13.31 8.40004 13.31 8.39004C13.32 8.39004 13.34 8.39004 13.35 8.39004C13.35 8.39004 13.35 8.39004 13.34 8.39004C13.34 8.39004 13.35 8.39004 13.35 8.38004C13.37 8.38004 13.39 8.38004 13.41 8.38004L13.42 8.40004Z" fill="#FF0000"/>
<path d="M13.17 9.05004C13.16 9.05004 13.15 9.05004 13.14 9.05004C13.14 9.05004 13.14 9.06004 13.15 9.06004C13.16 9.06004 13.17 9.06004 13.17 9.06004C13.17 9.06004 13.17 9.07004 13.16 9.08004C13.17 9.10004 13.2 9.09004 13.21 9.08004C13.22 9.08004 13.24 9.07004 13.24 9.06004C13.24 9.06004 13.24 9.05004 13.24 9.04004C13.23 9.04004 13.22 9.04004 13.23 9.04004C13.22 9.04004 13.2 9.04004 13.19 9.04004L13.17 9.05004Z" fill="#FF0000"/>
<path d="M12.76 8.92004C12.76 8.92004 12.74 8.93004 12.73 8.94004H12.72C12.72 8.94004 12.72 8.94004 12.73 8.94004C12.74 8.93004 12.75 8.94004 12.73 8.94004C12.74 8.95004 12.77 8.95004 12.79 8.94004C12.8 8.94004 12.81 8.93004 12.79 8.92004H12.77H12.76Z" fill="#FF0000"/>
<path d="M13.03 9.01004C13.03 9.01004 13.03 9.01004 13.05 9.01004C13.05 9.01004 13.05 9.01004 13.05 9.02004C13.05 9.04004 13 9.03004 12.99 9.02004C12.99 9.02004 12.99 9.02004 12.99 9.01004C12.99 9.01004 12.99 9.01004 13 9.01004C13 9.01004 13 9.01004 12.99 9.01004C12.99 9.01004 12.99 9.01004 12.98 9.01004C12.98 9.01004 12.99 9.01004 13 9.01004C13.01 9.01004 13.02 9.01004 13.03 9.01004Z" fill="#FF0000"/>
<path d="M12.84 9.00003C12.84 9.00003 12.83 9.01003 12.82 9.02003C12.82 9.02003 12.82 9.02003 12.82 9.03003C12.82 9.03003 12.83 9.03003 12.84 9.02003C12.84 9.02003 12.84 9.03003 12.84 9.04003H12.86C12.87 9.04003 12.88 9.04003 12.89 9.02003C12.89 9.02003 12.89 9.01003 12.89 9.00003C12.89 9.00003 12.89 9.00003 12.88 9.00003C12.88 9.00003 12.88 9.00003 12.86 9.00003H12.84Z" fill="#FF0000"/>
<path d="M12.91 8.29002C12.91 8.29002 12.92 8.29002 12.93 8.29002C12.95 8.29002 12.96 8.28002 12.98 8.29002C13 8.29002 13.01 8.29002 13.03 8.29002C13.03 8.29002 13.04 8.27002 13.03 8.27002C13.03 8.27002 13.02 8.26002 13.01 8.25002C13 8.25002 12.99 8.25002 12.98 8.25002C12.98 8.25002 12.97 8.25002 12.96 8.25002C12.96 8.25002 12.97 8.25002 12.98 8.26002C12.98 8.26002 12.98 8.27002 12.99 8.29002C12.99 8.29002 12.99 8.27002 12.98 8.27002C12.98 8.27002 12.96 8.27002 12.96 8.26002C12.95 8.26002 12.94 8.26002 12.93 8.26002C12.93 8.26002 12.92 8.26002 12.91 8.26002H12.93C12.93 8.26002 12.94 8.26002 12.95 8.28002C12.95 8.28002 12.95 8.27002 12.94 8.26002C12.93 8.26002 12.91 8.26002 12.9 8.26002C12.9 8.26002 12.89 8.26002 12.88 8.28002C12.9 8.28002 12.92 8.28002 12.94 8.28002L12.91 8.29002ZM12.85 8.28002C12.85 8.28002 12.86 8.27002 12.87 8.26002C12.87 8.26002 12.88 8.26002 12.89 8.26002C12.89 8.26002 12.91 8.25002 12.92 8.25002C12.93 8.25002 12.94 8.25002 12.96 8.25002C12.96 8.25002 12.96 8.24002 12.95 8.24002C12.95 8.24002 12.94 8.24002 12.93 8.24002C12.92 8.24002 12.9 8.25002 12.89 8.26002C12.89 8.26002 12.89 8.26002 12.9 8.26002C12.9 8.26002 12.9 8.26002 12.89 8.26002C12.89 8.26002 12.89 8.26002 12.88 8.26002C12.87 8.26002 12.86 8.28002 12.85 8.29002C12.85 8.29002 12.86 8.29002 12.87 8.30002L12.85 8.28002Z" fill="#FF0000"/>
<path d="M14.39 9.8L14.95 8.54L14.54 7.88L13.81 8.15L13.47 9.48C13.79 9.56 14.1 9.67 14.39 9.8Z" fill="#0093DD"/>
<path d="M13.68 8.64001C14.05 8.73001 14.4 8.86002 14.74 9.01002L14.53 9.50001C14.22 9.36001 13.89 9.25001 13.55 9.16001L13.68 8.64001Z" fill="white"/>
<path d="M14.56 9.41L14.7 9.08C14.36 8.93 14.01 8.81 13.65 8.72L13.57 9.05C13.91 9.14 14.25 9.25 14.56 9.39V9.41Z" fill="#FF0000"/>
<path d="M13.76 8.98C13.76 8.98 13.78 8.98 13.79 8.98C13.79 8.98 13.81 8.98 13.82 8.98C13.82 8.98 13.82 8.98 13.84 8.98C13.82 8.98 13.82 8.96 13.81 8.94H13.8C13.8 8.94 13.8 8.94 13.79 8.94C13.77 8.94 13.76 8.94 13.76 8.93C13.76 8.93 13.75 8.93 13.74 8.92V8.9C13.74 8.9 13.75 8.9 13.76 8.9H13.78C13.78 8.9 13.79 8.9 13.8 8.89C13.8 8.89 13.8 8.89 13.8 8.88C13.81 8.88 13.82 8.88 13.82 8.89C13.83 8.89 13.84 8.89 13.85 8.91C13.87 8.91 13.88 8.91 13.88 8.92C13.88 8.92 13.88 8.93 13.87 8.94C13.87 8.94 13.87 8.94 13.87 8.95C13.88 8.95 13.89 8.95 13.9 8.97C13.93 8.97 13.97 8.99 14.03 9.02C14.07 9.02 14.11 9.04 14.14 9.05H14.16C14.22 9.05 14.29 9.05 14.34 9.09C14.36 9.09 14.38 9.09 14.4 9.11C14.41 9.11 14.43 9.11 14.44 9.11C14.46 9.11 14.49 9.11 14.51 9.13C14.54 9.13 14.56 9.14 14.58 9.16C14.59 9.17 14.58 9.18 14.58 9.19C14.58 9.21 14.56 9.21 14.53 9.19C14.51 9.19 14.49 9.18 14.48 9.17C14.46 9.17 14.43 9.15 14.41 9.13C14.4 9.13 14.39 9.12 14.38 9.11H14.36C14.36 9.11 14.37 9.12 14.37 9.13C14.37 9.13 14.37 9.15 14.37 9.16C14.37 9.17 14.37 9.18 14.39 9.18C14.39 9.18 14.41 9.18 14.42 9.19C14.42 9.21 14.42 9.22 14.43 9.24C14.45 9.25 14.43 9.26 14.43 9.27C14.42 9.28 14.41 9.29 14.39 9.29C14.38 9.29 14.38 9.29 14.37 9.29C14.37 9.29 14.37 9.29 14.36 9.29C14.35 9.29 14.36 9.26 14.39 9.27V9.25C14.38 9.25 14.37 9.25 14.36 9.23C14.34 9.22 14.32 9.2 14.3 9.19C14.28 9.19 14.27 9.19 14.25 9.17C14.25 9.17 14.24 9.17 14.23 9.17H14.22C14.22 9.17 14.21 9.17 14.2 9.17C14.2 9.17 14.18 9.17 14.17 9.17C14.17 9.17 14.17 9.17 14.16 9.17C14.15 9.17 14.14 9.17 14.13 9.17C14.13 9.17 14.12 9.17 14.11 9.17H14.1C14.09 9.17 14.08 9.17 14.08 9.16C14.06 9.16 14.08 9.14 14.08 9.14C14.09 9.14 14.1 9.14 14.12 9.14C14.13 9.14 14.14 9.14 14.15 9.14C14.15 9.14 14.15 9.14 14.16 9.13C14.14 9.13 14.12 9.13 14.11 9.12C14.08 9.1 14.05 9.1 14.03 9.12C14.03 9.12 14.03 9.12 14.01 9.12C14.01 9.12 14 9.12 13.99 9.12C13.98 9.12 13.97 9.12 13.96 9.12C13.94 9.12 13.93 9.12 13.91 9.12C13.9 9.12 13.89 9.12 13.88 9.12C13.88 9.12 13.87 9.12 13.86 9.11H13.85C13.84 9.11 13.84 9.11 13.84 9.11C13.84 9.11 13.84 9.11 13.84 9.1C13.84 9.1 13.86 9.1 13.87 9.1H13.88C13.88 9.1 13.89 9.1 13.9 9.1C13.9 9.1 13.91 9.1 13.92 9.1C13.92 9.1 13.93 9.1 13.94 9.1C13.93 9.1 13.92 9.09 13.92 9.08C13.9 9.08 13.89 9.08 13.88 9.06C13.87 9.06 13.86 9.06 13.85 9.06C13.85 9.06 13.84 9.06 13.83 9.06C13.82 9.06 13.8 9.06 13.79 9.06H13.77C13.77 9.06 13.75 9.07 13.74 9.06C13.74 9.06 13.73 9.05 13.72 9.05C13.72 9.05 13.72 9.05 13.71 9.05V9.04C13.71 9.04 13.72 9.04 13.74 9.04C13.74 9.04 13.74 9.04 13.75 9.04L13.76 8.98Z" fill="black"/>
<path d="M14.18 9.11001C14.16 9.11001 14.14 9.11001 14.12 9.10001C14.1 9.09001 14.08 9.08001 14.07 9.08001C14.07 9.08001 14.08 9.08001 14.09 9.07001C14.1 9.07001 14.11 9.07001 14.13 9.07001C14.15 9.07001 14.17 9.07001 14.18 9.08001C14.19 9.08001 14.2 9.09001 14.21 9.10001C14.21 9.10001 14.21 9.10001 14.22 9.11001C14.22 9.11001 14.21 9.11001 14.2 9.11001C14.2 9.11001 14.19 9.11001 14.18 9.11001Z" fill="white"/>
<path d="M14.22 8.15002L14.25 8.29002L14.15 8.38002L14.27 8.42002L14.3 8.55002L14.4 8.46002L14.53 8.50002L14.5 8.37002L14.6 8.28002L14.48 8.24002L14.45 8.11002L14.35 8.20002L14.23 8.16002L14.22 8.15002Z" fill="black"/>
<path d="M14.16 8.37001L14.25 8.29001L14.37 8.33001L14.16 8.37001Z" fill="#F7DB17"/>
<path d="M14.39 8.31999L14.48 8.23999L14.6 8.27999L14.39 8.31999Z" fill="#F7DB17"/>
<path d="M14.6 8.29001L14.51 8.37001L14.39 8.33001L14.6 8.29001Z" fill="#F7DB17"/>
<path d="M14.37 8.32999L14.28 8.40999L14.16 8.36999L14.37 8.32999Z" fill="#F7DB17"/>
<path d="M14.24 8.16L14.36 8.2L14.38 8.32L14.24 8.16Z" fill="#F7DB17"/>
<path d="M14.39 8.32999L14.51 8.36999L14.53 8.48999L14.39 8.32999Z" fill="#F7DB17"/>
<path d="M14.52 8.5L14.4 8.46L14.38 8.34L14.52 8.5Z" fill="#F7DB17"/>
<path d="M14.37 8.32L14.25 8.28L14.23 8.16L14.37 8.32Z" fill="#F7DB17"/>
<path d="M14.45 8.12L14.47 8.24L14.38 8.32L14.45 8.12Z" fill="#F7DB17"/>
<path d="M14.38 8.34L14.4 8.46L14.31 8.54L14.38 8.34Z" fill="#F7DB17"/>
<path d="M14.31 8.54L14.29 8.42L14.38 8.34L14.31 8.54Z" fill="#F7DB17"/>
<path d="M14.38 8.32L14.36 8.2L14.45 8.12L14.38 8.32Z" fill="#F7DB17"/>
</svg>
