<svg width="24" height="24" viewBox="0 0 24 24" fill="none" xmlns="http://www.w3.org/2000/svg">
<path d="M24 4H0V20H24V4Z" fill="white"/>
<path d="M9.91001 14.29C9.91001 14.29 9.91001 14.26 9.91001 14.2C9.91001 14.16 9.91001 14.1 9.91001 14.08C9.91001 14.02 9.90002 13.88 9.89002 13.87C9.89002 13.87 9.89002 13.85 9.89002 13.84C9.89002 13.83 9.89002 13.81 9.88001 13.8C9.88001 13.79 9.86001 13.76 9.85001 13.74C9.85001 13.72 9.83001 13.7 9.83001 13.69C9.82001 13.67 9.75001 13.61 9.75001 13.61C9.75001 13.61 9.74001 13.61 9.73001 13.59L9.71001 13.57C9.71001 13.57 9.70001 13.57 9.69001 13.56C9.69001 13.56 9.68001 13.55 9.67001 13.55C9.66001 13.55 9.66001 13.55 9.65001 13.55C9.62001 13.53 9.59001 13.51 9.55001 13.49L9.50001 13.47H9.44001C9.44001 13.47 9.35001 13.47 9.32001 13.49C9.29001 13.49 9.25001 13.5 9.23001 13.5C9.21001 13.5 9.19001 13.5 9.18001 13.5C9.17001 13.5 9.15001 13.5 9.13001 13.5C9.06001 13.5 8.98001 13.53 8.95001 13.55L8.93001 13.56C8.93001 13.56 8.92001 13.56 8.91001 13.57C8.90001 13.59 8.85001 13.6 8.79001 13.6C8.76001 13.6 8.73001 13.6 8.73001 13.6C8.73001 13.6 8.72001 13.6 8.71001 13.6C8.71001 13.6 8.68001 13.6 8.67001 13.6C8.64001 13.61 8.58001 13.63 8.56001 13.63C8.54001 13.63 8.49001 13.63 8.46001 13.6C8.45001 13.6 8.43001 13.58 8.42001 13.58C8.42001 13.58 8.40001 13.56 8.39001 13.55C8.37001 13.53 8.35001 13.52 8.32001 13.5C8.32001 13.5 8.30001 13.49 8.29001 13.48C8.27001 13.48 8.26001 13.48 8.21001 13.48C8.14001 13.48 8.11001 13.48 8.08001 13.48C8.05001 13.48 8.00001 13.43 8.00001 13.41C8.00001 13.38 7.92001 13.32 7.89001 13.32C7.89001 13.32 7.87001 13.32 7.86001 13.32C7.85001 13.32 7.81001 13.3 7.76001 13.29C7.72001 13.28 7.67001 13.26 7.65001 13.25C7.63001 13.25 7.61001 13.23 7.61001 13.23C7.61001 13.23 7.59001 13.23 7.58001 13.22C7.57001 13.21 7.55001 13.21 7.55001 13.21C7.55001 13.21 7.54001 13.21 7.53001 13.21C7.53001 13.21 7.49001 13.21 7.46001 13.2C7.43001 13.2 7.39001 13.2 7.38001 13.2C7.37001 13.2 7.34001 13.2 7.32001 13.19C7.27001 13.19 7.24001 13.17 7.20001 13.15C7.19001 13.15 7.17001 13.13 7.16001 13.13C7.16001 13.13 7.14001 13.12 7.13001 13.11C7.12001 13.1 7.12001 13.1 7.11001 13.1C7.10001 13.1 7.07001 13.07 7.04001 13.03C7.00001 12.99 6.97001 12.96 6.97001 12.96C6.97001 12.96 6.95001 12.96 6.94001 12.94C6.93001 12.93 6.92001 12.92 6.91001 12.92C6.91001 12.92 6.86001 12.88 6.84001 12.84C6.83001 12.82 6.80001 12.77 6.78001 12.73C6.76001 12.68 6.73001 12.63 6.72001 12.62C6.72001 12.61 6.69001 12.57 6.67001 12.53C6.64001 12.47 6.64001 12.46 6.64001 12.43C6.64001 12.41 6.64001 12.39 6.64001 12.38C6.63001 12.37 6.63001 12.21 6.64001 12.2C6.65001 12.19 6.64001 12.15 6.64001 12.14C6.64001 12.13 6.59001 12.1 6.56001 12.08C6.54001 12.07 6.48001 12.06 6.45001 12.06C6.38001 12.06 6.34001 12.02 6.33001 11.92C6.33001 11.88 6.32001 11.84 6.29001 11.76C6.28001 11.72 6.27001 11.68 6.27001 11.67V11.65C6.27001 11.65 6.27001 11.65 6.27001 11.63C6.27001 11.61 6.25001 11.55 6.23001 11.52V11.5C6.23001 11.5 6.23001 11.49 6.23001 11.48C6.23001 11.47 6.23001 11.46 6.23001 11.44C6.23001 11.42 6.23001 11.4 6.23001 11.4C6.23001 11.4 6.23001 11.37 6.23001 11.33C6.23001 11.27 6.23001 11.23 6.20001 11.21V11.2C6.20001 11.2 6.17001 11.16 6.16001 11.16C6.15001 11.16 6.08001 11.09 6.08001 11.08C6.08001 11.08 6.08001 11.07 6.07001 11.06C6.07001 11.06 6.06001 11.04 6.05001 11.03V11.01C6.05001 11.01 6.05001 11 6.05001 10.99C6.05001 10.98 6.05001 10.97 6.05001 10.97C6.05001 10.97 6.05001 10.97 6.05001 10.96C6.05001 10.95 6.02001 10.88 6.01001 10.87C6.01001 10.87 6.00001 10.85 5.99001 10.84C5.99001 10.84 5.98001 10.82 5.98001 10.81C5.98001 10.8 5.98001 10.79 5.96001 10.78C5.96001 10.77 5.94001 10.74 5.93001 10.72C5.92001 10.7 5.91001 10.68 5.91001 10.68C5.91001 10.68 5.91001 10.68 5.91001 10.66C5.91001 10.64 5.91001 10.64 5.91001 10.64C5.91001 10.64 5.91001 10.63 5.91001 10.61C5.91001 10.56 5.88001 10.47 5.87001 10.46C5.87001 10.46 5.87001 10.41 5.87001 10.32C5.87001 10.23 5.87001 10.19 5.87001 10.18C5.87001 10.18 5.86001 10.07 5.87001 10.06C5.88001 10.06 5.90001 10.06 5.91001 10.09C5.91001 10.1 5.93001 10.12 5.93001 10.12C5.93001 10.12 5.94001 10.13 5.94001 10.14C5.94001 10.15 5.94001 10.15 5.96001 10.16C5.98001 10.17 5.98001 10.18 5.98001 10.18C5.98001 10.18 6.01001 10.22 6.02001 10.22C6.02001 10.22 6.04001 10.23 6.06001 10.25C6.10001 10.29 6.16001 10.33 6.16001 10.33C6.16001 10.33 6.17001 10.33 6.18001 10.35L6.20001 10.37C6.20001 10.37 6.21001 10.37 6.22001 10.39L6.24001 10.41C6.24001 10.41 6.25001 10.41 6.27001 10.43C6.28001 10.43 6.29001 10.45 6.29001 10.45C6.29001 10.45 6.31001 10.45 6.32001 10.47C6.36001 10.49 6.38001 10.5 6.45001 10.53C6.60001 10.58 6.65001 10.59 6.76001 10.59C6.84001 10.59 6.95001 10.59 6.98001 10.57C6.98001 10.57 7.01001 10.56 7.02001 10.55C7.04001 10.54 7.14001 10.45 7.14001 10.44C7.14001 10.44 7.15001 10.42 7.17001 10.4C7.18001 10.38 7.20001 10.37 7.20001 10.37C7.20001 10.37 7.20001 10.35 7.22001 10.34C7.23001 10.33 7.24001 10.31 7.24001 10.31C7.24001 10.31 7.24001 10.3 7.26001 10.29C7.26001 10.28 7.28001 10.27 7.28001 10.26C7.28001 10.26 7.28001 10.25 7.30001 10.24C7.32001 10.23 7.32001 10.22 7.32001 10.22C7.32001 10.22 7.32001 10.21 7.33001 10.2C7.33001 10.2 7.34001 10.19 7.34001 10.18C7.34001 10.17 7.34001 10.17 7.34001 10.17C7.34001 10.17 7.36001 10.15 7.36001 10.13C7.36001 10.11 7.38001 10.09 7.39001 10.08C7.40001 10.07 7.41001 10.04 7.42001 10.02C7.43001 10 7.45001 9.97 7.45001 9.96C7.47001 9.92 7.50001 9.87 7.50001 9.86C7.50001 9.86 7.50001 9.86 7.51001 9.84C7.51001 9.84 7.52001 9.83 7.52001 9.82C7.52001 9.81 7.52001 9.81 7.54001 9.79C7.56001 9.77 7.56001 9.77 7.56001 9.76C7.56001 9.75 7.56001 9.75 7.57001 9.74C7.57001 9.74 7.58001 9.73 7.58001 9.72C7.58001 9.71 7.60001 9.69 7.62001 9.67C7.64001 9.65 7.67001 9.62 7.68001 9.61C7.69001 9.59 7.70001 9.59 7.74001 9.59C7.76001 9.59 7.79001 9.59 7.79001 9.59C7.79001 9.59 7.81001 9.59 7.82001 9.59C7.83001 9.59 7.85001 9.59 7.85001 9.6C7.86001 9.6 7.93001 9.6 7.96001 9.6C7.97001 9.6 8.00002 9.58 8.02002 9.57C8.04001 9.57 8.06001 9.55 8.06001 9.55C8.06001 9.55 8.15001 9.5 8.18001 9.49C8.20001 9.49 8.23001 9.49 8.29001 9.49C8.33001 9.49 8.39001 9.49 8.42001 9.49C8.49001 9.49 8.55001 9.5 8.60001 9.52C8.62001 9.52 8.66001 9.54 8.67001 9.54C8.68001 9.54 8.71001 9.55 8.72001 9.56C8.73001 9.57 8.75001 9.57 8.76001 9.58C8.78001 9.58 8.87001 9.63 8.88001 9.64H8.90001C8.90001 9.64 8.91001 9.64 8.92001 9.64C8.92001 9.64 8.92001 9.64 8.93001 9.64C8.93001 9.64 8.95001 9.64 8.98001 9.66C8.98001 9.66 9.01002 9.67 9.02002 9.68C9.03001 9.68 9.05001 9.68 9.05001 9.69C9.05001 9.69 9.07001 9.69 9.08001 9.69C9.09001 9.69 9.10001 9.69 9.10001 9.69C9.10001 9.69 9.14001 9.69 9.20001 9.69C9.26001 9.69 9.30001 9.69 9.30001 9.69C9.30001 9.69 9.34001 9.69 9.40001 9.69C9.46001 9.69 9.50001 9.69 9.50001 9.69C9.50001 9.69 9.52001 9.69 9.53001 9.69C9.54001 9.69 9.56001 9.69 9.57001 9.69C9.57001 9.69 9.59001 9.69 9.60001 9.68C9.61001 9.67 9.63001 9.66 9.65001 9.65C9.67001 9.64 9.68001 9.63 9.69001 9.63C9.70001 9.63 9.70001 9.63 9.72001 9.61C9.73001 9.6 9.74001 9.59 9.75001 9.59C9.75001 9.59 9.82001 9.53 9.82001 9.52C9.82001 9.52 9.82001 9.51 9.84001 9.5C9.84001 9.5 9.86001 9.48 9.87001 9.46C9.90001 9.39 9.94001 9.31 9.94001 9.29V9.27C9.94001 9.27 9.94001 9.24 9.95001 9.22C9.95001 9.2 9.95001 9.17 9.96001 9.16C9.96001 9.15 9.96001 9.12 9.96001 9.09C9.96001 9.04 9.96001 9 9.98001 8.98C9.98001 8.98 9.99001 8.97 9.99001 8.96C9.99001 8.95 10 8.94 10.02 8.93C10.04 8.91 10.05 8.9 10.04 8.89C10.04 8.89 10.04 8.86 10.03 8.84C10.03 8.82 10.03 8.8 10.03 8.79C10.03 8.77 10.04 8.69 10.05 8.69C10.05 8.69 10.05 8.65 10.05 8.62C10.05 8.55 10.05 8.53 10.01 8.5C10 8.49 9.99001 8.48 9.99001 8.47C9.99001 8.46 9.99001 8.46 9.98001 8.45C9.97001 8.44 9.96001 8.42 9.95001 8.39L9.93002 8.34V8.21C9.93002 8.14 9.93002 8.08 9.93002 8.07C9.93002 8.05 9.95001 7.94 9.95001 7.86C9.95001 7.8 9.95001 7.79 9.96001 7.79C9.96001 7.79 9.98001 7.79 9.99001 7.81L10.01 7.83C10.01 7.83 10.01 7.83 10.03 7.85C10.04 7.85 10.06 7.87 10.08 7.88C10.09 7.89 10.11 7.9 10.12 7.9C10.12 7.9 10.14 7.9 10.15 7.92C10.15 7.92 10.18 7.94 10.19 7.94C10.2 7.94 10.22 7.95 10.22 7.96C10.23 7.97 10.4 8.05 10.41 8.05C10.41 8.05 10.42 8.05 10.43 8.05C10.43 8.05 10.5 8.08 10.52 8.09H10.54C10.54 8.09 10.54 8.09 10.56 8.09C10.58 8.09 10.58 8.09 10.59 8.09C10.62 8.1 10.71 8.13 10.73 8.13C10.74 8.13 10.82 8.13 10.9 8.13C11.05 8.13 11.1 8.13 11.19 8.16C11.22 8.16 11.26 8.18 11.29 8.18C11.29 8.18 11.31 8.18 11.32 8.18C11.32 8.18 11.34 8.18 11.36 8.18C11.37 8.18 11.4 8.18 11.43 8.19C11.45 8.19 11.48 8.2 11.5 8.2C11.52 8.2 11.53 8.2 11.54 8.2C11.55 8.2 11.57 8.2 11.58 8.2C11.59 8.2 11.62 8.2 11.64 8.2C11.66 8.2 11.69 8.2 11.72 8.21C11.75 8.22 11.78 8.21 11.78 8.22C11.78 8.23 11.81 8.22 11.83 8.22C11.85 8.22 11.88 8.22 11.9 8.22C11.92 8.22 11.94 8.22 11.95 8.22C11.95 8.22 11.98 8.22 12.01 8.22C12.03 8.22 12.08 8.22 12.12 8.23C12.16 8.24 12.2 8.24 12.23 8.24C12.26 8.24 12.29 8.24 12.29 8.24C12.29 8.24 12.33 8.24 12.36 8.24C12.53 8.24 12.6 8.26 12.65 8.28C12.66 8.28 12.68 8.28 12.68 8.28H12.7C12.7 8.28 12.73 8.28 12.74 8.28C12.74 8.28 12.76 8.28 12.78 8.28C12.8 8.28 12.82 8.28 12.82 8.28C12.82 8.28 12.85 8.28 12.88 8.28C12.95 8.28 13.03 8.27 13.1 8.25C13.13 8.25 13.17 8.24 13.18 8.24C13.19 8.24 13.21 8.24 13.22 8.24C13.22 8.24 13.25 8.24 13.26 8.24C13.32 8.24 13.4 8.22 13.41 8.22C13.41 8.22 13.46 8.22 13.5 8.22C13.55 8.22 13.58 8.22 13.58 8.22C13.58 8.22 13.61 8.22 13.64 8.22C13.67 8.22 13.7 8.22 13.7 8.22C13.7 8.22 13.72 8.22 13.73 8.22C13.74 8.22 13.77 8.22 13.78 8.22C13.79 8.22 13.82 8.21 13.85 8.2C13.88 8.19 13.93 8.18 13.97 8.17C14.03 8.15 14.04 8.15 14.14 8.15C14.21 8.15 14.25 8.15 14.26 8.15C14.26 8.15 14.29 8.15 14.32 8.15C14.35 8.15 14.37 8.15 14.37 8.15C14.37 8.15 14.37 8.15 14.39 8.15C14.41 8.15 14.4 8.15 14.4 8.15C14.4 8.15 14.4 8.15 14.41 8.15C14.42 8.15 14.43 8.15 14.44 8.14C14.44 8.14 14.46 8.13 14.47 8.12C14.47 8.12 14.49 8.11 14.5 8.1C14.56 8.04 14.62 8 14.62 8C14.62 8 14.63 8 14.64 7.98L14.66 7.96H14.67C14.67 7.96 14.7 7.94 14.76 7.91C14.79 7.9 14.85 7.87 14.85 7.87C14.85 7.87 14.87 7.87 14.88 7.85C14.9 7.85 14.91 7.83 14.92 7.83C14.92 7.83 14.99 7.81 15.01 7.79H15.03H15.05C15.06 7.78 15.2 7.74 15.23 7.74H15.25C15.25 7.74 15.26 7.74 15.28 7.74C15.3 7.74 15.4 7.71 15.43 7.71C15.44 7.71 15.46 7.71 15.47 7.71C15.48 7.71 15.49 7.71 15.5 7.71C15.5 7.71 15.51 7.71 15.52 7.71C15.53 7.71 15.55 7.71 15.56 7.71C15.57 7.71 15.59 7.71 15.61 7.71C15.63 7.71 15.64 7.71 15.64 7.71C15.64 7.71 15.65 7.71 15.66 7.71C15.67 7.71 15.69 7.71 15.69 7.71C15.69 7.71 15.73 7.69 15.77 7.68C15.81 7.67 15.85 7.65 15.87 7.65C15.89 7.65 15.93 7.62 15.96 7.61C15.96 7.61 15.99 7.6 16 7.59C16.02 7.59 16.04 7.57 16.04 7.57C16.08 7.55 16.14 7.52 16.16 7.51C16.17 7.51 16.19 7.49 16.21 7.48C16.22 7.48 16.23 7.47 16.24 7.46C16.24 7.46 16.25 7.45 16.26 7.44C16.27 7.44 16.29 7.42 16.31 7.41C16.32 7.4 16.34 7.39 16.35 7.38C16.35 7.38 16.36 7.38 16.37 7.37C16.37 7.37 16.38 7.36 16.39 7.35C16.4 7.35 16.41 7.34 16.41 7.33C16.41 7.32 16.41 7.33 16.42 7.33C16.43 7.33 16.43 7.33 16.44 7.33C16.44 7.33 16.47 7.31 16.51 7.29C16.55 7.27 16.58 7.25 16.59 7.25C16.6 7.25 16.6 7.25 16.6 7.25C16.6 7.25 16.62 7.25 16.63 7.23C16.64 7.22 16.65 7.21 16.66 7.21C16.67 7.21 16.68 7.21 16.69 7.19C16.7 7.18 16.71 7.17 16.72 7.17C16.73 7.17 16.74 7.17 16.75 7.15C16.78 7.13 16.84 7.1 16.87 7.09C16.89 7.09 16.92 7.08 17.03 7.07C17.07 7.07 17.11 7.05 17.12 7.03C17.12 7.03 17.12 7.03 17.13 7.03C17.14 7.03 17.15 7.03 17.17 7.01C17.19 7 17.22 6.98 17.24 6.97C17.26 6.96 17.28 6.95 17.29 6.95C17.31 6.94 17.45 6.87 17.46 6.87C17.46 6.87 17.47 6.87 17.48 6.87C17.48 6.87 17.53 6.84 17.58 6.82C17.63 6.79 17.69 6.76 17.71 6.75C17.73 6.74 17.77 6.72 17.79 6.71C17.81 6.7 17.84 6.69 17.84 6.68C17.84 6.68 17.85 6.67 17.87 6.66C17.88 6.66 17.91 6.64 17.92 6.63C17.93 6.62 17.95 6.61 17.96 6.61C17.97 6.61 17.96 6.61 17.98 6.6L18 6.59H18.01C18.01 6.59 18.02 6.58 18.03 6.57C18.04 6.56 18.06 6.55 18.07 6.55C18.08 6.55 18.1 6.53 18.11 6.53C18.12 6.53 18.14 6.52 18.14 6.51C18.14 6.51 18.15 6.51 18.16 6.51C18.17 6.51 18.18 6.51 18.18 6.51C18.2 6.5 18.27 6.5 18.27 6.51C18.27 6.52 18.29 6.52 18.31 6.51C18.32 6.51 18.38 6.49 18.39 6.49C18.42 6.49 18.52 6.42 18.52 6.4C18.52 6.4 18.57 6.34 18.58 6.34C18.58 6.34 18.59 6.34 18.6 6.32L18.62 6.3C18.62 6.3 18.63 6.3 18.64 6.3C18.64 6.3 18.67 6.28 18.69 6.26C18.71 6.24 18.74 6.22 18.75 6.21C18.78 6.18 18.84 6.13 18.86 6.12C18.86 6.12 18.88 6.1 18.89 6.09C18.9 6.08 18.91 6.07 18.92 6.07C18.93 6.07 18.92 6.07 18.93 6.07C18.94 6.07 18.94 6.06 18.95 6.05C18.98 6.04 19 6.03 19.01 6.01C19.04 5.99 19.09 5.98 19.11 5.98C19.13 5.98 19.21 5.98 19.24 5.98C19.25 5.98 19.27 5.97 19.29 5.96C19.31 5.96 19.33 5.94 19.35 5.93C19.37 5.93 19.38 5.91 19.38 5.91C19.38 5.91 19.38 5.91 19.39 5.91C19.39 5.91 19.39 5.91 19.4 5.91C19.4 5.91 19.42 5.9 19.44 5.88C19.5 5.85 19.52 5.84 19.54 5.82C19.55 5.82 19.56 5.81 19.56 5.81C19.56 5.81 19.56 5.81 19.57 5.81C19.57 5.81 19.6 5.79 19.62 5.78C19.64 5.77 19.67 5.75 19.67 5.75C19.68 5.75 19.7 5.73 19.81 5.67C19.83 5.67 19.85 5.65 19.86 5.65H19.88V5.75C19.88 5.81 19.88 5.86 19.87 5.88C19.87 5.89 19.87 5.92 19.87 5.94C19.87 5.96 19.87 5.97 19.87 5.98C19.87 5.98 19.87 5.99 19.87 6C19.87 6.01 19.85 6.03 19.83 6.05C19.81 6.07 19.79 6.1 19.79 6.1C19.79 6.1 19.79 6.1 19.78 6.12C19.78 6.12 19.77 6.14 19.76 6.15C19.76 6.15 19.71 6.23 19.69 6.28C19.69 6.28 19.68 6.3 19.67 6.3V6.31C19.67 6.31 19.64 6.35 19.62 6.36C19.57 6.39 19.55 6.4 19.51 6.4C19.49 6.4 19.47 6.4 19.46 6.4H19.44C19.41 6.4 19.33 6.43 19.3 6.45C19.24 6.48 19.24 6.48 19.22 6.5L19.2 6.52C19.2 6.52 19.18 6.52 19.17 6.54C19.16 6.55 19.15 6.56 19.14 6.56C19.13 6.56 19.13 6.56 19.12 6.57C19.12 6.57 19.09 6.59 19.07 6.6C19.02 6.62 19 6.65 19 6.69C19 6.7 19 6.72 19 6.72C19 6.72 19 6.74 19 6.77C19 6.8 19 6.81 19 6.81C19 6.81 19 6.82 19 6.83C19 6.85 18.94 6.91 18.92 6.92H18.91C18.91 6.92 18.91 6.92 18.9 6.92C18.9 6.92 18.88 6.92 18.87 6.92C18.87 6.92 18.85 6.92 18.84 6.92C18.83 6.92 18.83 6.92 18.83 6.92C18.83 6.92 18.83 6.92 18.81 6.92C18.79 6.92 18.79 6.92 18.77 6.93C18.75 6.94 18.73 6.94 18.72 6.95C18.71 6.95 18.69 6.96 18.69 6.97H18.68C18.68 6.97 18.68 6.97 18.67 6.97C18.66 6.97 18.66 6.97 18.65 6.97C18.64 6.97 18.64 6.97 18.64 6.97C18.64 6.97 18.64 6.97 18.63 6.97C18.62 6.97 18.62 6.97 18.61 6.97H18.6C18.6 6.97 18.59 6.97 18.58 6.98C18.58 6.98 18.57 6.99 18.56 6.99C18.55 6.99 18.54 7 18.53 7.02C18.52 7.03 18.5 7.05 18.5 7.05C18.5 7.05 18.47 7.08 18.43 7.11C18.4 7.14 18.37 7.17 18.36 7.17C18.35 7.17 18.34 7.17 18.33 7.19C18.32 7.2 18.31 7.21 18.3 7.21C18.29 7.21 18.29 7.21 18.28 7.23C18.27 7.25 18.26 7.25 18.26 7.25C18.26 7.25 18.25 7.25 18.24 7.26L18.22 7.27C18.22 7.27 18.2 7.28 18.19 7.29C18.13 7.33 17.98 7.4 17.97 7.4H17.96C17.96 7.4 17.96 7.4 17.95 7.4C17.95 7.4 17.82 7.46 17.81 7.47C17.81 7.47 17.79 7.48 17.77 7.49C17.74 7.51 17.71 7.53 17.68 7.55C17.67 7.56 17.66 7.57 17.65 7.57C17.65 7.57 17.62 7.59 17.59 7.62C17.56 7.65 17.54 7.67 17.53 7.67C17.52 7.67 17.5 7.69 17.48 7.71C17.46 7.73 17.43 7.75 17.43 7.75C17.43 7.75 17.32 7.86 17.3 7.89C17.29 7.91 17.27 7.95 17.27 7.96C17.27 7.97 17.24 8.02 17.23 8.03C17.23 8.03 17.21 8.05 17.2 8.06C17.15 8.1 17.11 8.14 17.08 8.2C17.07 8.23 17.05 8.26 17.05 8.26C17.05 8.28 16.98 8.34 16.95 8.34C16.94 8.34 16.89 8.37 16.89 8.37C16.89 8.37 16.87 8.37 16.86 8.39C16.82 8.42 16.8 8.44 16.79 8.45C16.74 8.49 16.72 8.5 16.69 8.51C16.67 8.51 16.64 8.53 16.63 8.54C16.61 8.54 16.59 8.55 16.59 8.56C16.59 8.56 16.57 8.56 16.55 8.56C16.53 8.56 16.52 8.56 16.52 8.56C16.52 8.56 16.5 8.56 16.49 8.56C16.46 8.56 16.42 8.58 16.39 8.59C16.39 8.59 16.37 8.59 16.36 8.59C16.36 8.59 16.36 8.59 16.35 8.59C16.34 8.59 16.35 8.59 16.34 8.59C16.33 8.59 16.29 8.62 16.28 8.65C16.28 8.66 16.26 8.68 16.25 8.69L16.23 8.71C16.23 8.71 16.23 8.72 16.21 8.73C16.19 8.74 16.19 8.75 16.19 8.75V8.76C16.18 8.76 16.09 8.95 16.09 8.96V8.97C16.09 8.97 16.08 9 16.07 9.03C16.07 9.06 16.05 9.09 16.05 9.1C16.05 9.12 16.05 9.27 16.05 9.28C16.05 9.28 16.05 9.3 16.05 9.31C16.05 9.35 16.08 9.47 16.09 9.52C16.11 9.57 16.15 9.64 16.17 9.67C16.17 9.68 16.19 9.69 16.19 9.7C16.19 9.71 16.2 9.72 16.22 9.73C16.23 9.75 16.25 9.76 16.25 9.76C16.25 9.76 16.25 9.78 16.27 9.79C16.29 9.8 16.29 9.81 16.29 9.82C16.29 9.83 16.3 9.84 16.32 9.85C16.33 9.86 16.35 9.88 16.35 9.88C16.35 9.88 16.36 9.9 16.38 9.92C16.4 9.94 16.41 9.96 16.41 9.96C16.41 9.96 16.42 9.98 16.44 9.99C16.45 10 16.47 10.02 16.47 10.02C16.47 10.02 16.48 10.04 16.5 10.06C16.52 10.08 16.53 10.1 16.53 10.1C16.53 10.1 16.55 10.13 16.57 10.15C16.59 10.17 16.61 10.19 16.61 10.2C16.61 10.2 16.63 10.22 16.65 10.25C16.67 10.27 16.7 10.3 16.71 10.31C16.71 10.32 16.74 10.35 16.76 10.37C16.78 10.39 16.8 10.41 16.8 10.42C16.8 10.42 16.82 10.44 16.83 10.45C16.84 10.46 16.86 10.48 16.86 10.49C16.86 10.49 16.88 10.51 16.88 10.52C16.88 10.52 16.89 10.53 16.89 10.54C16.89 10.54 16.91 10.56 16.93 10.59C16.96 10.63 17 10.67 17.02 10.7C17.02 10.7 17.02 10.71 17.03 10.72C17.04 10.73 17.07 10.78 17.07 10.79C17.07 10.79 17.07 10.81 17.08 10.83C17.1 10.88 17.12 10.94 17.12 10.96V10.99H16.97C16.87 10.99 16.81 10.99 16.81 10.99C16.81 10.99 16.79 10.99 16.77 10.99C16.73 10.99 16.71 10.99 16.66 10.96C16.6 10.93 16.55 10.91 16.53 10.91H16.52C16.52 10.9 16.38 10.89 16.35 10.9C16.34 10.9 16.31 10.9 16.29 10.91C16.27 10.91 16.25 10.91 16.25 10.92C16.25 10.92 16.25 10.92 16.24 10.92C16.22 10.92 16.13 10.97 16.11 10.99C16.1 11 16.08 11.01 16.08 11.01C16.08 11.01 16.05 11.03 16.03 11.06C16 11.09 15.98 11.11 15.97 11.11C15.97 11.11 15.95 11.12 15.94 11.13C15.93 11.14 15.92 11.15 15.91 11.15C15.91 11.15 15.9 11.15 15.89 11.16C15.89 11.16 15.88 11.17 15.87 11.16C15.87 11.16 15.85 11.16 15.83 11.17C15.8 11.18 15.78 11.19 15.74 11.2C15.74 11.2 15.72 11.2 15.71 11.2C15.7 11.2 15.69 11.2 15.68 11.2C15.67 11.2 15.67 11.2 15.66 11.19C15.66 11.19 15.65 11.18 15.64 11.18C15.63 11.18 15.62 11.18 15.61 11.16C15.6 11.14 15.59 11.14 15.58 11.14C15.57 11.14 15.57 11.14 15.56 11.13C15.56 11.13 15.53 11.11 15.52 11.11C15.51 11.11 15.49 11.09 15.48 11.09C15.46 11.08 15.34 11.02 15.27 10.99C15.25 10.99 15.23 10.97 15.22 10.97C15.21 10.97 15.21 10.97 15.21 10.97C15.21 10.97 15.19 10.97 15.17 10.96C15.13 10.96 15.08 10.96 15.03 10.96C15.01 10.96 14.99 10.96 14.98 10.97C14.97 10.97 14.94 10.97 14.93 10.98C14.92 10.99 14.9 10.98 14.89 10.99C14.88 11 14.86 10.99 14.85 10.99C14.84 10.99 14.82 10.99 14.82 10.99C14.82 10.99 14.79 10.99 14.75 10.99C14.71 10.99 14.69 10.99 14.68 10.99C14.68 10.99 14.67 10.99 14.65 10.99C14.62 10.99 14.57 11.01 14.53 11.02C14.51 11.03 14.46 11.07 14.45 11.09C14.45 11.09 14.44 11.11 14.43 11.13C14.43 11.14 14.41 11.16 14.41 11.17C14.41 11.17 14.4 11.19 14.39 11.21C14.39 11.22 14.37 11.24 14.37 11.24C14.37 11.24 14.37 11.26 14.36 11.27C14.33 11.34 14.33 11.35 14.33 11.45C14.33 11.5 14.33 11.55 14.33 11.56C14.33 11.57 14.3 11.65 14.3 11.66C14.3 11.66 14.3 11.68 14.32 11.68C14.34 11.69 14.35 11.72 14.35 11.76C14.35 11.8 14.35 11.83 14.33 11.85C14.33 11.85 14.33 11.87 14.31 11.89C14.31 11.9 14.3 11.92 14.29 11.93C14.29 11.93 14.28 11.95 14.27 11.95C14.26 11.95 14.25 11.97 14.24 11.99C14.21 12.03 14.2 12.06 14.2 12.1C14.2 12.15 14.2 12.15 14.11 12.15C14.08 12.15 14.03 12.15 14.01 12.15C13.94 12.15 13.89 12.16 13.83 12.22C13.81 12.24 13.76 12.28 13.72 12.31C13.68 12.34 13.64 12.37 13.63 12.38C13.62 12.39 13.6 12.4 13.6 12.4C13.6 12.4 13.59 12.4 13.58 12.42C13.57 12.44 13.56 12.44 13.56 12.44H13.55C13.55 12.44 13.55 12.44 13.53 12.44C13.53 12.44 13.51 12.44 13.5 12.44C13.5 12.44 13.47 12.44 13.46 12.44C13.45 12.44 13.44 12.44 13.44 12.44C13.44 12.44 13.42 12.44 13.41 12.44C13.4 12.44 13.38 12.44 13.38 12.44C13.38 12.44 13.36 12.44 13.35 12.44C13.32 12.44 13.2 12.48 13.19 12.49C13.19 12.49 13.18 12.49 13.16 12.49C13.14 12.49 13.13 12.5 13.12 12.51C13.05 12.54 12.95 12.59 12.94 12.6C12.94 12.6 12.94 12.6 12.93 12.6C12.92 12.6 12.92 12.6 12.91 12.6C12.91 12.6 12.9 12.6 12.89 12.6C12.88 12.6 12.88 12.6 12.87 12.6C12.87 12.6 12.86 12.61 12.85 12.62C12.84 12.62 12.83 12.63 12.78 12.66C12.74 12.68 12.72 12.7 12.7 12.71C12.7 12.71 12.69 12.72 12.68 12.72C12.67 12.72 12.67 12.72 12.67 12.72C12.67 12.72 12.66 12.72 12.65 12.72C12.64 12.72 12.63 12.72 12.63 12.72C12.63 12.72 12.62 12.72 12.6 12.72C12.58 12.72 12.58 12.72 12.57 12.72C12.57 12.72 12.56 12.72 12.54 12.72C12.53 12.72 12.51 12.72 12.49 12.72C12.43 12.73 12.38 12.75 12.36 12.75C12.35 12.75 12.34 12.75 12.33 12.75C12.33 12.75 12.33 12.75 12.32 12.75C12.31 12.75 12.24 12.78 12.23 12.8H12.22C12.22 12.8 12.2 12.8 12.19 12.82C12.18 12.84 12.17 12.84 12.16 12.84C12.15 12.84 12.15 12.84 12.14 12.86C12.13 12.87 12.12 12.88 12.08 12.87C12.05 12.87 12.02 12.87 12 12.87C11.98 12.87 11.95 12.87 11.92 12.87C11.9 12.87 11.86 12.87 11.84 12.87C11.78 12.87 11.67 12.86 11.55 12.86C11.46 12.86 11.42 12.86 11.35 12.88C11.26 12.9 11.25 12.9 11.24 12.91C11.24 12.91 11.22 12.91 11.2 12.92C11.19 12.92 11.16 12.92 11.15 12.93C11.13 12.93 11.08 12.95 11.07 12.95C11.02 12.96 11 12.97 10.98 12.98C10.97 12.98 10.95 12.99 10.95 12.99C10.94 12.99 10.82 13.05 10.8 13.06L10.78 13.07L10.68 13.17C10.68 13.17 10.67 13.19 10.65 13.21C10.6 13.27 10.59 13.28 10.58 13.33C10.57 13.36 10.57 13.5 10.58 13.51C10.58 13.51 10.58 13.53 10.58 13.55C10.58 13.57 10.58 13.58 10.58 13.58C10.58 13.58 10.58 13.6 10.58 13.61C10.58 13.64 10.6 13.69 10.62 13.72C10.63 13.74 10.64 13.75 10.67 13.81C10.67 13.83 10.69 13.85 10.69 13.85C10.69 13.87 10.69 13.88 10.67 13.89C10.65 13.9 10.64 13.91 10.61 13.91C10.59 13.91 10.57 13.91 10.56 13.91C10.52 13.89 10.49 13.88 10.41 13.89C10.32 13.89 10.29 13.89 10.25 13.92C10.21 13.94 10.2 13.94 10.18 13.95C10.18 13.95 10.15 13.95 10.14 13.95C10.13 13.95 10.11 13.95 10.09 13.96C10.06 13.96 10.03 13.96 10.02 13.96L9.91001 14.29Z" fill="#D67900"/>
<path d="M6.70001 14.46C6.70001 14.46 6.75001 14.58 6.82001 14.73C6.89001 14.88 6.98001 15.05 7.06001 15.15C7.11001 15.22 7.17001 15.29 7.24001 15.33C7.33001 15.39 7.54001 15.46 7.54001 15.46C7.54001 15.46 7.54001 15.26 7.49001 15.16C7.45001 15.07 7.36001 14.95 7.28001 14.88C7.10001 14.72 6.95001 14.61 6.85001 14.54C6.74001 14.47 6.70001 14.45 6.70001 14.45V14.46Z" fill="#4D5B2D"/>
<path d="M7.56 14.68C7.56 14.68 7.56 14.76 7.57 14.87C7.58 14.98 7.6 15.1 7.62 15.18C7.64 15.27 7.68 15.35 7.73 15.43C7.77 15.49 7.88 15.6 7.88 15.6C7.88 15.6 7.92 15.47 7.92 15.4C7.92 15.3 7.89 15.2 7.85 15.1C7.82 15.02 7.76 14.9 7.7 14.81C7.63 14.72 7.56 14.67 7.56 14.67V14.68Z" fill="#4D5B2D"/>
<path d="M6.82 15.48C6.82 15.48 7.05 15.72 7.2 15.8C7.27 15.84 7.34 15.87 7.42 15.88C7.49 15.89 7.64 15.88 7.64 15.88C7.64 15.88 7.63 15.79 7.53 15.68C7.46 15.6 7.33 15.55 7.23 15.52C7.04 15.45 6.81 15.48 6.81 15.48H6.82Z" fill="#4D5B2D"/>
<path d="M7.59003 15.56C7.59003 15.56 7.73003 15.84 7.82003 15.97C7.88003 16.05 7.95003 16.14 8.03003 16.2C8.29003 16.4 8.44003 16.39 8.44003 16.39C8.44003 16.39 8.43003 16.25 8.40003 16.18C8.34003 16.05 8.24003 15.93 8.13003 15.83C7.97003 15.7 7.59003 15.56 7.59003 15.56Z" fill="#4D5B2D"/>
<path d="M7.54001 16.33C7.54001 16.33 7.71001 16.49 7.81001 16.56C7.88001 16.61 7.96001 16.65 8.05001 16.68C8.12001 16.7 8.20001 16.71 8.27001 16.72C8.45001 16.72 8.54001 16.7 8.54001 16.7C8.54001 16.7 8.54001 16.61 8.38001 16.49C8.29001 16.42 8.17001 16.38 8.06001 16.35C7.89001 16.31 7.54001 16.33 7.54001 16.33Z" fill="#4D5B2D"/>
<path d="M8.2 15.44C8.2 15.44 8.26 15.67 8.31 15.78C8.35 15.87 8.39 15.97 8.45 16.05C8.5 16.12 8.56 16.2 8.62 16.26C8.68 16.3 8.8 16.35 8.8 16.35C8.8 16.35 8.8 16.18 8.77 16.11C8.74 16.01 8.7 15.92 8.64 15.84C8.57 15.74 8.47 15.65 8.37 15.57C8.24 15.45 8.19 15.45 8.19 15.45L8.2 15.44Z" fill="#4D5B2D"/>
<path d="M8.52002 16.44C8.52002 16.44 8.66002 16.6 8.74002 16.67C8.84002 16.75 8.94002 16.83 9.05002 16.89C9.11002 16.93 9.18002 16.96 9.25002 16.98C9.32002 17 9.40002 17.01 9.47002 17.01C9.52002 17.01 9.61002 17 9.61002 17C9.61002 17 9.53002 16.84 9.47002 16.77C9.40002 16.69 9.31002 16.64 9.21002 16.59C9.09002 16.53 8.96002 16.49 8.82002 16.46C8.72002 16.44 8.52002 16.44 8.52002 16.44Z" fill="#4D5B2D"/>
<path d="M9.2 16.33C9.2 16.33 9.32 16.51 9.4 16.59C9.48 16.67 9.56 16.73 9.65 16.79C9.73 16.84 9.81 16.9 9.91 16.93C9.99 16.95 10.15 16.94 10.15 16.94C10.15 16.94 10.12 16.81 10.08 16.75C10.03 16.67 9.95 16.59 9.87 16.54C9.76 16.46 9.64 16.41 9.51 16.37C9.41 16.34 9.19 16.33 9.19 16.33H9.2Z" fill="#4D5B2D"/>
<path d="M8.66 17.19C8.66 17.19 8.78 17.28 8.96 17.33C9.05 17.36 9.14 17.37 9.24 17.38C9.32 17.38 9.48 17.38 9.56 17.37C9.66 17.36 9.77 17.29 9.77 17.29C9.77 17.29 9.7 17.18 9.62 17.15C9.48 17.09 9.28 17.07 9.13 17.07C8.82 17.08 8.66 17.19 8.66 17.19Z" fill="#4D5B2D"/>
<path d="M9.67001 17.05C9.67001 17.05 9.93001 17.26 10.07 17.34C10.19 17.41 10.32 17.46 10.45 17.49C10.69 17.54 10.91 17.5 10.91 17.5C10.91 17.5 10.87 17.39 10.84 17.35C10.74 17.24 10.61 17.17 10.48 17.12C10.32 17.06 10.15 17.06 9.98001 17.05C9.89001 17.05 9.67001 17.05 9.67001 17.05Z" fill="#4D5B2D"/>
<path d="M10.54 16.86C10.54 16.86 10.75 17.18 10.9 17.31C10.99 17.39 11.1 17.46 11.21 17.5C11.31 17.54 11.53 17.55 11.53 17.55C11.53 17.55 11.53 17.48 11.51 17.43C11.47 17.33 11.37 17.22 11.28 17.15C11.14 17.05 10.98 16.97 10.82 16.91C10.73 16.88 10.53 16.85 10.53 16.85L10.54 16.86Z" fill="#4D5B2D"/>
<path d="M10.19 17.75C10.19 17.75 10.47 17.82 10.62 17.84C10.72 17.85 10.81 17.85 10.91 17.84C11 17.84 11.09 17.83 11.17 17.79C11.29 17.73 11.36 17.67 11.36 17.67C11.29 17.59 11.17 17.57 11.08 17.56C10.97 17.55 10.86 17.55 10.75 17.56C10.63 17.57 10.5 17.6 10.38 17.64C10.31 17.67 10.19 17.74 10.19 17.74V17.75Z" fill="#4D5B2D"/>
<path d="M11.48 17.67C11.48 17.67 11.51 17.69 11.52 17.7C11.52 17.7 11.72 17.75 11.82 17.79C11.89 17.82 11.97 17.84 12.03 17.88C12.1 17.93 12.16 17.99 12.22 18.05C12.29 18.12 12.4 18.28 12.4 18.28L12.43 18.33H12.45C12.45 18.33 12.46 18.19 12.48 18.14C12.5 18.08 12.56 18.04 12.56 18.04V18.01C12.37 17.89 12.16 17.78 11.96 17.73C11.86 17.71 11.76 17.69 11.66 17.68C11.6 17.68 11.46 17.68 11.46 17.68L11.48 17.67Z" fill="#4D5B2D"/>
<path d="M7.57001 16.07C7.57001 16.07 7.57001 16.17 7.59001 16.21C7.62001 16.25 7.66001 16.28 7.71001 16.29C7.73001 16.29 7.76001 16.29 7.78001 16.29C7.80001 16.28 7.82001 16.26 7.83001 16.23C7.84001 16.19 7.83001 16.15 7.81001 16.12C7.79001 16.08 7.76001 16.05 7.72001 16.04C7.69001 16.03 7.65001 16.02 7.62001 16.04C7.60001 16.04 7.58001 16.07 7.57001 16.09V16.07Z" fill="#4D5B2D"/>
<path d="M8.01001 15.42C8.01001 15.42 7.96001 15.52 7.97001 15.57C7.97001 15.62 8.01001 15.68 8.04001 15.71C8.06001 15.73 8.08001 15.74 8.10001 15.74C8.13001 15.74 8.15001 15.74 8.17001 15.71C8.20001 15.68 8.20001 15.63 8.20001 15.59C8.20001 15.54 8.18001 15.49 8.15001 15.46C8.13001 15.43 8.09001 15.41 8.06001 15.4C8.04001 15.4 8.01001 15.4 8.00001 15.42H8.01001Z" fill="#4D5B2D"/>
<path d="M8.54002 16.93C8.54002 16.93 8.61002 17.01 8.65002 17.02C8.70002 17.03 8.76002 17.02 8.81002 17C8.83002 17 8.85002 16.97 8.86002 16.95C8.87002 16.93 8.87002 16.9 8.86002 16.87C8.84002 16.84 8.80002 16.81 8.77002 16.8C8.73002 16.78 8.68002 16.78 8.63002 16.8C8.59002 16.81 8.56002 16.83 8.54002 16.86C8.53002 16.88 8.52002 16.91 8.54002 16.93Z" fill="#4D5B2D"/>
<path d="M9.80002 17.57C9.80002 17.57 9.88002 17.63 9.93002 17.64C9.98002 17.64 10.04 17.62 10.08 17.6C10.1 17.59 10.12 17.57 10.12 17.55C10.12 17.53 10.12 17.5 10.12 17.47C10.1 17.44 10.06 17.42 10.02 17.41C9.98002 17.41 9.93002 17.41 9.89002 17.43C9.86002 17.45 9.83002 17.47 9.81002 17.51C9.81002 17.53 9.81002 17.56 9.81002 17.58L9.80002 17.57Z" fill="#4D5B2D"/>
<path d="M8.86002 16.21C8.86002 16.21 8.86002 16.32 8.89002 16.36C8.92002 16.4 8.97002 16.43 9.02002 16.45C9.04002 16.45 9.10002 16.45 9.12002 16.45C9.14002 16.44 9.14002 16.42 9.15002 16.39C9.16002 16.35 9.15002 16.3 9.13002 16.27C9.11002 16.23 9.07002 16.2 9.03002 16.18C9.00002 16.17 8.95002 16.16 8.92002 16.18C8.90002 16.18 8.88002 16.21 8.87002 16.23L8.86002 16.21Z" fill="#4D5B2D"/>
<path d="M10.22 16.78C10.22 16.78 10.2 16.88 10.22 16.92C10.24 16.97 10.29 17.01 10.33 17.03C10.35 17.04 10.38 17.05 10.4 17.03C10.42 17.03 10.45 17.01 10.46 16.98C10.48 16.95 10.47 16.9 10.46 16.86C10.44 16.82 10.41 16.78 10.38 16.75C10.35 16.73 10.31 16.72 10.28 16.72C10.26 16.72 10.24 16.74 10.23 16.76L10.22 16.78Z" fill="#4D5B2D"/>
<path d="M17.3 14.46C17.3 14.46 17.25 14.58 17.18 14.73C17.11 14.88 17.02 15.05 16.94 15.15C16.89 15.22 16.83 15.29 16.76 15.33C16.67 15.39 16.46 15.46 16.46 15.46C16.46 15.46 16.46 15.26 16.51 15.16C16.55 15.07 16.64 14.95 16.72 14.88C16.9 14.72 17.05 14.61 17.15 14.54C17.26 14.47 17.3 14.45 17.3 14.45V14.46Z" fill="#4D5B2D"/>
<path d="M16.44 14.68C16.44 14.68 16.44 14.76 16.43 14.87C16.42 14.98 16.4 15.1 16.38 15.18C16.36 15.27 16.32 15.35 16.27 15.43C16.23 15.49 16.12 15.6 16.12 15.6C16.12 15.6 16.08 15.47 16.08 15.4C16.08 15.3 16.11 15.2 16.15 15.1C16.18 15.02 16.24 14.9 16.3 14.81C16.37 14.72 16.44 14.67 16.44 14.67V14.68Z" fill="#4D5B2D"/>
<path d="M17.18 15.48C17.18 15.48 16.95 15.72 16.8 15.8C16.73 15.84 16.66 15.87 16.58 15.88C16.51 15.89 16.36 15.88 16.36 15.88C16.36 15.88 16.37 15.79 16.47 15.68C16.54 15.6 16.67 15.55 16.77 15.52C16.96 15.45 17.19 15.48 17.19 15.48H17.18Z" fill="#4D5B2D"/>
<path d="M16.41 15.56C16.41 15.56 16.27 15.84 16.18 15.97C16.12 16.05 16.05 16.14 15.97 16.2C15.71 16.4 15.56 16.39 15.56 16.39C15.56 16.39 15.57 16.25 15.6 16.18C15.66 16.05 15.76 15.93 15.87 15.83C16.03 15.7 16.41 15.56 16.41 15.56Z" fill="#4D5B2D"/>
<path d="M16.46 16.33C16.46 16.33 16.29 16.49 16.19 16.56C16.12 16.61 16.04 16.65 15.95 16.68C15.88 16.7 15.8 16.71 15.73 16.72C15.55 16.72 15.46 16.7 15.46 16.7C15.46 16.7 15.46 16.61 15.62 16.49C15.71 16.42 15.83 16.38 15.94 16.35C16.11 16.31 16.46 16.33 16.46 16.33Z" fill="#4D5B2D"/>
<path d="M15.8 15.44C15.8 15.44 15.74 15.67 15.69 15.78C15.65 15.87 15.61 15.97 15.55 16.05C15.5 16.12 15.44 16.2 15.38 16.26C15.32 16.3 15.2 16.35 15.2 16.35C15.2 16.35 15.2 16.18 15.23 16.11C15.26 16.01 15.3 15.92 15.36 15.84C15.43 15.74 15.53 15.65 15.63 15.57C15.76 15.45 15.81 15.45 15.81 15.45L15.8 15.44Z" fill="#4D5B2D"/>
<path d="M15.48 16.44C15.48 16.44 15.34 16.6 15.26 16.67C15.16 16.75 15.06 16.83 14.95 16.89C14.89 16.93 14.82 16.96 14.75 16.98C14.68 17 14.6 17.01 14.53 17.01C14.48 17.01 14.39 17 14.39 17C14.39 17 14.47 16.84 14.53 16.77C14.6 16.69 14.69 16.64 14.79 16.59C14.91 16.53 15.04 16.49 15.18 16.46C15.28 16.44 15.48 16.44 15.48 16.44Z" fill="#4D5B2D"/>
<path d="M14.8 16.33C14.8 16.33 14.68 16.51 14.6 16.59C14.52 16.67 14.44 16.73 14.35 16.79C14.27 16.84 14.19 16.9 14.09 16.93C14.01 16.95 13.85 16.94 13.85 16.94C13.85 16.94 13.88 16.81 13.92 16.75C13.97 16.67 14.05 16.59 14.13 16.54C14.24 16.46 14.36 16.41 14.49 16.37C14.59 16.34 14.81 16.33 14.81 16.33H14.8Z" fill="#4D5B2D"/>
<path d="M15.34 17.19C15.34 17.19 15.22 17.28 15.04 17.33C14.95 17.36 14.86 17.37 14.76 17.38C14.68 17.38 14.52 17.38 14.44 17.37C14.34 17.36 14.23 17.29 14.23 17.29C14.23 17.29 14.3 17.18 14.38 17.15C14.52 17.09 14.72 17.07 14.87 17.07C15.18 17.08 15.34 17.19 15.34 17.19Z" fill="#4D5B2D"/>
<path d="M14.33 17.05C14.33 17.05 14.07 17.26 13.93 17.34C13.81 17.41 13.68 17.46 13.55 17.49C13.31 17.54 13.09 17.5 13.09 17.5C13.09 17.5 13.13 17.39 13.16 17.35C13.26 17.24 13.39 17.17 13.52 17.12C13.68 17.06 13.85 17.06 14.02 17.05C14.11 17.05 14.33 17.05 14.33 17.05Z" fill="#4D5B2D"/>
<path d="M13.46 16.86C13.46 16.86 13.25 17.18 13.1 17.31C13.01 17.39 12.9 17.46 12.79 17.5C12.69 17.54 12.47 17.55 12.47 17.55C12.47 17.55 12.47 17.48 12.49 17.43C12.53 17.33 12.63 17.22 12.72 17.15C12.86 17.05 13.02 16.97 13.18 16.91C13.27 16.88 13.47 16.85 13.47 16.85L13.46 16.86Z" fill="#4D5B2D"/>
<path d="M13.81 17.75C13.81 17.75 13.53 17.82 13.38 17.84C13.28 17.85 13.19 17.85 13.09 17.84C13 17.84 12.91 17.83 12.83 17.79C12.71 17.73 12.64 17.67 12.64 17.67C12.71 17.59 12.83 17.57 12.92 17.56C13.03 17.55 13.14 17.55 13.25 17.56C13.37 17.57 13.5 17.6 13.62 17.64C13.69 17.67 13.81 17.74 13.81 17.74V17.75Z" fill="#4D5B2D"/>
<path d="M12.52 17.67C12.52 17.67 12.49 17.69 12.48 17.7C12.48 17.7 12.28 17.75 12.18 17.79C12.11 17.82 12.03 17.84 11.97 17.88C11.9 17.93 11.84 17.99 11.78 18.05C11.71 18.12 11.6 18.28 11.6 18.28L11.57 18.33H11.55C11.55 18.33 11.54 18.19 11.52 18.14C11.5 18.08 11.44 18.04 11.44 18.04V18.01C11.63 17.89 11.84 17.78 12.04 17.73C12.14 17.71 12.24 17.69 12.34 17.68C12.4 17.68 12.54 17.68 12.54 17.68L12.52 17.67Z" fill="#4D5B2D"/>
<path d="M16.43 16.07C16.43 16.07 16.43 16.17 16.41 16.21C16.38 16.25 16.34 16.28 16.29 16.29C16.27 16.29 16.24 16.29 16.22 16.29C16.2 16.28 16.18 16.26 16.17 16.23C16.16 16.19 16.17 16.15 16.19 16.12C16.21 16.08 16.24 16.05 16.28 16.04C16.31 16.03 16.35 16.02 16.38 16.04C16.4 16.04 16.42 16.07 16.43 16.09V16.07Z" fill="#4D5B2D"/>
<path d="M15.99 15.42C15.99 15.42 16.04 15.52 16.03 15.57C16.03 15.62 15.99 15.68 15.96 15.71C15.94 15.73 15.92 15.74 15.9 15.74C15.87 15.74 15.85 15.74 15.83 15.71C15.8 15.68 15.8 15.63 15.8 15.59C15.8 15.54 15.82 15.49 15.85 15.46C15.87 15.43 15.91 15.41 15.94 15.4C15.96 15.4 15.99 15.4 16 15.42H15.99Z" fill="#4D5B2D"/>
<path d="M15.46 16.93C15.46 16.93 15.39 17.01 15.35 17.02C15.3 17.03 15.24 17.02 15.19 17C15.17 17 15.15 16.97 15.14 16.95C15.13 16.93 15.13 16.9 15.14 16.87C15.16 16.84 15.2 16.81 15.23 16.8C15.27 16.78 15.32 16.78 15.37 16.8C15.41 16.81 15.44 16.83 15.46 16.86C15.47 16.88 15.48 16.91 15.46 16.93Z" fill="#4D5B2D"/>
<path d="M14.2 17.57C14.2 17.57 14.12 17.63 14.07 17.64C14.02 17.64 13.96 17.62 13.92 17.6C13.9 17.59 13.88 17.57 13.88 17.55C13.88 17.53 13.88 17.5 13.88 17.47C13.9 17.44 13.94 17.42 13.98 17.41C14.02 17.41 14.07 17.41 14.11 17.43C14.14 17.45 14.17 17.47 14.19 17.51C14.19 17.53 14.19 17.56 14.19 17.58L14.2 17.57Z" fill="#4D5B2D"/>
<path d="M15.14 16.21C15.14 16.21 15.14 16.32 15.11 16.36C15.08 16.4 15.03 16.43 14.98 16.45C14.96 16.45 14.9 16.45 14.88 16.45C14.86 16.44 14.86 16.42 14.85 16.39C14.84 16.35 14.85 16.3 14.87 16.27C14.89 16.23 14.93 16.2 14.97 16.18C15 16.17 15.05 16.16 15.08 16.18C15.1 16.18 15.12 16.21 15.13 16.23L15.14 16.21Z" fill="#4D5B2D"/>
<path d="M13.78 16.78C13.78 16.78 13.8 16.88 13.78 16.92C13.76 16.97 13.71 17.01 13.67 17.03C13.65 17.04 13.62 17.05 13.6 17.03C13.58 17.03 13.55 17.01 13.54 16.98C13.52 16.95 13.53 16.9 13.54 16.86C13.56 16.82 13.59 16.78 13.62 16.75C13.65 16.73 13.69 16.72 13.72 16.72C13.74 16.72 13.76 16.74 13.77 16.76L13.78 16.78Z" fill="#4D5B2D"/>
</svg>
