<svg width="24" height="24" viewBox="0 0 24 24" fill="none" xmlns="http://www.w3.org/2000/svg">
<path d="M0 4H24V20H0V4Z" fill="black"/>
<path d="M0 4H24V14.67H0V4Z" fill="white"/>
<path d="M0 4H24V9.33H0V4Z" fill="#CE1126"/>
<path d="M12.02 12.06L13.85 13.76L13.72 10.68C13.7 10.21 13.3 10.32 13 10.49C12.7 10.68 12.36 10.68 12 10.55C11.64 10.68 11.3 10.68 11 10.49C10.71 10.32 10.3 10.21 10.28 10.68L10.15 13.76L12.02 12.06Z" fill="white"/>
<path d="M10.15 13.78C10.15 13.78 10.14 13.78 10.15 13.76L10.28 10.68C10.28 10.52 10.34 10.42 10.43 10.36C10.61 10.26 10.91 10.4 11.02 10.47C11.29 10.65 11.63 10.67 12 10.53C12 10.53 12 10.53 12.01 10.53C12.39 10.66 12.72 10.64 12.99 10.47C13.11 10.4 13.4 10.26 13.58 10.36C13.67 10.41 13.72 10.52 13.73 10.68L13.86 13.76C13.86 13.76 13.86 13.77 13.86 13.78C13.86 13.78 13.85 13.78 13.84 13.78L12.03 12.1L10.17 13.78C10.17 13.78 10.17 13.78 10.16 13.78H10.15ZM10.57 10.36C10.57 10.36 10.47 10.36 10.43 10.39C10.35 10.44 10.3 10.53 10.3 10.68L10.17 13.72L12.01 12.05H12.03L13.83 13.72L13.7 10.68C13.7 10.53 13.65 10.44 13.57 10.39C13.4 10.3 13.12 10.44 13.01 10.5C12.73 10.68 12.39 10.7 12 10.57C11.61 10.7 11.27 10.68 10.99 10.5C10.9 10.45 10.72 10.36 10.57 10.36Z" fill="#C09300"/>
<path d="M10.49 10.57L10.36 13.57L10.15 13.76L10.28 10.68C10.34 10.64 10.45 10.57 10.49 10.57ZM10.75 10.79L10.64 13.3L10.43 13.52L10.56 10.63C10.56 10.63 10.73 10.78 10.75 10.8V10.79ZM10.98 10.98L10.9 13.07L10.73 13.24L10.84 10.86C10.84 10.86 10.97 10.96 10.99 10.99L10.98 10.98ZM11.23 11.09L11.15 12.87L10.98 13.01L11.06 11.03C11.06 11.03 11.19 11.1 11.23 11.1V11.09ZM11.47 11.09L11.41 12.57L11.24 12.74L11.31 11.11C11.31 11.11 11.46 11.11 11.48 11.09H11.47Z" fill="#C09300"/>
<path d="M13.51 10.57L13.64 13.57L13.85 13.76L13.72 10.68C13.66 10.64 13.55 10.57 13.51 10.57ZM13.25 10.79L13.36 13.3L13.57 13.52L13.44 10.63C13.44 10.63 13.27 10.78 13.25 10.8V10.79ZM13.02 10.98L13.1 13.07L13.27 13.24L13.16 10.86C13.16 10.86 13.03 10.96 13.01 10.99L13.02 10.98ZM12.76 11.09L12.84 12.87L13.01 13.01L12.93 11.03C12.93 11.03 12.8 11.1 12.76 11.1V11.09ZM12.53 11.09L12.59 12.57L12.76 12.74L12.69 11.11C12.69 11.11 12.54 11.11 12.52 11.09H12.53Z" fill="#C09300"/>
<path d="M12.08 12.4L12.34 13.57L12.26 13.65L12.17 13.58L12.02 12.54L12.08 13.58L12 13.69L11.92 13.58L11.98 12.54L11.83 13.58L11.74 13.65L11.66 13.57L11.92 12.4H12.09H12.08Z" fill="#C09300"/>
<path d="M12 13.72L11.9 13.59L11.94 12.9L11.84 13.59L11.74 13.67L11.64 13.57L11.9 12.38H12.09L12.35 13.57L12.25 13.67L12.15 13.59L12.05 12.9L12.09 13.59L11.99 13.72H12ZM11.93 13.58L12 13.67L12.07 13.58L12.01 12.54H12.04L12.18 13.57L12.25 13.62L12.32 13.55L12.07 12.4H11.92L11.67 13.55L11.74 13.62L11.81 13.57L11.95 12.54H11.98L11.92 13.58H11.93Z" fill="#C09300"/>
<path d="M11.43 11.89L10.92 13.7L11.62 13.81L11.92 12.45L11.43 11.9V11.89Z" fill="white"/>
<path d="M11.62 13.82L10.92 13.71C10.92 13.71 10.92 13.71 10.91 13.71C10.91 13.71 10.91 13.71 10.91 13.7L11.42 11.89C11.42 11.89 11.42 11.89 11.43 11.88C11.43 11.88 11.44 11.88 11.45 11.88L11.94 12.43C11.94 12.43 11.94 12.43 11.94 12.44L11.64 13.8C11.64 13.8 11.64 13.81 11.62 13.81V13.82ZM10.94 13.68L11.61 13.78L11.9 12.44L11.43 11.91L10.93 13.67L10.94 13.68Z" fill="#C09300"/>
<path d="M11.32 12.67C11.32 12.67 11.31 12.67 11.31 12.66L11.25 12.51H11.28L11.33 12.62L11.64 12.32L11.66 12.34L11.33 12.66C11.33 12.66 11.33 12.66 11.32 12.66V12.67Z" fill="#C09300"/>
<path d="M11.49 13.81L11.42 13.59L11.31 13.77C11.31 13.77 11.31 13.77 11.29 13.77C11.29 13.77 11.28 13.77 11.28 13.76L11.2 13.49L11.08 13.66L11.05 13.64L11.19 13.44L11.08 13.05C11.08 13.05 11.08 13.04 11.08 13.03L11.3 12.81C11.3 12.81 11.31 12.81 11.32 12.81C11.32 12.81 11.33 12.81 11.33 12.82L11.39 13.03L11.53 12.85C11.53 12.85 11.54 12.85 11.55 12.85C11.55 12.85 11.56 12.85 11.56 12.86L11.62 13.18L11.77 12.96L11.68 12.66L11.57 12.8C11.57 12.8 11.56 12.8 11.55 12.8C11.55 12.8 11.54 12.8 11.54 12.79L11.47 12.14H11.5L11.56 12.74L11.74 12.5L11.77 12.52L11.69 12.62L11.78 12.92L11.82 12.86L11.85 12.88L11.79 12.97V13.02H11.77V13L11.62 13.23L11.69 13.57H11.66L11.59 13.26L11.45 13.47C11.45 13.47 11.45 13.47 11.43 13.47C11.43 13.47 11.42 13.47 11.42 13.46L11.35 13.24L11.22 13.46L11.3 13.71L11.41 13.53C11.41 13.53 11.41 13.53 11.43 13.53C11.43 13.53 11.44 13.53 11.44 13.54L11.52 13.8H11.49V13.81ZM11.36 13.19C11.36 13.19 11.37 13.19 11.37 13.2L11.44 13.42L11.58 13.21L11.52 12.9L11.39 13.08C11.39 13.08 11.38 13.08 11.37 13.08C11.37 13.08 11.36 13.08 11.36 13.07L11.3 12.86L11.11 13.06L11.21 13.42L11.34 13.2C11.34 13.2 11.34 13.2 11.35 13.2L11.36 13.19Z" fill="#C09300"/>
<path d="M12.57 11.89L13.08 13.7L12.38 13.81L12.08 12.45L12.57 11.9V11.89Z" fill="white"/>
<path d="M12.38 13.82C12.38 13.82 12.37 13.82 12.36 13.81L12.06 12.45V12.44L12.55 11.89C12.55 11.89 12.55 11.89 12.57 11.89C12.57 11.89 12.58 11.89 12.58 11.9L13.09 13.71C13.09 13.71 13.09 13.71 13.09 13.72C13.09 13.72 13.09 13.72 13.08 13.72L12.38 13.83V13.82ZM12.1 12.45L12.39 13.79L13.06 13.69L12.56 11.93L12.09 12.46L12.1 12.45Z" fill="#C09300"/>
<path d="M12.68 12.67C12.68 12.67 12.68 12.67 12.67 12.67L12.34 12.35L12.36 12.33L12.67 12.63L12.72 12.5H12.75L12.69 12.66C12.69 12.66 12.69 12.66 12.68 12.67Z" fill="#C09300"/>
<path d="M12.51 13.81H12.48L12.56 13.54C12.56 13.54 12.56 13.53 12.57 13.53C12.57 13.53 12.58 13.53 12.59 13.53L12.7 13.71L12.78 13.46L12.65 13.24L12.58 13.46C12.58 13.46 12.58 13.47 12.57 13.47C12.57 13.47 12.56 13.47 12.55 13.47L12.41 13.26L12.34 13.57H12.31L12.38 13.22L12.23 12.99V13.01H12.19V12.96L12.15 12.87L12.18 12.85L12.22 12.91L12.31 12.61L12.23 12.51L12.26 12.49L12.44 12.73L12.5 12.12H12.53L12.46 12.77C12.46 12.77 12.46 12.78 12.45 12.78C12.45 12.78 12.44 12.78 12.43 12.78L12.32 12.64L12.23 12.94L12.38 13.16L12.44 12.84C12.44 12.84 12.44 12.83 12.45 12.83C12.45 12.83 12.46 12.83 12.47 12.83L12.61 13.01L12.67 12.8C12.67 12.8 12.67 12.79 12.68 12.79C12.68 12.79 12.69 12.79 12.7 12.79L12.92 13.01C12.92 13.01 12.92 13.02 12.92 13.03L12.81 13.42L12.95 13.62L12.92 13.64L12.8 13.47L12.72 13.74C12.72 13.74 12.72 13.75 12.71 13.75C12.71 13.75 12.7 13.75 12.69 13.75L12.58 13.57L12.51 13.79V13.81ZM12.41 13.21L12.55 13.42L12.62 13.2C12.62 13.2 12.62 13.19 12.63 13.19C12.63 13.19 12.64 13.19 12.65 13.19L12.78 13.41L12.88 13.05L12.69 12.85L12.63 13.06C12.63 13.06 12.63 13.07 12.62 13.07C12.62 13.07 12.61 13.07 12.6 13.07L12.47 12.89L12.41 13.2V13.21Z" fill="#C09300"/>
<path d="M12 14.5C12.53 14.5 13.04 14.46 13.34 14.37C13.47 14.35 13.47 14.28 13.47 14.2C13.6 14.16 13.53 14.01 13.62 14.01C13.53 14.03 13.51 13.86 13.41 13.88C13.41 13.73 13.26 13.71 13.13 13.75C12.88 13.83 12.43 13.85 12.01 13.85C11.59 13.83 11.14 13.83 10.89 13.75C10.76 13.71 10.61 13.73 10.61 13.88C10.5 13.86 10.48 14.03 10.4 14.01C10.49 14.01 10.42 14.16 10.55 14.2C10.55 14.28 10.55 14.35 10.68 14.37C10.97 14.45 11.48 14.5 12.02 14.5H12Z" fill="white"/>
<path d="M12 14.53C11.43 14.53 10.94 14.48 10.66 14.4C10.52 14.37 10.51 14.3 10.51 14.22C10.44 14.19 10.43 14.13 10.42 14.09C10.42 14.06 10.41 14.05 10.4 14.05C10.4 14.05 10.39 14.05 10.38 14.05C10.36 14.05 10.35 14.03 10.36 14.02C10.36 14 10.38 13.99 10.39 13.99C10.39 13.99 10.4 13.99 10.41 13.99C10.43 13.99 10.44 13.97 10.46 13.94C10.49 13.91 10.52 13.86 10.57 13.86C10.57 13.8 10.61 13.77 10.63 13.75C10.69 13.71 10.78 13.7 10.88 13.73C11.09 13.8 11.42 13.81 11.77 13.82C11.85 13.82 11.92 13.82 12 13.82C12.54 13.82 12.91 13.79 13.11 13.72C13.21 13.69 13.3 13.69 13.36 13.74C13.39 13.76 13.41 13.79 13.42 13.85C13.47 13.85 13.51 13.9 13.53 13.93C13.55 13.96 13.57 13.98 13.58 13.98C13.58 13.98 13.59 13.98 13.6 13.98C13.62 13.98 13.63 13.99 13.63 14.01C13.63 14.03 13.63 14.04 13.61 14.04C13.61 14.04 13.6 14.04 13.59 14.04C13.59 14.04 13.59 14.05 13.57 14.08C13.56 14.12 13.55 14.18 13.48 14.21C13.48 14.29 13.47 14.37 13.33 14.39C13.04 14.47 12.55 14.52 11.98 14.52L12 14.53ZM10.46 14.03C10.46 14.03 10.47 14.06 10.48 14.08C10.49 14.12 10.5 14.16 10.55 14.18C10.56 14.18 10.57 14.2 10.57 14.21C10.57 14.29 10.57 14.33 10.67 14.35C10.94 14.43 11.44 14.48 12 14.48C12.56 14.48 13.05 14.43 13.33 14.35C13.43 14.33 13.43 14.29 13.43 14.21C13.43 14.2 13.43 14.18 13.45 14.18C13.5 14.16 13.51 14.13 13.52 14.08C13.52 14.06 13.52 14.05 13.54 14.03C13.52 14.02 13.51 14 13.49 13.98C13.46 13.94 13.44 13.92 13.4 13.92C13.4 13.92 13.38 13.92 13.37 13.92L13.36 13.9C13.36 13.86 13.35 13.83 13.32 13.81C13.28 13.78 13.2 13.78 13.13 13.81C12.92 13.88 12.55 13.92 12 13.92C11.92 13.92 11.85 13.92 11.77 13.92C11.42 13.91 11.08 13.89 10.87 13.82C10.79 13.79 10.72 13.8 10.68 13.82C10.65 13.84 10.64 13.87 10.64 13.91C10.64 13.91 10.64 13.93 10.63 13.93C10.63 13.93 10.61 13.93 10.6 13.93C10.57 13.93 10.55 13.94 10.51 13.99C10.5 14.01 10.48 14.03 10.46 14.04V14.03Z" fill="#C09300"/>
<path d="M11.28 13.69C11.45 13.71 11.64 13.73 11.79 13.71C11.87 13.71 11.94 13.86 11.77 13.88C11.62 13.9 11.39 13.88 11.26 13.86C11.15 13.84 10.92 13.8 10.77 13.76C10.62 13.7 10.73 13.57 10.81 13.59C10.94 13.63 11.11 13.67 11.28 13.7V13.69ZM12.72 13.69C12.55 13.71 12.36 13.73 12.21 13.71C12.12 13.71 12.06 13.86 12.23 13.88C12.38 13.9 12.61 13.88 12.74 13.86C12.85 13.84 13.08 13.8 13.23 13.76C13.38 13.7 13.27 13.57 13.19 13.59C13.06 13.63 12.89 13.67 12.72 13.7V13.69Z" fill="white"/>
<path d="M12.38 13.91C12.33 13.91 12.28 13.91 12.23 13.91C12.11 13.89 12.11 13.82 12.11 13.8C12.11 13.75 12.16 13.7 12.21 13.7C12.36 13.72 12.56 13.7 12.72 13.68C12.92 13.65 13.1 13.6 13.18 13.57C13.23 13.56 13.3 13.59 13.31 13.65C13.31 13.67 13.33 13.73 13.23 13.78C13.07 13.82 12.83 13.87 12.74 13.88C12.65 13.9 12.51 13.91 12.37 13.91H12.38ZM12.21 13.73C12.21 13.73 12.14 13.76 12.14 13.79C12.14 13.83 12.17 13.85 12.23 13.86C12.38 13.88 12.62 13.86 12.73 13.84C12.82 13.82 13.07 13.78 13.22 13.74C13.27 13.72 13.29 13.69 13.28 13.65C13.27 13.61 13.22 13.59 13.19 13.6C13.1 13.63 12.93 13.68 12.72 13.71C12.56 13.73 12.36 13.75 12.21 13.73ZM11.62 13.91C11.49 13.91 11.34 13.89 11.25 13.88C11.16 13.86 10.91 13.82 10.76 13.78C10.66 13.74 10.67 13.67 10.68 13.65C10.7 13.6 10.76 13.56 10.81 13.57C10.9 13.6 11.07 13.65 11.28 13.68C11.44 13.7 11.64 13.72 11.79 13.7C11.84 13.7 11.89 13.74 11.89 13.8C11.89 13.82 11.89 13.89 11.77 13.91C11.73 13.91 11.68 13.91 11.62 13.91ZM10.79 13.6C10.79 13.6 10.72 13.62 10.71 13.66C10.7 13.69 10.72 13.72 10.77 13.75C10.92 13.79 11.16 13.84 11.26 13.85C11.38 13.87 11.61 13.89 11.76 13.87C11.82 13.87 11.85 13.84 11.85 13.8C11.85 13.77 11.82 13.74 11.78 13.74C11.63 13.76 11.42 13.74 11.27 13.72C11.07 13.69 10.89 13.64 10.8 13.61C10.8 13.61 10.8 13.61 10.79 13.61V13.6Z" fill="#C09300"/>
<path d="M10.75 13.61C10.62 13.59 10.56 13.74 10.6 13.82C10.62 13.78 10.71 13.78 10.73 13.74C10.75 13.68 10.71 13.68 10.75 13.61ZM11.26 14C11.26 13.92 11.34 13.93 11.34 13.84C11.34 13.8 11.32 13.73 11.28 13.73C11.24 13.73 11.2 13.77 11.2 13.81C11.18 13.89 11.27 13.91 11.27 13.99L11.26 14ZM11.86 13.76C11.99 13.76 11.97 13.93 11.91 14.01C11.91 13.95 11.8 13.93 11.8 13.88C11.8 13.81 11.9 13.81 11.85 13.75L11.86 13.76ZM13.25 13.61C13.38 13.59 13.44 13.74 13.4 13.82C13.38 13.78 13.29 13.78 13.27 13.74C13.25 13.68 13.29 13.68 13.25 13.61ZM12.74 14C12.74 13.92 12.66 13.93 12.66 13.84C12.66 13.8 12.68 13.73 12.73 13.73C12.78 13.73 12.81 13.77 12.81 13.81C12.83 13.89 12.74 13.91 12.74 13.99V14ZM12.14 13.76C12.01 13.76 12.03 13.93 12.09 14.01C12.09 13.95 12.2 13.93 12.2 13.88C12.2 13.81 12.1 13.81 12.15 13.75L12.14 13.76Z" fill="white"/>
<path d="M12.08 14.03H12.07C12.03 13.97 12 13.87 12.04 13.81C12.05 13.78 12.08 13.75 12.14 13.75H12.15C12.15 13.75 12.15 13.76 12.15 13.77C12.14 13.79 12.15 13.79 12.16 13.81C12.18 13.83 12.2 13.85 12.2 13.88C12.2 13.91 12.17 13.93 12.15 13.94C12.12 13.96 12.1 13.98 12.1 14C12.1 14 12.1 14.01 12.09 14.02L12.08 14.03ZM12.11 13.78C12.11 13.78 12.08 13.8 12.07 13.81C12.05 13.85 12.06 13.92 12.08 13.97C12.09 13.95 12.12 13.93 12.14 13.92C12.16 13.91 12.18 13.89 12.18 13.88C12.18 13.86 12.17 13.85 12.15 13.83C12.13 13.82 12.11 13.8 12.12 13.77L12.11 13.78ZM11.92 14.03C11.92 14.03 11.91 14.03 11.91 14.01C11.91 13.99 11.88 13.97 11.86 13.95C11.83 13.93 11.81 13.91 11.81 13.89C11.81 13.85 11.84 13.83 11.85 13.82C11.87 13.8 11.88 13.8 11.86 13.78C11.86 13.78 11.86 13.77 11.86 13.76C11.86 13.76 11.86 13.76 11.87 13.76C11.93 13.76 11.96 13.79 11.97 13.82C12 13.88 11.97 13.99 11.94 14.04C11.94 14.04 11.94 14.04 11.93 14.04L11.92 14.03ZM11.89 13.78C11.89 13.78 11.87 13.83 11.86 13.84C11.84 13.86 11.83 13.87 11.83 13.89C11.83 13.9 11.85 13.91 11.87 13.93C11.89 13.94 11.91 13.96 11.93 13.98C11.95 13.93 11.96 13.86 11.94 13.82C11.94 13.8 11.92 13.79 11.9 13.79L11.89 13.78ZM12.74 14.02C12.74 14.02 12.72 14.02 12.72 14C12.72 13.97 12.7 13.95 12.68 13.93C12.66 13.91 12.63 13.89 12.63 13.84C12.63 13.79 12.66 13.72 12.71 13.72C12.76 13.72 12.81 13.77 12.81 13.82C12.82 13.87 12.8 13.9 12.78 13.93C12.76 13.95 12.75 13.97 12.75 14.01C12.75 14.01 12.75 14.03 12.73 14.03L12.74 14.02ZM12.72 13.75C12.72 13.75 12.67 13.8 12.67 13.84C12.67 13.87 12.69 13.89 12.71 13.91C12.71 13.91 12.73 13.93 12.74 13.94C12.74 13.93 12.76 13.92 12.76 13.9C12.78 13.88 12.79 13.86 12.79 13.82C12.79 13.79 12.76 13.75 12.72 13.75ZM11.26 14.02C11.26 14.02 11.24 14.02 11.24 14C11.24 13.97 11.22 13.95 11.21 13.92C11.19 13.89 11.17 13.86 11.18 13.81C11.18 13.76 11.23 13.71 11.28 13.71C11.33 13.71 11.36 13.78 11.36 13.83C11.36 13.88 11.33 13.9 11.31 13.92C11.29 13.94 11.27 13.95 11.27 13.99C11.27 13.99 11.27 14.01 11.25 14.01L11.26 14.02ZM11.28 13.75C11.28 13.75 11.21 13.78 11.21 13.82C11.21 13.86 11.21 13.88 11.24 13.9C11.24 13.91 11.26 13.92 11.26 13.94C11.26 13.93 11.28 13.92 11.29 13.91C11.31 13.89 11.33 13.88 11.33 13.84C11.33 13.8 11.31 13.75 11.28 13.75ZM13.4 13.84C13.4 13.84 13.39 13.84 13.38 13.84C13.38 13.83 13.35 13.82 13.33 13.81C13.3 13.8 13.27 13.79 13.26 13.76C13.25 13.73 13.26 13.71 13.26 13.69C13.26 13.67 13.26 13.66 13.24 13.64C13.24 13.64 13.24 13.63 13.24 13.62C13.24 13.62 13.24 13.62 13.25 13.61C13.31 13.6 13.36 13.62 13.4 13.67C13.44 13.72 13.45 13.79 13.42 13.85C13.42 13.85 13.42 13.85 13.4 13.85V13.84ZM13.28 13.63C13.28 13.63 13.28 13.67 13.28 13.69C13.28 13.7 13.28 13.72 13.28 13.74C13.28 13.75 13.31 13.76 13.33 13.77C13.35 13.77 13.37 13.78 13.38 13.79C13.38 13.75 13.38 13.71 13.35 13.67C13.34 13.65 13.31 13.62 13.26 13.62L13.28 13.63ZM10.6 13.84C10.6 13.84 10.59 13.84 10.58 13.84C10.55 13.79 10.56 13.71 10.6 13.66C10.63 13.61 10.69 13.59 10.75 13.6C10.75 13.6 10.76 13.6 10.76 13.61C10.76 13.62 10.76 13.62 10.76 13.63C10.74 13.66 10.74 13.67 10.74 13.68C10.74 13.7 10.74 13.71 10.74 13.75C10.73 13.78 10.7 13.79 10.67 13.8C10.65 13.8 10.62 13.82 10.62 13.83C10.62 13.83 10.62 13.83 10.6 13.83V13.84ZM10.72 13.63C10.72 13.63 10.65 13.66 10.63 13.68C10.61 13.71 10.6 13.76 10.6 13.8C10.61 13.79 10.63 13.78 10.65 13.78C10.67 13.78 10.7 13.76 10.7 13.75C10.7 13.73 10.7 13.71 10.7 13.7C10.7 13.68 10.7 13.67 10.7 13.64L10.72 13.63Z" fill="#C09300"/>
<path d="M10.79 13.65C10.79 13.65 10.9 13.67 10.92 13.69L10.79 13.65ZM11 13.72C11 13.72 11.11 13.74 11.15 13.76L11 13.72ZM11.77 13.8C11.77 13.8 11.64 13.8 11.62 13.82L11.77 13.8ZM11.53 13.8C11.53 13.8 11.42 13.78 11.38 13.8H11.53ZM13.21 13.65C13.21 13.65 13.11 13.67 13.08 13.69L13.21 13.65ZM13 13.72C13 13.72 12.89 13.74 12.85 13.76L13 13.72ZM12.23 13.8C12.23 13.8 12.36 13.8 12.38 13.82L12.23 13.8ZM12.47 13.8C12.47 13.8 12.58 13.78 12.62 13.8H12.47Z" fill="white"/>
<path d="M11.62 13.83C11.62 13.83 11.62 13.83 11.61 13.83V13.82C11.63 13.8 11.7 13.8 11.76 13.8C11.76 13.8 11.76 13.8 11.77 13.8C11.77 13.8 11.77 13.8 11.77 13.81C11.77 13.81 11.77 13.81 11.76 13.81L11.61 13.83H11.62ZM12.38 13.83L12.23 13.81C12.23 13.81 12.23 13.81 12.23 13.8C12.23 13.8 12.23 13.8 12.24 13.8C12.3 13.8 12.37 13.8 12.4 13.82C12.4 13.82 12.4 13.82 12.4 13.83C12.4 13.83 12.4 13.83 12.39 13.83H12.38ZM12.62 13.81H12.47C12.47 13.81 12.46 13.81 12.46 13.8C12.49 13.77 12.58 13.78 12.62 13.8C12.62 13.8 12.62 13.8 12.62 13.81C12.62 13.82 12.62 13.81 12.61 13.81H12.62ZM11.53 13.81H11.38H11.37V13.8C11.41 13.78 11.5 13.77 11.53 13.8C11.53 13.8 11.53 13.8 11.53 13.81C11.53 13.81 11.53 13.81 11.52 13.81H11.53ZM12.85 13.77C12.85 13.77 12.85 13.77 12.84 13.77V13.76C12.88 13.74 12.97 13.72 12.99 13.72C12.99 13.72 12.99 13.72 13 13.72V13.73L12.85 13.77ZM11.15 13.77L11 13.73C11 13.73 11 13.73 11 13.72C11 13.72 11 13.72 11.01 13.72C11.04 13.72 11.12 13.74 11.16 13.76C11.16 13.76 11.16 13.76 11.16 13.77C11.16 13.77 11.16 13.77 11.15 13.77ZM13.08 13.71C13.08 13.71 13.08 13.71 13.07 13.71V13.7C13.1 13.67 13.16 13.65 13.2 13.65H13.21V13.66L13.08 13.7V13.71ZM10.92 13.71L10.79 13.67C10.79 13.67 10.79 13.67 10.79 13.65C10.79 13.65 10.79 13.65 10.8 13.65C10.84 13.65 10.91 13.67 10.93 13.7C10.93 13.7 10.93 13.7 10.93 13.71H10.92Z" fill="#C09300"/>
<path d="M10.76 13.99C10.76 13.99 10.74 13.98 10.74 13.96C10.74 13.94 10.76 13.93 10.77 13.94L10.79 13.96C10.79 13.96 10.79 13.98 10.78 13.98C10.78 13.98 10.77 13.98 10.76 13.98V13.99ZM12.22 14.09C12.22 14.09 12.21 14.08 12.21 14.07C12.21 14.06 12.23 14.04 12.23 14.04C12.23 14.04 12.25 14.04 12.25 14.05C12.25 14.05 12.25 14.07 12.25 14.08C12.25 14.08 12.23 14.08 12.22 14.08V14.09ZM12.23 14.16C12.23 14.16 12.21 14.16 12.21 14.14C12.21 14.13 12.21 14.13 12.22 14.12C12.23 14.12 12.24 14.13 12.24 14.14C12.24 14.14 12.24 14.16 12.22 14.16C12.22 14.16 12.22 14.16 12.2 14.16H12.23ZM10.87 13.87C10.87 13.87 10.85 13.87 10.84 13.88C10.82 13.88 10.8 13.89 10.79 13.88C10.77 13.88 10.75 13.88 10.75 13.9C10.75 13.92 10.78 13.93 10.79 13.92C10.8 13.91 10.83 13.9 10.83 13.92C10.82 13.94 10.82 13.96 10.81 13.98C10.81 13.99 10.81 14 10.8 14.01C10.79 14.01 10.77 14.01 10.76 14.01C10.74 14.01 10.73 14.01 10.72 14.03C10.71 14.05 10.7 14.06 10.7 14.08C10.7 14.1 10.73 14.1 10.74 14.11C10.76 14.11 10.78 14.12 10.79 14.13C10.82 14.13 10.85 14.15 10.88 14.15C10.92 14.16 10.97 14.17 11.01 14.18C11.01 14.18 11.01 14.18 11.02 14.18C11.04 14.18 11.05 14.16 11.05 14.15C11.05 14.12 11.07 14.09 11.07 14.06C11.07 14.05 11.08 14.02 11.06 14.03C11.05 14.03 11.03 14.05 11.02 14.05C11 14.05 11.01 14.08 11.02 14.09C11.02 14.11 11.02 14.12 11.01 14.14C11 14.14 10.98 14.14 10.96 14.14C10.94 14.14 10.91 14.14 10.93 14.11C10.93 14.09 10.93 14.08 10.94 14.06C10.94 14.04 10.94 14.03 10.95 14.01C10.95 13.99 10.92 14.01 10.91 14.01C10.91 14.01 10.87 14.01 10.88 14.03C10.9 14.04 10.88 14.06 10.88 14.08C10.88 14.1 10.86 14.11 10.84 14.1C10.82 14.1 10.8 14.09 10.81 14.07C10.81 14.05 10.81 14.04 10.82 14.02L10.84 13.97C10.84 13.97 10.84 13.94 10.86 13.92C10.86 13.9 10.87 13.89 10.87 13.87C10.87 13.87 10.87 13.86 10.86 13.86L10.87 13.87ZM10.78 14.06C10.78 14.06 10.78 14.06 10.78 14.07C10.77 14.07 10.76 14.07 10.76 14.07L10.78 14.06ZM10.75 14.2C10.75 14.2 10.74 14.18 10.75 14.16C10.75 14.16 10.76 14.16 10.77 14.16C10.78 14.17 10.79 14.18 10.77 14.19C10.77 14.19 10.77 14.19 10.75 14.19C10.75 14.19 10.74 14.19 10.73 14.19L10.75 14.2ZM10.83 14.22C10.83 14.22 10.81 14.2 10.81 14.19C10.81 14.18 10.81 14.18 10.83 14.18C10.85 14.18 10.85 14.18 10.85 14.2C10.85 14.2 10.85 14.21 10.85 14.22H10.83ZM13.21 14.22C13.21 14.22 13.21 14.22 13.21 14.21C13.21 14.2 13.21 14.19 13.23 14.18C13.25 14.18 13.26 14.18 13.26 14.18C13.26 14.2 13.26 14.2 13.26 14.21C13.26 14.21 13.26 14.21 13.24 14.21C13.23 14.21 13.22 14.21 13.22 14.21L13.21 14.22ZM10.94 14.25C10.94 14.25 10.93 14.25 10.93 14.23C10.93 14.23 10.93 14.22 10.93 14.21C10.93 14.21 10.94 14.21 10.95 14.21C10.95 14.21 10.95 14.21 10.97 14.21C10.98 14.22 10.99 14.23 10.97 14.24C10.97 14.25 10.95 14.25 10.94 14.24V14.25ZM11.52 14.28C11.52 14.27 11.52 14.25 11.52 14.24C11.52 14.23 11.52 14.21 11.52 14.2C11.52 14.18 11.52 14.15 11.53 14.13C11.53 14.12 11.53 14.1 11.53 14.09C11.53 14.07 11.53 14.05 11.53 14.03C11.53 14.03 11.53 14 11.54 14.02C11.55 14.04 11.56 14.05 11.58 14.06C11.59 14.06 11.58 14.08 11.58 14.08C11.57 14.08 11.57 14.1 11.57 14.11C11.57 14.12 11.57 14.13 11.57 14.14C11.57 14.16 11.57 14.17 11.57 14.19C11.57 14.21 11.57 14.22 11.57 14.24C11.57 14.25 11.57 14.26 11.57 14.27C11.57 14.28 11.57 14.29 11.56 14.3C11.56 14.3 11.54 14.3 11.53 14.3L11.52 14.28ZM12.32 14.02C12.32 14.02 12.3 14.04 12.28 14.05C12.26 14.06 12.29 14.07 12.3 14.08C12.3 14.1 12.3 14.11 12.3 14.13C12.3 14.14 12.3 14.16 12.3 14.18C12.3 14.2 12.28 14.19 12.27 14.2C12.26 14.2 12.25 14.22 12.24 14.23C12.24 14.24 12.24 14.26 12.24 14.27C12.24 14.28 12.24 14.3 12.24 14.31C12.24 14.31 12.24 14.31 12.25 14.31C12.26 14.31 12.28 14.31 12.29 14.31C12.32 14.31 12.35 14.31 12.39 14.31C12.41 14.31 12.43 14.31 12.45 14.31C12.47 14.31 12.47 14.3 12.47 14.28C12.47 14.26 12.47 14.24 12.47 14.22C12.47 14.2 12.47 14.18 12.47 14.16C12.47 14.15 12.45 14.14 12.44 14.16C12.44 14.16 12.42 14.17 12.41 14.18C12.41 14.2 12.43 14.2 12.43 14.21C12.43 14.22 12.43 14.24 12.43 14.25C12.43 14.27 12.42 14.27 12.41 14.27C12.4 14.27 12.38 14.27 12.37 14.27C12.37 14.26 12.37 14.24 12.37 14.23C12.37 14.21 12.37 14.18 12.37 14.16C12.37 14.13 12.37 14.1 12.37 14.07C12.37 14.06 12.37 14.04 12.35 14.04L12.32 14.02ZM12.3 14.24V14.25L12.29 14.26C12.29 14.26 12.29 14.26 12.28 14.26C12.28 14.26 12.28 14.25 12.28 14.24C12.28 14.24 12.28 14.24 12.29 14.24H12.3ZM11.5 13.99C11.5 13.99 11.48 14.01 11.47 14.01C11.45 14.01 11.45 14.03 11.47 14.04V14.06C11.47 14.08 11.46 14.1 11.47 14.12C11.47 14.14 11.47 14.17 11.47 14.19C11.47 14.21 11.47 14.24 11.46 14.26C11.46 14.28 11.44 14.27 11.43 14.26C11.43 14.26 11.43 14.24 11.43 14.23C11.43 14.21 11.42 14.2 11.4 14.2C11.38 14.2 11.37 14.19 11.38 14.17C11.38 14.17 11.41 14.17 11.42 14.17C11.45 14.17 11.45 14.14 11.43 14.13C11.43 14.11 11.4 14.11 11.39 14.09C11.39 14.07 11.38 14.04 11.36 14.03C11.33 14.03 11.31 14.05 11.3 14.08C11.29 14.08 11.28 14.08 11.26 14.09C11.24 14.09 11.21 14.13 11.24 14.14C11.25 14.14 11.3 14.15 11.28 14.17C11.27 14.19 11.25 14.19 11.23 14.18C11.21 14.18 11.19 14.18 11.19 14.15C11.19 14.13 11.19 14.11 11.18 14.09C11.18 14.07 11.15 14.07 11.15 14.09C11.13 14.1 11.13 14.13 11.15 14.14C11.15 14.16 11.15 14.18 11.15 14.2C11.15 14.22 11.12 14.22 11.1 14.23C11.1 14.23 11.06 14.23 11.07 14.25C11.09 14.25 11.11 14.26 11.13 14.25C11.15 14.25 11.17 14.23 11.18 14.21C11.19 14.2 11.22 14.21 11.24 14.21C11.26 14.21 11.28 14.22 11.3 14.21C11.3 14.19 11.33 14.17 11.34 14.2C11.34 14.22 11.36 14.24 11.38 14.23C11.4 14.23 11.39 14.25 11.39 14.26C11.39 14.28 11.41 14.3 11.43 14.31C11.43 14.31 11.44 14.31 11.45 14.31C11.47 14.31 11.49 14.29 11.5 14.27C11.5 14.25 11.5 14.23 11.51 14.21C11.51 14.18 11.52 14.15 11.52 14.12C11.52 14.09 11.52 14.06 11.53 14.03C11.53 14.01 11.53 13.99 11.53 13.97C11.53 13.96 11.53 13.96 11.52 13.96L11.5 13.99ZM11.32 14.1C11.32 14.1 11.32 14.1 11.32 14.11C11.32 14.11 11.32 14.13 11.33 14.13C11.33 14.13 11.33 14.13 11.33 14.14C11.33 14.14 11.33 14.14 11.31 14.14C11.29 14.14 11.29 14.14 11.28 14.13V14.12C11.28 14.12 11.29 14.12 11.29 14.11C11.29 14.11 11.3 14.1 11.31 14.1H11.32ZM13.08 13.89C13.08 13.89 13.05 13.89 13.04 13.89C13.01 13.89 13 13.92 13.03 13.93C13.05 13.97 13.07 13.93 13.1 13.93C13.14 13.93 13.14 13.98 13.15 14.01C13.15 14.04 13.16 14.07 13.17 14.1C13.2 14.13 13.15 14.15 13.13 14.12C13.11 14.1 13.08 14.08 13.06 14.11C13.04 14.12 13.03 14.15 13.01 14.16C12.98 14.16 12.97 14.13 12.96 14.11C12.94 14.09 12.91 14.09 12.89 14.08C12.88 14.06 12.89 14.02 12.86 14C12.84 14 12.8 14.05 12.83 14.06C12.86 14.09 12.82 14.1 12.8 14.11C12.78 14.13 12.78 14.16 12.77 14.19C12.74 14.21 12.73 14.17 12.73 14.14C12.73 14.11 12.7 14.12 12.68 14.13C12.65 14.14 12.64 14.16 12.62 14.18C12.62 14.2 12.62 14.22 12.62 14.23C12.62 14.25 12.65 14.24 12.67 14.23C12.7 14.22 12.71 14.25 12.69 14.26C12.68 14.28 12.63 14.26 12.64 14.3C12.65 14.3 12.67 14.3 12.68 14.3C12.71 14.3 12.74 14.27 12.74 14.24C12.74 14.21 12.78 14.22 12.81 14.21C12.84 14.21 12.87 14.2 12.88 14.23C12.9 14.25 12.94 14.27 12.96 14.24C12.98 14.23 12.99 14.2 12.99 14.18C12.99 14.16 13.02 14.16 13.03 14.17C13.04 14.19 13.09 14.19 13.11 14.17C13.13 14.15 13.14 14.12 13.17 14.12C13.22 14.11 13.27 14.1 13.31 14.08C13.35 14.08 13.31 14.05 13.3 14.03C13.27 14.02 13.25 14.07 13.21 14.04C13.19 14.02 13.19 13.98 13.18 13.96C13.18 13.92 13.18 13.88 13.15 13.85C13.13 13.83 13.11 13.83 13.08 13.83V13.89ZM12.9 14.14C12.9 14.14 12.9 14.14 12.91 14.14C12.92 14.14 12.93 14.16 12.93 14.17C12.93 14.17 12.93 14.17 12.93 14.18H12.92C12.92 14.18 12.9 14.18 12.9 14.17C12.9 14.17 12.9 14.17 12.9 14.16C12.9 14.16 12.9 14.16 12.9 14.15V14.14ZM13.07 14.15C13.07 14.15 13.09 14.15 13.09 14.16C13.09 14.16 13.09 14.18 13.08 14.18H13.07C13.07 14.18 13.07 14.18 13.06 14.18C13.06 14.18 13.06 14.18 13.06 14.17C13.06 14.17 13.06 14.15 13.08 14.15H13.07ZM12.83 14.16C12.83 14.16 12.83 14.16 12.83 14.18C12.83 14.18 12.83 14.19 12.83 14.2C12.83 14.2 12.83 14.2 12.82 14.2C12.8 14.2 12.8 14.2 12.8 14.18C12.8 14.17 12.8 14.17 12.8 14.16C12.8 14.16 12.8 14.16 12.81 14.16H12.83ZM12.69 14.19C12.69 14.19 12.7 14.19 12.7 14.2C12.7 14.2 12.7 14.21 12.7 14.22H12.68C12.68 14.22 12.68 14.22 12.69 14.22V14.19ZM12.93 14.23C12.93 14.23 12.93 14.23 12.94 14.23C12.94 14.23 12.94 14.24 12.94 14.25C12.94 14.25 12.92 14.25 12.91 14.25C12.91 14.25 12.92 14.25 12.93 14.25V14.23ZM12.48 14.35C12.48 14.35 12.49 14.34 12.5 14.34C12.51 14.34 12.53 14.32 12.54 14.31C12.54 14.31 12.55 14.3 12.55 14.29C12.55 14.28 12.55 14.26 12.55 14.25C12.55 14.24 12.54 14.23 12.53 14.22C12.53 14.22 12.51 14.22 12.51 14.2V14.18C12.51 14.17 12.52 14.16 12.53 14.15H12.55C12.55 14.15 12.55 14.17 12.56 14.17C12.56 14.17 12.58 14.19 12.58 14.2C12.58 14.2 12.59 14.22 12.58 14.23C12.58 14.24 12.58 14.25 12.58 14.26C12.58 14.27 12.58 14.29 12.58 14.3C12.58 14.3 12.57 14.31 12.56 14.32C12.56 14.32 12.54 14.34 12.53 14.34C12.53 14.34 12.52 14.35 12.51 14.34C12.5 14.34 12.48 14.34 12.47 14.34L12.48 14.35ZM12.29 14.37C12.29 14.37 12.29 14.37 12.29 14.35C12.29 14.35 12.29 14.35 12.29 14.33C12.3 14.32 12.31 14.32 12.33 14.33C12.35 14.33 12.36 14.34 12.36 14.33C12.36 14.33 12.37 14.32 12.38 14.32C12.38 14.32 12.39 14.32 12.4 14.32C12.4 14.32 12.4 14.32 12.4 14.34C12.4 14.35 12.4 14.35 12.4 14.36C12.4 14.36 12.4 14.36 12.38 14.36C12.37 14.36 12.36 14.36 12.36 14.34C12.36 14.34 12.35 14.34 12.34 14.35C12.34 14.35 12.34 14.35 12.33 14.35C12.33 14.35 12.32 14.35 12.31 14.35L12.29 14.37ZM11.76 14.13C11.76 14.13 11.72 14.15 11.72 14.16C11.72 14.18 11.74 14.2 11.73 14.22C11.73 14.25 11.71 14.26 11.69 14.24C11.68 14.21 11.67 14.19 11.66 14.16C11.64 14.16 11.63 14.19 11.61 14.2C11.61 14.22 11.64 14.24 11.64 14.26C11.64 14.28 11.64 14.31 11.61 14.32C11.59 14.34 11.57 14.33 11.54 14.33C11.51 14.35 11.56 14.35 11.57 14.35C11.6 14.35 11.63 14.35 11.65 14.33C11.67 14.33 11.67 14.28 11.69 14.28C11.73 14.28 11.77 14.28 11.82 14.28C11.84 14.28 11.88 14.28 11.89 14.29C11.89 14.32 11.92 14.34 11.94 14.35C11.95 14.35 11.97 14.34 11.98 14.33C12.01 14.33 12 14.29 12.01 14.28C12.05 14.28 12.1 14.28 12.14 14.28C12.14 14.28 12.15 14.27 12.16 14.26C12.16 14.24 12.16 14.23 12.16 14.21C12.16 14.19 12.16 14.16 12.15 14.14C12.13 14.14 12.11 14.15 12.09 14.16C12.07 14.17 12.04 14.19 12.04 14.22C12.03 14.24 12 14.22 12.01 14.2C12.01 14.2 12.01 14.18 12.01 14.17C12 14.15 11.97 14.16 11.95 14.16C11.92 14.16 11.9 14.16 11.87 14.16C11.85 14.16 11.82 14.16 11.8 14.16C11.77 14.16 11.78 14.13 11.77 14.11C11.77 14.11 11.76 14.11 11.75 14.11L11.76 14.13ZM11.82 14.23C11.82 14.23 11.84 14.23 11.85 14.23C11.86 14.23 11.87 14.23 11.88 14.23C11.91 14.23 11.93 14.23 11.96 14.23C11.96 14.23 11.97 14.23 11.98 14.23V14.28V14.3C11.98 14.3 11.97 14.3 11.96 14.29C11.96 14.29 11.96 14.27 11.96 14.26C11.96 14.26 11.95 14.26 11.94 14.26C11.92 14.26 11.9 14.26 11.87 14.26C11.85 14.26 11.83 14.26 11.81 14.26H11.79V14.24C11.79 14.24 11.81 14.24 11.82 14.24V14.23ZM12.12 14.23V14.25C12.11 14.25 12.09 14.25 12.09 14.25V14.24L12.11 14.23H12.12Z" fill="#C09300"/>
<path d="M12.33 10.75L12.31 10.65C12.36 10.7 12.53 10.71 12.53 10.71C12.42 10.66 12.32 10.31 12.33 10.02C12.34 9.74 12.29 9.62 12.25 9.58C12.2 9.53 12.03 9.48 11.91 9.47C11.85 9.47 11.86 9.52 11.86 9.52C11.74 9.49 11.62 9.48 11.57 9.52C11.52 9.55 11.51 9.72 11.55 9.69C11.64 9.62 11.72 9.69 11.77 9.76C11.82 9.83 11.81 10.02 11.75 10.25C11.68 10.49 11.48 10.72 11.48 10.72C11.59 10.72 11.73 10.63 11.73 10.63L11.69 10.78C11.8 10.73 11.89 10.64 11.89 10.64L12 10.75L12.11 10.64C12.11 10.64 12.2 10.73 12.33 10.75Z" fill="white"/>
<path d="M11.67 10.81L11.7 10.67C11.65 10.7 11.55 10.75 11.47 10.75H11.44L11.46 10.72C11.46 10.72 11.65 10.48 11.72 10.25C11.79 10.02 11.79 9.84 11.75 9.78C11.71 9.72 11.67 9.69 11.63 9.69C11.6 9.69 11.58 9.69 11.55 9.72C11.54 9.72 11.53 9.72 11.52 9.72C11.51 9.72 11.5 9.7 11.5 9.68C11.5 9.64 11.51 9.55 11.55 9.52C11.61 9.48 11.75 9.5 11.83 9.52C11.83 9.52 11.83 9.5 11.84 9.5C11.85 9.49 11.87 9.48 11.9 9.48C12.02 9.48 12.19 9.54 12.25 9.59C12.3 9.64 12.35 9.75 12.34 10.04C12.33 10.33 12.44 10.67 12.53 10.71V10.74C12.53 10.74 12.4 10.74 12.33 10.7C12.35 10.75 12.34 10.76 12.33 10.76C12.33 10.76 12.32 10.76 12.31 10.76C12.2 10.75 12.12 10.69 12.09 10.66C12.07 10.68 12.02 10.72 12 10.76V10.78L11.88 10.67C11.85 10.69 11.78 10.76 11.69 10.8H11.66L11.67 10.81ZM11.75 10.6L11.71 10.75C11.8 10.7 11.87 10.63 11.88 10.63H11.89L11.99 10.73C12.03 10.68 12.08 10.63 12.09 10.63H12.1H12.11C12.11 10.63 12.19 10.71 12.31 10.73C12.31 10.71 12.3 10.68 12.28 10.66L12.31 10.64C12.31 10.64 12.41 10.68 12.47 10.69C12.37 10.58 12.29 10.28 12.31 10.03C12.32 9.74 12.27 9.64 12.23 9.6C12.18 9.55 12.01 9.5 11.9 9.5C11.89 9.5 11.87 9.5 11.87 9.5V9.52V9.55H11.85C11.72 9.52 11.62 9.51 11.57 9.55C11.56 9.55 11.54 9.59 11.54 9.62C11.54 9.65 11.54 9.67 11.54 9.69C11.57 9.67 11.61 9.66 11.64 9.66C11.69 9.66 11.73 9.7 11.78 9.77C11.83 9.85 11.82 10.05 11.76 10.27C11.7 10.46 11.57 10.65 11.51 10.72C11.61 10.7 11.72 10.63 11.72 10.63L11.75 10.61V10.6Z" fill="#C09300"/>
<path d="M12.29 10.66C12.19 10.51 12.16 10.11 12.16 10.1H12.19C12.19 10.1 12.21 10.5 12.31 10.64L12.28 10.66H12.29ZM11.91 10.65L11.88 10.63C11.95 10.49 11.98 10.06 11.98 10.05H12.01C12.01 10.05 11.99 10.5 11.91 10.64V10.65ZM12.09 10.65C12.06 10.57 12.06 10.1 12.06 10.08H12.09C12.09 10.21 12.09 10.58 12.12 10.64H12.09V10.65ZM11.74 10.64L11.71 10.62C11.82 10.5 11.88 10.07 11.88 10.07H11.91C11.91 10.07 11.85 10.52 11.73 10.65L11.74 10.64Z" fill="#C09300"/>
<path d="M11.79 9.86C11.79 9.86 11.78 9.79 11.76 9.77C11.71 9.69 11.63 9.63 11.54 9.7C11.54 9.7 11.57 9.61 11.64 9.6C11.69 9.6 11.8 9.64 11.9 9.81C11.9 9.81 11.83 9.79 11.81 9.81C11.78 9.84 11.79 9.86 11.79 9.86ZM11.53 9.58C11.53 9.58 11.55 9.53 11.56 9.52C11.61 9.48 11.73 9.5 11.85 9.52C11.85 9.52 11.84 9.47 11.9 9.47C12.01 9.47 12.18 9.52 12.24 9.58C12.25 9.59 12.27 9.61 12.28 9.64C12.28 9.64 12.18 9.61 12.16 9.61C12.13 9.61 12.11 9.61 12.08 9.62C12.06 9.62 12.04 9.62 12.02 9.64C12.01 9.64 12 9.68 11.98 9.68C11.95 9.68 11.95 9.68 11.95 9.66C11.95 9.65 11.94 9.63 11.93 9.63C11.9 9.63 11.85 9.61 11.79 9.57C11.73 9.53 11.71 9.51 11.63 9.52C11.55 9.52 11.53 9.57 11.53 9.57V9.58Z" fill="#C09300"/>
<path d="M11.78 9.86C11.78 9.86 11.78 9.86 11.78 9.84C11.78 9.81 11.77 9.79 11.76 9.77C11.72 9.71 11.68 9.68 11.64 9.67C11.61 9.67 11.58 9.67 11.55 9.7H11.54C11.54 9.7 11.57 9.6 11.64 9.6C11.69 9.6 11.81 9.64 11.91 9.81H11.9C11.87 9.81 11.82 9.8 11.81 9.81C11.8 9.82 11.79 9.83 11.79 9.84C11.79 9.84 11.79 9.84 11.79 9.85L11.78 9.86ZM11.62 9.66C11.62 9.66 11.63 9.66 11.64 9.66C11.68 9.66 11.73 9.7 11.77 9.76C11.77 9.77 11.79 9.79 11.79 9.82C11.79 9.82 11.79 9.81 11.81 9.8C11.83 9.79 11.87 9.8 11.9 9.8C11.78 9.6 11.65 9.6 11.65 9.6C11.6 9.6 11.58 9.65 11.56 9.68C11.58 9.67 11.6 9.66 11.63 9.66H11.62ZM11.98 9.7C11.98 9.7 11.95 9.7 11.95 9.69C11.95 9.69 11.95 9.69 11.95 9.68C11.95 9.68 11.95 9.67 11.94 9.67C11.91 9.67 11.86 9.65 11.8 9.6C11.74 9.55 11.72 9.54 11.64 9.55C11.57 9.55 11.54 9.6 11.54 9.6C11.54 9.58 11.56 9.55 11.58 9.54C11.64 9.5 11.78 9.52 11.87 9.54C11.87 9.54 11.87 9.52 11.87 9.51C11.87 9.5 11.9 9.49 11.92 9.49C12.04 9.49 12.21 9.54 12.26 9.6C12.28 9.62 12.29 9.64 12.3 9.67H12.29C12.29 9.67 12.2 9.64 12.18 9.64C12.18 9.64 12.17 9.64 12.16 9.64C12.14 9.64 12.13 9.64 12.1 9.64C12.1 9.64 12.06 9.65 12.05 9.66C12.05 9.66 12.05 9.66 12.04 9.68C12.04 9.69 12.02 9.71 12.01 9.71L11.98 9.7ZM11.93 9.65C11.93 9.65 11.94 9.65 11.95 9.67C11.95 9.67 11.95 9.67 11.95 9.68C11.95 9.68 11.95 9.68 11.98 9.68C11.98 9.68 12 9.67 12 9.66C12 9.66 12 9.65 12.01 9.64C12.02 9.63 12.05 9.62 12.07 9.62C12.07 9.62 12.11 9.62 12.13 9.61C12.13 9.61 12.14 9.61 12.15 9.61C12.15 9.61 12.22 9.61 12.26 9.63C12.26 9.61 12.24 9.6 12.23 9.59C12.18 9.54 12.01 9.49 11.9 9.48C11.88 9.48 11.87 9.48 11.86 9.49C11.85 9.5 11.86 9.52 11.86 9.52C11.72 9.49 11.62 9.48 11.57 9.52C11.57 9.52 11.55 9.54 11.54 9.56C11.56 9.55 11.58 9.53 11.63 9.53C11.71 9.53 11.73 9.53 11.79 9.58C11.85 9.63 11.89 9.65 11.92 9.64L11.93 9.65Z" fill="#C09300"/>
<path d="M11.97 9.65C11.9866 9.65 12 9.63657 12 9.62C12 9.60343 11.9866 9.59 11.97 9.59C11.9534 9.59 11.94 9.60343 11.94 9.62C11.94 9.63657 11.9534 9.65 11.97 9.65Z" fill="white"/>
<path d="M12 12.73C12.87 12.06 12.8 11.08 12.8 11.08C12.78 11.08 12.76 11.08 12.73 11.08C12.55 11.08 12.11 10.98 12.01 10.84C11.9 10.96 11.46 11.08 11.27 11.08C11.25 11.08 11.22 11.08 11.2 11.08C11.2 11.08 11.12 12.06 11.99 12.73H12Z" fill="white"/>
<path d="M12 12.75C11.13 12.08 11.2 11.09 11.2 11.08V11.06H11.22C11.24 11.06 11.26 11.06 11.28 11.06C11.46 11.06 11.9 10.94 12 10.83H12.01H12.02C12.12 10.96 12.55 11.06 12.73 11.06C12.75 11.06 12.77 11.06 12.79 11.06H12.81V11.07C12.81 11.07 12.88 12.07 12.01 12.73L12 12.75ZM11.22 11.09C11.22 11.22 11.22 12.09 12 12.7C12.78 12.09 12.79 11.22 12.78 11.09C12.76 11.09 12.74 11.09 12.73 11.09C12.55 11.09 12.13 10.99 12.01 10.86C11.88 10.98 11.44 11.09 11.28 11.09C11.26 11.09 11.24 11.09 11.23 11.09H11.22Z" fill="#C09300"/>
<path d="M12 12.65C11.68 12.39 11.45 12.04 11.34 11.65C11.3 11.52 11.28 11.39 11.27 11.26C11.27 11.23 11.27 11.19 11.27 11.15L11.28 11.14C11.28 11.14 11.29 11.14 11.3 11.14C11.46 11.14 11.85 11.04 12 10.93C12.15 11.06 12.54 11.14 12.69 11.14H12.72V11.15C12.72 11.18 12.72 11.23 12.72 11.26C12.72 11.39 12.69 11.52 12.65 11.65C12.54 12.05 12.31 12.39 11.99 12.65H12ZM11.29 11.16C11.29 11.16 11.29 11.23 11.29 11.26C11.29 11.39 11.32 11.52 11.36 11.65C11.47 12.04 11.68 12.37 12 12.63C12.32 12.37 12.54 12.04 12.64 11.65C12.68 11.52 12.7 11.39 12.71 11.26C12.71 11.24 12.71 11.2 12.71 11.17C12.55 11.17 12.17 11.09 12.01 10.96C11.85 11.08 11.47 11.17 11.3 11.17C11.3 11.17 11.3 11.17 11.29 11.17V11.16Z" fill="#C09300"/>
<mask id="mask0_170_1807" style="mask-type:luminance" maskUnits="userSpaceOnUse" x="11" y="10" width="2" height="3">
<path d="M12.72 11.15H12.7C12.54 11.15 12.16 11.07 12.01 10.94C11.86 11.06 11.47 11.15 11.31 11.15H11.29V11.26C11.3 11.39 11.32 11.52 11.36 11.64C11.47 12.03 11.69 12.37 12.01 12.62C12.33 12.37 12.55 12.03 12.66 11.64C12.69 11.51 12.72 11.39 12.73 11.26C12.73 11.22 12.73 11.19 12.73 11.15H12.72Z" fill="white"/>
</mask>
<g mask="url(#mask0_170_1807)">
<path fill-rule="evenodd" clip-rule="evenodd" d="M11.27 10.93H11.76V12.64H11.27V10.93Z" fill="#C09300"/>
<path fill-rule="evenodd" clip-rule="evenodd" d="M11.76 10.93H12.25V12.64H11.76V10.93Z" fill="white"/>
<path fill-rule="evenodd" clip-rule="evenodd" d="M12.24 10.93H12.73V12.64H12.24V10.93Z" fill="#C09300"/>
</g>
</svg>
