<svg width="24" height="24" viewBox="0 0 24 24" fill="none" xmlns="http://www.w3.org/2000/svg">
<path d="M0 4H24V20H0V4Z" fill="#DA121A"/>
<path d="M0 4H24V14.67H0V4Z" fill="#FCDD09"/>
<path d="M0 4H24V9.33H0V4Z" fill="#078930"/>
<path d="M12 16.7C14.5957 16.7 16.7 14.5957 16.7 12C16.7 9.40426 14.5957 7.3 12 7.3C9.40425 7.3 7.29999 9.40426 7.29999 12C7.29999 14.5957 9.40425 16.7 12 16.7Z" fill="#0F47AF"/>
<path d="M12 8.24L11.84 8.75L12.52 10.84H11.61L11.51 11.15H14.41L14.84 10.84H12.84L12 8.24Z" fill="#FCDD09"/>
<path d="M13.01 10.61L14.21 8.96L13.01 10.61Z" fill="black"/>
<path d="M14.1502 8.91264L12.9509 10.5628L13.0803 10.6569L14.2797 9.00671L14.1502 8.91264Z" fill="#FCDD09"/>
<path d="M15.57 10.84H15.04L13.26 12.13L12.98 11.27H12.65L13.55 14.03L13.98 14.34L13.36 12.44L15.57 10.84Z" fill="#FCDD09"/>
<path d="M13.64 12.53L15.58 13.16L13.64 12.53Z" fill="black"/>
<path d="M13.6662 12.4486L13.6168 12.6007L15.5569 13.2311L15.6064 13.079L13.6662 12.4486Z" fill="#FCDD09"/>
<path d="M14.21 15.04L14.05 14.53L12.27 13.24L13 12.71L12.9 12.4L10.55 14.11L10.39 14.62L12.01 13.45L14.22 15.05L14.21 15.04Z" fill="#FCDD09"/>
<path d="M12.08 13.72H11.92V15.76H12.08V13.72Z" fill="#FCDD09"/>
<path d="M9.78999 15.04L10.22 14.73L10.9 12.64L11.63 13.17L11.9 12.98L9.54999 11.27H9.01999L10.64 12.44L9.79999 15.04H9.78999Z" fill="#FCDD09"/>
<path d="M10.36 12.53L8.41998 13.16L10.36 12.53Z" fill="black"/>
<path d="M10.3501 12.4608L8.40991 13.0912L8.45935 13.2434L10.3995 12.613L10.3501 12.4608Z" fill="#FCDD09"/>
<path d="M8.42999 10.84L8.85999 11.15H11.06L10.78 12.01L11.05 12.2L11.95 9.44L11.79 8.93L11.17 10.83H8.43999L8.42999 10.84Z" fill="#FCDD09"/>
<path d="M10.99 10.61L9.79001 8.96L10.99 10.61Z" fill="black"/>
<path d="M9.85414 8.9149L9.7247 9.00894L10.9238 10.6593L11.0532 10.5653L9.85414 8.9149Z" fill="#FCDD09"/>
</svg>
