<svg width="24" height="24" viewBox="0 0 24 24" fill="none" xmlns="http://www.w3.org/2000/svg">
<path d="M0 4H24V20H0V4Z" fill="white"/>
<path d="M10.4 4H13.6V20H10.4V4ZM0 10.4H24V13.6H0V10.4Z" fill="#FF0000"/>
<path d="M4.64001 5.56C5.01001 5.61 5.39001 5.61 5.77001 5.56C5.55001 6.64 5.55001 7.75 5.77001 8.83C5.40001 8.78 5.02001 8.78 4.64001 8.83C4.86001 7.75 4.86001 6.64 4.64001 5.56Z" fill="#FF0000"/>
<path d="M6.84001 6.64C6.79001 7.01 6.79001 7.39 6.84001 7.77C5.76001 7.55 4.65001 7.55 3.57001 7.77C3.62001 7.4 3.62001 7.02 3.57001 6.64C4.65001 6.86 5.76001 6.86 6.84001 6.64Z" fill="#FF0000"/>
<path d="M18.24 5.56C18.61 5.61 18.99 5.61 19.37 5.56C19.15 6.64 19.15 7.75 19.37 8.83C19 8.78 18.62 8.78 18.24 8.83C18.46 7.75 18.46 6.64 18.24 5.56Z" fill="#FF0000"/>
<path d="M20.44 6.64C20.39 7.01 20.39 7.39 20.44 7.77C19.36 7.55 18.25 7.55 17.17 7.77C17.22 7.4 17.22 7.02 17.17 6.64C18.25 6.86 19.36 6.86 20.44 6.64Z" fill="#FF0000"/>
<path d="M4.64001 15.16C5.01001 15.21 5.39001 15.21 5.77001 15.16C5.55001 16.24 5.55001 17.35 5.77001 18.43C5.40001 18.38 5.02001 18.38 4.64001 18.43C4.86001 17.35 4.86001 16.24 4.64001 15.16Z" fill="#FF0000"/>
<path d="M6.84001 16.24C6.79001 16.61 6.79001 16.99 6.84001 17.37C5.76001 17.15 4.65001 17.15 3.57001 17.37C3.62001 17 3.62001 16.62 3.57001 16.24C4.65001 16.46 5.76001 16.46 6.84001 16.24Z" fill="#FF0000"/>
<path d="M18.24 15.16C18.61 15.21 18.99 15.21 19.37 15.16C19.15 16.24 19.15 17.35 19.37 18.43C19 18.38 18.62 18.38 18.24 18.43C18.46 17.35 18.46 16.24 18.24 15.16Z" fill="#FF0000"/>
<path d="M20.44 16.24C20.39 16.61 20.39 16.99 20.44 17.37C19.36 17.15 18.25 17.15 17.17 17.37C17.22 17 17.22 16.62 17.17 16.24C18.25 16.46 19.36 16.46 20.44 16.24Z" fill="#FF0000"/>
</svg>
