<svg width="24" height="24" viewBox="0 0 24 24" fill="none" xmlns="http://www.w3.org/2000/svg">
<path d="M24 4H0V20H24V4Z" fill="#DA000C"/>
<path d="M24 4H0V14.72H24V4Z" fill="white"/>
<path d="M12.28 11.15H8.39V13.82H12.28V11.15Z" fill="black"/>
<path d="M10.41 13.43H8.03999L7.50999 13.78V14.15H10.41" fill="#DA000C"/>
<path d="M10.44 14.17H7.48V13.76L8.03 13.4H10.44V13.46H8.05L7.54 13.79V14.11H10.44V14.17Z" fill="black"/>
<path d="M9.41999 11.89C9.75999 11.89 10.04 12.17 10.04 12.53V13.43H10.49V10.03H8.03999V13.43H8.79999V12.53C8.79999 12.19 9.06999 11.89 9.41999 11.89Z" fill="#DA000C"/>
<path d="M10.51 13.46H10V12.53C10 12.2 9.74 11.92 9.41 11.92C9.08 11.92 8.82 12.2 8.82 12.53V13.46H8V10H10.51V13.46ZM10.07 13.4H10.46V10.06H8.07V13.4H8.77V12.53C8.77 12.17 9.07 11.86 9.42 11.86C9.77 11.86 10.07 12.16 10.07 12.53V13.4Z" fill="black"/>
<path d="M10 7.73H8.87V9.79H10V7.73Z" fill="black"/>
<path d="M9.99999 9.47H9.01999V9.12H8.29999V9.47H7.80999V9.12H7.51999V9.75H10.01M7.79999 9.75H9.91999V10.03H7.79999V9.75Z" fill="#DA000C"/>
<path d="M9.95 10.06H7.77V9.79H7.48V9.1H7.83V9.45H8.26V9.1H9.04V9.45H10.02V9.51H8.97V9.16H8.31V9.51H7.76V9.16H7.53V9.73H7.76H9.94H10.01V9.79H9.94V10.06H9.95ZM7.83 10H9.89V9.79H7.83V10Z" fill="black"/>
<path d="M8.63999 6.98V9.12H9.00999V8.53C9.00999 8.31 9.16999 8.13 9.37999 8.12C9.37999 8.12 9.38999 8.12 9.39999 8.12C9.62999 8.12 9.80999 8.3 9.80999 8.53V9.12H10.16V6.98H8.62999H8.63999Z" fill="#DA000C"/>
<path d="M10.2 9.15H9.78999V8.53C9.78999 8.32 9.61999 8.15 9.40999 8.15C9.40999 8.15 9.40999 8.15 9.39999 8.15C9.19999 8.15 9.05999 8.32 9.05999 8.53V9.15H8.62999V6.95H10.22V9.15H10.2ZM9.84999 9.09H10.14V7.01H8.66999V9.09H8.97999V8.53C8.97999 8.29 9.14999 8.1 9.37999 8.09C9.37999 8.09 9.38999 8.09 9.39999 8.09C9.63999 8.09 9.83999 8.29 9.83999 8.53V9.09H9.84999Z" fill="black"/>
<path d="M8.50999 6.69V6.98H10.29V6.69H8.50999Z" fill="#DA000C"/>
<path d="M10.32 7.01H8.48V6.66H10.32V7.01ZM8.54 6.95H10.26V6.72H8.54V6.95Z" fill="black"/>
<path d="M8.28 6.13V6.69H10.41V6.13H10.08V6.41H9.68V6.13H9.07V6.41H8.67V6.13H8.27H8.28Z" fill="#DA000C"/>
<path d="M10.44 6.72H8.25V6.1H8.72V6.38H9.06V6.1H9.73V6.38H10.07V6.1H10.46V6.72H10.44ZM8.31 6.66H10.38V6.16H10.11V6.44H9.65V6.16H9.11V6.44H8.65V6.16H8.31V6.66Z" fill="black"/>
<path d="M10.45 13.75H7.48V13.81H10.45V13.75Z" fill="black"/>
<path d="M12.3 13.61H10.33L9.73999 13.9V14.33H12.3" fill="#DA000C"/>
<path d="M12.33 14.35H9.70999V13.88L10.33 13.58H12.33V13.64H10.34L9.76999 13.91V14.29H12.33V14.35Z" fill="black"/>
<path d="M12.37 13.86H9.73999V13.92H12.37V13.86Z" fill="black"/>
<path d="M15.61 11.15H11.72V13.82H15.61V11.15Z" fill="black"/>
<path d="M13.59 13.43H15.96L16.49 13.78V14.15H13.59" fill="#DA000C"/>
<path d="M16.52 14.17H13.56V14.11H16.46V13.79L15.95 13.46H13.56V13.4H15.97L16.52 13.76V14.17Z" fill="black"/>
<path d="M14.58 11.89C14.24 11.89 13.96 12.17 13.96 12.53V13.43H13.51V10.03H15.96V13.43H15.2V12.53C15.2 12.19 14.93 11.89 14.58 11.89Z" fill="#DA000C"/>
<path d="M15.99 13.46H15.17V12.53C15.17 12.2 14.9 11.92 14.58 11.92C14.26 11.92 13.99 12.19 13.99 12.53V13.46H13.48V10H15.99V13.46ZM15.23 13.4H15.93V10.06H13.54V13.4H13.93V12.53C13.93 12.16 14.22 11.86 14.58 11.86C14.94 11.86 15.23 12.17 15.23 12.53V13.4Z" fill="black"/>
<path d="M15.13 7.73H14V9.79H15.13V7.73Z" fill="black"/>
<path d="M14 9.47H14.98V9.12H15.7V9.47H16.19V9.12H16.48V9.75H13.99M16.2 9.75H14.08V10.03H16.2V9.75Z" fill="#DA000C"/>
<path d="M16.23 10.06H14.05V9.79H13.98V9.73H14.05H16.23H16.46V9.16H16.23V9.51H15.68V9.16H15.02V9.51H13.97V9.45H14.95V9.1H15.73V9.45H16.16V9.1H16.51V9.79H16.22V10.06H16.23ZM14.11 10H16.17V9.79H14.11V10Z" fill="black"/>
<path d="M15.36 6.98V9.12H14.99V8.53C14.99 8.31 14.83 8.13 14.62 8.12C14.62 8.12 14.61 8.12 14.6 8.12C14.37 8.12 14.19 8.3 14.19 8.53V9.12H13.84V6.98H15.37H15.36Z" fill="#DA000C"/>
<path d="M15.39 9.15H14.96V8.53C14.96 8.32 14.81 8.16 14.62 8.15C14.62 8.15 14.62 8.15 14.61 8.15C14.4 8.15 14.23 8.32 14.23 8.53V9.15H13.82V6.95H15.41V9.15H15.39ZM15.02 9.09H15.33V7.01H13.86V9.09H14.15V8.53C14.15 8.29 14.35 8.09 14.59 8.09C14.59 8.09 14.6 8.09 14.61 8.09C14.84 8.1 15.01 8.29 15.01 8.53V9.09H15.02Z" fill="black"/>
<path d="M15.49 6.69V6.98H13.71V6.69H15.49Z" fill="#DA000C"/>
<path d="M15.52 7.01H13.68V6.66H15.52V7.01ZM13.74 6.95H15.46V6.72H13.74V6.95Z" fill="black"/>
<path d="M15.72 6.13V6.69H13.59V6.13H13.92V6.41H14.32V6.13H14.93V6.41H15.33V6.13H15.73H15.72Z" fill="#DA000C"/>
<path d="M15.75 6.72H13.56V6.1H13.95V6.38H14.29V6.1H14.96V6.38H15.3V6.1H15.77V6.72H15.75ZM13.62 6.66H15.69V6.16H15.35V6.44H14.89V6.16H14.35V6.44H13.89V6.16H13.62V6.66Z" fill="black"/>
<path d="M16.52 13.75H13.55V13.81H16.52V13.75Z" fill="black"/>
<path d="M11.7 13.61H13.67L14.26 13.9V14.33H11.7" fill="#DA000C"/>
<path d="M14.29 14.35H11.67V14.29H14.23V13.91L13.66 13.64H11.67V13.58H13.67L14.29 13.88V14.35Z" fill="black"/>
<path d="M14.27 13.86H11.64V13.92H14.27V13.86Z" fill="black"/>
<path d="M13.05 13.2C12.89 13.25 12.74 13.34 12.6 13.43C12.41 13.54 12.23 13.66 12.06 13.8C12 13.84 11.94 13.88 11.9 13.94C11.84 13.99 11.77 14.06 11.79 14.15C11.79 14.19 11.84 14.1 11.88 14.1C11.94 14.07 12.01 14.06 12.07 14.07C12.15 13.99 12.25 13.93 12.33 13.86C12.51 13.72 12.71 13.61 12.91 13.5C12.98 13.46 13.05 13.43 13.12 13.4L13.06 13.2H13.05Z" fill="#F8D80E"/>
<path d="M11.79 14.18C11.79 14.18 11.79 14.18 11.78 14.18C11.78 14.18 11.76 14.18 11.76 14.15C11.75 14.05 11.82 13.97 11.88 13.92C11.93 13.86 11.99 13.81 12.05 13.78C12.2 13.65 12.38 13.53 12.59 13.41L12.65 13.38C12.78 13.31 12.91 13.23 13.05 13.18H13.07L13.14 13.42H13.12C13.05 13.45 12.98 13.49 12.92 13.52C12.69 13.65 12.5 13.77 12.34 13.88C12.31 13.91 12.27 13.93 12.24 13.96C12.19 14 12.13 14.04 12.08 14.09H12.07C12.01 14.08 11.95 14.09 11.9 14.12C11.9 14.12 11.87 14.14 11.86 14.15C11.84 14.17 11.83 14.18 11.81 14.18H11.79ZM13.04 13.23C12.91 13.28 12.79 13.35 12.67 13.42L12.61 13.45C12.4 13.57 12.23 13.69 12.07 13.82C12.02 13.86 11.96 13.9 11.91 13.95C11.84 14.01 11.81 14.06 11.8 14.12C11.82 14.1 11.84 14.08 11.86 14.08C11.92 14.05 11.99 14.04 12.05 14.05C12.1 14 12.15 13.96 12.2 13.93C12.23 13.91 12.27 13.88 12.3 13.85C12.46 13.73 12.64 13.61 12.88 13.49C12.94 13.46 13 13.42 13.07 13.4L13.02 13.24L13.04 13.23Z" fill="black"/>
<path d="M12.27 13.91C12.27 13.91 12.24 13.9 12.24 13.88V13.64C12.24 13.64 12.25 13.61 12.27 13.61C12.29 13.61 12.3 13.62 12.3 13.64V13.88C12.3 13.88 12.29 13.91 12.27 13.91Z" fill="black"/>
<path d="M12.41 13.81C12.41 13.81 12.38 13.8 12.38 13.78V13.54C12.38 13.54 12.39 13.51 12.41 13.51C12.43 13.51 12.44 13.52 12.44 13.54V13.78C12.44 13.78 12.43 13.81 12.41 13.81Z" fill="black"/>
<path d="M12.56 13.71C12.56 13.71 12.53 13.7 12.53 13.68V13.45C12.53 13.45 12.54 13.42 12.56 13.42C12.58 13.42 12.59 13.43 12.59 13.45V13.68C12.59 13.68 12.58 13.71 12.56 13.71Z" fill="black"/>
<path d="M12.71 13.63C12.71 13.63 12.68 13.62 12.68 13.6V13.36C12.68 13.36 12.69 13.33 12.71 13.33C12.73 13.33 12.74 13.34 12.74 13.36V13.6C12.74 13.6 12.73 13.63 12.71 13.63Z" fill="black"/>
<path d="M10.96 13.2C10.94 13.27 10.91 13.33 10.89 13.4C11.23 13.53 11.55 13.7 11.85 13.89C11.95 13.96 12.06 14.03 12.14 14.12C12.16 14.17 12.11 14.21 12.06 14.2C12.02 14.18 11.97 14.17 11.92 14.2C11.85 14.23 11.79 14.33 11.89 14.36C12.03 14.45 12.26 14.41 12.33 14.25C12.37 14.16 12.37 14.06 12.3 13.99C12.17 13.85 12.01 13.75 11.85 13.65C11.57 13.48 11.27 13.32 10.96 13.21V13.2Z" fill="#F8D80E"/>
<path d="M12.07 14.44C12 14.44 11.94 14.42 11.89 14.39C11.83 14.37 11.82 14.33 11.82 14.31C11.82 14.26 11.86 14.2 11.91 14.18C11.96 14.14 12.01 14.16 12.06 14.18C12.06 14.18 12.09 14.18 12.1 14.18C12.1 14.18 12.11 14.16 12.1 14.15C12.03 14.07 11.94 14.01 11.85 13.95L11.82 13.93C11.5 13.73 11.18 13.56 10.87 13.44H10.85L10.94 13.19H10.96C11.24 13.3 11.53 13.45 11.86 13.64L11.9 13.66C12.05 13.75 12.2 13.85 12.32 13.99C12.4 14.07 12.39 14.2 12.35 14.28C12.32 14.36 12.25 14.41 12.17 14.44C12.14 14.45 12.1 14.46 12.07 14.46V14.44ZM11.98 14.21C11.98 14.21 11.95 14.21 11.94 14.22C11.94 14.22 11.87 14.28 11.87 14.31C11.87 14.33 11.88 14.34 11.91 14.35C11.98 14.4 12.07 14.41 12.16 14.39C12.23 14.37 12.29 14.32 12.31 14.26C12.34 14.19 12.35 14.09 12.28 14.02C12.17 13.89 12.01 13.79 11.87 13.7L11.84 13.68C11.53 13.49 11.24 13.35 10.97 13.25L10.91 13.41C11.22 13.53 11.54 13.69 11.85 13.89L11.88 13.91C11.97 13.97 12.07 14.04 12.14 14.13C12.14 14.13 12.14 14.2 12.12 14.22C12.1 14.24 12.06 14.25 12.03 14.24C12.03 14.24 11.98 14.22 11.97 14.22L11.98 14.21Z" fill="black"/>
<path d="M11.88 13.68L11.86 13.88L11.88 13.68Z" fill="#F8D80E"/>
<path d="M11.86 13.92C11.84 13.92 11.83 13.9 11.83 13.89L11.85 13.69C11.85 13.69 11.87 13.66 11.88 13.66C11.9 13.66 11.91 13.68 11.91 13.69L11.89 13.89C11.89 13.89 11.88 13.92 11.86 13.92Z" fill="black"/>
<path d="M12.05 13.79L12 13.99L12.05 13.79Z" fill="#F8D80E"/>
<path d="M12 14.02C11.98 14.02 11.97 14 11.98 13.98L12.03 13.78C12.03 13.78 12.05 13.75 12.07 13.76C12.09 13.76 12.1 13.78 12.09 13.8L12.04 14C12.04 14 12.02 14.02 12.01 14.02H12Z" fill="black"/>
<path d="M12.23 13.92L12.12 14.07L12.23 13.92Z" fill="#F8D80E"/>
<path d="M12.12 14.11C12.12 14.11 12.11 14.11 12.1 14.11C12.09 14.11 12.08 14.08 12.1 14.07L12.21 13.92C12.21 13.92 12.24 13.9 12.25 13.92C12.26 13.92 12.27 13.95 12.25 13.96L12.14 14.11L12.12 14.12V14.11Z" fill="black"/>
<path d="M12.29 14.3L12.13 14.21L12.29 14.3Z" fill="#F8D80E"/>
<path d="M12.29 14.33C12.29 14.33 12.29 14.33 12.28 14.33L12.12 14.24C12.12 14.24 12.1 14.21 12.11 14.2C12.11 14.19 12.14 14.18 12.15 14.19L12.31 14.28C12.31 14.28 12.33 14.31 12.32 14.32C12.32 14.33 12.3 14.34 12.29 14.34V14.33Z" fill="black"/>
<path d="M12.34 14.13L12.16 14.15L12.34 14.13Z" fill="#F8D80E"/>
<path d="M12.15 14.18C12.15 14.18 12.12 14.17 12.12 14.15C12.12 14.13 12.13 14.12 12.15 14.12L12.33 14.1C12.33 14.1 12.36 14.11 12.36 14.13C12.36 14.15 12.35 14.16 12.33 14.16L12.15 14.18Z" fill="black"/>
<path d="M12.1 14.43C12.1 14.43 12.07 14.42 12.07 14.4V14.24C12.07 14.24 12.07 14.21 12.09 14.21C12.11 14.21 12.12 14.22 12.12 14.24V14.4C12.12 14.4 12.12 14.43 12.1 14.43Z" fill="black"/>
<path d="M12.03 14.21L11.88 14.32L12.03 14.21Z" fill="#F8D80E"/>
<path d="M11.88 14.35C11.88 14.35 11.86 14.35 11.86 14.34C11.86 14.33 11.86 14.31 11.86 14.3L12.01 14.19C12.01 14.19 12.04 14.19 12.05 14.19C12.05 14.2 12.05 14.22 12.05 14.23L11.9 14.34C11.9 14.34 11.89 14.34 11.88 14.34V14.35Z" fill="black"/>
<path d="M11.31 13.59C11.31 13.59 11.28 13.58 11.28 13.56V13.37C11.28 13.37 11.29 13.34 11.31 13.34C11.33 13.34 11.34 13.35 11.34 13.37V13.56C11.34 13.56 11.33 13.59 11.31 13.59Z" fill="black"/>
<path d="M11.69 13.82C11.69 13.82 11.66 13.81 11.66 13.79V13.58C11.66 13.58 11.67 13.55 11.69 13.55C11.71 13.55 11.72 13.56 11.72 13.58V13.79C11.72 13.79 11.71 13.82 11.69 13.82Z" fill="black"/>
<path d="M11.5 13.71C11.5 13.71 11.47 13.7 11.47 13.68V13.48C11.47 13.48 11.48 13.45 11.5 13.45C11.52 13.45 11.53 13.46 11.53 13.48V13.68C11.53 13.68 11.52 13.71 11.5 13.71Z" fill="black"/>
<path d="M10.77 17.91V18.4H11.08V18.16H11.5V18.4H11.83V17.91H10.78H10.77ZM10.77 18.58V19.07H11.82V18.58H11.49V18.82H11.07V18.58H10.76H10.77Z" fill="#F8D80E"/>
<path d="M11.85 19.1H10.74V18.55H11.11V18.79H11.46V18.55H11.85V19.1ZM10.8 19.04H11.79V18.61H11.52V18.85H11.04V18.61H10.8V19.04ZM11.85 18.42H11.46V18.18H11.11V18.42H10.74V17.87H11.85V18.42ZM11.52 18.36H11.79V17.93H10.8V18.36H11.04V18.12H11.52V18.36Z" fill="black"/>
<path d="M12.12 15.85H11.82V19.38H12.12V15.85Z" fill="#F8D80E"/>
<path d="M12.15 19.41H11.79V15.82H12.15V19.41ZM11.85 19.35H12.09V15.88H11.85V19.35Z" fill="black"/>
<path d="M12.12 16.15H11.82V19.19H12.12V16.15Z" fill="#F8D80E"/>
<path d="M12.15 19.22H11.79V16.12H12.15V19.22ZM11.85 19.16H12.09V16.18H11.85V19.16Z" fill="black"/>
<path d="M11.97 14.98L12.62 15.36L11.97 15.73L11.32 15.36L11.97 14.98ZM11.11 15.22H10.94V15.49H11.11L11.97 15.99L12.83 15.49H13V15.22H12.83L11.97 14.72L11.11 15.22Z" fill="#F8D80E"/>
<path d="M11.97 16.03L11.1 15.52H10.91V15.19H11.1L11.97 14.68L12.84 15.19H13.03V15.52H12.84L11.97 16.03ZM10.97 15.46H11.12L11.98 15.96L12.84 15.46H12.99V15.25H12.84L11.98 14.75L11.12 15.25H10.97V15.46ZM11.97 15.77L11.26 15.36L11.97 14.95L12.68 15.36L11.97 15.77ZM11.39 15.36L11.97 15.7L12.55 15.36L11.97 15.02L11.39 15.36Z" fill="black"/>
<path d="M11.96 14.06C11.81 14.08 11.7 14.23 11.71 14.37C11.71 14.6 11.71 14.82 11.71 15.05C11.71 15.2 11.85 15.33 11.99 15.33C12.11 15.34 12.23 15.27 12.28 15.16C12.25 15.14 12.21 15.12 12.18 15.1C12.15 15.17 12.08 15.22 12 15.21C11.9 15.21 11.82 15.12 11.83 15.02C11.83 14.79 11.83 14.57 11.83 14.34C11.83 14.25 11.92 14.17 12.02 14.18C12.06 14.17 12.11 14.22 12.13 14.18C12.17 14.13 12.1 14.09 12.07 14.06C12.03 14.06 11.99 14.06 11.96 14.06ZM12.31 14.3C12.31 14.3 12.24 14.37 12.2 14.4V14.86C12.2 14.86 12.28 14.91 12.32 14.93C12.32 14.74 12.32 14.54 12.32 14.35C12.32 14.34 12.32 14.32 12.32 14.31L12.31 14.3Z" fill="#F8D80E"/>
<path d="M12.02 15.37C12.02 15.37 12 15.37 11.99 15.37C11.83 15.37 11.69 15.23 11.68 15.06C11.68 14.92 11.68 14.77 11.68 14.63C11.68 14.54 11.68 14.46 11.68 14.37C11.68 14.21 11.8 14.05 11.96 14.03C11.97 14.03 11.99 14.03 12 14.03C12.02 14.03 12.05 14.03 12.08 14.03L12.1 14.05C12.13 14.08 12.2 14.13 12.15 14.2C12.12 14.25 12.07 14.23 12.05 14.22C12.04 14.22 12.02 14.22 12.02 14.22C11.98 14.22 11.95 14.22 11.92 14.25C11.89 14.27 11.87 14.31 11.87 14.35C11.87 14.49 11.87 14.63 11.87 14.77C11.87 14.86 11.87 14.94 11.87 15.03C11.87 15.07 11.88 15.11 11.91 15.15C11.94 15.18 11.97 15.19 12.01 15.19C12.07 15.19 12.14 15.16 12.16 15.1V15.07L12.33 15.17V15.2C12.27 15.31 12.15 15.39 12.02 15.39V15.37ZM11.96 14.09C11.83 14.11 11.73 14.24 11.74 14.37C11.74 14.46 11.74 14.54 11.74 14.63C11.74 14.77 11.74 14.91 11.74 15.05C11.74 15.18 11.86 15.3 11.99 15.3C12.09 15.3 12.19 15.26 12.24 15.17L12.19 15.14C12.15 15.2 12.07 15.24 12 15.24C11.95 15.24 11.9 15.22 11.86 15.18C11.82 15.14 11.8 15.08 11.8 15.02C11.8 14.94 11.8 14.85 11.8 14.76C11.8 14.62 11.8 14.48 11.8 14.34C11.8 14.29 11.83 14.24 11.87 14.2C11.91 14.17 11.96 14.15 12.01 14.15C12.03 14.15 12.05 14.15 12.07 14.15C12.07 14.15 12.09 14.15 12.1 14.15C12.1 14.15 12.1 14.12 12.06 14.08C12.06 14.08 12.02 14.08 12 14.08C11.99 14.08 11.97 14.08 11.96 14.08V14.09ZM12.35 14.98L12.17 14.87V14.38H12.19C12.19 14.38 12.27 14.32 12.28 14.29L12.3 14.25L12.33 14.29C12.33 14.29 12.34 14.32 12.34 14.33C12.34 14.45 12.34 14.57 12.34 14.69C12.34 14.76 12.34 14.84 12.34 14.91V14.96L12.35 14.98ZM12.23 14.83L12.29 14.86C12.29 14.8 12.29 14.75 12.29 14.69C12.29 14.58 12.29 14.47 12.29 14.37C12.27 14.39 12.25 14.4 12.23 14.41V14.83Z" fill="black"/>
<path d="M12.86 6.41H11.08V9.64H12.86V6.41Z" fill="black"/>
<path d="M10.95 6.42V9.13H11.52V8.33C11.52 8.14 11.64 7.89 12 7.89C12.36 7.89 12.48 8.15 12.48 8.33V9.13H13.05V6.42H10.95ZM11.91 6.72H12.08V7.65H11.91V6.72ZM11.41 6.9H11.59V7.58H11.41V6.9ZM12.41 6.9H12.59V7.58H12.41V6.9Z" fill="#DA000C"/>
<path d="M13.08 9.15H12.45V8.32C12.45 7.99 12.17 7.91 12 7.91C11.83 7.91 11.55 8 11.55 8.32V9.15H10.92V6.38H13.08V9.15ZM12.51 9.09H13.01V6.44H10.98V9.09H11.48V8.32C11.48 8.14 11.59 7.85 11.99 7.85C12.39 7.85 12.5 8.15 12.5 8.32V9.09H12.51ZM12.12 7.68H11.88V6.69H12.12V7.68ZM11.94 7.61H12.05V6.74H11.94V7.61ZM12.62 7.61H12.38V6.87H12.62V7.61ZM12.44 7.55H12.56V6.93H12.44V7.55ZM11.62 7.61H11.38V6.87H11.62V7.61ZM11.44 7.55H11.56V6.93H11.44V7.55Z" fill="black"/>
<path d="M10.76 6.03V6.42H13.24V6.03H10.76Z" fill="#DA000C"/>
<path d="M13.27 6.44H10.73V5.99H13.27V6.44ZM10.79 6.38H13.21V6.06H10.79V6.38Z" fill="black"/>
<path d="M10.53 5.58V6.03H13.48V5.58H13.11V5.83H12.69V5.58H12.21V5.83H11.79V5.58H11.31V5.83H10.89V5.58H10.52H10.53Z" fill="#DA000C"/>
<path d="M13.5 6.06H10.49V5.55H10.92V5.8H11.28V5.55H11.82V5.8H12.18V5.55H12.72V5.8H13.08V5.55H13.51V6.06H13.5ZM10.56 6H13.45V5.61H13.14V5.86H12.66V5.61H12.24V5.86H11.76V5.61H11.34V5.86H10.86V5.61H10.55V6H10.56Z" fill="black"/>
<path d="M9.98 10.03V10.31H14.02V10.03H9.98Z" fill="#DA000C"/>
<path d="M14.05 10.34H9.95V10H14.05V10.34ZM10.01 10.28H13.99V10.06H10.01V10.28Z" fill="black"/>
<path d="M9.81999 9.12V10.03H14.19V9.12H13.78V9.47H13.23V9.12H12.49V9.47H11.53V9.12H10.79V9.47H10.24V9.12H9.82999H9.81999Z" fill="#DA000C"/>
<path d="M14.22 10.06H9.78999V9.09H10.26V9.44H10.75V9.09H11.55V9.44H12.45V9.09H13.25V9.44H13.74V9.09H14.21V10.06H14.22ZM9.84999 10H14.16V9.15H13.81V9.5H13.2V9.15H12.52V9.5H11.5V9.15H10.82V9.5H10.21V9.15H9.85999V10H9.84999Z" fill="black"/>
<path d="M10.34 10.31V13.61H11.12V12.37C11.12 11.79 11.51 11.51 12 11.51C12.49 11.51 12.88 11.78 12.88 12.37V13.61H13.66V10.31H10.34Z" fill="#DA000C"/>
<path d="M13.66 13.64H12.88C12.88 13.64 12.85 13.63 12.85 13.61V12.37C12.85 11.97 12.63 11.54 12 11.54C11.47 11.54 11.15 11.85 11.15 12.37V13.61C11.15 13.61 11.14 13.64 11.12 13.64H10.34C10.34 13.64 10.31 13.63 10.31 13.61V10.31C10.31 10.31 10.32 10.28 10.34 10.28H13.66C13.66 10.28 13.69 10.29 13.69 10.31V13.61C13.69 13.61 13.68 13.64 13.66 13.64ZM12.91 13.58H13.63V10.34H10.37V13.58H11.09V12.37C11.09 11.82 11.44 11.48 12 11.48C12.56 11.48 12.91 11.83 12.91 12.37V13.58Z" fill="black"/>
</svg>
