<svg width="24" height="24" viewBox="0 0 24 24" fill="none" xmlns="http://www.w3.org/2000/svg">
<path d="M24 4H0V5.78H24V4Z" fill="#0D5EAF"/>
<path d="M24 5.78H0V7.56H24V5.78Z" fill="white"/>
<path d="M24 7.55H0V9.33H24V7.55Z" fill="#0D5EAF"/>
<path d="M24 9.33H0V11.11H24V9.33Z" fill="white"/>
<path d="M24 11.11H0V12.89H24V11.11Z" fill="#0D5EAF"/>
<path d="M24 12.89H0V14.67H24V12.89Z" fill="white"/>
<path d="M24 14.67H0V16.45H24V14.67Z" fill="#0D5EAF"/>
<path d="M24 16.44H0V18.22H24V16.44Z" fill="white"/>
<path d="M24 18.22H0V20H24V18.22Z" fill="#0D5EAF"/>
<path d="M8.23 4H0V12.89H8.23V4Z" fill="#0D5EAF"/>
<path d="M8.23 7.55H4.94V4H3.29V7.55H0V9.34H3.29V12.89H4.94V9.34H8.23V7.55Z" fill="white"/>
</svg>
