<svg width="24" height="24" viewBox="0 0 24 24" fill="none" xmlns="http://www.w3.org/2000/svg">
<path d="M0 4H24V20H0V4Z" fill="#CE1126"/>
<path d="M2.02 6.24H21.99V17.76H2.02V6.24Z" fill="#007A5E"/>
<path d="M2.02 6.24H21.99L2.02 17.76H21.99L2.02 6.24Z" fill="#FCD116"/>
<path d="M12 13.73C12.9555 13.73 13.73 12.9555 13.73 12C13.73 11.0445 12.9555 10.27 12 10.27C11.0446 10.27 10.27 11.0445 10.27 12C10.27 12.9555 11.0446 13.73 12 13.73Z" fill="#CE1126"/>
<path d="M3.25999 12.01C3.45999 12.42 3.86999 12.87 4.23999 13.03C4.25999 12.62 4.12999 12.09 3.93999 11.67L3.25999 12.01Z" fill="#CE1126"/>
<path d="M2.89 10.63C3.19 11.29 2.05 12.83 3.92 13.22C3.69 12.9 3.57 12.37 3.63 11.95C4.02 12.12 4.41 12.5 4.56 12.86C5.21 11.06 3.29 11.23 2.89 10.63Z" fill="#FCD116"/>
<path d="M7.41 18.67L7.2 18.02L6.99 18.67H6.31L6.86 19.07L6.65 19.72L7.2 19.32L7.75 19.72L7.54 19.07L8.09 18.67H7.41Z" fill="#FCD116"/>
<path d="M12.21 18.67L12 18.02L11.79 18.67H11.11L11.66 19.07L11.45 19.72L12 19.32L12.55 19.72L12.34 19.07L12.89 18.67H12.21Z" fill="#FCD116"/>
<path d="M17.14 19.07L17.69 18.67H17.01L16.8 18.02L16.59 18.67H15.91L16.46 19.07L16.25 19.72L16.8 19.32L17.35 19.72L17.14 19.07Z" fill="#FCD116"/>
<path d="M17.14 5.33L17.69 4.93H17.01L16.8 4.28L16.59 4.93H15.91L16.46 5.33L16.25 5.98L16.8 5.58L17.35 5.98L17.14 5.33Z" fill="#FCD116"/>
<path d="M12.21 4.93L12 4.28L11.79 4.93H11.11L11.66 5.33L11.45 5.98L12 5.58L12.55 5.98L12.34 5.33L12.89 4.93H12.21Z" fill="#FCD116"/>
<path d="M7.41 4.93L7.2 4.28L6.99 4.93H6.31L6.86 5.33L6.65 5.98L7.2 5.58L7.75 5.98L7.54 5.33L8.09 4.93H7.41Z" fill="#FCD116"/>
<path d="M12 10.42L11.07 13.29L13.51 11.52H10.5L12.94 13.29L12.01 10.42H12Z" fill="#FCD116"/>
</svg>
