<svg width="24" height="24" viewBox="0 0 24 24" fill="none" xmlns="http://www.w3.org/2000/svg">
<path d="M0 4H24V20H0V4Z" fill="white"/>
<path d="M0 4H24V9.33H0V4ZM0 14.67H24V20H0V14.67Z" fill="#00BCE4"/>
<path d="M8.16 10.09L7.99 10.62H7.43L7.88 10.95L7.71 11.48L8.16 11.15L8.61 11.48L8.44 10.95L8.89 10.62H8.33L8.16 10.09Z" fill="#00BCE4"/>
<path d="M8.33 12.92L8.16 12.39L7.99 12.92H7.43L7.88 13.25L7.71 13.78L8.16 13.45L8.61 13.78L8.44 13.25L8.89 12.92H8.33Z" fill="#00BCE4"/>
<path d="M12.17 11.77L12 11.24L11.83 11.77H11.27L11.72 12.1L11.55 12.63L12 12.3L12.45 12.63L12.28 12.1L12.73 11.77H12.17Z" fill="#00BCE4"/>
<path d="M15.56 10.95L15.39 11.48L15.84 11.15L16.29 11.48L16.12 10.95L16.57 10.62H16.01L15.84 10.09L15.67 10.62H15.11L15.56 10.95Z" fill="#00BCE4"/>
<path d="M16.01 12.92L15.84 12.39L15.67 12.92H15.11L15.56 13.25L15.39 13.78L15.84 13.45L16.29 13.78L16.12 13.25L16.57 12.92H16.01Z" fill="#00BCE4"/>
</svg>
