<svg width="24" height="24" viewBox="0 0 24 24" fill="none" xmlns="http://www.w3.org/2000/svg">
<path d="M0 4H24V20H0V4Z" fill="white"/>
<path d="M0 4H24V9.33H0V4Z" fill="#FF6820"/>
<path d="M0 14.67H24V20H0V14.67Z" fill="#046A38"/>
<path d="M12 14.47C13.3641 14.47 14.47 13.3641 14.47 12C14.47 10.6359 13.3641 9.53 12 9.53C10.6359 9.53 9.53 10.6359 9.53 12C9.53 13.3641 10.6359 14.47 12 14.47Z" fill="#07038D"/>
<path d="M12 14.13C13.1764 14.13 14.13 13.1764 14.13 12C14.13 10.8236 13.1764 9.87 12 9.87C10.8236 9.87 9.87 10.8236 9.87 12C9.87 13.1764 10.8236 14.13 12 14.13Z" fill="white"/>
<path d="M12 12.43C12.2375 12.43 12.43 12.2375 12.43 12C12.43 11.7625 12.2375 11.57 12 11.57C11.7625 11.57 11.57 11.7625 11.57 12C11.57 12.2375 11.7625 12.43 12 12.43Z" fill="#07038D"/>
<path d="M12 9.87L12.08 11.15L12 11.79L11.92 11.15L12 9.87Z" fill="#07038D"/>
<path d="M12.28 9.97C12.3297 9.97 12.37 9.92971 12.37 9.88C12.37 9.8303 12.3297 9.79 12.28 9.79C12.2303 9.79 12.19 9.8303 12.19 9.88C12.19 9.92971 12.2303 9.97 12.28 9.97Z" fill="#07038D"/>
<path d="M12 14.13L11.92 12.85L12 12.21L12.08 12.85L12 14.13Z" fill="#07038D"/>
<path d="M11.72 14.21C11.7697 14.21 11.81 14.1697 11.81 14.12C11.81 14.0703 11.7697 14.03 11.72 14.03C11.6703 14.03 11.63 14.0703 11.63 14.12C11.63 14.1697 11.6703 14.21 11.72 14.21Z" fill="#07038D"/>
<path d="M12.55 9.94L12.3 11.2L12.06 11.79L12.15 11.16L12.56 9.94H12.55Z" fill="#07038D"/>
<path d="M12.82 10.12C12.8697 10.12 12.91 10.0797 12.91 10.03C12.91 9.9803 12.8697 9.94 12.82 9.94C12.7703 9.94 12.73 9.9803 12.73 10.03C12.73 10.0797 12.7703 10.12 12.82 10.12Z" fill="#07038D"/>
<path d="M11.45 14.06L11.7 12.8L11.94 12.21L11.85 12.84L11.44 14.06H11.45Z" fill="#07038D"/>
<path d="M11.18 14.06C11.2297 14.06 11.27 14.0197 11.27 13.97C11.27 13.9203 11.2297 13.88 11.18 13.88C11.1303 13.88 11.09 13.9203 11.09 13.97C11.09 14.0197 11.1303 14.06 11.18 14.06Z" fill="#07038D"/>
<path d="M13.07 10.15L12.5 11.3L12.11 11.81L12.36 11.22L13.07 10.15Z" fill="#07038D"/>
<path d="M13.3 10.4C13.3497 10.4 13.39 10.3597 13.39 10.31C13.39 10.2603 13.3497 10.22 13.3 10.22C13.2503 10.22 13.21 10.2603 13.21 10.31C13.21 10.3597 13.2503 10.4 13.3 10.4Z" fill="#07038D"/>
<path d="M10.93 13.85L11.5 12.7L11.89 12.19L11.64 12.78L10.93 13.85Z" fill="#07038D"/>
<path d="M10.7 13.78C10.7497 13.78 10.79 13.7397 10.79 13.69C10.79 13.6403 10.7497 13.6 10.7 13.6C10.6503 13.6 10.61 13.6403 10.61 13.69C10.61 13.7397 10.6503 13.78 10.7 13.78Z" fill="#07038D"/>
<path d="M13.51 10.49L12.66 11.45L12.15 11.84L12.54 11.33L13.5 10.48L13.51 10.49Z" fill="#07038D"/>
<path d="M13.69 10.79C13.7397 10.79 13.78 10.7497 13.78 10.7C13.78 10.6503 13.7397 10.61 13.69 10.61C13.6403 10.61 13.6 10.6503 13.6 10.7C13.6 10.7497 13.6403 10.79 13.69 10.79Z" fill="#07038D"/>
<path d="M10.49 13.51L11.34 12.55L11.85 12.16L11.46 12.67L10.5 13.52L10.49 13.51Z" fill="#07038D"/>
<path d="M10.31 13.39C10.3597 13.39 10.4 13.3497 10.4 13.3C10.4 13.2503 10.3597 13.21 10.31 13.21C10.2603 13.21 10.22 13.2503 10.22 13.3C10.22 13.3497 10.2603 13.39 10.31 13.39Z" fill="#07038D"/>
<path d="M13.85 10.93L12.78 11.64L12.19 11.89L12.7 11.5L13.85 10.93Z" fill="#07038D"/>
<path d="M13.97 11.27C14.0197 11.27 14.06 11.2297 14.06 11.18C14.06 11.1303 14.0197 11.09 13.97 11.09C13.9203 11.09 13.88 11.1303 13.88 11.18C13.88 11.2297 13.9203 11.27 13.97 11.27Z" fill="#07038D"/>
<path d="M10.15 13.07L11.22 12.36L11.81 12.11L11.3 12.5L10.15 13.07Z" fill="#07038D"/>
<path d="M10.03 12.91C10.0797 12.91 10.12 12.8697 10.12 12.82C10.12 12.7703 10.0797 12.73 10.03 12.73C9.9803 12.73 9.94 12.7703 9.94 12.82C9.94 12.8697 9.9803 12.91 10.03 12.91Z" fill="#07038D"/>
<path d="M14.06 11.45L12.84 11.86L12.21 11.95L12.8 11.71L14.06 11.46V11.45Z" fill="#07038D"/>
<path d="M14.12 11.81C14.1697 11.81 14.21 11.7697 14.21 11.72C14.21 11.6703 14.1697 11.63 14.12 11.63C14.0703 11.63 14.03 11.6703 14.03 11.72C14.03 11.7697 14.0703 11.81 14.12 11.81Z" fill="#07038D"/>
<path d="M9.94 12.55L11.16 12.14L11.79 12.05L11.2 12.29L9.94 12.54V12.55Z" fill="#07038D"/>
<path d="M9.88001 12.37C9.92971 12.37 9.97001 12.3297 9.97001 12.28C9.97001 12.2303 9.92971 12.19 9.88001 12.19C9.8303 12.19 9.79001 12.2303 9.79001 12.28C9.79001 12.3297 9.8303 12.37 9.88001 12.37Z" fill="#07038D"/>
<path d="M14.13 12L12.85 12.08L12.21 12L12.85 11.92L14.13 12Z" fill="#07038D"/>
<path d="M14.12 12.37C14.1697 12.37 14.21 12.3297 14.21 12.28C14.21 12.2303 14.1697 12.19 14.12 12.19C14.0703 12.19 14.03 12.2303 14.03 12.28C14.03 12.3297 14.0703 12.37 14.12 12.37Z" fill="#07038D"/>
<path d="M9.87 12L11.15 11.92L11.79 12L11.15 12.08L9.87 12Z" fill="#07038D"/>
<path d="M9.88001 11.81C9.92971 11.81 9.97001 11.7697 9.97001 11.72C9.97001 11.6703 9.92971 11.63 9.88001 11.63C9.8303 11.63 9.79001 11.6703 9.79001 11.72C9.79001 11.7697 9.8303 11.81 9.88001 11.81Z" fill="#07038D"/>
<path d="M14.06 12.55L12.8 12.3L12.21 12.06L12.84 12.15L14.06 12.56V12.55Z" fill="#07038D"/>
<path d="M13.97 12.91C14.0197 12.91 14.06 12.8697 14.06 12.82C14.06 12.7703 14.0197 12.73 13.97 12.73C13.9203 12.73 13.88 12.7703 13.88 12.82C13.88 12.8697 13.9203 12.91 13.97 12.91Z" fill="#07038D"/>
<path d="M9.94 11.45L11.2 11.7L11.79 11.94L11.16 11.85L9.94 11.44V11.45Z" fill="#07038D"/>
<path d="M10.03 11.27C10.0797 11.27 10.12 11.2297 10.12 11.18C10.12 11.1303 10.0797 11.09 10.03 11.09C9.9803 11.09 9.94 11.1303 9.94 11.18C9.94 11.2297 9.9803 11.27 10.03 11.27Z" fill="#07038D"/>
<path d="M13.85 13.07L12.7 12.5L12.19 12.11L12.78 12.36L13.85 13.07Z" fill="#07038D"/>
<path d="M13.69 13.39C13.7397 13.39 13.78 13.3497 13.78 13.3C13.78 13.2503 13.7397 13.21 13.69 13.21C13.6403 13.21 13.6 13.2503 13.6 13.3C13.6 13.3497 13.6403 13.39 13.69 13.39Z" fill="#07038D"/>
<path d="M10.15 10.93L11.3 11.5L11.81 11.89L11.22 11.64L10.15 10.93Z" fill="#07038D"/>
<path d="M10.31 10.79C10.3597 10.79 10.4 10.7497 10.4 10.7C10.4 10.6503 10.3597 10.61 10.31 10.61C10.2603 10.61 10.22 10.6503 10.22 10.7C10.22 10.7497 10.2603 10.79 10.31 10.79Z" fill="#07038D"/>
<path d="M13.51 13.51L12.55 12.66L12.16 12.15L12.67 12.54L13.52 13.5L13.51 13.51Z" fill="#07038D"/>
<path d="M13.3 13.78C13.3497 13.78 13.39 13.7397 13.39 13.69C13.39 13.6403 13.3497 13.6 13.3 13.6C13.2503 13.6 13.21 13.6403 13.21 13.69C13.21 13.7397 13.2503 13.78 13.3 13.78Z" fill="#07038D"/>
<path d="M10.49 10.49L11.45 11.34L11.84 11.85L11.33 11.46L10.48 10.5L10.49 10.49Z" fill="#07038D"/>
<path d="M10.7 10.4C10.7497 10.4 10.79 10.3597 10.79 10.31C10.79 10.2603 10.7497 10.22 10.7 10.22C10.6503 10.22 10.61 10.2603 10.61 10.31C10.61 10.3597 10.6503 10.4 10.7 10.4Z" fill="#07038D"/>
<path d="M13.07 13.85L12.36 12.78L12.11 12.19L12.5 12.7L13.07 13.85Z" fill="#07038D"/>
<path d="M12.82 14.06C12.8697 14.06 12.91 14.0197 12.91 13.97C12.91 13.9203 12.8697 13.88 12.82 13.88C12.7703 13.88 12.73 13.9203 12.73 13.97C12.73 14.0197 12.7703 14.06 12.82 14.06Z" fill="#07038D"/>
<path d="M10.93 10.15L11.64 11.22L11.89 11.81L11.5 11.3L10.93 10.15Z" fill="#07038D"/>
<path d="M11.18 10.12C11.2297 10.12 11.27 10.0797 11.27 10.03C11.27 9.9803 11.2297 9.94 11.18 9.94C11.1303 9.94 11.09 9.9803 11.09 10.03C11.09 10.0797 11.1303 10.12 11.18 10.12Z" fill="#07038D"/>
<path d="M12.55 14.06L12.14 12.84L12.05 12.21L12.29 12.8L12.54 14.06H12.55Z" fill="#07038D"/>
<path d="M12.28 14.21C12.3297 14.21 12.37 14.1697 12.37 14.12C12.37 14.0703 12.3297 14.03 12.28 14.03C12.2303 14.03 12.19 14.0703 12.19 14.12C12.19 14.1697 12.2303 14.21 12.28 14.21Z" fill="#07038D"/>
<path d="M11.45 9.94L11.86 11.16L11.95 11.79L11.71 11.2L11.46 9.94H11.45Z" fill="#07038D"/>
<path d="M11.72 9.97C11.7697 9.97 11.81 9.92971 11.81 9.88C11.81 9.8303 11.7697 9.79 11.72 9.79C11.6703 9.79 11.63 9.8303 11.63 9.88C11.63 9.92971 11.6703 9.97 11.72 9.97Z" fill="#07038D"/>
</svg>
