<svg width="24" height="24" viewBox="0 0 24 24" fill="none" xmlns="http://www.w3.org/2000/svg">
<path d="M24 4H0V9.25H24V4Z" fill="#009E3B"/>
<path d="M24 9.25H0V14.62H24V9.25Z" fill="white"/>
<path d="M24 14.63H0V20H24V14.63Z" fill="#FA030F"/>
<path d="M1.77 8.20999H0.380005V8.36999H1.77V8.20999Z" fill="white"/>
<path d="M1.03 8.48998V8.64998H1.25V8.76998H0.940005V8.47998H0.820005H0.380005V8.96998H0.530005V8.64998H0.820005V8.96998H0.940005H1.36V8.95998V8.48998H1.03Z" fill="white"/>
<path d="M0.740012 8.75998H0.590012V8.95998H0.740012V8.75998Z" fill="white"/>
<path d="M2.31001 8.20999V8.76999H2.20001V8.20999H2.08001V8.76999H1.99001V8.20999H1.87001V8.48999H1.45001V8.49999V8.96999H1.57001H1.78001V8.76999H1.57001V8.64999H1.87001V8.95999V8.96999H2.43001V8.20999H2.31001Z" fill="white"/>
<path d="M1.36 9.04999H0.380005V9.24999H1.36V9.04999Z" fill="white"/>
<path d="M2.44001 9.04999H1.46001V9.24999H2.44001V9.04999Z" fill="white"/>
<path d="M3.89999 8.20999H2.50999V8.36999H3.89999V8.20999Z" fill="white"/>
<path d="M3.16 8.48998V8.64998H3.37V8.76998H3.07V8.47998H2.95H2.5V8.96998H2.66V8.64998H2.95V8.96998H3.07H3.49V8.95998V8.48998H3.16Z" fill="white"/>
<path d="M2.86001 8.75998H2.71001V8.95998H2.86001V8.75998Z" fill="white"/>
<path d="M4.44 8.20999V8.76999H4.32V8.20999H4.2V8.76999H4.11V8.20999H3.99V8.48999H3.58V8.49999V8.96999H3.69H3.9V8.76999H3.69V8.64999H3.99V8.95999V8.96999H4.56V8.20999H4.44Z" fill="white"/>
<path d="M3.48999 9.04999H2.50999V9.24999H3.48999V9.04999Z" fill="white"/>
<path d="M4.57 9.04999H3.59V9.24999H4.57V9.04999Z" fill="white"/>
<path d="M6.02 8.20999H4.63V8.36999H6.02V8.20999Z" fill="white"/>
<path d="M5.28001 8.48998V8.64998H5.49001V8.76998H5.19001V8.47998H5.07001H4.62001V8.96998H4.77001V8.64998H5.07001V8.96998H5.19001H5.61001V8.95998V8.48998H5.28001Z" fill="white"/>
<path d="M4.98002 8.75998H4.83002V8.95998H4.98002V8.75998Z" fill="white"/>
<path d="M6.55002 8.20999V8.76999H6.44002V8.20999H6.32002V8.76999H6.23002V8.20999H6.11002V8.48999H5.69002V8.49999V8.96999H5.81002H6.02002V8.76999H5.81002V8.64999H6.11002V8.95999V8.96999H6.67002V8.20999H6.55002Z" fill="white"/>
<path d="M5.61 9.04999H4.63V9.24999H5.61V9.04999Z" fill="white"/>
<path d="M6.68001 9.04999H5.70001V9.24999H6.68001V9.04999Z" fill="white"/>
<path d="M8.13001 8.20999H6.74001V8.36999H8.13001V8.20999Z" fill="white"/>
<path d="M7.39001 8.48998V8.64998H7.61001V8.76998H7.31001V8.47998H7.19001H6.74001V8.96998H6.89001V8.64998H7.19001V8.96998H7.31001H7.72001V8.95998H7.73001V8.48998H7.39001Z" fill="white"/>
<path d="M7.10001 8.75998H6.95001V8.95998H7.10001V8.75998Z" fill="white"/>
<path d="M8.67001 8.20999V8.76999H8.56001V8.20999H8.44001V8.76999H8.35001V8.20999H8.23001V8.48999H7.81001V8.49999V8.96999H7.93001H8.14001V8.76999H7.93001V8.64999H8.23001V8.95999V8.96999H8.79001V8.20999H8.67001Z" fill="white"/>
<path d="M7.73 9.04999H6.75V9.24999H7.73V9.04999Z" fill="white"/>
<path d="M8.80001 9.04999H7.82001V9.24999H8.80001V9.04999Z" fill="white"/>
<path d="M10.25 8.20999H8.86V8.36999H10.25V8.20999Z" fill="white"/>
<path d="M9.51 8.48998V8.64998H9.73V8.76998H9.42V8.47998H9.3H8.86V8.96998H9.01V8.64998H9.3V8.96998H9.42H9.84V8.95998V8.48998H9.51Z" fill="white"/>
<path d="M9.22001 8.75998H9.07001V8.95998H9.22001V8.75998Z" fill="white"/>
<path d="M10.79 8.20999V8.76999H10.68V8.20999H10.56V8.76999H10.47V8.20999H10.34V8.48999H9.93001V8.49999V8.96999H10.05H10.26V8.76999H10.05V8.64999H10.34V8.95999V8.96999H10.91V8.20999H10.79Z" fill="white"/>
<path d="M9.84 9.04999H8.86V9.24999H9.84V9.04999Z" fill="white"/>
<path d="M10.92 9.04999H9.94V9.24999H10.92V9.04999Z" fill="white"/>
<path d="M12.37 8.20999H10.98V8.36999H12.37V8.20999Z" fill="white"/>
<path d="M11.63 8.48998V8.64998H11.84V8.76998H11.54V8.47998H11.42H10.97V8.96998H11.13V8.64998H11.42V8.96998H11.54H11.96V8.95998V8.48998H11.63Z" fill="white"/>
<path d="M11.34 8.75998H11.19V8.95998H11.34V8.75998Z" fill="white"/>
<path d="M12.91 8.20999V8.76999H12.8V8.20999H12.67V8.76999H12.58V8.20999H12.46V8.48999H12.05V8.49999V8.96999H12.16H12.37V8.76999H12.16V8.64999H12.46V8.95999V8.96999H13.03V8.20999H12.91Z" fill="white"/>
<path d="M11.96 9.04999H10.98V9.24999H11.96V9.04999Z" fill="white"/>
<path d="M13.04 9.04999H12.06V9.24999H13.04V9.04999Z" fill="white"/>
<path d="M14.49 8.20999H13.1V8.36999H14.49V8.20999Z" fill="white"/>
<path d="M13.75 8.48998V8.64998H13.96V8.76998H13.66V8.47998H13.54H13.09V8.96998H13.24V8.64998H13.54V8.96998H13.66H14.08V8.95998V8.48998H13.75Z" fill="white"/>
<path d="M13.45 8.75998H13.3V8.95998H13.45V8.75998Z" fill="white"/>
<path d="M15.02 8.20999V8.76999H14.91V8.20999H14.79V8.76999H14.7V8.20999H14.58V8.48999H14.16V8.49999V8.96999H14.28H14.49V8.76999H14.28V8.64999H14.58V8.95999V8.96999H15.15V8.20999H15.02Z" fill="white"/>
<path d="M14.08 9.04999H13.1V9.24999H14.08V9.04999Z" fill="white"/>
<path d="M15.16 9.04999H14.18V9.24999H15.16V9.04999Z" fill="white"/>
<path d="M16.6 8.20999H15.21V8.36999H16.6V8.20999Z" fill="white"/>
<path d="M15.87 8.48998V8.64998H16.08V8.76998H15.78V8.47998H15.66H15.21V8.96998H15.36V8.64998H15.66V8.96998H15.78H16.19V8.95998H16.2V8.48998H15.87Z" fill="white"/>
<path d="M15.57 8.75998H15.42V8.95998H15.57V8.75998Z" fill="white"/>
<path d="M17.14 8.20999V8.76999H17.03V8.20999H16.91V8.76999H16.82V8.20999H16.7V8.48999H16.28V8.49999V8.96999H16.4H16.61V8.76999H16.4V8.64999H16.7V8.95999V8.96999H17.26V8.20999H17.14Z" fill="white"/>
<path d="M16.2 9.04999H15.22V9.24999H16.2V9.04999Z" fill="white"/>
<path d="M17.27 9.04999H16.29V9.24999H17.27V9.04999Z" fill="white"/>
<path d="M18.72 8.20999H17.33V8.36999H18.72V8.20999Z" fill="white"/>
<path d="M17.98 8.48998V8.64998H18.2V8.76998H17.89V8.47998H17.77H17.33V8.96998H17.48V8.64998H17.77V8.96998H17.89H18.31V8.95998V8.48998H17.98Z" fill="white"/>
<path d="M17.69 8.75998H17.54V8.95998H17.69V8.75998Z" fill="white"/>
<path d="M19.26 8.20999V8.76999H19.15V8.20999H19.03V8.76999H18.94V8.20999H18.82V8.48999H18.4V8.49999V8.96999H18.52H18.73V8.76999H18.52V8.64999H18.82V8.95999V8.96999H19.38V8.20999H19.26Z" fill="white"/>
<path d="M18.31 9.04999H17.33V9.24999H18.31V9.04999Z" fill="white"/>
<path d="M19.39 9.04999H18.41V9.24999H19.39V9.04999Z" fill="white"/>
<path d="M20.84 8.20999H19.45V8.36999H20.84V8.20999Z" fill="white"/>
<path d="M20.1 8.48998V8.64998H20.31V8.76998H20.01V8.47998H19.89H19.45V8.96998H19.6V8.64998H19.89V8.96998H20.01H20.43V8.95998V8.48998H20.1Z" fill="white"/>
<path d="M19.81 8.75998H19.66V8.95998H19.81V8.75998Z" fill="white"/>
<path d="M21.38 8.20999V8.76999H21.27V8.20999H21.15V8.76999H21.06V8.20999H20.93V8.48999H20.52V8.49999V8.96999H20.63H20.85V8.76999H20.63V8.64999H20.93V8.95999V8.96999H21.5V8.20999H21.38Z" fill="white"/>
<path d="M20.43 9.04999H19.45V9.24999H20.43V9.04999Z" fill="white"/>
<path d="M21.51 9.04999H20.53V9.24999H21.51V9.04999Z" fill="white"/>
<path d="M22.96 8.20999H21.57V8.36999H22.96V8.20999Z" fill="white"/>
<path d="M22.22 8.48998V8.64998H22.43V8.76998H22.13V8.47998H22.01H21.56V8.96998H21.72V8.64998H22.01V8.96998H22.13H22.55V8.95998V8.48998H22.22Z" fill="white"/>
<path d="M21.92 8.75998H21.77V8.95998H21.92V8.75998Z" fill="white"/>
<path d="M23.5 8.20999V8.76999H23.38V8.20999H23.26V8.76999H23.17V8.20999H23.05V8.48999H22.64V8.49999V8.96999H22.75H22.96V8.76999H22.75V8.64999H23.05V8.95999V8.96999H23.62V8.20999H23.5Z" fill="white"/>
<path d="M22.55 9.04999H21.57V9.24999H22.55V9.04999Z" fill="white"/>
<path d="M23.63 9.04999H22.65V9.24999H23.63V9.04999Z" fill="white"/>
<path d="M1.77 14.93H0.380005V15.09H1.77V14.93Z" fill="white"/>
<path d="M1.03 15.2V15.37H1.25V15.48H0.940005V15.2H0.820005H0.380005V15.68H0.530005V15.36H0.820005V15.68H0.940005H1.36V15.2H1.03Z" fill="white"/>
<path d="M0.740012 15.47H0.590012V15.67H0.740012V15.47Z" fill="white"/>
<path d="M2.31001 14.93V15.48H2.20001V14.93H2.08001V15.48H1.99001V14.93H1.87001V15.2H1.45001V15.21V15.68H1.57001H1.78001V15.48H1.57001V15.37H1.87001V15.68H2.43001V14.93H2.31001Z" fill="white"/>
<path d="M1.36 14.63H0.380005V14.83H1.36V14.63Z" fill="white"/>
<path d="M2.44001 14.63H1.46001V14.83H2.44001V14.63Z" fill="white"/>
<path d="M3.89999 14.93H2.50999V15.09H3.89999V14.93Z" fill="white"/>
<path d="M3.16 15.2V15.37H3.37V15.48H3.07V15.2H2.95H2.5V15.68H2.66V15.36H2.95V15.68H3.07H3.49V15.2H3.16Z" fill="white"/>
<path d="M2.86001 15.47H2.71001V15.67H2.86001V15.47Z" fill="white"/>
<path d="M4.44 14.93V15.48H4.32V14.93H4.2V15.48H4.11V14.93H3.99V15.2H3.58V15.21V15.68H3.69H3.9V15.48H3.69V15.37H3.99V15.68H4.56V14.93H4.44Z" fill="white"/>
<path d="M3.48999 14.63H2.50999V14.83H3.48999V14.63Z" fill="white"/>
<path d="M4.57 14.63H3.59V14.83H4.57V14.63Z" fill="white"/>
<path d="M6.02 14.93H4.63V15.09H6.02V14.93Z" fill="white"/>
<path d="M5.28001 15.2V15.37H5.49001V15.48H5.19001V15.2H5.07001H4.62001V15.68H4.77001V15.36H5.07001V15.68H5.19001H5.61001V15.2H5.28001Z" fill="white"/>
<path d="M4.98002 15.47H4.83002V15.67H4.98002V15.47Z" fill="white"/>
<path d="M6.55002 14.93V15.48H6.44002V14.93H6.32002V15.48H6.23002V14.93H6.11002V15.2H5.69002V15.21V15.68H5.81002H6.02002V15.48H5.81002V15.37H6.11002V15.68H6.68002V14.93H6.55002Z" fill="white"/>
<path d="M5.61 14.63H4.63V14.83H5.61V14.63Z" fill="white"/>
<path d="M6.68001 14.63H5.70001V14.83H6.68001V14.63Z" fill="white"/>
<path d="M8.13001 14.93H6.74001V15.09H8.13001V14.93Z" fill="white"/>
<path d="M7.39001 15.2V15.37H7.61001V15.48H7.31001V15.2H7.19001H6.74001V15.68H6.89001V15.36H7.19001V15.68H7.31001H7.72001H7.73001V15.2H7.39001Z" fill="white"/>
<path d="M7.10001 15.47H6.95001V15.67H7.10001V15.47Z" fill="white"/>
<path d="M8.67001 14.93V15.48H8.56001V14.93H8.44001V15.48H8.35001V14.93H8.23001V15.2H7.81001V15.21V15.68H7.93001H8.14001V15.48H7.93001V15.37H8.23001V15.68H8.79001V14.93H8.67001Z" fill="white"/>
<path d="M7.73 14.63H6.75V14.83H7.73V14.63Z" fill="white"/>
<path d="M8.80001 14.63H7.82001V14.83H8.80001V14.63Z" fill="white"/>
<path d="M10.25 14.93H8.86V15.09H10.25V14.93Z" fill="white"/>
<path d="M9.51 15.2V15.37H9.73V15.48H9.42V15.2H9.3H8.86V15.68H9.01V15.36H9.3V15.68H9.42H9.84V15.2H9.51Z" fill="white"/>
<path d="M9.22001 15.47H9.07001V15.67H9.22001V15.47Z" fill="white"/>
<path d="M10.79 14.93V15.48H10.68V14.93H10.56V15.48H10.47V14.93H10.34V15.2H9.93001V15.21V15.68H10.05H10.26V15.48H10.05V15.37H10.34V15.68H10.91V14.93H10.79Z" fill="white"/>
<path d="M9.84 14.63H8.86V14.83H9.84V14.63Z" fill="white"/>
<path d="M10.92 14.63H9.94V14.83H10.92V14.63Z" fill="white"/>
<path d="M12.37 14.93H10.98V15.09H12.37V14.93Z" fill="white"/>
<path d="M11.63 15.2V15.37H11.84V15.48H11.54V15.2H11.42H10.97V15.68H11.13V15.36H11.42V15.68H11.54H11.96V15.2H11.63Z" fill="white"/>
<path d="M11.34 15.47H11.19V15.67H11.34V15.47Z" fill="white"/>
<path d="M12.91 14.93V15.48H12.8V14.93H12.67V15.48H12.58V14.93H12.46V15.2H12.05V15.21V15.68H12.16H12.37V15.48H12.16V15.37H12.46V15.68H13.03V14.93H12.91Z" fill="white"/>
<path d="M11.96 14.63H10.98V14.83H11.96V14.63Z" fill="white"/>
<path d="M13.04 14.63H12.06V14.83H13.04V14.63Z" fill="white"/>
<path d="M14.49 14.93H13.1V15.09H14.49V14.93Z" fill="white"/>
<path d="M13.75 15.2V15.37H13.96V15.48H13.66V15.2H13.54H13.09V15.68H13.24V15.36H13.54V15.68H13.66H14.08V15.2H13.75Z" fill="white"/>
<path d="M13.45 15.47H13.3V15.67H13.45V15.47Z" fill="white"/>
<path d="M15.02 14.93V15.48H14.91V14.93H14.79V15.48H14.7V14.93H14.58V15.2H14.16V15.21V15.68H14.28H14.49V15.48H14.28V15.37H14.58V15.68H15.15V14.93H15.02Z" fill="white"/>
<path d="M14.08 14.63H13.1V14.83H14.08V14.63Z" fill="white"/>
<path d="M15.16 14.63H14.18V14.83H15.16V14.63Z" fill="white"/>
<path d="M16.6 14.93H15.21V15.09H16.6V14.93Z" fill="white"/>
<path d="M15.87 15.2V15.37H16.08V15.48H15.78V15.2H15.66H15.21V15.68H15.36V15.36H15.66V15.68H15.78H16.19H16.2V15.2H15.87Z" fill="white"/>
<path d="M15.57 15.47H15.42V15.67H15.57V15.47Z" fill="white"/>
<path d="M17.14 14.93V15.48H17.03V14.93H16.91V15.48H16.82V14.93H16.7V15.2H16.28V15.21V15.68H16.4H16.61V15.48H16.4V15.37H16.7V15.68H17.26V14.93H17.14Z" fill="white"/>
<path d="M16.2 14.63H15.22V14.83H16.2V14.63Z" fill="white"/>
<path d="M17.27 14.63H16.29V14.83H17.27V14.63Z" fill="white"/>
<path d="M18.72 14.93H17.33V15.09H18.72V14.93Z" fill="white"/>
<path d="M17.98 15.2V15.37H18.2V15.48H17.89V15.2H17.77H17.33V15.68H17.48V15.36H17.77V15.68H17.89H18.31V15.2H17.98Z" fill="white"/>
<path d="M17.69 15.47H17.54V15.67H17.69V15.47Z" fill="white"/>
<path d="M19.26 14.93V15.48H19.15V14.93H19.03V15.48H18.94V14.93H18.82V15.2H18.4V15.21V15.68H18.52H18.73V15.48H18.52V15.37H18.82V15.68H19.38V14.93H19.26Z" fill="white"/>
<path d="M18.31 14.63H17.33V14.83H18.31V14.63Z" fill="white"/>
<path d="M19.39 14.63H18.41V14.83H19.39V14.63Z" fill="white"/>
<path d="M20.84 14.93H19.45V15.09H20.84V14.93Z" fill="white"/>
<path d="M20.1 15.2V15.37H20.31V15.48H20.01V15.2H19.89H19.45V15.68H19.6V15.36H19.89V15.68H20.01H20.43V15.2H20.1Z" fill="white"/>
<path d="M19.81 15.47H19.66V15.67H19.81V15.47Z" fill="white"/>
<path d="M21.38 14.93V15.48H21.27V14.93H21.15V15.48H21.06V14.93H20.93V15.2H20.52V15.21V15.68H20.63H20.85V15.48H20.63V15.37H20.93V15.68H21.5V14.93H21.38Z" fill="white"/>
<path d="M20.43 14.63H19.45V14.83H20.43V14.63Z" fill="white"/>
<path d="M21.51 14.63H20.53V14.83H21.51V14.63Z" fill="white"/>
<path d="M22.96 14.93H21.57V15.09H22.96V14.93Z" fill="white"/>
<path d="M22.22 15.2V15.37H22.43V15.48H22.13V15.2H22.01H21.56V15.68H21.72V15.36H22.01V15.68H22.13H22.55V15.2H22.22Z" fill="white"/>
<path d="M21.92 15.47H21.77V15.67H21.92V15.47Z" fill="white"/>
<path d="M23.5 14.93V15.48H23.38V14.93H23.26V15.48H23.17V14.93H23.05V15.2H22.64V15.21V15.68H22.75H22.96V15.48H22.75V15.37H23.05V15.68H23.62V14.93H23.5Z" fill="white"/>
<path d="M22.55 14.63H21.57V14.83H22.55V14.63Z" fill="white"/>
<path d="M23.63 14.63H22.65V14.83H23.63V14.63Z" fill="white"/>
<path d="M11.2 10.5C11.2 10.5 10.16 10.76 10.09 11.82C10.04 13.09 10.81 13.34 10.81 13.34C10.61 13.1 10.42 12.64 10.42 11.97C10.42 11.3 11.2 10.51 11.2 10.51V10.5Z" fill="#FA030F"/>
<path d="M13.91 11.81C13.84 10.76 12.81 10.52 12.8 10.49C12.8 10.49 13.58 11.28 13.58 11.95C13.58 12.62 13.39 13.08 13.19 13.32C13.19 13.32 13.97 13.07 13.91 11.8V11.81Z" fill="#FA030F"/>
<path d="M13.07 12.76C13.66 11.33 12.65 10.57 12.65 10.57C12.65 10.57 13.14 11.31 12.91 12.19C12.75 12.72 12.49 13.07 12.21 13.3L12.23 10.63L12 10.39L11.77 10.63L11.82 13.32C11.54 13.09 11.27 12.74 11.1 12.19C10.87 11.31 11.36 10.57 11.36 10.57C11.36 10.57 10.34 11.33 10.94 12.76C11.12 13.2 11.39 13.46 11.67 13.6C11.29 13.74 10.98 13.71 10.98 13.71C10.98 13.71 11.39 13.84 11.87 13.76L12.01 13.99L12.18 13.76C12.64 13.83 13.03 13.71 13.03 13.71C13.03 13.71 12.72 13.74 12.34 13.6C12.62 13.45 12.89 13.19 13.07 12.76Z" fill="#FA030F"/>
<path d="M11.75 10.44C11.94 10.44 11.99 10.29 12 10.18C12.01 10.29 12.06 10.44 12.25 10.44C12.54 10.44 12.52 10.12 12.47 10.01C12.47 10.01 12.45 10.27 12.24 10.27C12.03 10.27 12 10.08 12 10.08C12 10.08 11.96 10.27 11.76 10.27C11.56 10.27 11.53 10.01 11.53 10.01C11.48 10.12 11.46 10.44 11.75 10.44Z" fill="#FA030F"/>
</svg>
