<svg width="24" height="24" viewBox="0 0 24 24" fill="none" xmlns="http://www.w3.org/2000/svg">
<path d="M0 4H24V20H0V4Z" fill="white"/>
<path d="M0 4H24V9.33H0V4Z" fill="#CD1125"/>
<path d="M0 14.67H24V20H0V14.67Z" fill="black"/>
<path d="M11.85 13.12H7.93999C7.90999 13.4 7.62999 13.6 7.30999 13.57C7.27999 13.57 7.23999 13.57 7.20999 13.55C7.75999 13.28 7.71999 13.01 7.37999 12.4C7.56999 12.33 7.59999 12.31 7.79999 12.18C7.65999 12.6 8.15999 12.55 8.51999 12.55C8.51999 12.4 8.52999 12.24 8.42999 12.22C8.56999 12.17 8.57999 12.15 8.80999 11.96V12.52H11.51V12.14C11.51 12.14 11.47 12.06 11.43 12.06C11.39 12.06 11.35 12.1 11.35 12.14V12.36C11.35 12.36 11.32 12.42 11.29 12.42H9.22999V12.06L10.78 10.57C10.77 10.65 10.93 10.85 11 10.89C10.95 10.89 10.89 10.89 10.86 10.92L9.58999 12.14H10.99C10.99 11.81 11.29 11.81 11.43 11.7C11.57 11.82 11.87 11.82 11.87 12.14V13.12H11.85ZM12.14 13.12V10.56C12.28 10.64 12.39 10.73 12.57 10.77C12.57 10.87 12.47 10.9 12.47 10.97V12.54C12.67 12.58 12.71 12.47 12.81 12.41C12.83 12.66 12.99 12.91 12.99 13.1H12.14V13.12ZM14.81 11.41L15.12 11.15V12.52H15.34V10.96C15.45 10.87 15.59 10.77 15.65 10.65V13.11H13.68C13.65 12.6 13.65 12.08 14.25 12.19V11.98C14.25 11.98 14.18 11.97 14.18 11.93L14.59 11.59V12.52H14.81V11.41ZM14.71 10.71C14.71 10.71 14.61 10.5 14.63 10.46C14.64 10.41 14.7 10.41 14.72 10.44C14.76 10.47 14.75 10.71 14.72 10.71H14.71ZM14.34 11C14.23 10.94 14.25 10.91 14.34 10.94C14.51 10.99 14.59 10.94 14.71 10.82L14.8 10.87C14.92 10.93 14.99 10.9 15.03 10.76C15.04 10.72 15.08 10.73 15.09 10.78C15.13 10.98 14.97 11.04 14.82 10.99C14.74 10.96 14.72 10.96 14.68 10.99C14.59 11.06 14.45 11.07 14.33 11H14.34ZM15.95 13.12V10.56C16.09 10.64 16.2 10.73 16.38 10.77C16.38 10.87 16.28 10.9 16.28 10.97V12.54C16.48 12.58 16.52 12.47 16.62 12.41C16.64 12.66 16.8 12.91 16.8 13.1H15.95V13.12ZM8.28999 13.4C8.28999 13.33 8.33999 13.28 8.40999 13.28C8.47999 13.28 8.52999 13.33 8.52999 13.4C8.52999 13.47 8.47999 13.52 8.40999 13.52C8.33999 13.52 8.28999 13.47 8.28999 13.4ZM14.07 12.47C14.07 12.47 14.11 12.54 14.16 12.54C14.21 12.54 14.25 12.51 14.25 12.47C14.25 12.43 14.21 12.4 14.16 12.4C14.11 12.4 14.07 12.43 14.07 12.47Z" fill="#017B3D"/>
</svg>
