<svg width="24" height="24" viewBox="0 0 24 24" fill="none" xmlns="http://www.w3.org/2000/svg">
<path d="M0 4H24V20H0V4Z" fill="white"/>
<path d="M0 5.5H24V8H0V5.5Z" fill="#0038B8"/>
<path d="M0 16H24V18.5H0V16Z" fill="#0038B8"/>
<path d="M12 15.5L10.99 13.75H8.97L9.98 12L8.97 10.25H10.99L12 8.5L13.01 10.25H15.03L14.02 12L15.03 13.75H13.01L12 15.5ZM11.63 13.75L12 14.39L12.37 13.75H11.63ZM13.33 13.2H14.07L13.7 12.56L13.33 13.2ZM11.31 13.2H12.69L13.38 12L12.69 10.8H11.31L10.62 12L11.31 13.2ZM9.93 13.2H10.67L10.3 12.56L9.93 13.2ZM13.33 10.8L13.7 11.44L14.07 10.8H13.33ZM9.93 10.8L10.3 11.44L10.67 10.8H9.93ZM11.63 10.25H12.37L12 9.61L11.63 10.25Z" fill="#0038B8"/>
</svg>
