<svg width="24" height="24" viewBox="0 0 24 24" fill="none" xmlns="http://www.w3.org/2000/svg">
<path d="M0 4H24V20H0V4Z" fill="#00ABC2"/>
<path d="M12.97 12.73C13.9475 12.73 14.74 11.9375 14.74 10.96C14.74 9.98246 13.9475 9.19 12.97 9.19C11.9925 9.19 11.2 9.98246 11.2 10.96C11.2 11.9375 11.9925 12.73 12.97 12.73Z" fill="#FFEC2D"/>
<path d="M12.97 8.94C13.08 8.94 13.12 8.87 13.12 8.79C13.12 8.68 12.97 8.18 12.97 8.18C12.97 8.18 12.82 8.68 12.82 8.79C12.82 8.87 12.86 8.94 12.97 8.94Z" fill="#FFEC2D"/>
<path d="M14.98 10.96C14.98 11.07 15.05 11.11 15.13 11.11C15.24 11.11 15.74 10.96 15.74 10.96C15.74 10.96 15.24 10.81 15.13 10.81C15.05 10.81 14.98 10.85 14.98 10.96Z" fill="#FFEC2D"/>
<path d="M12.97 12.97C12.86 12.97 12.82 13.04 12.82 13.12C12.82 13.23 12.97 13.73 12.97 13.73C12.97 13.73 13.12 13.23 13.12 13.12C13.12 13.04 13.08 12.97 12.97 12.97Z" fill="#FFEC2D"/>
<path d="M10.95 10.96C10.95 10.85 10.88 10.81 10.8 10.81C10.69 10.81 10.19 10.96 10.19 10.96C10.19 10.96 10.69 11.11 10.8 11.11C10.88 11.11 10.95 11.07 10.95 10.96Z" fill="#FFEC2D"/>
<path d="M13.74 9.09C13.84 9.13 13.9 9.09 13.93 9.01C13.97 8.91 14.03 8.39 14.03 8.39C14.03 8.39 13.7 8.8 13.66 8.9C13.63 8.97 13.64 9.05 13.74 9.09Z" fill="#FFEC2D"/>
<path d="M14.83 11.73C14.79 11.83 14.83 11.89 14.91 11.92C15.01 11.96 15.53 12.02 15.53 12.02C15.53 12.02 15.12 11.69 15.02 11.65C14.95 11.62 14.87 11.63 14.83 11.73Z" fill="#FFEC2D"/>
<path d="M12.19 12.82C12.09 12.78 12.03 12.82 12 12.9C11.96 13 11.9 13.52 11.9 13.52C11.9 13.52 12.23 13.11 12.27 13.01C12.3 12.94 12.29 12.86 12.19 12.82Z" fill="#FFEC2D"/>
<path d="M11.1 10.19C11.14 10.09 11.1 10.03 11.02 10C10.92 9.96 10.4 9.9 10.4 9.9C10.4 9.9 10.81 10.23 10.91 10.27C10.98 10.3 11.06 10.29 11.1 10.19Z" fill="#FFEC2D"/>
<path d="M14.39 9.53C14.47 9.6 14.54 9.59 14.6 9.53C14.67 9.46 14.93 9 14.93 9C14.93 9 14.47 9.25 14.4 9.33C14.34 9.39 14.32 9.46 14.4 9.54L14.39 9.53Z" fill="#FFEC2D"/>
<path d="M14.39 12.38C14.32 12.46 14.33 12.53 14.39 12.59C14.46 12.66 14.92 12.92 14.92 12.92C14.92 12.92 14.67 12.46 14.59 12.39C14.53 12.33 14.46 12.31 14.38 12.39L14.39 12.38Z" fill="#FFEC2D"/>
<path d="M11.54 12.38C11.46 12.31 11.39 12.32 11.33 12.38C11.26 12.45 11 12.91 11 12.91C11 12.91 11.46 12.66 11.53 12.58C11.59 12.52 11.61 12.45 11.53 12.37L11.54 12.38Z" fill="#FFEC2D"/>
<path d="M11.54 9.53C11.61 9.45 11.6 9.38 11.54 9.32C11.47 9.25 11.01 8.99 11.01 8.99C11.01 8.99 11.26 9.45 11.34 9.52C11.4 9.58 11.47 9.6 11.55 9.52L11.54 9.53Z" fill="#FFEC2D"/>
<path d="M14.83 10.19C14.87 10.29 14.95 10.3 15.02 10.27C15.12 10.23 15.53 9.9 15.53 9.9C15.53 9.9 15.01 9.96 14.91 10C14.84 10.03 14.79 10.09 14.83 10.19Z" fill="#FFEC2D"/>
<path d="M13.74 12.82C13.64 12.86 13.63 12.94 13.66 13.01C13.7 13.11 14.03 13.52 14.03 13.52C14.03 13.52 13.97 13 13.93 12.9C13.9 12.83 13.84 12.78 13.74 12.82Z" fill="#FFEC2D"/>
<path d="M11.1 11.73C11.06 11.63 10.98 11.62 10.91 11.65C10.81 11.69 10.4 12.02 10.4 12.02C10.4 12.02 10.92 11.96 11.02 11.92C11.09 11.89 11.14 11.83 11.1 11.73Z" fill="#FFEC2D"/>
<path d="M12.19 9.09C12.29 9.05 12.3 8.97 12.27 8.9C12.23 8.8 11.9 8.39 11.9 8.39C11.9 8.39 11.96 8.91 12 9.01C12.03 9.08 12.09 9.13 12.19 9.09Z" fill="#FFEC2D"/>
<path d="M13.36 8.98C13.46 9 13.52 8.94 13.53 8.86C13.55 8.76 13.51 8.24 13.51 8.24C13.51 8.24 13.27 8.7 13.25 8.81C13.23 8.89 13.26 8.96 13.36 8.98Z" fill="#FFEC2D"/>
<path d="M14.94 11.35C14.92 11.45 14.98 11.51 15.06 11.52C15.16 11.54 15.68 11.5 15.68 11.5C15.68 11.5 15.22 11.26 15.11 11.24C15.03 11.22 14.96 11.25 14.94 11.35Z" fill="#FFEC2D"/>
<path d="M12.57 12.93C12.47 12.91 12.41 12.97 12.4 13.05C12.38 13.15 12.42 13.67 12.42 13.67C12.42 13.67 12.66 13.21 12.68 13.1C12.7 13.02 12.67 12.95 12.57 12.93Z" fill="#FFEC2D"/>
<path d="M10.99 10.56C11.01 10.46 10.95 10.4 10.87 10.39C10.77 10.37 10.25 10.41 10.25 10.41C10.25 10.41 10.71 10.65 10.82 10.67C10.9 10.69 10.97 10.66 10.99 10.56Z" fill="#FFEC2D"/>
<path d="M14.09 9.28C14.18 9.34 14.25 9.3 14.29 9.24C14.35 9.15 14.51 8.65 14.51 8.65C14.51 8.65 14.11 8.99 14.05 9.07C14.01 9.14 14 9.21 14.09 9.27V9.28Z" fill="#FFEC2D"/>
<path d="M14.64 12.08C14.58 12.17 14.62 12.24 14.68 12.28C14.77 12.34 15.27 12.5 15.27 12.5C15.27 12.5 14.93 12.1 14.85 12.04C14.78 12 14.71 11.99 14.65 12.08H14.64Z" fill="#FFEC2D"/>
<path d="M11.85 12.63C11.76 12.57 11.69 12.61 11.65 12.67C11.59 12.76 11.43 13.26 11.43 13.26C11.43 13.26 11.83 12.92 11.89 12.84C11.93 12.77 11.94 12.7 11.85 12.64V12.63Z" fill="#FFEC2D"/>
<path d="M11.29 9.84C11.35 9.75 11.31 9.68 11.25 9.64C11.16 9.58 10.66 9.42 10.66 9.42C10.66 9.42 11 9.82 11.08 9.88C11.15 9.92 11.22 9.93 11.28 9.84H11.29Z" fill="#FFEC2D"/>
<path d="M14.64 9.84C14.7 9.93 14.78 9.92 14.84 9.88C14.93 9.82 15.26 9.42 15.26 9.42C15.26 9.42 14.76 9.58 14.67 9.64C14.6 9.68 14.57 9.75 14.63 9.84H14.64Z" fill="#FFEC2D"/>
<path d="M14.09 12.63C14 12.69 14.01 12.77 14.05 12.83C14.11 12.92 14.51 13.25 14.51 13.25C14.51 13.25 14.35 12.75 14.29 12.66C14.25 12.59 14.18 12.56 14.09 12.62V12.63Z" fill="#FFEC2D"/>
<path d="M11.29 12.08C11.23 11.99 11.15 12 11.09 12.04C11 12.1 10.67 12.5 10.67 12.5C10.67 12.5 11.17 12.34 11.26 12.28C11.33 12.24 11.36 12.17 11.3 12.08H11.29Z" fill="#FFEC2D"/>
<path d="M11.85 9.28C11.94 9.22 11.93 9.14 11.89 9.08C11.83 8.99 11.43 8.66 11.43 8.66C11.43 8.66 11.59 9.16 11.65 9.25C11.69 9.32 11.76 9.35 11.85 9.29V9.28Z" fill="#FFEC2D"/>
<path d="M14.94 10.56C14.96 10.66 15.03 10.69 15.11 10.67C15.21 10.65 15.68 10.41 15.68 10.41C15.68 10.41 15.16 10.37 15.06 10.39C14.98 10.41 14.92 10.46 14.94 10.56Z" fill="#FFEC2D"/>
<path d="M13.36 12.93C13.26 12.95 13.23 13.02 13.25 13.1C13.27 13.2 13.51 13.67 13.51 13.67C13.51 13.67 13.55 13.15 13.53 13.05C13.51 12.97 13.46 12.91 13.36 12.93Z" fill="#FFEC2D"/>
<path d="M10.99 11.35C10.97 11.25 10.9 11.22 10.82 11.24C10.72 11.26 10.25 11.5 10.25 11.5C10.25 11.5 10.77 11.54 10.87 11.52C10.95 11.5 11.01 11.45 10.99 11.35Z" fill="#FFEC2D"/>
<path d="M12.57 8.98C12.67 8.96 12.7 8.89 12.68 8.81C12.66 8.71 12.42 8.24 12.42 8.24C12.42 8.24 12.38 8.76 12.4 8.86C12.42 8.94 12.47 9 12.57 8.98Z" fill="#FFEC2D"/>
<path d="M12.65 14.8C12.65 14.8 12.56 14.8 12.51 14.82C12.45 14.82 12.39 14.85 12.33 14.86H12.31H12.27C12.27 14.87 12.27 14.88 12.27 14.89C12.27 14.9 12.27 14.91 12.27 14.92C12.27 14.92 12.26 14.94 12.25 14.95C12.25 14.95 12.23 14.97 12.22 14.97C12.21 14.97 12.2 14.97 12.19 14.97C12.18 14.97 12.17 14.97 12.15 14.97C12.14 14.97 12.13 14.96 12.12 14.95C12.11 14.95 12.1 14.95 12.08 14.95C12.07 14.95 12.06 14.95 12.05 14.95C12.04 14.95 12.02 14.95 12.01 14.94C12 14.94 11.99 14.93 11.98 14.92C11.94 14.95 11.89 14.97 11.86 15.02C11.84 15.04 11.84 15.07 11.84 15.09C11.84 15.12 11.84 15.15 11.86 15.18C11.86 15.18 11.86 15.15 11.88 15.14C11.91 15.12 11.94 15.1 11.97 15.1C12 15.09 11.99 15.1 11.98 15.12C11.98 15.13 11.96 15.17 11.98 15.15C12.07 15.11 12.17 15.1 12.26 15.1C12.4 15.09 12.54 15.08 12.68 15.08H13.08C13.14 15.09 13.21 15.1 13.27 15.09C13.28 15.09 13.31 15.09 13.32 15.08C13.29 15.06 13.26 15.06 13.23 15.06H12.98C12.91 15.06 12.84 15.06 12.77 15.03C12.75 15.03 12.74 15.01 12.72 15.03C12.69 15.03 12.67 15.04 12.64 15.05C12.59 15.05 12.55 15.05 12.51 15.03C12.54 14.99 12.58 14.95 12.61 14.91C12.58 14.91 12.56 14.9 12.53 14.89C12.58 14.86 12.62 14.82 12.67 14.78L12.65 14.8Z" fill="#FFEC2D"/>
<path d="M14.7 15.26C14.6 15.32 14.53 15.22 14.45 15.19C14.39 15.22 14.39 15.32 14.33 15.37C14.27 15.44 14.19 15.35 14.19 15.28C14.11 15.34 14.08 15.49 13.95 15.47C13.89 15.42 13.85 15.32 13.8 15.44C13.76 15.5 13.67 15.57 13.62 15.49C13.6 15.42 13.57 15.33 13.53 15.45C13.5 15.53 13.41 15.59 13.33 15.56C13.28 15.52 13.37 15.38 13.31 15.39C13.22 15.45 13.17 15.6 13.04 15.58C12.99 15.53 13.07 15.43 13.02 15.37C12.96 15.45 12.89 15.57 12.78 15.58C12.73 15.54 12.78 15.42 12.75 15.4C12.64 15.47 12.52 15.59 12.38 15.55C12.43 15.34 12.66 15.27 12.86 15.25C13.19 15.21 13.54 15.28 13.86 15.16C13.91 15.13 14.04 15.08 13.99 15.01C13.95 14.95 14.09 14.98 14.11 14.91C14.11 14.83 14.17 14.84 14.25 14.83C14.57 14.82 14.89 14.88 15.21 14.9C15.23 15.06 15.06 15.17 14.92 15.12C14.85 15.13 14.75 14.97 14.77 15.09C14.76 15.15 14.77 15.24 14.71 15.28M11.97 14.94C12.04 15.01 12.1 14.93 12.17 14.9C12.4 14.82 12.61 14.68 12.81 14.54C12.93 14.44 13.04 14.31 13.2 14.28C13.52 14.18 13.86 14.2 14.18 14.11C14.42 13.78 14.84 13.66 15.18 13.47C15.26 13.45 15.29 13.38 15.31 13.31C15.44 13.1 15.62 12.92 15.84 12.79C15.94 12.73 16.06 12.7 16.18 12.73C16.18 12.87 16.09 12.99 16 13.08C16.08 13.08 16.14 13.03 16.22 13.03C16.25 13.17 16.1 13.24 16.02 13.33C16.06 13.34 16.24 13.35 16.14 13.4C16.02 13.48 15.89 13.54 15.78 13.63C15.88 13.65 15.89 13.67 15.78 13.71C15.72 13.75 15.62 13.76 15.61 13.83C15.69 13.88 15.57 13.92 15.53 13.94C15.45 13.96 15.36 13.99 15.47 14.06C15.43 14.12 15.34 14.14 15.27 14.13C15.29 14.2 15.32 14.28 15.23 14.31C15.02 14.47 14.78 14.58 14.52 14.6C14.84 14.62 15.18 14.56 15.45 14.39C15.49 14.35 15.68 14.3 15.57 14.26C15.52 14.24 15.41 14.22 15.4 14.18C15.55 14.09 15.74 14.12 15.9 14.07C15.9 14.02 15.78 14.03 15.73 14.02C15.62 14.02 15.62 13.98 15.73 13.97C15.87 13.93 16.02 13.93 16.14 13.84C16.05 13.8 15.93 13.84 15.83 13.8C16 13.73 16.2 13.72 16.35 13.61C16.42 13.53 16.26 13.56 16.21 13.56C16.12 13.58 16.07 13.53 16.18 13.49C16.36 13.36 16.59 13.27 16.72 13.07C16.75 13.03 16.79 12.89 16.69 12.94C16.56 12.98 16.45 13.13 16.3 13.08C16.59 12.86 16.86 12.61 17.06 12.3C17.07 12.21 16.93 12.2 16.89 12.27C16.71 12.45 16.54 12.66 16.3 12.77C16.53 12.55 16.71 12.29 16.88 12.03C16.91 11.95 17.01 11.85 16.96 11.77C16.88 11.7 16.78 11.77 16.73 11.85C16.59 12.04 16.48 12.25 16.29 12.41C16.45 12.1 16.62 11.78 16.62 11.42C16.62 11.35 16.6 11.24 16.51 11.25C16.43 11.26 16.45 11.38 16.42 11.44C16.35 11.68 16.32 11.94 16.17 12.16C16.2 11.96 16.26 11.76 16.22 11.56C16.2 11.47 16.06 11.51 16.07 11.6C15.9 12.47 15.32 13.23 14.55 13.67C14.2 13.87 13.81 13.99 13.41 14.05C13.3 14.07 13.19 14.05 13.09 14.1C12.84 14.29 12.69 14.61 12.38 14.71C12.24 14.78 12.06 14.79 11.96 14.92C11.96 14.94 11.95 14.96 11.95 14.97" fill="#FFEC2D"/>
<path d="M12.9 14.06C12.85 14.14 12.83 14.24 12.77 14.32C12.59 14.16 12.33 14.16 12.11 14.15C11.92 14.15 11.72 14.12 11.58 13.99C11.43 13.87 11.3 13.7 11.13 13.6C10.97 13.56 10.82 13.51 10.69 13.4C10.42 13.18 10.27 12.86 10.01 12.64C9.96 12.59 9.9 12.55 9.85 12.51C9.8 12.52 9.82 12.64 9.76 12.58C9.72 12.55 9.64 12.55 9.63 12.58C9.71 12.68 9.79 12.8 9.8 12.94C9.75 12.94 9.65 12.93 9.62 12.94C9.69 13.05 9.78 13.14 9.89 13.22C9.84 13.22 9.74 13.22 9.72 13.24C9.82 13.32 9.94 13.41 10.07 13.43C10.1 13.47 10.03 13.54 10.09 13.57C10.12 13.58 10.23 13.61 10.16 13.64C10.11 13.68 10.13 13.76 10.19 13.76C10.23 13.78 10.33 13.79 10.33 13.82C10.29 13.86 10.18 13.9 10.28 13.94C10.37 13.99 10.48 14.02 10.58 14.03C10.53 14.07 10.46 14.1 10.41 14.14C10.65 14.28 10.93 14.38 11.19 14.47C11.3 14.51 11.4 14.54 11.52 14.56C11.2 14.54 10.89 14.45 10.6 14.32C10.45 14.25 10.3 14.19 10.14 14.13C10.21 14.09 10.29 14.09 10.36 14.06C10.21 14.03 10.05 14.02 9.92 13.94C9.94 13.9 10.01 13.9 10.06 13.89C10.14 13.87 10.19 13.85 10.08 13.84C9.97 13.81 9.84 13.82 9.74 13.76C9.74 13.72 9.85 13.73 9.89 13.72C9.94 13.72 10 13.7 10.04 13.67C9.87 13.6 9.64 13.65 9.51 13.5C9.48 13.44 9.61 13.49 9.64 13.48C9.73 13.48 9.83 13.51 9.92 13.48C9.67 13.37 9.4 13.27 9.21 13.07C9.19 13.04 9.13 12.95 9.18 12.94C9.33 12.96 9.44 13.12 9.59 13.1C9.61 13.07 9.5 13.03 9.47 12.98C9.24 12.78 9.01 12.57 8.85 12.31C8.84 12.22 8.98 12.21 9.01 12.28C9.19 12.45 9.35 12.65 9.57 12.77C9.65 12.81 9.53 12.73 9.51 12.7C9.31 12.46 9.11 12.21 8.97 11.94C8.94 11.89 8.9 11.8 8.97 11.77C9.05 11.73 9.12 11.78 9.16 11.85C9.31 12.04 9.42 12.26 9.61 12.42C9.45 12.11 9.28 11.79 9.28 11.43C9.28 11.36 9.28 11.26 9.38 11.26C9.46 11.25 9.45 11.35 9.47 11.4C9.55 11.66 9.58 11.94 9.74 12.17C9.71 11.98 9.66 11.78 9.69 11.58C9.69 11.52 9.77 11.5 9.82 11.53C9.86 11.62 9.87 11.74 9.9 11.84C10.1 12.52 10.54 13.12 11.13 13.52C11.61 13.85 12.18 14.04 12.76 14.08C12.81 14.08 12.86 14.08 12.92 14.08" fill="#FFEC2D"/>
<path d="M12.24 14.68C12.2566 14.68 12.27 14.6666 12.27 14.65C12.27 14.6334 12.2566 14.62 12.24 14.62C12.2234 14.62 12.21 14.6334 12.21 14.65C12.21 14.6666 12.2234 14.68 12.24 14.68Z" fill="#FFEC2D"/>
<path d="M12.24 14.66C12.2455 14.66 12.25 14.6555 12.25 14.65C12.25 14.6445 12.2455 14.64 12.24 14.64C12.2345 14.64 12.23 14.6445 12.23 14.65C12.23 14.6555 12.2345 14.66 12.24 14.66Z" fill="#FFEC2D"/>
<path d="M2.77 9.97C2.83 9.84 2.86 9.76 2.86 9.62C2.86 9.39 2.71 9.22 2.42 9.21C2.7 9.2 2.86 9.02 2.86 8.8C2.86 8.67 2.84 8.58 2.77 8.45L2.07 7.01C2.05 6.96 2.04 6.9 2.04 6.82C2.04 6.69 2.17 6.58 2.3 6.58C2.42 6.58 2.55 6.69 2.55 6.82C2.55 6.98 2.47 7.05 2.38 7.05C2.28 7.05 2.23 7.01 2.23 6.93C2.23 6.88 2.25 6.86 2.29 6.86C2.38 6.86 2.35 6.98 2.35 6.98C2.39 6.98 2.43 6.92 2.41 6.87C2.44 6.87 2.47 6.84 2.5 6.82C2.48 6.8 2.45 6.78 2.41 6.77C2.43 6.7 2.41 6.67 2.34 6.65C2.35 6.68 2.35 6.7 2.34 6.72C2.24 6.69 2.1 6.74 2.1 6.9C2.1 7.06 2.21 7.2 2.43 7.17C2.38 7.19 2.35 7.24 2.35 7.3C2.39 7.28 2.43 7.28 2.43 7.28C2.41 7.32 2.37 7.36 2.37 7.45C2.41 7.43 2.45 7.4 2.5 7.42C2.42 7.58 2.52 7.79 2.77 7.84C2.68 7.73 2.63 7.62 2.63 7.5C2.63 7.13 2.73 7.07 2.73 6.81C2.73 6.7 2.67 6.59 2.57 6.51C2.64 6.49 2.69 6.46 2.71 6.41C2.66 6.34 2.63 6.32 2.54 6.32C2.63 6.27 2.73 6.17 2.73 6C2.73 5.75 2.63 5.64 2.63 5.35C2.63 5.19 2.76 4.99 2.76 4.99C2.53 5.01 2.42 5.23 2.48 5.4C2.44 5.4 2.41 5.4 2.38 5.37C2.36 5.42 2.38 5.47 2.43 5.52C2.4 5.54 2.38 5.52 2.33 5.52C2.33 5.57 2.36 5.62 2.43 5.67C2.22 5.62 2.1 5.76 2.1 5.91C2.1 6.02 2.18 6.11 2.26 6.11C2.29 6.11 2.32 6.1 2.34 6.08C2.35 6.11 2.34 6.15 2.34 6.18C2.4 6.16 2.43 6.13 2.41 6.06C2.45 6.06 2.49 6.04 2.51 6.01C2.49 5.98 2.45 5.96 2.41 5.96C2.44 5.89 2.41 5.86 2.35 5.83C2.35 5.83 2.38 5.96 2.3 5.96C2.26 5.96 2.23 5.95 2.23 5.89C2.23 5.84 2.27 5.77 2.37 5.78C2.47 5.78 2.55 5.85 2.55 6.01C2.55 6.16 2.43 6.23 2.28 6.23C2.14 6.23 2.04 6.16 2.04 6.02C2.04 5.83 2.32 5.39 2.32 5.22C2.32 5.09 2.21 5.02 2.09 5.02C2.02 5.02 1.96 5.05 1.91 5.09C1.86 5.06 1.8 5.02 1.73 5.02C1.62 5.02 1.5 5.09 1.5 5.22C1.5 5.39 1.78 5.83 1.78 6.02C1.78 6.16 1.67 6.24 1.54 6.23C1.39 6.23 1.27 6.15 1.27 6.01C1.27 5.85 1.35 5.79 1.45 5.78C1.55 5.78 1.59 5.84 1.59 5.89C1.59 5.95 1.56 5.96 1.52 5.96C1.44 5.96 1.47 5.83 1.47 5.83C1.42 5.86 1.38 5.9 1.41 5.96C1.37 5.96 1.33 5.98 1.31 6.01C1.33 6.04 1.37 6.05 1.41 6.06C1.38 6.13 1.42 6.16 1.48 6.18C1.46 6.15 1.46 6.11 1.48 6.08C1.5 6.1 1.54 6.11 1.56 6.11C1.64 6.11 1.72 6.03 1.72 5.91C1.72 5.76 1.59 5.61 1.39 5.67C1.46 5.62 1.49 5.57 1.49 5.52C1.44 5.52 1.42 5.54 1.39 5.52C1.43 5.47 1.45 5.42 1.44 5.37C1.41 5.4 1.38 5.41 1.34 5.4C1.41 5.23 1.29 5.02 1.06 4.99C1.06 4.99 1.19 5.19 1.19 5.35C1.19 5.64 1.09 5.74 1.09 6C1.09 6.16 1.19 6.27 1.28 6.32C1.2 6.32 1.16 6.35 1.11 6.41C1.14 6.46 1.18 6.49 1.25 6.51C1.14 6.59 1.09 6.7 1.09 6.81C1.09 7.07 1.19 7.13 1.19 7.5C1.19 7.61 1.15 7.73 1.05 7.84C1.3 7.79 1.4 7.57 1.32 7.42C1.37 7.4 1.41 7.43 1.45 7.45C1.45 7.36 1.42 7.33 1.39 7.28C1.39 7.28 1.43 7.28 1.47 7.3C1.47 7.24 1.44 7.2 1.39 7.17C1.6 7.2 1.72 7.07 1.72 6.9C1.72 6.73 1.57 6.69 1.48 6.72C1.48 6.7 1.48 6.67 1.48 6.65C1.42 6.66 1.39 6.7 1.41 6.77C1.37 6.77 1.35 6.79 1.32 6.82C1.34 6.85 1.37 6.86 1.41 6.87C1.39 6.93 1.43 6.97 1.47 6.98C1.47 6.98 1.44 6.86 1.53 6.86C1.57 6.86 1.59 6.88 1.59 6.93C1.59 7 1.55 7.05 1.44 7.05C1.36 7.05 1.27 6.98 1.27 6.82C1.27 6.69 1.4 6.57 1.52 6.58C1.65 6.58 1.78 6.69 1.78 6.82C1.78 6.9 1.78 6.96 1.75 7.01L1.05 8.45C0.989999 8.58 0.959999 8.66 0.959999 8.8C0.959999 9.03 1.11 9.2 1.4 9.21C1.12 9.22 0.959999 9.4 0.959999 9.62C0.959999 9.75 0.979999 9.84 1.05 9.97L1.75 11.41C1.77 11.46 1.78 11.52 1.78 11.6C1.78 11.73 1.65 11.84 1.52 11.84C1.4 11.84 1.27 11.73 1.27 11.6C1.27 11.44 1.35 11.37 1.44 11.37C1.54 11.37 1.59 11.41 1.59 11.49C1.59 11.54 1.57 11.56 1.53 11.56C1.44 11.56 1.47 11.44 1.47 11.44C1.43 11.44 1.39 11.5 1.41 11.55C1.38 11.55 1.35 11.58 1.32 11.6C1.34 11.62 1.37 11.64 1.41 11.65C1.39 11.72 1.41 11.75 1.48 11.77C1.47 11.74 1.47 11.72 1.48 11.7C1.58 11.73 1.72 11.68 1.72 11.52C1.72 11.36 1.61 11.22 1.39 11.25C1.44 11.23 1.47 11.18 1.47 11.12C1.43 11.14 1.39 11.14 1.39 11.14C1.41 11.1 1.45 11.06 1.45 10.97C1.41 10.99 1.37 11.02 1.32 11C1.4 10.84 1.3 10.63 1.05 10.58C1.14 10.69 1.19 10.8 1.19 10.92C1.19 11.29 1.09 11.35 1.09 11.61C1.09 11.72 1.15 11.83 1.25 11.91C1.18 11.93 1.13 11.96 1.11 12.01C1.14 12.06 1.18 12.09 1.25 12.11C1.14 12.19 1.09 12.3 1.09 12.41C1.09 12.67 1.19 12.73 1.19 13.1C1.19 13.21 1.15 13.33 1.05 13.44C1.3 13.39 1.4 13.17 1.32 13.02C1.37 13 1.41 13.03 1.45 13.05C1.45 12.96 1.42 12.93 1.39 12.88C1.39 12.88 1.43 12.88 1.47 12.9C1.47 12.84 1.44 12.8 1.39 12.77C1.6 12.8 1.72 12.67 1.72 12.5C1.72 12.33 1.57 12.29 1.48 12.32C1.48 12.3 1.48 12.27 1.48 12.25C1.42 12.26 1.39 12.3 1.41 12.37C1.37 12.37 1.35 12.39 1.32 12.42C1.34 12.45 1.37 12.46 1.41 12.47C1.39 12.53 1.43 12.57 1.47 12.58C1.47 12.58 1.44 12.46 1.53 12.46C1.57 12.46 1.59 12.48 1.59 12.53C1.59 12.6 1.55 12.65 1.44 12.65C1.36 12.65 1.27 12.58 1.27 12.42C1.27 12.29 1.4 12.17 1.52 12.18C1.65 12.18 1.78 12.29 1.78 12.42C1.78 12.5 1.78 12.56 1.75 12.61L1.05 14.05C0.989999 14.18 0.959999 14.26 0.959999 14.4C0.959999 14.63 1.11 14.8 1.4 14.81C1.12 14.82 0.959999 15 0.959999 15.22C0.959999 15.35 0.979999 15.44 1.05 15.57L1.75 17.01C1.77 17.06 1.78 17.12 1.78 17.2C1.78 17.33 1.65 17.44 1.52 17.44C1.4 17.44 1.27 17.33 1.27 17.2C1.27 17.04 1.35 16.97 1.44 16.97C1.54 16.97 1.59 17.01 1.59 17.09C1.59 17.14 1.57 17.16 1.53 17.16C1.44 17.16 1.47 17.04 1.47 17.04C1.43 17.04 1.39 17.1 1.41 17.15C1.38 17.15 1.35 17.18 1.32 17.2C1.34 17.22 1.37 17.24 1.41 17.25C1.39 17.32 1.41 17.35 1.48 17.37C1.47 17.34 1.47 17.32 1.48 17.3C1.58 17.33 1.72 17.28 1.72 17.12C1.72 16.96 1.61 16.82 1.39 16.85C1.44 16.83 1.47 16.78 1.47 16.72C1.43 16.74 1.39 16.74 1.39 16.74C1.41 16.7 1.45 16.66 1.45 16.57C1.41 16.59 1.37 16.62 1.32 16.6C1.4 16.44 1.3 16.23 1.05 16.18C1.14 16.29 1.19 16.4 1.19 16.52C1.19 16.89 1.09 16.95 1.09 17.21C1.09 17.32 1.15 17.43 1.25 17.51C1.18 17.53 1.13 17.56 1.11 17.61C1.16 17.68 1.19 17.7 1.28 17.7C1.19 17.75 1.09 17.85 1.09 18.02C1.09 18.27 1.19 18.38 1.19 18.67C1.19 18.83 1.06 19.03 1.06 19.03C1.29 19.01 1.4 18.79 1.34 18.62C1.38 18.62 1.41 18.62 1.44 18.65C1.46 18.6 1.44 18.55 1.39 18.5C1.42 18.48 1.44 18.5 1.49 18.5C1.49 18.45 1.46 18.4 1.39 18.35C1.6 18.4 1.72 18.26 1.72 18.11C1.72 18 1.64 17.91 1.56 17.91C1.53 17.91 1.5 17.92 1.48 17.94C1.47 17.91 1.48 17.87 1.48 17.84C1.42 17.86 1.39 17.89 1.41 17.96C1.37 17.96 1.33 17.98 1.31 18.01C1.33 18.04 1.37 18.06 1.41 18.06C1.38 18.13 1.41 18.16 1.47 18.19C1.47 18.19 1.44 18.06 1.52 18.06C1.56 18.06 1.59 18.07 1.59 18.13C1.59 18.18 1.55 18.25 1.45 18.24C1.35 18.24 1.27 18.17 1.27 18.01C1.27 17.86 1.39 17.79 1.54 17.79C1.68 17.79 1.78 17.86 1.78 18C1.78 18.19 1.5 18.63 1.5 18.8C1.5 18.93 1.61 19 1.73 19C1.8 19 1.86 18.97 1.91 18.93C1.96 18.96 2.02 19 2.09 19C2.2 19 2.32 18.93 2.32 18.8C2.32 18.63 2.04 18.19 2.04 18C2.04 17.86 2.15 17.78 2.28 17.79C2.43 17.79 2.55 17.87 2.55 18.01C2.55 18.17 2.47 18.23 2.37 18.24C2.27 18.24 2.23 18.18 2.23 18.13C2.23 18.07 2.26 18.06 2.3 18.06C2.38 18.06 2.35 18.19 2.35 18.19C2.4 18.16 2.44 18.12 2.41 18.06C2.45 18.06 2.49 18.04 2.51 18.01C2.49 17.98 2.45 17.97 2.41 17.96C2.44 17.89 2.4 17.86 2.34 17.84C2.36 17.87 2.36 17.91 2.34 17.94C2.32 17.92 2.28 17.91 2.26 17.91C2.18 17.91 2.1 17.99 2.1 18.11C2.1 18.26 2.23 18.41 2.43 18.35C2.36 18.4 2.33 18.45 2.33 18.5C2.38 18.5 2.4 18.48 2.43 18.5C2.39 18.55 2.37 18.6 2.38 18.65C2.41 18.62 2.44 18.61 2.48 18.62C2.41 18.79 2.53 19 2.76 19.03C2.76 19.03 2.63 18.83 2.63 18.67C2.63 18.38 2.73 18.28 2.73 18.02C2.73 17.86 2.63 17.75 2.54 17.7C2.62 17.7 2.66 17.67 2.71 17.61C2.68 17.56 2.64 17.53 2.57 17.51C2.68 17.43 2.73 17.32 2.73 17.21C2.73 16.95 2.63 16.89 2.63 16.52C2.63 16.41 2.67 16.29 2.77 16.18C2.52 16.23 2.42 16.45 2.5 16.6C2.45 16.62 2.41 16.59 2.37 16.57C2.37 16.66 2.4 16.69 2.43 16.74C2.43 16.74 2.39 16.74 2.35 16.72C2.35 16.78 2.38 16.82 2.43 16.85C2.22 16.82 2.1 16.95 2.1 17.12C2.1 17.29 2.25 17.33 2.34 17.3C2.34 17.32 2.34 17.35 2.34 17.37C2.4 17.36 2.43 17.32 2.41 17.25C2.45 17.25 2.47 17.23 2.5 17.2C2.48 17.17 2.45 17.16 2.41 17.15C2.43 17.09 2.39 17.05 2.35 17.04C2.35 17.04 2.38 17.16 2.29 17.16C2.25 17.16 2.23 17.14 2.23 17.09C2.23 17.02 2.27 16.97 2.38 16.97C2.46 16.97 2.55 17.04 2.55 17.2C2.55 17.33 2.42 17.45 2.3 17.44C2.17 17.44 2.04 17.33 2.04 17.2C2.04 17.12 2.04 17.06 2.07 17.01L2.77 15.57C2.83 15.44 2.86 15.36 2.86 15.22C2.86 14.99 2.71 14.82 2.42 14.81C2.7 14.8 2.86 14.62 2.86 14.4C2.86 14.27 2.84 14.18 2.77 14.05L2.07 12.61C2.05 12.56 2.04 12.5 2.04 12.42C2.04 12.29 2.17 12.18 2.3 12.18C2.42 12.18 2.55 12.29 2.55 12.42C2.55 12.58 2.47 12.65 2.38 12.65C2.28 12.65 2.23 12.61 2.23 12.53C2.23 12.48 2.25 12.46 2.29 12.46C2.38 12.46 2.35 12.58 2.35 12.58C2.39 12.58 2.43 12.52 2.41 12.47C2.44 12.47 2.47 12.44 2.5 12.42C2.48 12.4 2.45 12.38 2.41 12.37C2.43 12.3 2.41 12.27 2.34 12.25C2.35 12.28 2.35 12.3 2.34 12.32C2.24 12.29 2.1 12.34 2.1 12.5C2.1 12.66 2.21 12.8 2.43 12.77C2.38 12.79 2.35 12.84 2.35 12.9C2.39 12.88 2.43 12.88 2.43 12.88C2.41 12.92 2.37 12.96 2.37 13.05C2.41 13.03 2.45 13 2.5 13.02C2.42 13.18 2.52 13.39 2.77 13.44C2.68 13.33 2.63 13.22 2.63 13.1C2.63 12.73 2.73 12.67 2.73 12.41C2.73 12.3 2.67 12.19 2.57 12.11C2.64 12.09 2.69 12.06 2.71 12.01C2.68 11.96 2.64 11.93 2.57 11.91C2.68 11.83 2.73 11.72 2.73 11.61C2.73 11.35 2.63 11.29 2.63 10.92C2.63 10.81 2.67 10.69 2.77 10.58C2.52 10.63 2.42 10.85 2.5 11C2.45 11.02 2.41 10.99 2.37 10.97C2.37 11.06 2.4 11.09 2.43 11.14C2.43 11.14 2.39 11.14 2.35 11.12C2.35 11.18 2.38 11.22 2.43 11.25C2.22 11.22 2.1 11.35 2.1 11.52C2.1 11.69 2.25 11.73 2.34 11.7C2.34 11.72 2.34 11.75 2.34 11.77C2.4 11.76 2.43 11.72 2.41 11.65C2.45 11.65 2.47 11.63 2.5 11.6C2.48 11.57 2.45 11.56 2.41 11.55C2.43 11.49 2.39 11.45 2.35 11.44C2.35 11.44 2.38 11.56 2.29 11.56C2.25 11.56 2.23 11.54 2.23 11.49C2.23 11.42 2.27 11.37 2.38 11.37C2.46 11.37 2.55 11.44 2.55 11.6C2.55 11.73 2.42 11.85 2.3 11.84C2.17 11.84 2.04 11.73 2.04 11.6C2.04 11.52 2.04 11.46 2.07 11.41L2.77 9.97ZM1.91 9.54C1.84 9.33 1.64 9.21 1.46 9.2C1.64 9.2 1.85 9.07 1.91 8.86C1.98 9.07 2.18 9.19 2.36 9.2C2.18 9.2 1.97 9.33 1.91 9.54ZM1.71 5.21C1.76 5.15 1.91 5.27 1.91 5.27C1.91 5.27 2.06 5.14 2.11 5.21C2.17 5.29 2 5.59 1.91 5.82C1.82 5.6 1.65 5.29 1.71 5.21ZM1.63 6.41C1.63 6.41 1.6 6.41 1.58 6.41C1.73 6.38 1.85 6.33 1.91 6.21C1.97 6.32 2.1 6.38 2.24 6.41C2.23 6.41 2.2 6.41 2.19 6.41C2.04 6.43 1.94 6.54 1.91 6.6C1.88 6.54 1.78 6.43 1.63 6.41ZM1.15 8.77C1.15 8.69 1.17 8.62 1.2 8.56L1.91 7.06L2.62 8.56C2.65 8.63 2.67 8.7 2.67 8.77C2.67 8.96 2.5 9.03 2.4 9.03C2.28 9.03 2.16 8.94 2.16 8.83C2.16 8.76 2.2 8.72 2.25 8.72C2.38 8.72 2.38 8.83 2.35 8.9C2.43 8.86 2.48 8.8 2.47 8.73C2.52 8.73 2.56 8.7 2.6 8.65C2.57 8.61 2.53 8.58 2.47 8.58C2.5 8.47 2.42 8.42 2.35 8.4C2.37 8.48 2.39 8.57 2.25 8.57C2.15 8.57 2.07 8.59 2.03 8.65V8.22C2.01 8.09 2.19 8.1 2.3 8.13C2.26 7.98 2.17 7.9 1.97 7.92C2.02 7.9 2.07 7.85 2.07 7.77C2.07 7.65 1.97 7.52 1.91 7.48C1.85 7.52 1.75 7.65 1.75 7.77C1.75 7.86 1.8 7.9 1.85 7.92C1.65 7.9 1.56 7.98 1.52 8.13C1.63 8.09 1.81 8.09 1.8 8.22V8.65C1.74 8.59 1.67 8.57 1.57 8.57C1.43 8.57 1.45 8.48 1.47 8.4C1.4 8.43 1.33 8.47 1.35 8.58C1.29 8.58 1.25 8.61 1.22 8.65C1.26 8.7 1.31 8.72 1.35 8.73C1.34 8.8 1.39 8.87 1.47 8.9C1.44 8.83 1.44 8.72 1.57 8.72C1.63 8.72 1.66 8.76 1.66 8.83C1.66 8.94 1.54 9.03 1.42 9.03C1.32 9.03 1.15 8.96 1.15 8.77ZM1.91 14.46C1.98 14.67 2.18 14.79 2.36 14.8C2.18 14.8 1.97 14.93 1.91 15.14C1.84 14.93 1.64 14.81 1.46 14.8C1.64 14.8 1.85 14.67 1.91 14.46ZM2.11 18.79C2.06 18.85 1.91 18.73 1.91 18.73C1.91 18.73 1.76 18.86 1.71 18.79C1.65 18.71 1.82 18.41 1.91 18.18C2 18.4 2.17 18.71 2.11 18.79ZM2.19 17.59C2.19 17.59 2.22 17.59 2.24 17.59C2.09 17.62 1.97 17.67 1.91 17.79C1.85 17.68 1.72 17.62 1.58 17.59C1.59 17.59 1.62 17.59 1.63 17.59C1.78 17.57 1.88 17.46 1.91 17.4C1.94 17.46 2.04 17.57 2.19 17.59ZM2.67 15.23C2.67 15.31 2.65 15.38 2.62 15.44L1.91 16.94L1.2 15.44C1.17 15.37 1.15 15.3 1.15 15.23C1.15 15.04 1.32 14.97 1.42 14.97C1.54 14.97 1.66 15.06 1.66 15.17C1.66 15.24 1.62 15.28 1.57 15.28C1.44 15.28 1.44 15.17 1.47 15.1C1.39 15.14 1.34 15.2 1.35 15.27C1.3 15.27 1.26 15.3 1.22 15.35C1.25 15.39 1.29 15.42 1.35 15.42C1.32 15.53 1.4 15.58 1.47 15.6C1.45 15.52 1.43 15.43 1.57 15.43C1.67 15.43 1.75 15.41 1.79 15.35V15.78C1.81 15.91 1.63 15.9 1.52 15.87C1.56 16.02 1.65 16.1 1.85 16.08C1.8 16.1 1.75 16.15 1.75 16.23C1.75 16.35 1.85 16.48 1.91 16.52C1.97 16.48 2.07 16.35 2.07 16.23C2.07 16.14 2.02 16.1 1.97 16.08C2.17 16.1 2.26 16.02 2.3 15.87C2.19 15.91 2.01 15.91 2.02 15.78V15.35C2.08 15.41 2.15 15.43 2.25 15.43C2.39 15.43 2.37 15.52 2.35 15.6C2.42 15.57 2.49 15.53 2.47 15.42C2.53 15.42 2.57 15.39 2.6 15.35C2.56 15.3 2.51 15.28 2.47 15.27C2.48 15.2 2.44 15.13 2.35 15.1C2.38 15.17 2.38 15.28 2.25 15.28C2.19 15.28 2.16 15.24 2.16 15.17C2.16 15.06 2.28 14.97 2.4 14.97C2.5 14.97 2.67 15.04 2.67 15.23ZM2.62 14.15C2.65 14.22 2.67 14.29 2.67 14.36C2.67 14.55 2.5 14.62 2.4 14.62C2.28 14.62 2.16 14.53 2.16 14.42C2.16 14.35 2.2 14.31 2.25 14.31C2.38 14.31 2.38 14.42 2.35 14.49C2.43 14.45 2.48 14.39 2.47 14.32C2.52 14.32 2.56 14.29 2.6 14.24C2.57 14.2 2.53 14.17 2.47 14.17C2.5 14.06 2.42 14.01 2.35 13.99C2.37 14.07 2.39 14.16 2.25 14.16C2.15 14.16 2.07 14.18 2.03 14.24V13.81C2.01 13.68 2.19 13.69 2.3 13.72C2.26 13.57 2.17 13.49 1.97 13.51C2.02 13.49 2.07 13.44 2.07 13.36C2.07 13.24 1.97 13.11 1.91 13.07C1.85 13.11 1.75 13.24 1.75 13.36C1.75 13.45 1.8 13.49 1.85 13.51C1.65 13.49 1.56 13.57 1.52 13.72C1.63 13.68 1.81 13.68 1.8 13.81V14.24C1.74 14.18 1.67 14.16 1.57 14.16C1.43 14.16 1.45 14.07 1.47 13.99C1.4 14.02 1.33 14.06 1.35 14.17C1.29 14.17 1.25 14.2 1.22 14.24C1.26 14.29 1.31 14.31 1.35 14.32C1.34 14.39 1.39 14.46 1.47 14.49C1.44 14.42 1.44 14.31 1.57 14.31C1.63 14.31 1.66 14.35 1.66 14.42C1.66 14.53 1.54 14.62 1.42 14.62C1.32 14.62 1.15 14.55 1.15 14.36C1.15 14.28 1.17 14.21 1.2 14.15L1.91 12.65L2.62 14.15ZM2.19 12C2.19 12 2.21 12 2.22 12C2.22 12 2.2 12 2.19 12C2.04 12.02 1.94 12.13 1.91 12.19C1.88 12.13 1.78 12.02 1.63 12C1.63 12 1.61 12 1.6 12C1.6 12 1.62 12 1.63 12C1.78 11.98 1.88 11.87 1.91 11.81C1.94 11.87 2.04 11.98 2.19 12ZM1.91 11.35L1.2 9.85C1.17 9.78 1.15 9.71 1.15 9.64C1.15 9.45 1.32 9.38 1.42 9.38C1.54 9.38 1.66 9.47 1.66 9.58C1.66 9.65 1.62 9.69 1.57 9.69C1.44 9.69 1.44 9.58 1.47 9.51C1.39 9.55 1.34 9.61 1.35 9.68C1.3 9.68 1.26 9.71 1.22 9.76C1.25 9.8 1.29 9.83 1.35 9.83C1.32 9.94 1.4 9.99 1.47 10.01C1.45 9.93 1.43 9.84 1.57 9.84C1.67 9.84 1.75 9.82 1.79 9.76V10.19C1.81 10.32 1.63 10.31 1.52 10.28C1.56 10.43 1.65 10.51 1.85 10.49C1.8 10.51 1.75 10.56 1.75 10.64C1.75 10.76 1.85 10.89 1.91 10.93C1.97 10.89 2.07 10.76 2.07 10.64C2.07 10.55 2.02 10.51 1.97 10.49C2.17 10.51 2.26 10.43 2.3 10.28C2.19 10.32 2.01 10.32 2.02 10.19V9.76C2.08 9.82 2.15 9.84 2.25 9.84C2.39 9.84 2.37 9.93 2.35 10.01C2.42 9.98 2.49 9.94 2.47 9.83C2.53 9.83 2.57 9.8 2.6 9.76C2.56 9.71 2.51 9.69 2.47 9.68C2.48 9.61 2.44 9.54 2.35 9.51C2.38 9.58 2.38 9.69 2.25 9.69C2.19 9.69 2.16 9.65 2.16 9.58C2.16 9.47 2.28 9.38 2.4 9.38C2.5 9.38 2.67 9.45 2.67 9.64C2.67 9.72 2.65 9.79 2.62 9.85L1.91 11.35Z" fill="#FFEC2D"/>
</svg>
