<svg width="24" height="24" viewBox="0 0 24 24" fill="none" xmlns="http://www.w3.org/2000/svg">
<path d="M0 4H24V20H0V4Z" fill="white"/>
<path d="M0 4H24V8.8H0V4Z" fill="black"/>
<path d="M0 15.2H24V20H0V15.2Z" fill="#006600"/>
<path d="M9.14001 16.75L9.31001 16.85L13.98 8.76C14.25 8.69 14.4 8.43 14.55 8.17C14.65 8 15.05 7.3 15.22 6.4C14.53 7 14.13 7.69 14.03 7.87C13.88 8.13 13.73 8.39 13.8 8.66L9.13 16.75H9.14001Z" fill="black" stroke="black" stroke-width="0.1" stroke-miterlimit="37.5"/>
<path d="M9.14001 16.75L9.31001 16.85L13.98 8.76C14.25 8.69 14.4 8.43 14.55 8.17C14.65 8 15.05 7.3 15.22 6.4C14.53 7 14.13 7.69 14.03 7.87C13.88 8.13 13.73 8.39 13.8 8.66L9.13 16.75H9.14001Z" fill="white"/>
<path d="M14.86 16.75L14.69 16.85L10.02 8.76C9.75 8.69 9.6 8.43 9.45 8.17C9.35 8 8.95 7.3 8.78 6.4C9.47 7 9.87 7.69 9.97 7.87C10.12 8.13 10.27 8.39 10.2 8.66L14.87 16.75H14.86Z" fill="black" stroke="black" stroke-width="0.1" stroke-miterlimit="37.5"/>
<path d="M14.86 16.75L14.69 16.85L10.02 8.76C9.75 8.69 9.6 8.43 9.45 8.17C9.35 8 8.95 7.3 8.78 6.4C9.47 7 9.87 7.69 9.97 7.87C10.12 8.13 10.27 8.39 10.2 8.66L14.87 16.75H14.86Z" fill="white"/>
<path d="M0 9.6V14.4H10.1C10.4 15.2 11.4 16.8 12 16.8C12.6 16.8 13.6 15.2 13.9 14.4H24V9.6H13.9C13.6 8.8 12.6 7.2 12 7.2C11.4 7.2 10.4 8.8 10.1 9.6H0Z" fill="#BB0000"/>
<path d="M13.9 14.4C14.2 13.6 14.4 12.8 14.4 12C14.4 11.2 14.2 10.4 13.9 9.6C13.6 10.4 13.4 11.2 13.4 12C13.4 12.8 13.6 13.6 13.9 14.4Z" fill="black"/>
<path d="M10.1 14.4C9.80001 13.6 9.60001 12.8 9.60001 12C9.60001 11.2 9.80001 10.4 10.1 9.6C10.4 10.4 10.6 11.2 10.6 12C10.6 12.8 10.4 13.6 10.1 14.4Z" fill="black"/>
<path d="M12 12.6C12.2209 12.6 12.4 12.3314 12.4 12C12.4 11.6686 12.2209 11.4 12 11.4C11.7791 11.4 11.6 11.6686 11.6 12C11.6 12.3314 11.7791 12.6 12 12.6Z" fill="white"/>
<path d="M12.1 12.58C12.1 12.58 12.5 13.38 12.5 14.68C12.5 15.98 12.1 16.78 12.1 16.78V12.58Z" fill="white"/>
<path d="M11.9 11.42C11.9 11.42 11.5 10.62 11.5 9.32C11.5 8.02 11.9 7.22 11.9 7.22V11.42Z" fill="white"/>
<path d="M11.9 12.58C11.9 12.58 11.5 13.38 11.5 14.68C11.5 15.98 11.9 16.78 11.9 16.78V12.58Z" fill="white"/>
<path d="M12.1 11.42C12.1 11.42 12.5 10.62 12.5 9.32C12.5 8.02 12.1 7.22 12.1 7.22V11.42Z" fill="white"/>
</svg>
