<svg width="24" height="24" viewBox="0 0 24 24" fill="none" xmlns="http://www.w3.org/2000/svg">
<path d="M24 4H0V20H24V4Z" fill="white"/>
<path d="M5.708 5.39674L3.19818 7.92149L3.75845 8.47845L6.26827 5.95369L5.708 5.39674Z" fill="#28292B"/>
<path d="M6.51307 6.21615L4.00369 8.74135L4.56406 9.29821L7.07344 6.77301L6.51307 6.21615Z" fill="#28292B"/>
<path d="M7.30027 7.00265L4.79089 9.52785L5.35126 10.0847L7.86064 7.55951L7.30027 7.00265Z" fill="#28292B"/>
<path d="M18.5586 13.9968L17.5721 14.9902L18.1327 15.5468L19.1192 14.5534L18.5586 13.9968Z" fill="#28292B"/>
<path d="M17.0149 15.5515L16.0499 16.524L16.6106 17.0805L17.5756 16.108L17.0149 15.5515Z" fill="#28292B"/>
<path d="M19.3701 14.816L18.3909 15.8025L18.9515 16.359L19.9308 15.3726L19.3701 14.816Z" fill="#28292B"/>
<path d="M17.8232 16.3725L16.8504 17.3513L17.4108 17.9082L18.3835 16.9293L17.8232 16.3725Z" fill="#28292B"/>
<path d="M20.1466 15.6155L19.1711 16.5916L19.73 17.15L20.7054 16.1739L20.1466 15.6155Z" fill="#28292B"/>
<path d="M18.6189 17.1499L17.6387 18.1355L18.1989 18.6926L19.179 17.707L18.6189 17.1499Z" fill="#28292B"/>
<path d="M19.8064 6.82401L19.2497 7.38457L20.2431 8.37106L20.7998 7.81049L19.8064 6.82401Z" fill="#28292B"/>
<path d="M18.2686 5.30776L17.7114 5.86774L18.6825 6.8341L19.2397 6.27412L18.2686 5.30776Z" fill="#28292B"/>
<path d="M16.89 6.67L17.45 6.11L18.43 7.09L18.99 7.65L19.98 8.62L19.42 9.19L18.43 8.21L17.87 7.65L16.89 6.67Z" fill="#28292B"/>
<path d="M18.205 8.43701L17.6461 8.99533L18.6214 9.97165L19.1803 9.41333L18.205 8.43701Z" fill="#28292B"/>
<path d="M16.6565 6.89848L16.0998 7.45905L17.0861 8.43849L17.6428 7.87793L16.6565 6.89848Z" fill="#28292B"/>
<path d="M4.82999 14.52L5.37999 13.96L6.35999 14.93L6.91999 15.49L7.90999 16.48L7.34999 17.04L6.35999 16.05L5.79999 15.49L4.82999 14.52Z" fill="#28292B"/>
<path d="M6.10326 16.3098L5.54669 16.8705L6.53317 17.8497L7.08973 17.2891L6.10326 16.3098Z" fill="#28292B"/>
<path d="M4.56179 14.7768L4.00513 15.3374L4.98433 16.3098L5.54099 15.7492L4.56179 14.7768Z" fill="#28292B"/>
<path d="M3.22 16.12L3.78 15.56L4.76 16.53L5.32 17.09L6.3 18.07L5.75 18.63L4.76 17.65L4.2 17.09L3.22 16.12Z" fill="#28292B"/>
<path d="M16.36 11.83C16.36 14.19 14.45 16.1 12.09 16.1C9.72998 16.1 7.81998 14.19 7.81998 11.83C7.81998 9.47 9.72998 7.56 12.09 7.56C14.45 7.56 16.36 9.47 16.36 11.83Z" fill="#2E4593"/>
<path d="M16.34 11.83C16.34 12.03 16.33 12.23 16.3 12.43C16.18 11.58 15.71 10.06 13.96 10.03C12.68 10.03 12.24 10.6 11.97 11.27C11.58 12.24 11.54 13.42 9.81999 13.42C8.55999 13.42 8.00999 12.71 7.79999 11.9C7.79999 11.88 7.79999 11.86 7.79999 11.84C7.79999 11.12 7.97999 10.43 8.29999 9.83C9.01999 8.48 10.44 7.56 12.07 7.56C14.43 7.56 16.34 9.47 16.34 11.83Z" fill="#DB2E2E"/>
</svg>
