<svg width="24" height="24" viewBox="0 0 24 24" fill="none" xmlns="http://www.w3.org/2000/svg">
<path d="M0 4H24V20H0V4Z" fill="#FF0000"/>
<path fill-rule="evenodd" clip-rule="evenodd" d="M12.62 9.2L12.7 7.64C12.7 7.64 12.7 7.63 12.69 7.63C12.69 7.63 12.68 7.63 12.67 7.64L12.27 9.14C12.27 9.14 12.27 9.14 12.27 9.15C12.25 9.25 12.32 9.34 12.42 9.35C12.52 9.37 12.61 9.3 12.62 9.2ZM13.05 9.33L13.38 7.8C13.38 7.8 13.38 7.79 13.38 7.78C13.38 7.78 13.37 7.78 13.36 7.78L12.73 9.2C12.73 9.2 12.73 9.2 12.73 9.21C12.7 9.3 12.75 9.4 12.84 9.43C12.93 9.46 13.03 9.41 13.06 9.32M13.46 9.53L14.02 8.07C14.02 8.07 14.02 8.06 14.02 8.05C14.02 8.05 14.01 8.05 14 8.05L13.15 9.36C13.15 9.36 13.15 9.36 13.15 9.37C13.11 9.46 13.15 9.56 13.23 9.61C13.32 9.65 13.42 9.61 13.47 9.53M13.83 9.79L14.61 8.44C14.61 8.44 14.61 8.43 14.61 8.42C14.61 8.42 14.6 8.42 14.59 8.42L13.55 9.58C13.55 9.58 13.55 9.58 13.55 9.59C13.49 9.67 13.51 9.78 13.59 9.84C13.67 9.9 13.78 9.88 13.84 9.8M14.15 10.1L15.13 8.89C15.13 8.89 15.13 8.88 15.13 8.87C15.13 8.87 15.12 8.87 15.11 8.87L13.9 9.85C13.9 9.85 13.9 9.85 13.89 9.86C13.82 9.93 13.82 10.04 13.89 10.11C13.96 10.18 14.07 10.18 14.14 10.11M14.42 10.46L15.58 9.41C15.58 9.41 15.58 9.4 15.58 9.39C15.58 9.39 15.57 9.39 15.56 9.39L14.21 10.17C14.21 10.17 14.21 10.17 14.2 10.17C14.12 10.23 14.1 10.34 14.16 10.42C14.22 10.5 14.33 10.52 14.41 10.46M14.63 10.86L15.94 10.01C15.94 10.01 15.94 10 15.94 9.99C15.94 9.99 15.93 9.99 15.92 9.99L14.47 10.55C14.47 10.55 14.47 10.55 14.46 10.55C14.37 10.59 14.34 10.7 14.38 10.79C14.42 10.88 14.53 10.91 14.62 10.87M14.78 11.28L16.21 10.65C16.21 10.65 16.21 10.64 16.21 10.63C16.21 10.63 16.21 10.62 16.19 10.63L14.67 10.95C14.67 10.95 14.67 10.95 14.66 10.95C14.57 10.98 14.52 11.08 14.55 11.17C14.58 11.26 14.68 11.31 14.77 11.28M14.86 11.73L16.37 11.33C16.37 11.33 16.38 11.33 16.38 11.31C16.38 11.31 16.38 11.3 16.37 11.3L14.82 11.38H14.81C14.71 11.4 14.65 11.49 14.66 11.58C14.68 11.68 14.77 11.74 14.86 11.73ZM14.86 12.18L16.41 12.02C16.41 12.02 16.42 12.02 16.42 12.01C16.42 12 16.42 12 16.41 12L14.86 11.84C14.86 11.84 14.85 11.84 14.84 11.84C14.74 11.84 14.66 11.92 14.66 12.02C14.66 12.12 14.74 12.2 14.84 12.2M14.8 12.62L16.36 12.7C16.36 12.7 16.37 12.7 16.37 12.69C16.37 12.69 16.37 12.68 16.36 12.67L14.86 12.27C14.86 12.27 14.86 12.27 14.85 12.27C14.75 12.25 14.66 12.32 14.65 12.42C14.63 12.52 14.7 12.61 14.8 12.62ZM14.67 13.05L16.2 13.38C16.2 13.38 16.21 13.38 16.22 13.38C16.22 13.38 16.22 13.37 16.22 13.36L14.8 12.73C14.8 12.73 14.8 12.73 14.79 12.73C14.7 12.7 14.6 12.75 14.57 12.84C14.54 12.93 14.59 13.03 14.68 13.06M14.47 13.46L15.93 14.02C15.93 14.02 15.94 14.02 15.95 14.02C15.95 14.02 15.95 14.01 15.95 14L14.64 13.15C14.64 13.15 14.64 13.15 14.63 13.15C14.54 13.11 14.44 13.15 14.39 13.23C14.35 13.32 14.39 13.42 14.47 13.47M14.21 13.83L15.56 14.61C15.56 14.61 15.57 14.61 15.58 14.61C15.58 14.61 15.58 14.6 15.58 14.59L14.42 13.55C14.42 13.55 14.42 13.55 14.41 13.55C14.33 13.49 14.22 13.51 14.16 13.59C14.1 13.67 14.12 13.78 14.2 13.84M13.9 14.15L15.11 15.13C15.11 15.13 15.12 15.13 15.13 15.13C15.13 15.13 15.13 15.12 15.13 15.11L14.15 13.9C14.15 13.9 14.15 13.9 14.14 13.89C14.07 13.82 13.96 13.82 13.89 13.89C13.82 13.96 13.82 14.07 13.89 14.14M13.54 14.42L14.59 15.58C14.59 15.58 14.6 15.58 14.61 15.58C14.61 15.58 14.61 15.57 14.61 15.56L13.83 14.21C13.83 14.21 13.83 14.21 13.83 14.2C13.77 14.12 13.66 14.1 13.58 14.16C13.5 14.22 13.48 14.33 13.54 14.41M13.14 14.63L13.99 15.94C13.99 15.94 14 15.94 14.01 15.94C14.01 15.94 14.01 15.93 14.01 15.92L13.45 14.47C13.45 14.47 13.45 14.47 13.45 14.46C13.41 14.37 13.3 14.34 13.21 14.38C13.12 14.42 13.09 14.53 13.13 14.62M12.72 14.78L13.35 16.21C13.35 16.21 13.36 16.21 13.37 16.21C13.37 16.21 13.38 16.21 13.37 16.19L13.05 14.67C13.05 14.67 13.05 14.67 13.05 14.66C13.02 14.57 12.92 14.52 12.83 14.55C12.74 14.58 12.69 14.68 12.72 14.77M12.27 14.86L12.67 16.37C12.67 16.37 12.67 16.38 12.69 16.38C12.69 16.38 12.7 16.38 12.7 16.37L12.62 14.82V14.81C12.6 14.71 12.51 14.65 12.42 14.66C12.32 14.68 12.26 14.77 12.27 14.86ZM11.82 14.86L11.98 16.41C11.98 16.41 11.98 16.42 11.99 16.42C12 16.42 12 16.42 12 16.41L12.16 14.86C12.16 14.86 12.16 14.85 12.16 14.84C12.16 14.74 12.08 14.66 11.98 14.66C11.88 14.66 11.8 14.74 11.8 14.84M11.38 14.8L11.3 16.36C11.3 16.36 11.3 16.37 11.31 16.37C11.31 16.37 11.32 16.37 11.33 16.36L11.73 14.86C11.73 14.86 11.73 14.86 11.73 14.85C11.75 14.75 11.68 14.66 11.58 14.65C11.48 14.63 11.39 14.7 11.38 14.8ZM10.95 14.67L10.62 16.2C10.62 16.2 10.62 16.21 10.62 16.22C10.62 16.22 10.63 16.22 10.64 16.22L11.27 14.8C11.27 14.8 11.27 14.8 11.27 14.79C11.3 14.7 11.25 14.6 11.16 14.57C11.07 14.54 10.97 14.59 10.94 14.68M10.54 14.47L9.98 15.93C9.98 15.93 9.98 15.94 9.98 15.95C9.98 15.95 9.99 15.95 10 15.95L10.85 14.64C10.85 14.64 10.85 14.64 10.85 14.63C10.89 14.54 10.85 14.44 10.77 14.39C10.68 14.35 10.58 14.39 10.53 14.47M10.17 14.21L9.39 15.56C9.39 15.56 9.39 15.57 9.39 15.58C9.39 15.58 9.4 15.58 9.41 15.58L10.45 14.42C10.45 14.42 10.45 14.42 10.45 14.41C10.51 14.33 10.49 14.22 10.41 14.16C10.33 14.1 10.22 14.12 10.16 14.2M9.85 13.9L8.87 15.11C8.87 15.11 8.87 15.12 8.87 15.13C8.87 15.13 8.88 15.13 8.89 15.13L10.1 14.15C10.1 14.15 10.1 14.15 10.11 14.14C10.18 14.07 10.18 13.96 10.11 13.89C10.04 13.82 9.93 13.82 9.86 13.89M9.58 13.54L8.42 14.59C8.42 14.59 8.42 14.6 8.42 14.61C8.42 14.61 8.43 14.61 8.44 14.61L9.79 13.83C9.79 13.83 9.79 13.83 9.8 13.83C9.88 13.77 9.9 13.66 9.84 13.58C9.78 13.5 9.67 13.48 9.59 13.54M9.37 13.14L8.06 13.99C8.06 13.99 8.06 14 8.06 14.01C8.06 14.01 8.07 14.01 8.08 14.01L9.53 13.45C9.53 13.45 9.53 13.45 9.54 13.45C9.63 13.41 9.66 13.3 9.62 13.21C9.58 13.12 9.47 13.09 9.38 13.13M9.22 12.72L7.79 13.35C7.79 13.35 7.79 13.36 7.79 13.37C7.79 13.37 7.79 13.38 7.81 13.37L9.33 13.05C9.33 13.05 9.33 13.05 9.34 13.05C9.43 13.02 9.48 12.92 9.45 12.83C9.42 12.74 9.32 12.69 9.23 12.72M9.14 12.27L7.63 12.67C7.63 12.67 7.62 12.67 7.62 12.69C7.62 12.69 7.62 12.7 7.63 12.7L9.18 12.62H9.19C9.29 12.6 9.35 12.51 9.34 12.42C9.32 12.32 9.23 12.26 9.14 12.27ZM9.14 11.82L7.59 11.98C7.59 11.98 7.58 11.98 7.58 11.99C7.58 12 7.58 12 7.59 12L9.14 12.16C9.14 12.16 9.15 12.16 9.16 12.16C9.26 12.16 9.34 12.08 9.34 11.98C9.34 11.88 9.26 11.8 9.16 11.8M9.2 11.38L7.64 11.3C7.64 11.3 7.63 11.3 7.63 11.31C7.63 11.31 7.63 11.32 7.64 11.33L9.14 11.73C9.14 11.73 9.14 11.73 9.15 11.73C9.25 11.75 9.34 11.68 9.35 11.58C9.37 11.48 9.3 11.39 9.2 11.38ZM9.33 10.95L7.8 10.62C7.8 10.62 7.79 10.62 7.78 10.62C7.78 10.62 7.78 10.63 7.78 10.64L9.2 11.27C9.2 11.27 9.2 11.27 9.21 11.27C9.3 11.3 9.4 11.25 9.43 11.16C9.46 11.07 9.41 10.97 9.32 10.94M9.53 10.54L8.07 9.98C8.07 9.98 8.06 9.98 8.05 9.98C8.05 9.98 8.05 9.99 8.05 10L9.36 10.85C9.36 10.85 9.36 10.85 9.37 10.85C9.46 10.89 9.56 10.85 9.61 10.77C9.65 10.68 9.61 10.58 9.53 10.53M9.79 10.17L8.44 9.39C8.44 9.39 8.43 9.39 8.42 9.39C8.42 9.39 8.42 9.4 8.42 9.41L9.58 10.45C9.58 10.45 9.58 10.45 9.59 10.45C9.67 10.51 9.78 10.49 9.84 10.41C9.9 10.33 9.88 10.22 9.8 10.16M10.1 9.85L8.89 8.87C8.89 8.87 8.88 8.87 8.87 8.87C8.87 8.87 8.87 8.88 8.87 8.89L9.85 10.1C9.85 10.1 9.85 10.1 9.86 10.11C9.93 10.18 10.04 10.18 10.11 10.11C10.18 10.04 10.18 9.93 10.11 9.86M10.46 9.58L9.41 8.42C9.41 8.42 9.4 8.42 9.39 8.42C9.39 8.42 9.39 8.43 9.39 8.44L10.17 9.79C10.17 9.79 10.17 9.79 10.17 9.8C10.23 9.88 10.34 9.9 10.42 9.84C10.5 9.78 10.52 9.67 10.46 9.59M10.86 9.37L10.01 8.06C10.01 8.06 10 8.06 9.99 8.06C9.99 8.06 9.99 8.07 9.99 8.08L10.55 9.53C10.55 9.53 10.55 9.53 10.55 9.54C10.59 9.63 10.7 9.66 10.79 9.62C10.88 9.58 10.91 9.47 10.87 9.38M11.28 9.22L10.65 7.79C10.65 7.79 10.64 7.79 10.63 7.79C10.63 7.79 10.62 7.79 10.63 7.81L10.95 9.33C10.95 9.33 10.95 9.33 10.95 9.34C10.98 9.43 11.08 9.48 11.17 9.45C11.26 9.42 11.31 9.32 11.28 9.23M11.73 9.14L11.33 7.63C11.33 7.63 11.33 7.62 11.31 7.62C11.31 7.62 11.3 7.62 11.3 7.63L11.38 9.18V9.19C11.4 9.29 11.49 9.35 11.58 9.34C11.68 9.32 11.74 9.23 11.73 9.14ZM12.18 9.14L12.02 7.59C12.02 7.59 12.02 7.58 12.01 7.58C12 7.58 12 7.58 12 7.59L11.84 9.14C11.84 9.14 11.84 9.15 11.84 9.16C11.84 9.26 11.92 9.34 12.02 9.34C12.12 9.34 12.2 9.26 12.2 9.16M12 9.32C13.48 9.32 14.68 10.52 14.68 12C14.68 13.48 13.48 14.68 12 14.68C10.52 14.68 9.32 13.48 9.32 12C9.32 10.52 10.52 9.32 12 9.32ZM12 9.64C13.3 9.64 14.36 10.69 14.36 12C14.36 13.31 13.31 14.36 12 14.36C10.69 14.36 9.64 13.31 9.64 12C9.64 10.69 10.69 9.64 12 9.64ZM10.03 12.71C10.27 12.21 10.6 11.76 10.99 11.39C11.05 11.43 11.11 11.47 11.17 11.51C10.77 11.9 10.41 12.37 10.15 12.96C10.11 12.88 10.07 12.8 10.03 12.71ZM12.17 11.49C12.22 11.54 12.28 11.58 12.33 11.63C12.39 11.58 12.44 11.54 12.5 11.5C12.45 11.45 12.39 11.41 12.34 11.36C12.28 11.4 12.22 11.45 12.17 11.49ZM11.82 11.23C11.88 11.27 11.94 11.31 12 11.36C12.06 11.32 12.12 11.27 12.18 11.23C12.12 11.19 12.06 11.14 12 11.1C11.94 11.14 11.88 11.18 11.82 11.23ZM11.84 11.78C11.89 11.83 11.95 11.88 12 11.93C12.05 11.88 12.11 11.83 12.16 11.78C12.11 11.73 12.05 11.68 12 11.63C11.95 11.68 11.89 11.73 11.84 11.78ZM11.5 11.5C11.56 11.54 11.62 11.59 11.67 11.63C11.72 11.58 11.78 11.53 11.83 11.49C11.77 11.44 11.72 11.4 11.66 11.36C11.61 11.41 11.55 11.45 11.5 11.5ZM12.55 10.99C12.49 10.95 12.43 10.9 12.37 10.86C12.3 10.9 12.23 10.94 12.17 10.98C12.23 11.02 12.29 11.06 12.35 11.11C12.42 11.07 12.48 11.03 12.55 10.99ZM12.87 11.25C12.82 11.2 12.76 11.16 12.71 11.11C12.65 11.15 12.58 11.19 12.52 11.23C12.58 11.27 12.63 11.32 12.68 11.37C12.74 11.33 12.8 11.29 12.87 11.25ZM11.79 10.75C11.86 10.71 11.93 10.66 12 10.62C12.07 10.66 12.14 10.7 12.21 10.75C12.14 10.79 12.07 10.83 12 10.87C11.93 10.83 11.86 10.79 11.79 10.75ZM11.45 10.99C11.51 10.95 11.57 10.9 11.63 10.86C11.7 10.9 11.77 10.94 11.83 10.98C11.77 11.02 11.71 11.06 11.65 11.11C11.58 11.07 11.52 11.03 11.45 10.99ZM11.13 11.25C11.18 11.2 11.24 11.16 11.29 11.11C11.35 11.15 11.42 11.19 11.48 11.23C11.42 11.27 11.37 11.32 11.32 11.37C11.26 11.33 11.2 11.29 11.13 11.25ZM10.15 10.94C10.37 11.03 10.59 11.13 10.8 11.26C10.47 11.57 10.18 11.94 9.94 12.38C9.91 12.24 9.9 12.1 9.9 11.95C9.9 11.58 9.99 11.24 10.16 10.94M10.33 10.67C10.59 10.75 10.85 10.86 11.1 11C11.05 11.04 10.99 11.09 10.94 11.14C10.71 11.01 10.47 10.9 10.23 10.81C10.26 10.76 10.3 10.71 10.33 10.67ZM10.55 10.42C10.84 10.5 11.14 10.61 11.42 10.76C11.36 10.8 11.3 10.84 11.24 10.89C10.97 10.75 10.7 10.64 10.42 10.55C10.46 10.51 10.5 10.46 10.54 10.42M10.88 10.17C10.88 10.17 10.89 10.17 10.9 10.17H10.92C11.22 10.25 11.52 10.36 11.81 10.51C11.74 10.55 11.66 10.59 11.59 10.64C11.31 10.5 11.01 10.39 10.72 10.3C10.72 10.3 10.7 10.3 10.68 10.29C10.74 10.24 10.81 10.19 10.87 10.15M12.94 10.07H12.92C12.61 10.16 12.3 10.28 12 10.43C11.71 10.28 11.4 10.17 11.1 10.08C11.1 10.08 11.09 10.08 11.08 10.08H11.06C11.34 9.94 11.66 9.86 12 9.86C12.34 9.86 12.66 9.94 12.94 10.08M13.31 10.31H13.29C12.99 10.4 12.69 10.51 12.4 10.65C12.33 10.61 12.25 10.56 12.18 10.52C12.48 10.36 12.79 10.25 13.09 10.17C13.09 10.17 13.1 10.17 13.11 10.17C13.18 10.21 13.24 10.26 13.3 10.31M13.57 10.55C13.29 10.64 13.02 10.75 12.75 10.89C12.69 10.85 12.63 10.8 12.57 10.76C12.86 10.61 13.15 10.5 13.44 10.42C13.48 10.46 13.52 10.5 13.56 10.55M13.77 10.81C13.53 10.9 13.29 11.01 13.06 11.14C13.01 11.09 12.95 11.05 12.9 11C13.15 10.86 13.41 10.75 13.67 10.67C13.71 10.72 13.74 10.76 13.77 10.81ZM14.06 12.38C13.82 11.94 13.53 11.57 13.2 11.26C13.41 11.13 13.63 11.03 13.85 10.94C14.01 11.24 14.11 11.58 14.11 11.95C14.11 12.1 14.09 12.24 14.07 12.38M13.85 12.96C13.58 12.37 13.23 11.9 12.83 11.51C12.89 11.47 12.95 11.43 13.01 11.39C13.39 11.76 13.73 12.21 13.97 12.71C13.94 12.8 13.9 12.88 13.85 12.96ZM13.52 13.41C13.26 12.75 12.9 12.21 12.48 11.78C12.54 11.73 12.59 11.69 12.65 11.64C13.09 12.07 13.46 12.6 13.7 13.19C13.65 13.26 13.59 13.33 13.52 13.4M13.13 13.73L13.1 13.65C12.87 13.02 12.54 12.5 12.16 12.08C12.21 12.03 12.27 11.97 12.32 11.92C12.76 12.38 13.12 12.94 13.34 13.57C13.27 13.62 13.2 13.68 13.13 13.72M11.09 13.85L11.12 13.77C11.31 13.2 11.62 12.69 12.01 12.26C12.39 12.69 12.7 13.2 12.9 13.77L12.93 13.85C12.65 13.98 12.34 14.06 12.02 14.06C11.7 14.06 11.38 13.99 11.11 13.85M10.66 13.58C10.88 12.95 11.24 12.39 11.68 11.93C11.73 11.98 11.79 12.03 11.84 12.09C11.46 12.51 11.13 13.03 10.9 13.66L10.87 13.74C10.8 13.69 10.73 13.64 10.66 13.59M10.3 13.2C10.54 12.6 10.91 12.08 11.35 11.65C11.41 11.7 11.46 11.74 11.52 11.79C11.1 12.22 10.73 12.75 10.48 13.42C10.42 13.35 10.36 13.28 10.3 13.21" fill="#FFFF00"/>
</svg>
