<svg width="24" height="24" viewBox="0 0 24 24" fill="none" xmlns="http://www.w3.org/2000/svg">
<path d="M0 4H24V20H0V4Z" fill="#D81C22"/>
<path d="M0 8H24V16H0V8Z" fill="white"/>
<path fill-rule="evenodd" clip-rule="evenodd" d="M11.88 8C11.95 8.2 12.05 8.38 12.19 8.54C12.28 8.64 12.38 8.72 12.5 8.78C12.66 8.81 12.82 8.85 12.97 8.89C13.05 8.92 13.13 8.95 13.21 8.99C13.3 9.05 13.39 9.1 13.48 9.16C13.62 9.27 13.77 9.38 13.91 9.49C13.94 9.52 13.94 9.53 13.89 9.52C13.73 9.5 13.57 9.5 13.41 9.52C13.41 9.53 13.41 9.54 13.41 9.55C13.67 9.79 13.96 9.97 14.28 10.1C14.13 10.1 13.97 10.1 13.82 10.1C13.77 10.09 13.71 10.07 13.66 10.06C13.54 9.98 13.4 9.95 13.25 9.97C13.17 9.99 13.14 10.03 13.16 10.11C13.19 10.14 13.22 10.17 13.26 10.19C13.33 10.22 13.41 10.26 13.48 10.31C13.65 10.42 13.8 10.56 13.95 10.7C14.24 10.93 14.54 11.13 14.87 11.3C14.93 11.33 14.98 11.38 15.02 11.43C15.02 11.45 15.02 11.46 15.01 11.47C14.98 11.47 14.95 11.48 14.92 11.48C14.71 11.46 14.5 11.43 14.29 11.4C14.24 11.4 14.19 11.4 14.14 11.4C14.08 11.42 14.06 11.46 14.09 11.52C14.13 11.56 14.18 11.58 14.23 11.6C14.53 11.67 14.82 11.75 15.1 11.84C15.17 11.86 15.24 11.9 15.3 11.94C15.3 11.97 15.29 11.99 15.25 12C15.18 12.02 15.11 12.03 15.03 12.04C14.84 12.06 14.64 12.07 14.45 12.07C14.37 12.08 14.29 12.09 14.22 12.1C14.17 12.1 14.12 12.13 14.08 12.17C14.08 12.23 14.1 12.26 14.16 12.27C14.24 12.27 14.32 12.29 14.39 12.29C14.53 12.31 14.65 12.36 14.76 12.44C14.83 12.52 14.9 12.59 14.98 12.67C15.21 12.87 15.45 13.07 15.69 13.26C15.62 13.28 15.54 13.29 15.47 13.3C15.38 13.31 15.29 13.3 15.21 13.25C15.1 13.19 15 13.14 14.89 13.08C14.86 13.06 14.82 13.06 14.79 13.06C14.7 13.08 14.61 13.12 14.54 13.17C14.47 13.21 14.46 13.27 14.49 13.34C14.56 13.41 14.63 13.47 14.72 13.52C14.9 13.62 15.09 13.73 15.28 13.83C15.46 13.93 15.63 14.05 15.8 14.18C15.88 14.24 15.94 14.32 15.98 14.4C15.99 14.48 15.96 14.53 15.88 14.55C15.79 14.55 15.71 14.54 15.64 14.49C15.45 14.36 15.26 14.23 15.06 14.12C14.96 14.05 14.85 14.02 14.73 14C14.42 14 14.1 14 13.79 14C13.72 14 13.65 13.98 13.58 13.96C13.45 13.9 13.32 13.84 13.19 13.78C13.14 13.76 13.08 13.76 13.02 13.76C12.89 13.83 12.82 13.93 12.81 14.08C12.81 14.25 12.81 14.42 12.81 14.6C12.81 14.83 12.89 15.04 13.04 15.22C13.23 15.41 13.42 15.58 13.63 15.75C13.72 15.83 13.79 15.91 13.86 16H13.63C13.63 16 13.56 15.95 13.52 15.92C13.43 15.83 13.34 15.73 13.25 15.64C13.17 15.59 13.07 15.56 12.98 15.55C12.88 15.54 12.78 15.53 12.68 15.52C12.62 15.52 12.56 15.52 12.5 15.52C12.5 15.55 12.5 15.58 12.5 15.61C12.53 15.66 12.56 15.72 12.59 15.78C12.59 15.81 12.6 15.83 12.6 15.86C12.56 15.86 12.52 15.85 12.49 15.82C12.36 15.69 12.21 15.58 12.06 15.48C11.99 15.43 11.96 15.36 11.96 15.27C11.93 15.2 11.88 15.18 11.81 15.2C11.74 15.22 11.66 15.24 11.59 15.25C11.52 15.25 11.46 15.22 11.41 15.19C11.29 15.16 11.17 15.18 11.07 15.25C10.98 15.32 10.89 15.39 10.8 15.47C10.56 15.64 10.3 15.72 10.01 15.72C9.82001 15.76 9.68001 15.85 9.57001 16.01H9.47001C9.47001 16.01 9.47001 15.98 9.47001 15.97C9.56001 15.82 9.67001 15.71 9.82001 15.63C10.02 15.59 10.21 15.51 10.37 15.39C10.54 15.24 10.68 15.07 10.8 14.88C10.88 14.76 10.94 14.63 10.98 14.49C11.01 14.37 10.99 14.26 10.94 14.15C10.84 14.02 10.71 13.93 10.54 13.9C10.49 13.9 10.44 13.92 10.39 13.94C10.03 14.11 9.66001 14.26 9.29001 14.4C9.13001 14.44 8.97001 14.47 8.80001 14.47C8.69001 14.47 8.59001 14.46 8.49001 14.41C8.45001 14.37 8.44001 14.33 8.44001 14.28C8.57001 14.23 8.69001 14.18 8.82001 14.14C9.13001 14.06 9.43001 13.94 9.72001 13.8C9.80001 13.75 9.88001 13.69 9.94001 13.62C9.99001 13.55 9.98001 13.5 9.91001 13.45C9.75001 13.37 9.59001 13.38 9.44001 13.47C9.39001 13.51 9.34001 13.54 9.28001 13.58C9.00001 13.73 8.70001 13.84 8.40001 13.91C8.22001 13.96 8.09001 13.91 7.99001 13.75C8.06001 13.75 8.14001 13.75 8.22001 13.75C8.24001 13.75 8.27001 13.74 8.29001 13.73C8.34001 13.7 8.39001 13.66 8.43001 13.62C8.65001 13.39 8.89001 13.18 9.16001 13.01C9.30001 12.94 9.44001 12.86 9.58001 12.78C9.62001 12.75 9.65001 12.71 9.67001 12.67C9.67001 12.57 9.65001 12.48 9.59001 12.4C9.55001 12.35 9.50001 12.32 9.44001 12.34C9.34001 12.4 9.24001 12.47 9.15001 12.53C9.08001 12.57 9.00001 12.6 8.93001 12.63C8.82001 12.63 8.72001 12.6 8.63001 12.52C8.62001 12.51 8.61001 12.49 8.61001 12.47C8.62001 12.47 8.64001 12.47 8.65001 12.47C8.69001 12.44 8.73001 12.41 8.77001 12.39C8.90001 12.27 9.03001 12.15 9.15001 12.02C9.24001 11.94 9.34001 11.87 9.46001 11.83C9.56001 11.82 9.66001 11.78 9.74001 11.73C9.85001 11.63 9.94001 11.53 10.03 11.41C10.08 11.35 10.09 11.29 10.08 11.22C10.06 11.16 10.03 11.1 10 11.04C9.98001 11 9.95001 10.98 9.91001 10.97C9.81001 11 9.71001 11.03 9.61001 11.06C9.52001 11.08 9.42001 11.09 9.33001 11.08C9.27001 11.08 9.24001 11.04 9.27001 10.98C9.31001 10.94 9.34001 10.91 9.38001 10.88C9.52001 10.78 9.66001 10.69 9.81001 10.61C9.94001 10.56 10.05 10.49 10.17 10.42C10.22 10.38 10.25 10.32 10.27 10.26C10.35 10.13 10.46 10.04 10.62 10.01C10.82 10.02 10.86 9.95 10.74 9.78C10.71 9.76 10.68 9.76 10.65 9.76C10.59 9.77 10.52 9.78 10.46 9.77C10.45 9.77 10.44 9.76 10.44 9.75C10.46 9.71 10.48 9.68 10.51 9.65C10.6 9.58 10.69 9.52 10.78 9.46C10.98 9.38 11.15 9.27 11.29 9.12C11.31 9.1 11.31 9.07 11.31 9.05C11.3 9.05 11.29 9.05 11.27 9.05C11.15 9.08 11.03 9.12 10.91 9.16C10.91 9.16 10.91 9.16 10.91 9.14C11.08 8.93 11.27 8.76 11.49 8.61C11.67 8.46 11.82 8.27 11.92 8.06L11.88 8ZM10.96 9.52C11.01 9.52 11.06 9.52 11.11 9.54C11.12 9.54 11.13 9.56 11.14 9.57C11.09 9.66 11.02 9.72 10.93 9.77C10.91 9.77 10.9 9.77 10.9 9.75C10.9 9.7 10.9 9.65 10.9 9.6C10.9 9.56 10.93 9.54 10.96 9.53V9.52ZM11.9 9.68C11.96 9.67 12 9.68 12.02 9.74C12.02 9.79 12.02 9.84 12 9.89C11.95 9.94 11.89 9.96 11.82 9.98C11.73 10 11.64 10.02 11.55 10.01C11.53 9.98 11.52 9.95 11.53 9.91C11.56 9.85 11.61 9.81 11.67 9.78C11.74 9.74 11.82 9.71 11.89 9.68H11.9ZM12.28 9.65C12.35 9.65 12.41 9.67 12.45 9.73C12.45 9.76 12.45 9.79 12.45 9.81C12.44 9.82 12.42 9.83 12.4 9.84C12.33 9.84 12.27 9.84 12.2 9.84C12.2 9.84 12.19 9.83 12.18 9.82C12.16 9.74 12.19 9.68 12.28 9.66V9.65ZM12.77 9.68C12.77 9.68 12.83 9.68 12.86 9.68C12.87 9.68 12.89 9.7 12.9 9.71C12.91 9.88 12.83 9.96 12.66 9.94C12.65 9.94 12.63 9.92 12.62 9.91C12.59 9.78 12.64 9.7 12.77 9.68ZM14.28 12.72C14.28 12.72 14.37 12.73 14.4 12.76C14.44 12.78 14.47 12.81 14.5 12.84C14.51 12.86 14.51 12.89 14.5 12.92C14.45 13 14.38 13.07 14.31 13.13C14.3 13.14 14.28 13.15 14.26 13.15C14.2 13.14 14.13 13.13 14.07 13.12C14.03 13.12 13.99 13.1 13.96 13.08C13.94 13.07 13.93 13.05 13.92 13.02C13.92 12.99 13.94 12.97 13.96 12.95C14.05 12.86 14.15 12.78 14.26 12.72H14.28ZM13.54 12.57C13.62 12.56 13.7 12.57 13.77 12.62C13.8 12.66 13.8 12.7 13.78 12.75C13.66 12.92 13.49 12.97 13.29 12.91C13.25 12.89 13.21 12.86 13.18 12.83C13.17 12.81 13.17 12.79 13.18 12.77C13.28 12.67 13.4 12.6 13.54 12.57ZM13.52 11.26C13.62 11.24 13.7 11.28 13.74 11.38C13.74 11.54 13.67 11.6 13.51 11.56C13.46 11.53 13.42 11.5 13.38 11.46C13.38 11.37 13.43 11.31 13.52 11.27V11.26ZM11.97 10.49C11.97 10.49 12.04 10.49 12.08 10.51C12.12 10.55 12.11 10.6 12.06 10.63C12.01 10.67 11.95 10.7 11.88 10.69C11.81 10.67 11.73 10.64 11.66 10.61C11.76 10.56 11.86 10.52 11.96 10.49H11.97ZM10.12 12.08C10.24 12.08 10.37 12.08 10.49 12.11C10.61 12.15 10.62 12.21 10.51 12.29C10.32 12.41 10.12 12.48 9.89001 12.49C9.85001 12.46 9.81001 12.42 9.79001 12.37C9.76001 12.31 9.74001 12.25 9.72001 12.19C9.72001 12.18 9.72001 12.17 9.72001 12.16C9.77001 12.14 9.81001 12.13 9.86001 12.12C9.94001 12.11 10.03 12.1 10.11 12.09L10.12 12.08ZM12.42 10.47C12.49 10.47 12.52 10.5 12.52 10.57C12.52 10.67 12.47 10.74 12.37 10.75C12.23 10.78 12.2 10.74 12.27 10.62C12.31 10.56 12.36 10.5 12.42 10.46V10.47ZM12.91 10.62C13.01 10.62 13.09 10.63 13.18 10.68C13.22 10.7 13.23 10.73 13.23 10.78C13.23 10.85 13.21 10.91 13.17 10.96C13.12 10.98 13.06 10.99 13 10.98C12.93 10.96 12.86 10.94 12.79 10.92C12.68 10.89 12.66 10.82 12.74 10.73C12.79 10.67 12.84 10.64 12.91 10.62ZM11.07 11.63C11.18 11.64 11.27 11.69 11.32 11.79C11.32 11.85 11.3 11.88 11.23 11.86C11.15 11.83 11.09 11.77 11.04 11.7C11.04 11.67 11.04 11.65 11.06 11.63H11.07ZM10.74 10.66C10.82 10.66 10.89 10.66 10.97 10.66C11.04 10.66 11.05 10.7 11.02 10.76C10.97 10.84 10.9 10.91 10.83 10.97C10.78 11.01 10.74 11.01 10.71 10.95C10.67 10.89 10.65 10.83 10.65 10.76C10.65 10.74 10.65 10.72 10.66 10.7C10.68 10.68 10.71 10.66 10.74 10.65V10.66ZM11.74 13.01C11.84 13.01 11.94 13.03 12.03 13.06C12.05 13.06 12.06 13.08 12.07 13.09C12 13.21 11.93 13.32 11.84 13.42C11.79 13.29 11.75 13.16 11.73 13.03C11.73 13.02 11.73 13.01 11.73 13L11.74 13.01ZM12.4 11.86C12.4 11.86 12.45 11.87 12.47 11.9C12.51 11.97 12.52 12.04 12.49 12.11C12.44 12.12 12.4 12.1 12.39 12.05C12.36 11.98 12.36 11.92 12.4 11.86ZM10.22 10.75C10.32 10.73 10.4 10.75 10.47 10.84C10.52 10.92 10.56 10.99 10.61 11.07C10.52 11.12 10.43 11.15 10.34 11.16C10.33 11.16 10.32 11.15 10.31 11.14C10.23 11.06 10.17 10.97 10.12 10.87C10.12 10.84 10.12 10.82 10.12 10.79C10.15 10.77 10.19 10.75 10.22 10.74V10.75ZM12.05 11.66C12.05 11.66 12.12 11.68 12.15 11.72C12.2 11.78 12.23 11.85 12.26 11.93C12.26 11.97 12.26 12 12.26 12.04C12.24 12.08 12.2 12.1 12.16 12.09C11.93 12 11.9 11.86 12.06 11.67L12.05 11.66ZM10.72 12.93C10.87 12.92 10.96 12.99 10.98 13.14C10.99 13.23 10.98 13.31 10.95 13.4C10.92 13.44 10.88 13.44 10.85 13.41C10.82 13.38 10.8 13.34 10.78 13.31C10.74 13.2 10.71 13.08 10.7 12.96L10.72 12.94V12.93ZM11.67 11.53C11.74 11.52 11.78 11.54 11.78 11.61C11.78 11.66 11.76 11.7 11.74 11.74C11.7 11.8 11.66 11.79 11.62 11.74C11.6 11.69 11.59 11.64 11.62 11.58C11.64 11.56 11.65 11.54 11.67 11.53ZM11.27 13.1C11.35 13.1 11.42 13.12 11.47 13.18C11.49 13.23 11.5 13.28 11.49 13.33C11.48 13.38 11.45 13.39 11.4 13.37C11.34 13.3 11.29 13.22 11.27 13.12C11.27 13.12 11.27 13.1 11.27 13.09V13.1ZM11.31 9.96C11.36 9.96 11.39 9.98 11.39 10.03C11.37 10.14 11.32 10.23 11.22 10.29C11.15 10.33 11.08 10.37 11 10.39C10.97 10.39 10.94 10.39 10.91 10.39C10.89 10.37 10.89 10.34 10.9 10.31C11 10.15 11.13 10.03 11.3 9.96H11.31Z" fill="#019E3F"/>
</svg>
