<svg width="24" height="24" viewBox="0 0 24 24" fill="none" xmlns="http://www.w3.org/2000/svg">
<path d="M0 4H24V20H0V4Z" fill="white"/>
<path d="M0 4H24V8.8H0V4Z" fill="#001489"/>
<path d="M0 15.2H24V20H0V15.2Z" fill="#009A44"/>
<path d="M12 9.06C12.08 9.06 12.16 9.11 12.2 9.18C12.67 9.24 12.92 9.58 13.01 9.98C13.11 10.45 13.01 11.08 12.67 11.75L13.94 13.43C14.01 13.4 14.07 13.37 14.14 13.33L14.61 14.31C12.98 15.16 11.03 15.16 9.39999 14.31L9.86999 13.33C9.93999 13.36 9.99999 13.4 10.07 13.43L11.34 11.75C11.01 11.08 10.9 10.45 11 9.98C11.09 9.58 11.34 9.24 11.81 9.18C11.85 9.11 11.93 9.06 12.01 9.06H12ZM12.5 11.51C12.76 10.94 12.84 10.39 12.76 10.03C12.69 9.71 12.53 9.48 12.21 9.43V10.25L12.61 10.65H12.29V11.23L12.5 11.51ZM11.79 9.44C11.47 9.49 11.31 9.73 11.24 10.04C11.16 10.4 11.24 10.94 11.5 11.52L11.71 11.24V10.66H11.39L11.79 10.26V9.44ZM10.02 13.75L9.87999 14.04L10.1 13.98L10.02 13.75ZM9.89999 14.16C9.99999 14.2 10.1 14.24 10.21 14.28L10.14 14.09L9.89999 14.15V14.16ZM10.41 14.12L10.7 14.03L10.62 13.84C10.5 13.8 10.38 13.76 10.27 13.72L10.42 14.12H10.41ZM10.75 14.14L10.45 14.23L10.5 14.37C10.63 14.41 10.76 14.44 10.89 14.47L10.74 14.14H10.75ZM11.07 14.27L11.39 14.14L11.31 14C11.18 13.98 11.05 13.96 10.91 13.92L11.07 14.27ZM11.44 14.25L11.12 14.38L11.18 14.52C11.32 14.54 11.47 14.56 11.61 14.57L11.44 14.25ZM11.76 14.34L12.15 14.13L12.09 14.04C11.92 14.04 11.75 14.04 11.59 14.02L11.76 14.33V14.34ZM12.23 14.25L11.83 14.46L11.9 14.59C12.08 14.59 12.26 14.59 12.44 14.57L12.23 14.24V14.25ZM12.56 14.32L12.87 14.11L12.78 13.99C12.65 14.01 12.51 14.03 12.38 14.04L12.56 14.33V14.32ZM12.94 14.21L12.62 14.43L12.69 14.55C12.84 14.53 12.98 14.51 13.12 14.47L12.93 14.21H12.94ZM13.23 14.2L13.49 13.97L13.38 13.84C13.27 13.87 13.15 13.91 13.03 13.93L13.22 14.2H13.23ZM13.57 14.07L13.31 14.3L13.39 14.41C13.52 14.38 13.64 14.34 13.76 14.29L13.57 14.07ZM13.83 14.01L14.01 13.8L13.93 13.64C13.83 13.68 13.73 13.73 13.62 13.76L13.83 14.01ZM14.07 13.93L13.92 14.11L14 14.2C14.06 14.18 14.12 14.15 14.17 14.13L14.07 13.93Z" fill="black"/>
</svg>
