<svg width="24" height="24" viewBox="0 0 24 24" fill="none" xmlns="http://www.w3.org/2000/svg">
<path d="M0 4H24V20H0V4Z" fill="#BF0A30"/>
<path d="M0 6.18H24H0ZM24 9.09H0H24Z" fill="black"/>
<path d="M24 9.74H0V8.45H24V9.74ZM24 6.83H0V5.54H24V6.83Z" fill="white"/>
<path d="M0 12H24H0ZM24 14.91H0H24ZM0 17.82H24H0Z" fill="black"/>
<path d="M24 18.46H0V17.17H24V18.46ZM24 15.56H0V14.27H24V15.56ZM24 12.65H0V11.36H24V12.65Z" fill="white"/>
<path d="M0 4H6.8V11.35H0V4Z" fill="#002868"/>
<path d="M4.18001 8.14L5.45001 7.21H3.88001L3.40001 5.72L2.92001 7.21H1.35001L2.62001 8.14L2.13001 9.63L3.40001 8.71L4.67001 9.63L4.18001 8.14Z" fill="white"/>
</svg>
