<svg width="24" height="24" viewBox="0 0 24 24" fill="none" xmlns="http://www.w3.org/2000/svg">
<path d="M24 4H0V20H24V4Z" fill="#239E46"/>
<path d="M24 4H0V16H24V4Z" fill="black"/>
<path d="M24 4H0V8H24V4Z" fill="#E70013"/>
<path d="M11.76 14.07C12.9032 14.07 13.83 13.1432 13.83 12C13.83 10.8568 12.9032 9.93 11.76 9.93C10.6168 9.93 9.69 10.8568 9.69 12C9.69 13.1432 10.6168 14.07 11.76 14.07Z" fill="white"/>
<path d="M12.18 13.8C13.1741 13.8 13.98 12.9941 13.98 12C13.98 11.0059 13.1741 10.2 12.18 10.2C11.1859 10.2 10.38 11.0059 10.38 12C10.38 12.9941 11.1859 13.8 12.18 13.8Z" fill="black"/>
<path d="M14.89 12L15.55 11.1L14.49 11.44L13.83 10.54V11.65L12.77 12L13.83 12.35V13.46L14.49 12.56L15.55 12.9L14.89 12Z" fill="white"/>
</svg>
