<svg width="24" height="24" viewBox="0 0 24 24" fill="none" xmlns="http://www.w3.org/2000/svg">
<path d="M24 4H0V20H24V4Z" fill="#002B7F"/>
<path d="M24 12H0V20H24V12Z" fill="#CE1126"/>
<path d="M5.01002 7.55L4.96002 9.15H3.33002C3.13002 8.76 2.96002 8.43 2.96002 7.98C2.96002 7.61 3.25002 7.31 3.68002 7.31C4.13002 7.31 4.62002 7.46 5.00002 7.55H5.01002Z" fill="#FFD83D"/>
<path d="M3.17001 7.63V8.56V7.63Z" fill="#FFD83D"/>
<path d="M3.17001 7.63V8.56" stroke="black" stroke-width="0.04" stroke-linecap="round" stroke-linejoin="round"/>
<path d="M3.30002 7.53V8.76V7.53Z" fill="#FFD83D"/>
<path d="M3.30002 7.53V8.76" stroke="black" stroke-width="0.04" stroke-linecap="round" stroke-linejoin="round"/>
<path d="M3.43002 7.47V8.94V7.47Z" fill="#FFD83D"/>
<path d="M3.43002 7.47V8.94" stroke="black" stroke-width="0.04" stroke-linecap="round" stroke-linejoin="round"/>
<path d="M3.56003 7.44V8.59V7.44Z" fill="#FFD83D"/>
<path d="M3.56003 7.44V8.59" stroke="black" stroke-width="0.04" stroke-linecap="round" stroke-linejoin="round"/>
<path d="M3.69003 7.43V8.59V7.43Z" fill="#FFD83D"/>
<path d="M3.69003 7.43V8.59" stroke="black" stroke-width="0.04" stroke-linecap="round" stroke-linejoin="round"/>
<path d="M3.82001 7.39V8.59V7.39Z" fill="#FFD83D"/>
<path d="M3.82001 7.39V8.59" stroke="black" stroke-width="0.04" stroke-linecap="round" stroke-linejoin="round"/>
<path d="M3.95001 7.39V8.59V7.39Z" fill="#FFD83D"/>
<path d="M3.95001 7.39V8.59" stroke="black" stroke-width="0.04" stroke-linecap="round" stroke-linejoin="round"/>
<path d="M4.08002 7.4V8.6V7.4Z" fill="#FFD83D"/>
<path d="M4.08002 7.4V8.6" stroke="black" stroke-width="0.04" stroke-linecap="round" stroke-linejoin="round"/>
<path d="M4.21002 7.41V8.61V7.41Z" fill="#FFD83D"/>
<path d="M4.21002 7.41V8.61" stroke="black" stroke-width="0.04" stroke-linecap="round" stroke-linejoin="round"/>
<path d="M4.34003 7.49V8.69V7.49Z" fill="#FFD83D"/>
<path d="M4.34003 7.49V8.69" stroke="black" stroke-width="0.04" stroke-linecap="round" stroke-linejoin="round"/>
<path d="M4.47003 7.5V8.86V7.5Z" fill="#FFD83D"/>
<path d="M4.47003 7.5V8.86" stroke="black" stroke-width="0.04" stroke-linecap="round" stroke-linejoin="round"/>
<path d="M4.60001 7.5V8.7V7.5Z" fill="#FFD83D"/>
<path d="M4.60001 7.5V8.7" stroke="black" stroke-width="0.04" stroke-linecap="round" stroke-linejoin="round"/>
<path d="M4.74002 7.5V8.7V7.5Z" fill="#FFD83D"/>
<path d="M4.74002 7.5V8.7" stroke="black" stroke-width="0.04" stroke-linecap="round" stroke-linejoin="round"/>
<path d="M3.99002 7.44C4.27002 7.49 4.87002 7.77 4.80002 8.15C4.70002 8.69 4.38002 8.48 3.96002 8.4L3.64002 8.51C3.53002 8.63 3.36002 8.73 3.24002 8.59H3.05002V9.33H5.14002V7.55L3.98002 7.44H3.99002Z" fill="black" stroke="black" stroke-width="0.04" stroke-linecap="round" stroke-linejoin="round"/>
<path d="M4.92001 7.44C4.99181 7.44 5.05001 7.3818 5.05001 7.31C5.05001 7.2382 4.99181 7.18 4.92001 7.18C4.84821 7.18 4.79001 7.2382 4.79001 7.31C4.79001 7.3818 4.84821 7.44 4.92001 7.44Z" fill="#FFD83D" stroke="black" stroke-width="0.05" stroke-linecap="round" stroke-linejoin="round"/>
<path d="M4.64001 7.38C4.71181 7.38 4.77001 7.3218 4.77001 7.25C4.77001 7.17821 4.71181 7.12 4.64001 7.12C4.56821 7.12 4.51001 7.17821 4.51001 7.25C4.51001 7.3218 4.56821 7.38 4.64001 7.38Z" fill="#FFD83D" stroke="black" stroke-width="0.05" stroke-linecap="round" stroke-linejoin="round"/>
<path d="M4.35 7.3C4.4218 7.3 4.48 7.2418 4.48 7.17C4.48 7.0982 4.4218 7.04 4.35 7.04C4.2782 7.04 4.22 7.0982 4.22 7.17C4.22 7.2418 4.2782 7.3 4.35 7.3Z" fill="#FFD83D" stroke="black" stroke-width="0.05" stroke-linecap="round" stroke-linejoin="round"/>
<path d="M4.06002 7.25C4.13182 7.25 4.19002 7.19179 4.19002 7.12C4.19002 7.0482 4.13182 6.99 4.06002 6.99C3.98823 6.99 3.93002 7.0482 3.93002 7.12C3.93002 7.19179 3.98823 7.25 4.06002 7.25Z" fill="#FFD83D" stroke="black" stroke-width="0.05" stroke-linecap="round" stroke-linejoin="round"/>
<path d="M3.77001 7.23C3.84181 7.23 3.90001 7.1718 3.90001 7.1C3.90001 7.0282 3.84181 6.97 3.77001 6.97C3.69822 6.97 3.64001 7.0282 3.64001 7.1C3.64001 7.1718 3.69822 7.23 3.77001 7.23Z" fill="#FFD83D" stroke="black" stroke-width="0.05" stroke-linecap="round" stroke-linejoin="round"/>
<path d="M3.48001 7.24C3.5518 7.24 3.61001 7.1818 3.61001 7.11C3.61001 7.03821 3.5518 6.98 3.48001 6.98C3.40821 6.98 3.35001 7.03821 3.35001 7.11C3.35001 7.1818 3.40821 7.24 3.48001 7.24Z" fill="#FFD83D" stroke="black" stroke-width="0.05" stroke-linecap="round" stroke-linejoin="round"/>
<path d="M3.21002 7.33C3.28181 7.33 3.34002 7.2718 3.34002 7.2C3.34002 7.1282 3.28181 7.07 3.21002 7.07C3.13822 7.07 3.08002 7.1282 3.08002 7.2C3.08002 7.2718 3.13822 7.33 3.21002 7.33Z" fill="#FFD83D" stroke="black" stroke-width="0.05" stroke-linecap="round" stroke-linejoin="round"/>
<path d="M2.98001 7.5C3.0518 7.5 3.11001 7.44179 3.11001 7.37C3.11001 7.2982 3.0518 7.24 2.98001 7.24C2.90821 7.24 2.85001 7.2982 2.85001 7.37C2.85001 7.44179 2.90821 7.5 2.98001 7.5Z" fill="#FFD83D" stroke="black" stroke-width="0.05" stroke-linecap="round" stroke-linejoin="round"/>
<path d="M2.82 7.74C2.8918 7.74 2.95 7.6818 2.95 7.61C2.95 7.53821 2.8918 7.48 2.82 7.48C2.74821 7.48 2.69 7.53821 2.69 7.61C2.69 7.6818 2.74821 7.74 2.82 7.74Z" fill="#FFD83D" stroke="black" stroke-width="0.05" stroke-linecap="round" stroke-linejoin="round"/>
<path d="M2.74002 8.01C2.81181 8.01 2.87002 7.9518 2.87002 7.88C2.87002 7.8082 2.81181 7.75 2.74002 7.75C2.66822 7.75 2.61002 7.8082 2.61002 7.88C2.61002 7.9518 2.66822 8.01 2.74002 8.01Z" fill="#FFD83D" stroke="black" stroke-width="0.05" stroke-linecap="round" stroke-linejoin="round"/>
<path d="M2.74002 8.3C2.81181 8.3 2.87002 8.2418 2.87002 8.17C2.87002 8.0982 2.81181 8.04 2.74002 8.04C2.66822 8.04 2.61002 8.0982 2.61002 8.17C2.61002 8.2418 2.66822 8.3 2.74002 8.3Z" fill="#FFD83D" stroke="black" stroke-width="0.05" stroke-linecap="round" stroke-linejoin="round"/>
<path d="M2.80001 8.58C2.87181 8.58 2.93001 8.5218 2.93001 8.45C2.93001 8.3782 2.87181 8.32 2.80001 8.32C2.72822 8.32 2.67001 8.3782 2.67001 8.45C2.67001 8.5218 2.72822 8.58 2.80001 8.58Z" fill="#FFD83D" stroke="black" stroke-width="0.05" stroke-linecap="round" stroke-linejoin="round"/>
<path d="M4.98002 7.48V7.65C4.65002 7.6 4.21002 7.43 3.79002 7.43C3.40002 7.43 3.11002 7.58 3.11002 7.97C3.11002 8.36 3.27002 8.7 3.49002 9.06L3.27002 9.17C3.07002 8.78 2.90002 8.45 2.90002 8C2.90002 7.63 3.19002 7.26 3.70002 7.26C4.15002 7.26 4.61002 7.41 4.99002 7.5L4.98002 7.48Z" fill="#FFD83D" stroke="black" stroke-width="0.05" stroke-linecap="round" stroke-linejoin="round"/>
<path d="M5.30002 7.55L5.35002 9.15H6.98002C7.18002 8.76 7.35002 8.43 7.35002 7.98C7.35002 7.61 7.06002 7.31 6.63002 7.31C6.18002 7.31 5.69002 7.46 5.31002 7.55H5.30002Z" fill="#FFD83D"/>
<path d="M7.15002 7.63V8.56V7.63Z" fill="#FFD83D"/>
<path d="M7.15002 7.63V8.56" stroke="black" stroke-width="0.04" stroke-linecap="round" stroke-linejoin="round"/>
<path d="M7.02002 7.53V8.76V7.53Z" fill="#FFD83D"/>
<path d="M7.02002 7.53V8.76" stroke="black" stroke-width="0.04" stroke-linecap="round" stroke-linejoin="round"/>
<path d="M6.88004 7.47V8.94V7.47Z" fill="#FFD83D"/>
<path d="M6.88004 7.47V8.94" stroke="black" stroke-width="0.04" stroke-linecap="round" stroke-linejoin="round"/>
<path d="M6.75003 7.44V8.59V7.44Z" fill="#FFD83D"/>
<path d="M6.75003 7.44V8.59" stroke="black" stroke-width="0.04" stroke-linecap="round" stroke-linejoin="round"/>
<path d="M6.62003 7.43V8.59V7.43Z" fill="#FFD83D"/>
<path d="M6.62003 7.43V8.59" stroke="black" stroke-width="0.04" stroke-linecap="round" stroke-linejoin="round"/>
<path d="M6.49002 7.39V8.59V7.39Z" fill="#FFD83D"/>
<path d="M6.49002 7.39V8.59" stroke="black" stroke-width="0.04" stroke-linecap="round" stroke-linejoin="round"/>
<path d="M6.36002 7.39V8.59V7.39Z" fill="#FFD83D"/>
<path d="M6.36002 7.39V8.59" stroke="black" stroke-width="0.04" stroke-linecap="round" stroke-linejoin="round"/>
<path d="M6.23001 7.4V8.6V7.4Z" fill="#FFD83D"/>
<path d="M6.23001 7.4V8.6" stroke="black" stroke-width="0.04" stroke-linecap="round" stroke-linejoin="round"/>
<path d="M6.10004 7.41V8.61V7.41Z" fill="#FFD83D"/>
<path d="M6.10004 7.41V8.61" stroke="black" stroke-width="0.04" stroke-linecap="round" stroke-linejoin="round"/>
<path d="M5.97003 7.49V8.69V7.49Z" fill="#FFD83D"/>
<path d="M5.97003 7.49V8.69" stroke="black" stroke-width="0.04" stroke-linecap="round" stroke-linejoin="round"/>
<path d="M5.84003 7.5V8.86V7.5Z" fill="#FFD83D"/>
<path d="M5.84003 7.5V8.86" stroke="black" stroke-width="0.04" stroke-linecap="round" stroke-linejoin="round"/>
<path d="M5.71002 7.5V8.7V7.5Z" fill="#FFD83D"/>
<path d="M5.71002 7.5V8.7" stroke="black" stroke-width="0.04" stroke-linecap="round" stroke-linejoin="round"/>
<path d="M5.58002 7.5V8.7V7.5Z" fill="#FFD83D"/>
<path d="M5.58002 7.5V8.7" stroke="black" stroke-width="0.04" stroke-linecap="round" stroke-linejoin="round"/>
<path d="M6.33002 7.44C6.05002 7.49 5.45002 7.77 5.52002 8.15C5.62002 8.69 5.94002 8.48 6.36002 8.4L6.68002 8.51C6.79002 8.63 6.96002 8.73 7.08002 8.59H7.27002V9.33H5.18002V7.55L6.34002 7.44H6.33002Z" fill="black" stroke="black" stroke-width="0.04" stroke-linecap="round" stroke-linejoin="round"/>
<path d="M5.39001 7.44C5.46181 7.44 5.52001 7.3818 5.52001 7.31C5.52001 7.2382 5.46181 7.18 5.39001 7.18C5.31821 7.18 5.26001 7.2382 5.26001 7.31C5.26001 7.3818 5.31821 7.44 5.39001 7.44Z" fill="#FFD83D" stroke="black" stroke-width="0.05" stroke-linecap="round" stroke-linejoin="round"/>
<path d="M5.68002 7.38C5.75181 7.38 5.81002 7.3218 5.81002 7.25C5.81002 7.17821 5.75181 7.12 5.68002 7.12C5.60822 7.12 5.55002 7.17821 5.55002 7.25C5.55002 7.3218 5.60822 7.38 5.68002 7.38Z" fill="#FFD83D" stroke="black" stroke-width="0.05" stroke-linecap="round" stroke-linejoin="round"/>
<path d="M5.97003 7.3C6.04182 7.3 6.10003 7.2418 6.10003 7.17C6.10003 7.0982 6.04182 7.04 5.97003 7.04C5.89823 7.04 5.84003 7.0982 5.84003 7.17C5.84003 7.2418 5.89823 7.3 5.97003 7.3Z" fill="#FFD83D" stroke="black" stroke-width="0.05" stroke-linecap="round" stroke-linejoin="round"/>
<path d="M6.26004 7.25C6.33183 7.25 6.39004 7.19179 6.39004 7.12C6.39004 7.0482 6.33183 6.99 6.26004 6.99C6.18824 6.99 6.13004 7.0482 6.13004 7.12C6.13004 7.19179 6.18824 7.25 6.26004 7.25Z" fill="#FFD83D" stroke="black" stroke-width="0.05" stroke-linecap="round" stroke-linejoin="round"/>
<path d="M6.55001 7.23C6.62181 7.23 6.68001 7.1718 6.68001 7.1C6.68001 7.0282 6.62181 6.97 6.55001 6.97C6.47822 6.97 6.42001 7.0282 6.42001 7.1C6.42001 7.1718 6.47822 7.23 6.55001 7.23Z" fill="#FFD83D" stroke="black" stroke-width="0.05" stroke-linecap="round" stroke-linejoin="round"/>
<path d="M6.83001 7.24C6.90181 7.24 6.96001 7.1818 6.96001 7.11C6.96001 7.03821 6.90181 6.98 6.83001 6.98C6.75822 6.98 6.70001 7.03821 6.70001 7.11C6.70001 7.1818 6.75822 7.24 6.83001 7.24Z" fill="#FFD83D" stroke="black" stroke-width="0.05" stroke-linecap="round" stroke-linejoin="round"/>
<path d="M7.10003 7.33C7.17183 7.33 7.23003 7.2718 7.23003 7.2C7.23003 7.1282 7.17183 7.07 7.10003 7.07C7.02823 7.07 6.97003 7.1282 6.97003 7.2C6.97003 7.2718 7.02823 7.33 7.10003 7.33Z" fill="#FFD83D" stroke="black" stroke-width="0.05" stroke-linecap="round" stroke-linejoin="round"/>
<path d="M7.33001 7.5C7.40181 7.5 7.46001 7.44179 7.46001 7.37C7.46001 7.2982 7.40181 7.24 7.33001 7.24C7.25822 7.24 7.20001 7.2982 7.20001 7.37C7.20001 7.44179 7.25822 7.5 7.33001 7.5Z" fill="#FFD83D" stroke="black" stroke-width="0.05" stroke-linecap="round" stroke-linejoin="round"/>
<path d="M7.49002 7.74C7.56181 7.74 7.62002 7.6818 7.62002 7.61C7.62002 7.53821 7.56181 7.48 7.49002 7.48C7.41822 7.48 7.36002 7.53821 7.36002 7.61C7.36002 7.6818 7.41822 7.74 7.49002 7.74Z" fill="#FFD83D" stroke="black" stroke-width="0.05" stroke-linecap="round" stroke-linejoin="round"/>
<path d="M7.57003 8.01C7.64183 8.01 7.70003 7.9518 7.70003 7.88C7.70003 7.8082 7.64183 7.75 7.57003 7.75C7.49824 7.75 7.44003 7.8082 7.44003 7.88C7.44003 7.9518 7.49824 8.01 7.57003 8.01Z" fill="#FFD83D" stroke="black" stroke-width="0.05" stroke-linecap="round" stroke-linejoin="round"/>
<path d="M7.57003 8.3C7.64183 8.3 7.70003 8.2418 7.70003 8.17C7.70003 8.0982 7.64183 8.04 7.57003 8.04C7.49824 8.04 7.44003 8.0982 7.44003 8.17C7.44003 8.2418 7.49824 8.3 7.57003 8.3Z" fill="#FFD83D" stroke="black" stroke-width="0.05" stroke-linecap="round" stroke-linejoin="round"/>
<path d="M7.51004 8.58C7.58183 8.58 7.64004 8.5218 7.64004 8.45C7.64004 8.3782 7.58183 8.32 7.51004 8.32C7.43824 8.32 7.38004 8.3782 7.38004 8.45C7.38004 8.5218 7.43824 8.58 7.51004 8.58Z" fill="#FFD83D" stroke="black" stroke-width="0.05" stroke-linecap="round" stroke-linejoin="round"/>
<path d="M5.34002 7.48V7.65C5.67002 7.6 6.11002 7.43 6.53002 7.43C6.92002 7.43 7.21002 7.58 7.21002 7.97C7.21002 8.36 7.05002 8.7 6.83002 9.06L7.05002 9.17C7.25002 8.78 7.42002 8.45 7.42002 8C7.42002 7.63 7.13002 7.26 6.62002 7.26C6.17002 7.26 5.71002 7.41 5.33002 7.5L5.34002 7.48Z" fill="#FFD83D" stroke="black" stroke-width="0.05" stroke-linecap="round" stroke-linejoin="round"/>
<path d="M5.16 5.78L5.03 6.03L5.16 6.28L5.29 6.03L5.16 5.78ZM5.16 6.4L5.03 6.65L5.16 6.9L5.29 6.65L5.16 6.4Z" fill="#FFD83D" stroke="black" stroke-width="0.05" stroke-linecap="round" stroke-linejoin="round"/>
<path d="M4.68002 6.34L4.89002 6.47L5.10002 6.34L4.89002 6.21L4.68002 6.34ZM5.21002 6.34L5.42002 6.47L5.63002 6.34L5.42002 6.21L5.21002 6.34Z" fill="#FFD83D" stroke="black" stroke-width="0.05" stroke-linecap="round" stroke-linejoin="round"/>
<path d="M5.16 6.44C5.21523 6.44 5.26 6.39523 5.26 6.34C5.26 6.28477 5.21523 6.24 5.16 6.24C5.10477 6.24 5.06 6.28477 5.06 6.34C5.06 6.39523 5.10477 6.44 5.16 6.44Z" fill="#FFD83D" stroke="black" stroke-width="0.05" stroke-linecap="round" stroke-linejoin="round"/>
<path d="M5.16001 7.25C5.30913 7.25 5.43001 7.12912 5.43001 6.98C5.43001 6.83088 5.30913 6.71 5.16001 6.71C5.0109 6.71 4.89001 6.83088 4.89001 6.98C4.89001 7.12912 5.0109 7.25 5.16001 7.25Z" fill="#FFD83D" stroke="black" stroke-width="0.05" stroke-linecap="round" stroke-linejoin="round"/>
<path d="M5.08999 6.72C5.08999 6.8 5.08999 6.85 5.08999 6.89C5.02999 6.89 4.95999 6.89 4.89999 6.91M5.41999 6.91C5.35999 6.9 5.28999 6.89 5.22999 6.89V6.72M4.89999 7.05C4.97999 7.04 5.06999 7.03 5.15999 7.03C5.24999 7.03 5.33999 7.03 5.41999 7.05" stroke="black" stroke-width="0.04" stroke-linecap="round" stroke-linejoin="round"/>
<path d="M4.89001 7.43C4.86001 7.87 4.81001 8.32 4.64001 8.64L4.92001 8.53C5.02001 8.16 5.04001 7.69 5.07001 7.46L4.89001 7.43ZM5.42001 7.43L5.24001 7.46C5.27001 7.68 5.29001 8.16 5.39001 8.53L5.67001 8.64C5.50001 8.32 5.45001 7.87 5.42001 7.43Z" fill="#FFD83D" stroke="black" stroke-width="0.05" stroke-linecap="round" stroke-linejoin="round"/>
<path d="M5.16001 8.38C4.83001 8.38 4.58001 8.54 4.57001 8.93C4.49001 8.79 4.15001 8.34 3.83001 8.4C3.64001 8.44 3.47001 8.7 3.50001 9C3.34001 8.55 2.88001 8.47 2.54001 8.74C2.84001 8.99 2.97001 9.71 3.22001 10.03H7.09001C7.34001 9.72 7.48001 8.99 7.77001 8.74C7.43001 8.47 6.97001 8.55 6.81001 9C6.84001 8.7 6.67001 8.43 6.48001 8.4C6.16001 8.34 5.82001 8.79 5.74001 8.93C5.73001 8.53 5.48001 8.38 5.15001 8.38H5.16001Z" fill="#FFD83D" stroke="black" stroke-width="0.05" stroke-linecap="round" stroke-linejoin="round"/>
<path d="M7.09001 10.04C7.09001 10.18 6.23001 10.34 5.16001 10.34C4.09001 10.34 3.23001 10.18 3.23001 10.04C3.23001 9.9 4.09001 9.82 5.16001 9.82C6.23001 9.82 7.09001 9.9 7.09001 10.04Z" fill="black" stroke="black" stroke-width="0.04" stroke-linecap="round" stroke-linejoin="round"/>
<path d="M5.16001 7.44C5.20971 7.44 5.25001 7.39971 5.25001 7.35C5.25001 7.3003 5.20971 7.26 5.16001 7.26C5.1103 7.26 5.07001 7.3003 5.07001 7.35C5.07001 7.39971 5.1103 7.44 5.16001 7.44Z" fill="#FFD83D" stroke="black" stroke-width="0.04" stroke-linecap="round" stroke-linejoin="round"/>
<path d="M5.16 7.65C5.21523 7.65 5.26 7.60523 5.26 7.55C5.26 7.49478 5.21523 7.45 5.16 7.45C5.10477 7.45 5.06 7.49478 5.06 7.55C5.06 7.60523 5.10477 7.65 5.16 7.65Z" fill="#FFD83D" stroke="black" stroke-width="0.04" stroke-linecap="round" stroke-linejoin="round"/>
<path d="M5.16 7.86C5.21523 7.86 5.26 7.81523 5.26 7.76C5.26 7.70478 5.21523 7.66 5.16 7.66C5.10477 7.66 5.06 7.70478 5.06 7.76C5.06 7.81523 5.10477 7.86 5.16 7.86Z" fill="#FFD83D" stroke="black" stroke-width="0.04" stroke-linecap="round" stroke-linejoin="round"/>
<path d="M5.16001 8.11C5.22628 8.11 5.28001 8.05628 5.28001 7.99C5.28001 7.92373 5.22628 7.87 5.16001 7.87C5.09373 7.87 5.04001 7.92373 5.04001 7.99C5.04001 8.05628 5.09373 8.11 5.16001 8.11Z" fill="#FFD83D" stroke="black" stroke-width="0.04" stroke-linecap="round" stroke-linejoin="round"/>
<path d="M5.16 8.38C5.2318 8.38 5.29 8.3218 5.29 8.25C5.29 8.17821 5.2318 8.12 5.16 8.12C5.0882 8.12 5.03 8.17821 5.03 8.25C5.03 8.3218 5.0882 8.38 5.16 8.38Z" fill="#FFD83D" stroke="black" stroke-width="0.04" stroke-linecap="round" stroke-linejoin="round"/>
<path d="M5.10001 8.5C5.10001 8.5 5.07001 8.51 5.08001 8.53C5.08001 8.56 5.08001 8.61 5.09001 8.64C5.09001 8.68 5.12001 8.67 5.12001 8.64C5.12001 8.61 5.12001 8.59 5.12001 8.54C5.12001 8.51 5.11001 8.5 5.09001 8.5H5.10001ZM5.21001 8.5C5.21001 8.5 5.18001 8.51 5.18001 8.54C5.18001 8.6 5.18001 8.61 5.18001 8.64C5.18001 8.67 5.21001 8.68 5.21001 8.64C5.21001 8.61 5.22001 8.56 5.22001 8.53C5.22001 8.51 5.22001 8.5 5.20001 8.5H5.21001ZM5.01001 8.52C5.01001 8.52 4.98001 8.53 4.98001 8.55C4.98001 8.58 4.98001 8.61 4.99001 8.64C4.99001 8.68 5.02001 8.66 5.02001 8.64C5.02001 8.62 5.02001 8.58 5.02001 8.54C5.02001 8.52 5.02001 8.52 5.00001 8.52H5.01001ZM5.30001 8.52C5.30001 8.52 5.28001 8.52 5.28001 8.54C5.28001 8.58 5.28001 8.62 5.28001 8.64C5.28001 8.66 5.31001 8.68 5.31001 8.64C5.31001 8.6 5.31001 8.57 5.32001 8.55C5.32001 8.54 5.31001 8.52 5.29001 8.52H5.30001ZM4.90001 8.56C4.90001 8.56 4.88001 8.58 4.88001 8.59C4.88001 8.62 4.89001 8.66 4.89001 8.69C4.89001 8.72 4.91001 8.71 4.92001 8.69C4.92001 8.67 4.92001 8.63 4.92001 8.59C4.92001 8.56 4.91001 8.55 4.90001 8.56ZM5.40001 8.56C5.40001 8.56 5.38001 8.57 5.38001 8.59C5.38001 8.63 5.38001 8.67 5.38001 8.69C5.38001 8.71 5.41001 8.72 5.41001 8.69C5.41001 8.66 5.41001 8.62 5.42001 8.59C5.42001 8.57 5.42001 8.56 5.40001 8.56ZM3.89001 8.56C3.89001 8.56 3.87001 8.58 3.88001 8.6C3.90001 8.63 3.91001 8.66 3.93001 8.69C3.94001 8.72 3.97001 8.7 3.96001 8.68C3.96001 8.66 3.95001 8.63 3.92001 8.58C3.92001 8.56 3.90001 8.55 3.89001 8.55V8.56ZM6.42001 8.56C6.42001 8.56 6.40001 8.56 6.39001 8.59C6.37001 8.64 6.36001 8.66 6.35001 8.69C6.35001 8.71 6.36001 8.73 6.38001 8.7C6.40001 8.66 6.41001 8.64 6.43001 8.61C6.43001 8.59 6.43001 8.57 6.42001 8.57V8.56ZM3.99001 8.57C3.99001 8.57 3.97001 8.59 3.98001 8.6C3.99001 8.63 4.01001 8.66 4.02001 8.7C4.03001 8.73 4.06001 8.72 4.05001 8.7C4.05001 8.67 4.04001 8.66 4.02001 8.61C4.02001 8.58 4.00001 8.58 3.99001 8.58V8.57ZM6.31001 8.57C6.31001 8.57 6.29001 8.58 6.28001 8.6C6.26001 8.65 6.26001 8.67 6.25001 8.69C6.25001 8.72 6.27001 8.73 6.28001 8.69C6.29001 8.66 6.31001 8.62 6.32001 8.59C6.32001 8.57 6.32001 8.56 6.31001 8.56V8.57ZM4.12001 8.59C4.12001 8.59 4.10001 8.61 4.11001 8.64C4.12001 8.67 4.14001 8.7 4.15001 8.74C4.16001 8.78 4.19001 8.77 4.18001 8.74C4.18001 8.72 4.17001 8.68 4.15001 8.62C4.15001 8.6 4.13001 8.59 4.12001 8.59ZM6.19001 8.59C6.19001 8.59 6.17001 8.59 6.16001 8.62C6.14001 8.68 6.14001 8.71 6.13001 8.74C6.13001 8.76 6.15001 8.77 6.16001 8.74C6.17001 8.71 6.19001 8.67 6.20001 8.64C6.20001 8.62 6.20001 8.6 6.19001 8.59ZM3.80001 8.61C3.80001 8.61 3.77001 8.63 3.78001 8.65C3.79001 8.68 3.80001 8.69 3.82001 8.72C3.83001 8.75 3.85001 8.72 3.84001 8.71C3.84001 8.69 3.83001 8.67 3.82001 8.64C3.82001 8.62 3.81001 8.61 3.80001 8.61ZM6.51001 8.61C6.51001 8.61 6.49001 8.61 6.49001 8.64C6.49001 8.67 6.48001 8.69 6.47001 8.71C6.46001 8.73 6.47001 8.75 6.49001 8.72C6.50001 8.69 6.51001 8.68 6.53001 8.65C6.53001 8.63 6.53001 8.61 6.51001 8.61ZM4.79001 8.68C4.79001 8.68 4.76001 8.7 4.76001 8.72C4.76001 8.75 4.78001 8.78 4.79001 8.81C4.79001 8.84 4.82001 8.83 4.82001 8.81C4.82001 8.79 4.82001 8.76 4.80001 8.71C4.80001 8.69 4.79001 8.68 4.78001 8.68H4.79001ZM5.52001 8.68C5.52001 8.68 5.50001 8.68 5.50001 8.71C5.50001 8.76 5.49001 8.79 5.48001 8.81C5.48001 8.83 5.50001 8.85 5.51001 8.81C5.51001 8.77 5.53001 8.75 5.54001 8.72C5.54001 8.7 5.53001 8.68 5.51001 8.68H5.52001ZM5.16001 8.71C5.16001 8.71 5.14001 8.73 5.14001 8.75C5.14001 8.82 5.11001 8.88 5.09001 8.91C5.07001 8.94 5.03001 8.93 5.00001 8.91C4.97001 8.89 4.95001 8.88 4.91001 8.85C4.88001 8.82 4.85001 8.84 4.89001 8.9C5.01001 9.07 5.14001 9.21 5.14001 9.49C5.14001 9.53 5.14001 9.54 5.16001 9.54C5.18001 9.54 5.18001 9.53 5.18001 9.49C5.18001 9.21 5.31001 9.07 5.43001 8.9C5.47001 8.84 5.44001 8.83 5.41001 8.85C5.38001 8.88 5.36001 8.89 5.32001 8.91C5.29001 8.93 5.25001 8.94 5.23001 8.91C5.21001 8.88 5.18001 8.81 5.18001 8.75C5.18001 8.73 5.18001 8.71 5.16001 8.71ZM4.25001 8.67C4.25001 8.67 4.24001 8.68 4.25001 8.69C4.25001 8.72 4.27001 8.77 4.28001 8.79C4.28001 8.81 4.32001 8.81 4.31001 8.78C4.31001 8.75 4.31001 8.74 4.29001 8.7C4.29001 8.68 4.27001 8.67 4.26001 8.67H4.25001ZM6.06001 8.67C6.06001 8.67 6.03001 8.68 6.03001 8.7C6.03001 8.74 6.03001 8.75 6.01001 8.78C6.01001 8.81 6.03001 8.82 6.04001 8.79C6.04001 8.77 6.06001 8.72 6.07001 8.69C6.07001 8.68 6.07001 8.67 6.07001 8.67H6.06001ZM3.71001 8.68C3.71001 8.68 3.68001 8.7 3.70001 8.73C3.72001 8.76 3.74001 8.8 3.76001 8.82C3.78001 8.84 3.79001 8.82 3.78001 8.8C3.76001 8.77 3.76001 8.74 3.74001 8.7C3.74001 8.69 3.72001 8.68 3.71001 8.68ZM6.60001 8.68C6.60001 8.68 6.58001 8.68 6.57001 8.7C6.55001 8.74 6.55001 8.77 6.53001 8.8C6.51001 8.83 6.53001 8.84 6.55001 8.82C6.57001 8.8 6.59001 8.76 6.61001 8.73C6.63001 8.7 6.61001 8.68 6.60001 8.68ZM2.90001 8.77C2.90001 8.77 2.88001 8.8 2.90001 8.82C2.92001 8.85 2.94001 8.87 2.97001 8.89C2.99001 8.91 3.00001 8.89 2.99001 8.87C2.98001 8.85 2.96001 8.83 2.94001 8.8C2.93001 8.78 2.92001 8.78 2.91001 8.78L2.90001 8.77ZM7.41001 8.77C7.41001 8.77 7.39001 8.77 7.38001 8.79C7.36001 8.82 7.34001 8.84 7.33001 8.86C7.32001 8.88 7.33001 8.9 7.35001 8.88C7.38001 8.86 7.39001 8.84 7.42001 8.81C7.44001 8.79 7.43001 8.76 7.42001 8.76L7.41001 8.77ZM3.03001 8.79C3.03001 8.79 3.01001 8.8 3.02001 8.82C3.04001 8.85 3.06001 8.89 3.07001 8.92C3.08001 8.95 3.12001 8.95 3.11001 8.92C3.09001 8.88 3.09001 8.86 3.08001 8.82C3.08001 8.8 3.05001 8.79 3.04001 8.79H3.03001ZM7.28001 8.79C7.28001 8.79 7.25001 8.79 7.24001 8.82C7.23001 8.86 7.22001 8.88 7.21001 8.92C7.19001 8.96 7.23001 8.95 7.25001 8.92C7.26001 8.89 7.28001 8.86 7.30001 8.82C7.31001 8.8 7.30001 8.79 7.29001 8.79H7.28001ZM2.78001 8.8C2.78001 8.8 2.76001 8.82 2.78001 8.83C2.80001 8.85 2.83001 8.87 2.86001 8.89C2.89001 8.92 2.90001 8.89 2.89001 8.87C2.87001 8.85 2.86001 8.83 2.81001 8.81C2.80001 8.81 2.79001 8.81 2.78001 8.81V8.8ZM7.54001 8.8C7.54001 8.8 7.52001 8.8 7.51001 8.8C7.47001 8.82 7.45001 8.84 7.43001 8.86C7.41001 8.88 7.43001 8.9 7.46001 8.88C7.49001 8.86 7.52001 8.84 7.54001 8.82C7.56001 8.81 7.56001 8.79 7.54001 8.79V8.8ZM4.72001 8.82C4.72001 8.82 4.70001 8.83 4.70001 8.85C4.70001 8.88 4.72001 8.91 4.72001 8.94C4.72001 8.97 4.76001 8.97 4.75001 8.94C4.75001 8.91 4.75001 8.88 4.73001 8.84C4.73001 8.82 4.72001 8.82 4.71001 8.82H4.72001ZM5.59001 8.82C5.59001 8.82 5.57001 8.82 5.57001 8.84C5.57001 8.88 5.56001 8.91 5.55001 8.94C5.55001 8.97 5.58001 8.97 5.58001 8.94C5.58001 8.91 5.60001 8.88 5.60001 8.85C5.60001 8.83 5.60001 8.82 5.58001 8.82H5.59001ZM3.95001 8.77C3.95001 8.77 3.94001 8.79 3.95001 8.81C3.99001 8.94 4.00001 9.01 3.99001 9.04C3.99001 9.07 3.97001 9.08 3.94001 9.07C3.92001 9.06 3.89001 9.04 3.87001 9.03C3.85001 9.02 3.83001 9.03 3.86001 9.06C4.02001 9.19 4.12001 9.33 4.16001 9.51C4.16001 9.55 4.19001 9.55 4.18001 9.51C4.14001 9.29 4.14001 9.1 4.19001 8.99C4.21001 8.95 4.19001 8.91 4.16001 8.98C4.14001 9.03 4.10001 9.05 4.08001 9C4.05001 8.96 4.00001 8.85 3.98001 8.8C3.98001 8.78 3.97001 8.77 3.96001 8.77H3.95001ZM6.36001 8.77C6.36001 8.77 6.35001 8.77 6.34001 8.8C6.32001 8.85 6.27001 8.96 6.24001 9C6.21001 9.04 6.18001 9.02 6.16001 8.98C6.13001 8.91 6.11001 8.95 6.13001 8.99C6.18001 9.11 6.18001 9.29 6.14001 9.51C6.14001 9.55 6.16001 9.55 6.16001 9.51C6.20001 9.33 6.31001 9.19 6.46001 9.06C6.49001 9.03 6.46001 9.02 6.45001 9.03C6.43001 9.04 6.40001 9.06 6.38001 9.07C6.36001 9.08 6.34001 9.07 6.33001 9.04C6.33001 9.01 6.33001 8.94 6.37001 8.81C6.37001 8.79 6.37001 8.77 6.37001 8.77H6.36001ZM3.17001 8.83C3.17001 8.83 3.14001 8.83 3.15001 8.86C3.16001 8.89 3.18001 8.93 3.19001 8.95C3.19001 8.97 3.22001 8.96 3.22001 8.93C3.22001 8.9 3.22001 8.88 3.21001 8.85C3.21001 8.83 3.19001 8.82 3.18001 8.83H3.17001ZM7.15001 8.83C7.15001 8.83 7.12001 8.83 7.12001 8.85C7.12001 8.88 7.12001 8.9 7.11001 8.93C7.10001 8.96 7.13001 8.97 7.14001 8.95C7.14001 8.93 7.17001 8.89 7.18001 8.86C7.18001 8.84 7.18001 8.83 7.16001 8.83H7.15001ZM3.65001 8.79C3.65001 8.79 3.63001 8.83 3.65001 8.85C3.67001 8.87 3.69001 8.9 3.72001 8.93C3.74001 8.96 3.75001 8.93 3.74001 8.91C3.73001 8.89 3.71001 8.87 3.67001 8.81C3.67001 8.8 3.65001 8.79 3.65001 8.79ZM6.66001 8.79C6.66001 8.79 6.65001 8.79 6.64001 8.81C6.61001 8.86 6.59001 8.89 6.57001 8.91C6.56001 8.93 6.57001 8.95 6.59001 8.93C6.62001 8.9 6.64001 8.87 6.66001 8.85C6.67001 8.83 6.67001 8.79 6.66001 8.79ZM3.28001 8.89C3.28001 8.89 3.26001 8.89 3.27001 8.92C3.27001 8.95 3.28001 8.97 3.29001 9C3.29001 9.03 3.32001 9.02 3.32001 9C3.32001 8.98 3.32001 8.95 3.32001 8.92C3.32001 8.91 3.31001 8.9 3.30001 8.9L3.28001 8.89ZM7.04001 8.89C7.04001 8.89 7.02001 8.89 7.02001 8.91C7.02001 8.94 7.02001 8.97 7.02001 8.99C7.02001 9.01 7.04001 9.02 7.05001 8.99C7.05001 8.96 7.07001 8.94 7.07001 8.91C7.07001 8.89 7.07001 8.88 7.06001 8.88L7.04001 8.89ZM3.61001 8.92C3.61001 8.92 3.58001 8.94 3.60001 8.96C3.63001 9 3.66001 9.03 3.67001 9.04C3.68001 9.05 3.71001 9.04 3.69001 9.02C3.67001 8.99 3.64001 8.95 3.63001 8.93C3.63001 8.93 3.62001 8.92 3.61001 8.92ZM6.69001 8.92C6.69001 8.92 6.68001 8.92 6.67001 8.93C6.66001 8.95 6.63001 8.99 6.61001 9.02C6.59001 9.05 6.62001 9.06 6.63001 9.04C6.64001 9.03 6.67001 9 6.70001 8.96C6.72001 8.94 6.70001 8.92 6.69001 8.92ZM3.08001 9.03C3.08001 9.03 3.06001 9.03 3.08001 9.06C3.12001 9.11 3.16001 9.19 3.16001 9.23C3.16001 9.26 3.15001 9.26 3.13001 9.26C3.08001 9.26 3.06001 9.23 3.02001 9.22C2.98001 9.22 2.97001 9.23 3.00001 9.25C3.16001 9.36 3.31001 9.49 3.38001 9.61C3.41001 9.66 3.44001 9.67 3.42001 9.63C3.36001 9.49 3.35001 9.38 3.36001 9.31C3.37001 9.24 3.39001 9.19 3.39001 9.15C3.39001 9.11 3.36001 9.11 3.36001 9.15C3.36001 9.18 3.34001 9.21 3.33001 9.22C3.33001 9.23 3.29001 9.24 3.25001 9.2C3.22001 9.16 3.13001 9.07 3.11001 9.05C3.10001 9.05 3.09001 9.04 3.08001 9.04V9.03ZM7.23001 9.03C7.23001 9.03 7.21001 9.03 7.20001 9.04C7.17001 9.06 7.09001 9.15 7.06001 9.19C7.03001 9.23 6.99001 9.23 6.98001 9.21C6.98001 9.2 6.96001 9.16 6.95001 9.14C6.95001 9.1 6.92001 9.1 6.92001 9.14C6.92001 9.18 6.94001 9.23 6.95001 9.3C6.96001 9.37 6.95001 9.49 6.89001 9.62C6.87001 9.66 6.91001 9.65 6.93001 9.6C6.99001 9.48 7.15001 9.36 7.31001 9.24C7.34001 9.22 7.33001 9.2 7.29001 9.21C7.25001 9.21 7.22001 9.25 7.18001 9.25C7.16001 9.25 7.15001 9.25 7.15001 9.22C7.15001 9.19 7.20001 9.11 7.23001 9.05C7.25001 9.03 7.24001 9.02 7.23001 9.02V9.03Z" fill="black"/>
<path d="M3.31 9.87L3.36 10.03L3.31 9.87ZM3.41 9.84L3.45 10L3.41 9.84ZM3.53 9.82L3.56 9.98L3.53 9.82ZM3.63 9.8L3.66 9.96L3.63 9.8ZM3.76 9.79L3.79 9.95L3.76 9.79ZM3.9 9.79L3.93 9.95L3.9 9.79ZM4.04 9.74L4.06 9.9L4.04 9.74ZM4.17 9.75L4.19 9.91L4.17 9.75ZM4.29 9.74L4.31 9.9L4.29 9.74ZM4.42 9.72V9.89V9.72ZM4.55 9.72V9.89V9.72ZM4.68 9.72V9.89V9.72ZM4.81 9.71V9.88V9.71ZM4.96 9.7V9.87V9.7ZM7 9.87L6.95 10.03L7 9.87ZM6.9 9.84L6.86 10L6.9 9.84ZM6.79 9.82L6.76 9.98L6.79 9.82ZM6.68 9.8L6.65 9.96L6.68 9.8ZM6.55 9.79L6.52 9.95L6.55 9.79ZM6.41 9.79L6.38 9.95L6.41 9.79ZM6.27 9.74L6.25 9.9L6.27 9.74ZM6.14 9.75L6.12 9.91L6.14 9.75ZM6.02 9.74L6 9.9L6.02 9.74ZM5.89 9.72V9.89V9.72ZM5.76 9.72V9.89V9.72ZM5.64 9.72V9.89V9.72ZM5.5 9.71V9.88V9.71ZM5.35 9.7V9.87V9.7ZM5.16 9.69V9.87V9.69Z" fill="#FFD83D"/>
<path d="M3.31 9.87L3.36 10.03M3.41 9.84L3.45 10M3.53 9.82L3.56 9.98M3.63 9.8L3.66 9.96M3.76 9.79L3.79 9.95M3.9 9.79L3.93 9.95M4.04 9.74L4.06 9.9M4.17 9.75L4.19 9.91M4.29 9.74L4.31 9.9M4.42 9.72V9.89M4.55 9.72V9.89M4.68 9.72V9.89M4.81 9.71V9.88M4.96 9.7V9.87M7 9.87L6.95 10.03M6.9 9.84L6.86 10M6.79 9.82L6.76 9.98M6.68 9.8L6.65 9.96M6.55 9.79L6.52 9.95M6.41 9.79L6.38 9.95M6.27 9.74L6.25 9.9M6.14 9.75L6.12 9.91M6.02 9.74L6 9.9M5.89 9.72V9.89M5.76 9.72V9.89M5.64 9.72V9.89M5.5 9.71V9.88M5.35 9.7V9.87M5.16 9.69V9.87" stroke="black" stroke-width="0.04" stroke-linecap="round" stroke-linejoin="round"/>
</svg>
