<svg width="24" height="24" viewBox="0 0 24 24" fill="none" xmlns="http://www.w3.org/2000/svg">
<path d="M0 4H24V20H0V4Z" fill="white"/>
<path d="M24 12H12V10.86H24V12ZM24 9.71H12V8.57H24V9.71ZM24 7.43H12V6.29H24V7.43ZM24 5.14H12V4H24V5.14Z" fill="#CC0000"/>
<path d="M0 4H12V13.14H0V4Z" fill="#000066"/>
<path d="M24 18.86H0V17.72H24V18.86ZM24 16.57H0V15.43H24V16.57ZM24 14.29H0V13.15H24V14.29Z" fill="#CC0000"/>
<path d="M7.73 6.14L7.95 7.62L8.79 6.38L8.34 7.81L9.64001 7.05L8.61 8.15L10.11 8.03L8.71 8.57L10.11 9.11L8.61 8.99L9.64001 10.09L8.34 9.33L8.79 10.76L7.95 9.52L7.73 11L7.51 9.52L6.67 10.76L7.12 9.33L5.82 10.09L6.85 8.99L5.35 9.11L6.75 8.57L5.35 8.03L6.85 8.15L5.82 7.05L7.12 7.81L6.67 6.38L7.51 7.62L7.73 6.14ZM6.52 6.2C5.21 5.62 3.67 6.2 3.09 7.52C2.51 8.83 3.09 10.37 4.41 10.95C5.08 11.25 5.85 11.25 6.52 10.95C5.21 11.89 3.38 11.59 2.44 10.28C1.5 8.97 1.8 7.14 3.11 6.2C4.13 5.47 5.5 5.47 6.52 6.2Z" fill="#FFCC00"/>
</svg>
