<svg width="24" height="24" viewBox="0 0 24 24" fill="none" xmlns="http://www.w3.org/2000/svg">
<path d="M0 4H24V20H0V4Z" fill="black"/>
<path d="M12 13.52C13.8999 13.52 15.44 11.9799 15.44 10.08C15.44 8.18014 13.8999 6.64 12 6.64C10.1001 6.64 8.56 8.18014 8.56 10.08C8.56 11.9799 10.1001 13.52 12 13.52Z" fill="#CE1126"/>
<path d="M12 4.64C11.88 4.64 11.84 4.81 11.84 4.99C11.84 5.41 11.89 5.63 12 6.24C12.11 5.62 12.16 5.4 12.16 4.99C12.16 4.82 12.12 4.64 12 4.64Z" fill="#CE1126"/>
<path d="M12.47 4.66C12.35 4.65 12.3 4.82 12.28 4.99C12.24 5.41 12.28 5.63 12.33 6.25C12.49 5.64 12.56 5.43 12.6 5.02C12.62 4.85 12.59 4.67 12.47 4.66Z" fill="#CE1126"/>
<path d="M12.94 4.72C12.83 4.7 12.75 4.86 12.72 5.03C12.65 5.44 12.66 5.67 12.66 6.29C12.87 5.7 12.96 5.49 13.04 5.08C13.07 4.91 13.06 4.73 12.94 4.71V4.72Z" fill="#CE1126"/>
<path d="M13.41 4.83C13.3 4.8 13.21 4.96 13.17 5.12C13.06 5.52 13.05 5.75 13 6.37C13.26 5.8 13.37 5.6 13.48 5.2C13.52 5.03 13.53 4.85 13.42 4.82L13.41 4.83Z" fill="#CE1126"/>
<path d="M13.86 4.97C13.75 4.93 13.65 5.08 13.59 5.24C13.45 5.63 13.42 5.86 13.31 6.47C13.62 5.93 13.75 5.74 13.89 5.35C13.95 5.19 13.97 5.01 13.86 4.97Z" fill="#CE1126"/>
<path d="M14.3 5.15C14.2 5.1 14.08 5.24 14.01 5.4C13.83 5.78 13.79 6 13.63 6.6C13.99 6.09 14.13 5.91 14.3 5.53C14.37 5.37 14.41 5.2 14.3 5.15Z" fill="#CE1126"/>
<path d="M14.72 5.37C14.62 5.31 14.49 5.44 14.41 5.59C14.2 5.95 14.14 6.17 13.92 6.76C14.32 6.28 14.48 6.12 14.69 5.75C14.78 5.6 14.82 5.43 14.72 5.37Z" fill="#CE1126"/>
<path d="M15.12 5.62C15.03 5.55 14.89 5.67 14.79 5.81C14.55 6.15 14.47 6.36 14.2 6.93C14.64 6.49 14.81 6.34 15.05 6C15.15 5.86 15.21 5.69 15.12 5.62Z" fill="#CE1126"/>
<path d="M15.5 5.91C15.41 5.84 15.27 5.94 15.15 6.07C14.88 6.39 14.78 6.59 14.47 7.13C14.95 6.73 15.13 6.59 15.4 6.27C15.51 6.14 15.59 5.98 15.5 5.9V5.91Z" fill="#CE1126"/>
<path d="M15.85 6.23C15.77 6.15 15.61 6.23 15.49 6.36C15.19 6.66 15.08 6.85 14.72 7.36C15.23 7 15.42 6.88 15.72 6.59C15.84 6.47 15.93 6.31 15.85 6.23Z" fill="#CE1126"/>
<path d="M16.17 6.58C16.1 6.49 15.93 6.57 15.8 6.68C15.48 6.95 15.35 7.13 14.94 7.61C15.48 7.3 15.68 7.2 16 6.93C16.13 6.82 16.24 6.67 16.16 6.58H16.17Z" fill="#CE1126"/>
<path d="M16.46 6.96C16.39 6.87 16.23 6.93 16.08 7.03C15.74 7.27 15.59 7.44 15.15 7.88C15.72 7.62 15.93 7.53 16.27 7.29C16.41 7.19 16.53 7.05 16.46 6.96Z" fill="#CE1126"/>
<path d="M16.71 7.36C16.65 7.26 16.48 7.31 16.33 7.39C15.97 7.6 15.8 7.75 15.32 8.16C15.91 7.95 16.12 7.88 16.49 7.67C16.64 7.58 16.77 7.46 16.71 7.36Z" fill="#CE1126"/>
<path d="M16.93 7.78C16.88 7.68 16.71 7.71 16.55 7.78C16.17 7.96 16 8.1 15.48 8.45C16.09 8.29 16.3 8.24 16.68 8.07C16.84 8 16.98 7.88 16.93 7.78Z" fill="#CE1126"/>
<path d="M17.11 8.21999C17.07 8.10999 16.89 8.13 16.73 8.19C16.34 8.33 16.15 8.46 15.61 8.77C16.23 8.66 16.45 8.62999 16.84 8.48999C17 8.42999 17.15 8.32999 17.11 8.21999Z" fill="#CE1126"/>
<path d="M17.25 8.67C17.22 8.56 17.04 8.56 16.87 8.61C16.47 8.72 16.27 8.82 15.7 9.09C16.32 9.04 16.55 9.03 16.95 8.92C17.12 8.88 17.27 8.79 17.24 8.68L17.25 8.67Z" fill="#CE1126"/>
<path d="M6.64 9.14C6.62 9.25 6.78 9.33 6.95 9.36C7.36 9.43 7.59 9.42 8.21 9.42C7.62 9.21 7.41 9.12 7 9.04C6.83 9.01 6.65 9.02 6.63 9.14H6.64Z" fill="#CE1126"/>
<path d="M6.74999 8.67C6.71999 8.78 6.87999 8.87 7.03999 8.91C7.43999 9.02 7.66999 9.03 8.28999 9.08C7.71999 8.82 7.51999 8.71 7.11999 8.6C6.94999 8.56 6.76999 8.55 6.73999 8.66L6.74999 8.67Z" fill="#CE1126"/>
<path d="M6.89 8.21999C6.85 8.32999 7 8.42999 7.16 8.48999C7.55 8.62999 7.78 8.66 8.39 8.77C7.85 8.46 7.66 8.33 7.27 8.19C7.11 8.13 6.93 8.10999 6.89 8.21999Z" fill="#CE1126"/>
<path d="M7.06999 7.78C7.01999 7.88 7.15999 8 7.31999 8.07C7.69999 8.25 7.91999 8.29 8.51999 8.45C8.00999 8.09 7.82999 7.95 7.44999 7.78C7.28999 7.71 7.11999 7.67 7.06999 7.78Z" fill="#CE1126"/>
<path d="M7.29002 7.36C7.23002 7.46 7.36002 7.59 7.51002 7.67C7.87002 7.88 8.09002 7.94 8.68002 8.16C8.20002 7.76 8.04002 7.6 7.67002 7.39C7.52002 7.3 7.35002 7.26 7.29002 7.36Z" fill="#CE1126"/>
<path d="M7.54 6.96C7.47 7.05 7.59 7.19 7.73 7.29C8.07 7.53 8.28 7.61 8.85 7.88C8.41 7.44 8.26 7.27 7.92 7.03C7.78 6.93 7.61 6.87 7.54 6.96Z" fill="#CE1126"/>
<path d="M7.83 6.58C7.76 6.67 7.86 6.81 7.99 6.93C8.31 7.2 8.51 7.3 9.05 7.61C8.65 7.13 8.51 6.95 8.19 6.68C8.06 6.57 7.9 6.49 7.82 6.58H7.83Z" fill="#CE1126"/>
<path d="M8.15 6.23C8.07 6.31 8.15 6.47 8.28 6.59C8.58 6.89 8.77 7 9.28 7.36C8.92 6.85 8.8 6.66 8.51 6.36C8.39 6.24 8.23 6.15 8.15 6.23Z" fill="#CE1126"/>
<path d="M8.5 5.91C8.41 5.98 8.49 6.15 8.6 6.28C8.87 6.6 9.05 6.73 9.53 7.14C9.22 6.6 9.12 6.4 8.85 6.08C8.74 5.95 8.59 5.84 8.5 5.92V5.91Z" fill="#CE1126"/>
<path d="M8.88001 5.62C8.79001 5.69 8.85001 5.85 8.95001 6C9.19001 6.34 9.36001 6.49 9.80001 6.93C9.54001 6.36 9.45001 6.15 9.21001 5.81C9.11001 5.67 8.97001 5.55 8.88001 5.62Z" fill="#CE1126"/>
<path d="M9.27999 5.37C9.17999 5.43 9.22999 5.6 9.30999 5.75C9.51999 6.11 9.66999 6.28 10.08 6.76C9.86999 6.17 9.79999 5.96 9.58999 5.59C9.49999 5.44 9.37999 5.31 9.27999 5.37Z" fill="#CE1126"/>
<path d="M9.69998 5.15C9.59998 5.2 9.62998 5.37 9.69998 5.53C9.87998 5.91 10.02 6.08 10.37 6.6C10.21 5.99 10.16 5.78 9.98998 5.4C9.91998 5.24 9.79998 5.1 9.69998 5.15Z" fill="#CE1126"/>
<path d="M10.14 4.96999C10.03 5.00999 10.05 5.18999 10.11 5.34999C10.25 5.73999 10.38 5.92999 10.69 6.46999C10.58 5.84999 10.55 5.62999 10.41 5.23999C10.35 5.07999 10.25 4.92999 10.14 4.96999Z" fill="#CE1126"/>
<path d="M10.59 4.82999C10.48 4.85999 10.48 5.03999 10.53 5.20999C10.64 5.60999 10.74 5.80999 11.01 6.37999C10.96 5.75999 10.95 5.52999 10.84 5.12999C10.8 4.95999 10.71 4.80999 10.6 4.83999L10.59 4.82999Z" fill="#CE1126"/>
<path d="M11.06 4.71999C10.95 4.73999 10.93 4.91999 10.96 5.08999C11.03 5.49999 11.12 5.70999 11.34 6.29999C11.34 5.66999 11.35 5.44999 11.28 5.03999C11.25 4.86999 11.18 4.70999 11.06 4.72999V4.71999Z" fill="#CE1126"/>
<path d="M11.53 4.66C11.41 4.67 11.39 4.85 11.4 5.02C11.44 5.44 11.51 5.65 11.67 6.25C11.72 5.63 11.76 5.4 11.72 4.99C11.7 4.82 11.65 4.65 11.53 4.66Z" fill="#CE1126"/>
<path d="M0 8.93H24V20H0V8.93Z" fill="black"/>
<path d="M0 9.33H24V20H0V9.33Z" fill="#CE1126"/>
<path d="M0 14.67H24V20H0V14.67Z" fill="#339E35"/>
</svg>
