<svg width="24" height="24" viewBox="0 0 24 24" fill="none" xmlns="http://www.w3.org/2000/svg">
<path d="M22 6H2V18H22V6Z" fill="#007E3A"/>
<path d="M24 20H0V4H24V20ZM4 16H20V8H4V16Z" fill="#D21034"/>
<path d="M13 14.67C14.4746 14.67 15.67 13.4746 15.67 12C15.67 10.5254 14.4746 9.33 13 9.33C11.5254 9.33 10.33 10.5254 10.33 12C10.33 13.4746 11.5254 14.67 13 14.67Z" fill="white"/>
<path d="M14 14.67C15.4746 14.67 16.67 13.4746 16.67 12C16.67 10.5254 15.4746 9.33 14 9.33C12.5254 9.33 11.33 10.5254 11.33 12C11.33 13.4746 12.5254 14.67 14 14.67Z" fill="#007E3A"/>
</svg>
