<svg width="24" height="24" viewBox="0 0 24 24" fill="none" xmlns="http://www.w3.org/2000/svg">
<path d="M0 4H24V20H0V4Z" fill="white"/>
<path d="M12 4H24V20H12V4Z" fill="#CF142B"/>
<path d="M3.67001 9.15H2.34001V8.02C2.17001 8 2.02001 7.86 1.99001 7.69C1.99001 7.69 1.99001 7.68 1.99001 7.67H0.850006V6.34H1.98001C2.00001 6.17 2.14001 6.02 2.31001 5.99C2.31001 5.99 2.32001 5.99 2.33001 5.99V4.85H3.66001V5.98C3.83001 6 3.98001 6.14 4.01001 6.31C4.01001 6.31 4.01001 6.32 4.01001 6.33H5.14001V7.66H4.01001C3.99001 7.83 3.85001 7.98 3.68001 8.01C3.68001 8.01 3.67001 8.01 3.66001 8.01V9.14L3.67001 9.15ZM2.48001 9H3.52001V7.87H3.60001C3.60001 7.87 3.64001 7.87 3.66001 7.87C3.79001 7.84 3.89001 7.72 3.88001 7.6V7.52H5.01001V6.48H3.88001V6.4C3.88001 6.4 3.88001 6.36 3.88001 6.34C3.85001 6.21 3.73001 6.11 3.61001 6.12H3.53001V4.99H2.49001V6.12H2.41001C2.41001 6.12 2.37001 6.12 2.35001 6.12C2.22001 6.15 2.12001 6.27 2.13001 6.39V6.47H1.00001V7.51H2.13001V7.59C2.13001 7.59 2.13001 7.63 2.13001 7.65C2.16001 7.78 2.28001 7.88 2.40001 7.87H2.48001V9Z" fill="#CF142B"/>
<path d="M3.59002 6.05C3.75002 6.03 3.91002 6.16 3.95002 6.32C3.95002 6.35 3.95002 6.38 3.95002 6.41V7.58C3.97002 7.74 3.84002 7.9 3.68002 7.94C3.65002 7.94 3.62002 7.94 3.59002 7.94H2.42002C2.26002 7.96 2.10002 7.83 2.06002 7.67C2.06002 7.64 2.06002 7.61 2.06002 7.58V6.41C2.04002 6.25 2.17002 6.09 2.33002 6.05C2.36002 6.05 2.39002 6.05 2.42002 6.05H3.59002Z" fill="white"/>
<path d="M2.40999 4.93H3.57999V9.06H2.40999V4.93ZM0.929993 6.41H5.05999V7.58H0.929993V6.41Z" fill="white"/>
<path d="M3.58999 9.07H2.39999V7.59H0.929993V6.4H2.40999V4.93H3.59999V6.41H5.07999V7.6H3.59999V9.08L3.58999 9.07ZM2.41999 9.06H3.57999V7.59H2.41999V9.06ZM3.58999 7.58H5.05999V6.42H3.58999V7.58ZM2.41999 7.58H3.57999V6.42H2.41999V7.58ZM0.939993 7.58H2.40999V6.42H0.939993V7.58ZM2.41999 6.41H3.57999V4.94H2.41999V6.41Z" fill="black"/>
<path d="M2.48003 5H3.52003V9H2.48003V5ZM1.00003 6.48H5.00003V7.52H1.00003V6.48Z" fill="white"/>
<path d="M3.53002 9.01H2.47002V7.53H0.990021V6.47H2.47002V4.99H3.53002V6.47H5.01002V7.53H3.53002V9.01ZM2.50002 8.99H3.51002V7.54H2.50002V8.99ZM3.53002 7.5H4.98002V6.49H3.53002V7.5ZM2.50002 7.5H3.51002V6.49H2.50002V7.5ZM1.01002 7.5H2.46002V6.49H1.01002V7.5ZM2.50002 6.47H3.51002V5.02H2.50002V6.47Z" fill="black"/>
<path d="M3.00001 7.93C3.51363 7.93 3.93001 7.51362 3.93001 7C3.93001 6.48637 3.51363 6.07 3.00001 6.07C2.48638 6.07 2.07001 6.48637 2.07001 7C2.07001 7.51362 2.48638 7.93 3.00001 7.93Z" fill="white"/>
<path d="M3 7.94C2.48 7.94 2.06 7.52 2.06 7C2.06 6.48 2.48 6.06 3 6.06C3.52 6.06 3.94 6.48 3.94 7C3.94 7.52 3.52 7.94 3 7.94ZM3 6.09C2.5 6.09 2.09 6.5 2.09 7C2.09 7.5 2.5 7.91 3 7.91C3.5 7.91 3.91 7.5 3.91 7C3.91 6.5 3.5 6.09 3 6.09Z" fill="black"/>
<path d="M3.00003 7.69C3.3811 7.69 3.69003 7.38107 3.69003 7C3.69003 6.61892 3.3811 6.31 3.00003 6.31C2.61895 6.31 2.31003 6.61892 2.31003 7C2.31003 7.38107 2.61895 7.69 3.00003 7.69Z" fill="white"/>
<path d="M3.00002 7.7C2.61002 7.7 2.30002 7.39 2.30002 7C2.30002 6.61 2.61002 6.3 3.00002 6.3C3.39002 6.3 3.70002 6.61 3.70002 7C3.70002 7.39 3.39002 7.7 3.00002 7.7ZM3.00002 6.33C2.63002 6.33 2.33002 6.63 2.33002 7C2.33002 7.37 2.63002 7.67 3.00002 7.67C3.37002 7.67 3.67002 7.37 3.67002 7C3.67002 6.63 3.37002 6.33 3.00002 6.33Z" fill="black"/>
<path d="M3.88998 6.26C3.88998 6.26 3.79998 6.35 3.75998 6.39L3.72998 6.37C3.72998 6.37 3.83998 6.27 3.87998 6.23L3.89998 6.26H3.88998ZM3.85998 6.2C3.79998 6.22 3.68998 6.25 3.63998 6.28V6.26C3.63998 6.26 3.66998 6.11 3.66998 6.08H3.70998C3.70998 6.08 3.68998 6.18 3.67998 6.22C3.71998 6.22 3.80998 6.18 3.82998 6.17L3.84998 6.2H3.85998Z" fill="white"/>
<path d="M3.75998 6.4L3.72998 6.38C3.77998 6.34 3.83998 6.28 3.87998 6.24L3.89998 6.27C3.86998 6.29 3.80998 6.36 3.76998 6.4H3.75998ZM3.73998 6.37H3.75998C3.75998 6.37 3.84998 6.28 3.87998 6.26V6.24C3.87998 6.24 3.77998 6.33 3.73998 6.37ZM3.64998 6.29V6.27H3.63998C3.65998 6.24 3.67998 6.13 3.67998 6.09H3.71998C3.71998 6.09 3.71998 6.09 3.71998 6.1C3.70998 6.13 3.69998 6.18 3.68998 6.22C3.72998 6.22 3.80998 6.19 3.82998 6.17L3.84998 6.2C3.79998 6.22 3.67998 6.25 3.63998 6.28L3.64998 6.29ZM3.63998 6.27C3.63998 6.27 3.77998 6.22 3.83998 6.2V6.18C3.83998 6.18 3.70998 6.22 3.67998 6.23C3.67998 6.19 3.68998 6.14 3.69998 6.1H3.67998C3.67998 6.1 3.65998 6.23 3.63998 6.27Z" fill="black"/>
<path d="M3.94 6.34H3.89C3.9 6.28 3.85 6.19 3.77 6.14C3.69 6.09 3.62 6.1 3.61 6.16C3.6 6.22 3.65 6.31 3.73 6.36C3.76 6.38 3.79 6.39 3.82 6.39L3.85 6.35L3.89 6.39L3.85 6.43C3.69 6.41 3.56 6.26 3.56 6.1C3.56 6.09 3.56 6.07 3.56 6.06C3.71 6.03 3.88 6.14 3.92 6.3C3.92 6.31 3.92 6.32 3.92 6.33L3.94 6.34Z" fill="white"/>
<path d="M3.85 6.44C3.69 6.42 3.56 6.26 3.56 6.1C3.56 6.09 3.56 6.07 3.56 6.06C3.72 6.03 3.88 6.14 3.93 6.31C3.93 6.32 3.93 6.33 3.93 6.34H3.88C3.88 6.28 3.84 6.2 3.76 6.15C3.72 6.12 3.67 6.11 3.64 6.12C3.62 6.12 3.61 6.14 3.61 6.16C3.61 6.22 3.65 6.3 3.73 6.35C3.76 6.37 3.79 6.38 3.81 6.38L3.84 6.34L3.88 6.38L3.84 6.42L3.85 6.44ZM3.57 6.07C3.57 6.07 3.57 6.09 3.57 6.1C3.57 6.25 3.69 6.4 3.85 6.42L3.89 6.38L3.86 6.35L3.83 6.38C3.8 6.38 3.77 6.37 3.74 6.35C3.66 6.3 3.61 6.21 3.62 6.15C3.62 6.13 3.64 6.11 3.66 6.1C3.69 6.09 3.74 6.1 3.79 6.13C3.87 6.18 3.92 6.26 3.91 6.33H3.94V6.31C3.9 6.16 3.74 6.05 3.59 6.07H3.57Z" fill="black"/>
<path d="M3.74002 7.89C3.74002 7.89 3.65002 7.8 3.61002 7.76L3.63002 7.73C3.63002 7.73 3.73002 7.84 3.77002 7.88L3.74002 7.9V7.89ZM3.80002 7.86C3.78002 7.8 3.75002 7.69 3.72002 7.64H3.74002C3.74002 7.64 3.89002 7.67 3.92002 7.67V7.71C3.92002 7.71 3.82002 7.69 3.78002 7.68C3.78002 7.72 3.82002 7.81 3.83002 7.83L3.80002 7.85V7.86Z" fill="white"/>
<path d="M3.74002 7.9C3.72002 7.87 3.65002 7.81 3.61002 7.77L3.63002 7.74C3.67002 7.79 3.73002 7.85 3.77002 7.89L3.74002 7.91V7.9ZM3.62002 7.76C3.62002 7.76 3.72002 7.85 3.75002 7.88H3.77002C3.77002 7.88 3.68002 7.78 3.64002 7.74V7.76H3.62002ZM3.80002 7.87C3.78002 7.82 3.75002 7.7 3.72002 7.66H3.74002V7.65C3.77002 7.67 3.88002 7.69 3.92002 7.69V7.73C3.92002 7.73 3.92002 7.73 3.91002 7.73C3.88002 7.72 3.83002 7.71 3.79002 7.7C3.79002 7.74 3.82002 7.82 3.84002 7.84L3.81002 7.86L3.80002 7.87ZM3.73002 7.65C3.73002 7.65 3.79002 7.79 3.80002 7.85H3.82002C3.82002 7.85 3.78002 7.72 3.77002 7.69C3.81002 7.69 3.86002 7.7 3.90002 7.71V7.69C3.90002 7.69 3.77002 7.67 3.73002 7.65Z" fill="black"/>
<path d="M3.66001 7.94V7.89C3.72001 7.9 3.81001 7.85 3.86001 7.77C3.91001 7.69 3.90001 7.62 3.84001 7.61C3.78001 7.6 3.69001 7.65 3.64001 7.73C3.62001 7.76 3.61001 7.79 3.61001 7.82L3.65001 7.85L3.61001 7.89L3.57001 7.85C3.59001 7.69 3.74001 7.56 3.90001 7.56C3.91001 7.56 3.93001 7.56 3.94001 7.56C3.97001 7.71 3.86001 7.88 3.70001 7.92C3.69001 7.92 3.68001 7.92 3.67001 7.92L3.66001 7.94Z" fill="white"/>
<path d="M3.66002 7.94V7.89C3.72002 7.89 3.80002 7.85 3.85002 7.77C3.88002 7.73 3.89002 7.68 3.88002 7.65C3.88002 7.63 3.86002 7.62 3.84002 7.62C3.78002 7.62 3.70002 7.66 3.65002 7.74C3.63002 7.77 3.62002 7.8 3.62002 7.82L3.66002 7.85L3.62002 7.89L3.58002 7.85C3.60002 7.69 3.75002 7.56 3.91002 7.56C3.92002 7.56 3.94002 7.56 3.95002 7.56C3.98002 7.72 3.87002 7.88 3.70002 7.93C3.69002 7.93 3.68002 7.93 3.67002 7.93L3.66002 7.94ZM3.67002 7.9V7.93H3.69002C3.84002 7.89 3.95002 7.73 3.93002 7.58C3.92002 7.58 3.91002 7.58 3.90002 7.58C3.75002 7.58 3.61002 7.7 3.58002 7.86L3.62002 7.9L3.65002 7.87L3.62002 7.84C3.62002 7.81 3.63002 7.78 3.65002 7.75C3.70002 7.67 3.79002 7.62 3.85002 7.63C3.87002 7.63 3.89002 7.65 3.90002 7.67C3.91002 7.7 3.90002 7.75 3.87002 7.8C3.82002 7.88 3.74002 7.93 3.67002 7.92V7.9Z" fill="black"/>
<path d="M2.11001 7.74C2.11001 7.74 2.20001 7.65 2.24001 7.61L2.27001 7.63C2.27001 7.63 2.16001 7.73 2.12001 7.77L2.10001 7.74H2.11001ZM2.14001 7.8C2.20001 7.78 2.31001 7.75 2.36001 7.72V7.74C2.36001 7.74 2.33001 7.89 2.33001 7.92H2.29001C2.29001 7.92 2.31001 7.82 2.32001 7.78C2.28001 7.78 2.19001 7.82 2.17001 7.83L2.15001 7.8H2.14001Z" fill="white"/>
<path d="M2.32001 7.92H2.28001C2.28001 7.92 2.28001 7.92 2.28001 7.91C2.29001 7.88 2.30001 7.83 2.31001 7.79C2.27001 7.79 2.19001 7.82 2.17001 7.84L2.15001 7.81C2.20001 7.79 2.32001 7.76 2.36001 7.73V7.75H2.37001C2.35001 7.78 2.33001 7.89 2.33001 7.93L2.32001 7.92ZM2.30001 7.9H2.32001C2.32001 7.9 2.34001 7.77 2.36001 7.73C2.36001 7.73 2.22001 7.78 2.16001 7.8V7.82C2.16001 7.82 2.29001 7.78 2.32001 7.77C2.32001 7.81 2.31001 7.86 2.30001 7.9ZM2.12001 7.78L2.10001 7.75C2.13001 7.73 2.19001 7.66 2.23001 7.62L2.26001 7.64C2.21001 7.68 2.15001 7.74 2.11001 7.78H2.12001ZM2.12001 7.74V7.76C2.12001 7.76 2.22001 7.67 2.26001 7.63H2.24001C2.24001 7.63 2.15001 7.72 2.12001 7.74Z" fill="black"/>
<path d="M2.06003 7.66H2.11003C2.10003 7.72 2.15003 7.81 2.23003 7.86C2.31003 7.91 2.38003 7.9 2.39003 7.84C2.40003 7.78 2.35003 7.69 2.27003 7.64C2.24003 7.62 2.21003 7.61 2.18003 7.61L2.15003 7.65L2.11003 7.61L2.15003 7.57C2.31003 7.59 2.44003 7.74 2.44003 7.9C2.44003 7.91 2.44003 7.93 2.44003 7.94C2.29003 7.97 2.12003 7.86 2.08003 7.7C2.08003 7.69 2.08003 7.68 2.08003 7.67L2.06003 7.66Z" fill="white"/>
<path d="M2.39002 7.95C2.25002 7.95 2.11002 7.85 2.07002 7.7C2.07002 7.69 2.07002 7.68 2.07002 7.67H2.12002C2.12002 7.73 2.16002 7.81 2.24002 7.86C2.28002 7.89 2.33002 7.9 2.36002 7.89C2.38002 7.89 2.39002 7.87 2.39002 7.85C2.39002 7.79 2.35002 7.71 2.27002 7.66C2.24002 7.64 2.21002 7.63 2.19002 7.63L2.16002 7.67L2.12002 7.63L2.16002 7.59C2.32002 7.61 2.45002 7.77 2.45002 7.93C2.45002 7.94 2.45002 7.96 2.45002 7.97C2.43002 7.97 2.42002 7.97 2.40002 7.97L2.39002 7.95ZM2.07002 7.67V7.69C2.11002 7.84 2.27002 7.95 2.42002 7.93C2.42002 7.92 2.42002 7.91 2.42002 7.9C2.42002 7.75 2.30002 7.6 2.14002 7.58L2.10002 7.62L2.13002 7.65L2.16002 7.62C2.19002 7.62 2.22002 7.63 2.25002 7.65C2.33002 7.7 2.38002 7.79 2.37002 7.85C2.37002 7.87 2.35002 7.89 2.33002 7.9C2.30002 7.91 2.25002 7.9 2.20002 7.87C2.12002 7.82 2.07002 7.74 2.08002 7.67H2.05002H2.07002Z" fill="black"/>
<path d="M2.25999 6.11C2.25999 6.11 2.34999 6.2 2.38999 6.24L2.36999 6.27C2.36999 6.27 2.26999 6.16 2.22999 6.12L2.25999 6.1V6.11ZM2.19999 6.14C2.21999 6.2 2.24999 6.31 2.27999 6.36H2.25999C2.25999 6.36 2.10999 6.33 2.07999 6.33V6.29C2.07999 6.29 2.17999 6.31 2.21999 6.32C2.21999 6.28 2.17999 6.19 2.16999 6.17L2.19999 6.15V6.14Z" fill="white"/>
<path d="M2.27 6.37C2.24 6.35 2.13 6.33 2.09 6.33V6.29C2.09 6.29 2.09 6.29 2.1 6.29C2.13 6.3 2.18 6.31 2.22 6.32C2.22 6.28 2.19 6.2 2.17 6.18L2.2 6.16C2.22 6.21 2.25 6.33 2.28 6.37H2.26V6.38L2.27 6.37ZM2.1 6.32C2.1 6.32 2.24 6.34 2.27 6.36C2.24 6.31 2.21 6.21 2.2 6.15H2.18C2.18 6.15 2.22 6.28 2.23 6.31C2.19 6.31 2.14 6.3 2.1 6.29V6.31V6.32ZM2.37 6.28C2.33 6.23 2.27 6.17 2.23 6.13L2.26 6.11C2.28 6.14 2.35 6.2 2.39 6.24L2.37 6.27V6.28ZM2.24 6.13C2.24 6.13 2.33 6.22 2.37 6.27V6.25C2.37 6.25 2.28 6.16 2.26 6.13H2.24Z" fill="black"/>
<path d="M2.33999 6.06V6.11C2.27999 6.1 2.18999 6.15 2.13999 6.23C2.08999 6.31 2.09999 6.38 2.15999 6.39C2.21999 6.4 2.30999 6.35 2.35999 6.27C2.37999 6.24 2.38999 6.21 2.38999 6.18L2.34999 6.15L2.38999 6.11L2.42999 6.15C2.40999 6.31 2.25999 6.44 2.09999 6.44C2.08999 6.44 2.06999 6.44 2.05999 6.44C2.02999 6.29 2.13999 6.12 2.29999 6.08C2.30999 6.08 2.31999 6.08 2.32999 6.08L2.33999 6.06Z" fill="white"/>
<path d="M2.10999 6.44C2.09999 6.44 2.07999 6.44 2.06999 6.44C2.03999 6.28 2.14999 6.12 2.31999 6.07C2.32999 6.07 2.33999 6.07 2.34999 6.07V6.12C2.28999 6.12 2.20999 6.16 2.15999 6.24C2.12999 6.28 2.11999 6.33 2.12999 6.36C2.12999 6.38 2.14999 6.39 2.16999 6.39C2.22999 6.39 2.30999 6.35 2.35999 6.27C2.37999 6.24 2.38999 6.21 2.38999 6.19L2.34999 6.16L2.38999 6.12L2.42999 6.16C2.40999 6.32 2.25999 6.45 2.09999 6.45L2.10999 6.44ZM2.06999 6.43C2.06999 6.43 2.08999 6.43 2.09999 6.43C2.24999 6.43 2.38999 6.31 2.41999 6.15L2.37999 6.11L2.34999 6.14L2.37999 6.17C2.37999 6.2 2.36999 6.23 2.34999 6.26C2.29999 6.34 2.20999 6.39 2.14999 6.38C2.12999 6.38 2.10999 6.36 2.09999 6.34C2.08999 6.31 2.09999 6.26 2.12999 6.21C2.17999 6.13 2.25999 6.08 2.32999 6.09V6.06H2.30999C2.15999 6.1 2.04999 6.26 2.06999 6.41V6.43Z" fill="black"/>
<path d="M2.26002 7.52C2.26002 7.52 2.21002 7.44 2.20002 7.42C2.20002 7.42 2.22002 7.4 2.23002 7.4C2.23002 7.42 2.26002 7.47 2.26002 7.47L2.31002 7.44C2.31002 7.44 2.28002 7.4 2.27002 7.39C2.28002 7.39 2.30002 7.37 2.30002 7.37C2.30002 7.38 2.30002 7.4 2.33002 7.42C2.33002 7.42 2.38002 7.39 2.39002 7.37L2.41002 7.4C2.41002 7.4 2.29002 7.47 2.26002 7.5V7.52ZM2.19002 7.08C2.14002 7.08 2.11002 7.14 2.12002 7.19C2.12002 7.24 2.18002 7.28 2.23002 7.27C2.28002 7.27 2.31002 7.21 2.30002 7.16C2.29002 7.11 2.25002 7.07 2.19002 7.08ZM2.20002 7.11C2.20002 7.11 2.28002 7.12 2.29002 7.16C2.30002 7.2 2.27002 7.23 2.23002 7.23C2.19002 7.23 2.15002 7.21 2.15002 7.18C2.15002 7.15 2.17002 7.11 2.21002 7.11H2.20002ZM2.31002 6.79C2.31002 6.79 2.25002 6.84 2.22002 6.87C2.22002 6.85 2.20002 6.83 2.18002 6.83C2.16002 6.83 2.13002 6.85 2.13002 6.86C2.13002 6.88 2.12002 6.95 2.12002 6.95C2.17002 6.95 2.26002 6.95 2.30002 6.97V6.93H2.23002V6.91L2.28002 6.87C2.28002 6.87 2.33002 6.83 2.33002 6.8L2.31002 6.79ZM2.20002 6.92C2.20002 6.92 2.14002 6.92 2.12002 6.92C2.12002 6.88 2.14002 6.86 2.16002 6.87C2.18002 6.87 2.20002 6.88 2.20002 6.93V6.92ZM2.40002 6.41C2.40002 6.41 2.31002 6.45 2.31002 6.48C2.31002 6.5 2.31002 6.52 2.34002 6.54C2.36002 6.56 2.38002 6.56 2.40002 6.56C2.42002 6.56 2.45002 6.53 2.45002 6.52C2.45002 6.51 2.42002 6.47 2.40002 6.47L2.43002 6.43C2.43002 6.43 2.47002 6.48 2.48002 6.48C2.47002 6.51 2.45002 6.55 2.41002 6.57C2.37002 6.59 2.33002 6.59 2.30002 6.55C2.27002 6.52 2.28002 6.46 2.30002 6.44C2.32002 6.41 2.37002 6.4 2.37002 6.38L2.40002 6.41ZM2.58002 6.21V6.34C2.58002 6.34 2.58002 6.39 2.58002 6.42L2.62002 6.39L2.61002 6.34L2.68002 6.3C2.68002 6.3 2.71002 6.32 2.71002 6.34L2.77002 6.32L2.70002 6.28L2.60002 6.21H2.58002ZM2.61002 6.25L2.67002 6.29L2.61002 6.32V6.25ZM2.90002 6.12C2.90002 6.12 2.90002 6.22 2.91002 6.27C2.95002 6.27 2.98002 6.27 3.00002 6.24V6.28C3.00002 6.28 2.92002 6.28 2.88002 6.29C2.88002 6.23 2.88002 6.15 2.86002 6.12H2.91002H2.90002ZM3.21002 6.14C3.21002 6.14 3.18002 6.23 3.17002 6.28C3.21002 6.29 3.24002 6.3 3.26002 6.28V6.32C3.26002 6.32 3.17002 6.29 3.13002 6.28C3.15002 6.23 3.17002 6.15 3.17002 6.11H3.21002V6.14ZM3.52002 6.28L3.41002 6.35C3.41002 6.35 3.37002 6.37 3.34002 6.38L3.38002 6.4L3.42002 6.37L3.48002 6.41C3.48002 6.41 3.48002 6.45 3.45002 6.46L3.50002 6.5V6.42L3.52002 6.3V6.28ZM3.49002 6.31V6.38L3.43002 6.34L3.49002 6.31ZM3.58002 6.58L3.56002 6.55C3.56002 6.55 3.68002 6.5 3.72002 6.47L3.68002 6.66C3.71002 6.65 3.77002 6.62 3.78002 6.6L3.80002 6.64C3.80002 6.64 3.69002 6.67 3.64002 6.7L3.67002 6.52C3.67002 6.52 3.58002 6.56 3.57002 6.59L3.58002 6.58ZM3.85002 6.83C3.85002 6.83 3.85002 6.79 3.83002 6.78L3.86002 6.76C3.87002 6.79 3.89002 6.89 3.89002 6.91H3.86002C3.87002 6.9 3.86002 6.85 3.86002 6.85C3.81002 6.85 3.73002 6.87 3.72002 6.89V6.85C3.72002 6.85 3.81002 6.85 3.86002 6.83H3.85002ZM3.69002 7.22C3.69002 7.22 3.75002 7.17 3.78002 7.14C3.78002 7.16 3.80002 7.18 3.82002 7.18C3.84002 7.18 3.87002 7.16 3.87002 7.15C3.87002 7.13 3.88002 7.06 3.88002 7.06C3.83002 7.06 3.74002 7.06 3.70002 7.04V7.08H3.77002V7.1L3.72002 7.14C3.72002 7.14 3.67002 7.18 3.67002 7.21L3.69002 7.22ZM3.80002 7.09C3.80002 7.09 3.86002 7.09 3.88002 7.09C3.88002 7.13 3.86002 7.15 3.84002 7.14C3.82002 7.14 3.80002 7.13 3.80002 7.08V7.09ZM3.63002 7.33L3.60002 7.38C3.60002 7.38 3.65002 7.39 3.67002 7.41C3.67002 7.43 3.71002 7.48 3.71002 7.54L3.74002 7.48C3.74002 7.48 3.71002 7.47 3.70002 7.41C3.75002 7.39 3.78002 7.39 3.79002 7.4L3.82002 7.35C3.82002 7.35 3.70002 7.39 3.69002 7.39C3.68002 7.39 3.63002 7.37 3.63002 7.35V7.33Z" fill="black"/>
<path d="M3.43001 7.72C3.45211 7.72 3.47001 7.70209 3.47001 7.68C3.47001 7.65791 3.45211 7.64 3.43001 7.64C3.40792 7.64 3.39001 7.65791 3.39001 7.68C3.39001 7.70209 3.40792 7.72 3.43001 7.72Z" fill="black"/>
<path d="M2.57003 7.72C2.59212 7.72 2.61003 7.70209 2.61003 7.68C2.61003 7.65791 2.59212 7.64 2.57003 7.64C2.54794 7.64 2.53003 7.65791 2.53003 7.68C2.53003 7.70209 2.54794 7.72 2.57003 7.72Z" fill="black"/>
<path d="M3.06 7.88C3.06 7.88 3.05 7.88 3.04 7.87C3.04 7.87 3.04 7.88 3.04 7.89C3.03 7.9 3.02 7.89 3.01 7.89C3 7.89 2.99 7.89 2.98 7.89C2.98 7.89 2.98 7.88 2.98 7.87C2.98 7.87 2.97 7.88 2.96 7.88C2.96 7.88 2.96 7.87 2.96 7.86C2.96 7.86 2.95 7.86 2.94 7.86C2.93 7.86 2.93 7.84 2.92 7.83C2.91 7.82 2.91 7.81 2.92 7.8C2.92 7.8 2.93 7.8 2.93 7.79C2.93 7.79 2.91 7.79 2.91 7.78C2.91 7.78 2.92 7.78 2.93 7.78C2.93 7.78 2.93 7.78 2.93 7.76C2.93 7.74 2.95 7.74 2.95 7.73C2.95 7.73 2.97 7.71 2.98 7.71H2.99V7.69C2.99 7.69 2.99 7.7 2.99 7.71C2.99 7.71 2.99 7.71 3 7.71C3.02 7.71 3.02 7.71 3.03 7.73C3.03 7.73 3.05 7.73 3.05 7.76C3.05 7.76 3.05 7.77 3.05 7.78H3.07C3.07 7.78 3.07 7.79 3.05 7.79C3.05 7.79 3.05 7.79 3.06 7.8C3.06 7.81 3.06 7.83 3.06 7.83C3.06 7.83 3.06 7.85 3.04 7.86C3.04 7.86 3.03 7.86 3.02 7.86V7.88H3.06ZM2.97 7.84C2.97 7.84 2.97 7.85 2.97 7.87C2.97 7.89 2.99 7.88 3 7.88C3.01 7.88 3.02 7.88 3.03 7.87C3.03 7.86 3.03 7.85 3.03 7.84C3.03 7.83 3.04 7.85 3.05 7.85C3.07 7.85 3.07 7.83 3.07 7.82C3.07 7.82 3.08 7.8 3.07 7.79C3.06 7.79 3.05 7.79 3.04 7.79C3.03 7.79 3.05 7.79 3.06 7.77C3.06 7.75 3.05 7.75 3.04 7.74C3.04 7.74 3.02 7.72 3.01 7.74C3 7.74 3.01 7.76 3 7.76C2.99 7.76 3 7.74 2.99 7.74C2.98 7.74 2.97 7.74 2.96 7.74C2.96 7.74 2.94 7.75 2.94 7.77C2.94 7.78 2.96 7.78 2.96 7.79C2.96 7.8 2.94 7.79 2.93 7.79C2.92 7.8 2.93 7.81 2.93 7.82C2.93 7.82 2.93 7.84 2.95 7.85C2.96 7.85 2.97 7.84 2.97 7.84Z" fill="black"/>
<path d="M3.00001 7.86C3.00001 7.86 3.00001 7.86 3.00001 7.85C3.00001 7.85 2.99001 7.85 2.98001 7.85C2.98001 7.85 2.97001 7.85 2.97001 7.83H2.96001V7.81C2.96001 7.81 2.96001 7.8 2.96001 7.79C2.96001 7.79 2.96001 7.79 2.96001 7.78C2.96001 7.78 2.97001 7.78 2.98001 7.78C2.99001 7.78 2.99001 7.78 3.00001 7.78C3.00001 7.78 3.00001 7.78 3.00001 7.79C3.00001 7.79 3.00001 7.8 3.00001 7.81C3.00001 7.81 3.00001 7.82 3.00001 7.83C3.00001 7.83 3.00001 7.83 2.99001 7.83C2.99001 7.83 2.99001 7.84 2.98001 7.85C2.98001 7.85 2.98001 7.86 2.96001 7.85V7.86H3.00001ZM3.00001 7.83C3.00001 7.83 3.00001 7.83 3.00001 7.84C3.00001 7.84 3.01001 7.84 3.02001 7.84C3.03001 7.84 3.03001 7.84 3.02001 7.83C3.02001 7.83 3.01001 7.83 3.02001 7.82C3.02001 7.82 3.02001 7.82 3.03001 7.82C3.03001 7.82 3.03001 7.81 3.03001 7.8C3.03001 7.8 3.03001 7.79 3.02001 7.79H3.01001C3.01001 7.79 3.01001 7.79 3.01001 7.78C3.01001 7.78 3.00001 7.78 2.99001 7.78C2.98001 7.78 2.98001 7.78 2.97001 7.78V7.79C2.97001 7.79 2.97001 7.79 2.96001 7.79C2.96001 7.79 2.96001 7.79 2.95001 7.8C2.95001 7.8 2.95001 7.81 2.95001 7.82H2.96001C2.96001 7.82 2.96001 7.82 2.96001 7.83V7.84C2.96001 7.84 2.96001 7.84 2.98001 7.84V7.83H3.00001Z" fill="black"/>
<path d="M2.99999 7.82C3.00551 7.82 3.00999 7.81553 3.00999 7.81C3.00999 7.80448 3.00551 7.8 2.99999 7.8C2.99447 7.8 2.98999 7.80448 2.98999 7.81C2.98999 7.81553 2.99447 7.82 2.99999 7.82Z" fill="black"/>
<path d="M3.03 7.13C3.03 7.12 3.03 7.09 3.03 7.07C3.03 7.1 3.03 7.12 3.03 7.13ZM2.99 7.13C2.99 7.12 2.98 7.08 2.97 7.07C2.97 7.08 2.99 7.12 2.99 7.13ZM2.99 6.69C2.99 6.69 2.99 6.69 2.97 6.66C2.99 6.68 2.99 6.69 2.99 6.69Z" fill="black"/>
<path d="M3.16001 7.49C3.16001 7.49 3.13001 7.5 3.13001 7.51C3.13001 7.51 3.15001 7.52 3.16001 7.52C3.15001 7.52 3.11001 7.53 3.09001 7.52C3.08001 7.52 2.99001 7.51 2.97001 7.51C2.96001 7.51 2.94001 7.5 2.94001 7.48C2.94001 7.48 2.94001 7.46 2.95001 7.46C2.95001 7.45 2.97001 7.43 3.00001 7.41C2.96001 7.41 2.91001 7.4 2.89001 7.38C2.86001 7.37 2.84001 7.38 2.83001 7.41C2.83001 7.46 2.80001 7.48 2.77001 7.48C2.75001 7.48 2.74001 7.48 2.74001 7.48L2.80001 7.5C2.80001 7.5 2.82001 7.57 2.80001 7.58C2.80001 7.58 2.77001 7.58 2.75001 7.58C2.73001 7.58 2.74001 7.58 2.73001 7.58C2.72001 7.58 2.71001 7.58 2.71001 7.58C2.71001 7.58 2.71001 7.55 2.73001 7.54C2.74001 7.54 2.76001 7.54 2.76001 7.52C2.76001 7.52 2.73001 7.52 2.70001 7.5C2.68001 7.5 2.67001 7.48 2.68001 7.44C2.68001 7.4 2.73001 7.4 2.76001 7.39C2.76001 7.37 2.76001 7.34 2.78001 7.32C2.81001 7.29 2.86001 7.3 2.90001 7.3C2.92001 7.29 2.97001 7.27 3.01001 7.27C3.05001 7.27 3.22001 7.22 3.29001 7.23C3.27001 7.2 3.28001 7.14 3.31001 7.13C3.35001 7.11 3.39001 7.17 3.40001 7.16C3.41001 7.15 3.39001 7.13 3.36001 7.1C3.36001 7.09 3.36001 7.09 3.36001 7.08V7.06C3.36001 7.06 3.39001 7.06 3.39001 7.08C3.39001 7.09 3.41001 7.1 3.42001 7.09C3.43001 7.09 3.42001 7.09 3.42001 7.07V7.05C3.42001 7.05 3.45001 7.02 3.47001 7.02C3.47001 7.02 3.48001 7.04 3.49001 7.05C3.50001 7.07 3.52001 7.07 3.53001 7.08C3.53001 7.08 3.53001 7.1 3.54001 7.11C3.55001 7.13 3.58001 7.16 3.61001 7.18C3.61001 7.18 3.62001 7.18 3.62001 7.19V7.21C3.62001 7.21 3.60001 7.21 3.59001 7.21C3.57001 7.2 3.56001 7.19 3.55001 7.2C3.52001 7.2 3.50001 7.25 3.47001 7.25C3.43001 7.25 3.41001 7.19 3.39001 7.21C3.37001 7.23 3.44001 7.27 3.43001 7.29C3.43001 7.29 3.45001 7.31 3.44001 7.32C3.48001 7.32 3.51001 7.29 3.52001 7.27C3.54001 7.24 3.55001 7.23 3.56001 7.23C3.57001 7.23 3.58001 7.23 3.58001 7.24C3.58001 7.24 3.59001 7.24 3.60001 7.24C3.61001 7.24 3.60001 7.26 3.60001 7.26C3.60001 7.26 3.60001 7.26 3.59001 7.26C3.59001 7.26 3.58001 7.26 3.57001 7.27C3.57001 7.27 3.56001 7.29 3.55001 7.3C3.55001 7.31 3.52001 7.33 3.51001 7.34C3.51001 7.34 3.51001 7.36 3.51001 7.37C3.51001 7.37 3.51001 7.37 3.52001 7.37C3.52001 7.37 3.52001 7.37 3.52001 7.38C3.52001 7.38 3.48001 7.43 3.47001 7.43C3.45001 7.43 3.44001 7.41 3.45001 7.4C3.43001 7.4 3.42001 7.39 3.42001 7.38C3.42001 7.38 3.39001 7.4 3.38001 7.41C3.38001 7.41 3.37001 7.41 3.36001 7.41L3.33001 7.43C3.30001 7.43 3.27001 7.45 3.24001 7.45H3.17001L3.16001 7.49Z" fill="white"/>
<path d="M2.74 7.62C2.74 7.62 2.74 7.62 2.73 7.62C2.73 7.61 2.73 7.59 2.76 7.58C2.77 7.58 2.79 7.58 2.79 7.57C2.79 7.57 2.78 7.57 2.77 7.57C2.76 7.57 2.74 7.57 2.73 7.57C2.7 7.56 2.7 7.54 2.7 7.51C2.7 7.48 2.73 7.46 2.78 7.46C2.78 7.44 2.78 7.41 2.8 7.4C2.83 7.37 2.87 7.38 2.9 7.38C2.9 7.38 2.91 7.38 2.92 7.38C2.94 7.37 2.98 7.35 3.03 7.35C3.04 7.35 3.07 7.35 3.1 7.34C3.16 7.33 3.25 7.31 3.3 7.31C3.3 7.29 3.3 7.27 3.3 7.25C3.3 7.23 3.31 7.21 3.33 7.21C3.36 7.19 3.39 7.21 3.41 7.23C3.41 7.23 3.42 7.24 3.43 7.24C3.43 7.24 3.43 7.23 3.41 7.21C3.41 7.21 3.4 7.2 3.39 7.19C3.39 7.18 3.39 7.18 3.39 7.17V7.14C3.39 7.14 3.42 7.14 3.43 7.16C3.43 7.16 3.43 7.17 3.44 7.17C3.44 7.17 3.44 7.17 3.43 7.15C3.43 7.15 3.43 7.14 3.43 7.13C3.43 7.13 3.46 7.1 3.48 7.1C3.48 7.1 3.49 7.11 3.49 7.12C3.49 7.13 3.5 7.13 3.51 7.14C3.51 7.14 3.52 7.14 3.53 7.15C3.53 7.15 3.53 7.15 3.53 7.16C3.53 7.16 3.53 7.17 3.53 7.18C3.54 7.21 3.57 7.23 3.6 7.25C3.6 7.25 3.61 7.25 3.61 7.27V7.29C3.61 7.29 3.59 7.29 3.57 7.29C3.57 7.29 3.55 7.28 3.54 7.28C3.53 7.28 3.52 7.29 3.51 7.3C3.5 7.31 3.48 7.33 3.46 7.33C3.44 7.33 3.43 7.31 3.41 7.3C3.4 7.29 3.39 7.28 3.38 7.28C3.38 7.28 3.39 7.3 3.4 7.31C3.41 7.32 3.43 7.34 3.42 7.35C3.42 7.35 3.43 7.37 3.43 7.38C3.46 7.38 3.49 7.35 3.5 7.33C3.52 7.3 3.53 7.29 3.55 7.28H3.57C3.57 7.28 3.57 7.28 3.57 7.29C3.57 7.29 3.57 7.3 3.57 7.31C3.57 7.31 3.56 7.31 3.55 7.31C3.55 7.31 3.55 7.32 3.54 7.33C3.54 7.33 3.54 7.34 3.53 7.35C3.53 7.35 3.52 7.36 3.51 7.37C3.51 7.37 3.5 7.38 3.49 7.39C3.49 7.39 3.49 7.4 3.49 7.41C3.49 7.41 3.49 7.41 3.5 7.41C3.5 7.41 3.5 7.42 3.5 7.43C3.5 7.44 3.46 7.49 3.45 7.49C3.45 7.49 3.43 7.49 3.43 7.48C3.43 7.48 3.43 7.48 3.43 7.47H3.42C3.42 7.47 3.42 7.47 3.41 7.46C3.4 7.46 3.38 7.48 3.37 7.48C3.37 7.48 3.36 7.48 3.35 7.48L3.32 7.49C3.31 7.49 3.3 7.49 3.29 7.49C3.27 7.49 3.25 7.5 3.23 7.5H3.17C3.16 7.5 3.14 7.51 3.14 7.52C3.14 7.52 3.14 7.52 3.16 7.52C3.15 7.52 3.11 7.53 3.09 7.52C3.08 7.52 3.05 7.52 3.01 7.52C2.99 7.52 2.98 7.52 2.97 7.52C2.97 7.52 2.95 7.52 2.95 7.51C2.95 7.51 2.95 7.5 2.95 7.48C2.95 7.48 2.95 7.46 2.96 7.46C2.96 7.45 2.98 7.44 3 7.42C2.96 7.42 2.92 7.41 2.91 7.39C2.88 7.39 2.87 7.39 2.86 7.41C2.86 7.44 2.86 7.46 2.84 7.47C2.83 7.48 2.81 7.48 2.8 7.48H2.78L2.83 7.5C2.85 7.52 2.86 7.53 2.86 7.55C2.86 7.57 2.85 7.58 2.84 7.58C2.84 7.58 2.81 7.58 2.8 7.58C2.8 7.58 2.8 7.58 2.79 7.58H2.78H2.76L2.74 7.62ZM2.74 7.61C2.74 7.61 2.74 7.61 2.76 7.61C2.76 7.61 2.76 7.61 2.78 7.61C2.78 7.61 2.78 7.61 2.79 7.61C2.8 7.61 2.82 7.61 2.82 7.61C2.82 7.61 2.83 7.6 2.83 7.58C2.83 7.57 2.83 7.55 2.81 7.54L2.75 7.52C2.75 7.52 2.76 7.51 2.78 7.52C2.79 7.52 2.81 7.52 2.81 7.51C2.82 7.5 2.83 7.48 2.83 7.46C2.84 7.43 2.86 7.42 2.9 7.43C2.91 7.44 2.96 7.46 3 7.45C2.95 7.48 2.95 7.49 2.95 7.49C2.94 7.49 2.94 7.51 2.94 7.51C2.94 7.51 2.94 7.52 2.94 7.53C2.94 7.53 2.95 7.53 2.96 7.53C2.96 7.53 2.98 7.53 3 7.53C3.03 7.53 3.07 7.54 3.08 7.53C3.09 7.53 3.11 7.53 3.13 7.53C3.13 7.53 3.12 7.53 3.12 7.52C3.12 7.51 3.13 7.5 3.14 7.49H3.21C3.21 7.49 3.25 7.49 3.27 7.49C3.28 7.49 3.29 7.49 3.3 7.49L3.33 7.48C3.33 7.48 3.36 7.46 3.37 7.45V7.46C3.37 7.46 3.37 7.46 3.38 7.46C3.38 7.46 3.38 7.46 3.38 7.47C3.38 7.47 3.38 7.47 3.39 7.47C3.39 7.47 3.43 7.43 3.43 7.42C3.43 7.42 3.43 7.41 3.43 7.4C3.43 7.4 3.44 7.39 3.45 7.38C3.45 7.38 3.46 7.37 3.47 7.36C3.47 7.36 3.47 7.36 3.47 7.35C3.47 7.35 3.47 7.33 3.48 7.33C3.48 7.33 3.5 7.31 3.51 7.32C3.51 7.32 3.51 7.32 3.5 7.32C3.5 7.32 3.5 7.32 3.49 7.32C3.49 7.32 3.47 7.33 3.45 7.36C3.44 7.38 3.41 7.41 3.37 7.41C3.37 7.4 3.37 7.39 3.36 7.38C3.36 7.38 3.35 7.36 3.34 7.35C3.33 7.34 3.31 7.32 3.32 7.31C3.32 7.31 3.32 7.31 3.32 7.3C3.33 7.29 3.35 7.3 3.36 7.32C3.37 7.33 3.39 7.34 3.4 7.35C3.42 7.35 3.43 7.34 3.45 7.32C3.46 7.31 3.47 7.3 3.49 7.3C3.5 7.3 3.51 7.3 3.52 7.3C3.52 7.3 3.54 7.3 3.55 7.3C3.55 7.3 3.55 7.3 3.55 7.29C3.55 7.29 3.55 7.29 3.54 7.28C3.51 7.26 3.48 7.23 3.47 7.21V7.19C3.47 7.19 3.47 7.19 3.46 7.19C3.46 7.19 3.44 7.19 3.44 7.17C3.44 7.17 3.44 7.16 3.43 7.15C3.42 7.15 3.4 7.17 3.39 7.18C3.39 7.18 3.39 7.18 3.39 7.19C3.39 7.19 3.39 7.19 3.39 7.2C3.39 7.2 3.39 7.2 3.38 7.2C3.38 7.2 3.37 7.2 3.36 7.18C3.36 7.18 3.34 7.17 3.33 7.17C3.33 7.17 3.33 7.18 3.33 7.19C3.33 7.19 3.33 7.19 3.33 7.2C3.33 7.2 3.34 7.21 3.35 7.22C3.37 7.24 3.38 7.25 3.37 7.27C3.37 7.27 3.35 7.27 3.34 7.27C3.32 7.26 3.3 7.24 3.28 7.25C3.27 7.25 3.26 7.27 3.26 7.29C3.26 7.31 3.26 7.34 3.26 7.35C3.21 7.35 3.12 7.36 3.05 7.37C3.02 7.37 2.99 7.38 2.98 7.38C2.93 7.38 2.89 7.41 2.87 7.41C2.87 7.41 2.86 7.41 2.85 7.41C2.81 7.41 2.78 7.41 2.75 7.43C2.73 7.45 2.73 7.47 2.73 7.49C2.7 7.49 2.66 7.49 2.66 7.53C2.66 7.56 2.66 7.57 2.68 7.58C2.69 7.58 2.7 7.58 2.72 7.58C2.74 7.58 2.75 7.58 2.75 7.6C2.75 7.61 2.73 7.62 2.72 7.62C2.71 7.62 2.7 7.64 2.7 7.65L2.74 7.61Z" fill="black"/>
<path d="M3.27 7.21C3.27 7.21 3.25 7.25 3.27 7.27C3.29 7.28 3.31 7.29 3.32 7.31C3.32 7.32 3.32 7.34 3.32 7.34C3.3 7.34 3.28 7.36 3.27 7.38C3.27 7.35 3.24 7.36 3.22 7.36C3.22 7.33 3.2 7.31 3.17 7.31C3.17 7.31 3.17 7.3 3.16 7.29H3.12C3.12 7.29 3.13 7.27 3.12 7.26C3.12 7.25 3.08 7.26 3.07 7.26C3.07 7.24 3.07 7.24 3.07 7.22C3.07 7.21 3.03 7.22 3.01 7.21C3.02 7.2 3.03 7.18 3.02 7.17C3.02 7.15 2.97 7.17 2.97 7.15C2.97 7.15 3.02 7.14 3.03 7.13C3.05 7.13 3.1 7.14 3.16 7.16C3.17 7.17 3.26 7.2 3.26 7.23L3.27 7.21Z" fill="white"/>
<path d="M3.27001 7.39C3.27001 7.37 3.25001 7.37 3.23001 7.37C3.23001 7.37 3.23001 7.35 3.23001 7.34C3.23001 7.33 3.21001 7.32 3.19001 7.32C3.19001 7.32 3.19001 7.31 3.18001 7.3C3.18001 7.3 3.17001 7.3 3.16001 7.3H3.14001C3.14001 7.3 3.14001 7.3 3.14001 7.29C3.14001 7.29 3.14001 7.28 3.14001 7.27C3.14001 7.27 3.12001 7.27 3.11001 7.27H3.09001C3.09001 7.27 3.09001 7.25 3.09001 7.23C3.09001 7.23 3.07001 7.23 3.05001 7.22H3.03001C3.04001 7.21 3.05001 7.2 3.04001 7.18C3.04001 7.18 3.03001 7.18 3.02001 7.18H3.00001C3.00001 7.18 3.00001 7.18 3.00001 7.17C3.00001 7.16 3.07001 7.15 3.07001 7.15C3.09001 7.15 3.14001 7.16 3.20001 7.18C3.20001 7.18 3.21001 7.18 3.22001 7.19C3.25001 7.2 3.30001 7.22 3.30001 7.25C3.30001 7.25 3.30001 7.25 3.30001 7.26C3.30001 7.27 3.30001 7.29 3.30001 7.31C3.30001 7.31 3.31001 7.31 3.32001 7.32C3.33001 7.32 3.35001 7.34 3.35001 7.35C3.35001 7.36 3.35001 7.37 3.35001 7.38C3.34001 7.38 3.32001 7.4 3.31001 7.42L3.27001 7.39ZM3.25001 7.36C3.25001 7.36 3.27001 7.36 3.27001 7.38C3.27001 7.36 3.30001 7.34 3.32001 7.34C3.32001 7.34 3.32001 7.34 3.32001 7.33C3.32001 7.33 3.30001 7.31 3.29001 7.3C3.29001 7.3 3.28001 7.3 3.27001 7.29C3.25001 7.27 3.26001 7.25 3.26001 7.24C3.26001 7.24 3.26001 7.24 3.26001 7.23C3.26001 7.21 3.21001 7.19 3.19001 7.18C3.18001 7.18 3.17001 7.18 3.17001 7.17C3.12001 7.16 3.06001 7.14 3.04001 7.14C3.02001 7.14 2.98001 7.14 2.98001 7.15C2.98001 7.15 2.99001 7.15 3.00001 7.15C3.01001 7.15 3.02001 7.15 3.03001 7.15C3.03001 7.16 3.03001 7.18 3.03001 7.19C3.03001 7.19 3.03001 7.19 3.04001 7.19C3.06001 7.19 3.08001 7.19 3.08001 7.2C3.08001 7.21 3.08001 7.22 3.08001 7.24C3.08001 7.24 3.08001 7.24 3.09001 7.24C3.10001 7.24 3.12001 7.24 3.13001 7.24V7.26C3.13001 7.26 3.13001 7.26 3.14001 7.26H3.16001C3.16001 7.26 3.17001 7.27 3.18001 7.28C3.20001 7.28 3.22001 7.29 3.22001 7.3C3.22001 7.3 3.22001 7.32 3.22001 7.33C3.22001 7.33 3.23001 7.33 3.24001 7.33L3.25001 7.36Z" fill="black"/>
<path d="M3.16001 7.48999C3.16001 7.48999 3.14001 7.48999 3.14001 7.46999C3.14001 7.46999 3.14001 7.46999 3.14001 7.45999H3.12001H3.11001C3.11001 7.45999 3.08001 7.45999 3.06001 7.45999C3.04001 7.45999 3.03001 7.45999 3.02001 7.45999C3.08001 7.43999 3.10001 7.42999 3.10001 7.41999C3.10001 7.41999 3.10001 7.39999 3.10001 7.38999C3.09001 7.36999 3.04001 7.35999 3.01001 7.35999C3.04001 7.35999 3.09001 7.35999 3.11001 7.38999C3.11001 7.39999 3.12001 7.40999 3.11001 7.42999C3.11001 7.43999 3.09001 7.45999 3.06001 7.46999C3.08001 7.46999 3.10001 7.46999 3.11001 7.46999C3.11001 7.46999 3.11001 7.46999 3.12001 7.46999C3.14001 7.46999 3.16001 7.46999 3.17001 7.46999C3.17001 7.46999 3.15001 7.46999 3.15001 7.47999C3.15001 7.47999 3.15001 7.47999 3.17001 7.48999H3.16001ZM3.35001 7.45999C3.35001 7.43999 3.32001 7.42999 3.29001 7.42999C3.28001 7.42999 3.27001 7.42999 3.26001 7.42999C3.26001 7.42999 3.28001 7.42999 3.29001 7.42999C3.32001 7.42999 3.35001 7.42999 3.36001 7.46999L3.35001 7.45999ZM3.41001 7.43999C3.44001 7.42999 3.46001 7.40999 3.49001 7.38999C3.46001 7.40999 3.44001 7.42999 3.41001 7.44999V7.43999Z" fill="black"/>
<path d="M3.45001 7.17C3.45001 7.17 3.45001 7.17 3.44001 7.17C3.44001 7.17 3.40001 7.14 3.39001 7.13C3.40001 7.14 3.43001 7.16 3.44001 7.17H3.45001C3.45001 7.17 3.45001 7.16 3.45001 7.14C3.45001 7.15 3.46001 7.17 3.45001 7.18V7.17Z" fill="black"/>
<path d="M3.23001 7.36999C3.23001 7.35999 3.25001 7.34999 3.27001 7.32999C3.27001 7.32999 3.28001 7.32999 3.29001 7.31999C3.29001 7.31999 3.28001 7.31999 3.27001 7.32999C3.26001 7.33999 3.24001 7.35999 3.23001 7.36999ZM3.17001 7.31999C3.18001 7.31999 3.22001 7.29999 3.25001 7.29999C3.22001 7.29999 3.19001 7.31999 3.17001 7.31999ZM3.12001 7.28999C3.16001 7.28999 3.21001 7.26999 3.24001 7.27999C3.24001 7.27999 3.16001 7.27999 3.12001 7.28999ZM3.08001 7.24999C3.13001 7.23999 3.18001 7.23999 3.22001 7.24999C3.18001 7.24999 3.13001 7.24999 3.09001 7.24999H3.08001ZM3.23001 7.20999C3.23001 7.20999 3.22001 7.20999 3.20001 7.20999C3.15001 7.20999 3.07001 7.18999 3.01001 7.20999C3.07001 7.19999 3.16001 7.20999 3.20001 7.20999C3.21001 7.20999 3.22001 7.20999 3.23001 7.20999ZM3.33001 7.17999C3.33001 7.16999 3.32001 7.15999 3.32001 7.15999C3.32001 7.14999 3.32001 7.12999 3.33001 7.11999C3.33001 7.11999 3.32001 7.08999 3.33001 7.06999C3.33001 7.05999 3.34001 7.04999 3.36001 7.03999C3.37001 7.03999 3.38001 7.03999 3.38001 7.03999C3.38001 7.03999 3.38001 7.03999 3.36001 7.03999C3.34001 7.03999 3.33001 7.03999 3.32001 7.04999C3.32001 7.04999 3.30001 7.06999 3.30001 7.07999C3.29001 7.09999 3.28001 7.10999 3.26001 7.11999C3.25001 7.11999 3.23001 7.12999 3.22001 7.12999C3.20001 7.12999 3.18001 7.13999 3.16001 7.15999C3.18001 7.13999 3.20001 7.13999 3.22001 7.12999C3.23001 7.12999 3.25001 7.12999 3.26001 7.11999C3.27001 7.11999 3.28001 7.09999 3.30001 7.07999C3.30001 7.07999 3.31001 7.05999 3.32001 7.04999C3.32001 7.04999 3.34001 7.03999 3.36001 7.03999C3.38001 7.03999 3.38001 7.03999 3.38001 7.03999C3.38001 7.03999 3.38001 7.03999 3.35001 7.04999C3.33001 7.04999 3.33001 7.04999 3.32001 7.06999C3.32001 7.07999 3.32001 7.09999 3.32001 7.10999C3.32001 7.10999 3.31001 7.13999 3.31001 7.14999C3.31001 7.14999 3.31001 7.14999 3.31001 7.16999L3.33001 7.17999Z" fill="black"/>
<path d="M3.43999 7.44999C3.45999 7.43999 3.46999 7.42999 3.47999 7.41999C3.47999 7.41999 3.47999 7.41999 3.48999 7.40999C3.48999 7.40999 3.48999 7.40999 3.47999 7.41999C3.46999 7.41999 3.45999 7.43999 3.42999 7.44999H3.43999ZM3.50999 7.32999C3.51999 7.32999 3.52999 7.31999 3.52999 7.30999C3.52999 7.29999 3.54999 7.28999 3.56999 7.27999C3.54999 7.27999 3.53999 7.29999 3.52999 7.30999C3.52999 7.30999 3.51999 7.32999 3.49999 7.32999H3.50999ZM3.47999 7.22999C3.46999 7.22999 3.45999 7.21999 3.45999 7.20999V7.19999C3.45999 7.19999 3.46999 7.19999 3.47999 7.19999C3.47999 7.19999 3.48999 7.19999 3.49999 7.19999C3.49999 7.19999 3.49999 7.19999 3.51999 7.19999H3.49999C3.49999 7.19999 3.49999 7.19999 3.48999 7.19999C3.48999 7.19999 3.47999 7.19999 3.46999 7.19999C3.46999 7.19999 3.46999 7.19999 3.46999 7.20999C3.46999 7.20999 3.46999 7.22999 3.48999 7.22999C3.48999 7.22999 3.48999 7.22999 3.49999 7.22999C3.49999 7.22999 3.51999 7.22999 3.52999 7.22999C3.51999 7.22999 3.50999 7.22999 3.49999 7.22999C3.49999 7.22999 3.49999 7.22999 3.48999 7.22999H3.47999ZM3.50999 7.13999H3.49999C3.49999 7.13999 3.49999 7.12999 3.49999 7.11999C3.49999 7.11999 3.50999 7.11999 3.51999 7.11999C3.51999 7.11999 3.51999 7.11999 3.51999 7.12999L3.50999 7.13999ZM3.49999 7.11999C3.49999 7.11999 3.49999 7.11999 3.49999 7.12999C3.49999 7.12999 3.49999 7.12999 3.50999 7.12999L3.49999 7.11999ZM3.45999 7.07999C3.45999 7.07999 3.45999 7.07999 3.44999 7.07999C3.44999 7.07999 3.46999 7.07999 3.47999 7.07999C3.47999 7.07999 3.46999 7.07999 3.45999 7.07999Z" fill="black"/>
<path d="M3.02999 6.58999H2.99999V6.57999H3.02999V6.58999ZM3.03999 6.56999H2.99999V6.55999H3.03999V6.56999ZM3.03999 6.55999H2.99999V6.53999H3.03999V6.55999Z" fill="black"/>
<path d="M3.21999 6.61C3.21999 6.61 3.18999 6.61 3.16999 6.61C3.16999 6.62 3.16999 6.65 3.16999 6.66C3.21999 6.7 3.25999 6.76 3.25999 6.82C3.26999 6.83 3.27999 6.84 3.28999 6.86C3.31999 6.84 3.35999 6.82 3.38999 6.81C3.40999 6.81 3.43999 6.81 3.45999 6.81C3.45999 6.81 3.54999 6.86 3.56999 6.88C3.58999 6.89 3.60999 6.91 3.61999 6.93C3.62999 6.95 3.62999 6.98 3.61999 6.98L3.54999 6.96C3.54999 6.96 3.54999 6.94 3.54999 6.93C3.54999 6.92 3.54999 6.92 3.54999 6.91H3.52999C3.52999 6.91 3.50999 6.91 3.50999 6.9C3.50999 6.9 3.42999 6.86 3.41999 6.86C3.40999 6.86 3.38999 6.86 3.37999 6.87C3.37999 6.88 3.34999 6.92 3.32999 6.93C3.32999 6.93 3.32999 6.94 3.32999 6.95C3.32999 6.95 3.36999 6.95 3.39999 6.95C3.42999 6.95 3.45999 6.98 3.47999 7C3.54999 7.06 3.56999 7.1 3.59999 7.12C3.59999 7.12 3.61999 7.14 3.61999 7.16H3.54999C3.54999 7.16 3.54999 7.12 3.54999 7.11C3.54999 7.1 3.52999 7.11 3.51999 7.11C3.51999 7.11 3.50999 7.1 3.49999 7.09C3.49999 7.07 3.45999 7.05 3.43999 7.04C3.41999 7.03 3.41999 7.04 3.39999 7.04C3.38999 7.04 3.36999 7.04 3.34999 7.04C3.32999 7.04 3.27999 7.06 3.23999 7.07C3.21999 7.07 3.16999 7.09 3.11999 7.1C3.07999 7.1 2.98999 7.12 2.96999 7.12C2.96999 7.16 2.91999 7.22 2.90999 7.23C2.89999 7.25 2.89999 7.26 2.90999 7.27C2.90999 7.27 2.98999 7.27 2.99999 7.27C3.01999 7.27 3.04999 7.27 3.05999 7.27C3.06999 7.27 3.08999 7.29 3.09999 7.3C3.10999 7.3 3.11999 7.31 3.11999 7.33C3.11999 7.33 3.12999 7.35 3.13999 7.35H3.05999C3.05999 7.35 3.05999 7.32 3.03999 7.32C3.02999 7.32 3.01999 7.34 2.99999 7.33C2.93999 7.33 2.89999 7.33 2.83999 7.33C2.81999 7.33 2.80999 7.31 2.81999 7.28C2.81999 7.26 2.81999 7.24 2.81999 7.23C2.81999 7.23 2.78999 7.26 2.77999 7.27C2.75999 7.29 2.77999 7.32 2.77999 7.33C2.78999 7.34 2.85999 7.4 2.86999 7.42C2.86999 7.43 2.89999 7.45 2.92999 7.47C2.92999 7.49 2.94999 7.5 2.96999 7.51H2.86999C2.86999 7.51 2.86999 7.5 2.86999 7.48C2.86999 7.48 2.86999 7.46 2.84999 7.46C2.83999 7.46 2.82999 7.45 2.81999 7.43C2.81999 7.42 2.76999 7.36 2.75999 7.35C2.74999 7.34 2.70999 7.3 2.69999 7.29C2.69999 7.29 2.69999 7.27 2.69999 7.26C2.69999 7.26 2.72999 7.21 2.73999 7.19C2.73999 7.17 2.73999 7.17 2.73999 7.17C2.69999 7.14 2.65999 7.09 2.62999 7.05C2.62999 7.05 2.56999 7.05 2.54999 7.05C2.52999 7.05 2.50999 7.04 2.48999 7.05C2.48999 7.06 2.48999 7.09 2.48999 7.1C2.50999 7.11 2.52999 7.14 2.54999 7.17C2.56999 7.2 2.54999 7.22 2.52999 7.24C2.52999 7.25 2.52999 7.24 2.52999 7.27C2.52999 7.28 2.52999 7.32 2.52999 7.32C2.51999 7.32 2.49999 7.34 2.48999 7.35C2.47999 7.37 2.46999 7.35 2.47999 7.32C2.47999 7.3 2.46999 7.29 2.45999 7.27C2.44999 7.26 2.45999 7.22 2.45999 7.21C2.45999 7.2 2.47999 7.18 2.45999 7.16C2.43999 7.14 2.40999 7.11 2.41999 7.06C2.41999 7 2.48999 6.98 2.51999 6.99C2.57999 7.02 2.60999 7.01 2.62999 7.01C2.64999 6.98 2.66999 6.96 2.69999 6.94C2.72999 6.92 2.79999 6.89 2.85999 6.88L3.01999 6.82C3.01999 6.82 3.03999 6.79 3.03999 6.78C3.01999 6.67 3.02999 6.56 3.10999 6.5C3.10999 6.5 3.10999 6.47 3.12999 6.45C3.12999 6.45 3.14999 6.48 3.14999 6.49C3.18999 6.5 3.25999 6.53 3.27999 6.54C3.28999 6.54 3.30999 6.54 3.30999 6.55C3.30999 6.55 3.31999 6.56 3.32999 6.57C3.32999 6.58 3.32999 6.6 3.32999 6.6H3.28999C3.28999 6.6 3.28999 6.62 3.31999 6.62C3.31999 6.62 3.31999 6.64 3.30999 6.64C3.30999 6.64 3.29999 6.64 3.28999 6.64C3.26999 6.64 3.24999 6.63 3.22999 6.62L3.21999 6.61Z" fill="white"/>
<path d="M2.83999 7.49C2.83999 7.49 2.83999 7.48 2.83999 7.47C2.83999 7.47 2.83999 7.47 2.82999 7.47C2.80999 7.47 2.79999 7.46 2.79999 7.44C2.79999 7.43 2.74999 7.37 2.73999 7.36C2.73999 7.36 2.73999 7.36 2.71999 7.34C2.70999 7.33 2.67999 7.3 2.67999 7.3C2.67999 7.3 2.67999 7.3 2.67999 7.29V7.27C2.67999 7.27 2.70999 7.22 2.71999 7.2C2.71999 7.19 2.71999 7.19 2.71999 7.18C2.67999 7.15 2.63999 7.11 2.61999 7.07C2.59999 7.07 2.55999 7.07 2.53999 7.07C2.53999 7.07 2.50999 7.06 2.48999 7.07C2.48999 7.08 2.48999 7.1 2.48999 7.11C2.50999 7.12 2.52999 7.15 2.54999 7.18C2.57999 7.21 2.54999 7.23 2.52999 7.25C2.52999 7.25 2.52999 7.25 2.52999 7.26C2.52999 7.27 2.52999 7.29 2.52999 7.3C2.52999 7.3 2.52999 7.31 2.51999 7.32C2.50999 7.32 2.49999 7.33 2.48999 7.35C2.48999 7.35 2.47999 7.35 2.46999 7.35C2.45999 7.35 2.46999 7.32 2.46999 7.31C2.46999 7.3 2.46999 7.28 2.44999 7.27C2.44999 7.27 2.44999 7.21 2.44999 7.2C2.44999 7.2 2.45999 7.17 2.44999 7.16C2.43999 7.15 2.39999 7.11 2.39999 7.06C2.39999 7.03 2.41999 7.01 2.43999 7C2.45999 6.99 2.48999 6.99 2.50999 7C2.55999 7.02 2.58999 7.02 2.60999 7.02C2.61999 7 2.64999 6.97 2.68999 6.95C2.71999 6.93 2.78999 6.9 2.85999 6.89L3.01999 6.83C3.01999 6.83 3.03999 6.82 3.03999 6.8C3.00999 6.66 3.03999 6.56 3.11999 6.51C3.11999 6.51 3.11999 6.51 3.11999 6.49C3.11999 6.49 3.11999 6.47 3.12999 6.46C3.12999 6.46 3.12999 6.46 3.12999 6.47C3.12999 6.47 3.13999 6.49 3.14999 6.5C3.17999 6.51 3.24999 6.54 3.27999 6.55H3.29999C3.29999 6.55 3.29999 6.55 3.30999 6.55C3.30999 6.55 3.32999 6.56 3.32999 6.57C3.32999 6.57 3.32999 6.58 3.32999 6.59C3.32999 6.59 3.32999 6.6 3.31999 6.61C3.31999 6.61 3.31999 6.61 3.29999 6.61H3.27999C3.27999 6.61 3.27999 6.61 3.29999 6.62C3.29999 6.62 3.29999 6.62 3.29999 6.63C3.29999 6.63 3.28999 6.65 3.27999 6.65C3.27999 6.65 3.26999 6.65 3.25999 6.65C3.24999 6.65 3.22999 6.65 3.21999 6.64C3.21999 6.64 3.20999 6.64 3.19999 6.64C3.17999 6.64 3.17999 6.64 3.15999 6.64C3.15999 6.64 3.15999 6.67 3.15999 6.68C3.19999 6.72 3.24999 6.78 3.24999 6.83C3.25999 6.84 3.26999 6.85 3.27999 6.87C3.28999 6.87 3.29999 6.86 3.30999 6.85C3.32999 6.84 3.34999 6.82 3.36999 6.82C3.38999 6.82 3.41999 6.82 3.43999 6.82C3.43999 6.82 3.52999 6.87 3.54999 6.89C3.56999 6.9 3.58999 6.92 3.59999 6.94C3.60999 6.96 3.60999 6.99 3.59999 7L3.52999 6.98C3.52999 6.97 3.52999 6.96 3.52999 6.94C3.52999 6.94 3.51999 6.94 3.50999 6.94C3.50999 6.94 3.48999 6.94 3.47999 6.93C3.47999 6.93 3.40999 6.89 3.39999 6.89C3.37999 6.89 3.36999 6.89 3.35999 6.89C3.35999 6.89 3.32999 6.94 3.30999 6.95C3.31999 6.95 3.35999 6.95 3.37999 6.95C3.40999 6.95 3.43999 6.98 3.45999 7C3.50999 7.04 3.52999 7.07 3.54999 7.09C3.54999 7.1 3.56999 7.11 3.56999 7.11C3.56999 7.11 3.58999 7.13 3.58999 7.15H3.51999C3.51999 7.13 3.51999 7.11 3.51999 7.1C3.51999 7.1 3.50999 7.1 3.49999 7.1C3.49999 7.1 3.48999 7.1 3.46999 7.08C3.46999 7.06 3.42999 7.04 3.40999 7.03C3.40999 7.03 3.39999 7.03 3.38999 7.03C3.38999 7.03 3.38999 7.03 3.37999 7.03C3.36999 7.03 3.34999 7.03 3.32999 7.03C3.31999 7.03 3.26999 7.05 3.21999 7.06C3.20999 7.06 3.16999 7.07 3.12999 7.08C3.11999 7.08 3.10999 7.08 3.09999 7.08C3.05999 7.08 2.97999 7.1 2.95999 7.1C2.95999 7.14 2.90999 7.2 2.89999 7.21C2.89999 7.22 2.88999 7.24 2.89999 7.24C2.89999 7.24 2.92999 7.24 2.97999 7.24C2.97999 7.24 2.97999 7.24 2.98999 7.24C3.00999 7.24 3.03999 7.24 3.04999 7.24C3.04999 7.24 3.06999 7.24 3.07999 7.25C3.07999 7.25 3.08999 7.25 3.09999 7.26C3.10999 7.26 3.11999 7.27 3.11999 7.28V7.29C3.11999 7.29 3.11999 7.29 3.11999 7.3H3.03999V7.28C3.02999 7.28 3.00999 7.3 2.99999 7.29C2.96999 7.29 2.93999 7.29 2.91999 7.29C2.88999 7.29 2.86999 7.29 2.83999 7.29C2.83999 7.29 2.81999 7.29 2.81999 7.28C2.81999 7.27 2.80999 7.25 2.81999 7.24C2.81999 7.22 2.81999 7.21 2.81999 7.2C2.81999 7.2 2.79999 7.22 2.78999 7.23C2.77999 7.24 2.77999 7.26 2.78999 7.28C2.79999 7.29 2.86999 7.35 2.87999 7.37C2.87999 7.37 2.89999 7.39 2.91999 7.41H2.92999V7.42C2.92999 7.43 2.93999 7.44 2.94999 7.45C2.94999 7.45 2.94999 7.45 2.95999 7.46H2.85999L2.83999 7.49ZM2.82999 7.44C2.82999 7.44 2.83999 7.44 2.84999 7.44C2.85999 7.44 2.84999 7.45 2.84999 7.45V7.47H2.92999C2.92999 7.47 2.90999 7.45 2.89999 7.44H2.88999C2.88999 7.44 2.84999 7.4 2.83999 7.39C2.83999 7.37 2.76999 7.31 2.75999 7.3C2.73999 7.27 2.75999 7.25 2.75999 7.24C2.75999 7.24 2.77999 7.22 2.78999 7.21C2.78999 7.21 2.78999 7.21 2.79999 7.2C2.79999 7.22 2.79999 7.23 2.79999 7.25C2.79999 7.25 2.79999 7.27 2.79999 7.28C2.79999 7.28 2.79999 7.28 2.80999 7.28C2.83999 7.28 2.85999 7.28 2.88999 7.28C2.90999 7.28 2.93999 7.28 2.96999 7.28C2.97999 7.28 2.98999 7.28 2.99999 7.27C2.99999 7.27 3.00999 7.27 3.01999 7.27C3.01999 7.27 3.01999 7.28 3.01999 7.29H3.08999C3.08999 7.29 3.08999 7.27 3.06999 7.27C3.06999 7.27 3.05999 7.27 3.04999 7.26L3.02999 7.25C3.02999 7.25 2.98999 7.25 2.97999 7.25C2.97999 7.25 2.97999 7.25 2.96999 7.25C2.91999 7.25 2.88999 7.25 2.87999 7.25C2.87999 7.25 2.86999 7.22 2.87999 7.2C2.88999 7.2 2.92999 7.14 2.93999 7.1C2.95999 7.1 3.04999 7.09 3.08999 7.08C3.09999 7.08 3.10999 7.08 3.11999 7.08C3.15999 7.08 3.18999 7.07 3.19999 7.06C3.23999 7.06 3.28999 7.04 3.30999 7.03C3.32999 7.03 3.34999 7.03 3.35999 7.03C3.35999 7.03 3.35999 7.03 3.36999 7.03C3.36999 7.03 3.38999 7.03 3.39999 7.03C3.39999 7.03 3.44999 7.06 3.45999 7.09C3.46999 7.11 3.47999 7.11 3.47999 7.11C3.47999 7.11 3.49999 7.11 3.50999 7.11C3.50999 7.12 3.50999 7.14 3.50999 7.16H3.56999C3.56999 7.16 3.56999 7.14 3.54999 7.13C3.54999 7.13 3.53999 7.11 3.52999 7.1C3.50999 7.08 3.47999 7.05 3.43999 7.01C3.42999 6.99 3.38999 6.97 3.36999 6.96C3.33999 6.96 3.29999 6.96 3.29999 6.96V6.94C3.31999 6.92 3.34999 6.88 3.34999 6.88C3.35999 6.87 3.37999 6.86 3.39999 6.87C3.40999 6.87 3.47999 6.9 3.48999 6.91C3.48999 6.91 3.49999 6.91 3.50999 6.91C3.50999 6.91 3.52999 6.91 3.53999 6.91C3.54999 6.91 3.54999 6.92 3.53999 6.93C3.53999 6.94 3.53999 6.95 3.53999 6.96L3.59999 6.98C3.59999 6.98 3.59999 6.95 3.59999 6.94C3.58999 6.92 3.56999 6.9 3.54999 6.89C3.52999 6.88 3.44999 6.83 3.43999 6.82C3.42999 6.82 3.38999 6.82 3.37999 6.82C3.35999 6.82 3.34999 6.84 3.32999 6.85C3.31999 6.85 3.29999 6.87 3.28999 6.87C3.28999 6.85 3.26999 6.84 3.25999 6.83C3.25999 6.77 3.20999 6.72 3.16999 6.68C3.16999 6.68 3.16999 6.64 3.16999 6.63C3.18999 6.63 3.19999 6.63 3.21999 6.63C3.21999 6.63 3.22999 6.63 3.23999 6.63C3.24999 6.63 3.26999 6.63 3.27999 6.64C3.27999 6.64 3.27999 6.64 3.28999 6.64H3.29999C3.27999 6.64 3.26999 6.63 3.26999 6.62C3.26999 6.62 3.28999 6.62 3.29999 6.62H3.30999C3.30999 6.62 3.30999 6.62 3.30999 6.61C3.30999 6.61 3.29999 6.6 3.28999 6.59C3.28999 6.59 3.28999 6.59 3.27999 6.59H3.25999C3.22999 6.58 3.15999 6.55 3.12999 6.54C3.12999 6.54 3.12999 6.52 3.11999 6.51C3.11999 6.51 3.11999 6.52 3.11999 6.53V6.55C3.02999 6.61 3.02999 6.73 3.04999 6.83C3.04999 6.86 3.03999 6.87 3.02999 6.87L2.86999 6.93C2.80999 6.94 2.73999 6.97 2.70999 6.99C2.66999 7.01 2.64999 7.04 2.63999 7.06C2.62999 7.06 2.58999 7.07 2.52999 7.04C2.50999 7.04 2.48999 7.04 2.46999 7.04C2.44999 7.05 2.43999 7.07 2.43999 7.1C2.43999 7.15 2.46999 7.18 2.47999 7.19C2.49999 7.21 2.48999 7.23 2.47999 7.25C2.47999 7.26 2.46999 7.3 2.47999 7.31C2.47999 7.31 2.50999 7.34 2.49999 7.36C2.49999 7.38 2.49999 7.39 2.49999 7.39C2.50999 7.38 2.51999 7.37 2.53999 7.36C2.53999 7.36 2.53999 7.36 2.53999 7.35C2.53999 7.34 2.53999 7.32 2.53999 7.31C2.53999 7.31 2.53999 7.3 2.53999 7.29C2.56999 7.26 2.57999 7.25 2.55999 7.23C2.53999 7.2 2.51999 7.18 2.49999 7.17C2.47999 7.16 2.47999 7.13 2.49999 7.12C2.50999 7.1 2.53999 7.1 2.55999 7.11C2.57999 7.12 2.62999 7.12 2.63999 7.11C2.65999 7.15 2.69999 7.19 2.73999 7.23C2.73999 7.23 2.73999 7.24 2.73999 7.26C2.73999 7.29 2.70999 7.33 2.69999 7.34C2.69999 7.34 2.69999 7.34 2.69999 7.35C2.69999 7.35 2.71999 7.36 2.74999 7.39C2.74999 7.39 2.75999 7.4 2.76999 7.41C2.77999 7.42 2.82999 7.48 2.82999 7.49C2.82999 7.49 2.83999 7.51 2.84999 7.51L2.82999 7.44Z" fill="black"/>
<path d="M2.81 7.19999C2.86 7.17999 2.9 7.11999 2.9 7.08999C2.9 7.06999 2.89 7.03999 2.84 7.03999C2.84 7.03999 2.9 7.06999 2.91 7.08999C2.91 7.08999 2.93 7.08999 2.94 7.08999C2.95 7.08999 2.96 7.08999 2.97 7.08999C2.97 7.08999 2.95 7.08999 2.94 7.08999C2.93 7.08999 2.92 7.08999 2.91 7.08999C2.91 7.12999 2.86 7.17999 2.81 7.19999ZM3.28 7.02999C3.28 7.02999 3.23 7.02999 3.22 7.01999C3.22 7.01999 3.21 7.01999 3.2 7.01999C3.21 7.01999 3.22 7.01999 3.23 7.01999C3.25 7.01999 3.26 7.02999 3.3 7.02999C3.3 7.02999 3.29 7.02999 3.28 7.02999ZM3.33 6.95999C3.33 6.95999 3.3 6.95999 3.28 6.94999C3.26 6.94999 3.24 6.93999 3.22 6.93999C3.24 6.93999 3.26 6.93999 3.29 6.94999C3.29 6.92999 3.29 6.89999 3.29 6.87999C3.29 6.90999 3.29 6.92999 3.29 6.95999C3.3 6.95999 3.31 6.95999 3.32 6.95999H3.33ZM3.26 6.81999C3.24 6.80999 3.22 6.78999 3.19 6.78999C3.22 6.78999 3.25 6.80999 3.27 6.81999H3.26ZM3.17 6.66999C3.13 6.63999 3.11 6.59999 3.11 6.53999C3.11 6.59999 3.13 6.62999 3.17 6.65999V6.66999Z" fill="black"/>
<path d="M2.88998 7.11999C2.91998 7.11999 2.93998 7.11999 2.94998 7.08999C2.93998 7.11999 2.90998 7.11999 2.88998 7.11999ZM3.16998 6.61999C3.12998 6.61999 3.09998 6.59999 3.10998 6.53999C3.10998 6.58999 3.12998 6.59999 3.16998 6.60999V6.61999Z" fill="black"/>
<path d="M2.83999 7.02999C2.83999 7.02999 2.83999 7.02999 2.83999 7.01999C2.83999 7.01999 2.83999 7.01999 2.83999 7.02999ZM3.28999 6.58999C3.28999 6.57999 3.26999 6.56999 3.25999 6.55999C3.23999 6.54999 3.20999 6.52999 3.21999 6.50999C3.21999 6.52999 3.22999 6.54999 3.25999 6.55999C3.27999 6.55999 3.28999 6.57999 3.29999 6.58999H3.28999ZM3.32999 6.56999H3.31999C3.31999 6.56999 3.31999 6.55999 3.31999 6.54999C3.31999 6.54999 3.31999 6.55999 3.31999 6.56999C3.31999 6.56999 3.31999 6.56999 3.33999 6.56999H3.32999Z" fill="black"/>
<path d="M3.27 6.59C3.27 6.59 3.23 6.66 3.19 6.68C3.14 6.71 3.09 6.74 3.03 6.75C3.03 6.75 3.01 6.75 3 6.75C2.99 6.75 2.98 6.74 2.97 6.72C2.97 6.72 2.97 6.67 2.98 6.66C3 6.66 3.01 6.66 3.03 6.66C3.03 6.66 3.05 6.66 3.05 6.68C3.05 6.69 3.04 6.7 3.03 6.69C3.02 6.69 3 6.68 2.99 6.69C2.99 6.69 2.98 6.71 2.99 6.72C2.99 6.73 3.01 6.74 3.01 6.74H3.03C3.09 6.73 3.14 6.7 3.18 6.67C3.21 6.65 3.24 6.6 3.25 6.58H3.26L3.27 6.59ZM3.03 6.67H2.98C2.99 6.67 3.01 6.67 3.03 6.67ZM3.15 6.53C3.15 6.53 3.15 6.48 3.18 6.5C3.21 6.52 3.18 6.53 3.18 6.54V6.55" fill="white"/>
<path d="M3.02001 6.76C3.02001 6.76 3.02001 6.76 3.01001 6.76C3.01001 6.76 2.99001 6.76 2.98001 6.73C2.98001 6.73 2.98001 6.7 2.98001 6.68C2.98001 6.68 2.98001 6.67 2.99001 6.67C3.01001 6.67 3.02001 6.67 3.04001 6.67H3.06001C3.06001 6.67 3.06001 6.67 3.06001 6.68C3.06001 6.68 3.06001 6.68 3.06001 6.69C3.06001 6.69 3.05001 6.69 3.04001 6.69C3.03001 6.69 3.01001 6.69 3.01001 6.69C3.01001 6.69 3.00001 6.71 3.01001 6.72C3.01001 6.73 3.03001 6.74 3.03001 6.74H3.05001C3.11001 6.73 3.15001 6.7 3.20001 6.67C3.23001 6.65 3.26001 6.6 3.27001 6.58H3.28001C3.26001 6.61 3.23001 6.65 3.20001 6.67C3.15001 6.71 3.10001 6.73 3.04001 6.74C3.04001 6.74 3.03001 6.74 3.02001 6.74V6.76ZM3.03001 6.67C3.03001 6.67 3.00001 6.67 2.99001 6.67C2.99001 6.67 2.99001 6.67 2.99001 6.68C2.99001 6.69 2.99001 6.72 2.99001 6.72C2.99001 6.74 3.01001 6.74 3.02001 6.75C3.03001 6.75 3.04001 6.75 3.05001 6.75C3.11001 6.74 3.16001 6.71 3.21001 6.68C3.24001 6.66 3.27001 6.62 3.28001 6.59H3.27001C3.27001 6.59 3.23001 6.65 3.20001 6.67C3.15001 6.7 3.10001 6.73 3.05001 6.74C3.05001 6.74 3.03001 6.74 3.02001 6.74C3.02001 6.74 3.00001 6.74 3.00001 6.72C3.00001 6.72 3.00001 6.69 3.00001 6.68C3.00001 6.68 3.03001 6.68 3.04001 6.68C3.04001 6.68 3.04001 6.68 3.05001 6.68C3.05001 6.68 3.05001 6.68 3.03001 6.68V6.67ZM3.04001 6.68C3.02001 6.68 3.01001 6.68 2.99001 6.68C2.99001 6.68 3.02001 6.67 3.04001 6.68ZM3.19001 6.55V6.54C3.19001 6.54 3.19001 6.54 3.19001 6.53C3.19001 6.53 3.19001 6.52 3.17001 6.52H3.15001C3.15001 6.52 3.15001 6.53 3.15001 6.54V6.55C3.15001 6.55 3.15001 6.54 3.15001 6.53V6.51C3.15001 6.51 3.16001 6.51 3.17001 6.51C3.18001 6.51 3.19001 6.52 3.19001 6.53C3.19001 6.53 3.19001 6.54 3.19001 6.55Z" fill="black"/>
<path d="M3.28 6.6L3.09 6.5L3.1 6.49L3.28 6.59L3.29 6.6H3.28Z" fill="black"/>
<path d="M2.85999 6.51C2.85999 6.51 2.76999 6.51 2.72999 6.51C2.70999 6.51 2.66999 6.57 2.64999 6.58C2.62999 6.59 2.59999 6.53 2.56999 6.54C2.54999 6.55 2.56999 6.62 2.56999 6.62C2.55999 6.62 2.52999 6.59 2.50999 6.6C2.48999 6.61 2.52999 6.7 2.50999 6.71C2.50999 6.71 2.45999 6.67 2.43999 6.68C2.41999 6.69 2.44999 6.82 2.43999 6.83C2.42999 6.83 2.36999 6.79 2.35999 6.81C2.34999 6.83 2.43999 6.87 2.46999 6.87H2.49999C2.49999 6.87 2.57999 6.87 2.58999 6.87L2.62999 6.83C2.69999 6.75 2.76999 6.67 2.85999 6.67V6.51Z" fill="white"/>
<path d="M2.59 6.87C2.59 6.87 2.51 6.87 2.5 6.86H2.48C2.46 6.86 2.38 6.83 2.37 6.8C2.37 6.8 2.37 6.8 2.37 6.79C2.37 6.78 2.4 6.79 2.42 6.79C2.43 6.79 2.45 6.8 2.45 6.79C2.45 6.79 2.45 6.75 2.45 6.72C2.45 6.67 2.45 6.65 2.45 6.64C2.45 6.64 2.47 6.64 2.49 6.66C2.49 6.66 2.51 6.68 2.52 6.67C2.52 6.67 2.52 6.65 2.52 6.63C2.52 6.6 2.51 6.57 2.52 6.56C2.53 6.56 2.55 6.56 2.56 6.57C2.56 6.57 2.58 6.58 2.58 6.57C2.58 6.57 2.58 6.55 2.58 6.54C2.58 6.52 2.58 6.49 2.58 6.49C2.6 6.49 2.62 6.49 2.63 6.51C2.64 6.51 2.65 6.53 2.66 6.53C2.67 6.53 2.69 6.51 2.7 6.49C2.72 6.47 2.73 6.46 2.74 6.46C2.77 6.46 2.83 6.47 2.87 6.46V6.62C2.78 6.62 2.7 6.7 2.64 6.78L2.6 6.82L2.59 6.87ZM2.5 6.85C2.5 6.85 2.56 6.85 2.59 6.86L2.63 6.82C2.69 6.74 2.76 6.66 2.86 6.66V6.51C2.86 6.51 2.77 6.51 2.74 6.51C2.74 6.51 2.72 6.53 2.7 6.54C2.68 6.56 2.67 6.57 2.65 6.58C2.64 6.58 2.63 6.58 2.62 6.56C2.61 6.55 2.59 6.54 2.57 6.54C2.57 6.54 2.57 6.57 2.57 6.59C2.57 6.61 2.57 6.62 2.57 6.63C2.57 6.63 2.55 6.63 2.54 6.63C2.53 6.63 2.51 6.61 2.51 6.62C2.51 6.62 2.51 6.66 2.51 6.68C2.51 6.71 2.51 6.72 2.51 6.72C2.51 6.72 2.49 6.72 2.48 6.71C2.47 6.71 2.45 6.69 2.45 6.69C2.45 6.69 2.45 6.74 2.45 6.76C2.45 6.81 2.45 6.83 2.45 6.84C2.45 6.84 2.43 6.84 2.41 6.84C2.39 6.84 2.37 6.82 2.37 6.84C2.38 6.86 2.45 6.89 2.48 6.89H2.51L2.5 6.85Z" fill="black"/>
<path d="M2.49999 6.86C2.52999 6.8 2.59999 6.74 2.65999 6.7C2.60999 6.73 2.53999 6.79 2.50999 6.85L2.49999 6.86ZM2.43999 6.82C2.48999 6.76 2.61999 6.67 2.65999 6.66C2.61999 6.66 2.48999 6.76 2.43999 6.81V6.82ZM2.49999 6.71C2.57999 6.66 2.64999 6.63 2.72999 6.61C2.65999 6.63 2.58999 6.67 2.49999 6.71ZM2.55999 6.62C2.60999 6.6 2.67999 6.59 2.72999 6.59C2.66999 6.59 2.60999 6.59 2.55999 6.62ZM2.64999 6.57C2.72999 6.56 2.76999 6.56 2.78999 6.56C2.76999 6.56 2.73999 6.56 2.64999 6.57Z" fill="black"/>
<path d="M3.13 7.6L3.14 7.61C3.14 7.61 3.13 7.61 3.12 7.61L2.54 7.44V7.41L3.12 7.59L3.13 7.6ZM2.57 6.8C2.57 6.8 2.56 6.78 2.55 6.78C2.55 6.78 2.53 6.79 2.53 6.8L2.55 6.82H2.56L2.57 6.8ZM2.63 6.82L2.58 6.87C2.58 6.87 2.58 6.89 2.59 6.88L2.64 6.83C2.64 6.83 2.64 6.81 2.63 6.82ZM2.6 6.86L2.75 7.02H2.78V6.99L2.62 6.84L2.6 6.86Z" fill="white"/>
<path d="M3.12 7.63L2.54 7.46C2.54 7.46 2.53 7.46 2.53 7.45C2.53 7.45 2.53 7.44 2.53 7.43C2.53 7.43 2.54 7.43 2.55 7.43L3.13 7.61C3.13 7.61 3.14 7.62 3.14 7.63C3.14 7.63 3.13 7.63 3.12 7.63ZM2.54 7.43C2.54 7.43 2.54 7.43 2.54 7.44L3.12 7.61C3.12 7.61 3.12 7.61 3.13 7.61L2.55 7.43H2.54ZM2.79 7.03H2.76L2.61 6.88H2.6C2.6 6.88 2.59 6.89 2.58 6.88C2.58 6.88 2.58 6.87 2.58 6.86L2.63 6.81H2.62L2.77 6.97V7L2.79 7.03ZM2.76 7.01H2.78V6.99L2.63 6.84L2.61 6.86L2.76 7.01ZM2.56 6.81C2.56 6.81 2.53 6.8 2.53 6.79C2.53 6.79 2.53 6.79 2.53 6.78C2.53 6.78 2.53 6.78 2.54 6.78C2.55 6.78 2.56 6.79 2.57 6.81H2.56ZM2.55 6.78C2.55 6.78 2.54 6.78 2.54 6.79C2.54 6.79 2.55 6.8 2.56 6.81H2.57C2.57 6.81 2.56 6.78 2.55 6.78Z" fill="black"/>
<path d="M2.95999 6.57C2.95999 6.57 2.95999 6.56 2.95999 6.55C2.96999 6.55 2.95999 6.55 2.96999 6.55C2.96999 6.55 2.97999 6.55 2.97999 6.56V6.55H2.98999C2.98999 6.55 2.98999 6.53 2.98999 6.52C2.99999 6.52 2.98999 6.51 2.99999 6.51C3.00999 6.51 3.01999 6.49 3.00999 6.49C3.00999 6.47 3.01999 6.47 3.03999 6.47C3.03999 6.46 3.01999 6.46 3.00999 6.44C3.00999 6.43 2.96999 6.41 2.93999 6.41C2.90999 6.41 2.87999 6.44 2.86999 6.46C2.85999 6.48 2.82999 6.48 2.81999 6.48C2.81999 6.48 2.80999 6.48 2.79999 6.48C2.79999 6.48 2.77999 6.48 2.76999 6.48C2.75999 6.48 2.74999 6.48 2.73999 6.48C2.73999 6.48 2.69999 6.48 2.68999 6.48C2.67999 6.48 2.68999 6.5 2.68999 6.5C2.68999 6.5 2.71999 6.5 2.72999 6.5C2.73999 6.5 2.76999 6.5 2.77999 6.5C2.79999 6.5 2.81999 6.5 2.84999 6.51V6.54H2.82999C2.82999 6.54 2.80999 6.54 2.79999 6.53C2.78999 6.53 2.77999 6.53 2.77999 6.53C2.74999 6.54 2.62999 6.64 2.61999 6.66C2.60999 6.68 2.58999 6.7 2.56999 6.73C2.55999 6.75 2.53999 6.77 2.52999 6.81C2.50999 6.81 2.48999 6.84 2.48999 6.84V6.85C2.48999 6.85 2.48999 6.86 2.49999 6.86V6.87L2.54999 6.82C2.54999 6.82 2.55999 6.78 2.56999 6.77C2.59999 6.74 2.62999 6.69 2.63999 6.67C2.63999 6.67 2.69999 6.64 2.71999 6.63C2.71999 6.67 2.71999 6.7 2.71999 6.72C2.71999 6.76 2.73999 6.78 2.74999 6.82C2.74999 6.85 2.74999 6.87 2.74999 6.89C2.74999 6.9 2.74999 6.9 2.76999 6.91C2.77999 6.91 2.82999 6.91 2.83999 6.91C2.86999 6.91 2.88999 6.91 2.89999 6.92C2.92999 6.92 2.95999 6.92 2.96999 6.93C2.97999 6.93 2.99999 6.99 3.00999 7.01C3.00999 7.03 3.05999 7.05 3.06999 7.06C3.06999 7.07 3.08999 7.1 3.07999 7.11C3.07999 7.12 3.07999 7.13 3.08999 7.13C3.09999 7.13 3.13999 7.13 3.14999 7.13C3.14999 7.13 3.16999 7.15 3.17999 7.15C3.18999 7.15 3.20999 7.15 3.22999 7.15C3.24999 7.15 3.23999 7.13 3.22999 7.13C3.22999 7.13 3.19999 7.13 3.18999 7.13C3.17999 7.13 3.14999 7.1 3.13999 7.09C3.12999 7.08 3.11999 7.06 3.11999 7.04C3.11999 7.03 3.06999 6.97 3.05999 6.95C3.05999 6.95 3.02999 6.89 3.02999 6.88C3.02999 6.87 3.00999 6.86 3.00999 6.86C2.96999 6.85 2.95999 6.84 2.91999 6.84C2.88999 6.84 2.88999 6.84 2.87999 6.81C2.87999 6.8 2.86999 6.77 2.87999 6.75C2.87999 6.75 2.87999 6.72 2.87999 6.71C2.87999 6.71 2.87999 6.69 2.87999 6.68C2.87999 6.67 2.87999 6.63 2.87999 6.62C2.87999 6.6 2.87999 6.59 2.87999 6.57H2.95999ZM2.98999 6.73C2.98999 6.73 2.96999 6.73 2.95999 6.73C2.95999 6.73 2.97999 6.73 2.98999 6.73C2.98999 6.73 2.98999 6.76 2.98999 6.77V6.73Z" fill="white"/>
<path d="M3.29998 7.16C3.29998 7.16 3.27998 7.16 3.25998 7.16C3.25998 7.16 3.24998 7.16 3.23998 7.15C3.23998 7.15 3.23998 7.15 3.22998 7.15C3.22998 7.15 3.18998 7.14 3.17998 7.15C3.17998 7.15 3.16998 7.15 3.15998 7.15C3.15998 7.15 3.15998 7.14 3.15998 7.13C3.15998 7.12 3.15998 7.09 3.14998 7.08C3.14998 7.08 3.13998 7.08 3.12998 7.06C3.10998 7.05 3.08998 7.03 3.08998 7.02C3.08998 7.02 3.05998 6.95 3.04998 6.95C3.04998 6.95 3.01998 6.93 2.97998 6.94C2.97998 6.94 2.97998 6.94 2.96998 6.94C2.95998 6.94 2.93998 6.94 2.91998 6.94C2.91998 6.94 2.89998 6.94 2.88998 6.94C2.86998 6.94 2.84998 6.94 2.84998 6.94C2.84998 6.94 2.82998 6.93 2.82998 6.92C2.82998 6.92 2.82998 6.91 2.82998 6.9C2.82998 6.89 2.82998 6.87 2.82998 6.85C2.82998 6.84 2.82998 6.82 2.81998 6.81C2.81998 6.79 2.80998 6.78 2.79998 6.75C2.79998 6.73 2.79998 6.7 2.79998 6.67C2.78998 6.67 2.77998 6.68 2.75998 6.69C2.74998 6.69 2.72998 6.7 2.72998 6.71C2.72998 6.71 2.68998 6.78 2.66998 6.81C2.66998 6.81 2.64998 6.84 2.64998 6.86L2.59998 6.91C2.59998 6.91 2.59998 6.91 2.58998 6.91C2.58998 6.91 2.58998 6.91 2.58998 6.9C2.58998 6.9 2.60998 6.88 2.62998 6.87C2.62998 6.85 2.64998 6.83 2.65998 6.82C2.65998 6.82 2.65998 6.81 2.66998 6.8C2.67998 6.78 2.68998 6.77 2.69998 6.75C2.69998 6.75 2.70998 6.73 2.71998 6.72C2.72998 6.7 2.84998 6.6 2.88998 6.59C2.88998 6.59 2.89998 6.59 2.91998 6.59C2.91998 6.59 2.92998 6.59 2.93998 6.59H2.95998C2.95998 6.59 2.95998 6.59 2.95998 6.58H2.93998C2.92998 6.58 2.90998 6.57 2.89998 6.58C2.88998 6.58 2.84998 6.58 2.83998 6.58H2.80998C2.80998 6.58 2.78998 6.57 2.78998 6.56V6.55C2.79998 6.55 2.82998 6.55 2.83998 6.55C2.83998 6.55 2.83998 6.55 2.84998 6.55C2.84998 6.55 2.84998 6.55 2.85998 6.55H2.88998H2.89998C2.89998 6.55 2.92998 6.55 2.93998 6.53C2.94998 6.51 2.97998 6.48 3.01998 6.48C3.04998 6.48 3.08998 6.5 3.09998 6.51C3.09998 6.51 3.09998 6.51 3.10998 6.52C3.10998 6.52 3.11998 6.52 3.11998 6.54C3.09998 6.54 3.08998 6.54 3.08998 6.55V6.57C3.08998 6.57 3.08998 6.57 3.07998 6.57C3.07998 6.57 3.07998 6.58 3.06998 6.58C3.06998 6.58 3.06998 6.59 3.06998 6.6V6.61C3.06998 6.61 3.06998 6.61 3.05998 6.61C3.05998 6.61 3.05998 6.61 3.05998 6.62C3.05998 6.62 3.05998 6.62 3.04998 6.62C3.04998 6.62 3.04998 6.62 3.04998 6.63C3.04998 6.64 3.04998 6.65 3.04998 6.67C3.04998 6.67 3.04998 6.72 3.04998 6.73C3.04998 6.73 3.04998 6.73 3.04998 6.74H3.06998C3.06998 6.75 3.06998 6.78 3.06998 6.78C3.06998 6.78 3.04998 6.78 3.03998 6.78C3.03998 6.78 3.03998 6.79 3.03998 6.8C3.03998 6.81 3.03998 6.83 3.03998 6.84C3.03998 6.84 3.03998 6.85 3.03998 6.86C3.03998 6.88 3.03998 6.88 3.06998 6.88C3.09998 6.88 3.11998 6.89 3.13998 6.9H3.15998C3.15998 6.9 3.17998 6.91 3.18998 6.92C3.18998 6.93 3.21998 6.99 3.21998 6.99C3.22998 7 3.26998 7.06 3.27998 7.08C3.27998 7.08 3.27998 7.08 3.27998 7.1C3.27998 7.11 3.27998 7.12 3.29998 7.13C3.30998 7.14 3.33998 7.17 3.34998 7.17C3.35998 7.17 3.37998 7.17 3.38998 7.17C3.38998 7.17 3.38998 7.17 3.38998 7.18C3.38998 7.18 3.38998 7.2 3.36998 7.2L3.29998 7.16ZM3.17998 7.12C3.17998 7.12 3.22998 7.12 3.23998 7.13C3.23998 7.13 3.23998 7.13 3.24998 7.13C3.24998 7.13 3.25998 7.13 3.26998 7.13C3.29998 7.13 3.30998 7.13 3.31998 7.13C3.31998 7.13 3.28998 7.13 3.27998 7.13C3.26998 7.13 3.23998 7.1 3.21998 7.09C3.21998 7.08 3.20998 7.07 3.19998 7.06V7.05C3.19998 7.04 3.14998 6.98 3.13998 6.96C3.13998 6.96 3.10998 6.9 3.10998 6.88C3.10998 6.88 3.09998 6.87 3.08998 6.87H3.06998C3.06998 6.87 3.02998 6.85 2.99998 6.85C2.96998 6.85 2.95998 6.85 2.95998 6.82C2.95998 6.82 2.95998 6.82 2.95998 6.8C2.95998 6.78 2.95998 6.77 2.95998 6.75C2.95998 6.75 2.95998 6.73 2.95998 6.72C2.95998 6.72 2.95998 6.71 2.95998 6.7C2.95998 6.7 2.95998 6.69 2.95998 6.68C2.95998 6.67 2.95998 6.63 2.95998 6.62C2.95998 6.61 2.95998 6.59 2.95998 6.58C2.95998 6.58 2.95998 6.55 2.96998 6.55C2.96998 6.55 2.97998 6.55 2.98998 6.55C2.98998 6.55 2.99998 6.55 3.00998 6.56C3.00998 6.56 3.00998 6.56 3.00998 6.55C3.00998 6.55 3.00998 6.53 3.00998 6.52V6.51C3.00998 6.49 3.02998 6.49 3.03998 6.49C3.03998 6.49 3.02998 6.49 3.01998 6.48C3.01998 6.47 2.97998 6.45 2.94998 6.45C2.91998 6.45 2.88998 6.48 2.87998 6.49C2.86998 6.51 2.83998 6.51 2.82998 6.51C2.82998 6.51 2.82998 6.51 2.81998 6.51H2.78998C2.78998 6.51 2.78998 6.51 2.77998 6.51C2.77998 6.51 2.76998 6.51 2.75998 6.51C2.75998 6.51 2.71998 6.51 2.70998 6.51C2.70998 6.51 2.73998 6.51 2.74998 6.51C2.74998 6.51 2.78998 6.51 2.79998 6.51C2.81998 6.51 2.82998 6.51 2.84998 6.51H2.86998C2.86998 6.51 2.86998 6.54 2.85998 6.54H2.83998C2.83998 6.54 2.83998 6.54 2.82998 6.54H2.81998C2.81998 6.54 2.80998 6.54 2.79998 6.54C2.76998 6.55 2.64998 6.64 2.63998 6.66C2.63998 6.67 2.62998 6.68 2.61998 6.69C2.61998 6.7 2.59998 6.71 2.58998 6.73C2.58998 6.73 2.58998 6.74 2.57998 6.75C2.57998 6.77 2.55998 6.78 2.54998 6.8C2.52998 6.8 2.50998 6.83 2.50998 6.83L2.54998 6.79C2.54998 6.79 2.55998 6.74 2.56998 6.73C2.58998 6.7 2.61998 6.66 2.62998 6.64C2.62998 6.64 2.63998 6.62 2.65998 6.61C2.67998 6.61 2.69998 6.59 2.69998 6.58C2.69998 6.62 2.69998 6.65 2.69998 6.67C2.69998 6.69 2.70998 6.71 2.71998 6.73C2.71998 6.74 2.71998 6.76 2.72998 6.77C2.72998 6.79 2.72998 6.81 2.72998 6.82C2.72998 6.82 2.72998 6.83 2.72998 6.84C2.72998 6.84 2.72998 6.84 2.73998 6.85C2.73998 6.85 2.75998 6.85 2.77998 6.85C2.78998 6.85 2.80998 6.85 2.80998 6.85C2.82998 6.85 2.84998 6.85 2.85998 6.85C2.85998 6.85 2.85998 6.85 2.86998 6.85C2.89998 6.85 2.92998 6.85 2.93998 6.86C2.94998 6.86 2.96998 6.9 2.97998 6.94C2.97998 6.94 2.99998 6.97 3.01998 6.98C3.01998 6.98 3.03998 6.99 3.03998 7C3.04998 7.01 3.05998 7.04 3.05998 7.06C3.05998 7.06 3.05998 7.06 3.05998 7.07L3.17998 7.12ZM2.96998 6.73C2.96998 6.73 2.97998 6.73 2.98998 6.73C2.98998 6.73 2.98998 6.71 2.98998 6.7H2.96998V6.73Z" fill="black"/>
<path d="M2.97998 6.53999C2.97998 6.53999 2.96998 6.53999 2.95998 6.53999V6.51999C2.95998 6.51999 2.95998 6.51999 2.95998 6.50999C2.95998 6.50999 2.95998 6.50999 2.94998 6.50999C2.94998 6.50999 2.94998 6.50999 2.93998 6.50999C2.93998 6.50999 2.93998 6.50999 2.91998 6.50999C2.91998 6.50999 2.91998 6.50999 2.92998 6.50999H2.94998C2.94998 6.50999 2.94998 6.51999 2.94998 6.52999V6.53999C2.94998 6.53999 2.95998 6.53999 2.96998 6.52999C2.96998 6.50999 2.98998 6.50999 2.99998 6.51999H2.97998C2.97998 6.51999 2.97998 6.53999 2.94998 6.53999H2.97998ZM2.91998 6.49999C2.91998 6.49999 2.91998 6.49999 2.92998 6.49999C2.92998 6.49999 2.92998 6.47999 2.92998 6.46999C2.92998 6.43999 2.97998 6.42999 2.99998 6.42999C3.01998 6.42999 3.02998 6.43999 3.03998 6.45999C3.03998 6.45999 3.03998 6.47999 3.05998 6.47999C3.05998 6.47999 3.05998 6.47999 3.04998 6.47999C3.04998 6.47999 3.02998 6.46999 3.02998 6.44999C3.02998 6.43999 3.00998 6.42999 2.99998 6.42999C2.97998 6.42999 2.94998 6.43999 2.93998 6.45999C2.93998 6.47999 2.93998 6.48999 2.93998 6.48999C2.93998 6.48999 2.93998 6.48999 2.92998 6.48999C2.92998 6.48999 2.92998 6.49999 2.92998 6.50999L2.91998 6.49999Z" fill="black"/>
<path d="M3.05998 6.92C3.02998 6.91 3.00998 6.9 2.97998 6.9C2.95998 6.9 2.94998 6.9 2.92998 6.9C2.91998 6.9 2.90998 6.9 2.89998 6.89C2.87998 6.89 2.86998 6.87 2.83998 6.87C2.83998 6.87 2.87998 6.87 2.89998 6.89C2.89998 6.89 2.91998 6.89 2.92998 6.9C2.93998 6.9 2.95998 6.9 2.97998 6.9C3.00998 6.9 3.02998 6.9 3.05998 6.92ZM2.94998 6.83C2.94998 6.83 2.88998 6.81 2.86998 6.79C2.88998 6.81 2.91998 6.82 2.94998 6.82V6.83ZM2.92998 6.77C2.92998 6.76 2.90998 6.75 2.88998 6.75C2.91998 6.75 2.92998 6.76 2.93998 6.78L2.92998 6.77ZM2.85998 6.74C2.85998 6.74 2.82998 6.74 2.81998 6.73C2.81998 6.73 2.83998 6.74 2.85998 6.74ZM2.90998 6.68C2.90998 6.68 2.89998 6.68 2.88998 6.68C2.89998 6.68 2.90998 6.68 2.92998 6.68C2.92998 6.68 2.91998 6.68 2.90998 6.68ZM2.86998 6.66C2.85998 6.66 2.84998 6.63 2.83998 6.61C2.83998 6.61 2.83998 6.6 2.83998 6.59C2.83998 6.59 2.83998 6.6 2.83998 6.61C2.83998 6.63 2.85998 6.65 2.86998 6.65V6.66Z" fill="black"/>
<path d="M2.97 6.61999C2.92 6.61999 2.89 6.57999 2.87 6.50999C2.88 6.55999 2.9 6.58999 2.93 6.59999C2.93 6.58999 2.92 6.56999 2.91 6.54999C2.91 6.54999 2.91 6.53999 2.91 6.52999C2.91 6.52999 2.91 6.53999 2.91 6.54999C2.92 6.59999 2.93 6.61999 2.97 6.62999V6.61999Z" fill="black"/>
<path d="M3.2 7.1C3.2 7.1 3.19 7.09 3.18 7.07V7.04H3.16V7.02C3.16 7.02 3.16 7.02 3.17 7.02V7.04H3.19L3.21 7.07C3.21 7.08 3.21 7.09 3.21 7.1H3.2ZM3.16 7.04L3.18 7.07C3.18 7.07 3.18 7.09 3.19 7.09C3.19 7.09 3.19 7.08 3.19 7.07L3.17 7.04V7.02H3.16V7.04Z" fill="black"/>
</svg>
