<svg width="24" height="24" viewBox="0 0 24 24" fill="none" xmlns="http://www.w3.org/2000/svg">
<path d="M0 4H24V20H0V4Z" fill="#DA2031"/>
<path d="M8 4H16V20H8V4Z" fill="#0066B2"/>
<path d="M4 11.2C4.60751 11.2 5.1 10.7075 5.1 10.1C5.1 9.49249 4.60751 9 4 9C3.39249 9 2.9 9.49249 2.9 10.1C2.9 10.7075 3.39249 11.2 4 11.2Z" fill="#FFD300"/>
<path d="M4 10.8C4.66274 10.8 5.2 10.2627 5.2 9.59999C5.2 8.93725 4.66274 8.39999 4 8.39999C3.33726 8.39999 2.8 8.93725 2.8 9.59999C2.8 10.2627 3.33726 10.8 4 10.8Z" fill="#DA2031"/>
<path d="M4 10.6C4.44183 10.6 4.8 10.2418 4.8 9.8C4.8 9.35817 4.44183 9 4 9C3.55817 9 3.2 9.35817 3.2 9.8C3.2 10.2418 3.55817 10.6 4 10.6Z" fill="#FFD300"/>
<path d="M4.08 7.2C3.98 7.25 3.94 7.33 3.94 7.41C3.94 7.48 3.97 7.56 3.97 7.62C3.97 7.73 3.85 7.77 3.85 7.94C3.85 8 3.9 8.06 3.9 8.2C3.9 8.28 3.85 8.29 3.8 8.3C3.74 8.3 3.7 8.26 3.7 8.2C3.7 8.17 3.7 8.15 3.73 8.13C3.73 8.13 3.73 8.13 3.74 8.12C3.76 8.1 3.79 8.09 3.79 8.03C3.79 8 3.77 7.97 3.75 7.92C3.73 7.87 3.75 7.78 3.79 7.72C3.72 7.75 3.68 7.81 3.65 7.87C3.63 7.94 3.65 7.99 3.62 8.05C3.6 8.09 3.58 8.11 3.56 8.14C3.53 8.18 3.5 8.26 3.5 8.3C3.5 8.58 3.72 8.8 4 8.8C4.28 8.8 4.5 8.58 4.5 8.3C4.5 8.26 4.47 8.18 4.44 8.14C4.42 8.11 4.39 8.09 4.38 8.05C4.35 7.99 4.37 7.95 4.35 7.87C4.33 7.81 4.28 7.74 4.21 7.72C4.25 7.77 4.27 7.86 4.25 7.92C4.23 7.98 4.21 8 4.21 8.03C4.21 8.09 4.24 8.1 4.26 8.12C4.26 8.12 4.26 8.12 4.27 8.13C4.29 8.15 4.3 8.17 4.3 8.2C4.3 8.26 4.26 8.3 4.2 8.3C4.14 8.3 4.1 8.27 4.1 8.2C4.1 8.01 4.18 8 4.18 7.85C4.18 7.65 4 7.55 4 7.4C4 7.35 4.01 7.26 4.08 7.2ZM1.8 11.4H2.8V16.2H1.8V11.4ZM5.2 11.4H6.2V16.2H5.2V11.4ZM3 11.4H5L4 12L3 11.4ZM3 12.2H5V12.6H3V12.2ZM3 15H5V15.4H3V15ZM3 15.6H5L4 16.2L3 15.6Z" fill="#FFD300"/>
<path d="M4 14.8C4.55228 14.8 5 14.3523 5 13.8C5 13.2477 4.55228 12.8 4 12.8C3.44772 12.8 3 13.2477 3 13.8C3 14.3523 3.44772 14.8 4 14.8Z" fill="#FFD300"/>
<path d="M4 13.47C4.11046 13.47 4.2 13.3804 4.2 13.27C4.2 13.1595 4.11046 13.07 4 13.07C3.88954 13.07 3.8 13.1595 3.8 13.27C3.8 13.3804 3.88954 13.47 4 13.47Z" fill="#DA2032"/>
<path d="M4 14.53C4.11046 14.53 4.2 14.4404 4.2 14.33C4.2 14.2195 4.11046 14.13 4 14.13C3.88954 14.13 3.8 14.2195 3.8 14.33C3.8 14.4404 3.88954 14.53 4 14.53Z" fill="#DA2032"/>
<path d="M4 12.68C4.33 12.68 4.59 12.94 4.59 13.27C4.59 13.6 4.33 13.86 4 13.86C3.74 13.86 3.53 14.07 3.53 14.33C3.53 14.59 3.74 14.8 4 14.8V14.92C3.67 14.92 3.41 14.66 3.41 14.33C3.41 14 3.67 13.74 4 13.74C4.26 13.74 4.47 13.53 4.47 13.27C4.47 13.01 4.26 12.8 4 12.8V12.68Z" fill="#DA2032"/>
</svg>
