<svg width="24" height="24" viewBox="0 0 24 24" fill="none" xmlns="http://www.w3.org/2000/svg">
<path d="M24 4H0V20H24V4Z" fill="#F42525"/>
<path d="M14.43 15.72L12 13.97L9.59 15.71L10.49 12.88L8.11 11.16H11.04L11.95 8.28L12.91 11.16H15.89L13.48 12.9L14.42 15.72H14.43ZM10.99 13.24L10.69 14.18L11.49 13.6L10.99 13.24ZM12.5 13.6L13.28 14.16L12.98 13.25L12.5 13.6ZM11.18 12.65L12 13.24L12.79 12.67L12.48 11.75H11.47L11.18 12.65ZM13.1 11.75L13.29 12.31L14.06 11.75H13.1ZM10.68 12.28L10.85 11.75H9.94L10.68 12.28ZM12.28 11.16L11.96 10.19L11.65 11.16H12.28Z" fill="#487741"/>
</svg>
