<svg width="24" height="24" viewBox="0 0 24 24" fill="none" xmlns="http://www.w3.org/2000/svg">
<path d="M0 4H24V20H0V4Z" fill="black"/>
<path d="M0 4H24V9.5H0V4Z" fill="white"/>
<path d="M0 4H24V9H0V4Z" fill="#007168"/>
<path d="M0 14.49H24V20H0V14.49Z" fill="white"/>
<path d="M0 15H24V20H0V15Z" fill="#FCE100"/>
<path d="M0 4V20L10.5 12L0 4Z" fill="#D21034"/>
<path d="M5.45001 15L3.50001 13.57L1.55001 15L2.31001 12.7L0.350006 11.29H2.77001L3.51001 9L4.25001 11.3H6.67001L4.71001 12.7L5.47001 14.99L5.45001 15Z" fill="#FCE100"/>
<path fill-rule="evenodd" clip-rule="evenodd" d="M1.81 13.4H3.22C3.33 13.53 3.59 13.58 3.83 13.4C4.27 13.16 5.12 13.4 5.12 13.4L5.29 13.22L4.88 11.88L4.73 11.72C4.73 11.72 4.42 11.53 3.82 11.59C3.22 11.65 3.01 11.57 3.01 11.57C3.01 11.57 2.49 11.63 2.34 11.71C2.32 11.72 2.17 11.88 2.17 11.88L1.81 13.4Z" fill="white"/>
<path d="M3.49 13.53C3.37 13.53 3.27 13.49 3.2 13.41H1.8C1.8 13.41 1.79 13.41 1.78 13.41C1.78 13.41 1.78 13.4 1.78 13.39L2.14 11.87C2.16 11.85 2.29 11.71 2.31 11.7C2.46 11.63 2.97 11.56 2.99 11.56C2.99 11.56 2.99 11.56 3 11.56C3 11.56 3.22 11.64 3.8 11.58C4.4 11.51 4.71 11.7 4.73 11.71L4.88 11.87L5.29 13.21C5.29 13.21 5.29 13.22 5.29 13.23L5.12 13.41C5.12 13.41 5.11 13.41 5.1 13.41C5.1 13.41 4.25 13.17 3.82 13.41C3.71 13.49 3.59 13.53 3.49 13.53ZM1.83 13.38H3.21C3.21 13.38 3.22 13.38 3.23 13.38C3.34 13.5 3.58 13.55 3.81 13.38C4.23 13.15 5 13.34 5.11 13.38L5.26 13.22L4.86 11.89L4.72 11.74C4.72 11.74 4.38 11.56 3.82 11.62C3.27 11.68 3.04 11.62 3.01 11.6C2.96 11.6 2.49 11.67 2.35 11.73C2.33 11.75 2.25 11.83 2.19 11.89L1.84 13.38H1.83Z" fill="black"/>
<path d="M3.48999 13.54C3.38999 13.54 3.28999 13.5 3.17999 13.43C3.17999 13.43 3.16999 13.41 3.17999 13.4C3.17999 13.4 3.26999 13.29 3.46999 13.18C2.93999 12.97 2.09999 13.07 2.08999 13.07C2.07999 13.07 2.06999 13.07 2.06999 13.05C2.06999 13.04 2.06999 13.03 2.08999 13.03C2.12999 13.03 2.98999 12.92 3.52999 13.15C3.78999 13.03 4.19999 12.93 4.83999 13.02C4.84999 13.02 4.85999 13.03 4.85999 13.04C4.85999 13.05 4.84999 13.06 4.83999 13.06C4.24999 12.98 3.83999 13.06 3.58999 13.18C3.69999 13.23 3.78999 13.3 3.84999 13.39C3.84999 13.39 3.84999 13.4 3.84999 13.41V13.42C3.72999 13.5 3.61999 13.54 3.50999 13.54H3.48999ZM3.22999 13.4C3.40999 13.52 3.57999 13.52 3.78999 13.39C3.71999 13.31 3.62999 13.25 3.52999 13.2C3.35999 13.28 3.26999 13.37 3.23999 13.4H3.22999Z" fill="black"/>
<path d="M3.53 11.71V13.19V11.71ZM4.72 11.73L4.97 12.9L4.72 11.73ZM2.34 11.71L2.2 12.32L2.34 11.71Z" fill="black"/>
<path d="M3.51999 13.21C3.51999 13.21 3.49999 13.21 3.49999 13.19V11.71C3.49999 11.71 3.51999 11.69 3.52999 11.69C3.52999 11.69 3.54999 11.69 3.54999 11.71V13.19C3.54999 13.19 3.52999 13.21 3.51999 13.21ZM4.96999 12.93C4.96999 12.93 4.94999 12.93 4.94999 12.91L4.69999 11.73C4.69999 11.73 4.69999 11.71 4.71999 11.71C4.71999 11.71 4.73999 11.71 4.73999 11.73L4.98999 12.91C4.98999 12.91 4.98999 12.93 4.96999 12.93ZM2.19999 12.34C2.18999 12.34 2.17999 12.33 2.17999 12.31L2.31999 11.7C2.31999 11.7 2.32999 11.68 2.33999 11.68C2.34999 11.68 2.35999 11.69 2.35999 11.71L2.21999 12.32C2.21999 12.32 2.20999 12.34 2.19999 12.34Z" fill="black"/>
<path fill-rule="evenodd" clip-rule="evenodd" d="M0.889999 13.56L1.22 13.95C1.22 13.95 1.29 13.97 1.33 13.95L1.82 13.36L2.03 13.11C2.03 13.11 2.07 13.03 2.07 12.99L2.46 12.64H2.54C2.54 12.64 2.47 12.62 2.5 12.58L2.59 12.51L2.66 12.6L2.55 12.73H2.44L2.23 12.92L2.32 13L2.46 13.37L2.63 13.25L2.52 12.87L2.76 12.62L2.67 12.48L2.73 12.4C2.73 12.4 3.54 12.91 3.86 12.78L3.88 12.41C3.88 12.41 3.04 12.32 3.02 12.16C3 12 3.21 11.97 3.21 11.97L3.12 11.84L3.14 11.77L3.29 11.96L3.62 11.68L5.58 13.91C5.69 13.87 5.71 13.84 5.72 13.73L3.8 11.53L3.95 11.37C3.95 11.37 3.99 11.32 3.99 11.27L4.22 11.07C4.29 11.09 4.33 11.13 4.37 11.19L4.99 10.67C4.99 10.67 5.06 10.7 5.09 10.68L6.11 9.7L4.99 10.49L4.95 10.46C4.95 10.46 4.99 10.42 4.95 10.36C4.91 10.31 4.84 10.41 4.83 10.41C4.82 10.41 4.67 10.36 4.64 10.29V10.47L4.34 10.73H4.12L3.81 11.02L3.77 11.14L3.82 11.24C3.82 11.24 3.65 11.39 3.65 11.38C3.65 11.37 3.62 11.34 3.61 11.33L3.75 11.2L3.77 11.11L3.72 11.04C3.72 11.04 3.52 11.24 3.51 11.22L2.98 10.62L3.01 10.51L2.68 10.15C2.56 10.11 2.37 10.1 2.33 10.37C2.3 10.43 2.05 10.37 2.05 10.37L1.91 10.4L1.14 11.5L1.57 12.02L2.45 10.9L2.48 10.58L2.66 10.79C2.72 10.79 2.78 10.79 2.84 10.77L3.36 11.35L3.27 11.43L3.35 11.52C3.35 11.52 3.41 11.48 3.44 11.46C3.44 11.47 3.47 11.5 3.48 11.51C3.44 11.53 3.41 11.57 3.36 11.59C3.29 11.54 3.22 11.49 3.23 11.4L2.94 11.64V11.69L2.06 12.41H1.98L1.96 12.65L2.53 12.18V12.11L2.59 12.16L3.03 11.81C3.03 11.81 3.06 11.85 3.05 11.85C3.04 11.85 2.66 12.2 2.66 12.2V12.24L2.58 12.3L2.54 12.27L2.01 12.74H1.93L1.64 13.03C1.56 13.03 1.5 13.04 1.43 13.09L0.899999 13.55L0.889999 13.56Z" fill="black"/>
<path d="M1.28 13.98C1.28 13.98 1.24 13.98 1.22 13.96L0.889999 13.57C0.889999 13.57 0.889999 13.55 0.889999 13.54L1.42 13.08C1.49 13.03 1.55 13.02 1.63 13.02L1.92 12.73C1.92 12.73 1.92 12.73 1.93 12.73H2L2.52 12.27C2.52 12.27 2.54 12.27 2.55 12.27L2.58 12.29L2.63 12.25V12.22C2.63 12.22 2.64 12.22 2.64 12.21C2.9 11.97 2.99 11.89 3.02 11.86L2.6 12.2C2.6 12.2 2.58 12.2 2.57 12.2L2.55 12.18V12.2C2.55 12.2 2.55 12.21 2.55 12.22L1.98 12.69H1.96C1.96 12.69 1.95 12.68 1.95 12.67L1.97 12.44C1.97 12.44 1.97 12.42 1.99 12.42H2.06L2.92 11.69V11.65C2.92 11.65 2.93 11.65 2.94 11.64L3.23 11.39H3.25C3.25 11.39 3.26 11.4 3.26 11.41C3.26 11.49 3.31 11.53 3.37 11.58C3.39 11.57 3.4 11.56 3.42 11.55C3.43 11.55 3.45 11.53 3.46 11.52C3.46 11.52 3.46 11.52 3.46 11.51C3.46 11.51 3.44 11.52 3.43 11.53C3.42 11.54 3.4 11.55 3.39 11.56C3.39 11.56 3.37 11.56 3.36 11.56L3.28 11.47C3.28 11.47 3.28 11.45 3.28 11.44L3.35 11.37L2.85 10.81C2.79 10.83 2.73 10.83 2.68 10.82C2.68 10.82 2.68 10.82 2.67 10.82L2.52 10.65L2.5 10.92C2.5 10.92 2.5 10.92 2.5 10.93L1.62 12.05C1.62 12.05 1.61 12.05 1.6 12.05C1.6 12.05 1.59 12.05 1.58 12.05L1.15 11.53C1.15 11.53 1.15 11.51 1.15 11.5L1.92 10.4C1.92 10.4 1.92 10.4 1.93 10.4L2.07 10.37C2.18 10.39 2.31 10.4 2.33 10.37C2.35 10.26 2.39 10.19 2.45 10.15C2.54 10.1 2.65 10.12 2.71 10.15L3.04 10.51C3.04 10.51 3.04 10.52 3.04 10.53L3.01 10.63L3.52 11.21C3.52 11.21 3.63 11.11 3.67 11.08C3.7 11.05 3.71 11.04 3.71 11.04C3.71 11.04 3.71 11.04 3.73 11.04H3.74L3.76 11.08L3.78 11.03L4.09 10.73C4.09 10.73 4.09 10.73 4.11 10.73H4.32L4.59 10.49V10.32C4.59 10.32 4.61 10.3 4.62 10.3C4.62 10.3 4.64 10.3 4.64 10.31C4.66 10.36 4.78 10.41 4.81 10.42C4.83 10.4 4.86 10.36 4.9 10.36C4.9 10.36 4.93 10.36 4.94 10.38C4.97 10.43 4.96 10.45 4.95 10.47L4.97 10.49L6.07 9.71C6.07 9.71 6.09 9.71 6.1 9.71C6.1 9.71 6.1 9.73 6.1 9.74L5.08 10.72C5.08 10.72 5 10.73 4.97 10.72L4.36 11.23C4.36 11.23 4.36 11.23 4.34 11.23H4.33C4.29 11.18 4.26 11.15 4.21 11.13L4 11.31C4 11.36 3.98 11.38 3.96 11.41L3.83 11.55C3.99 11.74 5.72 13.72 5.74 13.74C5.74 13.74 5.74 13.74 5.74 13.76C5.74 13.88 5.7 13.91 5.59 13.96H5.57L3.62 11.74L3.3 12.01C3.3 12.01 3.3 12.01 3.29 12.01C3.29 12.01 3.28 12.01 3.27 12.01L3.15 11.86V11.88L3.23 12C3.23 12 3.23 12.01 3.23 12.02C3.23 12.03 3.23 12.03 3.21 12.03C3.21 12.03 3.11 12.04 3.07 12.1C3.05 12.13 3.04 12.16 3.05 12.19C3.06 12.3 3.57 12.39 3.89 12.43C3.9 12.43 3.91 12.43 3.91 12.45C3.9 12.82 3.89 12.82 3.88 12.83C3.84 12.85 3.79 12.85 3.74 12.85C3.4 12.85 2.85 12.52 2.75 12.46L2.71 12.51L2.79 12.63C2.79 12.63 2.79 12.65 2.79 12.66L2.56 12.91L2.66 13.28V13.3L2.49 13.42C2.49 13.42 2.48 13.42 2.47 13.42C2.47 13.42 2.46 13.42 2.46 13.41L2.33 13.04L2.24 12.96C2.24 12.96 2.24 12.96 2.24 12.94C2.24 12.92 2.24 12.93 2.24 12.92L2.45 12.73C2.45 12.73 2.45 12.73 2.46 12.73H2.56L2.65 12.62L2.6 12.56L2.53 12.61V12.63C2.53 12.63 2.53 12.63 2.56 12.65C2.57 12.65 2.58 12.66 2.58 12.67C2.58 12.67 2.57 12.69 2.56 12.69H2.49L2.11 13.02C2.11 13.07 2.09 13.11 2.06 13.14L1.85 13.39L1.36 13.98C1.34 13.99 1.32 14 1.3 14L1.28 13.98ZM1.24 13.93C1.24 13.93 1.29 13.95 1.32 13.93L1.81 13.35L2.02 13.1C2.02 13.1 2.06 13.02 2.05 13C2.05 13 2.05 12.99 2.05 12.98L2.44 12.63C2.44 12.63 2.44 12.63 2.46 12.63H2.47C2.47 12.63 2.47 12.6 2.49 12.58L2.58 12.51C2.58 12.51 2.6 12.51 2.61 12.51L2.68 12.6C2.68 12.6 2.68 12.62 2.68 12.63L2.57 12.76C2.57 12.76 2.57 12.76 2.55 12.76H2.45L2.27 12.93L2.34 12.99L2.47 13.33L2.6 13.24L2.5 12.87C2.5 12.87 2.5 12.86 2.5 12.85L2.72 12.61L2.64 12.49V12.47L2.7 12.39C2.7 12.39 2.72 12.38 2.73 12.39C2.73 12.39 3.36 12.79 3.71 12.79C3.75 12.79 3.79 12.79 3.82 12.77C3.82 12.73 3.83 12.58 3.84 12.44C3.66 12.42 3 12.34 2.98 12.17C2.98 12.12 2.98 12.08 3.01 12.04C3.05 11.99 3.11 11.97 3.15 11.96L3.08 11.86C3.08 11.86 3.08 11.85 3.08 11.84L3.1 11.77C3.1 11.77 3.1 11.75 3.12 11.75C3.12 11.75 3.13 11.75 3.14 11.75L3.27 11.92L3.59 11.65C3.59 11.65 3.61 11.65 3.62 11.65L5.57 13.87C5.66 13.83 5.67 13.81 5.68 13.73C5.63 13.68 5.37 13.38 3.77 11.53C3.77 11.53 3.77 11.51 3.77 11.5L3.92 11.34C3.92 11.34 3.95 11.3 3.95 11.26C3.95 11.26 3.95 11.25 3.95 11.24L4.18 11.04C4.18 11.04 4.19 11.04 4.2 11.04C4.26 11.06 4.3 11.09 4.34 11.15L4.94 10.64C4.94 10.64 4.96 10.64 4.97 10.64C4.97 10.64 5.02 10.67 5.04 10.65L5.86 9.86L4.97 10.49H4.95L4.91 10.46C4.91 10.46 4.91 10.46 4.91 10.44C4.91 10.42 4.91 10.41 4.92 10.4C4.92 10.39 4.93 10.38 4.92 10.35H4.91C4.89 10.35 4.87 10.38 4.85 10.39C4.84 10.4 4.83 10.41 4.82 10.41C4.81 10.41 4.7 10.37 4.64 10.32V10.45L4.63 10.46L4.35 10.72C4.35 10.72 4.35 10.72 4.34 10.72H4.13L3.83 11.01L3.8 11.09V11.11L3.84 11.2C3.84 11.2 3.84 11.22 3.84 11.23C3.67 11.38 3.66 11.38 3.65 11.37C3.65 11.37 3.64 11.36 3.64 11.35C3.64 11.35 3.63 11.34 3.62 11.33C3.62 11.32 3.61 11.31 3.6 11.31V11.29L3.74 11.17V11.13C3.74 11.13 3.74 11.13 3.74 11.12V11.1L3.72 11.06C3.72 11.06 3.71 11.07 3.7 11.08C3.57 11.21 3.54 11.23 3.52 11.23C3.52 11.23 3.51 11.23 3.5 11.23L2.97 10.63C2.97 10.63 2.97 10.62 2.97 10.61L3 10.51L2.68 10.16C2.63 10.14 2.54 10.12 2.46 10.16C2.4 10.19 2.37 10.26 2.36 10.35C2.32 10.42 2.13 10.38 2.06 10.37L1.94 10.4L1.18 11.48L1.58 11.97L2.44 10.88L2.47 10.57C2.47 10.57 2.47 10.55 2.48 10.55H2.5L2.68 10.75C2.73 10.75 2.79 10.75 2.84 10.73H2.86L3.38 11.31C3.38 11.31 3.38 11.33 3.38 11.34L3.31 11.41L3.36 11.47L3.39 11.45C3.39 11.45 3.42 11.43 3.43 11.42C3.43 11.42 3.45 11.42 3.46 11.42V11.44C3.46 11.44 3.49 11.46 3.5 11.47C3.5 11.47 3.5 11.48 3.5 11.49C3.5 11.49 3.5 11.5 3.49 11.5C3.47 11.51 3.45 11.52 3.43 11.54C3.41 11.55 3.39 11.57 3.37 11.58H3.35C3.29 11.54 3.23 11.49 3.21 11.41L2.95 11.62V11.66C2.95 11.66 2.94 11.66 2.93 11.67L2.06 12.39C2.06 12.39 2.06 12.39 2.05 12.39H1.99L1.98 12.56L2.5 12.13V12.07C2.5 12.07 2.5 12.05 2.51 12.05H2.53L2.58 12.09L3.01 11.75C3.01 11.75 3.02 11.75 3.03 11.75H3.04C3.07 11.79 3.07 11.8 3.06 11.81C3.06 11.81 3.06 11.81 3.05 11.81C3.03 11.83 2.81 12.03 2.67 12.16V12.19C2.67 12.19 2.66 12.19 2.65 12.2L2.58 12.26C2.58 12.26 2.56 12.26 2.55 12.26L2.52 12.24L2 12.7C2 12.7 2 12.7 1.99 12.7H1.92L1.63 12.99C1.63 12.99 1.63 12.99 1.62 12.99C1.54 12.99 1.48 13.01 1.42 13.05L0.909999 13.5L1.22 13.87L1.24 13.93ZM3.64 11.32C3.64 11.32 3.64 11.33 3.65 11.34C3.68 11.32 3.73 11.27 3.78 11.23V11.2H3.76L3.63 11.32H3.64Z" fill="black"/>
</svg>
