<svg width="24" height="24" viewBox="0 0 24 24" fill="none" xmlns="http://www.w3.org/2000/svg">
<g clip-path="url(#clip0_170_3792)">
<path d="M7.62939e-06 20V4.00003H24L7.62939e-06 20Z" fill="#002F6C"/>
<path d="M24 4.00003V20H7.62939e-06L24 4.00003Z" fill="#009A44"/>
<mask id="mask0_170_3792" style="mask-type:luminance" maskUnits="userSpaceOnUse" x="0" y="4" width="24" height="16">
<path d="M24 4.00003H7.62939e-06V20H24V4.00003Z" fill="white"/>
</mask>
<g mask="url(#mask0_170_3792)">
<path d="M22.5222 1.7759L-1.47414 17.7734L1.4824 22.2083L25.4788 6.21073L22.5222 1.7759Z" fill="white"/>
<path d="M22.8939 2.33338L-1.10249 18.3309L1.1163 21.6591L25.1127 5.66158L22.8939 2.33338Z" fill="#C8102E"/>
</g>
<path d="M4.80001 5.69003L5.21001 6.81003L6.13 6.05003L5.93 7.23003L7.11001 7.03003L6.35001 7.95003L7.47001 8.36003L6.35001 8.77003L7.11001 9.69003L5.93 9.49003L6.13 10.67L5.21001 9.91003L4.80001 11.03L4.39 9.91003L3.47 10.67L3.67001 9.49003L2.49001 9.69003L3.25001 8.77003L2.13 8.36003L3.25001 7.95003L2.49001 7.03003L3.67001 7.23003L3.47 6.05003L4.39 6.81003L4.80001 5.69003Z" fill="#FFCD00"/>
<path d="M4.8 9.96003C3.92 9.96003 3.2 9.24003 3.2 8.36003C3.2 7.48003 3.92 6.76003 4.8 6.76003C5.68001 6.76003 6.4 7.48003 6.4 8.36003C6.4 9.24003 5.68001 9.96003 4.8 9.96003ZM4.8 7.02003C4.07 7.02003 3.47 7.62003 3.47 8.35003C3.47 9.08003 4.07 9.68003 4.8 9.68003C5.53 9.68003 6.13 9.08003 6.13 8.35003C6.13 7.62003 5.53 7.02003 4.8 7.02003Z" fill="#002F6C"/>
</g>
<defs>
<clipPath id="clip0_170_3792">
<rect width="24" height="24" fill="white"/>
</clipPath>
</defs>
</svg>
