<svg width="24" height="24" viewBox="0 0 24 24" fill="none" xmlns="http://www.w3.org/2000/svg">
<path d="M0.47 11.75H11.47L0.47 4.86V19.53H11.47L0.47 8.52V11.74V11.75Z" fill="#DC143C"/>
<path d="M12.62 20H0V4L13.13 12.22H4.84L12.62 20ZM0.95 19.05H10.34L3.51 12.22H0.95V19.05ZM3.89 11.27H9.83L0.95 5.71V8.33L3.9 11.28L3.89 11.27ZM0.95 11.27H2.56L0.95 9.66V11.27Z" fill="#003893"/>
<path d="M0.47 11.75H11.47L0.47 4.86V19.53H11.47L0.47 8.52V11.74V11.75Z" fill="#DC143C"/>
<path d="M1.03 9.15999C1.51 10.37 2.87 10.97 4.08 10.49C4.69 10.25 5.17 9.76999 5.41 9.15999C5.41 10.37 4.43 11.35 3.22 11.35C2.01 11.35 1.03 10.37 1.03 9.15999Z" fill="white"/>
<path d="M3.22 11.2C3.78333 11.2 4.24 10.7433 4.24 10.18C4.24 9.61666 3.78333 9.15999 3.22 9.15999C2.65667 9.15999 2.2 9.61666 2.2 10.18C2.2 10.7433 2.65667 11.2 3.22 11.2Z" fill="white"/>
<path d="M3.61 9.23999L3.5 8.78999L3.22 9.15999" fill="white"/>
<path d="M3.95 9.46L4.02 9L3.62 9.24" fill="white"/>
<path d="M4.17 9.79L4.41 9.39L3.95 9.46" fill="white"/>
<path d="M4.24 10.18L4.61 9.89999L4.16 9.78999" fill="white"/>
<path d="M4.17 10.57L4.62 10.46L4.25 10.18" fill="white"/>
<path d="M3.95 10.9L4.41 10.97L4.17 10.57" fill="white"/>
<path d="M2.83 9.23999L2.94 8.78999L3.22 9.15999" fill="white"/>
<path d="M2.5 9.46L2.43 9L2.83 9.24" fill="white"/>
<path d="M2.28 9.79L2.04 9.39L2.5 9.46" fill="white"/>
<path d="M2.2 10.18L1.83 9.89999L2.28 9.78999" fill="white"/>
<path d="M2.28 10.57L1.83 10.46L2.2 10.18" fill="white"/>
<path d="M2.5 10.9L2.04 10.97L2.28 10.57" fill="white"/>
<path d="M3.22 17.13C4.0429 17.13 4.71 16.4629 4.71 15.64C4.71 14.8171 4.0429 14.15 3.22 14.15C2.3971 14.15 1.73 14.8171 1.73 15.64C1.73 16.4629 2.3971 17.13 3.22 17.13Z" fill="white"/>
<path d="M3.61 17.08L3.22 17.99L2.83 17.08" fill="white"/>
<path d="M2.84 14.19L3.23 13.28L3.62 14.19" fill="white"/>
<path d="M1.78 16.02L0.87 15.63L1.78 15.24" fill="white"/>
<path d="M4.67 15.25L5.58 15.64L4.67 16.03" fill="white"/>
<path d="M2.84 17.08L2.05 17.68L2.17 16.7" fill="white"/>
<path d="M3.61 14.19L4.4 13.59L4.28 14.57" fill="white"/>
<path d="M1.78 15.25L1.18 14.46L2.16 14.58" fill="white"/>
<path d="M4.67 16.02L5.27 16.81L4.29 16.69" fill="white"/>
<path d="M2.17 16.69L1.19 16.81L1.79 16.02" fill="white"/>
<path d="M4.28 14.58L5.26 14.46L4.66 15.25" fill="white"/>
<path d="M2.17 14.58L2.05 13.6L2.84 14.2" fill="white"/>
<path d="M4.28 16.69L4.4 17.67L3.61 17.07" fill="white"/>
</svg>
