<svg width="24" height="24" viewBox="0 0 24 24" fill="none" xmlns="http://www.w3.org/2000/svg">
<path d="M0 4H24V20H0V4Z" fill="#0067C6"/>
<path d="M0 9.33H24V14.66H0V9.33Z" fill="white"/>
<path d="M9.61 11.98L9.87 12V11.96H9.77V11.83L9.89 11.75V11.7L9.78 11.78C9.78 11.75 9.76 11.72 9.73 11.71C9.71 11.71 9.68 11.7 9.66 11.71C9.63 11.73 9.63 11.76 9.63 11.8V11.97H9.62L9.61 11.98ZM9.65 11.95V11.82C9.65 11.82 9.67 11.77 9.69 11.76C9.71 11.75 9.73 11.76 9.74 11.78C9.75 11.81 9.74 11.85 9.74 11.88V11.96H9.65V11.95ZM9.65 11.58L9.91 11.64L9.97 11.39H9.93L9.88 11.6L9.8 11.58L9.85 11.39H9.81L9.76 11.57L9.69 11.55L9.74 11.34H9.7L9.64 11.57L9.65 11.58ZM9.74 11.23L9.99 11.32V11.28L9.9 11.25L9.94 11.14C9.94 11.14 9.96 11.07 9.94 11.04C9.93 11.02 9.9 11 9.87 11.01C9.84 11.01 9.82 11.03 9.8 11.06C9.78 11.1 9.77 11.13 9.76 11.17L9.74 11.24V11.23ZM9.79 11.2L9.83 11.09C9.83 11.09 9.85 11.05 9.87 11.04C9.89 11.04 9.91 11.05 9.91 11.07C9.91 11.11 9.9 11.14 9.89 11.17L9.87 11.23L9.79 11.2ZM9.88 10.91L10.02 10.99C10.02 10.99 10.08 11.01 10.11 10.99C10.15 10.97 10.17 10.93 10.19 10.89C10.2 10.86 10.22 10.82 10.19 10.79C10.17 10.76 10.13 10.74 10.1 10.72L10.01 10.67L9.99 10.7L10.13 10.78C10.13 10.78 10.17 10.82 10.17 10.84C10.17 10.87 10.15 10.9 10.13 10.92C10.12 10.94 10.09 10.96 10.06 10.95C10.03 10.95 10.01 10.93 9.99 10.91L9.9 10.86L9.88 10.89V10.91ZM10.07 10.59L10.28 10.75L10.38 10.62C10.38 10.62 10.42 10.56 10.4 10.52C10.39 10.49 10.36 10.47 10.33 10.47C10.32 10.47 10.3 10.47 10.29 10.48C10.29 10.45 10.27 10.43 10.25 10.42C10.22 10.41 10.19 10.42 10.17 10.45C10.15 10.48 10.13 10.51 10.1 10.53L10.07 10.57V10.59ZM10.12 10.59L10.19 10.5C10.19 10.5 10.22 10.47 10.24 10.48C10.26 10.48 10.26 10.51 10.25 10.52C10.24 10.55 10.22 10.57 10.2 10.59L10.17 10.63L10.11 10.59H10.12ZM10.21 10.65L10.29 10.55C10.29 10.55 10.32 10.52 10.34 10.52C10.36 10.52 10.37 10.54 10.37 10.56C10.36 10.59 10.33 10.62 10.31 10.65L10.28 10.69L10.21 10.64V10.65ZM10.31 10.31L10.49 10.5L10.65 10.35L10.62 10.32L10.5 10.44L10.35 10.28L10.32 10.31H10.31ZM10.54 10.11L10.7 10.32L10.73 10.3L10.57 10.09L10.54 10.11ZM10.78 9.95C10.78 9.95 10.73 9.99 10.72 10.01C10.71 10.03 10.7 10.06 10.69 10.08C10.68 10.1 10.69 10.13 10.71 10.15C10.72 10.17 10.74 10.19 10.76 10.2C10.78 10.21 10.81 10.22 10.83 10.21C10.85 10.2 10.88 10.2 10.92 10.18C10.95 10.16 10.97 10.14 10.99 10.11C11 10.09 11.01 10.06 11 10.03H10.96C10.96 10.1 10.94 10.12 10.9 10.15C10.84 10.19 10.78 10.18 10.75 10.13C10.71 10.07 10.75 10.02 10.8 9.98C10.84 9.96 10.87 9.94 10.91 9.96L10.94 9.93C10.94 9.93 10.9 9.91 10.87 9.91C10.84 9.91 10.82 9.92 10.79 9.94L10.78 9.95ZM11.09 9.79L11.06 10.09L11.1 10.07V9.98L11.23 9.93L11.3 9.99L11.34 9.97L11.11 9.77L11.07 9.79H11.09ZM11.13 9.82L11.22 9.9L11.12 9.94V9.82H11.13ZM11.67 9.63L11.69 9.89H11.83C11.83 9.89 11.91 9.87 11.93 9.84C11.96 9.8 11.97 9.75 11.95 9.7C11.94 9.66 11.9 9.63 11.86 9.62C11.82 9.62 11.78 9.62 11.74 9.62H11.66L11.67 9.63ZM11.72 9.66H11.83C11.83 9.66 11.87 9.66 11.89 9.67C11.92 9.69 11.93 9.72 11.93 9.75C11.93 9.79 11.9 9.82 11.87 9.83C11.85 9.83 11.83 9.83 11.81 9.83H11.74L11.73 9.65L11.72 9.66ZM12.04 9.61L12.02 9.88H12.28V9.86H12.06V9.77H12.26V9.74H12.06V9.66H12.27V9.63H12.02V9.62L12.04 9.61ZM12.74 9.72L12.64 9.97H12.67L12.75 9.79L12.84 10.05L12.88 10.07L12.98 9.82H12.95L12.87 10L12.78 9.74L12.74 9.72ZM13.09 9.87L12.97 10.11L12.93 10.09L13.05 9.85L13.09 9.87ZM13.29 9.99C13.29 9.99 13.24 9.96 13.21 9.96C13.18 9.96 13.16 9.96 13.14 9.96C13.12 9.96 13.1 9.98 13.08 10.01C13.07 10.03 13.06 10.05 13.06 10.08C13.06 10.1 13.06 10.13 13.08 10.15C13.1 10.17 13.12 10.19 13.15 10.21C13.18 10.23 13.21 10.24 13.24 10.24C13.27 10.24 13.29 10.24 13.32 10.22L13.29 10.19C13.29 10.19 13.21 10.2 13.17 10.18C13.11 10.14 13.09 10.09 13.12 10.03C13.16 9.97 13.22 9.99 13.28 10.02C13.32 10.04 13.34 10.07 13.34 10.11L13.38 10.13C13.38 10.13 13.38 10.08 13.37 10.06C13.36 10.04 13.34 10.01 13.31 10L13.29 9.99ZM13.55 10.18L13.27 10.29L13.3 10.32L13.39 10.29L13.5 10.39L13.48 10.48L13.51 10.51L13.58 10.22L13.55 10.19V10.18ZM13.54 10.23L13.51 10.34L13.43 10.27L13.54 10.23ZM13.75 10.37L13.55 10.54L13.57 10.57L13.65 10.5L13.73 10.6L13.7 10.73L13.73 10.77L13.76 10.63C13.76 10.63 13.82 10.66 13.84 10.64C13.86 10.63 13.88 10.61 13.89 10.58C13.89 10.54 13.87 10.51 13.85 10.49L13.75 10.37ZM13.74 10.42L13.83 10.53C13.83 10.53 13.86 10.58 13.84 10.6C13.83 10.62 13.8 10.62 13.79 10.6C13.76 10.58 13.74 10.54 13.71 10.52L13.68 10.48L13.75 10.43L13.74 10.42ZM14.06 10.79H13.76L13.78 10.84H13.87L13.94 10.97L13.89 11.05L13.91 11.09L14.07 10.84L14.05 10.8L14.06 10.79ZM14.03 10.83L13.97 10.93L13.92 10.84H14.04L14.03 10.83ZM14.23 11.14C14.23 11.14 14.19 11.05 14.14 11.03C14.09 11.01 14.03 11.02 13.99 11.06C13.96 11.1 13.96 11.15 13.97 11.19C13.97 11.24 14 11.29 14.04 11.33H14.02L14.03 11.37L14.15 11.33L14.1 11.2H14.07L14.11 11.31L14.07 11.33C14.07 11.33 14.01 11.25 14 11.2C14 11.16 14 11.12 14.02 11.09C14.05 11.06 14.11 11.05 14.14 11.08C14.18 11.11 14.2 11.15 14.21 11.19C14.21 11.22 14.21 11.25 14.19 11.27C14.19 11.27 14.19 11.28 14.19 11.29V11.31C14.19 11.31 14.24 11.26 14.24 11.24C14.24 11.21 14.24 11.18 14.23 11.16V11.14ZM14.3 11.35L14.15 11.38C14.15 11.38 14.1 11.39 14.09 11.41C14.08 11.43 14.07 11.44 14.06 11.46C14.06 11.48 14.06 11.51 14.06 11.54C14.06 11.57 14.08 11.6 14.09 11.62C14.1 11.64 14.12 11.65 14.13 11.66C14.14 11.67 14.17 11.66 14.2 11.66L14.35 11.63V11.59L14.2 11.62C14.13 11.63 14.11 11.6 14.1 11.54C14.09 11.48 14.1 11.44 14.16 11.43L14.3 11.4V11.36V11.35ZM14.39 11.8L14.12 11.68V11.72L14.21 11.76L14.22 11.9L14.14 11.95V11.99L14.4 11.83V11.79L14.39 11.8ZM14.35 11.83L14.25 11.89V11.78L14.35 11.83ZM9.82 12.49H9.78L9.82 12.66H9.86L9.82 12.49ZM14.18 12.49H14.22L14.18 12.66H14.14L14.18 12.49ZM10.23 13.17L9.93 13.2L9.95 13.24H10.04V13.23L10.12 13.35L10.08 13.43L10.1 13.47L10.24 13.21L10.22 13.17H10.23ZM10.2 13.21L10.14 13.31L10.08 13.22H10.2V13.21ZM10.34 13.33L10.15 13.51L10.18 13.54L10.34 13.39L10.26 13.62L10.29 13.65L10.52 13.58L10.36 13.73L10.39 13.76L10.58 13.58L10.54 13.54L10.31 13.61L10.4 13.39L10.36 13.34L10.34 13.33ZM10.62 13.61L10.46 13.82L10.67 13.98L10.69 13.95L10.51 13.82L10.56 13.76L10.72 13.88L10.74 13.85L10.58 13.73L10.62 13.67L10.79 13.8L10.81 13.77L10.61 13.62L10.62 13.61ZM10.88 13.8L10.75 14.03L10.78 14.05L10.83 13.96L10.94 14.02L10.97 14.15L11.01 14.17L10.98 14.03C10.98 14.03 11.04 14.03 11.06 14.01C11.08 13.99 11.09 13.97 11.08 13.94C11.08 13.91 11.04 13.89 11.01 13.87L10.87 13.79L10.88 13.8ZM10.89 13.85L11.01 13.92C11.01 13.92 11.05 13.95 11.05 13.97C11.05 13.99 11.02 14 11 14C10.96 14 10.93 13.97 10.89 13.95L10.84 13.92L10.88 13.84L10.89 13.85ZM11.18 13.96L11.08 14.21L11.12 14.23L11.22 13.98L11.18 13.96ZM11.42 14.04C11.42 14.04 11.36 14.03 11.33 14.03C11.3 14.03 11.28 14.03 11.26 14.05C11.24 14.07 11.23 14.08 11.22 14.11C11.22 14.13 11.22 14.16 11.22 14.18C11.22 14.2 11.24 14.23 11.26 14.24C11.28 14.25 11.31 14.27 11.34 14.28C11.37 14.29 11.41 14.29 11.43 14.28C11.46 14.28 11.48 14.26 11.5 14.24L11.47 14.22C11.47 14.22 11.39 14.25 11.35 14.24C11.28 14.22 11.25 14.17 11.27 14.11C11.29 14.04 11.36 14.04 11.42 14.06C11.46 14.07 11.5 14.09 11.5 14.13H11.54C11.54 14.13 11.53 14.09 11.51 14.07C11.49 14.05 11.47 14.04 11.43 14.02L11.42 14.04ZM11.68 14.1L11.51 14.34H11.55L11.6 14.27L11.74 14.29L11.77 14.38H11.81L11.71 14.1H11.67H11.68ZM11.7 14.14L11.74 14.25L11.63 14.23L11.7 14.13V14.14ZM12.3 14.1C12.3 14.1 12.24 14.12 12.22 14.13C12.2 14.14 12.18 14.16 12.17 14.19C12.16 14.22 12.16 14.24 12.17 14.26C12.17 14.28 12.19 14.31 12.2 14.32C12.22 14.34 12.24 14.35 12.26 14.36C12.28 14.36 12.32 14.36 12.35 14.36C12.39 14.36 12.41 14.34 12.44 14.32C12.46 14.3 12.47 14.28 12.48 14.25H12.44C12.43 14.3 12.39 14.31 12.34 14.32C12.27 14.33 12.22 14.31 12.2 14.25C12.19 14.18 12.24 14.15 12.3 14.13C12.34 14.13 12.38 14.13 12.4 14.15H12.44C12.44 14.15 12.41 14.1 12.38 14.09C12.35 14.09 12.32 14.09 12.29 14.09L12.3 14.1ZM12.48 14.07L12.56 14.32L12.81 14.25V14.21L12.59 14.27L12.57 14.19L12.76 14.13V14.09L12.56 14.15L12.54 14.08L12.74 14.02V13.98L12.49 14.05L12.48 14.07ZM12.77 13.98L12.88 14.22L12.91 14.2L12.82 14L13.08 14.12C13.08 14.12 13.09 14.12 13.1 14.12L13.13 14.1L13.02 13.86L12.99 13.88L13.08 14.08L12.82 13.96L12.78 13.98H12.77ZM13.06 13.84L13.08 13.87L13.17 13.81L13.29 14L13.32 13.98L13.2 13.79L13.3 13.73L13.28 13.7L13.05 13.85L13.06 13.84ZM13.33 13.66L13.51 13.86L13.54 13.83L13.47 13.75L13.56 13.66L13.7 13.68L13.74 13.65L13.6 13.63C13.6 13.63 13.63 13.57 13.6 13.55C13.59 13.53 13.57 13.51 13.54 13.51C13.5 13.51 13.48 13.54 13.45 13.56L13.33 13.67V13.66ZM13.38 13.66L13.48 13.57C13.48 13.57 13.52 13.54 13.55 13.55C13.57 13.56 13.57 13.59 13.55 13.6C13.53 13.63 13.5 13.66 13.47 13.68L13.43 13.71L13.37 13.65L13.38 13.66ZM13.64 13.35L13.76 13.62L13.79 13.59L13.75 13.51L13.84 13.4L13.93 13.42L13.96 13.39L13.67 13.33L13.64 13.36V13.35ZM13.68 13.36L13.79 13.38L13.72 13.46L13.67 13.35L13.68 13.36ZM13.75 13.2L13.97 13.34L14.09 13.16L14.06 13.14L13.97 13.28L13.78 13.16L13.76 13.19L13.75 13.2Z" fill="#C8A400"/>
<mask id="mask0_161_1778" style="mask-type:luminance" maskUnits="userSpaceOnUse" x="10" y="10" width="4" height="3">
<path d="M12 10.05L10.31 12.97H13.69L12 10.05Z" fill="white"/>
</mask>
<g mask="url(#mask0_161_1778)">
<path d="M12 10.05L11.16 11.5L10.75 12.21H13.24L12.85 11.53L12 10.05Z" fill="white"/>
<path opacity="0.62" d="M12 10.05L11.94 10.16L12 11.62L12.06 10.16L12 10.05Z" fill="#17C0EB" stroke="#17C0EB"/>
<path opacity="0.62" d="M13.49 11.13L13.37 11.1L12 11.61L13.41 11.22L13.49 11.13Z" fill="#17C0EB" stroke="#17C0EB"/>
<path d="M12.2 11.55L12.12 11.58L12.2 11.56V11.55Z" fill="white"/>
<path opacity="0.62" d="M12.92 12.88V12.76L12 11.62L12.81 12.84L12.92 12.89V12.88Z" fill="#17C0EB" stroke="#17C0EB"/>
<path opacity="0.62" d="M11.08 12.88L11.19 12.83L12 11.61L11.09 12.75V12.87L11.08 12.88Z" fill="#17C0EB" stroke="#17C0EB"/>
<path d="M11.88 11.79L11.93 11.72L11.88 11.78V11.79Z" fill="white"/>
<path opacity="0.62" d="M10.51 11.13L10.59 11.22L12 11.61L10.63 11.1L10.51 11.13Z" fill="#17C0EB" stroke="#17C0EB"/>
<path opacity="0.62" d="M12.22 10.06L12.14 10.16L12 11.61L12.27 10.17L12.22 10.05V10.06Z" fill="#17C0EB" stroke="#17C0EB"/>
<path d="M12.03 11.4V11.48L12.05 11.4H12.03Z" fill="white"/>
<path opacity="0.62" d="M13.54 11.34L13.42 11.3L11.99 11.62L13.44 11.43L13.54 11.35V11.34Z" fill="#17C0EB" stroke="#17C0EB"/>
<path d="M12.21 11.58L12.13 11.59H12.21V11.58Z" fill="white"/>
<path opacity="0.62" d="M12.74 13V12.87L12 11.61L12.63 12.93L12.74 13Z" fill="#17C0EB" stroke="#17C0EB"/>
<path opacity="0.62" d="M10.91 12.74L11.03 12.71L12 11.62L10.94 12.63L10.91 12.75V12.74Z" fill="#17C0EB" stroke="#17C0EB"/>
<path d="M11.85 11.77L11.9 11.71L11.84 11.77H11.85Z" fill="white"/>
<path opacity="0.62" d="M10.59 10.93L10.66 11.03L12 11.61L10.72 10.91H10.6L10.59 10.93Z" fill="#17C0EB" stroke="#17C0EB"/>
<path d="M11.81 11.52L11.89 11.56L11.82 11.52H11.81Z" fill="white"/>
<path opacity="0.62" d="M12.43 10.11L12.34 10.2L12 11.62L12.46 10.23L12.43 10.11Z" fill="#17C0EB" stroke="#17C0EB"/>
<path d="M12.06 11.41L12.04 11.49L12.07 11.41H12.06Z" fill="white"/>
<path opacity="0.62" d="M13.57 11.56L13.46 11.5L12 11.61H13.46L13.57 11.56Z" fill="#17C0EB" stroke="#17C0EB"/>
<path opacity="0.62" d="M12.54 13.09L12.56 12.97L12 11.62L12.44 13.01L12.54 13.09Z" fill="#17C0EB" stroke="#17C0EB"/>
<path d="M12.07 11.81L12.04 11.73L12.06 11.81H12.07Z" fill="white"/>
<path opacity="0.62" d="M10.76 12.58L10.88 12.56L11.99 11.61L10.8 12.46L10.75 12.58H10.76Z" fill="#17C0EB" stroke="#17C0EB"/>
<path d="M11.83 11.74L11.89 11.69L11.82 11.74H11.83Z" fill="white"/>
<path opacity="0.62" d="M10.7 10.74L10.75 10.85L11.99 11.61L10.82 10.74H10.7Z" fill="#17C0EB" stroke="#17C0EB"/>
<path opacity="0.62" d="M12.64 10.18L12.54 10.25L12 11.61L12.65 10.3V10.18H12.64Z" fill="#17C0EB" stroke="#17C0EB"/>
<path d="M12.09 11.42L12.06 11.5L12.1 11.43L12.09 11.42Z" fill="white"/>
<path opacity="0.62" d="M13.56 11.78L13.46 11.71L12 11.62L13.44 11.83L13.55 11.78H13.56Z" fill="#17C0EB" stroke="#17C0EB"/>
<path opacity="0.62" d="M12.33 13.15L12.37 13.03L12.01 11.62L12.25 13.06L12.33 13.15Z" fill="#17C0EB" stroke="#17C0EB"/>
<path d="M12.04 11.82L12.02 11.74V11.82H12.04Z" fill="white"/>
<path opacity="0.62" d="M10.64 12.4H10.77L12 11.62L10.7 12.3L10.64 12.41V12.4Z" fill="#17C0EB" stroke="#17C0EB"/>
<path opacity="0.62" d="M10.83 10.57L10.87 10.69L12 11.62L10.96 10.6L10.84 10.57H10.83Z" fill="#17C0EB" stroke="#17C0EB"/>
<path opacity="0.62" d="M12.83 10.28L12.72 10.34L12 11.61L12.83 10.41V10.28Z" fill="#17C0EB" stroke="#17C0EB"/>
<path d="M12.11 11.43L12.07 11.5L12.12 11.43H12.11Z" fill="white"/>
<path opacity="0.62" d="M13.52 11.99L13.43 11.9L12 11.61L13.4 12.02L13.52 11.99Z" fill="#17C0EB" stroke="#17C0EB"/>
<path opacity="0.62" d="M12.11 13.18L12.16 13.07L12 11.62L12.04 13.08L12.11 13.18Z" fill="#17C0EB" stroke="#17C0EB"/>
<path opacity="0.62" d="M10.55 12.2L10.67 12.22L12 11.62L10.62 12.11L10.54 12.21L10.55 12.2Z" fill="#17C0EB" stroke="#17C0EB"/>
<path opacity="0.62" d="M10.99 10.41L11.01 10.53L12 11.61L11.11 10.45L10.99 10.41Z" fill="#17C0EB" stroke="#17C0EB"/>
<path d="M11.86 11.45L11.92 11.51L11.87 11.44L11.86 11.45Z" fill="white"/>
<path opacity="0.62" d="M13.01 10.41L12.89 10.45L12 11.61L12.99 10.53L13.01 10.41Z" fill="#17C0EB" stroke="#17C0EB"/>
<path d="M12.14 11.45L12.09 11.51L12.15 11.45H12.14Z" fill="white"/>
<path opacity="0.62" d="M13.45 12.2L13.37 12.1L11.99 11.61L13.32 12.21L13.44 12.19L13.45 12.2Z" fill="#17C0EB" stroke="#17C0EB"/>
<path opacity="0.62" d="M11.89 13.18L11.96 13.08L12 11.62L11.84 13.07L11.89 13.18Z" fill="#17C0EB" stroke="#17C0EB"/>
<path opacity="0.62" d="M10.48 11.99L10.6 12.02L12 11.61L10.57 11.9L10.48 11.99Z" fill="#17C0EB" stroke="#17C0EB"/>
<path opacity="0.62" d="M11.17 10.28V10.41L12 11.61L11.28 10.34L11.17 10.28Z" fill="#17C0EB" stroke="#17C0EB"/>
<path d="M11.89 11.43L11.94 11.5L11.9 11.43H11.89Z" fill="white"/>
<path opacity="0.62" d="M13.17 10.57L13.05 10.6L12.01 11.62L13.14 10.69L13.18 10.57H13.17Z" fill="#17C0EB" stroke="#17C0EB"/>
<path d="M12.16 11.47L12.1 11.53L12.16 11.48V11.47Z" fill="white"/>
<path opacity="0.62" d="M13.36 12.4L13.3 12.29L12 11.61L13.23 12.39H13.36V12.4Z" fill="#17C0EB" stroke="#17C0EB"/>
<path opacity="0.62" d="M11.67 13.15L11.75 13.06L11.99 11.62L11.63 13.03L11.67 13.15Z" fill="#17C0EB" stroke="#17C0EB"/>
<path d="M11.96 11.82L11.97 11.74L11.95 11.82H11.96Z" fill="white"/>
<path opacity="0.62" d="M10.44 11.78L10.55 11.83L11.99 11.62L10.53 11.71L10.43 11.78H10.44Z" fill="#17C0EB" stroke="#17C0EB"/>
<path opacity="0.62" d="M11.36 10.18V10.3L12 11.61L11.46 10.25L11.36 10.18Z" fill="#17C0EB" stroke="#17C0EB"/>
<path d="M11.91 11.42L11.95 11.5L11.92 11.42H11.91Z" fill="white"/>
<path opacity="0.62" d="M13.3 10.74H13.18L12.01 11.62L13.25 10.86L13.3 10.75V10.74Z" fill="#17C0EB" stroke="#17C0EB"/>
<path d="M12.18 11.5L12.11 11.55L12.18 11.51V11.5Z" fill="white"/>
<path opacity="0.62" d="M13.24 12.58L13.19 12.46L12 11.61L13.11 12.56L13.23 12.58H13.24Z" fill="#17C0EB" stroke="#17C0EB"/>
<path d="M12.17 11.74L12.1 11.69L12.16 11.74H12.17Z" fill="white"/>
<path opacity="0.62" d="M11.46 13.09L11.56 13.01L12 11.62L11.44 12.97L11.46 13.09Z" fill="#17C0EB" stroke="#17C0EB"/>
<path d="M11.93 11.81L11.95 11.73L11.92 11.81H11.93Z" fill="white"/>
<path opacity="0.62" d="M10.43 11.56L10.54 11.63H12L10.54 11.5L10.43 11.56Z" fill="#17C0EB" stroke="#17C0EB"/>
<path opacity="0.62" d="M11.57 10.11L11.54 10.23L12 11.62L11.66 10.2L11.57 10.11Z" fill="#17C0EB" stroke="#17C0EB"/>
<path d="M11.94 11.41L11.97 11.49L11.95 11.41H11.94Z" fill="white"/>
<path opacity="0.62" d="M13.41 10.93H13.29L12.01 11.62L13.35 11.04L13.42 10.94L13.41 10.93Z" fill="#17C0EB" stroke="#17C0EB"/>
<path d="M12.19 11.52L12.12 11.56L12.2 11.53L12.19 11.52Z" fill="white"/>
<path opacity="0.62" d="M13.09 12.74L13.06 12.62L12 11.61L12.97 12.7L13.09 12.73V12.74Z" fill="#17C0EB" stroke="#17C0EB"/>
<path d="M12.15 11.77L12.09 11.71L12.14 11.77H12.15Z" fill="white"/>
<path opacity="0.62" d="M11.26 13L11.37 12.93L12 11.61L11.26 12.87V13Z" fill="#17C0EB" stroke="#17C0EB"/>
<path opacity="0.62" d="M10.46 11.34L10.56 11.42L12.01 11.61L10.58 11.29L10.46 11.33V11.34Z" fill="#17C0EB" stroke="#17C0EB"/>
<path d="M11.79 11.58L11.87 11.59L11.79 11.57V11.58Z" fill="white"/>
<path opacity="0.62" d="M11.78 10.06L11.73 10.18L12 11.62L11.86 10.17L11.78 10.07V10.06Z" fill="#17C0EB" stroke="#17C0EB"/>
<path d="M11.97 11.4L11.99 11.48V11.4H11.98H11.97Z" fill="white"/>
<path d="M12 11.09C11.72 11.09 11.44 11.19 11.23 11.38L10.84 12.05C10.83 12.12 10.82 12.2 10.82 12.27H10.95C10.95 11.69 11.42 11.23 11.99 11.23C12.56 11.23 13.03 11.7 13.03 12.27H13.16C13.16 12.2 13.16 12.12 13.14 12.05L12.75 11.38C12.54 11.2 12.26 11.09 11.98 11.09H12Z" fill="#FF0000"/>
<path d="M12 11.11C11.69 11.11 11.4 11.23 11.2 11.44L10.88 11.99C10.86 12.08 10.85 12.17 10.85 12.27H10.96C10.96 11.69 11.43 11.23 12 11.23C12.57 11.23 13.04 11.7 13.04 12.27H13.15C13.15 12.17 13.14 12.08 13.12 11.99L12.8 11.44C12.59 11.24 12.31 11.11 12 11.11Z" fill="#FF6600"/>
<path d="M12 11.14C11.66 11.14 11.36 11.29 11.15 11.52L10.92 11.92C10.88 12.03 10.86 12.15 10.86 12.28H10.95C10.95 11.7 11.42 11.24 11.99 11.24C12.56 11.24 13.03 11.71 13.03 12.28H13.12C13.12 12.16 13.1 12.04 13.06 11.92L12.83 11.52C12.62 11.29 12.32 11.14 11.98 11.14H12Z" fill="#FFFF00"/>
<path d="M12 11.16C11.61 11.16 11.27 11.36 11.07 11.66L11 11.79C10.93 11.94 10.89 12.11 10.89 12.28H10.96C10.96 11.7 11.43 11.24 12 11.24C12.57 11.24 13.04 11.71 13.04 12.28H13.11C13.11 12.11 13.07 11.94 13 11.79L12.92 11.66C12.72 11.36 12.38 11.17 11.99 11.17L12 11.16Z" fill="#00FF00"/>
<path d="M12 11.18C11.4 11.18 10.91 11.67 10.91 12.27H10.96C10.96 11.69 11.43 11.23 12 11.23C12.57 11.23 13.04 11.7 13.04 12.27H13.09C13.09 11.67 12.6 11.18 12 11.18Z" fill="#00CCFF"/>
<path d="M12 11.2C11.41 11.2 10.93 11.68 10.93 12.27H10.97C10.97 11.7 11.43 11.23 12.01 11.23C12.59 11.23 13.05 11.69 13.05 12.27H13.09C13.09 11.68 12.61 11.2 12.02 11.2H12Z" fill="#0000FF"/>
<path d="M12 11.22C11.42 11.22 10.95 11.69 10.95 12.27V12.29H10.97C10.97 12.29 10.97 12.28 10.97 12.27C10.97 11.7 11.43 11.24 12 11.24C12.57 11.24 13.03 11.7 13.03 12.27V12.29H13.05V12.27C13.05 11.69 12.58 11.22 12 11.22Z" fill="#800080"/>
<path d="M12.01 11.69C12.01 11.69 11.98 11.68 11.96 11.67C11.94 11.69 11.94 11.71 11.94 11.73C11.94 11.73 11.94 11.73 11.96 11.75C11.98 11.77 11.97 11.77 11.97 11.8C11.97 11.81 11.97 11.84 11.99 11.84C12 11.84 12.01 11.84 12.02 11.81C12.02 11.79 12.03 11.78 12.04 11.76C12.04 11.71 12.04 11.69 12.01 11.68V11.69Z" fill="#510000"/>
<path d="M11.92 11.56C11.92 11.56 11.88 11.59 11.87 11.57C11.87 11.57 11.87 11.55 11.87 11.53C11.88 11.5 11.9 11.48 11.93 11.47C11.99 11.43 12.03 11.44 12.06 11.5C12.09 11.55 12.12 11.6 12.12 11.64C12.12 11.65 12.12 11.68 12.12 11.69C12.08 11.73 12 11.65 11.95 11.66C11.93 11.66 11.91 11.68 11.9 11.66C11.89 11.66 11.9 11.63 11.9 11.63C11.92 11.62 11.94 11.57 11.94 11.55C11.94 11.54 11.94 11.55 11.93 11.55L11.92 11.56Z" fill="#FF0000"/>
<path d="M11.92 11.54C11.92 11.54 11.89 11.57 11.88 11.58C11.88 11.58 11.9 11.58 11.92 11.58C11.92 11.58 11.93 11.58 11.94 11.58C11.94 11.58 11.93 11.59 11.92 11.6C11.91 11.6 11.89 11.63 11.88 11.65C11.87 11.67 11.87 11.69 11.88 11.7C11.89 11.71 11.89 11.72 11.92 11.73C11.97 11.75 11.98 11.79 12.04 11.79C12.08 11.79 12.08 11.76 12.11 11.77C12.14 11.77 12.16 11.75 12.13 11.74C12.09 11.73 12.02 11.74 11.99 11.74C11.98 11.63 11.99 11.67 11.99 11.62C11.99 11.57 11.97 11.57 11.99 11.53C11.97 11.55 11.96 11.55 11.94 11.55L11.92 11.54Z" fill="url(#paint0_linear_161_1778)"/>
<path d="M12.02 11.46C12.02 11.46 12.02 11.47 12.02 11.48V11.51L12.03 11.53C12.03 11.53 12.04 11.54 12.05 11.55V11.58L12.06 11.55C12.06 11.55 12.06 11.54 12.06 11.53C12.06 11.53 12.06 11.51 12.05 11.51C12.05 11.51 12.04 11.49 12.03 11.49L12.02 11.46Z" fill="#FF2A2A"/>
<path d="M12.03 11.67C12.03 11.67 11.99 11.66 11.98 11.65C11.95 11.65 11.91 11.62 11.89 11.63C11.89 11.63 11.89 11.64 11.88 11.65C11.88 11.66 11.86 11.69 11.88 11.68C11.9 11.67 11.95 11.7 11.96 11.71C11.96 11.71 11.98 11.72 11.99 11.74C12 11.76 11.99 11.79 11.99 11.8C11.99 11.82 11.99 11.85 12.01 11.85C12.03 11.85 12.04 11.85 12.04 11.82C12.04 11.8 12.05 11.78 12.06 11.77C12.07 11.76 12.08 11.75 12.1 11.75C12.12 11.75 12.14 11.76 12.14 11.75C12.14 11.74 12.13 11.73 12.14 11.71C12.14 11.7 12.13 11.7 12.12 11.69C12.09 11.69 12.07 11.68 12.05 11.67H12.03Z" fill="url(#paint1_linear_161_1778)"/>
<path d="M11.96 11.71C11.96 11.71 11.9 11.67 11.88 11.68V11.66C11.88 11.66 11.88 11.64 11.89 11.63C11.91 11.61 11.95 11.65 11.97 11.65V11.71H11.96Z" fill="#910000"/>
<path d="M12.05 11.77C12.05 11.77 12.09 11.73 12.12 11.73C12.12 11.73 12.13 11.73 12.13 11.71C12.13 11.73 12.09 11.71 12.07 11.71C12.03 11.73 12.04 11.81 12.02 11.82C12.04 11.84 12.05 11.77 12.06 11.76L12.05 11.77Z" fill="#FF3A3A"/>
<path d="M10.76 12.2L10.5 12.66H13.52L13.26 12.2H10.77H10.76Z" fill="white"/>
<path d="M10.66 12.57C10.66 12.57 10.58 12.57 10.53 12.57V12.59L10.71 12.57C10.8 12.57 10.88 12.59 10.97 12.59H11.09C11.18 12.59 11.26 12.57 11.35 12.57C11.44 12.57 11.52 12.59 11.61 12.59H11.73C11.82 12.59 11.9 12.57 11.99 12.57C12.08 12.57 12.16 12.59 12.25 12.59H12.37C12.46 12.59 12.54 12.57 12.63 12.57C12.72 12.57 12.8 12.59 12.89 12.59H13.01C13.1 12.59 13.18 12.57 13.27 12.57C13.34 12.57 13.4 12.58 13.47 12.59V12.57H13.34C13.3 12.57 13.26 12.57 13.22 12.57C13.13 12.57 13.05 12.59 12.96 12.59C12.87 12.59 12.79 12.57 12.7 12.57C12.66 12.57 12.62 12.57 12.58 12.57C12.49 12.57 12.41 12.59 12.32 12.59C12.23 12.59 12.15 12.57 12.06 12.57C12.02 12.57 11.98 12.57 11.94 12.57C11.85 12.57 11.77 12.59 11.68 12.59C11.59 12.59 11.51 12.57 11.42 12.57C11.38 12.57 11.34 12.57 11.3 12.57C11.21 12.57 11.13 12.59 11.04 12.59C10.95 12.59 10.87 12.57 10.78 12.57C10.74 12.57 10.7 12.57 10.66 12.57Z" fill="url(#paint2_linear_161_1778)"/>
<path d="M10.66 12.54C10.66 12.54 10.58 12.54 10.53 12.54V12.56L10.71 12.54C10.8 12.54 10.88 12.56 10.97 12.56H11.09C11.18 12.56 11.26 12.54 11.35 12.54C11.44 12.54 11.52 12.56 11.61 12.56H11.73C11.82 12.56 11.9 12.54 11.99 12.54C12.08 12.54 12.16 12.56 12.25 12.56H12.37C12.46 12.56 12.54 12.54 12.63 12.54C12.72 12.54 12.8 12.56 12.89 12.56H13.01C13.1 12.56 13.18 12.54 13.27 12.54C13.34 12.54 13.4 12.55 13.47 12.56V12.54H13.34C13.3 12.54 13.26 12.54 13.22 12.54C13.13 12.54 13.05 12.56 12.96 12.56C12.87 12.56 12.79 12.54 12.7 12.54C12.66 12.54 12.62 12.54 12.58 12.54C12.49 12.54 12.41 12.56 12.32 12.56C12.23 12.56 12.15 12.54 12.06 12.54C12.02 12.54 11.98 12.54 11.94 12.54C11.85 12.54 11.77 12.56 11.68 12.56C11.59 12.56 11.51 12.54 11.42 12.54C11.38 12.54 11.34 12.54 11.3 12.54C11.21 12.54 11.13 12.56 11.04 12.56C10.95 12.56 10.87 12.54 10.78 12.54C10.74 12.54 10.7 12.54 10.66 12.54Z" fill="url(#paint3_linear_161_1778)"/>
<path d="M10.66 12.51C10.66 12.51 10.58 12.51 10.53 12.51V12.53L10.71 12.51C10.8 12.51 10.88 12.53 10.97 12.53H11.09C11.18 12.53 11.26 12.51 11.35 12.51C11.44 12.51 11.52 12.53 11.61 12.53H11.73C11.82 12.53 11.9 12.51 11.99 12.51C12.08 12.51 12.16 12.53 12.25 12.53H12.37C12.46 12.53 12.54 12.51 12.63 12.51C12.72 12.51 12.8 12.53 12.89 12.53H13.01C13.1 12.53 13.18 12.51 13.27 12.51C13.34 12.51 13.4 12.52 13.47 12.53V12.51H13.34C13.3 12.51 13.26 12.51 13.22 12.51C13.13 12.51 13.05 12.53 12.96 12.53C12.87 12.53 12.79 12.51 12.7 12.51C12.66 12.51 12.62 12.51 12.58 12.51C12.49 12.51 12.41 12.53 12.32 12.53C12.23 12.53 12.15 12.51 12.06 12.51C12.02 12.51 11.98 12.51 11.94 12.51C11.85 12.51 11.77 12.53 11.68 12.53C11.59 12.53 11.51 12.51 11.42 12.51C11.38 12.51 11.34 12.51 11.3 12.51C11.21 12.51 11.13 12.53 11.04 12.53C10.95 12.53 10.87 12.51 10.78 12.51C10.74 12.51 10.7 12.51 10.66 12.51Z" fill="url(#paint4_linear_161_1778)"/>
<path d="M10.66 12.48C10.66 12.48 10.58 12.48 10.53 12.48V12.5L10.71 12.48C10.8 12.48 10.88 12.5 10.97 12.5H11.09C11.18 12.5 11.26 12.48 11.35 12.48C11.44 12.48 11.52 12.5 11.61 12.5H11.73C11.82 12.5 11.9 12.48 11.99 12.48C12.08 12.48 12.16 12.5 12.25 12.5H12.37C12.46 12.5 12.54 12.48 12.63 12.48C12.72 12.48 12.8 12.5 12.89 12.5H13.01C13.1 12.5 13.18 12.48 13.27 12.48C13.34 12.48 13.4 12.49 13.47 12.5V12.48H13.34C13.3 12.48 13.26 12.48 13.22 12.48C13.13 12.48 13.05 12.5 12.96 12.5C12.87 12.5 12.79 12.48 12.7 12.48C12.66 12.48 12.62 12.48 12.58 12.48C12.49 12.48 12.41 12.5 12.32 12.5C12.23 12.5 12.15 12.48 12.06 12.48C12.02 12.48 11.98 12.48 11.94 12.48C11.85 12.48 11.77 12.5 11.68 12.5C11.59 12.5 11.51 12.48 11.42 12.48C11.38 12.48 11.34 12.48 11.3 12.48C11.21 12.48 11.13 12.5 11.04 12.5C10.95 12.5 10.87 12.48 10.78 12.48C10.74 12.48 10.7 12.48 10.66 12.48Z" fill="url(#paint5_linear_161_1778)"/>
<path d="M10.66 12.45C10.66 12.45 10.58 12.45 10.53 12.45V12.47L10.71 12.45C10.8 12.45 10.88 12.47 10.97 12.47H11.09C11.18 12.47 11.26 12.45 11.35 12.45C11.44 12.45 11.52 12.47 11.61 12.47H11.73C11.82 12.47 11.9 12.45 11.99 12.45C12.08 12.45 12.16 12.47 12.25 12.47H12.37C12.46 12.47 12.54 12.45 12.63 12.45C12.72 12.45 12.8 12.47 12.89 12.47H13.01C13.1 12.47 13.18 12.45 13.27 12.45C13.34 12.45 13.4 12.46 13.47 12.47V12.45H13.34C13.3 12.45 13.26 12.45 13.22 12.45C13.13 12.45 13.05 12.47 12.96 12.47C12.87 12.47 12.79 12.45 12.7 12.45C12.66 12.45 12.62 12.45 12.58 12.45C12.49 12.45 12.41 12.47 12.32 12.47C12.23 12.47 12.15 12.45 12.06 12.45C12.02 12.45 11.98 12.45 11.94 12.45C11.85 12.45 11.77 12.47 11.68 12.47C11.59 12.47 11.51 12.45 11.42 12.45C11.38 12.45 11.34 12.45 11.3 12.45C11.21 12.45 11.13 12.47 11.04 12.47C10.95 12.47 10.87 12.45 10.78 12.45C10.74 12.45 10.7 12.45 10.66 12.45Z" fill="url(#paint6_linear_161_1778)"/>
<path d="M10.66 12.42C10.66 12.42 10.58 12.42 10.53 12.42V12.44L10.71 12.42C10.8 12.42 10.88 12.44 10.97 12.44H11.09C11.18 12.44 11.26 12.42 11.35 12.42C11.44 12.42 11.52 12.44 11.61 12.44H11.73C11.82 12.44 11.9 12.42 11.99 12.42C12.08 12.42 12.16 12.44 12.25 12.44H12.37C12.46 12.44 12.54 12.42 12.63 12.42C12.72 12.42 12.8 12.44 12.89 12.44H13.01C13.1 12.44 13.18 12.42 13.27 12.42C13.34 12.42 13.4 12.43 13.47 12.44V12.42H13.34C13.3 12.42 13.26 12.42 13.22 12.42C13.13 12.42 13.05 12.44 12.96 12.44C12.87 12.44 12.79 12.42 12.7 12.42C12.66 12.42 12.62 12.42 12.58 12.42C12.49 12.42 12.41 12.44 12.32 12.44C12.23 12.44 12.15 12.42 12.06 12.42C12.02 12.42 11.98 12.42 11.94 12.42C11.85 12.42 11.77 12.44 11.68 12.44C11.59 12.44 11.51 12.42 11.42 12.42C11.38 12.42 11.34 12.42 11.3 12.42C11.21 12.42 11.13 12.44 11.04 12.44C10.95 12.44 10.87 12.42 10.78 12.42C10.74 12.42 10.7 12.42 10.66 12.42Z" fill="url(#paint7_linear_161_1778)"/>
<path d="M10.66 12.39C10.66 12.39 10.58 12.39 10.53 12.39V12.41L10.71 12.39C10.8 12.39 10.88 12.41 10.97 12.41H11.09C11.18 12.41 11.26 12.39 11.35 12.39C11.44 12.39 11.52 12.41 11.61 12.41H11.73C11.82 12.41 11.9 12.39 11.99 12.39C12.08 12.39 12.16 12.41 12.25 12.41H12.37C12.46 12.41 12.54 12.39 12.63 12.39C12.72 12.39 12.8 12.41 12.89 12.41H13.01C13.1 12.41 13.18 12.39 13.27 12.39C13.34 12.39 13.4 12.4 13.47 12.41V12.39H13.34C13.3 12.39 13.26 12.39 13.22 12.39C13.13 12.39 13.05 12.41 12.96 12.41C12.87 12.41 12.79 12.39 12.7 12.39C12.66 12.39 12.62 12.39 12.58 12.39C12.49 12.39 12.41 12.41 12.32 12.41C12.23 12.41 12.15 12.39 12.06 12.39C12.02 12.39 11.98 12.39 11.94 12.39C11.85 12.39 11.77 12.41 11.68 12.41C11.59 12.41 11.51 12.39 11.42 12.39C11.38 12.39 11.34 12.39 11.3 12.39C11.21 12.39 11.13 12.41 11.04 12.41C10.95 12.41 10.87 12.39 10.78 12.39C10.74 12.39 10.7 12.39 10.66 12.39Z" fill="url(#paint8_linear_161_1778)"/>
<path d="M10.66 12.36C10.66 12.36 10.58 12.36 10.53 12.36V12.38L10.71 12.36C10.8 12.36 10.88 12.38 10.97 12.38H11.09C11.18 12.38 11.26 12.36 11.35 12.36C11.44 12.36 11.52 12.38 11.61 12.38H11.73C11.82 12.38 11.9 12.36 11.99 12.36C12.08 12.36 12.16 12.38 12.25 12.38H12.37C12.46 12.38 12.54 12.36 12.63 12.36C12.72 12.36 12.8 12.38 12.89 12.38H13.01C13.1 12.38 13.18 12.36 13.27 12.36C13.34 12.36 13.4 12.37 13.47 12.38V12.36H13.34C13.3 12.36 13.26 12.36 13.22 12.36C13.13 12.36 13.05 12.38 12.96 12.38C12.87 12.38 12.79 12.36 12.7 12.36C12.66 12.36 12.62 12.36 12.58 12.36C12.49 12.36 12.41 12.38 12.32 12.38C12.23 12.38 12.15 12.36 12.06 12.36C12.02 12.36 11.98 12.36 11.94 12.36C11.85 12.36 11.77 12.38 11.68 12.38C11.59 12.38 11.51 12.36 11.42 12.36C11.38 12.36 11.34 12.36 11.3 12.36C11.21 12.36 11.13 12.38 11.04 12.38C10.95 12.38 10.87 12.36 10.78 12.36C10.74 12.36 10.7 12.36 10.66 12.36Z" fill="url(#paint9_linear_161_1778)"/>
<path d="M10.66 12.33C10.66 12.33 10.58 12.33 10.53 12.33V12.35L10.71 12.33C10.8 12.33 10.88 12.35 10.97 12.35H11.09C11.18 12.35 11.26 12.33 11.35 12.33C11.44 12.33 11.52 12.35 11.61 12.35H11.73C11.82 12.35 11.9 12.33 11.99 12.33C12.08 12.33 12.16 12.35 12.25 12.35H12.37C12.46 12.35 12.54 12.33 12.63 12.33C12.72 12.33 12.8 12.35 12.89 12.35H13.01C13.1 12.35 13.18 12.33 13.27 12.33C13.34 12.33 13.4 12.34 13.47 12.35V12.33H13.34C13.3 12.33 13.26 12.33 13.22 12.33C13.13 12.33 13.05 12.35 12.96 12.35C12.87 12.35 12.79 12.33 12.7 12.33C12.66 12.33 12.62 12.33 12.58 12.33C12.49 12.33 12.41 12.35 12.32 12.35C12.23 12.35 12.15 12.33 12.06 12.33C12.02 12.33 11.98 12.33 11.94 12.33C11.85 12.33 11.77 12.35 11.68 12.35C11.59 12.35 11.51 12.33 11.42 12.33C11.38 12.33 11.34 12.33 11.3 12.33C11.21 12.33 11.13 12.35 11.04 12.35C10.95 12.35 10.87 12.33 10.78 12.33C10.74 12.33 10.7 12.33 10.66 12.33Z" fill="url(#paint10_linear_161_1778)"/>
<path d="M10.76 12.2H13.25H10.77H10.76ZM10.75 12.21H13.25H10.76H10.75ZM10.75 12.22H13.27H10.76H10.75ZM10.74 12.23L13.28 12.24L10.76 12.23H10.74ZM10.73 12.25L13.29 12.26L10.75 12.25H10.73ZM10.72 12.27L13.3 12.28L10.74 12.27H10.72ZM10.71 12.29L13.31 12.3L10.72 12.29H10.71ZM10.7 12.31L13.32 12.32L10.71 12.31H10.7ZM10.87 12.33C10.96 12.35 10.97 12.33 10.97 12.33H10.87ZM13.03 12.33C13.03 12.33 13.03 12.35 13.13 12.33H13.03Z" fill="url(#paint11_linear_161_1778)"/>
<path d="M12.81 11.92L12.75 11.94C12.68 12.22 12.44 12.51 12.15 12.51H11.94V12.8H13.57L13.41 12.51C13.15 12.47 12.94 12.21 12.87 11.95C12.87 11.95 12.86 11.93 12.81 11.93V11.92Z" fill="url(#paint12_linear_161_1778)"/>
<path d="M12.81 11.93C12.81 11.93 12.78 11.93 12.77 11.93C12.73 12.07 12.65 12.21 12.55 12.32C12.44 12.43 12.31 12.5 12.16 12.5H11.96V12.76H13.58L13.43 12.49C13.31 12.47 13.19 12.41 13.1 12.31C12.99 12.2 12.92 12.06 12.88 11.92C12.88 11.92 12.86 11.92 12.84 11.92L12.81 11.93Z" fill="#97C924"/>
<path d="M12.81 11.93C12.81 11.93 12.81 11.93 12.82 11.93V12.22C12.82 12.28 12.8 12.33 12.77 12.39C12.76 12.43 12.74 12.42 12.71 12.47C12.66 12.49 12.63 12.49 12.57 12.5C12.5 12.51 12.35 12.52 12.28 12.5C12.38 12.47 12.46 12.41 12.54 12.34C12.56 12.32 12.58 12.3 12.6 12.28C12.63 12.24 12.66 12.2 12.68 12.16C12.68 12.14 12.7 12.13 12.71 12.11C12.72 12.08 12.73 12.06 12.74 12.03C12.74 12.03 12.74 12.01 12.74 12C12.74 11.98 12.75 11.96 12.76 11.95C12.76 11.95 12.76 11.95 12.78 11.95C12.78 11.95 12.79 11.95 12.81 11.95V11.93Z" fill="#EDE71F"/>
<path d="M12.79 11.97C12.78 12.13 12.73 12.32 12.61 12.44C12.57 12.48 12.51 12.51 12.46 12.5C12.64 12.35 12.75 12.13 12.79 11.97Z" fill="#C6CB24"/>
<path d="M12.65 12.25C12.62 12.32 12.52 12.43 12.42 12.52C12.39 12.52 12.37 12.52 12.35 12.52C12.42 12.52 12.57 12.39 12.66 12.25H12.65Z" fill="#9ECB34"/>
<path d="M12.41 11.92L12.35 11.94C12.28 12.22 12.04 12.51 11.75 12.51H11.54V12.8H13.17L13.01 12.51C12.75 12.47 12.54 12.21 12.47 11.95C12.47 11.95 12.46 11.93 12.41 11.93V11.92Z" fill="url(#paint13_linear_161_1778)"/>
<path d="M12.41 11.93C12.41 11.93 12.38 11.93 12.37 11.93C12.33 12.07 12.25 12.21 12.15 12.32C12.04 12.43 11.91 12.5 11.76 12.5H11.56V12.76H13.18L13.03 12.49C12.91 12.47 12.79 12.41 12.7 12.31C12.59 12.2 12.52 12.06 12.48 11.92C12.48 11.92 12.46 11.92 12.44 11.92L12.41 11.93Z" fill="#97C924"/>
<path d="M12.41 11.93C12.41 11.93 12.41 11.93 12.42 11.93V12.22C12.42 12.28 12.4 12.33 12.37 12.39C12.36 12.43 12.34 12.42 12.31 12.47C12.26 12.49 12.23 12.49 12.17 12.5C12.1 12.51 11.95 12.52 11.88 12.5C11.98 12.47 12.06 12.41 12.14 12.34C12.16 12.32 12.18 12.3 12.2 12.28C12.23 12.24 12.26 12.2 12.28 12.16C12.28 12.14 12.3 12.13 12.31 12.11C12.32 12.08 12.33 12.06 12.34 12.03C12.34 12.03 12.34 12.01 12.34 12C12.34 11.98 12.35 11.96 12.36 11.95C12.36 11.95 12.36 11.95 12.38 11.95C12.38 11.95 12.39 11.95 12.41 11.95V11.93Z" fill="#EDE71F"/>
<path d="M12.39 11.97C12.38 12.13 12.33 12.32 12.21 12.44C12.17 12.48 12.11 12.51 12.06 12.5C12.24 12.35 12.35 12.13 12.39 11.97Z" fill="#C6CB24"/>
<path d="M12.24 12.25C12.21 12.32 12.11 12.43 12.01 12.52C11.98 12.52 11.96 12.52 11.94 12.52C12.01 12.52 12.16 12.39 12.25 12.25H12.24Z" fill="#9ECB34"/>
<path d="M12.06 11.94C12.13 12.22 12.37 12.51 12.66 12.51H12.87V12.8H11.12V12.51H11.33C11.62 12.51 11.86 12.22 11.93 11.94C11.93 11.94 11.94 11.92 11.99 11.92C12.04 11.92 12.05 11.94 12.05 11.94H12.06Z" fill="url(#paint14_linear_161_1778)"/>
<path d="M12 11.93C12 11.93 12.03 11.93 12.04 11.93C12.08 12.07 12.16 12.21 12.26 12.32C12.37 12.43 12.5 12.5 12.65 12.5H12.85V12.76H11.13V12.5H11.33C11.48 12.5 11.61 12.43 11.72 12.32C11.83 12.21 11.9 12.07 11.94 11.93C11.94 11.93 11.96 11.93 11.98 11.93H12Z" fill="#97C924"/>
<path d="M11.98 11.93C11.98 11.93 11.97 11.93 11.96 11.93L11.94 11.98V12.01L11.9 12.09C11.9 12.11 11.88 12.12 11.87 12.14C11.85 12.18 11.82 12.22 11.79 12.26C11.77 12.28 11.75 12.3 11.73 12.32C11.66 12.4 11.57 12.45 11.47 12.48C11.54 12.5 11.58 12.48 11.64 12.47C11.69 12.47 11.75 12.46 11.8 12.44C11.84 12.39 11.82 12.41 11.84 12.36C11.87 12.3 11.92 12.25 11.93 12.18C11.97 12.1 11.98 11.95 11.98 11.91V11.93Z" fill="#EDE71F"/>
<path d="M11.98 11.97C11.97 12.13 11.92 12.32 11.8 12.44C11.76 12.48 11.7 12.51 11.65 12.5C11.83 12.35 11.94 12.13 11.98 11.97Z" fill="#C6CB24"/>
<path d="M11.84 12.25C11.81 12.32 11.71 12.43 11.61 12.52C11.58 12.52 11.56 12.52 11.54 12.52C11.61 12.52 11.76 12.39 11.85 12.25H11.84Z" fill="#9ECB34"/>
<path d="M12.03 11.94C12.03 11.94 12.04 11.94 12.05 11.94L12.07 11.99V12.02L12.11 12.1L12.14 12.15C12.14 12.15 12.19 12.23 12.22 12.27C12.24 12.29 12.26 12.31 12.28 12.33C12.35 12.41 12.44 12.47 12.54 12.5C12.35 12.5 12.26 12.48 12.19 12.39C12.12 12.3 12.09 12.26 12.08 12.21C12.07 12.16 12.03 12.04 12.03 11.92V11.94Z" fill="#EDE71F"/>
<path d="M12.04 11.97C12.05 12.13 12.1 12.29 12.21 12.41C12.25 12.45 12.31 12.48 12.36 12.47C12.17 12.34 12.07 12.13 12.04 11.97Z" fill="#C6CB24"/>
<path d="M11.6 11.92L11.54 11.94C11.47 12.2 11.23 12.53 10.97 12.57L10.84 12.79H12.14V12.49C11.91 12.43 11.72 12.18 11.66 11.94C11.66 11.94 11.65 11.92 11.6 11.92Z" fill="url(#paint15_linear_161_1778)"/>
<path d="M11.6 11.93C11.6 11.93 11.57 11.93 11.56 11.93C11.52 12.07 11.44 12.21 11.35 12.33C11.26 12.45 11.09 12.56 10.98 12.57L10.87 12.77H12.15V12.49C12.06 12.46 11.97 12.4 11.9 12.33C11.79 12.22 11.72 12.08 11.68 11.94C11.68 11.94 11.66 11.94 11.64 11.94L11.6 11.93Z" fill="#97C924"/>
<path d="M11.56 11.97C11.54 12.21 11.41 12.51 11.26 12.57C11.21 12.59 11.12 12.59 11.09 12.6C11.35 12.47 11.51 12.18 11.56 11.98V11.97Z" fill="#93BC30"/>
<path d="M11.6 11.93C11.6 11.93 11.6 11.93 11.59 11.93V12.22C11.59 12.28 11.61 12.33 11.64 12.39C11.64 12.39 11.64 12.39 11.64 12.4C11.65 12.43 11.66 12.44 11.7 12.47C11.83 12.57 12 12.59 12.09 12.58C12.06 12.56 12.03 12.53 12 12.51C12.05 12.51 12.09 12.51 12.12 12.5C12.02 12.47 11.94 12.41 11.86 12.34C11.85 12.33 11.83 12.31 11.82 12.3L11.8 12.28C11.8 12.28 11.74 12.2 11.72 12.16C11.72 12.14 11.7 12.13 11.69 12.11C11.67 12.08 11.66 12.04 11.65 12.01C11.65 11.99 11.64 11.97 11.63 11.96C11.63 11.96 11.63 11.96 11.61 11.96C11.61 11.96 11.59 11.96 11.58 11.96L11.6 11.93Z" fill="#EDE71F"/>
<path d="M11.61 11.97C11.62 12.13 11.67 12.32 11.79 12.44C11.83 12.48 11.89 12.51 11.94 12.5C11.76 12.35 11.65 12.13 11.61 11.97Z" fill="#CCD11E"/>
<path d="M11.72 12.19C11.78 12.34 11.94 12.49 12.11 12.59C12.14 12.59 12.15 12.59 12.18 12.59C12.06 12.53 11.87 12.44 11.73 12.19H11.72Z" fill="#9ECB34"/>
<path d="M11.19 11.92L11.13 11.94C11.06 12.2 10.82 12.53 10.56 12.57L10.43 12.79H11.73V12.49C11.5 12.43 11.31 12.18 11.25 11.94C11.25 11.94 11.24 11.92 11.19 11.92Z" fill="url(#paint16_linear_161_1778)"/>
<path d="M11.19 11.93C11.19 11.93 11.16 11.93 11.15 11.93C11.11 12.07 11.03 12.21 10.94 12.33C10.85 12.45 10.68 12.56 10.57 12.57L10.46 12.77H11.74V12.49C11.65 12.46 11.56 12.4 11.49 12.33C11.38 12.22 11.31 12.08 11.27 11.94C11.27 11.94 11.25 11.94 11.23 11.94L11.19 11.93Z" fill="#97C924"/>
<path d="M11.15 11.97C11.13 12.21 11 12.51 10.85 12.57C10.8 12.59 10.71 12.59 10.68 12.6C10.94 12.47 11.1 12.18 11.15 11.98V11.97Z" fill="#93BC30"/>
<path d="M11.19 11.93C11.19 11.93 11.19 11.93 11.18 11.93V12.22C11.18 12.28 11.2 12.33 11.23 12.39C11.23 12.39 11.23 12.39 11.23 12.4C11.24 12.43 11.25 12.44 11.29 12.47C11.42 12.57 11.59 12.59 11.68 12.58C11.65 12.56 11.62 12.53 11.59 12.51C11.64 12.51 11.68 12.51 11.71 12.5C11.61 12.47 11.53 12.41 11.45 12.34C11.44 12.33 11.42 12.31 11.41 12.3L11.39 12.28C11.39 12.28 11.33 12.2 11.31 12.16C11.31 12.14 11.29 12.13 11.28 12.11C11.26 12.08 11.25 12.04 11.24 12.01C11.24 11.99 11.23 11.97 11.22 11.96C11.22 11.96 11.22 11.96 11.2 11.96C11.2 11.96 11.18 11.96 11.17 11.96L11.19 11.93Z" fill="#EDE71F"/>
<path d="M11.2 11.97C11.21 12.13 11.26 12.32 11.38 12.44C11.42 12.48 11.48 12.51 11.53 12.5C11.35 12.35 11.24 12.13 11.2 11.97Z" fill="#C6CB24"/>
<path d="M11.31 12.19C11.37 12.34 11.53 12.49 11.7 12.59C11.73 12.59 11.74 12.59 11.77 12.59C11.65 12.53 11.46 12.44 11.32 12.19H11.31Z" fill="#9ECB34"/>
<path d="M13.5 12.66C13.5 12.66 13.38 12.66 13.33 12.66H13.3C13.3 12.66 13.24 12.66 13.21 12.66C13.11 12.66 13.03 12.69 12.94 12.69C12.85 12.69 12.77 12.66 12.67 12.66C12.64 12.66 12.61 12.66 12.58 12.66C12.48 12.66 12.4 12.69 12.31 12.69C12.22 12.69 12.14 12.66 12.04 12.66C12.01 12.66 11.98 12.66 11.95 12.66C11.85 12.66 11.77 12.69 11.68 12.69C11.59 12.69 11.51 12.66 11.41 12.66C11.41 12.66 11.4 12.66 11.39 12.66H11.38C11.38 12.66 11.38 12.66 11.37 12.66H11.35C11.25 12.66 11.17 12.68 11.08 12.68C10.99 12.68 10.91 12.65 10.81 12.65C10.81 12.65 10.8 12.65 10.79 12.65C10.79 12.65 10.79 12.65 10.78 12.65C10.78 12.65 10.78 12.65 10.77 12.65H10.75C10.67 12.65 10.58 12.67 10.51 12.67L10.34 12.96H12.01H13.72L13.53 12.64L13.5 12.66Z" fill="white"/>
<path d="M13.27 12.61H13.25C13.16 12.61 13.1 12.64 12.95 12.64C12.8 12.64 12.78 12.61 12.62 12.62C12.46 12.62 12.4 12.65 12.31 12.65C12.22 12.65 12.09 12.63 11.98 12.65C11.87 12.67 11.75 12.68 11.66 12.68C11.56 12.68 11.45 12.66 11.34 12.68C11.23 12.7 11.18 12.72 11.05 12.72C10.93 12.72 10.81 12.7 10.71 12.7C10.62 12.7 10.52 12.73 10.44 12.74L10.42 12.78C10.48 12.78 10.65 12.75 10.71 12.75C10.77 12.75 10.99 12.76 11.12 12.75C11.25 12.74 11.26 12.72 11.4 12.72C11.5 12.72 11.58 12.73 11.68 12.73C11.74 12.73 11.8 12.7 11.9 12.7H11.97C12.05 12.68 12.19 12.7 12.29 12.7C12.38 12.7 12.43 12.68 12.53 12.68H12.65C12.74 12.68 12.82 12.69 12.91 12.69C13 12.69 13.08 12.67 13.17 12.66H13.29C13.35 12.66 13.44 12.66 13.51 12.66L13.49 12.62C13.43 12.62 13.35 12.6 13.27 12.6V12.61Z" fill="url(#paint17_linear_161_1778)"/>
<path d="M10.68 12.92C10.59 12.92 10.51 12.94 10.42 12.95C10.39 12.95 10.36 12.95 10.33 12.95V12.97H10.36H10.48C10.57 12.97 10.65 12.95 10.74 12.94C10.83 12.94 10.9 12.97 11 12.97H11.12C11.21 12.97 11.29 12.95 11.38 12.94C11.47 12.94 11.55 12.97 11.64 12.97H11.76C11.85 12.97 11.93 12.95 12.02 12.94C12.11 12.94 12.18 12.97 12.28 12.97H12.4C12.49 12.97 12.57 12.95 12.66 12.94C12.75 12.94 12.82 12.97 12.92 12.97H13.04C13.13 12.97 13.21 12.95 13.3 12.94C13.39 12.94 13.46 12.97 13.56 12.97H13.73L13.72 12.95H13.63C13.54 12.95 13.47 12.93 13.37 12.93C13.33 12.93 13.29 12.93 13.25 12.93C13.16 12.93 13.08 12.95 12.99 12.96C12.9 12.96 12.83 12.93 12.73 12.93C12.69 12.93 12.65 12.93 12.61 12.93C12.52 12.93 12.44 12.95 12.35 12.96C12.26 12.96 12.19 12.93 12.09 12.93C12.05 12.93 12.01 12.93 11.97 12.93C11.88 12.93 11.8 12.95 11.71 12.96C11.62 12.96 11.55 12.93 11.45 12.93C11.41 12.93 11.37 12.93 11.33 12.93C11.24 12.93 11.16 12.95 11.07 12.96C10.98 12.96 10.91 12.93 10.81 12.93C10.77 12.93 10.73 12.93 10.69 12.93L10.68 12.92Z" fill="url(#paint18_linear_161_1778)"/>
<path d="M10.68 12.89C10.59 12.89 10.51 12.91 10.42 12.92C10.39 12.92 10.36 12.92 10.33 12.92V12.94H10.36H10.48C10.57 12.94 10.65 12.92 10.74 12.91C10.83 12.91 10.9 12.94 11 12.94H11.12C11.21 12.94 11.29 12.92 11.38 12.91C11.47 12.91 11.55 12.94 11.64 12.94H11.76C11.85 12.94 11.93 12.92 12.02 12.91C12.11 12.91 12.18 12.94 12.28 12.94H12.4C12.49 12.94 12.57 12.92 12.66 12.91C12.75 12.91 12.82 12.94 12.92 12.94H13.04C13.13 12.94 13.21 12.92 13.3 12.91C13.39 12.91 13.46 12.94 13.56 12.94H13.73L13.72 12.92H13.63C13.54 12.92 13.47 12.9 13.37 12.9C13.33 12.9 13.29 12.9 13.25 12.9C13.16 12.9 13.08 12.92 12.99 12.93C12.9 12.93 12.83 12.9 12.73 12.9C12.69 12.9 12.65 12.9 12.61 12.9C12.52 12.9 12.44 12.92 12.35 12.93C12.26 12.93 12.19 12.9 12.09 12.9C12.05 12.9 12.01 12.9 11.97 12.9C11.88 12.9 11.8 12.92 11.71 12.93C11.62 12.93 11.55 12.9 11.45 12.9C11.41 12.9 11.37 12.9 11.33 12.9C11.24 12.9 11.16 12.92 11.07 12.93C10.98 12.93 10.91 12.9 10.81 12.9C10.77 12.9 10.73 12.9 10.69 12.9L10.68 12.89Z" fill="url(#paint19_linear_161_1778)"/>
<path d="M10.68 12.85C10.59 12.85 10.51 12.87 10.42 12.88C10.39 12.88 10.36 12.88 10.33 12.88V12.9H10.36H10.48C10.57 12.9 10.65 12.88 10.74 12.87C10.83 12.87 10.9 12.9 11 12.9H11.12C11.21 12.9 11.29 12.88 11.38 12.87C11.47 12.87 11.55 12.9 11.64 12.9H11.76C11.85 12.9 11.93 12.88 12.02 12.87C12.11 12.87 12.18 12.9 12.28 12.9H12.4C12.49 12.9 12.57 12.88 12.66 12.87C12.75 12.87 12.82 12.9 12.92 12.9H13.04C13.13 12.9 13.21 12.88 13.3 12.87C13.39 12.87 13.46 12.9 13.56 12.9H13.73L13.72 12.88H13.63C13.54 12.88 13.47 12.86 13.37 12.86C13.33 12.86 13.29 12.86 13.25 12.86C13.16 12.86 13.08 12.88 12.99 12.89C12.9 12.89 12.83 12.86 12.73 12.86C12.69 12.86 12.65 12.86 12.61 12.86C12.52 12.86 12.44 12.88 12.35 12.89C12.26 12.89 12.19 12.86 12.09 12.86C12.05 12.86 12.01 12.86 11.97 12.86C11.88 12.86 11.8 12.88 11.71 12.89C11.62 12.89 11.55 12.86 11.45 12.86C11.41 12.86 11.37 12.86 11.33 12.86C11.24 12.86 11.16 12.88 11.07 12.89C10.98 12.89 10.91 12.86 10.81 12.86C10.77 12.86 10.73 12.86 10.69 12.86L10.68 12.85Z" fill="url(#paint20_linear_161_1778)"/>
<path d="M10.68 12.82C10.59 12.82 10.51 12.84 10.42 12.85C10.39 12.85 10.36 12.85 10.33 12.85V12.87H10.36H10.48C10.57 12.87 10.65 12.85 10.74 12.84C10.83 12.84 10.9 12.87 11 12.87H11.12C11.21 12.87 11.29 12.85 11.38 12.84C11.47 12.84 11.55 12.87 11.64 12.87H11.76C11.85 12.87 11.93 12.85 12.02 12.84C12.11 12.84 12.18 12.87 12.28 12.87H12.4C12.49 12.87 12.57 12.85 12.66 12.84C12.75 12.84 12.82 12.87 12.92 12.87H13.04C13.13 12.87 13.21 12.85 13.3 12.84C13.39 12.84 13.46 12.87 13.56 12.87H13.73L13.72 12.85H13.63C13.54 12.85 13.47 12.83 13.37 12.83C13.33 12.83 13.29 12.83 13.25 12.83C13.16 12.83 13.08 12.85 12.99 12.86C12.9 12.86 12.83 12.83 12.73 12.83C12.69 12.83 12.65 12.83 12.61 12.83C12.52 12.83 12.44 12.85 12.35 12.86C12.26 12.86 12.19 12.83 12.09 12.83C12.05 12.83 12.01 12.83 11.97 12.83C11.88 12.83 11.8 12.85 11.71 12.86C11.62 12.86 11.55 12.83 11.45 12.83C11.41 12.83 11.37 12.83 11.33 12.83C11.24 12.83 11.16 12.85 11.07 12.86C10.98 12.86 10.91 12.83 10.81 12.83C10.77 12.83 10.73 12.83 10.69 12.83L10.68 12.82Z" fill="url(#paint21_linear_161_1778)"/>
<path d="M10.68 12.79C10.59 12.79 10.51 12.81 10.42 12.82C10.39 12.82 10.36 12.82 10.33 12.82V12.84H10.36H10.48C10.57 12.84 10.65 12.82 10.74 12.81C10.83 12.81 10.9 12.84 11 12.84H11.12C11.21 12.84 11.29 12.82 11.38 12.81C11.47 12.81 11.55 12.84 11.64 12.84H11.76C11.85 12.84 11.93 12.82 12.02 12.81C12.11 12.81 12.18 12.84 12.28 12.84H12.4C12.49 12.84 12.57 12.82 12.66 12.81C12.75 12.81 12.82 12.84 12.92 12.84H13.04C13.13 12.84 13.21 12.82 13.3 12.81C13.39 12.81 13.46 12.84 13.56 12.84H13.73L13.72 12.82H13.63C13.54 12.82 13.47 12.8 13.37 12.8C13.33 12.8 13.29 12.8 13.25 12.8C13.16 12.8 13.08 12.82 12.99 12.83C12.9 12.83 12.83 12.8 12.73 12.8C12.69 12.8 12.65 12.8 12.61 12.8C12.52 12.8 12.44 12.82 12.35 12.83C12.26 12.83 12.19 12.8 12.09 12.8C12.05 12.8 12.01 12.8 11.97 12.8C11.88 12.8 11.8 12.82 11.71 12.83C11.62 12.83 11.55 12.8 11.45 12.8C11.41 12.8 11.37 12.8 11.33 12.8C11.24 12.8 11.16 12.82 11.07 12.83C10.98 12.83 10.91 12.8 10.81 12.8C10.77 12.8 10.73 12.8 10.69 12.8L10.68 12.79Z" fill="url(#paint22_linear_161_1778)"/>
<path d="M10.68 12.75C10.59 12.75 10.51 12.77 10.42 12.78C10.39 12.78 10.36 12.78 10.33 12.78V12.8H10.36H10.48C10.57 12.8 10.65 12.78 10.74 12.77C10.83 12.77 10.9 12.8 11 12.8H11.12C11.21 12.8 11.29 12.78 11.38 12.77C11.47 12.77 11.55 12.8 11.64 12.8H11.76C11.85 12.8 11.93 12.78 12.02 12.77C12.11 12.77 12.18 12.8 12.28 12.8H12.4C12.49 12.8 12.57 12.78 12.66 12.77C12.75 12.77 12.82 12.8 12.92 12.8H13.04C13.13 12.8 13.21 12.78 13.3 12.77C13.39 12.77 13.46 12.8 13.56 12.8H13.73L13.72 12.78H13.63C13.54 12.78 13.47 12.76 13.37 12.76C13.33 12.76 13.29 12.76 13.25 12.76C13.16 12.76 13.08 12.78 12.99 12.79C12.9 12.79 12.83 12.76 12.73 12.76C12.69 12.76 12.65 12.76 12.61 12.76C12.52 12.76 12.44 12.78 12.35 12.79C12.26 12.79 12.19 12.76 12.09 12.76C12.05 12.76 12.01 12.76 11.97 12.76C11.88 12.76 11.8 12.78 11.71 12.79C11.62 12.79 11.55 12.76 11.45 12.76C11.41 12.76 11.37 12.76 11.33 12.76C11.24 12.76 11.16 12.78 11.07 12.79C10.98 12.79 10.91 12.76 10.81 12.76C10.77 12.76 10.73 12.76 10.69 12.76L10.68 12.75Z" fill="url(#paint23_linear_161_1778)"/>
<path d="M10.68 12.72C10.59 12.72 10.51 12.74 10.42 12.75C10.39 12.75 10.36 12.75 10.33 12.75V12.77H10.36H10.48C10.57 12.77 10.65 12.75 10.74 12.74C10.83 12.74 10.9 12.77 11 12.77H11.12C11.21 12.77 11.29 12.75 11.38 12.74C11.47 12.74 11.55 12.77 11.64 12.77H11.76C11.85 12.77 11.93 12.75 12.02 12.74C12.11 12.74 12.18 12.77 12.28 12.77H12.4C12.49 12.77 12.57 12.75 12.66 12.74C12.75 12.74 12.82 12.77 12.92 12.77H13.04C13.13 12.77 13.21 12.75 13.3 12.74C13.39 12.74 13.46 12.77 13.56 12.77H13.73L13.72 12.75H13.63C13.54 12.75 13.47 12.73 13.37 12.73C13.33 12.73 13.29 12.73 13.25 12.73C13.16 12.73 13.08 12.75 12.99 12.76C12.9 12.76 12.83 12.73 12.73 12.73C12.69 12.73 12.65 12.73 12.61 12.73C12.52 12.73 12.44 12.75 12.35 12.76C12.26 12.76 12.19 12.73 12.09 12.73C12.05 12.73 12.01 12.73 11.97 12.73C11.88 12.73 11.8 12.75 11.71 12.76C11.62 12.76 11.55 12.73 11.45 12.73C11.41 12.73 11.37 12.73 11.33 12.73C11.24 12.73 11.16 12.75 11.07 12.76C10.98 12.76 10.91 12.73 10.81 12.73C10.77 12.73 10.73 12.73 10.69 12.73L10.68 12.72Z" fill="url(#paint24_linear_161_1778)"/>
<path d="M10.68 12.68C10.59 12.68 10.51 12.7 10.42 12.71C10.39 12.71 10.36 12.71 10.33 12.71V12.73H10.36H10.48C10.57 12.73 10.65 12.71 10.74 12.7C10.83 12.7 10.9 12.73 11 12.73H11.12C11.21 12.73 11.29 12.71 11.38 12.7C11.47 12.7 11.55 12.73 11.64 12.73H11.76C11.85 12.73 11.93 12.71 12.02 12.7C12.11 12.7 12.18 12.73 12.28 12.73H12.4C12.49 12.73 12.57 12.71 12.66 12.7C12.75 12.7 12.82 12.73 12.92 12.73H13.04C13.13 12.73 13.21 12.71 13.3 12.7C13.39 12.7 13.46 12.73 13.56 12.73H13.73L13.72 12.71H13.63C13.54 12.71 13.47 12.69 13.37 12.69C13.33 12.69 13.29 12.69 13.25 12.69C13.16 12.69 13.08 12.71 12.99 12.72C12.9 12.72 12.83 12.69 12.73 12.69C12.69 12.69 12.65 12.69 12.61 12.69C12.52 12.69 12.44 12.71 12.35 12.72C12.26 12.72 12.19 12.69 12.09 12.69C12.05 12.69 12.01 12.69 11.97 12.69C11.88 12.69 11.8 12.71 11.71 12.72C11.62 12.72 11.55 12.69 11.45 12.69C11.41 12.69 11.37 12.69 11.33 12.69C11.24 12.69 11.16 12.71 11.07 12.72C10.98 12.72 10.91 12.69 10.81 12.69C10.77 12.69 10.73 12.69 10.69 12.69L10.68 12.68Z" fill="url(#paint25_linear_161_1778)"/>
<path d="M10.68 12.65C10.59 12.65 10.51 12.67 10.42 12.68C10.39 12.68 10.36 12.68 10.33 12.68V12.7H10.36H10.48C10.57 12.7 10.65 12.68 10.74 12.67C10.83 12.67 10.9 12.7 11 12.7H11.12C11.21 12.7 11.29 12.68 11.38 12.67C11.47 12.67 11.55 12.7 11.64 12.7H11.76C11.85 12.7 11.93 12.68 12.02 12.67C12.11 12.67 12.18 12.7 12.28 12.7H12.4C12.49 12.7 12.57 12.68 12.66 12.67C12.75 12.67 12.82 12.7 12.92 12.7H13.04C13.13 12.7 13.21 12.68 13.3 12.67C13.39 12.67 13.46 12.7 13.56 12.7H13.73L13.72 12.68H13.63C13.54 12.68 13.47 12.66 13.37 12.66C13.33 12.66 13.29 12.66 13.25 12.66C13.16 12.66 13.08 12.68 12.99 12.69C12.9 12.69 12.83 12.66 12.73 12.66C12.69 12.66 12.65 12.66 12.61 12.66C12.52 12.66 12.44 12.68 12.35 12.69C12.26 12.69 12.19 12.66 12.09 12.66C12.05 12.66 12.01 12.66 11.97 12.66C11.88 12.66 11.8 12.68 11.71 12.69C11.62 12.69 11.55 12.66 11.45 12.66C11.41 12.66 11.37 12.66 11.33 12.66C11.24 12.66 11.16 12.68 11.07 12.69C10.98 12.69 10.91 12.66 10.81 12.66C10.77 12.66 10.73 12.66 10.69 12.66L10.68 12.65Z" fill="url(#paint26_linear_161_1778)"/>
<path d="M10.51 12.66L10.45 12.77C10.53 12.76 10.64 12.72 10.73 12.72C10.83 12.72 10.94 12.74 11.06 12.74C11.19 12.74 11.25 12.71 11.35 12.7C11.45 12.69 11.56 12.71 11.67 12.71C11.75 12.71 11.88 12.68 11.99 12.67C12.1 12.66 12.2 12.67 12.32 12.67C12.44 12.67 12.47 12.64 12.63 12.64C12.8 12.64 12.81 12.66 12.96 12.66C13.07 12.66 13.17 12.64 13.27 12.63C13.37 12.62 13.42 12.63 13.49 12.63L13.44 12.54L10.75 12.6L10.51 12.63V12.66Z" fill="#97C924"/>
<path d="M13.33 12.65H13.43C13.43 12.65 13.48 12.66 13.51 12.66C13.51 12.66 13.39 12.64 13.34 12.65H13.33Z" fill="white"/>
</g>
<path d="M12 10.01L11.15 11.49L10.28 13H11.99H13.73L12.88 11.52L12.01 10.01H12ZM12 10.09L12.84 11.54L13.66 12.96H11.98H10.34L11.18 11.51L12 10.09Z" fill="#C8A400"/>
<defs>
<linearGradient id="paint0_linear_161_1778" x1="11.99" y1="11.72" x2="12.04" y2="11.57" gradientUnits="userSpaceOnUse">
<stop stop-color="#510000"/>
<stop offset="0.3" stop-color="#8A0000"/>
<stop offset="1" stop-color="#AA0000"/>
</linearGradient>
<linearGradient id="paint1_linear_161_1778" x1="11.98" y1="11.75" x2="12.02" y2="11.65" gradientUnits="userSpaceOnUse">
<stop stop-color="#FF2A2A"/>
<stop offset="1" stop-color="#FF0000"/>
</linearGradient>
<linearGradient id="paint2_linear_161_1778" x1="10.53" y1="12.58" x2="15.57" y2="12.58" gradientUnits="userSpaceOnUse">
<stop stop-color="#002255"/>
<stop offset="0.5" stop-color="#0044AA"/>
<stop offset="1" stop-color="#002255"/>
</linearGradient>
<linearGradient id="paint3_linear_161_1778" x1="-2.66153e-06" y1="12.56" x2="0.999998" y2="12.56" gradientUnits="userSpaceOnUse">
<stop stop-color="#002255"/>
<stop offset="0.5" stop-color="#0044AA"/>
<stop offset="1" stop-color="#002255"/>
</linearGradient>
<linearGradient id="paint4_linear_161_1778" x1="-2.66153e-06" y1="12.53" x2="0.999998" y2="12.53" gradientUnits="userSpaceOnUse">
<stop stop-color="#002255"/>
<stop offset="0.5" stop-color="#0044AA"/>
<stop offset="1" stop-color="#002255"/>
</linearGradient>
<linearGradient id="paint5_linear_161_1778" x1="-2.66153e-06" y1="12.5" x2="0.999998" y2="12.5" gradientUnits="userSpaceOnUse">
<stop stop-color="#002255"/>
<stop offset="0.5" stop-color="#0044AA"/>
<stop offset="1" stop-color="#002255"/>
</linearGradient>
<linearGradient id="paint6_linear_161_1778" x1="-2.66153e-06" y1="12.46" x2="0.999998" y2="12.46" gradientUnits="userSpaceOnUse">
<stop stop-color="#002255"/>
<stop offset="0.5" stop-color="#0044AA"/>
<stop offset="1" stop-color="#002255"/>
</linearGradient>
<linearGradient id="paint7_linear_161_1778" x1="-2.66153e-06" y1="12.44" x2="0.999998" y2="12.44" gradientUnits="userSpaceOnUse">
<stop stop-color="#002255"/>
<stop offset="0.5" stop-color="#0044AA"/>
<stop offset="1" stop-color="#002255"/>
</linearGradient>
<linearGradient id="paint8_linear_161_1778" x1="-2.66153e-06" y1="12.41" x2="0.999998" y2="12.41" gradientUnits="userSpaceOnUse">
<stop stop-color="#002255"/>
<stop offset="0.5" stop-color="#0044AA"/>
<stop offset="1" stop-color="#002255"/>
</linearGradient>
<linearGradient id="paint9_linear_161_1778" x1="-2.66153e-06" y1="12.38" x2="0.999998" y2="12.38" gradientUnits="userSpaceOnUse">
<stop stop-color="#002255"/>
<stop offset="0.5" stop-color="#0044AA"/>
<stop offset="1" stop-color="#002255"/>
</linearGradient>
<linearGradient id="paint10_linear_161_1778" x1="-2.66153e-06" y1="12.35" x2="0.999998" y2="12.35" gradientUnits="userSpaceOnUse">
<stop stop-color="#002255"/>
<stop offset="0.5" stop-color="#0044AA"/>
<stop offset="1" stop-color="#002255"/>
</linearGradient>
<linearGradient id="paint11_linear_161_1778" x1="10.53" y1="12.27" x2="15.57" y2="12.27" gradientUnits="userSpaceOnUse">
<stop stop-color="#002255"/>
<stop offset="0.5" stop-color="#0044AA"/>
<stop offset="1" stop-color="#002255"/>
</linearGradient>
<linearGradient id="paint12_linear_161_1778" x1="12.76" y1="12.31" x2="12.76" y2="12.47" gradientUnits="userSpaceOnUse">
<stop stop-color="#F5F549"/>
<stop offset="1" stop-color="#97C924"/>
</linearGradient>
<linearGradient id="paint13_linear_161_1778" x1="12.35" y1="-1308.64" x2="12.35" y2="-1308.64" gradientUnits="userSpaceOnUse">
<stop stop-color="#F5F549"/>
<stop offset="1" stop-color="#97C924"/>
</linearGradient>
<linearGradient id="paint14_linear_161_1778" x1="12" y1="12.31" x2="12" y2="12.47" gradientUnits="userSpaceOnUse">
<stop stop-color="#F5F549"/>
<stop offset="1" stop-color="#97C924"/>
</linearGradient>
<linearGradient id="paint15_linear_161_1778" x1="11.49" y1="-1308.64" x2="11.49" y2="-1308.64" gradientUnits="userSpaceOnUse">
<stop stop-color="#F5F549"/>
<stop offset="1" stop-color="#97C924"/>
</linearGradient>
<linearGradient id="paint16_linear_161_1778" x1="11.08" y1="-1308.64" x2="11.08" y2="-1308.64" gradientUnits="userSpaceOnUse">
<stop stop-color="#F5F549"/>
<stop offset="1" stop-color="#97C924"/>
</linearGradient>
<linearGradient id="paint17_linear_161_1778" x1="-1.27" y1="12.69" x2="25.27" y2="12.69" gradientUnits="userSpaceOnUse">
<stop stop-color="#002255"/>
<stop offset="0.5" stop-color="#0044AA"/>
<stop offset="1" stop-color="#002255"/>
</linearGradient>
<linearGradient id="paint18_linear_161_1778" x1="-1.27" y1="12.94" x2="25.27" y2="12.94" gradientUnits="userSpaceOnUse">
<stop stop-color="#002255"/>
<stop offset="0.5" stop-color="#0044AA"/>
<stop offset="1" stop-color="#002255"/>
</linearGradient>
<linearGradient id="paint19_linear_161_1778" x1="-1.27" y1="12.91" x2="25.27" y2="12.91" gradientUnits="userSpaceOnUse">
<stop stop-color="#002255"/>
<stop offset="0.5" stop-color="#0044AA"/>
<stop offset="1" stop-color="#002255"/>
</linearGradient>
<linearGradient id="paint20_linear_161_1778" x1="-1.27" y1="12.87" x2="25.27" y2="12.87" gradientUnits="userSpaceOnUse">
<stop stop-color="#002255"/>
<stop offset="0.5" stop-color="#0044AA"/>
<stop offset="1" stop-color="#002255"/>
</linearGradient>
<linearGradient id="paint21_linear_161_1778" x1="-1.27" y1="12.84" x2="25.27" y2="12.84" gradientUnits="userSpaceOnUse">
<stop stop-color="#002255"/>
<stop offset="0.5" stop-color="#0044AA"/>
<stop offset="1" stop-color="#002255"/>
</linearGradient>
<linearGradient id="paint22_linear_161_1778" x1="-1.27" y1="12.8" x2="25.27" y2="12.8" gradientUnits="userSpaceOnUse">
<stop stop-color="#002255"/>
<stop offset="0.5" stop-color="#0044AA"/>
<stop offset="1" stop-color="#002255"/>
</linearGradient>
<linearGradient id="paint23_linear_161_1778" x1="-1.27" y1="12.77" x2="25.27" y2="12.77" gradientUnits="userSpaceOnUse">
<stop stop-color="#002255"/>
<stop offset="0.5" stop-color="#0044AA"/>
<stop offset="1" stop-color="#002255"/>
</linearGradient>
<linearGradient id="paint24_linear_161_1778" x1="-1.27" y1="12.74" x2="25.27" y2="12.74" gradientUnits="userSpaceOnUse">
<stop stop-color="#002255"/>
<stop offset="0.5" stop-color="#0044AA"/>
<stop offset="1" stop-color="#002255"/>
</linearGradient>
<linearGradient id="paint25_linear_161_1778" x1="-1.27" y1="12.7" x2="25.27" y2="12.7" gradientUnits="userSpaceOnUse">
<stop stop-color="#002255"/>
<stop offset="0.5" stop-color="#0044AA"/>
<stop offset="1" stop-color="#002255"/>
</linearGradient>
<linearGradient id="paint26_linear_161_1778" x1="-1.27" y1="12.67" x2="25.27" y2="12.67" gradientUnits="userSpaceOnUse">
<stop stop-color="#002255"/>
<stop offset="0.5" stop-color="#0044AA"/>
<stop offset="1" stop-color="#002255"/>
</linearGradient>
</defs>
</svg>
