<svg width="24" height="24" viewBox="0 0 24 24" fill="none" xmlns="http://www.w3.org/2000/svg">
<path d="M24 4H0V20H24V4Z" fill="white"/>
<path d="M24 4H6V20H24V4Z" fill="#01411C"/>
<path d="M15 16.8C17.651 16.8 19.8 14.651 19.8 12C19.8 9.34903 17.651 7.2 15 7.2C12.349 7.2 10.2 9.34903 10.2 12C10.2 14.651 12.349 16.8 15 16.8Z" fill="white"/>
<path d="M16.23 15.31C18.66 15.31 20.63 13.34 20.63 10.91C20.63 8.47994 18.66 6.50999 16.23 6.50999C13.7999 6.50999 11.83 8.47994 11.83 10.91C11.83 13.34 13.7999 15.31 16.23 15.31Z" fill="#01411C"/>
<path d="M17.64 10.43L18.77 10.68L18 9.81L18.59 8.81L17.52 9.28L16.75 8.41L16.86 9.57L15.8 10.03L16.93 10.28L17.05 11.44L17.64 10.43Z" fill="white"/>
</svg>
