<svg width="24" height="24" viewBox="0 0 24 24" fill="none" xmlns="http://www.w3.org/2000/svg">
<path d="M0 4H24V20H0V4Z" fill="white"/>
<path d="M0 14.67H24V20H0V14.67Z" fill="#0038A8"/>
<path d="M0 4H24V9.33H0V4Z" fill="#D52B1E"/>
<path d="M14.01 12C14.01 13.11 13.11 14.01 12 14.01C10.89 14.01 9.99 13.11 9.99 12C9.99 10.89 10.89 9.98999 12 9.98999C13.11 9.98999 14.01 10.89 14.01 12Z" fill="white"/>
<path d="M12 14.05C10.87 14.05 9.95 13.13 9.95 12C9.95 10.87 10.87 9.95 12 9.95C13.13 9.95 14.05 10.87 14.05 12C14.05 13.13 13.13 14.05 12 14.05ZM12 10.04C10.92 10.04 10.04 10.92 10.04 12C10.04 13.08 10.92 13.96 12 13.96C13.08 13.96 13.96 13.08 13.96 12C13.96 10.92 13.08 10.04 12 10.04Z" fill="black"/>
<path d="M12.97 11.69L12.92 11.74C12.92 11.76 12.92 11.8 12.96 11.8C13 11.8 13.01 11.76 13.01 11.74C13.01 11.74 13.01 11.68 12.96 11.68" fill="#009B3A"/>
<path d="M12.97 11.82C12.93 11.82 12.91 11.77 12.92 11.74C12.92 11.74 12.92 11.71 12.94 11.69C12.95 11.68 12.96 11.67 12.98 11.68C12.98 11.68 13.04 11.72 13.04 11.75C13.04 11.76 13.04 11.79 13.01 11.81C13.01 11.81 12.99 11.82 12.98 11.82H12.97ZM12.93 11.73C12.93 11.74 12.93 11.78 12.96 11.78C12.96 11.78 12.97 11.78 12.98 11.78C12.99 11.77 13 11.75 13 11.74C13 11.74 13 11.7 12.97 11.7C12.96 11.7 12.95 11.7 12.95 11.7C12.95 11.7 12.94 11.72 12.94 11.73H12.93Z" fill="black"/>
<path d="M10.74 12.8L10.72 12.77C10.72 12.77 10.72 12.77 10.71 12.75C10.71 12.75 10.71 12.75 10.7 12.75C10.7 12.75 10.69 12.75 10.68 12.75C10.68 12.75 10.67 12.75 10.67 12.77C10.67 12.77 10.67 12.79 10.67 12.8L10.69 12.83L10.73 12.8H10.74ZM10.91 12.79L10.69 12.92L10.62 12.81C10.62 12.81 10.6 12.77 10.6 12.76C10.6 12.75 10.6 12.73 10.6 12.72C10.6 12.71 10.62 12.7 10.63 12.69C10.64 12.69 10.65 12.68 10.67 12.68C10.68 12.68 10.69 12.68 10.7 12.68C10.7 12.68 10.71 12.68 10.72 12.7V12.68C10.72 12.68 10.72 12.68 10.72 12.66C10.72 12.66 10.72 12.65 10.72 12.64L10.76 12.57L10.8 12.65L10.76 12.73V12.75C10.76 12.75 10.76 12.76 10.76 12.77L10.85 12.72L10.89 12.79H10.91ZM10.53 12.62L10.46 12.42L10.51 12.4L10.55 12.52H10.59L10.55 12.39L10.6 12.37L10.64 12.49L10.69 12.47L10.65 12.34L10.7 12.32L10.77 12.52L10.53 12.6V12.62ZM10.53 12.21V12.19C10.53 12.19 10.53 12.16 10.52 12.16C10.52 12.16 10.51 12.16 10.5 12.16C10.5 12.16 10.49 12.16 10.48 12.17C10.48 12.17 10.48 12.19 10.48 12.2V12.22H10.54L10.53 12.21ZM10.44 12.3L10.42 12.17C10.42 12.17 10.42 12.12 10.43 12.1C10.44 12.08 10.46 12.08 10.48 12.07C10.51 12.07 10.53 12.07 10.54 12.09C10.56 12.1 10.57 12.13 10.57 12.16V12.2L10.67 12.19V12.27L10.43 12.3H10.44ZM10.43 11.81V11.73L10.59 11.75C10.6 11.75 10.62 11.75 10.63 11.76C10.64 11.76 10.65 11.77 10.66 11.79C10.66 11.8 10.67 11.81 10.68 11.82C10.68 11.84 10.68 11.85 10.68 11.88C10.68 11.89 10.68 11.91 10.68 11.92C10.68 11.93 10.68 11.95 10.67 11.96C10.67 11.96 10.66 11.98 10.65 11.98C10.65 11.98 10.63 11.99 10.62 11.99C10.6 11.99 10.59 11.99 10.58 11.99L10.43 11.97V11.89L10.59 11.91C10.6 11.91 10.61 11.91 10.62 11.91C10.62 11.91 10.63 11.89 10.64 11.88C10.64 11.87 10.64 11.86 10.64 11.85C10.64 11.85 10.62 11.84 10.61 11.84L10.46 11.82L10.43 11.81ZM10.68 11.59V11.55C10.68 11.55 10.7 11.53 10.7 11.52C10.7 11.52 10.7 11.51 10.68 11.51C10.68 11.51 10.67 11.51 10.66 11.51C10.66 11.51 10.65 11.52 10.64 11.53V11.57L10.68 11.59ZM10.58 11.56V11.53C10.58 11.53 10.6 11.51 10.59 11.5C10.59 11.5 10.59 11.49 10.58 11.49C10.58 11.49 10.57 11.49 10.56 11.49C10.56 11.49 10.55 11.5 10.55 11.51V11.54L10.58 11.56ZM10.46 11.6L10.51 11.46C10.51 11.46 10.53 11.42 10.55 11.41C10.57 11.41 10.58 11.41 10.6 11.41C10.61 11.41 10.62 11.42 10.63 11.44C10.63 11.44 10.63 11.46 10.63 11.47C10.63 11.45 10.65 11.44 10.66 11.44C10.67 11.44 10.69 11.44 10.7 11.44C10.71 11.44 10.72 11.45 10.73 11.46C10.73 11.46 10.74 11.48 10.75 11.49C10.75 11.49 10.75 11.51 10.75 11.52C10.75 11.54 10.75 11.55 10.75 11.55L10.71 11.68L10.47 11.6H10.46ZM10.59 11.28L10.63 11.21L10.79 11.31L10.85 11.21L10.9 11.24L10.8 11.41L10.58 11.28H10.59ZM10.76 11.03L10.81 10.97L11 11.13L10.95 11.19L10.76 11.03ZM11.11 10.89L11.18 10.86C11.18 10.86 11.19 10.89 11.19 10.91C11.19 10.93 11.19 10.94 11.19 10.96C11.19 10.97 11.17 10.99 11.15 11C11.13 11.02 11.11 11.03 11.09 11.03C11.07 11.03 11.05 11.03 11.03 11.03C11.01 11.03 10.99 11.01 10.97 10.98C10.94 10.95 10.93 10.92 10.93 10.88C10.93 10.85 10.95 10.82 10.98 10.79C11 10.77 11.03 10.76 11.05 10.76C11.07 10.76 11.1 10.76 11.12 10.78L11.08 10.84C11.08 10.84 11.07 10.84 11.06 10.84C11.06 10.84 11.05 10.84 11.04 10.84C11.04 10.84 11.03 10.84 11.02 10.84C11.01 10.85 11 10.87 11 10.88C11 10.89 11 10.91 11.02 10.93C11.04 10.95 11.05 10.96 11.07 10.97C11.08 10.97 11.1 10.97 11.11 10.96C11.12 10.96 11.13 10.94 11.13 10.93C11.13 10.92 11.13 10.91 11.12 10.89M11.37 10.74L11.3 10.67L11.32 10.76L11.37 10.73V10.74ZM11.41 10.78L11.33 10.82V10.86L11.27 10.9L11.24 10.63L11.32 10.59L11.52 10.77L11.45 10.81L11.42 10.78H11.41ZM11.72 10.52L11.74 10.66H11.76C11.76 10.66 11.79 10.66 11.79 10.65C11.79 10.65 11.8 10.64 11.8 10.63C11.8 10.63 11.8 10.61 11.8 10.59C11.8 10.56 11.79 10.55 11.78 10.54C11.77 10.54 11.75 10.53 11.73 10.54H11.71L11.72 10.52ZM11.63 10.47L11.75 10.45C11.75 10.45 11.79 10.45 11.81 10.45C11.83 10.45 11.84 10.46 11.85 10.47C11.86 10.48 11.87 10.49 11.88 10.51C11.88 10.53 11.89 10.54 11.89 10.56C11.89 10.59 11.89 10.61 11.89 10.62C11.89 10.63 11.88 10.65 11.87 10.66C11.87 10.67 11.85 10.68 11.84 10.68C11.83 10.68 11.81 10.69 11.79 10.69L11.67 10.71L11.63 10.46V10.47ZM11.98 10.42L12.19 10.44V10.49H12.06V10.53H12.18V10.58H12.05V10.63L12.18 10.64V10.7L11.96 10.68L11.98 10.43V10.42ZM12.3 10.45L12.38 10.47L12.33 10.65L12.45 10.68L12.43 10.74L12.24 10.69L12.31 10.45H12.3ZM12.73 10.73H12.75C12.75 10.73 12.77 10.75 12.78 10.75C12.78 10.75 12.79 10.75 12.8 10.74C12.8 10.74 12.8 10.73 12.8 10.72C12.8 10.72 12.8 10.7 12.78 10.7H12.76L12.73 10.73ZM12.72 10.6L12.83 10.67C12.83 10.67 12.87 10.7 12.87 10.72C12.87 10.74 12.87 10.76 12.86 10.78C12.85 10.8 12.83 10.81 12.81 10.82C12.79 10.82 12.77 10.82 12.74 10.8L12.7 10.78L12.65 10.86L12.58 10.82L12.72 10.61V10.6ZM13 10.98L13.04 10.9L12.96 10.95L13 10.99V10.98ZM12.97 11.03L12.91 10.97L12.87 10.99L12.81 10.93L12.93 10.88L13.06 10.82L13.12 10.88L13.01 11.13L12.95 11.07L12.97 11.03ZM13.21 11.14L13.23 11.17C13.23 11.17 13.23 11.17 13.24 11.19C13.24 11.19 13.24 11.19 13.25 11.19C13.25 11.19 13.26 11.19 13.27 11.19C13.27 11.19 13.28 11.19 13.28 11.17C13.28 11.17 13.28 11.15 13.27 11.14L13.25 11.11L13.21 11.14ZM13.04 11.16L13.25 11.02L13.32 11.13C13.32 11.13 13.34 11.17 13.35 11.18C13.35 11.19 13.35 11.21 13.35 11.22C13.35 11.23 13.34 11.24 13.32 11.25C13.31 11.25 13.3 11.26 13.28 11.26C13.27 11.26 13.26 11.26 13.25 11.26C13.25 11.26 13.23 11.25 13.23 11.24V11.26C13.23 11.26 13.23 11.27 13.23 11.28C13.23 11.28 13.23 11.29 13.23 11.3L13.19 11.37L13.14 11.3L13.18 11.22V11.2C13.18 11.2 13.18 11.19 13.18 11.18L13.09 11.23L13.05 11.16H13.04ZM13.34 11.5L13.42 11.44H13.32L13.34 11.5ZM13.29 11.54L13.26 11.46H13.22L13.19 11.39H13.46L13.49 11.47L13.28 11.65L13.25 11.57L13.29 11.54ZM13.41 11.8H13.46L13.48 11.91H13.37C13.37 11.91 13.34 11.88 13.33 11.87C13.33 11.85 13.32 11.83 13.31 11.81C13.31 11.78 13.31 11.76 13.31 11.74C13.31 11.72 13.33 11.7 13.35 11.69C13.37 11.68 13.39 11.67 13.42 11.67C13.45 11.67 13.47 11.67 13.49 11.67C13.51 11.67 13.53 11.69 13.54 11.71C13.55 11.73 13.56 11.75 13.56 11.78C13.56 11.81 13.56 11.83 13.56 11.84C13.56 11.85 13.56 11.87 13.54 11.88C13.53 11.89 13.52 11.9 13.5 11.91L13.48 11.84C13.48 11.84 13.5 11.83 13.5 11.82C13.5 11.82 13.5 11.8 13.5 11.79C13.5 11.77 13.5 11.76 13.48 11.75C13.47 11.75 13.45 11.74 13.42 11.75C13.39 11.75 13.37 11.76 13.36 11.77C13.35 11.78 13.35 11.8 13.35 11.82V11.84C13.35 11.84 13.35 11.86 13.37 11.87H13.39V11.81L13.41 11.8ZM13.57 12.19V12.27L13.41 12.25C13.4 12.25 13.38 12.25 13.37 12.24C13.36 12.24 13.35 12.23 13.34 12.21C13.34 12.2 13.33 12.19 13.32 12.18C13.32 12.16 13.32 12.15 13.32 12.12C13.32 12.11 13.32 12.09 13.32 12.08C13.32 12.07 13.32 12.05 13.33 12.04C13.33 12.04 13.34 12.02 13.35 12.02C13.36 12.02 13.37 12.01 13.38 12.01C13.4 12.01 13.41 12.01 13.42 12.01L13.57 12.03V12.11L13.41 12.09C13.4 12.09 13.38 12.09 13.38 12.09C13.38 12.09 13.37 12.11 13.37 12.12C13.37 12.13 13.37 12.14 13.37 12.15C13.37 12.15 13.39 12.16 13.4 12.17L13.55 12.19H13.57ZM13.34 12.47H13.44L13.36 12.42L13.34 12.47ZM13.28 12.47L13.31 12.39L13.27 12.36L13.3 12.28L13.51 12.45L13.48 12.53H13.21L13.24 12.46H13.28V12.47ZM13.42 12.7L13.38 12.78H13.28L13.33 12.87L13.29 12.94L13.21 12.78L13.12 12.73L13.16 12.66L13.25 12.71H13.43L13.42 12.7Z" fill="black"/>
<path d="M12 13.7C11.06 13.7 10.3 12.94 10.3 12C10.3 11.06 11.06 10.3 12 10.3C12.94 10.3 13.7 11.06 13.7 12C13.7 12.94 12.94 13.7 12 13.7ZM12 10.34C11.08 10.34 10.34 11.09 10.34 12C10.34 12.91 11.09 13.66 12 13.66C12.91 13.66 13.66 12.91 13.66 12C13.66 11.08 12.91 10.34 12 10.34Z" fill="black"/>
<path d="M12 13.26C11.3 13.26 10.73 12.69 10.73 11.99C10.73 11.29 11.3 10.72 12 10.72C12.7 10.72 13.27 11.29 13.27 11.99C13.27 12.69 12.7 13.26 12 13.26ZM12 10.76C11.32 10.76 10.77 11.31 10.77 11.99C10.77 12.67 11.32 13.22 12 13.22C12.68 13.22 13.23 12.67 13.23 11.99C13.23 11.66 13.1 11.35 12.87 11.12C12.64 10.89 12.33 10.76 12 10.76Z" fill="black"/>
<path d="M12 11.54L12.1 11.84H12.42L12.17 12.04L12.26 12.34L12 12.16L11.74 12.34L11.83 12.04L11.58 11.85H11.9L12.01 11.54H12Z" fill="#FEDF00"/>
<path d="M12.27 12.37L12 12.18L11.73 12.37L11.83 12.05L11.56 11.85H11.89L12 11.53L12.11 11.85H12.44L12.17 12.06L12.27 12.38V12.37ZM11.6 11.86L11.84 12.04L11.75 12.33L12 12.16L12.25 12.33L12.16 12.04L12.4 11.86H12.1L12 11.57L11.9 11.86H11.6Z" fill="black"/>
<path d="M12.58 12.86C12.58 12.86 12.53 12.87 12.52 12.88C12.51 12.88 12.46 12.88 12.44 12.88C12.43 12.88 12.41 12.88 12.4 12.88C12.31 12.87 12.55 12.88 12.58 12.86ZM12.34 12.79C12.34 12.79 12.38 12.71 12.39 12.69C12.4 12.67 12.43 12.62 12.44 12.6C12.44 12.59 12.48 12.56 12.48 12.57C12.43 12.62 12.39 12.69 12.36 12.75C12.36 12.75 12.34 12.79 12.33 12.79C12.33 12.79 12.33 12.81 12.32 12.81C12.32 12.81 12.32 12.79 12.34 12.78V12.79ZM12.68 12.84C12.68 12.84 12.64 12.84 12.61 12.82C12.58 12.82 12.54 12.8 12.5 12.81C12.46 12.81 12.43 12.82 12.4 12.83C12.37 12.84 12.33 12.84 12.33 12.84C12.33 12.84 12.31 12.84 12.32 12.84L12.36 12.81L12.38 12.78C12.38 12.78 12.5 12.63 12.48 12.6C12.5 12.57 12.52 12.52 12.51 12.51C12.51 12.51 12.42 12.54 12.41 12.55C12.39 12.57 12.37 12.61 12.37 12.63C12.37 12.65 12.33 12.67 12.33 12.67C12.3 12.69 12.29 12.75 12.28 12.79C12.28 12.84 12.16 12.86 12.16 12.86C12.16 12.86 12.13 12.87 12.16 12.88C12.16 12.88 12.18 12.9 12.19 12.9C12.2 12.9 12.28 12.87 12.29 12.87C12.31 12.87 12.34 12.88 12.36 12.89C12.39 12.89 12.41 12.9 12.43 12.89C12.45 12.89 12.48 12.89 12.5 12.89C12.52 12.89 12.54 12.89 12.56 12.89C12.57 12.89 12.61 12.86 12.61 12.86C12.61 12.86 12.65 12.84 12.67 12.83C12.69 12.82 12.67 12.81 12.67 12.81" fill="#009B3A"/>
<path d="M12.41 12.92C12.41 12.92 12.38 12.92 12.36 12.91C12.34 12.91 12.31 12.9 12.29 12.89C12.29 12.89 12.26 12.89 12.25 12.9C12.22 12.9 12.2 12.92 12.2 12.91C12.2 12.91 12.18 12.9 12.17 12.89C12.17 12.89 12.15 12.89 12.15 12.87C12.15 12.86 12.16 12.85 12.17 12.85C12.2 12.85 12.28 12.82 12.29 12.78C12.29 12.76 12.31 12.67 12.35 12.65C12.35 12.65 12.38 12.63 12.38 12.62C12.38 12.62 12.4 12.56 12.42 12.54C12.43 12.54 12.52 12.49 12.54 12.5C12.55 12.52 12.52 12.58 12.51 12.6C12.51 12.61 12.51 12.63 12.49 12.67C12.47 12.71 12.42 12.77 12.41 12.79L12.39 12.82C12.39 12.82 12.38 12.82 12.37 12.84C12.38 12.84 12.4 12.84 12.42 12.83C12.45 12.82 12.48 12.81 12.52 12.81C12.55 12.81 12.6 12.81 12.63 12.82C12.65 12.82 12.7 12.83 12.7 12.83C12.7 12.83 12.71 12.83 12.71 12.84C12.71 12.84 12.71 12.86 12.69 12.86C12.67 12.87 12.63 12.89 12.63 12.89C12.63 12.89 12.59 12.91 12.58 12.92C12.57 12.92 12.54 12.92 12.52 12.92C12.5 12.92 12.48 12.92 12.46 12.92H12.44H12.41ZM12.29 12.87C12.31 12.87 12.34 12.88 12.36 12.89C12.38 12.89 12.41 12.9 12.42 12.89C12.44 12.89 12.47 12.89 12.49 12.89C12.51 12.89 12.53 12.89 12.54 12.89C12.55 12.89 12.58 12.87 12.59 12.87C12.59 12.87 12.63 12.85 12.65 12.84C12.64 12.84 12.61 12.84 12.59 12.83C12.56 12.83 12.52 12.82 12.49 12.82C12.46 12.82 12.42 12.83 12.39 12.84C12.36 12.85 12.32 12.85 12.32 12.85H12.3C12.3 12.85 12.3 12.85 12.3 12.84C12.3 12.84 12.33 12.82 12.34 12.81L12.36 12.78C12.36 12.78 12.47 12.64 12.46 12.61C12.47 12.59 12.49 12.55 12.49 12.54C12.47 12.54 12.41 12.57 12.4 12.58C12.38 12.6 12.37 12.63 12.36 12.65C12.36 12.67 12.32 12.69 12.32 12.69C12.3 12.71 12.28 12.76 12.27 12.81C12.27 12.86 12.15 12.89 12.14 12.89C12.14 12.89 12.14 12.89 12.15 12.9L12.16 12.91C12.16 12.91 12.19 12.91 12.21 12.9C12.24 12.9 12.25 12.89 12.26 12.89L12.29 12.87ZM12.4 12.89C12.4 12.89 12.37 12.89 12.37 12.88C12.37 12.87 12.37 12.87 12.45 12.86C12.5 12.86 12.56 12.86 12.57 12.85V12.87C12.56 12.87 12.53 12.88 12.51 12.89C12.51 12.89 12.48 12.89 12.46 12.89H12.44C12.44 12.89 12.44 12.89 12.43 12.89C12.43 12.89 12.41 12.89 12.4 12.89ZM12.33 12.83C12.33 12.83 12.33 12.83 12.33 12.82C12.33 12.82 12.33 12.8 12.34 12.8C12.34 12.8 12.34 12.78 12.36 12.77C12.37 12.75 12.38 12.72 12.39 12.71C12.39 12.71 12.39 12.69 12.4 12.68C12.41 12.66 12.43 12.63 12.44 12.62C12.44 12.62 12.47 12.58 12.49 12.58H12.5V12.59C12.44 12.64 12.4 12.74 12.39 12.76C12.39 12.76 12.37 12.8 12.36 12.81C12.36 12.81 12.36 12.82 12.35 12.83H12.33Z" fill="black"/>
<path d="M12.37 12.98C12.37 12.98 12.21 12.9 12.2 12.89C12.2 12.89 12.13 12.85 12.1 12.84C12.08 12.84 12.05 12.84 12.04 12.84C12.01 12.84 11.97 12.85 11.97 12.85L12.01 12.87C12.01 12.87 12.05 12.89 12.07 12.9C12.1 12.91 12.1 12.93 12.1 12.93L12.24 12.99L12.27 13.01C12.27 13.01 12.3 12.97 12.38 12.98" fill="#009B3A"/>
<path d="M12.26 13.02L12.22 12.99L12.07 12.93C12.07 12.93 12.07 12.91 12.05 12.9C12.03 12.9 11.99 12.87 11.99 12.87L11.93 12.85H11.95C11.95 12.85 11.99 12.83 12.02 12.83C12.03 12.83 12.06 12.83 12.09 12.83C12.11 12.83 12.15 12.85 12.17 12.87C12.18 12.87 12.19 12.88 12.19 12.88C12.19 12.88 12.32 12.95 12.36 12.97C12.28 12.97 12.26 13.01 12.26 13.01V13.02ZM12.09 12.92L12.23 12.98L12.26 13C12.26 13 12.29 12.97 12.34 12.97C12.28 12.94 12.21 12.9 12.2 12.9C12.2 12.9 12.2 12.9 12.17 12.89C12.15 12.88 12.11 12.86 12.09 12.85C12.07 12.85 12.04 12.85 12.03 12.85C12.02 12.85 12 12.85 11.98 12.85H12C12 12.85 12.04 12.88 12.06 12.89C12.08 12.9 12.09 12.91 12.09 12.92Z" fill="black"/>
<path d="M12.53 12.65C12.58 12.61 12.6 12.54 12.65 12.51C12.65 12.51 12.65 12.52 12.65 12.54C12.65 12.55 12.63 12.56 12.63 12.57C12.63 12.58 12.6 12.6 12.59 12.61C12.59 12.62 12.58 12.64 12.55 12.65C12.53 12.66 12.54 12.68 12.53 12.69C12.53 12.69 12.49 12.72 12.48 12.75C12.48 12.78 12.48 12.77 12.46 12.78C12.49 12.73 12.51 12.7 12.54 12.65M12.41 12.79C12.41 12.79 12.31 12.85 12.34 12.84C12.37 12.84 12.46 12.8 12.49 12.79C12.52 12.78 12.54 12.75 12.56 12.72C12.58 12.7 12.66 12.62 12.67 12.6C12.68 12.57 12.69 12.53 12.64 12.44C12.64 12.44 12.64 12.46 12.61 12.47C12.59 12.49 12.56 12.51 12.56 12.51L12.53 12.54C12.53 12.54 12.41 12.75 12.4 12.79" fill="#009B3A"/>
<path d="M12.34 12.85C12.34 12.85 12.34 12.85 12.33 12.85C12.33 12.85 12.33 12.84 12.38 12.81C12.39 12.81 12.41 12.79 12.41 12.79C12.43 12.75 12.54 12.55 12.54 12.54L12.57 12.51C12.57 12.51 12.6 12.49 12.62 12.47C12.64 12.45 12.64 12.44 12.64 12.44V12.42L12.66 12.44C12.71 12.53 12.7 12.57 12.69 12.61C12.68 12.64 12.62 12.7 12.59 12.73H12.58C12.58 12.73 12.57 12.75 12.56 12.76C12.54 12.78 12.53 12.8 12.5 12.81C12.47 12.82 12.38 12.86 12.35 12.86L12.34 12.85ZM12.42 12.79C12.42 12.79 12.42 12.79 12.38 12.82C12.42 12.81 12.46 12.79 12.48 12.78C12.5 12.78 12.52 12.75 12.53 12.74C12.53 12.74 12.54 12.73 12.55 12.72H12.56C12.56 12.72 12.65 12.62 12.66 12.6C12.67 12.57 12.68 12.54 12.64 12.47C12.64 12.47 12.63 12.48 12.62 12.49C12.6 12.51 12.57 12.53 12.57 12.53L12.54 12.56C12.54 12.56 12.42 12.77 12.41 12.8L12.42 12.79ZM12.46 12.78H12.45C12.48 12.72 12.5 12.68 12.53 12.64C12.53 12.64 12.57 12.59 12.59 12.56C12.61 12.53 12.62 12.51 12.64 12.49C12.65 12.49 12.65 12.51 12.64 12.53C12.64 12.53 12.63 12.55 12.62 12.55C12.62 12.55 12.61 12.56 12.6 12.57L12.58 12.59C12.58 12.6 12.56 12.62 12.54 12.63C12.53 12.63 12.53 12.65 12.53 12.66C12.53 12.66 12.53 12.67 12.51 12.68C12.5 12.69 12.49 12.7 12.48 12.72C12.48 12.74 12.48 12.75 12.46 12.75C12.46 12.75 12.46 12.75 12.45 12.75L12.46 12.78Z" fill="black"/>
<path d="M12.82 12.71C12.82 12.71 12.76 12.71 12.75 12.71C12.75 12.71 12.71 12.71 12.66 12.71C12.61 12.71 12.59 12.73 12.58 12.74C12.57 12.76 12.53 12.79 12.53 12.79H12.55C12.6 12.75 12.64 12.76 12.66 12.76C12.68 12.76 12.7 12.76 12.75 12.74C12.8 12.72 12.8 12.74 12.79 12.74C12.77 12.74 12.74 12.75 12.71 12.76C12.67 12.76 12.64 12.76 12.62 12.76C12.6 12.76 12.49 12.79 12.49 12.79C12.49 12.79 12.61 12.79 12.62 12.8C12.63 12.8 12.65 12.8 12.67 12.8C12.72 12.78 12.74 12.77 12.76 12.77C12.78 12.77 12.8 12.75 12.8 12.75C12.8 12.75 12.81 12.75 12.82 12.72C12.83 12.7 12.82 12.7 12.82 12.7M12.88 12.38C12.88 12.38 12.91 12.32 12.93 12.3C12.94 12.29 12.96 12.28 12.97 12.28C12.95 12.28 12.93 12.3 12.92 12.31C12.9 12.35 12.89 12.39 12.86 12.42C12.84 12.44 12.83 12.47 12.83 12.47H12.81C12.81 12.47 12.87 12.41 12.89 12.37L12.88 12.38ZM13.07 12.36L13.04 12.37C12.99 12.39 12.97 12.42 12.94 12.44C12.93 12.45 12.91 12.46 12.86 12.49C12.81 12.51 12.77 12.54 12.77 12.54C12.77 12.54 12.75 12.54 12.76 12.55H12.77C12.77 12.55 12.87 12.54 12.92 12.51C12.95 12.49 12.96 12.48 12.99 12.44C13 12.42 13.01 12.39 13.02 12.41C13.02 12.47 12.93 12.52 12.9 12.54C12.88 12.54 12.85 12.55 12.82 12.56C12.78 12.56 12.76 12.56 12.77 12.56C12.77 12.55 12.77 12.55 12.79 12.54C12.81 12.52 12.85 12.51 12.88 12.5C12.92 12.48 12.95 12.46 12.97 12.44C12.99 12.42 12.99 12.41 13 12.4C13.01 12.36 13.01 12.33 13.03 12.31C13.07 12.26 13.08 12.24 13.08 12.22C13.08 12.22 13.06 12.23 13.05 12.24C13.03 12.25 13.02 12.25 12.97 12.27C12.92 12.28 12.92 12.31 12.91 12.33C12.91 12.33 12.89 12.36 12.88 12.37C12.88 12.37 12.85 12.41 12.84 12.43C12.84 12.44 12.82 12.45 12.81 12.45C12.81 12.45 12.83 12.34 12.83 12.33C12.83 12.31 12.83 12.28 12.83 12.27C12.83 12.26 12.83 12.23 12.81 12.23C12.79 12.23 12.79 12.2 12.79 12.2C12.75 12.24 12.77 12.31 12.77 12.35C12.77 12.39 12.77 12.47 12.77 12.47C12.81 12.49 12.77 12.54 12.77 12.56C12.76 12.58 12.73 12.58 12.72 12.6C12.71 12.62 12.62 12.74 12.62 12.74L12.73 12.71C12.73 12.71 12.74 12.71 12.73 12.7C12.71 12.69 12.73 12.64 12.75 12.63C12.78 12.61 12.82 12.63 12.82 12.63C12.82 12.63 12.87 12.63 12.94 12.61C12.99 12.59 13.02 12.55 13.04 12.53C13.05 12.52 13.08 12.47 13.1 12.44C13.1 12.42 13.13 12.39 13.12 12.4" fill="#009B3A"/>
<path d="M12.64 12.82C12.64 12.82 12.63 12.82 12.62 12.82C12.62 12.82 12.54 12.82 12.49 12.81V12.79C12.49 12.79 12.5 12.79 12.52 12.79C12.52 12.79 12.56 12.75 12.57 12.74L12.59 12.72C12.59 12.72 12.68 12.59 12.69 12.58C12.69 12.58 12.71 12.57 12.72 12.56C12.72 12.56 12.74 12.56 12.75 12.54C12.76 12.53 12.78 12.5 12.77 12.48C12.77 12.48 12.77 12.47 12.75 12.46V12.45C12.75 12.45 12.76 12.38 12.75 12.34C12.75 12.34 12.75 12.32 12.75 12.31C12.75 12.27 12.73 12.21 12.77 12.18H12.78C12.78 12.18 12.78 12.2 12.79 12.2C12.82 12.2 12.82 12.24 12.82 12.25C12.82 12.25 12.82 12.29 12.82 12.32C12.82 12.34 12.8 12.4 12.79 12.43C12.79 12.43 12.79 12.43 12.8 12.41C12.8 12.39 12.83 12.35 12.85 12.35C12.85 12.35 12.87 12.32 12.88 12.32C12.88 12.32 12.88 12.32 12.88 12.31C12.88 12.29 12.89 12.27 12.94 12.26C12.95 12.26 12.96 12.26 12.97 12.26C13 12.26 13 12.26 13.02 12.24C13.02 12.24 13.02 12.24 13.03 12.24C13.05 12.23 13.05 12.22 13.06 12.23C13.06 12.26 13.05 12.28 13.01 12.33C13.01 12.33 13.01 12.35 13 12.37C13 12.38 13 12.39 12.99 12.41C13 12.4 13.02 12.39 13.05 12.38C13.05 12.38 13.06 12.38 13.08 12.37H13.09C13.09 12.37 13.09 12.38 13.07 12.42V12.44C13.07 12.44 13.03 12.5 13.01 12.52C13.01 12.52 13.01 12.53 13 12.54C12.98 12.56 12.95 12.59 12.91 12.61C12.84 12.64 12.79 12.63 12.79 12.63C12.79 12.63 12.75 12.62 12.73 12.63C12.73 12.63 12.71 12.66 12.71 12.68C12.71 12.68 12.73 12.69 12.72 12.7C12.72 12.7 12.72 12.7 12.71 12.7H12.68C12.68 12.7 12.73 12.71 12.74 12.71C12.74 12.71 12.79 12.71 12.81 12.71C12.81 12.71 12.82 12.71 12.83 12.71V12.73C12.82 12.75 12.8 12.76 12.8 12.76C12.8 12.76 12.78 12.77 12.75 12.78C12.75 12.78 12.71 12.78 12.67 12.81C12.66 12.81 12.64 12.81 12.63 12.81L12.64 12.82ZM12.55 12.79C12.55 12.79 12.62 12.79 12.63 12.79C12.64 12.79 12.66 12.79 12.67 12.79C12.71 12.77 12.74 12.76 12.75 12.76L12.79 12.74C12.79 12.74 12.8 12.74 12.81 12.72C12.79 12.72 12.75 12.72 12.74 12.72C12.74 12.72 12.74 12.72 12.73 12.72C12.71 12.72 12.69 12.72 12.65 12.72C12.6 12.72 12.59 12.74 12.57 12.75C12.57 12.75 12.56 12.76 12.55 12.77C12.58 12.75 12.61 12.75 12.63 12.76C12.63 12.76 12.63 12.76 12.64 12.76C12.64 12.76 12.67 12.76 12.72 12.74C12.76 12.73 12.77 12.74 12.77 12.74C12.77 12.74 12.77 12.74 12.77 12.75C12.74 12.75 12.72 12.76 12.69 12.77C12.67 12.77 12.65 12.77 12.63 12.77C12.62 12.77 12.61 12.77 12.6 12.77C12.6 12.77 12.57 12.77 12.53 12.78L12.55 12.79ZM12.76 12.44L12.78 12.46C12.78 12.49 12.76 12.52 12.75 12.53C12.75 12.54 12.73 12.55 12.72 12.55C12.72 12.55 12.7 12.55 12.7 12.56C12.7 12.57 12.64 12.64 12.61 12.68L12.69 12.66C12.69 12.66 12.69 12.66 12.69 12.64C12.69 12.62 12.71 12.59 12.72 12.58C12.73 12.58 12.74 12.57 12.76 12.57C12.76 12.57 12.76 12.57 12.76 12.56C12.76 12.55 12.76 12.55 12.77 12.54C12.78 12.52 12.81 12.52 12.83 12.51C12.83 12.51 12.84 12.51 12.85 12.51C12.85 12.51 12.86 12.51 12.87 12.5C12.87 12.5 12.88 12.5 12.89 12.5C12.92 12.49 12.94 12.47 12.95 12.45C12.97 12.43 12.97 12.42 12.98 12.41C12.98 12.39 12.98 12.38 12.99 12.37C12.99 12.35 12.99 12.33 13.01 12.32C13.04 12.28 13.05 12.26 13.06 12.25C13.06 12.25 13.05 12.25 13.04 12.25C13.02 12.26 13.01 12.26 12.98 12.27C12.98 12.27 12.96 12.27 12.95 12.27C12.92 12.27 12.91 12.3 12.91 12.31C12.91 12.31 12.91 12.31 12.91 12.32C12.91 12.32 12.89 12.35 12.87 12.36C12.87 12.36 12.84 12.39 12.83 12.41C12.83 12.43 12.81 12.44 12.79 12.44C12.79 12.42 12.81 12.31 12.81 12.31C12.81 12.29 12.81 12.26 12.81 12.25C12.81 12.25 12.81 12.22 12.8 12.22C12.79 12.22 12.78 12.21 12.78 12.2C12.76 12.23 12.77 12.27 12.78 12.3C12.78 12.3 12.78 12.32 12.78 12.33C12.78 12.36 12.78 12.42 12.78 12.44H12.76ZM12.79 12.58C12.79 12.58 12.84 12.58 12.9 12.56C12.93 12.55 12.96 12.53 12.97 12.51C12.94 12.53 12.91 12.55 12.9 12.56C12.88 12.56 12.86 12.57 12.83 12.58H12.82H12.8H12.79ZM12.85 12.51C12.85 12.51 12.8 12.54 12.79 12.55C12.82 12.55 12.89 12.53 12.92 12.51C12.95 12.49 12.96 12.48 12.99 12.44C12.99 12.44 12.99 12.43 12.99 12.42C12.99 12.4 13 12.39 13.01 12.4C13.01 12.4 13.01 12.41 13.01 12.42V12.44C13.01 12.43 13.02 12.42 13.03 12.41V12.39L13.05 12.37C13.04 12.37 13.03 12.37 13.03 12.37C13.03 12.37 12.97 12.41 12.95 12.43C12.95 12.43 12.95 12.43 12.95 12.44C12.94 12.45 12.92 12.46 12.88 12.48C12.88 12.48 12.87 12.48 12.86 12.49C12.86 12.49 12.85 12.49 12.84 12.49L12.85 12.51ZM12.8 12.49V12.47C12.8 12.47 12.84 12.42 12.85 12.39C12.85 12.39 12.85 12.38 12.86 12.37C12.87 12.34 12.89 12.3 12.91 12.29C12.92 12.29 12.94 12.28 12.95 12.27C12.95 12.27 12.95 12.27 12.96 12.27C12.96 12.27 12.98 12.27 12.99 12.27C12.99 12.27 12.99 12.27 12.96 12.28C12.96 12.28 12.92 12.29 12.91 12.31C12.9 12.35 12.88 12.39 12.85 12.42C12.83 12.44 12.82 12.47 12.82 12.47L12.79 12.48L12.8 12.49Z" fill="black"/>
<path d="M12.75 12.66C12.75 12.66 12.75 12.66 12.78 12.64C12.8 12.62 12.78 12.59 12.76 12.59C12.75 12.59 12.74 12.59 12.71 12.62C12.69 12.65 12.72 12.66 12.73 12.66C12.73 12.66 12.74 12.66 12.75 12.66Z" fill="#009B3A"/>
<path d="M12.73 12.68C12.72 12.68 12.7 12.68 12.69 12.66C12.69 12.66 12.69 12.64 12.69 12.62C12.71 12.59 12.73 12.59 12.74 12.59C12.74 12.59 12.77 12.59 12.78 12.61C12.78 12.62 12.78 12.64 12.78 12.65C12.76 12.67 12.76 12.67 12.75 12.67C12.74 12.67 12.73 12.67 12.73 12.67V12.68ZM12.76 12.6C12.76 12.6 12.74 12.6 12.72 12.63C12.72 12.63 12.72 12.64 12.72 12.65C12.72 12.65 12.73 12.66 12.74 12.66C12.74 12.66 12.75 12.66 12.76 12.66C12.76 12.66 12.76 12.66 12.78 12.64C12.78 12.64 12.78 12.63 12.78 12.62C12.78 12.62 12.78 12.61 12.76 12.61V12.6Z" fill="black"/>
<path d="M12.69 12.46C12.69 12.46 12.67 12.51 12.68 12.52C12.68 12.52 12.69 12.53 12.7 12.53C12.71 12.53 12.73 12.52 12.75 12.5C12.76 12.48 12.78 12.46 12.75 12.44C12.72 12.43 12.71 12.44 12.7 12.46" fill="#009B3A"/>
<path d="M12.7 12.55C12.7 12.55 12.68 12.55 12.67 12.54C12.67 12.54 12.67 12.49 12.67 12.46C12.67 12.46 12.71 12.42 12.74 12.44C12.75 12.44 12.76 12.45 12.76 12.46C12.76 12.48 12.76 12.49 12.74 12.51C12.72 12.53 12.7 12.55 12.68 12.55H12.7ZM12.69 12.52C12.69 12.52 12.69 12.52 12.7 12.52C12.7 12.52 12.73 12.51 12.74 12.49C12.74 12.48 12.75 12.47 12.75 12.46C12.75 12.46 12.75 12.46 12.74 12.45C12.74 12.45 12.71 12.44 12.7 12.46C12.68 12.49 12.68 12.51 12.69 12.51V12.52Z" fill="black"/>
<path d="M12.78 12.16C12.78 12.16 12.78 12.16 12.78 12.15C12.76 12.13 12.74 12.11 12.74 12.11C12.71 12.13 12.7 12.16 12.7 12.18C12.7 12.2 12.7 12.23 12.7 12.26C12.7 12.27 12.7 12.28 12.68 12.32C12.66 12.36 12.68 12.39 12.68 12.41C12.68 12.42 12.7 12.46 12.7 12.46C12.7 12.46 12.71 12.46 12.72 12.46H12.74C12.74 12.46 12.76 12.43 12.76 12.41C12.76 12.4 12.76 12.37 12.76 12.34C12.76 12.29 12.76 12.27 12.76 12.24C12.76 12.21 12.79 12.19 12.79 12.19" fill="#009B3A"/>
<path d="M12.69 12.45C12.69 12.45 12.68 12.4 12.67 12.39C12.67 12.37 12.65 12.34 12.67 12.3C12.68 12.26 12.69 12.25 12.69 12.24C12.69 12.22 12.69 12.2 12.69 12.18C12.69 12.18 12.69 12.17 12.69 12.16C12.69 12.14 12.7 12.11 12.74 12.09C12.74 12.09 12.76 12.12 12.77 12.13C12.78 12.14 12.78 12.15 12.77 12.16C12.77 12.16 12.74 12.18 12.74 12.2C12.74 12.23 12.74 12.24 12.74 12.29C12.74 12.32 12.74 12.35 12.74 12.37C12.74 12.39 12.72 12.42 12.72 12.43H12.7C12.7 12.43 12.7 12.43 12.69 12.43V12.45ZM12.73 12.11C12.73 12.11 12.7 12.15 12.7 12.16C12.7 12.16 12.7 12.16 12.7 12.17C12.7 12.19 12.7 12.21 12.7 12.23C12.7 12.24 12.7 12.25 12.68 12.29C12.67 12.32 12.68 12.35 12.68 12.36C12.68 12.36 12.68 12.39 12.69 12.4C12.69 12.4 12.7 12.4 12.71 12.4C12.71 12.39 12.73 12.37 12.73 12.36C12.73 12.35 12.73 12.33 12.73 12.29C12.73 12.24 12.73 12.22 12.73 12.19C12.73 12.16 12.75 12.15 12.76 12.14C12.75 12.13 12.74 12.11 12.73 12.1V12.11Z" fill="black"/>
<path d="M12.83 12.21C12.83 12.21 12.85 12.21 12.86 12.19C12.87 12.17 12.86 12.15 12.86 12.15C12.83 12.1 12.8 12.14 12.8 12.14C12.77 12.21 12.83 12.21 12.83 12.21Z" fill="#009B3A"/>
<path d="M12.83 12.22C12.83 12.22 12.8 12.22 12.79 12.2C12.79 12.18 12.79 12.16 12.79 12.14C12.79 12.14 12.81 12.12 12.83 12.12C12.84 12.12 12.86 12.13 12.87 12.15C12.87 12.15 12.87 12.18 12.87 12.2C12.86 12.22 12.84 12.22 12.84 12.22H12.83ZM12.8 12.15C12.8 12.15 12.79 12.18 12.8 12.19C12.8 12.2 12.82 12.2 12.82 12.2C12.82 12.2 12.83 12.2 12.84 12.18C12.84 12.17 12.84 12.15 12.84 12.15C12.84 12.14 12.83 12.13 12.82 12.13C12.82 12.13 12.8 12.13 12.8 12.14V12.15Z" fill="black"/>
<path d="M12.92 12.11L12.86 12.19C12.86 12.19 12.86 12.21 12.83 12.22C12.81 12.23 12.83 12.25 12.83 12.29C12.83 12.33 12.8 12.39 12.8 12.39V12.41C12.8 12.41 12.8 12.43 12.8 12.4C12.83 12.35 12.85 12.36 12.86 12.31C12.86 12.27 12.93 12.26 12.93 12.26H12.91C12.84 12.22 12.91 12.14 12.93 12.13C12.94 12.12 12.95 12.12 12.91 12.12" fill="#009B3A"/>
<path d="M12.79 12.43C12.79 12.43 12.78 12.43 12.78 12.41L12.79 12.38C12.79 12.38 12.81 12.32 12.81 12.28C12.81 12.27 12.81 12.26 12.81 12.25C12.81 12.23 12.81 12.21 12.83 12.2C12.85 12.19 12.85 12.17 12.85 12.17C12.85 12.17 12.87 12.09 12.92 12.09H12.95C12.95 12.09 12.95 12.1 12.95 12.11C12.95 12.11 12.91 12.18 12.91 12.2C12.91 12.2 12.91 12.22 12.93 12.22H12.95V12.25C12.93 12.25 12.89 12.27 12.89 12.29C12.89 12.32 12.87 12.34 12.86 12.35C12.85 12.35 12.84 12.37 12.83 12.39C12.83 12.4 12.82 12.41 12.81 12.41L12.79 12.43ZM12.92 12.12C12.92 12.12 12.87 12.17 12.87 12.19C12.87 12.19 12.87 12.21 12.84 12.23C12.84 12.23 12.84 12.24 12.84 12.26C12.84 12.26 12.84 12.28 12.84 12.29C12.84 12.31 12.84 12.33 12.83 12.36C12.84 12.35 12.85 12.34 12.86 12.32C12.86 12.29 12.89 12.28 12.91 12.27C12.9 12.27 12.89 12.25 12.89 12.24C12.89 12.2 12.92 12.16 12.93 12.14L12.92 12.12Z" fill="black"/>
<path d="M12.91 12.2C12.91 12.2 12.94 12.24 12.96 12.24L12.98 12.22C13 12.19 12.98 12.17 12.98 12.16C12.97 12.16 12.95 12.16 12.93 12.2" fill="#009B3A"/>
<path d="M12.94 12.25C12.94 12.25 12.91 12.25 12.91 12.24C12.91 12.24 12.89 12.22 12.91 12.2C12.93 12.15 12.96 12.15 12.98 12.16C12.98 12.16 13 12.17 13 12.18C13 12.19 13 12.21 13 12.23C13 12.23 12.99 12.25 12.98 12.25C12.98 12.25 12.97 12.25 12.96 12.25H12.94ZM12.95 12.17C12.95 12.17 12.93 12.18 12.92 12.2V12.22H12.95C12.95 12.22 12.95 12.22 12.96 12.21C12.96 12.21 12.96 12.19 12.96 12.18C12.96 12.18 12.96 12.17 12.95 12.17Z" fill="black"/>
<path d="M12.81 12.04C12.81 12.04 12.86 12.14 12.87 12.13V12.11C12.87 12.11 12.87 12.09 12.87 12.07C12.87 12.05 12.87 12.02 12.85 12C12.84 11.98 12.81 11.96 12.8 11.93C12.79 11.9 12.8 11.84 12.8 11.83L12.74 11.8C12.74 11.8 12.74 11.82 12.74 11.85C12.74 11.85 12.74 11.87 12.74 11.88C12.74 11.89 12.74 11.91 12.77 11.95C12.79 12 12.8 12.02 12.82 12.05M13.1 11.7C13.1 11.7 13.09 11.72 13.08 11.73C13.08 11.73 12.99 11.8 12.99 11.81C12.99 11.81 12.94 11.83 12.91 11.93C12.87 12.03 12.89 12.13 12.89 12.13H12.91V12.12C12.91 12.12 12.91 12.09 12.92 12.06C12.92 12.03 12.95 12 12.97 11.97C12.99 11.94 13 11.91 13 11.91C13.02 11.87 13.03 11.83 13.05 11.8C13.05 11.84 12.91 12.06 12.9 12.13H12.94C12.94 12.13 13.01 12.03 13.04 11.99C13.07 11.95 13.08 11.89 13.09 11.86C13.09 11.83 13.09 11.71 13.09 11.71" fill="#009B3A"/>
<path d="M12.87 12.15C12.87 12.15 12.85 12.13 12.8 12.05C12.8 12.04 12.79 12.03 12.78 12.01C12.78 11.99 12.76 11.98 12.75 11.95C12.73 11.91 12.72 11.89 12.72 11.87C12.72 11.87 12.72 11.86 12.72 11.85C12.72 11.85 12.72 11.85 12.72 11.84C12.72 11.81 12.72 11.79 12.72 11.79V11.77H12.73C12.75 11.77 12.78 11.8 12.79 11.81C12.79 11.81 12.79 11.81 12.79 11.83C12.79 11.87 12.79 11.9 12.79 11.92C12.79 11.94 12.81 11.95 12.82 11.97C12.82 11.97 12.83 11.99 12.84 11.99C12.84 12 12.85 12.02 12.85 12.04C12.85 12.04 12.85 12.06 12.85 12.07C12.85 12.07 12.85 12.08 12.85 12.09C12.85 12.05 12.85 11.99 12.88 11.92C12.9 11.86 12.93 11.81 12.97 11.8C12.97 11.8 13.05 11.73 13.06 11.72C13.06 11.72 13.07 11.7 13.08 11.69C13.08 11.69 13.08 11.82 13.08 11.85C13.08 11.88 13.06 11.94 13.03 11.98V12C13.03 12 12.95 12.09 12.93 12.12L12.87 12.13H12.85C12.85 12.13 12.85 12.13 12.85 12.14L12.87 12.15ZM12.74 11.81C12.74 11.81 12.74 11.83 12.74 11.85C12.74 11.85 12.74 11.85 12.74 11.86C12.74 11.86 12.74 11.87 12.74 11.88C12.74 11.89 12.74 11.91 12.77 11.95C12.78 11.97 12.79 11.99 12.8 12.01C12.8 12.03 12.81 12.04 12.82 12.05C12.82 12.05 12.86 12.12 12.87 12.13C12.87 12.13 12.87 12.11 12.87 12.09C12.87 12.09 12.87 12.07 12.87 12.06C12.87 12.04 12.87 12.03 12.86 12.02C12.86 12.02 12.85 12.01 12.84 12C12.83 11.98 12.81 11.97 12.8 11.95C12.8 11.92 12.8 11.88 12.8 11.85C12.8 11.85 12.78 11.84 12.76 11.83L12.74 11.81ZM13 11.81C12.96 11.83 12.94 11.88 12.92 11.92C12.89 12 12.89 12.08 12.9 12.11V12.05C12.9 12.05 12.94 12 12.96 11.97L12.99 11.9C12.99 11.88 13.01 11.87 13.01 11.85C13.01 11.83 13.03 11.8 13.04 11.78L13.06 11.76V11.79C13.06 11.79 13.04 11.86 13 11.93C12.97 11.99 12.93 12.07 12.92 12.11H12.94C12.94 12.11 13 12.03 13.03 11.99V11.97C13.03 11.97 13.08 11.87 13.09 11.84C13.09 11.82 13.09 11.76 13.09 11.72L13 11.8V11.81Z" fill="black"/>
<path d="M12.83 11.72L12.79 11.7C12.79 11.7 12.79 11.74 12.79 11.76C12.79 11.78 12.79 11.82 12.79 11.84C12.79 11.86 12.78 11.89 12.79 11.93C12.8 11.96 12.82 11.98 12.83 12C12.84 12.02 12.86 12.13 12.86 12.13C12.86 12.13 12.86 11.99 12.86 11.95C12.86 11.91 12.86 11.85 12.86 11.82C12.86 11.79 12.84 11.75 12.82 11.73M12.92 11.58C12.92 11.58 12.94 11.54 12.95 11.5C12.95 11.48 12.95 11.46 12.95 11.44C12.95 11.43 12.95 11.41 12.95 11.41C12.95 11.41 12.95 11.41 12.95 11.43C12.95 11.43 12.95 11.45 12.95 11.48C12.95 11.5 12.95 11.51 12.95 11.54C12.95 11.56 12.95 11.59 12.95 11.59L12.93 11.62C12.93 11.62 12.93 11.64 12.93 11.66C12.93 11.68 12.93 11.7 12.93 11.7C12.93 11.7 12.93 11.68 12.96 11.68C12.96 11.68 12.96 11.65 12.96 11.64C12.96 11.63 12.97 11.56 12.98 11.54C12.98 11.51 13 11.46 12.98 11.4C12.98 11.38 12.98 11.33 12.98 11.33C12.98 11.33 12.96 11.35 12.95 11.4C12.95 11.42 12.95 11.47 12.95 11.52C12.95 11.55 12.92 11.66 12.92 11.67" fill="#009B3A"/>
<path d="M12.87 12.12C12.87 12.12 12.85 12.01 12.84 12C12.84 12 12.84 11.99 12.83 11.98C12.83 11.97 12.81 11.95 12.8 11.93C12.79 11.9 12.8 11.87 12.8 11.85C12.8 11.85 12.8 11.84 12.8 11.83C12.8 11.82 12.8 11.8 12.8 11.78C12.8 11.77 12.8 11.76 12.8 11.75C12.8 11.73 12.8 11.69 12.8 11.69H12.81C12.81 11.69 12.83 11.69 12.85 11.72C12.85 11.72 12.89 11.79 12.9 11.81C12.9 11.84 12.9 11.9 12.9 11.95C12.9 11.99 12.9 12.13 12.9 12.13H12.88L12.87 12.12ZM12.8 11.71C12.8 11.71 12.8 11.74 12.8 11.75C12.8 11.75 12.8 11.77 12.8 11.78C12.8 11.8 12.8 11.82 12.8 11.83C12.8 11.83 12.8 11.84 12.8 11.85C12.8 11.87 12.8 11.89 12.8 11.92C12.8 11.94 12.82 11.95 12.83 11.97C12.83 11.97 12.84 11.99 12.85 11.99C12.85 11.99 12.85 12.01 12.86 12.02C12.86 11.99 12.86 11.95 12.86 11.94C12.86 11.9 12.86 11.84 12.86 11.81C12.85 11.77 12.83 11.74 12.82 11.73C12.82 11.73 12.81 11.72 12.8 11.71ZM12.91 11.74V11.71C12.91 11.71 12.91 11.7 12.91 11.68H12.9C12.9 11.68 12.91 11.62 12.92 11.58C12.92 11.56 12.92 11.54 12.92 11.53C12.92 11.5 12.92 11.48 12.92 11.46C12.92 11.44 12.92 11.42 12.92 11.42C12.93 11.36 12.95 11.34 12.95 11.34H12.96C12.96 11.35 12.96 11.39 12.96 11.41C12.98 11.48 12.96 11.54 12.96 11.56C12.96 11.58 12.94 11.65 12.94 11.66C12.94 11.67 12.94 11.7 12.94 11.7C12.92 11.7 12.92 11.71 12.92 11.72L12.9 11.75L12.91 11.74ZM12.93 11.63C12.93 11.63 12.93 11.65 12.93 11.67C12.93 11.67 12.93 11.68 12.93 11.69C12.93 11.69 12.93 11.69 12.94 11.69C12.94 11.68 12.94 11.66 12.94 11.65C12.94 11.64 12.95 11.57 12.96 11.55C12.96 11.54 12.98 11.49 12.96 11.42C12.96 11.42 12.96 11.42 12.96 11.44C12.96 11.44 12.96 11.45 12.96 11.46C12.96 11.46 12.96 11.48 12.96 11.49C12.96 11.51 12.96 11.53 12.95 11.55C12.95 11.56 12.95 11.57 12.95 11.58V11.6C12.95 11.6 12.94 11.62 12.93 11.63ZM12.96 11.36C12.96 11.36 12.95 11.39 12.95 11.41C12.95 11.41 12.95 11.43 12.95 11.45C12.95 11.45 12.95 11.47 12.95 11.48C12.95 11.47 12.95 11.46 12.95 11.45C12.95 11.45 12.95 11.45 12.95 11.44C12.95 11.42 12.95 11.41 12.95 11.41C12.95 11.41 12.95 11.38 12.95 11.37L12.96 11.36Z" fill="black"/>
<path d="M12.93 11.59L12.91 11.58H12.92H12.91H12.92L12.93 11.59Z" fill="black"/>
<path d="M12.85 11.29C12.85 11.29 12.86 11.3 12.85 11.31V11.34C12.85 11.34 12.85 11.37 12.85 11.38C12.85 11.39 12.86 11.4 12.85 11.42C12.85 11.44 12.83 11.46 12.84 11.48C12.84 11.49 12.85 11.51 12.86 11.52C12.86 11.52 12.86 11.55 12.86 11.57C12.86 11.59 12.86 11.6 12.86 11.6C12.86 11.6 12.85 11.62 12.84 11.6C12.84 11.57 12.84 11.55 12.83 11.54C12.83 11.52 12.81 11.48 12.83 11.44C12.83 11.44 12.83 11.42 12.83 11.41C12.83 11.4 12.83 11.37 12.82 11.36C12.82 11.35 12.82 11.32 12.82 11.31M12.8 11.44C12.8 11.44 12.8 11.47 12.83 11.51C12.83 11.52 12.85 11.55 12.85 11.57C12.85 11.58 12.85 11.59 12.85 11.6V11.63C12.85 11.63 12.79 11.61 12.77 11.59C12.75 11.57 12.72 11.55 12.7 11.53C12.68 11.51 12.63 11.46 12.63 11.41L12.61 11.39C12.61 11.39 12.59 11.49 12.67 11.55C12.69 11.57 12.72 11.59 12.77 11.61C12.82 11.63 12.82 11.66 12.84 11.7C12.86 11.75 12.87 11.77 12.88 11.79C12.88 11.8 12.88 12 12.88 12V12.02C12.88 12.02 12.93 11.84 12.95 11.82C12.95 11.82 12.9 11.82 12.91 11.74V11.69C12.91 11.69 12.89 11.63 12.91 11.6C12.91 11.6 12.93 11.54 12.92 11.48C12.92 11.45 12.92 11.44 12.92 11.4C12.92 11.35 12.89 11.28 12.89 11.27C12.89 11.24 12.89 11.24 12.87 11.22C12.87 11.22 12.87 11.19 12.86 11.19L12.85 11.22C12.85 11.22 12.85 11.25 12.84 11.26C12.84 11.29 12.82 11.31 12.81 11.37C12.81 11.38 12.81 11.41 12.81 11.41C12.81 11.41 12.81 11.43 12.81 11.44" fill="#009B3A"/>
<path d="M12.89 12.03H12.87V12.01C12.87 11.93 12.87 11.81 12.87 11.8C12.87 11.8 12.86 11.77 12.85 11.74V11.71C12.85 11.71 12.83 11.69 12.82 11.68C12.82 11.65 12.81 11.64 12.77 11.62C12.72 11.6 12.69 11.58 12.67 11.56C12.59 11.49 12.6 11.39 12.6 11.39V11.37L12.64 11.4C12.64 11.4 12.69 11.5 12.7 11.51H12.71C12.71 11.51 12.75 11.55 12.76 11.56C12.78 11.57 12.81 11.59 12.82 11.6V11.58C12.82 11.58 12.82 11.57 12.82 11.56C12.82 11.56 12.8 11.52 12.8 11.51C12.8 11.51 12.78 11.46 12.77 11.44V11.41V11.39V11.37C12.77 11.33 12.78 11.3 12.79 11.29V11.27L12.8 11.23C12.8 11.2 12.81 11.19 12.82 11.19C12.83 11.19 12.84 11.21 12.84 11.22C12.84 11.22 12.84 11.25 12.85 11.27C12.86 11.33 12.87 11.37 12.88 11.4C12.88 11.42 12.88 11.43 12.88 11.44V11.48C12.89 11.54 12.88 11.6 12.88 11.6C12.86 11.63 12.88 11.69 12.88 11.69V11.74C12.88 11.8 12.92 11.81 12.92 11.81H12.94L12.93 11.83C12.91 11.84 12.88 11.96 12.86 12.03H12.89ZM12.62 11.41C12.62 11.41 12.62 11.5 12.68 11.55C12.7 11.57 12.73 11.59 12.78 11.61C12.82 11.63 12.83 11.65 12.84 11.68C12.84 11.68 12.84 11.7 12.85 11.71V11.74C12.85 11.74 12.89 11.79 12.89 11.8C12.89 11.81 12.89 11.9 12.89 11.97C12.9 11.92 12.92 11.86 12.94 11.84C12.92 11.84 12.9 11.81 12.9 11.76V11.71C12.9 11.71 12.88 11.66 12.9 11.63C12.9 11.63 12.9 11.63 12.88 11.63C12.87 11.63 12.87 11.61 12.87 11.61C12.87 11.61 12.87 11.56 12.87 11.55C12.86 11.52 12.85 11.48 12.87 11.45C12.87 11.45 12.87 11.44 12.87 11.42C12.87 11.42 12.87 11.4 12.87 11.39V11.37C12.87 11.37 12.87 11.34 12.87 11.33V11.31H12.88V11.33C12.88 11.33 12.88 11.35 12.88 11.36C12.88 11.36 12.88 11.39 12.88 11.4C12.88 11.4 12.88 11.42 12.88 11.44C12.88 11.44 12.88 11.45 12.88 11.46C12.88 11.47 12.88 11.48 12.88 11.5C12.88 11.5 12.88 11.52 12.89 11.53C12.89 11.53 12.89 11.54 12.89 11.55C12.89 11.55 12.89 11.57 12.89 11.58C12.89 11.58 12.89 11.59 12.89 11.6C12.89 11.61 12.89 11.62 12.89 11.62C12.89 11.62 12.91 11.56 12.9 11.5V11.46C12.9 11.46 12.9 11.44 12.9 11.42C12.9 11.39 12.89 11.35 12.87 11.3C12.87 11.3 12.87 11.27 12.86 11.26C12.86 11.26 12.86 11.25 12.86 11.24C12.86 11.24 12.86 11.24 12.86 11.25C12.86 11.25 12.86 11.28 12.85 11.29C12.85 11.29 12.85 11.31 12.85 11.32C12.85 11.34 12.84 11.36 12.83 11.4C12.83 11.4 12.83 11.41 12.83 11.42C12.83 11.44 12.83 11.44 12.83 11.45V11.47C12.83 11.47 12.83 11.49 12.85 11.53C12.85 11.53 12.87 11.58 12.87 11.59C12.87 11.59 12.87 11.61 12.87 11.62V11.65V11.68H12.86C12.86 11.68 12.8 11.65 12.78 11.63C12.76 11.62 12.74 11.6 12.72 11.59H12.71C12.71 11.59 12.64 11.51 12.64 11.46L12.62 11.41Z" fill="black"/>
<path d="M12.84 11.69C12.84 11.69 12.84 11.67 12.82 11.66C12.8 11.64 12.78 11.62 12.72 11.59C12.66 11.56 12.64 11.51 12.61 11.49C12.6 11.48 12.57 11.48 12.57 11.48C12.57 11.48 12.6 11.52 12.6 11.53C12.6 11.55 12.61 11.56 12.64 11.59C12.67 11.62 12.72 11.63 12.74 11.64C12.78 11.65 12.83 11.69 12.83 11.69M12.64 11.4C12.64 11.4 12.66 11.46 12.69 11.5C12.74 11.57 12.84 11.61 12.84 11.61C12.84 11.57 12.81 11.52 12.8 11.5C12.75 11.43 12.64 11.39 12.64 11.39M12.78 11.43C12.81 11.37 12.73 11.32 12.7 11.27C12.7 11.27 12.72 11.28 12.73 11.29C12.74 11.31 12.78 11.36 12.78 11.36V11.31L12.7 11.22C12.7 11.23 12.67 11.24 12.67 11.24C12.66 11.32 12.78 11.42 12.78 11.42" fill="#009B3A"/>
<path d="M12.83 11.7C12.83 11.7 12.78 11.66 12.74 11.65C12.74 11.65 12.67 11.63 12.64 11.6C12.61 11.57 12.6 11.56 12.6 11.54C12.6 11.54 12.57 11.49 12.57 11.48V11.46C12.57 11.46 12.6 11.46 12.62 11.48C12.63 11.48 12.64 11.5 12.66 11.52C12.68 11.54 12.7 11.57 12.73 11.59C12.8 11.62 12.82 11.64 12.83 11.66L12.85 11.69V11.7H12.83ZM12.59 11.5L12.61 11.53C12.61 11.54 12.62 11.55 12.65 11.58C12.68 11.61 12.72 11.62 12.75 11.63C12.75 11.63 12.79 11.65 12.8 11.66C12.79 11.65 12.76 11.63 12.71 11.61C12.67 11.59 12.65 11.56 12.63 11.54C12.62 11.53 12.61 11.51 12.6 11.51C12.6 11.51 12.59 11.51 12.58 11.51L12.59 11.5ZM12.86 11.63H12.84C12.84 11.63 12.74 11.57 12.69 11.51C12.67 11.48 12.65 11.45 12.64 11.41V11.4C12.66 11.4 12.76 11.44 12.81 11.51C12.82 11.53 12.84 11.58 12.85 11.62V11.64L12.86 11.63ZM12.65 11.41C12.65 11.41 12.68 11.47 12.7 11.5C12.74 11.55 12.8 11.58 12.83 11.6C12.83 11.56 12.81 11.53 12.8 11.51C12.77 11.46 12.69 11.42 12.66 11.41H12.65ZM12.78 11.44C12.78 11.44 12.65 11.33 12.66 11.25C12.67 11.25 12.68 11.24 12.68 11.23V11.21L12.79 11.31V11.38C12.79 11.38 12.79 11.42 12.78 11.44ZM12.68 11.25C12.68 11.31 12.75 11.38 12.78 11.41C12.78 11.38 12.76 11.34 12.73 11.32C12.72 11.31 12.71 11.29 12.7 11.28V11.27C12.7 11.27 12.7 11.27 12.71 11.27C12.71 11.27 12.73 11.28 12.73 11.29C12.73 11.3 12.76 11.33 12.77 11.34V11.31L12.69 11.23C12.69 11.23 12.67 11.24 12.67 11.25H12.68Z" fill="black"/>
<path d="M12.62 11.3L12.59 11.31V11.34H12.61C12.61 11.34 12.64 11.38 12.66 11.39C12.66 11.39 12.69 11.39 12.72 11.41C12.75 11.42 12.81 11.47 12.81 11.47C12.81 11.47 12.72 11.36 12.68 11.29V11.24H12.63C12.63 11.24 12.63 11.27 12.62 11.28" fill="#009B3A"/>
<path d="M12.8 11.49C12.8 11.49 12.74 11.44 12.71 11.43C12.69 11.43 12.67 11.42 12.66 11.41C12.66 11.41 12.66 11.41 12.65 11.41C12.63 11.41 12.6 11.37 12.6 11.36L12.58 11.3H12.59C12.59 11.3 12.59 11.3 12.62 11.3V11.27L12.67 11.26V11.31C12.72 11.39 12.81 11.49 12.81 11.49H12.8ZM12.61 11.33C12.61 11.33 12.64 11.38 12.65 11.38C12.65 11.38 12.65 11.38 12.66 11.38C12.67 11.38 12.69 11.38 12.71 11.4C12.71 11.4 12.73 11.4 12.74 11.42C12.71 11.38 12.68 11.34 12.66 11.3V11.26H12.63C12.63 11.27 12.63 11.29 12.61 11.3H12.59V11.32L12.61 11.33Z" fill="black"/>
<path d="M12.27 11.23C12.27 11.23 12.3 11.26 12.32 11.27C12.34 11.28 12.4 11.32 12.44 11.33C12.45 11.33 12.51 11.33 12.51 11.33C12.51 11.31 12.54 11.3 12.54 11.3H12.46C12.4 11.29 12.35 11.26 12.31 11.22C12.36 11.25 12.43 11.3 12.49 11.3C12.73 11.28 12.42 11.27 12.39 11.25C12.36 11.23 12.34 11.2 12.34 11.2H12.27C12.27 11.2 12.24 11.2 12.27 11.23Z" fill="#009B3A"/>
<path d="M12.52 11.34C12.52 11.34 12.46 11.34 12.45 11.34C12.42 11.34 12.37 11.31 12.32 11.28C12.3 11.27 12.28 11.26 12.27 11.24C12.27 11.24 12.25 11.22 12.25 11.21C12.25 11.2 12.27 11.2 12.27 11.2H12.34C12.34 11.2 12.36 11.23 12.39 11.25C12.39 11.25 12.45 11.26 12.49 11.26C12.58 11.26 12.59 11.27 12.59 11.28C12.59 11.28 12.59 11.29 12.54 11.3C12.54 11.3 12.52 11.31 12.52 11.33V11.34ZM12.28 11.22C12.28 11.22 12.31 11.25 12.33 11.26C12.38 11.29 12.42 11.31 12.45 11.31C12.45 11.31 12.49 11.31 12.51 11.31C12.51 11.31 12.51 11.31 12.51 11.3H12.48C12.48 11.3 12.48 11.3 12.47 11.3C12.41 11.3 12.36 11.27 12.31 11.22H12.32H12.33C12.34 11.22 12.36 11.24 12.38 11.25C12.36 11.24 12.35 11.22 12.34 11.21H12.27C12.27 11.21 12.27 11.21 12.28 11.22ZM12.48 11.29C12.51 11.29 12.53 11.29 12.54 11.29C12.52 11.29 12.5 11.29 12.48 11.29C12.44 11.29 12.41 11.29 12.39 11.28C12.41 11.29 12.44 11.3 12.46 11.3H12.47L12.48 11.29Z" fill="black"/>
<path d="M12.55 11.37C12.55 11.37 12.58 11.37 12.58 11.35C12.58 11.33 12.58 11.32 12.55 11.31C12.54 11.31 12.51 11.31 12.51 11.33C12.51 11.35 12.54 11.37 12.54 11.37C12.54 11.37 12.54 11.37 12.56 11.37M12.58 11.23C12.58 11.23 12.55 11.25 12.56 11.28C12.56 11.31 12.62 11.3 12.62 11.3C12.62 11.3 12.62 11.29 12.62 11.26C12.62 11.23 12.6 11.23 12.58 11.23Z" fill="#009B3A"/>
<path d="M12.55 11.37C12.55 11.37 12.54 11.37 12.53 11.37C12.53 11.37 12.51 11.36 12.5 11.34V11.32C12.51 11.29 12.54 11.29 12.55 11.3C12.55 11.3 12.55 11.29 12.54 11.28C12.54 11.26 12.54 11.24 12.54 11.23C12.54 11.23 12.55 11.23 12.56 11.23C12.56 11.23 12.61 11.24 12.61 11.27C12.61 11.3 12.61 11.31 12.61 11.31H12.6C12.6 11.31 12.58 11.32 12.56 11.31C12.57 11.31 12.58 11.33 12.57 11.35C12.57 11.37 12.55 11.38 12.53 11.38L12.55 11.37ZM12.54 11.31C12.54 11.31 12.52 11.31 12.52 11.32L12.54 11.34C12.54 11.34 12.54 11.34 12.55 11.34C12.55 11.34 12.57 11.34 12.57 11.33C12.57 11.31 12.57 11.31 12.55 11.3C12.55 11.3 12.55 11.3 12.54 11.3V11.31ZM12.58 11.24C12.58 11.24 12.58 11.24 12.57 11.24C12.57 11.24 12.57 11.25 12.57 11.28C12.58 11.28 12.6 11.28 12.61 11.28C12.61 11.28 12.61 11.27 12.61 11.25C12.61 11.23 12.6 11.23 12.57 11.23L12.58 11.24Z" fill="black"/>
<path d="M12.66 11.25C12.67 11.25 12.68 11.22 12.68 11.22C12.68 11.19 12.66 11.18 12.66 11.18C12.62 11.18 12.62 11.21 12.62 11.21C12.61 11.26 12.65 11.26 12.65 11.26M12.48 11.09C12.48 11.09 12.5 11.13 12.51 11.13C12.51 11.13 12.54 11.16 12.55 11.18C12.55 11.19 12.59 11.25 12.59 11.25C12.59 11.25 12.57 11.17 12.57 11.16C12.57 11.14 12.54 11.12 12.53 11.1C12.53 11.1 12.51 11.08 12.5 11.06C12.53 11.1 12.6 11.2 12.62 11.25C12.62 11.25 12.62 11.2 12.62 11.17C12.62 11.09 12.59 11.07 12.58 11.06C12.57 11.04 12.54 11.02 12.52 11.01C12.5 11.01 12.47 10.99 12.45 10.98C12.42 10.98 12.45 11 12.45 11.02C12.46 11.04 12.47 11.07 12.47 11.08" fill="#009B3A"/>
<path d="M12.59 11.26C12.59 11.26 12.56 11.19 12.55 11.18C12.55 11.17 12.51 11.14 12.51 11.14C12.51 11.14 12.48 11.11 12.48 11.09C12.48 11.09 12.47 11.05 12.46 11.03C12.46 11.03 12.46 11.03 12.46 11.02C12.46 11.01 12.45 11 12.46 10.99H12.48C12.5 10.99 12.51 11 12.53 11.01H12.55C12.57 11.01 12.6 11.04 12.62 11.06C12.62 11.06 12.65 11.1 12.65 11.18C12.65 11.18 12.67 11.18 12.69 11.18C12.7 11.18 12.72 11.2 12.72 11.23C12.72 11.23 12.71 11.26 12.69 11.27C12.69 11.27 12.67 11.27 12.66 11.27H12.64C12.64 11.27 12.64 11.27 12.64 11.26C12.64 11.26 12.64 11.26 12.64 11.27H12.63L12.59 11.26ZM12.66 11.18H12.65V11.2C12.65 11.21 12.65 11.22 12.65 11.23C12.65 11.23 12.66 11.23 12.67 11.23C12.67 11.23 12.68 11.22 12.69 11.21C12.69 11.19 12.68 11.18 12.68 11.18H12.66ZM12.49 11.09C12.49 11.09 12.49 11.11 12.51 11.13C12.51 11.13 12.54 11.16 12.55 11.18C12.55 11.18 12.57 11.21 12.58 11.23C12.58 11.22 12.58 11.2 12.57 11.19C12.54 11.15 12.51 11.1 12.49 11.08H12.5C12.5 11.09 12.52 11.11 12.52 11.11C12.52 11.11 12.55 11.15 12.56 11.17C12.56 11.17 12.56 11.17 12.56 11.19C12.56 11.2 12.58 11.21 12.58 11.22C12.58 11.21 12.58 11.19 12.58 11.18C12.58 11.11 12.56 11.09 12.55 11.08C12.55 11.08 12.51 11.04 12.49 11.03C12.49 11.03 12.48 11.03 12.47 11.03C12.46 11.03 12.44 11.02 12.42 11.01C12.42 11.01 12.42 11.02 12.42 11.03C12.43 11.05 12.44 11.08 12.45 11.1L12.49 11.09Z" fill="black"/>
<path d="M12.38 11.22C12.38 11.22 12.42 11.26 12.47 11.27C12.53 11.27 12.53 11.27 12.53 11.27C12.53 11.27 12.56 11.26 12.54 11.24C12.46 11.2 12.38 11.16 12.34 11.11C12.34 11.11 12.34 11.11 12.38 11.13C12.4 11.15 12.41 11.16 12.42 11.16C12.45 11.18 12.46 11.19 12.49 11.2C12.51 11.2 12.55 11.22 12.55 11.22C12.55 11.22 12.55 11.21 12.56 11.21C12.56 11.21 12.56 11.19 12.52 11.16C12.5 11.14 12.48 11.13 12.47 11.11C12.47 11.11 12.43 11.11 12.39 11.09C12.36 11.09 12.3 11.04 12.3 11.05C12.3 11.06 12.3 11.11 12.33 11.13C12.35 11.16 12.36 11.18 12.39 11.21" fill="#009B3A"/>
<path d="M12.53 11.28C12.53 11.28 12.5 11.28 12.47 11.28C12.42 11.28 12.4 11.26 12.38 11.24V11.23C12.38 11.23 12.34 11.19 12.32 11.16C12.32 11.16 12.29 11.08 12.29 11.07V11.06C12.29 11.06 12.31 11.06 12.33 11.07C12.35 11.08 12.37 11.09 12.39 11.1C12.43 11.1 12.48 11.12 12.48 11.12C12.49 11.14 12.51 11.16 12.53 11.17C12.55 11.19 12.57 11.21 12.57 11.23C12.57 11.23 12.57 11.24 12.57 11.25C12.57 11.26 12.55 11.27 12.55 11.27C12.55 11.27 12.55 11.27 12.54 11.27L12.53 11.28ZM12.39 11.21C12.39 11.21 12.42 11.25 12.47 11.25C12.51 11.25 12.52 11.25 12.53 11.25C12.53 11.25 12.54 11.25 12.54 11.24C12.44 11.2 12.37 11.15 12.34 11.11V11.1C12.34 11.1 12.36 11.1 12.39 11.12C12.41 11.14 12.42 11.14 12.43 11.15C12.46 11.17 12.47 11.17 12.49 11.19H12.5C12.5 11.19 12.53 11.21 12.55 11.21C12.55 11.21 12.54 11.19 12.52 11.17C12.5 11.15 12.48 11.14 12.47 11.12C12.46 11.12 12.43 11.12 12.39 11.1C12.37 11.1 12.35 11.08 12.33 11.07C12.33 11.07 12.32 11.07 12.31 11.07C12.31 11.09 12.32 11.12 12.33 11.14C12.33 11.14 12.36 11.19 12.38 11.22L12.39 11.21Z" fill="black"/>
<path d="M11.92 12.89L11.71 12.97L11.66 12.99C11.73 12.97 11.78 13.01 11.78 13.01L11.98 12.92C11.98 12.92 11.94 12.9 11.92 12.91" fill="#009B3A"/>
<path d="M11.79 13.01C11.79 13.01 11.74 12.97 11.67 12.99L11.72 12.96C11.72 12.96 11.9 12.89 11.93 12.88C11.96 12.88 12 12.9 12 12.9C12 12.9 12 12.9 12 12.91L11.79 13.01ZM11.71 12.97C11.71 12.97 11.78 12.99 11.79 12.99L11.98 12.9C11.98 12.9 11.94 12.88 11.92 12.89C11.92 12.89 11.72 12.96 11.71 12.97Z" fill="black"/>
<path d="M11.65 12.99C11.66 12.99 11.65 12.99 11.7 13C11.75 13 11.78 13 11.78 12.99C11.78 12.98 11.67 12.96 11.64 12.99" fill="#009B3A"/>
<path d="M11.73 13.02C11.73 13.02 11.71 13.02 11.7 13.02C11.66 13.02 11.66 13.02 11.65 13.01C11.65 13.01 11.65 13.01 11.65 13C11.65 13 11.79 13 11.8 13C11.8 13 11.8 13 11.8 13.01C11.8 13.01 11.77 13.03 11.74 13.03L11.73 13.02ZM11.66 12.99C11.66 12.99 11.66 12.99 11.71 12.99C11.74 12.99 11.77 12.99 11.78 12.99C11.76 12.99 11.69 12.98 11.66 12.99Z" fill="black"/>
<path d="M11.36 12.33V12.27C11.36 12.27 11.34 12.12 11.32 12.09C11.32 12.09 11.32 12.07 11.31 12.07C11.29 12.07 11.29 12.12 11.29 12.16C11.26 12.39 11.44 12.56 11.44 12.56L11.37 12.33H11.36Z" fill="#009B3A"/>
<path d="M11.43 12.57C11.43 12.57 11.24 12.39 11.28 12.16C11.28 12.11 11.28 12.08 11.3 12.06C11.3 12.06 11.31 12.06 11.32 12.06C11.34 12.06 11.34 12.08 11.34 12.08C11.36 12.11 11.37 12.25 11.37 12.27V12.33L11.45 12.56H11.43V12.57ZM11.31 12.08C11.31 12.08 11.3 12.12 11.3 12.15C11.28 12.33 11.36 12.46 11.41 12.52L11.35 12.33V12.27C11.34 12.21 11.33 12.11 11.31 12.09C11.31 12.09 11.31 12.09 11.31 12.08Z" fill="black"/>
<path d="M12.26 13.01C12.26 13.01 12.24 13.01 12.26 12.99C12.27 12.98 12.31 12.97 12.31 12.97C12.31 12.97 12.34 12.97 12.35 12.97C12.36 12.97 12.38 12.99 12.38 13C12.38 13 12.35 13.02 12.33 13.02C12.31 13.02 12.3 13.02 12.29 13.02H12.27" fill="#009B3A"/>
<path d="M12.33 13.03C12.33 13.03 12.29 13.03 12.28 13.03H12.26C12.26 13.03 12.25 13.03 12.24 13.02C12.24 13.02 12.24 13.01 12.24 13C12.25 12.98 12.29 12.97 12.3 12.97C12.3 12.97 12.33 12.97 12.34 12.97C12.35 12.97 12.37 12.98 12.38 12.99V13C12.38 13.01 12.35 13.02 12.32 13.02L12.33 13.03ZM12.27 13C12.27 13 12.27 13 12.29 13C12.29 13 12.31 13 12.33 13C12.36 13 12.37 12.99 12.37 12.98C12.37 12.98 12.36 12.98 12.35 12.97C12.34 12.97 12.32 12.97 12.31 12.97C12.31 12.97 12.27 12.97 12.26 12.99L12.27 13Z" fill="black"/>
<path d="M12.07 12.9C12.07 12.9 12.01 12.87 11.95 12.84C11.87 12.8 11.78 12.75 11.71 12.65C11.63 12.53 11.56 12.47 11.54 12.45C11.52 12.44 11.52 12.43 11.51 12.45C11.51 12.45 11.51 12.46 11.51 12.47C11.53 12.5 11.57 12.55 11.58 12.58C11.61 12.63 11.66 12.68 11.66 12.71H11.64C11.64 12.71 11.52 12.67 11.47 12.52C11.43 12.41 11.45 12.38 11.44 12.33C11.43 12.23 11.42 12.23 11.37 12.12C11.37 12.12 11.34 12.07 11.34 12.08C11.34 12.09 11.34 12.14 11.34 12.14V12.2C11.34 12.2 11.34 12.32 11.34 12.33C11.34 12.34 11.31 12.41 11.44 12.54C11.44 12.54 11.44 12.56 11.42 12.54C11.41 12.53 11.31 12.45 11.28 12.33C11.25 12.21 11.25 12.09 11.27 12.04C11.29 12 11.33 11.89 11.31 11.79C11.31 11.78 11.31 11.75 11.3 11.76C11.3 11.76 11.29 11.81 11.28 11.83C11.28 11.85 11.25 11.88 11.25 11.89C11.25 11.92 11.2 11.96 11.2 12.04C11.21 12.13 11.22 12.14 11.23 12.17C11.23 12.18 11.24 12.21 11.23 12.21L11.21 12.18C11.21 12.18 11.13 12.02 11.18 11.88C11.23 11.75 11.36 11.62 11.36 11.62C11.36 11.62 11.47 11.53 11.49 11.51V11.5C11.46 11.5 11.26 11.55 11.19 11.79V11.78C11.19 11.78 11.24 11.61 11.36 11.53C11.5 11.44 11.48 11.46 11.53 11.43C11.56 11.41 11.58 11.39 11.62 11.34C11.62 11.34 11.64 11.3 11.63 11.3C11.63 11.3 11.63 11.3 11.62 11.31C11.62 11.31 11.58 11.37 11.52 11.39C11.46 11.41 11.41 11.39 11.35 11.45C11.29 11.52 11.24 11.61 11.24 11.61L11.22 11.63V11.61C11.22 11.61 11.3 11.44 11.36 11.41C11.42 11.38 11.48 11.34 11.52 11.32C11.56 11.29 11.64 11.2 11.67 11.17C11.67 11.17 11.72 11.12 11.73 11.11L11.75 11.09L11.71 11.1C11.71 11.1 11.5 11.16 11.37 11.35C11.37 11.35 11.35 11.38 11.34 11.39C11.33 11.4 11.32 11.43 11.32 11.43L11.39 11.32V11.25C11.39 11.25 11.43 11.15 11.48 11.08L11.52 11.04C11.53 11.03 11.5 11.04 11.51 11.04C11.51 11.04 11.32 11.18 11.32 11.36C11.32 11.39 11.3 11.42 11.27 11.46C11.24 11.51 11.23 11.53 11.21 11.6C11.21 11.63 11.2 11.66 11.19 11.69C11.19 11.69 11.19 11.72 11.19 11.71V11.69C11.19 11.69 11.21 11.56 11.22 11.52C11.23 11.48 11.24 11.45 11.24 11.45C11.24 11.45 11.24 11.35 11.25 11.3C11.27 11.25 11.32 11.19 11.32 11.18C11.32 11.18 11.34 11.13 11.35 11.08C11.35 11.08 11.35 11.08 11.34 11.1C11.32 11.15 11.3 11.16 11.27 11.21C11.27 11.21 11.18 11.28 11.15 11.47C11.15 11.47 11.15 11.54 11.14 11.66C11.14 11.74 11.14 11.82 11.14 11.87C11.14 11.9 11.16 11.9 11.15 11.9C11.15 11.9 11.15 11.9 11.15 11.88C11.14 11.85 11.13 11.81 11.13 11.76C11.13 11.66 11.13 11.58 11.13 11.58C11.13 11.58 11.13 11.42 11.07 11.34C11.07 11.34 11.08 11.37 11.09 11.41C11.09 11.46 11.09 11.52 11.08 11.54C11.08 11.56 11.03 11.67 11.05 11.77C11.05 11.77 11.09 11.94 11.14 12.03C11.11 12 11.06 11.86 11.05 11.85C11.05 11.84 11.01 11.76 10.97 11.72C10.95 11.7 10.9 11.67 10.9 11.67C10.92 11.69 10.94 11.73 10.95 11.75C10.97 11.79 10.99 11.83 11.01 11.87C11.03 11.91 11.07 12.02 11.07 12.02L11.1 12.09C11.1 12.09 11.14 12.11 11.17 12.14C11.19 12.16 11.23 12.21 11.26 12.3C11.28 12.34 11.31 12.38 11.31 12.38C11.31 12.38 11.31 12.39 11.28 12.35C11.25 12.3 11.23 12.21 11.16 12.14C11.11 12.09 10.98 12.03 10.98 12.03C10.98 12.03 11.06 12.18 11.09 12.2C11.13 12.24 11.18 12.3 11.19 12.32C11.2 12.34 11.28 12.43 11.3 12.45C11.32 12.47 11.33 12.49 11.34 12.5C11.36 12.52 11.42 12.56 11.43 12.57C11.4 12.55 11.37 12.53 11.34 12.51C11.31 12.49 11.17 12.43 11.09 12.31C11.07 12.27 11.06 12.26 11.05 12.26C11.04 12.26 11.11 12.5 11.25 12.57C11.25 12.57 11.41 12.64 11.44 12.66C11.46 12.67 11.5 12.69 11.52 12.7C11.53 12.7 11.52 12.7 11.51 12.7C11.43 12.7 11.3 12.68 11.23 12.64C11.25 12.66 11.29 12.72 11.37 12.76C11.45 12.79 11.56 12.81 11.6 12.82C11.64 12.82 11.78 12.82 11.81 12.83C11.84 12.83 11.88 12.87 11.91 12.88C11.93 12.88 12.01 12.92 12.01 12.92C12.01 12.92 12.03 12.93 12.04 12.94C12.05 12.94 12.11 12.94 12.11 12.94L12.09 12.92" fill="#009B3A"/>
<path d="M12.04 12.94H12.01C12 12.94 11.98 12.92 11.98 12.92C11.98 12.92 11.91 12.89 11.89 12.89C11.88 12.89 11.86 12.88 11.84 12.87C11.82 12.87 11.8 12.85 11.79 12.85C11.77 12.85 11.69 12.85 11.63 12.85C11.61 12.85 11.59 12.85 11.58 12.85C11.54 12.85 11.43 12.83 11.35 12.79C11.28 12.76 11.24 12.71 11.22 12.68C11.22 12.68 11.22 12.68 11.21 12.67C11.21 12.66 11.19 12.65 11.21 12.64C11.21 12.64 11.22 12.64 11.24 12.64C11.32 12.68 11.45 12.69 11.52 12.7C11.51 12.7 11.49 12.68 11.48 12.68C11.47 12.68 11.46 12.67 11.45 12.67C11.42 12.65 11.26 12.58 11.26 12.58C11.12 12.51 11.05 12.3 11.05 12.27C11.05 12.27 11.05 12.27 11.05 12.26C11.06 12.26 11.08 12.27 11.1 12.31C11.17 12.41 11.27 12.46 11.32 12.49C11.32 12.49 11.31 12.47 11.3 12.46C11.29 12.44 11.21 12.35 11.2 12.33C11.2 12.33 11.19 12.31 11.18 12.3C11.16 12.27 11.13 12.24 11.1 12.21C11.08 12.18 11 12.04 10.99 12.03V12.01C10.99 12.01 11.05 12.03 11.1 12.06L11.08 12.01C11.08 12.01 11.04 11.9 11.02 11.86C11 11.82 10.98 11.78 10.96 11.75C10.96 11.75 10.96 11.74 10.95 11.73C10.94 11.71 10.92 11.68 10.91 11.67C10.91 11.66 10.9 11.65 10.91 11.65C10.91 11.65 10.92 11.65 10.93 11.65C10.93 11.65 10.98 11.68 11 11.7C11.04 11.74 11.08 11.82 11.08 11.83C11.07 11.79 11.06 11.75 11.06 11.75C11.05 11.67 11.07 11.58 11.09 11.54C11.09 11.53 11.09 11.52 11.09 11.52C11.09 11.52 11.09 11.52 11.09 11.51C11.09 11.48 11.11 11.43 11.09 11.39C11.09 11.37 11.08 11.35 11.07 11.33C11.07 11.32 11.07 11.31 11.07 11.31C11.11 11.36 11.13 11.44 11.13 11.49C11.13 11.46 11.13 11.45 11.13 11.45C11.16 11.26 11.24 11.19 11.25 11.19C11.25 11.18 11.27 11.17 11.28 11.16C11.3 11.14 11.31 11.12 11.33 11.09C11.34 11.07 11.35 11.06 11.35 11.06C11.35 11.06 11.35 11.06 11.35 11.07C11.35 11.1 11.34 11.14 11.32 11.17C11.32 11.17 11.32 11.19 11.3 11.2C11.28 11.23 11.26 11.26 11.25 11.3C11.23 11.35 11.24 11.45 11.24 11.45C11.24 11.45 11.24 11.48 11.22 11.52C11.22 11.54 11.2 11.58 11.2 11.62C11.2 11.62 11.2 11.61 11.2 11.6C11.21 11.53 11.23 11.5 11.26 11.46C11.29 11.42 11.31 11.39 11.31 11.36C11.31 11.18 11.5 11.04 11.51 11.04C11.52 11.04 11.53 11.03 11.53 11.04V11.05C11.53 11.05 11.52 11.06 11.51 11.07L11.49 11.09C11.44 11.16 11.42 11.26 11.42 11.26V11.3C11.54 11.15 11.71 11.1 11.71 11.1C11.75 11.08 11.76 11.09 11.76 11.09C11.76 11.09 11.76 11.09 11.76 11.1C11.76 11.1 11.73 11.13 11.71 11.15C11.71 11.15 11.71 11.17 11.69 11.17C11.65 11.21 11.6 11.27 11.56 11.3C11.53 11.32 11.48 11.35 11.4 11.4C11.34 11.43 11.27 11.58 11.26 11.6C11.26 11.6 11.31 11.51 11.37 11.44C11.41 11.39 11.45 11.39 11.48 11.39C11.5 11.39 11.52 11.39 11.54 11.39C11.59 11.37 11.63 11.32 11.63 11.31C11.63 11.31 11.63 11.29 11.65 11.29L11.63 11.34C11.59 11.4 11.57 11.42 11.54 11.44C11.53 11.44 11.52 11.45 11.51 11.46C11.49 11.47 11.47 11.48 11.37 11.54C11.32 11.57 11.29 11.61 11.26 11.65C11.33 11.55 11.44 11.51 11.5 11.49C11.5 11.49 11.5 11.49 11.51 11.49C11.51 11.49 11.51 11.5 11.51 11.51C11.49 11.53 11.39 11.62 11.38 11.62C11.38 11.62 11.25 11.75 11.2 11.88C11.15 12.01 11.23 12.17 11.23 12.17C11.23 12.17 11.23 12.18 11.24 12.19C11.24 12.19 11.24 12.18 11.24 12.17C11.24 12.17 11.22 12.12 11.21 12.04C11.21 11.98 11.23 11.94 11.24 11.91L11.25 11.89C11.25 11.89 11.25 11.87 11.27 11.86C11.27 11.86 11.28 11.84 11.29 11.83C11.29 11.83 11.29 11.8 11.3 11.79C11.3 11.77 11.3 11.76 11.3 11.76C11.3 11.76 11.3 11.76 11.31 11.76C11.31 11.76 11.31 11.77 11.32 11.79C11.34 11.89 11.29 12.01 11.28 12.04C11.26 12.09 11.26 12.21 11.29 12.32C11.31 12.41 11.37 12.47 11.41 12.5C11.36 12.45 11.32 12.38 11.33 12.31V12.18V12.13C11.33 12.13 11.32 12.08 11.33 12.07L11.37 12.11C11.42 12.22 11.42 12.23 11.44 12.32C11.44 12.34 11.44 12.35 11.44 12.37C11.44 12.4 11.44 12.44 11.47 12.51C11.52 12.65 11.64 12.7 11.64 12.7C11.64 12.68 11.62 12.66 11.6 12.64C11.59 12.62 11.57 12.6 11.56 12.58C11.56 12.56 11.54 12.54 11.52 12.52C11.51 12.5 11.5 12.49 11.49 12.47C11.49 12.47 11.48 12.45 11.49 12.44C11.49 12.44 11.49 12.44 11.5 12.44C11.5 12.44 11.51 12.44 11.52 12.44C11.54 12.46 11.61 12.52 11.69 12.64C11.75 12.73 11.84 12.79 11.92 12.83C11.98 12.86 12.04 12.89 12.04 12.89C12.04 12.89 12.06 12.91 12.06 12.92C12.06 12.92 12.04 12.92 12.02 12.92L12.04 12.94ZM11.22 12.65C11.24 12.68 11.28 12.73 11.34 12.75C11.41 12.78 11.53 12.8 11.57 12.8C11.58 12.8 11.6 12.8 11.62 12.8C11.7 12.8 11.76 12.8 11.78 12.81C11.79 12.81 11.81 12.82 11.83 12.83C11.85 12.83 11.87 12.85 11.88 12.85C11.9 12.85 11.97 12.88 11.98 12.89C11.98 12.89 12 12.9 12.01 12.91C12.02 12.91 12.07 12.91 12.07 12.91C12.07 12.91 12.07 12.91 12.06 12.9C12.06 12.9 11.99 12.87 11.94 12.84C11.86 12.8 11.76 12.75 11.7 12.65C11.62 12.53 11.55 12.47 11.53 12.45C11.53 12.45 11.53 12.45 11.53 12.47C11.53 12.48 11.55 12.5 11.56 12.51C11.58 12.53 11.59 12.56 11.6 12.57C11.6 12.59 11.62 12.61 11.64 12.63C11.66 12.66 11.68 12.69 11.68 12.71C11.68 12.71 11.68 12.71 11.66 12.71C11.66 12.71 11.53 12.67 11.48 12.51C11.45 12.43 11.45 12.4 11.45 12.36C11.45 12.34 11.45 12.33 11.45 12.31C11.44 12.22 11.43 12.21 11.39 12.1C11.39 12.1 11.38 12.08 11.37 12.07C11.37 12.08 11.37 12.1 11.37 12.12V12.18V12.31C11.36 12.38 11.42 12.46 11.47 12.51C11.47 12.51 11.47 12.52 11.47 12.53H11.45C11.43 12.51 11.37 12.45 11.33 12.37C11.33 12.37 11.31 12.37 11.29 12.33C11.29 12.32 11.27 12.3 11.27 12.28C11.25 12.23 11.22 12.17 11.18 12.13C11.14 12.09 11.06 12.05 11.02 12.03C11.04 12.07 11.1 12.16 11.11 12.18C11.13 12.21 11.16 12.24 11.19 12.27C11.2 12.28 11.21 12.29 11.21 12.3C11.22 12.32 11.3 12.41 11.32 12.43C11.33 12.45 11.35 12.46 11.35 12.47C11.35 12.47 11.39 12.51 11.41 12.52C11.43 12.53 11.44 12.54 11.44 12.54C11.42 12.53 11.41 12.52 11.39 12.51C11.38 12.5 11.36 12.49 11.35 12.48C11.35 12.48 11.33 12.48 11.32 12.46C11.27 12.43 11.17 12.37 11.09 12.27C11.09 12.26 11.07 12.24 11.06 12.23C11.06 12.27 11.14 12.46 11.26 12.52C11.26 12.52 11.42 12.59 11.46 12.61C11.46 12.61 11.48 12.61 11.49 12.62C11.51 12.62 11.53 12.64 11.54 12.65V12.66H11.52C11.45 12.66 11.33 12.64 11.25 12.6L11.22 12.65ZM11.11 12.08C11.11 12.08 11.16 12.11 11.18 12.13C11.22 12.17 11.25 12.23 11.28 12.29C11.28 12.31 11.3 12.32 11.31 12.34C11.28 12.22 11.28 12.1 11.3 12.05C11.31 12.02 11.36 11.9 11.34 11.8C11.34 11.82 11.34 11.83 11.33 11.84C11.33 11.85 11.32 11.86 11.31 11.87C11.31 11.88 11.3 11.89 11.3 11.9C11.3 11.9 11.3 11.92 11.29 11.93C11.27 11.96 11.25 11.99 11.26 12.05C11.26 12.13 11.28 12.15 11.28 12.18C11.28 12.18 11.29 12.23 11.28 12.24C11.28 12.24 11.28 12.24 11.25 12.2C11.25 12.2 11.17 12.03 11.22 11.9C11.27 11.77 11.4 11.64 11.4 11.64C11.4 11.64 11.5 11.56 11.53 11.53C11.44 11.55 11.3 11.62 11.25 11.81C11.25 11.81 11.25 11.82 11.24 11.82C11.24 11.82 11.24 11.81 11.24 11.8C11.24 11.78 11.29 11.62 11.41 11.55C11.51 11.49 11.53 11.48 11.55 11.47C11.55 11.47 11.57 11.47 11.58 11.45C11.6 11.44 11.63 11.41 11.66 11.36C11.64 11.38 11.61 11.41 11.57 11.43C11.55 11.43 11.53 11.43 11.51 11.43C11.47 11.43 11.44 11.43 11.41 11.47C11.35 11.53 11.31 11.62 11.31 11.62C11.29 11.65 11.29 11.65 11.28 11.65C11.28 11.65 11.28 11.63 11.28 11.62C11.28 11.62 11.36 11.45 11.43 11.42C11.5 11.38 11.55 11.35 11.58 11.33C11.62 11.3 11.67 11.24 11.71 11.2C11.71 11.2 11.72 11.19 11.73 11.18C11.73 11.18 11.77 11.13 11.78 11.12H11.76C11.76 11.12 11.55 11.18 11.42 11.37C11.42 11.37 11.4 11.4 11.39 11.41C11.39 11.42 11.39 11.43 11.39 11.43C11.39 11.43 11.39 11.43 11.39 11.4C11.4 11.38 11.42 11.36 11.45 11.32V11.26C11.45 11.26 11.49 11.16 11.54 11.09C11.48 11.14 11.39 11.25 11.39 11.37C11.39 11.4 11.37 11.43 11.34 11.47C11.31 11.51 11.3 11.54 11.29 11.61C11.29 11.64 11.28 11.67 11.27 11.69C11.27 11.69 11.27 11.71 11.27 11.72C11.26 11.72 11.26 11.7 11.26 11.69C11.26 11.69 11.28 11.56 11.29 11.52C11.3 11.49 11.31 11.46 11.31 11.46C11.31 11.45 11.31 11.36 11.32 11.31C11.33 11.28 11.36 11.24 11.38 11.21C11.38 11.2 11.39 11.19 11.4 11.18C11.4 11.16 11.42 11.14 11.42 11.12C11.41 11.14 11.4 11.16 11.38 11.18C11.38 11.18 11.36 11.2 11.35 11.21C11.35 11.21 11.26 11.28 11.23 11.47C11.23 11.47 11.23 11.54 11.22 11.66C11.22 11.74 11.22 11.82 11.22 11.87C11.22 11.87 11.22 11.87 11.22 11.88C11.22 11.88 11.2 11.82 11.2 11.76C11.2 11.66 11.2 11.58 11.2 11.58C11.2 11.58 11.2 11.46 11.17 11.39C11.17 11.39 11.17 11.41 11.17 11.42C11.17 11.46 11.17 11.52 11.17 11.54C11.17 11.54 11.17 11.54 11.17 11.55C11.17 11.55 11.17 11.56 11.17 11.58C11.16 11.62 11.13 11.71 11.14 11.79C11.14 11.79 11.17 11.94 11.22 12.02L11.23 12.04C11.24 12.06 11.25 12.06 11.24 12.06C11.24 12.06 11.24 12.06 11.22 12.04C11.22 12.04 11.22 12.03 11.21 12.02C11.19 11.98 11.16 11.91 11.14 11.86C11.14 11.86 11.1 11.77 11.06 11.73C11.05 11.72 11.01 11.7 11 11.69C11.01 11.71 11.03 11.73 11.04 11.75C11.04 11.75 11.04 11.76 11.04 11.77C11.06 11.81 11.08 11.85 11.1 11.89C11.12 11.93 11.16 12.04 11.16 12.04L11.19 12.11L11.11 12.08Z" fill="black"/>
<path d="M12.99 11.69L13.01 11.74C13.01 11.74 13.01 11.71 13.01 11.7C13.01 11.69 13.01 11.64 13.01 11.64H13L12.97 11.69C12.97 11.69 12.97 11.69 13 11.69" fill="#009B3A"/>
<path d="M13.01 11.75C13.01 11.75 13 11.71 12.99 11.7H12.97H12.95V11.69C12.95 11.69 12.96 11.66 12.98 11.65L13.01 11.63C13.01 11.63 13.01 11.7 13.01 11.71C13.01 11.72 13.01 11.75 13.01 11.75ZM12.98 11.68C12.98 11.68 12.98 11.68 12.99 11.68C12.99 11.67 12.99 11.66 12.99 11.65C12.99 11.65 12.98 11.67 12.97 11.67L12.98 11.68Z" fill="black"/>
</svg>
