<svg width="24" height="24" viewBox="0 0 24 24" fill="none" xmlns="http://www.w3.org/2000/svg">
<path d="M0 4H24V12L3.73 19.82L0 4Z" fill="#0038A8"/>
<path d="M3.73 12H24V20H0L3.73 12Z" fill="#CE1126"/>
<path d="M10.39 12L0 20V4L10.39 12Z" fill="white"/>
<path d="M6.11 11.84L5.98 11.7L5.85 11.57L4.91 11.76C4.88 11.6 4.82 11.46 4.73 11.33L5.53 10.8V10.62V10.43V10.21H5.12H4.94L4.41 11.01C4.28 10.92 4.13 10.86 3.98 10.83L4.17 9.89L4.04 9.76L3.9 9.63L3.74 9.47L3.58 9.63L3.44 9.76L3.31 9.89L3.5 10.83C3.34 10.86 3.2 10.92 3.07 11.01L2.54 10.21H2.36H2.17H1.95V10.62V10.8L2.75 11.33C2.66 11.46 2.6 11.61 2.57 11.76L1.63 11.57L1.5 11.7L1.37 11.84L1.21 12L1.37 12.16L1.5 12.3L1.63 12.43L2.57 12.24C2.6 12.4 2.66 12.54 2.75 12.67L1.95 13.2V13.38V13.57V13.79H2.36H2.54L3.07 12.99C3.2 13.08 3.35 13.14 3.5 13.17L3.31 14.11L3.44 14.24L3.58 14.37L3.74 14.53L3.9 14.37L4.04 14.24L4.17 14.11L3.98 13.17C4.14 13.14 4.28 13.08 4.41 12.99L4.94 13.79H5.12H5.31H5.53V13.38V13.2L4.73 12.67C4.82 12.54 4.88 12.39 4.91 12.24L5.85 12.43L5.98 12.3L6.11 12.16L6.27 12L6.11 11.84Z" fill="#FCD116"/>
<path d="M9.19 12L8.74 12.16V12.64L8.44 12.26L7.98 12.4L8.25 12.01L7.98 11.62L8.44 11.76L8.73 11.38V11.86L9.19 12.02V12Z" fill="#FCD116"/>
<path d="M0.599999 18.11L0.689999 17.64L0.279999 17.39L0.749999 17.33L0.859999 16.87L1.06 17.3L1.54 17.26L1.19 17.59L1.38 18.03L0.959999 17.8L0.599999 18.11Z" fill="#FCD116"/>
<path d="M0.599999 5.89L0.959999 6.2L1.38 5.97L1.19 6.41L1.54 6.74L1.06 6.7L0.859999 7.13L0.749999 6.67L0.279999 6.61L0.689999 6.36L0.599999 5.89Z" fill="#FCD116"/>
</svg>
