<svg width="24" height="24" viewBox="0 0 24 24" fill="none" xmlns="http://www.w3.org/2000/svg">
<path d="M24 4H0V20H24V4Z" fill="#FF0000"/>
<path d="M9.6 4H0V20H9.6V4Z" fill="#006600"/>
<path fill-rule="evenodd" clip-rule="evenodd" d="M12.73 14.48C11.52 14.44 5.98 10.98 5.94 10.43L6.25 9.92001C6.8 10.72 12.46 14.08 13.02 13.96L12.73 14.47" fill="#FFFF00"/>
<path d="M12.73 14.49C12.09 14.47 10.26 13.49 8.89 12.66C8.11 12.18 7.38 11.7 6.84 11.3C6.43 11 5.94 10.6 5.93 10.43L6.24 9.92001C6.52 10.33 8.14 11.4 9.62 12.28C11.36 13.32 12.75 14.01 13 13.96C13 13.96 13 13.96 13.01 13.96C13.02 13.96 13.01 13.96 13.01 13.97L12.72 14.48C12.72 14.48 12.72 14.48 12.71 14.48L12.73 14.49ZM5.95 10.44C5.98 10.69 7.22 11.62 8.9 12.64C10.26 13.47 12.07 14.44 12.72 14.47L12.99 13.98C12.64 14 11.06 13.16 9.62 12.3C8.16 11.43 6.55 10.37 6.24 9.95001L5.94 10.44H5.95Z" fill="black"/>
<path fill-rule="evenodd" clip-rule="evenodd" d="M6.18 9.86002C6.07 10.15 7.63 11.11 9.5 12.25C11.37 13.39 12.98 14.09 13.1 13.99C13.1 13.98 13.16 13.89 13.15 13.89C13.13 13.92 13.07 13.93 12.99 13.91C12.48 13.76 11.17 13.16 9.54 12.17C7.91 11.18 6.49 10.27 6.27 9.88002C6.25 9.85002 6.24 9.80002 6.25 9.77002L6.2 9.85002V9.86002H6.18ZM12.76 14.5C12.76 14.5 12.7 14.54 12.63 14.53C12.18 14.48 10.81 13.81 9.18 12.84C7.29 11.71 5.73 10.68 5.9 10.41L5.95 10.33C5.8 10.79 9.03 12.64 9.22 12.75C11.09 13.91 12.66 14.58 12.8 14.41L12.75 14.5H12.76Z" fill="#FFFF00"/>
<path d="M12.68 14.54C12.68 14.54 12.64 14.54 12.62 14.54C12.16 14.49 10.77 13.81 9.17 12.85C7.03 11.57 5.95 10.8 5.88 10.49C5.88 10.46 5.88 10.43 5.89 10.4L5.94 10.32C5.94 10.32 5.94 10.32 5.95 10.32C5.83 10.67 7.86 11.93 9.09 12.65C9.16 12.69 9.2 12.71 9.22 12.73C11.07 13.87 12.65 14.56 12.79 14.39C12.79 14.39 12.8 14.39 12.81 14.39C12.81 14.39 12.81 14.4 12.81 14.41L12.76 14.5C12.74 14.53 12.71 14.54 12.68 14.54ZM5.94 10.37L5.91 10.42C5.91 10.42 5.9 10.46 5.91 10.49C5.98 10.79 7.06 11.56 9.19 12.84C10.79 13.8 12.17 14.48 12.63 14.53C12.7 14.53 12.73 14.53 12.75 14.51L12.78 14.46C12.45 14.56 10.7 13.69 9.22 12.78C9.2 12.77 9.16 12.74 9.09 12.7C7 11.47 5.94 10.69 5.94 10.38V10.37ZM13.06 14.01C12.74 14.01 11.12 13.25 9.49 12.26C7.48 11.04 6.06 10.15 6.17 9.86001L6.22 9.76001C6.22 9.76001 6.22 9.76001 6.23 9.76001C6.23 9.79001 6.23 9.84001 6.25 9.87001C6.48 10.28 8.12 11.31 9.52 12.16C11.05 13.09 12.42 13.74 12.97 13.9C13.04 13.92 13.1 13.92 13.12 13.88C13.12 13.88 13.12 13.88 13.13 13.88C13.13 13.88 13.13 13.88 13.08 13.98V13.99C13.08 13.99 13.05 14 13.03 14L13.06 14.01ZM6.19 9.86001C6.08 10.16 7.9 11.26 9.5 12.24C11.42 13.41 12.97 14.07 13.09 13.98C13.09 13.98 13.11 13.94 13.12 13.92C13.09 13.93 13.04 13.92 12.99 13.92C12.43 13.76 11.07 13.11 9.53 12.18C6.86 10.56 6.38 10.1 6.25 9.89001C6.24 9.87001 6.23 9.83001 6.23 9.80001L6.19 9.87001V9.86001Z" fill="black"/>
<path fill-rule="evenodd" clip-rule="evenodd" d="M9.61 10.77C10.82 10.77 12.31 10.6 13.17 10.26L12.98 9.95999C12.47 10.24 10.97 10.43 9.59 10.45C7.96 10.44 6.81 10.28 6.23 9.89999L6.06 10.22C7.12 10.67 8.2 10.76 9.6 10.77" fill="#FFFF00"/>
<path d="M9.61 10.78C8.21 10.78 7.13 10.68 6.06 10.23L6.23 9.91C6.77 10.27 7.83 10.45 9.58 10.46C11.36 10.42 12.58 10.18 12.96 9.97C12.96 9.97 12.97 9.97 12.98 9.97L13.17 10.27C12.58 10.51 11.33 10.76 9.61 10.78ZM6.08 10.22C7.14 10.67 8.21 10.76 9.6 10.76C11.31 10.75 12.55 10.49 13.14 10.26L12.97 9.98C12.57 10.19 11.35 10.43 9.59 10.47C7.85 10.45 6.78 10.28 6.24 9.92L6.08 10.22Z" fill="black"/>
<path fill-rule="evenodd" clip-rule="evenodd" d="M13.22 10.27C13.22 10.27 12.63 10.51 11.81 10.65C11.25 10.74 10.52 10.81 9.61 10.81C8.74 10.81 8.04 10.75 7.5 10.68C6.63 10.54 6.19 10.36 6.02 10.29C6.04 10.26 6.05 10.24 6.06 10.21C6.54 10.4 6.98 10.51 7.51 10.59C8.04 10.66 8.74 10.72 9.6 10.72C10.51 10.72 11.23 10.64 11.78 10.56C12.63 10.42 13.09 10.25 13.15 10.17L13.21 10.27H13.22ZM13.06 9.96002C12.97 10.03 12.51 10.2 11.71 10.32C11.17 10.4 10.49 10.47 9.62 10.47C8.79 10.47 8.12 10.41 7.6 10.34C6.78 10.23 6.35 10.04 6.19 9.98002C6.21 9.95002 6.22 9.93002 6.24 9.90002C6.36 9.96002 6.78 10.13 7.61 10.25C8.12 10.32 8.8 10.38 9.62 10.38C10.49 10.38 11.16 10.31 11.7 10.23C12.51 10.12 12.94 9.91002 13.01 9.86002L13.07 9.96002H13.06Z" fill="#FFFF00"/>
<path d="M9.59 10.82C8.86 10.82 8.15 10.78 7.5 10.69C6.66 10.56 6.21 10.37 6.04 10.3H6.02V10.29C6.02 10.28 6.03 10.27 6.04 10.26C6.04 10.24 6.06 10.23 6.06 10.21C6.06 10.21 6.06 10.21 6.07 10.21C6.53 10.39 6.97 10.51 7.52 10.59C8.17 10.68 8.87 10.72 9.59 10.72H9.61C10.35 10.72 11.07 10.67 11.79 10.56C12.63 10.43 13.09 10.25 13.16 10.17L13.22 10.27C13.22 10.27 13.22 10.27 13.22 10.28C13.17 10.34 12.6 10.53 11.8 10.67C11.11 10.77 10.37 10.83 9.6 10.83C9.6 10.83 9.59 10.83 9.58 10.83L9.59 10.82ZM6.03 10.28C6.2 10.35 6.65 10.54 7.49 10.67C8.14 10.76 8.84 10.8 9.58 10.8H9.6C10.37 10.8 11.11 10.75 11.8 10.64C12.62 10.5 13.15 10.31 13.2 10.27L13.15 10.19C13.06 10.27 12.63 10.44 11.78 10.58C11.05 10.69 10.34 10.74 9.59 10.74C9.59 10.74 9.58 10.74 9.57 10.74C8.85 10.74 8.15 10.69 7.49 10.61C6.95 10.53 6.5 10.41 6.05 10.23C6.05 10.24 6.04 10.26 6.03 10.27C6.03 10.27 6.03 10.29 6.02 10.29L6.03 10.28ZM9.59 10.49C8.86 10.49 8.17 10.45 7.59 10.36C6.87 10.27 6.45 10.11 6.25 10.03C6.22 10.03 6.2 10.01 6.18 10.01C6.2 9.98003 6.21 9.96003 6.23 9.93003C6.23 9.93003 6.23 9.93003 6.24 9.93003C6.31 9.97003 6.71 10.15 7.61 10.28C8.01 10.34 8.68 10.4 9.6 10.4H9.62C10.56 10.4 11.26 10.32 11.69 10.25C12.46 10.14 12.92 9.94003 12.99 9.88003L13.05 9.98003C12.96 10.05 12.51 10.22 11.69 10.35C11.01 10.45 10.32 10.5 9.6 10.5C9.6 10.5 9.59 10.5 9.58 10.5L9.59 10.49ZM6.2 9.98003C6.2 9.98003 6.23 9.99003 6.25 10C6.45 10.08 6.87 10.24 7.59 10.33C8.18 10.42 8.88 10.46 9.61 10.46C10.33 10.46 11.02 10.41 11.7 10.31C12.49 10.18 12.93 10.03 13.04 9.95003L12.99 9.87003C12.9 9.93003 12.48 10.12 11.69 10.23C11.25 10.29 10.56 10.38 9.61 10.38C9.61 10.38 9.6 10.38 9.59 10.38C8.67 10.38 8 10.31 7.6 10.25C6.74 10.13 6.33 9.95003 6.24 9.90003C6.23 9.92003 6.22 9.94003 6.2 9.96003V9.98003Z" fill="black"/>
<path fill-rule="evenodd" clip-rule="evenodd" d="M5.64 12.23C6.38 12.63 8.04 12.83 9.6 12.85C11.02 12.85 12.88 12.63 13.57 12.26L13.55 11.86C13.33 12.2 11.35 12.52 9.58 12.51C7.82 12.5 6.18 12.22 5.63 11.87V12.23" fill="#FFFF00"/>
<path d="M9.62 12.85C9.62 12.85 9.61 12.85 9.6 12.85C7.49 12.83 6.17 12.52 5.63 12.23C5.63 12.23 5.63 12.23 5.63 12.22V11.86C5.63 11.86 5.63 11.86 5.63 11.85C5.63 11.85 5.63 11.85 5.64 11.85C6.19 12.21 7.85 12.47 9.58 12.49C9.61 12.49 9.65 12.49 9.68 12.49C11.4 12.49 13.33 12.17 13.54 11.84C13.54 11.84 13.54 11.84 13.55 11.84C13.55 11.84 13.55 11.84 13.55 11.85L13.57 12.25C13.57 12.25 13.57 12.25 13.57 12.26C12.87 12.63 11.02 12.85 9.61 12.85H9.62ZM5.65 12.22C6.18 12.5 7.5 12.81 9.6 12.83H9.62C11.01 12.83 12.86 12.61 13.56 12.25L13.54 11.89C13.24 12.23 11.32 12.53 9.58 12.52C7.86 12.51 6.22 12.24 5.64 11.89V12.22H5.65Z" fill="black"/>
<path fill-rule="evenodd" clip-rule="evenodd" d="M13.6 12.17V12.27C13.5 12.39 12.84 12.58 12.02 12.72C11.4 12.82 10.58 12.89 9.57 12.89C8.56 12.89 7.84 12.82 7.24 12.73C6.3 12.59 5.7 12.35 5.58 12.28V12.17C5.94 12.41 6.93 12.59 7.26 12.64C7.85 12.73 8.61 12.8 9.57 12.8C10.58 12.8 11.39 12.73 12.01 12.63C12.6 12.55 13.44 12.32 13.6 12.18V12.17ZM13.61 11.83V11.93C13.51 12.05 12.85 12.24 12.03 12.38C11.41 12.48 10.59 12.55 9.58 12.55C8.57 12.55 7.85 12.48 7.25 12.39C6.31 12.25 5.71 12.01 5.59 11.94V11.83C5.95 12.07 6.94 12.25 7.27 12.3C7.86 12.39 8.62 12.46 9.58 12.46C10.59 12.46 11.4 12.39 12.02 12.29C12.61 12.21 13.45 11.98 13.61 11.84V11.83Z" fill="#FFFF00"/>
<path d="M9.58 12.89C8.73 12.89 7.94 12.84 7.25 12.73C6.35 12.6 5.73 12.37 5.58 12.28V12.17C5.58 12.17 5.58 12.17 5.58 12.16C5.58 12.16 5.58 12.16 5.59 12.16C5.95 12.4 6.96 12.58 7.26 12.63C7.95 12.74 8.72 12.79 9.57 12.79C10.47 12.79 11.28 12.73 12.01 12.62C12.59 12.54 13.43 12.32 13.59 12.17C13.59 12.17 13.59 12.17 13.6 12.17C13.6 12.17 13.6 12.17 13.6 12.18V12.28C13.49 12.41 12.83 12.6 12.02 12.73C11.29 12.84 10.47 12.9 9.57 12.9L9.58 12.89ZM5.6 12.26C5.71 12.32 6.29 12.56 7.25 12.7C7.94 12.81 8.72 12.86 9.57 12.86C10.47 12.86 11.29 12.8 12.02 12.69C12.81 12.56 13.48 12.38 13.59 12.25V12.18C13.39 12.33 12.58 12.54 12.01 12.62C11.29 12.73 10.47 12.79 9.57 12.79C8.72 12.79 7.94 12.74 7.26 12.63C6.96 12.58 5.98 12.41 5.6 12.17V12.25V12.26ZM9.58 12.55C8.73 12.55 7.94 12.5 7.25 12.39C6.35 12.26 5.73 12.03 5.58 11.94V11.83C5.58 11.83 5.58 11.83 5.58 11.82C5.58 11.82 5.58 11.82 5.59 11.82C5.95 12.06 6.96 12.24 7.26 12.29C7.95 12.4 8.72 12.45 9.57 12.45C10.47 12.45 11.28 12.39 12.01 12.28C12.59 12.2 13.43 11.98 13.59 11.83V11.93C13.48 12.06 12.82 12.25 12.01 12.38C11.28 12.49 10.46 12.55 9.56 12.55H9.58ZM5.6 11.92C5.71 11.98 6.29 12.22 7.25 12.36C7.94 12.47 8.72 12.52 9.57 12.52C10.47 12.52 11.29 12.46 12.02 12.35C12.81 12.22 13.48 12.04 13.59 11.91V11.84C13.39 11.99 12.58 12.2 12.01 12.28C11.29 12.39 10.47 12.45 9.57 12.45C8.72 12.45 7.94 12.4 7.26 12.29C6.96 12.24 5.98 12.07 5.6 11.83V11.91V11.92Z" fill="black"/>
<path fill-rule="evenodd" clip-rule="evenodd" d="M9.59 14.41C7.88 14.4 6.41 13.94 6.1 13.87L6.33 14.22C6.88 14.45 8.31 14.79 9.61 14.75C10.91 14.71 12.05 14.61 12.85 14.22L13.08 13.85C12.53 14.11 10.68 14.4 9.59 14.4" fill="#FFFF00"/>
<path d="M9.41 14.77C8.18 14.77 6.87 14.46 6.33 14.23L6.1 13.88C6.1 13.88 6.1 13.88 6.1 13.87C6.1 13.87 6.1 13.87 6.11 13.87C6.15 13.87 6.2 13.89 6.27 13.91C6.77 14.04 8.09 14.4 9.6 14.41C10.69 14.41 12.54 14.12 13.08 13.86H13.09C13.09 13.86 13.09 13.86 13.09 13.87L12.86 14.24C12.02 14.65 10.81 14.73 9.62 14.77C9.55 14.77 9.49 14.77 9.42 14.77H9.41ZM6.34 14.22C6.91 14.46 8.33 14.79 9.61 14.75C10.8 14.72 12.01 14.63 12.84 14.22L13.05 13.89C12.47 14.14 10.66 14.42 9.6 14.42C8.09 14.42 6.77 14.05 6.27 13.92C6.22 13.91 6.17 13.89 6.14 13.89L6.35 14.22H6.34Z" fill="black"/>
<path fill-rule="evenodd" clip-rule="evenodd" d="M12.93 14.15C12.9 14.2 12.86 14.25 12.83 14.3C12.45 14.43 11.86 14.57 11.61 14.61C11.1 14.72 10.3 14.79 9.6 14.79C8.08 14.77 6.84 14.47 6.26 14.22L6.21 14.14L6.29 14.16C7.33 14.53 8.49 14.68 9.6 14.71C10.3 14.71 11 14.63 11.57 14.53C12.44 14.36 12.79 14.22 12.9 14.16L12.93 14.14V14.15ZM13.13 13.82C13.1 13.86 13.08 13.91 13.05 13.95C12.85 14.02 12.3 14.18 11.5 14.29C10.97 14.36 10.65 14.43 9.6 14.45C7.64 14.4 6.37 14.02 6.07 13.92L6.03 13.83C7.17 14.13 8.33 14.33 9.61 14.35C10.57 14.33 10.97 14.26 11.5 14.19C12.43 14.05 12.9 13.89 13.04 13.85L13.14 13.81L13.13 13.82Z" fill="#FFFF00"/>
<path d="M9.59 14.81C8.04 14.79 6.82 14.49 6.25 14.24L6.2 14.16C6.2 14.16 6.2 14.16 6.2 14.15C6.2 14.15 6.2 14.13 6.21 14.13L6.29 14.16C7.22 14.49 8.33 14.67 9.59 14.71C9.6 14.71 9.61 14.71 9.62 14.71C10.38 14.71 11.09 14.61 11.56 14.53C12.53 14.34 12.82 14.2 12.89 14.17L12.92 14.15C12.92 14.15 12.92 14.15 12.93 14.15C12.93 14.15 12.93 14.15 12.93 14.16C12.89 14.21 12.86 14.27 12.83 14.31C12.45 14.44 11.86 14.58 11.6 14.62C11.07 14.73 10.26 14.8 9.59 14.8V14.81ZM6.26 14.22C7.12 14.59 8.55 14.77 9.59 14.79C10.26 14.79 11.07 14.72 11.6 14.61C11.86 14.57 12.44 14.43 12.82 14.3C12.84 14.26 12.87 14.23 12.9 14.19C12.81 14.23 12.5 14.36 11.58 14.55C11.11 14.63 10.4 14.73 9.64 14.73C9.63 14.73 9.62 14.73 9.61 14.73C8.34 14.7 7.23 14.52 6.3 14.18L6.23 14.15L6.27 14.22H6.26ZM9.61 14.47C7.86 14.43 6.64 14.12 6.07 13.94L6.03 13.85C6.03 13.85 6.03 13.85 6.03 13.84C6.03 13.84 6.03 13.84 6.04 13.84C7.34 14.18 8.47 14.35 9.61 14.36C10.46 14.34 10.88 14.28 11.33 14.22C11.38 14.22 11.44 14.2 11.5 14.2C12.4 14.06 12.87 13.91 13.02 13.86L13.12 13.82H13.13V13.83C13.1 13.87 13.08 13.92 13.05 13.96C12.78 14.06 12.21 14.2 11.5 14.3C11.42 14.31 11.35 14.32 11.28 14.33C10.86 14.39 10.49 14.44 9.6 14.46L9.61 14.47ZM6.09 13.92C6.66 14.1 7.87 14.4 9.61 14.45C10.5 14.43 10.86 14.38 11.28 14.32C11.35 14.31 11.43 14.3 11.5 14.29C12.21 14.19 12.77 14.04 13.04 13.95C13.06 13.91 13.08 13.88 13.1 13.84L13.04 13.86H13.02C12.87 13.91 12.39 14.06 11.49 14.2C11.43 14.2 11.38 14.22 11.32 14.22C10.87 14.28 10.45 14.34 9.6 14.36C8.47 14.34 7.33 14.18 6.04 13.84L6.07 13.9L6.09 13.92Z" fill="black"/>
<path fill-rule="evenodd" clip-rule="evenodd" d="M13.15 11.91C13.15 13.04 12.58 14.05 12.12 14.49C11.46 15.12 10.59 15.53 9.58 15.54C8.45 15.56 7.38 14.82 7.09 14.5C6.53 13.86 6.07 13.06 6.06 11.97C6.13 10.74 6.61 9.89 7.31 9.3C8.01 8.71 8.94 8.43 9.71 8.45C10.6 8.47 11.65 8.91 12.37 9.78C12.84 10.35 13.05 10.97 13.16 11.91H13.15ZM9.59 8.06C11.77 8.06 13.56 9.83 13.56 12.01C13.56 14.19 11.77 15.96 9.59 15.96C7.41 15.96 5.63 14.19 5.63 12.01C5.63 9.83 7.41 8.06 9.59 8.06Z" fill="#FFFF00"/>
<path d="M9.59 15.96C7.4 15.96 5.62 14.18 5.62 12C5.62 9.82001 7.4 8.04001 9.59 8.04001C10.65 8.04001 11.65 8.45001 12.4 9.20001C13.16 9.95001 13.57 10.94 13.57 12C13.57 13.06 13.15 14.05 12.4 14.8C11.65 15.55 10.65 15.96 9.59 15.96ZM9.59 8.07001C7.41 8.07001 5.64 9.84001 5.64 12.01C5.64 14.18 7.41 15.95 9.59 15.95C10.64 15.95 11.63 15.54 12.39 14.79C13.14 14.04 13.56 13.06 13.56 12.01C13.56 10.96 13.15 9.97001 12.39 9.23001C11.64 8.48001 10.65 8.07001 9.59 8.07001ZM9.53 15.56C8.37 15.56 7.33 14.8 7.08 14.51C6.4 13.74 6.06 12.91 6.04 11.97C6.1 10.84 6.53 9.94001 7.29 9.29001C7.94 8.74001 8.87 8.41001 9.7 8.44001C10.68 8.47001 11.71 8.98001 12.37 9.78001C12.82 10.33 13.04 10.93 13.16 11.91C13.16 13 12.63 14.02 12.12 14.5C11.42 15.17 10.54 15.54 9.57 15.56C9.55 15.56 9.54 15.56 9.52 15.56H9.53ZM9.63 8.46001C8.82 8.46001 7.94 8.78001 7.31 9.31001C6.55 9.95001 6.13 10.85 6.06 11.97C6.07 12.9 6.41 13.72 7.09 14.49C7.34 14.77 8.37 15.53 9.52 15.53C9.54 15.53 9.55 15.53 9.57 15.53C10.53 15.51 11.41 15.15 12.11 14.48C12.61 14 13.15 12.99 13.14 11.91C13.03 10.93 12.81 10.33 12.36 9.79001C11.7 9.00001 10.69 8.49001 9.71 8.46001C9.68 8.46001 9.66 8.46001 9.63 8.46001Z" fill="black"/>
<path fill-rule="evenodd" clip-rule="evenodd" d="M9.6 8.04001C11.78 8.04001 13.56 9.82001 13.56 12C13.56 14.18 11.78 15.96 9.6 15.96C7.42 15.96 5.64 14.18 5.64 12C5.64 9.82001 7.42 8.04001 9.6 8.04001ZM5.72 12C5.72 14.13 7.47 15.87 9.59 15.87C11.71 15.87 13.46 14.13 13.46 12C13.46 9.87001 11.71 8.13001 9.59 8.13001C7.47 8.13001 5.72 9.87001 5.72 12Z" fill="#FFFF00"/>
<path d="M9.6 15.98C7.41 15.98 5.63 14.2 5.63 12.01C5.63 9.82001 7.41 8.04001 9.6 8.04001C11.79 8.04001 13.57 9.82001 13.57 12.01C13.57 14.2 11.79 15.98 9.6 15.98ZM9.6 8.05001C7.42 8.05001 5.65 9.82001 5.65 12C5.65 14.18 7.42 15.95 9.6 15.95C11.78 15.95 13.55 14.18 13.55 12C13.55 9.82001 11.78 8.05001 9.6 8.05001ZM9.6 15.89C8.57 15.89 7.6 15.48 6.86 14.75C6.12 14.01 5.72 13.04 5.72 12.01C5.72 10.98 6.13 10 6.86 9.27001C7.6 8.53001 8.57 8.13001 9.6 8.13001C10.63 8.13001 11.6 8.54001 12.34 9.27001C13.08 10.01 13.48 10.98 13.48 12.01C13.48 13.04 13.07 14.02 12.34 14.75C11.6 15.49 10.63 15.89 9.6 15.89ZM9.6 8.14001C8.58 8.14001 7.61 8.54001 6.88 9.27001C6.15 10 5.74 10.97 5.74 12C5.74 13.03 6.14 14 6.88 14.73C7.61 15.46 8.58 15.86 9.6 15.86C10.62 15.86 11.59 15.46 12.33 14.73C13.06 14 13.47 13.03 13.47 12C13.47 10.97 13.07 10 12.33 9.27001C11.6 8.54001 10.63 8.14001 9.6 8.14001Z" fill="black"/>
<path fill-rule="evenodd" clip-rule="evenodd" d="M9.6 8.37003C11.59 8.37003 13.23 10 13.23 12C13.23 14 11.59 15.63 9.6 15.63C7.61 15.63 5.97 14 5.97 12C5.97 10 7.61 8.37003 9.6 8.37003ZM6.06 12C6.06 13.95 7.66 15.54 9.6 15.54C11.54 15.54 13.14 13.95 13.14 12C13.14 10.05 11.54 8.46003 9.6 8.46003C7.66 8.46003 6.06 10.05 6.06 12Z" fill="#FFFF00"/>
<path d="M9.6 15.64C8.63 15.64 7.72 15.26 7.03 14.57C6.34 13.88 5.96 12.97 5.96 12C5.96 11.03 6.34 10.12 7.03 9.43002C7.72 8.74002 8.63 8.36002 9.6 8.36002C10.57 8.36002 11.48 8.74002 12.17 9.43002C12.86 10.12 13.24 11.03 13.24 12C13.24 12.97 12.86 13.88 12.17 14.57C11.48 15.26 10.57 15.64 9.6 15.64ZM9.6 8.38002C8.64 8.38002 7.73 8.76002 7.05 9.44002C6.36 10.13 5.99 11.03 5.99 11.99C5.99 12.95 6.37 13.86 7.05 14.54C7.74 15.23 8.64 15.6 9.6 15.6C10.56 15.6 11.47 15.22 12.15 14.54C12.84 13.85 13.21 12.95 13.21 11.99C13.21 11.03 12.83 10.12 12.15 9.44002C11.46 8.75002 10.56 8.38002 9.6 8.38002ZM9.6 15.55C8.66 15.55 7.77 15.18 7.09 14.51C6.42 13.84 6.04 12.95 6.04 12C6.04 11.05 6.41 10.16 7.09 9.49002C7.76 8.82002 8.65 8.45002 9.6 8.45002C10.55 8.45002 11.43 8.82002 12.11 9.49002C12.78 10.16 13.16 11.05 13.16 12C13.16 12.95 12.79 13.84 12.11 14.51C11.44 15.18 10.55 15.55 9.6 15.55ZM9.6 8.47002C8.66 8.47002 7.78 8.84002 7.11 9.51002C6.44 10.18 6.07 11.06 6.07 12C6.07 12.94 6.44 13.82 7.11 14.49C7.78 15.16 8.66 15.53 9.6 15.53C10.54 15.53 11.42 15.16 12.09 14.49C12.76 13.82 13.13 12.94 13.13 12C13.13 11.06 12.76 10.18 12.09 9.51002C11.42 8.84002 10.54 8.47002 9.6 8.47002Z" fill="black"/>
<path fill-rule="evenodd" clip-rule="evenodd" d="M9.76 8.03H9.42V15.99H9.76V8.03Z" fill="#FFFF00"/>
<path d="M9.76 16H9.42C9.42 16 9.41 16 9.41 15.99V8.03H9.75C9.75 8.03 9.76 8.03 9.76 8.04V16ZM9.43 15.97H9.75V8.03H9.43V15.97Z" fill="black"/>
<path fill-rule="evenodd" clip-rule="evenodd" d="M9.73 7.98001H9.82V16.03H9.73V7.98001ZM9.39 7.98001H9.48V16.03H9.39V7.98001Z" fill="#FFFF00"/>
<path d="M9.48 16.04H9.39001C9.39001 16.04 9.38 16.04 9.38 16.03V7.98C9.38 7.98 9.38001 7.97 9.39001 7.97H9.48C9.48 7.97 9.49 7.97 9.49 7.98V16.03L9.48 16.04ZM9.4 16.02H9.46V7.99H9.4V16.02ZM9.81001 16.04H9.72001C9.72001 16.04 9.71 16.04 9.71 16.03V7.98H9.8C9.8 7.98 9.81001 7.98 9.81001 7.99V16.04ZM9.74 16.02H9.8V7.99H9.74V16.02Z" fill="black"/>
<path fill-rule="evenodd" clip-rule="evenodd" d="M13.56 12.16V11.87L13.32 11.65L11.96 11.29L10 11.09L7.64 11.21L5.96 11.61L5.62 11.86V12.15L6.48 11.76L8.52 11.44H10.48L11.92 11.6L12.92 11.84L13.56 12.16Z" fill="#FFFF00"/>
<path d="M13.56 12.17L12.92 11.85L11.92 11.61L10.48 11.45H8.52L6.48 11.77L5.62 12.15C5.62 12.15 5.62 12.15 5.61 12.15V11.86L5.95 11.61L7.63 11.21L9.99 11.09L11.95 11.29L13.31 11.65L13.55 11.87V12.16L13.56 12.17ZM10.48 11.43L11.92 11.59L12.92 11.83L13.55 12.14V11.87L13.32 11.65L11.96 11.29L10 11.09L7.64 11.21L5.96 11.61L5.63 11.86V12.13L6.47 11.75L8.51 11.43H10.47H10.48Z" fill="black"/>
<path fill-rule="evenodd" clip-rule="evenodd" d="M9.6 11.39C10.54 11.39 11.44 11.48 12.16 11.62C12.9 11.77 13.43 11.95 13.6 12.16V12.26C13.38 12 12.68 11.81 12.14 11.7C11.43 11.56 10.52 11.47 9.59 11.47C8.61 11.47 7.69 11.56 6.99 11.7C6.43 11.81 5.67 12.03 5.58 12.25V12.14C5.63 11.99 6.19 11.76 6.98 11.6C7.69 11.46 8.6 11.37 9.59 11.37L9.6 11.39ZM9.6 11.05C10.54 11.05 11.44 11.14 12.16 11.28C12.9 11.43 13.43 11.61 13.6 11.82V11.92C13.38 11.66 12.68 11.47 12.14 11.36C11.43 11.22 10.52 11.13 9.59 11.13C8.61 11.13 7.7 11.22 6.99 11.36C6.44 11.46 5.66 11.69 5.57 11.91V11.8C5.62 11.65 6.19 11.41 6.97 11.26C7.68 11.12 8.59 11.03 9.58 11.03L9.6 11.05Z" fill="#FFFF00"/>
<path d="M5.59 12.28C5.59 12.28 5.59 12.28 5.59 12.27V12.16C5.65 12 6.24 11.77 7 11.62C7.76 11.47 8.69 11.39 9.61 11.39C9.61 11.39 9.63 11.39 9.64 11.39C10.52 11.39 11.42 11.47 12.18 11.62C12.96 11.78 13.46 11.96 13.63 12.17V12.27C13.63 12.27 13.63 12.27 13.63 12.28C13.63 12.28 13.63 12.28 13.62 12.28C13.39 12.01 12.61 11.81 12.17 11.73C11.42 11.58 10.52 11.5 9.65 11.5H9.62C8.7 11.5 7.78 11.58 7.02 11.73C6.4 11.85 5.7 12.08 5.62 12.28C5.62 12.28 5.62 12.28 5.61 12.28H5.59ZM9.62 11.47C10.49 11.47 11.39 11.55 12.14 11.7C12.58 11.79 13.33 11.97 13.59 12.24V12.17C13.42 11.97 12.92 11.79 12.16 11.63C11.39 11.48 10.49 11.4 9.6 11.4C8.67 11.4 7.75 11.48 6.99 11.63C6.36 11.76 5.66 11.98 5.6 12.16V12.22C5.77 11.99 6.54 11.79 7 11.7C7.76 11.55 8.68 11.47 9.6 11.47C9.6 11.47 9.62 11.47 9.63 11.47H9.62ZM5.59 11.94C5.59 11.94 5.59 11.94 5.59 11.93V11.82C5.65 11.66 6.25 11.42 7 11.28C7.76 11.13 8.69 11.05 9.61 11.05C9.61 11.05 9.63 11.05 9.64 11.05C10.52 11.05 11.42 11.13 12.18 11.28C12.96 11.44 13.46 11.62 13.63 11.83V11.93C13.63 11.93 13.63 11.93 13.63 11.94C13.63 11.94 13.63 11.94 13.62 11.94C13.39 11.67 12.61 11.47 12.17 11.39C11.42 11.24 10.53 11.16 9.65 11.16H9.62C8.71 11.16 7.79 11.24 7.03 11.39C6.41 11.51 5.7 11.74 5.62 11.94C5.62 11.94 5.62 11.94 5.61 11.94H5.59ZM9.63 11.13C10.5 11.13 11.4 11.21 12.15 11.36C12.59 11.45 13.34 11.63 13.6 11.9V11.83C13.43 11.63 12.93 11.45 12.17 11.29C11.41 11.14 10.51 11.06 9.64 11.06H9.61C8.68 11.06 7.76 11.14 7 11.29C6.19 11.45 5.66 11.68 5.61 11.82V11.88C5.77 11.66 6.52 11.45 7.01 11.36C7.77 11.21 8.69 11.13 9.61 11.13C9.61 11.13 9.63 11.13 9.64 11.13H9.63Z" fill="black"/>
<path fill-rule="evenodd" clip-rule="evenodd" d="M9.58 9.32001C11.05 9.32001 12.34 9.53001 12.93 9.83001L13.14 10.2C12.63 9.92001 11.24 9.64001 9.58 9.68001C8.23 9.68001 6.78 9.83001 6.05 10.22L6.31 9.79001C6.91 9.48001 8.31 9.32001 9.58 9.32001Z" fill="#FFFF00"/>
<path d="M6.05 10.23C6.05 10.23 6.05 10.23 6.05 10.22L6.31 9.79001C6.93 9.47001 8.4 9.32001 9.58 9.32001C11 9.32001 12.32 9.51001 12.93 9.83001L13.14 10.2V10.21C13.14 10.21 13.14 10.21 13.13 10.21C12.59 9.92001 11.2 9.65001 9.58 9.69001C7.36 9.70001 6.42 10.03 6.06 10.23H6.05ZM6.32 9.79001L6.09 10.18C6.48 9.98001 7.43 9.67001 9.59 9.66001C11.18 9.62001 12.56 9.88001 13.12 10.16L12.93 9.83001C12.31 9.52001 11 9.32001 9.59 9.33001C8.41 9.33001 6.95 9.48001 6.33 9.79001H6.32Z" fill="black"/>
<path fill-rule="evenodd" clip-rule="evenodd" d="M9.6 9.62001C10.44 9.62001 11.25 9.67001 11.9 9.78001C12.5 9.89001 13.08 10.06 13.16 10.15L13.22 10.26C13.02 10.13 12.52 9.98001 11.89 9.86001C11.25 9.74001 10.44 9.70001 9.6 9.70001C8.65 9.70001 7.91 9.75001 7.28 9.86001C6.61 9.99001 6.15 10.16 6.03 10.25L6.09 10.13C6.31 10.02 6.67 9.88001 7.26 9.77001C7.91 9.65001 8.66 9.61001 9.6 9.61001V9.62001ZM9.6 9.29001C10.4 9.29001 11.2 9.33001 11.82 9.44001C12.31 9.54001 12.79 9.68001 12.97 9.82001L13.06 9.97001C12.9 9.79001 12.31 9.63001 11.78 9.53001C11.17 9.42001 10.4 9.38001 9.6 9.38001C8.76 9.38001 7.98 9.43001 7.37 9.54001C6.79 9.65001 6.42 9.78001 6.26 9.88001L6.34 9.76001C6.56 9.65001 6.91 9.54001 7.35 9.45001C7.96 9.34001 8.75 9.29001 9.59 9.29001H9.6Z" fill="#FFFF00"/>
<path d="M13.22 10.28C13.02 10.15 12.54 10.01 11.89 9.89001C11.32 9.78001 10.55 9.73001 9.6 9.73001C8.65 9.73001 7.92 9.78001 7.28 9.89001C6.61 10.01 6.15 10.19 6.04 10.28H6.03C6.03 10.28 6.03 10.28 6.03 10.27L6.09 10.15C6.39 10 6.77 9.88001 7.26 9.79001C7.85 9.68001 8.53 9.64001 9.6 9.63001C9.6 9.63001 9.64 9.63001 9.66 9.63001C10.54 9.63001 11.32 9.69001 11.91 9.79001C12.52 9.90001 13.09 10.07 13.17 10.16L13.24 10.27V10.28H13.22ZM9.66 9.70001C10.58 9.70001 11.33 9.75001 11.89 9.86001C12.5 9.98001 12.97 10.11 13.19 10.24L13.15 10.17C13.07 10.08 12.5 9.92001 11.9 9.81001C11.3 9.70001 10.51 9.65001 9.6 9.65001C8.53 9.65001 7.86 9.70001 7.27 9.81001C6.79 9.90001 6.41 10.01 6.11 10.16L6.07 10.24C6.23 10.15 6.67 9.99001 7.29 9.87001C7.92 9.76001 8.66 9.71001 9.61 9.71001C9.63 9.71001 9.65 9.71001 9.67 9.71001L9.66 9.70001ZM13.06 9.97001C12.9 9.79001 12.27 9.62001 11.79 9.54001C11.23 9.44001 10.52 9.39001 9.61 9.39001C8.73 9.39001 7.96 9.45001 7.38 9.55001C6.87 9.65001 6.46 9.77001 6.28 9.89001H6.27C6.27 9.89001 6.27 9.89001 6.27 9.88001L6.35 9.76001C6.57 9.65001 6.92 9.54001 7.37 9.45001C7.95 9.35001 8.72 9.29001 9.62 9.29001C10.5 9.29001 11.27 9.34001 11.84 9.44001C12.36 9.54001 12.83 9.69001 12.99 9.82001L13.08 9.97001C13.08 9.97001 13.08 9.98001 13.08 9.99001L13.06 9.97001ZM9.6 9.36001C10.51 9.36001 11.22 9.42001 11.78 9.51001C12.22 9.59001 12.78 9.73001 13.01 9.90001L12.96 9.82001C12.8 9.70001 12.34 9.55001 11.82 9.45001C11.25 9.35001 10.48 9.29001 9.6 9.30001C8.71 9.30001 7.93 9.36001 7.36 9.46001C6.92 9.55001 6.57 9.65001 6.35 9.76001L6.3 9.84001C6.5 9.73001 6.89 9.61001 7.37 9.52001C7.95 9.41001 8.72 9.36001 9.6 9.36001Z" fill="black"/>
<path fill-rule="evenodd" clip-rule="evenodd" d="M11.57 13.65C10.84 13.51 10.11 13.49 9.6 13.5C7.14 13.53 6.35 14 6.25 14.15L6.07 13.85C6.7 13.4 8.03 13.14 9.61 13.17C10.43 13.18 11.14 13.24 11.73 13.35L11.56 13.65" fill="#FFFF00"/>
<path d="M6.25 14.16L6.07 13.86C6.07 13.86 6.07 13.85 6.07 13.84C6.7 13.39 8.02 13.13 9.62 13.16C10.49 13.17 11.18 13.23 11.75 13.34C11.75 13.34 11.75 13.34 11.75 13.35L11.58 13.65C11.58 13.65 11.58 13.65 11.57 13.65C10.99 13.54 10.33 13.49 9.6 13.5C7.21 13.53 6.37 13.99 6.26 14.14L6.25 14.16ZM6.08 13.85L6.25 14.13C6.31 14.05 6.54 13.91 7.03 13.77C7.66 13.6 8.55 13.5 9.59 13.49C10.32 13.49 10.98 13.53 11.55 13.64L11.71 13.36C11.15 13.25 10.46 13.19 9.6 13.18C8.02 13.15 6.7 13.41 6.07 13.85H6.08Z" fill="black"/>
<path fill-rule="evenodd" clip-rule="evenodd" d="M9.58 13.46C10.26 13.47 10.93 13.5 11.58 13.62L11.53 13.7C10.93 13.59 10.29 13.55 9.58 13.55C8.67 13.55 7.76 13.63 6.96 13.86C6.71 13.93 6.29 14.09 6.25 14.23L6.2 14.15C6.21 14.07 6.47 13.91 6.94 13.77C7.85 13.51 8.71 13.46 9.58 13.46ZM9.61 13.11C10.32 13.12 11.05 13.16 11.76 13.3L11.71 13.39C11.07 13.26 10.46 13.22 9.61 13.21C8.7 13.21 7.74 13.28 6.86 13.53C6.58 13.61 6.09 13.79 6.07 13.93L6.02 13.85C6.03 13.72 6.45 13.55 6.83 13.44C7.71 13.18 8.68 13.12 9.6 13.12L9.61 13.11Z" fill="#FFFF00"/>
<path d="M6.25 14.23L6.2 14.15C6.22 14.06 6.48 13.9 6.94 13.77C7.81 13.52 8.63 13.46 9.58 13.46C10.23 13.46 10.92 13.5 11.58 13.62C11.58 13.62 11.58 13.62 11.58 13.63L11.53 13.71C11.53 13.71 11.53 13.71 11.52 13.71C10.95 13.61 10.32 13.56 9.57 13.56C8.57 13.56 7.69 13.66 6.95 13.87C6.68 13.94 6.29 14.11 6.25 14.23ZM6.22 14.14L6.25 14.2C6.33 14.07 6.72 13.91 6.96 13.85C7.7 13.64 8.58 13.54 9.58 13.54C10.32 13.54 10.96 13.59 11.53 13.69L11.57 13.63C10.91 13.51 10.23 13.48 9.59 13.47C8.64 13.47 7.82 13.53 6.95 13.78C6.48 13.91 6.24 14.07 6.22 14.14ZM6.08 13.94L6.03 13.86C6.04 13.69 6.66 13.5 6.85 13.44C7.61 13.22 8.49 13.12 9.62 13.11C10.31 13.12 11.05 13.15 11.77 13.3L11.72 13.39C11.72 13.39 11.72 13.39 11.71 13.39C11.03 13.25 10.38 13.22 9.62 13.21C8.49 13.21 7.62 13.31 6.87 13.53C6.5 13.64 6.1 13.81 6.09 13.92L6.08 13.94ZM6.04 13.84L6.07 13.9C6.15 13.73 6.78 13.54 6.86 13.52C7.61 13.3 8.48 13.2 9.61 13.2C10.37 13.21 11.02 13.25 11.7 13.38L11.74 13.31C11.03 13.17 10.29 13.14 9.61 13.13C8.48 13.13 7.6 13.24 6.85 13.45C6.37 13.59 6.06 13.74 6.04 13.84Z" fill="black"/>
<path fill-rule="evenodd" clip-rule="evenodd" d="M13.1 13.9L12.8 14.36L11.95 13.61L9.75 12.13L7.27 10.77L5.98 10.33L6.25 9.81999L6.34 9.76999L7.14 9.96999L9.78 11.33L11.3 12.29L12.58 13.21L13.1 13.81L13.08 13.91L13.1 13.9Z" fill="#FFFF00"/>
<path d="M12.81 14.36L11.96 13.61L9.76 12.13L7.28 10.77L5.99 10.33L6.26 9.81999L6.35 9.76999L7.15 9.96999L9.79 11.33L11.31 12.29L12.59 13.21L13.11 13.81L13.09 13.91L12.79 14.37L12.81 14.36ZM6.01 10.31L7.28 10.75L9.76 12.11L11.96 13.59L12.8 14.34L13.09 13.9L13.11 13.81L12.59 13.21L11.31 12.29L9.79 11.33L7.15 9.96999L6.36 9.76999L6.27 9.81999L6 10.31H6.01Z" fill="black"/>
<path fill-rule="evenodd" clip-rule="evenodd" d="M5.95 10.33C6.18 10.18 7.84 10.92 9.57 11.96C11.3 13.01 12.96 14.2 12.81 14.42L12.76 14.5L12.74 14.52C12.74 14.52 12.77 14.49 12.74 14.4C12.67 14.16 11.49 13.22 9.54 12.04C7.64 10.91 6.06 10.23 5.9 10.42L5.95 10.32V10.33ZM13.16 13.89C13.3 13.61 11.76 12.45 9.85 11.32C7.9 10.21 6.49 9.56002 6.23 9.76002L6.17 9.86002C6.17 9.86002 6.17 9.86002 6.18 9.84002C6.23 9.80002 6.3 9.80002 6.34 9.80002C6.78 9.80002 8.05 10.39 9.82 11.41C10.6 11.86 13.1 13.47 13.09 13.92C13.09 13.96 13.09 13.97 13.08 13.99L13.14 13.89H13.16Z" fill="#FFFF00"/>
<path d="M12.73 14.53C12.73 14.53 12.73 14.52 12.73 14.51C12.73 14.51 12.75 14.48 12.73 14.41C12.65 14.16 11.41 13.19 9.54 12.06C7.55 10.87 6.06 10.26 5.91 10.44C5.91 10.44 5.9 10.44 5.89 10.44C5.89 10.44 5.89 10.44 5.89 10.43L5.94 10.33C6.18 10.17 7.84 10.92 9.57 11.96C11.13 12.91 12.75 14.04 12.82 14.37C12.82 14.4 12.82 14.42 12.82 14.43L12.77 14.51L12.75 14.53H12.73ZM6 10.38C6.44 10.38 7.91 11.06 9.54 12.03C11.44 13.18 12.66 14.13 12.74 14.39C12.75 14.42 12.76 14.45 12.76 14.47L12.8 14.41C12.8 14.41 12.8 14.38 12.8 14.36C12.73 14.04 11.08 12.88 9.56 11.96C7.87 10.94 6.19 10.18 5.95 10.32L5.92 10.38C5.92 10.38 5.97 10.37 6 10.37V10.38ZM13.1 14C13.1 14 13.1 13.99 13.1 13.98C13.1 13.98 13.1 13.95 13.1 13.93C13.1 13.47 10.56 11.84 9.83 11.41C8.06 10.4 6.8 9.81001 6.36 9.81001C6.36 9.81001 6.26 9.81001 6.22 9.85001C6.22 9.85001 6.22 9.86001 6.21 9.86001C6.21 9.86001 6.21 9.86001 6.2 9.86001C6.2 9.86001 6.2 9.86001 6.2 9.85001L6.26 9.75001C6.57 9.52001 8.4 10.47 9.89 11.31C11.61 12.33 13.36 13.58 13.2 13.9L13.14 13.99C13.14 13.99 13.14 13.99 13.14 14H13.1ZM6.36 9.79001C6.81 9.79001 8.08 10.38 9.85 11.4C10.36 11.7 13.14 13.43 13.13 13.92L13.16 13.88C13.29 13.62 11.84 12.5 9.86 11.32C7.77 10.14 6.5 9.58001 6.26 9.75001L6.23 9.80001C6.23 9.80001 6.33 9.78001 6.36 9.78001V9.79001Z" fill="black"/>
<path d="M7.22 12.44C7.22 13.09 7.49 13.68 7.92 14.11C8.35 14.54 8.94 14.81 9.59 14.81C10.24 14.81 10.84 14.54 11.27 14.11C11.7 13.68 11.97 13.09 11.97 12.43V9.26001H7.22V12.43V12.44Z" fill="white"/>
<path d="M9.59001 14.83C8.96001 14.83 8.37001 14.58 7.91001 14.12C7.46001 13.67 7.21001 13.07 7.21001 12.44V9.27002H7.22001H11.97H11.98V12.45C11.98 13.09 11.73 13.68 11.28 14.13C10.83 14.58 10.23 14.83 9.59001 14.83ZM7.24001 12.44C7.24001 13.06 7.49001 13.65 7.93001 14.1C8.38001 14.55 8.97001 14.8 9.59001 14.8C10.21 14.8 10.81 14.55 11.26 14.11C11.71 13.66 11.95 13.07 11.95 12.44V9.29002H7.23001V12.44H7.24001Z" fill="black"/>
<path d="M7.31 12.44C7.31 13.06 7.57 13.63 7.98 14.04C8.39 14.45 8.96 14.71 9.59 14.71C10.22 14.71 10.79 14.46 11.2 14.04C11.61 13.63 11.87 13.06 11.87 12.44V9.37H7.32V12.44M10.95 10.29V12.25V12.46C10.95 12.51 10.95 12.58 10.95 12.63C10.91 12.94 10.77 13.21 10.56 13.42C10.31 13.67 9.97 13.82 9.6 13.82C9.23 13.82 8.89 13.66 8.65 13.42C8.4 13.17 8.25 12.82 8.25 12.46V10.3H10.97L10.95 10.29Z" fill="#FF0000"/>
<path d="M9.59 14.73C8.98 14.73 8.41 14.49 7.97 14.06C7.54 13.63 7.3 13.06 7.3 12.45V9.37H11.88V12.45C11.88 13.06 11.64 13.63 11.21 14.06C10.78 14.49 10.2 14.73 9.59 14.73ZM7.32 12.44C7.32 13.04 7.56 13.61 7.99 14.03C8.42 14.46 8.99 14.7 9.59 14.7C10.19 14.7 10.76 14.46 11.19 14.04C11.62 13.61 11.85 13.05 11.85 12.45V9.38H7.32V12.44ZM9.59 13.82C9.23 13.82 8.89 13.68 8.63 13.41C8.37 13.15 8.23 12.8 8.23 12.44V10.27H10.95V10.28V12.24V12.45C10.95 12.51 10.95 12.57 10.94 12.62C10.9 12.92 10.77 13.19 10.55 13.41C10.29 13.67 9.95 13.81 9.58 13.81L9.59 13.82ZM8.25 10.3V12.45C8.25 12.8 8.4 13.15 8.65 13.4C8.91 13.66 9.25 13.8 9.6 13.8C9.95 13.8 10.3 13.66 10.55 13.41C10.77 13.19 10.9 12.92 10.94 12.63C10.94 12.58 10.94 12.52 10.94 12.46V12.25V10.3H8.24H8.25Z" fill="black"/>
<path d="M7.61 10.18C7.61 9.96003 7.77 9.91003 7.77 9.91003C7.77 9.91003 7.94 9.97003 7.94 10.19H7.61" fill="#FFFF00"/>
<path d="M7.46999 9.91002L7.43999 10.16H7.60999C7.60999 9.95002 7.76999 9.92002 7.76999 9.92002C7.76999 9.92002 7.92999 9.97002 7.92999 10.16H8.09999L8.06999 9.90002H7.46999V9.91002Z" fill="#FFFF00"/>
<path d="M7.61999 10.17H7.42999L7.45999 9.90002H8.06999L8.09999 10.18H7.90999C7.90999 9.98002 7.75999 9.94002 7.74999 9.94002C7.74999 9.94002 7.59999 9.97002 7.59999 10.17H7.61999ZM7.94999 10.15H8.09999L8.06999 9.91002H7.80999C7.80999 9.91002 7.84999 9.93002 7.86999 9.95002C7.90999 9.98002 7.94999 10.04 7.94999 10.14V10.15ZM7.45999 10.15H7.59999C7.59999 10.04 7.64999 9.98002 7.68999 9.95002C7.70999 9.93002 7.72999 9.92002 7.73999 9.92002H7.47999L7.44999 10.15H7.45999Z" fill="black"/>
<path d="M7.42999 10.16H8.10999C8.10999 10.16 8.13999 10.17 8.13999 10.19C8.13999 10.21 8.12999 10.22 8.10999 10.22H7.42999C7.42999 10.22 7.39999 10.21 7.39999 10.19C7.39999 10.17 7.40999 10.16 7.42999 10.16Z" fill="#FFFF00"/>
<path d="M8.11 10.24H7.43C7.43 10.24 7.39 10.22 7.39 10.2C7.39 10.18 7.41 10.16 7.43 10.16H8.11C8.11 10.16 8.15 10.18 8.15 10.2C8.15 10.22 8.13 10.24 8.11 10.24ZM7.43 10.17C7.43 10.17 7.41 10.17 7.41 10.19C7.41 10.21 7.41 10.21 7.43 10.21H8.11C8.11 10.21 8.13 10.21 8.13 10.19C8.13 10.17 8.13 10.17 8.11 10.17H7.43Z" fill="black"/>
<path d="M7.68 10.16C7.68 10.03 7.77 9.99002 7.77 9.99002C7.77 9.99002 7.86 10.03 7.86 10.16H7.67" fill="#FFFF00"/>
<path d="M7.88 10.17H7.68L7.67 10.16C7.67 10.07 7.71 10.03 7.74 10C7.74 10 7.77 9.98001 7.78 9.98001C7.78 9.98001 7.88 10.03 7.88 10.16V10.17ZM7.69 10.15H7.85C7.85 10.05 7.78 10.01 7.77 10C7.75 10 7.69 10.05 7.69 10.15Z" fill="black"/>
<path d="M7.44999 9.80002H8.09999C8.09999 9.80002 8.11999 9.81002 8.11999 9.83002C8.11999 9.85002 8.10999 9.86002 8.09999 9.86002H7.44999C7.44999 9.86002 7.42999 9.85002 7.42999 9.83002C7.42999 9.81002 7.43999 9.80002 7.44999 9.80002Z" fill="#FFFF00"/>
<path d="M8.1 9.87001H7.45C7.45 9.87001 7.42 9.85001 7.42 9.83001C7.42 9.81001 7.44 9.79001 7.45 9.79001H8.1C8.1 9.79001 8.13 9.81001 8.13 9.83001C8.13 9.85001 8.11 9.87001 8.1 9.87001ZM7.45 9.81001C7.45 9.81001 7.44 9.81001 7.44 9.83001C7.44 9.85001 7.44 9.85001 7.45 9.85001H8.1C8.1 9.85001 8.11 9.85001 8.11 9.83001C8.11 9.81001 8.11 9.81001 8.1 9.81001H7.45Z" fill="black"/>
<path d="M7.45999 9.86005H8.07999C8.07999 9.86005 8.09999 9.87005 8.09999 9.89005C8.09999 9.91005 8.08999 9.92005 8.07999 9.92005H7.45999C7.45999 9.92005 7.43999 9.91005 7.43999 9.89005C7.43999 9.87005 7.44999 9.86005 7.45999 9.86005Z" fill="#FFFF00"/>
<path d="M8.07999 9.93004H7.45999C7.45999 9.93004 7.42999 9.91004 7.42999 9.89004C7.42999 9.87004 7.44999 9.85004 7.45999 9.85004H8.07999C8.07999 9.85004 8.10999 9.87004 8.10999 9.89004C8.10999 9.91004 8.08999 9.93004 8.07999 9.93004ZM7.45999 9.87004C7.45999 9.87004 7.44999 9.87004 7.44999 9.89004C7.44999 9.91004 7.44999 9.91004 7.45999 9.91004H8.07999C8.07999 9.91004 8.08999 9.91004 8.08999 9.89004C8.08999 9.87004 8.08999 9.87004 8.07999 9.87004H7.45999Z" fill="black"/>
<path d="M7.65999 9.44002H7.70999V9.47002H7.74999V9.43002H7.79999V9.47002H7.83999V9.43002H7.88999V9.51002C7.88999 9.51002 7.87999 9.53002 7.86999 9.53002H7.68999C7.68999 9.53002 7.66999 9.53002 7.66999 9.51002V9.43002L7.65999 9.44002Z" fill="#FFFF00"/>
<path d="M7.85999 9.55002H7.67999C7.67999 9.55002 7.64999 9.54002 7.64999 9.52002V9.44002H7.70999V9.47002H7.72999V9.43002H7.79999V9.47002H7.81999V9.43002H7.88999V9.52002C7.88999 9.52002 7.87999 9.55002 7.85999 9.55002ZM7.66999 9.45002V9.52002C7.66999 9.52002 7.66999 9.53002 7.67999 9.53002H7.85999C7.85999 9.53002 7.86999 9.53002 7.86999 9.52002V9.45002H7.83999V9.49002H7.77999V9.45002H7.74999V9.49002H7.68999V9.46002H7.65999L7.66999 9.45002Z" fill="black"/>
<path d="M7.84999 9.54004V9.80004H7.68999V9.54004H7.84999Z" fill="#FFFF00"/>
<path d="M7.86999 9.81003H7.67999L7.68999 9.53003H7.85999L7.86999 9.81003ZM7.69999 9.79003H7.84999L7.83999 9.55003H7.70999L7.69999 9.79003Z" fill="black"/>
<path d="M7.64 9.66003V9.80003H7.48V9.66003H7.64Z" fill="#FFFF00"/>
<path d="M7.47 9.81002V9.65002H7.65V9.81002H7.47ZM7.49 9.67002V9.79002H7.63V9.67002H7.49Z" fill="black"/>
<path d="M8.05999 9.66003V9.80003H7.89999V9.66003H8.05999Z" fill="#FFFF00"/>
<path d="M7.89 9.81002V9.65002H8.07V9.81002H7.89ZM7.92 9.67002V9.79002H8.06V9.67002H7.92Z" fill="black"/>
<path d="M7.45 9.56003H7.5V9.60003H7.54V9.56003H7.59V9.60003H7.63V9.56003H7.68V9.64003C7.68 9.65003 7.68 9.66003 7.66 9.66003H7.49C7.49 9.66003 7.47 9.66003 7.47 9.64003V9.56003H7.45Z" fill="#FFFF00"/>
<path d="M7.65 9.67002H7.48C7.48 9.67002 7.45 9.66002 7.45 9.64002V9.56002H7.51V9.59002H7.53V9.55002H7.6V9.59002H7.62V9.55002H7.69V9.64002C7.69 9.66002 7.68 9.67002 7.66 9.67002H7.65ZM7.46 9.57002V9.64002C7.46 9.64002 7.46 9.65002 7.47 9.65002H7.64C7.64 9.65002 7.65 9.65002 7.65 9.64002V9.57002H7.62V9.61002H7.56V9.57002H7.53V9.61002H7.47V9.58002H7.44L7.46 9.57002Z" fill="black"/>
<path d="M7.87999 9.56003H7.92999V9.60003H7.96999V9.56003H8.01999V9.60003H8.05999V9.56003H8.10999V9.64003C8.10999 9.65003 8.10999 9.66003 8.08999 9.66003H7.91999C7.91999 9.66003 7.89999 9.66003 7.89999 9.64003V9.56003H7.87999Z" fill="#FFFF00"/>
<path d="M8.06999 9.67002H7.9C7.9 9.67002 7.87 9.66002 7.87 9.64002V9.56002H7.93V9.59002H7.95V9.55002H8.02V9.59002H8.04V9.55002H8.10999V9.64002C8.10999 9.66002 8.1 9.67002 8.08 9.67002H8.06999ZM7.89 9.57002V9.64002C7.89 9.64002 7.89 9.65002 7.9 9.65002H8.06999C8.06999 9.65002 8.08 9.65002 8.08 9.64002V9.57002H8.05V9.61002H7.99V9.57002H7.96V9.61002H7.9V9.58002H7.87L7.89 9.57002Z" fill="black"/>
<path d="M7.75999 9.62002C7.75999 9.62002 7.79999 9.59002 7.78999 9.62002V9.68002H7.75999V9.62002Z" fill="black"/>
<path d="M7.53999 9.71003C7.53999 9.71003 7.56999 9.69003 7.56999 9.71003V9.76003H7.53999V9.71003Z" fill="black"/>
<path d="M7.97 9.71003C7.97 9.71003 8 9.69003 8 9.71003V9.76003H7.97V9.71003Z" fill="black"/>
<path d="M7.61 12.03C7.61 11.81 7.77 11.76 7.77 11.76C7.77 11.76 7.94 11.82 7.94 12.04H7.61" fill="#FFFF00"/>
<path d="M7.46999 11.76L7.43999 12.01H7.60999C7.60999 11.8 7.76999 11.77 7.76999 11.77C7.76999 11.77 7.92999 11.82 7.92999 12.01H8.09999L8.06999 11.75H7.46999V11.76Z" fill="#FFFF00"/>
<path d="M7.61999 12.02H7.42999L7.45999 11.75H8.07999L8.10999 12.02H7.91999C7.91999 11.82 7.76999 11.78 7.75999 11.78C7.75999 11.78 7.60999 11.81 7.60999 12.01L7.61999 12.02ZM7.94999 12H8.09999L8.06999 11.76H7.80999C7.80999 11.76 7.84999 11.78 7.86999 11.8C7.90999 11.83 7.94999 11.89 7.94999 11.99V12ZM7.45999 12H7.59999C7.59999 11.89 7.64999 11.83 7.68999 11.8C7.70999 11.79 7.72999 11.78 7.73999 11.77H7.47999L7.44999 12H7.45999Z" fill="black"/>
<path d="M7.42999 12.0201H8.10999C8.10999 12.0201 8.13999 12.03 8.13999 12.05C8.13999 12.07 8.12999 12.08 8.10999 12.08H7.42999C7.42999 12.08 7.39999 12.07 7.39999 12.05C7.39999 12.03 7.40999 12.0201 7.42999 12.0201Z" fill="#FFFF00"/>
<path d="M8.11 12.09H7.43C7.43 12.09 7.39 12.07 7.39 12.05C7.39 12.03 7.41 12.01 7.43 12.01H8.11C8.11 12.01 8.15 12.03 8.15 12.05C8.15 12.07 8.13 12.09 8.11 12.09ZM7.43 12.03C7.43 12.03 7.41 12.03 7.41 12.05C7.41 12.07 7.41 12.07 7.43 12.07H8.11C8.11 12.07 8.13 12.07 8.13 12.05C8.13 12.03 8.13 12.03 8.11 12.03H7.43Z" fill="black"/>
<path d="M7.68 12.01C7.68 11.88 7.77 11.84 7.77 11.84C7.77 11.84 7.86 11.88 7.86 12.01H7.67" fill="#FFFF00"/>
<path d="M7.88 12.02H7.68L7.67 12.01C7.67 11.92 7.71 11.88 7.74 11.85C7.74 11.85 7.77 11.83 7.78 11.83C7.78 11.83 7.88 11.88 7.88 12.01V12.02ZM7.69 12H7.85C7.85 11.9 7.78 11.86 7.77 11.85C7.75 11.85 7.69 11.9 7.69 12Z" fill="black"/>
<path d="M7.44999 11.65H8.09999C8.09999 11.65 8.11999 11.66 8.11999 11.68C8.11999 11.7 8.10999 11.71 8.09999 11.71H7.44999C7.44999 11.71 7.42999 11.7 7.42999 11.68C7.42999 11.66 7.43999 11.65 7.44999 11.65Z" fill="#FFFF00"/>
<path d="M8.1 11.72H7.45C7.45 11.72 7.42 11.7 7.42 11.68C7.42 11.66 7.44 11.64 7.45 11.64H8.1C8.1 11.64 8.13 11.66 8.13 11.68C8.13 11.7 8.11 11.72 8.1 11.72ZM7.45 11.66C7.45 11.66 7.44 11.66 7.44 11.68C7.44 11.7 7.44 11.7 7.45 11.7H8.1C8.1 11.7 8.11 11.7 8.11 11.68C8.11 11.66 8.11 11.66 8.1 11.66H7.45Z" fill="black"/>
<path d="M7.45999 11.7101H8.07999C8.07999 11.7101 8.09999 11.7201 8.09999 11.7401C8.09999 11.7601 8.08999 11.7701 8.07999 11.7701H7.45999C7.45999 11.7701 7.43999 11.7601 7.43999 11.7401C7.43999 11.7201 7.44999 11.7101 7.45999 11.7101Z" fill="#FFFF00"/>
<path d="M8.07999 11.78H7.45999C7.45999 11.78 7.42999 11.76 7.42999 11.74C7.42999 11.72 7.44999 11.7 7.45999 11.7H8.07999C8.07999 11.7 8.10999 11.72 8.10999 11.74C8.10999 11.76 8.08999 11.78 8.07999 11.78ZM7.45999 11.72C7.45999 11.72 7.44999 11.72 7.44999 11.74C7.44999 11.76 7.44999 11.76 7.45999 11.76H8.07999C8.07999 11.76 8.08999 11.76 8.08999 11.74C8.08999 11.72 8.08999 11.72 8.07999 11.72H7.45999Z" fill="black"/>
<path d="M7.65999 11.29H7.70999V11.32H7.74999V11.28H7.79999V11.32H7.83999V11.28H7.88999V11.36C7.88999 11.36 7.87999 11.38 7.86999 11.38H7.68999C7.68999 11.38 7.66999 11.38 7.66999 11.36V11.28L7.65999 11.29Z" fill="#FFFF00"/>
<path d="M7.85999 11.4H7.67999C7.67999 11.4 7.64999 11.39 7.64999 11.37V11.29H7.70999V11.32H7.72999V11.28H7.79999V11.32H7.81999V11.28H7.88999V11.37C7.88999 11.37 7.87999 11.4 7.85999 11.4ZM7.66999 11.3V11.37C7.66999 11.37 7.66999 11.38 7.67999 11.38H7.85999C7.85999 11.38 7.86999 11.38 7.86999 11.37V11.3H7.83999V11.34H7.77999V11.3H7.74999V11.34H7.68999V11.31H7.65999L7.66999 11.3Z" fill="black"/>
<path d="M7.84999 11.4V11.66H7.68999V11.4H7.84999Z" fill="#FFFF00"/>
<path d="M7.86999 11.66H7.67999L7.68999 11.38H7.85999L7.86999 11.66ZM7.69999 11.64H7.84999L7.83999 11.4H7.70999L7.69999 11.64Z" fill="black"/>
<path d="M7.64 11.52V11.66H7.48V11.52H7.64Z" fill="#FFFF00"/>
<path d="M7.47 11.66V11.5H7.65V11.66H7.47ZM7.49 11.53V11.65H7.63V11.53H7.49Z" fill="black"/>
<path d="M8.05999 11.52V11.66H7.89999V11.52H8.05999Z" fill="#FFFF00"/>
<path d="M7.89 11.66V11.5H8.07V11.66H7.89ZM7.92 11.53V11.65H8.06V11.53H7.92Z" fill="black"/>
<path d="M7.45 11.41H7.5V11.45H7.54V11.41H7.59V11.45H7.63V11.41H7.68V11.49C7.68 11.5 7.68 11.51 7.66 11.51H7.49C7.49 11.51 7.47 11.51 7.47 11.49V11.41H7.45Z" fill="#FFFF00"/>
<path d="M7.65 11.53H7.48C7.48 11.53 7.45 11.52 7.45 11.5V11.42H7.51V11.45H7.53V11.41H7.6V11.45H7.62V11.41H7.69V11.5C7.69 11.52 7.68 11.53 7.66 11.53H7.65ZM7.46 11.42V11.49C7.46 11.49 7.46 11.5 7.47 11.5H7.64C7.64 11.5 7.65 11.5 7.65 11.49V11.42H7.62V11.46H7.56V11.42H7.53V11.46H7.47V11.43H7.44L7.46 11.42Z" fill="black"/>
<path d="M7.87999 11.41H7.92999V11.45H7.96999V11.41H8.01999V11.45H8.05999V11.41H8.10999V11.49C8.10999 11.5 8.10999 11.51 8.08999 11.51H7.91999C7.91999 11.51 7.89999 11.51 7.89999 11.49V11.41H7.87999Z" fill="#FFFF00"/>
<path d="M8.06999 11.53H7.9C7.9 11.53 7.87 11.52 7.87 11.5V11.42H7.93V11.45H7.95V11.41H8.02V11.45H8.04V11.41H8.10999V11.5C8.10999 11.52 8.1 11.53 8.08 11.53H8.06999ZM7.89 11.42V11.49C7.89 11.49 7.89 11.5 7.9 11.5H8.06999C8.06999 11.5 8.08 11.5 8.08 11.49V11.42H8.05V11.46H7.99V11.42H7.96V11.46H7.9V11.43H7.87L7.89 11.42Z" fill="black"/>
<path d="M7.75999 11.48C7.75999 11.48 7.79999 11.45 7.78999 11.48V11.54H7.75999V11.48Z" fill="black"/>
<path d="M7.53999 11.57C7.53999 11.57 7.56999 11.55 7.56999 11.57V11.62H7.53999V11.57Z" fill="black"/>
<path d="M7.97 11.57C7.97 11.57 8 11.55 8 11.57V11.62H7.97V11.57Z" fill="black"/>
<path d="M8.33 13.96C8.18 13.8 8.25 13.65 8.25 13.65C8.25 13.65 8.41 13.57 8.56 13.72L8.32 13.95" fill="#FFFF00"/>
<path d="M8.03999 13.86L8.19999 14.06L8.31999 13.94C8.16999 13.79 8.25999 13.65 8.25999 13.65C8.25999 13.65 8.40999 13.57 8.54999 13.71L8.66999 13.59L8.46999 13.43L8.04999 13.86H8.03999Z" fill="#FFFF00"/>
<path d="M8.2 14.08L8.03 13.87L8.47 13.43L8.69 13.6L8.56 13.73C8.42 13.59 8.29 13.67 8.28 13.67C8.28 13.67 8.2 13.8 8.34 13.94L8.21 14.08H8.2ZM8.06 13.87L8.21 14.05L8.31 13.95C8.23 13.87 8.22 13.79 8.23 13.74C8.23 13.72 8.23 13.7 8.24 13.68L8.06 13.87ZM8.37 13.62C8.37 13.62 8.49 13.63 8.55 13.7L8.65 13.6L8.46 13.45L8.27 13.64C8.27 13.64 8.31 13.63 8.34 13.63C8.34 13.63 8.34 13.63 8.35 13.63L8.37 13.62Z" fill="black"/>
<path d="M8.19999 14.0701L8.67999 13.5901C8.67999 13.5901 8.70999 13.5901 8.71999 13.5901C8.72999 13.5901 8.72999 13.6201 8.71999 13.6301L8.23999 14.1101C8.23999 14.1101 8.20999 14.1101 8.19999 14.1101C8.18999 14.1101 8.18999 14.0801 8.19999 14.0701Z" fill="#FFFF00"/>
<path d="M8.21999 14.13C8.20999 14.13 8.19999 14.13 8.18999 14.12C8.18999 14.12 8.17999 14.1 8.17999 14.09V14.07L8.65999 13.59C8.65999 13.59 8.69999 13.58 8.70999 13.59C8.72999 13.61 8.72999 13.63 8.70999 13.64L8.22999 14.12C8.22999 14.12 8.21999 14.12 8.20999 14.12L8.21999 14.13ZM8.68999 13.59L8.20999 14.07C8.20999 14.07 8.20999 14.08 8.20999 14.09C8.20999 14.09 8.20999 14.09 8.21999 14.09C8.21999 14.09 8.21999 14.09 8.22999 14.09L8.70999 13.61C8.70999 13.61 8.70999 13.59 8.70999 13.58C8.70999 13.58 8.69999 13.58 8.68999 13.58V13.59Z" fill="black"/>
<path d="M8.37001 13.9C8.28001 13.81 8.31001 13.72 8.31001 13.72C8.31001 13.72 8.40001 13.68 8.50001 13.77L8.37001 13.9Z" fill="#FFFF00"/>
<path d="M8.37 13.91C8.31 13.84 8.3 13.78 8.3 13.74C8.3 13.74 8.3 13.71 8.3 13.7C8.3 13.7 8.31 13.7 8.33 13.7C8.36 13.7 8.43 13.7 8.5 13.76L8.36 13.91H8.37ZM8.32 13.72C8.32 13.72 8.3 13.81 8.37 13.88L8.49 13.76C8.42 13.69 8.34 13.71 8.33 13.71L8.32 13.72Z" fill="black"/>
<path d="M7.95 13.81L8.41 13.35C8.41 13.35 8.44 13.35 8.45 13.35C8.46 13.35 8.46 13.38 8.45 13.39L7.99 13.85C7.99 13.85 7.96 13.85 7.95 13.85C7.94 13.85 7.94 13.82 7.95 13.81Z" fill="#FFFF00"/>
<path d="M7.97 13.86C7.97 13.86 7.95 13.86 7.94 13.85C7.93 13.84 7.92 13.81 7.94 13.8L8.4 13.34C8.4 13.34 8.41 13.34 8.42 13.34C8.42 13.34 8.44 13.34 8.45 13.35C8.46 13.36 8.47 13.39 8.45 13.4L7.99 13.86C7.99 13.86 7.98 13.86 7.97 13.86ZM7.96 13.81V13.83C7.96 13.83 7.96 13.83 7.97 13.83L8.43 13.37V13.35C8.43 13.35 8.43 13.35 8.42 13.35L7.96 13.81Z" fill="black"/>
<path d="M8.00001 13.84L8.44001 13.4C8.44001 13.4 8.47001 13.4 8.48001 13.4C8.49001 13.4 8.49001 13.43 8.48001 13.44L8.04001 13.88C8.04001 13.88 8.01001 13.88 8.00001 13.88C7.99001 13.88 7.99001 13.85 8.00001 13.84Z" fill="#FFFF00"/>
<path d="M8.03001 13.89C8.03001 13.89 8.01001 13.89 8.00001 13.88C8.00001 13.88 7.99001 13.86 7.99001 13.85V13.83L8.43001 13.39C8.43001 13.39 8.47001 13.38 8.48001 13.39C8.49001 13.4 8.50001 13.43 8.48001 13.44L8.04001 13.88C8.04001 13.88 8.03001 13.88 8.02001 13.88L8.03001 13.89ZM8.46001 13.4L8.02001 13.84V13.85C8.02001 13.85 8.02001 13.85 8.03001 13.85L8.47001 13.41V13.39C8.47001 13.39 8.47001 13.39 8.46001 13.39V13.4Z" fill="black"/>
<path d="M7.84 13.4L7.87 13.37L7.89 13.39L7.92 13.36L7.89 13.33L7.93 13.29L7.96 13.32L7.99 13.29L7.96 13.26L8 13.22L8.06 13.28C8.06 13.28 8.06 13.3 8.06 13.31L7.94 13.44C7.94 13.44 7.92 13.44 7.91 13.44L7.85 13.38L7.84 13.4Z" fill="#FFFF00"/>
<path d="M7.91 13.47H7.89L7.83 13.41L7.87 13.36L7.89 13.38H7.9L7.87 13.34L7.92 13.29L7.95 13.31H7.96L7.93 13.27L7.98 13.22L8.04 13.28C8.04 13.28 8.05 13.31 8.04 13.32L7.92 13.45H7.9L7.91 13.47ZM7.86 13.4L7.91 13.45C7.91 13.45 7.92 13.45 7.93 13.45L8.05 13.32C8.05 13.32 8.05 13.31 8.05 13.3L8 13.25L7.98 13.27L8.01 13.3L7.97 13.34L7.94 13.31L7.92 13.33L7.95 13.36L7.91 13.4L7.89 13.38L7.87 13.4H7.86Z" fill="black"/>
<path d="M8.04999 13.34L8.23999 13.51L8.11999 13.63L7.93999 13.44L8.04999 13.33" fill="#FFFF00"/>
<path d="M8.11999 13.65L7.92999 13.45L8.04999 13.33L8.25999 13.52L8.11999 13.66V13.65ZM7.95999 13.45L8.11999 13.63L8.22999 13.52L8.04999 13.36L7.95999 13.45Z" fill="black"/>
<path d="M7.99 13.57L8.09 13.66L7.97 13.78L7.87 13.68L7.98 13.57H7.99Z" fill="#FFFF00"/>
<path d="M7.97 13.8L7.86 13.68L7.98 13.56L8.1 13.67L7.97 13.8ZM7.89 13.68L7.97 13.77L8.07 13.67L7.98 13.59L7.88 13.69L7.89 13.68Z" fill="black"/>
<path d="M8.28 13.2701L8.38 13.36L8.26 13.48L8.16 13.38L8.27 13.2701H8.28Z" fill="#FFFF00"/>
<path d="M8.27 13.5L8.16 13.38L8.28 13.26L8.39 13.36L8.26 13.49L8.27 13.5ZM8.19 13.38L8.27 13.47L8.37 13.37L8.28 13.29L8.18 13.39L8.19 13.38Z" fill="black"/>
<path d="M7.78 13.64L7.81 13.61L7.83 13.63L7.85 13.61L7.82 13.58L7.85 13.55L7.88 13.58L7.9 13.56L7.87 13.53L7.9 13.5L7.96 13.56C7.96 13.56 7.96 13.58 7.96 13.59L7.84 13.71C7.84 13.71 7.82 13.71 7.81 13.71L7.75 13.65L7.78 13.64Z" fill="#FFFF00"/>
<path d="M7.85 13.71H7.83L7.77 13.65L7.81 13.6L7.83 13.62H7.84L7.81 13.58L7.86 13.53L7.89 13.56H7.9L7.87 13.52L7.92 13.47L7.98 13.53C7.98 13.53 7.99 13.56 7.98 13.57L7.86 13.69C7.86 13.69 7.85 13.69 7.84 13.69L7.85 13.71ZM7.8 13.64L7.85 13.69C7.85 13.69 7.86 13.69 7.87 13.69L7.99 13.57C7.99 13.57 7.99 13.56 7.99 13.55L7.94 13.5L7.92 13.52L7.95 13.55L7.91 13.59L7.88 13.56L7.86 13.58L7.89 13.61L7.85 13.65L7.83 13.63L7.81 13.65L7.8 13.64Z" fill="black"/>
<path d="M8.08 13.33L8.11 13.3L8.13 13.32L8.15 13.3L8.12 13.27L8.15 13.24L8.18 13.27L8.2 13.25L8.17 13.22L8.2 13.19L8.26 13.25C8.26 13.25 8.26 13.27 8.26 13.28L8.14 13.4C8.14 13.4 8.12 13.4 8.11 13.4L8.05 13.34L8.08 13.33Z" fill="#FFFF00"/>
<path d="M8.15001 13.41H8.13001L8.07001 13.35L8.12001 13.3L8.14001 13.32H8.15001L8.12001 13.28L8.17001 13.23L8.20001 13.25H8.21001L8.18001 13.21L8.23001 13.16L8.29001 13.22C8.29001 13.22 8.29001 13.23 8.29001 13.24V13.26L8.17001 13.38C8.17001 13.38 8.16001 13.38 8.15001 13.38V13.41ZM8.10001 13.33L8.15001 13.38C8.15001 13.38 8.16001 13.38 8.17001 13.38L8.29001 13.26L8.24001 13.21L8.22001 13.23L8.25001 13.26L8.21001 13.3L8.18001 13.27L8.16001 13.29L8.19001 13.32L8.15001 13.36L8.13001 13.34L8.11001 13.36L8.10001 13.33Z" fill="black"/>
<path d="M8.03999 13.46C8.03999 13.46 8.03999 13.42 8.05999 13.44L8.09999 13.48L8.07999 13.5L8.03999 13.46Z" fill="black"/>
<path d="M7.96001 13.68C7.96001 13.68 7.96001 13.64 7.98001 13.66L8.01001 13.69L7.99001 13.71L7.96001 13.68Z" fill="black"/>
<path d="M8.25999 13.38C8.25999 13.38 8.25999 13.34 8.27999 13.36L8.30999 13.39L8.28999 13.41L8.25999 13.38Z" fill="black"/>
<path d="M9.44 10.18C9.44 9.96003 9.6 9.91003 9.6 9.91003C9.6 9.91003 9.77 9.97003 9.77 10.19H9.44" fill="#FFFF00"/>
<path d="M9.29999 9.91002L9.26999 10.16H9.43999C9.43999 9.95002 9.59999 9.92002 9.59999 9.92002C9.59999 9.92002 9.75999 9.97002 9.75999 10.16H9.92999L9.89999 9.90002H9.29999V9.91002Z" fill="#FFFF00"/>
<path d="M9.44999 10.17H9.25999L9.28999 9.90002H9.90999L9.93999 10.17H9.74999C9.74999 9.97002 9.59999 9.93002 9.58999 9.93002C9.58999 9.93002 9.43999 9.96002 9.43999 10.16L9.44999 10.17ZM9.77999 10.15H9.92999L9.89999 9.91002H9.63999C9.63999 9.91002 9.67999 9.93002 9.69999 9.95002C9.73999 9.98002 9.77999 10.04 9.77999 10.14V10.15ZM9.27999 10.15H9.41999C9.41999 10.04 9.46999 9.98002 9.50999 9.95002C9.52999 9.93002 9.54999 9.92002 9.55999 9.92002H9.29999L9.26999 10.15H9.27999Z" fill="black"/>
<path d="M9.26 10.16H9.94C9.94 10.16 9.97 10.17 9.97 10.19C9.97 10.21 9.96 10.22 9.94 10.22H9.26C9.26 10.22 9.23 10.21 9.23 10.19C9.23 10.17 9.24 10.16 9.26 10.16Z" fill="#FFFF00"/>
<path d="M9.94 10.24H9.26C9.26 10.24 9.22 10.22 9.22 10.2C9.22 10.18 9.24 10.16 9.26 10.16H9.94C9.94 10.16 9.98 10.18 9.98 10.2C9.98 10.22 9.96 10.24 9.94 10.24ZM9.26 10.17C9.26 10.17 9.24 10.17 9.24 10.19C9.24 10.21 9.24 10.21 9.26 10.21H9.94C9.94 10.21 9.96 10.21 9.96 10.19C9.96 10.17 9.96 10.17 9.94 10.17H9.26Z" fill="black"/>
<path d="M9.51 10.16C9.51 10.03 9.6 9.99002 9.6 9.99002C9.6 9.99002 9.69 10.03 9.69 10.16H9.5" fill="#FFFF00"/>
<path d="M9.70001 10.17H9.50001L9.49001 10.16C9.49001 10.07 9.53001 10.03 9.56001 10C9.56001 10 9.59001 9.98001 9.60001 9.98001C9.60001 9.98001 9.70001 10.03 9.70001 10.16V10.17ZM9.52001 10.15H9.68001C9.68001 10.05 9.61001 10.01 9.60001 10C9.58001 10 9.52001 10.05 9.52001 10.15Z" fill="black"/>
<path d="M9.27999 9.80002H9.92999C9.92999 9.80002 9.94999 9.81002 9.94999 9.83002C9.94999 9.85002 9.93999 9.86002 9.92999 9.86002H9.27999C9.27999 9.86002 9.25999 9.85002 9.25999 9.83002C9.25999 9.81002 9.26999 9.80002 9.27999 9.80002Z" fill="#FFFF00"/>
<path d="M9.93 9.87001H9.28C9.28 9.87001 9.25 9.85001 9.25 9.83001C9.25 9.81001 9.27 9.79001 9.28 9.79001H9.93C9.93 9.79001 9.96 9.81001 9.96 9.83001C9.96 9.85001 9.94 9.87001 9.93 9.87001ZM9.28 9.81001C9.28 9.81001 9.27 9.81001 9.27 9.83001C9.27 9.85001 9.27 9.85001 9.28 9.85001H9.93C9.93 9.85001 9.94 9.85001 9.94 9.83001C9.94 9.81001 9.94 9.81001 9.93 9.81001H9.28Z" fill="black"/>
<path d="M9.28999 9.86005H9.90999C9.90999 9.86005 9.92999 9.87005 9.92999 9.89005C9.92999 9.91005 9.91999 9.92005 9.90999 9.92005H9.28999C9.28999 9.92005 9.26999 9.91005 9.26999 9.89005C9.26999 9.87005 9.27999 9.86005 9.28999 9.86005Z" fill="#FFFF00"/>
<path d="M9.90999 9.93004H9.28999C9.28999 9.93004 9.25999 9.91004 9.25999 9.89004C9.25999 9.87004 9.27999 9.85004 9.28999 9.85004H9.90999C9.90999 9.85004 9.93999 9.87004 9.93999 9.89004C9.93999 9.91004 9.91999 9.93004 9.90999 9.93004ZM9.28999 9.87004C9.28999 9.87004 9.27999 9.87004 9.27999 9.89004C9.27999 9.91004 9.27999 9.91004 9.28999 9.91004H9.90999C9.90999 9.91004 9.91999 9.91004 9.91999 9.89004C9.91999 9.87004 9.91999 9.87004 9.90999 9.87004H9.28999Z" fill="black"/>
<path d="M9.48999 9.44002H9.53999V9.47002H9.57999V9.43002H9.62999V9.47002H9.66999V9.43002H9.71999V9.51002C9.71999 9.51002 9.70999 9.53002 9.69999 9.53002H9.51999C9.51999 9.53002 9.49999 9.53002 9.49999 9.51002V9.43002L9.48999 9.44002Z" fill="#FFFF00"/>
<path d="M9.69 9.55002H9.51C9.51 9.55002 9.48 9.54002 9.48 9.52002V9.44002H9.54V9.47002H9.56V9.43002H9.63V9.47002H9.65V9.43002H9.72V9.52002C9.72 9.52002 9.71 9.55002 9.69 9.55002ZM9.5 9.45002V9.52002C9.5 9.52002 9.5 9.53002 9.51 9.53002H9.69C9.69 9.53002 9.7 9.53002 9.7 9.52002V9.45002H9.67V9.49002H9.61V9.45002H9.58V9.49002H9.52V9.46002H9.49L9.5 9.45002Z" fill="black"/>
<path d="M9.67999 9.54004V9.80004H9.51999V9.54004H9.67999Z" fill="#FFFF00"/>
<path d="M9.69999 9.81003H9.50999L9.51999 9.53003H9.68999L9.69999 9.81003ZM9.52999 9.79003H9.67999L9.66999 9.55003H9.53999L9.52999 9.79003Z" fill="black"/>
<path d="M9.47 9.66003V9.80003H9.31V9.66003H9.47Z" fill="#FFFF00"/>
<path d="M9.3 9.81002V9.65002H9.48V9.81002H9.3ZM9.32 9.67002V9.79002H9.46V9.67002H9.32Z" fill="black"/>
<path d="M9.89 9.66003V9.80003H9.73V9.66003H9.89Z" fill="#FFFF00"/>
<path d="M9.72 9.81002V9.65002H9.9V9.81002H9.72ZM9.75 9.67002V9.79002H9.89V9.67002H9.75Z" fill="black"/>
<path d="M9.28 9.56003H9.33V9.60003H9.37V9.56003H9.42V9.60003H9.46V9.56003H9.51V9.64003C9.51 9.65003 9.51 9.66003 9.49 9.66003H9.32C9.32 9.66003 9.3 9.66003 9.3 9.64003V9.56003H9.28Z" fill="#FFFF00"/>
<path d="M9.48 9.67002H9.31C9.31 9.67002 9.28 9.66002 9.28 9.64002V9.56002H9.34V9.59002H9.36V9.55002H9.43V9.59002H9.45V9.55002H9.52V9.64002C9.52 9.66002 9.51 9.67002 9.49 9.67002H9.48ZM9.29 9.57002V9.64002C9.29 9.64002 9.29 9.65002 9.3 9.65002H9.47C9.47 9.65002 9.48 9.65002 9.48 9.64002V9.57002H9.45V9.61002H9.39V9.57002H9.36V9.61002H9.3V9.58002H9.27L9.29 9.57002Z" fill="black"/>
<path d="M9.7 9.56003H9.75V9.60003H9.79V9.56003H9.84V9.60003H9.88V9.56003H9.93V9.64003C9.93 9.65003 9.93 9.66003 9.91 9.66003H9.74C9.74 9.66003 9.72 9.66003 9.72 9.64003V9.56003H9.7Z" fill="#FFFF00"/>
<path d="M9.9 9.67002H9.73C9.73 9.67002 9.7 9.66002 9.7 9.64002V9.56002H9.76V9.59002H9.78V9.55002H9.85V9.59002H9.87V9.55002H9.94V9.64002C9.94 9.66002 9.93 9.67002 9.91 9.67002H9.9ZM9.71 9.57002V9.64002C9.71 9.64002 9.71 9.65002 9.72 9.65002H9.89C9.89 9.65002 9.9 9.65002 9.9 9.64002V9.57002H9.87V9.61002H9.81V9.57002H9.78V9.61002H9.72V9.58002H9.69L9.71 9.57002Z" fill="black"/>
<path d="M9.58 9.62002C9.58 9.62002 9.62 9.59002 9.61 9.62002V9.68002H9.58V9.62002Z" fill="black"/>
<path d="M9.37 9.71003C9.37 9.71003 9.39999 9.69003 9.39999 9.71003V9.76003H9.37V9.71003Z" fill="black"/>
<path d="M9.8 9.71003C9.8 9.71003 9.83 9.69003 9.83 9.71003V9.76003H9.8V9.71003Z" fill="black"/>
<path d="M11.58 10.18C11.58 9.96003 11.42 9.91003 11.42 9.91003C11.42 9.91003 11.25 9.97003 11.25 10.19H11.58" fill="#FFFF00"/>
<path d="M11.72 9.91002L11.75 10.16H11.58C11.58 9.95002 11.42 9.92002 11.42 9.92002C11.42 9.92002 11.26 9.97002 11.26 10.16H11.09L11.12 9.90002H11.72V9.91002Z" fill="#FFFF00"/>
<path d="M11.57 10.17C11.57 9.96004 11.42 9.93004 11.42 9.93004C11.42 9.93004 11.27 9.97004 11.27 10.16H11.08L11.11 9.88004H11.73L11.76 10.16H11.57V10.17ZM11.1 10.15H11.25C11.25 10.05 11.3 9.99004 11.33 9.96004C11.35 9.94004 11.38 9.93004 11.39 9.92004H11.13L11.1 10.16V10.15ZM11.45 9.92004C11.45 9.92004 11.48 9.94004 11.5 9.95004C11.54 9.98004 11.59 10.04 11.59 10.15H11.73L11.7 9.92004H11.44H11.45Z" fill="black"/>
<path d="M11.76 10.16H11.08C11.08 10.16 11.05 10.17 11.05 10.19C11.05 10.21 11.06 10.22 11.08 10.22H11.76C11.76 10.22 11.79 10.21 11.79 10.19C11.79 10.17 11.78 10.16 11.76 10.16Z" fill="#FFFF00"/>
<path d="M11.76 10.24H11.08C11.08 10.24 11.04 10.22 11.04 10.2C11.04 10.18 11.06 10.16 11.08 10.16H11.76C11.76 10.16 11.8 10.18 11.8 10.2C11.8 10.22 11.78 10.24 11.76 10.24ZM11.08 10.17C11.08 10.17 11.06 10.17 11.06 10.19C11.06 10.21 11.06 10.21 11.08 10.21H11.76C11.76 10.21 11.78 10.21 11.78 10.19C11.78 10.17 11.78 10.17 11.76 10.17H11.08Z" fill="black"/>
<path d="M11.51 10.16C11.51 10.03 11.42 9.99002 11.42 9.99002C11.42 9.99002 11.33 10.03 11.33 10.16H11.52" fill="#FFFF00"/>
<path d="M11.52 10.17H11.31C11.31 10.03 11.41 9.98001 11.41 9.98001L11.44 10C11.47 10.03 11.51 10.07 11.51 10.16L11.52 10.17ZM11.34 10.15H11.5C11.5 10.05 11.43 10.01 11.42 10C11.41 10 11.34 10.04 11.34 10.15Z" fill="black"/>
<path d="M11.74 9.80002H11.09C11.09 9.80002 11.07 9.81002 11.07 9.83002C11.07 9.85002 11.08 9.86002 11.09 9.86002H11.74C11.74 9.86002 11.76 9.85002 11.76 9.83002C11.76 9.81002 11.75 9.80002 11.74 9.80002Z" fill="#FFFF00"/>
<path d="M11.74 9.87001H11.09C11.09 9.87001 11.06 9.85001 11.06 9.83001C11.06 9.81001 11.08 9.79001 11.09 9.79001H11.74C11.74 9.79001 11.77 9.81001 11.77 9.83001C11.77 9.85001 11.75 9.87001 11.74 9.87001ZM11.09 9.81001C11.09 9.81001 11.08 9.81001 11.08 9.83001C11.08 9.85001 11.08 9.85001 11.09 9.85001H11.74C11.74 9.85001 11.75 9.85001 11.75 9.83001C11.75 9.81001 11.75 9.81001 11.74 9.81001H11.09Z" fill="black"/>
<path d="M11.73 9.86005H11.11C11.11 9.86005 11.09 9.87005 11.09 9.89005C11.09 9.91005 11.1 9.92005 11.11 9.92005H11.73C11.73 9.92005 11.75 9.91005 11.75 9.89005C11.75 9.87005 11.74 9.86005 11.73 9.86005Z" fill="#FFFF00"/>
<path d="M11.73 9.93004H11.11C11.11 9.93004 11.08 9.91004 11.08 9.89004C11.08 9.87004 11.1 9.85004 11.11 9.85004H11.73C11.73 9.85004 11.76 9.87004 11.76 9.89004C11.76 9.91004 11.74 9.93004 11.73 9.93004ZM11.11 9.87004C11.11 9.87004 11.1 9.87004 11.1 9.89004C11.1 9.91004 11.1 9.91004 11.11 9.91004H11.73C11.73 9.91004 11.74 9.91004 11.74 9.89004C11.74 9.87004 11.74 9.87004 11.73 9.87004H11.11Z" fill="black"/>
<path d="M11.53 9.44002H11.48V9.47002H11.44V9.43002H11.39V9.47002H11.35V9.43002H11.3V9.51002C11.3 9.51002 11.31 9.53002 11.32 9.53002H11.5C11.5 9.53002 11.52 9.53002 11.52 9.51002V9.43002L11.53 9.44002Z" fill="#FFFF00"/>
<path d="M11.51 9.55002H11.33C11.33 9.55002 11.3 9.54002 11.3 9.52002V9.43002H11.37V9.47002H11.39V9.43002H11.46V9.47002H11.48V9.44002H11.54V9.52002C11.54 9.52002 11.52 9.55002 11.51 9.55002ZM11.32 9.44002V9.51002C11.32 9.51002 11.32 9.52002 11.33 9.52002H11.51C11.51 9.52002 11.52 9.52002 11.52 9.51002V9.44002H11.49V9.47002H11.43V9.43002H11.4V9.47002H11.34V9.43002H11.31L11.32 9.44002Z" fill="black"/>
<path d="M11.34 9.54004V9.80004H11.5V9.54004H11.34Z" fill="#FFFF00"/>
<path d="M11.32 9.81003V9.53003H11.5V9.81003H11.32ZM11.35 9.55003V9.79003H11.49V9.55003H11.35Z" fill="black"/>
<path d="M11.55 9.66003V9.80003H11.71V9.66003H11.55Z" fill="#FFFF00"/>
<path d="M11.72 9.81002H11.53V9.65002H11.7V9.81002H11.72ZM11.56 9.79002H11.7V9.67002H11.56V9.79002Z" fill="black"/>
<path d="M11.13 9.66003V9.80003H11.29V9.66003H11.13Z" fill="#FFFF00"/>
<path d="M11.3 9.81002H11.11V9.65002H11.28V9.81002H11.3ZM11.13 9.79002H11.27V9.67002H11.13V9.79002Z" fill="black"/>
<path d="M11.74 9.56003H11.69V9.60003H11.65V9.56003H11.6V9.60003H11.56V9.56003H11.51V9.64003C11.51 9.65003 11.51 9.66003 11.53 9.66003H11.7C11.7 9.66003 11.72 9.66003 11.72 9.64003V9.56003H11.74Z" fill="#FFFF00"/>
<path d="M11.72 9.67002H11.55C11.55 9.67002 11.52 9.66002 11.52 9.64002V9.55002H11.59V9.59002H11.61V9.55002H11.68V9.59002H11.7V9.56002H11.76V9.64002C11.76 9.64002 11.75 9.67002 11.73 9.67002H11.72ZM11.53 9.57002V9.64002C11.53 9.64002 11.53 9.65002 11.54 9.65002H11.71C11.71 9.65002 11.72 9.65002 11.72 9.64002V9.57002H11.69V9.60002H11.63V9.56002H11.6V9.60002H11.54V9.56002H11.51L11.53 9.57002Z" fill="black"/>
<path d="M11.32 9.56003H11.27V9.60003H11.23V9.56003H11.18V9.60003H11.14V9.56003H11.09V9.64003C11.09 9.65003 11.09 9.66003 11.11 9.66003H11.28C11.28 9.66003 11.3 9.66003 11.3 9.64003V9.56003H11.32Z" fill="#FFFF00"/>
<path d="M11.29 9.67002H11.12C11.12 9.67002 11.09 9.66002 11.09 9.64002V9.55002H11.16V9.59002H11.18V9.55002H11.25V9.59002H11.27V9.56002H11.33V9.64002C11.33 9.64002 11.32 9.67002 11.3 9.67002H11.29ZM11.11 9.57002V9.64002C11.11 9.64002 11.11 9.65002 11.12 9.65002H11.29C11.29 9.65002 11.3 9.65002 11.3 9.64002V9.57002H11.27V9.60002H11.21V9.56002H11.18V9.60002H11.12V9.56002H11.09L11.11 9.57002Z" fill="black"/>
<path d="M11.44 9.62002C11.44 9.62002 11.4 9.59002 11.41 9.62002V9.68002H11.44V9.62002Z" fill="black"/>
<path d="M11.65 9.71003C11.65 9.71003 11.62 9.69003 11.62 9.71003V9.76003H11.65V9.71003Z" fill="black"/>
<path d="M11.22 9.71003C11.22 9.71003 11.19 9.69003 11.19 9.71003V9.76003H11.22V9.71003Z" fill="black"/>
<path d="M11.58 12.03C11.58 11.81 11.42 11.76 11.42 11.76C11.42 11.76 11.25 11.82 11.25 12.04H11.58" fill="#FFFF00"/>
<path d="M11.72 11.76L11.75 12.01H11.58C11.58 11.8 11.42 11.77 11.42 11.77C11.42 11.77 11.26 11.82 11.26 12.01H11.09L11.12 11.75H11.72V11.76Z" fill="#FFFF00"/>
<path d="M11.57 12.02C11.57 11.81 11.42 11.78 11.42 11.78C11.42 11.78 11.27 11.82 11.27 12.01H11.08L11.11 11.73H11.73L11.76 12.01H11.57V12.02ZM11.1 12H11.25C11.25 11.9 11.3 11.84 11.33 11.81C11.35 11.79 11.38 11.78 11.39 11.77H11.13L11.1 12.01V12ZM11.45 11.77C11.45 11.77 11.48 11.79 11.5 11.8C11.54 11.83 11.59 11.89 11.59 12H11.73L11.7 11.77H11.44H11.45Z" fill="black"/>
<path d="M11.76 12.0201H11.08C11.08 12.0201 11.05 12.03 11.05 12.05C11.05 12.07 11.06 12.08 11.08 12.08H11.76C11.76 12.08 11.79 12.07 11.79 12.05C11.79 12.03 11.78 12.0201 11.76 12.0201Z" fill="#FFFF00"/>
<path d="M11.76 12.09H11.08C11.08 12.09 11.04 12.07 11.04 12.05C11.04 12.03 11.06 12.01 11.08 12.01H11.76C11.76 12.01 11.8 12.03 11.8 12.05C11.8 12.07 11.78 12.09 11.76 12.09ZM11.08 12.03C11.08 12.03 11.06 12.03 11.06 12.05C11.06 12.07 11.06 12.07 11.08 12.07H11.76C11.76 12.07 11.78 12.07 11.78 12.05C11.78 12.03 11.78 12.03 11.76 12.03H11.08Z" fill="black"/>
<path d="M11.51 12.01C11.51 11.88 11.42 11.84 11.42 11.84C11.42 11.84 11.33 11.88 11.33 12.01H11.52" fill="#FFFF00"/>
<path d="M11.52 12.02H11.31C11.31 11.88 11.41 11.83 11.41 11.83L11.44 11.85C11.47 11.88 11.51 11.92 11.51 12.01L11.52 12.02ZM11.34 12H11.5C11.5 11.9 11.43 11.86 11.42 11.85C11.41 11.85 11.34 11.89 11.34 12Z" fill="black"/>
<path d="M11.74 11.65H11.09C11.09 11.65 11.07 11.66 11.07 11.68C11.07 11.7 11.08 11.71 11.09 11.71H11.74C11.74 11.71 11.76 11.7 11.76 11.68C11.76 11.66 11.75 11.65 11.74 11.65Z" fill="#FFFF00"/>
<path d="M11.74 11.72H11.09C11.09 11.72 11.06 11.7 11.06 11.68C11.06 11.66 11.08 11.64 11.09 11.64H11.74C11.74 11.64 11.77 11.66 11.77 11.68C11.77 11.7 11.75 11.72 11.74 11.72ZM11.09 11.66C11.09 11.66 11.08 11.66 11.08 11.68C11.08 11.7 11.08 11.7 11.09 11.7H11.74C11.74 11.7 11.75 11.7 11.75 11.68C11.75 11.66 11.75 11.66 11.74 11.66H11.09Z" fill="black"/>
<path d="M11.73 11.7101H11.11C11.11 11.7101 11.09 11.7201 11.09 11.7401C11.09 11.7601 11.1 11.7701 11.11 11.7701H11.73C11.73 11.7701 11.75 11.7601 11.75 11.7401C11.75 11.7201 11.74 11.7101 11.73 11.7101Z" fill="#FFFF00"/>
<path d="M11.73 11.78H11.11C11.11 11.78 11.08 11.76 11.08 11.74C11.08 11.72 11.1 11.7 11.11 11.7H11.73C11.73 11.7 11.76 11.72 11.76 11.74C11.76 11.76 11.74 11.78 11.73 11.78ZM11.11 11.72C11.11 11.72 11.1 11.72 11.1 11.74C11.1 11.76 11.1 11.76 11.11 11.76H11.73C11.73 11.76 11.74 11.76 11.74 11.74C11.74 11.72 11.74 11.72 11.73 11.72H11.11Z" fill="black"/>
<path d="M11.53 11.29H11.48V11.32H11.44V11.28H11.39V11.32H11.35V11.28H11.3V11.36C11.3 11.36 11.31 11.38 11.32 11.38H11.5C11.5 11.38 11.52 11.38 11.52 11.36V11.28L11.53 11.29Z" fill="#FFFF00"/>
<path d="M11.51 11.4H11.33C11.33 11.4 11.3 11.39 11.3 11.37V11.28H11.37V11.32H11.39V11.28H11.46V11.32H11.48V11.29H11.54V11.37C11.54 11.37 11.52 11.4 11.51 11.4ZM11.32 11.3V11.37C11.32 11.37 11.32 11.38 11.33 11.38H11.51C11.51 11.38 11.52 11.38 11.52 11.37V11.3H11.49V11.33H11.43V11.29H11.4V11.33H11.34V11.29H11.31L11.32 11.3Z" fill="black"/>
<path d="M11.34 11.4V11.66H11.5V11.4H11.34Z" fill="#FFFF00"/>
<path d="M11.32 11.66V11.38H11.5V11.66H11.32ZM11.35 11.41V11.65H11.49V11.41H11.35Z" fill="black"/>
<path d="M11.55 11.52V11.66H11.71V11.52H11.55Z" fill="#FFFF00"/>
<path d="M11.72 11.66H11.53V11.5H11.7V11.66H11.72ZM11.56 11.64H11.7V11.52H11.56V11.64Z" fill="black"/>
<path d="M11.13 11.52V11.66H11.29V11.52H11.13Z" fill="#FFFF00"/>
<path d="M11.3 11.66H11.11V11.5H11.28V11.66H11.3ZM11.13 11.64H11.27V11.52H11.13V11.64Z" fill="black"/>
<path d="M11.74 11.41H11.69V11.45H11.65V11.41H11.6V11.45H11.56V11.41H11.51V11.49C11.51 11.5 11.51 11.51 11.53 11.51H11.7C11.7 11.51 11.72 11.51 11.72 11.49V11.41H11.74Z" fill="#FFFF00"/>
<path d="M11.72 11.53H11.55C11.55 11.53 11.52 11.52 11.52 11.5V11.41H11.59V11.45H11.61V11.41H11.68V11.45H11.7V11.42H11.76V11.5C11.76 11.5 11.75 11.53 11.73 11.53H11.72ZM11.53 11.42V11.49C11.53 11.49 11.53 11.5 11.54 11.5H11.71C11.71 11.5 11.72 11.5 11.72 11.49V11.42H11.69V11.45H11.63V11.41H11.6V11.45H11.54V11.41H11.51L11.53 11.42Z" fill="black"/>
<path d="M11.32 11.41H11.27V11.45H11.23V11.41H11.18V11.45H11.14V11.41H11.09V11.49C11.09 11.5 11.09 11.51 11.11 11.51H11.28C11.28 11.51 11.3 11.51 11.3 11.49V11.41H11.32Z" fill="#FFFF00"/>
<path d="M11.29 11.53H11.12C11.12 11.53 11.09 11.52 11.09 11.5V11.41H11.16V11.45H11.18V11.41H11.25V11.45H11.27V11.42H11.33V11.5C11.33 11.5 11.32 11.53 11.3 11.53H11.29ZM11.11 11.42V11.49C11.11 11.49 11.11 11.5 11.12 11.5H11.29C11.29 11.5 11.3 11.5 11.3 11.49V11.42H11.27V11.45H11.21V11.41H11.18V11.45H11.12V11.41H11.09L11.11 11.42Z" fill="black"/>
<path d="M11.44 11.48C11.44 11.48 11.4 11.45 11.41 11.48V11.54H11.44V11.48Z" fill="black"/>
<path d="M11.65 11.57C11.65 11.57 11.62 11.55 11.62 11.57V11.62H11.65V11.57Z" fill="black"/>
<path d="M11.22 11.57C11.22 11.57 11.19 11.55 11.19 11.57V11.62H11.22V11.57Z" fill="black"/>
<path d="M10.86 13.96C11.01 13.8 10.94 13.65 10.94 13.65C10.94 13.65 10.78 13.57 10.63 13.72L10.87 13.95" fill="#FFFF00"/>
<path d="M11.15 13.86L10.99 14.06L10.87 13.94C11.02 13.79 10.93 13.65 10.93 13.65C10.93 13.65 10.78 13.57 10.64 13.71L10.52 13.59L10.72 13.43L11.14 13.86H11.15Z" fill="#FFFF00"/>
<path d="M10.99 14.08L10.86 13.95C11 13.8 10.92 13.67 10.92 13.67C10.92 13.67 10.78 13.59 10.65 13.73L10.52 13.6L10.74 13.43L11.18 13.87L11.01 14.08H10.99ZM10.88 13.95L10.98 14.05L11.13 13.87L10.95 13.68C10.95 13.68 10.96 13.72 10.96 13.74C10.96 13.79 10.96 13.87 10.88 13.95ZM10.54 13.6L10.64 13.7C10.71 13.63 10.79 13.62 10.84 13.62C10.87 13.62 10.9 13.62 10.91 13.63L10.72 13.44L10.53 13.59L10.54 13.6Z" fill="black"/>
<path d="M10.99 14.07L10.51 13.59C10.51 13.59 10.48 13.59 10.47 13.59C10.46 13.59 10.46 13.62 10.47 13.63L10.95 14.11C10.95 14.11 10.98 14.11 10.99 14.11C11 14.11 11 14.08 10.99 14.07Z" fill="#FFFF00"/>
<path d="M10.97 14.13H10.95L10.47 13.65C10.47 13.65 10.46 13.61 10.47 13.6C10.49 13.58 10.51 13.58 10.52 13.6L11 14.08C11 14.08 11 14.09 11 14.1C11 14.11 11 14.12 10.99 14.13C10.99 14.13 10.97 14.14 10.96 14.14L10.97 14.13ZM10.5 13.59C10.5 13.59 10.49 13.59 10.48 13.59C10.48 13.59 10.48 13.61 10.48 13.62L10.96 14.1C10.96 14.1 10.96 14.1 10.97 14.1H10.98C10.98 14.1 10.98 14.09 10.98 14.08L10.5 13.6V13.59Z" fill="black"/>
<path d="M10.82 13.9C10.91 13.81 10.88 13.72 10.88 13.72C10.88 13.72 10.79 13.68 10.69 13.77L10.82 13.9Z" fill="#FFFF00"/>
<path d="M10.82 13.91L10.68 13.76C10.75 13.69 10.82 13.69 10.85 13.69C10.87 13.69 10.87 13.69 10.88 13.69C10.88 13.69 10.88 13.72 10.88 13.73C10.88 13.77 10.88 13.83 10.81 13.89L10.82 13.91ZM10.71 13.76L10.83 13.88C10.9 13.81 10.88 13.73 10.88 13.72C10.86 13.72 10.79 13.7 10.72 13.77L10.71 13.76Z" fill="black"/>
<path d="M11.24 13.81L10.78 13.35C10.78 13.35 10.75 13.35 10.74 13.35C10.73 13.35 10.73 13.38 10.74 13.39L11.2 13.85C11.2 13.85 11.23 13.85 11.24 13.85C11.25 13.85 11.25 13.82 11.24 13.81Z" fill="#FFFF00"/>
<path d="M11.22 13.86H11.2L10.74 13.4C10.74 13.4 10.73 13.36 10.74 13.35C10.74 13.35 10.76 13.34 10.77 13.34H10.79L11.25 13.8C11.25 13.8 11.26 13.84 11.25 13.85C11.25 13.85 11.23 13.86 11.22 13.86ZM10.77 13.35C10.77 13.35 10.77 13.35 10.76 13.35V13.37L11.22 13.83C11.22 13.83 11.22 13.83 11.23 13.83V13.81L10.77 13.35Z" fill="black"/>
<path d="M11.19 13.84L10.75 13.4C10.75 13.4 10.72 13.4 10.71 13.4C10.7 13.4 10.7 13.43 10.71 13.44L11.15 13.88C11.15 13.88 11.18 13.88 11.19 13.88C11.2 13.88 11.2 13.85 11.19 13.84Z" fill="#FFFF00"/>
<path d="M11.17 13.89H11.15L10.71 13.45C10.71 13.45 10.7 13.41 10.71 13.4C10.72 13.39 10.75 13.38 10.76 13.4L11.2 13.84C11.2 13.84 11.2 13.85 11.2 13.86C11.2 13.87 11.2 13.88 11.19 13.89C11.19 13.89 11.17 13.9 11.16 13.9L11.17 13.89ZM10.74 13.4H10.73V13.42L11.17 13.86C11.17 13.86 11.17 13.86 11.18 13.86C11.18 13.86 11.18 13.86 11.18 13.85L10.74 13.41V13.4Z" fill="black"/>
<path d="M11.35 13.4L11.32 13.37L11.3 13.39L11.27 13.36L11.3 13.33L11.26 13.29L11.23 13.32L11.2 13.29L11.23 13.26L11.19 13.22L11.13 13.28C11.13 13.28 11.13 13.3 11.13 13.31L11.25 13.44C11.25 13.44 11.27 13.44 11.28 13.44L11.34 13.38L11.35 13.4Z" fill="#FFFF00"/>
<path d="M11.28 13.47H11.26L11.14 13.34C11.14 13.34 11.13 13.31 11.14 13.3L11.2 13.24L11.25 13.29L11.22 13.32H11.23L11.26 13.31L11.31 13.36L11.28 13.39H11.29L11.31 13.38L11.35 13.42L11.29 13.49C11.29 13.49 11.28 13.49 11.27 13.49L11.28 13.47ZM11.19 13.25L11.14 13.3C11.14 13.3 11.14 13.31 11.14 13.32L11.26 13.45C11.26 13.45 11.27 13.45 11.28 13.45L11.33 13.4L11.31 13.38L11.29 13.4L11.25 13.36L11.28 13.33L11.26 13.31L11.23 13.34L11.19 13.3L11.22 13.27L11.2 13.25H11.19Z" fill="black"/>
<path d="M11.14 13.34L10.95 13.51L11.07 13.63L11.25 13.44L11.14 13.33" fill="#FFFF00"/>
<path d="M11.07 13.65L10.93 13.51L11.14 13.32L11.26 13.44L11.07 13.64V13.65ZM10.97 13.52L11.08 13.63L11.24 13.45L11.15 13.36L10.97 13.52Z" fill="black"/>
<path d="M11.21 13.57L11.11 13.66L11.23 13.78L11.33 13.68L11.22 13.57H11.21Z" fill="#FFFF00"/>
<path d="M11.22 13.8L11.09 13.67L11.21 13.56L11.33 13.68L11.22 13.8ZM11.12 13.67L11.22 13.77L11.3 13.68L11.2 13.58L11.11 13.66L11.12 13.67Z" fill="black"/>
<path d="M10.91 13.2701L10.81 13.36L10.93 13.48L11.03 13.38L10.92 13.2701H10.91Z" fill="#FFFF00"/>
<path d="M10.92 13.5L10.79 13.37L10.91 13.26L11.03 13.38L10.92 13.5ZM10.82 13.37L10.92 13.47L11 13.38L10.9 13.28L10.81 13.36L10.82 13.37Z" fill="black"/>
<path d="M11.41 13.64L11.38 13.61L11.36 13.63L11.34 13.61L11.37 13.58L11.34 13.55L11.31 13.58L11.29 13.56L11.32 13.53L11.29 13.5L11.23 13.56C11.23 13.56 11.23 13.58 11.23 13.59L11.35 13.71C11.35 13.71 11.37 13.71 11.38 13.71L11.44 13.65L11.41 13.64Z" fill="#FFFF00"/>
<path d="M11.34 13.71H11.32L11.2 13.59C11.2 13.59 11.19 13.56 11.2 13.55L11.26 13.49L11.31 13.54L11.28 13.57H11.29L11.32 13.56L11.37 13.61L11.34 13.64H11.35L11.37 13.63L11.41 13.68L11.35 13.75C11.35 13.75 11.34 13.75 11.33 13.75L11.34 13.71ZM11.26 13.5L11.21 13.55C11.21 13.55 11.21 13.56 11.21 13.57L11.33 13.69C11.33 13.69 11.34 13.69 11.35 13.69L11.4 13.64L11.38 13.62L11.36 13.64L11.32 13.6L11.35 13.57L11.33 13.55L11.3 13.58L11.26 13.54L11.29 13.51L11.27 13.49L11.26 13.5Z" fill="black"/>
<path d="M11.11 13.33L11.08 13.3L11.06 13.32L11.04 13.3L11.07 13.27L11.04 13.24L11.01 13.27L10.99 13.25L11.02 13.22L10.99 13.19L10.93 13.25C10.93 13.25 10.93 13.27 10.93 13.28L11.05 13.4C11.05 13.4 11.07 13.4 11.08 13.4L11.14 13.34L11.11 13.33Z" fill="#FFFF00"/>
<path d="M11.04 13.41H11.02L10.9 13.29C10.9 13.29 10.9 13.28 10.9 13.27V13.25L10.96 13.19L11.01 13.24L10.98 13.27H10.99L11.02 13.26L11.07 13.31L11.04 13.34H11.05L11.07 13.33L11.12 13.38L11.06 13.44C11.06 13.44 11.05 13.44 11.04 13.44V13.41ZM10.96 13.19L10.91 13.24L11.03 13.36C11.03 13.36 11.04 13.36 11.05 13.36L11.1 13.31L11.08 13.29L11.06 13.31L11.02 13.27L11.05 13.24L11.03 13.22L11 13.25L10.96 13.21L10.99 13.18L10.97 13.16L10.96 13.19Z" fill="black"/>
<path d="M11.15 13.46C11.15 13.46 11.15 13.42 11.13 13.44L11.09 13.48L11.11 13.5L11.15 13.46Z" fill="black"/>
<path d="M11.24 13.68C11.24 13.68 11.24 13.64 11.22 13.66L11.19 13.69L11.21 13.71L11.24 13.68Z" fill="black"/>
<path d="M10.94 13.38C10.94 13.38 10.94 13.34 10.92 13.36L10.89 13.39L10.91 13.41L10.94 13.38Z" fill="black"/>
<path d="M9.31001 12.1C9.31001 12.19 9.34001 12.27 9.40001 12.33C9.45001 12.39 9.53001 12.43 9.61001 12.43C9.69001 12.43 9.77001 12.39 9.82001 12.34C9.87001 12.28 9.91001 12.2 9.91001 12.11V11.68H9.31001V12.11" fill="#003399"/>
<path d="M9.78001 12.22C9.78001 12.22 9.75001 12.22 9.74001 12.2L9.41001 11.87C9.41001 11.87 9.39001 11.81 9.41001 11.79C9.43001 11.77 9.47001 11.77 9.49001 11.79L9.82001 12.12C9.82001 12.12 9.84001 12.18 9.82001 12.2C9.81001 12.21 9.79001 12.22 9.78001 12.22Z" fill="white"/>
<path d="M9.31001 11.06C9.31001 11.15 9.34001 11.23 9.40001 11.29C9.45001 11.35 9.53001 11.39 9.61001 11.39C9.69001 11.39 9.77001 11.35 9.82001 11.3C9.87001 11.24 9.91001 11.16 9.91001 11.07V10.64H9.31001V11.07" fill="#003399"/>
<path d="M9.78001 11.18C9.78001 11.18 9.75001 11.18 9.74001 11.16L9.41001 10.83C9.41001 10.83 9.39001 10.77 9.41001 10.75C9.43001 10.73 9.47001 10.73 9.49001 10.75L9.82001 11.08C9.82001 11.08 9.84001 11.14 9.82001 11.16C9.81001 11.17 9.79001 11.18 9.78001 11.18Z" fill="white"/>
<path d="M8.47 12.1C8.47 12.19 8.5 12.27 8.56 12.33C8.61 12.39 8.69 12.43 8.77 12.43C8.85 12.43 8.93 12.39 8.98 12.34C9.03 12.28 9.07 12.2 9.07 12.11V11.68H8.47V12.11" fill="#003399"/>
<path d="M8.94 12.22C8.94 12.22 8.91 12.22 8.9 12.2L8.57 11.87C8.57 11.87 8.55 11.81 8.57 11.79C8.59 11.77 8.63 11.77 8.65 11.79L8.98 12.12C8.98 12.12 9 12.18 8.98 12.2C8.97 12.21 8.95 12.22 8.94 12.22Z" fill="white"/>
<path d="M10.14 12.1C10.14 12.19 10.17 12.27 10.23 12.33C10.28 12.39 10.36 12.43 10.44 12.43C10.52 12.43 10.6 12.39 10.65 12.34C10.7 12.28 10.74 12.2 10.74 12.11V11.68H10.14V12.11" fill="#003399"/>
<path d="M10.61 12.22C10.61 12.22 10.58 12.22 10.57 12.2L10.24 11.87C10.24 11.87 10.22 11.81 10.24 11.79C10.26 11.77 10.3 11.77 10.32 11.79L10.65 12.12C10.65 12.12 10.67 12.18 10.65 12.2C10.64 12.21 10.62 12.22 10.61 12.22Z" fill="white"/>
<path d="M9.31001 13.13C9.31001 13.22 9.34001 13.3 9.40001 13.36C9.45001 13.42 9.53001 13.46 9.61001 13.46C9.69001 13.46 9.77001 13.42 9.82001 13.37C9.87001 13.31 9.91001 13.23 9.91001 13.14V12.71H9.31001V13.14" fill="#003399"/>
<path d="M9.78001 13.25C9.78001 13.25 9.75001 13.25 9.74001 13.23L9.41001 12.9C9.41001 12.9 9.39001 12.84 9.41001 12.82C9.43001 12.8 9.47001 12.8 9.49001 12.82L9.82001 13.15C9.82001 13.15 9.84001 13.21 9.82001 13.23C9.81001 13.24 9.79001 13.25 9.78001 13.25Z" fill="white"/>
</svg>
