<svg width="24" height="24" viewBox="0 0 24 24" fill="none" xmlns="http://www.w3.org/2000/svg">
<path d="M0 4H24V20H0V4Z" fill="#FAD201"/>
<path d="M0 4H24V12H0V4Z" fill="#00A3E0"/>
<path d="M0 16H24V20H0V16Z" fill="#20603D"/>
<path d="M19.69 5.60001L19.79 7.39001L20.35 5.69001L19.99 7.45001L20.98 5.95001L20.17 7.55001L21.51 6.36001L20.32 7.70001L21.92 6.89001L20.42 7.88001L22.18 7.52001L20.48 8.08001L22.27 8.18001L20.48 8.28001L22.18 8.84001L20.42 8.48001L21.92 9.47001L20.32 8.66001L21.51 10L20.17 8.81001L20.98 10.41L19.99 8.91001L20.35 10.67L19.79 8.97001L19.69 10.76L19.59 8.97001L19.03 10.67L19.39 8.91001L18.4 10.41L19.21 8.81001L17.87 10L19.06 8.66001L17.46 9.47001L18.96 8.48001L17.2 8.84001L18.9 8.28001L17.11 8.18001L18.9 8.08001L17.2 7.52001L18.96 7.88001L17.46 6.89001L19.06 7.70001L17.87 6.36001L19.21 7.55001L18.4 5.95001L19.39 7.45001L19.03 5.69001L19.59 7.39001L19.69 5.60001Z" fill="#E5BE01"/>
<path d="M19.69 8.93001C20.1042 8.93001 20.44 8.59422 20.44 8.18001C20.44 7.76579 20.1042 7.43001 19.69 7.43001C19.2758 7.43001 18.94 7.76579 18.94 8.18001C18.94 8.59422 19.2758 8.93001 19.69 8.93001Z" stroke="#00A3E0" stroke-width="0.09" stroke-miterlimit="2.31"/>
</svg>
