<svg width="24" height="24" viewBox="0 0 24 24" fill="none" xmlns="http://www.w3.org/2000/svg">
<path d="M0 4H24V20H0V4Z" fill="#CE1126"/>
<path d="M0 4H12V12H0V4Z" fill="#002B7F"/>
<path d="M6.24002 10.12L6.00002 9.37L5.76002 10.12H4.96002L5.60002 10.59L5.36002 11.34L6.00002 10.87L6.64002 11.34L6.40002 10.59L7.04002 10.12H6.24002Z" fill="white"/>
<path d="M3.92001 6.97L3.72001 6.37L3.53001 6.97H2.89001L3.41001 7.34L3.21001 7.95L3.72001 7.57L4.23001 7.95L4.04001 7.34L4.55001 6.97H3.92001Z" fill="white"/>
<path d="M5.68001 5.47999L5.49001 6.07999L6.00001 5.70999L6.51001 6.07999L6.32001 5.47999L6.83001 5.10999H6.20001L6.00001 4.50999L5.80001 5.10999H5.17001L5.68001 5.47999Z" fill="white"/>
<path d="M8.63002 6.97L9.11002 6.62H8.51002L8.33002 6.06L8.15002 6.62H7.55002L8.03002 6.97L7.85002 7.54L8.33002 7.19L8.81002 7.54L8.63002 6.97Z" fill="white"/>
<path d="M7.26003 8.35L7.14003 7.97L7.02003 8.35H6.62003L6.94003 8.58L6.82003 8.96L7.14003 8.73L7.46003 8.96L7.34003 8.58L7.66003 8.35H7.26003Z" fill="white"/>
</svg>
