<svg width="24" height="24" viewBox="0 0 24 24" fill="none" xmlns="http://www.w3.org/2000/svg">
<path d="M0 4H24V20H0V4Z" fill="#009739"/>
<path d="M0 8.57001H24V15.43H0V8.57001Z" fill="#FFD100"/>
<path d="M8 12L0 20V4L8 12Z" fill="#EF3340"/>
<path d="M12.9 11.5L12.37 9.87L11.84 11.5H10.13L11.52 12.5L10.99 14.13L12.37 13.12L13.76 14.13L13.23 12.5L14.61 11.5H12.9Z" fill="black"/>
<path d="M20.11 12.5L21.49 11.5H19.78L19.25 9.87L18.72 11.5H17.01L18.4 12.5L17.87 14.13L19.25 13.12L20.64 14.13L20.11 12.5Z" fill="black"/>
</svg>
