<svg width="24" height="24" viewBox="0 0 24 24" fill="none" xmlns="http://www.w3.org/2000/svg">
<path d="M24 4H0V20H24V4Z" fill="#005430"/>
<path d="M12.3 10.27C12.24 10.27 12.19 10.27 12.14 10.29C11.98 10.35 11.81 10.41 11.65 10.47C11.62 10.48 11.59 10.5 11.57 10.53C11.61 10.53 11.64 10.53 11.68 10.53C12.12 10.52 12.57 10.51 13.01 10.5C13.05 10.5 13.09 10.5 13.12 10.5C13.16 10.5 13.18 10.53 13.17 10.57C13.15 10.64 13.12 10.71 13.09 10.77C13.06 10.84 12.98 10.85 12.92 10.86C12.75 10.9 12.57 10.92 12.4 10.97C12.21 11.02 12.03 11.09 11.85 11.15C11.81 11.17 11.76 11.19 11.72 11.22C11.64 11.28 11.64 11.35 11.7 11.42C11.76 11.5 11.85 11.54 11.94 11.57C11.98 11.58 12.02 11.59 12.06 11.61C12.14 11.64 12.16 11.67 12.14 11.75C12.09 11.92 12.1 11.95 11.9 11.93C11.67 11.91 11.44 11.85 11.24 11.74C11.03 11.63 10.87 11.46 10.77 11.25C10.76 11.23 10.75 11.2 10.73 11.17C10.71 11.2 10.69 11.22 10.67 11.24C10.53 11.42 10.38 11.6 10.2 11.74C10.1 11.81 10 11.88 9.89 11.93C9.78 11.99 9.66 12 9.53 11.98C9.35 11.96 9.24 11.87 9.18 11.7C9.17 11.66 9.16 11.61 9.14 11.55C9.11 11.56 9.08 11.57 9.05 11.58C8.75 11.7 8.44 11.8 8.13 11.88C8.08 11.9 8.08 11.9 8.01 11.87C8.02 11.82 8.07 11.81 8.11 11.79C8.4 11.63 8.68 11.48 8.97 11.32C9.09 11.26 9.17 11.17 9.2 11.03C9.22 10.93 9.28 10.83 9.32 10.73C9.33 10.7 9.35 10.67 9.38 10.63C9.44 10.69 9.42 10.75 9.42 10.81C9.42 10.87 9.42 10.93 9.41 11.01C9.44 10.99 9.46 10.99 9.48 10.98C9.61 10.88 9.73 10.78 9.85 10.68C10.01 10.54 10.02 10.42 9.93 10.23C9.89 10.15 9.85 10.07 9.81 9.98999C9.78 9.93999 9.77 9.88999 9.71 9.86999C9.67 9.84999 9.65 9.79999 9.67 9.75999C9.7 9.67999 9.74 9.59999 9.78 9.52999C9.81 9.48999 9.84 9.47999 9.88 9.51999C9.98 9.60999 10.07 9.70999 10.13 9.82999C10.16 9.88999 10.15 9.88999 10.07 9.93999C10.07 9.96999 10.09 9.99999 10.1 10.02C10.12 10.11 10.15 10.2 10.17 10.29C10.23 10.54 10.15 10.76 9.98 10.94C9.82 11.11 9.65 11.26 9.45 11.38C9.41 11.41 9.36 11.42 9.37 11.49C9.37 11.56 9.41 11.62 9.47 11.64C9.52 11.66 9.58 11.66 9.63 11.66C9.75 11.66 9.86 11.61 9.96 11.55C10.24 11.38 10.44 11.13 10.61 10.85C10.64 10.8 10.62 10.76 10.61 10.71C10.51 10.4 10.41 10.08 10.29 9.76999C10.22 9.58999 10.29 9.44999 10.38 9.30999C10.38 9.30999 10.39 9.30999 10.41 9.29999C10.43 9.31999 10.45 9.34999 10.46 9.37999C10.68 9.80999 10.83 10.26 10.88 10.74C10.88 10.81 10.9 10.87 10.92 10.94C10.99 11.24 11.14 11.39 11.46 11.47C11.4 11.15 11.6 11 11.86 10.88C11.77 10.8 11.67 10.77 11.56 10.76C11.42 10.75 11.27 10.74 11.13 10.74C10.94 10.74 10.92 10.71 10.98 10.53C11.02 10.38 11.11 10.28 11.26 10.23C11.46 10.16 11.67 10.09 11.87 10.02C11.9 10.01 11.93 9.99999 11.96 9.98999C11.96 9.97999 11.96 9.96999 11.96 9.95999C11.87 9.75999 11.95 9.49999 12.14 9.38999C12.22 9.33999 12.31 9.33999 12.4 9.36999C12.52 9.40999 12.63 9.46999 12.73 9.54999C12.86 9.65999 12.88 9.79999 12.78 9.93999C12.7 10.06 12.58 10.12 12.45 10.18C12.41 10.2 12.37 10.23 12.33 10.25L12.3 10.27ZM12.46 9.87999V9.85999C12.37 9.80999 12.29 9.74999 12.18 9.72999C12.16 9.80999 12.16 9.87999 12.2 9.94999C12.29 9.92999 12.37 9.90999 12.45 9.88999L12.46 9.87999Z" fill="white"/>
<path d="M15.26 15.98H15.13C12.9 15.98 10.67 15.98 8.43 15.98C8.18 15.98 7.93 15.96 7.67 15.94C7.51 15.93 7.35 15.88 7.22 15.79C7.18 15.76 7.14 15.73 7.1 15.7C7.1 15.68 7.1 15.68 7.1 15.68C7.1 15.68 7.12 15.68 7.13 15.68C9.83 15.68 12.53 15.68 15.23 15.68C15.23 15.68 15.23 15.68 15.24 15.68C15.26 15.64 15.25 15.61 15.22 15.57C15.21 15.56 15.19 15.54 15.18 15.52C15.14 15.46 15.14 15.44 15.18 15.38C15.28 15.25 15.39 15.27 15.46 15.41C15.48 15.46 15.46 15.5 15.42 15.53C15.38 15.57 15.35 15.6 15.38 15.67H15.48C15.83 15.67 16.18 15.67 16.52 15.67C16.58 15.67 16.65 15.67 16.71 15.69C16.8 15.71 16.85 15.76 16.88 15.85C16.91 15.97 16.9 16.08 16.87 16.19C16.83 16.31 16.7 16.36 16.58 16.29C16.52 16.26 16.47 16.25 16.4 16.25C16.34 16.25 16.27 16.25 16.21 16.25C16.15 16.25 16.1 16.25 16.04 16.29C15.98 16.33 15.91 16.33 15.86 16.29C15.81 16.26 15.76 16.25 15.7 16.25C15.65 16.25 15.6 16.25 15.55 16.25C15.49 16.25 15.43 16.26 15.39 16.31C15.33 16.38 15.29 16.37 15.23 16.31C15.23 16.31 15.22 16.3 15.21 16.29C15.14 16.22 15.14 16.18 15.21 16.11C15.24 16.07 15.28 16.04 15.25 15.97L15.26 15.98ZM16.48 16.16V15.99H15.4C15.4 16.1 15.44 16.16 15.54 16.16C15.61 16.16 15.69 16.16 15.76 16.16C15.8 16.16 15.83 16.15 15.86 16.13C15.94 16.09 16.01 16.09 16.08 16.13C16.1 16.14 16.13 16.16 16.15 16.16C16.26 16.16 16.36 16.16 16.47 16.16H16.48Z" fill="white"/>
<path d="M6.24 10.45C6.28 10.52 6.28 10.6 6.26 10.67C6.22 10.84 6.23 11.01 6.26 11.18C6.32 11.45 6.49 11.59 6.77 11.6C6.87 11.6 6.98 11.59 7.08 11.56C7.33 11.5 7.56 11.4 7.76 11.24C7.92 11.12 8.02 10.96 8.03 10.76C8.03 10.58 8.03 10.39 8.03 10.21C7.92 10.23 7.9 10.25 7.91 10.35C7.94 10.56 7.88 10.75 7.74 10.91C7.53 11.14 7.26 11.3 6.95 11.35C6.66 11.4 6.39 11.2 6.36 10.9C6.34 10.71 6.36 10.53 6.41 10.34C6.42 10.3 6.45 10.27 6.46 10.23C6.46 10.23 6.48 10.23 6.49 10.23C6.49 10.26 6.49 10.29 6.49 10.31C6.49 10.4 6.49 10.49 6.49 10.58C6.49 10.63 6.5 10.67 6.51 10.72C6.59 10.98 6.77 11.08 7.03 11C7.28 10.92 7.48 10.75 7.66 10.56C7.72 10.5 7.72 10.42 7.71 10.33C7.62 10.36 7.54 10.38 7.46 10.4C7.38 10.43 7.3 10.42 7.22 10.4C7.15 10.38 7.12 10.33 7.12 10.26C7.12 10.2 7.12 10.13 7.12 10.07C7.12 9.88999 7.21 9.75999 7.33 9.65999C7.41 9.59999 7.5 9.60999 7.57 9.66999C7.66 9.73999 7.73 9.82999 7.81 9.91999C7.83 9.93999 7.84 9.95999 7.86 9.98999C7.92 9.95999 7.97 9.92999 8.03 9.89999C8.03 9.77999 8.02 9.66999 8 9.55999C7.95 9.16999 7.9 8.76999 7.86 8.37999C7.86 8.32999 7.86 8.26999 7.85 8.21999C7.85 8.17999 7.85 8.12999 7.83 8.08999C7.81 8.01999 7.82 7.96999 7.87 7.91999C7.9 7.88999 7.93 7.84999 7.96 7.82999C8.02 7.76999 8.05 7.77999 8.08 7.84999C8.1 7.87999 8.11 7.91999 8.12 7.95999C8.17 8.08999 8.22 8.21999 8.27 8.34999C8.27 8.36999 8.29 8.38999 8.29 8.41999C8.31 8.52999 8.26 8.57999 8.15 8.55999C8.18 8.95999 8.21 9.36999 8.24 9.78999C8.3 9.73999 8.33 9.70999 8.37 9.67999C8.39 9.66999 8.43 9.65999 8.45 9.65999C8.47 9.65999 8.47 9.69999 8.48 9.72999C8.48 9.78999 8.48 9.84999 8.49 9.89999C8.52 10.04 8.62 10.08 8.73 9.99999C8.82 9.93999 8.87 9.83999 8.91 9.73999C8.92 9.69999 8.94 9.66999 8.95 9.62999C8.95 9.62999 8.97 9.62999 8.98 9.62999C8.98 9.65999 9 9.69999 9 9.72999C9.01 9.77999 9.02 9.83999 9.04 9.88999C9.05 9.91999 9.08 9.94999 9.11 9.97999C9.17 10.03 9.23 10.01 9.26 9.93999C9.29 9.86999 9.28 9.80999 9.26 9.73999C9.24 9.66999 9.28 9.59999 9.35 9.58999C9.39 9.58999 9.4 9.60999 9.41 9.63999C9.44 9.74999 9.44 9.86999 9.41 9.98999C9.39 10.08 9.37 10.17 9.26 10.2C9.15 10.23 9.04 10.2 8.96 10.12C8.94 10.1 8.93 10.09 8.91 10.06C8.88 10.09 8.86 10.11 8.83 10.13C8.74 10.21 8.64 10.24 8.52 10.24C8.42 10.24 8.34 10.2 8.27 10.11C8.27 10.13 8.27 10.16 8.27 10.18C8.27 10.35 8.29 10.51 8.29 10.68C8.29 10.81 8.28 10.94 8.25 11.07C8.2 11.32 8.06 11.52 7.84 11.65C7.48 11.85 7.1 11.97 6.68 11.94C6.43 11.92 6.26 11.81 6.18 11.56C6.06 11.21 6.09 10.86 6.22 10.52C6.22 10.51 6.23 10.5 6.24 10.48C6.24 10.48 6.25 10.48 6.26 10.47L6.24 10.45ZM7.6 10.07C7.54 9.97999 7.48 9.90999 7.36 9.90999C7.36 9.93999 7.34 9.97999 7.34 10.01C7.34 10.08 7.37 10.11 7.44 10.1C7.49 10.1 7.54 10.08 7.6 10.06V10.07Z" fill="white"/>
<path d="M16.45 8.23999C16.5 8.30999 16.54 8.36999 16.59 8.42999C16.59 8.42999 16.6 8.43999 16.63 8.45999C16.6 8.32999 16.62 8.21999 16.57 8.10999C16.51 7.96999 16.57 7.80999 16.72 7.70999C16.74 7.72999 16.76 7.74999 16.77 7.77999C16.85 7.96999 16.93 8.14999 16.98 8.35999C16.94 8.35999 16.92 8.35999 16.9 8.35999C16.9 8.35999 16.9 8.37999 16.9 8.38999C16.91 8.52999 16.92 8.67999 16.93 8.81999C16.93 8.84999 16.93 8.87999 16.95 8.89999C17.06 9.03999 17.17 9.18999 17.29 9.32999C17.29 9.30999 17.29 9.28999 17.29 9.27999C17.22 8.87999 17.18 8.47999 17.14 8.07999C17.13 7.93999 17.16 7.83999 17.24 7.73999C17.3 7.66999 17.34 7.66999 17.38 7.75999C17.4 7.78999 17.41 7.82999 17.42 7.86999C17.46 8.00999 17.5 8.14999 17.54 8.28999C17.57 8.38999 17.55 8.40999 17.46 8.44999C17.46 8.55999 17.46 8.67999 17.48 8.78999C17.5 9.06999 17.53 9.33999 17.55 9.60999C17.55 9.67999 17.58 9.72999 17.62 9.78999C17.75 9.95999 17.87 10.13 17.99 10.31C18.05 10.4 18.11 10.5 18.16 10.6C18.22 10.73 18.23 10.86 18.19 11.01C18.17 10.98 18.14 10.95 18.12 10.92C17.97 10.7 17.81 10.49 17.66 10.27C17.66 10.26 17.64 10.25 17.62 10.23C17.62 10.27 17.62 10.29 17.62 10.32C17.62 10.46 17.62 10.61 17.62 10.75C17.62 10.83 17.59 10.9 17.57 10.98C17.57 11 17.54 11.02 17.53 11.05C17.49 11 17.49 10.94 17.49 10.9C17.51 10.69 17.49 10.49 17.46 10.29C17.45 10.2 17.43 10.11 17.42 10.02C17.42 9.98999 17.4 9.96999 17.39 9.94999C17.26 9.77999 17.14 9.60999 17.01 9.43999C17.01 9.43999 17 9.43999 16.99 9.42999C16.99 9.47999 16.99 9.53999 16.99 9.58999C17.01 9.95999 17.04 10.34 17.05 10.71C17.05 10.81 17.04 10.92 17.02 11.02C17.02 11.07 16.99 11.12 16.97 11.16C16.87 11.35 16.69 11.43 16.48 11.38C16.33 11.35 16.21 11.26 16.12 11.14C16.1 11.11 16.08 11.09 16.05 11.05C16.01 11.09 15.97 11.13 15.94 11.17C15.89 11.24 15.86 11.32 15.82 11.39C15.74 11.53 15.66 11.67 15.57 11.81C15.55 11.84 15.53 11.86 15.51 11.89C15.46 11.94 15.4 11.95 15.34 11.92C15.22 11.85 15.11 11.77 15.03 11.66C14.98 11.59 14.96 11.51 14.96 11.43C14.96 11.21 15.01 11 15.07 10.8C15.07 10.79 15.08 10.78 15.09 10.77C15.13 10.78 15.12 10.82 15.13 10.85C15.13 10.95 15.13 11.06 15.15 11.16C15.17 11.27 15.2 11.37 15.23 11.48C15.23 11.51 15.25 11.53 15.27 11.55C15.33 11.64 15.41 11.65 15.48 11.55C15.51 11.51 15.53 11.46 15.56 11.42C15.67 11.22 15.79 11.02 15.9 10.83C15.92 10.79 15.96 10.75 15.99 10.72C16.04 10.67 16.09 10.67 16.15 10.72C16.2 10.76 16.24 10.81 16.28 10.86C16.33 10.91 16.37 10.97 16.42 11.01C16.53 11.1 16.67 11.07 16.74 10.94C16.79 10.86 16.8 10.77 16.8 10.68C16.8 10.42 16.79 10.16 16.77 9.88999C16.76 9.64999 16.73 9.40999 16.72 9.17999C16.72 9.06999 16.69 8.96999 16.61 8.87999C16.45 8.69999 16.3 8.50999 16.14 8.31999C16.06 8.22999 16.01 8.13999 16.04 8.00999C16.05 7.94999 16.04 7.88999 16.04 7.82999C16.04 7.80999 16.05 7.76999 16.07 7.75999C16.09 7.75999 16.13 7.75999 16.15 7.77999C16.16 7.77999 16.17 7.79999 16.18 7.80999C16.28 7.89999 16.37 7.98999 16.47 8.07999C16.49 8.08999 16.5 8.10999 16.52 8.11999C16.57 8.17999 16.56 8.19999 16.48 8.23999H16.45Z" fill="white"/>
<path d="M7.05 9.11999C6.97 9.21999 6.9 9.29999 6.83 9.38999C6.82 9.40999 6.82 9.43999 6.83 9.46999C6.85 9.71999 6.87 9.96999 6.88 10.21C6.89 10.36 6.9 10.5 6.82 10.64C6.82 10.65 6.81 10.66 6.8 10.67C6.8 10.67 6.79 10.67 6.77 10.68C6.72 10.56 6.75 10.43 6.73 10.3C6.71 10.17 6.7 10.04 6.68 9.89999C6.66 9.76999 6.65 9.63999 6.63 9.50999C6.61 9.50999 6.6 9.50999 6.59 9.50999C6.3 9.47999 6.21 9.28999 6.17 9.08999C6.14 8.93999 6.15 8.78999 6.17 8.63999C6.17 8.58999 6.19 8.53999 6.16 8.45999C6.14 8.50999 6.12 8.53999 6.11 8.57999C6.07 8.72999 6.04 8.88999 6.01 9.03999C5.99 9.12999 5.96 9.21999 5.93 9.29999C5.92 9.33999 5.89 9.36999 5.86 9.39999C5.79 9.46999 5.71 9.46999 5.65 9.39999C5.63 9.36999 5.61 9.33999 5.6 9.30999C5.46 9.00999 5.42 8.69999 5.48 8.36999C5.48 8.32999 5.51 8.27999 5.53 8.22999C5.58 8.25999 5.57 8.29999 5.57 8.33999C5.58 8.49999 5.59 8.65999 5.61 8.81999C5.61 8.88999 5.64 8.94999 5.67 9.01999C5.68 9.04999 5.7 9.08999 5.73 9.11999C5.77 9.16999 5.82 9.16999 5.85 9.10999C5.87 9.07999 5.88 9.03999 5.89 9.00999C5.91 8.92999 5.92 8.83999 5.93 8.75999C5.95 8.54999 6.02 8.35999 6.14 8.18999C6.17 8.14999 6.2 8.11999 6.24 8.09999C6.33 8.03999 6.42 8.08999 6.42 8.18999C6.42 8.27999 6.4 8.36999 6.37 8.44999C6.33 8.58999 6.31 8.71999 6.35 8.85999C6.37 8.91999 6.4 8.98999 6.43 9.04999C6.47 9.10999 6.52 9.14999 6.6 9.14999C6.6 9.08999 6.6 9.03999 6.6 8.98999C6.59 8.82999 6.58 8.66999 6.56 8.50999C6.56 8.41999 6.53 8.33999 6.51 8.24999C6.51 8.19999 6.5 8.14999 6.49 8.09999C6.49 8.06999 6.48 8.04999 6.47 8.01999C6.43 7.92999 6.47 7.80999 6.54 7.75999C6.57 7.73999 6.6 7.74999 6.61 7.76999C6.7 7.88999 6.78 8.00999 6.79 8.15999C6.79 8.19999 6.77 8.22999 6.75 8.26999C6.75 8.28999 6.72 8.31999 6.72 8.33999C6.74 8.58999 6.77 8.84999 6.79 9.10999C6.9 9.04999 6.98 8.90999 6.95 8.79999C6.92 8.65999 6.89 8.52999 6.86 8.38999C6.83 8.25999 6.84 8.12999 6.91 7.99999C6.94 8.01999 6.96 8.02999 6.98 8.04999C7.08 8.14999 7.12 8.26999 7.11 8.39999C7.09 8.56999 7.13 8.73999 7.18 8.89999C7.22 9.03999 7.31 9.09999 7.44 9.09999C7.55 9.09999 7.58 9.05999 7.57 8.94999C7.54 8.74999 7.48 8.55999 7.41 8.37999C7.4 8.34999 7.38 8.30999 7.37 8.27999C7.35 8.22999 7.35 8.17999 7.39 8.13999C7.42 8.10999 7.44 8.07999 7.46 8.04999C7.5 7.99999 7.54 7.99999 7.58 8.04999C7.63 8.09999 7.68 8.15999 7.72 8.21999C7.79 8.32999 7.78 8.35999 7.68 8.41999C7.71 8.56999 7.75 8.70999 7.78 8.85999C7.78 8.89999 7.79 8.93999 7.79 8.97999C7.79 9.22999 7.66 9.36999 7.42 9.42999C7.28 9.45999 7.15 9.38999 7.09 9.24999C7.07 9.20999 7.06 9.16999 7.04 9.11999H7.05Z" fill="white"/>
<path d="M11.36 7.62C11.43 7.69 11.45 7.75 11.47 7.82C11.53 8 11.54 8.2 11.55 8.39C11.55 8.55 11.6 8.69 11.67 8.83C11.69 8.87 11.72 8.92 11.76 8.95C11.86 9.05 11.98 9.01 12.01 8.87C12.04 8.77 12.02 8.66 12 8.57C11.95 8.39 11.9 8.22 11.84 8.04C11.82 7.98 11.81 7.93 11.86 7.87C11.89 7.84 11.91 7.79 11.94 7.75C11.98 7.69 12 7.69 12.06 7.73C12.19 7.82 12.27 7.94 12.31 8.09C12.31 8.12 12.31 8.16 12.3 8.18C12.27 8.21 12.24 8.18 12.21 8.17C12.19 8.16 12.17 8.14 12.14 8.12C12.14 8.16 12.15 8.19 12.16 8.21C12.22 8.37 12.25 8.53 12.26 8.7C12.26 8.83 12.24 8.96 12.17 9.07C12.06 9.27 11.88 9.32 11.7 9.2C11.62 9.15 11.55 9.08 11.47 9.01C11.45 9.03 11.44 9.05 11.42 9.08C11.32 9.21 11.19 9.31 11.03 9.36C10.81 9.43 10.63 9.34 10.55 9.13C10.51 9.01 10.5 8.89 10.5 8.77C10.5 8.69 10.5 8.6 10.5 8.51C10.46 8.51 10.45 8.55 10.44 8.58C10.4 8.68 10.37 8.77 10.33 8.87C10.3 8.94 10.27 9.02 10.24 9.09C10.22 9.13 10.2 9.16 10.18 9.2C10.12 9.28 10.04 9.28999 9.96 9.24C9.93 9.22 9.9 9.19 9.87 9.16C9.64 8.91 9.6 8.61 9.68 8.29C9.7 8.23 9.72 8.17 9.74 8.11C9.74 8.09 9.77 8.08 9.78 8.06C9.78 8.06 9.79 8.06 9.8 8.06C9.8 8.09 9.8 8.12 9.79 8.15C9.76 8.32 9.75 8.49 9.79 8.66C9.81 8.75 9.84 8.84 9.9 8.91C9.99 9.01 10.05 9 10.1 8.88C10.19 8.68 10.28 8.48 10.37 8.29C10.41 8.2 10.47 8.12 10.53 8.04C10.56 8 10.59 7.95 10.66 7.97C10.71 7.99 10.75 8.07 10.74 8.14C10.72 8.26 10.7 8.38 10.7 8.51C10.7 8.64 10.7 8.76 10.7 8.89C10.71 9.06 10.82 9.14 10.98 9.09C11.22 9.02 11.34 8.89 11.35 8.65C11.36 8.43 11.32 8.22 11.26 8.01C11.24 7.92 11.24 7.85 11.29 7.77C11.31 7.73 11.34 7.69 11.37 7.64L11.36 7.62Z" fill="white"/>
<path d="M13.4 11.55C13.35 11.52 13.36 11.48 13.37 11.44C13.47 11.06 13.41 10.69 13.37 10.31C13.32 9.91999 13.27 9.53999 13.21 9.14999C13.21 9.09999 13.18 9.03999 13.15 8.99999C12.96 8.74999 12.77 8.48999 12.57 8.23999C12.55 8.20999 12.51 8.18999 12.48 8.15999C12.43 8.12999 12.4 8.08999 12.4 8.02999C12.4 7.93999 12.4 7.85999 12.4 7.76999C12.4 7.73999 12.4 7.69999 12.43 7.67999C12.46 7.64999 12.5 7.67999 12.53 7.69999C12.69 7.83999 12.84 7.97999 13 8.10999C13 8.10999 13.01 8.10999 13.01 8.12999C13.02 8.15999 13.04 8.18999 13.03 8.21999C13.03 8.22999 12.98 8.23999 12.95 8.24999C12.95 8.24999 12.93 8.24999 12.92 8.24999C12.94 8.31999 13.07 8.50999 13.17 8.59999C13.17 8.56999 13.17 8.53999 13.17 8.51999C13.16 8.41999 13.15 8.31999 13.13 8.21999C13.13 8.18999 13.13 8.15999 13.11 8.12999C13.07 8.06999 13.07 8.00999 13.1 7.93999C13.12 7.89999 13.13 7.84999 13.16 7.80999C13.19 7.74999 13.25 7.74999 13.3 7.80999C13.31 7.81999 13.32 7.83999 13.33 7.84999C13.4 8.00999 13.47 8.17999 13.53 8.33999C13.53 8.35999 13.54 8.38999 13.55 8.40999C13.57 8.50999 13.55 8.52999 13.44 8.52999C13.44 8.69999 13.46 8.86999 13.47 9.03999C13.47 9.06999 13.5 9.10999 13.52 9.13999C13.74 9.47999 13.96 9.81999 14.16 10.17C14.26 10.34 14.33 10.53 14.4 10.71C14.43 10.78 14.43 10.86 14.45 10.93C14.45 10.96 14.45 10.99 14.45 11.01H14.43C14.41 10.98 14.38 10.95 14.37 10.92C14.16 10.44 13.87 10.01 13.58 9.56999C13.57 9.54999 13.56 9.53999 13.54 9.51999C13.54 9.51999 13.53 9.51999 13.51 9.50999C13.51 9.63999 13.53 9.75999 13.54 9.88999C13.57 10.21 13.63 10.52 13.61 10.84C13.61 11.04 13.57 11.24 13.49 11.43C13.47 11.47 13.45 11.5 13.42 11.54L13.4 11.55Z" fill="white"/>
<path d="M18.2 7.67999C18.27 7.73999 18.43 8.04999 18.49 8.22999C18.5 8.25999 18.5 8.29999 18.51 8.34999C18.47 8.34999 18.44 8.33999 18.41 8.32999C18.41 8.32999 18.41 8.34999 18.41 8.35999C18.43 8.59999 18.44 8.83999 18.46 9.07999C18.51 9.53999 18.57 9.99999 18.57 10.47C18.57 10.65 18.55 10.83 18.51 11C18.4 11.52 18.09 11.81 17.56 11.9C17.51 11.9 17.45 11.94 17.39 11.9C17.39 11.85 17.43 11.83 17.46 11.81C17.53 11.76 17.6 11.72 17.67 11.67C17.79 11.58 17.91 11.5 18.01 11.39C18.21 11.2 18.31 10.96 18.31 10.69C18.31 10.47 18.31 10.25 18.28 10.04C18.25 9.68999 18.21 9.34999 18.17 8.99999C18.13 8.65999 18.08 8.31999 18.04 7.97999C18.04 7.94999 18.04 7.90999 18.05 7.87999C18.08 7.79999 18.14 7.73999 18.2 7.68999V7.67999Z" fill="white"/>
<path d="M14.73 8.41998H14.62C14.61 8.57998 14.62 8.74998 14.63 8.90998C14.69 9.47998 14.76 10.05 14.76 10.62C14.76 10.81 14.76 11.01 14.7 11.2C14.66 11.35 14.59 11.48 14.49 11.59C14.43 11.65 14.38 11.71 14.32 11.77C14.22 11.88 14.09 11.96 13.94 11.98C13.82 12 13.69 12 13.56 12.01C13.53 12.01 13.51 12 13.48 11.99C13.48 11.99 13.48 11.97 13.48 11.96C13.52 11.94 13.55 11.91 13.59 11.9C13.9 11.83 14.13 11.63 14.34 11.41C14.51 11.23 14.57 11.02 14.56 10.78C14.54 10.5 14.53 10.21 14.51 9.92998C14.47 9.47998 14.42 9.03998 14.37 8.58998C14.36 8.47998 14.34 8.36998 14.32 8.26998C14.32 8.21998 14.3 8.15998 14.28 8.10998C14.26 8.02998 14.26 7.95998 14.33 7.89998C14.38 7.85998 14.42 7.80998 14.46 7.76998C14.49 7.73998 14.52 7.73998 14.54 7.77998C14.56 7.81998 14.57 7.84998 14.58 7.88998C14.62 8.01998 14.66 8.15998 14.7 8.28998C14.7 8.31998 14.7 8.35998 14.7 8.39998L14.73 8.41998Z" fill="white"/>
<path d="M15.27 11.35C15.27 11.35 15.27 11.3 15.27 11.28C15.33 11.04 15.3 10.81 15.27 10.57C15.21 10.15 15.16 9.72999 15.09 9.29999C15.04 8.92999 15.01 8.54999 14.91 8.18999C14.87 8.02999 14.9 7.87999 15.02 7.74999C15.03 7.73999 15.05 7.72999 15.08 7.70999C15.1 7.74999 15.13 7.77999 15.14 7.80999C15.17 7.87999 15.19 7.94999 15.22 8.01999C15.27 8.12999 15.33 8.23999 15.38 8.34999C15.39 8.37999 15.41 8.40999 15.42 8.44999C15.34 8.47999 15.28 8.42999 15.21 8.41999C15.21 8.46999 15.21 8.50999 15.21 8.54999C15.28 9.10999 15.34 9.66999 15.41 10.22C15.43 10.35 15.46 10.49 15.48 10.62C15.51 10.84 15.48 11.05 15.37 11.24C15.35 11.27 15.33 11.3 15.3 11.34C15.3 11.34 15.28 11.34 15.27 11.33V11.35Z" fill="white"/>
<path d="M8.51 8.87C8.53 8.82 8.57 8.8 8.61 8.77C8.79 8.66 8.95 8.53 9.1 8.38C9.14 8.34 9.18 8.29 9.22 8.24C9.11 8.13 9.11 8.01 9.16 7.88C9.19 7.8 9.25 7.75 9.32 7.72C9.42 7.69 9.51 7.74 9.53 7.85C9.54 7.94 9.52 8.02 9.49 8.1C9.47 8.14 9.46 8.18 9.47 8.23C9.49 8.28 9.47 8.3 9.41 8.32C9.38 8.33 9.35 8.35 9.33 8.37C9.14 8.61 8.89 8.75 8.61 8.86C8.58 8.87 8.54 8.89 8.5 8.86L8.51 8.87ZM9.37 7.94C9.37 7.94 9.35 7.94 9.34 7.94C9.3 7.97 9.29 8.02 9.34 8.07C9.35 8.03 9.36 7.99 9.38 7.95L9.37 7.94Z" fill="white"/>
<path d="M5.76 10.76C5.79 10.88 5.79 10.97 5.76 11.07C5.72 11.18 5.69 11.29 5.7 11.41C5.7 11.45 5.71 11.5 5.73 11.54C5.76 11.61 5.81 11.61 5.86 11.55C5.88 11.52 5.91 11.49 5.93 11.47C5.93 11.47 5.94 11.47 5.96 11.47C5.96 11.48 5.98 11.49 5.98 11.51C5.99 11.6 5.98 11.68 5.93 11.75C5.89 11.82 5.83 11.86 5.74 11.85C5.66 11.84 5.6 11.78 5.59 11.7C5.57 11.57 5.56 11.43 5.58 11.31C5.61 11.14 5.67 10.98 5.72 10.82C5.72 10.81 5.74 10.8 5.76 10.78V10.76Z" fill="white"/>
<path d="M16.04 9.21998C16.04 9.13998 16.03 9.05998 16.02 8.97998C16.02 8.87998 16.04 8.79998 16.12 8.74998C16.18 8.70998 16.21 8.71998 16.24 8.77998C16.2733 8.83998 16.28 8.89332 16.26 8.93998C16.26 8.93998 16.23 8.93998 16.22 8.93998C16.12 8.91998 16.11 8.91998 16.11 9.01998C16.11 9.10998 16.11 9.19998 16.11 9.29998C16.11 9.35998 16.11 9.41998 16.06 9.47998C15.98 9.44998 15.98 9.36998 15.94 9.30998C15.9 9.24998 15.87 9.18998 15.83 9.12998C15.81 9.13998 15.79 9.14998 15.77 9.15998C15.72 9.16998 15.7 9.15998 15.69 9.10998C15.69 9.05998 15.69 9.00998 15.69 8.95998C15.69 8.92998 15.72 8.89998 15.74 8.88998C15.76 8.88998 15.8 8.88998 15.82 8.91998C15.86 8.96998 15.89 9.01998 15.92 9.07998C15.95 9.12998 15.97 9.18998 16 9.23998C16 9.23998 16.02 9.23998 16.03 9.23998L16.04 9.21998Z" fill="white"/>
<path d="M5.54 10.31C5.54 10.31 5.59 10.25 5.62 10.22C5.84 9.99001 6.1 9.84001 6.4 9.74001C6.44 9.73001 6.47 9.71001 6.5 9.76001C6.52 9.81001 6.5 9.87001 6.47 9.90001C6.46 9.90001 6.44 9.92001 6.42 9.92001C6.12 10.01 5.85 10.14 5.59 10.31C5.59 10.31 5.57 10.31 5.56 10.32C5.56 10.32 5.55 10.32 5.54 10.31Z" fill="white"/>
<path d="M13.16 11.63C13.03 11.74 12.91 11.83 12.77 11.89C12.75 11.89 12.72 11.89 12.7 11.89C12.56 11.89 12.51 11.84 12.54 11.7C12.54 11.67 12.55 11.63 12.56 11.6C12.56 11.6 12.56 11.59 12.55 11.58C12.51 11.58 12.47 11.6 12.42 11.6C12.42 11.6 12.41 11.6 12.39 11.58C12.47 11.51 12.56 11.45 12.66 11.42C12.71 11.41 12.73 11.43 12.72 11.48C12.72 11.51 12.7 11.55 12.69 11.58C12.69 11.63 12.66 11.67 12.7 11.73C12.74 11.73 12.78 11.71 12.83 11.7C12.89 11.68 12.95 11.64 13.02 11.62C13.06 11.61 13.09 11.58 13.16 11.62V11.63Z" fill="white"/>
<path d="M16.87 11.69C16.87 11.69 16.93 11.69 16.95 11.69C17.01 11.7 17.02 11.75 16.98 11.79C16.9 11.86 16.8 11.91 16.68 11.91C16.66 11.91 16.62 11.89 16.61 11.87C16.61 11.85 16.62 11.81 16.64 11.79C16.66 11.76 16.7 11.74 16.72 11.72C16.76 11.68 16.75 11.64 16.71 11.61C16.7 11.61 16.68 11.6 16.68 11.59C16.67 11.57 16.65 11.54 16.65 11.52C16.65 11.5 16.68 11.47 16.71 11.46C16.75 11.45 16.79 11.45 16.83 11.46C16.93 11.46 16.95 11.51 16.91 11.6C16.9 11.63 16.88 11.66 16.87 11.7V11.69Z" fill="white"/>
<path d="M11.61 9.44998C11.67 9.53998 11.69 9.62998 11.67 9.71998C11.64 9.82998 11.56 9.85998 11.46 9.79998C11.46 9.79998 11.44 9.79998 11.43 9.77998C11.42 9.79998 11.41 9.81998 11.39 9.83998C11.34 9.91998 11.26 9.91998 11.21 9.83998C11.15 9.74998 11.15 9.64998 11.19 9.53998C11.25 9.60998 11.22 9.70998 11.31 9.75998C11.38 9.69998 11.33 9.59998 11.39 9.52998C11.46 9.56998 11.45 9.68998 11.54 9.71998C11.61 9.64998 11.54 9.53998 11.61 9.45998V9.44998Z" fill="white"/>
<path d="M15.81 10.16C15.78 10.09 15.81 10.06 15.84 10.04C15.89 10 15.94 9.96001 15.98 9.93001C16.11 9.83001 16.25 9.72001 16.38 9.62001C16.41 9.60001 16.43 9.59001 16.46 9.57001C16.53 9.70001 16.51 9.75001 16.4 9.81001C16.24 9.90001 16.08 10 15.92 10.1C15.88 10.12 15.84 10.14 15.8 10.17L15.81 10.16Z" fill="white"/>
<path d="M17.76 7.95999C17.88 8.09999 17.91 8.26999 17.91 8.43999C17.91 8.62999 17.91 8.67999 17.83 8.74999C17.83 8.72999 17.81 8.70999 17.81 8.67999C17.8 8.49999 17.76 8.32999 17.66 8.17999C17.62 8.10999 17.64 8.04999 17.75 7.95999H17.76Z" fill="white"/>
<path d="M13.89 8.42998C13.89 8.42998 13.89 8.33998 13.89 8.30998C13.93 8.16998 13.87 8.06998 13.78 7.97998C13.71 7.91998 13.71 7.87998 13.75 7.79998C13.8 7.71998 13.85 7.70998 13.9 7.79998C13.99 7.92998 14.03 8.07998 14.01 8.24998C14.01 8.30998 13.97 8.35998 13.95 8.40998C13.95 8.41998 13.92 8.42998 13.89 8.43998V8.42998Z" fill="white"/>
<path d="M9.4 8.98999C9.39 9.12999 9.3 9.22999 9.19 9.25999C9.08 9.28999 8.97 9.19999 8.98 9.08999C8.98 8.93999 9.07 8.81999 9.19 8.73999C9.19 8.73999 9.2 8.73999 9.21 8.73999C9.23 8.78999 9.19 8.81999 9.17 8.85999C9.15 8.90999 9.12 8.94999 9.1 8.99999C9.09 9.03999 9.09 9.07999 9.13 9.10999C9.17 9.13999 9.21 9.12999 9.25 9.10999C9.29 9.07999 9.32 9.04999 9.35 9.01999C9.35 9.01999 9.37 9.00999 9.4 8.99999V8.98999Z" fill="white"/>
<path d="M13.81 8.7C13.81 8.7 13.86 8.78 13.89 8.84C13.92 8.77 13.94 8.72 13.97 8.65C14 8.72 14.02 8.76 14.05 8.82C14.14 8.78 14.1 8.67 14.18 8.62C14.22 8.71 14.23 8.8 14.2 8.89C14.18 8.95 14.12 8.97 14.07 8.93C14.02 8.89 13.98 8.89 13.93 8.93C13.87 8.98 13.83 8.96 13.81 8.89C13.79 8.83 13.79 8.79 13.83 8.71L13.81 8.7Z" fill="white"/>
<path d="M8.83 10.98C8.84 10.87 8.89 10.78 8.86 10.68C8.86 10.68 8.85 10.68 8.84 10.68C8.73 10.68 8.69 10.62 8.74 10.51C8.76 10.47 8.78 10.44 8.83 10.44C8.87 10.44 8.94 10.48 8.95 10.52C9 10.64 8.97 10.88 8.87 10.97C8.87 10.97 8.85 10.97 8.83 10.99V10.98Z" fill="white"/>
<path d="M7.29 7.74998C7.29 7.74998 7.3 7.82998 7.32 7.86998C7.32 7.88998 7.35 7.90998 7.37 7.90998C7.39 7.90998 7.4 7.87998 7.42 7.86998C7.43 7.84998 7.44 7.82998 7.45 7.79998C7.5 7.86998 7.5 7.93998 7.45 7.98998C7.4 8.03998 7.36 8.02998 7.29 7.95998C7.23 7.97998 7.18 7.99998 7.13 7.99998C7.11 7.99998 7.07 7.97998 7.06 7.94998C7 7.87998 7 7.77998 7.06 7.69998C7.1 7.72998 7.09 7.77998 7.1 7.81998C7.1 7.84998 7.13 7.86998 7.14 7.88998C7.16 7.86998 7.2 7.85998 7.21 7.83998C7.24 7.80998 7.25 7.76998 7.27 7.72998C7.27 7.72998 7.28 7.72998 7.29 7.72998V7.74998Z" fill="white"/>
<path d="M16.4 10.52C16.4 10.52 16.4 10.46 16.4 10.44C16.43 10.35 16.39 10.28 16.32 10.23C16.3 10.22 16.29 10.21 16.27 10.19C16.22 10.15 16.21 10.12 16.25 10.07C16.29 10.02 16.33 9.99999 16.38 10.04C16.52 10.13 16.56 10.37 16.46 10.5C16.45 10.51 16.43 10.53 16.41 10.54H16.39L16.4 10.52Z" fill="white"/>
<path d="M11.02 8.45998C11.02 8.45998 11.02 8.39998 11.02 8.36998C11.04 8.20998 11 8.06998 10.91 7.93998C10.91 7.92998 10.89 7.91998 10.89 7.90998C10.87 7.86998 10.89 7.80998 10.94 7.78998C10.98 7.76998 11 7.79998 11.02 7.82998C11.04 7.85998 11.05 7.88998 11.06 7.91998C11.11 8.06998 11.11 8.21998 11.08 8.36998C11.08 8.39998 11.06 8.43998 11.04 8.46998H11.02V8.45998Z" fill="white"/>
<path d="M5.9 8.15998C5.92 8.03998 5.96 7.93998 5.93 7.82998C5.9 7.83998 5.87 7.84998 5.84 7.85998C5.82 7.85998 5.79 7.85998 5.79 7.85998C5.79 7.83998 5.78 7.80998 5.79 7.79998C5.82 7.75998 5.86 7.71998 5.9 7.69998C5.95 7.66998 5.99 7.67998 6.02 7.72998C6.04 7.76998 6.05 7.80998 6.05 7.84998C6.05 7.93998 6 8.06998 5.92 8.16998L5.9 8.15998Z" fill="white"/>
</svg>
