<svg width="24" height="24" viewBox="0 0 24 24" fill="none" xmlns="http://www.w3.org/2000/svg">
<path d="M0 4H24V20H0V4Z" fill="white"/>
<path d="M0 4H24V12H0V4Z" fill="#ED2939"/>
<path d="M5.07 10.94C6.69372 10.94 8.01 9.62371 8.01 8C8.01 6.37628 6.69372 5.06 5.07 5.06C3.44629 5.06 2.13 6.37628 2.13 8C2.13 9.62371 3.44629 10.94 5.07 10.94Z" fill="white"/>
<path d="M6.40001 10.94C8.02372 10.94 9.34001 9.62371 9.34001 8C9.34001 6.37628 8.02372 5.06 6.40001 5.06C4.77629 5.06 3.46001 6.37628 3.46001 8C3.46001 9.62371 4.77629 10.94 6.40001 10.94Z" fill="#ED2939"/>
<path d="M6.68 5.54L6.23 6.93L7.41 6.07H5.95L7.13 6.93L6.68 5.54Z" fill="white"/>
<path d="M9.02001 7.24H7.56001L8.74001 8.1L8.29001 6.71L7.84001 8.1L9.02001 7.24Z" fill="white"/>
<path d="M5.24001 9.99001L6.42001 9.13001H4.96001L6.14001 9.99001L5.69001 8.60001L5.24001 9.99001Z" fill="white"/>
<path d="M8.12 9.99001L7.67 8.60001L7.22 9.99001L8.4 9.13001H6.94L8.12 9.99001Z" fill="white"/>
<path d="M4.34 7.24L5.52 8.1L5.07 6.71L4.62 8.1L5.8 7.24H4.34Z" fill="white"/>
</svg>
