<svg width="24" height="24" viewBox="0 0 24 24" fill="none" xmlns="http://www.w3.org/2000/svg">
<path d="M0 4H24V20H0V4Z" fill="white"/>
<path d="M0 9.33H24V20H0V9.33Z" fill="#0B4EA2"/>
<path d="M0 14.67H24V20H0V14.67Z" fill="#EE1C25"/>
<path d="M10.4 7.88C10.4 7.88 10.52 9.13 10.52 11.62C10.5 14.17 8.6 15.46 7.2 16.13C5.8 15.45 3.9 14.16 3.88 11.62C3.88 9.13 4 7.88 4 7.88H10.39H10.4Z" fill="#EE1C25"/>
<path d="M6.92 14.67V11.55C5.86 11.55 5.56 11.64 5.25 11.74C5.28 11.42 5.28 11.1 5.25 10.78C5.57 10.88 5.87 10.97 6.92 10.97V10.1C6.59 10.1 6.13 10.11 5.6 10.29C5.63 9.97 5.63 9.65 5.6 9.33C6.13 9.51 6.59 9.52 6.92 9.52C6.92 9.27 6.84 8.73 6.74 8.28C7.04 8.31 7.35 8.31 7.66 8.28C7.56 8.73 7.48 9.27 7.48 9.52C7.81 9.52 8.27 9.51 8.8 9.33C8.77 9.65 8.77 9.97 8.8 10.29C8.27 10.11 7.81 10.1 7.48 10.1V10.97C8.54 10.97 8.84 10.88 9.15 10.78C9.12 11.1 9.12 11.42 9.15 11.74C8.83 11.64 8.53 11.55 7.48 11.55V14.67H6.92Z" fill="white"/>
<mask id="mask0_121_6364" style="mask-type:luminance" maskUnits="userSpaceOnUse" x="3" y="7" width="8" height="10">
<path d="M10.4 7.88C10.4 7.88 10.52 9.13 10.52 11.62C10.5 14.17 8.6 15.46 7.2 16.13C5.8 15.45 3.9 14.16 3.88 11.62C3.88 9.13 4 7.88 4 7.88H10.39H10.4Z" fill="white"/>
</mask>
<g mask="url(#mask0_121_6364)">
<path d="M5.47 17.12C4.85 17.12 4.34 16.26 4.34 15.19C4.34 14.13 4.84 13.26 5.47 13.26C5.73 13.26 5.98 13.41 6.18 13.69C6.62 12.65 7.44 12.47 8 13.3C8.08 13.42 8.15 13.55 8.21 13.69C8.69 13.02 9.4 13.15 9.79 13.98C10.18 14.81 10.11 16.02 9.62 16.69C9.42 16.97 9.17 17.12 8.91 17.12H5.46H5.47Z" fill="#0B4EA2"/>
</g>
<path d="M7.19999 16.27L7.14999 16.24C6.20999 15.78 5.47999 15.27 4.93999 14.66C4.16999 13.8 3.76999 12.78 3.76999 11.62C3.76999 9.14999 3.88999 7.87999 3.89999 7.86999V7.75999H10.52V7.86999C10.52 7.86999 10.66 9.14999 10.66 11.62C10.66 12.78 10.26 13.8 9.48999 14.66C8.93999 15.27 8.21999 15.79 7.27999 16.24L7.22999 16.27H7.19999ZM4.10999 7.99999C4.07999 8.34999 3.99999 9.56999 3.99999 11.62C3.99999 12.72 4.37999 13.69 5.10999 14.5C5.62999 15.07 6.30999 15.57 7.19999 16C8.08999 15.56 8.76999 15.07 9.28999 14.5C10.02 13.69 10.39 12.72 10.4 11.62C10.4 9.56999 10.31 8.34999 10.29 7.99999H4.11999H4.10999Z" fill="white"/>
</svg>
