<svg width="24" height="24" viewBox="0 0 24 24" fill="none" xmlns="http://www.w3.org/2000/svg">
<path d="M0 4H24V20H0V4Z" fill="#FF0000"/>
<path d="M0 4H24V14.67H0V4Z" fill="#0000FF"/>
<path d="M0 4H24V9.33H0V4Z" fill="white"/>
<path d="M3.89 6.53C5.39 5.87 7.1 5.87 8.61 6.53C8.86 10.01 8.07 11.99 6.25 12.45C4.43 11.98 3.64 10.01 3.89 6.53Z" fill="#0000FF"/>
<path d="M6.25 7.16L6.32 7.32L6.5 7.3L6.4 7.44L6.5 7.58L6.32 7.56L6.25 7.72L6.18 7.56L6 7.58L6.1 7.44L6 7.3L6.18 7.32" fill="#FFFF00"/>
<path d="M5.58 6.27L5.65 6.43L5.83 6.41L5.73 6.55L5.83 6.69L5.65 6.67L5.58 6.83L5.51 6.67L5.33 6.69L5.43 6.55L5.33 6.41L5.51 6.43" fill="#FFFF00"/>
<path d="M6.91 6.27L6.98 6.43L7.16 6.41L7.06 6.55L7.16 6.69L6.98 6.67L6.91 6.83L6.84 6.67L6.66 6.69L6.76 6.55L6.66 6.41L6.84 6.43" fill="#FFFF00"/>
<path d="M6.25 8.08L6.82 9.22L7.2 8.71L8.15 9.98C8.15 10.04 8.15 10.1 8.13 10.15C7.87 11.08 7.16 11.82 6.25 12.13C5.34 11.82 4.64 11.08 4.37 10.15C4.35 10.09 4.35 10.03 4.35 9.98L5.3 8.71L5.68 9.22L6.25 8.08Z" fill="white"/>
<path d="M4.37 10.15C4.47 10.49 4.82 10.68 5.15 10.59C5.2 10.58 5.25 10.56 5.29 10.53C5.49 10.42 5.73 10.42 5.92 10.53C6.12 10.64 6.36 10.64 6.55 10.53C6.75 10.42 6.99 10.42 7.18 10.53C7.48 10.71 7.87 10.6 8.05 10.3C8.08 10.26 8.1 10.21 8.11 10.16H8.13V10.63C8.02 10.63 7.91 10.66 7.81 10.72C7.61 10.83 7.37 10.83 7.18 10.72C6.98 10.61 6.74 10.61 6.55 10.72C6.35 10.83 6.11 10.83 5.92 10.72C5.72 10.61 5.48 10.61 5.29 10.72C5.09 10.83 4.85 10.83 4.66 10.72C4.56 10.66 4.45 10.63 4.34 10.63V10.17" fill="#0000FF"/>
<path d="M4.37 10.52C4.47 10.86 4.82 11.05 5.15 10.96C5.2 10.95 5.25 10.93 5.29 10.9C5.49 10.79 5.73 10.79 5.92 10.9C6.12 11.01 6.36 11.01 6.55 10.9C6.75 10.79 6.99 10.79 7.18 10.9C7.48 11.08 7.87 10.97 8.05 10.67C8.08 10.63 8.1 10.58 8.11 10.53H8.13V11C8.02 11 7.91 11.03 7.81 11.09C7.61 11.2 7.37 11.2 7.18 11.09C6.98 10.98 6.74 10.98 6.55 11.09C6.35 11.2 6.11 11.2 5.92 11.09C5.72 10.98 5.48 10.98 5.29 11.09C5.09 11.2 4.85 11.2 4.66 11.09C4.56 11.03 4.45 11 4.34 11V10.54" fill="#0000FF"/>
<path d="M3.71 6.61001C3.77 6.58001 3.83 6.55001 3.89 6.53001L4.08 9.54001C4.16 10.83 5.02 11.93 6.25 12.32C7.48 11.93 8.34 10.82 8.42 9.54001L8.61 6.53001C8.67 6.56001 8.73 6.58001 8.79 6.61001L8.61 9.55001C8.52 10.93 7.58 12.12 6.26 12.52C4.93 12.12 3.99 10.94 3.91 9.55001L3.73 6.61001H3.71Z" fill="#FF0000"/>
</svg>
