<svg width="24" height="24" viewBox="0 0 24 24" fill="none" xmlns="http://www.w3.org/2000/svg">
<g clip-path="url(#clip0_170_3820)">
<path d="M-7.62939e-06 3.99998H24V20H-7.62939e-06V3.99998Z" fill="#215B33"/>
<path d="M-7.62939e-06 20V3.99998H24" fill="#0051BA"/>
<mask id="mask0_170_3820" style="mask-type:luminance" maskUnits="userSpaceOnUse" x="0" y="4" width="24" height="16">
<path d="M24 3.99998H-7.62939e-06V20H24V3.99998Z" fill="white"/>
</mask>
<g mask="url(#mask0_170_3820)">
<path d="M24 3.99998L-7.62939e-06 20L24 3.99998Z" fill="black"/>
<path d="M23.6478 3.48944L-0.348549 19.487L0.344825 20.527L24.3412 4.5295L23.6478 3.48944Z" fill="#FCD116"/>
</g>
<path d="M5.05999 7.98998L4.78999 7.15998L4.51999 7.98998H3.64999L4.35999 8.49998L4.08999 9.32998L4.78999 8.81998L5.49999 9.32998L5.22999 8.49998L5.92999 7.98998H5.05999Z" fill="white"/>
<path d="M6.72999 6.46998L6.45999 7.29998L7.15999 6.78998L7.86999 7.29998L7.59999 6.46998L8.29999 5.95998H7.42999L7.15999 5.12998L6.88999 5.95998H6.01999L6.72999 6.46998Z" fill="white"/>
<path d="M7.42999 10.02L7.15999 9.18998L6.88999 10.02H6.01999L6.72999 10.53L6.45999 11.36L7.15999 10.85L7.86999 11.36L7.59999 10.53L8.29999 10.02H7.42999Z" fill="white"/>
<path d="M2.68999 10.02L2.41999 9.18998L2.14999 10.02H1.27999L1.98999 10.53L1.71999 11.36L2.41999 10.85L3.12999 11.36L2.85999 10.53L3.56999 10.02H2.68999Z" fill="white"/>
<path d="M2.41999 5.12998L2.14999 5.95998H1.27999L1.98999 6.46998L1.71999 7.29998L2.41999 6.78998L3.12999 7.29998L2.85999 6.46998L3.56999 5.95998H2.68999L2.41999 5.12998Z" fill="white"/>
</g>
<defs>
<clipPath id="clip0_170_3820">
<rect width="24" height="24" fill="white"/>
</clipPath>
</defs>
</svg>
