<svg width="24" height="24" viewBox="0 0 24 24" fill="none" xmlns="http://www.w3.org/2000/svg">
<path d="M0 4H24V20H0V4Z" fill="#FFBE29"/>
<path d="M1.12 5.49H7.36V18.5H1.12V5.49Z" fill="#EB7400"/>
<path d="M1.12 5.49H4.24V18.5H1.12V5.49Z" fill="#00534E"/>
<path d="M8.48 5.49H22.88V18.5H8.48V5.49Z" fill="#8D153A"/>
<path d="M10.05 16.54C10.05 16.54 9.92 16.82 9.77 16.93C9.55 17.1 9.11 17.08 8.92 17.28C8.69 17.51 8.94 17.81 8.94 17.84V18C8.94 18 9.08 18 9.14 18.01C9.24 18.03 9.27 18.11 9.45 18.09C9.9 18.06 9.88 17.64 9.91 17.29C9.93 17.15 9.99 16.98 10.02 16.84C10.05 16.72 10.05 16.54 10.05 16.54Z" fill="#FFBE29"/>
<path d="M9.41 18.12C9.31 18.12 9.26 18.09 9.21 18.07C9.18 18.05 9.16 18.04 9.12 18.04C9.06 18.04 8.91 18.03 8.91 18.03H8.89L8.9 17.85C8.9 17.85 8.9 17.83 8.88 17.82C8.83 17.73 8.69 17.47 8.88 17.27C8.98 17.16 9.16 17.12 9.34 17.07C9.49 17.03 9.64 16.99 9.73 16.92C9.87 16.81 10 16.54 10 16.54H10.04C10.04 16.54 10.04 16.74 10.01 16.86C10 16.91 9.98 16.97 9.97 17.03C9.95 17.13 9.92 17.22 9.91 17.31C9.91 17.34 9.91 17.37 9.91 17.4C9.89 17.73 9.87 18.1 9.44 18.13C9.43 18.13 9.41 18.13 9.4 18.13L9.41 18.12ZM8.94 17.98C8.94 17.98 9.09 17.98 9.14 17.99C9.18 17.99 9.21 18.01 9.24 18.03C9.29 18.06 9.34 18.08 9.45 18.08C9.84 18.05 9.86 17.72 9.88 17.39C9.88 17.36 9.88 17.33 9.88 17.29C9.89 17.2 9.92 17.1 9.94 17.01C9.96 16.95 9.97 16.89 9.98 16.84C9.99 16.78 10 16.7 10.01 16.64C9.96 16.73 9.87 16.88 9.77 16.95C9.67 17.03 9.51 17.07 9.36 17.11C9.19 17.15 9.02 17.2 8.92 17.3C8.75 17.48 8.87 17.7 8.92 17.8C8.94 17.83 8.94 17.84 8.94 17.85V17.99V17.98Z" fill="black"/>
<path d="M13.2 16.02L13.3 15.96L13.34 16.02C13.4 16.1 13.55 16.09 13.66 16.02L13.74 15.96L13.81 16.02C13.9 16.1 14.06 16.1 14.17 16.02C14.24 15.97 14.25 15.97 14.3 16.01C14.33 16.03 14.41 16.06 14.49 16.07C14.62 16.09 14.63 16.09 14.71 15.97C14.78 15.87 14.79 15.83 14.77 15.74C14.76 15.67 14.75 15.59 14.75 15.52C14.75 15.41 14.75 15.41 14.91 15.36C15 15.33 15.1 15.29 15.14 15.27C15.2 15.24 15.38 15.03 15.38 14.99C15.38 14.98 15.31 14.96 15.22 14.95C14.88 14.91 14.82 14.73 15.04 14.4C15.4 13.86 15.62 13.34 15.62 13C15.62 12.85 15.62 12.8 15.65 12.83C15.73 12.96 15.59 13.52 15.37 13.92L15.28 14.08L15.36 14.06C15.36 14.06 15.68 13.94 15.96 13.81C16.74 13.46 17.01 13.4 17.52 13.42C17.94 13.44 18.12 13.52 18.42 13.82C18.58 13.98 18.73 14.1 19.01 14.27C19.6 14.63 19.63 14.66 19.66 15.09C19.69 15.52 19.67 15.55 19.34 15.62C19.05 15.68 18.87 15.81 18.83 15.99C18.8 16.09 18.86 16.09 19 15.99L19.11 15.92L19.16 15.99C19.22 16.08 19.35 16.08 19.46 15.99L19.54 15.92L19.62 15.99C19.75 16.09 19.93 16.07 19.97 15.94C19.97 15.92 20 15.92 20.06 15.97C20.16 16.05 20.4 16.09 20.43 16.02C20.44 16 20.43 15.94 20.39 15.89C20.25 15.68 20.2 15.58 20.2 15.47C20.2 15.31 20.25 15.24 20.43 15.11C20.65 14.95 20.72 14.75 20.55 14.75C20.44 14.75 20.34 14.66 20.27 14.51C20.13 14.21 20.16 13.87 20.37 13.31C20.58 12.74 20.6 12.64 20.6 12.25C20.6 11.94 20.6 11.89 20.52 11.72C20.48 11.62 20.39 11.46 20.32 11.38L20.2 11.23L20.35 11.11C20.81 10.74 20.72 10.12 20.16 9.89C19.99 9.82 19.95 9.81 19.65 9.81C19.47 9.81 19.2 9.83 19.04 9.86C18.88 9.89 18.61 9.91 18.43 9.91C18.14 9.91 18.09 9.91 17.98 9.85C17.86 9.79 17.84 9.76 17.82 9.62C17.82 9.59 17.79 9.56 17.77 9.56C17.73 9.55 17.55 9.7 17.52 9.77C17.51 9.8 17.5 9.8 17.46 9.76C17.43 9.73 17.4 9.66 17.38 9.61C17.33 9.47 17.39 9.37 17.56 9.29L17.69 9.23L17.61 9.18C17.45 9.09 17.19 9.15 17.09 9.31C17.06 9.35 17.03 9.39 17.02 9.39C17.01 9.39 16.96 9.35 16.91 9.3C16.71 9.11 16.78 8.82 17.05 8.74C17.19 8.69 17.32 8.73 17.35 8.82C17.39 8.96 17.52 8.78 17.49 8.61C17.48 8.5 17.48 8.49 17.56 8.49C17.67 8.49 17.91 8.63 17.98 8.74C18.06 8.87 18.06 9.07 17.97 9.22L17.9 9.34L18 9.32C18.14 9.29 18.28 9.21 18.35 9.1C18.42 8.99 18.43 8.78 18.37 8.66C18.31 8.55 18.31 8.53 18.41 8.57C18.57 8.63 18.65 8.7 18.72 8.83C18.78 8.94 18.78 8.97 18.75 9.08C18.73 9.15 18.69 9.24 18.66 9.28C18.61 9.35 18.61 9.36 18.65 9.36C18.73 9.36 18.88 9.29 18.94 9.23C18.97 9.2 19.01 9.13 19.03 9.07L19.07 8.96L19.12 9.04C19.19 9.16 19.31 9.26 19.47 9.33C19.64 9.4 19.71 9.4 19.62 9.33C19.56 9.29 19.45 8.98 19.49 8.94C19.51 8.92 19.74 9.09 19.99 9.32C20.23 9.53 20.39 9.6 20.61 9.6C20.9 9.6 21.06 9.36 20.94 9.13C20.86 9 20.7 8.98 20.6 9.09C20.55 9.14 20.54 9.19 20.56 9.24C20.58 9.31 20.56 9.32 20.51 9.32C20.43 9.32 20.26 9.22 19.97 8.98C19.52 8.62 18.98 8.31 18.59 8.2C18.34 8.13 17.8 8.1 17.55 8.15C17.27 8.2 16.95 8.35 16.77 8.52C16.45 8.81 16.45 9.2 16.76 9.56L16.85 9.66L16.79 9.75C16.7 9.88 16.71 10.06 16.81 10.19C16.85 10.25 16.9 10.29 16.91 10.29C16.92 10.29 16.93 10.25 16.93 10.21C16.93 10.1 16.99 10.02 17.07 9.99C17.15 9.96 17.2 9.98 17.55 10.11C17.92 10.26 18.54 10.27 19.19 10.14C19.51 10.08 19.89 10.08 20.05 10.14C20.35 10.26 20.42 10.59 20.2 10.83C20.1 10.94 20.01 10.98 19.7 11.06C19.46 11.12 19.41 11.13 18.86 11.12C18.4 11.12 18.23 11.12 18.04 11.16C17.83 11.2 17.71 11.21 17.11 11.19L16.41 11.17L16.49 11.23C16.49 11.23 16.59 11.31 16.62 11.32C16.67 11.35 16.67 11.35 16.59 11.38C16.54 11.4 16.44 11.41 16.36 11.41H16.22L16.2 11.53C16.19 11.6 16.2 11.67 16.2 11.7C16.22 11.74 16.21 11.75 16.17 11.73C16.14 11.72 16.06 11.7 15.98 11.68C15.9 11.66 15.81 11.63 15.76 11.61C15.68 11.57 15.67 11.57 15.64 11.62C15.61 11.66 15.37 11.84 15.34 11.84C15.34 11.84 15.33 11.81 15.32 11.76C15.31 11.71 15.28 11.61 15.24 11.52C15.2 11.43 15.16 11.33 15.15 11.3C15.13 11.25 15.13 11.25 15.11 11.29C15.1 11.31 15.08 11.37 15.07 11.43C15.06 11.49 15.02 11.57 14.99 11.62L14.93 11.71L14.89 11.63C14.85 11.54 14.78 11.45 14.75 11.45C14.75 11.45 14.73 11.48 14.72 11.51C14.7 11.58 14.53 11.78 14.49 11.78C14.47 11.78 14.46 11.72 14.46 11.66C14.46 11.6 14.45 11.54 14.43 11.54C14.41 11.54 14.4 11.56 14.4 11.58C14.4 11.63 14.26 11.79 14.21 11.79C14.19 11.79 14.16 11.81 14.13 11.83C14.08 11.89 14.03 11.88 14.06 11.82C14.07 11.79 14.06 11.72 14.04 11.66L14 11.53C14 11.53 13.94 11.51 13.83 11.55C13.65 11.61 13.6 11.6 13.69 11.53C13.72 11.5 13.77 11.42 13.8 11.34C13.83 11.26 13.87 11.19 13.89 11.18C13.92 11.18 13.92 11.18 13.89 11.23C13.86 11.27 13.84 11.31 13.84 11.34C13.84 11.37 13.82 11.42 13.79 11.46C13.76 11.5 13.75 11.54 13.76 11.55C13.77 11.56 13.83 11.53 13.91 11.49L14.05 11.43V11.49C14.05 11.49 14.07 11.61 14.09 11.68L14.13 11.81L14.22 11.77C14.32 11.73 14.41 11.57 14.41 11.45C14.41 11.39 14.44 11.4 14.46 11.46C14.46 11.48 14.49 11.55 14.51 11.61L14.55 11.73L14.61 11.65C14.61 11.65 14.69 11.53 14.71 11.47C14.74 11.37 14.79 11.33 14.79 11.4C14.79 11.45 14.94 11.64 14.97 11.63C14.98 11.63 15.01 11.55 15.03 11.47C15.07 11.31 15.14 11.19 15.18 11.22C15.2 11.22 15.2 11.25 15.19 11.26C15.18 11.27 15.22 11.38 15.27 11.5L15.38 11.76C15.38 11.76 15.41 11.8 15.52 11.71C15.59 11.65 15.65 11.59 15.65 11.57C15.66 11.54 15.68 11.54 15.74 11.57C15.83 11.62 16.12 11.71 16.14 11.69C16.14 11.69 16.16 11.61 16.16 11.52V11.37L16.25 11.39C16.3 11.39 16.39 11.39 16.47 11.39L16.6 11.37L16.48 11.29C16.42 11.25 16.35 11.19 16.33 11.17C16.31 11.14 16.26 11.12 16.19 11.11C16.01 11.1 15.7 10.92 15.7 10.84C15.7 10.82 15.74 10.85 15.8 10.9C15.92 11.01 16.08 11.07 16.22 11.07H16.33L16.26 10.98C16.26 10.98 16.19 10.84 16.18 10.76C16.17 10.64 16.15 10.62 16.02 10.53C15.94 10.48 15.84 10.4 15.8 10.35L15.73 10.27L15.69 10.37C15.67 10.42 15.64 10.47 15.63 10.47C15.62 10.47 15.58 10.44 15.54 10.4C15.5 10.36 15.46 10.33 15.45 10.33C15.44 10.33 15.41 10.38 15.37 10.44L15.31 10.55L15.26 10.49C15.26 10.49 15.18 10.39 15.13 10.35C15.08 10.31 15.06 10.27 15.08 10.27C15.1 10.27 15.15 10.31 15.21 10.37L15.31 10.47L15.35 10.4C15.35 10.4 15.38 10.29 15.37 10.24C15.35 10.16 15.36 10.16 15.39 10.21C15.41 10.24 15.47 10.3 15.52 10.34L15.61 10.41L15.67 10.3C15.73 10.19 15.73 10.19 15.76 10.25C15.8 10.34 16.08 10.57 16.32 10.7C16.36 10.72 16.34 10.65 16.27 10.49C16.25 10.45 16.24 10.37 16.24 10.32C16.24 10.24 16.22 10.21 16.12 10.14C15.98 10.03 15.93 9.96 15.9 9.79C15.89 9.72 15.86 9.64 15.84 9.62C15.81 9.58 15.81 9.6 15.81 9.73C15.81 9.82 15.81 9.93 15.78 9.97L15.74 10.05L15.71 9.98C15.71 9.98 15.63 9.88 15.56 9.83C15.49 9.78 15.45 9.75 15.46 9.74C15.47 9.73 15.54 9.77 15.61 9.83C15.72 9.92 15.75 9.92 15.76 9.89C15.78 9.85 15.76 9.65 15.72 9.52C15.7 9.45 15.7 9.45 15.79 9.54C15.85 9.6 15.89 9.67 15.91 9.8C15.94 9.96 15.96 9.99 16.11 10.12C16.2 10.2 16.28 10.26 16.29 10.25C16.3 10.24 16.31 10.04 16.32 9.8C16.34 9.33 16.32 9.22 16.2 9.08L16.14 9.01L16.23 8.91C16.35 8.78 16.41 8.68 16.43 8.54L16.45 8.43L16.35 8.53C16.26 8.61 16.22 8.63 16.12 8.63C16.02 8.63 15.98 8.61 15.92 8.54C15.84 8.46 15.7 8.38 15.56 8.34C15.51 8.33 15.49 8.34 15.49 8.36C15.49 8.38 15.46 8.45 15.43 8.52L15.37 8.63L15.24 8.51C15.16 8.43 15.07 8.37 15 8.36C14.82 8.31 14.81 8.32 14.81 8.45C14.81 8.65 14.72 8.68 14.57 8.55C14.45 8.45 14.35 8.43 14.13 8.45L13.96 8.47L13.99 8.55C14.02 8.61 14.01 8.64 13.95 8.71C13.86 8.83 13.74 8.88 13.56 8.88C13.48 8.88 13.37 8.9 13.33 8.92C13.29 8.94 13.18 8.96 13.09 8.97C13 8.98 12.9 8.99 12.88 9C12.84 9.02 12.83 9 12.85 8.91C12.87 8.77 12.77 8.66 12.61 8.66C12.4 8.66 12.3 8.84 12.39 9.08C12.41 9.13 12.42 9.19 12.44 9.24C12.44 9.28 12.54 9.4 12.66 9.52C12.77 9.63 12.88 9.74 12.89 9.77C12.9 9.8 12.96 9.85 13.02 9.88L13.12 9.93V9.83C13.09 9.72 13.12 9.7 13.18 9.78C13.2 9.81 13.26 9.85 13.3 9.88C13.37 9.92 13.38 9.92 13.38 9.88C13.38 9.86 13.39 9.8 13.41 9.76L13.44 9.68L13.5 9.78C13.53 9.84 13.63 9.97 13.72 10.07C13.9 10.27 14 10.49 13.95 10.54C13.93 10.56 13.87 10.56 13.74 10.54C13.64 10.52 13.52 10.51 13.47 10.52C13.37 10.53 13.36 10.52 13.42 10.44C13.49 10.36 13.48 10.35 13.35 10.35C13.2 10.35 12.83 10.28 12.68 10.22C12.54 10.17 12.51 10.18 12.47 10.31L12.39 10.54L12.35 10.67H12.5C12.58 10.65 12.69 10.63 12.74 10.62C12.79 10.61 12.83 10.6 12.84 10.6C12.85 10.6 12.82 10.66 12.79 10.71L12.73 10.81L12.82 10.79C12.87 10.78 12.95 10.75 12.99 10.73C13.07 10.69 13.07 10.7 13.13 10.79C13.2 10.9 13.26 10.9 13.27 10.78C13.28 10.65 13.33 10.67 13.41 10.84C13.49 11 13.57 11.06 13.58 10.96C13.58 10.93 13.63 10.88 13.67 10.85C13.76 10.79 13.83 10.81 13.87 10.9C13.91 11 13.82 11.11 13.55 11.27C13.02 11.59 12.71 12.02 12.62 12.57C12.54 13.07 12.79 13.58 13.29 13.95C13.53 14.13 13.91 14.31 13.89 14.24C13.79 13.94 13.79 13.36 13.89 13.27C13.91 13.26 13.9 13.32 13.88 13.4C13.8 13.73 13.83 13.99 14.05 14.6C14.24 15.15 14.22 15.39 13.94 15.55C13.85 15.6 13.8 15.61 13.56 15.61C13.3 15.61 13.28 15.61 13.19 15.68C13.11 15.74 13.01 15.95 13.01 16.04C13.01 16.09 13.07 16.08 13.18 16.02H13.2ZM17.36 16.01L17.47 15.94L17.54 16.01C17.64 16.1 17.75 16.1 17.84 16.01C17.88 15.97 17.92 15.94 17.92 15.95C17.93 15.97 17.95 15.99 17.96 16.02C17.98 16.06 18.03 16.08 18.11 16.08C18.21 16.08 18.24 16.08 18.28 16.02L18.33 15.95L18.44 16.02C18.73 16.2 18.88 16.02 18.76 15.63C18.69 15.44 18.73 15.33 18.94 15.08C19.03 14.98 19.1 14.87 19.1 14.83C19.1 14.78 19.08 14.77 18.96 14.78C18.85 14.78 18.81 14.78 18.75 14.71C18.65 14.61 18.66 14.48 18.77 14.35L18.86 14.24L18.71 14.14C18.62 14.08 18.47 13.95 18.37 13.84C18.14 13.6 17.91 13.49 17.61 13.46L17.41 13.44V13.59C17.41 13.78 17.5 13.96 17.75 14.27C18.03 14.62 18.05 14.68 18.07 15.14V15.53L18 15.61C17.93 15.68 17.89 15.69 17.65 15.7C17.42 15.71 17.37 15.72 17.31 15.78C17.22 15.86 17.19 15.9 17.17 16C17.15 16.06 17.17 16.08 17.21 16.08C17.24 16.08 17.31 16.05 17.37 16.01H17.36ZM11.3 14.88C11.3 14.88 11.32 14.82 11.43 14.8L11.56 14.78L11.47 14.71C11.36 14.63 11.35 14.56 11.45 14.56C11.54 14.56 11.7 14.47 11.72 14.4C11.73 14.37 11.72 14.32 11.7 14.3C11.65 14.24 11.55 14.25 11.53 14.32C11.51 14.39 11.48 14.39 11.4 14.32C11.29 14.22 11.29 14 11.4 13.88C11.45 13.82 11.45 13.82 11.39 13.76C11.32 13.69 11.27 13.57 11.3 13.54C11.31 13.54 11.37 13.54 11.42 13.56C11.5 13.59 11.53 13.59 11.57 13.56C11.67 13.48 11.57 13.38 11.4 13.4C11.33 13.4 11.31 13.4 11.3 13.37C11.3 13.34 11.24 13.31 11.17 13.3C11.05 13.27 11.05 13.27 11.05 13.35C11.05 13.44 11 13.45 10.91 13.4C10.83 13.36 10.76 13.4 10.76 13.47C10.76 13.54 10.84 13.58 10.97 13.57C11.08 13.57 11.08 13.64 10.97 13.75L10.9 13.83L10.96 13.91C11.04 14.03 11.04 14.23 10.95 14.32L10.88 14.4L10.83 14.34C10.76 14.25 10.67 14.26 10.65 14.35C10.63 14.41 10.65 14.44 10.72 14.5C10.77 14.54 10.85 14.58 10.89 14.58C10.99 14.58 10.99 14.66 10.89 14.73L10.81 14.79L10.94 14.81C11.01 14.82 11.07 14.84 11.07 14.85C11.07 14.9 11.1 15.06 11.19 15.06C11.26 15.06 11.31 14.95 11.31 14.88H11.3ZM12.9 14.31C13.01 14.27 13.26 14.06 13.26 14.01C13.26 13.99 13.19 13.92 13.11 13.85C12.93 13.69 12.74 13.43 12.69 13.28C12.66 13.2 12.54 13.06 12.19 12.73L11.72 12.29L11.59 12.32C11.52 12.34 11.43 12.35 11.39 12.35C11.33 12.35 11.33 12.35 11.41 12.42L11.5 12.49L11.62 12.42C11.74 12.36 11.74 12.35 11.76 12.41C11.76 12.44 11.75 12.49 11.72 12.53C11.69 12.57 11.67 12.61 11.68 12.63C11.69 12.65 11.66 12.68 11.61 12.7C11.52 12.74 11.46 12.88 11.53 12.88C11.59 12.88 11.73 12.71 11.71 12.66C11.71 12.63 11.71 12.6 11.71 12.59C11.76 12.56 11.76 12.69 11.71 12.75C11.68 12.79 11.66 12.83 11.67 12.85C11.68 12.87 11.65 12.9 11.6 12.92C11.51 12.96 11.45 13.1 11.52 13.1C11.59 13.1 11.72 12.94 11.71 12.88C11.71 12.85 11.71 12.82 11.71 12.81C11.75 12.79 11.77 12.89 11.74 12.94C11.72 12.97 11.72 13 11.74 13.03C11.77 13.08 11.74 13.18 11.68 13.22C11.66 13.23 11.68 13.26 11.73 13.3C11.81 13.36 11.81 13.37 11.81 13.64C11.81 13.87 11.81 13.92 11.86 13.96C11.91 14 11.91 14 11.91 13.96C11.91 13.91 11.99 13.86 12.06 13.86C12.08 13.86 12.21 13.96 12.34 14.09C12.47 14.22 12.61 14.33 12.65 14.33L12.74 14.35C12.74 14.35 12.81 14.33 12.87 14.31H12.9ZM11.46 13.21C11.46 13.14 11.31 13.06 11.12 13.04C10.97 13.02 10.97 13.02 10.97 13.1C10.97 13.16 10.99 13.18 11.1 13.23C11.26 13.3 11.46 13.29 11.46 13.22V13.21ZM11.63 13.21C11.71 13.14 11.74 13.06 11.7 13.06C11.65 13.06 11.51 13.18 11.51 13.23C11.51 13.3 11.54 13.3 11.63 13.21ZM11.47 12.99C11.47 12.99 11.45 12.92 11.37 12.89C11.2 12.82 11 12.78 10.95 12.82C10.86 12.89 10.92 12.98 11.06 13C11.12 13 11.2 13.02 11.24 13.04C11.35 13.08 11.46 13.06 11.47 13V12.99ZM11.47 12.77C11.47 12.71 11.44 12.69 11.13 12.58C10.9 12.5 10.79 12.54 10.87 12.68C10.9 12.73 10.94 12.75 11.04 12.76C11.11 12.77 11.21 12.79 11.26 12.81C11.39 12.85 11.47 12.84 11.48 12.77H11.47ZM11.63 12.57C11.63 12.57 11.72 12.47 11.72 12.45C11.72 12.38 11.53 12.5 11.51 12.58C11.48 12.68 11.53 12.67 11.63 12.57ZM11.47 12.55C11.48 12.48 11.37 12.42 11.14 12.38C10.98 12.35 10.9 12.37 10.92 12.44C10.92 12.48 10.98 12.51 11.14 12.56C11.39 12.64 11.46 12.63 11.48 12.56L11.47 12.55ZM11.69 12.24C11.98 12.12 12 11.8 11.73 11.72C11.62 11.69 11.55 11.7 11.5 11.78C11.47 11.84 11.49 11.94 11.53 11.94C11.55 11.94 11.56 11.96 11.56 11.98C11.56 12.09 11.12 12.14 10.94 12.05C10.88 12.02 10.85 11.94 10.9 11.94C10.94 11.94 10.97 11.86 10.95 11.8C10.92 11.72 10.84 11.69 10.72 11.72C10.45 11.79 10.46 12.1 10.73 12.23C10.95 12.34 11.45 12.34 11.68 12.24H11.69ZM11.51 12C11.51 12 11.51 11.96 11.49 11.94C11.43 11.89 11.43 11.82 11.49 11.74C11.54 11.68 11.55 11.59 11.56 10.69C11.59 9.13 11.71 7.96 11.86 7.68C11.92 7.57 11.91 7.57 11.75 7.68C11.54 7.82 11.39 8 11.25 8.25C10.99 8.73 10.89 9.38 10.89 10.77C10.89 11.56 10.89 11.66 10.94 11.74C10.98 11.81 10.99 11.84 10.96 11.91C10.94 11.96 10.93 12.01 10.94 12.01C11 12.06 11.43 12.05 11.49 11.99L11.51 12ZM13.92 10.52C13.92 10.52 13.91 10.44 13.88 10.37C13.83 10.26 13.81 10.24 13.73 10.24C13.5 10.24 13.13 10.14 12.74 9.97C12.52 9.87 12.44 9.85 12.42 9.88C12.35 9.94 12.46 10.09 12.64 10.17C12.79 10.24 13.23 10.32 13.42 10.32C13.53 10.32 13.54 10.32 13.47 10.42L13.42 10.49H13.55C13.62 10.49 13.72 10.51 13.77 10.52C13.9 10.55 13.9 10.55 13.92 10.52Z" fill="#FFBE29"/>
<path d="M18.64 16.14C18.58 16.14 18.51 16.12 18.41 16.06L18.35 16.02V16.04C18.28 16.12 18.22 16.13 18.11 16.13C18.04 16.13 17.95 16.11 17.91 16.04C17.91 16.04 17.91 16.04 17.91 16.03C17.91 16.03 17.9 16.04 17.89 16.05C17.78 16.16 17.62 16.17 17.51 16.05L17.47 16.01L17.4 16.05C17.34 16.09 17.25 16.13 17.2 16.13C17.18 16.13 17.14 16.13 17.11 16.1C17.08 16.07 17.09 16.02 17.11 15.98C17.14 15.86 17.17 15.81 17.27 15.72C17.35 15.65 17.42 15.64 17.65 15.62C17.89 15.61 17.9 15.6 17.96 15.55L18.02 15.49V15.13C18 14.68 17.99 14.64 17.71 14.3C17.45 13.98 17.36 13.78 17.35 13.58V13.48C16.95 13.48 16.67 13.57 15.98 13.87C15.73 13.98 15.42 14.11 15.37 14.12L15.26 14.14C15.21 14.23 15.15 14.33 15.08 14.42C14.98 14.58 14.94 14.69 14.97 14.76C15 14.82 15.08 14.85 15.21 14.87C15.39 14.89 15.42 14.92 15.42 14.97C15.42 15.05 15.21 15.27 15.14 15.3C15.1 15.32 14.99 15.36 14.9 15.39C14.85 15.41 14.79 15.43 14.78 15.44C14.78 15.44 14.78 15.48 14.78 15.5C14.78 15.57 14.79 15.64 14.8 15.72C14.82 15.83 14.8 15.88 14.73 15.99C14.64 16.12 14.61 16.14 14.46 16.12C14.38 16.12 14.28 16.08 14.24 16.05C14.24 16.05 14.23 16.05 14.22 16.04C14.21 16.04 14.19 16.06 14.18 16.07C14.05 16.16 13.86 16.16 13.75 16.07L13.72 16.04L13.68 16.07C13.55 16.17 13.35 16.16 13.28 16.06H13.27L13.2 16.09C13.1 16.14 13.04 16.15 13 16.13C12.97 16.11 12.96 16.08 12.96 16.05C12.96 15.94 13.07 15.71 13.17 15.64C13.27 15.56 13.31 15.56 13.58 15.56C13.82 15.56 13.86 15.56 13.93 15.51C14.14 15.39 14.21 15.22 14.01 14.64C13.97 14.53 13.94 14.43 13.91 14.34C13.88 14.34 13.81 14.34 13.65 14.25C13.54 14.19 13.42 14.12 13.32 14.05C13.28 14.15 13.05 14.31 12.95 14.36L12.93 14.37C12.85 14.4 12.79 14.42 12.76 14.41L12.66 14.39C12.57 14.37 12.32 14.14 12.31 14.13C12.19 14.02 12.09 13.94 12.06 13.92C12.03 13.92 11.99 13.95 11.98 13.96C11.98 13.98 11.98 14.03 11.94 14.04C11.9 14.06 11.86 14.03 11.83 14C11.77 13.94 11.76 13.87 11.76 13.63C11.76 13.39 11.76 13.39 11.7 13.34C11.68 13.32 11.65 13.3 11.64 13.28C11.59 13.32 11.55 13.35 11.5 13.33C11.49 13.33 11.48 13.32 11.47 13.31C11.44 13.33 11.41 13.33 11.37 13.34C11.37 13.34 11.39 13.34 11.41 13.34C11.54 13.32 11.65 13.37 11.68 13.45C11.7 13.51 11.68 13.57 11.63 13.61C11.57 13.66 11.5 13.64 11.43 13.61C11.41 13.61 11.4 13.6 11.38 13.6C11.39 13.63 11.42 13.68 11.45 13.72C11.53 13.8 11.55 13.84 11.47 13.93C11.38 14.03 11.38 14.21 11.47 14.29C11.48 14.3 11.49 14.31 11.5 14.31C11.51 14.26 11.55 14.23 11.6 14.22C11.66 14.21 11.73 14.22 11.77 14.27C11.8 14.31 11.82 14.38 11.8 14.43C11.77 14.53 11.6 14.62 11.49 14.63C11.49 14.64 11.51 14.65 11.53 14.67L11.73 14.83L11.45 14.87C11.45 14.87 11.38 14.88 11.37 14.89V14.92C11.37 14.98 11.34 15.05 11.29 15.1C11.26 15.13 11.22 15.14 11.19 15.14C11.07 15.14 11.03 14.98 11.02 14.9C11 14.9 10.98 14.89 10.94 14.88L10.67 14.84L10.87 14.69C10.87 14.69 10.91 14.66 10.92 14.65C10.86 14.65 10.77 14.6 10.71 14.56C10.63 14.49 10.59 14.44 10.62 14.35C10.64 14.29 10.68 14.25 10.73 14.24C10.79 14.23 10.86 14.26 10.91 14.32L10.93 14.3C11 14.22 11.01 14.06 10.93 13.96L10.84 13.84L10.95 13.72C10.95 13.72 11 13.65 11 13.64C11 13.64 11 13.64 10.99 13.64C10.88 13.64 10.8 13.63 10.76 13.58C10.73 13.55 10.71 13.51 10.71 13.47C10.71 13.41 10.74 13.36 10.78 13.34C10.83 13.31 10.89 13.31 10.95 13.34C10.98 13.36 10.99 13.36 11 13.36C11 13.36 11 13.36 11 13.34C11 13.31 11 13.28 11.01 13.26C10.95 13.23 10.91 13.19 10.91 13.11C10.91 13.08 10.91 13.05 10.93 13.02C10.89 13 10.87 12.97 10.86 12.93C10.85 12.88 10.86 12.84 10.9 12.8C10.87 12.78 10.84 12.76 10.82 12.72C10.77 12.63 10.79 12.57 10.82 12.54C10.84 12.52 10.86 12.51 10.89 12.5C10.89 12.49 10.88 12.47 10.88 12.46C10.88 12.4 10.89 12.37 10.91 12.35C10.84 12.34 10.78 12.32 10.73 12.29C10.57 12.21 10.47 12.07 10.49 11.92C10.5 11.8 10.59 11.7 10.73 11.66C10.79 11.64 10.84 11.64 10.89 11.66C10.87 11.54 10.87 11.32 10.87 10.78C10.87 9.39 10.96 8.72 11.23 8.23C11.37 7.97 11.54 7.78 11.75 7.64C11.87 7.56 11.92 7.53 11.97 7.57C12.01 7.61 11.98 7.66 11.95 7.73C11.84 7.94 11.69 8.84 11.65 10.71C11.64 11.29 11.63 11.54 11.61 11.66C11.65 11.66 11.7 11.66 11.76 11.68C11.9 11.72 11.98 11.82 11.99 11.95C11.99 12.07 11.94 12.18 11.83 12.26H11.85L11.8 12.29L12.24 12.71C12.4 12.86 12.52 12.98 12.6 13.06C12.57 12.91 12.56 12.75 12.59 12.6C12.68 12.03 13 11.58 13.55 11.26C13.85 11.09 13.86 11.01 13.84 10.97C13.83 10.94 13.81 10.92 13.8 10.92C13.78 10.92 13.76 10.92 13.73 10.94C13.69 10.97 13.67 11 13.66 11.01C13.65 11.09 13.6 11.1 13.58 11.11C13.51 11.11 13.44 11.05 13.37 10.91C13.37 10.89 13.35 10.87 13.35 10.86C13.34 10.93 13.31 10.97 13.26 10.98C13.18 11 13.12 10.9 13.09 10.87C13.09 10.86 13.07 10.83 13.06 10.82C13.06 10.82 13.04 10.82 13.03 10.83C12.98 10.85 12.9 10.88 12.84 10.89L12.62 10.93L12.74 10.71C12.68 10.72 12.59 10.74 12.51 10.75L12.27 10.77L12.42 10.32C12.44 10.26 12.46 10.21 12.51 10.18C12.43 10.12 12.37 10.04 12.36 9.98C12.36 9.93 12.36 9.89 12.4 9.86C12.46 9.81 12.54 9.83 12.79 9.94C13.16 10.1 13.52 10.2 13.74 10.2C13.72 10.18 13.71 10.16 13.69 10.14C13.6 10.04 13.51 9.92 13.47 9.85C13.47 9.87 13.46 9.89 13.46 9.9C13.46 9.91 13.46 9.96 13.42 9.98C13.38 10 13.34 9.98 13.28 9.95C13.25 9.93 13.22 9.91 13.19 9.88L13.21 10.06L13.01 9.95C12.96 9.92 12.89 9.87 12.86 9.82C12.85 9.8 12.76 9.7 12.64 9.58C12.62 9.56 12.42 9.37 12.4 9.27C12.39 9.22 12.37 9.17 12.36 9.11C12.31 8.96 12.32 8.82 12.39 8.73C12.45 8.65 12.54 8.61 12.64 8.61C12.74 8.61 12.83 8.65 12.88 8.71C12.93 8.77 12.95 8.85 12.94 8.93C12.94 8.93 12.94 8.93 12.94 8.94C12.99 8.93 13.07 8.92 13.12 8.92C13.21 8.92 13.31 8.89 13.34 8.87C13.4 8.84 13.52 8.83 13.6 8.83C13.76 8.83 13.86 8.79 13.94 8.69C13.99 8.63 13.98 8.63 13.97 8.59L13.91 8.44L14.16 8.41C14.4 8.38 14.51 8.41 14.65 8.52C14.72 8.58 14.76 8.59 14.77 8.58C14.77 8.58 14.8 8.55 14.8 8.46C14.8 8.4 14.8 8.34 14.84 8.31C14.89 8.27 14.95 8.29 15.06 8.31C15.14 8.33 15.24 8.4 15.33 8.48L15.4 8.55L15.42 8.51C15.45 8.45 15.47 8.4 15.47 8.38C15.47 8.35 15.48 8.32 15.5 8.31C15.54 8.28 15.59 8.3 15.61 8.31C15.76 8.35 15.91 8.44 15.99 8.53C16.04 8.59 16.07 8.6 16.15 8.6C16.23 8.6 16.26 8.59 16.33 8.52L16.57 8.3L16.52 8.59C16.49 8.74 16.43 8.85 16.3 8.99L16.24 9.05L16.27 9.08C16.4 9.25 16.42 9.38 16.4 9.84C16.38 10.31 16.38 10.31 16.35 10.33C16.33 10.35 16.31 10.35 16.29 10.34C16.29 10.34 16.29 10.35 16.29 10.36C16.29 10.4 16.3 10.47 16.32 10.51C16.4 10.7 16.41 10.75 16.37 10.79C16.35 10.81 16.32 10.82 16.28 10.79C16.25 10.78 16.23 10.76 16.2 10.74C16.2 10.76 16.2 10.78 16.2 10.8C16.2 10.87 16.24 10.95 16.27 10.99L16.4 11.16L17.05 11.18C17.65 11.19 17.77 11.19 17.97 11.15C18.16 11.11 18.33 11.1 18.8 11.11C19.34 11.11 19.39 11.11 19.62 11.05C19.94 10.96 20.01 10.93 20.09 10.83C20.18 10.73 20.22 10.6 20.2 10.49C20.17 10.38 20.09 10.29 19.96 10.23C19.81 10.17 19.44 10.17 19.13 10.23C18.47 10.36 17.84 10.35 17.46 10.2C17.12 10.07 17.07 10.06 17.02 10.08C16.96 10.1 16.92 10.16 16.92 10.25C16.92 10.28 16.91 10.39 16.84 10.39C16.82 10.39 16.79 10.39 16.69 10.26C16.58 10.11 16.57 9.9 16.67 9.75L16.7 9.7L16.64 9.63C16.31 9.25 16.32 8.82 16.66 8.51C16.85 8.34 17.18 8.18 17.47 8.13C17.73 8.08 18.28 8.11 18.54 8.19C18.94 8.3 19.49 8.62 19.94 8.98C20.2 9.19 20.37 9.3 20.44 9.31C20.42 9.23 20.44 9.17 20.5 9.11C20.56 9.04 20.64 9.01 20.73 9.01C20.82 9.01 20.9 9.07 20.94 9.15C21.01 9.27 21.01 9.41 20.94 9.52C20.87 9.64 20.72 9.72 20.56 9.72C20.32 9.72 20.15 9.64 19.9 9.42C19.73 9.27 19.59 9.16 19.51 9.1C19.54 9.19 19.59 9.31 19.61 9.33C19.63 9.35 19.7 9.39 19.66 9.45C19.63 9.5 19.57 9.5 19.4 9.43C19.25 9.37 19.12 9.26 19.04 9.15C19.02 9.21 18.98 9.28 18.94 9.32C18.87 9.39 18.7 9.47 18.61 9.47C18.59 9.47 18.55 9.47 18.53 9.43C18.51 9.38 18.53 9.34 18.58 9.3C18.61 9.26 18.65 9.18 18.66 9.12C18.69 9.02 18.69 9.01 18.64 8.92C18.59 8.83 18.53 8.77 18.41 8.71C18.48 8.85 18.47 9.07 18.38 9.2C18.3 9.32 18.15 9.41 17.99 9.44L17.76 9.49L17.91 9.25C17.99 9.12 18 8.94 17.93 8.83C17.86 8.73 17.64 8.6 17.56 8.6C17.56 8.6 17.56 8.6 17.55 8.6C17.55 8.62 17.55 8.63 17.55 8.65C17.57 8.78 17.51 8.96 17.41 8.98C17.4 8.98 17.32 8.99 17.29 8.89C17.29 8.87 17.27 8.86 17.25 8.85C17.21 8.83 17.14 8.83 17.07 8.85C16.96 8.89 16.89 8.96 16.86 9.05C16.84 9.14 16.87 9.23 16.95 9.31C16.98 9.33 17 9.35 17.01 9.37C17.01 9.37 17.02 9.35 17.03 9.34C17.14 9.16 17.45 9.08 17.63 9.19L17.8 9.29L17.57 9.4C17.4 9.48 17.4 9.57 17.43 9.64C17.44 9.68 17.47 9.73 17.49 9.76C17.56 9.67 17.71 9.53 17.79 9.56C17.84 9.57 17.87 9.63 17.88 9.67C17.9 9.79 17.91 9.8 18.01 9.86C18.11 9.91 18.14 9.92 18.43 9.92C18.61 9.92 18.87 9.9 19.03 9.87C19.19 9.84 19.47 9.82 19.65 9.82C19.96 9.82 20.01 9.82 20.19 9.9C20.48 10.02 20.67 10.25 20.71 10.52C20.75 10.78 20.63 11.04 20.4 11.23L20.29 11.32L20.37 11.43C20.44 11.52 20.53 11.68 20.58 11.78C20.66 11.96 20.66 12.02 20.66 12.33C20.66 12.72 20.63 12.83 20.42 13.41C20.22 13.95 20.19 14.28 20.32 14.56C20.38 14.68 20.46 14.76 20.54 14.76C20.65 14.76 20.68 14.82 20.69 14.85C20.72 14.95 20.63 15.1 20.45 15.23C20.27 15.35 20.24 15.41 20.25 15.54C20.25 15.64 20.29 15.73 20.43 15.93C20.46 15.97 20.5 16.06 20.48 16.12C20.48 16.14 20.45 16.17 20.4 16.18C20.3 16.2 20.11 16.17 20.02 16.09C20.02 16.09 20.02 16.09 20.01 16.09C19.98 16.14 19.93 16.17 19.87 16.19C19.78 16.22 19.67 16.19 19.58 16.12L19.53 16.08L19.48 16.12C19.41 16.18 19.32 16.21 19.24 16.2C19.18 16.2 19.13 16.16 19.09 16.11V16.09L19.02 16.13C18.92 16.19 18.84 16.23 18.78 16.19C18.78 16.19 18.77 16.18 18.76 16.17C18.73 16.19 18.69 16.21 18.63 16.21L18.64 16.14ZM18.32 15.86L18.47 15.96C18.57 16.02 18.65 16.04 18.69 16C18.74 15.96 18.76 15.85 18.69 15.64C18.62 15.42 18.66 15.29 18.88 15.03C18.96 14.94 19.01 14.86 19.02 14.83C19 14.83 18.96 14.83 18.95 14.83C18.83 14.83 18.77 14.82 18.7 14.74C18.54 14.57 18.64 14.39 18.71 14.3L18.75 14.25L18.65 14.18C18.56 14.12 18.4 13.98 18.3 13.88C18.08 13.65 17.87 13.54 17.58 13.52H17.45V13.59C17.45 13.76 17.54 13.94 17.78 14.24C18.07 14.6 18.1 14.67 18.11 15.14V15.56L18.02 15.65C17.93 15.73 17.88 15.74 17.63 15.76C17.41 15.77 17.37 15.78 17.32 15.83C17.24 15.9 17.22 15.93 17.2 16.02C17.22 16.02 17.26 15.99 17.3 15.97L17.45 15.88L17.56 15.98C17.63 16.05 17.71 16.05 17.78 15.98C17.87 15.9 17.89 15.9 17.91 15.9H17.94L17.96 15.93C17.97 15.95 17.99 15.98 18 16C18.01 16.02 18.05 16.03 18.11 16.03C18.2 16.03 18.2 16.03 18.23 16L18.31 15.89L18.32 15.86ZM13.31 15.88L13.38 15.98C13.38 15.98 13.53 16.02 13.61 15.97L13.73 15.88L13.83 15.97C13.9 16.03 14.03 16.03 14.11 15.97C14.19 15.91 14.24 15.89 14.32 15.96C14.33 15.97 14.4 16 14.48 16.01C14.52 16.01 14.56 16.02 14.58 16.01C14.59 16.01 14.62 15.97 14.64 15.93C14.7 15.84 14.7 15.82 14.69 15.75C14.68 15.67 14.67 15.6 14.66 15.52C14.66 15.37 14.69 15.35 14.86 15.29C14.95 15.26 15.05 15.22 15.08 15.2C15.12 15.18 15.21 15.08 15.26 15.01C15.24 15.01 15.22 15.01 15.19 15C15.01 14.98 14.9 14.92 14.85 14.82C14.8 14.71 14.84 14.56 14.97 14.36C15.32 13.83 15.54 13.32 15.54 13C15.54 12.84 15.54 12.78 15.6 12.76C15.62 12.76 15.66 12.76 15.68 12.8C15.74 12.9 15.7 13.12 15.66 13.29C15.6 13.51 15.51 13.75 15.4 13.95L15.38 13.99C15.48 13.95 15.68 13.87 15.92 13.76C16.71 13.41 16.99 13.34 17.5 13.36C17.94 13.38 18.13 13.46 18.44 13.78C18.59 13.94 18.75 14.05 19.02 14.22C19.63 14.59 19.67 14.64 19.7 15.09C19.73 15.54 19.71 15.6 19.33 15.68C19.15 15.72 18.93 15.8 18.87 15.99C18.89 15.99 18.91 15.97 18.95 15.95L19.1 15.85L19.18 15.96C19.18 15.96 19.22 15.99 19.25 16C19.3 16 19.35 15.99 19.4 15.95L19.52 15.85L19.64 15.95C19.7 15.99 19.77 16.01 19.82 15.99C19.85 15.99 19.88 15.96 19.9 15.92C19.91 15.89 19.93 15.88 19.95 15.87C19.99 15.86 20.03 15.88 20.08 15.92C20.15 15.98 20.3 16 20.35 15.99C20.35 15.97 20.34 15.95 20.32 15.92C20.17 15.7 20.12 15.59 20.12 15.46C20.12 15.28 20.17 15.19 20.38 15.05C20.54 14.94 20.58 14.83 20.57 14.81C20.57 14.81 20.56 14.81 20.54 14.81C20.41 14.81 20.28 14.71 20.21 14.54C20.06 14.22 20.09 13.87 20.3 13.29C20.51 12.73 20.53 12.63 20.53 12.26C20.53 11.96 20.53 11.91 20.46 11.75C20.42 11.65 20.33 11.5 20.27 11.42L20.12 11.22L20.32 11.06C20.52 10.9 20.62 10.68 20.59 10.46C20.56 10.23 20.4 10.04 20.15 9.94C19.99 9.87 19.95 9.87 19.66 9.87C19.48 9.87 19.21 9.89 19.06 9.92C18.9 9.95 18.63 9.97 18.44 9.97C18.15 9.97 18.09 9.97 17.96 9.9C17.83 9.83 17.79 9.78 17.77 9.63C17.72 9.66 17.61 9.76 17.59 9.8C17.59 9.81 17.57 9.85 17.53 9.86C17.48 9.86 17.45 9.83 17.43 9.8C17.4 9.76 17.36 9.69 17.34 9.63C17.3 9.51 17.3 9.35 17.55 9.24H17.57C17.44 9.17 17.23 9.23 17.16 9.35C17.09 9.46 17.06 9.46 17.04 9.46C17.02 9.46 17 9.46 16.88 9.35C16.77 9.24 16.72 9.11 16.75 8.98C16.78 8.85 16.89 8.74 17.04 8.69C17.14 8.66 17.25 8.66 17.32 8.69C17.36 8.71 17.39 8.75 17.41 8.79C17.43 8.75 17.45 8.69 17.44 8.62C17.44 8.55 17.42 8.5 17.46 8.47C17.49 8.44 17.53 8.44 17.57 8.44C17.7 8.44 17.96 8.59 18.04 8.72C18.14 8.87 18.13 9.1 18.03 9.27C18.14 9.24 18.24 9.17 18.29 9.09C18.35 9 18.36 8.81 18.3 8.72C18.26 8.66 18.23 8.59 18.27 8.55C18.31 8.5 18.37 8.53 18.41 8.55C18.58 8.62 18.68 8.7 18.75 8.83C18.81 8.95 18.82 9 18.78 9.12C18.76 9.18 18.73 9.25 18.7 9.3C18.76 9.28 18.83 9.24 18.86 9.21C18.88 9.19 18.92 9.12 18.94 9.07L19.03 8.84L19.14 9.04C19.2 9.14 19.32 9.24 19.46 9.3C19.46 9.3 19.47 9.3 19.48 9.3C19.43 9.2 19.39 9.07 19.39 9.01C19.39 9 19.39 8.96 19.42 8.93C19.46 8.9 19.5 8.86 20.01 9.31C20.24 9.51 20.38 9.58 20.59 9.58C20.71 9.58 20.82 9.53 20.87 9.44C20.91 9.37 20.91 9.28 20.87 9.19C20.84 9.14 20.8 9.11 20.75 9.11C20.7 9.11 20.66 9.13 20.63 9.16C20.59 9.2 20.59 9.23 20.6 9.26C20.6 9.3 20.62 9.34 20.6 9.38C20.57 9.42 20.53 9.42 20.5 9.42C20.41 9.42 20.28 9.36 19.92 9.06C19.48 8.7 18.95 8.4 18.56 8.29C18.32 8.22 17.79 8.19 17.55 8.24C17.29 8.29 16.97 8.44 16.8 8.59C16.51 8.86 16.51 9.21 16.8 9.54L16.92 9.68L16.83 9.81C16.76 9.92 16.76 10.07 16.85 10.18C16.85 10.18 16.86 10.19 16.87 10.2C16.89 10.08 16.95 10 17.05 9.96C17.15 9.92 17.22 9.94 17.57 10.08C17.93 10.22 18.53 10.23 19.17 10.1C19.5 10.03 19.89 10.04 20.07 10.11C20.23 10.18 20.35 10.3 20.38 10.45C20.41 10.6 20.36 10.77 20.24 10.9C20.13 11.02 20.03 11.06 19.71 11.15C19.47 11.22 19.4 11.22 18.86 11.21C18.4 11.21 18.24 11.21 18.05 11.25C17.84 11.29 17.71 11.3 17.1 11.28H16.59C16.59 11.28 16.63 11.3 16.65 11.3C16.68 11.32 16.72 11.34 16.72 11.39L16.78 11.43H16.7C16.7 11.43 16.65 11.47 16.62 11.48C16.57 11.5 16.46 11.51 16.37 11.51H16.28V11.58C16.26 11.64 16.26 11.7 16.27 11.72C16.27 11.74 16.3 11.79 16.27 11.82C16.24 11.86 16.19 11.84 16.17 11.83C16.15 11.83 16.07 11.8 15.99 11.79C15.91 11.77 15.81 11.74 15.76 11.72C15.76 11.72 15.74 11.71 15.73 11.7C15.7 11.75 15.44 11.95 15.37 11.95C15.3 11.95 15.3 11.86 15.29 11.82C15.29 11.79 15.26 11.7 15.22 11.6C15.2 11.55 15.18 11.51 15.16 11.47V11.49C15.15 11.55 15.11 11.64 15.07 11.7L14.95 11.88L14.86 11.7C14.86 11.7 14.81 11.62 14.79 11.59C14.75 11.68 14.59 11.88 14.51 11.88C14.46 11.88 14.43 11.83 14.42 11.74C14.36 11.81 14.28 11.88 14.23 11.88C14.23 11.88 14.21 11.88 14.2 11.9C14.13 11.98 14.07 11.96 14.05 11.95C14.04 11.95 13.99 11.91 14.02 11.83C14.02 11.82 14.02 11.76 14 11.71L13.97 11.61C13.97 11.61 13.92 11.61 13.87 11.64C13.7 11.69 13.64 11.69 13.61 11.64C13.58 11.58 13.64 11.53 13.67 11.51C13.69 11.5 13.73 11.42 13.76 11.34C13.76 11.31 13.78 11.27 13.81 11.23C13.77 11.26 13.72 11.29 13.66 11.32C13.14 11.63 12.84 12.04 12.76 12.58C12.68 13.05 12.93 13.55 13.41 13.9C13.57 14.02 13.78 14.13 13.89 14.17C13.81 13.85 13.82 13.33 13.94 13.22C13.96 13.2 13.99 13.2 14.02 13.22C14.06 13.24 14.06 13.29 14.03 13.42C13.95 13.73 13.99 13.99 14.2 14.59C14.43 15.25 14.32 15.46 14.07 15.61C13.97 15.67 13.89 15.68 13.66 15.67C13.4 15.67 13.4 15.67 13.33 15.72C13.27 15.76 13.19 15.91 13.17 16C13.19 16 13.21 15.98 13.25 15.96H13.27V15.95L13.4 15.88H13.31ZM19 14.71C19.06 14.71 19.1 14.71 19.13 14.74C19.16 14.77 19.16 14.81 19.16 14.82C19.16 14.9 19.01 15.07 18.98 15.11C18.77 15.35 18.75 15.44 18.81 15.6C18.83 15.67 18.85 15.74 18.86 15.8C18.96 15.69 19.11 15.61 19.32 15.57C19.52 15.53 19.61 15.3767 19.59 15.11C19.56 14.7 19.54 14.68 18.97 14.34C18.94 14.32 18.92 14.31 18.9 14.29L18.82 14.39C18.7 14.53 18.75 14.61 18.8 14.67C18.85 14.72 18.86 14.73 18.96 14.72C18.97 14.72 18.99 14.72 19 14.72V14.71ZM10.96 14.75C11.1 14.77 11.12 14.82 11.12 14.85C11.12 14.9 11.15 15 11.18 15C11.18 15 11.18 15 11.19 15C11.21 14.98 11.23 14.93 11.23 14.89V14.87C11.24 14.79 11.33 14.77 11.41 14.76C11.34 14.7 11.31 14.64 11.33 14.59C11.33 14.56 11.37 14.52 11.45 14.52C11.52 14.52 11.65 14.44 11.67 14.4C11.67 14.39 11.67 14.37 11.67 14.36C11.66 14.34 11.63 14.34 11.62 14.34H11.61C11.61 14.36 11.59 14.42 11.53 14.43C11.48 14.45 11.43 14.41 11.38 14.37C11.24 14.24 11.24 13.99 11.38 13.84C11.38 13.84 11.38 13.84 11.39 13.82L11.37 13.8C11.31 13.74 11.25 13.63 11.25 13.56C11.25 13.52 11.27 13.5 11.28 13.48C11.29 13.47 11.33 13.44 11.46 13.48C11.53 13.5 11.54 13.5 11.55 13.49C11.56 13.48 11.57 13.47 11.57 13.47C11.57 13.46 11.52 13.43 11.43 13.44C11.39 13.44 11.29 13.46 11.26 13.37C11.25 13.37 11.22 13.34 11.17 13.33C11.16 13.33 11.14 13.33 11.13 13.33C11.13 13.41 11.1 13.44 11.07 13.46C11 13.5 10.92 13.46 10.89 13.43C10.87 13.42 10.85 13.42 10.84 13.43C10.84 13.43 10.83 13.45 10.83 13.46C10.83 13.46 10.83 13.47 10.83 13.48C10.83 13.48 10.87 13.51 10.97 13.5C11.06 13.5 11.09 13.54 11.11 13.56C11.13 13.6 11.13 13.67 11.03 13.78L10.99 13.82L11.02 13.86C11.12 14 11.11 14.23 11 14.35L10.88 14.48L10.79 14.36C10.79 14.36 10.75 14.32 10.73 14.32C10.72 14.32 10.71 14.34 10.71 14.35C10.71 14.38 10.71 14.39 10.76 14.44C10.81 14.48 10.87 14.5 10.89 14.5C10.98 14.5 11.01 14.55 11.02 14.57C11.04 14.62 11.02 14.68 10.95 14.73L10.96 14.75ZM12.68 14.27H12.77C12.77 14.27 12.82 14.27 12.87 14.25C12.96 14.21 13.14 14.07 13.18 14.01C13.16 13.99 13.12 13.94 13.06 13.89C12.87 13.73 12.68 13.46 12.63 13.29C12.61 13.21 12.43 13.03 12.14 12.77L11.81 12.46C11.81 12.46 11.79 12.51 11.78 12.54C11.78 12.54 11.78 12.54 11.79 12.55C11.83 12.6 11.82 12.7 11.78 12.76C11.82 12.8 11.83 12.9 11.79 12.96C11.79 12.96 11.79 12.98 11.79 12.99C11.83 13.06 11.81 13.16 11.75 13.23C11.75 13.23 11.75 13.23 11.77 13.24C11.88 13.32 11.88 13.36 11.88 13.63C11.88 13.77 11.88 13.84 11.89 13.88C11.93 13.83 12.01 13.8 12.07 13.8C12.09 13.8 12.13 13.8 12.39 14.05C12.53 14.19 12.65 14.27 12.67 14.28L12.68 14.27ZM11.04 13.1C11.04 13.12 11.04 13.13 11.13 13.17C11.25 13.22 11.36 13.22 11.4 13.2C11.38 13.17 11.28 13.12 11.12 13.1C11.09 13.1 11.06 13.1 11.04 13.1ZM10.99 12.87L10.97 12.89C10.97 12.9 11 12.93 11.07 12.94C11.13 12.94 11.22 12.97 11.26 12.98C11.34 13.01 11.4 13 11.4 12.98C11.4 12.98 11.4 12.97 11.34 12.94C11.17 12.87 11.02 12.85 10.98 12.86L10.99 12.87ZM10.9 12.61C10.9 12.61 10.9 12.63 10.92 12.65C10.93 12.67 10.95 12.69 11.04 12.7C11.12 12.71 11.22 12.73 11.27 12.75C11.37 12.78 11.4 12.77 11.41 12.76C11.38 12.73 11.22 12.68 11.11 12.64C10.97 12.59 10.92 12.6 10.9 12.61ZM10.98 12.43C10.98 12.43 11.02 12.46 11.15 12.5C11.34 12.56 11.39 12.56 11.41 12.55C11.41 12.55 11.37 12.49 11.13 12.44C11.03 12.42 10.99 12.42 10.98 12.43ZM11.48 12.4H11.5L11.54 12.39C11.52 12.39 11.5 12.39 11.48 12.4ZM10.82 11.77C10.82 11.77 10.77 11.77 10.75 11.78C10.66 11.8 10.61 11.86 10.6 11.93C10.6 12.02 10.66 12.12 10.77 12.17C10.98 12.27 11.44 12.28 11.66 12.18C11.78 12.12 11.86 12.03 11.85 11.93C11.85 11.86 11.79 11.8 11.7 11.77C11.59 11.74 11.56 11.77 11.54 11.8C11.53 11.82 11.54 11.85 11.54 11.87C11.58 11.87 11.61 11.92 11.61 11.97C11.61 12 11.6 12.04 11.54 12.08C11.41 12.16 11.07 12.18 10.9 12.1C10.83 12.07 10.79 11.99 10.8 11.94C10.8 11.91 10.84 11.88 10.87 11.88C10.87 11.87 10.88 11.84 10.87 11.82C10.86 11.78 10.82 11.77 10.79 11.77H10.82ZM11.03 11.98C11.11 12 11.34 11.99 11.44 11.97C11.41 11.94 11.4 11.91 11.4 11.88C11.4 11.83 11.42 11.77 11.47 11.71C11.51 11.67 11.51 11.5 11.53 10.7C11.56 9.25 11.66 8.15 11.8 7.75C11.61 7.88 11.47 8.05 11.33 8.29C11.07 8.76 10.98 9.41 10.98 10.78C10.98 11.53 10.98 11.65 11.02 11.71C11.07 11.8 11.08 11.84 11.04 11.94C11.04 11.96 11.03 11.97 11.03 11.98ZM14.06 11.36V11.51C14.06 11.51 14.08 11.61 14.1 11.68L14.12 11.74H14.15C14.23 11.69 14.3 11.56 14.3 11.47C14.3 11.38 14.36 11.37 14.37 11.37C14.41 11.37 14.45 11.39 14.47 11.47C14.47 11.48 14.49 11.55 14.52 11.62V11.64C14.52 11.64 14.59 11.53 14.61 11.49C14.63 11.43 14.67 11.33 14.75 11.34C14.77 11.34 14.81 11.36 14.82 11.43C14.82 11.46 14.87 11.53 14.91 11.57C14.91 11.55 14.93 11.52 14.93 11.49C14.95 11.41 15 11.23 15.09 11.2C15.12 11.19 15.14 11.2 15.17 11.2C15.19 11.21 15.21 11.24 15.22 11.26C15.22 11.28 15.22 11.29 15.22 11.3C15.22 11.33 15.25 11.4 15.29 11.5L15.39 11.74C15.39 11.74 15.44 11.7 15.45 11.69C15.51 11.64 15.56 11.59 15.57 11.57C15.57 11.56 15.59 11.53 15.62 11.51C15.66 11.5 15.7 11.51 15.74 11.54C15.8 11.58 15.98 11.63 16.06 11.65C16.06 11.62 16.06 11.59 16.06 11.54V11.31L16.22 11.34C16.25 11.34 16.32 11.34 16.39 11.34C16.34 11.31 16.27 11.25 16.24 11.21C16.24 11.21 16.2 11.19 16.15 11.18C15.98 11.17 15.6 10.99 15.6 10.85C15.6 10.82 15.61 10.8 15.64 10.79C15.67 10.78 15.71 10.79 15.8 10.86C15.9 10.95 16.04 11.01 16.17 11.02C16.13 10.96 16.1 10.87 16.09 10.78C16.08 10.68 16.08 10.67 15.96 10.59C15.88 10.53 15.78 10.45 15.73 10.4C15.68 10.52 15.65 10.53 15.62 10.53C15.61 10.53 15.58 10.53 15.49 10.44C15.48 10.43 15.47 10.42 15.46 10.41C15.46 10.42 15.44 10.44 15.43 10.47L15.33 10.67L15.23 10.52C15.23 10.52 15.15 10.43 15.11 10.39C15.04 10.33 15.02 10.29 15.03 10.25C15.03 10.22 15.06 10.21 15.09 10.21C15.13 10.21 15.18 10.25 15.26 10.32L15.3 10.36C15.3 10.36 15.32 10.28 15.32 10.24C15.31 10.18 15.3 10.13 15.35 10.11C15.4 10.09 15.43 10.14 15.45 10.17C15.46 10.19 15.51 10.24 15.56 10.28L15.6 10.31L15.63 10.26C15.68 10.17 15.7 10.14 15.75 10.14L15.69 10C15.69 10 15.63 9.93 15.57 9.88C15.44 9.8 15.44 9.76 15.44 9.74C15.44 9.72 15.44 9.7 15.46 9.69C15.49 9.66 15.53 9.65 15.69 9.77C15.72 9.79 15.74 9.8 15.75 9.82C15.75 9.76 15.74 9.63 15.71 9.53C15.7 9.49 15.69 9.44 15.73 9.41C15.78 9.38 15.81 9.41 15.88 9.48C15.95 9.55 15.99 9.63 16.02 9.77C16.05 9.92 16.06 9.93 16.2 10.05C16.23 10.08 16.26 10.1 16.29 10.12C16.29 10.04 16.3 9.92 16.31 9.77C16.33 9.29 16.31 9.21 16.21 9.09L16.12 8.97L16.25 8.83C16.34 8.73 16.39 8.65 16.42 8.56C16.34 8.63 16.29 8.65 16.18 8.65C16.07 8.65 16.01 8.63 15.93 8.55C15.86 8.48 15.73 8.4 15.61 8.37C15.59 8.43 15.55 8.52 15.55 8.52L15.45 8.7L15.26 8.52C15.19 8.45 15.1 8.4 15.04 8.38C15.01 8.38 14.96 8.36 14.93 8.36C14.93 8.38 14.93 8.4 14.93 8.41C14.93 8.46 14.93 8.59 14.83 8.64C14.76 8.67 14.68 8.64 14.58 8.56C14.48 8.48 14.41 8.45 14.19 8.48H14.1V8.49C14.14 8.58 14.12 8.63 14.06 8.71C13.96 8.84 13.82 8.9 13.62 8.9C13.54 8.9 13.45 8.92 13.41 8.93C13.35 8.96 13.23 8.98 13.15 8.99C13.06 8.99 12.97 9.01 12.95 9.02C12.93 9.02 12.89 9.04 12.86 9.02C12.82 8.99 12.83 8.93 12.84 8.87C12.84 8.82 12.84 8.78 12.81 8.75C12.78 8.71 12.72 8.69 12.66 8.69C12.59 8.69 12.54 8.71 12.51 8.76C12.47 8.82 12.46 8.92 12.5 9.03C12.52 9.09 12.53 9.14 12.55 9.2C12.55 9.22 12.62 9.32 12.75 9.45C12.83 9.53 12.97 9.67 12.99 9.71C12.99 9.72 13.04 9.76 13.08 9.79C13.08 9.74 13.08 9.67 13.13 9.65C13.19 9.62 13.24 9.69 13.26 9.72C13.27 9.74 13.32 9.78 13.36 9.8C13.36 9.77 13.38 9.74 13.39 9.72L13.47 9.52L13.59 9.74C13.59 9.74 13.71 9.91 13.8 10.02C13.93 10.17 14.14 10.47 14.02 10.58C13.98 10.62 13.91 10.62 13.76 10.58C13.66 10.56 13.55 10.55 13.51 10.56C13.46 10.56 13.39 10.58 13.36 10.52H13.34V10.51C13.33 10.47 13.36 10.42 13.39 10.39C13.39 10.39 13.38 10.39 13.37 10.39C13.21 10.39 12.83 10.32 12.68 10.26C12.61 10.23 12.59 10.23 12.58 10.24C12.58 10.24 12.57 10.25 12.55 10.32L12.46 10.59H12.52C12.6 10.58 12.7 10.56 12.75 10.55C12.86 10.52 12.88 10.53 12.9 10.55C12.93 10.58 12.93 10.62 12.87 10.72C12.91 10.71 12.96 10.69 12.99 10.68C13.11 10.62 13.14 10.66 13.21 10.76C13.22 10.78 13.23 10.79 13.24 10.8C13.24 10.8 13.24 10.79 13.24 10.78C13.24 10.74 13.25 10.66 13.32 10.64C13.39 10.63 13.43 10.7 13.49 10.82C13.52 10.87 13.54 10.91 13.56 10.93C13.58 10.88 13.63 10.83 13.67 10.8C13.73 10.76 13.79 10.74 13.84 10.76C13.89 10.78 13.93 10.82 13.96 10.88C14 10.97 13.96 11.05 13.89 11.13C13.92 11.13 13.94 11.14 13.95 11.16C13.98 11.2 13.95 11.25 13.92 11.28C13.9 11.31 13.88 11.34 13.88 11.35C13.88 11.38 13.87 11.42 13.85 11.45C13.85 11.45 13.85 11.45 13.86 11.45L14.08 11.35L14.06 11.36ZM15.76 10.18C15.76 10.18 15.79 10.22 15.8 10.25C15.82 10.31 16.01 10.47 16.23 10.61C16.23 10.59 16.21 10.57 16.2 10.54C16.18 10.49 16.16 10.41 16.16 10.35C16.16 10.3 16.16 10.28 16.06 10.22C15.94 10.13 15.88 10.06 15.85 9.95C15.85 9.98 15.84 10 15.83 10.02L15.76 10.19V10.18ZM13.55 10.43H13.57C13.65 10.43 13.75 10.44 13.8 10.46C13.82 10.46 13.85 10.47 13.86 10.47C13.86 10.45 13.84 10.42 13.83 10.39C13.79 10.3 13.78 10.3 13.74 10.3C13.69 10.3 13.63 10.3 13.56 10.29C13.56 10.29 13.57 10.3 13.58 10.31C13.6 10.35 13.58 10.39 13.55 10.43ZM12.46 9.93C12.46 9.93 12.53 10.05 12.66 10.11C12.8 10.17 13.22 10.26 13.41 10.26C13.2 10.22 12.96 10.14 12.71 10.03C12.66 10.01 12.51 9.94 12.45 9.93H12.46Z" fill="black"/>
<path d="M15.27 11.22C15.27 11.22 15.15 11.07 15.03 11C14.93 10.94 14.92 10.94 14.92 10.99C14.92 11.06 14.86 11.23 14.83 11.23C14.82 11.23 14.8 11.2 14.78 11.16C14.76 11.12 14.72 11.04 14.68 10.98L14.6 10.88L14.53 10.98C14.47 11.07 14.36 11.16 14.32 11.16C14.31 11.16 14.31 11.11 14.32 11.05C14.32 10.99 14.32 10.94 14.3 10.93C14.28 10.92 14.27 10.93 14.27 10.93C14.27 10.96 14.12 11.13 14.09 11.13C14.08 11.13 14.06 11.08 14.05 11.03L14.02 10.83C14.02 10.78 14.03 10.81 14.07 10.91L14.13 11.09L14.2 10.98C14.24 10.92 14.27 10.86 14.27 10.84C14.27 10.82 14.28 10.81 14.3 10.82C14.32 10.83 14.34 10.9 14.35 10.98L14.37 11.12L14.45 11.04C14.45 11.04 14.54 10.93 14.56 10.91C14.59 10.86 14.59 10.86 14.66 10.91C14.7 10.94 14.75 11.01 14.78 11.07C14.81 11.13 14.84 11.17 14.85 11.17C14.86 11.17 14.87 11.11 14.88 11.04L14.9 10.91C14.9 10.91 15.13 11.04 15.22 11.11C15.27 11.16 15.33 11.19 15.33 11.18C15.33 11.17 15.35 11.1 15.35 11.03C15.35 10.91 15.34 10.88 15.26 10.81C15.17 10.74 15.17 10.73 15.14 10.79C15.1 10.86 15.05 10.86 15.05 10.79C15.05 10.74 14.89 10.54 14.85 10.54C14.84 10.54 14.81 10.58 14.77 10.64C14.73 10.7 14.71 10.74 14.7 10.74C14.66 10.74 14.43 10.49 14.43 10.45C14.43 10.41 14.45 10.42 14.49 10.48C14.52 10.53 14.58 10.59 14.62 10.63C14.71 10.71 14.74 10.69 14.78 10.54C14.78 10.5 14.81 10.46 14.82 10.46C14.86 10.46 15.06 10.67 15.08 10.73L15.11 10.8L15.13 10.72C15.16 10.63 15.18 10.62 15.23 10.71C15.25 10.75 15.33 10.82 15.42 10.87L15.58 10.97L15.61 10.87C15.63 10.82 15.65 10.78 15.66 10.8C15.68 10.82 15.63 10.99 15.6 11.02C15.6 11.02 15.54 11 15.49 10.96L15.38 10.89V11.02C15.38 11.09 15.38 11.18 15.36 11.22C15.34 11.29 15.29 11.3 15.29 11.25L15.27 11.22ZM14.48 10.15C14.29 10 14.26 9.96 14.27 9.89V9.81L14.29 9.88C14.29 9.92 14.35 9.99 14.41 10.04L14.52 10.12L14.59 10.04C14.59 10.04 14.66 9.95 14.66 9.93C14.66 9.88 14.67 9.89 14.8 9.99C14.91 10.09 14.92 10.09 14.93 10.02C14.93 9.99 14.93 9.92 14.93 9.87C14.89 9.75 14.9 9.73 14.96 9.8C14.99 9.84 15.03 9.89 15.06 9.92C15.11 9.97 15.11 9.97 15.13 9.91C15.14 9.88 15.15 9.81 15.15 9.77V9.69L15.25 9.8C15.35 9.91 15.35 9.91 15.38 9.86C15.4 9.83 15.41 9.76 15.41 9.7C15.41 9.63 15.41 9.61 15.44 9.64C15.47 9.69 15.44 9.82 15.39 9.93L15.35 10.01L15.29 9.92C15.22 9.81 15.19 9.81 15.15 9.93C15.11 10.04 15.08 10.05 15.04 9.96C15.01 9.9 15.01 9.91 14.99 10.03L14.97 10.16L14.84 10.06L14.71 9.96L14.65 10.02C14.65 10.02 14.59 10.1 14.59 10.12C14.59 10.16 14.56 10.16 14.51 10.12L14.48 10.15ZM16.16 9.58C16.09 9.52 16.04 9.46 16.05 9.45C16.06 9.44 16.07 9.44 16.08 9.45C16.09 9.46 16.14 9.51 16.2 9.58C16.35 9.73 16.32 9.73 16.15 9.58H16.16ZM13.93 9.36C13.87 9.28 13.87 9.22 13.95 9.13C14 9.07 14.03 9.06 14.13 9.07C14.19 9.07 14.32 9.13 14.42 9.19C14.54 9.26 14.66 9.3 14.75 9.31C14.83 9.31 14.9 9.32 14.9 9.31C14.9 9.3 14.87 9.25 14.83 9.19C14.73 9.05 14.74 9.03 14.85 9.12C14.96 9.21 15.1 9.23 15.4 9.22H15.55L15.47 9.13C15.35 9.02 15.39 9.01 15.52 9.12C15.64 9.22 15.64 9.23 15.38 9.26C15.27 9.27 15.15 9.26 15.05 9.24C14.9 9.2 14.9 9.2 14.93 9.25C14.95 9.28 14.97 9.3 14.99 9.3C15.01 9.3 15.02 9.31 15.02 9.33C15.02 9.38 14.7 9.33 14.55 9.26C14.2 9.09 14.16 9.07 14.08 9.1C14.03 9.11 13.99 9.16 13.97 9.2C13.92 9.34 14.12 9.45 14.2 9.32C14.22 9.28 14.22 9.26 14.18 9.22C14.12 9.16 14.13 9.15 14.21 9.18C14.27 9.2 14.27 9.33 14.22 9.38C14.16 9.43 14.03 9.42 13.98 9.35L13.93 9.36ZM15.29 9.02C15.29 9.02 15.29 8.97 15.48 8.97C15.72 8.97 15.87 8.93 16.04 8.82C16.18 8.73 16.22 8.75 16.08 8.84C15.96 8.92 15.77 8.98 15.59 9C15.5 9 15.4 9.02 15.37 9.03C15.34 9.04 15.3 9.03 15.29 9.03V9.02Z" fill="black"/>
<path d="M15.3 11.31C15.3 11.31 15.3 11.31 15.29 11.31C15.26 11.31 15.22 11.28 15.22 11.22C15.2 11.19 15.12 11.11 15.01 11.05C15 11.05 14.99 11.04 14.98 11.03C14.96 11.12 14.92 11.28 14.84 11.28C14.78 11.28 14.75 11.2 14.74 11.16C14.74 11.13 14.69 11.06 14.65 11L14.62 10.96L14.6 10.99C14.55 11.06 14.45 11.17 14.37 11.19L14.34 11.22V11.19C14.34 11.19 14.3 11.19 14.29 11.17C14.29 11.17 14.26 11.14 14.27 11.04C14.24 11.08 14.19 11.12 14.16 11.15L14.13 11.2V11.17H14.11C14.08 11.17 14.03 11.15 14.01 11.02L13.98 10.82C13.97 10.76 14 10.73 14.02 10.73C14.08 10.71 14.1 10.77 14.14 10.87L14.16 10.93C14.19 10.87 14.22 10.83 14.22 10.81C14.22 10.78 14.24 10.75 14.26 10.74C14.28 10.73 14.31 10.73 14.34 10.74C14.39 10.77 14.41 10.86 14.42 10.94C14.42 10.94 14.5 10.86 14.51 10.84C14.53 10.81 14.55 10.78 14.59 10.77V10.75L14.62 10.77C14.65 10.77 14.67 10.8 14.7 10.82C14.74 10.85 14.78 10.91 14.82 10.97L14.84 10.85V10.82L14.88 10.81C14.9 10.81 14.92 10.8 15.06 10.89C15.06 10.89 15.08 10.9 15.09 10.91L15.07 10.87H15.05C15.03 10.87 14.98 10.85 14.98 10.76C14.97 10.73 14.89 10.63 14.85 10.59C14.85 10.6 14.83 10.62 14.82 10.64C14.75 10.77 14.71 10.77 14.69 10.77C14.67 10.77 14.63 10.77 14.5 10.62C14.36 10.47 14.36 10.43 14.36 10.42C14.36 10.36 14.39 10.35 14.41 10.34C14.46 10.32 14.5 10.38 14.53 10.42C14.56 10.46 14.61 10.52 14.65 10.56C14.66 10.57 14.67 10.58 14.68 10.58C14.68 10.57 14.69 10.55 14.7 10.5C14.72 10.42 14.75 10.38 14.8 10.38C14.86 10.38 15.01 10.53 15.08 10.63C15.09 10.6 15.12 10.58 15.15 10.58C15.21 10.58 15.25 10.64 15.26 10.67C15.26 10.69 15.34 10.75 15.43 10.81L15.52 10.87V10.85C15.56 10.75 15.6 10.74 15.62 10.73C15.65 10.73 15.67 10.73 15.69 10.76C15.73 10.82 15.66 11.02 15.63 11.06C15.59 11.11 15.54 11.08 15.43 11C15.43 11.07 15.43 11.17 15.41 11.21C15.39 11.27 15.35 11.32 15.3 11.32V11.31ZM15.11 10.93C15.11 10.93 15.21 11 15.24 11.03C15.24 11.03 15.26 11.05 15.27 11.05C15.27 11.03 15.27 11.01 15.27 10.99C15.27 10.89 15.27 10.87 15.2 10.82C15.2 10.82 15.18 10.8 15.17 10.79C15.16 10.81 15.14 10.83 15.13 10.84L15.11 10.92V10.93ZM14.99 10.29L14.69 10.07L14.67 10.09C14.67 10.09 14.63 10.14 14.63 10.15C14.63 10.2 14.59 10.22 14.58 10.23C14.54 10.25 14.5 10.23 14.45 10.2C14.27 10.05 14.21 10 14.21 9.89V9.81H14.34V9.88C14.34 9.88 14.39 9.95 14.45 10L14.51 10.05L14.54 10.02C14.54 10.02 14.59 9.96 14.59 9.94C14.59 9.92 14.59 9.88 14.63 9.86C14.68 9.84 14.71 9.86 14.82 9.96C14.83 9.97 14.85 9.98 14.86 9.99C14.86 9.97 14.86 9.94 14.85 9.91C14.82 9.82 14.8 9.76 14.86 9.73C14.91 9.7 14.96 9.76 14.98 9.79C15 9.81 15.03 9.85 15.05 9.87C15.05 9.84 15.05 9.81 15.05 9.79V9.55L15.26 9.78C15.27 9.79 15.29 9.81 15.3 9.83C15.3 9.8 15.31 9.76 15.32 9.72C15.32 9.66 15.32 9.6 15.38 9.58C15.39 9.58 15.43 9.57 15.46 9.62C15.51 9.7 15.48 9.85 15.41 9.97L15.32 10.14L15.21 9.97C15.21 9.97 15.19 9.95 15.19 9.94C15.19 9.94 15.19 9.96 15.18 9.97C15.16 10.03 15.12 10.1 15.06 10.1C15.04 10.1 15.02 10.1 15.01 10.09L14.98 10.29H14.99ZM16.3 9.75C16.3 9.75 16.2 9.7 16.12 9.63C15.99 9.52 15.99 9.48 15.99 9.46C15.99 9.44 15.99 9.42 16.01 9.41C16.03 9.39 16.06 9.38 16.08 9.38C16.1 9.38 16.12 9.39 16.13 9.41C16.13 9.42 16.18 9.47 16.25 9.53C16.34 9.62 16.4 9.67 16.35 9.73C16.34 9.74 16.32 9.75 16.31 9.75H16.3ZM14.07 9.48H14.05C13.98 9.48 13.92 9.44 13.88 9.4C13.8 9.29 13.81 9.21 13.9 9.1C13.97 9.02 14.01 9 14.13 9.02C14.21 9.02 14.35 9.09 14.45 9.15C14.56 9.21 14.67 9.25 14.76 9.26C14.76 9.26 14.78 9.26 14.79 9.26C14.79 9.26 14.79 9.25 14.78 9.24C14.71 9.14 14.67 9.08 14.72 9.04C14.77 9 14.82 9.04 14.88 9.09C14.98 9.17 15.1 9.19 15.39 9.18C15.39 9.18 15.34 9.12 15.32 9.1C15.3 9.1 15.28 9.1 15.26 9.08C15.26 9.08 15.22 9.02 15.23 8.99C15.25 8.93 15.32 8.93 15.49 8.93C15.72 8.93 15.85 8.89 16.02 8.79C16.11 8.74 16.19 8.69 16.23 8.76C16.27 8.82 16.19 8.88 16.13 8.92C16 9.01 15.81 9.07 15.62 9.09C15.59 9.09 15.55 9.09 15.52 9.1C15.52 9.1 15.53 9.11 15.54 9.12C15.6 9.17 15.65 9.22 15.64 9.27L15.69 9.32H15.6C15.6 9.32 15.49 9.35 15.37 9.37C15.27 9.38 15.15 9.37 15.06 9.35C15.06 9.35 15.06 9.37 15.06 9.38C15.06 9.41 15.05 9.43 15.02 9.44C14.93 9.49 14.62 9.42 14.5 9.36C14.4 9.31 14.33 9.28 14.28 9.25C14.28 9.25 14.28 9.26 14.28 9.27C14.29 9.33 14.28 9.41 14.23 9.46C14.2 9.49 14.14 9.51 14.09 9.51L14.07 9.48ZM14.03 9.18C14.03 9.18 13.99 9.21 13.98 9.23C13.96 9.28 14.01 9.31 14.02 9.31C14.02 9.31 14.08 9.34 14.11 9.29C14.11 9.29 14.11 9.28 14.09 9.27C14.06 9.24 14.03 9.21 14.03 9.18Z" fill="black"/>
<path d="M13.2 16.02L13.3 15.96L13.34 16.02C13.4 16.1 13.55 16.09 13.66 16.02L13.74 15.96L13.81 16.02C13.9 16.1 14.06 16.1 14.17 16.02C14.24 15.97 14.25 15.97 14.3 16.01C14.33 16.03 14.41 16.06 14.49 16.07C14.62 16.09 14.63 16.09 14.71 15.97C14.78 15.87 14.79 15.83 14.77 15.74C14.76 15.67 14.75 15.59 14.75 15.52C14.75 15.41 14.75 15.41 14.91 15.36C15 15.33 15.1 15.29 15.14 15.27C15.2 15.24 15.38 15.03 15.38 14.99C15.38 14.98 15.31 14.96 15.22 14.95C14.88 14.91 14.82 14.73 15.04 14.4C15.4 13.86 15.62 13.34 15.62 13C15.62 12.85 15.62 12.8 15.65 12.83C15.73 12.96 15.59 13.52 15.37 13.92L15.28 14.08L15.36 14.06C15.36 14.06 15.68 13.94 15.96 13.81C16.74 13.46 17.01 13.4 17.52 13.42C17.94 13.44 18.12 13.52 18.42 13.82C18.58 13.98 18.73 14.1 19.01 14.27C19.6 14.63 19.63 14.66 19.66 15.09C19.69 15.52 19.67 15.55 19.34 15.62C19.05 15.68 18.87 15.81 18.83 15.99C18.8 16.09 18.86 16.09 19 15.99L19.11 15.92L19.16 15.99C19.22 16.08 19.35 16.08 19.46 15.99L19.54 15.92L19.62 15.99C19.75 16.09 19.93 16.07 19.97 15.94C19.97 15.92 20 15.92 20.06 15.97C20.16 16.05 20.4 16.09 20.43 16.02C20.44 16 20.43 15.94 20.39 15.89C20.25 15.68 20.2 15.58 20.2 15.47C20.2 15.31 20.25 15.24 20.43 15.11C20.65 14.95 20.72 14.75 20.55 14.75C20.44 14.75 20.34 14.66 20.27 14.51C20.13 14.21 20.16 13.87 20.37 13.31C20.58 12.74 20.6 12.64 20.6 12.25C20.6 11.94 20.6 11.89 20.52 11.72C20.48 11.62 20.39 11.46 20.32 11.38L20.2 11.23L20.35 11.11C20.81 10.74 20.72 10.12 20.16 9.89C19.99 9.82 19.95 9.81 19.65 9.81C19.47 9.81 19.2 9.83 19.04 9.86C18.88 9.89 18.61 9.91 18.43 9.91C18.14 9.91 18.09 9.91 17.98 9.85C17.86 9.79 17.84 9.76 17.82 9.62C17.82 9.59 17.79 9.56 17.77 9.56C17.73 9.55 17.55 9.7 17.52 9.77C17.51 9.8 17.5 9.8 17.46 9.76C17.43 9.73 17.4 9.66 17.38 9.61C17.33 9.47 17.39 9.37 17.56 9.29L17.69 9.23L17.61 9.18C17.45 9.09 17.19 9.15 17.09 9.31C17.06 9.35 17.03 9.39 17.02 9.39C17.01 9.39 16.96 9.35 16.91 9.3C16.71 9.11 16.78 8.82 17.05 8.74C17.19 8.69 17.32 8.73 17.35 8.82C17.39 8.96 17.52 8.78 17.49 8.61C17.48 8.5 17.48 8.49 17.56 8.49C17.67 8.49 17.91 8.63 17.98 8.74C18.06 8.87 18.06 9.07 17.97 9.22L17.9 9.34L18 9.32C18.14 9.29 18.28 9.21 18.35 9.1C18.42 8.99 18.43 8.78 18.37 8.66C18.31 8.55 18.31 8.53 18.41 8.57C18.57 8.63 18.65 8.7 18.72 8.83C18.78 8.94 18.78 8.97 18.75 9.08C18.73 9.15 18.69 9.24 18.66 9.28C18.61 9.35 18.61 9.36 18.65 9.36C18.73 9.36 18.88 9.29 18.94 9.23C18.97 9.2 19.01 9.13 19.03 9.07L19.07 8.96L19.12 9.04C19.19 9.16 19.31 9.26 19.47 9.33C19.64 9.4 19.71 9.4 19.62 9.33C19.56 9.29 19.45 8.98 19.49 8.94C19.51 8.92 19.74 9.09 19.99 9.32C20.23 9.53 20.39 9.6 20.61 9.6C20.9 9.6 21.06 9.36 20.94 9.13C20.86 9 20.7 8.98 20.6 9.09C20.55 9.14 20.54 9.19 20.56 9.24C20.58 9.31 20.56 9.32 20.51 9.32C20.43 9.32 20.26 9.22 19.97 8.98C19.52 8.62 18.98 8.31 18.59 8.2C18.34 8.13 17.8 8.1 17.55 8.15C17.27 8.2 16.95 8.35 16.77 8.52C16.45 8.81 16.45 9.2 16.76 9.56L16.85 9.66L16.79 9.75C16.7 9.88 16.71 10.06 16.81 10.19C16.85 10.25 16.9 10.29 16.91 10.29C16.92 10.29 16.93 10.25 16.93 10.21C16.93 10.1 16.99 10.02 17.07 9.99C17.15 9.96 17.2 9.98 17.55 10.11C17.92 10.26 18.54 10.27 19.19 10.14C19.51 10.08 19.89 10.08 20.05 10.14C20.35 10.26 20.42 10.59 20.2 10.83C20.1 10.94 20.01 10.98 19.7 11.06C19.46 11.12 19.41 11.13 18.86 11.12C18.4 11.12 18.23 11.12 18.04 11.16C17.83 11.2 17.71 11.21 17.11 11.19L16.41 11.17L16.49 11.23C16.49 11.23 16.59 11.31 16.62 11.32C16.67 11.35 16.67 11.35 16.59 11.38C16.54 11.4 16.44 11.41 16.36 11.41H16.22L16.2 11.53C16.19 11.6 16.2 11.67 16.2 11.7C16.22 11.74 16.21 11.75 16.17 11.73C16.14 11.72 16.06 11.7 15.98 11.68C15.9 11.66 15.81 11.63 15.76 11.61C15.68 11.57 15.67 11.57 15.64 11.62C15.61 11.66 15.37 11.84 15.34 11.84C15.34 11.84 15.33 11.81 15.32 11.76C15.31 11.71 15.28 11.61 15.24 11.52C15.2 11.43 15.16 11.33 15.15 11.3C15.13 11.25 15.13 11.25 15.11 11.29C15.1 11.31 15.08 11.37 15.07 11.43C15.06 11.49 15.02 11.57 14.99 11.62L14.93 11.71L14.89 11.63C14.85 11.54 14.78 11.45 14.75 11.45C14.75 11.45 14.73 11.48 14.72 11.51C14.7 11.58 14.53 11.78 14.49 11.78C14.47 11.78 14.46 11.72 14.46 11.66C14.46 11.6 14.45 11.54 14.43 11.54C14.41 11.54 14.4 11.56 14.4 11.58C14.4 11.63 14.26 11.79 14.21 11.79C14.19 11.79 14.16 11.81 14.13 11.83C14.08 11.89 14.03 11.88 14.06 11.82C14.07 11.79 14.06 11.72 14.04 11.66L14 11.53C14 11.53 13.94 11.51 13.83 11.55C13.65 11.61 13.6 11.6 13.69 11.53C13.72 11.5 13.77 11.42 13.8 11.34C13.83 11.26 13.87 11.19 13.89 11.18C13.92 11.18 13.92 11.18 13.89 11.23C13.86 11.27 13.84 11.31 13.84 11.34C13.84 11.37 13.82 11.42 13.79 11.46C13.76 11.5 13.75 11.54 13.76 11.55C13.77 11.56 13.83 11.53 13.91 11.49L14.05 11.43V11.49C14.05 11.49 14.07 11.61 14.09 11.68L14.13 11.81L14.22 11.77C14.32 11.73 14.41 11.57 14.41 11.45C14.41 11.39 14.44 11.4 14.46 11.46C14.46 11.48 14.49 11.55 14.51 11.61L14.55 11.73L14.61 11.65C14.61 11.65 14.69 11.53 14.71 11.47C14.74 11.37 14.79 11.33 14.79 11.4C14.79 11.45 14.94 11.64 14.97 11.63C14.98 11.63 15.01 11.55 15.03 11.47C15.07 11.31 15.14 11.19 15.18 11.22C15.2 11.22 15.2 11.25 15.19 11.26C15.18 11.27 15.22 11.38 15.27 11.5L15.38 11.76C15.38 11.76 15.41 11.8 15.52 11.71C15.59 11.65 15.65 11.59 15.65 11.57C15.66 11.54 15.68 11.54 15.74 11.57C15.83 11.62 16.12 11.71 16.14 11.69C16.14 11.69 16.16 11.61 16.16 11.52V11.37L16.25 11.39C16.3 11.39 16.39 11.39 16.47 11.39L16.6 11.37L16.48 11.29C16.42 11.25 16.35 11.19 16.33 11.17C16.31 11.14 16.26 11.12 16.19 11.11C16.01 11.1 15.7 10.92 15.7 10.84C15.7 10.82 15.74 10.85 15.8 10.9C15.92 11.01 16.08 11.07 16.22 11.07H16.33L16.26 10.98C16.26 10.98 16.19 10.84 16.18 10.76C16.17 10.64 16.15 10.62 16.02 10.53C15.94 10.48 15.84 10.4 15.8 10.35L15.73 10.27L15.69 10.37C15.67 10.42 15.64 10.47 15.63 10.47C15.62 10.47 15.58 10.44 15.54 10.4C15.5 10.36 15.46 10.33 15.45 10.33C15.44 10.33 15.41 10.38 15.37 10.44L15.31 10.55L15.26 10.49C15.26 10.49 15.18 10.39 15.13 10.35C15.08 10.31 15.06 10.27 15.08 10.27C15.1 10.27 15.15 10.31 15.21 10.37L15.31 10.47L15.35 10.4C15.35 10.4 15.38 10.29 15.37 10.24C15.35 10.16 15.36 10.16 15.39 10.21C15.41 10.24 15.47 10.3 15.52 10.34L15.61 10.41L15.67 10.3C15.73 10.19 15.73 10.19 15.76 10.25C15.8 10.34 16.08 10.57 16.32 10.7C16.36 10.72 16.34 10.65 16.27 10.49C16.25 10.45 16.24 10.37 16.24 10.32C16.24 10.24 16.22 10.21 16.12 10.14C15.98 10.03 15.93 9.96 15.9 9.79C15.89 9.72 15.86 9.64 15.84 9.62C15.81 9.58 15.81 9.6 15.81 9.73C15.81 9.82 15.81 9.93 15.78 9.97L15.74 10.05L15.71 9.98C15.71 9.98 15.63 9.88 15.56 9.83C15.49 9.78 15.45 9.75 15.46 9.74C15.47 9.73 15.54 9.77 15.61 9.83C15.72 9.92 15.75 9.92 15.76 9.89C15.78 9.85 15.76 9.65 15.72 9.52C15.7 9.45 15.7 9.45 15.79 9.54C15.85 9.6 15.89 9.67 15.91 9.8C15.94 9.96 15.96 9.99 16.11 10.12C16.2 10.2 16.28 10.26 16.29 10.25C16.3 10.24 16.31 10.04 16.32 9.8C16.34 9.33 16.32 9.22 16.2 9.08L16.14 9.01L16.23 8.91C16.35 8.78 16.41 8.68 16.43 8.54L16.45 8.43L16.35 8.53C16.26 8.61 16.22 8.63 16.12 8.63C16.02 8.63 15.98 8.61 15.92 8.54C15.84 8.46 15.7 8.38 15.56 8.34C15.51 8.33 15.49 8.34 15.49 8.36C15.49 8.38 15.46 8.45 15.43 8.52L15.37 8.63L15.24 8.51C15.16 8.43 15.07 8.37 15 8.36C14.82 8.31 14.81 8.32 14.81 8.45C14.81 8.65 14.72 8.68 14.57 8.55C14.45 8.45 14.35 8.43 14.13 8.45L13.96 8.47L13.99 8.55C14.02 8.61 14.01 8.64 13.95 8.71C13.86 8.83 13.74 8.88 13.56 8.88C13.48 8.88 13.37 8.9 13.33 8.92C13.29 8.94 13.18 8.96 13.09 8.97C13 8.98 12.9 8.99 12.88 9C12.84 9.02 12.83 9 12.85 8.91C12.87 8.77 12.77 8.66 12.61 8.66C12.4 8.66 12.3 8.84 12.39 9.08C12.41 9.13 12.42 9.19 12.44 9.24C12.44 9.28 12.54 9.4 12.66 9.52C12.77 9.63 12.88 9.74 12.89 9.77C12.9 9.8 12.96 9.85 13.02 9.88L13.12 9.93V9.83C13.09 9.72 13.12 9.7 13.18 9.78C13.2 9.81 13.26 9.85 13.3 9.88C13.37 9.92 13.38 9.92 13.38 9.88C13.38 9.86 13.39 9.8 13.41 9.76L13.44 9.68L13.5 9.78C13.53 9.84 13.63 9.97 13.72 10.07C13.9 10.27 14 10.49 13.95 10.54C13.93 10.56 13.87 10.56 13.74 10.54C13.64 10.52 13.52 10.51 13.47 10.52C13.37 10.53 13.36 10.52 13.42 10.44C13.49 10.36 13.48 10.35 13.35 10.35C13.2 10.35 12.83 10.28 12.68 10.22C12.54 10.17 12.51 10.18 12.47 10.31L12.39 10.54L12.35 10.67H12.5C12.58 10.65 12.69 10.63 12.74 10.62C12.79 10.61 12.83 10.6 12.84 10.6C12.85 10.6 12.82 10.66 12.79 10.71L12.73 10.81L12.82 10.79C12.87 10.78 12.95 10.75 12.99 10.73C13.07 10.69 13.07 10.7 13.13 10.79C13.2 10.9 13.26 10.9 13.27 10.78C13.28 10.65 13.33 10.67 13.41 10.84C13.49 11 13.57 11.06 13.58 10.96C13.58 10.93 13.63 10.88 13.67 10.85C13.76 10.79 13.83 10.81 13.87 10.9C13.91 11 13.82 11.11 13.55 11.27C13.02 11.59 12.71 12.02 12.62 12.57C12.54 13.07 12.79 13.58 13.29 13.95C13.53 14.13 13.91 14.31 13.89 14.24C13.79 13.94 13.79 13.36 13.89 13.27C13.91 13.26 13.9 13.32 13.88 13.4C13.8 13.73 13.83 13.99 14.05 14.6C14.24 15.15 14.22 15.39 13.94 15.55C13.85 15.6 13.8 15.61 13.56 15.61C13.3 15.61 13.28 15.61 13.19 15.68C13.11 15.74 13.01 15.95 13.01 16.04C13.01 16.09 13.07 16.08 13.18 16.02H13.2ZM17.36 16.01L17.47 15.94L17.54 16.01C17.64 16.1 17.75 16.1 17.84 16.01C17.88 15.97 17.92 15.94 17.92 15.95C17.93 15.97 17.95 15.99 17.96 16.02C17.98 16.06 18.03 16.08 18.11 16.08C18.21 16.08 18.24 16.08 18.28 16.02L18.33 15.95L18.44 16.02C18.73 16.2 18.88 16.02 18.76 15.63C18.69 15.44 18.73 15.33 18.94 15.08C19.03 14.98 19.1 14.87 19.1 14.83C19.1 14.78 19.08 14.77 18.96 14.78C18.85 14.78 18.81 14.78 18.75 14.71C18.65 14.61 18.66 14.48 18.77 14.35L18.86 14.24L18.71 14.14C18.62 14.08 18.47 13.95 18.37 13.84C18.14 13.6 17.91 13.49 17.61 13.46L17.41 13.44V13.59C17.41 13.78 17.5 13.96 17.75 14.27C18.03 14.62 18.05 14.68 18.07 15.14V15.53L18 15.61C17.93 15.68 17.89 15.69 17.65 15.7C17.42 15.71 17.37 15.72 17.31 15.78C17.22 15.86 17.19 15.9 17.17 16C17.15 16.06 17.17 16.08 17.21 16.08C17.24 16.08 17.31 16.05 17.37 16.01H17.36ZM11.3 14.88C11.3 14.88 11.32 14.82 11.43 14.8L11.56 14.78L11.47 14.71C11.36 14.63 11.35 14.56 11.45 14.56C11.54 14.56 11.7 14.47 11.72 14.4C11.73 14.37 11.72 14.32 11.7 14.3C11.65 14.24 11.55 14.25 11.53 14.32C11.51 14.39 11.48 14.39 11.4 14.32C11.29 14.22 11.29 14 11.4 13.88C11.45 13.82 11.45 13.82 11.39 13.76C11.32 13.69 11.27 13.57 11.3 13.54C11.31 13.54 11.37 13.54 11.42 13.56C11.5 13.59 11.53 13.59 11.57 13.56C11.67 13.48 11.57 13.38 11.4 13.4C11.33 13.4 11.31 13.4 11.3 13.37C11.3 13.34 11.24 13.31 11.17 13.3C11.05 13.27 11.05 13.27 11.05 13.35C11.05 13.44 11 13.45 10.91 13.4C10.83 13.36 10.76 13.4 10.76 13.47C10.76 13.54 10.84 13.58 10.97 13.57C11.08 13.57 11.08 13.64 10.97 13.75L10.9 13.83L10.96 13.91C11.04 14.03 11.04 14.23 10.95 14.32L10.88 14.4L10.83 14.34C10.76 14.25 10.67 14.26 10.65 14.35C10.63 14.41 10.65 14.44 10.72 14.5C10.77 14.54 10.85 14.58 10.89 14.58C10.99 14.58 10.99 14.66 10.89 14.73L10.81 14.79L10.94 14.81C11.01 14.82 11.07 14.84 11.07 14.85C11.07 14.9 11.1 15.06 11.19 15.06C11.26 15.06 11.31 14.95 11.31 14.88H11.3ZM12.9 14.31C13.01 14.27 13.26 14.06 13.26 14.01C13.26 13.99 13.19 13.92 13.11 13.85C12.93 13.69 12.74 13.43 12.69 13.28C12.66 13.2 12.54 13.06 12.19 12.73L11.72 12.29L11.59 12.32C11.52 12.34 11.43 12.35 11.39 12.35C11.33 12.35 11.33 12.35 11.41 12.42L11.5 12.49L11.62 12.42C11.74 12.36 11.74 12.35 11.76 12.41C11.76 12.44 11.75 12.49 11.72 12.53C11.69 12.57 11.67 12.61 11.68 12.63C11.69 12.65 11.66 12.68 11.61 12.7C11.52 12.74 11.46 12.88 11.53 12.88C11.59 12.88 11.73 12.71 11.71 12.66C11.71 12.63 11.71 12.6 11.71 12.59C11.76 12.56 11.76 12.69 11.71 12.75C11.68 12.79 11.66 12.83 11.67 12.85C11.68 12.87 11.65 12.9 11.6 12.92C11.51 12.96 11.45 13.1 11.52 13.1C11.59 13.1 11.72 12.94 11.71 12.88C11.71 12.85 11.71 12.82 11.71 12.81C11.75 12.79 11.77 12.89 11.74 12.94C11.72 12.97 11.72 13 11.74 13.03C11.77 13.08 11.74 13.18 11.68 13.22C11.66 13.23 11.68 13.26 11.73 13.3C11.81 13.36 11.81 13.37 11.81 13.64C11.81 13.87 11.81 13.92 11.86 13.96C11.91 14 11.91 14 11.91 13.96C11.91 13.91 11.99 13.86 12.06 13.86C12.08 13.86 12.21 13.96 12.34 14.09C12.47 14.22 12.61 14.33 12.65 14.33L12.74 14.35C12.74 14.35 12.81 14.33 12.87 14.31H12.9ZM11.46 13.21C11.46 13.14 11.31 13.06 11.12 13.04C10.97 13.02 10.97 13.02 10.97 13.1C10.97 13.16 10.99 13.18 11.1 13.23C11.26 13.3 11.46 13.29 11.46 13.22V13.21ZM11.63 13.21C11.71 13.14 11.74 13.06 11.7 13.06C11.65 13.06 11.51 13.18 11.51 13.23C11.51 13.3 11.54 13.3 11.63 13.21ZM11.47 12.99C11.47 12.99 11.45 12.92 11.37 12.89C11.2 12.82 11 12.78 10.95 12.82C10.86 12.89 10.92 12.98 11.06 13C11.12 13 11.2 13.02 11.24 13.04C11.35 13.08 11.46 13.06 11.47 13V12.99ZM11.47 12.77C11.47 12.71 11.44 12.69 11.13 12.58C10.9 12.5 10.79 12.54 10.87 12.68C10.9 12.73 10.94 12.75 11.04 12.76C11.11 12.77 11.21 12.79 11.26 12.81C11.39 12.85 11.47 12.84 11.48 12.77H11.47ZM11.63 12.57C11.63 12.57 11.72 12.47 11.72 12.45C11.72 12.38 11.53 12.5 11.51 12.58C11.48 12.68 11.53 12.67 11.63 12.57ZM11.47 12.55C11.48 12.48 11.37 12.42 11.14 12.38C10.98 12.35 10.9 12.37 10.92 12.44C10.92 12.48 10.98 12.51 11.14 12.56C11.39 12.64 11.46 12.63 11.48 12.56L11.47 12.55ZM11.69 12.24C11.98 12.12 12 11.8 11.73 11.72C11.62 11.69 11.55 11.7 11.5 11.78C11.47 11.84 11.49 11.94 11.53 11.94C11.55 11.94 11.56 11.96 11.56 11.98C11.56 12.09 11.12 12.14 10.94 12.05C10.88 12.02 10.85 11.94 10.9 11.94C10.94 11.94 10.97 11.86 10.95 11.8C10.92 11.72 10.84 11.69 10.72 11.72C10.45 11.79 10.46 12.1 10.73 12.23C10.95 12.34 11.45 12.34 11.68 12.24H11.69ZM11.51 12C11.51 12 11.51 11.96 11.49 11.94C11.43 11.89 11.43 11.82 11.49 11.74C11.54 11.68 11.55 11.59 11.56 10.69C11.59 9.13 11.71 7.96 11.86 7.68C11.92 7.57 11.91 7.57 11.75 7.68C11.54 7.82 11.39 8 11.25 8.25C10.99 8.73 10.89 9.38 10.89 10.77C10.89 11.56 10.89 11.66 10.94 11.74C10.98 11.81 10.99 11.84 10.96 11.91C10.94 11.96 10.93 12.01 10.94 12.01C11 12.06 11.43 12.05 11.49 11.99L11.51 12ZM13.92 10.52C13.92 10.52 13.91 10.44 13.88 10.37C13.83 10.26 13.81 10.24 13.73 10.24C13.5 10.24 13.13 10.14 12.74 9.97C12.52 9.87 12.44 9.85 12.42 9.88C12.35 9.94 12.46 10.09 12.64 10.17C12.79 10.24 13.23 10.32 13.42 10.32C13.53 10.32 13.54 10.32 13.47 10.42L13.42 10.49H13.55C13.62 10.49 13.72 10.51 13.77 10.52C13.9 10.55 13.9 10.55 13.92 10.52Z" fill="#FFBE29"/>
<path d="M15.27 11.22C15.27 11.22 15.15 11.07 15.03 11C14.93 10.94 14.92 10.94 14.92 10.99C14.92 11.06 14.86 11.23 14.83 11.23C14.82 11.23 14.8 11.2 14.78 11.16C14.76 11.12 14.72 11.04 14.68 10.98L14.6 10.88L14.53 10.98C14.47 11.07 14.36 11.16 14.32 11.16C14.31 11.16 14.31 11.11 14.32 11.05C14.32 10.99 14.32 10.94 14.3 10.93C14.28 10.92 14.27 10.93 14.27 10.93C14.27 10.96 14.12 11.13 14.09 11.13C14.08 11.13 14.06 11.08 14.05 11.03L14.02 10.83C14.02 10.78 14.03 10.81 14.07 10.91L14.13 11.09L14.2 10.98C14.24 10.92 14.27 10.86 14.27 10.84C14.27 10.82 14.28 10.81 14.3 10.82C14.32 10.83 14.34 10.9 14.35 10.98L14.37 11.12L14.45 11.04C14.45 11.04 14.54 10.93 14.56 10.91C14.59 10.86 14.59 10.86 14.66 10.91C14.7 10.94 14.75 11.01 14.78 11.07C14.81 11.13 14.84 11.17 14.85 11.17C14.86 11.17 14.87 11.11 14.88 11.04L14.9 10.91C14.9 10.91 15.13 11.04 15.22 11.11C15.27 11.16 15.33 11.19 15.33 11.18C15.33 11.17 15.35 11.1 15.35 11.03C15.35 10.91 15.34 10.88 15.26 10.81C15.17 10.74 15.17 10.73 15.14 10.79C15.1 10.86 15.05 10.86 15.05 10.79C15.05 10.74 14.89 10.54 14.85 10.54C14.84 10.54 14.81 10.58 14.77 10.64C14.73 10.7 14.71 10.74 14.7 10.74C14.66 10.74 14.43 10.49 14.43 10.45C14.43 10.41 14.45 10.42 14.49 10.48C14.52 10.53 14.58 10.59 14.62 10.63C14.71 10.71 14.74 10.69 14.78 10.54C14.78 10.5 14.81 10.46 14.82 10.46C14.86 10.46 15.06 10.67 15.08 10.73L15.11 10.8L15.13 10.72C15.16 10.63 15.18 10.62 15.23 10.71C15.25 10.75 15.33 10.82 15.42 10.87L15.58 10.97L15.61 10.87C15.63 10.82 15.65 10.78 15.66 10.8C15.68 10.82 15.63 10.99 15.6 11.02C15.6 11.02 15.54 11 15.49 10.96L15.38 10.89V11.02C15.38 11.09 15.38 11.18 15.36 11.22C15.34 11.29 15.29 11.3 15.29 11.25L15.27 11.22ZM14.48 10.15C14.29 10 14.26 9.96001 14.27 9.89001V9.81001L14.29 9.88001C14.29 9.92001 14.35 9.99001 14.41 10.04L14.52 10.12L14.59 10.04C14.59 10.04 14.66 9.95001 14.66 9.93001C14.66 9.88001 14.67 9.89001 14.8 9.99001C14.91 10.09 14.92 10.09 14.93 10.02C14.93 9.99001 14.93 9.92001 14.93 9.87001C14.89 9.75001 14.9 9.73001 14.96 9.80001C14.99 9.84001 15.03 9.89001 15.06 9.92001C15.11 9.97001 15.11 9.97001 15.13 9.91001C15.14 9.88001 15.15 9.81001 15.15 9.77001V9.69001L15.25 9.80001C15.35 9.91001 15.35 9.91001 15.38 9.86001C15.4 9.83001 15.41 9.76001 15.41 9.70001C15.41 9.63001 15.41 9.61001 15.44 9.64001C15.47 9.69001 15.44 9.82001 15.39 9.93001L15.35 10.01L15.29 9.92001C15.22 9.81001 15.19 9.81001 15.15 9.93001C15.11 10.04 15.08 10.05 15.04 9.96001C15.01 9.90001 15.01 9.91001 14.99 10.03L14.97 10.16L14.84 10.06L14.71 9.96001L14.65 10.02C14.65 10.02 14.59 10.1 14.59 10.12C14.59 10.16 14.56 10.16 14.51 10.12L14.48 10.15ZM16.16 9.58001C16.09 9.52001 16.04 9.46001 16.05 9.45001C16.06 9.44001 16.07 9.44001 16.08 9.45001C16.09 9.46001 16.14 9.51001 16.2 9.58001C16.35 9.73001 16.32 9.73001 16.15 9.58001H16.16ZM13.93 9.36001C13.87 9.28001 13.87 9.22001 13.95 9.13001C14 9.07001 14.03 9.06001 14.13 9.07001C14.19 9.07001 14.32 9.13001 14.42 9.19001C14.54 9.26001 14.66 9.30001 14.75 9.31001C14.83 9.31001 14.9 9.32001 14.9 9.31001C14.9 9.30001 14.87 9.25001 14.83 9.19001C14.73 9.05001 14.74 9.03001 14.85 9.12001C14.96 9.21001 15.1 9.23001 15.4 9.22001H15.55L15.47 9.13001C15.35 9.02001 15.39 9.01001 15.52 9.12001C15.64 9.22001 15.64 9.23001 15.38 9.26001C15.27 9.27001 15.15 9.26001 15.05 9.24001C14.9 9.20001 14.9 9.20001 14.93 9.25001C14.95 9.28001 14.97 9.30001 14.99 9.30001C15.01 9.30001 15.02 9.31001 15.02 9.33001C15.02 9.38001 14.7 9.33001 14.55 9.26001C14.2 9.09001 14.16 9.07001 14.08 9.10001C14.03 9.11001 13.99 9.16001 13.97 9.20001C13.92 9.34001 14.12 9.45001 14.2 9.32001C14.22 9.28001 14.22 9.26001 14.18 9.22001C14.12 9.16001 14.13 9.15001 14.21 9.18001C14.27 9.20001 14.27 9.33001 14.22 9.38001C14.16 9.43001 14.03 9.42001 13.98 9.35001L13.93 9.36001ZM15.29 9.02001C15.29 9.02001 15.29 8.97001 15.48 8.97001C15.72 8.97001 15.87 8.93001 16.04 8.82001C16.18 8.73001 16.22 8.75001 16.08 8.84001C15.96 8.92001 15.77 8.98001 15.59 9.00001C15.5 9.00001 15.4 9.02001 15.37 9.03001C15.34 9.04001 15.3 9.03001 15.29 9.03001V9.02001Z" fill="black"/>
<path d="M21.32 16.54C21.32 16.54 21.45 16.82 21.6 16.93C21.82 17.1 22.26 17.08 22.45 17.28C22.68 17.51 22.43 17.81 22.43 17.84V18C22.43 18 22.29 18 22.23 18.01C22.13 18.03 22.1 18.11 21.92 18.09C21.47 18.06 21.49 17.64 21.46 17.29C21.44 17.15 21.38 16.98 21.36 16.84C21.33 16.72 21.33 16.54 21.33 16.54H21.32Z" fill="#FFBE29"/>
<path d="M21.95 18.11C21.95 18.11 21.93 18.11 21.91 18.11C21.48 18.08 21.46 17.71 21.44 17.38C21.44 17.35 21.44 17.32 21.44 17.29C21.43 17.21 21.4 17.11 21.38 17.02C21.36 16.96 21.35 16.9 21.34 16.85C21.31 16.73 21.31 16.55 21.31 16.55H21.35C21.35 16.55 21.48 16.81 21.62 16.92C21.72 16.99 21.87 17.03 22.01 17.07C22.18 17.11 22.36 17.16 22.47 17.27C22.67 17.47 22.53 17.72 22.47 17.81C22.47 17.82 22.46 17.83 22.45 17.84V18.02C22.45 18.02 22.3 18.02 22.24 18.03C22.21 18.03 22.18 18.05 22.15 18.06C22.1 18.08 22.05 18.11 21.95 18.11ZM21.34 16.63C21.34 16.69 21.35 16.77 21.37 16.83C21.38 16.88 21.4 16.94 21.41 17C21.43 17.1 21.46 17.19 21.47 17.28C21.47 17.31 21.47 17.35 21.47 17.38C21.49 17.71 21.51 18.04 21.9 18.07C22.01 18.07 22.06 18.05 22.11 18.02C22.14 18 22.17 17.99 22.21 17.98C22.26 17.98 22.36 17.97 22.41 17.97V17.83C22.41 17.83 22.41 17.81 22.42 17.78C22.47 17.68 22.6 17.46 22.42 17.28C22.32 17.18 22.15 17.14 21.98 17.09C21.83 17.05 21.68 17.01 21.57 16.93C21.47 16.85 21.38 16.71 21.33 16.62L21.34 16.63Z" fill="black"/>
<path d="M21.32 7.46C21.32 7.46 21.45 7.18 21.6 7.07C21.82 6.9 22.26 6.92 22.45 6.72C22.68 6.49 22.43 6.19 22.43 6.16V6C22.43 6 22.29 6 22.23 5.99C22.13 5.97 22.1 5.89 21.92 5.91C21.47 5.94 21.49 6.36 21.46 6.71C21.44 6.85 21.38 7.02 21.36 7.16C21.33 7.28 21.33 7.46 21.33 7.46H21.32ZM10.05 7.46C10.05 7.46 9.92 7.18 9.77 7.07C9.55 6.9 9.11 6.92 8.92 6.72C8.69 6.49 8.94 6.19 8.94 6.16V6C8.94 6 9.08 6 9.14 5.99C9.24 5.97 9.27 5.89 9.45 5.91C9.9 5.94 9.88 6.36 9.91 6.71C9.93 6.85 9.99 7.02 10.02 7.16C10.05 7.28 10.05 7.46 10.05 7.46Z" fill="#FFBE29"/>
<path d="M21.27 7.51L21.29 7.46C21.29 7.46 21.29 7.27 21.32 7.16C21.33 7.11 21.35 7.05 21.36 6.99C21.38 6.89 21.41 6.8 21.42 6.71C21.42 6.68 21.42 6.65 21.42 6.62C21.44 6.29 21.46 5.92 21.89 5.89C22.01 5.89 22.07 5.91 22.12 5.94C22.15 5.96 22.17 5.97 22.21 5.97C22.27 5.97 22.42 5.98 22.42 5.98H22.44L22.43 6.16C22.43 6.16 22.43 6.18 22.45 6.19C22.5 6.28 22.64 6.54 22.45 6.74C22.35 6.85 22.17 6.89 21.99 6.94C21.84 6.98 21.69 7.02 21.6 7.09C21.47 7.19 21.35 7.43 21.33 7.47L21.26 7.51H21.27ZM21.95 5.93C21.95 5.93 21.93 5.93 21.92 5.93C21.53 5.96 21.51 6.29 21.49 6.62C21.49 6.65 21.49 6.68 21.49 6.72C21.48 6.81 21.45 6.91 21.43 7C21.41 7.06 21.4 7.12 21.39 7.17C21.38 7.23 21.37 7.31 21.36 7.37C21.41 7.28 21.5 7.13 21.6 7.06C21.7 6.98 21.86 6.94 22.01 6.9C22.18 6.86 22.35 6.81 22.45 6.71C22.62 6.53 22.5 6.31 22.45 6.21C22.43 6.18 22.43 6.17 22.43 6.16V6.02C22.43 6.02 22.29 6.02 22.24 6.01C22.2 6.01 22.17 5.99 22.14 5.97C22.1 5.95 22.05 5.92 21.96 5.92L21.95 5.93ZM10.03 7.47C10.03 7.47 9.9 7.2 9.76 7.09C9.66 7.01 9.51 6.98 9.37 6.94C9.2 6.9 9.02 6.85 8.91 6.74C8.71 6.54 8.85 6.29 8.91 6.19C8.91 6.18 8.92 6.17 8.93 6.16V5.98C8.93 5.98 9.08 5.98 9.14 5.97C9.17 5.97 9.2 5.95 9.23 5.94C9.28 5.91 9.34 5.88 9.46 5.89C9.89 5.92 9.91 6.29 9.93 6.62C9.93 6.65 9.93 6.68 9.93 6.71C9.94 6.79 9.97 6.89 9.99 6.98C10.01 7.04 10.02 7.1 10.03 7.15C10.06 7.27 10.06 7.45 10.06 7.46H10.02L10.03 7.47ZM8.94 6.03V6.17C8.94 6.17 8.94 6.19 8.93 6.22C8.88 6.32 8.75 6.54 8.93 6.72C9.03 6.82 9.2 6.86 9.37 6.91C9.52 6.95 9.68 6.99 9.78 7.07C9.88 7.15 9.97 7.29 10.02 7.38C10.02 7.32 10.01 7.24 9.99 7.18C9.98 7.13 9.96 7.07 9.95 7.01C9.93 6.91 9.9 6.81 9.89 6.73C9.89 6.7 9.89 6.66 9.89 6.63C9.87 6.3 9.85 5.97 9.46 5.94C9.35 5.94 9.3 5.96 9.25 5.99C9.22 6.01 9.19 6.02 9.15 6.03C9.1 6.03 9 6.04 8.95 6.04L8.94 6.03Z" fill="black"/>
</svg>
