<svg width="24" height="24" viewBox="0 0 24 24" fill="none" xmlns="http://www.w3.org/2000/svg">
<path d="M0 4H24V20H0V4Z" fill="#006600"/>
<path d="M0 4H24V15.43H0V4Z" fill="white"/>
<path d="M0 4H24V8.57H0V4Z" fill="#CC0000"/>
<path d="M11.42 11.8C11.49 11.68 11.65 11.63 11.77 11.71C11.85 11.75 11.9 11.84 11.9 11.93V12.96H12.09V11.93C12.09 11.79 12.21 11.67 12.36 11.68C12.45 11.68 12.53 11.73 12.58 11.81C12.69 11.49 12.51 11.14 12.19 11.04C11.87 10.93 11.52 11.11 11.42 11.43C11.38 11.55 11.38 11.69 11.42 11.81" fill="#F8C300"/>
<path d="M11.56 11.53C11.73 11.49 11.91 11.57 12 11.73C12.09 11.58 12.27 11.5 12.44 11.53C12.41 11.29 12.18 11.12 11.94 11.15C11.74 11.18 11.59 11.33 11.56 11.53Z" fill="white"/>
<path d="M11.9 12.54C11.86 12.97 11.48 13.29 11.05 13.25C10.88 13.23 10.71 13.16 10.58 13.04C10.41 13.46 9.94001 13.66 9.52001 13.5C9.46001 13.48 9.40001 13.44 9.35001 13.4C9.43001 14.15 10.56 14 10.64 13.27C11 13.89 11.78 13.71 12 12.95L11.9 12.54Z" fill="#F8C300"/>
<path d="M12.1 12.54C12.14 12.97 12.52 13.29 12.95 13.25C13.12 13.23 13.29 13.16 13.42 13.04C13.59 13.46 14.06 13.66 14.48 13.5C14.54 13.48 14.6 13.44 14.65 13.4C14.57 14.15 13.44 14 13.36 13.27C13 13.89 12.22 13.71 12 12.95L12.1 12.54Z" fill="#F8C300"/>
<path d="M11.15 13.88C10.99 14.22 10.68 14.28 10.4 14C10.4 14 10.51 13.92 10.63 13.9C10.61 13.81 10.65 13.67 10.72 13.6C10.79 13.65 10.88 13.74 10.91 13.85C11.08 13.83 11.16 13.88 11.16 13.88H11.15Z" fill="#F8C300"/>
<path d="M12.38 13.84C12.17 14.15 11.85 14.16 11.62 13.84C11.62 13.84 11.74 13.78 11.86 13.78C11.86 13.68 11.92 13.56 11.99 13.5C12.05 13.56 12.13 13.66 12.13 13.77C12.3 13.77 12.37 13.84 12.37 13.84H12.38Z" fill="#F8C300"/>
<path d="M13.61 14.01C13.35 14.28 13.03 14.24 12.86 13.89C12.86 13.89 12.99 13.85 13.11 13.87C13.11 13.77 13.2 13.66 13.29 13.62C13.34 13.69 13.4 13.8 13.39 13.91C13.55 13.94 13.61 14.01 13.61 14.01Z" fill="#F8C300"/>
<path d="M13.96 14.8C12.68 14.42 11.32 14.42 10.04 14.8L9.94998 14.48C11.29 14.08 12.72 14.08 14.06 14.48L13.97 14.8H13.96Z" fill="#F8C300"/>
<path d="M11.51 9.56H12.49L11.69 10.14L11.99 9.2L12.29 10.14L11.49 9.56H11.51Z" fill="#F8C300"/>
<path d="M10.06 9.94H11.04L10.24 10.52L10.54 9.58L10.84 10.52L10.04 9.94H10.06Z" fill="#F8C300"/>
<path d="M8.99998 11.01H9.97998L9.17998 11.59L9.47998 10.65L9.77998 11.59L8.97998 11.01H8.99998Z" fill="#F8C300"/>
<path d="M8.61 12.45H9.59L8.79 13.03L9.09 12.09L9.39 13.03L8.59 12.45H8.61Z" fill="#F8C300"/>
<path d="M13.94 9.94H12.96L13.76 10.52L13.46 9.58L13.16 10.52L13.96 9.94H13.94Z" fill="#F8C300"/>
<path d="M15 11.01H14.02L14.82 11.59L14.52 10.65L14.22 11.59L15.02 11.01H15Z" fill="#F8C300"/>
<path d="M15.39 12.45H14.41L15.21 13.03L14.91 12.09L14.61 13.03L15.41 12.45H15.39Z" fill="#F8C300"/>
</svg>
