<svg width="24" height="24" viewBox="0 0 24 24" fill="none" xmlns="http://www.w3.org/2000/svg">
<path d="M24 4H0V20H24V4Z" fill="#E70013"/>
<path d="M15.81 12C15.81 14.11 14.1 15.81 12 15.81C9.9 15.81 8.19 14.1 8.19 12C8.19 9.9 9.9 8.19 12 8.19C14.1 8.19 15.81 9.9 15.81 12Z" fill="white"/>
<path d="M11.22 13.16C10.65 12.46 10.69 11.45 11.32 10.82C11.64 10.49 12.04 10.31 12.5 10.29C13.08 10.27 13.55 10.49 13.94 10.91C13.53 10.14 12.57 9.61999 11.54 9.85999C10.48 10.11 9.75999 11.09 9.84999 12.17C9.92999 13.24 10.76 14.07 11.79 14.19C12.17 14.23 12.54 14.19 12.89 14.04C13.23 13.9 13.72 13.52 13.76 13.37C12.96 14.07 11.81 13.87 11.24 13.16H11.22Z" fill="#E70013"/>
<path d="M14.03 11.7C14.03 11.7 14.05 11.67 14.08 11.64C14.04 11.64 14.02 11.65 14.01 11.65C13.79 11.7 13.58 11.75 13.36 11.81C13.32 11.81 13.3 11.81 13.28 11.78C13.16 11.59 13.04 11.4 12.93 11.2C12.93 11.18 12.91 11.17 12.9 11.15C12.9 11.15 12.9 11.15 12.89 11.15C12.89 11.17 12.89 11.19 12.89 11.21C12.87 11.43 12.85 11.65 12.84 11.87C12.84 11.91 12.83 11.94 12.78 11.94C12.72 11.94 12.67 11.97 12.61 11.98C12.43 12.02 12.26 12.07 12.08 12.11C12.08 12.11 12.08 12.11 12.08 12.12C12.1 12.12 12.11 12.14 12.13 12.14C12.33 12.22 12.54 12.31 12.74 12.39C12.79 12.41 12.8 12.43 12.79 12.48C12.77 12.7 12.75 12.92 12.74 13.14C12.74 13.16 12.74 13.18 12.74 13.21C12.76 13.18 12.78 13.17 12.79 13.16C12.94 12.99 13.08 12.82 13.23 12.64C13.26 12.61 13.28 12.6 13.31 12.62C13.49 12.7 13.67 12.77 13.85 12.84C13.89 12.86 13.94 12.88 13.98 12.89C13.98 12.86 13.97 12.85 13.96 12.83C13.84 12.64 13.72 12.45 13.6 12.25C13.58 12.22 13.58 12.2 13.6 12.17C13.75 12 13.89 11.83 14.04 11.66L14.03 11.7Z" fill="#E70013"/>
</svg>
