<svg width="24" height="24" viewBox="0 0 24 24" fill="none" xmlns="http://www.w3.org/2000/svg">
<path d="M24 4H0V20H24V4Z" fill="#00843D"/>
<path d="M11.92 5.77C12.63 6.07 13.13 6.78 13.13 7.6C13.13 8.7 12.24 9.59 11.14 9.59C10.65 9.59 10.2 9.41 9.85 9.12C10.06 9.21 10.3 9.27 10.55 9.28C11.65 9.33 12.58 8.48 12.63 7.38C12.66 6.74 12.38 6.16 11.93 5.78L11.92 5.77Z" fill="white"/>
<path d="M10.02 7.23001L10.25 6.54001L9.66 6.97001H10.39L9.8 6.54001L10.03 7.23001H10.02Z" fill="white"/>
<path d="M10.02 6.21L10.25 5.52L9.66 5.95H10.39L9.8 5.52L10.03 6.21H10.02Z" fill="white"/>
<path d="M11.03 6.74L11.26 6.05L10.67 6.48H11.4L10.81 6.05L11.04 6.74H11.03Z" fill="white"/>
<path d="M9 7.73001L9.23 7.04001L8.64 7.47001H9.37L8.78 7.04001L9.01 7.73001H9Z" fill="white"/>
<path d="M10.02 8.26001L10.25 7.57001L9.66 8.00001H10.39L9.8 7.57001L10.03 8.26001H10.02Z" fill="white"/>
<path d="M7.2 4H2.88V20H7.2V4Z" fill="#D22630"/>
<path d="M2.88 5.85001V6.01001L3.12 6.24001L3.04 6.32001L3.21 6.48001L3.13 6.55001V6.45001H2.98V6.57001L3.31 6.88001H3.48L3.5 6.77001H3.4L3.51 6.67001L3.78 6.91001L3.51 7.15001L3.4 7.05001H3.5L3.48 6.94001H3.31L2.98 7.25001V7.37001H3.13V7.27001L3.21 7.34001L3.04 7.50001L3.12 7.58001L2.88 7.81001V7.97001L3.29 7.59001L3.21 7.51001L3.38 7.35001L3.23 7.21001L3.33 7.12001L3.52 7.30001L3.94 6.92001L3.52 6.54001L3.33 6.72001L3.23 6.63001L3.38 6.49001L3.21 6.33001L3.29 6.25001L2.88 5.87001V5.85001ZM2.88 6.61001V7.20001L2.98 7.10001V6.99001H3.08L3.16 6.91001L3.08 6.83001H2.98V6.71001L2.88 6.61001ZM3.58 6.82001V6.90001V6.98001L3.67 6.90001L3.58 6.82001Z" fill="#383739"/>
<path d="M2.88 5.87V5.99L3.14 6.23L3.06 6.31L3.23 6.47L3.13 6.57V6.45H3V6.55L3.33 6.86H3.48L3.5 6.77H3.39L3.53 6.64L3.81 6.9L3.53 7.16L3.39 7.03H3.5L3.48 6.94H3.33L3 7.25V7.35H3.13V7.23L3.23 7.33L3.06 7.49L3.14 7.57L2.88 7.81V7.93L3.27 7.56L3.19 7.48L3.36 7.32L3.21 7.18L3.33 7.07L3.52 7.25L3.92 6.88L3.52 6.51L3.33 6.69L3.21 6.58L3.36 6.44L3.19 6.28L3.27 6.2L2.88 5.83V5.87ZM2.88 6.63V7.19L2.96 7.11V6.99H3.07L3.14 6.92L3.07 6.85H2.96V6.73L2.88 6.65V6.63ZM3.59 6.85V6.91V6.97L3.65 6.91L3.59 6.85Z" fill="#FFC72C"/>
<path d="M2.88 8.86V9.02L3.12 9.25L3.04 9.33L3.21 9.49L3.13 9.56V9.46H2.98V9.58L3.31 9.89H3.48L3.5 9.78H3.4L3.51 9.68L3.78 9.92L3.51 10.16L3.4 10.06H3.5L3.48 9.95H3.31L2.98 10.26V10.38H3.13V10.28L3.21 10.35L3.04 10.51L3.12 10.59L2.88 10.82V10.98L3.29 10.6L3.21 10.52L3.38 10.36L3.23 10.22L3.33 10.13L3.52 10.31L3.94 9.93L3.52 9.55L3.33 9.73L3.23 9.64L3.38 9.5L3.21 9.34L3.29 9.26L2.88 8.88V8.86ZM2.88 9.62V10.21L2.98 10.11V10H3.08L3.16 9.92L3.08 9.84H2.98V9.72L2.88 9.62ZM3.58 9.83V9.91V9.99L3.67 9.91L3.58 9.83Z" fill="#383739"/>
<path d="M2.88 8.88V9L3.14 9.24L3.06 9.32L3.23 9.48L3.13 9.58V9.46H3V9.56L3.33 9.87H3.48L3.5 9.78H3.39L3.53 9.65L3.81 9.91L3.53 10.17L3.39 10.04H3.5L3.48 9.95H3.33L3 10.26V10.36H3.13V10.24L3.23 10.34L3.06 10.5L3.14 10.58L2.88 10.82V10.94L3.27 10.57L3.19 10.49L3.36 10.33L3.21 10.19L3.33 10.08L3.52 10.26L3.92 9.89L3.52 9.52L3.33 9.7L3.21 9.59L3.36 9.45L3.19 9.29L3.27 9.21L2.88 8.84V8.88ZM2.88 9.64V10.2L2.96 10.12V10H3.07L3.14 9.93L3.07 9.86H2.96V9.74L2.88 9.66V9.64ZM3.59 9.85V9.91V9.97L3.65 9.91L3.59 9.85Z" fill="#FFC72C"/>
<path d="M2.88 11.87V12.03L3.12 12.26L3.04 12.34L3.21 12.5L3.13 12.57V12.47H2.98V12.59L3.31 12.9H3.48L3.5 12.79H3.4L3.51 12.69L3.78 12.93L3.51 13.17L3.4 13.07H3.5L3.48 12.96H3.31L2.98 13.27V13.39H3.13V13.29L3.21 13.36L3.04 13.52L3.12 13.6L2.88 13.83V13.99L3.29 13.61L3.21 13.53L3.38 13.37L3.23 13.23L3.33 13.14L3.52 13.32L3.94 12.94L3.52 12.56L3.33 12.74L3.23 12.65L3.38 12.51L3.21 12.35L3.29 12.27L2.88 11.89V11.87ZM2.88 12.63V13.22L2.98 13.12V13.01H3.08L3.16 12.93L3.08 12.85H2.98V12.73L2.88 12.63ZM3.58 12.84V12.92V13L3.67 12.92L3.58 12.84Z" fill="#383739"/>
<path d="M2.88 11.88V12L3.14 12.24L3.06 12.32L3.23 12.48L3.13 12.58V12.46H3V12.56L3.33 12.87H3.48L3.5 12.78H3.39L3.53 12.65L3.81 12.91L3.53 13.17L3.39 13.04H3.5L3.48 12.95H3.33L3 13.26V13.36H3.13V13.24L3.23 13.34L3.06 13.5L3.14 13.58L2.88 13.82V13.94L3.27 13.57L3.19 13.49L3.36 13.33L3.21 13.19L3.33 13.08L3.52 13.26L3.92 12.89L3.52 12.52L3.33 12.7L3.21 12.59L3.36 12.45L3.19 12.29L3.27 12.21L2.88 11.84V11.88ZM2.88 12.65V13.21L2.96 13.13V13.01H3.07L3.14 12.94L3.07 12.87H2.96V12.75L2.88 12.67V12.65ZM3.59 12.86V12.92V12.98L3.65 12.92L3.59 12.86Z" fill="#FFC72C"/>
<path d="M2.88 14.88V15.04L3.12 15.27L3.04 15.35L3.21 15.51L3.13 15.58V15.48H2.98V15.6L3.31 15.91H3.48L3.5 15.8H3.4L3.51 15.7L3.78 15.94L3.51 16.18L3.4 16.08H3.5L3.48 15.97H3.31L2.98 16.28V16.4H3.13V16.3L3.21 16.37L3.04 16.53L3.12 16.61L2.88 16.84V17L3.29 16.62L3.21 16.54L3.38 16.38L3.23 16.24L3.33 16.15L3.52 16.33L3.94 15.95L3.52 15.57L3.33 15.75L3.23 15.66L3.38 15.52L3.21 15.36L3.29 15.28L2.88 14.9V14.88ZM2.88 15.64V16.23L2.98 16.13V16.02H3.08L3.16 15.94L3.08 15.86H2.98V15.74L2.88 15.64ZM3.58 15.85V15.93V16.01L3.67 15.93L3.58 15.85Z" fill="#383739"/>
<path d="M2.88 14.89V15.01L3.14 15.25L3.06 15.33L3.23 15.49L3.13 15.59V15.47H3V15.57L3.33 15.88H3.48L3.5 15.79H3.39L3.53 15.66L3.81 15.92L3.53 16.18L3.39 16.05H3.5L3.48 15.96H3.33L3 16.27V16.37H3.13V16.25L3.23 16.35L3.06 16.51L3.14 16.59L2.88 16.83V16.95L3.27 16.58L3.19 16.5L3.36 16.34L3.21 16.2L3.33 16.09L3.52 16.27L3.92 15.9L3.52 15.53L3.33 15.71L3.21 15.6L3.36 15.46L3.19 15.3L3.27 15.22L2.88 14.85V14.89ZM2.88 15.65V16.21L2.96 16.13V16.01H3.07L3.14 15.94L3.07 15.87H2.96V15.75L2.88 15.67V15.65ZM3.59 15.87V15.93V15.99L3.65 15.93L3.59 15.87Z" fill="#FFC72C"/>
<path d="M7.2 5.85001V6.01001L6.96 6.24001L7.04 6.32001L6.87 6.48001L6.95 6.55001V6.45001H7.1V6.57001L6.77 6.88001H6.6L6.58 6.77001H6.68L6.57 6.67001L6.3 6.91001L6.57 7.15001L6.68 7.05001H6.58L6.6 6.94001H6.77L7.1 7.25001V7.37001H6.95V7.27001L6.87 7.34001L7.04 7.50001L6.96 7.58001L7.2 7.81001V7.97001L6.79 7.59001L6.87 7.51001L6.7 7.35001L6.85 7.21001L6.75 7.12001L6.56 7.30001L6.14 6.92001L6.56 6.54001L6.75 6.72001L6.85 6.63001L6.7 6.49001L6.87 6.33001L6.79 6.25001L7.2 5.87001V5.85001ZM7.2 6.61001V7.20001L7.1 7.10001V6.99001H7L6.92 6.91001L7 6.83001H7.1V6.71001L7.2 6.61001ZM6.5 6.82001V6.90001V6.98001L6.41 6.90001L6.5 6.82001Z" fill="#383739"/>
<path d="M7.2 5.87V5.99L6.94 6.23L7.02 6.31L6.85 6.47L6.95 6.57V6.45H7.08V6.55L6.75 6.86H6.6L6.58 6.77H6.69L6.55 6.64L6.27 6.9L6.55 7.16L6.69 7.03H6.58L6.6 6.94H6.75L7.08 7.25V7.35H6.95V7.23L6.85 7.33L7.02 7.49L6.94 7.57L7.2 7.81V7.93L6.81 7.56L6.89 7.48L6.72 7.32L6.87 7.18L6.75 7.07L6.56 7.25L6.16 6.88L6.56 6.51L6.75 6.69L6.87 6.58L6.72 6.44L6.89 6.28L6.81 6.2L7.2 5.83V5.87ZM7.2 6.63V7.19L7.12 7.11V6.99H7.01L6.94 6.92L7.01 6.85H7.12V6.73L7.2 6.65V6.63ZM6.49 6.85V6.91V6.97L6.43 6.91L6.49 6.85Z" fill="#FFC72C"/>
<path d="M7.2 8.86V9.02L6.96 9.25L7.04 9.33L6.87 9.49L6.95 9.56V9.46H7.1V9.58L6.77 9.89H6.6L6.58 9.78H6.68L6.57 9.68L6.3 9.92L6.57 10.16L6.68 10.06H6.58L6.6 9.95H6.77L7.1 10.26V10.38H6.95V10.28L6.87 10.35L7.04 10.51L6.96 10.59L7.2 10.82V10.98L6.79 10.6L6.87 10.52L6.7 10.36L6.85 10.22L6.75 10.13L6.56 10.31L6.14 9.93L6.56 9.55L6.75 9.73L6.85 9.64L6.7 9.5L6.87 9.34L6.79 9.26L7.2 8.88V8.86ZM7.2 9.62V10.21L7.1 10.11V10H7L6.92 9.92L7 9.84H7.1V9.72L7.2 9.62ZM6.5 9.83V9.91V9.99L6.41 9.91L6.5 9.83Z" fill="#383739"/>
<path d="M7.2 8.88V9L6.94 9.24L7.02 9.32L6.85 9.48L6.95 9.58V9.46H7.08V9.56L6.75 9.87H6.6L6.58 9.78H6.69L6.55 9.65L6.27 9.91L6.55 10.17L6.69 10.04H6.58L6.6 9.95H6.75L7.08 10.26V10.36H6.95V10.24L6.85 10.34L7.02 10.5L6.94 10.58L7.2 10.82V10.94L6.81 10.57L6.89 10.49L6.72 10.33L6.87 10.19L6.75 10.08L6.56 10.26L6.16 9.89L6.56 9.52L6.75 9.7L6.87 9.59L6.72 9.45L6.89 9.29L6.81 9.21L7.2 8.84V8.88ZM7.2 9.64V10.2L7.12 10.12V10H7.01L6.94 9.93L7.01 9.86H7.12V9.74L7.2 9.66V9.64ZM6.49 9.85V9.91V9.97L6.43 9.91L6.49 9.85Z" fill="#FFC72C"/>
<path d="M7.2 11.87V12.03L6.96 12.26L7.04 12.34L6.87 12.5L6.95 12.57V12.47H7.1V12.59L6.77 12.9H6.6L6.58 12.79H6.68L6.57 12.69L6.3 12.93L6.57 13.17L6.68 13.07H6.58L6.6 12.96H6.77L7.1 13.27V13.39H6.95V13.29L6.87 13.36L7.04 13.52L6.96 13.6L7.2 13.83V13.99L6.79 13.61L6.87 13.53L6.7 13.37L6.85 13.23L6.75 13.14L6.56 13.32L6.14 12.94L6.56 12.56L6.75 12.74L6.85 12.65L6.7 12.51L6.87 12.35L6.79 12.27L7.2 11.89V11.87ZM7.2 12.63V13.22L7.1 13.12V13.01H7L6.92 12.93L7 12.85H7.1V12.73L7.2 12.63ZM6.5 12.84V12.92V13L6.41 12.92L6.5 12.84Z" fill="#383739"/>
<path d="M7.2 11.88V12L6.94 12.24L7.02 12.32L6.85 12.48L6.95 12.58V12.46H7.08V12.56L6.75 12.87H6.6L6.58 12.78H6.69L6.55 12.65L6.27 12.91L6.55 13.17L6.69 13.04H6.58L6.6 12.95H6.75L7.08 13.26V13.36H6.95V13.24L6.85 13.34L7.02 13.5L6.94 13.58L7.2 13.82V13.94L6.81 13.57L6.89 13.49L6.72 13.33L6.87 13.19L6.75 13.08L6.56 13.26L6.16 12.89L6.56 12.52L6.75 12.7L6.87 12.59L6.72 12.45L6.89 12.29L6.81 12.21L7.2 11.84V11.88ZM7.2 12.65V13.21L7.12 13.13V13.01H7.01L6.94 12.94L7.01 12.87H7.12V12.75L7.2 12.67V12.65ZM6.49 12.86V12.92V12.98L6.43 12.92L6.49 12.86Z" fill="#FFC72C"/>
<path d="M7.2 14.88V15.04L6.96 15.27L7.04 15.35L6.87 15.51L6.95 15.58V15.48H7.1V15.6L6.77 15.91H6.6L6.58 15.8H6.68L6.57 15.7L6.3 15.94L6.57 16.18L6.68 16.08H6.58L6.6 15.97H6.77L7.1 16.28V16.4H6.95V16.3L6.87 16.37L7.04 16.53L6.96 16.61L7.2 16.84V17L6.79 16.62L6.87 16.54L6.7 16.38L6.85 16.24L6.75 16.15L6.56 16.33L6.14 15.95L6.56 15.57L6.75 15.75L6.85 15.66L6.7 15.52L6.87 15.36L6.79 15.28L7.2 14.9V14.88ZM7.2 15.64V16.23L7.1 16.13V16.02H7L6.92 15.94L7 15.86H7.1V15.74L7.2 15.64ZM6.5 15.85V15.93V16.01L6.41 15.93L6.5 15.85Z" fill="#383739"/>
<path d="M7.2 14.89V15.01L6.94 15.25L7.02 15.33L6.85 15.49L6.95 15.59V15.47H7.08V15.57L6.75 15.88H6.6L6.58 15.79H6.69L6.55 15.66L6.27 15.92L6.55 16.18L6.69 16.05H6.58L6.6 15.96H6.75L7.08 16.27V16.37H6.95V16.25L6.85 16.35L7.02 16.51L6.94 16.59L7.2 16.83V16.95L6.81 16.58L6.89 16.5L6.72 16.34L6.87 16.2L6.75 16.09L6.56 16.27L6.16 15.9L6.56 15.53L6.75 15.71L6.87 15.6L6.72 15.46L6.89 15.3L6.81 15.22L7.2 14.85V14.89ZM7.2 15.65V16.21L7.12 16.13V16.01H7.01L6.94 15.94L7.01 15.87H7.12V15.75L7.2 15.67V15.65ZM6.49 15.87V15.93V15.99L6.43 15.93L6.49 15.87Z" fill="#FFC72C"/>
<path d="M3.23 18.15C3.25 18.24 3.32 18.31 3.34 18.4C3.37 18.3 3.41 18.22 3.38 18.11C3.36 18.03 3.3 17.98 3.29 17.9C3.22 17.96 3.2 18.05 3.23 18.15ZM3.21 18.53C3.27 18.61 3.35 18.67 3.44 18.72C3.42 18.65 3.46 18.59 3.49 18.54C3.54 18.47 3.56 18.4 3.52 18.32C3.5 18.36 3.48 18.4 3.45 18.43C3.41 18.48 3.38 18.53 3.38 18.6C3.33 18.57 3.31 18.51 3.29 18.46C3.25 18.39 3.19 18.33 3.12 18.29C3.14 18.37 3.15 18.45 3.2 18.52L3.21 18.53ZM3.55 18.78C3.55 18.78 3.53 18.87 3.53 18.92C3.49 18.88 3.44 18.85 3.39 18.81C3.33 18.76 3.25 18.72 3.2 18.66C3.2 18.76 3.25 18.84 3.33 18.89C3.41 18.95 3.51 18.99 3.59 19.05C3.58 18.96 3.61 18.89 3.64 18.81C3.66 18.73 3.64 18.65 3.59 18.6C3.59 18.67 3.57 18.72 3.55 18.78ZM3.73 19.07C3.75 19.14 3.79 19.19 3.83 19.25C3.74 19.22 3.66 19.18 3.58 19.13C3.49 19.08 3.38 19.05 3.3 18.98C3.34 19.14 3.45 19.23 3.6 19.28C3.71 19.31 3.79 19.3 3.92 19.35C3.91 19.26 3.88 19.17 3.84 19.09C3.81 19.03 3.77 18.98 3.75 18.92C3.72 18.97 3.71 19.02 3.72 19.08L3.73 19.07ZM4.06 19.32C4.09 19.37 4.13 19.42 4.18 19.45C4.06 19.45 3.95 19.38 3.83 19.38C3.75 19.38 3.68 19.4 3.61 19.39C3.7 19.45 3.8 19.51 3.91 19.52C4.05 19.54 4.19 19.5 4.35 19.52C4.28 19.47 4.24 19.4 4.19 19.32C4.13 19.23 4.07 19.16 3.96 19.14C4.01 19.19 4.03 19.26 4.07 19.32H4.06ZM4.5 19.52C4.28 19.56 4.07 19.61 3.84 19.61C4.09 19.7 4.33 19.71 4.58 19.62C4.71 19.57 4.82 19.54 4.92 19.55C5.07 19.56 5.25 19.62 5.45 19.83L5.53 19.77C5.24 19.51 4.87 19.46 4.5 19.52Z" fill="#FFC72C"/>
<path d="M3.42 5.87L3.07 5.66V5.15L3.42 4.94V4.67L3.75 4.47H4.01L4.51 4.19H5.58L6.08 4.47H6.34L6.67 4.67V4.94L7.02 5.15V5.66L6.67 5.87V6.14L6.34 6.34H6.08L5.58 6.62H4.51L4.01 6.34H3.75L3.42 6.14V5.87Z" fill="#383739"/>
<path d="M4.51 4.2L4.01 4.48H3.75L3.43 4.67V4.94L3.08 5.15V5.65L3.43 5.86V6.13L3.75 6.32H4.01L4.51 6.6H5.57L6.07 6.32H6.33L6.65 6.13V5.86L7 5.65V5.15L6.65 4.94V4.67L6.33 4.48H6.07L5.57 4.2H4.51ZM4.54 4.31H5.54L6.04 4.59H6.3L6.54 4.74V5.01L6.89 5.22V5.6L6.54 5.81V6.08L6.3 6.23H6.04L5.54 6.51H4.54L4.04 6.23H3.78L3.54 6.08V5.81L3.19 5.6V5.22L3.54 5.01V4.74L3.78 4.59H4.04L4.54 4.31Z" fill="#00843D"/>
<path d="M5.03 5.41001V4.32001H4.54L4.04 4.60001H3.78L3.55 4.74001V5.01001L3.2 5.22001V5.40001H5.04V6.49001H5.53L6.03 6.21001H6.29L6.52 6.07001V5.80001L6.87 5.59001V5.41001H5.03Z" fill="#FFC72C"/>
<path d="M3.2 5.41001V5.59001L3.55 5.80001V6.07001L3.78 6.21001H4.04L4.54 6.49001H5.03V5.40001H6.87V5.22001L6.52 5.01001V4.74001L6.29 4.60001H6.03L5.53 4.32001H5.04V5.41001H3.2Z" fill="white"/>
<path d="M3.96 4.70001L3.87 4.62001L3.79 4.67001L3.88 4.75001L3.77 4.82001H4.01L4.22 5.01001L4.29 4.94001L4.09 4.75001V4.62001L3.97 4.69001L3.96 4.70001Z" fill="#383739"/>
<path d="M4.36001 4.66L4.27001 4.58L4.19001 4.63L4.28001 4.71L4.17001 4.78H4.41001L4.62001 4.97L4.69001 4.9L4.49001 4.71V4.58L4.37001 4.65L4.36001 4.66Z" fill="#383739"/>
<path d="M3.93001 4.93001L3.84001 4.85001L3.76001 4.90001L3.85001 4.98001L3.74001 5.05001H3.98001L4.19001 5.24001L4.26001 5.17001L4.06001 4.98001V4.85001L3.94001 4.92001L3.93001 4.93001Z" fill="#383739"/>
<path d="M5.04 4.31H4.82L4.71 4.42H4.49L4.33 4.5L4.37 4.59L4.52 4.51H4.58L4.8 4.77L5.04 4.62V4.3V4.31Z" fill="#383739"/>
<path d="M3.87001 4.63L3.95001 4.7L3.89001 4.74L3.81001 4.67L3.87001 4.63ZM4.06001 4.65V4.76L4.26001 4.94L4.21001 4.99L4.01001 4.8H3.81001L4.07001 4.64L4.06001 4.65Z" fill="#D22630"/>
<path d="M4.28001 4.60001L4.36001 4.67001L4.30001 4.71001L4.22001 4.64001L4.28001 4.60001ZM4.47001 4.61001V4.72001L4.67001 4.90001L4.62001 4.95001L4.42001 4.76001H4.22001L4.48001 4.60001L4.47001 4.61001Z" fill="#D22630"/>
<path d="M3.84001 4.86L3.92001 4.93L3.86001 4.97L3.78001 4.9L3.84001 4.86ZM4.03001 4.87V4.98L4.23001 5.16L4.18001 5.21L3.98001 5.02H3.78001L4.04001 4.86L4.03001 4.87Z" fill="#D22630"/>
<path d="M5.03 4.32001H4.82L4.71 4.43001H4.49L4.34 4.51001L4.37 4.58001L4.51 4.51001H4.58L4.8 4.76001L5.03 4.62001V4.32001Z" fill="#D22630"/>
<path d="M3.96 6.11L3.87 6.19L3.79 6.14L3.88 6.06L3.77 5.99H4.01L4.22 5.8L4.29 5.87L4.09 6.06V6.19L3.97 6.12L3.96 6.11Z" fill="#383739"/>
<path d="M4.36001 6.15001L4.27001 6.23001L4.19001 6.18001L4.28001 6.10001L4.17001 6.03001H4.41001L4.62001 5.84001L4.69001 5.91001L4.49001 6.10001V6.23001L4.37001 6.16001L4.36001 6.15001Z" fill="#383739"/>
<path d="M3.93001 5.88001L3.84001 5.96001L3.76001 5.91001L3.85001 5.83001L3.74001 5.76001H3.98001L4.19001 5.57001L4.26001 5.64001L4.06001 5.83001V5.96001L3.94001 5.89001L3.93001 5.88001Z" fill="#383739"/>
<path d="M5.04 6.50001H4.82L4.71 6.39001H4.49L4.33 6.31001L4.37 6.22001L4.52 6.30001H4.58L4.8 6.04001L5.04 6.19001V6.51001V6.50001Z" fill="#383739"/>
<path d="M3.87001 6.18001L3.95001 6.11001L3.89001 6.07001L3.81001 6.14001L3.87001 6.18001ZM4.06001 6.16001V6.05001L4.26001 5.87001L4.21001 5.82001L4.01001 6.01001H3.81001L4.07001 6.17001L4.06001 6.16001Z" fill="#D22630"/>
<path d="M4.28001 6.21L4.36001 6.14L4.30001 6.1L4.22001 6.17L4.28001 6.21ZM4.47001 6.2V6.09L4.67001 5.91L4.62001 5.86L4.42001 6.05H4.22001L4.48001 6.21L4.47001 6.2Z" fill="#D22630"/>
<path d="M3.84001 5.95001L3.92001 5.88001L3.86001 5.84001L3.78001 5.91001L3.84001 5.95001ZM4.03001 5.94001V5.83001L4.23001 5.65001L4.18001 5.60001L3.98001 5.79001H3.78001L4.04001 5.95001L4.03001 5.94001Z" fill="#D22630"/>
<path d="M5.03 6.49H4.82L4.71 6.38H4.49L4.34 6.3L4.37 6.23L4.51 6.3H4.58L4.8 6.05L5.03 6.19V6.49Z" fill="#D22630"/>
<path d="M3.81 5.06L3.71 5.02L3.58 5.11V5.13L3.37 5.4L3.58 5.67V5.69L3.72 5.78L3.82 5.74L3.76 5.7V5.62L3.78 5.59H3.89V5.19H3.78L3.76 5.16V5.08L3.82 5.04L3.81 5.06Z" fill="#383739"/>
<path d="M3.59 5.12L3.72 5.03L3.8 5.06L3.75 5.09V5.18L3.78 5.22H3.89V5.59H3.78L3.75 5.63V5.72L3.8 5.75L3.72 5.78L3.59 5.69V5.67L3.38 5.4L3.59 5.13V5.11V5.12Z" fill="#D22630"/>
<path d="M6.12 4.70001L6.21 4.62001L6.29 4.67001L6.2 4.75001L6.31 4.82001H6.07L5.86 5.01001L5.79 4.94001L5.99 4.75001V4.62001L6.11 4.69001L6.12 4.70001Z" fill="#383739"/>
<path d="M5.72 4.66L5.81 4.58L5.89 4.63L5.8 4.71L5.91 4.78H5.67L5.46 4.97L5.39 4.9L5.59 4.71V4.58L5.71 4.65L5.72 4.66Z" fill="#383739"/>
<path d="M6.15 4.93001L6.24 4.85001L6.32 4.90001L6.23 4.98001L6.34 5.05001H6.1L5.89 5.24001L5.82 5.17001L6.02 4.98001V4.85001L6.14 4.92001L6.15 4.93001Z" fill="#383739"/>
<path d="M5.04 4.31H5.26L5.37 4.42H5.59L5.75 4.5L5.71 4.59L5.56 4.51H5.5L5.28 4.77L5.04 4.62V4.3V4.31Z" fill="#383739"/>
<path d="M6.21 4.63L6.13 4.7L6.19 4.74L6.27 4.67L6.21 4.63ZM6.02 4.65V4.76L5.82 4.94L5.87 4.99L6.07 4.8H6.27L6.01 4.64L6.02 4.65Z" fill="#D22630"/>
<path d="M5.8 4.60001L5.72 4.67001L5.78 4.71001L5.86 4.64001L5.8 4.60001ZM5.61 4.61001V4.72001L5.41 4.90001L5.46 4.95001L5.66 4.76001H5.86L5.6 4.60001L5.61 4.61001Z" fill="#D22630"/>
<path d="M6.24 4.86L6.16 4.93L6.22 4.97L6.3 4.9L6.24 4.86ZM6.05 4.87V4.98L5.85 5.16L5.9 5.21L6.1 5.02H6.3L6.04 4.86L6.05 4.87Z" fill="#D22630"/>
<path d="M5.05 4.32001H5.26L5.37 4.43001H5.59L5.74 4.51001L5.71 4.58001L5.57 4.51001H5.5L5.28 4.76001L5.05 4.62001V4.32001Z" fill="#D22630"/>
<path d="M6.12 6.11L6.21 6.19L6.29 6.14L6.2 6.06L6.31 5.99H6.07L5.86 5.8L5.79 5.87L5.99 6.06V6.19L6.11 6.12L6.12 6.11Z" fill="#383739"/>
<path d="M5.72 6.15001L5.81 6.23001L5.89 6.18001L5.8 6.10001L5.91 6.03001H5.67L5.46 5.84001L5.39 5.91001L5.59 6.10001V6.23001L5.71 6.16001L5.72 6.15001Z" fill="#383739"/>
<path d="M6.15 5.88001L6.24 5.96001L6.32 5.91001L6.23 5.83001L6.34 5.76001H6.1L5.89 5.57001L5.82 5.64001L6.02 5.83001V5.96001L6.14 5.89001L6.15 5.88001Z" fill="#383739"/>
<path d="M5.04 6.50001H5.26L5.37 6.39001H5.59L5.75 6.31001L5.71 6.22001L5.56 6.30001H5.5L5.28 6.04001L5.04 6.19001V6.51001V6.50001Z" fill="#383739"/>
<path d="M6.21 6.18001L6.13 6.11001L6.19 6.07001L6.27 6.14001L6.21 6.18001ZM6.02 6.16001V6.05001L5.82 5.87001L5.87 5.82001L6.07 6.01001H6.27L6.01 6.17001L6.02 6.16001Z" fill="#D22630"/>
<path d="M5.8 6.21L5.72 6.14L5.78 6.1L5.86 6.17L5.8 6.21ZM5.61 6.2V6.09L5.41 5.91L5.46 5.86L5.66 6.05H5.86L5.6 6.21L5.61 6.2Z" fill="#D22630"/>
<path d="M6.24 5.95001L6.16 5.88001L6.22 5.84001L6.3 5.91001L6.24 5.95001ZM6.05 5.94001V5.83001L5.85 5.65001L5.9 5.60001L6.1 5.79001H6.3L6.04 5.95001L6.05 5.94001Z" fill="#D22630"/>
<path d="M5.05 6.49H5.26L5.37 6.38H5.59L5.74 6.3L5.71 6.23L5.57 6.3H5.5L5.28 6.05L5.05 6.19V6.49Z" fill="#D22630"/>
<path d="M6.27 5.06L6.37 5.02L6.5 5.11V5.13L6.71 5.4L6.5 5.67V5.69L6.36 5.78L6.26 5.74L6.32 5.7V5.62L6.3 5.59H6.19V5.19H6.3L6.32 5.16V5.08L6.26 5.04L6.27 5.06Z" fill="#383739"/>
<path d="M6.49 5.12L6.36 5.03L6.28 5.06L6.33 5.09V5.18L6.3 5.22H6.19V5.59H6.3L6.33 5.63V5.72L6.28 5.75L6.36 5.78L6.49 5.69V5.67L6.7 5.4L6.49 5.13V5.11V5.12Z" fill="#D22630"/>
<path d="M3.63 5.63001L3.57 5.58001V5.56001L3.45 5.41001L3.57 5.26001V5.24001L3.63 5.19001L3.73 5.27001H3.67L3.76 5.36001H3.96L4.12 5.24001V4.91001H4.52L4.98 4.63001V4.56001L4.91 4.51001H4.89L4.81 4.56001V4.60001L4.74 4.52001L4.86 4.42001H4.88L5.01 4.32001H5.06L5.19 4.42001H5.21L5.33 4.52001L5.27 4.60001V4.56001L5.18 4.51001H5.16L5.09 4.56001V4.63001L5.55 4.91001H5.95V5.24001L6.11 5.36001H6.31L6.4 5.27001H6.34L6.44 5.19001L6.5 5.24001V5.26001L6.62 5.41001L6.5 5.56001V5.58001L6.44 5.63001L6.34 5.55001H6.4L6.31 5.46001H6.11L5.95 5.58001V5.91001H5.55L5.09 6.19001V6.26001L5.16 6.31001H5.18L5.26 6.26001V6.22001L5.33 6.30001L5.21 6.40001H5.19L5.06 6.50001H5.01L4.88 6.40001H4.86L4.74 6.30001L4.8 6.22001V6.26001L4.89 6.31001H4.91L4.98 6.26001V6.19001L4.52 5.91001H4.12V5.58001L3.96 5.46001H3.76L3.67 5.55001H3.73L3.63 5.63001Z" fill="#383739"/>
<path d="M5.05 6.33L5.1 6.37L5.05 6.41V6.33ZM4.88 6.4L5.01 6.5H5.03V6.42L4.96 6.37L5.03 6.32V6.18L4.53 5.88H4.16V5.57L3.97 5.42H3.68L3.61 5.5L3.54 5.42H3.46L3.58 5.56V5.58L3.63 5.62L3.7 5.56H3.66V5.55L3.76 5.45H3.97L4.14 5.58V5.9H4.53L5 6.19V6.28L4.92 6.33H4.89L4.81 6.27V6.25L4.76 6.31L4.87 6.4H4.89H4.88ZM3.63 5.34L3.69 5.4H3.58L3.64 5.34H3.63ZM5.03 4.41L4.98 4.45L5.03 4.49V4.41ZM6.4 5.41L6.46 5.47L6.52 5.41H6.41H6.4ZM5.19 4.41L5.06 4.31H5.04V4.39L5.11 4.44L5.04 4.49V4.63L5.54 4.93H5.91V5.24L6.1 5.39H6.39L6.46 5.31L6.53 5.39H6.61L6.49 5.25V5.23L6.44 5.19L6.37 5.25H6.41V5.26L6.31 5.36H6.1L5.93 5.23V4.91H5.54L5.07 4.62V4.53L5.15 4.48H5.18L5.26 4.54V4.56L5.31 4.5L5.2 4.41H5.18H5.19Z" fill="#FFC72C"/>
<path d="M5.03 6.4L4.98 6.36L5.03 6.32V6.4ZM3.68 5.41L3.62 5.47L3.56 5.41H3.67H3.68ZM5.2 6.4L5.07 6.5H5.05V6.42L5.12 6.37L5.05 6.32V6.18L5.55 5.88H5.92V5.57L6.11 5.42H6.4L6.47 5.5L6.54 5.42H6.62L6.5 5.56V5.58L6.45 5.62L6.38 5.56H6.42V5.55L6.32 5.45H6.11L5.94 5.58V5.9H5.55L5.08 6.19V6.28L5.16 6.33H5.19L5.27 6.27V6.25L5.32 6.31L5.21 6.4H5.19H5.2ZM6.45 5.34L6.39 5.4H6.5L6.44 5.34H6.45ZM4.89 4.41L5.02 4.31H5.04V4.39L4.97 4.44L5.04 4.49V4.63L4.54 4.93H4.17V5.24L3.98 5.39H3.69L3.62 5.31L3.55 5.39H3.47L3.59 5.25V5.23L3.64 5.19L3.71 5.25H3.67V5.26L3.77 5.36H3.98L4.15 5.23V4.91H4.54L5.01 4.62V4.53L4.93 4.48H4.9L4.82 4.54V4.56L4.77 4.5L4.88 4.41H4.9H4.89ZM5.05 4.48L5.1 4.44L5.05 4.4V4.48Z" fill="white"/>
<path d="M5.03 5.40999V4.64999L4.54 4.94999H4.18V5.24999L4 5.38999H5.04V6.14999L5.53 5.84999H5.89V5.54999L6.07 5.40999H5.03Z" fill="#00843D"/>
<path d="M4 5.40999L4.18 5.54999V5.84999H4.54L5.03 6.14999V5.38999H6.07L5.89 5.24999V4.94999H5.53L5.04 4.64999V5.40999H4Z" fill="#D22630"/>
<path d="M4.51 5.04001L4.42 4.96001L4.34 5.01001L4.43 5.09001L4.32 5.16001H4.56L4.77 5.35001L4.84 5.28001L4.64 5.09001V4.96001L4.52 5.03001L4.51 5.04001Z" fill="#383739"/>
<path d="M5.57 5.77001L5.66 5.85001L5.74 5.80001L5.65 5.72001L5.76 5.65001H5.52L5.31 5.46001L5.24 5.53001L5.44 5.72001V5.85001L5.56 5.78001L5.57 5.77001Z" fill="#383739"/>
<path d="M4.51 5.77001L4.42 5.85001L4.34 5.80001L4.43 5.72001L4.32 5.65001H4.56L4.77 5.46001L4.84 5.53001L4.64 5.72001V5.85001L4.52 5.78001L4.51 5.77001Z" fill="#383739"/>
<path d="M5.57 5.04001L5.66 4.96001L5.74 5.01001L5.65 5.09001L5.76 5.16001H5.52L5.31 5.35001L5.24 5.28001L5.44 5.09001V4.96001L5.56 5.03001L5.57 5.04001Z" fill="#383739"/>
<path d="M5.66 5.84L5.58 5.77L5.64 5.73L5.72 5.8L5.66 5.84ZM5.46 5.82V5.71L5.26 5.53L5.31 5.48L5.51 5.67H5.71L5.45 5.83L5.46 5.82ZM4.42 4.97L4.5 5.04L4.44 5.08L4.36 5.01L4.42 4.97ZM4.62 4.99V5.1L4.82 5.28L4.77 5.33L4.57 5.14H4.37L4.63 4.98L4.62 4.99Z" fill="#D22630"/>
<path d="M5.66 4.97L5.58 5.04L5.64 5.08L5.72 5.01L5.66 4.97ZM5.46 4.99V5.1L5.26 5.28L5.31 5.33L5.51 5.14H5.71L5.45 4.98L5.46 4.99ZM4.42 5.84L4.5 5.77L4.44 5.73L4.36 5.8L4.42 5.84ZM4.62 5.82V5.71L4.82 5.53L4.77 5.48L4.57 5.67H4.37L4.63 5.83L4.62 5.82Z" fill="#00843D"/>
<path d="M5.57 5.4L5.04 5.75L4.51 5.4L5.04 5.05L5.57 5.4Z" fill="#383739"/>
<path d="M5.03 5.07001L4.54 5.40001H5.54L5.05 5.07001V5.74001L5.54 5.41001H4.54L5.03 5.74001V5.07001Z" fill="white"/>
<path d="M5.18 5.53V5.63H4.9V5.53H4.72V5.29H4.9V5.19H5.18V5.29H5.36V5.53H5.18Z" fill="#383739"/>
<path d="M4.91 5.2V5.3H4.73V5.4H5.04V5.2H4.92H4.91ZM5.05 5.4H5.36V5.3H5.18V5.2H5.06V5.4H5.05ZM4.73 5.41V5.51H4.91V5.61H5.03V5.41H4.72H4.73ZM5.05 5.61H5.17V5.51H5.35V5.41H5.04V5.61H5.05Z" fill="#D22630"/>
<path d="M5.94 9.43V9.27H6.37V9.11H6.8V7.71H6.37V7.55H5.94V7.39H5.51V7.23H4.56V7.39H4.13V7.55H3.7V7.71H3.27V9.11H3.7V9.27H4.13V9.43H4.56V9.59H5.51V9.43H5.94Z" fill="#383739"/>
<path d="M4.57 7.25V7.41H4.14V7.57H3.71V7.73H3.28V9.11H3.71V9.27H4.14V9.43H4.57V9.59H5.5V9.43H5.93V9.27H6.36V9.11H6.79V7.73H6.36V7.57H5.93V7.41H5.5V7.25H4.57ZM4.69 7.37H5.39V7.53H5.82V7.69H6.25V7.85H6.68V9.01H6.25V9.17H5.82V9.33H5.39V9.49H4.69V9.33H4.26V9.17H3.83V9.01H3.4V7.85H3.83V7.69H4.26V7.53H4.69V7.37Z" fill="#FFC72C"/>
<path d="M4.27 9.29V9.13H3.84V8.97H3.41V7.84H3.84V7.68H4.27V7.52H4.7V7.36H5.38V7.52H5.81V7.68H6.24V7.84H6.67V8.97H6.24V9.13H5.81V9.29H5.38V9.45H4.7V9.29H4.27Z" fill="#D22630"/>
<path d="M4.37 7.65L4.26 7.57V7.73L4.15 7.8V7.70001L4.05 7.79L3.95 7.70001V7.8L3.83 7.73V7.88L3.74 7.95001V7.86L3.63 7.94L3.52 7.86V7.95001L3.41 7.87V8.32H3.29V8.52H3.41V8.97001L3.52 8.89V8.98L3.63 8.9L3.74 8.98V8.89L3.83 8.96V9.11L3.95 9.04V9.14L4.05 9.05L4.15 9.14V9.04L4.26 9.11V9.27L4.37 9.19V9.3L4.48 9.20001L4.59 9.3V9.19L4.69 9.26V9.43L4.84 9.3V9.46L5.04 9.33L5.24 9.46V9.3L5.39 9.43V9.26L5.49 9.19V9.3L5.6 9.20001L5.71 9.3V9.19L5.82 9.27V9.11L5.93 9.04V9.14L6.03 9.05L6.13 9.14V9.04L6.25 9.11V8.96L6.34 8.89V8.98L6.45 8.9L6.56 8.98V8.89L6.67 8.97001V8.52H6.79V8.32H6.67V7.87L6.56 7.95001V7.86L6.45 7.94L6.34 7.86V7.95001L6.25 7.88V7.73L6.13 7.8V7.70001L6.03 7.79L5.93 7.70001V7.8L5.82 7.73V7.57L5.71 7.65V7.54L5.6 7.64L5.49 7.54V7.65L5.39 7.58V7.41L5.24 7.54V7.38L5.04 7.51L4.84 7.38V7.54L4.69 7.41V7.58L4.59 7.65V7.54L4.48 7.64L4.37 7.54V7.65Z" fill="#383739"/>
<path d="M3.53 7.96V7.87L3.63 7.94L3.73 7.87V7.96L3.84 7.88V8.94L3.73 8.86V8.95L3.63 8.88L3.53 8.95V8.86L3.42 8.94V8.5H3.3V8.32H3.42V7.88L3.53 7.96Z" fill="#00843D"/>
<path d="M4.38 7.56L4.48 7.65L4.58 7.56V7.67L4.69 7.59V9.24L4.58 9.16V9.27L4.48 9.18L4.38 9.27V9.16L4.27 9.24V7.59L4.38 7.67V7.56Z" fill="#00843D"/>
<path d="M5.7 7.56L5.6 7.65L5.5 7.56V7.67L5.39 7.59V9.24L5.5 9.16V9.27L5.6 9.18L5.7 9.27V9.16L5.81 9.24V7.59L5.7 7.67V7.56Z" fill="#00843D"/>
<path d="M6.55001 7.96V7.87L6.45001 7.94L6.35001 7.87V7.96L6.24001 7.88V8.94L6.35001 8.86V8.95L6.45001 8.88L6.55001 8.95V8.86L6.66001 8.94V8.5H6.78001V8.32H6.66001V7.88L6.55001 7.96Z" fill="#00843D"/>
<path d="M3.96 7.72L4.05 7.8L4.14 7.72V7.82L4.26 7.75V9.09L4.14 9.02V9.12L4.05 9.04L3.96 9.12V9.02L3.84 9.09V7.75L3.96 7.82V7.72Z" fill="#FFC72C"/>
<path d="M4.85 7.57L4.7 7.44V9.4L4.85 9.27V9.43L5.04 9.31L5.23 9.43V9.27L5.38 9.4V7.44L5.23 7.57V7.41L5.04 7.53L4.85 7.41V7.57Z" fill="#FFC72C"/>
<path d="M6.12 7.72L6.03 7.8L5.94 7.72V7.82L5.82 7.75V9.09L5.94 9.02V9.12L6.03 9.04L6.12 9.12V9.02L6.24 9.09V7.75L6.12 7.82V7.72Z" fill="#FFC72C"/>
<path d="M3.58 8.22C3.58 8.22 3.61 8.24 3.63 8.24C3.65 8.24 3.66 8.24 3.68 8.22C3.72 8.18 3.72 8.11 3.72 8.05C3.72 8.05 3.67 8.1 3.66 8.11C3.66 8.1 3.63 8.05 3.63 8.05C3.63 8.05 3.6 8.1 3.6 8.11L3.54 8.05C3.54 8.1 3.54 8.18 3.58 8.22Z" fill="#383739"/>
<path d="M4.03 8.11L4 8.08V8.01L3.92 8.08L4.06 8.22L4.2 8.08L4.12 8.01V8.08L4.09 8.11V7.99L4.15 7.94L4.06 7.86L3.97 7.94L4.03 7.99V8.11Z" fill="#383739"/>
<path d="M4.45 7.97L4.42 7.94V7.87L4.34 7.94L4.48 8.08L4.62 7.94L4.54 7.87V7.94L4.51 7.97V7.85L4.57 7.8L4.48 7.72L4.39 7.8L4.45 7.85V7.97Z" fill="#383739"/>
<path d="M3.63 8.08L3.66 8.13C3.66 8.13 3.69 8.1 3.71 8.08C3.71 8.14 3.7 8.19 3.67 8.21C3.66 8.22 3.65 8.23 3.63 8.23C3.61 8.23 3.6 8.23 3.59 8.21C3.57 8.19 3.55 8.14 3.55 8.08C3.56 8.09 3.6 8.13 3.6 8.13C3.6 8.11 3.62 8.1 3.63 8.08Z" fill="white"/>
<path d="M4.5 7.84V7.99L4.56 7.93V7.88L4.61 7.93L4.49 8.05L4.37 7.93L4.42 7.88V7.93L4.48 7.99V7.84L4.43 7.79L4.5 7.73L4.57 7.79L4.52 7.84H4.5Z" fill="white"/>
<path d="M4.07 7.98V8.13L4.13 8.07V8.02L4.18 8.07L4.06 8.19L3.94 8.07L3.99 8.02V8.07L4.05 8.13V7.98L4 7.93L4.07 7.87L4.14 7.93L4.09 7.98H4.07Z" fill="#D22630"/>
<path d="M6.5 8.22C6.5 8.22 6.47 8.24 6.45 8.24C6.43 8.24 6.42 8.24 6.4 8.22C6.36 8.18 6.36 8.11 6.36 8.05C6.36 8.05 6.41 8.1 6.42 8.11C6.42 8.1 6.45 8.05 6.45 8.05C6.45 8.05 6.48 8.1 6.48 8.11L6.54 8.05C6.54 8.1 6.54 8.18 6.5 8.22Z" fill="#383739"/>
<path d="M6.05 8.11L6.08 8.08V8.01L6.16 8.08L6.02 8.22L5.88 8.08L5.96 8.01V8.08L5.99 8.11V7.99L5.93 7.94L6.02 7.86L6.11 7.94L6.05 7.99V8.11Z" fill="#383739"/>
<path d="M5.63 7.97L5.66 7.94V7.87L5.74 7.94L5.6 8.08L5.46 7.94L5.54 7.87V7.94L5.57 7.97V7.85L5.51 7.8L5.6 7.72L5.69 7.8L5.63 7.85V7.97Z" fill="#383739"/>
<path d="M6.45 8.08L6.42 8.13C6.42 8.13 6.39 8.1 6.37 8.08C6.37 8.14 6.38 8.19 6.41 8.21C6.42 8.22 6.43 8.23 6.45 8.23C6.47 8.23 6.48 8.23 6.49 8.21C6.50999 8.19 6.53 8.14 6.53 8.08C6.52 8.09 6.48 8.13 6.48 8.13C6.48 8.11 6.46 8.1 6.45 8.08Z" fill="white"/>
<path d="M5.58 7.84V7.99L5.52 7.93V7.88L5.47 7.93L5.59 8.05L5.71 7.93L5.66 7.88V7.93L5.6 7.99V7.84L5.65 7.79L5.58 7.73L5.51 7.79L5.56 7.84H5.58Z" fill="white"/>
<path d="M6.01 7.98V8.13L5.95 8.07V8.02L5.9 8.07L6.02 8.19L6.14 8.07L6.09 8.02V8.07L6.03 8.13V7.98L6.08 7.93L6.01 7.87L5.94 7.93L5.99 7.98H6.01Z" fill="#D22630"/>
<path d="M5.21 8.02L5.16 7.96L5.28 7.85L5.17 7.76V7.82L5.12 7.86V7.74L5.22 7.66L5.03 7.52L4.84 7.66L4.94 7.74V7.86L4.89 7.82V7.76L4.78 7.85L4.9 7.96L4.85 8.02H5.19H5.21Z" fill="#383739"/>
<path d="M4.89 8.01001L4.93 7.96001L4.81 7.85001L4.89 7.78001V7.82001L4.96 7.88001V7.73001L4.86 7.66001L5.03 7.54001L5.2 7.66001L5.1 7.73001V7.88001L5.17 7.82001V7.78001L5.25 7.85001L5.13 7.96001L5.17 8.01001H4.88H4.89Z" fill="#D22630"/>
<path d="M4.95 7.67L5.04 7.73L5.13 7.67L5.04 7.61L4.96 7.67H4.95Z" fill="#383739"/>
<path d="M5.04 7.62001C5.04 7.62001 5.1 7.66001 5.11 7.67001C5.1 7.67001 5.05 7.71001 5.04 7.72001C5.04 7.72001 4.98 7.68001 4.97 7.67001C4.98 7.67001 5.03 7.63001 5.04 7.62001Z" fill="#00843D"/>
<path d="M3.58 8.61C3.58 8.61 3.61 8.59 3.63 8.59C3.65 8.59 3.66 8.59 3.68 8.61C3.72 8.65 3.72 8.72 3.72 8.78C3.72 8.78 3.67 8.73 3.66 8.72C3.66 8.73 3.63 8.78 3.63 8.78C3.63 8.78 3.6 8.73 3.6 8.72L3.54 8.78C3.54 8.73 3.54 8.65 3.58 8.61Z" fill="#383739"/>
<path d="M4.03 8.72L4 8.75V8.82L3.92 8.75L4.06 8.61L4.2 8.75L4.12 8.82V8.75L4.09 8.72V8.84L4.15 8.89L4.06 8.97L3.97 8.89L4.03 8.84V8.72Z" fill="#383739"/>
<path d="M4.45 8.86L4.42 8.89V8.96L4.34 8.89L4.48 8.75L4.62 8.89L4.54 8.96V8.89L4.51 8.86V8.98L4.57 9.03L4.48 9.11L4.39 9.03L4.45 8.98V8.86Z" fill="#383739"/>
<path d="M3.63 8.74999L3.66 8.69999C3.66 8.69999 3.69 8.72999 3.71 8.74999C3.71 8.68999 3.7 8.63999 3.67 8.61999C3.66 8.60999 3.65 8.59999 3.63 8.59999C3.61 8.59999 3.6 8.59999 3.59 8.61999C3.57 8.63999 3.55 8.68999 3.55 8.74999C3.56 8.73999 3.6 8.69999 3.6 8.69999C3.6 8.71999 3.62 8.72999 3.63 8.74999Z" fill="white"/>
<path d="M4.5 8.97999V8.82999L4.56 8.88999V8.93999L4.61 8.88999L4.49 8.76999L4.37 8.88999L4.42 8.93999V8.88999L4.48 8.82999V8.97999L4.43 9.02999L4.5 9.08999L4.57 9.02999L4.52 8.97999H4.5Z" fill="white"/>
<path d="M4.07 8.85V8.7L4.13 8.76V8.81L4.18 8.76L4.06 8.64L3.94 8.76L3.99 8.81V8.76L4.05 8.7V8.85L4 8.9L4.07 8.96L4.14 8.9L4.09 8.85H4.07Z" fill="#D22630"/>
<path d="M6.5 8.61C6.5 8.61 6.47 8.59 6.45 8.59C6.43 8.59 6.42 8.59 6.4 8.61C6.36 8.65 6.36 8.72 6.36 8.78C6.36 8.78 6.41 8.73 6.42 8.72C6.42 8.73 6.45 8.78 6.45 8.78C6.45 8.78 6.48 8.73 6.48 8.72L6.54 8.78C6.54 8.73 6.54 8.65 6.5 8.61Z" fill="#383739"/>
<path d="M6.05 8.72L6.08 8.75V8.82L6.16 8.75L6.02 8.61L5.88 8.75L5.96 8.82V8.75L5.99 8.72V8.84L5.93 8.89L6.02 8.97L6.11 8.89L6.05 8.84V8.72Z" fill="#383739"/>
<path d="M5.63 8.86L5.66 8.89V8.96L5.74 8.89L5.6 8.75L5.46 8.89L5.54 8.96V8.89L5.57 8.86V8.98L5.51 9.03L5.6 9.11L5.69 9.03L5.63 8.98V8.86Z" fill="#383739"/>
<path d="M6.45 8.74999L6.42 8.69999C6.42 8.69999 6.39 8.72999 6.37 8.74999C6.37 8.68999 6.38 8.63999 6.41 8.61999C6.42 8.60999 6.43 8.59999 6.45 8.59999C6.47 8.59999 6.48 8.59999 6.49 8.61999C6.50999 8.63999 6.53 8.68999 6.53 8.74999C6.52 8.73999 6.48 8.69999 6.48 8.69999C6.48 8.71999 6.46 8.72999 6.45 8.74999Z" fill="white"/>
<path d="M5.58 8.97999V8.82999L5.52 8.88999V8.93999L5.47 8.88999L5.59 8.76999L5.71 8.88999L5.66 8.93999V8.88999L5.6 8.82999V8.97999L5.65 9.02999L5.58 9.08999L5.51 9.02999L5.56 8.97999H5.58Z" fill="white"/>
<path d="M6.01 8.85V8.7L5.95 8.76V8.81L5.9 8.76L6.02 8.64L6.14 8.76L6.09 8.81V8.76L6.03 8.7V8.85L6.08 8.9L6.01 8.96L5.94 8.9L5.99 8.85H6.01Z" fill="#D22630"/>
<path d="M5.21 8.8L5.16 8.86L5.28 8.97L5.17 9.06V9L5.12 8.96V9.08L5.22 9.16L5.03 9.3L4.84 9.16L4.94 9.08V8.96L4.89 9V9.06L4.78 8.97L4.9 8.86L4.85 8.8H5.19H5.21Z" fill="#383739"/>
<path d="M4.89 8.81999L4.93 8.86999L4.81 8.97999L4.89 9.04999V9.00999L4.96 8.94999V9.09999L4.86 9.16999L5.03 9.28999L5.2 9.16999L5.1 9.09999V8.94999L5.17 9.00999V9.04999L5.25 8.97999L5.13 8.86999L5.17 8.81999H4.88H4.89Z" fill="#D22630"/>
<path d="M4.95 9.15999L5.04 9.09999L5.13 9.15999L5.04 9.21999L4.96 9.15999H4.95Z" fill="#383739"/>
<path d="M5.04 9.19999C5.04 9.19999 5.1 9.15999 5.11 9.14999C5.1 9.14999 5.05 9.10999 5.04 9.09999C5.04 9.09999 4.98 9.13999 4.97 9.14999C4.98 9.14999 5.03 9.18999 5.04 9.19999Z" fill="#00843D"/>
<path d="M6.56 8.35H6.37V8.28H5.8L5.4 8.02H4.69L4.29 8.28H3.72V8.35H3.53V8.48H3.72V8.55H4.29L4.69 8.81H5.4L5.8 8.55H6.37V8.48H6.56V8.35Z" fill="#383739"/>
<path d="M4.69 8.02L4.29 8.28H3.73V8.35H3.54V8.46H3.73V8.53H4.29L4.69 8.79H5.4L5.8 8.53H6.37V8.46H6.56V8.35H6.37V8.28H5.8L5.4 8.02H4.69ZM4.69 8.06H5.38L5.75 8.3V8.34H6.16V8.49H5.75V8.53L5.38 8.77H4.69L4.33 8.53V8.49H3.92V8.34H4.33V8.3L4.69 8.06Z" fill="#D22630"/>
<path d="M5.38 8.07001L5.74 8.30001V8.34001H6.15V8.47001H5.74V8.51001L5.38 8.74001H4.7L4.34 8.51001V8.47001H3.93V8.34001H4.34V8.30001L4.7 8.07001H5.38Z" fill="#D22630"/>
<path d="M4.52 8.55L4.67 8.67L4.77 8.59L4.71 8.55L4.67 8.58L4.63 8.55L5.21 8.11H5.09L4.51 8.55H4.52ZM4.86 8.72H4.98L5.56 8.28L5.41 8.16L5.31 8.24L5.37 8.28L5.41 8.25L5.45 8.28L4.87 8.72H4.86ZM5.1 8.72H5.22L4.64 8.28L4.68 8.25L4.72 8.28L4.78 8.24L4.68 8.16L4.53 8.28L5.11 8.72H5.1ZM5.44 8.55L5.4 8.58L5.36 8.55L5.3 8.59L5.4 8.67L5.55 8.55L4.97 8.11H4.85L5.43 8.55H5.44Z" fill="#383739"/>
<path d="M4.4 8.41L4.5 8.48L4.6 8.41L4.5 8.34L4.4 8.41Z" fill="#383739"/>
<path d="M4.94 8.41L5.04 8.48L5.14 8.41L5.04 8.34L4.94 8.41Z" fill="#383739"/>
<path d="M5.68 8.41L5.58 8.48L5.48 8.41L5.58 8.34L5.68 8.41Z" fill="#383739"/>
<path d="M5.54 8.55L5.4 8.65L5.32 8.59L5.36 8.56L5.4 8.59L5.46 8.55L4.89 8.12H4.97L5.54 8.55ZM5.19 8.71H5.11L4.54 8.28L4.68 8.18L4.76 8.24L4.72 8.27L4.68 8.24L4.62 8.28L5.19 8.71ZM4.97 8.71H4.89L5.46 8.28L5.4 8.24L5.36 8.27L5.32 8.24L5.4 8.18L5.54 8.28L4.97 8.71ZM5.11 8.12H5.19L4.62 8.55L4.68 8.59L4.72 8.56L4.76 8.59L4.68 8.65L4.54 8.55L5.11 8.12Z" fill="#FFC72C"/>
<path d="M4.51 8.36L4.59 8.42L4.51 8.48L4.43 8.42L4.51 8.36Z" fill="#00843D"/>
<path d="M5.04 8.36L5.12 8.42L5.04 8.48L4.96 8.42L5.04 8.36Z" fill="#00843D"/>
<path d="M5.57 8.36L5.49 8.42L5.57 8.48L5.65 8.42L5.57 8.36Z" fill="#00843D"/>
<path d="M3.21 11.31L3.17 11.37L3.24 11.43L3.17 11.49L3.21 11.55H3.29L3.37 11.5L3.57 11.63V11.52L3.44 11.44L3.57 11.36V11.25L3.37 11.38L3.29 11.32H3.21V11.31Z" fill="#383739"/>
<path d="M3.21 10.93L3.17 10.99L3.24 11.05L3.17 11.11L3.21 11.17H3.29L3.37 11.12L3.57 11.25V11.14L3.44 11.06L3.57 10.98V10.87L3.37 11L3.29 10.94H3.21V10.93Z" fill="#383739"/>
<path d="M3.21 11.91L3.17 11.85L3.24 11.79L3.17 11.73L3.21 11.67H3.29L3.37 11.72L3.57 11.59V11.7L3.44 11.78L3.57 11.86V11.97L3.37 11.84L3.29 11.9H3.21V11.91Z" fill="#383739"/>
<path d="M6.86999 11.31L6.90999 11.37L6.83999 11.43L6.90999 11.49L6.86999 11.55H6.78999L6.70999 11.5L6.50999 11.63V11.52L6.63999 11.44L6.50999 11.36V11.25L6.70999 11.38L6.78999 11.32H6.86999V11.31Z" fill="#383739"/>
<path d="M6.86999 10.93L6.90999 10.99L6.83999 11.05L6.90999 11.11L6.86999 11.17H6.78999L6.70999 11.12L6.50999 11.25V11.14L6.63999 11.06L6.50999 10.98V10.87L6.70999 11L6.78999 10.94H6.86999V10.93Z" fill="#383739"/>
<path d="M6.86999 11.91L6.90999 11.85L6.83999 11.79L6.90999 11.73L6.86999 11.67H6.78999L6.70999 11.72L6.50999 11.59V11.7L6.63999 11.78L6.50999 11.86V11.97L6.70999 11.84L6.78999 11.9H6.86999V11.91Z" fill="#383739"/>
<path d="M6.05 10.28V10.44H6.16V10.51H6.27V10.38H6.17V10.28H6.04H6.05Z" fill="#383739"/>
<path d="M6.38 10.53V10.69H6.49V10.76H6.6V10.63H6.5V10.53H6.37H6.38Z" fill="#383739"/>
<path d="M4.03 10.28V10.44H3.92V10.51H3.81V10.38H3.91V10.28H4.04H4.03Z" fill="#383739"/>
<path d="M6.05 12.56V12.4H6.16V12.33H6.27V12.46H6.17V12.56H6.04H6.05Z" fill="#383739"/>
<path d="M4.03 12.56V12.4H3.92V12.33H3.81V12.46H3.91V12.56H4.04H4.03Z" fill="#383739"/>
<path d="M6.38 12.31V12.15H6.49V12.08H6.6V12.21H6.5V12.31H6.37H6.38Z" fill="#383739"/>
<path d="M3.7 10.53V10.69H3.59V10.76H3.48V10.63H3.58V10.53H3.71H3.7Z" fill="#383739"/>
<path d="M3.7 12.31V12.15H3.59V12.08H3.48V12.21H3.58V12.31H3.71H3.7Z" fill="#383739"/>
<path d="M5.46 10.28L5.37 10.2L5.28 10.28C5.28 10.28 5.35 10.34 5.35 10.35L5.25 10.44H5.39L5.44 10.39L5.49 10.44H5.63L5.53 10.35L5.6 10.28L5.51 10.2C5.51 10.2 5.45 10.26 5.42 10.28H5.46Z" fill="#383739"/>
<path d="M5.04 10.28L4.95 10.2L4.86 10.28C4.86 10.28 4.93 10.34 4.93 10.35L4.83 10.44H4.97L5.02 10.39L5.07 10.44H5.21L5.11 10.35L5.18 10.28L5.09 10.2C5.09 10.2 5.03 10.26 5 10.28H5.04Z" fill="#383739"/>
<path d="M4.62 10.28L4.71 10.2L4.8 10.28C4.8 10.28 4.73 10.34 4.73 10.35L4.83 10.44H4.69L4.64 10.39L4.59 10.44H4.45L4.55 10.35L4.48 10.28L4.57 10.2C4.57 10.2 4.63 10.26 4.66 10.28H4.62Z" fill="#383739"/>
<path d="M5.46 12.56L5.37 12.64L5.28 12.56C5.28 12.56 5.35 12.5 5.35 12.49L5.25 12.4H5.39L5.44 12.45L5.49 12.4H5.63L5.53 12.49L5.6 12.56L5.51 12.64C5.51 12.64 5.45 12.58 5.42 12.56H5.46Z" fill="#383739"/>
<path d="M5.04 12.56L4.95 12.64L4.86 12.56C4.86 12.56 4.93 12.5 4.93 12.49L4.83 12.4H4.97L5.02 12.45L5.07 12.4H5.21L5.11 12.49L5.18 12.56L5.09 12.64C5.09 12.64 5.03 12.58 5 12.56H5.04Z" fill="#383739"/>
<path d="M4.62 12.56L4.71 12.64L4.8 12.56C4.8 12.56 4.73 12.5 4.73 12.49L4.83 12.4H4.69L4.64 12.45L4.59 12.4H4.45L4.55 12.49L4.48 12.56L4.57 12.64C4.57 12.64 4.63 12.58 4.66 12.56H4.62Z" fill="#383739"/>
<path d="M3.57 11.51V11.59L3.38 11.47L3.3 11.54H3.22L3.19 11.49L3.27 11.43L3.19 11.37L3.22 11.33H3.3L3.38 11.39L3.57 11.27V11.35L3.43 11.44L3.57 11.53V11.51Z" fill="#00843D"/>
<path d="M3.57 11.13V11.21L3.38 11.09L3.3 11.16H3.22L3.19 11.11L3.27 11.05L3.19 10.99L3.22 10.95H3.3L3.38 11.01L3.57 10.89V10.97L3.43 11.06L3.57 11.15V11.13Z" fill="#00843D"/>
<path d="M3.57 11.71V11.63L3.38 11.75L3.3 11.68H3.22L3.19 11.73L3.27 11.79L3.19 11.85L3.22 11.89H3.3L3.38 11.83L3.57 11.95V11.87L3.43 11.78L3.57 11.69V11.71Z" fill="#00843D"/>
<path d="M6.51 11.51V11.59L6.7 11.47L6.78 11.54H6.86L6.89 11.49L6.81 11.43L6.89 11.37L6.86 11.33H6.78L6.7 11.39L6.51 11.27V11.35L6.65 11.44L6.51 11.53V11.51Z" fill="#00843D"/>
<path d="M6.51 11.13V11.21L6.7 11.09L6.78 11.16H6.86L6.89 11.11L6.81 11.05L6.89 10.99L6.86 10.95H6.78L6.7 11.01L6.51 10.89V10.97L6.65 11.06L6.51 11.15V11.13Z" fill="#00843D"/>
<path d="M6.51 11.71V11.63L6.7 11.75L6.78 11.68H6.86L6.89 11.73L6.81 11.79L6.89 11.85L6.86 11.89H6.78L6.7 11.83L6.51 11.95V11.87L6.65 11.78L6.51 11.69V11.71Z" fill="#00843D"/>
<path d="M6.16001 10.29V10.39H6.26001V10.49H6.17001V10.42H6.06001V10.29H6.16001Z" fill="#00843D"/>
<path d="M6.5 10.54V10.64H6.6V10.74H6.51V10.67H6.4V10.54H6.5Z" fill="#00843D"/>
<path d="M3.92 10.29V10.39H3.82V10.49H3.91V10.42H4.02V10.29H3.92Z" fill="#00843D"/>
<path d="M6.16001 12.55V12.45H6.26001V12.35H6.17001V12.42H6.06001V12.55H6.16001Z" fill="#00843D"/>
<path d="M3.92 12.55V12.45H3.82V12.35H3.91V12.42H4.02V12.55H3.92Z" fill="#00843D"/>
<path d="M6.5 12.3V12.2H6.6V12.1H6.51V12.17H6.4V12.3H6.5Z" fill="#00843D"/>
<path d="M3.58 10.54V10.64H3.48V10.74H3.57V10.67H3.68V10.54H3.58Z" fill="#00843D"/>
<path d="M3.58 12.3V12.2H3.48V12.1H3.57V12.17H3.68V12.3H3.58Z" fill="#00843D"/>
<path d="M5.37 10.21L5.46 10.29C5.46 10.29 5.54 10.21 5.55 10.21C5.55 10.21 5.61 10.27 5.62 10.27L5.55 10.34L5.63 10.42H5.52L5.46 10.37L5.4 10.42H5.29L5.37 10.34C5.37 10.34 5.3 10.28 5.3 10.27C5.3 10.27 5.36 10.21 5.37 10.21Z" fill="#00843D"/>
<path d="M4.95 10.21L5.04 10.29C5.04 10.29 5.12 10.21 5.13 10.21C5.13 10.21 5.19 10.27 5.2 10.27L5.13 10.34L5.21 10.42H5.1L5.04 10.37L4.98 10.42H4.87L4.95 10.34C4.95 10.34 4.88 10.28 4.88 10.27C4.88 10.27 4.94 10.21 4.95 10.21Z" fill="#00843D"/>
<path d="M4.71 10.21L4.62 10.29C4.62 10.29 4.54 10.21 4.53 10.21C4.53 10.21 4.47 10.27 4.46 10.27L4.53 10.34L4.45 10.42H4.56L4.62 10.37L4.68 10.42H4.79L4.71 10.34C4.71 10.34 4.78 10.28 4.78 10.27C4.78 10.27 4.72 10.21 4.71 10.21Z" fill="#00843D"/>
<path d="M5.37 12.63L5.46 12.55C5.46 12.55 5.54 12.63 5.55 12.63C5.55 12.63 5.61 12.57 5.62 12.57L5.55 12.5L5.63 12.42H5.52L5.46 12.47L5.4 12.42H5.29L5.37 12.5C5.37 12.5 5.3 12.56 5.3 12.57C5.3 12.57 5.36 12.63 5.37 12.63Z" fill="#00843D"/>
<path d="M4.95 12.63L5.04 12.55C5.04 12.55 5.12 12.63 5.13 12.63C5.13 12.63 5.19 12.57 5.2 12.57L5.13 12.5L5.21 12.42H5.1L5.04 12.47L4.98 12.42H4.87L4.95 12.5C4.95 12.5 4.88 12.56 4.88 12.57C4.88 12.57 4.94 12.63 4.95 12.63Z" fill="#00843D"/>
<path d="M4.71 12.63L4.62 12.55C4.62 12.55 4.54 12.63 4.53 12.63C4.53 12.63 4.47 12.57 4.46 12.57L4.53 12.5L4.45 12.42H4.56L4.62 12.47L4.68 12.42H4.79L4.71 12.5C4.71 12.5 4.78 12.56 4.78 12.57C4.78 12.57 4.72 12.63 4.71 12.63Z" fill="#00843D"/>
<path d="M3.91 12.17V12.42H6.17V12.17H6.5V10.68H6.17V10.43H3.91V10.68H3.58V12.17H3.91Z" fill="#383739"/>
<path d="M3.92 10.44V10.69H3.59V12.16H3.92V12.41H6.16V12.16H6.49V10.69H6.16V10.44H3.92ZM4.06 10.53H6.01V10.77L6.09 10.83H6.39V12.01H6.08L6 12.07V12.31H4.05V12.07L3.97 12.01H3.66V10.83H3.96L4.04 10.77V10.53H4.06Z" fill="#FFC72C"/>
<path d="M4.08 10.54V10.76L4.37 10.54H4.08ZM5.71 10.54L6 10.76V10.54H5.71ZM3.69 10.84V11.04L3.97 10.84H3.69ZM6.11 10.84L6.39 11.04V10.84H6.11ZM6.39 11.79L6.11 12H6.39V11.79ZM3.69 11.8V12H3.97L3.69 11.8ZM4.08 12.08V12.3H4.37L4.08 12.08ZM6 12.08L5.71 12.3H6V12.08Z" fill="#D22630"/>
<path d="M5.69 10.54C5.69 10.54 6.38 11.05 6.39 11.06V11.78C6.39 11.78 5.69 12.29 5.69 12.3H4.39C4.39 12.3 3.7 11.79 3.69 11.78V11.06C3.69 11.06 4.39 10.55 4.39 10.54H5.69Z" fill="#00843D"/>
<path d="M3.86 11.86L3.78 11.77L3.86 11.68L3.78 11.59L3.86 11.5L3.78 11.41L3.86 11.32L3.78 11.23L3.86 11.14L3.78 11.05L3.86 10.96H6.22L6.3 11.05L6.22 11.14L6.3 11.23L6.22 11.32L6.3 11.41L6.22 11.5L6.3 11.59L6.22 11.68L6.3 11.77L6.22 11.86H3.86ZM5.48 10.66L5.39 10.58L5.3 10.66L5.21 10.58L5.12 10.66L5.03 10.58L4.94 10.66L4.85 10.58L4.76 10.66L4.67 10.58L4.58 10.66V12.19L4.67 12.27L4.76 12.19L4.85 12.27L4.94 12.19L5.03 12.27L5.12 12.19L5.21 12.27L5.3 12.19L5.39 12.27L5.48 12.19V10.66Z" fill="#383739"/>
<path d="M5.3 10.66L5.22 10.59L5.14 10.66V12.18L5.22 12.25L5.3 12.18V10.66Z" fill="#FFC72C"/>
<path d="M4.95 10.66L4.87 10.59L4.79 10.66V12.18L4.87 12.25L4.95 12.18V10.66Z" fill="#FFC72C"/>
<path d="M3.86 11.85L3.79 11.77L3.86 11.69H6.21L6.28 11.77L6.21 11.85H3.86Z" fill="#FFC72C"/>
<path d="M6.22 11.34L6.29 11.42L6.22 11.5H3.87L3.8 11.42L3.87 11.34H6.22Z" fill="#FFC72C"/>
<path d="M6.22 11.15L6.29 11.07L6.22 10.99H3.87L3.8 11.07L3.87 11.15H6.22Z" fill="#FFC72C"/>
<path d="M5.47 10.66L5.39 10.59L5.31 10.66V12.18L5.39 12.25L5.47 12.18V10.66Z" fill="#D22630"/>
<path d="M4.77 10.66L4.69 10.59L4.61 10.66V12.18L4.69 12.25L4.77 12.18V10.66Z" fill="#D22630"/>
<path d="M3.86 11.68L3.79 11.6L3.86 11.52H6.21L6.28 11.6L6.21 11.68H3.86Z" fill="#D22630"/>
<path d="M3.86 11.33L3.79 11.25L3.86 11.17H6.21L6.28 11.25L6.21 11.33H3.86Z" fill="#D22630"/>
<path d="M5.12 12.18L5.04 12.25L4.96 12.18V10.66L5.04 10.59L5.12 10.66V12.18Z" fill="#D22630"/>
<path d="M5.83 10.69H4.24V10.82H4.04V12.02H4.24V12.15H5.83V12.02H6.03V10.82H5.83V10.69Z" fill="#383739"/>
<path d="M4.26 10.7V10.83H4.06V12.01H4.26V12.14H4.43L4.1 11.86V10.98L4.43 10.7H4.26ZM5.66 10.7L5.99 10.98V11.86L5.66 12.14H5.83V12.01H6.03V10.83H5.83V10.7H5.66Z" fill="#D22630"/>
<path d="M4.44 10.7C4.44 10.7 4.11 10.98 4.1 10.98V11.85L4.44 12.13H5.64C5.64 12.13 5.97 11.85 5.98 11.85V10.98C5.98 10.98 5.65 10.7 5.64 10.7H4.44ZM4.46 10.75H5.62L5.93 11.01V11.83L5.62 12.09H4.46L4.15 11.83V11.01L4.46 10.75Z" fill="#00843D"/>
<path d="M4.77 11.84L4.82 11.86V11.92L4.76 11.98L4.86 12.07H4.77L4.7 12.01L4.63 12.07H4.54L4.64 11.98L4.57 11.92V11.86L4.63 11.84L4.7 11.89L4.76 11.84H4.77Z" fill="#00843D"/>
<path d="M5.11 11.84L5.16 11.86V11.92L5.1 11.98L5.2 12.07H5.11L5.04 12.01L4.97 12.07H4.88L4.98 11.98L4.91 11.92V11.86L4.97 11.84L5.04 11.89L5.1 11.84H5.11Z" fill="#00843D"/>
<path d="M5.31 11.84L5.26 11.86V11.92L5.32 11.98L5.22 12.07H5.31L5.38 12.01L5.45 12.07H5.54L5.44 11.98L5.51 11.92V11.86L5.45 11.84L5.38 11.89L5.32 11.84H5.31Z" fill="#00843D"/>
<path d="M4.77 11L4.82 10.98V10.92L4.76 10.86L4.86 10.77H4.77L4.7 10.83L4.63 10.77H4.54L4.64 10.86L4.57 10.92V10.98L4.63 11L4.7 10.95L4.76 11H4.77Z" fill="#00843D"/>
<path d="M5.11 11L5.16 10.98V10.92L5.1 10.86L5.2 10.77H5.11L5.04 10.83L4.97 10.77H4.88L4.98 10.86L4.91 10.92V10.98L4.97 11L5.04 10.95L5.1 11H5.11Z" fill="#00843D"/>
<path d="M5.31 11L5.26 10.98V10.92L5.32 10.86L5.22 10.77H5.31L5.38 10.83L5.45 10.77H5.54L5.44 10.86L5.51 10.92V10.98L5.45 11L5.38 10.95L5.32 11H5.31Z" fill="#00843D"/>
<path d="M5.92 11.09L5.87 11.13L5.92 11.17V11.24L5.84 11.17C5.84 11.17 5.79 11.22 5.78 11.22H5.72C5.72 11.22 5.7 11.19 5.7 11.18L5.75 11.13L5.7 11.08L5.72 11.04H5.78L5.84 11.09L5.92 11.02V11.09Z" fill="#00843D"/>
<path d="M5.92 11.38L5.87 11.42L5.92 11.46V11.53L5.84 11.46C5.84 11.46 5.79 11.51 5.78 11.51H5.72C5.72 11.51 5.7 11.48 5.7 11.47L5.75 11.42L5.7 11.37L5.72 11.33H5.78L5.84 11.38L5.92 11.31V11.38Z" fill="#00843D"/>
<path d="M5.92 11.75L5.87 11.71L5.92 11.67V11.6L5.84 11.67C5.84 11.67 5.79 11.62 5.78 11.62H5.72C5.72 11.62 5.7 11.65 5.7 11.66L5.75 11.71L5.7 11.76L5.72 11.8H5.78L5.84 11.75L5.92 11.82V11.75Z" fill="#00843D"/>
<path d="M4.16 11.09L4.21 11.13L4.16 11.17V11.24L4.24 11.17C4.24 11.17 4.29 11.22 4.3 11.22H4.36C4.36 11.22 4.38 11.19 4.38 11.18L4.33 11.13L4.38 11.08L4.36 11.04H4.3L4.24 11.09L4.16 11.02V11.09Z" fill="#00843D"/>
<path d="M4.16 11.38L4.21 11.42L4.16 11.46V11.53L4.24 11.46C4.24 11.46 4.29 11.51 4.3 11.51H4.36C4.36 11.51 4.38 11.48 4.38 11.47L4.33 11.42L4.38 11.37L4.36 11.33H4.3L4.24 11.38L4.16 11.31V11.38Z" fill="#00843D"/>
<path d="M4.16 11.75L4.21 11.71L4.16 11.67V11.6L4.24 11.67C4.24 11.67 4.29 11.62 4.3 11.62H4.36C4.36 11.62 4.38 11.65 4.38 11.66L4.33 11.71L4.38 11.76L4.36 11.8H4.3L4.24 11.75L4.16 11.82V11.75Z" fill="#00843D"/>
<path d="M4.46 10.76C4.46 10.76 4.18 11 4.16 11.01C4.19 11.03 4.21 11.05 4.23 11.07L4.29 11.02H4.36L4.39 11.08C4.39 11.08 4.35 11.12 4.34 11.13L4.39 11.18L4.36 11.23H4.29C4.29 11.23 4.24 11.2 4.23 11.19L4.15 11.26V11.28C4.15 11.28 4.2 11.32 4.23 11.35L4.29 11.3H4.36L4.39 11.36C4.39 11.36 4.35 11.4 4.34 11.41L4.39 11.46L4.36 11.51H4.29C4.29 11.51 4.24 11.47 4.23 11.47L4.15 11.54V11.56L4.23 11.63L4.29 11.58H4.36L4.39 11.64C4.39 11.64 4.35 11.68 4.34 11.69L4.39 11.74L4.36 11.79H4.29C4.29 11.79 4.24 11.76 4.23 11.75C4.2 11.77 4.18 11.79 4.16 11.81C4.17 11.82 4.45 12.05 4.46 12.06H4.52L4.61 11.97L4.55 11.92V11.85L4.62 11.82L4.68 11.87L4.74 11.82L4.8 11.85V11.92L4.75 11.97L4.84 12.06L4.93 11.97L4.87 11.92V11.85L4.95 11.82L5.01 11.87L5.07 11.82L5.13 11.85V11.92L5.08 11.97L5.17 12.06L5.26 11.97L5.2 11.92V11.85L5.28 11.82L5.34 11.87L5.4 11.82L5.46 11.85V11.92L5.41 11.97L5.5 12.06H5.56C5.56 12.06 5.84 11.82 5.86 11.81C5.83 11.79 5.81 11.77 5.79 11.75L5.74 11.8H5.67L5.64 11.74C5.64 11.74 5.68 11.7 5.69 11.69L5.64 11.64L5.67 11.59H5.74C5.74 11.59 5.79 11.62 5.79 11.63L5.87 11.56V11.54L5.79 11.47L5.74 11.52H5.67L5.64 11.46C5.64 11.46 5.68 11.42 5.69 11.41L5.64 11.36L5.67 11.31H5.74C5.74 11.31 5.79 11.34 5.79 11.35C5.82 11.33 5.84 11.31 5.87 11.29V11.26L5.79 11.2L5.74 11.25H5.67L5.64 11.19C5.64 11.19 5.68 11.15 5.69 11.14L5.64 11.09L5.67 11.04H5.74C5.74 11.04 5.79 11.07 5.79 11.08C5.82 11.06 5.84 11.04 5.87 11.02C5.87 11.02 5.58 10.77 5.57 10.77H5.51L5.42 10.86L5.48 10.91V10.98L5.4 11.01L5.34 10.96L5.28 11.01L5.22 10.98V10.91L5.27 10.86L5.18 10.77L5.09 10.86L5.15 10.91V10.98L5.08 11.01L5.02 10.96L4.96 11.01L4.9 10.98V10.91L4.95 10.86L4.86 10.77L4.77 10.86L4.83 10.91V10.98L4.75 11.01L4.69 10.96L4.63 11.01L4.57 10.98V10.91L4.62 10.86L4.52 10.77H4.46V10.76ZM4.16 11.39V11.45L4.19 11.42L4.16 11.39Z" fill="#D22630"/>
<path d="M4.7 12.03L4.65 12.08H4.75L4.7 12.03Z" fill="white"/>
<path d="M5.04001 12.03L4.99001 12.08H5.09001L5.04001 12.03Z" fill="white"/>
<path d="M5.38 12.03L5.33 12.08H5.43L5.38 12.03Z" fill="white"/>
<path d="M4.65 10.76L4.7 10.81L4.75 10.76H4.65Z" fill="white"/>
<path d="M4.99001 10.76L5.04001 10.81L5.09001 10.76H4.99001Z" fill="white"/>
<path d="M5.33 10.76L5.38 10.81L5.43 10.76H5.33Z" fill="white"/>
<path d="M5.92001 11.11L5.89001 11.14L5.92001 11.17V11.11Z" fill="white"/>
<path d="M5.92001 11.39L5.89001 11.42L5.92001 11.45V11.39Z" fill="white"/>
<path d="M5.92001 11.68L5.89001 11.71L5.92001 11.74V11.68Z" fill="white"/>
<path d="M4.16 11.11V11.17L4.19 11.14L4.16 11.11Z" fill="white"/>
<path d="M4.16 11.39V11.45L4.19 11.42L4.16 11.39Z" fill="white"/>
<path d="M4.16 11.67V11.73L4.19 11.7L4.16 11.67Z" fill="white"/>
<path d="M5.33 11.33V11.23H5.23V11.12H4.85V11.23H4.75V11.33H4.61V11.52H4.75V11.62H4.85V11.73H5.23V11.62H5.33V11.52H5.47V11.33H5.33Z" fill="#383739"/>
<path d="M5.03 11.13V11.24L4.87 11.33V11.41H4.62V11.33H4.76V11.23H4.86V11.12H5.03V11.13Z" fill="#FFC72C"/>
<path d="M5.05 11.72V11.61L5.21 11.52V11.44H5.46V11.52H5.32V11.62H5.22V11.73H5.05V11.72Z" fill="#FFC72C"/>
<path d="M5.21 11.41V11.33L5.05 11.24V11.13H5.22V11.24H5.32V11.34H5.46V11.42H5.21V11.41Z" fill="white"/>
<path d="M4.62 11.43H4.87V11.51L5.03 11.6V11.71H4.86V11.6H4.76V11.5H4.62V11.42V11.43Z" fill="white"/>
<path d="M4.88 11.43V11.51L5.03 11.6V11.44H4.88V11.43Z" fill="#D22630"/>
<path d="M5.03 11.25L4.88 11.34V11.42H5.03V11.26V11.25Z" fill="#00843D"/>
<path d="M5.2 11.41V11.33L5.05 11.24V11.4H5.2V11.41Z" fill="#D22630"/>
<path d="M5.05 11.59L5.2 11.5V11.42H5.05V11.58V11.59Z" fill="#00843D"/>
<path d="M3.67 13.43V13.74H3.37V14.02H3.07V14.83H3.37V15.11H3.67V15.42H4.75L4.94 15.53L4.85 15.58H4.46L4.43 15.54H4.78L4.68 15.44H4.18L4.41 15.68H4.88L5.04 15.58L5.2 15.68H5.67L5.9 15.44H5.4L5.3 15.54H5.65L5.62 15.58H5.23L5.14 15.53L5.33 15.42H6.41V15.11H6.71V14.83H7.01V14.02H6.71V13.74H6.41V13.43H5.33L5.14 13.32L5.23 13.27H5.62L5.65 13.31H5.3L5.4 13.41H5.9L5.67 13.17H5.2L5.04 13.27L4.88 13.17H4.41L4.18 13.41H4.68L4.78 13.31H4.43L4.46 13.27H4.85L4.94 13.32L4.75 13.43H3.67Z" fill="#D22630"/>
<path d="M5.32 15.42H6.39V15.11H6.69V14.83H6.99V14.05H6.69V13.77H6.39V13.46H5.32L4.87 13.19H4.41L4.21 13.4H4.68L4.76 13.32H4.41L4.46 13.26H4.86L5.37 13.57H6.29V13.88H6.59V14.16H6.89V14.72H6.59V15H6.29V15.31H5.37L4.86 15.61H4.46L4.41 15.55H4.76L4.68 15.47H4.21L4.41 15.68H4.87L5.32 15.41V15.42ZM4.72 15.3H3.8V14.99H3.5V14.71H3.2V14.15H3.5V13.87H3.8V13.56H4.72L5.23 13.25H5.62L5.67 13.31H5.32L5.4 13.39H5.87L5.67 13.18H5.21L4.76 13.45H3.69V13.76H3.39V14.04H3.09V14.82H3.39V15.1H3.69V15.41H4.76L5.21 15.68H5.67L5.87 15.47H5.4L5.32 15.55H5.67L5.62 15.61H5.23L4.72 15.31V15.3Z" fill="#FFC72C"/>
<path d="M6.2 14.9V15.21H5.34L5.04 15.39L4.74 15.21H3.88V14.9H3.58V14.62H3.28V14.24H3.58V13.96H3.88V13.65H4.74L5.04 13.47L5.34 13.65H6.2V13.96H6.5V14.24H6.8V14.62H6.5V14.9H6.2Z" fill="#00843D"/>
<path d="M4 14.79V15.09H4.47L4 14.78V14.79Z" fill="#383739"/>
<path d="M4 14.06V13.76H4.47L4 14.07V14.06Z" fill="#383739"/>
<path d="M6.08 14.79V15.09H5.61L6.08 14.78V14.79Z" fill="#383739"/>
<path d="M6.08 14.06V13.76H5.61L6.08 14.07V14.06Z" fill="#383739"/>
<path d="M4.01 14.8L4.43 15.08H4.01V14.8Z" fill="#D22630"/>
<path d="M4.01 14.05C4.01 14.05 4.4 13.79 4.43 13.77H4.01V14.05Z" fill="#D22630"/>
<path d="M6.07 14.8C6.07 14.8 5.68 15.06 5.65 15.08H6.07V14.8Z" fill="#D22630"/>
<path d="M6.07 14.05C6.07 14.05 5.68 13.79 5.65 13.77H6.07V14.05Z" fill="#D22630"/>
<path d="M4.6 14.35V14.2H4.55L4.3 14.04L4.05 14.2H4V14.35H3.88V14.52H4V14.67H4.05L4.3 14.83L4.55 14.67H4.6V14.52H4.78V14.35H4.6Z" fill="#383739"/>
<path d="M4.29 14.05L4.52 14.19H4.06L4.29 14.05ZM4.52 14.67L4.29 14.81L4.06 14.67H4.52Z" fill="#D22630"/>
<path d="M4.47 14.36V14.5H4.18V14.36H4.47Z" fill="#D22630"/>
<path d="M4.59 14.51V14.65H4.3V14.51H4.59Z" fill="#FFC72C"/>
<path d="M4.29 14.51V14.65H4V14.51H4.29Z" fill="#FFC72C"/>
<path d="M4.77 14.36V14.5H4.48V14.36H4.77Z" fill="#FFC72C"/>
<path d="M4.17 14.36V14.5H3.88V14.36H4.17Z" fill="#FFC72C"/>
<path d="M4.59 14.2V14.34H4.3V14.2H4.59Z" fill="#FFC72C"/>
<path d="M4.29 14.2V14.34H4V14.2H4.29Z" fill="#FFC72C"/>
<path d="M4.09 14.39V14.47H3.96V14.39H4.09Z" fill="#383739"/>
<path d="M4.21 14.23V14.31H4.08V14.23H4.21Z" fill="#383739"/>
<path d="M4.51 14.23V14.31H4.38V14.23H4.51Z" fill="#383739"/>
<path d="M4.39 14.39V14.47H4.26V14.39H4.39Z" fill="#383739"/>
<path d="M4.69 14.39V14.47H4.56V14.39H4.69Z" fill="#383739"/>
<path d="M4.51 14.54V14.62H4.38V14.54H4.51Z" fill="#383739"/>
<path d="M4.21 14.54V14.62H4.08V14.54H4.21Z" fill="#383739"/>
<path d="M4.07999 14.4H3.96999V14.46H4.07999V14.4Z" fill="white"/>
<path d="M4.2 14.25H4.09V14.31H4.2V14.25Z" fill="white"/>
<path d="M4.49999 14.25H4.38999V14.31H4.49999V14.25Z" fill="white"/>
<path d="M4.38 14.4H4.27V14.46H4.38V14.4Z" fill="white"/>
<path d="M4.67999 14.4H4.56999V14.46H4.67999V14.4Z" fill="white"/>
<path d="M4.49999 14.56H4.38999V14.62H4.49999V14.56Z" fill="white"/>
<path d="M4.2 14.56H4.09V14.62H4.2V14.56Z" fill="white"/>
<path d="M5.48 14.35V14.2H5.53L5.78 14.04L6.03 14.2H6.08V14.35H6.2V14.52H6.08V14.67H6.03L5.78 14.83L5.53 14.67H5.48V14.52H5.3V14.35H5.48Z" fill="#383739"/>
<path d="M5.79001 14.05L5.56001 14.19H6.02001L5.79001 14.05ZM5.56001 14.67L5.79001 14.81L6.02001 14.67H5.56001Z" fill="#D22630"/>
<path d="M5.61 14.36V14.5H5.9V14.36H5.61Z" fill="#D22630"/>
<path d="M5.49001 14.51V14.65H5.78001V14.51H5.49001Z" fill="#FFC72C"/>
<path d="M5.79001 14.51V14.65H6.08001V14.51H5.79001Z" fill="#FFC72C"/>
<path d="M5.31001 14.36V14.5H5.60001V14.36H5.31001Z" fill="#FFC72C"/>
<path d="M5.91 14.36V14.5H6.2V14.36H5.91Z" fill="#FFC72C"/>
<path d="M5.49001 14.2V14.34H5.78001V14.2H5.49001Z" fill="#FFC72C"/>
<path d="M5.79001 14.2V14.34H6.08001V14.2H5.79001Z" fill="#FFC72C"/>
<path d="M5.99 14.39V14.47H6.12V14.39H5.99Z" fill="#383739"/>
<path d="M5.87 14.23V14.31H6V14.23H5.87Z" fill="#383739"/>
<path d="M5.57 14.23V14.31H5.7V14.23H5.57Z" fill="#383739"/>
<path d="M5.69 14.39V14.47H5.82V14.39H5.69Z" fill="#383739"/>
<path d="M5.39 14.39V14.47H5.52V14.39H5.39Z" fill="#383739"/>
<path d="M5.57 14.54V14.62H5.7V14.54H5.57Z" fill="#383739"/>
<path d="M5.87 14.54V14.62H6V14.54H5.87Z" fill="#383739"/>
<path d="M6 14.4H6.11V14.46H6V14.4Z" fill="white"/>
<path d="M5.88 14.25H5.99V14.31H5.88V14.25Z" fill="white"/>
<path d="M5.58 14.25H5.69V14.31H5.58V14.25Z" fill="white"/>
<path d="M5.7 14.4H5.81V14.46H5.7V14.4Z" fill="white"/>
<path d="M5.4 14.4H5.51V14.46H5.4V14.4Z" fill="white"/>
<path d="M5.58 14.56H5.69V14.62H5.58V14.56Z" fill="white"/>
<path d="M5.88 14.56H5.99V14.62H5.88V14.56Z" fill="white"/>
<path d="M5.35 14.09V14.24H5.3L5.05 14.4L4.8 14.24H4.75V14.09H4.6V13.92H4.75V13.77H4.8L5.05 13.61L5.3 13.77H5.35V13.92H5.5V14.09H5.35Z" fill="#383739"/>
<path d="M5.04 14.39L5.27 14.25H4.81L5.04 14.39ZM5.27 13.77L5.04 13.63L4.81 13.77H5.27Z" fill="#FFC72C"/>
<path d="M5.32999 13.92V13.78H5.03999V13.92H5.32999Z" fill="#D22630"/>
<path d="M5.03 13.92V13.78H4.74V13.92H5.03Z" fill="#D22630"/>
<path d="M5.47999 14.08V13.94H5.18999V14.08H5.47999Z" fill="#D22630"/>
<path d="M5.18 14.08V13.94H4.89V14.08H5.18Z" fill="#D22630"/>
<path d="M4.88 14.08V13.94H4.59V14.08H4.88Z" fill="#D22630"/>
<path d="M5.32999 14.23V14.09H5.03999V14.23H5.32999Z" fill="#D22630"/>
<path d="M5.03 14.23V14.09H4.74V14.23H5.03Z" fill="#D22630"/>
<path d="M4.94999 13.81V13.89H4.81999V13.81H4.94999Z" fill="#383739"/>
<path d="M5.25 13.81V13.89H5.12V13.81H5.25Z" fill="#383739"/>
<path d="M4.80999 13.97V14.05H4.67999V13.97H4.80999Z" fill="#383739"/>
<path d="M5.09999 13.97V14.05H4.96999V13.97H5.09999Z" fill="#383739"/>
<path d="M5.39999 13.97V14.05H5.26999V13.97H5.39999Z" fill="#383739"/>
<path d="M4.94999 14.12V14.2H4.81999V14.12H4.94999Z" fill="#383739"/>
<path d="M5.25 14.12V14.2H5.12V14.12H5.25Z" fill="#383739"/>
<path d="M4.93999 13.82H4.82999V13.88H4.93999V13.82Z" fill="white"/>
<path d="M5.23999 13.82H5.12999V13.88H5.23999V13.82Z" fill="white"/>
<path d="M4.78999 13.98H4.67999V14.04H4.78999V13.98Z" fill="white"/>
<path d="M5.09 13.98H4.98V14.04H5.09V13.98Z" fill="white"/>
<path d="M5.38999 13.98H5.27999V14.04H5.38999V13.98Z" fill="white"/>
<path d="M4.93999 14.13H4.82999V14.19H4.93999V14.13Z" fill="white"/>
<path d="M5.23999 14.13H5.12999V14.19H5.23999V14.13Z" fill="white"/>
<path d="M5.35 14.94V15.09H5.3L5.05 15.25L4.8 15.09H4.75V14.94H4.6V14.77H4.75V14.62H4.8L5.05 14.46L5.3 14.62H5.35V14.77H5.5V14.94H5.35Z" fill="#383739"/>
<path d="M5.04 15.23L5.27 15.09H4.81L5.04 15.23ZM5.27 14.62L5.04 14.48L4.81 14.62H5.27Z" fill="#FFC72C"/>
<path d="M5.32999 14.77V14.63H5.03999V14.77H5.32999Z" fill="#D22630"/>
<path d="M5.03 14.77V14.63H4.74V14.77H5.03Z" fill="#D22630"/>
<path d="M5.47999 14.92V14.78H5.18999V14.92H5.47999Z" fill="#D22630"/>
<path d="M5.18 14.92V14.78H4.89V14.92H5.18Z" fill="#D22630"/>
<path d="M4.88 14.92V14.78H4.59V14.92H4.88Z" fill="#D22630"/>
<path d="M5.32999 15.08V14.94H5.03999V15.08H5.32999Z" fill="#D22630"/>
<path d="M5.03 15.08V14.94H4.74V15.08H5.03Z" fill="#D22630"/>
<path d="M4.94999 14.66V14.74H4.81999V14.66H4.94999Z" fill="#383739"/>
<path d="M5.25 14.66V14.74H5.12V14.66H5.25Z" fill="#383739"/>
<path d="M4.80999 14.81V14.89H4.67999V14.81H4.80999Z" fill="#383739"/>
<path d="M5.09999 14.81V14.89H4.96999V14.81H5.09999Z" fill="#383739"/>
<path d="M5.39999 14.81V14.89H5.26999V14.81H5.39999Z" fill="#383739"/>
<path d="M4.94999 14.97V15.05H4.81999V14.97H4.94999Z" fill="#383739"/>
<path d="M5.25 14.97V15.05H5.12V14.97H5.25Z" fill="#383739"/>
<path d="M4.93999 14.67H4.82999V14.73H4.93999V14.67Z" fill="white"/>
<path d="M5.23999 14.67H5.12999V14.73H5.23999V14.67Z" fill="white"/>
<path d="M4.78999 14.82H4.67999V14.88H4.78999V14.82Z" fill="white"/>
<path d="M5.09 14.82H4.98V14.88H5.09V14.82Z" fill="white"/>
<path d="M5.38999 14.82H5.27999V14.88H5.38999V14.82Z" fill="white"/>
<path d="M4.93999 14.98H4.82999V15.04H4.93999V14.98Z" fill="white"/>
<path d="M5.23999 14.98H5.12999V15.04H5.23999V14.98Z" fill="white"/>
<path d="M3.4 16.78L4.52 16.18H5.55L6.67 16.78V17.77L5.55 18.37H4.52L3.4 17.77V16.78Z" fill="#383739"/>
<path d="M4.53 16.19L3.42 16.79V17.77L4.53 18.37H5.55L6.66 17.77V16.79L5.55 16.19H4.53ZM4.55 16.27H5.53L6.58 16.84V17.73L5.53 18.3H4.55L3.5 17.73V16.84L4.55 16.27Z" fill="#00843D"/>
<path d="M5.05 17.27V18.27H5.53L6.57 17.71V17.28H5.03V16.28H4.55L3.51 16.84V17.27H5.05Z" fill="#FFC72C"/>
<path d="M5.03 17.27V18.27H4.55L3.51 17.71V17.28H5.05V16.28H5.53L6.57 16.84V17.27H5.03Z" fill="white"/>
<path d="M5.13 18.22V17.93L5.04 17.99L4.95 17.93V18.22H4.66L4.86 18.08V17.87L4.56 17.68H4.35V16.88H4.56L4.86 16.69V16.48L4.66 16.34H4.95V16.63L5.04 16.57L5.13 16.63V16.34H5.42L5.22 16.48V16.69L5.52 16.88H5.73V17.68H5.52L5.22 17.87V18.08L5.42 18.22H5.13Z" fill="#383739"/>
<path d="M5.15 16.35V16.65L5.05 16.59V16.67L5.51 16.96H5.66V17.27H5.73V16.89H5.53L5.22 16.7V16.48L5.39 16.35H5.14H5.15ZM4.35 17.28V17.66H4.55L4.86 17.86V18.08L4.69 18.21H4.94V17.91L5.04 17.97V17.88L4.58 17.59H4.43V17.28H4.36H4.35Z" fill="#FFC72C"/>
<path d="M4.69 16.35L4.86 16.48V16.7L4.55 16.89H4.35V17.27H4.42V16.96H4.57L5.03 16.67V16.58L4.93 16.64V16.34H4.68L4.69 16.35ZM5.66 17.28V17.59H5.51L5.05 17.88V17.97L5.15 17.91V18.21H5.4L5.23 18.08V17.86L5.54 17.66H5.74V17.28H5.67H5.66Z" fill="white"/>
<path d="M4.44 17.58H4.58L5.04 17.87L5.5 17.58H5.64V16.97H5.5L5.04 16.68L4.58 16.97H4.44V17.58Z" fill="#D22630"/>
<path d="M5.36 17.42H5.46V17.37H5.39V17.29H5.55V17.51H5.4V17.66H5.09V17.45H5.23V17.53H5.18V17.57H5.32V17.49L4.73 17.13H4.63V17.18H4.7V17.26H4.54V17.04H4.69V16.89H5V17.1H4.86V17.02H4.91V16.98H4.77V17.06L5.36 17.42ZM5.31 17.06V16.98H5.17V17.02H5.22V17.1H5.08V16.89H5.39V17.04H5.54V17.26H5.38V17.18H5.45V17.13H5.35L4.76 17.49V17.57H4.9V17.53H4.85V17.45H4.99V17.66H4.68V17.51H4.53V17.29H4.69V17.37H4.62V17.42H4.72L5.31 17.06Z" fill="#383739"/>
<path d="M5.32 17.48V17.58H5.15V17.51H5.2V17.45H5.09V17.64H5.38V17.49H5.53V17.3H5.39V17.36H5.46V17.43H5.35L4.76 17.07V16.97H4.93V17.04H4.88V17.1H4.99V16.91H4.7V17.06H4.55V17.25H4.69V17.19H4.62V17.12H4.73L5.32 17.48ZM5.36 17.12H5.47V17.19H5.4V17.25H5.54V17.06H5.39V16.91H5.1V17.1H5.21V17.04H5.16V16.97H5.33V17.07L4.74 17.43H4.63V17.36H4.7V17.3H4.56V17.49H4.71V17.64H5V17.45H4.89V17.51H4.94V17.58H4.77V17.48L5.36 17.12Z" fill="white"/>
<path d="M6.35 17.33V17.64H6.22V17.53H6.09V17.64H5.96V17.33H6.09V17.44H6.22V17.33H6.35Z" fill="#383739"/>
<path d="M5.87 17.74V18.05H5.74V17.94H5.61V18.05H5.48V17.74H5.61V17.85H5.74V17.74H5.87Z" fill="#383739"/>
<path d="M6.35 17.23V16.92H6.22V17.03H6.09V16.92H5.96V17.23H6.09V17.12H6.22V17.23H6.35Z" fill="#383739"/>
<path d="M3.73 17.33V17.64H3.86V17.53H3.99V17.64H4.12V17.33H3.99V17.44H3.86V17.33H3.73Z" fill="#383739"/>
<path d="M3.73 17.23V16.92H3.86V17.03H3.99V16.92H4.12V17.23H3.99V17.12H3.86V17.23H3.73Z" fill="#383739"/>
<path d="M5.87 16.81V16.5H5.74V16.61H5.61V16.5H5.48V16.81H5.61V16.7H5.74V16.81H5.87Z" fill="#383739"/>
<path d="M4.21 17.74V18.05H4.34V17.94H4.47V18.05H4.6V17.74H4.47V17.85H4.34V17.74H4.21Z" fill="#383739"/>
<path d="M4.21 16.81V16.5H4.34V16.61H4.47V16.5H4.6V16.81H4.47V16.7H4.34V16.81H4.21Z" fill="#383739"/>
<path d="M5.95 16.59V16.83H6.39L5.95 16.59Z" fill="#383739"/>
<path d="M4.13 17.96V17.72H3.69L4.13 17.96Z" fill="#383739"/>
<path d="M4.13 16.59V16.83H3.69L4.13 16.59Z" fill="#383739"/>
<path d="M5.95 17.96V17.72H6.39L5.95 17.96Z" fill="#383739"/>
<path d="M6.23 17.52V17.63H6.34V17.34H6.23V17.45H6.07V17.34H5.96V17.63H6.07V17.52H6.23Z" fill="#D22630"/>
<path d="M5.75 17.93V18.04H5.86V17.75H5.75V17.86H5.59V17.75H5.48V18.04H5.59V17.93H5.75Z" fill="#D22630"/>
<path d="M6.23 17.03V16.92H6.34V17.21H6.23V17.1H6.07V17.21H5.96V16.92H6.07V17.03H6.23Z" fill="#D22630"/>
<path d="M3.85 17.52V17.63H3.74V17.34H3.85V17.45H4.01V17.34H4.12V17.63H4.01V17.52H3.85Z" fill="#D22630"/>
<path d="M3.85 17.03V16.92H3.74V17.21H3.85V17.1H4.01V17.21H4.12V16.92H4.01V17.03H3.85Z" fill="#D22630"/>
<path d="M5.75 16.62V16.51H5.86V16.8H5.75V16.69H5.59V16.8H5.48V16.51H5.59V16.62H5.75Z" fill="#D22630"/>
<path d="M4.33 17.93V18.04H4.22V17.75H4.33V17.86H4.49V17.75H4.6V18.04H4.49V17.93H4.33Z" fill="#D22630"/>
<path d="M4.33 16.62V16.51H4.22V16.8H4.33V16.69H4.49V16.8H4.6V16.51H4.49V16.62H4.33Z" fill="#D22630"/>
<path d="M5.96 16.61V16.82H6.35L5.96 16.61ZM3.73 17.74L4.12 17.95V17.74H3.73Z" fill="#FFC72C"/>
<path d="M4.12 16.61L3.73 16.82H4.12V16.61ZM5.96 17.74V17.95L6.35 17.74H5.96Z" fill="white"/>
<path d="M6.85 18.15C6.83 18.24 6.76 18.31 6.74 18.4C6.71 18.3 6.67 18.22 6.7 18.11C6.72 18.03 6.78 17.98 6.79 17.9C6.86 17.96 6.88 18.05 6.85 18.15ZM6.87 18.53C6.81 18.61 6.73 18.67 6.64 18.72C6.66 18.65 6.62 18.59 6.59 18.54C6.54 18.47 6.52 18.4 6.56 18.32C6.58 18.36 6.6 18.4 6.63 18.43C6.67 18.48 6.7 18.53 6.7 18.6C6.75 18.57 6.77 18.51 6.79 18.46C6.83 18.39 6.89 18.33 6.96 18.29C6.94 18.37 6.93 18.45 6.88 18.52L6.87 18.53ZM6.53 18.78C6.53 18.78 6.55 18.87 6.55 18.92C6.59 18.88 6.64 18.85 6.69 18.81C6.75 18.76 6.83 18.72 6.88 18.66C6.88 18.76 6.83 18.84 6.75 18.89C6.67 18.95 6.57 18.99 6.49 19.05C6.5 18.96 6.47 18.89 6.44 18.81C6.42 18.73 6.44 18.65 6.49 18.6C6.49 18.67 6.51 18.72 6.53 18.78ZM6.35 19.07C6.33 19.14 6.29 19.19 6.25 19.25C6.34 19.22 6.42 19.18 6.5 19.13C6.59 19.08 6.7 19.05 6.78 18.98C6.74 19.14 6.63 19.23 6.48 19.28C6.37 19.31 6.29 19.3 6.16 19.35C6.17 19.26 6.2 19.17 6.24 19.09C6.27 19.03 6.31 18.98 6.33 18.92C6.36 18.97 6.37 19.02 6.36 19.08L6.35 19.07ZM6.02 19.32C5.99 19.37 5.95 19.42 5.9 19.45C6.02 19.45 6.13 19.38 6.25 19.38C6.33 19.38 6.4 19.4 6.47 19.39C6.38 19.45 6.28 19.51 6.17 19.52C6.03 19.54 5.89 19.5 5.73 19.52C5.8 19.47 5.84 19.4 5.89 19.32C5.95 19.23 6.01 19.16 6.12 19.14C6.07 19.19 6.05 19.26 6.01 19.32H6.02ZM5.58 19.52C5.8 19.56 6.01 19.61 6.24 19.61C5.99 19.7 5.75 19.71 5.5 19.62C5.37 19.57 5.26 19.54 5.16 19.55C5.01 19.56 4.83 19.62 4.63 19.83L4.55 19.77C4.84 19.51 5.21 19.46 5.58 19.52Z" fill="#FFC72C"/>
<mask id="mask0_161_166" style="mask-type:luminance" maskUnits="userSpaceOnUse" x="0" y="4" width="24" height="16">
<path d="M24 4H0V20H24V4Z" fill="white"/>
</mask>
<g mask="url(#mask0_161_166)">
<path d="M2.88 2.94V3.1L3.12 3.33L3.04 3.41L3.21 3.57L3.13 3.64V3.54H2.98V3.66L3.31 3.97H3.48L3.5 3.86H3.4L3.51 3.76L3.78 4L3.51 4.24L3.4 4.14H3.5L3.48 4.03H3.31L2.98 4.34V4.46H3.13V4.36L3.21 4.43L3.04 4.59L3.12 4.67L2.88 4.9V5.06L3.29 4.68L3.21 4.6L3.38 4.44L3.23 4.3L3.33 4.21L3.52 4.39L3.94 4.01L3.52 3.63L3.33 3.81L3.23 3.72L3.38 3.58L3.21 3.42L3.29 3.34L2.88 2.94ZM2.88 3.7V4.29L2.98 4.19V4.08H3.08L3.16 4L3.08 3.92H2.98V3.8L2.88 3.7ZM3.58 3.91V3.99V4.07L3.67 3.99L3.58 3.91Z" fill="#383739"/>
<path d="M2.88 2.96001V3.08001L3.14 3.32001L3.06 3.40001L3.23 3.56001L3.13 3.66001V3.54001H3V3.64001L3.33 3.95001H3.48L3.5 3.86001H3.39L3.53 3.73001L3.81 3.99001L3.53 4.25001L3.39 4.12001H3.5L3.48 4.03001H3.33L3 4.34001V4.44001H3.13V4.32001L3.23 4.42001L3.06 4.58001L3.14 4.66001L2.88 4.90001V5.02001L3.27 4.65001L3.19 4.57001L3.36 4.41001L3.21 4.27001L3.33 4.16001L3.52 4.34001L3.92 3.97001L3.52 3.60001L3.33 3.78001L3.21 3.67001L3.36 3.53001L3.19 3.37001L3.27 3.29001L2.88 2.96001ZM2.88 3.72001V4.28001L2.96 4.20001V4.08001H3.07L3.14 4.01001L3.07 3.94001H2.96V3.82001L2.88 3.74001V3.72001ZM3.59 3.93001V3.99001V4.05001L3.65 3.99001L3.59 3.93001Z" fill="#FFC72C"/>
<path d="M7.2 2.94V3.1L6.96 3.33L7.04 3.41L6.87 3.57L6.95 3.64V3.54H7.1V3.66L6.77 3.97H6.6L6.58 3.86H6.68L6.57 3.76L6.3 4L6.57 4.24L6.68 4.14H6.58L6.6 4.03H6.77L7.1 4.34V4.46H6.95V4.36L6.87 4.43L7.04 4.59L6.96 4.67L7.2 4.9V5.06L6.79 4.68L6.87 4.6L6.7 4.44L6.85 4.3L6.75 4.21L6.56 4.39L6.14 4.01L6.56 3.63L6.75 3.81L6.85 3.72L6.7 3.58L6.87 3.42L6.79 3.34L7.2 2.94ZM7.2 3.7V4.29L7.1 4.19V4.08H7L6.92 4L7 3.92H7.1V3.8L7.2 3.7ZM6.5 3.91V3.99V4.07L6.41 3.99L6.5 3.91Z" fill="#383739"/>
<path d="M7.2 2.96V3.08L6.94 3.32L7.02 3.4L6.85 3.56L6.95 3.66V3.54H7.08V3.64L6.75 3.95H6.6L6.58 3.86H6.69L6.55 3.73L6.27 3.99L6.55 4.25L6.69 4.12H6.58L6.6 4.03H6.75L7.08 4.34V4.44H6.95V4.32L6.85 4.42L7.02 4.58L6.94 4.66L7.2 4.9V5.02L6.81 4.65L6.89 4.57L6.72 4.41L6.87 4.27L6.75 4.16L6.56 4.34L6.16 3.97L6.56 3.6L6.75 3.78L6.87 3.67L6.72 3.53L6.89 3.37L6.81 3.29L7.2 2.92V2.96ZM7.2 3.72V4.28L7.12 4.2V4.08H7.01L6.94 4.01L7.01 3.94H7.12V3.82L7.2 3.74V3.72ZM6.49 3.93V3.99V4.05L6.43 3.99L6.49 3.93Z" fill="#FFC72C"/>
</g>
</svg>
