<svg width="24" height="24" viewBox="0 0 24 24" fill="none" xmlns="http://www.w3.org/2000/svg">
<path d="M24 4H0V20H24V4Z" fill="#E53030"/>
<path d="M11.55 10.16L13.74 13.47L10.06 12.08L13.86 11.06L11.38 14.11L11.55 10.16Z" fill="white"/>
<path d="M8.43 15.46C6.63 15.46 5.18 13.97 5.18 12.14C5.18 10.31 6.64 8.82 8.43 8.82C9.3 8.82 10.09 9.18 10.68 9.75C9.95 8.77 8.79 8.13 7.48 8.13C5.27 8.13 3.47 9.92001 3.47 12.14C3.47 14.36 5.26 16.15 7.48 16.15C8.79 16.15 9.95 15.51 10.68 14.53C10.1 15.1 9.31 15.46 8.43 15.46Z" fill="white"/>
</svg>
