<svg width="24" height="24" viewBox="0 0 24 24" fill="none" xmlns="http://www.w3.org/2000/svg">
<path d="M0 4H24V20H0V4Z" fill="black"/>
<path d="M0 6.67H24V10.67H0V6.67ZM0 14.67H24V20H0V14.67Z" fill="#FCDC04"/>
<path d="M0 9.33H24V12H0V9.33ZM0 17.33H24V20H0V17.33Z" fill="#D90000"/>
<path d="M12 14.49C13.3752 14.49 14.49 13.3752 14.49 12C14.49 10.6248 13.3752 9.51 12 9.51C10.6248 9.51 9.51 10.6248 9.51 12C9.51 13.3752 10.6248 14.49 12 14.49Z" fill="white"/>
<path d="M11.56 10.09L11.4 9.79C11.46 9.73 11.57 9.68 11.73 9.68C11.73 9.69 11.71 10.01 11.71 10.01L11.55 10.09H11.56Z" fill="#D90000"/>
<path d="M11.56 10.11L11.39 9.79C11.46 9.71 11.58 9.67 11.73 9.67H11.74C11.74 9.67 11.72 9.98 11.72 10.01L11.55 10.11H11.56ZM11.42 9.8L11.57 10.08L11.71 10.01C11.71 9.9 11.72 9.75 11.73 9.71C11.6 9.71 11.49 9.75 11.43 9.81L11.42 9.8Z" fill="black"/>
<path d="M11.72 10.01L11.74 9.68C11.74 9.68 12.07 9.66 12.26 9.88L12.08 10.14L11.72 10.02V10.01Z" fill="#FCDC04"/>
<path d="M12.08 10.15L11.7 10.02L11.72 9.67H11.73C11.73 9.67 12.07 9.65 12.26 9.87C12.26 9.87 12.23 9.91667 12.17 10.01L12.07 10.15H12.08ZM11.73 10L12.07 10.12C12.13 10.03 12.22 9.91 12.24 9.88C12.08 9.7 11.81 9.69 11.75 9.69L11.73 10Z" fill="black"/>
<path d="M12.08 10.13L12.24 9.87C12.35 9.99 12.4 10.07 12.41 10.19C12.41 10.19 12.15 10.26 12.15 10.25C12.15 10.24 12.08 10.12 12.07 10.12L12.08 10.13Z" fill="#D90000"/>
<path d="M12.16 10.28C12.16 10.26 12.09 10.16 12.09 10.15V10.13L12.26 9.86H12.27C12.38 9.99 12.43 10.07 12.45 10.2V10.21C12.45 10.22 12.18 10.28 12.17 10.28H12.16ZM12.1 10.13C12.1 10.13 12.15 10.22 12.17 10.25C12.21 10.25 12.37 10.2 12.41 10.19C12.39 10.08 12.35 10 12.25 9.9L12.1 10.13Z" fill="black"/>
<path d="M11.64 14.35C11.64 14.35 11.95 14 12.55 14.07C12.46 13.92 12.17 13.94 12.17 13.94C12.17 13.94 12.08 13.25 12.15 13.22C12.22 13.19 12.52 13.22 12.52 13.22C12.56 13.22 12.63 13.11 12.57 13.04C12.52 12.97 12.36 12.71 12.42 12.66C12.49 12.61 12.84 12.69 12.84 12.69L11.84 11.41C11.84 11.41 11.74 10.93 11.94 10.7C12.19 10.5 12.16 10.27 12.15 10.28C12.12 10.06 11.78 9.89 11.55 10.1C11.41 10.26 11.5 10.39 11.5 10.39C11.5 10.39 11.14 10.49 11.13 10.55C11.12 10.61 11.53 10.54 11.53 10.54L11.49 10.83C11.49 10.83 10.68 11.57 11.3 12.21L11.32 12.18C11.32 12.18 11.54 12.45 11.77 12.51C11.99 12.73 11.97 12.7 11.97 12.7C11.97 12.7 12.01 13.05 11.97 13.12C11.92 13.1 11.37 13.08 11.28 13.12C11.21 13.14 10.92 13.12 10.99 13.59C11.04 13.47 11.09 13.35 11.09 13.35C11.09 13.35 11.09 13.52 11.15 13.58C11.14 13.4 11.22 13.28 11.22 13.28C11.22 13.28 11.23 13.47 11.28 13.5C11.32 13.53 11.32 13.19 11.56 13.22C11.8 13.25 11.97 13.24 11.97 13.24C11.97 13.24 12.05 13.91 12.02 13.97C11.85 13.93 11.44 13.99 11.42 14.09C11.66 14.08 11.77 14.1 11.77 14.1C11.77 14.1 11.58 14.27 11.64 14.37V14.35Z" fill="black"/>
<path d="M11.64 14.37V14.35C11.58 14.26 11.7 14.13 11.75 14.08C11.71 14.08 11.6 14.06 11.43 14.08H11.41V14.06C11.44 13.94 11.85 13.9 12.01 13.93C12.02 13.85 11.98 13.48 11.95 13.23C11.91 13.23 11.75 13.23 11.55 13.21C11.4 13.19 11.35 13.34 11.32 13.42C11.31 13.46 11.3 13.48 11.28 13.49C11.28 13.49 11.27 13.49 11.26 13.49C11.23 13.47 11.21 13.37 11.2 13.3C11.18 13.35 11.15 13.44 11.16 13.55V13.58L11.14 13.56C11.1 13.52 11.08 13.44 11.08 13.38C11.06 13.42 11.03 13.49 11 13.56L10.98 13.6V13.55C10.91 13.13 11.13 13.09 11.23 13.07C11.24 13.07 11.26 13.07 11.26 13.07C11.34 13.04 11.85 13.06 11.94 13.07C11.96 13 11.94 12.77 11.94 12.68C11.92 12.67 11.87 12.62 11.75 12.5C11.55 12.45 11.36 12.24 11.31 12.18C11.31 12.19 11.3 12.2 11.29 12.2C11.13 12.03 11.05 11.84 11.05 11.63C11.06 11.21 11.43 10.84 11.47 10.81L11.51 10.55C11.41 10.57 11.15 10.61 11.12 10.57C11.12 10.57 11.12 10.56 11.12 10.55C11.13 10.49 11.4 10.41 11.48 10.39C11.46 10.35 11.42 10.24 11.54 10.1C11.65 10 11.79 9.97 11.93 10.02C12.06 10.07 12.15 10.17 12.17 10.28C12.17 10.28 12.2 10.51 11.95 10.72C11.76 10.93 11.84 11.38 11.85 11.42L12.87 12.73H12.83C12.69 12.69 12.47 12.66 12.42 12.69C12.42 12.69 12.42 12.7 12.42 12.71C12.42 12.79 12.53 12.99 12.58 13.05C12.61 13.09 12.61 13.14 12.58 13.18C12.56 13.21 12.54 13.24 12.51 13.24C12.43 13.23 12.2 13.21 12.14 13.24C12.1 13.26 12.12 13.61 12.17 13.94C12.23 13.94 12.47 13.94 12.55 14.08V14.1H12.54C12.23 14.06 12.01 14.14 11.87 14.21C11.72 14.29 11.64 14.37 11.64 14.38H11.63L11.64 14.37ZM11.56 14.05C11.71 14.05 11.78 14.07 11.78 14.07H11.8L11.78 14.09C11.73 14.13 11.62 14.25 11.64 14.33C11.67 14.3 11.74 14.24 11.86 14.17C12 14.1 12.22 14.02 12.52 14.05C12.42 13.94 12.17 13.95 12.17 13.95H12.16V13.94C12.14 13.78 12.07 13.24 12.15 13.2C12.22 13.16 12.52 13.2 12.53 13.2C12.53 13.2 12.56 13.18 12.58 13.15C12.58 13.14 12.61 13.08 12.58 13.04C12.54 12.99 12.4 12.78 12.41 12.68C12.41 12.66 12.41 12.65 12.43 12.64C12.49 12.59 12.73 12.64 12.83 12.66L11.85 11.4C11.85 11.4 11.75 10.91 11.96 10.67C12.16 10.5 12.18 10.32 12.17 10.27V10.26C12.15 10.16 12.07 10.06 11.95 10.02C11.82 9.97 11.69 10 11.59 10.09C11.46 10.24 11.55 10.36 11.55 10.36V10.38C11.38 10.43 11.2 10.49 11.19 10.53C11.21 10.55 11.4 10.53 11.58 10.5H11.6L11.56 10.81C11.56 10.81 11.15 11.19 11.14 11.62C11.14 11.82 11.21 12 11.36 12.16C11.36 12.16 11.36 12.16 11.36 12.15V12.13L11.38 12.15C11.38 12.15 11.6 12.42 11.82 12.47C11.98 12.63 12.01 12.65 12.01 12.66H12.02V12.67C12.02 12.73 12.06 13.02 12.02 13.09H12.01C11.96 13.07 11.41 13.05 11.33 13.09C11.32 13.09 11.31 13.09 11.29 13.09C11.19 13.11 11.01 13.14 11.04 13.49C11.09 13.38 11.12 13.3 11.12 13.3H11.15C11.15 13.3 11.15 13.42 11.18 13.49C11.18 13.33 11.25 13.23 11.25 13.23L11.27 13.2V13.24C11.27 13.31 11.3 13.42 11.32 13.45C11.32 13.45 11.33 13.42 11.34 13.4C11.37 13.31 11.42 13.15 11.6 13.17C11.83 13.2 12 13.19 12 13.19H12.01V13.2C12.01 13.27 12.09 13.87 12.06 13.94H12.05C11.89 13.9 11.54 13.95 11.47 14.03C11.51 14.03 11.54 14.03 11.58 14.03L11.56 14.05Z" fill="black"/>
<path d="M11.74 10.71C11.74 10.71 11.15 11.36 11.4 11.86C11.41 11.79 11.4 11.75 11.42 11.75C11.41 11.75 11.49 11.81 11.49 11.8C11.49 11.76 11.46 11.69 11.46 11.69C11.49 11.69 11.51 11.7 11.54 11.71C11.52 11.68 11.51 11.65 11.49 11.62C11.53 11.62 11.57 11.62 11.6 11.63C11.6 11.63 11.56 11.52 11.57 11.52C11.58 11.52 11.66 11.52 11.66 11.52C11.49 11.22 11.66 10.97 11.73 10.7L11.74 10.71Z" fill="#9CA69C"/>
<path d="M11.41 11.9L11.39 11.87C11.13 11.37 11.72 10.71 11.73 10.71H11.75C11.73 10.78 11.72 10.83 11.7 10.89C11.63 11.1 11.56 11.3 11.69 11.54V11.56H11.68C11.66 11.56 11.62 11.56 11.6 11.56C11.6 11.58 11.62 11.62 11.63 11.65V11.67L11.53 11.66L11.58 11.75L11.49 11.73C11.49 11.73 11.51 11.8 11.51 11.82V11.84C11.5 11.84 11.46 11.82 11.44 11.81C11.44 11.83 11.44 11.86 11.43 11.89V11.93L11.41 11.9ZM11.71 10.77C11.59 10.93 11.23 11.42 11.4 11.81C11.4 11.8 11.4 11.78 11.4 11.77C11.4 11.76 11.4 11.75 11.4 11.75L11.41 11.73H11.42V11.74C11.42 11.74 11.45 11.76 11.46 11.77C11.46 11.74 11.44 11.7 11.44 11.68V11.66L11.51 11.68L11.47 11.6H11.59C11.56 11.53 11.57 11.52 11.57 11.52C11.57 11.52 11.61 11.52 11.64 11.52C11.52 11.28 11.59 11.08 11.66 10.87C11.67 10.84 11.68 10.8 11.69 10.77H11.71Z" fill="#9CA69C"/>
<path d="M11.94 10.15C11.94 10.15 11.97 10.37 11.85 10.44C11.83 10.45 11.75 10.48 11.76 10.53C11.77 10.59 11.81 10.58 11.86 10.57C11.99 10.55 12.14 10.27 11.94 10.16V10.15Z" fill="#9CA69C"/>
<path d="M11.81 10.59C11.81 10.59 11.79 10.59 11.78 10.59C11.77 10.59 11.76 10.56 11.75 10.54C11.74 10.49 11.79 10.47 11.82 10.45C11.82 10.45 11.83 10.45 11.84 10.45C11.95 10.39 11.93 10.18 11.93 10.17V10.14L11.95 10.15C12.03 10.2 12.06 10.28 12.05 10.37C12.03 10.47 11.95 10.57 11.87 10.59C11.87 10.59 11.84 10.59 11.82 10.59H11.81ZM11.96 10.18C11.96 10.24 11.96 10.4 11.86 10.45C11.86 10.45 11.85 10.45 11.84 10.46C11.81 10.48 11.78 10.5 11.78 10.52C11.78 10.54 11.79 10.55 11.8 10.55C11.81 10.55 11.83 10.55 11.86 10.55C11.93 10.54 12 10.44 12.02 10.35C12.02 10.31 12.02 10.23 11.96 10.17V10.18Z" fill="#9CA69C"/>
<path d="M11.68 10.4C11.7076 10.4 11.73 10.3776 11.73 10.35C11.73 10.3224 11.7076 10.3 11.68 10.3C11.6524 10.3 11.63 10.3224 11.63 10.35C11.63 10.3776 11.6524 10.4 11.68 10.4Z" fill="white"/>
<path d="M11.54 10.53C11.54 10.53 11.34 10.73 11.51 10.79C11.68 10.74 11.63 10.71 11.67 10.68C11.67 10.6 11.59 10.58 11.55 10.54L11.54 10.53Z" fill="#D90000"/>
<path d="M11.5 10.81C11.5 10.81 11.43 10.76 11.42 10.73C11.41 10.65 11.5 10.55 11.53 10.53H11.54C11.55 10.54 11.57 10.56 11.59 10.57C11.63 10.6 11.67 10.63 11.67 10.68C11.67 10.68 11.66 10.7 11.65 10.71C11.64 10.74 11.62 10.77 11.5 10.8V10.81ZM11.53 10.55C11.53 10.55 11.43 10.66 11.44 10.72C11.44 10.75 11.46 10.77 11.5 10.78C11.61 10.75 11.62 10.73 11.63 10.71C11.63 10.71 11.63 10.69 11.65 10.68C11.65 10.64 11.62 10.62 11.58 10.59C11.56 10.58 11.55 10.57 11.54 10.56L11.53 10.55Z" fill="black"/>
<path d="M11.89 12.14C11.89 12.14 11.84 12.31 11.89 12.42C12.03 12.36 12.1 12.38 12.15 12.41C12.03 12.32 11.99 12.28 11.89 12.14Z" fill="#9CA69C"/>
<path d="M11.89 12.44C11.84 12.33 11.87 12.2 11.89 12.15V12.12L11.92 12.14C12.02 12.27 12.06 12.31 12.18 12.4L12.16 12.42C12.16 12.42 12.06 12.37 11.92 12.43H11.91L11.89 12.44ZM11.9 12.17C11.89 12.22 11.87 12.32 11.9 12.4C11.98 12.37 12.04 12.36 12.08 12.37C12.01 12.31 11.97 12.27 11.9 12.17Z" fill="#9CA69C"/>
<path d="M12.14 12.79V13.11C12.14 13.11 12.26 13.13 12.31 13.11C12.36 13.09 12.31 12.89 12.14 12.79Z" fill="white"/>
<path d="M12.24 13.13H12.14H12.13V12.78H12.15C12.28 12.87 12.35 13.02 12.35 13.09C12.35 13.12 12.33 13.13 12.32 13.14C12.3 13.14 12.28 13.14 12.25 13.14L12.24 13.13ZM12.16 13.09C12.16 13.09 12.27 13.1 12.3 13.09C12.3 13.09 12.3 13.08 12.3 13.07C12.3 13.01 12.25 12.89 12.14 12.81V13.09H12.16Z" fill="white"/>
<path d="M12.94 12.83C12.94 12.83 12.74 12.34 12.21 12.21C11.69 12.09 11.76 11.53 11.8 11.5C11.82 11.45 11.84 11.38 11.99 11.45C12.14 11.52 12.83 11.87 12.93 11.89C13.03 11.91 12.94 12.85 12.93 12.84L12.94 12.83Z" fill="#9CA69C"/>
<path d="M12.93 12.84C12.93 12.84 12.72 12.34 12.21 12.22C11.91 12.15 11.81 11.95 11.78 11.79C11.75 11.65 11.77 11.51 11.79 11.48C11.8 11.45 11.82 11.42 11.85 11.41C11.88 11.4 11.93 11.41 11.99 11.43C12.02 11.45 12.09 11.48 12.17 11.52C12.43 11.65 12.86 11.86 12.93 11.87C12.96 11.87 12.97 11.91 12.98 12C13 12.19 12.97 12.83 12.94 12.84H12.93ZM11.89 11.42H11.87C11.85 11.42 11.84 11.45 11.82 11.48C11.82 11.48 11.82 11.48 11.82 11.49C11.81 11.5 11.78 11.64 11.82 11.79C11.86 11.93 11.96 12.12 12.23 12.18C12.67 12.28 12.89 12.65 12.95 12.77C12.97 12.61 13.01 11.98 12.95 11.89C12.87 11.88 12.46 11.67 12.18 11.54C12.1 11.5 12.04 11.47 12 11.45C11.96 11.43 11.93 11.42 11.9 11.42H11.89Z" fill="black"/>
<path d="M12.44 12.2C12.44 12.2 13.14 12.62 12.93 12.97C13.13 12.84 13.07 12.6 13.07 12.6C13.07 12.6 13.23 13.03 12.83 13.24C12.87 13.28 12.9 13.27 12.9 13.27L12.83 13.34C12.83 13.34 12.8 13.39 13.07 13.26C13 13.32 12.99 13.36 12.99 13.36C12.99 13.36 13.01 13.42 13.19 13.26C13.05 13.41 13.02 13.49 13.02 13.49C13.4 13.46 14.24 12.21 12.76 11.84C12.84 11.92 12.83 11.91 12.83 11.91L12.46 12.19L12.44 12.2Z" fill="#D90000"/>
<path d="M13.01 13.51H13V13.48C13 13.48 13.05 13.4 13.09 13.35C13.05 13.38 13.02 13.39 13 13.38C12.98 13.38 12.98 13.36 12.98 13.36C12.98 13.36 12.98 13.34 13.01 13.3C12.85 13.37 12.83 13.36 12.83 13.35V13.33L12.88 13.28C12.87 13.28 12.85 13.27 12.83 13.25H12.82L12.84 13.23C13.09 13.1 13.11 12.89 13.1 12.75C13.09 12.83 13.05 12.91 12.95 12.98L12.93 12.96C13.01 12.82 13 12.59 12.48 12.23C12.44 12.21 12.44 12.21 12.44 12.2V12.19L12.8 11.92C12.8 11.92 12.77 11.89 12.74 11.86L12.71 11.83H12.76C13.1 11.93 13.66 12.15 13.61 12.71C13.6 12.89 13.51 13.09 13.38 13.26C13.26 13.41 13.12 13.51 13.02 13.52L13.01 13.51ZM13.18 13.26L13.2 13.28C13.13 13.36 13.07 13.43 13.04 13.48C13.24 13.44 13.55 13.09 13.58 12.7C13.61 12.31 13.33 12.02 12.79 11.87C12.8 11.88 12.81 11.89 12.82 11.9C12.82 11.9 12.82 11.91 12.82 11.92L12.47 12.18C12.47 12.18 12.48 12.18 12.49 12.19C12.77 12.38 13.06 12.65 12.97 12.9C13.11 12.77 13.06 12.59 13.06 12.58H13.09C13.09 12.58 13.25 13 12.87 13.22C12.9 13.24 12.91 13.23 12.91 13.23H12.96L12.87 13.31C12.89 13.31 12.95 13.29 13.08 13.22V13.24C13.08 13.24 13.03 13.32 13.02 13.33C13.03 13.33 13.08 13.33 13.19 13.23L13.18 13.26Z" fill="black"/>
<path d="M12.47 12.08C12.57 12.15 12.6 12.17 12.61 12.2C12.52 12.18 12.44 12.19 12.44 12.19C12.44 12.19 12.25 12.01 12.22 11.99C12.19 11.99 12.05 11.9 12.05 11.9C11.98 11.86 11.91 11.61 12.18 11.68C12.46 11.81 12.5 11.82 12.5 11.82C12.61 11.85 12.72 11.89 12.83 11.92C12.89 11.99 12.96 12.06 13.02 12.14C13.02 12.14 12.68 11.97 12.63 11.97C12.72 12.05 12.78 12.15 12.78 12.15C12.67 12.12 12.58 12.09 12.46 12.07L12.47 12.08Z" fill="white"/>
<path d="M12.64 12.22H12.62C12.54 12.2 12.46 12.2 12.46 12.2C12.39 12.13 12.27 12.02 12.24 12.01C12.21 12.01 12.1 11.94 12.06 11.91C12.01 11.89 11.97 11.79 12 11.72C12.01 11.68 12.06 11.63 12.21 11.67C12.49 11.8 12.53 11.81 12.53 11.81L12.87 11.92L13.07 12.14L13.05 12.16C12.95 12.11 12.81 12.04 12.73 12.01C12.8 12.08 12.83 12.15 12.83 12.15V12.18L12.79 12.17C12.71 12.15 12.63 12.13 12.55 12.11C12.61 12.15 12.64 12.18 12.65 12.21V12.23L12.64 12.22ZM12.48 12.18C12.48 12.18 12.55 12.18 12.59 12.18C12.57 12.16 12.54 12.14 12.48 12.09H12.47V12.06C12.57 12.08 12.66 12.1 12.76 12.13C12.74 12.09 12.69 12.03 12.63 11.98L12.6 11.95H12.64C12.64 11.95 12.87 12.05 12.97 12.1L12.83 11.94L12.5 11.84C12.5 11.84 12.46 11.83 12.18 11.69C12.09 11.67 12.03 11.68 12.01 11.73C11.99 11.79 12.03 11.87 12.06 11.89C12.13 11.93 12.21 11.98 12.23 11.98C12.23 11.98 12.42 12.14 12.45 12.18C12.45 12.18 12.46 12.18 12.47 12.18H12.48Z" fill="black"/>
<path d="M11.14 10.56C11.14 10.56 11.47 10.48 11.51 10.49L11.14 10.56Z" fill="black"/>
<path d="M11.14 10.57V10.54C11.14 10.54 11.47 10.46 11.51 10.47V10.5C11.51 10.5 11.3 10.53 11.14 10.57Z" fill="white"/>
</svg>
