<svg width="24" height="24" viewBox="0 0 24 24" fill="none" xmlns="http://www.w3.org/2000/svg">
<path d="M23.98 4H0V20H23.98V4Z" fill="white"/>
<path d="M23.99 5.69H9.45999V7.6H23.99V5.69Z" fill="#0038A8"/>
<path d="M23.99 9.24001H9.45999V11.15H23.99V9.24001Z" fill="#0038A8"/>
<path d="M24 12.78H0V14.69H24V12.78Z" fill="#0038A8"/>
<path d="M24 16.32H0V18.23H24V16.32Z" fill="#0038A8"/>
<path fill-rule="evenodd" clip-rule="evenodd" d="M4.73002 8.47L4.81002 9.85C3.54002 10.77 4.32002 11.31 3.40002 11.6C4.02002 10.98 3.21002 10.98 3.91002 9.58L4.72002 8.47H4.73002Z" fill="#ECC705"/>
<path fill-rule="evenodd" clip-rule="evenodd" d="M3.60001 10.92C3.57001 10.65 3.52001 10.3 3.90001 9.57L3.96001 9.59C3.61001 10.32 3.64001 10.64 3.69001 10.91H3.61001L3.60001 10.92ZM3.38001 11.6L3.43001 11.63C3.73001 11.33 3.70001 11.14 3.67001 10.93H3.59001C3.64001 11.15 3.64001 11.31 3.37001 11.61L3.38001 11.6ZM3.43001 11.62L3.29001 11.67L3.37001 11.59H3.39001L3.42001 11.62H3.43001ZM4.00001 11.01C3.92001 11.31 3.86001 11.49 3.43001 11.63L3.40001 11.57C3.81001 11.43 3.86001 11.25 3.91001 11.01H3.99001H4.00001ZM4.84001 9.87L4.78001 9.81C4.10001 10.3 4.00001 10.7 3.91001 11H3.99001C4.07001 10.73 4.15001 10.35 4.83001 9.87H4.84001ZM4.84001 9.84V9.87L4.81001 9.84H4.84001ZM4.76001 8.47L4.84001 9.85H4.78001L4.67001 8.47H4.75001H4.76001Z" fill="#36373A"/>
<path fill-rule="evenodd" clip-rule="evenodd" d="M3.86002 10.87C3.81002 11.22 3.75002 11.49 3.43002 11.63L3.40002 11.57C3.70002 11.43 3.72002 11.19 3.78002 10.84L3.86002 10.87ZM4.30002 9.52L4.25002 9.5C3.92002 10.06 3.85002 10.52 3.79002 10.85L3.87002 10.88C3.90002 10.53 3.98002 10.1 4.30002 9.53V9.52Z" fill="#36373A"/>
<path fill-rule="evenodd" clip-rule="evenodd" d="M4.73003 8.47001L4.62003 7.07001C5.89003 6.15001 5.11003 5.61001 6.03003 5.32001C5.43003 5.96001 6.22003 5.97001 5.51003 7.34001L4.73003 8.47001Z" fill="#ECC705"/>
<path fill-rule="evenodd" clip-rule="evenodd" d="M5.84003 5.98001C5.86003 6.25001 5.92003 6.60001 5.54003 7.36001L5.48003 7.34001C5.83003 6.61001 5.80003 6.26001 5.75003 6.02001L5.83003 5.99001L5.84003 5.98001ZM6.05003 5.34001L6.00003 5.29001C5.70003 5.61001 5.73003 5.77001 5.76003 6.02001L5.84003 5.99001C5.78003 5.77001 5.78003 5.64001 6.06003 5.34001H6.05003ZM6.00003 5.28001L6.13003 5.26001L6.05003 5.34001L6.03003 5.32001L6.00003 5.29001V5.28001ZM5.43003 5.90001C5.51003 5.63001 5.57003 5.41001 6.00003 5.28001L6.03003 5.33001C5.62003 5.47001 5.57003 5.65001 5.51003 5.93001L5.43003 5.90001ZM4.59003 7.06001L4.64003 7.09001C5.32003 6.61001 5.42003 6.23001 5.50003 5.93001L5.42003 5.90001C5.37003 6.20001 5.26003 6.58001 4.59003 7.06001ZM4.59003 7.09001V7.06001H4.61003L4.59003 7.09001ZM4.67003 8.47001L4.59003 7.09001L4.64003 7.06001L4.75003 8.46001H4.67003V8.47001Z" fill="#36373A"/>
<path fill-rule="evenodd" clip-rule="evenodd" d="M5.59 6.06C5.64 5.68 5.67 5.44 5.99 5.28L6.02 5.33C5.72 5.47 5.69 5.71 5.64 6.06H5.59ZM5.13 7.39L5.18 7.42C5.5 6.85 5.59 6.42 5.64 6.07H5.59C5.53 6.39 5.45 6.83 5.13 7.39Z" fill="#36373A"/>
<path fill-rule="evenodd" clip-rule="evenodd" d="M4.73002 8.47001L3.33002 8.55001C2.41002 7.28001 1.87002 8.07001 1.58002 7.15001C2.23002 7.77001 2.20002 6.99001 3.61002 7.67001L4.74002 8.48001L4.73002 8.47001Z" fill="#ECC705"/>
<path fill-rule="evenodd" clip-rule="evenodd" d="M2.24002 7.36C2.51002 7.31 2.86002 7.25 3.62002 7.63L3.56002 7.68C2.83002 7.33 2.51002 7.38 2.26002 7.41L2.23002 7.35L2.24002 7.36ZM1.60002 7.14L1.55002 7.17C1.87002 7.47 2.03002 7.44 2.28002 7.41L2.25002 7.35C2.03002 7.38 1.90002 7.41 1.60002 7.13V7.14ZM1.54002 7.17L1.49002 7.06L1.59002 7.14H1.56002L1.54002 7.17ZM2.16002 7.74C1.89002 7.66 1.67002 7.6 1.54002 7.18L1.59002 7.15C1.73002 7.55 1.91002 7.61 2.16002 7.69V7.75V7.74ZM3.30002 8.57L3.36002 8.54C2.88002 7.84 2.50002 7.76 2.17002 7.68V7.74C2.47002 7.82 2.85002 7.9 3.30002 8.58V8.57ZM3.32002 8.6L3.29002 8.57L3.32002 8.54V8.6ZM4.73002 8.49L3.33002 8.6V8.52L4.71002 8.44L4.73002 8.5V8.49Z" fill="#36373A"/>
<path fill-rule="evenodd" clip-rule="evenodd" d="M2.33002 7.6C1.95002 7.54 1.71002 7.49 1.55002 7.17L1.60002 7.14C1.74002 7.44 1.98002 7.49 2.33002 7.52V7.6ZM3.65002 8.06L3.68002 8C3.11002 7.65 2.68002 7.57 2.33002 7.51V7.59C2.65002 7.65 3.09002 7.7 3.65002 8.05V8.06Z" fill="#36373A"/>
<path fill-rule="evenodd" clip-rule="evenodd" d="M4.73001 8.47L6.11001 8.36C7.03001 9.63 7.57001 8.87 7.86001 9.76C7.21001 9.16 7.24001 9.95 5.84001 9.25L4.73001 8.47Z" fill="#ECC705"/>
<path fill-rule="evenodd" clip-rule="evenodd" d="M7.19001 9.57C6.92001 9.59 6.57001 9.65 5.84001 9.27L5.87001 9.21C6.60001 9.59 6.92001 9.53 7.17001 9.51L7.20001 9.57H7.19001ZM7.83001 9.79L7.88001 9.73C7.56001 9.43 7.40001 9.46 7.15001 9.51L7.18001 9.57C7.40001 9.54 7.56001 9.51 7.83001 9.79ZM7.89001 9.76L7.95001 9.87L7.84001 9.79L7.86001 9.76H7.89001ZM7.27001 9.19C7.54001 9.25 7.76001 9.3 7.89001 9.76H7.84001C7.70001 9.36 7.52001 9.3 7.27001 9.25V9.19ZM6.13001 8.33L6.08001 8.39C6.56001 9.07 6.94001 9.17 7.27001 9.25V9.19C6.97001 9.11 6.59001 9 6.14001 8.33H6.13001ZM6.11001 8.33H6.13001L6.11001 8.36V8.33ZM4.70001 8.44L6.10001 8.33V8.39L4.72001 8.5L4.70001 8.44Z" fill="#36373A"/>
<path fill-rule="evenodd" clip-rule="evenodd" d="M7.13001 9.33001C7.48001 9.38001 7.73001 9.41001 7.89001 9.76001L7.84001 9.79001C7.70001 9.47001 7.46001 9.44001 7.11001 9.39001L7.14001 9.33001H7.13001ZM5.78001 8.87001L5.76001 8.93001C6.33001 9.28001 6.79001 9.33001 7.11001 9.39001L7.14001 9.34001C6.79001 9.29001 6.36001 9.20001 5.79001 8.88001L5.78001 8.87001Z" fill="#36373A"/>
<path fill-rule="evenodd" clip-rule="evenodd" d="M4.73001 8.47001L3.81001 9.52001C2.24001 9.25001 2.41001 10.2 1.57001 9.76001C2.46001 9.73001 1.90001 9.19001 3.35001 8.68001L4.73001 8.46001V8.47001Z" fill="#ECC705"/>
<path fill-rule="evenodd" clip-rule="evenodd" d="M2.19002 9.41C2.35002 9.19 2.57002 8.93 3.35002 8.65L3.38002 8.71C2.60002 8.98 2.38002 9.25 2.25002 9.47L2.20002 9.41H2.19002ZM1.57002 9.73V9.79C2.00002 9.79 2.11002 9.65 2.25002 9.47L2.20002 9.41C2.06002 9.6 1.98002 9.71 1.58002 9.73H1.57002ZM1.54002 9.79L1.43002 9.73H1.56002V9.76L1.54002 9.79ZM2.41002 9.76C2.17002 9.9 1.98002 10 1.55002 9.79L1.57002 9.73C1.98002 9.92 2.14002 9.84 2.35002 9.71L2.41002 9.76ZM3.81002 9.54V9.46C2.97002 9.32 2.62002 9.54 2.35002 9.7L2.41002 9.75C2.65002 9.59 3.00002 9.4 3.81002 9.53V9.54ZM3.84002 9.52L3.81002 9.54V9.52H3.84002ZM4.73002 8.47L3.84002 9.52L3.78002 9.49L4.70002 8.44L4.72002 8.47H4.73002Z" fill="#36373A"/>
<path fill-rule="evenodd" clip-rule="evenodd" d="M2.41001 9.54001C2.11001 9.76001 1.92001 9.92001 1.57001 9.79001V9.73001C1.90001 9.84001 2.09001 9.71001 2.38001 9.49001L2.41001 9.54001ZM3.68001 8.93001L3.65001 8.87001C3.00001 9.03001 2.65001 9.30001 2.38001 9.49001L2.41001 9.55001C2.68001 9.36001 3.03001 9.09001 3.68001 8.93001Z" fill="#36373A"/>
<path fill-rule="evenodd" clip-rule="evenodd" d="M4.73001 8.47L5.62001 7.42C7.19001 7.66 7.02001 6.72 7.86001 7.15C6.97001 7.18 7.54001 7.75 6.08001 8.23L4.73001 8.47Z" fill="#ECC705"/>
<path fill-rule="evenodd" clip-rule="evenodd" d="M7.24001 7.5C7.08001 7.72 6.86001 7.99 6.08001 8.26L6.05001 8.2C6.83001 7.96 7.05001 7.66 7.18001 7.48L7.23001 7.5H7.24001ZM7.86001 7.2V7.12C7.43001 7.14 7.35001 7.28 7.19001 7.47L7.24001 7.49C7.38001 7.33 7.46001 7.19 7.86001 7.19V7.2ZM7.89001 7.12L8.00001 7.18L7.86001 7.2V7.14L7.89001 7.12ZM7.02001 7.17C7.29001 7.01 7.45001 6.93 7.88001 7.11L7.85001 7.17C7.45001 6.98 7.29001 7.09 7.07001 7.22L7.02001 7.17ZM5.62001 7.39V7.45C6.46001 7.58 6.81001 7.39 7.08001 7.23L7.03001 7.18C6.79001 7.31 6.44001 7.53 5.63001 7.39H5.62001ZM5.59001 7.39H5.61001V7.42L5.59001 7.39ZM4.70001 8.44L5.59001 7.39L5.64001 7.45L4.72001 8.47L4.70001 8.44Z" fill="#36373A"/>
<path fill-rule="evenodd" clip-rule="evenodd" d="M7.02002 7.36C7.32002 7.14 7.53002 7.01 7.86002 7.12V7.18C7.54002 7.07 7.35002 7.23 7.05002 7.42L7.02002 7.36ZM5.75002 7.98L5.77002 8.06C6.42002 7.9 6.77002 7.63 7.04002 7.41L7.01002 7.35C6.74002 7.57 6.39002 7.84 5.74002 7.97L5.75002 7.98Z" fill="#36373A"/>
<path fill-rule="evenodd" clip-rule="evenodd" d="M4.73003 8.47L3.68003 7.55C3.92003 5.99 2.98003 6.15 3.41003 5.31C3.44003 6.2 4.01003 5.63 4.49003 7.09L4.73003 8.47Z" fill="#ECC705"/>
<path fill-rule="evenodd" clip-rule="evenodd" d="M3.76002 5.93001C3.98002 6.09001 4.25002 6.31001 4.52002 7.09001L4.47002 7.12001C4.20002 6.34001 3.93002 6.15001 3.74002 5.99001L3.77002 5.94001L3.76002 5.93001ZM3.43002 5.31001H3.38002C3.40002 5.74001 3.54002 5.85001 3.73002 5.98001L3.76002 5.93001C3.57002 5.79001 3.46002 5.71001 3.44002 5.31001H3.43002ZM3.38002 5.31001L3.43002 5.20001V5.31001H3.38002ZM3.43002 6.15001C3.27002 5.91001 3.16002 5.72001 3.38002 5.31001L3.43002 5.33001C3.24002 5.71001 3.35002 5.87001 3.49002 6.11001L3.43002 6.14001V6.15001ZM3.65002 7.55001H3.71002C3.85002 6.71001 3.63002 6.39001 3.49002 6.12001L3.43002 6.15001C3.57002 6.39001 3.75002 6.74001 3.65002 7.55001ZM3.65002 7.58001V7.55001H3.68002L3.65002 7.58001ZM4.70002 8.49001L3.65002 7.57001L3.71002 7.51001L4.73002 8.43001L4.71002 8.49001H4.70002Z" fill="#36373A"/>
<path fill-rule="evenodd" clip-rule="evenodd" d="M3.62002 6.15C3.40002 5.85 3.27002 5.66 3.38002 5.31H3.43002C3.32002 5.63 3.46002 5.82 3.67002 6.12L3.62002 6.15ZM4.24002 7.42H4.32002C4.16002 6.74 3.89002 6.39 3.67002 6.12L3.62002 6.15C3.84002 6.42 4.10002 6.77 4.24002 7.42Z" fill="#36373A"/>
<path fill-rule="evenodd" clip-rule="evenodd" d="M4.73001 8.47L5.76001 9.36C5.52001 10.92 6.46001 10.76 6.03001 11.6C6.00001 10.74 5.43001 11.3 4.95001 9.82L4.73001 8.47Z" fill="#ECC705"/>
<path fill-rule="evenodd" clip-rule="evenodd" d="M5.67002 10.98C5.45002 10.84 5.18002 10.63 4.91002 9.82001H4.96002C5.23002 10.58 5.50002 10.79 5.69002 10.95L5.67002 10.98ZM6.00002 11.6H6.05002C6.03002 11.17 5.89002 11.08 5.70002 10.95L5.68002 10.98C5.87002 11.11 5.98002 11.22 6.00002 11.6ZM6.05002 11.62L6.00002 11.73V11.59H6.03002L6.05002 11.62ZM6.00002 10.79C6.16002 11.03 6.27002 11.22 6.05002 11.63L6.00002 11.6C6.19002 11.22 6.08002 11.03 5.94002 10.82L6.00002 10.79ZM5.78002 9.38001L5.73002 9.36001C5.60002 10.2 5.81002 10.55 5.95002 10.82L6.01002 10.79C5.87002 10.52 5.69002 10.2 5.79002 9.39001L5.78002 9.38001ZM5.78002 9.33001L5.81002 9.36001L5.78002 9.38001L5.76002 9.36001L5.78002 9.33001ZM4.73002 8.44001L5.78002 9.33001L5.76002 9.38001L4.71002 8.49001L4.73002 8.43001V8.44001Z" fill="#36373A"/>
<path fill-rule="evenodd" clip-rule="evenodd" d="M5.81001 10.76C6.03001 11.06 6.16001 11.28 6.05001 11.63L6.00001 11.6C6.11001 11.28 5.97001 11.08 5.76002 10.82L5.81001 10.76ZM5.19001 9.49001L5.14001 9.52001C5.27001 10.17 5.54002 10.52 5.76002 10.82L5.81001 10.77C5.60001 10.5 5.35001 10.15 5.19001 9.50001V9.49001Z" fill="#36373A"/>
<path fill-rule="evenodd" clip-rule="evenodd" d="M4.73002 8.47H5.32002L4.73002 11.87L4.11002 8.47H4.73002V11.87V8.47Z" fill="#ECC705"/>
<path fill-rule="evenodd" clip-rule="evenodd" d="M4.76002 11.87H4.68002V8.47H4.76002V11.87ZM4.73002 8.44V8.47H4.76002V8.44H4.73002ZM4.11002 8.44V8.5H4.73002V8.44H4.11002ZM4.05002 8.44H4.10002V8.47H4.05002V8.44ZM4.67002 11.87H4.75002L4.13002 8.47H4.05002L4.67002 11.87ZM4.76002 11.87H4.68002L4.73002 12.03L4.76002 11.87ZM5.37002 8.47H5.29002L4.67002 11.87H4.75002L5.37002 8.47ZM5.32002 8.44H5.37002V8.47H5.32002V8.44ZM4.73002 8.44V8.5H5.33002V8.44H4.73002Z" fill="#36373A"/>
<path fill-rule="evenodd" clip-rule="evenodd" d="M4.73002 8.47001H4.11002L4.73002 5.04001L5.32002 8.47001H4.73002V5.04001V8.47001Z" fill="#ECC705"/>
<path fill-rule="evenodd" clip-rule="evenodd" d="M4.67002 5.04H4.75002V8.47H4.67002V5.04ZM4.73002 8.49V8.46H4.68002V8.49H4.73002ZM5.32002 8.49V8.43H4.72002V8.49H5.32002ZM5.37002 8.49H5.32002V8.46H5.37002V8.49ZM4.76002 5.04L4.68002 5.07L5.30002 8.47H5.38002L4.76002 5.04ZM4.67002 5.04H4.75002L4.72002 4.88L4.67002 5.04ZM4.05002 8.47H4.13002L4.75002 5.07L4.67002 5.04L4.05002 8.47ZM4.11002 8.49H4.06002V8.46H4.11002V8.49ZM4.73002 8.49V8.43H4.11002V8.49H4.73002Z" fill="#36373A"/>
<path fill-rule="evenodd" clip-rule="evenodd" d="M4.73002 8.47001V9.09001L1.30002 8.47001L4.73002 7.85001V8.47001H1.30002H4.73002Z" fill="#ECC705"/>
<path fill-rule="evenodd" clip-rule="evenodd" d="M4.73001 8.49001H1.30001V8.43001H4.73001V8.49001ZM4.76002 8.49001V8.46001H4.73001V8.49001H4.76002ZM4.76002 8.47001V7.85001H4.68001V8.47001H4.76002ZM4.70001 7.82001L4.76002 7.79001V7.85001H4.73001L4.71001 7.82001H4.70001ZM1.30001 8.44001L1.33001 8.50001L4.73001 7.88001L4.71001 7.82001L1.31001 8.44001H1.30001ZM1.30001 8.49001V8.43001L1.14001 8.46001L1.30001 8.49001ZM4.70001 9.11001L4.72001 9.06001L1.32001 8.44001L1.29001 8.50001L4.69001 9.12001L4.70001 9.11001ZM4.76002 9.09001V9.12001H4.70001L4.72001 9.09001H4.75001H4.76002ZM4.76002 8.47001H4.68001V9.09001H4.76002V8.47001Z" fill="#36373A"/>
<path fill-rule="evenodd" clip-rule="evenodd" d="M4.73001 8.47001V7.85001L8.13001 8.47001L4.73001 9.09001V8.47001H8.13001H4.73001Z" fill="#ECC705"/>
<path fill-rule="evenodd" clip-rule="evenodd" d="M4.73001 8.44001H8.13001V8.50001H4.73001V8.44001ZM4.67001 8.44001V8.47001H4.72001V8.44001H4.67001ZM4.67001 8.47001V9.09001H4.75001V8.47001H4.67001ZM4.73001 9.11001H4.68001V9.08001H4.73001V9.11001ZM8.13001 8.49001L8.10001 8.43001L4.70001 9.05001L4.72001 9.10001L8.12001 8.48001L8.13001 8.49001ZM8.13001 8.44001V8.50001L8.29001 8.47001L8.13001 8.44001ZM4.73001 7.82001L4.71001 7.88001L8.11001 8.50001L8.14001 8.44001L4.74001 7.82001H4.73001ZM4.67001 7.85001V7.79001L4.72001 7.82001V7.85001H4.67001ZM4.67001 8.47001H4.75001V7.85001H4.67001V8.47001Z" fill="#36373A"/>
<path fill-rule="evenodd" clip-rule="evenodd" d="M4.73002 8.47001L5.16002 8.90001L2.30002 10.87L4.27002 8.01001L4.73002 8.47001L2.30002 10.87L4.73002 8.47001Z" fill="#ECC705"/>
<path fill-rule="evenodd" clip-rule="evenodd" d="M4.73 8.49001L2.33 10.89L2.3 10.84L4.7 8.44001L4.72 8.50001L4.73 8.49001ZM4.73 8.44001V8.50001L4.76 8.47001L4.73 8.44001ZM4.3 8.01001L4.25 8.04001L4.71 8.50001L4.73 8.44001L4.3 8.01001ZM4.24 8.01001L4.27 7.99001L4.29 8.01001H4.24ZM2.27 10.84L2.33 10.89L4.3 8.03001L4.25 8.00001L2.28 10.83L2.27 10.84ZM2.33 10.89L2.3 10.87L2.27 10.84L2.19 11L2.33 10.89ZM5.16 8.93001L5.13 8.87001L2.3 10.84L2.33 10.89L5.16 8.92001V8.93001ZM5.19 8.87001L5.22 8.90001L5.17 8.93001V8.90001L5.19 8.87001ZM4.73 8.44001L4.71 8.50001L5.14 8.93001L5.19 8.87001L4.73 8.44001Z" fill="#36373A"/>
<path fill-rule="evenodd" clip-rule="evenodd" d="M4.73002 8.47001L4.27002 8.01001L7.13002 6.04001L5.16002 8.90001L4.73002 8.47001L7.13002 6.04001L4.73002 8.47001Z" fill="#ECC705"/>
<path fill-rule="evenodd" clip-rule="evenodd" d="M4.70002 8.44001L7.10002 6.04001L7.16002 6.06001L4.73002 8.49001L4.71002 8.43001L4.70002 8.44001ZM4.70002 8.49001L4.72002 8.46001L4.70002 8.43001L4.67002 8.46001L4.70002 8.49001ZM5.13002 8.93001L5.18002 8.87001L4.72002 8.44001L4.70002 8.50001L5.13002 8.93001ZM5.19002 8.93001L5.17002 8.96001L5.14002 8.93001L5.17002 8.90001L5.19002 8.93001ZM7.16002 6.06001L7.10002 6.04001L5.13002 8.87001L5.18002 8.93001L7.15002 6.07001L7.16002 6.06001ZM7.10002 6.01001L7.13002 6.04001L7.16002 6.06001L7.24002 5.93001L7.10002 6.01001ZM4.27002 8.01001L4.29002 8.04001L7.12002 6.07001L7.09002 6.02001L4.26002 8.02001L4.27002 8.01001ZM4.24002 8.04001V8.01001H4.27002L4.24002 8.04001ZM4.70002 8.49001L4.72002 8.43001L4.29002 8.00001L4.24002 8.03001L4.70002 8.49001Z" fill="#36373A"/>
<path fill-rule="evenodd" clip-rule="evenodd" d="M4.73002 8.47001L4.27002 8.90001L2.30002 6.04001L5.16002 8.01001L4.73002 8.47001L2.30002 6.04001L4.73002 8.47001Z" fill="#ECC705"/>
<path fill-rule="evenodd" clip-rule="evenodd" d="M4.7 8.49001L2.3 6.06001L2.33 6.04001L4.73 8.44001L4.71 8.50001L4.7 8.49001ZM4.73 8.49001V8.46001L4.71 8.49001H4.73ZM5.19 8.04001L5.14 8.01001L4.71 8.44001L4.73 8.50001L5.19 8.04001ZM5.16 8.01001H5.21L5.18 8.04001L5.16 8.01001ZM2.33 6.01001L2.3 6.06001L5.13 8.03001L5.16 8.00001L2.33 6.00001V6.01001ZM2.27 6.06001L2.3 6.04001L2.33 6.01001L2.19 5.93001L2.27 6.06001ZM4.24 8.93001L4.29 8.87001L2.32 6.04001L2.26 6.06001L4.23 8.92001L4.24 8.93001ZM4.3 8.93001L4.28 8.96001L4.25 8.93001L4.28 8.90001L4.3 8.93001ZM4.73 8.49001L4.71 8.43001L4.25 8.86001L4.3 8.92001L4.73 8.49001Z" fill="#36373A"/>
<path fill-rule="evenodd" clip-rule="evenodd" d="M4.73002 8.47001L5.16002 8.01001L7.13002 10.87L4.27002 8.90001L4.73002 8.47001L7.13002 10.87L4.73002 8.47001Z" fill="#ECC705"/>
<path fill-rule="evenodd" clip-rule="evenodd" d="M4.73002 8.44001L7.16002 10.84L7.10002 10.89L4.70002 8.49001L4.72002 8.43001L4.73002 8.44001ZM4.70002 8.44001L4.72002 8.47001V8.41001L4.70002 8.44001ZM4.24002 8.87001L4.29002 8.93001L4.72002 8.50001L4.70002 8.44001L4.24002 8.87001ZM4.27002 8.93001L4.24002 8.90001V8.87001L4.27002 8.90001V8.93001ZM7.10002 10.89L7.13002 10.84L4.30002 8.87001L4.28002 8.93001L7.11002 10.9L7.10002 10.89ZM7.16002 10.84L7.13002 10.87L7.10002 10.89L7.24002 11L7.16002 10.84ZM5.19002 8.01001L5.14002 8.04001L7.11002 10.9L7.17002 10.85L5.20002 8.02001L5.19002 8.01001ZM5.13002 8.01001L5.16002 7.99001L5.18002 8.01001H5.13002ZM4.70002 8.44001L4.72002 8.50001L5.18002 8.04001L5.13002 8.01001L4.70002 8.44001Z" fill="#36373A"/>
<path fill-rule="evenodd" clip-rule="evenodd" d="M5.86001 8.47001C5.86001 7.82001 5.34001 7.34001 4.73001 7.34001C4.12001 7.34001 3.57001 7.82001 3.57001 8.47001C3.57001 9.12001 4.08001 9.60001 4.73001 9.60001C5.35001 9.60001 5.86001 9.08001 5.86001 8.47001Z" fill="#ECC705"/>
<path fill-rule="evenodd" clip-rule="evenodd" d="M5.48001 9.25C5.70001 9.03 5.80001 8.76 5.80001 8.47H5.88001C5.88001 8.79 5.75001 9.07 5.53001 9.28L5.47001 9.25H5.48001ZM4.73001 9.57V9.62C5.03001 9.62 5.33001 9.48 5.54001 9.27L5.48001 9.24C5.29001 9.43 5.02001 9.56 4.72001 9.56L4.73001 9.57ZM3.95001 9.25C4.14001 9.44 4.41001 9.57 4.73001 9.57V9.62C4.41001 9.62 4.11001 9.49 3.89001 9.27L3.95001 9.24V9.25ZM3.62001 8.47H3.54001C3.54001 8.79 3.68001 9.07 3.89001 9.28L3.95001 9.25C3.73001 9.03 3.63001 8.76 3.63001 8.47H3.62001ZM3.95001 7.68C3.73001 7.87 3.63001 8.14 3.63001 8.46H3.55001C3.55001 8.14 3.69001 7.84 3.90001 7.62L3.96001 7.67L3.95001 7.68ZM4.73001 7.36V7.28C4.41001 7.28 4.11001 7.42 3.89001 7.63L3.95001 7.68C4.14001 7.47 4.41001 7.36 4.73001 7.36ZM5.48001 7.68C5.29001 7.47 5.02001 7.36 4.72001 7.36V7.28C5.02001 7.28 5.32001 7.42 5.53001 7.63L5.47001 7.68H5.48001ZM5.81001 8.47H5.89001C5.89001 8.15 5.76001 7.85 5.54001 7.63L5.48001 7.68C5.70001 7.87 5.80001 8.14 5.80001 8.46L5.81001 8.47Z" fill="#36373A"/>
<path fill-rule="evenodd" clip-rule="evenodd" d="M5.54001 8.01C5.48001 8.09 5.43001 7.95 5.19001 7.95C4.92001 7.95 4.89001 8.09 4.84001 8.06C4.81001 8.03 5.05001 7.84 5.14001 7.84C5.22001 7.81 5.46001 7.89 5.54001 8V8.01Z" fill="#36373A"/>
<path fill-rule="evenodd" clip-rule="evenodd" d="M5.24 8.09001C5.32 8.17001 5.26 8.31001 5.18 8.31001C5.1 8.31001 4.96 8.17001 5.04 8.09001H5.23H5.24Z" fill="#36373A"/>
<path fill-rule="evenodd" clip-rule="evenodd" d="M4.92001 8.20001C4.92001 8.07001 5.03001 8.04001 5.19001 8.04001C5.35001 8.04001 5.43001 8.18001 5.49001 8.20001C5.43001 8.20001 5.35001 8.10001 5.19001 8.10001C5.03001 8.10001 5.03001 8.10001 4.92001 8.20001Z" fill="#36373A"/>
<path fill-rule="evenodd" clip-rule="evenodd" d="M4.95 8.22C4.97 8.17 5.03 8.28 5.17 8.28C5.27 8.28 5.33 8.25 5.41 8.2C5.47 8.15 5.3 8.34 5.19 8.34C5.08 8.34 4.92 8.26 4.95 8.23V8.22Z" fill="#36373A"/>
<path fill-rule="evenodd" clip-rule="evenodd" d="M5.29001 8.28001C5.42001 8.22001 5.34001 8.12001 5.29001 8.09001C5.32001 8.11001 5.40001 8.22001 5.29001 8.28001Z" fill="#36373A"/>
<path fill-rule="evenodd" clip-rule="evenodd" d="M4.73002 8.90001C4.79002 8.90001 4.81002 8.87001 4.89002 8.87001C4.97002 8.87001 5.16002 9.01001 5.27002 8.95001C5.03002 9.06001 5.14002 8.97001 4.73002 8.97001H4.68002L4.73002 8.89001V8.90001Z" fill="#36373A"/>
<path fill-rule="evenodd" clip-rule="evenodd" d="M5.32002 9.06001C5.26002 8.98001 5.29002 9.00001 5.18002 8.87001C5.29002 8.95001 5.29002 8.98001 5.32002 9.06001Z" fill="#36373A"/>
<path fill-rule="evenodd" clip-rule="evenodd" d="M4.73002 9.14001C4.97002 9.14001 4.95002 9.08001 5.27002 8.95001C5.03002 8.97001 4.97002 9.06001 4.73002 9.06001H4.68002L4.73002 9.14001Z" fill="#36373A"/>
<path fill-rule="evenodd" clip-rule="evenodd" d="M4.73 8.76C4.79 8.76 4.81 8.71 4.89 8.71C4.97 8.71 5.08 8.74 5.13 8.79C5.16 8.79 5.1 8.71 5.02 8.71C4.94 8.68 4.96 8.55 4.88 8.52C4.88 8.58 4.91 8.58 4.91 8.63C4.91 8.68 4.83 8.68 4.8 8.63C4.83 8.71 4.75 8.71 4.72 8.71V8.76H4.73Z" fill="#36373A"/>
<path fill-rule="evenodd" clip-rule="evenodd" d="M3.89001 8.01C3.95001 8.09 4.00001 7.95 4.24001 7.95C4.51001 7.95 4.54001 8.09 4.59001 8.06C4.61001 8.03 4.37001 7.84 4.29001 7.84C4.21001 7.81 3.97001 7.89 3.89001 8V8.01Z" fill="#36373A"/>
<path fill-rule="evenodd" clip-rule="evenodd" d="M4.19002 8.09001C4.11002 8.17001 4.16002 8.31001 4.25002 8.31001C4.34002 8.31001 4.47002 8.17001 4.39002 8.09001H4.20002H4.19002Z" fill="#36373A"/>
<path fill-rule="evenodd" clip-rule="evenodd" d="M4.51 8.20001C4.51 8.07001 4.4 8.04001 4.24 8.04001C4.08 8.04001 4 8.18001 3.94 8.20001C4.02 8.20001 4.07 8.10001 4.24 8.10001C4.4 8.10001 4.4 8.10001 4.51 8.20001Z" fill="#36373A"/>
<path fill-rule="evenodd" clip-rule="evenodd" d="M4.49003 8.22C4.46003 8.17 4.41003 8.28 4.27003 8.28C4.16003 8.28 4.11003 8.25 4.03003 8.2C3.97003 8.15 4.14003 8.34 4.25003 8.34C4.39003 8.34 4.52003 8.26 4.49003 8.23V8.22Z" fill="#36373A"/>
<path fill-rule="evenodd" clip-rule="evenodd" d="M4.13001 8.28001C3.99001 8.22001 4.07001 8.12001 4.13001 8.09001C4.10001 8.11001 4.02001 8.22001 4.13001 8.28001Z" fill="#36373A"/>
<path fill-rule="evenodd" clip-rule="evenodd" d="M4.73 8.90001C4.65 8.90001 4.62 8.87001 4.54 8.87001C4.46 8.87001 4.27 9.01001 4.16 8.95001C4.4 9.06001 4.3 8.97001 4.73 8.97001H4.76L4.73 8.89001V8.90001Z" fill="#36373A"/>
<path fill-rule="evenodd" clip-rule="evenodd" d="M4.11002 9.06001C4.16002 8.98001 4.16002 9.00001 4.25002 8.87001C4.17002 8.95001 4.14002 8.98001 4.11002 9.06001Z" fill="#36373A"/>
<path fill-rule="evenodd" clip-rule="evenodd" d="M4.73 9.14001C4.46 9.14001 4.51 9.08001 4.16 8.95001C4.4 8.97001 4.46 9.06001 4.73 9.06001H4.76L4.73 9.14001Z" fill="#36373A"/>
<path fill-rule="evenodd" clip-rule="evenodd" d="M4.73 8.76C4.65 8.76 4.62 8.71 4.54 8.71C4.46 8.71 4.35 8.74 4.3 8.79C4.28 8.79 4.33 8.71 4.41 8.71C4.49 8.68 4.47 8.55 4.55 8.52C4.55 8.58 4.52 8.58 4.52 8.63C4.52 8.68 4.6 8.68 4.63 8.63C4.61 8.71 4.69 8.71 4.74 8.71V8.76H4.73Z" fill="#36373A"/>
<path fill-rule="evenodd" clip-rule="evenodd" d="M4.73002 9.25C4.68002 9.25 4.54002 9.28 4.73002 9.28C4.89002 9.28 4.76002 9.25 4.73002 9.25Z" fill="#36373A"/>
</svg>
