<svg width="24" height="24" viewBox="0 0 24 24" fill="none" xmlns="http://www.w3.org/2000/svg">
<path d="M24 8.92001H0V10.15H24V8.92001Z" fill="#DB2E2E"/>
<path d="M24 6.45999H0V7.68999H24V6.45999Z" fill="#DB2E2E"/>
<path d="M24 4H0V5.23H24V4Z" fill="#DB2E2E"/>
<path d="M24 11.39H0V12.62H24V11.39Z" fill="#DB2E2E"/>
<path d="M24 13.85H0V15.08H24V13.85Z" fill="#DB2E2E"/>
<path d="M24 16.31H0V17.54H24V16.31Z" fill="#DB2E2E"/>
<path d="M24 18.77H0V20H24V18.77Z" fill="#DB2E2E"/>
<path d="M24 7.69H0V8.92H24V7.69Z" fill="white"/>
<path d="M24 5.23001H0V6.46001H24V5.23001Z" fill="white"/>
<path d="M24 10.16H0V11.39H24V10.16Z" fill="white"/>
<path d="M24 12.62H0V13.85H24V12.62Z" fill="white"/>
<path d="M24 15.08H0V16.31H24V15.08Z" fill="white"/>
<path d="M24 17.54H0V18.77H24V17.54Z" fill="white"/>
<path d="M12.16 4H0V12.62H12.16V4Z" fill="#2E4593"/>
<path d="M1.01 4.37L0.900003 4.71H0.550003L0.830003 4.92L0.720003 5.26L1.01 5.05L1.3 5.26L1.19 4.92L1.48 4.71H1.12L1.01 4.37Z" fill="white"/>
<path d="M1.01 6.09L0.900003 6.43H0.550003L0.830003 6.64L0.720003 6.98L1.01 6.77L1.3 6.98L1.19 6.64L1.48 6.43H1.12L1.01 6.09Z" fill="white"/>
<path d="M1.01 7.82001L0.900003 8.16001H0.550003L0.830003 8.37001L0.720003 8.71001L1.01 8.50001L1.3 8.71001L1.19 8.37001L1.48 8.16001H1.12L1.01 7.82001Z" fill="white"/>
<path d="M1.01 9.54001L0.900003 9.88001H0.550003L0.830003 10.09L0.720003 10.43L1.01 10.22L1.3 10.43L1.19 10.09L1.48 9.88001H1.12L1.01 9.54001Z" fill="white"/>
<path d="M1.12 11.6L1.01 11.26L0.900003 11.6H0.550003L0.830003 11.81L0.720003 12.15L1.01 11.94L1.3 12.15L1.19 11.81L1.48 11.6H1.12Z" fill="white"/>
<path d="M2.03 5.22998L1.92 5.56998H1.56L1.85 5.77998L1.74 6.11998L2.03 5.90998L2.32 6.11998L2.21 5.77998L2.5 5.56998H2.14L2.03 5.22998Z" fill="white"/>
<path d="M2.03 6.94998L1.92 7.28998H1.56L1.85 7.49998L1.74 7.83998L2.03 7.62998L2.32 7.83998L2.21 7.49998L2.5 7.28998H2.14L2.03 6.94998Z" fill="white"/>
<path d="M2.03 8.67999L1.92 9.01999H1.56L1.85 9.22999L1.74 9.56999L2.03 9.35999L2.32 9.56999L2.21 9.22999L2.5 9.01999H2.14L2.03 8.67999Z" fill="white"/>
<path d="M2.14 10.74L2.03 10.4L1.92 10.74H1.56L1.85 10.95L1.74 11.29L2.03 11.08L2.32 11.29L2.21 10.95L2.5 10.74H2.14Z" fill="white"/>
<path d="M3.04001 4.37L2.93001 4.71H2.57001L2.86001 4.92L2.75001 5.26L3.04001 5.05L3.33001 5.26L3.22001 4.92L3.51001 4.71H3.15001L3.04001 4.37Z" fill="white"/>
<path d="M3.04001 6.09L2.93001 6.43H2.57001L2.86001 6.64L2.75001 6.98L3.04001 6.77L3.33001 6.98L3.22001 6.64L3.51001 6.43H3.15001L3.04001 6.09Z" fill="white"/>
<path d="M3.04001 7.82001L2.93001 8.16001H2.57001L2.86001 8.37001L2.75001 8.71001L3.04001 8.50001L3.33001 8.71001L3.22001 8.37001L3.51001 8.16001H3.15001L3.04001 7.82001Z" fill="white"/>
<path d="M3.04001 9.54001L2.93001 9.88001H2.57001L2.86001 10.09L2.75001 10.43L3.04001 10.22L3.33001 10.43L3.22001 10.09L3.51001 9.88001H3.15001L3.04001 9.54001Z" fill="white"/>
<path d="M3.15001 11.6L3.04001 11.26L2.93001 11.6H2.57001L2.86001 11.81L2.75001 12.15L3.04001 11.94L3.33001 12.15L3.22001 11.81L3.51001 11.6H3.15001Z" fill="white"/>
<path d="M4.05 5.22998L3.94 5.56998H3.59L3.87 5.77998L3.76 6.11998L4.05 5.90998L4.34 6.11998L4.23 5.77998L4.52 5.56998H4.16L4.05 5.22998Z" fill="white"/>
<path d="M4.05 6.94998L3.94 7.28998H3.59L3.87 7.49998L3.76 7.83998L4.05 7.62998L4.34 7.83998L4.23 7.49998L4.52 7.28998H4.16L4.05 6.94998Z" fill="white"/>
<path d="M4.05 8.67999L3.94 9.01999H3.59L3.87 9.22999L3.76 9.56999L4.05 9.35999L4.34 9.56999L4.23 9.22999L4.52 9.01999H4.16L4.05 8.67999Z" fill="white"/>
<path d="M4.16 10.74L4.05 10.4L3.94 10.74H3.59L3.87 10.95L3.76 11.29L4.05 11.08L4.34 11.29L4.23 10.95L4.52 10.74H4.16Z" fill="white"/>
<path d="M5.07001 4.37L4.96001 4.71H4.60001L4.89001 4.92L4.78001 5.26L5.07001 5.05L5.36001 5.26L5.25001 4.92L5.54001 4.71H5.18001L5.07001 4.37Z" fill="white"/>
<path d="M5.07001 6.09L4.96001 6.43H4.60001L4.89001 6.64L4.78001 6.98L5.07001 6.77L5.36001 6.98L5.25001 6.64L5.54001 6.43H5.18001L5.07001 6.09Z" fill="white"/>
<path d="M5.07001 7.82001L4.96001 8.16001H4.60001L4.89001 8.37001L4.78001 8.71001L5.07001 8.50001L5.36001 8.71001L5.25001 8.37001L5.54001 8.16001H5.18001L5.07001 7.82001Z" fill="white"/>
<path d="M5.07001 9.54001L4.96001 9.88001H4.60001L4.89001 10.09L4.78001 10.43L5.07001 10.22L5.36001 10.43L5.25001 10.09L5.54001 9.88001H5.18001L5.07001 9.54001Z" fill="white"/>
<path d="M5.18001 11.6L5.07001 11.26L4.96001 11.6H4.60001L4.89001 11.81L4.78001 12.15L5.07001 11.94L5.36001 12.15L5.25001 11.81L5.54001 11.6H5.18001Z" fill="white"/>
<path d="M6.08 5.22998L5.97 5.56998H5.61L5.9 5.77998L5.79 6.11998L6.08 5.90998L6.37 6.11998L6.26 5.77998L6.55 5.56998H6.19L6.08 5.22998Z" fill="white"/>
<path d="M6.08 6.94998L5.97 7.28998H5.61L5.9 7.49998L5.79 7.83998L6.08 7.62998L6.37 7.83998L6.26 7.49998L6.55 7.28998H6.19L6.08 6.94998Z" fill="white"/>
<path d="M6.08 8.67999L5.97 9.01999H5.61L5.9 9.22999L5.79 9.56999L6.08 9.35999L6.37 9.56999L6.26 9.22999L6.55 9.01999H6.19L6.08 8.67999Z" fill="white"/>
<path d="M6.19 10.74L6.08 10.4L5.97 10.74H5.61L5.9 10.95L5.79 11.29L6.08 11.08L6.37 11.29L6.26 10.95L6.55 10.74H6.19Z" fill="white"/>
<path d="M7.09 4.37L6.98 4.71H6.63L6.91 4.92L6.8 5.26L7.09 5.05L7.38 5.26L7.27 4.92L7.56 4.71H7.2L7.09 4.37Z" fill="white"/>
<path d="M7.09 6.09L6.98 6.43H6.63L6.91 6.64L6.8 6.98L7.09 6.77L7.38 6.98L7.27 6.64L7.56 6.43H7.2L7.09 6.09Z" fill="white"/>
<path d="M7.09 7.82001L6.98 8.16001H6.63L6.91 8.37001L6.8 8.71001L7.09 8.50001L7.38 8.71001L7.27 8.37001L7.56 8.16001H7.2L7.09 7.82001Z" fill="white"/>
<path d="M7.09 9.54001L6.98 9.88001H6.63L6.91 10.09L6.8 10.43L7.09 10.22L7.38 10.43L7.27 10.09L7.56 9.88001H7.2L7.09 9.54001Z" fill="white"/>
<path d="M7.2 11.6L7.09 11.26L6.98 11.6H6.63L6.91 11.81L6.8 12.15L7.09 11.94L7.38 12.15L7.27 11.81L7.56 11.6H7.2Z" fill="white"/>
<path d="M8.11 5.22998L8 5.56998H7.64L7.93 5.77998L7.82 6.11998L8.11 5.90998L8.4 6.11998L8.29 5.77998L8.58 5.56998H8.22L8.11 5.22998Z" fill="white"/>
<path d="M8.11 6.94998L8 7.28998H7.64L7.93 7.49998L7.82 7.83998L8.11 7.62998L8.4 7.83998L8.29 7.49998L8.58 7.28998H8.22L8.11 6.94998Z" fill="white"/>
<path d="M8.11 8.67999L8 9.01999H7.64L7.93 9.22999L7.82 9.56999L8.11 9.35999L8.4 9.56999L8.29 9.22999L8.58 9.01999H8.22L8.11 8.67999Z" fill="white"/>
<path d="M8.22 10.74L8.11 10.4L8 10.74H7.64L7.93 10.95L7.82 11.29L8.11 11.08L8.4 11.29L8.29 10.95L8.58 10.74H8.22Z" fill="white"/>
<path d="M9.12001 4.37L9.01001 4.71H8.65001L8.94001 4.92L8.83001 5.26L9.12001 5.05L9.41001 5.26L9.30001 4.92L9.59001 4.71H9.23001L9.12001 4.37Z" fill="white"/>
<path d="M9.12001 6.09L9.01001 6.43H8.65001L8.94001 6.64L8.83001 6.98L9.12001 6.77L9.41001 6.98L9.30001 6.64L9.59001 6.43H9.23001L9.12001 6.09Z" fill="white"/>
<path d="M9.12001 7.82001L9.01001 8.16001H8.65001L8.94001 8.37001L8.83001 8.71001L9.12001 8.50001L9.41001 8.71001L9.30001 8.37001L9.59001 8.16001H9.23001L9.12001 7.82001Z" fill="white"/>
<path d="M9.12001 9.54001L9.01001 9.88001H8.65001L8.94001 10.09L8.83001 10.43L9.12001 10.22L9.41001 10.43L9.30001 10.09L9.59001 9.88001H9.23001L9.12001 9.54001Z" fill="white"/>
<path d="M9.23001 11.6L9.12001 11.26L9.01001 11.6H8.65001L8.94001 11.81L8.83001 12.15L9.12001 11.94L9.41001 12.15L9.30001 11.81L9.59001 11.6H9.23001Z" fill="white"/>
<path d="M10.13 5.22998L10.02 5.56998H9.67L9.96 5.77998L9.84 6.11998L10.13 5.90998L10.42 6.11998L10.31 5.77998L10.6 5.56998H10.24L10.13 5.22998Z" fill="white"/>
<path d="M10.13 6.94998L10.02 7.28998H9.67L9.96 7.49998L9.84 7.83998L10.13 7.62998L10.42 7.83998L10.31 7.49998L10.6 7.28998H10.24L10.13 6.94998Z" fill="white"/>
<path d="M10.13 8.67999L10.02 9.01999H9.67L9.96 9.22999L9.84 9.56999L10.13 9.35999L10.42 9.56999L10.31 9.22999L10.6 9.01999H10.24L10.13 8.67999Z" fill="white"/>
<path d="M10.24 10.74L10.13 10.4L10.02 10.74H9.67L9.96 10.95L9.84 11.29L10.13 11.08L10.42 11.29L10.31 10.95L10.6 10.74H10.24Z" fill="white"/>
<path d="M10.97 4.92L10.86 5.26L11.15 5.05L11.44 5.26L11.33 4.92L11.62 4.71H11.26L11.15 4.37L11.04 4.71H10.68L10.97 4.92Z" fill="white"/>
<path d="M11.15 6.09L11.04 6.43H10.68L10.97 6.64L10.86 6.98L11.15 6.77L11.44 6.98L11.33 6.64L11.62 6.43H11.26L11.15 6.09Z" fill="white"/>
<path d="M11.15 7.82001L11.04 8.16001H10.68L10.97 8.37001L10.86 8.71001L11.15 8.50001L11.44 8.71001L11.33 8.37001L11.62 8.16001H11.26L11.15 7.82001Z" fill="white"/>
<path d="M11.15 9.54001L11.04 9.88001H10.68L10.97 10.09L10.86 10.43L11.15 10.22L11.44 10.43L11.33 10.09L11.62 9.88001H11.26L11.15 9.54001Z" fill="white"/>
<path d="M11.26 11.6L11.15 11.26L11.04 11.6H10.68L10.97 11.81L10.86 12.15L11.15 11.94L11.44 12.15L11.33 11.81L11.62 11.6H11.26Z" fill="white"/>
</svg>
