<svg width="24" height="24" viewBox="0 0 24 24" fill="none" xmlns="http://www.w3.org/2000/svg">
<path d="M0 4H24V20H0V4Z" fill="#1EB53A"/>
<path d="M0 4H24V12H0V4Z" fill="#0099B5"/>
<path d="M0 9.12H24V14.88H0V9.12Z" fill="#CE1126"/>
<path d="M0 9.44H24V14.56H0V9.44Z" fill="white"/>
<path d="M4.40999 8.04C5.22737 8.04 5.88999 7.37738 5.88999 6.56C5.88999 5.74262 5.22737 5.08 4.40999 5.08C3.59261 5.08 2.92999 5.74262 2.92999 6.56C2.92999 7.37738 3.59261 8.04 4.40999 8.04Z" fill="white"/>
<path d="M4.90999 8.04C5.72737 8.04 6.38999 7.37738 6.38999 6.56C6.38999 5.74262 5.72737 5.08 4.90999 5.08C4.09261 5.08 3.42999 5.74262 3.42999 6.56C3.42999 7.37738 4.09261 8.04 4.90999 8.04Z" fill="#0099B5"/>
<path d="M7.66999 7.45L7.57999 7.73L7.71999 7.78" fill="white"/>
<path d="M7.67 7.45L7.76 7.73L7.62 7.78" fill="white"/>
<path d="M7.94999 7.66H7.64999V7.81" fill="white"/>
<path d="M7.95 7.66L7.71 7.83L7.62 7.71" fill="white"/>
<path d="M7.38998 7.66L7.62998 7.83L7.71998 7.71" fill="white"/>
<path d="M7.38998 7.66H7.68998V7.81" fill="white"/>
<path d="M7.83999 7.98999L7.74999 7.70999L7.60999 7.75999" fill="white"/>
<path d="M7.83998 7.99L7.59998 7.82L7.68998 7.7" fill="white"/>
<path d="M7.48999 7.99L7.72999 7.82L7.63999 7.7" fill="white"/>
<path d="M7.48999 7.98999L7.57999 7.70999L7.71999 7.75999" fill="white"/>
<path d="M7.66999 6.27L7.57999 6.55L7.71999 6.6" fill="white"/>
<path d="M7.67 6.27L7.76 6.55L7.62 6.6" fill="white"/>
<path d="M7.94999 6.47H7.64999V6.62" fill="white"/>
<path d="M7.95 6.47L7.71 6.64L7.62 6.52" fill="white"/>
<path d="M7.38998 6.47L7.62998 6.64L7.71998 6.52" fill="white"/>
<path d="M7.38998 6.47H7.68998V6.62" fill="white"/>
<path d="M7.83999 6.8L7.74999 6.52L7.60999 6.57" fill="white"/>
<path d="M7.83998 6.80001L7.59998 6.63001L7.68998 6.51001" fill="white"/>
<path d="M7.48999 6.80001L7.72999 6.63001L7.63999 6.51001" fill="white"/>
<path d="M7.48999 6.8L7.57999 6.52L7.71999 6.57" fill="white"/>
<path d="M7.66999 5.08L7.57999 5.36L7.71999 5.41" fill="white"/>
<path d="M7.67 5.08L7.76 5.36L7.62 5.41" fill="white"/>
<path d="M7.94999 5.29001H7.64999V5.44001" fill="white"/>
<path d="M7.95 5.29001L7.71 5.46001L7.62 5.34001" fill="white"/>
<path d="M7.38998 5.29001L7.62998 5.46001L7.71998 5.34001" fill="white"/>
<path d="M7.38998 5.29001H7.68998V5.44001" fill="white"/>
<path d="M7.83999 5.62L7.74999 5.34L7.60999 5.39" fill="white"/>
<path d="M7.83998 5.62L7.59998 5.45L7.68998 5.33" fill="white"/>
<path d="M7.48999 5.62L7.72999 5.45L7.63999 5.33" fill="white"/>
<path d="M7.48999 5.62L7.57999 5.34L7.71999 5.39" fill="white"/>
<path d="M8.84998 7.45L8.75998 7.73L8.89998 7.78" fill="white"/>
<path d="M8.84999 7.45L8.93999 7.73L8.79999 7.78" fill="white"/>
<path d="M9.12999 7.66H8.82999V7.81" fill="white"/>
<path d="M9.12999 7.66L8.88999 7.83L8.79999 7.71" fill="white"/>
<path d="M8.56998 7.66L8.80998 7.83L8.89998 7.71" fill="white"/>
<path d="M8.56998 7.66H8.86998V7.81" fill="white"/>
<path d="M9.02001 7.98999L8.93001 7.70999L8.79001 7.75999" fill="white"/>
<path d="M9.02 7.99L8.78 7.82L8.87 7.7" fill="white"/>
<path d="M8.67999 7.99L8.91999 7.82L8.82999 7.7" fill="white"/>
<path d="M8.67999 7.98999L8.76999 7.70999L8.90999 7.75999" fill="white"/>
<path d="M8.84998 6.27L8.75998 6.55L8.89998 6.6" fill="white"/>
<path d="M8.84999 6.27L8.93999 6.55L8.79999 6.6" fill="white"/>
<path d="M9.12999 6.47H8.82999V6.62" fill="white"/>
<path d="M9.12999 6.47L8.88999 6.64L8.79999 6.52" fill="white"/>
<path d="M8.56998 6.47L8.80998 6.64L8.89998 6.52" fill="white"/>
<path d="M8.56998 6.47H8.86998V6.62" fill="white"/>
<path d="M9.02001 6.8L8.93001 6.52L8.79001 6.57" fill="white"/>
<path d="M9.02 6.80001L8.78 6.63001L8.87 6.51001" fill="white"/>
<path d="M8.67999 6.80001L8.91999 6.63001L8.82999 6.51001" fill="white"/>
<path d="M8.67999 6.8L8.76999 6.52L8.90999 6.57" fill="white"/>
<path d="M8.84998 5.08L8.75998 5.36L8.89998 5.41" fill="white"/>
<path d="M8.84999 5.08L8.93999 5.36L8.79999 5.41" fill="white"/>
<path d="M9.12999 5.29001H8.82999V5.44001" fill="white"/>
<path d="M9.12999 5.29001L8.88999 5.46001L8.79999 5.34001" fill="white"/>
<path d="M8.56998 5.29001L8.80998 5.46001L8.89998 5.34001" fill="white"/>
<path d="M8.56998 5.29001H8.86998V5.44001" fill="white"/>
<path d="M9.02001 5.62L8.93001 5.34L8.79001 5.39" fill="white"/>
<path d="M9.02 5.62L8.78 5.45L8.87 5.33" fill="white"/>
<path d="M8.67999 5.62L8.91999 5.45L8.82999 5.33" fill="white"/>
<path d="M8.67999 5.62L8.76999 5.34L8.90999 5.39" fill="white"/>
<path d="M10.03 7.45L9.94 7.73L10.08 7.78" fill="white"/>
<path d="M10.03 7.45L10.12 7.73L9.98001 7.78" fill="white"/>
<path d="M10.31 7.66H10.01V7.81" fill="white"/>
<path d="M10.31 7.66L10.07 7.83L9.98001 7.71" fill="white"/>
<path d="M9.75 7.66L9.99 7.83L10.08 7.71" fill="white"/>
<path d="M9.75 7.66H10.05V7.81" fill="white"/>
<path d="M10.21 7.98999L10.12 7.70999L9.97998 7.75999" fill="white"/>
<path d="M10.21 7.99L9.96997 7.82L10.06 7.7" fill="white"/>
<path d="M9.85999 7.99L10.1 7.82L10.01 7.7" fill="white"/>
<path d="M9.85999 7.98999L9.94999 7.70999L10.09 7.75999" fill="white"/>
<path d="M10.03 6.27L9.94 6.55L10.08 6.6" fill="white"/>
<path d="M10.03 6.27L10.12 6.55L9.98001 6.6" fill="white"/>
<path d="M10.31 6.47H10.01V6.62" fill="white"/>
<path d="M10.31 6.47L10.07 6.64L9.98001 6.52" fill="white"/>
<path d="M9.75 6.47L9.99 6.64L10.08 6.52" fill="white"/>
<path d="M9.75 6.47H10.05V6.62" fill="white"/>
<path d="M10.21 6.8L10.12 6.52L9.97998 6.57" fill="white"/>
<path d="M10.21 6.80001L9.96997 6.63001L10.06 6.51001" fill="white"/>
<path d="M9.85999 6.80001L10.1 6.63001L10.01 6.51001" fill="white"/>
<path d="M9.85999 6.8L9.94999 6.52L10.09 6.57" fill="white"/>
<path d="M10.03 5.08L9.94 5.36L10.08 5.41" fill="white"/>
<path d="M10.03 5.08L10.12 5.36L9.98001 5.41" fill="white"/>
<path d="M10.31 5.29001H10.01V5.44001" fill="white"/>
<path d="M10.31 5.29001L10.07 5.46001L9.98001 5.34001" fill="white"/>
<path d="M9.75 5.29001L9.99 5.46001L10.08 5.34001" fill="white"/>
<path d="M9.75 5.29001H10.05V5.44001" fill="white"/>
<path d="M10.21 5.62L10.12 5.34L9.97998 5.39" fill="white"/>
<path d="M10.21 5.62L9.96997 5.45L10.06 5.33" fill="white"/>
<path d="M9.85999 5.62L10.1 5.45L10.01 5.33" fill="white"/>
<path d="M9.85999 5.62L9.94999 5.34L10.09 5.39" fill="white"/>
<path d="M5.29999 7.45L5.20999 7.73L5.34999 7.78" fill="white"/>
<path d="M5.3 7.45L5.39 7.73L5.25 7.78" fill="white"/>
<path d="M5.58 7.66H5.28V7.81" fill="white"/>
<path d="M5.58 7.66L5.34 7.83L5.25 7.71" fill="white"/>
<path d="M5.01999 7.66L5.25999 7.83L5.34999 7.71" fill="white"/>
<path d="M5.01999 7.66H5.31999V7.81" fill="white"/>
<path d="M5.46999 7.98999L5.37999 7.70999L5.23999 7.75999" fill="white"/>
<path d="M5.46998 7.99L5.22998 7.82L5.31998 7.7" fill="white"/>
<path d="M5.12997 7.99L5.36997 7.82L5.27997 7.7" fill="white"/>
<path d="M5.12997 7.98999L5.21997 7.70999L5.35997 7.75999" fill="white"/>
<path d="M6.47998 7.45L6.38998 7.73L6.52998 7.78" fill="white"/>
<path d="M6.47999 7.45L6.56999 7.73L6.42999 7.78" fill="white"/>
<path d="M6.75999 7.66H6.45999V7.81" fill="white"/>
<path d="M6.75999 7.66L6.51999 7.83L6.42999 7.71" fill="white"/>
<path d="M6.19998 7.66L6.43998 7.83L6.52998 7.71" fill="white"/>
<path d="M6.19998 7.66H6.49998V7.81" fill="white"/>
<path d="M6.65996 7.98999L6.56996 7.70999L6.42996 7.75999" fill="white"/>
<path d="M6.65995 7.99L6.41995 7.82L6.50995 7.7" fill="white"/>
<path d="M6.30997 7.99L6.54997 7.82L6.45997 7.7" fill="white"/>
<path d="M6.30997 7.98999L6.39997 7.70999L6.53997 7.75999" fill="white"/>
<path d="M6.47998 6.27L6.38998 6.55L6.52998 6.6" fill="white"/>
<path d="M6.47999 6.27L6.56999 6.55L6.42999 6.6" fill="white"/>
<path d="M6.75999 6.47H6.45999V6.62" fill="white"/>
<path d="M6.75999 6.47L6.51999 6.64L6.42999 6.52" fill="white"/>
<path d="M6.19998 6.47L6.43998 6.64L6.52998 6.52" fill="white"/>
<path d="M6.19998 6.47H6.49998V6.62" fill="white"/>
<path d="M6.65996 6.8L6.56996 6.52L6.42996 6.57" fill="white"/>
<path d="M6.65995 6.80001L6.41995 6.63001L6.50995 6.51001" fill="white"/>
<path d="M6.30997 6.80001L6.54997 6.63001L6.45997 6.51001" fill="white"/>
<path d="M6.30997 6.8L6.39997 6.52L6.53997 6.57" fill="white"/>
</svg>
