<svg width="24" height="24" viewBox="0 0 24 24" fill="none" xmlns="http://www.w3.org/2000/svg">
<path d="M24 4H0V12H24V4Z" fill="#D21034"/>
<path d="M24 12H0V20H24V12Z" fill="#009543"/>
<path d="M0 4L13.97 12L0 20V4Z" fill="black"/>
<path d="M24 10.57H0V13.43H24V10.57Z" fill="black"/>
<path d="M0 5.14L11.98 12L0 18.86V5.14Z" fill="#FDCE12"/>
<path d="M24 11.58H0V12.42H24V11.58Z" fill="#FDCE12"/>
<path d="M0 6.08L10.33 12L0 17.92V6.08Z" fill="black"/>
<path d="M2.92 13.38V14.2C3.63 14.2 5.03 13.65 5.03 11.89C5.03 10.13 3.54 9.8 3.09 9.8C2.64 9.8 1.26 10.12 1.26 11.56C1.26 13 2.61 13.13 2.88 13.13C3.15 13.13 4.15 12.89 4.03 11.81C4.03 12.12 3.68 12.76 2.96 12.76C2.24 12.76 1.78 12.22 1.78 11.69C1.78 11.16 2.22 10.44 2.99 10.44C3.76 10.44 4.32 11.12 4.32 11.81C4.32 12.5 3.78 13.37 2.92 13.37V13.38Z" fill="#FDCE12"/>
<path d="M2.29 12.31L2.33 12.34C2.33 12.34 2.67 11.57 3.58 11.02C3.46 11.08 2.86 11.39 2.29 12.31Z" fill="#FDCE12" stroke="#FDCE12" stroke-width="0.03" stroke-miterlimit="2.53"/>
<path d="M2.38 12.18C2.38 12.18 2.27 11.96 2.37 11.87C2.46 11.77 2.42 12.12 2.42 12.12L2.46 12.06C2.46 12.06 2.4 11.8 2.46 11.74C2.53 11.68 2.5 11.99 2.5 11.99L2.54 11.93C2.54 11.93 2.49 11.67 2.56 11.63C2.63 11.58 2.59 11.87 2.59 11.87L2.64 11.81C2.64 11.81 2.6 11.57 2.69 11.51C2.77 11.45 2.7 11.74 2.7 11.74L2.76 11.68C2.76 11.68 2.73 11.46 2.81 11.41C2.88 11.36 2.82 11.62 2.82 11.62L2.87 11.57C2.87 11.57 2.85 11.36 2.92 11.31C2.99 11.26 2.92 11.51 2.92 11.51L2.97 11.46C2.97 11.46 2.96 11.25 3.04 11.21C3.13 11.17 3.02 11.41 3.02 11.41L3.08 11.36C3.08 11.36 3.1 11.12 3.17 11.09C3.24 11.07 3.14 11.31 3.14 11.31L3.19 11.27C3.19 11.27 3.22 11.06 3.3 11.04C3.38 11.01 3.25 11.23 3.25 11.23L3.3 11.19C3.3 11.19 3.36 10.98 3.43 10.96C3.51 10.94 3.35 11.16 3.35 11.16L3.4 11.12C3.4 11.12 3.48 10.93 3.55 10.92C3.62 10.91 3.47 11.08 3.47 11.08L3.53 11.04C3.53 11.04 3.64 10.84 3.68 10.9C3.72 10.96 3.53 11.05 3.53 11.05L3.47 11.09C3.47 11.09 3.7 10.98 3.73 11.04C3.76 11.1 3.42 11.13 3.42 11.13L3.36 11.17C3.36 11.17 3.59 11.11 3.56 11.17C3.53 11.23 3.31 11.22 3.31 11.22L3.26 11.26C3.26 11.26 3.49 11.2 3.46 11.26C3.43 11.31 3.21 11.31 3.21 11.31L3.15 11.36C3.15 11.36 3.37 11.3 3.34 11.37C3.31 11.44 3.05 11.44 3.05 11.44L2.99 11.5C2.99 11.5 3.23 11.42 3.21 11.48C3.19 11.54 2.92 11.58 2.92 11.58L2.86 11.64C2.86 11.64 3.11 11.55 3.04 11.64C2.96 11.72 2.78 11.74 2.78 11.74L2.71 11.83C2.71 11.83 2.96 11.68 2.93 11.76C2.89 11.85 2.65 11.9 2.65 11.9L2.6 11.96C2.6 11.96 2.83 11.83 2.8 11.9C2.78 11.97 2.54 12.05 2.54 12.05L2.5 12.11C2.5 12.11 2.77 11.95 2.74 12.03C2.72 12.11 2.46 12.17 2.46 12.17L2.43 12.22C2.43 12.22 2.68 12.08 2.68 12.15C2.68 12.22 2.39 12.29 2.39 12.29V12.23L2.38 12.18Z" fill="#FDCE12"/>
<path d="M3.73 12.31L3.69 12.34C3.69 12.34 3.35 11.57 2.44 11.02C2.56 11.08 3.16 11.39 3.73 12.31Z" fill="#FDCE12" stroke="#FDCE12" stroke-width="0.03" stroke-miterlimit="2.53"/>
<path d="M3.65 12.18C3.65 12.18 3.76 11.96 3.66 11.87C3.57 11.77 3.61 12.12 3.61 12.12L3.57 12.06C3.57 12.06 3.63 11.8 3.57 11.74C3.5 11.68 3.53 11.99 3.53 11.99L3.49 11.93C3.49 11.93 3.54 11.67 3.47 11.63C3.4 11.58 3.44 11.87 3.44 11.87L3.39 11.81C3.39 11.81 3.43 11.57 3.34 11.51C3.26 11.45 3.33 11.74 3.33 11.74L3.27 11.68C3.27 11.68 3.3 11.46 3.22 11.41C3.15 11.36 3.21 11.62 3.21 11.62L3.16 11.57C3.16 11.57 3.18 11.36 3.11 11.31C3.04 11.26 3.11 11.51 3.11 11.51L3.06 11.46C3.06 11.46 3.07 11.25 2.99 11.21C2.9 11.17 3.01 11.41 3.01 11.41L2.95 11.36C2.95 11.36 2.93 11.12 2.86 11.09C2.79 11.07 2.89 11.31 2.89 11.31L2.84 11.27C2.84 11.27 2.81 11.06 2.73 11.04C2.65 11.01 2.78 11.23 2.78 11.23L2.73 11.19C2.73 11.19 2.67 10.98 2.6 10.96C2.52 10.94 2.68 11.16 2.68 11.16L2.63 11.12C2.63 11.12 2.55 10.93 2.48 10.92C2.41 10.91 2.56 11.08 2.56 11.08L2.5 11.04C2.5 11.04 2.39 10.84 2.35 10.9C2.31 10.96 2.5 11.05 2.5 11.05L2.56 11.09C2.56 11.09 2.33 10.98 2.3 11.04C2.27 11.1 2.61 11.13 2.61 11.13L2.67 11.17C2.67 11.17 2.44 11.11 2.47 11.17C2.5 11.23 2.72 11.22 2.72 11.22L2.77 11.26C2.77 11.26 2.54 11.2 2.57 11.26C2.6 11.31 2.82 11.31 2.82 11.31L2.88 11.36C2.88 11.36 2.66 11.3 2.69 11.37C2.72 11.44 2.98 11.44 2.98 11.44L3.04 11.5C3.04 11.5 2.8 11.42 2.82 11.48C2.84 11.54 3.11 11.58 3.11 11.58L3.17 11.64C3.17 11.64 2.92 11.55 2.99 11.64C3.07 11.72 3.25 11.74 3.25 11.74L3.32 11.83C3.32 11.83 3.07 11.68 3.1 11.76C3.14 11.85 3.38 11.9 3.38 11.9L3.43 11.96C3.43 11.96 3.2 11.83 3.23 11.9C3.25 11.97 3.49 12.05 3.49 12.05L3.53 12.11C3.53 12.11 3.26 11.95 3.29 12.03C3.31 12.11 3.57 12.17 3.57 12.17L3.6 12.22C3.6 12.22 3.35 12.08 3.35 12.15C3.35 12.22 3.64 12.29 3.64 12.29V12.23L3.65 12.18Z" fill="#FDCE12"/>
</svg>
