<svg width="24" height="24" viewBox="0 0 24 24" fill="none" xmlns="http://www.w3.org/2000/svg">
<path d="M0 4H24V20H0V4Z" fill="#CF142B"/>
<path d="M0 14.67H24V4H0V14.67Z" fill="#00247D"/>
<path d="M0 4H24V9.33H0V4Z" fill="#FFCC00"/>
<path d="M6.86 13.25L7.41 13.68L7.67 13.35L6.87 13.25H6.86Z" fill="white"/>
<path d="M6.86 13.25L7.55 13.27V13.69L6.86 13.25Z" fill="white"/>
<path d="M7.54 12.8L7.3 13.45L7.69 13.59L7.54 12.8Z" fill="white"/>
<path d="M7.54 12.8L7.73 13.47L7.33 13.58L7.54 12.8Z" fill="white"/>
<path d="M7.09 14.03L7.66 13.64L7.43 13.3L7.09 14.03Z" fill="white"/>
<path d="M7.09 14.03L7.33 13.38L7.72 13.52L7.09 14.03Z" fill="white"/>
<path d="M8.18001 13.3L7.49001 13.28V13.7L8.18001 13.31V13.3Z" fill="white"/>
<path d="M8.18001 13.3L7.61 13.69L7.38 13.35L8.19 13.31L8.18001 13.3Z" fill="white"/>
<path d="M7.9 14.06L7.71 13.39L7.31 13.5L7.9 14.05V14.06Z" fill="white"/>
<path d="M7.89999 14.06L7.34999 13.63L7.60999 13.3L7.89999 14.05V14.06Z" fill="white"/>
<path d="M7.88 11.67L8.2 12.28L8.57 12.09L7.88 11.67Z" fill="white"/>
<path d="M7.88 11.67L8.5 11.97L8.32 12.34L7.88 11.66V11.67Z" fill="white"/>
<path d="M8.68 11.53L8.2 12.03L8.5 12.32L8.68 11.53Z" fill="white"/>
<path d="M8.68 11.53L8.58 12.22L8.17 12.16L8.68 11.53Z" fill="white"/>
<path d="M7.77 12.48L8.45 12.36L8.38 11.95L7.77 12.48Z" fill="white"/>
<path d="M7.77 12.48L8.25 11.98L8.55 12.27L7.77 12.48Z" fill="white"/>
<path d="M9.07 12.25L8.45 11.95L8.27 12.32L9.07 12.25Z" fill="white"/>
<path d="M9.07001 12.25L8.39001 12.37L8.32001 11.96L9.07001 12.25Z" fill="white"/>
<path d="M8.5 12.83L8.6 12.14L8.19 12.08L8.5 12.82V12.83Z" fill="white"/>
<path d="M8.50001 12.83L8.18001 12.22L8.55001 12.03L8.51001 12.84L8.50001 12.83Z" fill="white"/>
<path d="M9.3 10.55L9.44 11.23L9.85 11.14L9.3 10.55Z" fill="white"/>
<path d="M9.30001 10.55L9.81001 11.01L9.53001 11.32L9.29001 10.55H9.30001Z" fill="white"/>
<path d="M10.11 10.64L9.51001 10.99L9.72001 11.35L10.11 10.64Z" fill="white"/>
<path d="M10.11 10.64L9.83001 11.27L9.45001 11.1L10.11 10.64Z" fill="white"/>
<path d="M8.97 11.3L9.66 11.37L9.7 10.96L8.97 11.3Z" fill="white"/>
<path d="M8.97 11.3L9.57 10.95L9.78 11.31H8.97V11.3Z" fill="white"/>
<path d="M10.28 11.43L9.77001 10.97L9.49001 11.28L10.28 11.43Z" fill="white"/>
<path d="M10.28 11.43L9.59001 11.36L9.63001 10.95L10.28 11.44V11.43Z" fill="white"/>
<path d="M9.58 11.84L9.86 11.21L9.48 11.04L9.58 11.84Z" fill="white"/>
<path d="M9.58 11.84L9.44 11.16L9.85 11.07L9.59 11.83L9.58 11.84Z" fill="white"/>
<path d="M11.05 9.92999L10.95 10.62L11.36 10.68L11.05 9.93999V9.92999Z" fill="white"/>
<path d="M11.05 9.93L11.37 10.54L11 10.73L11.04 9.92L11.05 9.93Z" fill="white"/>
<path d="M11.78 10.29L11.1 10.41L11.17 10.82L11.78 10.29Z" fill="white"/>
<path d="M11.78 10.29L11.3 10.79L11 10.5L11.78 10.29Z" fill="white"/>
<path d="M10.48 10.52L11.1 10.82L11.28 10.45L10.48 10.52Z" fill="white"/>
<path d="M10.48 10.52L11.16 10.4L11.23 10.81L10.48 10.52Z" fill="white"/>
<path d="M11.66 11.1L11.34 10.49L10.97 10.68L11.66 11.1Z" fill="white"/>
<path d="M11.66 11.1L11.04 10.8L11.22 10.43L11.66 11.11V11.1Z" fill="white"/>
<path d="M10.86 11.24L11.34 10.74L11.04 10.45L10.86 11.24Z" fill="white"/>
<path d="M10.86 11.24L10.96 10.55L11.37 10.61L10.86 11.24Z" fill="white"/>
<path d="M17.14 13.25L16.59 13.68L16.33 13.35L17.13 13.25H17.14Z" fill="white"/>
<path d="M17.14 13.25L16.45 13.27V13.69L17.14 13.25Z" fill="white"/>
<path d="M16.47 12.8L16.71 13.45L16.32 13.59L16.47 12.8Z" fill="white"/>
<path d="M16.47 12.8L16.28 13.47L16.68 13.58L16.47 12.8Z" fill="white"/>
<path d="M16.92 14.03L16.35 13.64L16.58 13.3L16.92 14.03Z" fill="white"/>
<path d="M16.92 14.03L16.68 13.38L16.29 13.52L16.92 14.03Z" fill="white"/>
<path d="M15.83 13.3L16.52 13.28V13.7L15.83 13.31V13.3Z" fill="white"/>
<path d="M15.83 13.3L16.4 13.69L16.63 13.35L15.82 13.31L15.83 13.3Z" fill="white"/>
<path d="M16.11 14.06L16.3 13.39L16.7 13.5L16.11 14.05V14.06Z" fill="white"/>
<path d="M16.11 14.06L16.66 13.63L16.4 13.3L16.11 14.05V14.06Z" fill="white"/>
<path d="M16.12 11.67L15.8 12.28L15.43 12.09L16.12 11.67Z" fill="white"/>
<path d="M16.12 11.67L15.5 11.97L15.68 12.34L16.12 11.66V11.67Z" fill="white"/>
<path d="M15.32 11.53L15.8 12.03L15.5 12.32L15.32 11.53Z" fill="white"/>
<path d="M15.32 11.53L15.42 12.22L15.83 12.16L15.32 11.53Z" fill="white"/>
<path d="M16.24 12.48L15.56 12.36L15.63 11.95L16.24 12.48Z" fill="white"/>
<path d="M16.24 12.48L15.76 11.98L15.46 12.27L16.24 12.48Z" fill="white"/>
<path d="M14.94 12.25L15.56 11.95L15.74 12.32L14.94 12.25Z" fill="white"/>
<path d="M14.94 12.25L15.62 12.37L15.69 11.96L14.94 12.25Z" fill="white"/>
<path d="M15.51 12.83L15.41 12.14L15.82 12.08L15.51 12.82V12.83Z" fill="white"/>
<path d="M15.51 12.83L15.83 12.22L15.46 12.03L15.5 12.84L15.51 12.83Z" fill="white"/>
<path d="M14.7 10.55L14.56 11.23L14.15 11.14L14.7 10.55Z" fill="white"/>
<path d="M14.7 10.55L14.19 11.01L14.47 11.32L14.71 10.55H14.7Z" fill="white"/>
<path d="M13.89 10.64L14.49 10.99L14.28 11.35L13.89 10.64Z" fill="white"/>
<path d="M13.89 10.64L14.17 11.27L14.55 11.1L13.89 10.64Z" fill="white"/>
<path d="M15.03 11.3L14.34 11.37L14.3 10.96L15.03 11.3Z" fill="white"/>
<path d="M15.03 11.3L14.43 10.95L14.22 11.31H15.03V11.3Z" fill="white"/>
<path d="M13.72 11.43L14.23 10.97L14.51 11.28L13.72 11.43Z" fill="white"/>
<path d="M13.72 11.43L14.41 11.36L14.37 10.95L13.72 11.44V11.43Z" fill="white"/>
<path d="M14.43 11.84L14.15 11.21L14.53 11.04L14.43 11.84Z" fill="white"/>
<path d="M14.43 11.84L14.57 11.16L14.16 11.07L14.42 11.83L14.43 11.84Z" fill="white"/>
<path d="M12.96 9.92999L13.06 10.62L12.65 10.68L12.96 9.93999V9.92999Z" fill="white"/>
<path d="M12.96 9.93L12.64 10.54L13.01 10.73L12.97 9.92L12.96 9.93Z" fill="white"/>
<path d="M12.23 10.29L12.91 10.41L12.84 10.82L12.23 10.29Z" fill="white"/>
<path d="M12.23 10.29L12.71 10.79L13.01 10.5L12.23 10.29Z" fill="white"/>
<path d="M13.53 10.52L12.91 10.82L12.73 10.45L13.53 10.52Z" fill="white"/>
<path d="M13.53 10.52L12.85 10.4L12.78 10.81L13.53 10.52Z" fill="white"/>
<path d="M12.34 11.1L12.66 10.49L13.03 10.68L12.34 11.1Z" fill="white"/>
<path d="M12.34 11.1L12.96 10.8L12.78 10.43L12.34 11.11V11.1Z" fill="white"/>
<path d="M13.14 11.24L12.66 10.74L12.96 10.45L13.14 11.24Z" fill="white"/>
<path d="M13.14 11.24L13.04 10.55L12.63 10.61L13.14 11.24Z" fill="white"/>
</svg>
