<svg width="24" height="24" viewBox="0 0 24 24" fill="none" xmlns="http://www.w3.org/2000/svg">
<path d="M24 4H0V20H24V4Z" fill="white"/>
<path d="M24 12H0V20H24V12Z" fill="#00AB39"/>
<path d="M16.98 6.00001C16.92 6.00001 16.86 6.00001 16.79 6.03001C16.65 6.09001 16.49 6.23001 16.2 6.45001C15.55 6.94001 14.81 7.01001 13.94 7.03001C12.12 7.07001 11.28 7.52002 10.88 8.09001C10.48 8.66001 10.53 9.34001 10.48 9.85001C10.45 10.2 10.38 10.49 10.13 10.82C10.2 10.65 10.22 10.53 10.2 10.44C10.18 10.34 10.13 10.28 10.06 10.23C10 10.18 9.92001 10.13 9.87001 10.08C9.83001 10.03 9.80001 9.97002 9.78001 9.90001C9.85001 9.85001 9.94001 9.85001 10.01 9.90001C10.1 9.95002 10.15 10.07 10.11 10.25C10.11 10.25 10.11 10.26 10.12 10.27H10.14C10.32 10.08 10.39 9.93002 10.4 9.80001C10.41 9.67001 10.36 9.56001 10.29 9.47001C10.22 9.38001 10.13 9.30001 10.07 9.22001C10.01 9.14001 9.97001 9.07001 9.99001 8.99001C10.02 8.96001 10.05 8.94001 10.07 8.93001C10.12 8.91001 10.16 8.93001 10.2 8.96001C10.24 9.00001 10.27 9.05001 10.29 9.12001C10.31 9.18001 10.32 9.25002 10.31 9.30001C10.31 9.30001 10.31 9.32001 10.32 9.32001H10.34C10.46 9.14001 10.5 8.99002 10.51 8.86001C10.51 8.73001 10.47 8.61001 10.4 8.52001C10.34 8.43001 10.25 8.35001 10.18 8.28001C10.11 8.21002 10.05 8.16001 10.01 8.11001C10.01 8.10001 10.01 8.08001 10.01 8.07001C10.06 8.03001 10.14 8.01001 10.21 8.02001C10.28 8.04001 10.35 8.09001 10.38 8.21001C10.38 8.21001 10.38 8.23001 10.4 8.23001C10.42 8.23001 10.42 8.23001 10.42 8.21001C10.42 7.97001 10.38 7.77001 10.29 7.63001C10.21 7.50001 10.08 7.41001 9.94001 7.36001C9.94001 7.36001 9.95001 7.34001 9.96001 7.33001C10.01 7.26001 10.08 7.19001 10.15 7.10001C10.28 6.92001 10.41 6.70001 10.38 6.42001C10.38 6.42001 10.38 6.42001 10.36 6.42001C10.24 6.58001 10.01 6.63001 9.78001 6.66001C9.81001 6.61001 9.84001 6.55001 9.87001 6.47001C9.90001 6.38001 9.93001 6.29001 9.92001 6.22001C9.92001 6.22001 9.92001 6.22001 9.92001 6.21001C9.92001 6.21001 9.91001 6.21001 9.90001 6.21001C9.76001 6.37001 9.49001 6.46001 9.25001 6.53001C9.13001 6.56001 9.02001 6.59001 8.94001 6.61001C8.90001 6.62001 8.86001 6.64001 8.84001 6.65001C8.82001 6.65001 8.81001 6.67001 8.80001 6.68001C8.64001 6.64001 8.48001 6.62001 8.34001 6.61001C8.09001 6.60001 7.88001 6.63001 7.75001 6.68001C7.68001 6.71001 7.63001 6.74001 7.59001 6.78001C7.56001 6.82001 7.54001 6.87001 7.55001 6.92001C7.56001 6.97001 7.60001 7.01001 7.65001 7.06001C7.29001 6.91001 6.98001 6.85001 6.73001 6.85001C6.63001 6.85001 6.53001 6.85001 6.45001 6.87001C6.28001 6.90001 6.14001 6.95001 6.05001 7.01001C5.97001 7.05001 5.93001 7.09001 5.89001 7.13001C5.89001 7.13001 5.89001 7.13001 5.88001 7.13001V7.15001H5.90001C5.95001 7.12001 6.00001 7.10001 6.05001 7.08001C6.09001 7.08001 6.14001 7.09001 6.19001 7.11001C6.24001 7.13001 6.28001 7.15001 6.32001 7.17001C6.36001 7.19001 6.38001 7.21001 6.38001 7.21001C6.40001 7.23001 6.44001 7.24001 6.47001 7.25001C6.40001 7.39001 6.38001 7.58001 6.38001 7.85001C6.37001 7.85001 6.36001 7.85001 6.34001 7.85001C6.27001 7.86001 6.17001 7.87001 6.07001 7.86001C5.92001 7.86001 5.75001 7.81001 5.60001 7.73001C5.62001 7.73001 5.65001 7.74001 5.67001 7.74001C5.78001 7.74001 5.88001 7.72001 5.95001 7.68001C5.96001 7.68001 5.97001 7.68001 5.98001 7.68001C5.98001 7.68001 5.99001 7.67001 5.99001 7.66001C5.99001 7.66001 5.99001 7.66001 5.99001 7.65001C5.88001 7.61001 5.30001 7.34001 4.81001 6.72001C4.81001 6.72001 4.80001 6.72001 4.79001 6.72001C4.78001 6.72001 4.77001 6.73001 4.77001 6.74001C4.79001 7.03001 4.88001 7.75001 5.48001 8.33001H5.50001C5.50001 8.33001 5.51001 8.32001 5.51001 8.31001C5.50001 8.23001 5.49001 8.18001 5.47001 8.10001C5.47001 8.00001 5.47001 7.93001 5.45001 7.87001C5.63001 8.03001 5.82001 8.11001 5.99001 8.13001C6.21001 8.16001 6.42001 8.11001 6.55001 8.09001C6.55001 8.09001 6.56001 8.09001 6.57001 8.09001C6.57001 8.22002 6.52001 8.38001 6.44001 8.51002C6.39001 8.59001 6.34001 8.65001 6.29001 8.70001C6.23001 8.75001 6.18001 8.77001 6.12001 8.77001C6.12001 8.77001 6.10001 8.77001 6.10001 8.79001C6.10001 8.79001 6.10001 8.79001 6.10001 8.80001C6.10001 8.81001 6.10001 8.82001 6.12001 8.82001C6.36001 8.82001 6.57001 8.82001 6.79001 8.82001H6.83001C6.82001 8.84001 6.77001 8.89001 6.71001 8.94001C6.71001 8.94001 6.71001 8.95001 6.71001 8.96001C6.71001 8.96001 6.72001 8.97001 6.73001 8.97001C6.73001 8.97001 6.74001 8.97001 6.75001 8.97001C6.75001 8.97001 6.76001 8.97001 6.77001 8.97001C6.91001 8.95001 7.09001 8.93001 7.23001 8.83001C7.23001 8.84001 7.23001 8.86001 7.22001 8.88001C7.22001 8.89001 7.21001 8.91001 7.19001 8.92001C7.19001 8.92001 7.19001 8.92001 7.18001 8.92001C7.16001 8.94001 7.14001 8.95001 7.11001 8.97001C7.11001 8.97001 7.11001 8.98001 7.11001 8.99001C7.11001 9.00001 7.11001 9.00001 7.13001 9.00001C7.28001 8.98001 7.54001 8.87001 7.73001 8.67001C7.83001 8.68001 7.89001 8.73002 7.93001 8.78001C7.95001 8.81001 7.97001 8.83001 7.99001 8.85001C7.99001 8.85001 8.01001 8.86001 8.02001 8.86001C8.02001 8.86001 8.02001 8.88001 8.02001 8.89001C8.02001 8.91001 8.04001 8.92001 8.05001 8.93001C7.98001 9.06001 7.96001 9.15001 7.97001 9.21001C7.97001 9.24001 7.99001 9.27002 8.01001 9.28001C7.92001 9.35001 7.84001 9.42001 7.80001 9.49001C7.78001 9.53001 7.77001 9.56001 7.78001 9.59001C7.78001 9.59001 7.78001 9.61001 7.79001 9.61001C7.79001 9.61001 7.78001 9.61001 7.77001 9.61001C7.68001 9.66001 7.59001 9.75001 7.54001 9.83001C7.52001 9.87001 7.50001 9.92001 7.51001 9.96001C7.51001 9.98001 7.51001 9.99002 7.53001 10.01C7.41001 10.07 7.30001 10.21 7.24001 10.33C7.21001 10.39 7.19001 10.45 7.20001 10.5C7.20001 10.52 7.21001 10.54 7.23001 10.56C7.23001 10.56 7.23001 10.56 7.22001 10.57C7.10001 10.63 7.02001 10.77 6.99001 10.9C6.97001 10.96 6.97001 11.02 6.98001 11.07C6.98001 11.09 6.99001 11.1 7.00001 11.11C7.00001 11.11 6.99001 11.11 6.98001 11.12C6.94001 11.15 6.92001 11.19 6.91001 11.2C6.84001 11.29 6.81001 11.44 6.81001 11.56C6.81001 11.62 6.82001 11.68 6.85001 11.72C6.85001 11.73 6.87001 11.74 6.88001 11.75C6.81001 11.84 6.78001 11.99 6.78001 12.11C6.78001 12.17 6.79001 12.23 6.82001 12.27C6.83001 12.29 6.85001 12.31 6.86001 12.32C6.86001 12.32 6.88001 12.32 6.89001 12.32C6.89001 12.32 6.88001 12.33 6.88001 12.34C6.87001 12.35 6.86001 12.36 6.86001 12.38C6.86001 12.38 6.86001 12.4 6.86001 12.41C6.82001 12.5 6.78001 12.45 6.76001 12.41C6.58001 12.03 6.39001 11.8 6.22001 10.92C6.19001 10.77 5.85001 10.53 5.75001 9.91001C5.73001 9.77001 5.94001 9.47001 5.65001 9.38001C5.45001 9.00001 5.04001 9.15001 4.98001 9.27001V9.29001C4.98001 9.29001 4.99001 9.29001 5.00001 9.29001C5.05001 9.28001 5.21001 9.33001 5.21001 9.43001C5.12001 9.64001 5.23001 9.81001 5.17001 9.79001C5.17001 9.47001 4.81001 9.47001 4.80001 9.48001L4.64001 9.46001C4.12001 9.46001 4.26001 9.85001 4.30001 9.92001C4.30001 9.92001 4.32001 9.92001 4.33001 9.92001C4.34001 9.92001 4.35001 9.92001 4.35001 9.91001C4.33001 9.77001 4.44001 9.76002 4.56001 9.82001C4.64001 10.11 4.80001 10.12 4.82001 10.12C5.04001 10.16 5.11001 10.31 5.11001 10.4C5.04001 10.37 4.96001 10.36 4.84001 10.38C4.76001 10.3 4.61001 10.27 4.56001 10.26C4.54001 10.26 4.37001 10.28 4.31001 10.37H4.29001C3.96001 10.47 4.10001 10.84 4.21001 10.88C4.21001 10.88 4.22001 10.88 4.23001 10.88C4.23001 10.88 4.23001 10.88 4.23001 10.86C4.18001 10.75 4.25001 10.69 4.33001 10.72C4.45001 10.86 4.61001 10.91 4.92001 10.74C4.92001 10.74 5.03001 10.79 5.14001 10.83C5.14001 10.96 5.27001 11.19 5.38001 11.36C5.35001 11.49 5.30001 11.63 5.27001 11.68C5.14001 11.78 5.04001 12.01 5.09001 12.22C5.05001 12.32 4.91001 12.38 4.91001 12.18H4.89001C4.89001 12.18 4.88001 12.19 4.89001 12.2C4.84001 12.33 5.06001 12.73 5.40001 12.52L5.47001 12.44C5.58001 12.44 5.70001 12.3 5.74001 12.17C5.91001 13.19 6.30001 14.23 6.47001 14.56C6.35001 14.94 5.99001 14.92 5.88001 14.8C5.88001 14.8 5.86001 14.8 5.85001 14.8C5.85001 14.8 5.85001 14.82 5.85001 14.83C6.07001 15.05 6.19001 15.12 6.40001 15.12C6.87001 15.12 7.03001 14.83 7.07001 14.7C7.47001 14.62 7.77001 14.36 7.88001 14.34C7.90001 14.36 7.92001 14.38 7.94001 14.4C8.03001 14.47 8.11001 14.52 8.18001 14.52C8.21001 14.52 8.24001 14.52 8.27001 14.5C8.30001 14.56 8.34001 14.6 8.39001 14.64C8.37001 14.78 8.35001 15.06 8.25001 15.43C8.15001 15.8 7.95001 16.25 7.57001 16.67C7.42001 16.73 7.30001 16.63 7.22001 16.57C7.16001 16.52 6.99001 16.34 6.96001 16.24C6.93001 16.13 6.88001 16.05 6.83001 16C6.78001 15.95 6.67001 15.92 6.60001 15.92C6.57001 15.92 6.55001 15.92 6.54001 15.92C6.31001 15.74 6.08001 16.04 6.11001 16.23C6.11001 16.23 6.11001 16.25 6.12001 16.25H6.14001C6.17001 16.18 6.26001 16.2 6.31001 16.26C6.31001 16.33 6.31001 16.4 6.38001 16.49C6.31001 16.49 6.22001 16.52 6.12001 16.63C5.73001 16.68 5.80001 17.12 5.92001 17.2C5.92001 17.2 5.93001 17.21 5.94001 17.21C5.94001 17.21 5.95001 17.21 5.96001 17.19C5.83001 17.02 6.01001 16.95 6.10001 17.03C6.12001 17.1 6.23001 17.17 6.31001 17.21C6.31001 17.23 6.28001 17.32 6.29001 17.34C5.87001 17.57 6.26001 17.98 6.36001 17.95H6.38001C6.38001 17.95 6.38001 17.94 6.38001 17.93C6.32001 17.83 6.32001 17.72 6.42001 17.75C6.47001 17.79 6.58001 17.8 6.63001 17.8C6.76001 17.8 6.84001 17.72 7.01001 17.55C7.11001 17.45 7.19001 17.5 7.25001 17.53C7.25001 17.56 7.27001 17.59 7.30001 17.6C7.35001 17.62 7.46001 17.63 7.52001 17.63C7.86001 17.62 8.06001 17.54 8.21001 17.49C8.37001 17.44 8.51001 17.41 8.64001 17.4C8.76001 17.4 8.84001 17.42 8.98001 17.47C9.05001 17.49 9.15001 17.55 9.21001 17.55C9.30001 17.55 9.34001 17.51 9.36001 17.47C9.49001 17.45 9.52001 17.5 9.45001 17.65V17.67H9.47001C9.60001 17.61 10 17.23 9.47001 17.01C9.39001 16.94 9.28001 16.88 9.20001 16.88C9.12001 16.88 9.03001 16.91 8.95001 16.93C8.86001 16.95 8.78001 16.97 8.75001 16.97C8.64001 16.97 8.63001 16.9 8.62001 16.78C8.61001 16.66 8.87001 16.23 8.98001 16.08C9.21001 15.78 9.51001 15.44 9.72001 15.22C10.37 15.19 10.11 15.57 10 15.65C10 15.65 9.99001 15.67 10 15.68C10 15.68 10.01 15.69 10.02 15.69C10.25 15.63 10.48 15.47 10.55 15.32C10.55 15.32 10.72 15.03 10.57 14.78C10.57 14.77 10.56 14.75 10.55 14.73C10.63 14.69 10.73 14.56 10.73 14.54C10.84 14.57 11.25 14.54 11.29 14.31C11.48 14.33 11.82 14.2 11.84 13.99C11.86 14.01 11.91 14.01 11.97 14C11.99 14.18 12.26 14.34 12.32 14.3C12.35 14.59 12.71 14.73 12.82 14.68C12.8 14.75 13.07 14.88 13.18 14.88C12.97 15.44 12.6 16.08 12.09 16.33C11.95 16.32 11.76 16.22 11.67 16.17C11.6 16.12 11.51 16.07 11.46 15.98C11.41 15.89 11.41 15.89 11.35 15.84C11.29 15.78 11.18 15.74 11.14 15.74C11.11 15.74 11.07 15.76 11.03 15.79C10.53 15.7 10.57 16.06 10.62 16.19C10.62 16.19 10.62 16.2 10.63 16.21C10.64 16.22 10.65 16.21 10.65 16.21C10.65 16.02 10.76 16.02 10.81 16.11C10.84 16.18 10.83 16.21 10.81 16.24C10.75 16.24 10.7 16.26 10.63 16.31C10.19 16.26 10.23 16.75 10.37 16.81C10.37 16.81 10.38 16.82 10.39 16.82C10.39 16.82 10.4 16.82 10.41 16.8C10.33 16.68 10.53 16.51 10.58 16.72V16.74C10.59 16.81 10.67 16.88 10.74 16.91C10.73 16.93 10.7 16.95 10.69 16.99C10.22 17.15 10.48 17.55 10.62 17.61H10.64C10.64 17.61 10.64 17.6 10.64 17.59C10.6 17.53 10.61 17.39 10.81 17.42C10.83 17.48 10.91 17.5 10.98 17.5C11.11 17.5 11.36 17.32 11.49 17.25C11.61 17.18 11.81 17.21 11.86 17.21C11.89 17.23 11.93 17.25 12.01 17.25C12.48 17.25 12.56 16.99 13.03 17C13.24 17 13.74 17.25 13.9 17.02C13.97 16.99 14.01 17.06 13.92 17.14V17.16C13.92 17.16 13.93 17.16 13.94 17.16C14.08 17.18 14.5 16.72 13.94 16.57C13.94 16.57 13.94 16.57 13.94 16.56C13.93 16.56 13.86 16.48 13.69 16.48C13.52 16.48 13.4 16.56 13.34 16.57C13.22 16.61 13.26 16.5 13.27 16.47C13.41 16.13 14.08 15.5 14.38 15.25C14.41 15.24 14.45 15.22 14.49 15.19C14.79 15.08 14.88 15.38 14.58 15.49C14.57 15.5 14.57 15.52 14.58 15.54C14.59 15.56 14.61 15.56 14.62 15.56C15.32 15.37 15.22 14.99 15.22 14.98C15.25 14.58 14.77 14.41 14.69 14.38C14.56 14.24 14.53 14.15 14.54 14.05C14.54 14 14.58 13.92 14.65 13.95C14.76 14.04 14.9 14.09 14.94 14.02C14.86 14.11 15.42 14.45 15.47 14.31C15.52 14.55 15.93 14.53 16 14.47C16.12 14.7 16.53 14.64 16.53 14.6C16.51 14.68 16.89 14.81 17.06 14.68V14.7C17.2 14.87 17.29 15.09 17.38 15.48C17.47 15.87 17.46 16.18 17.33 16.49C17.33 16.5 17.29 16.5 17.25 16.5C17.15 16.46 17.09 16.43 17.02 16.38C16.96 16.33 16.88 16.25 16.82 16.17C16.77 16.08 16.73 16 16.67 15.94C16.61 15.88 16.51 15.86 16.44 15.85C16.44 15.85 16.38 15.86 16.35 15.88C15.97 15.76 15.79 16.16 15.84 16.29C15.84 16.29 15.84 16.31 15.86 16.31C15.88 16.31 15.88 16.31 15.88 16.31C15.92 16.21 16.09 16.16 16.15 16.26C16.15 16.3 16.15 16.33 16.15 16.35C16.07 16.35 15.98 16.38 15.89 16.49C15.45 16.52 15.6 16.95 15.69 17.06C15.69 17.06 15.7 17.07 15.71 17.07C15.71 17.07 15.73 17.07 15.73 17.05C15.72 16.92 15.85 16.78 15.94 16.89C15.98 16.95 16.07 17 16.13 17.01C15.63 17.24 15.99 17.58 16.13 17.63H16.15C16.15 17.63 16.16 17.62 16.15 17.61C16.09 17.51 16.12 17.36 16.24 17.4C16.24 17.48 16.4 17.54 16.48 17.54C16.61 17.54 16.76 17.43 16.88 17.36C17 17.29 17.29 17.29 17.35 17.29C17.54 17.47 17.91 17.43 18.12 17.36C18.34 17.29 18.51 17.17 18.68 17.16C18.91 17.16 19.1 17.44 19.3 17.2C19.43 17.14 19.47 17.3 19.41 17.4V17.42H19.43C19.57 17.36 19.92 17.04 19.43 16.81C19.45 16.75 19.24 16.57 19.07 16.56C18.85 16.56 18.53 16.89 18.4 16.23C18.37 16.07 18.28 14.93 18.27 14.82C18.31 14.79 18.37 14.76 18.41 14.76C18.46 14.76 18.51 14.76 18.55 14.83C18.59 14.9 18.63 15.02 18.51 15.18C18.51 15.18 18.52 15.18 18.53 15.18C18.83 14.88 18.9 14.57 18.82 14.35C18.74 14.13 18.52 13.97 18.34 13.97C18.13 13.97 17.89 13.84 17.69 13.65C17.49 13.46 17.36 13.25 17.28 13.05C17.27 13.01 17.25 12.98 17.23 12.94C18.53 12.49 18.91 11.45 18.91 10.81C18.91 10.37 18.73 9.99001 18.47 9.72001C18.47 9.61001 18.49 9.48001 18.54 9.36001C18.56 9.29001 18.59 9.23001 18.61 9.19001C18.61 9.17001 18.63 9.16001 18.63 9.15001C18.63 9.18001 18.64 9.20001 18.66 9.24001C18.68 9.29001 18.71 9.36001 18.74 9.42001C18.81 9.55001 18.89 9.68001 18.95 9.74001C18.95 9.74001 18.96 9.74001 18.97 9.74001C18.97 9.74001 18.98 9.74001 18.98 9.72001C19.03 9.08001 19.25 8.14001 19.97 7.27001C19.97 7.27001 19.98 7.26001 19.98 7.25001C19.98 7.25001 19.97 7.23001 19.96 7.24001C19.8 7.32001 19.65 7.39001 19.52 7.47001C18.36 8.09001 18.15 8.51002 17.5 9.01002C17.5 9.01002 17.49 9.03001 17.5 9.03001C17.5 9.03001 17.51 9.04001 17.52 9.04001C17.84 9.02001 18.11 8.95001 18.36 8.83001C18.3 8.93001 18.22 9.06001 18.15 9.17001C18.11 9.24001 18.07 9.29001 18.03 9.33001C18.01 9.35001 18 9.36001 17.99 9.37001C17.82 9.29001 17.64 9.24001 17.47 9.24001C16.83 9.24001 16.38 9.67001 16.38 10.18C16.38 10.73 16.81 11.14 17.23 11.12C17.38 11.12 17.57 11.07 17.75 10.96C17.88 10.88 17.99 10.75 18.05 10.57C18.05 10.58 18.05 10.6 18.05 10.61C18.05 10.91 17.94 11.11 17.75 11.25C17.57 11.39 17.3 11.46 17.01 11.46C16.72 11.46 16.43 11.31 16.01 11.14C15.59 10.97 15.06 10.8 14.29 10.78C14.06 10.78 13.84 10.8 13.66 10.89C13.65 10.89 13.64 10.91 13.63 10.91C13.73 10.79 13.85 10.69 13.99 10.61C14.32 10.43 14.75 10.38 15.13 10.53C15.17 10.55 15.22 10.57 15.25 10.59C15.28 10.6 15.3 10.6 15.32 10.61C15.32 10.66 15.32 10.69 15.32 10.71C15.32 10.71 15.31 10.72 15.3 10.73C15.3 10.73 15.3 10.73 15.29 10.73C15.29 10.73 15.27 10.73 15.26 10.73C15.26 10.73 15.25 10.73 15.24 10.73C15.24 10.73 15.24 10.74 15.24 10.75C15.24 10.75 15.24 10.77 15.25 10.77H15.26C15.29 10.8 15.32 10.81 15.36 10.81C15.4 10.81 15.43 10.77 15.46 10.73C15.49 10.69 15.51 10.65 15.52 10.61C15.52 10.61 15.52 10.61 15.52 10.6C15.55 10.56 15.58 10.51 15.56 10.45C15.55 10.39 15.5 10.32 15.4 10.27C15.4 10.27 15.38 10.25 15.36 10.21C15.34 10.18 15.33 10.13 15.31 10.07C15.29 9.96001 15.28 9.81001 15.31 9.67001C15.37 9.39001 15.58 9.10001 16.16 9.04001C16.27 9.06001 16.37 9.08001 16.45 9.08001C16.46 9.08001 16.47 9.08001 16.48 9.08001C16.48 9.08001 16.49 9.09001 16.49 9.10001C16.49 9.11001 16.5 9.13001 16.5 9.15001C16.5 9.17001 16.48 9.19001 16.47 9.21001C16.47 9.21001 16.46 9.21001 16.46 9.22001C16.46 9.22001 16.46 9.23001 16.46 9.24001C16.46 9.24001 16.46 9.25001 16.47 9.25001H16.49C16.52 9.26001 16.56 9.25001 16.59 9.24001C16.63 9.21001 16.66 9.17001 16.68 9.11001C16.7 9.06001 16.71 9.00001 16.68 8.95001C16.67 8.92001 16.64 8.89001 16.6 8.88001C16.15 8.41001 16.16 7.83001 16.34 7.35001C16.43 7.11001 16.56 6.89001 16.69 6.72001C16.82 6.56001 16.96 6.44001 17.03 6.41001C17.06 6.41001 17.09 6.41001 17.11 6.41001C17.15 6.40001 17.19 6.38001 17.22 6.35001C17.23 6.35001 17.24 6.35001 17.24 6.34001C17.24 6.34001 17.25 6.34001 17.26 6.34001C17.27 6.34001 17.29 6.34001 17.31 6.34001H17.32C17.32 6.34001 17.32 6.38001 17.29 6.41001C17.29 6.41001 17.29 6.42001 17.29 6.43001C17.33 6.43001 17.36 6.40001 17.39 6.37001C17.42 6.33001 17.45 6.29001 17.47 6.24001C17.48 6.19001 17.48 6.14001 17.45 6.10001C17.42 6.07001 17.37 6.06001 17.3 6.06001C17.29 6.03001 17.27 6.01001 17.23 5.99001C17.2 5.98001 17.16 5.98001 17.12 5.98001H17.09C17.02 5.93001 16.95 5.90001 16.89 5.89001L16.98 6.00001ZM7.02001 8.05001C7.15001 8.05001 7.29001 8.07001 7.41001 8.13001C7.38001 8.15001 7.35001 8.17001 7.31001 8.18001C7.23001 8.20001 7.14001 8.19001 7.04001 8.18001C6.95001 8.16001 6.86001 8.13001 6.80001 8.10001C6.78001 8.10001 6.77001 8.08001 6.76001 8.07001C6.84001 8.06001 6.93001 8.05001 7.01001 8.05001H7.02001ZM17.46 10.05C17.46 10.05 17.56 10.06 17.62 10.08C17.66 10.09 17.7 10.12 17.74 10.14L17.73 10.16C17.66 10.41 17.53 10.49 17.42 10.49C17.31 10.49 17.22 10.41 17.22 10.3C17.22 10.17 17.27 10.1 17.34 10.07C17.37 10.05 17.42 10.04 17.47 10.04L17.46 10.05ZM9.97001 10.73C9.97001 10.73 10.02 10.73 10.04 10.75C10.06 10.77 10.08 10.79 10.08 10.84C10.08 10.84 10.08 10.85 10.08 10.86C10.04 10.9 10.01 10.95 9.97001 10.99C9.90001 10.96 9.85001 10.92 9.80001 10.85C9.84001 10.79 9.90001 10.74 9.95001 10.73H9.97001Z" fill="black"/>
<path d="M16.99 6.07001C16.75 6.31001 16.51 6.48001 16.16 6.69001C15.56 7.06001 14.86 7.15001 13.99 7.20001C12.22 7.29001 11.43 7.64001 11.07 8.14001C10.71 8.64001 10.77 9.28001 10.67 9.94001C10.64 10.15 10.58 10.4 10.46 10.61C10.36 10.79 10.23 10.94 10.05 11.02C10.54 10.57 10.54 10.14 10.59 9.88001C10.66 9.42001 10.59 8.77001 10.94 8.22001C11.3 7.67001 12.09 7.20001 13.94 7.13001C14.7 7.10001 15.17 7.03001 15.49 6.93001C15.81 6.83001 15.99 6.72001 16.18 6.60001C16.37 6.48001 16.53 6.30001 16.68 6.19001C16.76 6.13001 16.83 6.09001 16.91 6.07001C16.93 6.07001 16.96 6.07001 16.98 6.07001H16.99ZM17.21 6.17001C17.21 6.17001 17.27 6.17001 17.29 6.17001C17.31 6.17001 17.31 6.19001 17.32 6.20001C17.32 6.22001 17.32 6.27001 17.28 6.32001C17.25 6.37001 17.19 6.41001 17.14 6.42001C17.08 6.44001 16.99 6.39001 16.97 6.38001C16.97 6.38001 16.95 6.38001 16.94 6.38001C16.94 6.37001 16.92 6.36001 16.91 6.35001C16.91 6.35001 16.9 6.35001 16.89 6.35001C16.89 6.35001 16.89 6.35001 16.88 6.35001C16.01 7.15001 15.26 7.30001 14.03 7.39001C13.61 7.42001 12.96 7.50001 12.39 7.64001C12.11 7.71001 11.85 7.80001 11.65 7.90001C11.45 8.00001 11.31 8.13001 11.28 8.27001C11.28 8.27001 11.28 8.28001 11.28 8.29001C11.28 8.29001 11.29 8.29001 11.3 8.29001C11.3 8.30001 11.32 8.31001 11.34 8.31001C11.44 8.31001 11.74 8.30001 12.15 8.31001C12.56 8.33001 13.07 8.36001 13.61 8.41001C14.65 8.51001 15.79 8.69001 16.47 8.98001C16.48 9.00001 16.5 9.01001 16.51 9.03001C16.49 9.03001 16.45 9.05001 16.39 9.03001C16.27 9.02001 16.07 8.97001 15.84 8.91001C15.37 8.79001 14.74 8.61001 14.16 8.55001C13.17 8.45001 12.58 8.31001 11.23 8.31001C11.23 8.31001 11.23 8.31001 11.22 8.31001C11.21 8.31001 11.21 8.31001 11.2 8.33001C11.19 8.34001 11.17 8.36001 11.16 8.38001C11.13 8.43001 11.11 8.49001 11.12 8.58001C11.12 8.58001 11.12 8.59001 11.13 8.60001C11.13 8.60001 11.13 8.60001 11.14 8.60001C11.14 8.60001 11.14 8.61001 11.15 8.61001C11.27 8.63001 11.53 8.71001 11.87 8.83001C12.21 8.95001 12.63 9.11001 13.06 9.29001C13.91 9.64001 14.81 10.06 15.32 10.39C15.36 10.42 15.41 10.46 15.43 10.49L15.44 10.51V10.52C15.44 10.52 15.42 10.53 15.39 10.54C15.19 10.5 14.87 10.32 14.51 10.11C14.11 9.88001 13.65 9.61001 13.22 9.43001C12.47 9.12001 11.56 8.72001 11.13 8.62001C11.13 8.62001 11.13 8.62001 11.12 8.63001C11.09 8.65001 11.07 8.67001 11.06 8.70001C11.06 8.73001 11.06 8.76001 11.06 8.78001C11.09 8.84001 11.15 8.90001 11.24 9.00001C11.42 9.19001 11.74 9.48001 12.13 9.99001C12.81 10.87 13.13 11.3 13.27 11.52C13.34 11.63 13.36 11.68 13.36 11.7C13.36 11.71 13.36 11.71 13.36 11.72C13.36 11.72 13.35 11.72 13.34 11.73C13.29 11.73 13.25 11.72 13.22 11.69C13.19 11.66 13.15 11.6 13.1 11.51C13 11.33 12.82 11.01 12.41 10.48C12.16 10.15 11.86 9.80001 11.6 9.51001C11.35 9.22001 11.14 8.99001 11.08 8.91001C11.08 8.91001 11.08 8.91001 11.08 8.90001C11.08 8.90001 11.08 8.90001 11.07 8.89001C11.06 8.89001 11.04 8.89001 11.03 8.89001C11.03 8.89001 11.01 8.91001 11.01 8.92001C11 8.94001 10.99 8.97001 10.98 9.01001C10.96 9.08001 10.94 9.18001 10.93 9.29001C10.92 9.40001 10.91 9.51001 10.9 9.60001C10.9 9.69001 10.9 9.75001 10.9 9.78001C10.9 9.78001 10.9 9.79001 10.9 9.80001C10.92 9.95001 10.98 10.08 11.07 10.26C11.16 10.45 11.27 10.69 11.37 11.07C11.45 11.39 11.54 11.73 11.58 11.98C11.6 12.11 11.61 12.22 11.6 12.29C11.6 12.33 11.6 12.36 11.58 12.38C11.56 12.4 11.56 12.41 11.54 12.41C11.54 12.41 11.51 12.41 11.5 12.41C11.5 12.41 11.48 12.38 11.48 12.34C11.47 12.27 11.46 12.14 11.44 11.95C11.4 11.58 11.3 10.97 10.94 10.04C10.94 10.04 10.94 10.04 10.93 10.05C10.93 10.05 10.92 10.07 10.91 10.08C10.9 10.11 10.88 10.15 10.86 10.2C10.82 10.3 10.78 10.45 10.74 10.62C10.68 10.85 10.63 11.12 10.6 11.39C10.6 11.35 10.6 11.32 10.6 11.28C10.6 11.18 10.6 11.09 10.6 11.01C10.6 10.97 10.61 10.94 10.62 10.91C10.62 10.9 10.62 10.89 10.63 10.88C10.63 10.86 10.64 10.85 10.65 10.84C10.65 10.84 10.65 10.83 10.65 10.82C10.65 10.82 10.64 10.82 10.63 10.82C10.63 10.82 10.63 10.82 10.62 10.82C10.46 10.97 10.36 11.08 10.28 11.25C10.24 11.33 10.21 11.43 10.18 11.55C10.18 11.47 10.18 11.39 10.19 11.33C10.2 11.27 10.2 11.22 10.21 11.21V11.19C10.21 11.19 10.2 11.19 10.19 11.19C10.09 11.24 9.95 11.34 9.82 11.47C9.76 11.53 9.71 11.6 9.67 11.67C9.7 11.54 9.73 11.49 9.76 11.44C9.76 11.43 9.78 11.42 9.78 11.41C9.78 11.41 9.78 11.4 9.78 11.39C9.78 11.39 9.78 11.39 9.77 11.39C9.22 11.44 8.89 11.64 8.7 11.88C8.57 12.03 8.51 12.2 8.47 12.34C8.49 11.99 8.7 11.66 9.01 11.54C9.18 11.47 9.42 11.44 9.63 11.4C9.83 11.36 10.01 11.32 10.1 11.22C10.35 11.13 10.53 10.9 10.66 10.65C10.79 10.4 10.86 10.13 10.88 10C10.99 9.40001 10.88 8.77001 11.21 8.28001C11.38 8.03001 11.65 7.82001 12.12 7.65001C12.59 7.48001 13.26 7.38001 14.2 7.35001C14.96 7.32001 15.42 7.23001 15.74 7.11001C16.06 6.99001 16.23 6.85001 16.42 6.74001C16.52 6.68001 16.7 6.52001 16.9 6.39001C17 6.33001 17.09 6.27001 17.18 6.23001C17.22 6.21001 17.26 6.20001 17.29 6.20001L17.21 6.17001ZM9.85 6.27001C9.82 6.34001 9.78 6.41001 9.74 6.47001C9.71 6.52001 9.67 6.56001 9.65 6.58001C9.64 6.59001 9.63 6.60001 9.62 6.61001C9.48 6.63001 9.35 6.65001 9.24 6.69001C9.23 6.69001 9.22 6.71001 9.2 6.71001C9.12 6.68001 9.05 6.67001 8.97 6.65001C8.97 6.65001 8.98 6.63001 9 6.62001C9.02 6.61001 9.05 6.60001 9.09 6.59001C9.17 6.57001 9.27 6.54001 9.38 6.51001C9.56 6.46001 9.74 6.39001 9.85 6.25001V6.27001ZM17.43 6.27001C17.43 6.27001 17.46 6.27001 17.47 6.29001C17.49 6.30001 17.5 6.32001 17.49 6.35001C17.49 6.37001 17.47 6.40001 17.45 6.43001C17.45 6.41001 17.45 6.39001 17.45 6.38001C17.43 6.35001 17.4 6.33001 17.36 6.32001C17.36 6.30001 17.37 6.29001 17.38 6.28001C17.4 6.28001 17.41 6.28001 17.42 6.28001L17.43 6.27001ZM10.35 6.45001C10.28 6.81001 10.09 7.03001 9.9 7.17001C9.8 7.25001 9.7 7.30001 9.63 7.34001C9.59 7.36001 9.56 7.38001 9.54 7.39001C9.53 7.39001 9.52 7.41001 9.51 7.41001C9.51 7.41001 9.5 7.43001 9.5 7.44001C9.5 7.45001 9.5 7.46001 9.52 7.46001C9.55 7.46001 9.63 7.46001 9.71 7.46001C9.74 7.46001 9.75 7.46001 9.78 7.46001C9.87 7.65001 9.91 7.92001 9.9 8.23001C9.9 8.56001 9.84 8.93001 9.77 9.29001C9.7 9.65001 9.61 10.05 9.61 10.39C9.61 10.56 9.63 10.72 9.69 10.86C9.74 10.97 9.81 11.06 9.92 11.13C9.9 11.16 9.87 11.19 9.82 11.21C9.76 11.23 9.68 11.25 9.59 11.27C9.41 11.3 9.2 11.32 9.05 11.36C8.95 11.39 8.72 11.51 8.55 11.71C8.41 11.88 8.31 12.13 8.35 12.43C8.35 12.43 8.35 12.44 8.35 12.45C8.35 12.45 8.35 12.47 8.36 12.48C8.36 12.53 8.37 12.57 8.39 12.62C8.39 12.62 8.4 12.64 8.41 12.64C8.42 12.64 8.43 12.63 8.42 12.62C8.42 12.6 8.42 12.59 8.42 12.57C8.46 12.59 8.5 12.6 8.56 12.6C8.49 12.77 8.44 12.95 8.4 13.16C8.36 13.1 8.31 13.05 8.24 13C8.24 12.98 8.25 12.96 8.24 12.93C8.24 12.82 8.16 12.68 7.99 12.52C8 12.5 8.01 12.48 8.02 12.46C8.05 12.36 8.03 12.23 7.93 12.05C7.99 11.95 7.99 11.79 7.9 11.56C7.9 11.56 7.92 11.55 7.93 11.54C8.01 11.45 8.03 11.3 7.96 11.09C7.98 11.08 7.99 11.07 8 11.05C8.07 10.96 8.1 10.83 8.07 10.62C8.1 10.61 8.12 10.59 8.14 10.57C8.21 10.5 8.24 10.37 8.22 10.16C8.27 10.14 8.31 10.12 8.35 10.08C8.42 10.01 8.45 9.90001 8.42 9.73001C8.45 9.71001 8.49 9.70001 8.51 9.67001C8.57 9.60001 8.6 9.49001 8.59 9.33001C8.61 9.33001 8.64 9.31001 8.65 9.29001C8.69 9.25001 8.7 9.18001 8.7 9.09001C8.7 9.01001 8.69 8.90001 8.68 8.77001C8.71 8.72001 8.73 8.67001 8.74 8.61001C8.75 8.51001 8.74 8.38001 8.7 8.23001C8.75 8.11001 8.78 7.97001 8.77 7.80001C8.81 7.81001 8.85 7.82001 8.9 7.81001C8.96 7.80001 9.03 7.76001 9.12 7.70001C9.12 7.70001 9.13 7.68001 9.12 7.67001C9.12 7.67001 9.1 7.66001 9.09 7.67001C9.07 7.68001 9.05 7.70001 9.03 7.70001C9.01 7.70001 9 7.71001 8.99 7.70001C8.9 7.67001 8.88 7.70001 8.63 7.50001C8.63 7.50001 8.63 7.50001 8.62 7.50001C8.62 7.50001 8.61 7.50001 8.6 7.50001C8.6 7.50001 8.6 7.51001 8.6 7.52001C8.62 7.57001 8.67 7.62001 8.71 7.66001C8.73 7.68001 8.74 7.68001 8.76 7.69001C8.7 7.68001 8.66 7.66001 8.62 7.64001H8.6C8.6 7.64001 8.6 7.65001 8.6 7.66001C8.71 7.91001 8.63 8.21001 8.44 8.41001C8.26 8.61001 7.97 8.70001 7.65 8.55001C7.65 8.55001 7.64 8.54001 7.63 8.54001C7.63 8.54001 7.63 8.54001 7.62 8.54001C7.58 8.61001 7.54 8.68001 7.46 8.75001C7.41 8.79001 7.34 8.84001 7.25 8.89001C7.29 8.85001 7.32 8.82001 7.33 8.78001C7.37 8.71001 7.37 8.64001 7.36 8.55001C7.36 8.55001 7.36 8.53001 7.35 8.53001H7.33C7.27 8.63001 7.1 8.79001 6.81 8.89001C6.93 8.79001 7.01 8.68001 7.01 8.58001C7.01 8.58001 7.01 8.56001 7 8.56001H6.98C6.82 8.70001 6.55 8.74001 6.28 8.76001C6.34 8.73001 6.4 8.69001 6.45 8.64001C6.55 8.53001 6.63 8.36001 6.68 8.14001C6.87 8.25001 7.03 8.28001 7.18 8.27001C7.34 8.26001 7.47 8.20001 7.57 8.14001C7.57 8.18001 7.57 8.21001 7.57 8.27001C7.57 8.27001 7.57 8.29001 7.59 8.29001C7.59 8.29001 7.61 8.29001 7.61 8.28001C7.7 8.07001 7.74 7.94001 7.73 7.83001C7.72 7.72001 7.65 7.64001 7.53 7.53001C7.53 7.53001 7.52 7.53001 7.51 7.53001C7.51 7.53001 7.5 7.53001 7.49 7.55001C7.49 7.58001 7.49 7.60001 7.49 7.63001C7.25 7.62001 6.99 7.38001 6.46 7.78001C6.45 7.55001 6.46 7.40001 6.52 7.27001C6.54 7.27001 6.57 7.27001 6.59 7.27001C6.64 7.27001 6.69 7.23001 6.72 7.18001C6.75 7.13001 6.77 7.06001 6.78 6.96001C7.1 6.97001 7.46 7.03001 7.85 7.15001C7.85 7.15001 7.87 7.15001 7.87 7.14001V7.12001C7.81 7.09001 7.76 7.07001 7.71 7.04001C7.68 7.02001 7.66 6.99001 7.65 6.96001C7.63 6.90001 7.65 6.83001 7.75 6.78001C7.93 6.67001 8.35 6.63001 9.02 6.86001C8.99 6.89001 8.97 6.93001 8.96 6.97001V6.99001H8.98C9.17 6.80001 9.44 6.77001 9.71 6.73001C9.94 6.69001 10.17 6.64001 10.32 6.45001H10.35ZM10.15 6.75001C10.15 6.75001 10.15 6.75001 10.14 6.75001C9.97 6.88001 9.82 6.93001 9.66 6.96001C9.52 6.98001 9.46 7.03001 9.42 7.06001C9.42 7.06001 9.4 7.06001 9.4 7.07001C9.4 7.08001 9.4 7.07001 9.39 7.07001C9.38 7.07001 9.36 7.05001 9.33 7.02001C9.33 7.02001 9.32 7.02001 9.31 7.02001C9.31 7.02001 9.3 7.03001 9.3 7.04001C9.3 7.07001 9.33 7.12001 9.35 7.16001C9.36 7.18001 9.38 7.21001 9.39 7.23001C9.4 7.25001 9.41 7.26001 9.43 7.27001C9.43 7.27001 9.44 7.27001 9.45 7.27001C9.46 7.27001 9.45 7.27001 9.46 7.26001C9.51 7.15001 9.56 7.08001 9.6 7.04001C9.64 7.00001 9.67 7.00001 9.69 7.00001C9.71 7.00001 9.74 7.02001 9.76 7.04001C9.77 7.04001 9.78 7.06001 9.79 7.06001C9.8 7.06001 9.81 7.07001 9.83 7.07001H9.84C9.9 6.98001 10.02 6.89001 10.16 6.78001C10.16 6.78001 10.17 6.77001 10.16 6.76001C10.16 6.76001 10.15 6.75001 10.14 6.75001H10.15ZM4.8 6.81001C5.03 7.14001 5.34 7.44001 5.77 7.67001C5.59 7.69001 5.45 7.65001 5.34 7.58001C5.19 7.49001 5.08 7.33001 4.98 7.16001C4.98 7.16001 4.97 7.15001 4.96 7.16001C4.96 7.16001 4.95 7.16001 4.95 7.17001C4.95 7.17001 4.95 7.18001 4.95 7.19001C5.09 7.50001 5.21 7.64001 5.29 7.75001C5.36 7.84001 5.38 7.91001 5.37 8.04001C5.19 7.91001 5.06 7.68001 4.96 7.44001C4.87 7.20001 4.82 6.97001 4.8 6.81001ZM16.57 6.83001C16.45 6.99001 16.34 7.18001 16.26 7.40001C16.1 7.85001 16.06 8.38001 16.38 8.85001C15.68 8.58001 14.61 8.42001 13.63 8.33001C13.09 8.28001 12.57 8.25001 12.17 8.23001C11.8 8.22001 11.57 8.22001 11.44 8.23001C11.5 8.12001 11.65 8.02001 11.87 7.93001C12.11 7.83001 12.41 7.75001 12.72 7.68001C13.33 7.55001 13.96 7.48001 14.09 7.48001C15.06 7.45001 15.75 7.25001 16.21 7.04001C16.36 6.97001 16.48 6.90001 16.59 6.83001H16.57ZM7.88 6.91001C7.88 6.91001 7.81 6.91001 7.76 6.92001C7.76 6.92001 7.74 6.93001 7.75 6.94001C7.75 6.97001 7.77 6.99001 7.79 7.01001C7.81 7.03001 7.83 7.04001 7.86 7.05001C7.91 7.08001 7.96 7.12001 8 7.23001C8 7.23001 8 7.24001 8.02 7.24001C8.02 7.24001 8.04 7.24001 8.04 7.23001C8.04 7.21001 8.05 7.20001 8.05 7.19001C8.05 7.19001 8.06 7.20001 8.07 7.21001C8.07 7.21001 8.09 7.23001 8.1 7.23001C8.11 7.23001 8.13 7.23001 8.15 7.23001C8.31 7.18001 8.41 7.16001 8.49 7.15001C8.56 7.15001 8.61 7.15001 8.64 7.18001H8.66V7.16001C8.58 7.05001 8.5 7.01001 8.42 7.00001C8.34 7.00001 8.26 7.00001 8.16 7.00001C8.07 6.98001 8.01 6.96001 7.96 6.94001C7.93 6.94001 7.91 6.92001 7.87 6.92001L7.88 6.91001ZM7.9 6.97001C7.9 6.97001 8.04 7.01001 8.08 7.01001C8.06 7.09001 8.1 7.13001 8.14 7.15001C8.02 7.17001 7.9 6.98001 7.9 6.97001ZM6.67 6.97001C6.67 6.97001 6.67 7.07001 6.66 7.12001C6.65 7.15001 6.63 7.17001 6.61 7.18001C6.58 7.19001 6.54 7.18001 6.49 7.16001C6.45 7.14001 6.33 7.08001 6.21 7.05001C6.18 7.05001 6.15 7.05001 6.12 7.04001C6.28 6.99001 6.47 6.97001 6.68 6.97001H6.67ZM8.34 7.02001C8.4 7.02001 8.45 7.05001 8.4 7.08001C8.34 7.11001 8.24 7.16001 8.18 7.14001C8.24 7.14001 8.26 7.07001 8.23 7.02001C8.21 7.02001 8.28 7.02001 8.35 7.02001H8.34ZM8.62 7.23001C8.51 7.23001 8.45 7.23001 8.4 7.25001C8.35 7.26001 8.32 7.29001 8.28 7.31001C8.28 7.31001 8.27 7.32001 8.28 7.33001C8.29 7.34001 8.28 7.34001 8.3 7.34001C8.34 7.34001 8.36 7.35001 8.37 7.36001C8.37 7.36001 8.37 7.36001 8.38 7.38001C8.38 7.38001 8.38 7.39001 8.4 7.39001C8.4 7.39001 8.42 7.39001 8.42 7.38001C8.45 7.32001 8.47 7.30001 8.5 7.28001C8.53 7.27001 8.57 7.26001 8.63 7.26001C8.63 7.26001 8.63 7.26001 8.64 7.26001C8.64 7.26001 8.66 7.25001 8.65 7.24001C8.64 7.23001 8.65 7.22001 8.63 7.22001L8.62 7.23001ZM19.9 7.38001C19.14 8.25001 18.97 9.19001 18.92 9.47001C18.82 9.30001 18.7 9.11001 18.77 8.87001C18.95 8.43001 19.01 8.36001 19.49 7.74001C19.49 7.74001 19.49 7.72001 19.49 7.71001C19.49 7.71001 19.47 7.71001 19.46 7.71001C18.94 8.14001 18.71 8.44001 18.51 8.63001C18.32 8.81001 18.15 8.91001 17.81 8.96001C18.44 8.43001 18.73 7.94001 19.91 7.37001L19.9 7.38001ZM9.97 7.45001C9.97 7.45001 9.97 7.45001 9.98 7.45001C10.03 7.47001 10.09 7.50001 10.16 7.55001C10.26 7.63001 10.36 7.77001 10.4 7.99001C10.36 7.93001 10.32 7.89001 10.26 7.87001C10.17 7.84001 10.09 7.84001 10.03 7.84001C10.03 7.79001 10.03 7.74001 10.02 7.70001C10.09 7.70001 10.16 7.70001 10.23 7.77001C10.23 7.77001 10.25 7.77001 10.26 7.77001C10.26 7.77001 10.26 7.75001 10.26 7.74001C10.17 7.62001 10.08 7.56001 10 7.56001C10 7.52001 9.99 7.48001 9.98 7.44001L9.97 7.45001ZM5.32 7.66001C5.32 7.66001 5.35 7.67001 5.36 7.68001C5.58 7.84001 5.78 7.94001 5.96 7.97001C6.15 8.00001 6.34 7.97001 6.55 7.89001C6.55 7.89001 6.68 7.85001 6.78 7.83001C6.88 7.81001 7 7.80001 7.12 7.80001C7.24 7.80001 7.36 7.80001 7.45 7.83001C7.52 7.85001 7.56 7.87001 7.6 7.90001C7.41 7.86001 7.24 7.85001 7.02 7.86001H7.01C7.01 7.86001 7 7.87001 7 7.89001C7 7.89001 7 7.91001 7.01 7.91001C7.02 7.91001 7.01 7.91001 7.02 7.91001C7.04 7.91001 7.05 7.91001 7.08 7.91001C7.13 7.91001 7.2 7.89001 7.28 7.90001C7.36 7.90001 7.39 7.90001 7.56 7.96001C7.57 7.97001 7.58 7.99001 7.58 8.00001C7.58 8.00001 7.57 8.00001 7.56 8.00001C7.54 8.00001 7.51 7.99001 7.48 7.98001C7.41 7.97001 7.32 7.95001 7.22 7.94001C7.01 7.92001 6.76 7.91001 6.56 7.97001C6.39 8.04001 6.16 8.08001 5.93 8.04001C5.72 8.00001 5.51 7.90001 5.35 7.70001C5.34 7.68001 5.32 7.66001 5.31 7.64001L5.32 7.66001ZM19.2 8.01001C18.79 8.50001 18.58 8.91001 18.47 9.20001C18.4 9.37001 18.37 9.50001 18.34 9.58001C18.33 9.61001 18.32 9.63001 18.31 9.64001C18.26 9.60001 18.21 9.56001 18.15 9.52001C18.15 9.50001 18.15 9.48001 18.16 9.45001C18.17 9.41001 18.2 9.35001 18.23 9.29001C18.29 9.17001 18.39 9.01001 18.51 8.83001C18.69 8.57001 18.93 8.28001 19.19 8.01001H19.2ZM10.03 8.27001C10.16 8.36001 10.28 8.46001 10.35 8.61001C10.4 8.73001 10.42 8.88001 10.38 9.08001C10.37 8.99001 10.33 8.90001 10.27 8.85001C10.22 8.81001 10.16 8.78001 10.09 8.78001C10.05 8.78001 10 8.79001 9.96 8.81001C9.97 8.73001 9.98 8.66001 9.99 8.59001C10.01 8.59001 10.03 8.59001 10.06 8.59001C10.1 8.60001 10.14 8.63001 10.17 8.65001C10.21 8.68001 10.24 8.71001 10.27 8.74001C10.3 8.77001 10.31 8.80001 10.31 8.82001C10.31 8.83001 10.31 8.84001 10.33 8.84001C10.34 8.84001 10.35 8.84001 10.35 8.82001C10.35 8.79001 10.33 8.76001 10.32 8.73001C10.32 8.72001 10.32 8.71001 10.31 8.70001C10.28 8.66001 10.25 8.62001 10.21 8.58001C10.17 8.54001 10.13 8.51001 10.09 8.48001C10.06 8.46001 10.04 8.45001 10.01 8.44001C10.01 8.37001 10.02 8.31001 10.03 8.25001V8.27001ZM8.62 8.35001C8.66 8.45001 8.67 8.54001 8.66 8.60001C8.64 8.67001 8.6 8.72001 8.54 8.76001C8.43 8.83001 8.27 8.87001 8.13 8.89001C8.12 8.89001 8.09 8.89001 8.08 8.88001C8.08 8.88001 8.08 8.87001 8.07 8.87001C8.07 8.87001 8.07 8.87001 8.07 8.86001C8.07 8.86001 8.07 8.85001 8.09 8.84001C8.11 8.82001 8.15 8.80001 8.18 8.77001C8.25 8.72001 8.35 8.66001 8.44 8.57001C8.5 8.51001 8.56 8.44001 8.62 8.36001V8.35001ZM11.26 8.42001C12.76 8.48001 13.16 8.58001 14.15 8.70001C14.83 8.78001 15.46 8.96001 15.92 9.08001C15.48 9.19001 15.28 9.47001 15.21 9.74001C15.17 9.90001 15.18 10.06 15.21 10.18C15.21 10.22 15.23 10.25 15.25 10.29C14.72 9.97001 13.89 9.58001 13.09 9.25001C12.65 9.07001 12.24 8.91001 11.89 8.79001C11.6 8.68001 11.38 8.62001 11.24 8.58001C11.23 8.53001 11.23 8.47001 11.26 8.42001ZM11.15 8.79001C11.15 8.79001 11.19 8.79001 11.23 8.81001C11.28 8.82001 11.34 8.85001 11.41 8.87001C11.55 8.92001 11.74 8.99001 11.94 9.08001C12.35 9.24001 12.83 9.45001 13.2 9.60001C13.61 9.77001 14.19 10.11 14.66 10.37C14.68 10.38 14.7 10.39 14.73 10.41C14.71 10.41 14.69 10.41 14.66 10.41C14.5 10.41 14.31 10.45 14.13 10.51C13.77 10.64 13.42 10.92 13.3 11.43C13.29 11.41 13.28 11.4 13.26 11.37C13.05 11.08 12.68 10.64 12.18 10C11.87 9.60001 11.56 9.31001 11.36 9.11001C11.26 9.01001 11.19 8.92001 11.16 8.86001C11.15 8.83001 11.14 8.81001 11.15 8.79001ZM8.59 8.83001C8.61 8.95001 8.62 9.04001 8.59 9.11001C8.57 9.18001 8.54 9.21001 8.48 9.24001C8.4 9.28001 8.28 9.28001 8.14 9.29001C8.09 9.29001 8.06 9.26001 8.04 9.24001C8.02 9.21001 8.02 9.18001 8.02 9.15001C8.02 9.08001 8.08 9.00001 8.12 8.96001C8.12 8.96001 8.14 8.96001 8.16 8.96001C8.32 8.95001 8.47 8.92001 8.57 8.86001L8.59 8.83001ZM16.63 9.10001C16.64 9.12001 16.64 9.15001 16.63 9.18001C16.62 9.21001 16.59 9.24001 16.57 9.26001C16.59 9.24001 16.6 9.22001 16.6 9.20001C16.6 9.17001 16.6 9.15001 16.6 9.12001H16.61C16.62 9.12001 16.63 9.10001 16.63 9.09001V9.10001ZM11.09 9.13001C11.09 9.13001 11.1 9.13001 11.12 9.14001C11.18 9.19001 11.27 9.29001 11.37 9.42001C11.58 9.67001 11.85 10.04 12.12 10.38C12.4 10.73 12.62 11.12 12.81 11.42C12.84 11.47 12.87 11.51 12.9 11.55C12.81 11.52 12.7 11.5 12.59 11.5C12.53 11.5 12.46 11.5 12.4 11.51C12.15 11.55 11.89 11.69 11.69 12C11.65 11.75 11.56 11.44 11.45 11.08C11.29 10.56 11.2 10.36 11.14 10.24C11.08 10.12 11.04 10.06 10.99 9.83001C10.99 9.73001 11 9.53001 11.03 9.37001C11.04 9.29001 11.06 9.22001 11.08 9.17001C11.08 9.16001 11.08 9.15001 11.09 9.14001V9.13001ZM9.91 9.20001C9.91 9.20001 9.97 9.27001 10.01 9.31001C10.08 9.36001 10.15 9.42001 10.21 9.50001C10.27 9.58001 10.31 9.66001 10.31 9.78001C10.31 9.87001 10.26 9.98001 10.19 10.11C10.19 10.05 10.19 9.99001 10.18 9.95001C10.15 9.87001 10.08 9.82001 10.01 9.78001C9.94 9.74001 9.87 9.72001 9.82 9.70001C9.81 9.70001 9.8 9.70001 9.8 9.70001C9.81 9.65001 9.83 9.61001 9.85 9.60001C9.88 9.58001 9.92 9.58001 9.96 9.60001C10 9.61001 10.05 9.64001 10.08 9.67001C10.12 9.70001 10.14 9.74001 10.15 9.75001L10.17 9.76001C10.18 9.76001 10.19 9.75001 10.18 9.74001C10.12 9.59001 10.02 9.55001 9.95 9.50001C9.92 9.48001 9.89 9.45001 9.88 9.41001C9.87 9.37001 9.88 9.31001 9.89 9.24001L9.91 9.20001ZM5.15 9.24001C5.3 9.24001 5.4 9.29001 5.46 9.39001C5.44 9.40001 5.43 9.40001 5.4 9.41001C5.38 9.35001 5.29 9.29001 5.21 9.28001C5.21 9.28001 5.2 9.28001 5.19 9.28001C5.19 9.28001 5.18 9.29001 5.19 9.30001C5.19 9.30001 5.19 9.31001 5.2 9.32001C5.26 9.35001 5.32 9.37001 5.3 9.42001C5.27 9.42001 5.25 9.42001 5.23 9.42001C5.23 9.36001 5.11 9.31001 5 9.27001C5.06 9.25001 5.11 9.24001 5.16 9.24001H5.15ZM8.49 9.32001C8.5 9.47001 8.47 9.55001 8.42 9.60001C8.37 9.65001 8.29 9.66001 8.2 9.66001C8.12 9.66001 8.03 9.64001 7.95 9.63001C7.95 9.63001 7.91 9.63001 7.9 9.62001C7.9 9.62001 7.89 9.60001 7.89 9.59001C7.89 9.56001 7.91 9.52001 7.94 9.48001C7.97 9.44001 8.01 9.40001 8.05 9.37001C8.08 9.35001 8.11 9.34001 8.13 9.34001C8.26 9.34001 8.39 9.34001 8.47 9.34001C8.49 9.34001 8.5 9.34001 8.51 9.34001L8.49 9.32001ZM17.47 9.43001C18.05 9.43001 18.79 10.03 18.79 10.88C18.79 11.47 18.45 12.47 17.18 12.9C16.83 12.2 16.15 11.58 15.28 11.28C15.28 11.28 15.28 11.28 15.27 11.28C15.27 11.28 15.25 11.28 15.25 11.3C15.25 11.3 15.25 11.32 15.26 11.32C16.21 11.65 16.84 12.38 17.16 13.16C17.24 13.37 17.45 13.65 17.66 13.84C17.87 14.03 18.1 14.16 18.33 14.16C18.49 14.16 18.66 14.25 18.73 14.46C18.79 14.62 18.78 14.82 18.64 15.05C18.67 14.95 18.64 14.87 18.61 14.82C18.55 14.73 18.44 14.69 18.36 14.7C18.22 14.7 18.15 14.77 17.96 14.86C17.95 14.86 17.95 14.88 17.96 14.89C17.96 14.89 18.03 14.9 18.1 14.9C18.1 15.01 18.27 16.14 18.3 16.3C18.42 17.09 18.97 16.71 19.06 16.72C19.24 16.75 19.28 16.8 19.33 16.85C19.27 16.85 19.22 17.04 19.25 17.16C19.03 17.32 18.81 17.08 18.64 17.08C18.45 17.08 18.25 17.21 18.03 17.28C17.83 17.34 17.73 17.39 17.49 17.28C17.53 17.27 17.57 17.26 17.58 17.26H17.59C17.59 17.26 17.6 17.26 17.61 17.25V17.23C17.61 17.23 17.6 17.23 17.59 17.23H17.58C17.58 17.23 17.56 17.23 17.54 17.23C17.51 17.23 17.46 17.23 17.42 17.23C17.33 17.23 17.23 17.23 17.19 17.23C17.08 17.23 16.93 17.26 16.8 17.33C16.67 17.4 16.58 17.49 16.46 17.48C16.39 17.48 16.32 17.47 16.27 17.42C16.3 17.31 16.3 17.17 16.21 17.05H16.19C16.33 17.03 16.38 16.96 16.47 16.96C16.58 16.96 16.58 17.17 17.13 16.82C17.13 16.82 17.14 16.81 17.14 16.8C17.14 16.8 17.14 16.78 17.13 16.78H17.11C16.62 17 16.77 16.83 16.52 16.85C16.28 16.86 16.27 16.94 16.13 16.94C16.06 16.94 15.97 16.9 15.95 16.87C16 16.86 16.03 16.67 16 16.58V16.56C16.03 16.52 16.12 16.51 16.19 16.51C16.26 16.51 16.35 16.58 16.46 16.62C16.57 16.67 16.66 16.58 16.8 16.67C16.8 16.67 16.82 16.67 16.83 16.67C16.84 16.67 16.83 16.65 16.83 16.64C16.78 16.61 16.69 16.51 16.58 16.46C16.51 16.43 16.43 16.41 16.36 16.4C16.31 16.35 16.22 16.27 16.23 16.26C16.26 16.24 16.28 16.22 16.31 16.19C16.34 16.16 16.35 16.13 16.36 16.1C16.36 16.08 16.36 16.07 16.36 16.05C16.36 16.05 16.36 16.04 16.36 16.03C16.39 16 16.41 15.98 16.45 15.98C16.51 15.98 16.55 16.01 16.6 16.06C16.65 16.11 16.71 16.19 16.76 16.28C16.84 16.42 16.94 16.5 17.05 16.57C17.02 16.6 16.98 16.63 16.97 16.63C16.97 16.63 16.97 16.63 16.95 16.63C16.94 16.63 16.94 16.65 16.94 16.66C16.94 16.67 16.96 16.68 16.97 16.67C16.97 16.67 16.97 16.67 16.98 16.67C16.99 16.67 17.01 16.67 17.03 16.68C17.07 16.68 17.12 16.7 17.17 16.71C17.22 16.71 17.28 16.72 17.32 16.71C17.36 16.7 17.41 16.68 17.44 16.64C17.6 16.34 17.59 15.9 17.49 15.5C17.4 15.11 17.11 14.57 17.1 14.57C17.09 14.44 16.77 14.04 16.7 14.13C16.7 14.12 16.7 14.1 16.7 14.09C16.7 14.07 16.68 14.04 16.66 14.01C16.62 13.95 16.57 13.89 16.51 13.85C16.45 13.8 16.39 13.76 16.34 13.75C16.31 13.75 16.28 13.75 16.26 13.76C16.26 13.76 16.26 13.77 16.25 13.78C16.25 13.75 16.23 13.72 16.2 13.69C16.16 13.64 16.1 13.58 16.04 13.53C15.98 13.48 15.92 13.45 15.86 13.44C15.83 13.44 15.81 13.44 15.78 13.44C15.78 13.42 15.76 13.4 15.75 13.37C15.71 13.32 15.65 13.26 15.59 13.21C15.53 13.16 15.45 13.13 15.38 13.14C15.34 13.14 15.31 13.16 15.28 13.18C15.28 13.14 15.27 13.09 15.24 13.05C15.2 12.97 15.13 12.91 15.06 12.86C14.99 12.81 14.91 12.78 14.84 12.78C14.81 12.78 14.77 12.79 14.75 12.82C14.75 12.82 14.73 12.73 14.7 12.7C14.65 12.64 14.57 12.59 14.49 12.57C14.41 12.54 14.33 12.53 14.26 12.55C14.23 12.55 14.2 12.57 14.18 12.59C14.18 12.59 14.18 12.6 14.17 12.61C14.17 12.61 14.17 12.61 14.17 12.6C14.15 12.58 14.12 12.56 14.09 12.54C14.03 12.5 13.94 12.47 13.86 12.46C13.82 12.46 13.78 12.46 13.74 12.46C13.7 12.46 13.66 12.47 13.63 12.49C13.59 12.51 13.57 12.55 13.55 12.59C13.53 12.55 13.5 12.53 13.46 12.51C13.39 12.48 13.3 12.48 13.22 12.5C13.14 12.52 13.06 12.55 13.01 12.59C12.99 12.6 12.99 12.62 12.98 12.63C12.97 12.63 12.96 12.61 12.95 12.6C12.89 12.57 12.81 12.57 12.72 12.57C12.63 12.57 12.55 12.6 12.5 12.64C12.47 12.66 12.45 12.69 12.44 12.72C12.42 12.71 12.4 12.7 12.38 12.69C12.31 12.68 12.21 12.69 12.12 12.71C12.03 12.73 11.95 12.78 11.9 12.83C11.88 12.86 11.87 12.89 11.87 12.92C11.86 12.92 11.84 12.91 11.83 12.9C11.75 12.9 11.66 12.9 11.58 12.94C11.5 12.97 11.42 13.01 11.38 13.07C11.37 13.09 11.36 13.11 11.36 13.13C11.34 13.12 11.31 13.11 11.28 13.11C11.2 13.11 11.11 13.13 11.03 13.17C10.95 13.21 10.88 13.26 10.85 13.32C10.85 13.33 10.84 13.35 10.84 13.37C10.81 13.37 10.78 13.37 10.75 13.37C10.72 13.37 10.77 13.28 10.82 13.2C10.85 13.16 10.88 13.12 10.92 13.07C10.93 13.07 10.94 13.06 10.94 13.05C10.94 13.04 10.93 13.03 10.92 13.04C10.73 13.13 10.57 13.37 10.45 13.64C10.34 13.91 10.27 14.22 10.27 14.45C10.3 14.68 10.38 14.79 10.43 14.9C10.48 15.01 10.5 15.11 10.41 15.33C10.35 15.45 10.34 15.48 10.18 15.56C10.36 15.19 9.8 14.97 9.18 15.32C9.18 15.32 9.17 15.32 9.17 15.34C9.17 15.34 9.17 15.35 9.18 15.36C9.18 15.36 9.19 15.36 9.2 15.36C9.24 15.36 9.27 15.35 9.31 15.34C9.39 15.49 9.06 15.81 8.85 16.1C8.74 16.26 8.45 16.66 8.45 16.85C8.45 17.04 8.5 17.13 8.64 17.13C8.68 17.13 8.75 17.13 8.84 17.11C8.93 17.09 9.05 17.04 9.13 17.04C9.21 17.04 9.25 17.04 9.33 17.11C9.31 17.11 9.15 17.39 9.25 17.5C9.25 17.52 9.17 17.53 9.15 17.53C9.11 17.53 8.99 17.48 8.92 17.46C8.79 17.42 8.73 17.38 8.59 17.38C8.45 17.38 8.23 17.44 8.08 17.49C7.93 17.54 7.79 17.58 7.45 17.59C7.41 17.59 7.36 17.59 7.32 17.57C7.38 17.48 7.41 17.46 7.41 17.46C7.41 17.46 7.43 17.46 7.43 17.45V17.43C7.43 17.43 7.42 17.43 7.41 17.43C7.41 17.43 7.41 17.43 7.4 17.43C7.4 17.43 7.38 17.43 7.36 17.43C7.33 17.43 7 17.49 6.88 17.56C6.75 17.63 6.68 17.79 6.56 17.79C6.49 17.79 6.47 17.79 6.41 17.75C6.47 17.48 6.28 17.41 6.36 17.34C6.45 17.35 6.78 17.39 7.1 17.2C7.1 17.2 7.11 17.2 7.11 17.18C7.11 17.18 7.11 17.16 7.1 17.16C7.1 17.16 7.09 17.16 7.08 17.16C6.9 17.27 6.78 17.07 6.64 17.08C6.4 17.1 6.46 17.14 6.31 17.14C6.24 17.14 6.15 17.1 6.13 17.07C6.18 16.96 6.26 16.82 6.22 16.74C6.25 16.7 6.29 16.69 6.37 16.69C6.44 16.69 6.47 16.75 6.58 16.8C6.96 17 6.85 16.84 7.15 16.95C7.15 16.95 7.17 16.95 7.18 16.95C7.19 16.95 7.18 16.9 7.15 16.9C6.82 16.85 6.73 16.72 6.65 16.64C6.63 16.62 6.57 16.6 6.51 16.59C6.35 16.44 6.35 16.31 6.37 16.3C6.4 16.28 6.48 16.17 6.47 16.14C6.51 16.1 6.53 16.11 6.58 16.11C6.74 16.11 6.91 16.36 6.87 16.46C6.87 16.46 7.01 16.6 7.1 16.7C7.17 16.78 7.31 16.96 7.5 16.92C7.5 16.92 7.5 16.92 7.51 16.93C7.51 16.93 7.52 16.93 7.53 16.93C7.89 16.6 8.15 16.08 8.32 15.61C8.41 15.38 8.47 15.16 8.51 14.99C8.55 14.82 8.57 14.7 8.57 14.64C8.57 14.38 8.51 13.96 8.51 13.56C8.51 13.19 8.58 12.83 8.79 12.61C8.84 12.61 8.89 12.59 8.95 12.57C9.08 12.52 9.21 12.44 9.32 12.32C9.32 12.35 9.32 12.38 9.34 12.42C9.36 12.5 9.4 12.58 9.45 12.67C9.55 12.83 9.71 12.98 9.92 13.01C9.93 13.01 9.94 13.01 9.94 13V12.98C9.91 12.98 9.9 12.96 9.88 12.95C9.87 12.93 9.86 12.91 9.86 12.88C9.86 12.82 9.88 12.73 9.91 12.65C9.93 12.58 9.97 12.52 10 12.46C10.06 12.59 10.15 12.73 10.3 12.82C10.47 12.92 10.7 12.96 11 12.82C11 12.82 11 12.82 11 12.81C11 12.81 11 12.8 11 12.79C10.78 12.68 10.71 12.55 10.71 12.42C10.71 12.35 10.72 12.28 10.74 12.22C10.86 12.36 11 12.46 11.13 12.51C11.2 12.54 11.27 12.55 11.32 12.54C11.35 12.54 11.37 12.52 11.39 12.5C11.39 12.53 11.41 12.55 11.42 12.57C11.43 12.59 11.45 12.6 11.48 12.61C11.48 12.65 11.48 12.69 11.46 12.71C11.44 12.73 11.4 12.74 11.37 12.74V12.75C11.37 12.75 11.37 12.75 11.38 12.75C11.39 12.77 11.41 12.78 11.43 12.79C11.43 12.79 11.44 12.79 11.45 12.79C11.45 12.79 11.46 12.79 11.47 12.79C11.47 12.79 11.48 12.79 11.49 12.79C11.5 12.79 11.51 12.79 11.52 12.79C11.58 12.79 11.64 12.75 11.7 12.71C11.75 12.67 11.8 12.61 11.82 12.56C11.84 12.5 11.84 12.44 11.8 12.39C11.8 12.34 11.8 12.29 11.8 12.24C11.82 12.18 11.87 12.1 11.94 12.03C12.02 11.95 12.13 11.86 12.26 11.8C12.51 11.68 12.82 11.65 13.16 11.82C13.16 11.82 13.17 11.83 13.18 11.84C13.21 11.86 13.24 11.88 13.26 11.89C13.26 11.94 13.26 11.97 13.24 11.99C13.22 12.01 13.18 12.01 13.14 12.01C13.14 12.01 13.14 12.01 13.13 12.01V12.02C13.14 12.04 13.16 12.05 13.18 12.06C13.18 12.06 13.2 12.06 13.2 12.07C13.21 12.07 13.22 12.07 13.23 12.07C13.24 12.07 13.25 12.07 13.26 12.07C13.32 12.07 13.37 12.05 13.42 12.03C13.47 12 13.51 11.96 13.53 11.91C13.54 11.88 13.54 11.85 13.53 11.81C13.53 11.78 13.54 11.76 13.53 11.72C13.53 11.69 13.5 11.66 13.49 11.62C13.49 11.58 13.49 11.54 13.49 11.5C13.56 11.29 13.66 11.17 13.8 11.1C13.95 11.02 14.15 11 14.37 11C15.12 11.01 15.64 11.18 16.05 11.35C16.46 11.52 16.76 11.68 17.09 11.68C17.4 11.68 17.69 11.6 17.9 11.44C18.11 11.28 18.25 11.04 18.25 10.71C18.25 10.59 18.21 10.48 18.16 10.39C18.06 10.21 17.9 10.07 17.73 10.01C17.66 9.99001 17.6 9.97001 17.53 9.97001C17.47 9.97001 17.4 9.97001 17.35 10.01C17.24 10.06 17.17 10.18 17.17 10.35C17.17 10.52 17.32 10.66 17.48 10.66C17.64 10.66 17.82 10.54 17.9 10.26C17.96 10.31 18.02 10.38 18.06 10.45C18.02 10.71 17.9 10.87 17.76 10.97C17.61 11.07 17.43 11.11 17.3 11.11C16.95 11.13 16.57 10.78 16.57 10.29C16.57 9.84001 16.95 9.47001 17.54 9.47001L17.47 9.43001ZM5.55 9.46001C5.73 9.63001 5.55 9.75001 5.58 9.94001C5.71 10.72 6.04 10.82 6.09 11.16C6.27 12.29 6.77 12.83 6.81 12.86C6.83 12.89 6.85 12.91 6.88 12.92C6.87 13.01 6.89 13.15 6.94 13.28C6.99 13.4 7.06 13.51 7.15 13.56C7.15 13.66 7.19 13.79 7.25 13.89C7.31 13.99 7.39 14.08 7.49 14.11C7.53 14.15 7.55 14.17 7.58 14.2C7.66 14.38 7.11 14.59 6.87 14.66C6.78 14.9 6.5 15.1 6.29 15.1C6.13 15.1 6.12 15.07 6.02 15.02C6.36 14.96 6.49 14.97 6.48 14.17C6.48 14.15 6.48 14.14 6.48 14.13C6.48 14.13 6.48 14.13 6.48 14.12C6.48 14.12 6.47 14.11 6.46 14.11H6.45C6.45 14.11 6.45 14.12 6.45 14.13C6.29 14.62 5.83 12.72 5.73 12.03C5.71 11.87 5.88 11.52 5.86 11.33C5.86 11.33 5.82 11.32 5.82 11.33C5.81 11.41 5.77 11.51 5.73 11.6C5.72 11.6 5.71 11.62 5.69 11.63C5.66 11.66 5.63 11.69 5.59 11.74C5.53 11.84 5.45 11.9 5.54 12.14C5.57 12.23 5.42 12.39 5.36 12.42C5.36 12.28 5.13 12.24 5.09 12.26C5.07 12.11 5.14 11.91 5.24 11.82C5.36 11.7 5.46 11.31 5.38 11.13C5.38 11.11 5.35 11.1 5.33 11.1C5.32 11.1 5.31 11.1 5.3 11.12C5.3 11.13 5.3 11.14 5.3 11.15C5.31 11.17 5.32 11.21 5.32 11.25C5.27 11.3 5.14 11.04 5.25 10.96C5.27 10.96 5.3 10.96 5.31 10.96C5.33 10.96 5.35 10.93 5.34 10.91C5.34 10.89 5.31 10.87 5.29 10.88C5.22 10.89 5 10.82 4.86 10.73C4.47 10.86 4.39 10.85 4.28 10.71C4.35 10.62 4.28 10.48 4.28 10.47C4.36 10.4 4.43 10.4 4.51 10.41C4.55 10.41 4.67 10.45 4.74 10.52C4.88 10.47 5.11 10.58 5.14 10.68C5.14 10.69 5.15 10.7 5.17 10.71V10.72C5.18 10.72 5.2 10.72 5.21 10.71C5.22 10.7 5.22 10.68 5.21 10.67C5.18 10.57 5.07 10.1 4.72 10.1C4.72 10.1 4.54 10.06 4.54 9.87001C4.6 9.85001 4.75 9.74001 4.74 9.62001C4.91 9.67001 4.99 9.85001 4.99 9.93001C5.06 9.98001 5.3 10.04 5.36 10.67C5.36 10.69 5.36 10.7 5.38 10.71C5.39 10.71 5.41 10.71 5.42 10.71C5.43 10.71 5.44 10.68 5.43 10.67C5.42 10.52 5.39 10.39 5.36 10.29C5.36 10.12 5.33 9.99001 5.21 9.84001C5.15 9.73001 5.14 9.63001 5.21 9.54001C5.33 9.56001 5.51 9.49001 5.52 9.49001L5.55 9.46001ZM4.52 9.58001C4.52 9.58001 4.62 9.58001 4.66 9.59001C4.66 9.60001 4.66 9.65001 4.66 9.68001C4.66 9.68001 4.65 9.69001 4.64 9.70001C4.56 9.69001 4.4 9.61001 4.33 9.70001C4.33 9.70001 4.31 9.70001 4.32 9.72001C4.32 9.72001 4.32 9.73001 4.34 9.73001C4.34 9.73001 4.36 9.73001 4.37 9.73001C4.44 9.71001 4.54 9.73001 4.57 9.78001C4.57 9.78001 4.55 9.79001 4.54 9.80001C4.47 9.78001 4.36 9.77001 4.25 9.83001C4.25 9.65001 4.39 9.59001 4.53 9.59001L4.52 9.58001ZM7.8 9.70001C7.8 9.70001 7.91 9.70001 7.98 9.72001C8.07 9.73001 8.17 9.75001 8.26 9.74001C8.28 9.74001 8.29 9.74001 8.31 9.74001C8.34 9.89001 8.31 9.98001 8.26 10.03C8.2 10.08 8.11 10.09 8 10.09C7.89 10.09 7.78 10.06 7.68 10.05C7.66 10.05 7.65 10.05 7.64 10.05C7.62 10.05 7.61 10.05 7.6 10.04C7.59 10.04 7.58 10.02 7.58 10.01C7.58 9.99001 7.58 9.95001 7.6 9.91001C7.64 9.83001 7.72 9.76001 7.79 9.72001L7.8 9.70001ZM7.56 10.11C7.56 10.11 7.66 10.11 7.74 10.13C7.84 10.15 7.96 10.16 8.07 10.16C8.09 10.16 8.1 10.16 8.12 10.16C8.15 10.35 8.12 10.44 8.05 10.49C7.99 10.54 7.89 10.55 7.78 10.54C7.67 10.54 7.55 10.51 7.44 10.51C7.41 10.51 7.39 10.51 7.37 10.51C7.37 10.51 7.36 10.51 7.35 10.51C7.35 10.51 7.33 10.5 7.33 10.49C7.33 10.46 7.33 10.41 7.36 10.36C7.4 10.27 7.49 10.17 7.57 10.12L7.56 10.11ZM9.73 10.2C9.86 10.23 9.99 10.3 10.06 10.4C10.13 10.5 10.15 10.62 10.11 10.77C10.1 10.73 10.08 10.7 10.06 10.68C10.02 10.65 9.98 10.64 9.93 10.64C9.86 10.64 9.8 10.67 9.76 10.69C9.76 10.67 9.75 10.66 9.75 10.64C9.75 10.6 9.75 10.56 9.74 10.52C9.76 10.52 9.79 10.51 9.83 10.52C9.91 10.52 10.01 10.56 10.06 10.6C10.06 10.6 10.08 10.6 10.09 10.6C10.09 10.6 10.09 10.58 10.09 10.57C9.98 10.47 9.89 10.45 9.83 10.43C9.8 10.43 9.78 10.42 9.76 10.4C9.76 10.4 9.75 10.38 9.74 10.37C9.74 10.32 9.74 10.27 9.74 10.22L9.73 10.2ZM10.86 10.36C10.86 10.36 10.88 10.36 10.9 10.39C10.92 10.41 10.93 10.44 10.95 10.48C10.99 10.56 11.03 10.66 11.06 10.78C11.13 11.01 11.19 11.27 11.21 11.4C11.28 11.84 11.28 12.13 11.3 12.31C11.3 12.33 11.3 12.34 11.3 12.36C11.27 12.38 11.23 12.39 11.19 12.38C11.13 12.38 11.07 12.34 11.01 12.3C10.89 12.22 10.77 12.1 10.72 12C10.72 12 10.72 12 10.72 11.99C10.72 11.99 10.71 11.99 10.7 11.99C10.7 11.99 10.68 11.99 10.68 12.01C10.68 12.01 10.68 12.0133 10.68 12.02C10.59 12.13 10.54 12.23 10.53 12.32C10.52 12.41 10.55 12.49 10.6 12.56C10.65 12.63 10.71 12.68 10.77 12.71C10.8 12.73 10.83 12.73 10.86 12.74C10.74 12.76 10.59 12.78 10.45 12.74C10.28 12.69 10.12 12.55 10.05 12.21C10.05 12.21 10.05 12.21 10.05 12.2C10.05 12.2 10.04 12.19 10.03 12.19C10.03 12.19 10.03 12.19 10.02 12.19C9.87 12.31 9.77 12.49 9.74 12.65C9.72 12.73 9.72 12.81 9.74 12.87C9.59 12.78 9.49 12.67 9.44 12.55C9.38 12.4 9.37 12.23 9.4 12.05C9.4 12.05 9.4 12.04 9.41 12.04V12.03H9.4C9.34 12.13 9.19 12.29 9 12.4C8.83 12.5 8.63 12.55 8.44 12.49C8.56 12.11 8.76 11.87 8.99 11.74C9.2 11.61 9.43 11.58 9.59 11.6C9.56 11.69 9.55 11.82 9.55 11.96C9.55 11.96 9.55 11.98 9.57 11.98C9.58 11.98 9.59 11.98 9.59 11.96C9.61 11.85 9.7 11.7 9.81 11.59C9.86 11.54 9.92 11.5 9.97 11.47C10.01 11.45 10.05 11.45 10.08 11.46C10.08 11.5 10.08 11.53 10.07 11.57C10.07 11.74 10.07 11.93 10.07 12.08C10.07 12.08 10.07 12.1 10.09 12.1C10.09 12.1 10.09 12.1 10.1 12.1C10.17 11.81 10.24 11.56 10.31 11.4C10.34 11.32 10.38 11.26 10.41 11.24C10.42 11.23 10.44 11.22 10.45 11.22C10.45 11.22 10.47 11.22 10.48 11.23C10.48 11.24 10.48 11.26 10.49 11.29C10.49 11.34 10.51 11.41 10.51 11.48C10.52 11.63 10.53 11.81 10.54 11.93C10.54 11.94 10.54 11.95 10.56 11.95C10.58 11.95 10.58 11.95 10.58 11.93C10.6 11.54 10.67 11.14 10.75 10.83C10.79 10.68 10.83 10.55 10.86 10.46C10.86 10.44 10.87 10.43 10.88 10.42L10.86 10.36ZM4.24 10.47C4.24 10.47 4.25 10.5 4.26 10.53C4.21 10.53 4.15 10.55 4.11 10.6C4.11 10.6 4.11 10.61 4.11 10.62C4.11 10.62 4.11 10.63 4.12 10.63C4.12 10.63 4.13 10.63 4.14 10.63C4.17 10.59 4.23 10.59 4.27 10.6C4.27 10.63 4.27 10.66 4.25 10.69C4.2 10.69 4.14 10.68 4.08 10.76C4.03 10.57 4.17 10.49 4.25 10.48L4.24 10.47ZM7.35 10.58C7.4 10.58 7.46 10.58 7.52 10.58C7.64 10.59 7.76 10.62 7.87 10.62C7.91 10.62 7.94 10.62 7.97 10.61C7.99 10.81 7.96 10.92 7.89 10.98C7.82 11.04 7.71 11.06 7.59 11.06C7.47 11.06 7.33 11.05 7.22 11.05C7.17 11.05 7.11 11.05 7.07 11.07C7.06 11.07 7.05 11.06 7.04 11.04C7.04 11 7.05 10.92 7.1 10.84C7.14 10.76 7.2 10.68 7.26 10.62C7.28 10.61 7.29 10.6 7.31 10.59C7.33 10.59 7.34 10.58 7.36 10.57L7.35 10.58ZM15.39 10.72C15.39 10.72 15.42 10.73 15.43 10.73C15.43 10.75 15.41 10.77 15.4 10.79C15.4 10.79 15.4 10.79 15.39 10.79C15.39 10.77 15.4 10.76 15.39 10.74C15.39 10.73 15.39 10.72 15.39 10.71V10.72ZM7.85 11.11C7.9 11.29 7.88 11.4 7.82 11.47C7.75 11.54 7.63 11.57 7.5 11.59C7.37 11.61 7.22 11.61 7.09 11.64C7.04 11.65 6.99 11.67 6.95 11.7C6.95 11.7 6.93 11.69 6.93 11.68C6.91 11.64 6.91 11.57 6.92 11.49C6.93 11.41 6.95 11.33 6.98 11.27C6.99 11.24 7.01 11.21 7.02 11.19C7.02 11.19 7.03 11.19 7.04 11.18C7.11 11.16 7.2 11.15 7.29 11.15C7.42 11.15 7.56 11.16 7.69 11.15C7.75 11.15 7.81 11.14 7.86 11.12L7.85 11.11ZM7.77 11.62C7.82 11.71 7.85 11.78 7.86 11.84C7.86 11.9 7.86 11.94 7.83 11.98C7.78 12.05 7.67 12.08 7.53 12.11C7.39 12.13 7.24 12.15 7.1 12.18C7.03 12.2 6.96 12.23 6.91 12.26C6.9 12.26 6.89 12.25 6.88 12.24C6.86 12.2 6.86 12.14 6.87 12.07C6.87 12 6.9 11.92 6.93 11.86C6.94 11.83 6.96 11.81 6.97 11.79C6.97 11.78 6.98 11.78 6.99 11.77C7.04 11.75 7.09 11.74 7.14 11.73C7.27 11.71 7.43 11.7 7.56 11.68C7.63 11.67 7.69 11.65 7.75 11.63L7.77 11.62ZM13.33 11.86C13.33 11.93 13.29 11.97 13.23 11.99C13.2 12 13.17 12 13.14 11.99C13.14 11.99 13.14 11.99 13.13 11.99C13.13 11.99 13.12 11.99 13.11 11.98C13.17 11.98 13.22 11.96 13.24 11.93C13.26 11.91 13.27 11.88 13.28 11.86C13.29 11.86 13.31 11.86 13.32 11.86H13.33ZM7.81 12.14C7.86 12.2 7.89 12.25 7.9 12.3C7.91 12.35 7.9 12.39 7.89 12.42C7.85 12.49 7.76 12.55 7.64 12.61C7.52 12.67 7.38 12.71 7.24 12.76C7.17 12.79 7.1 12.81 7.04 12.84C6.97 12.83 6.93 12.79 6.9 12.74C6.87 12.68 6.86 12.61 6.86 12.54C6.86 12.47 6.88 12.4 6.91 12.36C6.91 12.36 6.91 12.36 6.92 12.35C6.98 12.31 7.07 12.29 7.16 12.27C7.3 12.25 7.45 12.24 7.59 12.22C7.67 12.21 7.75 12.18 7.81 12.15V12.14ZM5.11 12.33C5.11 12.33 5.15 12.35 5.18 12.36C5.15 12.4 5.11 12.46 5.05 12.46H5.03V12.48C5.03 12.48 5.04 12.48 5.05 12.48C5.13 12.48 5.19 12.41 5.24 12.37C5.27 12.39 5.29 12.4 5.31 12.42C5.24 12.49 5.07 12.6 4.91 12.44C5.02 12.45 5.08 12.37 5.12 12.32L5.11 12.33ZM11.58 12.52C11.58 12.59 11.54 12.65 11.48 12.68C11.45 12.7 11.4 12.7 11.41 12.7C11.44 12.69 11.47 12.66 11.49 12.64C11.51 12.62 11.52 12.59 11.52 12.56C11.52 12.56 11.52 12.55 11.52 12.54C11.54 12.54 11.56 12.53 11.57 12.52H11.58ZM13.79 12.53C13.93 12.53 14.05 12.59 14.09 12.68C14.09 12.68 14.09 12.69 14.09 12.7C14.09 12.72 14.09 12.76 14.09 12.79C14.09 12.87 14.08 12.97 14.07 13.07C14.06 13.25 14.05 13.4 14.05 13.43C13.88 13.56 13.73 13.43 13.68 13.33C13.68 13.3 13.65 13.16 13.62 12.99C13.6 12.89 13.59 12.8 13.57 12.72C13.57 12.69 13.56 12.67 13.56 12.65C13.63 12.57 13.72 12.53 13.81 12.52L13.79 12.53ZM13.25 12.57C13.32 12.57 13.39 12.6 13.44 12.67C13.44 12.69 13.44 12.72 13.45 12.75C13.46 12.82 13.48 12.92 13.5 13.02C13.53 13.2 13.56 13.34 13.56 13.37C13.51 13.46 13.25 13.52 13.15 13.39L12.98 12.69C13.02 12.64 13.13 12.59 13.24 12.59L13.25 12.57ZM7.87 12.6C7.97 12.66 8.03 12.71 8.07 12.76C8.11 12.81 8.13 12.86 8.12 12.9C8.12 12.98 8.04 13.06 7.92 13.14C7.81 13.21 7.66 13.28 7.52 13.35C7.45 13.38 7.39 13.41 7.33 13.44C7.26 13.45 7.2 13.44 7.15 13.4C7.1 13.36 7.05 13.29 7.02 13.22C6.99 13.15 6.98 13.07 6.98 13.01C6.98 12.97 6.99 12.94 7.01 12.91C7.25 12.81 7.55 12.75 7.76 12.66C7.8 12.64 7.83 12.62 7.86 12.6H7.87ZM12.69 12.64C12.76 12.64 12.83 12.65 12.9 12.7L13.07 13.38C13.02 13.51 12.81 13.55 12.73 13.5L12.47 12.8C12.47 12.74 12.57 12.65 12.69 12.64ZM14.3 12.65C14.44 12.65 14.65 12.8 14.65 12.93L14.48 13.62C14.45 13.71 14.19 13.67 14.14 13.49C14.14 13.49 14.15 13.29 14.17 13.09C14.17 12.99 14.18 12.89 14.19 12.81C14.19 12.77 14.19 12.74 14.19 12.72C14.19 12.72 14.19 12.72 14.19 12.71C14.21 12.67 14.25 12.66 14.3 12.66V12.65ZM12.28 12.78C12.28 12.78 12.35 12.79 12.37 12.81L12.63 13.53C12.6 13.62 12.29 13.79 12.21 13.69L11.95 12.96C11.96 12.87 12.14 12.77 12.28 12.77V12.78ZM14.85 12.93C14.99 12.93 15.16 13.06 15.16 13.25L14.89 13.93C14.79 13.97 14.56 13.87 14.56 13.69L14.74 12.96C14.74 12.96 14.81 12.92 14.85 12.92V12.93ZM11.73 12.97C11.73 12.97 11.81 12.98 11.85 13.01L12.11 13.72C12.08 13.85 11.82 14.01 11.71 13.9L11.41 13.21C11.41 13.15 11.57 12.99 11.73 12.98V12.97ZM8.16 13.09C8.3 13.18 8.36 13.27 8.35 13.37C8.35 13.47 8.28 13.57 8.18 13.67C8.03 13.82 7.82 13.94 7.64 14.02C7.6 14.02 7.55 14 7.51 13.97C7.46 13.93 7.4 13.88 7.36 13.82C7.32 13.76 7.29 13.7 7.28 13.64C7.28 13.61 7.28 13.59 7.28 13.57C7.28 13.56 7.29 13.55 7.3 13.54C7.54 13.43 7.85 13.33 8.04 13.2C8.09 13.17 8.12 13.13 8.15 13.09H8.16ZM11.23 13.21C11.23 13.21 11.3 13.21 11.34 13.22L11.65 13.93C11.65 14.12 11.29 14.29 11.2 14.21L10.92 13.43C10.92 13.35 11.09 13.22 11.23 13.2V13.21ZM15.36 13.28C15.5 13.28 15.68 13.37 15.68 13.5L15.41 14.22C15.27 14.32 14.99 14.08 14.98 13.98L15.25 13.3C15.25 13.3 15.31 13.27 15.36 13.27V13.28ZM10.69 13.42C10.69 13.42 10.79 13.42 10.84 13.47L11.12 14.25C11.12 14.33 10.8 14.55 10.64 14.45C10.6 14.36 10.47 14.04 10.43 13.83C10.45 13.76 10.47 13.69 10.49 13.64C10.51 13.58 10.54 13.55 10.56 13.5C10.59 13.47 10.63 13.43 10.68 13.42H10.69ZM13.63 13.52C13.63 13.58 13.98 13.64 14.02 13.64C13.99 13.71 14.22 13.86 14.34 13.91C14.37 13.95 14.37 14.04 14.37 14.09C14.36 14.21 14.4 14.37 14.58 14.49C14.7 14.56 15.09 14.7 15.09 15.02C15.09 15.25 14.91 15.34 14.83 15.39C14.9 15.26 14.83 15.12 14.68 15.09C14.57 15.07 14.31 15.06 14.08 15.08C14.06 15.08 14.04 15.1 14.04 15.12C14.04 15.14 14.06 15.16 14.08 15.16C14.18 15.18 14.23 15.18 14.21 15.26C13.85 15.55 13.07 16.28 13.04 16.56C13.04 16.64 13.12 16.72 13.22 16.71C13.22 16.71 13.6 16.53 13.76 16.67C13.67 16.76 13.74 16.96 13.74 16.97C13.54 17.11 13.31 16.91 12.92 16.91C12.53 16.91 12.21 17.16 11.96 17.17C11.93 17.17 11.91 17.17 11.89 17.16C11.91 17.13 11.93 17.1 11.93 17.1C11.93 17.1 11.95 17.09 11.96 17.09C11.96 17.09 11.97 17.09 11.98 17.08V17.06C11.98 17.06 11.97 17.06 11.96 17.06C11.96 17.06 11.96 17.06 11.95 17.06C11.94 17.06 11.78 17.1 11.73 17.1C11.64 17.1 11.44 17.17 11.31 17.24C11.22 17.28 11.06 17.46 10.8 17.41C10.83 17.3 10.79 17.16 10.71 17.04C10.72 17.04 10.75 17 10.76 16.97C11.14 16.91 11.1 17.1 11.19 16.96C11.25 16.87 11.28 17.11 11.74 16.72C11.74 16.72 11.75 16.71 11.74 16.7C11.74 16.7 11.74 16.69 11.73 16.68C11.73 16.68 11.72 16.68 11.71 16.68C11.15 16.91 11.32 16.75 11.06 16.76C10.82 16.77 10.89 16.83 10.74 16.82C10.67 16.82 10.58 16.75 10.57 16.72C10.63 16.71 10.63 16.52 10.59 16.43C10.62 16.39 10.71 16.37 10.79 16.37C11 16.37 11.09 16.56 11.31 16.59C11.47 16.59 11.62 16.46 11.75 16.55C11.75 16.55 11.77 16.55 11.78 16.55V16.53C12.76 16.56 13.48 14.43 13.32 14.2C13.32 14.2 13.32 14.19 13.32 14.18C13.3 14.12 13.26 14.03 13.16 13.99C13.13 13.96 13.09 13.77 12.89 13.74C12.9 13.69 12.91 13.66 12.91 13.63C13.01 13.61 13.12 13.57 13.14 13.54C13.19 13.61 13.65 13.6 13.64 13.54L13.63 13.52ZM15.83 13.56C15.96 13.56 16.14 13.67 16.15 13.78L15.93 14.35C15.83 14.47 15.58 14.38 15.54 14.35C15.51 14.33 15.51 14.28 15.5 14.24L15.73 13.59C15.73 13.59 15.78 13.56 15.82 13.56H15.83ZM8.33 13.62C8.33 13.62 8.33 13.68 8.33 13.71C8.32 13.88 8.32 14.04 8.32 14.19C8.29 14.3 8.25 14.36 8.2 14.4C8.15 14.43 8.09 14.44 8.03 14.42C7.91 14.38 7.78 14.25 7.69 14.08C7.93 14 8.17 13.85 8.32 13.67C8.32 13.66 8.33 13.65 8.34 13.63L8.33 13.62ZM12.76 13.66C12.74 13.92 12.32 14.24 12.16 14.23C12.13 14.2 12.09 14.19 12.07 14.16C12.01 14.05 12.63 13.7 12.77 13.66H12.76ZM14.46 13.82C14.46 13.82 14.46 13.82 14.45 13.82C14.45 13.82 14.45 13.82 14.45 13.81L14.46 13.82ZM12.89 13.84C13.06 13.86 13.11 14.05 13.06 14.08C13.06 14.09 12.91 14.45 12.73 14.54C12.67 14.57 12.59 14.56 12.54 14.54C12.45 14.5 12.35 14.41 12.31 14.31C12.36 14.23 12.6 14.15 12.81 13.83C12.84 13.83 12.86 13.83 12.89 13.83V13.84ZM16.23 13.85C16.35 13.82 16.58 13.95 16.59 14.12L16.46 14.48C16.38 14.54 16.02 14.55 16.01 14.41L16.22 13.86C16.22 13.86 16.22 13.86 16.23 13.86V13.85ZM10.4 14.13C10.47 14.09 10.54 14.38 10.58 14.48C10.58 14.48 10.45 14.84 10.37 14.35C10.37 14.32 10.38 14.23 10.39 14.15C10.39 14.15 10.39 14.13 10.4 14.13ZM13.16 14.16C13.16 14.16 13.24 14.19 13.25 14.28C13.23 14.42 13.19 14.59 13.13 14.77C13.05 14.8 12.9 14.75 12.81 14.7C12.79 14.68 12.78 14.65 12.79 14.62C12.98 14.49 13.08 14.26 13.11 14.18C13.13 14.17 13.14 14.16 13.15 14.17L13.16 14.16ZM16.65 14.22C16.72 14.22 16.93 14.36 16.96 14.56C16.93 14.69 16.63 14.66 16.55 14.52L16.65 14.22ZM8.3 14.36C8.3 14.44 8.3 14.5 8.29 14.56C8.27 14.54 8.25 14.51 8.24 14.48C8.26 14.45 8.28 14.41 8.3 14.36ZM11.05 15.87C11.11 15.87 11.12 15.88 11.18 15.93C11.23 15.98 11.27 16.07 11.37 16.17C11.46 16.26 11.7 16.39 11.84 16.43C11.79 16.45 11.74 16.46 11.69 16.47C11.56 16.43 11.39 16.53 11.17 16.34C11.14 16.31 11.06 16.29 10.97 16.28C10.92 16.24 10.8 16.15 10.81 16.14C10.87 16.04 10.94 15.95 10.92 15.92C10.95 15.89 10.99 15.88 11.05 15.88V15.87ZM10.7 15.89C10.76 15.88 10.82 15.89 10.87 15.92C10.87 15.93 10.86 15.95 10.85 15.96C10.81 15.94 10.76 15.92 10.68 15.94C10.68 15.94 10.67 15.94 10.66 15.95C10.65 15.96 10.66 15.97 10.66 15.97C10.66 15.97 10.67 15.97 10.68 15.97C10.75 15.95 10.78 15.98 10.82 16.01C10.82 16.02 10.81 16.04 10.8 16.05C10.76 16.02 10.6 15.92 10.56 16.08C10.56 15.96 10.63 15.91 10.7 15.9V15.89ZM16.14 15.97C16.2 15.97 16.25 16 16.28 16.02C16.28 16.03 16.29 16.04 16.28 16.05C16.28 16.05 16.28 16.05 16.28 16.06C16.23 16.03 16.14 15.99 16.04 16.02C16.04 16.02 16.03 16.02 16.02 16.03C16.02 16.03 16.02 16.04 16.02 16.05C16.02 16.06 16.04 16.05 16.04 16.05C16.13 16.03 16.18 16.1 16.22 16.13C16.2 16.15 16.18 16.16 16.17 16.18C16.14 16.15 15.98 16.02 15.86 16.2C15.93 16 16.04 15.96 16.13 15.96L16.14 15.97ZM6.23 15.99C6.29 15.98 6.34 16.03 6.36 16.06C6.36 16.06 6.36 16.07 6.36 16.08C6.36 16.08 6.36 16.09 6.36 16.1C6.32 16.08 6.27 16.07 6.19 16.1C6.19 16.1 6.18 16.1 6.17 16.11C6.16 16.12 6.17 16.12 6.17 16.13C6.17 16.13 6.18 16.13 6.19 16.13C6.26 16.11 6.29 16.13 6.32 16.17C6.3 16.19 6.29 16.2 6.28 16.22C6.23 16.19 6.11 16.12 6.05 16.22C6.11 16.07 6.18 16.01 6.23 16V15.99ZM10.47 16.42C10.47 16.42 10.5 16.43 10.5 16.44C10.5 16.44 10.51 16.46 10.52 16.47C10.46 16.47 10.4 16.47 10.34 16.52C10.34 16.52 10.34 16.53 10.34 16.54C10.34 16.55 10.34 16.55 10.35 16.56C10.35 16.56 10.36 16.56 10.37 16.56C10.43 16.51 10.5 16.55 10.55 16.56C10.55 16.58 10.55 16.6 10.55 16.62C10.5 16.58 10.39 16.52 10.29 16.62C10.28 16.43 10.41 16.41 10.48 16.41L10.47 16.42ZM15.9 16.59C15.9 16.59 15.92 16.59 15.93 16.59C15.93 16.61 15.93 16.64 15.93 16.67C15.87 16.67 15.8 16.67 15.73 16.72C15.73 16.72 15.73 16.73 15.73 16.74C15.73 16.74 15.73 16.75 15.74 16.76C15.75 16.77 15.76 16.76 15.76 16.76C15.81 16.72 15.86 16.74 15.91 16.76C15.91 16.77 15.91 16.79 15.9 16.8C15.84 16.78 15.69 16.74 15.66 16.95C15.55 16.63 15.77 16.6 15.9 16.6V16.59ZM13.85 16.72C13.99 16.72 14.26 16.91 13.93 17.11C14.04 16.97 13.84 16.92 13.81 16.92C13.81 16.92 13.81 16.92 13.81 16.91C13.86 16.91 13.9 16.89 13.99 16.97C13.99 16.97 13.99 16.98 14.01 16.98C14.03 16.98 14.02 16.98 14.03 16.98C14.03 16.98 14.03 16.97 14.03 16.96C13.99 16.87 13.88 16.83 13.82 16.81C13.82 16.78 13.83 16.75 13.85 16.72ZM6.07 16.76C6.07 16.76 6.07 16.81 6.07 16.83C6.01 16.83 5.94 16.83 5.87 16.88C5.87 16.88 5.86 16.89 5.87 16.9C5.87 16.9 5.87 16.91 5.88 16.92H5.9C5.95 16.88 6 16.9 6.05 16.92C6.04 16.95 6.03 16.97 6.02 16.99C5.97 16.97 5.87 16.93 5.79 17.02C5.82 16.79 5.99 16.77 6.08 16.77L6.07 16.76ZM19.33 16.91C19.39 16.93 19.75 17.07 19.45 17.34C19.52 17.12 19.32 17.1 19.28 17.1C19.28 17.1 19.28 17.08 19.28 17.07C19.33 17.07 19.4 17.07 19.43 17.14C19.43 17.14 19.43 17.15 19.45 17.15H19.47C19.47 17.15 19.47 17.14 19.47 17.13C19.43 17.04 19.35 17 19.29 16.99C19.29 16.96 19.31 16.94 19.32 16.92L19.33 16.91ZM16.16 17.1C16.16 17.1 16.18 17.15 16.19 17.18C16.14 17.19 16.04 17.23 16 17.33C16 17.33 16 17.34 16 17.35C16 17.35 16.01 17.35 16.02 17.35C16.02 17.35 16.03 17.35 16.04 17.34C16.07 17.27 16.15 17.27 16.21 17.27C16.21 17.28 16.21 17.29 16.21 17.3C16.16 17.3 15.95 17.33 16.03 17.54C15.72 17.26 16.13 17.12 16.17 17.11L16.16 17.1ZM10.68 17.12C10.68 17.12 10.7 17.15 10.7 17.17C10.65 17.19 10.57 17.22 10.54 17.31C10.54 17.31 10.54 17.32 10.54 17.33C10.54 17.33 10.55 17.33 10.56 17.33C10.56 17.33 10.57 17.33 10.58 17.32C10.61 17.25 10.68 17.25 10.73 17.25C10.73 17.28 10.73 17.31 10.73 17.34C10.66 17.33 10.52 17.34 10.47 17.47C10.34 17.34 10.51 17.16 10.67 17.13L10.68 17.12ZM9.32 17.17C9.47 17.2 9.73 17.32 9.44 17.6C9.54 17.45 9.33 17.41 9.28 17.4C9.28 17.38 9.28 17.37 9.28 17.35C9.34 17.35 9.43 17.35 9.46 17.42C9.46 17.42 9.46 17.43 9.48 17.43H9.5C9.5 17.43 9.5 17.42 9.5 17.41C9.46 17.32 9.35 17.27 9.29 17.26C9.29 17.23 9.31 17.2 9.33 17.18L9.32 17.17ZM6.23 17.47C6.23 17.47 6.26 17.51 6.27 17.53C6.22 17.55 6.16 17.59 6.13 17.66C6.13 17.66 6.13 17.67 6.13 17.68C6.13 17.68 6.14 17.68 6.15 17.68C6.15 17.68 6.16 17.68 6.17 17.67C6.2 17.61 6.25 17.6 6.3 17.6C6.3 17.63 6.3 17.66 6.3 17.68C6.23 17.68 6.11 17.68 6.17 17.86C5.98 17.63 6.13 17.46 6.23 17.45V17.47Z" fill="#D21034"/>
</svg>
