<svg width="24" height="24" viewBox="0 0 24 24" fill="none" xmlns="http://www.w3.org/2000/svg">
<path d="M0 4H24V20H0V4Z" fill="#DE2010"/>
<path d="M18.29 4H24V20H18.29V4Z" fill="black"/>
<path d="M21.14 4H24V20H21.14V4Z" fill="#EF7D00"/>
<path d="M0 4H24V9.71H15.43V20H0V4Z" fill="#198A00"/>
<path d="M19.64 7.85001L19.75 7.91001C19.82 7.87001 19.95 7.89001 19.96 7.88001C19.97 7.87001 19.98 7.85001 19.98 7.85001V7.71001C19.98 7.71001 19.92 7.77001 19.91 7.76001C19.96 7.54001 19.89 7.42001 19.73 7.14001C19.73 7.31001 19.73 7.46001 19.71 7.57001C19.74 7.65001 19.73 7.65001 19.74 7.73001C19.71 7.72001 19.67 7.68001 19.65 7.64001C19.65 7.64001 19.63 7.83001 19.65 7.87001L19.64 7.85001ZM20.27 7.45001C20.34 7.56001 20.4 7.54001 20.42 7.58001C20.35 7.62001 20.27 7.50001 20.22 7.50001C20.17 7.53001 20.37 7.78001 20.37 7.80001C20.37 7.80001 20.27 7.80001 20.18 7.73001C20.18 7.78001 20.18 7.82001 20.18 7.82001C20.18 7.82001 20.18 7.85001 20.3 7.85001C20.39 7.86001 20.4 7.99001 20.38 7.95001C20.36 7.92001 20.28 7.89001 20.28 7.89001C20.28 7.89001 20.22 7.89001 20.23 7.93001C20.35 7.97001 20.32 8.07001 20.3 8.13001C20.28 8.19001 20.21 8.18001 20.21 8.18001C20.21 8.18001 20.26 8.12001 20.21 8.10001C20.11 8.12001 20.1 8.01001 20.1 8.01001C20.1 8.01001 20.08 7.97001 20.04 8.01001C20.08 8.20001 19.97 8.22001 19.97 8.22001C19.97 8.22001 19.95 8.27001 19.99 8.31001C19.88 8.31001 19.92 8.21001 19.9 8.19001C19.89 8.19001 19.85 8.14001 19.9 8.02001C19.82 8.14001 19.74 8.10001 19.74 8.10001C19.74 8.10001 19.74 8.14001 19.75 8.19001C19.69 8.14001 19.69 8.12001 19.69 8.04001C19.69 8.03001 19.69 8.01001 19.69 8.00001C19.68 8.01001 19.66 8.03001 19.64 8.03001C19.74 8.16001 19.62 8.24001 19.62 8.24001C19.62 8.24001 19.61 8.30001 19.66 8.34001C19.57 8.34001 19.57 8.26001 19.57 8.26001C19.57 8.26001 19.49 8.23001 19.48 8.08001C19.48 8.24001 19.35 8.25001 19.35 8.25001C19.35 8.25001 19.33 8.28001 19.36 8.32001C19.26 8.30001 19.29 8.20001 19.29 8.20001C19.29 8.20001 19.21 8.15001 19.34 8.03001C19.2 8.13001 19.11 8.11001 19.08 8.10001C19.08 8.10001 19.06 8.12001 19.03 8.17001C19.02 8.09001 19.03 8.08001 19.03 8.08001C19.03 8.08001 19.05 7.92001 19.22 7.92001C19.39 7.92001 19.41 7.79001 19.43 7.74001C19.41 7.76001 19.39 7.76001 19.38 7.76001C19.35 7.75001 19.44 7.43001 19.42 7.34001C19.45 7.61001 19.26 7.73001 19.26 7.69001C19.29 7.60001 19.29 7.52001 19.31 7.44001C19.33 7.37001 19.36 7.30001 19.37 7.26001C19.35 7.31001 19.29 7.37001 19.28 7.37001C19.26 7.38001 19.31 7.26001 19.29 7.27001C19.24 7.30001 18.94 7.35001 18.85 7.20001C18.85 7.14001 19.14 7.01001 19.12 7.02001C19.08 7.05001 18.51 7.26001 18.53 7.13001C18.5 7.10001 18.85 6.91001 18.84 6.91001C18.84 6.91001 18.54 7.06001 18.53 7.06001C18.52 7.06001 18.28 7.13001 18.24 7.06001C18.24 7.05001 18.92 6.71001 18.92 6.66001C18.88 6.72001 18.39 6.97001 18.37 6.98001C18.35 6.98001 18.07 7.07001 17.98 7.00001C17.96 6.98001 18.36 6.80001 18.34 6.76001C18.19 6.89001 18.07 6.93001 17.96 6.95001C17.9 6.95001 17.83 6.96001 17.78 6.95001C17.68 6.93001 17.61 6.87001 17.62 6.86001C17.62 6.85001 17.91 6.80001 17.97 6.72001C17.37 6.90001 17.17 6.73001 17.18 6.71001C17.18 6.71001 17.32 6.69001 17.33 6.69001C17.33 6.69001 17.7 6.57001 17.71 6.56001C17.71 6.56001 17.34 6.67001 17.13 6.66001C16.9 6.65001 16.8 6.57001 16.8 6.55001C16.8 6.54001 16.94 6.52001 16.97 6.52001C17 6.52001 17.39 6.40001 17.4 6.39001C17.42 6.37001 17.13 6.46001 17.08 6.47001C16.66 6.49001 16.6 6.38001 16.61 6.36001C16.61 6.36001 16.76 6.33001 16.78 6.34001C16.81 6.34001 17.07 6.29001 17.07 6.29001C17.08 6.29001 16.82 6.35001 16.79 6.34001C16.05 6.18001 15.92 5.91001 15.92 5.85001C15.92 5.79001 16 5.90001 16.11 5.95001C16.36 6.05001 16.9 6.24001 16.88 6.23001C16.6 6.14001 16.28 5.99001 16.2 5.96001C16.04 5.89001 15.92 5.68001 15.95 5.66001C15.99 5.64001 16.18 5.83001 16.33 5.89001C16.36 5.90001 17.17 6.21001 17.17 6.21001C17.17 6.19001 16.47 5.96001 16.41 5.92001C16.05 5.78001 16 5.46001 16.03 5.44001C16.07 5.43001 16.2 5.59001 16.29 5.64001C16.35 5.67001 16.46 5.74001 17.21 6.04001C17.21 6.04001 16.72 5.83001 16.66 5.79001C16.53 5.70001 16.42 5.58001 16.35 5.47001C16.3 5.40001 16.3 5.32001 16.33 5.32001C16.37 5.32001 16.51 5.43001 16.68 5.49001C16.92 5.59001 17.19 5.70001 17.48 5.85001C17.5 5.85001 17.17 5.56001 17.23 5.54001C17.27 5.50001 17.74 5.79001 18.19 5.91001C18.36 5.93001 18.82 5.99001 18.99 6.07001C18.96 6.05001 18.95 6.04001 18.94 6.03001C19.08 5.42001 19.62 5.50001 19.75 5.64001C20.16 5.68001 20 5.85001 19.93 5.87001C19.97 5.74001 19.8 5.78001 19.73 5.74001C19.78 5.76001 19.83 5.77001 19.88 5.79001C19.84 5.81001 19.82 5.80001 19.76 5.81001C19.69 5.81001 19.55 5.89001 19.67 6.12001C19.67 6.12001 19.84 6.03001 20.48 6.07001C20.55 6.07001 20.92 5.95001 21.03 5.92001C21.22 5.89001 21.81 5.77001 21.97 5.66001C22.08 5.65001 21.94 5.85001 21.8 5.90001C21.8 5.90001 22.86 5.49001 22.95 5.41001C22.99 5.46001 22.56 5.94001 21.71 6.12001C22.48 5.95001 23.14 5.43001 23.27 5.44001C23.31 5.44001 23.3 5.95001 21.53 6.39001C22.75 6.10001 23.45 5.56001 23.45 5.62001C23.45 5.65001 23.33 6.04001 22.26 6.37001C22.56 6.31001 23.37 5.85001 23.36 5.94001C23.39 5.98001 22.58 6.93001 21.11 6.62001C22.28 6.90001 23.04 6.23001 23.15 6.24001C23.17 6.24001 22.93 6.83001 21.46 6.86001C22.17 6.79001 21.96 6.86001 21.96 6.86001C21.96 6.86001 21.54 7.16001 21.04 6.96001C21.43 7.06001 21.48 7.06001 21.49 7.10001C21.46 7.14001 21.14 7.20001 20.83 7.04001C21.04 7.12001 21.31 7.15001 21.31 7.19001C21.28 7.23001 21.13 7.26001 21.05 7.24001C20.98 7.22001 20.85 7.15001 20.69 7.00001C20.83 7.17001 21.2 7.34001 21.14 7.40001C20.99 7.47001 20.66 7.29001 20.53 7.21001C20.72 7.42001 20.88 7.41001 20.82 7.49001C20.67 7.56001 20.43 7.37001 20.37 7.32001C20.37 7.34001 20.53 7.43001 20.48 7.47001C20.34 7.47001 20.2 7.33001 20.19 7.33001C20.19 7.36001 20.21 7.38001 20.22 7.40001L20.27 7.45001Z" fill="#EF7D00"/>
<path d="M19.67 8.36001C19.59 8.36001 19.57 8.29001 19.57 8.27001C19.55 8.27001 19.52 8.23001 19.49 8.17001C19.46 8.24001 19.39 8.26001 19.37 8.27001C19.37 8.27001 19.37 8.30001 19.38 8.33001V8.34001C19.38 8.34001 19.38 8.34001 19.37 8.34001C19.34 8.34001 19.31 8.32001 19.3 8.29001C19.28 8.26001 19.29 8.23001 19.29 8.21001C19.29 8.21001 19.27 8.19001 19.27 8.17001C19.27 8.15001 19.27 8.12001 19.29 8.09001C19.19 8.14001 19.13 8.13001 19.1 8.12001C19.1 8.12001 19.08 8.15001 19.06 8.18001C19.06 8.18001 19.06 8.18001 19.05 8.18001C19.05 8.18001 19.05 8.18001 19.04 8.17001C19.04 8.11001 19.04 8.08001 19.04 8.07001C19.04 8.04001 19.08 7.90001 19.24 7.90001C19.37 7.90001 19.41 7.82001 19.42 7.76001C19.41 7.76001 19.4 7.76001 19.39 7.76001C19.37 7.76001 19.37 7.72001 19.39 7.59001C19.36 7.64001 19.33 7.67001 19.3 7.69001C19.28 7.70001 19.27 7.70001 19.26 7.69001C19.26 7.69001 19.26 7.68001 19.26 7.67001C19.28 7.62001 19.28 7.57001 19.29 7.53001C19.29 7.49001 19.3 7.46001 19.31 7.43001C19.31 7.40001 19.33 7.37001 19.34 7.34001C19.32 7.36001 19.31 7.38001 19.3 7.38001H19.29C19.28 7.38001 19.29 7.36001 19.29 7.32001C19.29 7.32001 19.29 7.30001 19.29 7.29001C19.24 7.31001 19.12 7.33001 19.01 7.31001C18.93 7.29001 18.88 7.26001 18.85 7.21001C18.85 7.18001 18.89 7.15001 18.93 7.12001C18.78 7.17001 18.6 7.22001 18.54 7.18001C18.53 7.18001 18.52 7.16001 18.52 7.14001C18.52 7.14001 18.52 7.14001 18.52 7.13001C18.52 7.12001 18.55 7.09001 18.59 7.06001C18.57 7.07001 18.55 7.08001 18.55 7.08001C18.54 7.08001 18.29 7.16001 18.24 7.08001C18.24 7.07001 18.24 7.06001 18.3 7.02001C18.2 7.04001 18.04 7.07001 17.98 7.02001C17.98 7.02001 17.98 7.02001 17.98 7.01001C17.98 7.00001 17.99 6.99001 18.05 6.96001C18.02 6.96001 18 6.97001 17.97 6.98001C17.9 6.99001 17.83 6.99001 17.78 6.98001C17.69 6.96001 17.6 6.90001 17.6 6.88001C17.6 6.87001 17.61 6.86001 17.68 6.84001C17.74 6.82001 17.82 6.80001 17.88 6.78001C17.33 6.93001 17.17 6.76001 17.17 6.76001C17.16 6.75001 17.16 6.74001 17.17 6.73001C17.17 6.72001 17.19 6.72001 17.26 6.71001C17.28 6.71001 17.32 6.71001 17.32 6.71001C17.32 6.71001 17.34 6.71001 17.41 6.68001C17.31 6.70001 17.2 6.72001 17.13 6.71001C16.92 6.70001 16.81 6.63001 16.79 6.60001C16.79 6.60001 16.79 6.59001 16.79 6.58001C16.79 6.57001 16.81 6.56001 16.95 6.54001H16.97C16.97 6.54001 17.01 6.53001 17.06 6.51001C16.71 6.53001 16.62 6.45001 16.6 6.42001C16.6 6.41001 16.59 6.39001 16.6 6.38001C16.6 6.37001 16.67 6.36001 16.72 6.35001C16.07 6.19001 15.92 5.95001 15.92 5.86001C15.92 5.85001 15.92 5.84001 15.93 5.83001C15.95 5.83001 15.97 5.83001 16 5.87001C16.03 5.89001 16.07 5.93001 16.12 5.95001C16.12 5.95001 16.12 5.95001 16.13 5.95001C16.02 5.88001 15.93 5.74001 15.93 5.69001C15.93 5.67001 15.93 5.66001 15.94 5.66001C15.96 5.65001 16 5.67001 16.09 5.74001C16.13 5.77001 16.17 5.80001 16.21 5.82001C16.09 5.72001 16.03 5.60001 16.02 5.51001C16.02 5.48001 16.02 5.45001 16.02 5.44001C16.05 5.44001 16.09 5.47001 16.16 5.53001C16.2 5.57001 16.25 5.61001 16.29 5.64001C16.29 5.64001 16.39 5.70001 16.6 5.79001C16.5 5.71001 16.4 5.61001 16.33 5.50001C16.29 5.43001 16.28 5.37001 16.29 5.35001C16.29 5.35001 16.3 5.34001 16.31 5.34001C16.33 5.34001 16.37 5.36001 16.42 5.39001C16.48 5.43001 16.57 5.48001 16.67 5.51001C16.91 5.61001 17.15 5.71001 17.41 5.84001C17.4 5.83001 17.39 5.82001 17.38 5.81001C17.25 5.68001 17.18 5.61001 17.19 5.58001C17.19 5.58001 17.19 5.57001 17.2 5.56001C17.23 5.54001 17.3 5.58001 17.48 5.66001C17.67 5.75001 17.92 5.86001 18.17 5.93001C18.19 5.93001 18.21 5.93001 18.24 5.93001C18.42 5.96001 18.73 6.00001 18.91 6.06001C18.98 5.74001 19.16 5.62001 19.3 5.58001C19.47 5.53001 19.66 5.58001 19.74 5.66001C19.91 5.68001 20.01 5.72001 20.01 5.79001C20.01 5.85001 19.95 5.91001 19.91 5.92001C19.91 5.92001 19.91 5.92001 19.9 5.92001C19.9 5.92001 19.9 5.92001 19.9 5.91001C19.9 5.89001 19.9 5.87001 19.9 5.86001C19.9 5.86001 19.89 5.85001 19.88 5.84001C19.85 5.85001 19.83 5.85001 19.8 5.86001C19.79 5.86001 19.77 5.86001 19.75 5.86001C19.73 5.86001 19.67 5.88001 19.64 5.93001C19.61 5.98001 19.62 6.05001 19.67 6.14001C19.72 6.12001 19.92 6.06001 20.48 6.10001C20.54 6.10001 20.8 6.02001 20.95 5.98001C20.98 5.97001 21.01 5.96001 21.03 5.95001C21.22 5.92001 21.81 5.80001 21.97 5.69001C22.01 5.69001 22.02 5.71001 22.02 5.72001C22.02 5.76001 21.99 5.82001 21.92 5.88001C22.21 5.77001 22.86 5.50001 22.93 5.44001C22.93 5.44001 22.94 5.44001 22.95 5.44001C22.95 5.44001 22.95 5.46001 22.95 5.47001C22.94 5.52001 22.83 5.64001 22.64 5.77001C22.74 5.72001 22.83 5.67001 22.91 5.62001C23.09 5.52001 23.21 5.45001 23.26 5.46001C23.26 5.46001 23.28 5.46001 23.28 5.50001C23.28 5.51001 23.28 5.66001 22.98 5.87001C23.11 5.81001 23.21 5.75001 23.28 5.71001C23.41 5.64001 23.43 5.63001 23.45 5.63001C23.45 5.63001 23.45 5.63001 23.45 5.64001C23.45 5.64001 23.42 5.80001 23.14 6.00001C23.27 5.94001 23.33 5.93001 23.35 5.94001C23.35 5.94001 23.35 5.94001 23.35 5.96001C23.35 5.96001 23.35 5.98001 23.34 6.00001C23.31 6.04001 23.22 6.15001 23.05 6.28001C23.09 6.26001 23.11 6.25001 23.13 6.25001C23.13 6.25001 23.14 6.25001 23.14 6.27001C23.14 6.35001 22.88 6.73001 21.98 6.86001C21.98 6.86001 21.98 6.88001 21.95 6.89001C21.93 6.90001 21.71 7.05001 21.4 7.06001C21.46 7.08001 21.47 7.09001 21.48 7.11001C21.48 7.11001 21.48 7.11001 21.48 7.12001C21.46 7.14001 21.38 7.17001 21.26 7.17001C21.29 7.17001 21.3 7.19001 21.3 7.20001C21.3 7.20001 21.3 7.20001 21.3 7.21001C21.26 7.25001 21.11 7.28001 21.03 7.27001C21.02 7.27001 21.01 7.27001 20.99 7.26001C21.08 7.33001 21.14 7.37001 21.14 7.41001C21.14 7.42001 21.14 7.43001 21.13 7.44001C20.99 7.50001 20.73 7.38001 20.59 7.30001C20.66 7.36001 20.72 7.40001 20.76 7.42001C20.8 7.45001 20.83 7.46001 20.84 7.49001C20.84 7.50001 20.84 7.52001 20.83 7.53001C20.73 7.57001 20.6 7.52001 20.51 7.46001C20.51 7.46001 20.51 7.47001 20.51 7.48001C20.51 7.48001 20.51 7.50001 20.49 7.51001C20.39 7.51001 20.29 7.45001 20.24 7.40001C20.24 7.40001 20.24 7.41001 20.24 7.42001C20.28 7.48001 20.31 7.50001 20.34 7.51001C20.36 7.51001 20.38 7.53001 20.39 7.55001C20.39 7.55001 20.39 7.56001 20.39 7.57001C20.34 7.60001 20.29 7.56001 20.24 7.52001C20.22 7.51001 20.2 7.49001 20.19 7.49001C20.19 7.52001 20.26 7.64001 20.3 7.70001C20.34 7.75001 20.34 7.77001 20.34 7.78001C20.33 7.78001 20.24 7.78001 20.16 7.72001V7.74001C20.16 7.74001 20.16 7.78001 20.16 7.79001C20.16 7.79001 20.18 7.81001 20.27 7.81001C20.34 7.81001 20.37 7.88001 20.37 7.92001C20.37 7.94001 20.37 7.94001 20.36 7.95001C20.36 7.95001 20.35 7.95001 20.34 7.94001C20.32 7.92001 20.27 7.90001 20.25 7.89001C20.25 7.89001 20.22 7.89001 20.22 7.90001C20.26 7.92001 20.29 7.94001 20.3 7.97001C20.32 8.01001 20.32 8.06001 20.3 8.11001C20.28 8.17001 20.2 8.17001 20.19 8.17001C20.19 8.17001 20.19 8.17001 20.18 8.17001C20.18 8.17001 20.18 8.17001 20.18 8.16001C20.18 8.16001 20.21 8.13001 20.2 8.11001C20.2 8.11001 20.2 8.11001 20.2 8.10001C20.17 8.10001 20.15 8.10001 20.12 8.09001C20.08 8.06001 20.07 8.02001 20.07 8.00001C20.07 8.00001 20.06 8.00001 20.05 8.00001C20.06 8.07001 20.05 8.13001 20.03 8.17001C20.01 8.20001 19.98 8.21001 19.97 8.21001C19.97 8.22001 19.97 8.26001 19.99 8.28001C19.99 8.28001 19.99 8.28001 19.99 8.29001C19.99 8.29001 19.99 8.29001 19.98 8.29001C19.89 8.29001 19.89 8.22001 19.89 8.19001C19.89 8.19001 19.89 8.18001 19.89 8.17001C19.89 8.17001 19.88 8.16001 19.87 8.15001C19.87 8.13001 19.86 8.10001 19.87 8.06001C19.82 8.10001 19.78 8.10001 19.76 8.09001C19.76 8.11001 19.76 8.13001 19.77 8.16001V8.17001C19.77 8.17001 19.76 8.17001 19.75 8.17001C19.72 8.15001 19.71 8.13001 19.7 8.12001C19.7 8.17001 19.66 8.20001 19.64 8.21001C19.64 8.22001 19.64 8.27001 19.67 8.29001C19.67 8.29001 19.67 8.29001 19.67 8.30001C19.67 8.30001 19.67 8.30001 19.66 8.30001L19.67 8.36001ZM19.51 8.09001C19.51 8.21001 19.59 8.25001 19.59 8.25001C19.59 8.25001 19.59 8.25001 19.59 8.26001C19.59 8.26001 19.59 8.30001 19.63 8.32001C19.61 8.28001 19.61 8.24001 19.61 8.24001C19.61 8.24001 19.65 8.21001 19.66 8.16001C19.66 8.12001 19.66 8.09001 19.62 8.05001C19.62 8.05001 19.62 8.05001 19.62 8.04001C19.63 8.04001 19.65 8.02001 19.66 8.01001C19.66 8.01001 19.66 8.01001 19.67 8.01001C19.67 8.01001 19.67 8.01001 19.67 8.02001C19.67 8.03001 19.67 8.05001 19.67 8.06001C19.67 8.13001 19.67 8.15001 19.7 8.18001C19.7 8.14001 19.7 8.12001 19.7 8.12001C19.7 8.12001 19.7 8.12001 19.71 8.12001C19.71 8.12001 19.78 8.16001 19.85 8.05001C19.85 8.05001 19.86 8.05001 19.87 8.05001C19.87 8.05001 19.87 8.06001 19.87 8.07001C19.82 8.18001 19.85 8.22001 19.86 8.22001C19.86 8.22001 19.86 8.24001 19.86 8.25001C19.86 8.28001 19.86 8.31001 19.9 8.32001C19.88 8.28001 19.9 8.24001 19.9 8.24001C19.9 8.24001 19.9 8.24001 19.91 8.24001C19.91 8.24001 19.94 8.24001 19.96 8.21001C19.98 8.18001 19.99 8.12001 19.97 8.05001C19.97 8.05001 19.97 8.05001 19.97 8.04001C19.99 8.02001 20.01 8.02001 20.02 8.02001C20.04 8.02001 20.05 8.04001 20.05 8.04001C20.05 8.04001 20.05 8.09001 20.09 8.11001C20.11 8.12001 20.13 8.12001 20.15 8.11001C20.16 8.11001 20.17 8.13001 20.17 8.14001C20.17 8.16001 20.17 8.17001 20.16 8.19001C20.18 8.19001 20.2 8.17001 20.22 8.15001C20.24 8.10001 20.24 8.06001 20.22 8.03001C20.21 8.00001 20.18 7.98001 20.15 7.97001C20.15 7.95001 20.15 7.94001 20.15 7.93001C20.16 7.91001 20.2 7.91001 20.21 7.91001C20.21 7.91001 20.27 7.93001 20.3 7.95001C20.3 7.95001 20.3 7.93001 20.29 7.93001C20.28 7.91001 20.26 7.89001 20.23 7.89001C20.14 7.89001 20.1 7.87001 20.1 7.85001C20.1 7.85001 20.1 7.83001 20.1 7.80001V7.76001C20.1 7.76001 20.1 7.76001 20.1 7.75001C20.1 7.75001 20.1 7.75001 20.11 7.75001C20.17 7.79001 20.24 7.81001 20.28 7.82001C20.28 7.81001 20.26 7.79001 20.25 7.77001C20.18 7.67001 20.13 7.58001 20.13 7.54001C20.13 7.54001 20.13 7.52001 20.14 7.52001C20.16 7.52001 20.18 7.54001 20.21 7.56001C20.24 7.59001 20.28 7.62001 20.32 7.61001C20.32 7.61001 20.31 7.61001 20.29 7.60001C20.26 7.59001 20.22 7.57001 20.18 7.50001C20.18 7.50001 20.16 7.45001 20.15 7.43001C20.15 7.43001 20.15 7.42001 20.15 7.41001C20.15 7.41001 20.16 7.41001 20.17 7.41001C20.17 7.41001 20.3 7.55001 20.44 7.55001C20.44 7.53001 20.39 7.49001 20.37 7.47001C20.34 7.45001 20.33 7.43001 20.33 7.42001C20.33 7.42001 20.33 7.42001 20.33 7.41001C20.33 7.41001 20.33 7.41001 20.34 7.41001C20.37 7.43001 20.62 7.64001 20.77 7.58001V7.56001C20.77 7.55001 20.74 7.53001 20.71 7.51001C20.65 7.48001 20.56 7.42001 20.47 7.32001C20.47 7.32001 20.47 7.31001 20.47 7.30001C20.47 7.30001 20.48 7.30001 20.49 7.30001C20.56 7.34001 20.92 7.56001 21.08 7.49001C21.08 7.46001 20.98 7.39001 20.89 7.33001C20.79 7.26001 20.69 7.19001 20.62 7.11001C20.62 7.11001 20.62 7.10001 20.62 7.09001C20.62 7.09001 20.63 7.09001 20.64 7.09001C20.8 7.24001 20.92 7.31001 20.99 7.32001C21.06 7.34001 21.19 7.31001 21.23 7.28001C21.21 7.28001 21.15 7.26001 21.1 7.24001C21 7.23001 20.88 7.20001 20.76 7.14001C20.76 7.14001 20.76 7.13001 20.76 7.12001C20.76 7.11001 20.77 7.12001 20.78 7.12001C20.88 7.16001 21 7.19001 21.1 7.21001C21.1 7.21001 21.1 7.21001 21.11 7.21001C21.27 7.23001 21.4 7.21001 21.43 7.18001C21.42 7.17001 21.38 7.15001 21.26 7.12001C21.18 7.12001 21.09 7.09001 21 7.05001C21 7.05001 21 7.05001 21 7.03001C21 7.03001 21 7.02001 21.02 7.03001C21.09 7.05001 21.15 7.06001 21.2 7.08001C21.23 7.08001 21.25 7.09001 21.27 7.10001C21.64 7.14001 21.91 6.94001 21.92 6.94001C21.91 6.94001 21.89 6.94001 21.87 6.94001C21.74 6.96001 21.59 6.97001 21.42 6.97001C21.42 6.97001 21.41 6.97001 21.41 6.96001C21.41 6.95001 21.41 6.95001 21.42 6.95001C21.66 6.93001 21.79 6.92001 21.87 6.92001C22.33 6.86001 22.62 6.75001 22.79 6.65001C23 6.52001 23.08 6.40001 23.1 6.36001C23.07 6.36001 23.02 6.40001 22.96 6.43001C22.89 6.47001 22.8 6.52001 22.69 6.57001C22.69 6.57001 22.67 6.57001 22.67 6.58001C22.55 6.64001 22.39 6.70001 22.21 6.74001C21.9 6.82001 21.52 6.85001 21.08 6.74001C21.08 6.74001 21.07 6.74001 21.08 6.72001C21.08 6.72001 21.08 6.71001 21.1 6.72001C21.54 6.81001 21.92 6.79001 22.23 6.72001C22.4 6.68001 22.55 6.62001 22.67 6.56001C22.8 6.50001 22.9 6.44001 22.98 6.38001C23.2 6.22001 23.32 6.08001 23.33 6.05001C23.3 6.05001 23.14 6.11001 22.98 6.19001C22.85 6.27001 22.67 6.35001 22.45 6.42001C22.37 6.45001 22.3 6.48001 22.24 6.49001C22.24 6.49001 22.23 6.49001 22.22 6.49001C22.22 6.49001 22.22 6.48001 22.22 6.47001C22.29 6.45001 22.36 6.42001 22.43 6.40001C22.56 6.35001 22.72 6.27001 22.87 6.21001C22.9 6.20001 22.93 6.18001 22.96 6.17001C23.31 5.97001 23.39 5.80001 23.41 5.75001C23.39 5.75001 23.33 5.79001 23.27 5.82001C23.15 5.89001 22.95 6.00001 22.69 6.11001C22.47 6.22001 22.16 6.34001 21.74 6.46001C21.66 6.48001 21.58 6.50001 21.5 6.52001C21.5 6.52001 21.49 6.52001 21.48 6.52001C21.48 6.52001 21.48 6.51001 21.48 6.50001C21.57 6.48001 21.65 6.46001 21.72 6.44001C22.08 6.34001 22.4 6.21001 22.65 6.10001C23.07 5.89001 23.18 5.71001 23.2 5.64001C23.21 5.60001 23.21 5.58001 23.2 5.58001C23.15 5.58001 23.03 5.65001 22.87 5.74001C22.72 5.83001 22.52 5.94001 22.3 6.04001C22.12 6.13001 21.91 6.21001 21.65 6.26001C21.65 6.26001 21.64 6.26001 21.63 6.26001C21.63 6.26001 21.63 6.25001 21.63 6.24001C21.84 6.19001 22.05 6.12001 22.24 6.04001C22.34 5.99001 22.42 5.95001 22.49 5.90001C22.69 5.78001 22.82 5.65001 22.86 5.58001C22.86 5.58001 22.86 5.58001 22.86 5.57001C22.69 5.67001 21.9 5.98001 21.75 6.04001H21.73C21.73 6.04001 21.72 6.04001 21.71 6.04001C21.71 6.04001 21.71 6.03001 21.71 6.02001C21.71 6.02001 21.71 6.02001 21.73 6.02001C21.83 5.97001 21.92 5.86001 21.91 5.82001C21.91 5.82001 21.91 5.81001 21.89 5.82001C21.73 5.93001 21.16 6.05001 20.95 6.08001C20.93 6.08001 20.9 6.09001 20.87 6.11001C20.66 6.18001 20.45 6.24001 20.39 6.24001C19.76 6.20001 19.59 6.29001 19.59 6.29001C19.54 6.19001 19.53 6.11001 19.56 6.05001C19.59 5.98001 19.67 5.97001 19.69 5.97001C19.71 5.97001 19.72 5.97001 19.74 5.97001C19.75 5.97001 19.76 5.97001 19.77 5.97001C19.76 5.97001 19.74 5.97001 19.73 5.96001H19.71C19.71 5.96001 19.67 5.94001 19.65 5.93001C19.65 5.93001 19.65 5.92001 19.65 5.91001C19.65 5.91001 19.65 5.91001 19.67 5.91001C19.69 5.91001 19.71 5.92001 19.73 5.93001C19.73 5.93001 19.75 5.93001 19.76 5.93001C19.81 5.93001 19.85 5.95001 19.87 5.98001C19.87 5.99001 19.88 6.01001 19.87 6.03001C19.9 6.01001 19.93 5.97001 19.93 5.94001C19.93 5.91001 19.89 5.85001 19.67 5.83001C19.6 5.76001 19.42 5.71001 19.26 5.75001C19.13 5.79001 18.96 5.89001 18.89 6.20001C18.89 6.20001 18.91 6.21001 18.93 6.23001C18.93 6.23001 18.93 6.24001 18.93 6.25001C18.93 6.25001 18.92 6.25001 18.91 6.25001C18.76 6.18001 18.38 6.13001 18.18 6.10001C18.15 6.10001 18.13 6.10001 18.11 6.10001C17.86 6.03001 17.6 5.91001 17.41 5.83001C17.29 5.78001 17.17 5.72001 17.15 5.73001C17.15 5.75001 17.28 5.88001 17.33 5.94001C17.41 6.02001 17.41 6.02001 17.41 6.04001C17.41 6.04001 17.41 6.04001 17.41 6.05001C17.41 6.05001 17.41 6.05001 17.4 6.05001C17.12 5.90001 16.86 5.79001 16.61 5.69001C16.51 5.66001 16.42 5.60001 16.36 5.57001C16.32 5.54001 16.28 5.52001 16.26 5.52001C16.26 5.52001 16.26 5.58001 16.3 5.65001C16.38 5.77001 16.49 5.89001 16.6 5.96001C16.63 5.98001 16.78 6.04001 16.91 6.10001C17.07 6.17001 17.12 6.19001 17.15 6.21001C17.15 6.21001 17.15 6.21001 17.15 6.22001V6.23001C16.42 5.93001 16.29 5.86001 16.23 5.83001C16.23 5.83001 16.14 5.76001 16.09 5.72001C16.05 5.68001 16 5.63001 15.98 5.63001C15.98 5.64001 15.98 5.68001 16 5.73001C16.03 5.80001 16.11 5.98001 16.36 6.08001C16.36 6.08001 16.39 6.09001 16.41 6.10001C16.41 6.10001 16.43 6.10001 16.44 6.11001C16.46 6.11001 16.48 6.13001 16.5 6.13001C16.57 6.16001 16.66 6.19001 16.74 6.22001C17.07 6.34001 17.11 6.36001 17.12 6.37001C17.12 6.37001 17.12 6.37001 17.12 6.38001C17.12 6.38001 17.12 6.38001 16.5 6.15001C16.46 6.14001 16.43 6.12001 16.41 6.11001C16.33 6.08001 16.28 6.06001 16.27 6.06001C16.19 6.03001 16.09 5.96001 16.02 5.91001C15.97 5.87001 15.91 5.83001 15.9 5.83001C15.9 5.83001 15.9 5.83001 15.9 5.86001C15.93 5.93001 16.02 6.06001 16.14 6.11001C16.16 6.11001 16.18 6.13001 16.22 6.14001C16.29 6.17001 16.39 6.22001 16.51 6.26001C16.61 6.30001 16.69 6.33001 16.75 6.35001C16.78 6.36001 16.8 6.37001 16.81 6.37001C16.81 6.37001 16.81 6.37001 16.82 6.37001C16.82 6.37001 16.83 6.38001 16.82 6.39001C16.82 6.39001 16.81 6.40001 16.8 6.39001C16.69 6.36001 16.58 6.31001 16.48 6.27001C16.33 6.21001 16.15 6.15001 16.03 6.10001C15.98 6.07001 15.93 6.04001 15.9 6.02001C15.88 6.01001 15.86 5.99001 15.86 5.99001C15.86 5.99001 15.9 6.29001 16.72 6.47001C16.72 6.47001 16.72 6.47001 16.74 6.47001C16.76 6.47001 16.78 6.47001 16.8 6.46001C16.83 6.46001 16.87 6.44001 16.9 6.44001C16.9667 6.42668 17 6.42668 17 6.44001C17 6.44001 17 6.45001 17 6.46001C17 6.46001 16.91 6.48001 16.83 6.50001C16.78 6.51001 16.75 6.52001 16.73 6.52001C16.72 6.52001 16.71 6.52001 16.7 6.52001C16.68 6.52001 16.57 6.53001 16.55 6.54001C16.55 6.54001 16.55 6.54001 16.56 6.56001C16.59 6.59001 16.68 6.65001 17.01 6.63001C17.04 6.63001 17.12 6.61001 17.19 6.58001C17.34 6.54001 17.34 6.54001 17.34 6.55001C17.34 6.55001 17.34 6.56001 17.34 6.57001C17.32 6.59001 16.93 6.70001 16.9 6.70001H16.88C16.81 6.70001 16.76 6.72001 16.74 6.72001C16.76 6.74001 16.86 6.80001 17.05 6.81001C17.2 6.81001 17.46 6.75001 17.57 6.72001C17.61 6.70668 17.6333 6.70668 17.64 6.72001C17.64 6.72001 17.64 6.73001 17.64 6.74001C17.64 6.74001 17.61 6.75001 17.43 6.81001C17.36 6.83001 17.27 6.86001 17.26 6.87001C17.26 6.87001 17.23 6.87001 17.19 6.88001C17.17 6.88001 17.14 6.88001 17.12 6.88001C17.15 6.92001 17.37 7.03001 17.89 6.88001H17.9C17.9 6.88001 17.9 6.89001 17.9 6.90001C17.86 6.95001 17.71 6.99001 17.62 7.02001C17.6 7.02001 17.57 7.03001 17.56 7.04001C17.58 7.06001 17.63 7.09001 17.71 7.11001C17.76 7.11001 17.82 7.11001 17.89 7.11001C17.99 7.09001 18.11 7.06001 18.27 6.92001C18.27 6.92001 18.27 6.92001 18.28 6.92001C18.29 6.95001 18.24 6.99001 18.05 7.09001C18 7.12001 17.94 7.15001 17.92 7.16001C18.01 7.21001 18.27 7.14001 18.29 7.13001H18.3C18.61 6.97001 18.81 6.85001 18.83 6.82001C18.83 6.82001 18.83 6.82001 18.84 6.82001C18.84 6.82001 18.84 6.82001 18.84 6.83001C18.84 6.86001 18.74 6.92001 18.37 7.12001C18.28 7.17001 18.19 7.22001 18.16 7.24001C18.21 7.28001 18.41 7.23001 18.43 7.22001C18.43 7.22001 18.5 7.19001 18.57 7.15001C18.64 7.11001 18.74 7.07001 18.74 7.06001C18.74 7.06001 18.75 7.06001 18.76 7.06001C18.76 7.06001 18.76 7.07001 18.76 7.08001C18.56 7.19001 18.47 7.26001 18.46 7.28001C18.46 7.28001 18.46 7.29001 18.46 7.30001C18.52 7.34001 18.85 7.23001 18.98 7.18001C19.01 7.17001 19.03 7.16001 19.03 7.16001H19.04C19.04 7.16001 19.04 7.17001 19.04 7.18001C19.04 7.18001 19.02 7.19001 18.99 7.20001C18.92 7.24001 18.79 7.31001 18.78 7.34001C18.81 7.38001 18.86 7.41001 18.93 7.42001C19.05 7.44001 19.18 7.42001 19.21 7.40001H19.23C19.24 7.40001 19.23 7.42001 19.23 7.47001C19.25 7.45001 19.28 7.41001 19.29 7.39001C19.29 7.39001 19.29 7.39001 19.31 7.39001C19.31 7.39001 19.31 7.39001 19.31 7.40001C19.31 7.42001 19.3 7.45001 19.29 7.48001C19.28 7.51001 19.26 7.55001 19.26 7.58001C19.26 7.61001 19.25 7.64001 19.24 7.68001C19.24 7.72001 19.23 7.77001 19.21 7.81001C19.21 7.81001 19.24 7.79001 19.25 7.77001C19.28 7.74001 19.35 7.64001 19.34 7.47001C19.34 7.47001 19.34 7.46001 19.35 7.46001H19.36C19.37 7.51001 19.36 7.63001 19.34 7.74001C19.34 7.79001 19.32 7.86001 19.32 7.88001C19.32 7.88001 19.33 7.88001 19.35 7.86001C19.35 7.86001 19.36 7.86001 19.37 7.86001C19.37 7.86001 19.37 7.86001 19.37 7.87001C19.36 7.94001 19.33 8.06001 19.15 8.06001C18.99 8.06001 18.97 8.20001 18.97 8.21001C18.97 8.21001 18.97 8.21001 18.97 8.25001C18.99 8.22001 19 8.21001 19 8.21001C19 8.21001 19 8.21001 19.01 8.21001C19.01 8.21001 19.12 8.23001 19.25 8.14001C19.25 8.14001 19.26 8.14001 19.27 8.14001C19.27 8.14001 19.27 8.15001 19.27 8.16001C19.21 8.22001 19.2 8.26001 19.2 8.28001C19.2 8.30001 19.22 8.31001 19.22 8.31001C19.22 8.31001 19.22 8.31001 19.22 8.32001C19.22 8.32001 19.21 8.36001 19.22 8.39001C19.22 8.39001 19.23 8.41001 19.24 8.41001C19.23 8.38001 19.24 8.35001 19.24 8.35001C19.24 8.35001 19.24 8.35001 19.25 8.35001C19.25 8.35001 19.37 8.34001 19.37 8.20001C19.37 8.20001 19.37 8.19001 19.38 8.19001C19.38 8.19001 19.39 8.19001 19.39 8.20001L19.51 8.09001ZM19.67 8.04001C19.67 8.04001 19.68 8.06001 19.69 8.07001C19.69 8.07001 19.69 8.05001 19.69 8.04001C19.69 8.04001 19.69 8.04001 19.69 8.02001C19.69 8.02001 19.69 8.02001 19.68 8.03001L19.67 8.04001ZM19.75 7.92001C19.75 7.92001 19.67 7.89001 19.64 7.86001C19.62 7.82001 19.64 7.66001 19.64 7.63001C19.64 7.63001 19.64 7.63001 19.64 7.62001H19.65C19.68 7.66001 19.7 7.68001 19.72 7.70001V7.68001C19.72 7.64001 19.72 7.63001 19.7 7.57001C19.71 7.47001 19.72 7.33001 19.72 7.18001V7.15001C19.72 7.15001 19.72 7.14001 19.73 7.14001H19.74C19.89 7.41001 19.97 7.54001 19.93 7.76001C19.93 7.76001 19.95 7.74001 19.97 7.72001C19.97 7.72001 19.97 7.72001 19.98 7.72001C19.98 7.72001 19.98 7.72001 19.98 7.73001V7.87001C19.98 7.87001 19.97 7.89001 19.95 7.90001C19.95 7.90001 19.94 7.90001 19.91 7.90001C19.87 7.90001 19.79 7.90001 19.74 7.93001L19.75 7.92001ZM19.65 7.85001C19.65 7.85001 19.73 7.89001 19.75 7.90001C19.8 7.87001 19.88 7.87001 19.93 7.87001C19.94 7.87001 19.95 7.87001 19.96 7.87001C19.96 7.87001 19.97 7.85001 19.98 7.85001V7.75001C19.98 7.75001 19.94 7.78001 19.91 7.78001C19.91 7.78001 19.91 7.78001 19.91 7.77001C19.95 7.57001 19.91 7.46001 19.75 7.20001C19.75 7.35001 19.75 7.48001 19.73 7.58001C19.75 7.64001 19.75 7.65001 19.75 7.69001C19.75 7.70001 19.75 7.72001 19.75 7.74001C19.75 7.74001 19.75 7.74001 19.75 7.75001C19.75 7.75001 19.75 7.75001 19.74 7.75001C19.72 7.74001 19.69 7.72001 19.66 7.68001C19.66 7.75001 19.66 7.84001 19.66 7.86001L19.65 7.85001Z" fill="black"/>
<path d="M19.7 8.01001C19.7 8.01001 19.69 8.01001 19.69 8.00001C19.69 7.96001 19.71 7.92001 19.75 7.90001C19.75 7.90001 19.76 7.90001 19.77 7.90001C19.77 7.90001 19.77 7.91001 19.77 7.92001C19.73 7.94001 19.72 7.97001 19.72 8.00001C19.72 8.00001 19.72 8.01001 19.71 8.01001H19.7ZM19.46 7.76001C19.46 7.76001 19.46 7.75001 19.46 7.74001C19.51 7.69001 19.56 7.59001 19.57 7.52001C19.57 7.52001 19.57 7.51001 19.58 7.51001H19.59C19.59 7.51001 19.62 7.58001 19.65 7.61001C19.65 7.61001 19.65 7.62001 19.65 7.63001C19.65 7.63001 19.64 7.63001 19.63 7.63001C19.61 7.60001 19.59 7.58001 19.58 7.55001C19.56 7.62001 19.51 7.71001 19.47 7.75001L19.46 7.76001ZM20.17 7.73001C20.14 7.70001 20.08 7.66001 20.05 7.58001C20.05 7.63001 20.02 7.68001 20 7.71001C20 7.71001 19.99 7.71001 19.98 7.71001C19.98 7.71001 19.98 7.70001 19.98 7.69001C20.01 7.64001 20.04 7.56001 20.03 7.51001C20.03 7.51001 20.03 7.50001 20.04 7.50001H20.05C20.08 7.60001 20.15 7.67001 20.18 7.69001C20.18 7.69001 20.18 7.70001 20.18 7.71001C20.18 7.71001 20.18 7.71001 20.17 7.71001V7.73001ZM20.24 7.39001C20.24 7.39001 20.24 7.39001 20.23 7.39001C20.23 7.37001 20.21 7.35001 20.2 7.32001C20.18 7.26001 20.15 7.17001 20.07 7.07001C20.02 7.03001 19.98 6.99001 19.95 6.94001C19.95 6.94001 19.95 6.93001 19.95 6.92001C19.95 6.92001 19.96 6.92001 19.97 6.92001C20.02 6.97001 20.06 7.01001 20.09 7.05001C20.23 7.16001 20.4 7.23001 20.46 7.22001C20.46 7.22001 20.46 7.22001 20.47 7.22001C20.47 7.19001 20.38 7.11001 20.32 7.05001C20.22 6.96001 20.16 6.90001 20.17 6.86001C20.17 6.86001 20.17 6.86001 20.18 6.86001H20.19C20.25 6.98001 20.56 7.23001 20.79 7.22001C20.79 7.20001 20.73 7.16001 20.69 7.13001C20.63 7.09001 20.57 7.04001 20.54 6.99001C20.4 6.91001 20.12 6.68001 20.01 6.56001C20.03 6.66001 20.07 6.85001 20.06 6.87001C20.06 6.87001 20.06 6.88001 20.05 6.88001C20.05 6.88001 20.04 6.88001 20.04 6.87001C20.04 6.84001 19.99 6.55001 19.97 6.51001C19.97 6.51001 19.8 6.29001 19.71 6.23001C19.61 6.17001 19.57 6.07001 19.57 6.07001C19.57 6.07001 19.57 6.06001 19.57 6.05001C19.57 6.05001 19.58 6.05001 19.59 6.05001C19.59 6.05001 19.62 6.14001 19.72 6.20001C19.8 6.25001 19.92 6.39001 19.97 6.46001C20.07 6.49001 20.2 6.48001 20.2 6.48001C20.2 6.48001 20.2 6.48001 20.21 6.48001C20.21 6.48001 20.21 6.48001 20.16 6.45001C20.14 6.45001 20.13 6.45001 20.12 6.44001C20.12 6.44001 20.12 6.44001 20.12 6.42001C20.12 6.42001 20.12 6.41001 20.14 6.42001C20.16 6.42001 20.17 6.42001 20.18 6.43001C20.28 6.45001 20.44 6.44001 20.46 6.43001C20.46 6.43001 20.46 6.42001 20.41 6.39001C20.37 6.39001 20.34 6.37001 20.32 6.35001C20.32 6.35001 20.32 6.34001 20.32 6.33001C20.32 6.33001 20.32 6.33001 20.34 6.33001C20.38 6.34001 20.4 6.35001 20.43 6.36001C20.56 6.39001 20.75 6.38001 20.75 6.38001C20.75 6.38001 20.75 6.36001 20.63 6.29001C20.63 6.29001 20.63 6.29001 20.63 6.27001C20.63 6.27001 20.63 6.27001 20.64 6.27001C20.85 6.32001 20.99 6.28001 21.02 6.24001C21.02 6.24001 21.02 6.23001 21.02 6.22001C21.02 6.21001 20.99 6.20001 20.95 6.19001C20.94 6.19001 20.92 6.19001 20.91 6.19001C20.91 6.19001 20.9 6.19001 20.9 6.18001C20.9 6.18001 20.9 6.17001 20.91 6.17001C20.92 6.17001 20.94 6.17001 20.95 6.17001C21.17 6.17001 21.66 6.01001 21.8 5.95001C21.8 5.95001 21.81 5.95001 21.82 5.95001C21.82 5.95001 21.82 5.96001 21.82 5.97001C21.73 6.01001 21.51 6.08001 21.3 6.13001C21.41 6.15001 21.82 6.22001 21.97 6.18001H21.98C21.98 6.18001 21.98 6.19001 21.98 6.20001C21.87 6.33001 21.71 6.36001 21.57 6.35001C21.58 6.35001 21.6 6.37001 21.61 6.38001C21.61 6.38001 21.61 6.40001 21.61 6.41001C21.59 6.43001 21.5 6.44001 21.4 6.43001C21.47 6.45001 21.48 6.46001 21.49 6.49001C21.49 6.49001 21.49 6.51001 21.48 6.52001C21.42 6.55001 21.11 6.52001 20.92 6.47001C20.97 6.50001 21.02 6.52001 21.06 6.54001C21.09 6.56001 21.12 6.57001 21.15 6.59001C21.19 6.59001 21.35 6.59001 21.41 6.59001C21.41 6.59001 21.42 6.59001 21.42 6.60001C21.42 6.60001 21.42 6.61001 21.41 6.61001C21.36 6.61001 21.22 6.61001 21.16 6.61001C21.05 6.65001 20.88 6.69001 20.6 6.55001C20.9 6.75001 21.16 6.81001 21.33 6.85001C21.42 6.87001 21.48 6.89001 21.51 6.91001C21.51 6.91001 21.51 6.92001 21.51 6.93001C21.44 7.02001 21.24 7.10001 20.63 6.79001C20.84 6.92001 21.05 7.04001 21.09 7.04001H21.1C21.1 7.04001 21.1 7.05001 21.1 7.06001C21.02 7.12001 20.79 7.10001 20.62 7.01001C20.65 7.04001 20.68 7.06001 20.71 7.09001C20.78 7.14001 20.83 7.18001 20.82 7.22001C20.82 7.22001 20.82 7.22001 20.81 7.22001C20.67 7.23001 20.51 7.15001 20.38 7.06001C20.45 7.13001 20.49 7.18001 20.48 7.21001C20.48 7.21001 20.48 7.23001 20.45 7.23001C20.39 7.24001 20.26 7.19001 20.13 7.11001C20.18 7.19001 20.2 7.25001 20.22 7.30001C20.22 7.32001 20.24 7.35001 20.25 7.37001C20.25 7.37001 20.25 7.38001 20.25 7.39001H20.24ZM20.57 6.95001C20.71 7.05001 20.95 7.10001 21.06 7.05001C20.89 6.99001 20.32 6.62001 20.23 6.55001C20.23 6.55001 20.23 6.54001 20.23 6.53001C20.23 6.53001 20.2567 6.54334 20.31 6.57001C20.61 6.75001 21.31 7.15001 21.5 6.93001C21.47 6.91001 21.42 6.90001 21.34 6.88001C21.14 6.83001 20.8 6.75001 20.44 6.45001C20.4 6.45001 20.34 6.45001 20.28 6.45001C20.28 6.45001 20.28 6.45001 20.28 6.46001C20.28 6.48001 20.25 6.49001 20.25 6.49001C20.25 6.49001 20.13 6.51001 20.02 6.48001C20.06 6.56001 20.43 6.86001 20.58 6.95001H20.57ZM20.45 6.44001C20.8 6.66001 21 6.64001 21.12 6.60001C21.1 6.59001 21.07 6.58001 21.05 6.56001C20.99 6.53001 20.91 6.50001 20.82 6.43001C20.8 6.43001 20.79 6.41001 20.79 6.40001C20.79 6.40001 20.79 6.39001 20.79 6.38001C20.79 6.38001 20.8 6.38001 20.81 6.38001C20.82 6.38001 20.83 6.40001 20.84 6.40001C20.91 6.43001 21.08 6.47001 21.26 6.48001C21.4 6.49001 21.46 6.48001 21.48 6.48001C21.48 6.46001 21.46 6.45001 21.28 6.40001C21.28 6.40001 21.26 6.40001 21.25 6.40001C21.18 6.39001 21.12 6.37001 21.09 6.35001C21.09 6.35001 21.09 6.34001 21.09 6.33001C21.09 6.33001 21.09 6.33001 21.11 6.33001C21.18 6.35001 21.24 6.37001 21.29 6.38001C21.43 6.40001 21.6 6.41001 21.63 6.39001C21.59 6.36001 21.57 6.35001 21.52 6.33001C21.42 6.31001 21.35 6.28001 21.35 6.28001C21.35 6.28001 21.35 6.28001 21.35 6.26001C21.35 6.26001 21.35 6.25001 21.37 6.26001C21.4 6.26001 21.43 6.28001 21.45 6.28001C21.49 6.28001 21.51 6.30001 21.54 6.30001C21.68 6.32001 21.87 6.33001 21.99 6.20001C21.79 6.23001 21.34 6.14001 21.32 6.14001C21.24 6.16001 21.16 6.17001 21.1 6.18001C21.1 6.18001 21.11 6.19001 21.12 6.20001C21.12 6.21001 21.12 6.23001 21.12 6.24001C21.08 6.29001 20.96 6.31001 20.79 6.29001C20.85 6.33001 20.86 6.35001 20.86 6.36001C20.86 6.37001 20.85 6.38001 20.84 6.38001C20.83 6.38001 20.69 6.38001 20.57 6.38001C20.58 6.39001 20.58 6.40001 20.58 6.41001C20.58 6.43001 20.56 6.44001 20.55 6.44001C20.55 6.44001 20.54 6.44001 20.53 6.44001H20.45ZM19.34 7.29001C19.34 7.29001 19.34 7.28001 19.34 7.27001C19.34 7.27001 19.43 7.11001 19.14 6.78001C18.95 6.92001 18.85 6.87001 18.84 6.87001C18.84 6.87001 18.84 6.87001 18.84 6.86001C18.84 6.84001 18.91 6.75001 19.02 6.62001C18.99 6.59001 18.97 6.56001 18.96 6.54001C18.62 6.86001 18.36 6.79001 18.32 6.76001C18.3 6.75001 18.31 6.74001 18.32 6.73001C18.41 6.68001 18.5 6.62001 18.59 6.56001C18.25 6.69001 18.15 6.66001 18.05 6.64001C18.03 6.64001 18.01 6.63001 17.99 6.63001C17.99 6.63001 17.99 6.63001 17.98 6.62001V6.61001C18.07 6.57001 18.11 6.55001 18.22 6.48001C18.22 6.48001 18.23 6.48001 18.24 6.47001C18.09 6.53001 17.91 6.56001 17.81 6.53001C17.81 6.53001 17.8 6.53001 17.81 6.52001C17.81 6.52001 17.81 6.51001 17.82 6.51001C17.82 6.51001 17.87 6.48001 17.93 6.44001C17.84 6.46001 17.71 6.46001 17.68 6.44001C17.67 6.44001 17.67 6.42001 17.67 6.42001C17.67 6.42001 17.67 6.41001 17.68 6.41001C17.69 6.41001 17.75 6.36001 17.82 6.29001C17.73 6.31001 17.55 6.31001 17.5 6.27001C17.5 6.27001 17.5 6.27001 17.5 6.26001C17.56 6.25001 17.64 6.18001 17.69 6.14001C17.62 6.16001 17.52 6.18001 17.45 6.14001C17.43 6.13001 17.41 6.11001 17.4 6.08001C17.4 6.08001 17.4 6.08001 17.4 6.07001C17.4 6.06001 17.4 6.07001 17.41 6.07001C17.51 6.07001 17.6 6.03001 17.63 6.01001C17.56 5.98001 17.5 5.95001 17.5 5.95001C17.5 5.95001 17.5 5.94001 17.5 5.93001C17.5 5.93001 17.51 5.93001 17.52 5.93001C17.52 5.93001 17.91 6.12001 18.08 6.11001H18.09V6.12001C18.06 6.14001 18.03 6.16001 18.01 6.17001C18.07 6.19001 18.16 6.22001 18.3 6.19001H18.31C18.31 6.19001 18.31 6.20001 18.31 6.21001C18.28 6.23001 18.25 6.26001 18.23 6.28001C18.28 6.29001 18.39 6.30001 18.52 6.25001C18.52 6.25001 18.53 6.25001 18.54 6.25001C18.54 6.25001 18.54 6.26001 18.54 6.27001C18.51 6.30001 18.49 6.33001 18.47 6.35001H18.56C18.56 6.35001 18.57 6.36001 18.57 6.37001C18.57 6.37001 18.57 6.38001 18.56 6.38001H18.44C18.44 6.38001 18.44 6.38001 18.43 6.37001C18.43 6.37001 18.43 6.37001 18.43 6.36001C18.43 6.36001 18.45 6.33001 18.48 6.30001C18.35 6.34001 18.24 6.32001 18.21 6.31001C18.03 6.42001 17.91 6.50001 17.85 6.53001C17.99 6.54001 18.23 6.48001 18.4 6.38001C18.4 6.38001 18.41 6.38001 18.42 6.38001C18.42 6.38001 18.42 6.39001 18.42 6.40001C18.34 6.45001 18.28 6.49001 18.24 6.51001C18.15 6.57001 18.1 6.60001 18.03 6.63001C18.03 6.63001 18.04 6.63001 18.05 6.63001C18.14 6.66001 18.24 6.69001 18.57 6.55001C18.65 6.51001 18.72 6.47001 18.78 6.42001C18.84 6.37001 18.89 6.32001 18.93 6.26001C18.93 6.26001 18.93 6.25001 18.93 6.24001C18.93 6.23001 18.94 6.21001 18.94 6.21001C18.94 6.21001 18.94 6.20001 18.95 6.20001H18.96C18.96 6.21001 18.96 6.23001 18.95 6.25001C18.92 6.32001 18.86 6.46001 19.02 6.63001C19.02 6.63001 19.02 6.64001 19.02 6.65001C18.89 6.79001 18.85 6.85001 18.84 6.87001C18.87 6.87001 18.96 6.89001 19.11 6.77001C19.11 6.77001 19.12 6.77001 19.13 6.77001C19.2 6.85001 19.25 6.92001 19.28 6.98001C19.28 6.95001 19.29 6.91001 19.31 6.86001C19.31 6.86001 19.31 6.86001 19.32 6.86001C19.35 6.89001 19.38 6.91001 19.4 6.92001C19.41 6.92001 19.43 6.93001 19.44 6.94001C19.44 6.94001 19.46 6.94001 19.48 6.96001C19.56 6.98001 19.7 7.03001 19.72 7.15001C19.72 7.15001 19.72 7.16001 19.71 7.16001C19.71 7.16001 19.7 7.16001 19.7 7.15001C19.69 7.05001 19.55 7.01001 19.48 6.98001C19.45 6.98001 19.44 6.97001 19.43 6.96001C19.43 6.96001 19.41 6.95001 19.4 6.94001C19.38 6.93001 19.35 6.92001 19.33 6.89001C19.29 7.00001 19.31 7.04001 19.31 7.04001C19.39 7.21001 19.34 7.29001 19.33 7.30001C19.33 7.30001 19.33 7.30001 19.32 7.30001L19.34 7.29001ZM18.33 6.74001C18.33 6.74001 18.36 6.75001 18.4 6.76001C18.48 6.76001 18.68 6.76001 18.94 6.52001C18.9 6.44001 18.91 6.37001 18.92 6.31001C18.89 6.34001 18.85 6.39001 18.78 6.44001C18.65 6.55001 18.49 6.65001 18.33 6.75001V6.74001ZM17.7 6.41001C17.76 6.41001 17.94 6.41001 17.99 6.37001C18.04 6.32001 18.17 6.26001 18.19 6.25001C18.19 6.25001 18.22 6.23001 18.25 6.20001C18.11 6.22001 18.01 6.18001 17.97 6.16001C17.97 6.16001 17.92 6.21001 17.89 6.24001C17.82 6.31001 17.75 6.38001 17.7 6.41001ZM17.53 6.25001C17.61 6.27001 17.8 6.26001 17.84 6.25001C17.84 6.25001 17.86 6.24001 17.86 6.23001C17.89 6.20001 17.92 6.17001 17.95 6.14001C17.95 6.14001 17.99 6.14001 18.02 6.11001C17.92 6.11001 17.77 6.05001 17.66 6.00001C17.64 6.01001 17.55 6.07001 17.43 6.07001C17.43 6.07001 17.44 6.09001 17.46 6.09001C17.54 6.13001 17.73 6.07001 17.73 6.07001C17.73 6.07001 17.74 6.07001 17.75 6.07001C17.75 6.07001 17.75 6.08001 17.75 6.09001C17.75 6.09001 17.63 6.21001 17.54 6.25001H17.53ZM19.87 7.09001C19.87 7.09001 19.86 7.09001 19.86 7.08001C19.86 7.08001 19.86 7.01001 19.76 6.93001C19.66 6.85001 19.63 6.74001 19.63 6.74001C19.63 6.74001 19.63 6.73001 19.63 6.72001C19.63 6.72001 19.64 6.72001 19.65 6.72001C19.65 6.72001 19.67 6.82001 19.77 6.90001C19.87 6.98001 19.88 7.07001 19.88 7.07001C19.88 7.07001 19.88 7.08001 19.87 7.08001V7.09001ZM19.52 5.76001C19.52 5.76001 19.47 5.76001 19.44 5.75001C19.41 5.75001 19.39 5.74001 19.36 5.74001H19.35V5.73001C19.46 5.66001 19.52 5.66001 19.56 5.68001C19.58 5.69001 19.6 5.72001 19.6 5.73001C19.58 5.76001 19.56 5.77001 19.52 5.77001V5.76001ZM19.41 5.71001C19.41 5.71001 19.44 5.71001 19.46 5.71001C19.52 5.72001 19.56 5.73001 19.59 5.70001C19.59 5.70001 19.58 5.68001 19.56 5.67001C19.54 5.67001 19.49 5.66001 19.42 5.70001L19.41 5.71001Z" fill="black"/>
</svg>
