<svg width="24" height="24" viewBox="0 0 24 24" fill="none" xmlns="http://www.w3.org/2000/svg">
<g clip-path="url(#clip0_170_1450)">
<path d="M1.33514e-05 4.00001H24V20H1.33514e-05V4.00001Z" fill="#006400"/>
<path d="M0.190013 6.28001H24V17.71H0.190013V6.28001Z" fill="#FFD200"/>
<path d="M0.190013 8.57001H24V15.43H0.190013V8.57001Z" fill="#D40000"/>
<path d="M0.190013 10.85H24V13.14H0.190013V10.85Z" fill="black"/>
<mask id="mask0_170_1450" style="mask-type:luminance" maskUnits="userSpaceOnUse" x="0" y="4" width="12" height="16">
<path d="M12 4.00001H1.33514e-05V20H12V4.00001Z" fill="white"/>
</mask>
<g mask="url(#mask0_170_1450)">
<path d="M8.00001 12L1.33514e-05 20V4.00001L8.00001 12Z" fill="black" stroke="black" stroke-width="0.66" stroke-miterlimit="38.1"/>
</g>
<path d="M8.00001 12L1.33514e-05 20V4.00001L8.00001 12Z" fill="white"/>
<path d="M3.05001 9.02001L4.62001 13.84L0.510014 10.86H5.58001L1.48001 13.84L3.05001 9.02001Z" fill="#D40000"/>
<path d="M2.18001 10.36C2.18001 10.36 2.17001 10.27 2.18001 10.23C2.20001 10.19 2.24001 10.16 2.29001 10.15C2.34001 10.15 2.39001 10.14 2.44001 10.14C2.49001 10.07 2.56001 10.02 2.65001 10.01C2.74001 10.01 2.82001 10.04 2.88001 10.1C2.95001 10.18 2.99001 10.27 3.00001 10.38L3.04001 10.82L4.38001 11.87C4.38001 11.87 4.42001 11.95 4.39001 11.99C4.37001 12.02 4.34001 12.03 4.31001 12.02L4.25001 12C4.03001 12.13 3.87001 12.37 3.84001 12.62L3.76001 13.26H2.34001L2.15001 12.53C2.08001 12.45 2.07001 12.33 2.13001 12.24C2.20001 12.12 2.28001 12.01 2.38001 11.91C2.44001 11.85 2.47001 11.76 2.46001 11.67C2.45001 11.58 2.44001 11.49 2.44001 11.41C2.44001 11.34 2.46001 11.26 2.49001 11.2L2.47001 10.54C2.47001 10.46 2.42001 10.39 2.36001 10.35H2.19001L2.18001 10.36Z" fill="#FFD200"/>
<path d="M3.76001 13.28H2.34001C2.34001 13.28 2.32001 13.28 2.32001 13.27L2.13001 12.54C2.06001 12.45 2.05001 12.33 2.11001 12.23C2.18001 12.11 2.27001 12 2.36001 11.9C2.42001 11.84 2.45001 11.76 2.43001 11.67C2.42001 11.58 2.41001 11.49 2.41001 11.4C2.41001 11.33 2.43001 11.25 2.46001 11.18L2.44001 10.52C2.44001 10.45 2.40001 10.39 2.34001 10.35H2.18001C2.18001 10.35 2.17001 10.35 2.16001 10.35C2.14001 10.3 2.14001 10.25 2.16001 10.2C2.18001 10.15 2.23001 10.12 2.28001 10.11C2.32001 10.11 2.37001 10.1 2.42001 10.1C2.47001 10.03 2.55001 9.98001 2.64001 9.97001C2.73001 9.97001 2.82001 10 2.88001 10.07C2.95001 10.15 2.99001 10.25 3.00001 10.36L3.03001 10.79L4.37001 11.84C4.37001 11.84 4.40001 11.88 4.41001 11.91C4.41001 11.94 4.41001 11.96 4.39001 11.98C4.37001 12.01 4.32001 12.02 4.29001 12.01H4.24001C4.03001 12.13 3.88001 12.36 3.85001 12.6L3.77001 13.24C3.77001 13.24 3.77001 13.26 3.75001 13.26L3.76001 13.28ZM2.35001 13.25H3.74001L3.82001 12.63C3.85001 12.38 4.01001 12.14 4.24001 12C4.24001 12 4.24001 12 4.25001 12L4.31001 12.02C4.31001 12.02 4.36001 12.02 4.38001 12C4.40001 11.97 4.40001 11.93 4.38001 11.91L3.04001 10.86C3.04001 10.86 3.04001 10.86 3.04001 10.85L3.00001 10.41C3.00001 10.31 2.95001 10.22 2.89001 10.14C2.84001 10.08 2.76001 10.05 2.68001 10.05C2.60001 10.05 2.53001 10.1 2.48001 10.17C2.48001 10.17 2.48001 10.17 2.46001 10.17C2.41001 10.17 2.36001 10.17 2.32001 10.18C2.28001 10.18 2.24001 10.21 2.23001 10.25C2.21001 10.28 2.21001 10.32 2.22001 10.35H2.37001C2.44001 10.39 2.49001 10.47 2.49001 10.55L2.51001 11.21C2.48001 11.27 2.46001 11.34 2.47001 11.41C2.47001 11.5 2.47001 11.59 2.49001 11.67C2.50001 11.76 2.47001 11.86 2.41001 11.93C2.32001 12.03 2.23001 12.14 2.16001 12.25C2.11001 12.33 2.12001 12.44 2.18001 12.52L2.37001 13.24L2.35001 13.25Z" fill="black"/>
<path d="M2.56001 13.28C2.56001 13.28 2.54001 13.28 2.54001 13.26V12.99L2.42001 12.64H2.17001C2.17001 12.64 2.15001 12.64 2.15001 12.62C2.15001 12.6 2.15001 12.6 2.17001 12.6H2.28001C2.28001 12.6 2.21001 12.52 2.19001 12.48L2.17001 12.54C2.17001 12.54 2.16001 12.55 2.15001 12.54C2.15001 12.54 2.14001 12.53 2.15001 12.52L2.19001 12.42C2.19001 12.42 2.20001 12.41 2.21001 12.41C2.21001 12.41 2.22001 12.41 2.23001 12.42C2.24001 12.47 2.27001 12.51 2.30001 12.55C2.28001 12.37 2.36001 12.09 2.62001 11.97C2.76001 11.9 2.78001 11.75 2.78001 11.68C2.78001 11.64 2.78001 11.58 2.85001 11.55C2.85001 11.55 2.87001 11.55 2.87001 11.56C2.87001 11.56 2.87001 11.58 2.86001 11.58C2.81001 11.6 2.81001 11.63 2.81001 11.68C2.81001 11.75 2.79001 11.92 2.63001 12C2.39001 12.11 2.32001 12.37 2.33001 12.54C2.35001 12.5 2.37001 12.45 2.38001 12.41C2.38001 12.41 2.38001 12.4 2.40001 12.4C2.40001 12.4 2.41001 12.4 2.42001 12.4C2.43001 12.43 2.45001 12.46 2.46001 12.5C2.48001 12.4 2.55001 12.31 2.65001 12.27L2.88001 12.17L3.05001 12.09C3.05001 12.09 3.19001 12.02 3.25001 11.93C3.28001 11.89 3.31001 11.83 3.32001 11.76L3.05001 11.68C2.97001 11.66 2.90001 11.6 2.86001 11.53C2.82001 11.46 2.82001 11.38 2.85001 11.3C2.85001 11.3 2.86001 11.29 2.87001 11.29C2.87001 11.29 2.88001 11.3 2.88001 11.31C2.85001 11.4 2.87001 11.47 2.89001 11.51C2.92001 11.58 2.98001 11.62 3.06001 11.64L3.34001 11.72L3.67001 11.81L4.25001 11.97C4.25001 11.97 4.27001 11.98 4.26001 11.99C4.26001 11.99 4.25001 12.01 4.24001 12L3.68001 11.84C3.60001 12 3.41001 11.98 3.26001 11.94C3.21001 12.01 3.14001 12.06 3.05001 12.1L2.95001 12.14H4.04001C4.04001 12.14 4.06001 12.14 4.06001 12.16C4.06001 12.18 4.06001 12.18 4.04001 12.18H2.87001L2.64001 12.28C2.53001 12.33 2.46001 12.44 2.47001 12.58H3.85001C3.85001 12.58 3.87001 12.58 3.87001 12.6C3.87001 12.62 3.87001 12.62 3.85001 12.62H3.61001L3.72001 12.73L3.83001 12.62C3.83001 12.62 3.85001 12.62 3.86001 12.62C3.87001 12.62 3.86001 12.64 3.86001 12.65L3.74001 12.77C3.74001 12.77 3.72001 12.77 3.71001 12.77L3.60001 12.66L3.49001 12.77C3.49001 12.77 3.47001 12.77 3.46001 12.77L3.35001 12.66L3.24001 12.77C3.24001 12.77 3.22001 12.77 3.21001 12.77L3.10001 12.66L2.99001 12.77C2.99001 12.77 2.97001 12.77 2.96001 12.77L2.85001 12.66L2.74001 12.77C2.74001 12.77 2.72001 12.77 2.71001 12.77L2.60001 12.66L2.49001 12.77L2.52001 12.86L2.59001 12.79C2.59001 12.79 2.61001 12.79 2.62001 12.79L2.73001 12.9L2.84001 12.79C2.84001 12.79 2.86001 12.79 2.87001 12.79L2.98001 12.9L3.09001 12.79C3.09001 12.79 3.11001 12.79 3.12001 12.79L3.23001 12.9L3.34001 12.79C3.34001 12.79 3.36001 12.79 3.37001 12.79L3.48001 12.9L3.59001 12.79C3.59001 12.79 3.61001 12.79 3.62001 12.79L3.73001 12.9L3.81001 12.82C3.81001 12.82 3.83001 12.82 3.84001 12.82C3.84001 12.82 3.84001 12.84 3.84001 12.85L3.75001 12.94H3.82001C3.82001 12.94 3.84001 12.94 3.84001 12.96C3.84001 12.98 3.84001 12.98 3.82001 12.98H2.60001V13.24C2.60001 13.24 2.60001 13.26 2.58001 13.26L2.56001 13.28ZM3.48001 12.97H3.70001L3.59001 12.86L3.48001 12.97ZM3.24001 12.97H3.46001L3.35001 12.86L3.24001 12.97ZM3.00001 12.97H3.22001L3.11001 12.86L3.00001 12.97ZM2.75001 12.97H2.97001L2.86001 12.86L2.75001 12.97ZM2.57001 12.97H2.73001L2.62001 12.86L2.55001 12.93L2.57001 12.98V12.97ZM2.46001 12.64L2.50001 12.75L2.61001 12.64H2.46001ZM3.12001 12.64L3.23001 12.75L3.34001 12.64H3.12001ZM2.63001 12.64L2.74001 12.75L2.85001 12.64H2.63001ZM3.36001 12.64L3.47001 12.75L3.58001 12.64H3.36001ZM2.87001 12.64L2.98001 12.75L3.09001 12.64H2.87001ZM2.32001 12.61H2.42001C2.41001 12.57 2.40001 12.52 2.38001 12.47C2.36001 12.52 2.34001 12.56 2.32001 12.61ZM3.28001 11.93C3.47001 11.98 3.58001 11.96 3.64001 11.86L3.34001 11.78C3.33001 11.84 3.31001 11.89 3.27001 11.94L3.28001 11.93ZM2.48001 11.22C2.48001 11.22 2.47001 11.22 2.46001 11.22C2.46001 11.22 2.46001 11.2 2.46001 11.19L3.01001 10.82C3.01001 10.82 3.03001 10.82 3.04001 10.82C3.04001 10.82 3.04001 10.84 3.04001 10.85L2.49001 11.22C2.49001 11.22 2.49001 11.22 2.48001 11.22ZM2.35001 10.37C2.35001 10.37 2.33001 10.37 2.33001 10.35C2.33001 10.35 2.33001 10.33 2.35001 10.33H2.51001H2.53001C2.53001 10.33 2.53001 10.35 2.51001 10.35H2.35001V10.37Z" fill="black"/>
<path d="M2.67001 10.33C2.67001 10.33 2.58001 10.29 2.58001 10.24C2.58001 10.19 2.62001 10.15 2.67001 10.15C2.72001 10.15 2.76001 10.19 2.76001 10.24C2.76001 10.29 2.72001 10.33 2.67001 10.33ZM2.67001 10.19C2.67001 10.19 2.62001 10.21 2.62001 10.24C2.62001 10.27 2.64001 10.29 2.67001 10.29C2.70001 10.29 2.72001 10.27 2.72001 10.24C2.72001 10.21 2.70001 10.19 2.67001 10.19Z" fill="black"/>
<path d="M2.99001 12.56C2.90001 12.56 2.83001 12.49 2.83001 12.4C2.83001 12.31 2.90001 12.24 2.99001 12.24C3.08001 12.24 3.15001 12.31 3.15001 12.4C3.15001 12.49 3.08001 12.56 2.99001 12.56ZM2.99001 12.29C2.92001 12.29 2.87001 12.34 2.87001 12.41C2.87001 12.48 2.92001 12.53 2.99001 12.53C3.06001 12.53 3.11001 12.48 3.11001 12.41C3.11001 12.34 3.06001 12.29 2.99001 12.29Z" fill="black"/>
<path d="M3.54001 12.56C3.45001 12.56 3.38001 12.49 3.38001 12.4C3.38001 12.31 3.45001 12.24 3.54001 12.24C3.63001 12.24 3.70001 12.31 3.70001 12.4C3.70001 12.49 3.63001 12.56 3.54001 12.56ZM3.54001 12.29C3.47001 12.29 3.42001 12.34 3.42001 12.41C3.42001 12.48 3.47001 12.53 3.54001 12.53C3.61001 12.53 3.66001 12.48 3.66001 12.41C3.66001 12.34 3.61001 12.29 3.54001 12.29Z" fill="black"/>
</g>
<defs>
<clipPath id="clip0_170_1450">
<rect width="24" height="24" fill="white"/>
</clipPath>
</defs>
</svg>
