<svg width="24" height="24" viewBox="0 0 24 24" fill="none" xmlns="http://www.w3.org/2000/svg">
<g clip-path="url(#clip0_170_16085)">
<mask id="mask0_170_16085" style="mask-type:luminance" maskUnits="userSpaceOnUse" x="0" y="0" width="24" height="24">
<path d="M12 24C18.6274 24 24 18.6274 24 12C24 5.37259 18.6274 2.86102e-06 12 2.86102e-06C5.37258 2.86102e-06 0 5.37259 0 12C0 18.6274 5.37258 24 12 24Z" fill="white"/>
</mask>
<g mask="url(#mask0_170_16085)">
<path d="M-6.09 -0.0599976H30.1V24.07H-6.09V-0.0599976Z" fill="white"/>
<path d="M-6.09 -0.0599976H12V24.07H-6.09V-0.0599976Z" fill="#006633"/>
<path d="M16.51 9.54C15.15 7.18 12.14 6.38 9.78001 7.74C7.42001 9.1 6.62001 12.11 7.98001 14.47C9.34001 16.83 12.35 17.63 14.71 16.27C15.46 15.84 16.08 15.22 16.51 14.47C15.15 16.17 12.67 16.44 10.97 15.08C9.27001 13.72 9.00001 11.24 10.36 9.54C11.72 7.84 14.2 7.57 15.9 8.93C16.13 9.11 16.33 9.32 16.51 9.54ZM16.7 12L12.24 10.55L14.99 14.34V9.66L12.24 13.45L16.7 12Z" fill="#D21034"/>
</g>
</g>
<defs>
<clipPath id="clip0_170_16085">
<rect width="24" height="24" fill="white"/>
</clipPath>
</defs>
</svg>
