<svg width="24" height="24" viewBox="0 0 24 24" fill="none" xmlns="http://www.w3.org/2000/svg">
<g clip-path="url(#clip0_161_12561)">
<mask id="mask0_161_12561" style="mask-type:luminance" maskUnits="userSpaceOnUse" x="0" y="0" width="24" height="24">
<path d="M12 24C18.6274 24 24 18.6274 24 12C24 5.37258 18.6274 0 12 0C5.37258 0 0 5.37258 0 12C0 18.6274 5.37258 24 12 24Z" fill="white"/>
</mask>
<g mask="url(#mask0_161_12561)">
<path d="M0 0H24V24H0V0Z" fill="black"/>
<path d="M0 0H24V12H0V0Z" fill="#CC092F"/>
<path fill-rule="evenodd" clip-rule="evenodd" d="M10.42 9.49H11.4L11.7 8.57L12 9.49H12.98L12.2 10.07L12.5 11.01L11.7 10.44L10.91 11.01L11.21 10.07L10.43 9.49H10.42Z" fill="#FFCB00"/>
<path fill-rule="evenodd" clip-rule="evenodd" d="M13.99 14.53L13.22 13.93C14 13.3 14.5 12.33 14.5 11.25C14.5 9.6 13.32 8.21 11.77 7.89L11.89 7.33C12.11 7.38 12.36 7.47 12.57 7.54L12.77 7.2C12.99 7.3 13.23 7.41 13.43 7.54L13.28 7.9C13.48 8.03 13.72 8.23 13.86 8.38L14.16 8.15C14.32 8.33 14.51 8.51 14.65 8.7L14.38 8.98C14.56 9.24 14.62 9.36 14.75 9.65L15.13 9.56C15.2 9.78 15.31 10.06 15.35 10.29L14.99 10.43C15.03 10.61 15.09 10.93 15.09 11.19C15.09 11.21 15.09 11.22 15.09 11.24L15.47 11.29C15.45 11.52 15.45 11.79 15.4 12.02H15.01C14.95 12.26 14.88 12.55 14.79 12.78L15.12 12.97C15.02 13.18 14.91 13.43 14.78 13.63L14.42 13.48C14.28 13.68 14.13 13.87 13.96 14.05L14.19 14.35C14.13 14.41 14.07 14.46 14.01 14.53M12.31 14.45L12.89 14.8C12.84 14.85 12.67 14.93 12.63 14.95L12.72 15.31C12.5 15.38 12.26 15.49 12.01 15.53L11.87 15.17C11.64 15.22 11.41 15.25 11.17 15.25L11.12 15.63C10.9 15.61 10.62 15.63 10.38 15.57V15.19C10.16 15.15 9.94001 15.09 9.73001 15.02L9.55001 15.35C9.36001 15.27 9.10001 15.17 8.89001 15.05L9.03001 14.69C8.86001 14.6 8.71001 14.49 8.57001 14.38L8.93001 13.92C9.52001 14.39 10.27 14.67 11.08 14.67C11.51 14.67 11.94 14.6 12.32 14.44" fill="#FFCB00"/>
<path fill-rule="evenodd" clip-rule="evenodd" d="M14.73 15.38L10.9 12.46L10.87 12.51L14.69 15.43L14.46 15.71L10.73 13.32C9.71999 12.69 9.75999 12.19 9.96999 11.65L10.15 11.22C10.25 11.78 10.82 12.21 11.42 12.68L14.8 15.28L14.73 15.37V15.38ZM15.69 16.25C15.69 16.25 15.63 16.22 15.63 16.19C15.63 16.19 15.66 16.13 15.69 16.13C15.69 16.13 15.75 16.16 15.75 16.19C15.75 16.22 15.72 16.25 15.69 16.25ZM15.46 16.08C15.46 16.08 15.4 16.05 15.4 16.02C15.4 15.99 15.43 15.96 15.46 15.96C15.49 15.96 15.52 15.99 15.52 16.02C15.52 16.05 15.49 16.08 15.46 16.08ZM15.22 15.9C15.22 15.9 15.16 15.87 15.16 15.84C15.16 15.81 15.19 15.78 15.22 15.78C15.25 15.78 15.28 15.81 15.28 15.84C15.28 15.87 15.25 15.9 15.22 15.9ZM16.01 16.23L14.86 15.34L14.53 15.77L15.53 16.47C15.61 16.53 15.62 16.78 15.91 16.82C16.03 16.84 16.11 16.75 16.11 16.75C16.24 16.59 16.2 16.38 16.01 16.23Z" fill="#FFCB00"/>
</g>
</g>
<defs>
<clipPath id="clip0_161_12561">
<rect width="24" height="24" fill="white"/>
</clipPath>
</defs>
</svg>
