<svg width="24" height="24" viewBox="0 0 24 24" fill="none" xmlns="http://www.w3.org/2000/svg">
<g clip-path="url(#clip0_161_13137)">
<mask id="mask0_161_13137" style="mask-type:luminance" maskUnits="userSpaceOnUse" x="0" y="0" width="24" height="24">
<path d="M12 24C18.6274 24 24 18.6274 24 12C24 5.37257 18.6274 -1.52588e-05 12 -1.52588e-05C5.37258 -1.52588e-05 0 5.37257 0 12C0 18.6274 5.37258 24 12 24Z" fill="white"/>
</mask>
<g mask="url(#mask0_161_13137)">
<path d="M-6.21002 -0.140015H30.21V24.14H-6.21002V-0.140015Z" fill="white"/>
<path d="M-6.21002 -0.140015H30.21L27.83 12H-3.83002L-6.21002 -0.140015Z" fill="black"/>
<path d="M12 12L4.07996 9.35999L8.11996 8.58999L4.68996 6.32999L8.70996 7.15999L6.39996 3.75999L9.79996 6.06999L8.96996 2.04999L11.23 5.47999L12 1.43999L12.77 5.47999L15.03 2.04999L14.2 6.06999L17.6 3.75999L15.29 7.15999L19.31 6.32999L15.88 8.58999L19.92 9.35999L12 12Z" fill="#FCD116"/>
<path d="M-3.83002 9.35999H27.84V14.64H-3.83002V9.35999Z" fill="#0072C6"/>
<path d="M-6.21002 -0.140015L12 24.14L30.21 -0.140015V24.14H-6.21002V-0.140015Z" fill="#CE1126"/>
</g>
</g>
<defs>
<clipPath id="clip0_161_13137">
<rect width="24" height="24" fill="white"/>
</clipPath>
</defs>
</svg>
