<svg width="24" height="24" viewBox="0 0 24 24" fill="none" xmlns="http://www.w3.org/2000/svg">
<g clip-path="url(#clip0_104_14135)">
<mask id="mask0_104_14135" style="mask-type:luminance" maskUnits="userSpaceOnUse" x="0" y="0" width="24" height="24">
<path d="M12 24C18.6274 24 24 18.6274 24 12C24 5.37258 18.6274 0 12 0C5.37258 0 0 5.37258 0 12C0 18.6274 5.37258 24 12 24Z" fill="white"/>
</mask>
<g mask="url(#mask0_104_14135)">
<path d="M29.9 0.0499878H-5.92999V23.95H29.9V0.0499878Z" fill="#75D4F9"/>
<path d="M29.92 7.90997H-5.92999V15.95H29.92V7.90997Z" fill="white"/>
<path d="M13.2901 12.28C13.2901 12.28 13.2801 12.33 13.2701 12.36L15.2601 13.28L13.2201 12.55H13.2001C13.2001 12.55 13.1801 12.59 13.1701 12.6L14.9201 13.86L13.0601 12.76C13.0601 12.76 13.0301 12.8 13.0201 12.82L14.4801 14.41L12.8801 12.96C12.8801 12.96 12.8601 12.98 12.8501 13L13.9901 14.83L12.6901 13.11C12.6901 13.11 12.6501 13.14 12.6201 13.15L13.3601 15.18L12.4401 13.23C12.4401 13.23 12.4001 13.24 12.3801 13.25L12.7301 15.41L12.1901 13.31V13.29C12.1901 13.29 12.1301 13.3 12.1101 13.3L12.0101 15.49L11.9101 13.33V13.31C11.9101 13.31 11.8801 13.31 11.8701 13.31L11.3701 15.44L11.6701 13.3C11.6701 13.3 11.6201 13.27 11.5901 13.27L10.6701 15.25L11.4101 13.21L11.3601 13.17L10.0801 14.94L11.1801 13.08C11.1801 13.08 11.1401 13.04 11.1201 13.03L9.52005 14.5L10.9801 12.9C10.9801 12.9 10.9601 12.87 10.9501 12.86L9.10005 14.01L10.8301 12.71C10.8301 12.71 10.8001 12.67 10.7901 12.64L8.75005 13.38L10.7101 12.46C10.7101 12.46 10.7001 12.44 10.7001 12.43L8.56005 12.78L10.6501 12.25C10.6501 12.25 10.6501 12.19 10.6501 12.17L8.49005 12.07L10.6401 11.97C10.6401 11.97 10.6401 11.93 10.6401 11.91L8.54005 11.43L10.6701 11.72C10.6701 11.72 10.6801 11.67 10.7001 11.64L8.74005 10.73L10.7601 11.46C10.7601 11.46 10.7701 11.43 10.7801 11.42L9.01005 10.15L10.8701 11.25C10.8701 11.25 10.9001 11.21 10.9201 11.18L9.45005 9.58L11.0501 11.04C11.0501 11.04 11.0801 11.01 11.0901 11L9.94005 9.16L11.2401 10.88C11.2401 10.88 11.2901 10.85 11.3101 10.84L10.5701 8.8L11.4901 10.75C11.4901 10.75 11.5401 10.74 11.5601 10.73L11.2101 8.61L11.7401 10.69C11.7401 10.69 11.8001 10.69 11.8201 10.69L11.9201 8.53L12.0201 10.68C12.0201 10.68 12.0601 10.68 12.0801 10.68L12.5601 8.58L12.2601 10.71C12.2601 10.71 12.3201 10.72 12.3401 10.73L13.2501 8.77L12.5201 10.79C12.5201 10.79 12.5501 10.81 12.5601 10.82L13.8301 9.04L12.7301 10.9C12.7301 10.9 12.7701 10.94 12.8001 10.96L14.4101 9.48L12.9501 11.08H12.9401C12.9401 11.08 12.9701 11.12 12.9701 11.13L14.8301 9.98L13.1001 11.28H13.0801C13.0801 11.28 13.1101 11.34 13.1201 11.36L15.1801 10.61L13.2201 11.53H13.2001C13.2001 11.53 13.2101 11.57 13.2201 11.59L15.3701 11.24L13.2701 11.78C13.2701 11.78 13.2701 11.83 13.2701 11.86L15.4501 11.96L13.2901 12.06H13.2701C13.2701 12.06 13.2701 12.09 13.2701 12.11L15.4001 12.6L13.2501 12.3H13.2401L13.2901 12.28Z" fill="#EFE94D"/>
<path d="M13.29 12.28L13.27 12.35L15.26 13.27L13.22 12.54H13.2L13.17 12.6L14.92 13.86L13.06 12.77L13.02 12.83L14.48 14.42L12.88 12.97L12.85 13L13.99 14.83L12.69 13.12L12.62 13.16L13.37 15.18H13.36L12.44 13.24H12.45L12.39 13.26L12.74 15.42H12.72L12.18 13.3H12.19L12.11 13.32L12.01 15.5H11.99L11.9 13.32H11.91H11.86H11.87L11.37 15.44H11.35L11.65 13.29V13.28H11.57L10.65 15.25H10.64L11.38 13.21V13.2L11.33 13.18L10.06 14.95H10.05L11.15 13.08L11.09 13.04L9.49002 14.51L10.95 12.91L10.92 12.88L9.07002 14.03L10.8 12.72L10.76 12.66L8.72002 13.4L10.68 12.47L10.67 12.44L8.53002 12.8L10.62 12.26V12.18L8.46002 12.09L10.61 11.98V11.93L8.51002 11.45L10.63 11.73C10.63 11.73 10.64 11.68 10.66 11.65L8.70002 10.75L10.72 11.46H10.71L10.73 11.42L8.96002 10.16L10.82 11.25H10.81L10.86 11.19L9.39002 9.59999H9.40002L11 11.04H10.99L11.03 11L9.88002 9.16999H9.90002L11.2 10.88H11.19L11.27 10.83L10.52 8.80999H10.54L11.46 10.75H11.45L11.52 10.72L11.17 8.60999H11.19L11.72 10.69H11.71L11.79 10.67H11.78L11.88 8.51999H11.9L12 10.67H11.99H12.05H12.04L12.52 8.57999H12.54L12.24 10.71L12.32 10.72H12.31L13.22 8.76999H13.24L12.51 10.8L12.56 10.81H12.55L13.82 9.03999H13.84L12.74 10.92L12.8 10.97H12.79L14.4 9.49999H14.41L12.93 11.13L12.97 11.15H12.96L14.82 9.98999L13.07 11.32L13.11 11.38L15.17 10.63L13.19 11.57L13.21 11.61L15.36 11.25L13.26 11.8V11.88L15.44 11.97L13.26 12.07C13.26 12.07 13.26 12.1 13.26 12.12L15.39 12.61L13.24 12.31H13.23L13.29 12.28ZM13.29 12.28H13.3L15.45 12.58L13.32 12.09V12.04L15.5 11.94L13.32 11.85V11.77L15.42 11.23L13.27 11.59L13.25 11.54L15.23 10.61L13.17 11.38H13.16L13.12 11.31L14.86 9.99999L13 11.17L12.97 11.14V11.13L14.45 9.51999H14.46L12.85 11.01L12.78 10.96V10.94L13.88 9.07999H13.9L12.63 10.87L12.59 10.84V10.83L13.32 8.80999H13.34L12.43 10.78H12.42L12.34 10.76H12.33V10.75L12.63 8.61999H12.65L12.17 10.73H12.16H12.11L12.01 8.56999H12.03L11.93 10.73L11.92 10.74H11.84L11.31 8.64999H11.33L11.68 10.77V10.78L11.61 10.8L10.69 8.84999H10.71L11.46 10.88V10.89L11.39 10.93L10.09 9.20999H10.11L11.26 11.04V11.05L11.22 11.09L9.63002 9.62999H9.64002L11.11 11.22V11.23L11.06 11.29L9.20002 10.19L10.97 11.45V11.46L10.95 11.5L8.93002 10.77L10.89 11.67L10.86 11.75L8.74002 11.46L10.84 11.93V11.99L8.69002 12.09L10.85 12.18V12.26L8.76002 12.79L10.9 12.43L10.91 12.46L8.95002 13.38L10.99 12.63L11.03 12.7L9.30002 14.01L11.15 12.85L11.18 12.89L9.72002 14.49L11.32 13.01L11.38 13.05L10.28 14.91H10.27L11.54 13.13L11.59 13.16L10.85 15.2H10.84L11.76 13.22L11.84 13.24V13.25V13.26L11.54 15.4H11.52L12.02 13.27H12.03H12.08L12.18 15.46H12.16L12.26 13.27H12.33V13.26L12.87 15.39H12.85L12.5 13.23V13.22L12.56 13.2L13.48 15.15H13.47L12.73 13.13L12.8 13.09L14.1 14.81L12.96 12.98L12.99 12.95L14.59 14.4L13.13 12.81L13.17 12.75L15.02 13.85L13.27 12.59L13.3 12.53H13.32L15.36 13.27L13.37 12.35L13.39 12.27L13.29 12.28Z" fill="#513B2F"/>
<path d="M12.21 11.6C12.39 11.41 12.74 11.41 12.91 11.61C12.8 11.54 12.69 11.49 12.57 11.48C12.44 11.47 12.33 11.54 12.22 11.6H12.21Z" fill="#84533A"/>
<path d="M12.31 11.64C12.43 11.49 12.66 11.5 12.79 11.63V11.64C12.66 11.76 12.44 11.77 12.31 11.64ZM12.32 11.64C12.46 11.73 12.65 11.71 12.79 11.62C12.67 11.5 12.46 11.53 12.32 11.64Z" fill="#84533A"/>
<path d="M12.64 11.62C12.64 11.67 12.6 11.71 12.54 11.71C12.48 11.71 12.45 11.67 12.45 11.62C12.45 11.57 12.49 11.52 12.54 11.52C12.59 11.52 12.64 11.56 12.64 11.62Z" fill="#84533A"/>
<path d="M12.26 11.69C12.33 11.77 12.44 11.77 12.54 11.77C12.63 11.77 12.75 11.78 12.82 11.7C12.76 11.79 12.64 11.79 12.54 11.8C12.44 11.8 12.33 11.77 12.26 11.69Z" fill="#84533A"/>
<path d="M11.85 11.6C11.74 11.54 11.63 11.47 11.5 11.48C11.38 11.49 11.26 11.55 11.16 11.62C11.33 11.42 11.68 11.42 11.86 11.6H11.85Z" fill="#84533A"/>
<path d="M11.75 11.64C11.62 11.53 11.41 11.5 11.29 11.64C11.42 11.72 11.62 11.74 11.75 11.64ZM11.76 11.64C11.63 11.76 11.41 11.76 11.28 11.64V11.63C11.41 11.5 11.64 11.5 11.76 11.64Z" fill="#84533A"/>
<path d="M11.43 11.62C11.43 11.67 11.47 11.71 11.53 11.71C11.59 11.71 11.62 11.67 11.62 11.62C11.62 11.57 11.58 11.52 11.53 11.52C11.48 11.52 11.43 11.56 11.43 11.62Z" fill="#84533A"/>
<path d="M11.81 11.69C11.75 11.77 11.63 11.79 11.53 11.8C11.43 11.79 11.31 11.79 11.25 11.7C11.31 11.78 11.43 11.77 11.53 11.77C11.63 11.77 11.74 11.77 11.81 11.69Z" fill="#84533A"/>
<path d="M12.92 11.49C12.77 11.29 12.45 11.24 12.24 11.36C12.14 11.43 12.09 11.56 12.09 11.68C12.09 11.8 12.11 11.95 12.22 12.02C12.1 11.96 12.07 11.81 12.06 11.68C12.06 11.55 12.11 11.41 12.22 11.34C12.44 11.22 12.78 11.24 12.91 11.48L12.92 11.49Z" fill="#84533A"/>
<path d="M11.73 12.08C11.69 12.16 11.75 12.22 11.82 12.2C11.89 12.15 11.97 12.24 12.03 12.22C12.07 12.22 12.09 12.2 12.13 12.18C12.18 12.17 12.21 12.21 12.24 12.2C12.3 12.22 12.38 12.13 12.32 12.08C12.4 12.12 12.32 12.26 12.24 12.23C12.16 12.18 12.12 12.22 12.03 12.23C11.95 12.23 11.89 12.15 11.82 12.22C11.73 12.26 11.66 12.14 11.72 12.08H11.73Z" fill="#84533A"/>
<path d="M12.36 12.5C12.27 12.41 12.16 12.36 12.04 12.42C11.92 12.38 11.8 12.39 11.72 12.49C11.76 12.45 11.8 12.39 11.86 12.38C11.92 12.36 11.99 12.38 12.04 12.38C12.09 12.37 12.16 12.34 12.22 12.38C12.28 12.41 12.32 12.45 12.36 12.49V12.5Z" fill="#84533A"/>
<path d="M11.8 12.52C11.88 12.52 11.96 12.51 12.04 12.54C12.09 12.51 12.19 12.51 12.27 12.53C12.23 12.53 12.19 12.53 12.15 12.53C12.11 12.53 12.09 12.55 12.03 12.57C11.96 12.54 11.88 12.53 11.8 12.52Z" fill="#84533A"/>
<path d="M12.34 12.54C12.29 12.56 12.23 12.59 12.19 12.62C12.16 12.67 12.1 12.7 12.03 12.7C11.89 12.71 11.84 12.56 11.72 12.54C11.84 12.55 11.9 12.7 12.03 12.67C12.09 12.67 12.14 12.66 12.18 12.61C12.23 12.58 12.29 12.56 12.34 12.54Z" fill="#84533A"/>
<path d="M11.82 12.87C11.86 12.8 11.93 12.71 12.03 12.72C12.12 12.72 12.2 12.8 12.23 12.89C12.16 12.71 11.91 12.71 11.82 12.87Z" fill="#84533A"/>
<path d="M11.83 12.03C11.9 11.92 11.94 11.79 11.96 11.67C11.98 11.55 11.95 11.39 11.82 11.34C11.59 11.23 11.3 11.29 11.12 11.48C11.27 11.26 11.6 11.18 11.83 11.32C11.95 11.39 11.99 11.54 11.98 11.67C11.98 11.81 11.9 11.92 11.83 12.03Z" fill="#84533A"/>
</g>
</g>
<defs>
<clipPath id="clip0_104_14135">
<rect width="24" height="24" fill="white"/>
</clipPath>
</defs>
</svg>
