<svg width="24" height="24" viewBox="0 0 24 24" fill="none" xmlns="http://www.w3.org/2000/svg">
<g clip-path="url(#clip0_104_14625)">
<mask id="mask0_104_14625" style="mask-type:luminance" maskUnits="userSpaceOnUse" x="0" y="0" width="24" height="24">
<path d="M12 24C18.6274 24 24 18.6274 24 12C24 5.37258 18.6274 0 12 0C5.37258 0 0 5.37258 0 12C0 18.6274 5.37258 24 12 24Z" fill="white"/>
</mask>
<g mask="url(#mask0_104_14625)">
<path d="M30.07 -0.0400085H-6.07001V24.05H30.07V-0.0400085Z" fill="#012169"/>
<mask id="mask1_104_14625" style="mask-type:luminance" maskUnits="userSpaceOnUse" x="-7" y="-1" width="19" height="14">
<path d="M12 -0.0400085H-6.07001V12.01H12V-0.0400085Z" fill="white"/>
</mask>
<g mask="url(#mask1_104_14625)">
<path d="M-6.07001 -0.0400085L12 12.01L-6.07001 -0.0400085ZM12 -0.0400085L-6.07001 12L12 -0.0400085Z" fill="black"/>
<path d="M-6.07001 -0.0400085L12 12.01M12 -0.0400085L-6.07001 12" stroke="white" stroke-width="1.39" stroke-miterlimit="426.67"/>
</g>
<mask id="mask2_104_14625" style="mask-type:luminance" maskUnits="userSpaceOnUse" x="-7" y="-1" width="19" height="14">
<path d="M-6.07001 -0.0400085V5.97999H12V12L-6.07001 -0.0400085ZM12 -0.0400085H2.96999V12.01H-6.07001L12 -0.0400085Z" fill="white"/>
</mask>
<g mask="url(#mask2_104_14625)">
<path d="M-6.07001 -0.0400085L12 12.01L-6.07001 -0.0400085ZM12 -0.0400085L-6.07001 12L12 -0.0400085Z" fill="black"/>
<path d="M-6.07001 -0.0400085L12 12.01M12 -0.0400085L-6.07001 12" stroke="#E4002B" stroke-width="0.92" stroke-miterlimit="426.67"/>
</g>
<path d="M2.96999 -0.0400085V12.01V-0.0400085ZM-6.07001 5.97999H12H-6.07001Z" fill="black"/>
<path d="M2.96999 -0.0400085V12.01M-6.07001 5.97999H12" stroke="white" stroke-width="2.31" stroke-miterlimit="426.67"/>
<path d="M3.86999 12H2.06999V7.17999H-6.07001V4.77999H2.06999V-0.0400085H3.86999V4.77999H12V7.17999H3.86999V12Z" fill="#E4002B"/>
<path d="M2.96997 14.82L3.51997 16.52L5.18997 15.89L4.19997 17.38L5.73997 18.29L3.95997 18.45L4.20997 20.22L2.97997 18.92L1.74997 20.22L1.99997 18.45L0.219971 18.29L1.75997 17.38L0.76997 15.89L2.43997 16.52L2.98997 14.82H2.96997Z" fill="white"/>
<path d="M21.48 16.97L21.74 17.78L22.54 17.48L22.07 18.19L22.8 18.63L21.95 18.7L22.07 19.54L21.48 18.92L20.89 19.54L21.01 18.7L20.16 18.63L20.89 18.19L20.42 17.48L21.22 17.78L21.48 16.97Z" fill="white"/>
<path d="M16.74 9.45999L17 10.27L17.8 9.96999L17.33 10.68L18.06 11.12L17.21 11.19L17.33 12.03L16.74 11.41L16.15 12.03L16.27 11.19L15.42 11.12L16.15 10.68L15.68 9.96999L16.48 10.27L16.74 9.45999Z" fill="white"/>
<path d="M21.48 4.32999L21.74 5.13999L22.54 4.83999L22.07 5.54999L22.8 5.98999L21.95 6.05999L22.07 6.89999L21.48 6.27999L20.89 6.89999L21.01 6.05999L20.16 5.98999L20.89 5.54999L20.42 4.83999L21.22 5.13999L21.48 4.32999Z" fill="white"/>
<path d="M23.37 12L23.58 12.51L24.12 12.55L23.7 12.9L23.83 13.43L23.37 13.14L22.91 13.43L23.04 12.9L22.62 12.55L23.16 12.51L23.37 12Z" fill="white"/>
</g>
</g>
<defs>
<clipPath id="clip0_104_14625">
<rect width="24" height="24" fill="white"/>
</clipPath>
</defs>
</svg>
