<svg width="24" height="24" viewBox="0 0 24 24" fill="none" xmlns="http://www.w3.org/2000/svg">
<g clip-path="url(#clip0_170_14747)">
<mask id="mask0_170_14747" style="mask-type:luminance" maskUnits="userSpaceOnUse" x="0" y="0" width="24" height="24">
<path d="M12 24C18.6274 24 24 18.6274 24 12C24 5.37258 18.6274 0 12 0C5.37258 0 0 5.37258 0 12C0 18.6274 5.37258 24 12 24Z" fill="white"/>
</mask>
<g mask="url(#mask0_170_14747)">
<path d="M29.98 0.0100002H-5.98001V23.98H29.98V0.0100002Z" fill="#509E2F"/>
<path d="M29.98 0.0100002H-5.98001V15.99H29.98V0.0100002Z" fill="#EF3340"/>
<path d="M29.98 0.0100002H-5.98001V8H29.98V0.0100002Z" fill="#00B5E2"/>
<path d="M11.12 14.63C12.5725 14.63 13.75 13.4525 13.75 12C13.75 10.5475 12.5725 9.37 11.12 9.37C9.66748 9.37 8.48999 10.5475 8.48999 12C8.48999 13.4525 9.66748 14.63 11.12 14.63Z" fill="white"/>
<path d="M11.71 14.19C12.9195 14.19 13.9 13.2095 13.9 12C13.9 10.7905 12.9195 9.81 11.71 9.81C10.5005 9.81 9.51999 10.7905 9.51999 12C9.51999 13.2095 10.5005 14.19 11.71 14.19Z" fill="#EF3340"/>
<path d="M14.05 10.54L14.33 11.33L15.08 10.97L14.72 11.72L15.51 12L14.72 12.28L15.08 13.03L14.33 12.67L14.05 13.46L13.77 12.67L13.02 13.03L13.38 12.28L12.59 12L13.38 11.72L13.02 10.97L13.77 11.33L14.05 10.54Z" fill="white"/>
</g>
</g>
<defs>
<clipPath id="clip0_170_14747">
<rect width="24" height="24" fill="white"/>
</clipPath>
</defs>
</svg>
