<svg width="24" height="24" viewBox="0 0 24 24" fill="none" xmlns="http://www.w3.org/2000/svg">
<g clip-path="url(#clip0_161_10487)">
<mask id="mask0_161_10487" style="mask-type:luminance" maskUnits="userSpaceOnUse" x="0" y="0" width="24" height="24">
<path d="M12 24C18.6274 24 24 18.6274 24 12C24 5.37258 18.6274 0 12 0C5.37258 0 0 5.37258 0 12C0 18.6274 5.37258 24 12 24Z" fill="white"/>
</mask>
<g mask="url(#mask0_161_10487)">
<path d="M-3.04999 0H27.05V24H-3.04999V0Z" fill="#00267F"/>
<path d="M6.98004 0H17.01V24H6.98004V0Z" fill="#FFC726"/>
<path fill-rule="evenodd" clip-rule="evenodd" d="M11.9779 8.18048C11.9846 8.162 11.9914 8.14354 11.9981 8.12509L12 8.09L12.0019 8.1251C12.0086 8.14354 12.0154 8.16201 12.0221 8.18049C12.275 8.87184 12.5362 9.58588 13.09 10.13C12.91 10.07 12.61 10.02 12.41 10.02V13L13.25 13.12C13.25 13.12 13.29 13.07 13.29 13.01C13.37 12.08 13.59 11.31 13.84 10.5C13.8461 10.4668 13.8795 10.4052 13.9163 10.3374C14.0014 10.1809 14.1045 9.99115 13.93 10.04C13.9207 10.04 13.8825 10.0535 13.8358 10.07C13.7318 10.1066 13.5855 10.1583 13.62 10.11C14.07 9.65 14.72 9.31 15.36 9.21C15.42 9.2 15.45 9.22 15.4 9.29C14.56 10.59 13.85 12.12 13.86 13.94C13.695 13.94 13.415 13.8925 13.135 13.845C12.855 13.7975 12.575 13.75 12.41 13.75V15.85H12H11.59V13.75C11.425 13.75 11.145 13.7975 10.865 13.845C10.585 13.8925 10.305 13.94 10.14 13.94C10.15 12.12 9.44001 10.59 8.60001 9.29C8.55001 9.22 8.58001 9.2 8.64001 9.21C9.28001 9.31 9.93001 9.65 10.38 10.11C10.4145 10.1583 10.2682 10.1066 10.1642 10.07C10.1175 10.0535 10.0793 10.04 10.07 10.04C9.89557 9.99115 9.99865 10.1809 10.0837 10.3374C10.1205 10.4052 10.154 10.4668 10.16 10.5C10.41 11.31 10.63 12.08 10.71 13.01C10.71 13.07 10.75 13.12 10.75 13.12L11.59 13V10.02C11.39 10.02 11.09 10.07 10.91 10.13C11.4638 9.58588 11.725 8.87183 11.9779 8.18048Z" fill="black"/>
</g>
</g>
<defs>
<clipPath id="clip0_161_10487">
<rect width="24" height="24" fill="white"/>
</clipPath>
</defs>
</svg>
