<svg width="24" height="24" viewBox="0 0 24 24" fill="none" xmlns="http://www.w3.org/2000/svg">
<g clip-path="url(#clip0_161_13354)">
<mask id="mask0_161_13354" style="mask-type:luminance" maskUnits="userSpaceOnUse" x="0" y="0" width="24" height="24">
<path d="M12 24C18.6274 24 24 18.6274 24 12C24 5.37258 18.6274 0 12 0C5.37258 0 0 5.37258 0 12C0 18.6274 5.37258 24 12 24Z" fill="white"/>
</mask>
<g mask="url(#mask0_161_13354)">
<path d="M0 -0.0599976H36.19V24.07H0V-0.0599976Z" fill="#CE1720"/>
<path d="M5.84998 16.03H36.19V24.07H5.84998V16.03Z" fill="#007C30"/>
<mask id="mask1_161_13354" style="mask-type:luminance" maskUnits="userSpaceOnUse" x="0" y="-1" width="6" height="26">
<path d="M0.280029 -0.0599976H5.64003V16.24H5.85003V23.85L5.64003 24.07H0.280029V-0.0599976Z" fill="white"/>
</mask>
<g mask="url(#mask1_161_13354)">
<path d="M1.24006 -0.0599976V0.320002H1.00006V0.700002H0.710059V1.13H0.500059V1.48H0.0600586V0.600002H0.490059V0.100002H0.0600586V-0.0599976H1.24006ZM1.94006 2V2.4H1.73006V2.72H1.52006V2.4H1.31006V2H1.10006V1.46H1.31006V1.06H1.52006V0.740002H1.73006V1.06H1.94006V1.46H2.15006V2H1.94006ZM1.49006 1.98H1.76006V1.5H1.49006V1.98ZM0.790059 4.85H1.00006V4.37H0.790059V4.85ZM2.24006 4.85H2.45006V4.37H2.24006V4.85ZM0.0600586 8.12H0.440059V8.47H0.600059V8.9H0.840059V9.3H1.16006V8.9H1.40006V8.47H1.61006V8.12H1.29006V7.72H1.85006V7.99H2.20006V8.45H2.49006V8.96H2.28006V9.34H2.09006V9.69H1.93006V10.07H1.69006V10.39H1.50006V10.68H1.26006V11.06H0.910059V10.66H0.670059V10.28H0.480059V10.04H0.0600586V9.42H0.490059V8.88H0.0600586V8.13V8.12Z" fill="white"/>
<path d="M4.68004 -0.0599976V0.320002H4.92004V0.700002H5.21004V1.13H5.42004V1.48H5.85004V0.600002H5.42004V0.100002H5.85004V-0.0599976H4.67004H4.68004ZM3.98004 2V2.4H4.19004V2.72H4.40004V2.4H4.61004V2H4.82004V1.46H4.61004V1.06H4.40004V0.740002H4.19004V1.06H3.98004V1.46H3.77004V2H3.98004ZM4.43004 1.98H4.16004V1.5H4.43004V1.98ZM5.13004 4.85H4.92004V4.37H5.13004V4.85ZM3.68004 4.85H3.47004V4.37H3.68004V4.85ZM5.85004 8.12H5.47004V8.47H5.31004V8.9H5.07004V9.3H4.75004V8.9H4.51004V8.47H4.30004V8.12H4.62004V7.72H4.06004V7.99H3.71004V8.45H3.42004V8.96H3.63004V9.34H3.82004V9.69H3.98004V10.07H4.22004V10.39H4.41004V10.68H4.65004V11.06H5.00004V10.66H5.24004V10.28H5.43004V10.04H5.86004V9.42H5.43004V8.88H5.86004V8.13L5.85004 8.12Z" fill="white"/>
<path d="M2.85006 -0.0599976V0.800002H3.06006V-0.0599976H3.92006V0.320002H3.71006V0.700002H3.39006V1.13H3.18006V1.48H2.75006V1.13H2.54006V0.700002H2.22006V0.320002H2.01006V-0.0599976H2.87006H2.85006ZM2.80006 7.29V7H2.64006V6.65H2.45006V6.27H2.24006V5.89H2.03006V5.62H1.79006V5.24H1.47006V5.62H1.23006V5.89H1.04006V6.27H0.830059V6.65H0.670059V7H0.510059V7.46H0.0600586V6.28H0.490059V5.74H0.0600586V4.86H0.490059V5.24H0.760059V5.62H1.03006V5.24H1.30006V4.86H1.51006V4.38H1.30006V4H1.03006V3.62H0.760059V4H0.490059V4.38H0.0600586V3.28H0.490059V2.77H0.0600586V2.02H0.490059V2.37H0.700059V2.8H0.990059V3.15H1.23006V3.55H1.42006V3.87H1.80006V3.55H1.99006V3.15H2.23006V2.8H2.52006V2.37H2.73006V2.02H3.16006V2.37H3.37006V2.8H3.66006V3.15H3.90006V3.55H4.09006V3.87H4.47006V3.55H4.66006V3.15H4.90006V2.8H5.19006V2.37H5.40006V2.02H5.83006V2.77H5.40006V3.28H5.83006V4.38H5.40006V4H5.13006V3.62H4.86006V4H4.59006V4.38H4.38006V4.86H4.59006V5.24H4.86006V5.62H5.13006V5.24H5.40006V4.86H5.83006V5.74H5.40006V6.28H5.83006V7.46H5.40006V7H5.24006V6.65H5.08006V6.27H4.87006V5.89H4.68006V5.62H4.44006V5.24H4.12006V5.62H3.88006V5.89H3.67006V6.27H3.46006V6.65H3.27006V7H3.11006V7.29H2.79006H2.80006ZM2.85006 2.81V3.53H3.06006V2.81H2.85006ZM2.75006 4.36V3.98H2.48006V3.6H2.21006V3.98H1.94006V4.36H1.73006V4.84H1.94006V5.22H2.21006V5.6H2.48006V5.22H2.75006V4.84H3.18006V5.22H3.45006V5.6H3.72006V5.22H3.99006V4.84H4.20006V4.36H3.99006V3.98H3.72006V3.6H3.45006V3.98H3.18006V4.36H2.75006ZM2.85006 5.6V6.32H3.06006V5.6H2.85006Z" fill="white"/>
<path d="M1.24006 24.07V23.69H1.00006V23.31H0.710059V22.88H0.500059V22.53H0.0600586V23.41H0.490059V23.89H0.0600586V24.05H1.24006V24.07ZM1.94006 22V21.6H1.73006V21.28H1.52006V21.6H1.31006V22H1.10006V22.54H1.31006V22.94H1.52006V23.26H1.73006V22.94H1.94006V22.54H2.15006V22H1.94006ZM1.49006 22.03H1.76006V22.51H1.49006V22.03ZM0.790059 19.16H1.00006V19.64H0.790059V19.16ZM2.24006 19.16H2.45006V19.64H2.24006V19.16ZM0.0600586 15.89H0.440059V15.54H0.600059V15.11H0.840059V14.71H1.16006V15.11H1.40006V15.54H1.61006V15.89H1.29006V16.29H1.85006V16.02H2.20006V15.56H2.49006V15.05H2.28006V14.67H2.09006V14.32H1.93006V13.94H1.69006V13.62H1.50006V13.33H1.26006V12.95H0.910059V13.35H0.670059V13.73H0.480059V13.97H0.0600586V14.59H0.490059V15.13H0.0600586V15.88V15.89Z" fill="white"/>
<path d="M4.68004 24.07V23.69H4.92004V23.31H5.21004V22.88H5.42004V22.53H5.85004V23.41H5.42004V23.89H5.85004V24.05H4.67004L4.68004 24.07ZM3.98004 22V21.6H4.19004V21.28H4.40004V21.6H4.61004V22H4.82004V22.54H4.61004V22.94H4.40004V23.26H4.19004V22.94H3.98004V22.54H3.77004V22H3.98004ZM4.43004 22.03H4.16004V22.51H4.43004V22.03ZM5.13004 19.16H4.92004V19.64H5.13004V19.16ZM3.68004 19.16H3.47004V19.64H3.68004V19.16ZM5.85004 15.89H5.47004V15.54H5.31004V15.11H5.07004V14.71H4.75004V15.11H4.51004V15.54H4.30004V15.89H4.62004V16.29H4.06004V16.02H3.71004V15.56H3.42004V15.05H3.63004V14.67H3.82004V14.32H3.98004V13.94H4.22004V13.62H4.41004V13.33H4.65004V12.95H5.00004V13.35H5.24004V13.73H5.43004V13.97H5.86004V14.59H5.43004V15.13H5.86004V15.88L5.85004 15.89Z" fill="white"/>
<path d="M2.85006 24.07V23.21H3.06006V24.07H3.92006V23.69H3.71006V23.31H3.39006V22.88H3.18006V22.53H2.75006V22.88H2.54006V23.31H2.22006V23.69H2.01006V24.07H2.87006H2.85006ZM2.80006 16.72V17.01H2.64006V17.36H2.45006V17.74H2.24006V18.12H2.03006V18.39H1.79006V18.77H1.47006V18.39H1.23006V18.12H1.04006V17.74H0.830059V17.36H0.670059V17.01H0.510059V16.55H0.0600586V17.73H0.490059V18.27H0.0600586V19.15H0.490059V18.77H0.760059V18.39H1.03006V18.77H1.30006V19.15H1.51006V19.63H1.30006V20.01H1.03006V20.39H0.760059V20.01H0.490059V19.63H0.0600586V20.73H0.490059V21.24H0.0600586V21.99H0.490059V21.64H0.700059V21.21H0.990059V20.86H1.23006V20.46H1.42006V20.14H1.80006V20.46H1.99006V20.86H2.23006V21.21H2.52006V21.64H2.73006V21.99H3.16006V21.64H3.37006V21.21H3.66006V20.86H3.90006V20.46H4.09006V20.14H4.47006V20.46H4.66006V20.86H4.90006V21.21H5.19006V21.64H5.40006V21.99H5.83006V21.24H5.40006V20.73H5.83006V19.63H5.40006V20.01H5.13006V20.39H4.86006V20.01H4.59006V19.63H4.38006V19.15H4.59006V18.77H4.86006V18.39H5.13006V18.77H5.40006V19.15H5.83006V18.27H5.40006V17.73H5.83006V16.55H5.40006V17.01H5.24006V17.36H5.08006V17.74H4.87006V18.12H4.68006V18.39H4.44006V18.77H4.12006V18.39H3.88006V18.12H3.67006V17.74H3.46006V17.36H3.27006V17.01H3.11006V16.72H2.79006H2.80006ZM2.85006 21.2V20.48H3.06006V21.2H2.85006ZM2.75006 19.64V20.02H2.48006V20.4H2.21006V20.02H1.94006V19.64H1.73006V19.16H1.94006V18.78H2.21006V18.4H2.48006V18.78H2.75006V19.16H3.18006V18.78H3.45006V18.4H3.72006V18.78H3.99006V19.16H4.20006V19.64H3.99006V20.02H3.72006V20.4H3.45006V20.02H3.18006V19.64H2.75006ZM2.85006 18.41V17.69H3.06006V18.41H2.85006Z" fill="white"/>
<path d="M0.0600586 10.88H0.490059V11.26H0.680059V11.47H0.890059V11.85H1.08006V12.17H0.890059V12.55H0.680059V12.76H0.490059V13.14H0.0600586V10.89V10.88ZM5.85006 10.88V13.13H5.42006V12.75H5.23006V12.54H5.02006V12.16H4.83006V11.84H5.02006V11.46H5.23006V11.25H5.42006V10.87H5.85006V10.88ZM1.94006 12.25H2.15006V11.77H1.94006V12.25ZM3.98006 12.25V11.77H3.77006V12.25H3.98006ZM2.85006 10.66H3.06006V10.18H2.85006V10.66ZM2.85006 13.34V13.82H3.06006V13.34H2.85006ZM1.51006 11.33H1.89006V11.04H2.16006V10.77H2.29006V10.5H2.45006V10.12H2.66006V9.74H2.77006V9.39H3.15006V9.74H3.26006V10.12H3.47006V10.5H3.63006V10.77H3.76006V11.04H4.03006V11.33H4.41006V12.67H4.03006V12.96H3.76006V13.23H3.63006V13.5H3.47006V13.88H3.26006V14.26H3.15006V14.61H2.77006V14.26H2.66006V13.88H2.45006V13.5H2.29006V13.23H2.16006V12.96H1.89006V12.67H1.51006V11.33ZM2.85006 11.57V11.17H2.64006V10.9H2.43006V11.57H2.64006V11.81H2.77006V12.19H2.64006V12.43H2.43006V13.1H2.64006V12.83H2.85006V12.43H3.06006V12.83H3.27006V13.1H3.48006V12.43H3.27006V12.19H3.14006V11.81H3.27006V11.57H3.48006V10.9H3.27006V11.17H3.06006V11.57H2.85006Z" fill="white"/>
</g>
</g>
</g>
<defs>
<clipPath id="clip0_161_13354">
<rect width="24" height="24" fill="white"/>
</clipPath>
</defs>
</svg>
