<svg width="24" height="24" viewBox="0 0 24 24" fill="none" xmlns="http://www.w3.org/2000/svg">
<g clip-path="url(#clip0_170_14998)">
<mask id="mask0_170_14998" style="mask-type:luminance" maskUnits="userSpaceOnUse" x="0" y="0" width="24" height="24">
<path d="M12 24C18.6274 24 24 18.6274 24 12C24 5.37261 18.6274 2.67029e-05 12 2.67029e-05C5.37258 2.67029e-05 0 5.37261 0 12C0 18.6274 5.37258 24 12 24Z" fill="white"/>
</mask>
<g mask="url(#mask0_170_14998)">
<path d="M29.18 0.120026H-6.48004V23.9H29.18V0.120026Z" fill="#002395"/>
<path d="M2.33002 0.120026H26.11V23.9L2.33002 0.120026Z" fill="#FECB00"/>
<mask id="mask1_170_14998" style="mask-type:luminance" maskUnits="userSpaceOnUse" x="-11" y="0" width="49" height="24">
<path d="M37.1 0.120026H-10.45V23.9H37.1V0.120026Z" fill="white"/>
</mask>
<g mask="url(#mask1_170_14998)">
<path d="M-2.13003 0.710027L-0.80003 1.68003L-1.31003 0.120027L0.0199709 -0.849973H-1.62003L-2.13003 -2.40997L-2.64003 -0.849973H-4.28003L-2.95003 0.120027L-3.46003 1.68003L-2.13003 0.710027Z" fill="white"/>
<path d="M0.839952 3.68003L2.16995 4.65003L1.65995 3.09003L2.98995 2.12003H1.34995L0.839952 0.560028L0.339952 2.12003H-1.30005L0.0199518 3.09003L-0.480048 4.65003L0.839952 3.68003Z" fill="white"/>
<path d="M3.81998 6.66003L5.13998 7.62003L4.63998 6.06003L5.95998 5.09003H4.31998L3.81998 3.53003L3.30998 5.09003H1.66998L2.98998 6.06003L2.48998 7.62003L3.81998 6.66003Z" fill="white"/>
<path d="M6.78995 9.63002L8.10995 10.59L7.60995 9.03002L8.93995 8.07002H7.28995L6.78995 6.51003L6.27995 8.07002H4.63995L5.96995 9.03002L5.45995 10.59L6.78995 9.63002Z" fill="white"/>
<path d="M9.75998 12.6L11.09 13.56L10.58 12L11.91 11.04H10.27L9.75998 9.48003L9.24999 11.04H7.60999L8.93999 12L8.42999 13.56L9.75998 12.6Z" fill="white"/>
<path d="M12.73 15.57L14.06 16.54L13.55 14.97L14.88 14.01H13.24L12.73 12.45L12.22 14.01H10.58L11.91 14.97L11.4 16.54L12.73 15.57Z" fill="white"/>
<path d="M15.7 18.54L17.03 19.51L16.52 17.95L17.85 16.98H16.21L15.7 15.42L15.2 16.98H13.55L14.88 17.95L14.38 19.51L15.7 18.54Z" fill="white"/>
<path d="M18.68 21.51L20 22.48L19.5 20.92L20.82 19.95H19.18L18.68 18.39L18.17 19.95H16.53L17.85 20.92L17.35 22.48L18.68 21.51Z" fill="white"/>
<path d="M22.47 23.89L23.8 22.93H22.15L21.65 21.37L21.14 22.93H19.5L20.83 23.89L20.32 25.45L21.65 24.49L22.97 25.45L22.47 23.89Z" fill="white"/>
</g>
</g>
</g>
<defs>
<clipPath id="clip0_170_14998">
<rect width="24" height="24" fill="white"/>
</clipPath>
</defs>
</svg>
