<svg width="24" height="24" viewBox="0 0 24 24" fill="none" xmlns="http://www.w3.org/2000/svg">
<g clip-path="url(#clip0_104_15939)">
<mask id="mask0_104_15939" style="mask-type:luminance" maskUnits="userSpaceOnUse" x="0" y="0" width="24" height="24">
<path d="M12 24C18.6274 24 24 18.6274 24 12C24 5.37258 18.6274 0 12 0C5.37258 0 0 5.37258 0 12C0 18.6274 5.37258 24 12 24Z" fill="white"/>
</mask>
<g mask="url(#mask0_104_15939)">
<path d="M24 0H0V24H24V0Z" fill="#009B3A"/>
<path d="M2.03998 12L12 18.36L21.96 12L12 5.64001L2.03998 12Z" fill="#FEDF00"/>
<path d="M12 16.2C14.3196 16.2 16.2 14.3196 16.2 12C16.2 9.68039 14.3196 7.79999 12 7.79999C9.68039 7.79999 7.79999 9.68039 7.79999 12C7.79999 14.3196 9.68039 16.2 12 16.2Z" fill="#002776"/>
<mask id="mask1_104_15939" style="mask-type:luminance" maskUnits="userSpaceOnUse" x="7" y="7" width="10" height="10">
<path d="M12 16.2C14.3196 16.2 16.2 14.3196 16.2 12C16.2 9.68039 14.3196 7.79999 12 7.79999C9.68039 7.79999 7.79999 9.68039 7.79999 12C7.79999 14.3196 9.68039 16.2 12 16.2Z" fill="white"/>
</mask>
<g mask="url(#mask1_104_15939)">
<path d="M-0.600037 20.4C-0.600037 14.77 3.96996 10.2 9.59996 10.2C15.23 10.2 19.8 14.77 19.8 20.4H19.2C19.2 15.1 14.9 10.8 9.59996 10.8C4.29996 10.8 -3.65973e-05 15.1 -3.65973e-05 20.4H-0.600037Z" fill="white"/>
</g>
<path fill-rule="evenodd" clip-rule="evenodd" d="M8.41997 10.77C8.51997 10.76 8.58997 10.66 8.56997 10.55C8.54997 10.44 8.46997 10.36 8.36997 10.37C8.26997 10.38 8.19997 10.48 8.21997 10.59C8.23997 10.7 8.31997 10.78 8.41997 10.77ZM8.40997 10.7C8.46997 10.7 8.50997 10.63 8.49997 10.56C8.48997 10.49 8.43997 10.44 8.37997 10.45C8.31997 10.46 8.27997 10.52 8.28997 10.59C8.29997 10.66 8.34997 10.71 8.40997 10.7Z" fill="#009B3A"/>
<path fill-rule="evenodd" clip-rule="evenodd" d="M8.73997 10.74H8.80997L8.79997 10.59H8.95997C9.02997 10.57 9.07997 10.51 9.07997 10.44C9.07997 10.37 9.01997 10.32 8.94997 10.32L8.71997 10.34L8.73997 10.74ZM8.79997 10.51H8.94997C8.94997 10.51 8.99997 10.47 8.99997 10.44C8.99997 10.41 8.96997 10.39 8.94997 10.39H8.79997V10.5V10.51Z" fill="#009B3A"/>
<path d="M9.08 10.71C9.08 10.65 9.06999 10.53 8.97999 10.53H8.87C9 10.53 8.99999 10.65 9.00999 10.71" fill="#009B3A"/>
<path fill-rule="evenodd" clip-rule="evenodd" d="M9.24999 10.7H9.43999C9.52999 10.7 9.60999 10.62 9.60999 10.52V10.46C9.60999 10.37 9.52999 10.29 9.42999 10.29H9.23999V10.69L9.24999 10.7ZM9.31999 10.63H9.42999C9.48999 10.63 9.53999 10.58 9.53999 10.52V10.49C9.53999 10.43 9.48999 10.38 9.42999 10.38H9.31999V10.63Z" fill="#009B3A"/>
<path d="M9.76 10.7H10.12V10.64H9.83V10.53H10.06V10.47H9.83V10.38H10.1V10.32H9.76L9.75 10.71L9.76 10.7Z" fill="#009B3A"/>
<path d="M10.27 10.72H10.34L10.36 10.45L10.42 10.73H10.48L10.58 10.47L10.56 10.74H10.63L10.66 10.35H10.56L10.46 10.61L10.4 10.33H10.3L10.27 10.72Z" fill="#009B3A"/>
<path d="M11.09 10.81L11.39 10.86V10.79L11.17 10.75L11.19 10.66L11.38 10.69V10.62L11.21 10.59V10.53L11.44 10.57V10.5L11.16 10.45L11.1 10.8L11.09 10.81Z" fill="#009B3A"/>
<path fill-rule="evenodd" clip-rule="evenodd" d="M11.85 10.96L11.92 10.98L11.96 10.84L12.11 10.88C12.18 10.9 12.25 10.86 12.26 10.79C12.27 10.72 12.24 10.65 12.17 10.64L11.95 10.58L11.84 10.97L11.85 10.96ZM11.98 10.77L12.13 10.81C12.13 10.81 12.19 10.81 12.19 10.77C12.19 10.73 12.19 10.71 12.15 10.71L12 10.67L11.97 10.77H11.98Z" fill="#009B3A"/>
<path fill-rule="evenodd" clip-rule="evenodd" d="M12.35 11.09L12.42 11.11L12.46 10.97L12.61 11.02C12.68 11.04 12.75 11 12.77 10.94C12.79 10.88 12.75 10.8 12.69 10.78L12.47 10.71L12.34 11.09H12.35ZM12.48 10.9L12.63 10.95C12.63 10.95 12.69 10.95 12.69 10.92C12.69 10.89 12.69 10.86 12.66 10.86L12.51 10.81L12.48 10.91V10.9Z" fill="#009B3A"/>
<path d="M12.67 11.2C12.69 11.15 12.72 11.03 12.64 11L12.54 10.97C12.66 11.01 12.62 11.13 12.6 11.18" fill="#009B3A"/>
<path fill-rule="evenodd" clip-rule="evenodd" d="M13 11.31C13.09 11.34 13.2 11.29 13.24 11.19C13.28 11.09 13.24 10.97 13.14 10.94C13.04 10.91 12.94 10.96 12.9 11.06C12.86 11.16 12.9 11.28 13 11.31ZM13.02 11.24C13.07 11.26 13.14 11.22 13.16 11.16C13.18 11.1 13.16 11.03 13.11 11.01C13.06 10.99 12.99 11.03 12.97 11.09C12.95 11.15 12.97 11.22 13.02 11.24Z" fill="#009B3A"/>
<mask id="mask2_104_15939" style="mask-type:luminance" maskUnits="userSpaceOnUse" x="13" y="11" width="1" height="1">
<path d="M13.3 11.43L13.46 11.06L13.79 11.2L13.63 11.57L13.3 11.43ZM13.57 11.26L13.54 11.32L13.71 11.39L13.74 11.33L13.57 11.26Z" fill="white"/>
</mask>
<g mask="url(#mask2_104_15939)">
<path fill-rule="evenodd" clip-rule="evenodd" d="M13.47 11.5C13.56 11.54 13.67 11.49 13.71 11.39C13.75 11.29 13.71 11.17 13.62 11.13C13.53 11.09 13.42 11.14 13.38 11.24C13.34 11.34 13.38 11.46 13.47 11.5ZM13.5 11.44C13.55 11.46 13.62 11.44 13.65 11.37C13.68 11.3 13.65 11.24 13.6 11.21C13.55 11.18 13.48 11.21 13.45 11.28C13.42 11.35 13.45 11.41 13.5 11.44Z" fill="#009B3A"/>
</g>
<path d="M13.5681 11.3326L13.5442 11.3876L13.6817 11.4474L13.7057 11.3924L13.5681 11.3326Z" fill="#009B3A"/>
<path d="M13.6532 11.3619L13.5734 11.5453L13.6284 11.5692L13.7082 11.3858L13.6532 11.3619Z" fill="#009B3A"/>
<path fill-rule="evenodd" clip-rule="evenodd" d="M13.77 11.64L13.84 11.67L13.91 11.54L14.05 11.61C14.11 11.64 14.19 11.61 14.22 11.55C14.25 11.49 14.22 11.41 14.16 11.38L13.96 11.28L13.78 11.64H13.77ZM13.93 11.47L14.07 11.54C14.07 11.54 14.13 11.54 14.14 11.52C14.15 11.5 14.14 11.46 14.12 11.45L13.98 11.38L13.93 11.47Z" fill="#009B3A"/>
<path d="M14.07 11.79C14.1 11.74 14.15 11.63 14.07 11.59L13.97 11.54C14.08 11.6 14.03 11.71 14 11.76" fill="#009B3A"/>
<path d="M14.22 11.87L14.53 12.05L14.57 11.99L14.32 11.85L14.37 11.76L14.57 11.87L14.6 11.81L14.4 11.7L14.44 11.63L14.68 11.77L14.72 11.71L14.42 11.54L14.22 11.89V11.87Z" fill="#009B3A"/>
<path d="M14.8 12.06C14.8 12.06 14.8 12.13 14.85 12.16C14.9 12.19 14.93 12.19 14.94 12.16C14.98 12.09 14.73 11.99 14.81 11.87C14.88 11.77 14.99 11.85 15.04 11.87C15.09 11.89 15.15 11.97 15.1 12.05L15.03 12C15.03 12 15.03 11.93 14.99 11.9C14.95 11.87 14.92 11.87 14.9 11.9C14.86 11.96 15.11 12.06 15.03 12.18C14.97 12.27 14.88 12.23 14.81 12.18C14.75 12.14 14.67 12.06 14.73 11.98L14.81 12.03L14.8 12.06Z" fill="#009B3A"/>
<path d="M15.2299 12.35C15.2299 12.35 15.2299 12.42 15.2699 12.45C15.3099 12.48 15.3499 12.48 15.3599 12.46C15.4099 12.39 15.1599 12.28 15.2399 12.16C15.3099 12.06 15.4199 12.15 15.4699 12.18C15.5199 12.21 15.58 12.28 15.52 12.36L15.4499 12.31C15.4499 12.31 15.4499 12.24 15.4099 12.21C15.3699 12.18 15.3399 12.17 15.3199 12.21C15.2799 12.26 15.52 12.38 15.44 12.5C15.38 12.58 15.2799 12.54 15.2199 12.5C15.1699 12.46 15.0899 12.37 15.1499 12.29L15.2199 12.34L15.2299 12.35Z" fill="#009B3A"/>
<path fill-rule="evenodd" clip-rule="evenodd" d="M15.64 12.81C15.72 12.87 15.84 12.85 15.91 12.77C15.98 12.69 15.97 12.56 15.89 12.5C15.81 12.44 15.69 12.46 15.62 12.54C15.55 12.62 15.56 12.75 15.64 12.81ZM15.68 12.75C15.68 12.75 15.8 12.77 15.84 12.72C15.88 12.67 15.88 12.59 15.84 12.56C15.8 12.53 15.72 12.54 15.68 12.59C15.64 12.64 15.64 12.72 15.68 12.75Z" fill="#009B3A"/>
<path d="M8.57001 11.07L8.51001 11.24L8.60001 11.27" fill="white"/>
<path d="M8.57004 11.07L8.63004 11.24L8.54004 11.27" fill="white"/>
<path d="M8.74006 11.19H8.56006V11.28" fill="white"/>
<path d="M8.74004 11.19L8.59004 11.3L8.54004 11.23" fill="white"/>
<path d="M8.40002 11.19L8.55002 11.3L8.60002 11.23" fill="white"/>
<path d="M8.40002 11.19H8.58002V11.28" fill="white"/>
<path d="M8.68003 11.39L8.62003 11.22L8.53003 11.25" fill="white"/>
<path d="M8.68003 11.39L8.53003 11.28L8.58003 11.21" fill="white"/>
<path d="M8.47003 11.39L8.62003 11.28L8.57003 11.21" fill="white"/>
<path d="M8.47003 11.39L8.53003 11.22L8.62003 11.25" fill="white"/>
<path d="M8.94001 12.83L8.88 13L8.97001 13.03" fill="white"/>
<path d="M8.94003 12.83L9.00003 13L8.91003 13.03" fill="white"/>
<path d="M9.11005 12.96H8.93005V13.05" fill="white"/>
<path d="M9.11003 12.96L8.96003 13.07L8.91003 13" fill="white"/>
<path d="M8.77002 12.96L8.92002 13.07L8.97002 13" fill="white"/>
<path d="M8.77002 12.96H8.95002V13.05" fill="white"/>
<path d="M9.05002 13.16L8.99002 12.99L8.90002 13.02" fill="white"/>
<path d="M9.05002 13.16L8.90002 13.05L8.95002 12.98" fill="white"/>
<path d="M8.84003 13.16L8.99003 13.05L8.94003 12.98" fill="white"/>
<path d="M8.84003 13.16L8.90003 12.99L8.99003 13.02" fill="white"/>
<path d="M8.43001 13.24L8.38 13.38L8.45001 13.4" fill="white"/>
<path d="M8.43003 13.24L8.48003 13.38L8.41003 13.4" fill="white"/>
<path d="M8.56998 13.34H8.41998V13.42" fill="white"/>
<path d="M8.56997 13.34L8.44997 13.43L8.40997 13.37" fill="white"/>
<path d="M8.28998 13.34L8.40998 13.43L8.44998 13.37" fill="white"/>
<path d="M8.28998 13.34H8.43998V13.42" fill="white"/>
<path d="M8.51996 13.51L8.46996 13.37L8.39996 13.39" fill="white"/>
<path d="M8.51996 13.51L8.39996 13.42L8.43996 13.36" fill="white"/>
<path d="M8.33997 13.51L8.45997 13.42L8.41997 13.36" fill="white"/>
<path d="M8.33997 13.51L8.38997 13.37L8.45997 13.39" fill="white"/>
<path d="M9.35001 12.67L9.32001 12.75H9.36001" fill="white"/>
<path d="M9.35003 12.67L9.38003 12.75H9.34003" fill="white"/>
<path d="M9.44004 12.73H9.35004V12.77" fill="white"/>
<path d="M9.44003 12.73L9.37003 12.78L9.34003 12.75" fill="white"/>
<path d="M9.27002 12.73L9.34002 12.78L9.37002 12.75" fill="white"/>
<path d="M9.27002 12.73H9.36002V12.77" fill="white"/>
<path d="M9.40002 12.82L9.37002 12.74H9.33002" fill="white"/>
<path d="M9.40002 12.82L9.33002 12.77L9.36002 12.74" fill="white"/>
<path d="M9.30005 12.82L9.37005 12.77L9.34005 12.74" fill="white"/>
<path d="M9.30005 12.82L9.33005 12.74H9.37005" fill="white"/>
<path d="M9.81996 13.28L9.76996 13.42L9.83996 13.44" fill="white"/>
<path d="M9.81999 13.28L9.86999 13.42L9.79999 13.44" fill="white"/>
<path d="M9.96 13.38H9.81V13.46" fill="white"/>
<path d="M9.95999 13.38L9.83999 13.47L9.79999 13.41" fill="white"/>
<path d="M9.66998 13.38L9.78998 13.47L9.82998 13.41" fill="white"/>
<path d="M9.66998 13.38H9.81998V13.46" fill="white"/>
<path d="M9.90998 13.55L9.85998 13.41L9.78998 13.43" fill="white"/>
<path d="M9.90998 13.55L9.78998 13.46L9.82998 13.4" fill="white"/>
<path d="M9.72998 13.55L9.84998 13.46L9.80998 13.4" fill="white"/>
<path d="M9.72998 13.55L9.77998 13.41L9.84998 13.43" fill="white"/>
<path d="M9.69002 13.73L9.65002 13.84L9.71002 13.86" fill="white"/>
<path d="M9.69004 13.73L9.73004 13.84L9.67004 13.86" fill="white"/>
<path d="M9.81006 13.81H9.69006V13.87" fill="white"/>
<path d="M9.81004 13.81L9.71004 13.88L9.67004 13.83" fill="white"/>
<path d="M9.58002 13.81L9.68002 13.88L9.72002 13.83" fill="white"/>
<path d="M9.58002 13.81H9.70002V13.87" fill="white"/>
<path d="M9.76003 13.94L9.72003 13.83L9.66003 13.85" fill="white"/>
<path d="M9.76003 13.94L9.66003 13.87L9.70003 13.82" fill="white"/>
<path d="M9.62 13.94L9.71999 13.87L9.67999 13.82" fill="white"/>
<path d="M9.62 13.94L9.66 13.83L9.71999 13.85" fill="white"/>
<path d="M13.3 10.52L13.24 10.69L13.33 10.72" fill="white"/>
<path d="M13.3 10.52L13.36 10.69L13.27 10.72" fill="white"/>
<path d="M13.47 10.64H13.29V10.73" fill="white"/>
<path d="M13.47 10.64L13.32 10.75L13.27 10.68" fill="white"/>
<path d="M13.13 10.64L13.28 10.75L13.33 10.68" fill="white"/>
<path d="M13.13 10.64H13.31V10.73" fill="white"/>
<path d="M13.41 10.84L13.35 10.67L13.26 10.7" fill="white"/>
<path d="M13.41 10.84L13.26 10.73L13.31 10.66" fill="white"/>
<path d="M13.2 10.84L13.35 10.73L13.3 10.66" fill="white"/>
<path d="M13.2 10.84L13.26 10.67L13.35 10.7" fill="white"/>
<path d="M14.94 13.29L14.88 13.46L14.97 13.49" fill="white"/>
<path d="M14.94 13.29L15 13.46L14.91 13.49" fill="white"/>
<path d="M15.1101 13.42H14.9301V13.51" fill="white"/>
<path d="M15.11 13.42L14.96 13.53L14.91 13.46" fill="white"/>
<path d="M14.77 13.42L14.92 13.53L14.97 13.46" fill="white"/>
<path d="M14.77 13.42H14.95V13.51" fill="white"/>
<path d="M15.05 13.62L14.99 13.45L14.9 13.48" fill="white"/>
<path d="M15.05 13.62L14.9 13.51L14.95 13.44" fill="white"/>
<path d="M14.84 13.62L14.99 13.51L14.94 13.44" fill="white"/>
<path d="M14.84 13.62L14.9 13.45L14.99 13.48" fill="white"/>
<path d="M15.53 13.39L15.49 13.5L15.55 13.52" fill="white"/>
<path d="M15.53 13.39L15.57 13.5L15.51 13.52" fill="white"/>
<path d="M15.64 13.48H15.52V13.54" fill="white"/>
<path d="M15.64 13.48L15.54 13.55L15.5 13.5" fill="white"/>
<path d="M15.41 13.48L15.51 13.55L15.55 13.5" fill="white"/>
<path d="M15.41 13.48H15.53V13.54" fill="white"/>
<path d="M15.6 13.61L15.56 13.5L15.5 13.52" fill="white"/>
<path d="M15.6 13.61L15.5 13.54L15.54 13.49" fill="white"/>
<path d="M15.46 13.61L15.56 13.54L15.52 13.49" fill="white"/>
<path d="M15.46 13.61L15.5 13.5L15.56 13.52" fill="white"/>
<path d="M15.11 13.7L15.06 13.84L15.13 13.86" fill="white"/>
<path d="M15.11 13.7L15.16 13.84L15.09 13.86" fill="white"/>
<path d="M15.26 13.8H15.11V13.88" fill="white"/>
<path d="M15.26 13.8L15.14 13.89L15.1 13.83" fill="white"/>
<path d="M14.97 13.8L15.09 13.89L15.13 13.83" fill="white"/>
<path d="M14.97 13.8H15.12V13.88" fill="white"/>
<path d="M15.2 13.97L15.15 13.83L15.08 13.85" fill="white"/>
<path d="M15.2 13.97L15.08 13.88L15.12 13.82" fill="white"/>
<path d="M15.03 13.97L15.15 13.88L15.11 13.82" fill="white"/>
<path d="M15.03 13.97L15.08 13.83L15.15 13.85" fill="white"/>
<path d="M14.1 14.58L14.05 14.72L14.12 14.74" fill="white"/>
<path d="M14.1001 14.58L14.1501 14.72L14.0801 14.74" fill="white"/>
<path d="M14.25 14.68H14.1V14.76" fill="white"/>
<path d="M14.25 14.68L14.13 14.77L14.09 14.71" fill="white"/>
<path d="M13.96 14.68L14.08 14.77L14.12 14.71" fill="white"/>
<path d="M13.96 14.68H14.11V14.76" fill="white"/>
<path d="M14.19 14.85L14.14 14.71L14.07 14.73" fill="white"/>
<path d="M14.19 14.85L14.07 14.76L14.11 14.7" fill="white"/>
<path d="M14.01 14.85L14.13 14.76L14.09 14.7" fill="white"/>
<path d="M14.01 14.85L14.06 14.71L14.13 14.73" fill="white"/>
<path d="M14.1 15.03L14.06 15.14L14.12 15.16" fill="white"/>
<path d="M14.1 15.03L14.14 15.14L14.08 15.16" fill="white"/>
<path d="M14.21 15.11H14.09V15.17" fill="white"/>
<path d="M14.21 15.11L14.11 15.18L14.07 15.13" fill="white"/>
<path d="M13.98 15.11L14.08 15.18L14.12 15.13" fill="white"/>
<path d="M13.98 15.11H14.1V15.17" fill="white"/>
<path d="M14.17 15.25L14.13 15.14L14.07 15.16" fill="white"/>
<path d="M14.17 15.25L14.07 15.18L14.11 15.13" fill="white"/>
<path d="M14.03 15.25L14.13 15.18L14.09 15.13" fill="white"/>
<path d="M14.03 15.25L14.07 15.14L14.13 15.16" fill="white"/>
<path d="M14.52 14.27L14.48 14.38L14.54 14.4" fill="white"/>
<path d="M14.52 14.27L14.56 14.38L14.5 14.4" fill="white"/>
<path d="M14.63 14.36H14.51V14.42" fill="white"/>
<path d="M14.63 14.36L14.53 14.43L14.49 14.38" fill="white"/>
<path d="M14.41 14.36L14.51 14.43L14.55 14.38" fill="white"/>
<path d="M14.41 14.36H14.53V14.42" fill="white"/>
<path d="M14.59 14.49L14.55 14.38L14.49 14.4" fill="white"/>
<path d="M14.59 14.49L14.49 14.42L14.53 14.37" fill="white"/>
<path d="M14.45 14.49L14.55 14.42L14.51 14.37" fill="white"/>
<path d="M14.45 14.49L14.49 14.38L14.55 14.4" fill="white"/>
<path d="M14.86 14.03L14.81 14.17L14.88 14.19" fill="white"/>
<path d="M14.86 14.03L14.91 14.17L14.84 14.19" fill="white"/>
<path d="M15 14.14H14.85V14.22" fill="white"/>
<path d="M15 14.14L14.88 14.23L14.84 14.17" fill="white"/>
<path d="M14.71 14.14L14.83 14.23L14.87 14.17" fill="white"/>
<path d="M14.71 14.14H14.86V14.22" fill="white"/>
<path d="M14.95 14.3L14.9 14.16L14.83 14.18" fill="white"/>
<path d="M14.95 14.3L14.83 14.21L14.87 14.15" fill="white"/>
<path d="M14.77 14.3L14.89 14.21L14.85 14.15" fill="white"/>
<path d="M14.77 14.3L14.82 14.16L14.89 14.18" fill="white"/>
<path d="M14.09 14.19L14.05 14.3L14.11 14.32" fill="white"/>
<path d="M14.09 14.19L14.13 14.3L14.07 14.32" fill="white"/>
<path d="M14.2 14.28H14.08V14.34" fill="white"/>
<path d="M14.2 14.28L14.1 14.35L14.06 14.3" fill="white"/>
<path d="M13.97 14.28L14.07 14.35L14.11 14.3" fill="white"/>
<path d="M13.97 14.28H14.09V14.34" fill="white"/>
<path d="M14.16 14.41L14.12 14.3L14.06 14.32" fill="white"/>
<path d="M14.16 14.41L14.06 14.34L14.1 14.29" fill="white"/>
<path d="M14.02 14.41L14.12 14.34L14.08 14.29" fill="white"/>
<path d="M14.02 14.41L14.06 14.3L14.12 14.32" fill="white"/>
<path d="M10.4 12.02L10.35 12.16L10.42 12.18" fill="white"/>
<path d="M10.4001 12.02L10.4501 12.16L10.3801 12.18" fill="white"/>
<path d="M10.54 12.13H10.39V12.21" fill="white"/>
<path d="M10.54 12.13L10.42 12.22L10.38 12.16" fill="white"/>
<path d="M10.26 12.13L10.38 12.22L10.42 12.16" fill="white"/>
<path d="M10.26 12.13H10.41V12.21" fill="white"/>
<path d="M10.49 12.29L10.44 12.15L10.37 12.17" fill="white"/>
<path d="M10.49 12.29L10.37 12.2L10.41 12.14" fill="white"/>
<path d="M10.31 12.29L10.43 12.2L10.39 12.14" fill="white"/>
<path d="M10.31 12.29L10.36 12.15L10.43 12.17" fill="white"/>
<path d="M13.14 11.67L13.1 11.78L13.16 11.8" fill="white"/>
<path d="M13.1401 11.67L13.1801 11.78L13.1201 11.8" fill="white"/>
<path d="M13.2601 11.75H13.1401V11.81" fill="white"/>
<path d="M13.2601 11.75L13.1601 11.82L13.1201 11.77" fill="white"/>
<path d="M13.03 11.75L13.13 11.82L13.17 11.77" fill="white"/>
<path d="M13.03 11.75H13.15V11.81" fill="white"/>
<path d="M13.21 11.89L13.17 11.78L13.11 11.8" fill="white"/>
<path d="M13.21 11.89L13.11 11.82L13.15 11.77" fill="white"/>
<path d="M13.07 11.89L13.17 11.82L13.13 11.77" fill="white"/>
<path d="M13.07 11.89L13.11 11.78L13.17 11.8" fill="white"/>
<path d="M12 13.71L11.94 13.88L12.03 13.91" fill="white"/>
<path d="M12 13.71L12.06 13.88L11.97 13.91" fill="white"/>
<path d="M12.1701 13.83H11.9901V13.92" fill="white"/>
<path d="M12.17 13.83L12.02 13.94L11.97 13.87" fill="white"/>
<path d="M11.83 13.83L11.98 13.94L12.03 13.87" fill="white"/>
<path d="M11.83 13.83H12.01V13.92" fill="white"/>
<path d="M12.11 14.03L12.05 13.86L11.96 13.89" fill="white"/>
<path d="M12.11 14.03L11.96 13.92L12.01 13.85" fill="white"/>
<path d="M11.89 14.03L12.04 13.92L11.99 13.85" fill="white"/>
<path d="M11.89 14.03L11.95 13.86L12.04 13.89" fill="white"/>
<path d="M12.49 12.9L12.44 13.04L12.51 13.06" fill="white"/>
<path d="M12.49 12.9L12.54 13.04L12.47 13.06" fill="white"/>
<path d="M12.63 13.01H12.48V13.09" fill="white"/>
<path d="M12.63 13.01L12.51 13.1L12.47 13.04" fill="white"/>
<path d="M12.34 13.01L12.46 13.1L12.5 13.04" fill="white"/>
<path d="M12.34 13.01H12.49V13.09" fill="white"/>
<path d="M12.57 13.17L12.52 13.03L12.45 13.05" fill="white"/>
<path d="M12.57 13.17L12.45 13.08L12.49 13.02" fill="white"/>
<path d="M12.4 13.17L12.52 13.08L12.48 13.02" fill="white"/>
<path d="M12.4 13.17L12.45 13.03L12.52 13.05" fill="white"/>
<path d="M12 12.52L11.95 12.66L12.02 12.68" fill="white"/>
<path d="M12 12.52L12.05 12.66L11.98 12.68" fill="white"/>
<path d="M12.14 12.63H11.99V12.71" fill="white"/>
<path d="M12.14 12.63L12.02 12.72L11.98 12.66" fill="white"/>
<path d="M11.86 12.63L11.98 12.72L12.02 12.66" fill="white"/>
<path d="M11.86 12.63H12.01V12.71" fill="white"/>
<path d="M12.09 12.8L12.04 12.66L11.97 12.68" fill="white"/>
<path d="M12.09 12.8L11.97 12.71L12.01 12.65" fill="white"/>
<path d="M11.91 12.8L12.03 12.71L11.99 12.65" fill="white"/>
<path d="M11.91 12.8L11.96 12.66L12.03 12.68" fill="white"/>
<path d="M11.58 12.93L11.54 13.04L11.6 13.06" fill="white"/>
<path d="M11.5801 12.93L11.6201 13.04L11.5601 13.06" fill="white"/>
<path d="M11.6901 13.01H11.5701V13.07" fill="white"/>
<path d="M11.69 13.01L11.59 13.08L11.55 13.03" fill="white"/>
<path d="M11.46 13.01L11.56 13.08L11.6 13.03" fill="white"/>
<path d="M11.46 13.01H11.58V13.07" fill="white"/>
<path d="M11.65 13.15L11.61 13.04L11.55 13.06" fill="white"/>
<path d="M11.65 13.15L11.55 13.08L11.59 13.03" fill="white"/>
<path d="M11.51 13.15L11.61 13.08L11.57 13.03" fill="white"/>
<path d="M11.51 13.15L11.55 13.04L11.61 13.06" fill="white"/>
<path d="M11.79 13.26L11.76 13.34H11.8" fill="white"/>
<path d="M11.79 13.26L11.82 13.34H11.78" fill="white"/>
<path d="M11.87 13.32H11.78V13.36" fill="white"/>
<path d="M11.87 13.32L11.8 13.37L11.77 13.34" fill="white"/>
<path d="M11.71 13.32L11.78 13.37L11.81 13.34" fill="white"/>
<path d="M11.71 13.32H11.8V13.36" fill="white"/>
<path d="M11.84 13.41L11.81 13.33H11.77" fill="white"/>
<path d="M11.84 13.41L11.77 13.36L11.8 13.33" fill="white"/>
<path d="M11.7401 13.41L11.8101 13.36L11.7801 13.33" fill="white"/>
<path d="M11.7401 13.41L11.7701 13.33H11.8101" fill="white"/>
<path d="M13.26 14.68L13.21 14.82L13.28 14.84" fill="white"/>
<path d="M13.26 14.68L13.31 14.82L13.24 14.84" fill="white"/>
<path d="M13.4 14.78H13.25V14.86" fill="white"/>
<path d="M13.4 14.78L13.28 14.87L13.24 14.81" fill="white"/>
<path d="M13.11 14.78L13.23 14.87L13.27 14.81" fill="white"/>
<path d="M13.11 14.78H13.26V14.86" fill="white"/>
<path d="M13.35 14.95L13.3 14.81L13.23 14.83" fill="white"/>
<path d="M13.35 14.95L13.23 14.86L13.27 14.8" fill="white"/>
<path d="M13.17 14.95L13.29 14.86L13.25 14.8" fill="white"/>
<path d="M13.17 14.95L13.22 14.81L13.29 14.83" fill="white"/>
<path d="M13.62 14.34L13.58 14.45L13.64 14.47" fill="white"/>
<path d="M13.62 14.34L13.66 14.45L13.6 14.47" fill="white"/>
<path d="M13.73 14.42H13.61V14.48" fill="white"/>
<path d="M13.73 14.42L13.63 14.49L13.59 14.44" fill="white"/>
<path d="M13.5 14.42L13.6 14.49L13.64 14.44" fill="white"/>
<path d="M13.5 14.42H13.62V14.48" fill="white"/>
<path d="M13.69 14.55L13.65 14.44L13.59 14.46" fill="white"/>
<path d="M13.69 14.55L13.59 14.48L13.63 14.43" fill="white"/>
<path d="M13.55 14.55L13.65 14.48L13.61 14.43" fill="white"/>
<path d="M13.55 14.55L13.59 14.44L13.65 14.46" fill="white"/>
<path d="M12.93 14.23L12.89 14.34L12.95 14.36" fill="white"/>
<path d="M12.93 14.23L12.97 14.34L12.91 14.36" fill="white"/>
<path d="M13.04 14.32H12.92V14.38" fill="white"/>
<path d="M13.04 14.32L12.94 14.39L12.9 14.34" fill="white"/>
<path d="M12.81 14.32L12.91 14.39L12.95 14.34" fill="white"/>
<path d="M12.81 14.32H12.93V14.38" fill="white"/>
<path d="M13 14.45L12.96 14.34L12.9 14.36" fill="white"/>
<path d="M13 14.45L12.9 14.38L12.94 14.33" fill="white"/>
<path d="M12.86 14.45L12.96 14.38L12.92 14.33" fill="white"/>
<path d="M12.86 14.45L12.9 14.34L12.96 14.36" fill="white"/>
<path d="M10.31 14.05L10.25 14.22L10.34 14.25" fill="white"/>
<path d="M10.31 14.05L10.37 14.22L10.28 14.25" fill="white"/>
<path d="M10.4901 14.17H10.3101V14.26" fill="white"/>
<path d="M10.49 14.17L10.34 14.28L10.29 14.21" fill="white"/>
<path d="M10.14 14.17L10.29 14.28L10.34 14.21" fill="white"/>
<path d="M10.14 14.17H10.32V14.26" fill="white"/>
<path d="M10.42 14.37L10.36 14.2L10.27 14.23" fill="white"/>
<path d="M10.42 14.37L10.27 14.26L10.32 14.19" fill="white"/>
<path d="M10.21 14.37L10.36 14.26L10.31 14.19" fill="white"/>
<path d="M10.21 14.37L10.27 14.2L10.36 14.23" fill="white"/>
<path d="M12 15.23L11.98 15.29H12.01" fill="white"/>
<path d="M12 15.23L12.02 15.29H11.99" fill="white"/>
<path d="M12.06 15.27H12V15.3" fill="white"/>
<path d="M12.06 15.27L12.01 15.31L11.99 15.29" fill="white"/>
<path d="M11.94 15.27L11.99 15.31L12.01 15.29" fill="white"/>
<path d="M11.94 15.27H12V15.3" fill="white"/>
<path d="M12.04 15.33L12.02 15.27H11.99" fill="white"/>
<path d="M12.04 15.33L11.99 15.29L12.01 15.27" fill="white"/>
<path d="M11.96 15.33L12.01 15.29L11.99 15.27" fill="white"/>
<path d="M11.96 15.33L11.98 15.27H12.01" fill="white"/>
</g>
</g>
<defs>
<clipPath id="clip0_104_15939">
<rect width="24" height="24" fill="white"/>
</clipPath>
</defs>
</svg>
