<svg width="24" height="24" viewBox="0 0 24 24" fill="none" xmlns="http://www.w3.org/2000/svg">
<g clip-path="url(#clip0_170_17821)">
<mask id="mask0_170_17821" style="mask-type:luminance" maskUnits="userSpaceOnUse" x="0" y="0" width="24" height="24">
<path d="M12 24C18.6274 24 24 18.6274 24 12C24 5.37258 18.6274 0 12 0C5.37258 0 0 5.37258 0 12C0 18.6274 5.37258 24 12 24Z" fill="white"/>
</mask>
<g mask="url(#mask0_170_17821)">
<path d="M-6 0H30V24H-6V0Z" fill="#F7E017"/>
<path d="M-6 1.67V12.34L30 17.34V11.67L-6 1.67Z" fill="white"/>
<path d="M-6 7.33V12.33L30 22.33V17.33L-6 7.33Z" fill="black"/>
<path d="M11.32 17.9C10.78 17.83 10.28 17.65 9.93001 17.42C9.86001 17.37 9.80001 17.34 9.79001 17.34C9.78001 17.34 9.77001 17.39 9.77001 17.45C9.77001 17.63 9.70001 17.72 9.52001 17.77C9.35001 17.81 9.08001 17.72 8.87001 17.55C8.65001 17.37 8.39001 17.23 8.18001 17.17C8.00001 17.12 7.76001 17.13 7.59001 17.19C7.51001 17.22 7.42001 17.25 7.39001 17.27C7.36001 17.29 7.32001 17.31 7.31001 17.31C7.28001 17.31 7.28001 17.12 7.31001 17.06C7.35001 16.98 7.46001 16.9 7.58001 16.86C7.64001 16.84 7.69001 16.81 7.69001 16.8C7.69001 16.79 7.67001 16.74 7.64001 16.7C7.56001 16.56 7.59001 16.42 7.73001 16.31C7.88001 16.2 8.12001 16.18 8.34001 16.26C8.39001 16.28 8.45001 16.3 8.45001 16.3C8.48001 16.3 8.46001 16.26 8.38001 16.14C8.29001 16.01 8.27001 15.94 8.28001 15.78C8.29001 15.58 8.46001 15.42 8.66001 15.4C8.82001 15.39 8.93001 15.44 9.17001 15.67C9.89001 16.36 10.68 16.74 11.59 16.84C11.82 16.87 12.29 16.85 12.56 16.81C13.38 16.69 14.21 16.27 14.86 15.66C15.04 15.49 15.13 15.45 15.27 15.45C15.4 15.45 15.49 15.49 15.58 15.59C15.66 15.68 15.69 15.77 15.68 15.91C15.68 16 15.66 16.04 15.61 16.13C15.53 16.26 15.54 16.27 15.7 16.21C15.91 16.13 16.17 16.17 16.31 16.3C16.43 16.42 16.45 16.54 16.35 16.7C16.31 16.76 16.29 16.81 16.29 16.82C16.29 16.84 16.32 16.84 16.45 16.86C16.62 16.89 16.71 17.01 16.71 17.2C16.71 17.26 16.71 17.3 16.69 17.3C16.67 17.3 16.62 17.28 16.55 17.25C16.35 17.17 16.24 17.15 16.01 17.15C15.84 17.15 15.78 17.15 15.65 17.2C15.46 17.26 15.26 17.38 15.1 17.52C14.92 17.68 14.81 17.73 14.63 17.73C14.47 17.73 14.36 17.68 14.3 17.59C14.27 17.54 14.26 17.51 14.27 17.4C14.27 17.33 14.27 17.27 14.27 17.27C14.27 17.27 14.2 17.31 14.13 17.36C13.94 17.49 13.82 17.55 13.61 17.64C12.96 17.9 12.02 18.01 11.3 17.91L11.32 17.9ZM11.62 16.64C10.54 16.54 9.50001 15.97 8.87001 15.08C8.18001 14.15 7.97001 12.91 8.18001 11.78C8.29001 11.27 8.52001 10.75 8.90001 10.39C8.59001 11.04 8.49001 11.78 8.65001 12.48C8.90001 13.88 10.08 15.06 11.5 15.27C12.06 15.43 12.64 15.27 13.17 15.09C14.35 14.67 15.25 13.56 15.36 12.3C15.45 11.62 15.35 10.92 15.04 10.31C15.21 10.4 15.43 10.76 15.56 11C16.01 11.87 16.03 12.92 15.77 13.85C15.41 15.03 14.51 16.07 13.31 16.45C12.77 16.63 12.19 16.68 11.62 16.65V16.64Z" fill="#CF1126"/>
<path d="M6.15001 15.09C6.08001 15.08 6.00001 15.15 6.03001 15.22C6.08001 15.29 6.17001 15.33 6.25001 15.37C6.44001 15.45 6.65001 15.48 6.85001 15.47C6.78001 15.47 6.87001 15.47 6.90001 15.47C7.06001 15.47 7.22001 15.44 7.38001 15.39C7.46001 15.36 7.57001 15.33 7.61001 15.24C7.64001 15.18 7.58001 15.12 7.52001 15.13C7.43001 15.15 7.35001 15.19 7.27001 15.21C7.09001 15.26 6.89001 15.28 6.70001 15.27C6.56001 15.25 6.42001 15.21 6.29001 15.15C6.25001 15.13 6.20001 15.1 6.15001 15.1V15.09Z" fill="#CF1126"/>
<path d="M6.23001 14.8C6.16001 14.79 6.10001 14.87 6.13001 14.94C6.19001 15.02 6.28001 15.06 6.36001 15.1C6.51001 15.16 6.68001 15.19 6.84001 15.18C6.78001 15.18 6.86001 15.18 6.88001 15.18C7.02001 15.18 7.16001 15.15 7.28001 15.1C7.36001 15.07 7.45001 15.04 7.49001 14.95C7.52001 14.9 7.49001 14.83 7.44001 14.83C7.39001 14.83 7.34001 14.86 7.29001 14.88C7.11001 14.96 6.91001 14.99 6.71001 14.97C6.59001 14.95 6.47001 14.91 6.36001 14.86C6.32001 14.84 6.28001 14.81 6.23001 14.8ZM6.33001 14.52C6.27001 14.52 6.23001 14.58 6.24001 14.64C6.24001 14.69 6.29001 14.72 6.33001 14.75C6.48001 14.86 6.67001 14.91 6.85001 14.9C6.78001 14.9 6.95001 14.9 6.89001 14.9C7.01001 14.9 7.12001 14.87 7.23001 14.82C7.30001 14.79 7.38001 14.75 7.41001 14.67C7.42001 14.63 7.43001 14.58 7.39001 14.56C7.35001 14.54 7.30001 14.57 7.26001 14.59C7.13001 14.66 6.98001 14.7 6.82001 14.7C6.69001 14.7 6.57001 14.65 6.45001 14.59C6.41001 14.57 6.37001 14.53 6.33001 14.52ZM5.30001 10.39C5.21001 10.48 5.28001 10.65 5.27001 10.77C5.32001 11.14 5.38001 11.51 5.51001 11.86C5.68001 12.2 6.04001 12.38 6.26001 12.68C6.34001 12.82 6.31001 13 6.33001 13.16C6.34001 13.59 6.33001 14.02 6.33001 14.46C6.53001 14.56 6.74001 14.66 6.96001 14.62C7.09001 14.59 7.34001 14.57 7.37001 14.44L7.34001 12.2C7.26001 11.97 7.03001 11.85 6.86001 11.71C6.72001 11.57 6.58001 11.42 6.46001 11.26C6.39001 11.14 6.10001 11.09 6.20001 11.31C6.26001 11.5 6.42001 11.64 6.46001 11.83C6.46001 11.94 6.60001 12.14 6.49001 12.2C6.42001 12.08 6.32001 11.98 6.19001 11.92C6.07001 11.83 5.86001 11.79 5.81001 11.62C5.78001 11.39 5.66001 11.18 5.50001 11C5.54001 10.79 5.50001 10.53 5.32001 10.4H5.29001L5.30001 10.39ZM5.57001 10.43C5.49001 10.44 5.49001 10.55 5.53001 10.61C5.57001 10.73 5.58001 10.86 5.56001 10.99C5.71001 11.16 5.82001 11.37 5.86001 11.6C5.86001 11.69 5.95001 11.71 6.01001 11.76C6.15001 11.85 6.30001 11.91 6.42001 12.02C6.45001 12.05 6.47001 12.08 6.45001 12.02C6.43001 11.95 6.42001 11.87 6.37001 11.82C6.29001 11.74 6.20001 11.66 6.09001 11.64C6.09001 11.52 6.03001 11.42 5.97001 11.32C5.91001 11.22 5.85001 11.12 5.76001 11.05C5.76001 10.88 5.76001 10.7 5.69001 10.54C5.67001 10.5 5.64001 10.45 5.59001 10.45L5.57001 10.43ZM5.81001 10.5C5.75001 10.52 5.76001 10.59 5.78001 10.63C5.81001 10.75 5.81001 10.88 5.81001 11C5.92001 11.08 5.98001 11.21 6.04001 11.33C6.08001 11.41 6.11001 11.49 6.13001 11.58C6.22001 11.61 6.29001 11.66 6.36001 11.72C6.33001 11.64 6.27001 11.58 6.23001 11.5C6.19001 11.42 6.14001 11.34 6.13001 11.26C6.05001 11.17 6.00001 11.05 6.02001 10.92C6.02001 10.79 5.98001 10.65 5.89001 10.55C5.87001 10.53 5.84001 10.5 5.81001 10.5ZM6.07001 10.54C6.07001 10.54 6.02001 10.58 6.00001 10.6C6.00001 10.62 6.02001 10.65 6.03001 10.68C6.07001 10.77 6.08001 10.87 6.07001 10.97C6.07001 11.04 6.09001 11.11 6.13001 11.17C6.14001 11.13 6.18001 11.09 6.23001 11.09C6.25001 11.09 6.27001 11.09 6.26001 11.07C6.25001 10.94 6.23001 10.8 6.18001 10.67C6.16001 10.62 6.14001 10.58 6.10001 10.55C6.10001 10.55 6.08001 10.54 6.07001 10.55V10.54Z" fill="#CF1126"/>
<path d="M17.85 15.09C17.92 15.08 18 15.15 17.97 15.22C17.92 15.29 17.83 15.33 17.75 15.37C17.56 15.45 17.35 15.48 17.15 15.47C17.22 15.47 17.13 15.47 17.1 15.47C16.94 15.47 16.78 15.44 16.62 15.39C16.54 15.36 16.43 15.33 16.39 15.24C16.36 15.18 16.42 15.12 16.48 15.13C16.57 15.15 16.65 15.19 16.73 15.21C16.91 15.26 17.11 15.28 17.3 15.27C17.44 15.25 17.58 15.21 17.71 15.15C17.75 15.13 17.8 15.1 17.85 15.1V15.09Z" fill="#CF1126"/>
<path d="M17.77 14.8C17.84 14.79 17.9 14.87 17.87 14.94C17.81 15.02 17.72 15.06 17.64 15.1C17.49 15.16 17.32 15.19 17.16 15.18C17.22 15.18 17.14 15.18 17.12 15.18C16.98 15.18 16.84 15.15 16.72 15.1C16.64 15.07 16.55 15.04 16.51 14.95C16.48 14.9 16.51 14.83 16.56 14.83C16.61 14.83 16.66 14.86 16.71 14.88C16.89 14.96 17.09 14.99 17.29 14.97C17.41 14.95 17.53 14.91 17.64 14.86C17.68 14.84 17.72 14.81 17.77 14.8ZM17.67 14.52C17.73 14.52 17.77 14.58 17.76 14.64C17.76 14.69 17.71 14.72 17.67 14.75C17.52 14.86 17.33 14.91 17.15 14.9C17.22 14.9 17.05 14.9 17.11 14.9C16.99 14.9 16.88 14.87 16.77 14.82C16.7 14.79 16.62 14.75 16.59 14.67C16.58 14.63 16.57 14.58 16.61 14.56C16.65 14.54 16.7 14.57 16.74 14.59C16.87 14.66 17.02 14.7 17.18 14.7C17.31 14.7 17.43 14.65 17.55 14.59C17.59 14.57 17.63 14.53 17.67 14.52ZM18.7 10.39C18.79 10.48 18.72 10.65 18.73 10.77C18.68 11.14 18.62 11.51 18.49 11.86C18.32 12.2 17.96 12.38 17.74 12.68C17.66 12.82 17.69 13 17.67 13.16C17.66 13.59 17.67 14.02 17.67 14.46C17.47 14.56 17.26 14.66 17.04 14.62C16.91 14.59 16.66 14.57 16.63 14.44L16.66 12.2C16.74 11.97 16.97 11.85 17.14 11.71C17.28 11.57 17.42 11.42 17.54 11.26C17.61 11.14 17.9 11.09 17.8 11.31C17.74 11.5 17.58 11.64 17.54 11.83C17.54 11.94 17.4 12.14 17.51 12.2C17.58 12.08 17.68 11.98 17.81 11.92C17.93 11.83 18.14 11.79 18.19 11.62C18.22 11.39 18.34 11.18 18.5 11C18.46 10.79 18.5 10.53 18.68 10.4H18.71L18.7 10.39ZM18.43 10.43C18.51 10.44 18.51 10.55 18.47 10.61C18.43 10.73 18.42 10.86 18.44 10.99C18.29 11.16 18.18 11.37 18.14 11.6C18.14 11.69 18.05 11.71 17.99 11.76C17.85 11.85 17.7 11.91 17.58 12.02C17.55 12.05 17.53 12.08 17.55 12.02C17.57 11.95 17.58 11.87 17.63 11.82C17.71 11.74 17.8 11.66 17.91 11.64C17.91 11.52 17.97 11.42 18.03 11.32C18.09 11.22 18.15 11.12 18.24 11.05C18.24 10.88 18.24 10.7 18.31 10.54C18.33 10.5 18.36 10.45 18.41 10.45L18.43 10.43ZM18.19 10.5C18.25 10.52 18.24 10.59 18.22 10.63C18.19 10.75 18.19 10.88 18.19 11C18.08 11.08 18.02 11.21 17.96 11.33C17.92 11.41 17.89 11.49 17.87 11.58C17.78 11.61 17.71 11.66 17.64 11.72C17.67 11.64 17.73 11.58 17.77 11.5C17.81 11.42 17.86 11.34 17.87 11.26C17.95 11.17 18 11.05 17.98 10.92C17.98 10.79 18.02 10.65 18.11 10.55C18.13 10.53 18.16 10.5 18.19 10.5ZM17.93 10.54C17.93 10.54 17.98 10.58 18 10.6C18 10.62 17.98 10.65 17.97 10.68C17.93 10.77 17.92 10.87 17.93 10.97C17.93 11.04 17.91 11.11 17.87 11.17C17.86 11.13 17.82 11.09 17.77 11.09C17.75 11.09 17.73 11.09 17.74 11.07C17.75 10.94 17.77 10.8 17.82 10.67C17.84 10.62 17.86 10.58 17.9 10.55C17.9 10.55 17.92 10.54 17.93 10.55V10.54Z" fill="#CF1126"/>
<path d="M11.88 15.26C11.5 15.22 11.16 14.95 11.04 14.59C11.04 14.53 11.12 14.62 11.16 14.63C11.23 14.67 11.3 14.7 11.38 14.7C11.48 14.74 11.54 14.84 11.64 14.89C11.68 14.92 11.84 14.99 11.81 14.89C11.77 14.83 11.75 14.76 11.78 14.69C11.83 14.57 11.92 14.47 12 14.37C12.06 14.35 12.1 14.47 12.14 14.51C12.2 14.6 12.27 14.71 12.24 14.83C12.21 14.87 12.18 15 12.27 14.96C12.38 14.91 12.48 14.83 12.57 14.75C12.65 14.69 12.76 14.69 12.84 14.64C12.88 14.63 12.96 14.55 12.98 14.59C12.93 14.72 12.85 14.83 12.77 14.93C12.63 15.09 12.45 15.2 12.24 15.24C12.12 15.26 11.99 15.27 11.87 15.26H11.88ZM12.32 14.82C12.32 14.74 12.32 14.67 12.27 14.6C12.21 14.48 12.13 14.37 12.04 14.26C11.96 14.21 11.92 14.36 11.87 14.41C11.79 14.53 11.69 14.65 11.68 14.8C11.63 14.87 11.55 14.74 11.51 14.7C11.44 14.6 11.39 14.49 11.4 14.36C11.4 14.16 11.43 13.97 11.5 13.78C11.55 13.62 11.64 13.47 11.63 13.3C11.63 13.17 11.61 13.03 11.51 12.94C11.41 12.86 11.57 12.85 11.63 12.89C11.72 12.89 11.77 13.04 11.85 13.01C11.88 12.93 11.89 12.84 11.96 12.78C12.03 12.69 12.09 12.82 12.12 12.88C12.17 12.93 12.12 13.06 12.19 13.07C12.28 13.01 12.34 12.9 12.46 12.88C12.51 12.85 12.59 12.88 12.52 12.93C12.43 13.01 12.36 13.11 12.35 13.23C12.32 13.38 12.36 13.53 12.43 13.66C12.56 13.92 12.65 14.22 12.59 14.52C12.56 14.65 12.47 14.76 12.36 14.84C12.35 14.84 12.32 14.84 12.32 14.83V14.82ZM12.19 12.83C12.15 12.76 12.1 12.68 12.03 12.63C11.96 12.63 11.92 12.71 11.88 12.76C11.85 12.82 11.81 12.92 11.73 12.84C11.61 12.77 11.58 12.61 11.58 12.48C11.58 12.27 11.66 12.07 11.73 11.87C11.78 11.75 11.77 11.61 11.73 11.49C11.69 11.35 11.58 11.25 11.49 11.14C11.49 11.1 11.61 11.12 11.65 11.13C11.74 11.15 11.8 11.24 11.87 11.3C11.92 11.28 11.9 11.18 11.92 11.14C11.92 11.07 12.01 10.98 12.05 11.08C12.11 11.14 12.05 11.26 12.12 11.3C12.19 11.27 12.22 11.2 12.28 11.17C12.34 11.13 12.43 11.12 12.5 11.16C12.52 11.22 12.43 11.27 12.4 11.33C12.29 11.47 12.25 11.66 12.29 11.84C12.33 11.98 12.4 12.1 12.42 12.25C12.45 12.41 12.45 12.58 12.41 12.73C12.39 12.83 12.3 12.89 12.22 12.93C12.2 12.91 12.19 12.88 12.17 12.86L12.19 12.83ZM11.76 11.07C11.67 11 11.63 10.93 11.63 10.8C11.63 10.73 11.64 10.7 11.69 10.64C11.75 10.55 11.74 10.52 11.65 10.55C11.5 10.59 11.43 10.55 11.43 10.43C11.43 10.37 11.44 10.34 11.52 10.24C11.59 10.16 11.61 10.12 11.6 10.11C11.59 10.1 11.51 10.17 11.35 10.33C11.22 10.46 11.08 10.59 11.03 10.63C10.75 10.82 10.49 10.85 10.37 10.7C10.31 10.63 10.31 10.59 10.38 10.54C10.41 10.52 10.47 10.47 10.5 10.44C10.58 10.35 10.83 10.18 10.95 10.11C11.05 10.06 11.07 10.03 11.01 10.03C10.93 10.03 10.66 10.2 10.45 10.39C10.39 10.45 10.3 10.51 10.26 10.53C10.16 10.57 9.96 10.59 9.87 10.56C9.81 10.54 9.69 10.43 9.69 10.39C9.69 10.38 9.72 10.36 9.75 10.34C9.78 10.32 9.84 10.28 9.88 10.25C10.04 10.11 10.35 9.96 10.6 9.91C10.68 9.89 10.65 9.85 10.56 9.86C10.39 9.86 10.06 10.02 9.86 10.19C9.63 10.38 9.27 10.36 9.16 10.15C9.14 10.11 9.13 10.08 9.13 10.07C9.13 10.07 9.2 10.04 9.28 10.02C9.37 10 9.54 9.93 9.7 9.85C9.96 9.72 10.03 9.7 10.21 9.67C10.29 9.66 10.29 9.62 10.21 9.61C10.11 9.6 9.96 9.65 9.69 9.78C9.34 9.95 9.25 9.98 9.07 9.97C8.9 9.96 8.81 9.92 8.68 9.79C8.59 9.71 8.47 9.49 8.49 9.47C8.49 9.47 8.54 9.47 8.58 9.48C8.63 9.49 8.77 9.5 8.93 9.5C9.16 9.5 9.23 9.5 9.35 9.46C9.56 9.4 9.84 9.26 10.02 9.12C10.38 8.85 10.68 8.74 11.05 8.74C11.4 8.74 11.62 8.82 11.82 9.02C11.89 9.09 11.94 9.13 11.95 9.12C11.95 9.12 11.97 8.99 11.97 8.86C11.97 8.86 12.07 8.86 12.09 8.88C12.09 9.1 12.09 9.12 12.12 9.12C12.14 9.12 12.16 9.1 12.18 9.07C12.21 9 12.32 8.9 12.44 8.84C12.69 8.71 13.13 8.71 13.49 8.84C13.64 8.89 13.8 8.99 13.96 9.11C14.12 9.23 14.44 9.39 14.63 9.45C14.82 9.5 15.16 9.52 15.34 9.48C15.41 9.46 15.48 9.45 15.49 9.45C15.55 9.45 15.44 9.66 15.32 9.79C15.08 10.02 14.78 10.02 14.35 9.79C14.08 9.65 13.76 9.57 13.76 9.65C13.76 9.67 13.78 9.68 13.8 9.68C13.89 9.68 14.07 9.74 14.32 9.86C14.59 9.99 14.74 10.04 14.84 10.04C14.91 10.04 14.91 10.08 14.84 10.17C14.78 10.27 14.66 10.31 14.51 10.31C14.36 10.31 14.28 10.28 14.15 10.17C13.93 9.98 13.37 9.78 13.39 9.89C13.39 9.91 13.42 9.93 13.48 9.93C13.67 9.96 13.9 10.07 14.13 10.24C14.2 10.29 14.28 10.35 14.29 10.36C14.32 10.38 14.32 10.38 14.29 10.43C14.25 10.51 14.14 10.57 14.03 10.58C13.88 10.6 13.76 10.55 13.62 10.44C13.34 10.21 13.08 10.04 12.99 10.04C12.92 10.04 12.95 10.08 13.07 10.14C13.23 10.22 13.39 10.34 13.51 10.45C13.57 10.5 13.63 10.56 13.65 10.57C13.7 10.6 13.7 10.64 13.65 10.71C13.59 10.78 13.5 10.82 13.38 10.8C13.14 10.77 12.95 10.66 12.65 10.35C12.53 10.23 12.43 10.13 12.42 10.13C12.38 10.13 12.4 10.18 12.48 10.27C12.58 10.38 12.59 10.44 12.56 10.52C12.53 10.6 12.48 10.61 12.37 10.58C12.26 10.55 12.24 10.58 12.31 10.67C12.42 10.81 12.4 10.97 12.27 11.08C12.23 11.12 12.19 11.14 12.17 11.14C12.15 11.14 12.13 11.11 12.1 11.07C12.01 10.94 11.94 10.94 11.86 11.07C11.83 11.12 11.81 11.15 11.81 11.15C11.81 11.15 11.77 11.12 11.72 11.09L11.76 11.07Z" fill="#CF1126"/>
<path d="M12.19 8.43L12.05 8.54L11.92 8.44V9.22H12.19V8.42V8.43ZM11.29 7.62C11.26 7.99 11.17 8.25 11.04 8.53L11.35 8.24L11.57 8.5L11.81 8.24L12.05 8.46L12.28 8.23L12.52 8.51L12.73 8.28L13.08 8.53C12.95 8.25 12.78 8.01 12.8 7.61C12.46 7.86 11.65 7.91 11.3 7.62H11.29ZM11.91 7.43C11.78 7.43 11.65 7.43 11.53 7.46C11.45 7.48 11.37 7.5 11.31 7.55C11.32 7.79 12.46 7.89 12.77 7.55C12.71 7.5 12.63 7.48 12.54 7.46C12.43 7.44 12.3 7.44 12.18 7.43V7.63H11.91V7.43ZM12.14 6.21H11.96V7.6H12.14V6.21Z" fill="#CF1126"/>
<path d="M12.14 6.24L12.07 6.9L12.75 7.23L12.4 6.77L12.87 6.62L12.13 6.24H12.14Z" fill="#CF1126"/>
<path d="M12.06 6.07C11.96 6.07 11.88 6.11 11.88 6.15C11.88 6.19 11.96 6.24 12.06 6.24C12.16 6.24 12.24 6.2 12.24 6.15C12.24 6.1 12.16 6.07 12.06 6.07Z" fill="#CF1126"/>
<path d="M11.75 17.73C11.86 17.69 11.93 17.62 11.97 17.49C11.99 17.42 12.01 17.36 12 17.34C12 17.3 11.94 17.3 11.89 17.34C11.85 17.37 11.85 17.39 11.86 17.45C11.89 17.61 11.83 17.65 11.53 17.68C11.5 17.68 11.42 17.68 11.34 17.67C11.2 17.65 11.15 17.67 11.2 17.71C11.22 17.72 11.25 17.74 11.29 17.75C11.37 17.77 11.66 17.75 11.75 17.73ZM12.37 17.7C12.37 17.7 12.44 17.66 12.5 17.64C12.57 17.62 12.61 17.59 12.64 17.55C12.73 17.42 12.71 17.31 12.58 17.16C12.51 17.08 12.48 17.08 12.42 17.17C12.37 17.25 12.37 17.25 12.44 17.27C12.48 17.27 12.51 17.31 12.53 17.34C12.61 17.47 12.58 17.55 12.47 17.55C12.37 17.55 12.34 17.57 12.31 17.63C12.3 17.66 12.28 17.7 12.28 17.71C12.28 17.74 12.32 17.73 12.35 17.71L12.37 17.7ZM12.16 17.56C12.18 17.51 12.19 17.42 12.18 17.23C12.18 17.09 12.18 16.96 12.17 16.96C12.15 16.94 12.07 17 12.06 17.03C12.06 17.05 12.06 17.09 12.08 17.12C12.11 17.17 12.11 17.22 12.1 17.41C12.09 17.66 12.1 17.7 12.16 17.56ZM11.69 17.44C11.69 17.44 11.71 17.3 11.72 17.23C11.73 17.16 11.74 17.07 11.75 17.03C11.78 16.93 11.75 16.91 11.67 16.96L11.61 17V17.14C11.63 17.27 11.61 17.5 11.58 17.59C11.58 17.61 11.58 17.61 11.62 17.57C11.65 17.54 11.67 17.48 11.68 17.43L11.69 17.44ZM11.27 17.51C11.37 17.42 11.36 17.28 11.38 17.16C11.38 17.08 11.43 16.99 11.4 16.92C11.3 16.94 11.24 17.03 11.29 17.12C11.29 17.23 11.29 17.34 11.24 17.43C11.2 17.49 11.06 17.48 11.06 17.39C11.1 17.26 10.94 17.32 10.88 17.36C10.83 17.39 10.73 17.4 10.77 17.31C10.75 17.2 10.61 17.27 10.53 17.27C10.46 17.27 10.53 17.12 10.42 17.15C10.23 17.13 10.02 17.15 9.85 17.04C9.75 16.99 9.77 16.88 9.82 16.8C9.88 16.7 9.9 16.57 9.99 16.49C10.08 16.4 9.9 16.44 9.86 16.47C9.77 16.52 9.86 16.65 9.78 16.72C9.74 16.79 9.68 16.9 9.58 16.88C9.43 16.85 9.35 16.72 9.24 16.62C9.15 16.6 9.2 16.77 9.24 16.8C9.33 16.87 9.44 16.92 9.55 16.95C9.66 16.93 9.66 17.08 9.76 17.1C9.93 17.18 10.13 17.21 10.32 17.22C10.39 17.22 10.35 17.36 10.45 17.33C10.5 17.34 10.63 17.31 10.63 17.37C10.55 17.47 10.71 17.47 10.77 17.45C10.85 17.44 10.95 17.41 10.97 17.51C11.03 17.58 11.15 17.57 11.23 17.53C11.24 17.53 11.25 17.52 11.26 17.51H11.27ZM9.59 16.66C9.59 16.66 9.67 16.54 9.69 16.48C9.72 16.42 9.75 16.35 9.78 16.33C9.83 16.28 9.8 16.24 9.72 16.26C9.68 16.26 9.66 16.28 9.65 16.32C9.63 16.44 9.58 16.56 9.54 16.62C9.47 16.72 9.47 16.73 9.5 16.73C9.51 16.73 9.55 16.7 9.58 16.66H9.59ZM8.53 16C8.45 16 8.45 16.05 8.53 16.08C8.57 16.09 8.6 16.12 8.62 16.18C8.69 16.33 8.74 16.36 8.94 16.37H9.07V16.46C9.07 16.5 9.08 16.54 9.09 16.54C9.1 16.54 9.15 16.52 9.2 16.49C9.29 16.44 9.38 16.33 9.38 16.26C9.38 16.22 9.31 16.17 9.24 16.17C9.21 16.17 9.15 16.19 9.11 16.23C8.97 16.33 8.82 16.31 8.73 16.18C8.66 16.07 8.59 16.01 8.53 16.01V16ZM9.22 16.27C9.22 16.27 9.27 16.3 9.25 16.35C9.24 16.39 9.19 16.39 9.18 16.35C9.16 16.31 9.18 16.27 9.23 16.27H9.22ZM14.55 16.1C14.5 16.1 14.48 16.11 14.45 16.16C14.4 16.24 14.39 16.41 14.45 16.47C14.48 16.51 14.49 16.51 14.55 16.48C14.64 16.44 14.66 16.44 14.66 16.49C14.66 16.61 14.48 16.85 14.29 16.98C14.24 17.01 14.19 17.05 14.19 17.07C14.18 17.11 14.25 17.1 14.33 17.05C14.45 16.99 14.6 16.84 14.66 16.71C14.71 16.61 14.72 16.58 14.72 16.41C14.72 16.25 14.72 16.21 14.69 16.15C14.66 16.09 14.65 16.09 14.58 16.09H14.56L14.55 16.1ZM14.56 16.21C14.56 16.21 14.61 16.21 14.61 16.27C14.61 16.32 14.61 16.34 14.58 16.37C14.55 16.4 14.54 16.4 14.51 16.35C14.47 16.28 14.49 16.2 14.56 16.2V16.21ZM13.71 17.41C13.87 17.33 13.97 17.24 14.03 17.11C14.06 17.05 14.08 16.99 14.08 16.98C14.08 16.96 14 16.92 13.95 16.92C13.9 16.92 13.89 16.89 13.91 16.79C13.93 16.7 13.91 16.59 13.87 16.59C13.86 16.59 13.83 16.61 13.81 16.64C13.78 16.68 13.78 16.7 13.81 16.75C13.84 16.84 13.81 16.9 13.74 16.95C13.7 16.98 13.68 17.01 13.68 17.03C13.68 17.05 13.68 17.07 13.68 17.07C13.68 17.07 13.72 17.05 13.77 17.02L13.85 16.97L13.9 17.01C13.9 17.01 13.95 17.06 13.95 17.09C13.95 17.19 13.66 17.36 13.47 17.37C13.37 17.37 13.35 17.37 13.31 17.34C13.28 17.31 13.27 17.29 13.28 17.25L13.3 17.14C13.32 17.05 13.28 17.06 13.22 17.17C13.17 17.25 13.15 17.34 13.18 17.39C13.2 17.43 13.37 17.47 13.48 17.46C13.55 17.46 13.62 17.44 13.7 17.4L13.71 17.41ZM14.8 16.79C14.9 16.69 14.95 16.56 14.95 16.37V16.22L15.04 16.18C15.15 16.13 15.26 16.02 15.26 15.96C15.26 15.9 15.23 15.9 15.18 15.96C15.14 16.01 15.1 16.04 14.93 16.12C14.89 16.14 14.88 16.15 14.87 16.33C14.86 16.54 14.83 16.62 14.71 16.76C14.64 16.85 14.64 16.86 14.69 16.86C14.71 16.86 14.76 16.82 14.81 16.78L14.8 16.79ZM13.68 16.68C13.68 16.68 13.63 16.63 13.61 16.65C13.6 16.66 13.6 16.68 13.61 16.69C13.63 16.72 13.68 16.71 13.69 16.68H13.68ZM15.23 16.27C15.23 16.27 15.18 16.22 15.16 16.24C15.15 16.25 15.15 16.27 15.16 16.28C15.18 16.31 15.23 16.3 15.24 16.27H15.23ZM13.36 15.19C13.36 15.19 13.3 15.25 13.27 15.29C13.25 15.3 13.27 15.32 13.27 15.33C13.34 15.41 13.37 15.51 13.4 15.61C13.43 15.72 13.47 15.85 13.44 15.96C13.43 16.01 13.39 16.05 13.34 16.04C13.25 16.04 13.17 16.01 13.09 16.01C13.01 16.01 12.96 16.08 12.88 16.08C12.83 16.08 12.83 15.98 12.79 16.01C12.77 16.06 12.78 16.13 12.78 16.18C12.78 16.18 12.81 16.18 12.83 16.18H12.98C12.99 16.23 12.98 16.29 13.03 16.34C13.08 16.36 13.14 16.34 13.19 16.32C13.24 16.29 13.25 16.23 13.27 16.18C13.29 16.13 13.36 16.14 13.4 16.12C13.5 16.09 13.57 15.98 13.56 15.88C13.56 15.72 13.49 15.57 13.45 15.42C13.43 15.35 13.41 15.28 13.38 15.22C13.38 15.22 13.38 15.21 13.36 15.22V15.19ZM13.11 16.11C13.17 16.11 13.19 16.18 13.18 16.22C13.16 16.28 13.08 16.24 13.06 16.2C13.03 16.16 13.05 16.1 13.11 16.11ZM10.99 15.58C10.99 15.58 10.94 15.58 10.91 15.61C10.76 15.71 10.72 15.84 10.82 15.89C10.89 15.93 10.88 15.97 10.76 16.03C10.59 16.11 10.44 16.1 10.16 15.99C10.09 15.96 10.07 15.97 10.09 16.04C10.11 16.1 10.16 16.14 10.3 16.17C10.45 16.2 10.64 16.19 10.75 16.14C10.81 16.12 10.88 16.06 10.93 16L11.02 15.9H11.13C11.26 15.93 11.26 15.93 11.26 15.99C11.26 16.04 11.26 16.04 11.38 16.05C11.45 16.05 11.54 16.06 11.58 16.06C11.63 16.06 11.66 16.06 11.68 16.09C11.7 16.12 11.72 16.12 11.92 16.11C12.11 16.09 12.14 16.09 12.22 16.12C12.28 16.14 12.34 16.15 12.39 16.14C12.53 16.12 12.73 16.01 12.76 15.92C12.76 15.91 12.81 15.89 12.87 15.88C13.01 15.85 13.02 15.82 12.89 15.8C12.83 15.8 12.75 15.77 12.7 15.75C12.65 15.73 12.59 15.71 12.55 15.71C12.48 15.71 12.41 15.75 12.41 15.8C12.41 15.83 12.42 15.83 12.51 15.82C12.59 15.82 12.61 15.82 12.66 15.85C12.69 15.87 12.71 15.9 12.7 15.91C12.68 15.94 12.51 16.02 12.44 16.03C12.39 16.03 12.35 16.03 12.31 16.01C12.25 15.98 12.15 15.97 12.13 16.01C12.13 16.02 12.1 16.01 12.07 15.99L12.03 15.95L11.93 15.99C11.83 16.03 11.79 16.03 11.79 15.99C11.79 15.97 11.76 15.97 11.61 15.98C11.45 15.99 11.43 15.98 11.4 15.95C11.37 15.92 11.37 15.91 11.4 15.88C11.42 15.85 11.42 15.84 11.4 15.82C11.38 15.8 11.36 15.8 11.29 15.82C11.13 15.86 11.08 15.84 11.08 15.71C11.08 15.63 11.04 15.59 10.98 15.59L10.99 15.58ZM10.95 15.69C10.95 15.69 10.97 15.69 10.98 15.71C10.99 15.72 11 15.75 11 15.77C10.99 15.81 10.92 15.81 10.9 15.77C10.9 15.75 10.9 15.73 10.92 15.72C10.93 15.71 10.94 15.7 10.95 15.7V15.69ZM10.65 15.81C10.75 15.75 10.75 15.75 10.76 15.58C10.76 15.46 10.76 15.45 10.73 15.45C10.68 15.45 10.66 15.5 10.66 15.61C10.66 15.68 10.65 15.7 10.62 15.74C10.54 15.82 10.33 15.78 10.31 15.68C10.31 15.64 10.31 15.61 10.36 15.55C10.45 15.42 10.43 15.39 10.32 15.49C10.24 15.56 10.23 15.56 10.25 15.5C10.26 15.45 10.24 15.43 10.17 15.44C10.14 15.44 10.12 15.47 10.11 15.51C10.11 15.55 10.09 15.57 10.06 15.58C10.01 15.59 9.93 15.55 9.93 15.51C9.93 15.48 10.06 15.32 10.22 15.16C10.28 15.1 10.33 15.04 10.33 15.03C10.33 15.02 10.3 15.01 10.26 15.01C10.2 15.01 10.19 15.01 10.19 15.04C10.19 15.06 10.11 15.17 10.01 15.28C9.8 15.52 9.78 15.57 9.89 15.63C9.97 15.68 10.08 15.68 10.16 15.63L10.23 15.58V15.66C10.23 15.77 10.25 15.81 10.34 15.85C10.45 15.91 10.57 15.9 10.68 15.83L10.65 15.81ZM15.06 14.35C14.98 14.4 15.04 14.49 15.06 14.56C15.03 14.65 14.91 14.67 14.83 14.69C14.71 14.71 14.63 14.81 14.58 14.91C14.56 14.98 14.5 15.08 14.43 14.98C14.37 14.92 14.27 14.88 14.21 14.94C14.16 14.99 14.15 15.06 14.13 15.12C14.1 15.07 14.09 15 14.03 14.98C13.93 14.99 13.97 15.12 14.01 15.17C14.05 15.23 14.09 15.31 14.05 15.38C14.01 15.47 13.89 15.52 13.81 15.45C13.74 15.41 13.79 15.28 13.72 15.28C13.69 15.3 13.68 15.44 13.63 15.37C13.59 15.31 13.61 15.22 13.56 15.16C13.5 15.16 13.46 15.26 13.48 15.32C13.56 15.42 13.59 15.55 13.62 15.67C13.64 15.72 13.62 15.82 13.66 15.84C13.69 15.76 13.66 15.67 13.69 15.59C13.76 15.59 13.85 15.61 13.92 15.59C14.03 15.58 14.12 15.48 14.15 15.38C14.16 15.31 14.15 15.23 14.15 15.15C14.24 15.16 14.33 15.16 14.41 15.19C14.45 15.25 14.4 15.34 14.39 15.41C14.35 15.55 14.23 15.66 14.13 15.75C14.08 15.78 14.08 15.85 14.15 15.81C14.3 15.75 14.4 15.62 14.47 15.47C14.52 15.36 14.47 15.24 14.51 15.13C14.55 15.05 14.66 15.06 14.74 15.06C14.82 15.06 14.89 14.96 14.86 14.88C14.83 14.79 14.93 14.74 15 14.71C15.09 14.67 15.15 14.58 15.15 14.48C15.15 14.43 15.15 14.33 15.08 14.33L15.06 14.35ZM14.74 14.88C14.83 14.9 14.72 15.08 14.67 14.97C14.65 14.93 14.69 14.88 14.74 14.88ZM14.31 15.01C14.43 15.01 14.39 15.18 14.29 15.1C14.24 15.07 14.25 15.01 14.31 15.01ZM9.89 15.7C9.89 15.7 9.89 15.67 9.87 15.67C9.84 15.67 9.82 15.7 9.83 15.73C9.85 15.76 9.88 15.74 9.89 15.7ZM11.32 15.54C11.32 15.54 11.32 15.5 11.29 15.51C11.24 15.51 11.24 15.58 11.29 15.58C11.32 15.58 11.33 15.57 11.33 15.54H11.32ZM9.55 14.68C9.49 14.67 9.46 14.72 9.44 14.76C9.4 14.83 9.35 14.91 9.27 14.94C9.21 14.96 9.15 14.94 9.11 14.91C9.05 14.88 9.07 14.81 9.04 14.77C9 14.74 8.93 14.78 8.93 14.83C8.93 14.9 8.99 14.94 9.04 14.96C9.08 14.99 9.15 15 9.17 15.06C9.17 15.11 9.19 15.16 9.24 15.14C9.3 15.14 9.32 15.22 9.29 15.26C9.26 15.31 9.25 15.37 9.26 15.43C9.29 15.46 9.32 15.39 9.34 15.37L9.38 15.31C9.49 15.31 9.6 15.33 9.72 15.33C9.8 15.33 9.87 15.28 9.92 15.22C9.99 15.14 10.05 15.06 10.13 14.99C10.19 14.98 10.16 14.87 10.1 14.9C10.04 14.92 10.03 14.98 9.99 15.02C9.92 15.1 9.86 15.18 9.78 15.24C9.72 15.26 9.65 15.25 9.59 15.24C9.56 15.22 9.64 15.2 9.65 15.17C9.69 15.13 9.73 15.1 9.75 15.06C9.73 15.02 9.67 15.01 9.63 15.01C9.53 15.02 9.45 15.11 9.34 15.12C9.26 15.12 9.3 15.04 9.34 15.01C9.41 14.93 9.49 14.85 9.56 14.77C9.58 14.75 9.66 14.72 9.61 14.69C9.59 14.69 9.58 14.69 9.56 14.69L9.55 14.68ZM9.61 15.1C9.66 15.13 9.58 15.18 9.54 15.17C9.49 15.18 9.49 15.14 9.54 15.13C9.56 15.12 9.59 15.1 9.62 15.1H9.61ZM9.44 15.21C9.44 15.21 9.53 15.24 9.47 15.26C9.43 15.29 9.38 15.23 9.44 15.21ZM10.71 15.28C10.71 15.28 10.64 15.25 10.63 15.28C10.63 15.31 10.63 15.31 10.67 15.31C10.69 15.31 10.71 15.29 10.71 15.28ZM13.86 15C13.86 15 13.81 14.94 13.79 14.96C13.77 14.98 13.79 15.04 13.83 15.03C13.85 15.03 13.86 15.01 13.87 14.99L13.86 15ZM8.96 14.62C8.96 14.62 9.01 14.57 8.99 14.48C8.96 14.35 8.96 14.34 9.01 14.32C9.07 14.3 9.23 14.39 9.27 14.46C9.3 14.51 9.3 14.52 9.25 14.56C9.2 14.61 9.2 14.66 9.25 14.66C9.29 14.66 9.41 14.55 9.41 14.51C9.41 14.46 9.28 14.33 9.18 14.28C9.12 14.25 9.06 14.24 8.98 14.24C8.85 14.24 8.83 14.27 8.87 14.42C8.91 14.6 8.86 14.62 8.71 14.49C8.6 14.39 8.56 14.29 8.56 14.13C8.56 13.96 8.63 13.87 8.78 13.85C8.88 13.84 8.88 13.81 8.78 13.8C8.63 13.78 8.51 13.88 8.46 14.05C8.41 14.25 8.53 14.49 8.74 14.61C8.85 14.67 8.9 14.68 8.96 14.62ZM14.83 14.4C14.83 14.4 14.85 14.36 14.85 14.34C14.85 14.32 14.87 14.27 14.9 14.24C14.93 14.21 14.95 14.17 14.95 14.16C14.95 14.13 14.89 14.13 14.85 14.16C14.8 14.2 14.77 14.2 14.77 14.16C14.77 14.16 14.79 14.13 14.82 14.12C14.89 14.09 14.89 14.06 14.84 14.03C14.77 14 14.69 14.06 14.69 14.16C14.69 14.23 14.69 14.24 14.74 14.27C14.79 14.3 14.8 14.31 14.79 14.35C14.78 14.42 14.8 14.44 14.85 14.4H14.83ZM15.38 14.34C15.38 14.34 15.45 14.26 15.45 14.25C15.45 14.24 15.48 14.2 15.53 14.17C15.65 14.08 15.68 13.99 15.62 13.86C15.6 13.81 15.53 13.73 15.39 13.6C15.28 13.5 15.18 13.42 15.16 13.42C15.12 13.42 15.13 13.56 15.16 13.58C15.23 13.6 15.28 13.63 15.39 13.73C15.52 13.85 15.58 13.96 15.55 14.02C15.52 14.08 15.48 14.06 15.36 13.94C15.3 13.87 15.24 13.82 15.23 13.82C15.22 13.82 15.21 13.84 15.21 13.88C15.21 13.92 15.23 13.96 15.29 14.03C15.39 14.14 15.4 14.2 15.32 14.26C15.29 14.28 15.27 14.3 15.26 14.3C15.25 14.3 15.23 14.27 15.21 14.23C15.17 14.15 14.92 13.88 14.88 13.88C14.86 13.88 14.85 13.9 14.85 13.94C14.85 13.99 14.86 14.01 14.9 14.03C14.95 14.06 15.07 14.18 15.2 14.33C15.24 14.37 15.27 14.41 15.28 14.41C15.28 14.41 15.33 14.38 15.37 14.34H15.38ZM15.63 13.63C15.61 13.58 15.28 13.23 15.24 13.23C15.22 13.23 15.22 13.25 15.22 13.31C15.22 13.38 15.23 13.39 15.28 13.4C15.31 13.4 15.4 13.48 15.48 13.55C15.56 13.63 15.63 13.69 15.63 13.68C15.63 13.68 15.63 13.65 15.63 13.63ZM13.62 17.54C13.62 17.54 13.6 17.59 13.57 17.59C13.54 17.59 13.52 17.57 13.52 17.55C13.52 17.52 13.54 17.5 13.57 17.5C13.6 17.5 13.62 17.52 13.62 17.54ZM13.79 17.48C13.79 17.48 13.77 17.53 13.74 17.53C13.71 17.53 13.69 17.51 13.69 17.49C13.69 17.46 13.71 17.44 13.74 17.44C13.77 17.44 13.79 17.46 13.79 17.48Z" fill="#F7E017"/>
<path d="M13.61 15.32V15.35L13.63 15.41V15.47L13.66 15.55V15.61L13.67 15.68L13.7 15.63V15.55L13.64 15.38L13.6 15.33L13.61 15.32Z" fill="#CF1126"/>
<path d="M13.83 15.61H13.8L13.78 15.59V15.57L13.75 15.54V15.5L13.72 15.46V15.42L13.71 15.38V15.34V15.31L13.65 15.4L13.7 15.62L13.84 15.6L13.83 15.61ZM13.72 15.29H13.73H13.74V15.28H13.71L13.72 15.29ZM14.13 15.13V15.16L14.15 15.18L14.21 15.2L14.19 15.17V15.14L14.17 15.1V15.06L14.19 14.98L14.12 15.09V15.14L14.13 15.13Z" fill="#CF1126"/>
<path d="M12.79 16.02L12.75 15.95V15.93L12.83 15.99L12.8 16.02H12.79Z" fill="#F7E017"/>
<path d="M12.76 15.93L12.82 16L12.78 16.05L12.74 15.95L12.76 15.93Z" fill="#F7E017"/>
<path d="M10.26 15.53L10.24 15.55V15.57L10.22 15.59V15.62L10.2 15.65V15.58V15.57L10.21 15.55V15.53V15.51L10.23 15.53H10.26Z" fill="#CF1126"/>
<path d="M10.17 15.58L10.19 15.56V15.54L10.22 15.51V15.48L10.23 15.45V15.51L10.18 15.59H10.16L10.17 15.58Z" fill="#CF1126"/>
<path d="M10.21 15.66V15.63V15.6V15.58L10.24 15.55L10.26 15.52L10.32 15.46H10.27L10.18 15.56V15.66H10.21ZM10.76 15.65V15.71L10.74 15.74L10.71 15.77L10.67 15.8L10.61 15.84H10.7L10.74 15.78L10.77 15.73V15.64L10.76 15.65ZM9.39 15.31H9.37L9.35 15.29H9.33L9.32 15.27V15.25L9.3 15.23V15.2L9.22 15.43L9.25 15.46H9.29L9.37 15.36V15.32L9.39 15.31ZM9.24 15.14H9.22H9.21V15.13V15.11V15.09V15.08V15.06H9.19V15.11V15.15L9.23 15.17H9.26H9.27L9.24 15.14Z" fill="#CF1126"/>
<path d="M9.25998 15.15H9.22998L9.21998 15.13H9.20998V15.11H9.19998V15.08H9.18998V15.06V15.04L9.16998 15.02V15.08L9.17998 15.16L9.20998 15.18L9.29998 15.15H9.25998Z" fill="#CF1126"/>
<path d="M12.77 15.91L12.82 16L12.78 16.05L12.74 15.96L12.77 15.91Z" fill="#F7E017"/>
<path d="M12.87 16.18H12.83L12.82 16.16H12.81V16.14V16.12V16.1L12.79 16.07L12.75 16.09V16.2L12.81 16.21H12.89L12.87 16.18ZM11.99 15.96H12.06L12.05 15.92L11.99 15.96Z" fill="#CF1126"/>
<path d="M11.98 15.97H12.06L11.99 15.92L11.97 15.97H11.98ZM8.6 16.13L8.58 16.09V16.07V16.06V16.03V16H8.53H8.44L8.46 16.05L8.54 16.08L8.6 16.13Z" fill="#CF1126"/>
<path d="M8.52001 15.99H8.45001L8.46001 16.01H8.50001L8.53001 15.99H8.52001ZM9.07001 16.37V16.39L9.09001 16.41H9.10001L9.12001 16.43H9.13001H9.15001H9.17001H9.22001H9.30001L9.07001 16.56V16.35V16.37Z" fill="#CF1126"/>
<path d="M9.09002 16.41V16.43H9.10002L9.12002 16.44H9.14002H9.18002H9.20002H9.23002H9.25002L9.08002 16.41H9.09002Z" fill="#F7E017"/>
<path d="M8.60002 16.14V16.12V16.11V16.09V16.08V16.06V16.04L8.57002 16.01H8.55002V16.06V16.12L8.59002 16.14H8.60002ZM12.4 17.68H12.38L12.37 17.69H12.36H12.35V17.68V17.66V17.61L12.3 17.73L12.34 17.76L12.43 17.69L12.4 17.68Z" fill="#CF1126"/>
<path d="M15.17 15.86V15.88L15.18 15.9V15.92V15.94V15.96L15.17 15.98L15.15 16.01L15.13 16.04L15.19 16.08L15.24 16.01V15.99L15.25 15.97V15.94V15.91V15.88L15.23 15.86V15.84L15.17 15.86Z" fill="#F7E017"/>
<path d="M15.27 14.3L15.26 14.31H15.24L15.22 14.33L15.19 14.3L15.23 14.24L15.27 14.3Z" fill="#CF1126"/>
<path d="M15.29 14.29L15.28 14.3L15.27 14.31V14.29L15.3 14.28L15.29 14.29Z" fill="#CF1126"/>
<path d="M15.32 14.27L15.22 14.34L15.33 14.27H15.32Z" fill="#CF1126"/>
<path d="M15.19 14.3H15.2L15.18 14.24L15.14 14.3H15.19ZM15.14 16.01H15.15L15.16 15.97V15.95V15.93V15.91V15.89V15.87V15.85V15.83L15.14 15.81V15.79H15.15H15.16L15.19 15.83L15.17 16L15.12 16.04L15.1 16L15.14 16.01Z" fill="#F7E017"/>
<path d="M15.13 15.8H15.18L15.1 15.78L15.13 15.8Z" fill="#CF1126"/>
<path d="M15.21 15.84V15.86H15.23V15.88H15.24V15.9V15.92V15.93V15.95V15.97V15.98V16H15.26L15.28 15.92V15.88L15.26 15.86L15.25 15.83H15.23L15.21 15.84ZM14.01 16.92L14.03 16.94V16.95V16.98V17.02V17.04V17.08L14.02 17.1V17.13L14.11 17V16.94L14.08 16.9H14.04L14.01 16.91V16.92ZM12.32 17.67H12.33L12.3 17.69H12.26L12.24 17.67V17.66L12.32 17.67ZM12.11 17.24V16.92L12.01 16.95L12.06 17.15L12.11 17.24Z" fill="#CF1126"/>
<path d="M9.56005 16.95H9.59005H9.60005L9.57005 16.94H9.55005L9.56005 16.95Z" fill="#F7E017"/>
<path d="M9.81004 16.65L9.95004 16.37L9.81004 16.43L9.79004 16.53L9.81004 16.65ZM9.93004 16.55L10 16.41L10.03 16.43L10 16.52L9.93004 16.57V16.55Z" fill="#CF1126"/>
<path d="M9.81001 16.65L9.77001 16.72H9.79001L9.80001 16.69V16.66L9.81001 16.65ZM9.59001 16.95H9.65001L9.60001 16.94H9.59001V16.95ZM9.10001 16.43H9.12001H9.14001H9.19001H9.21001H9.22001L9.18001 16.4H9.12001H9.07001L9.10001 16.43Z" fill="#F7E017"/>
<path d="M9.09002 16.41V16.42H9.11002H9.12002H9.15002H9.16002L9.13002 16.44H9.10002H9.04002H9.01002L8.99002 16.42V16.4L9.09002 16.41ZM8.61002 16.13V16.12V16.1V16.09V16.07V16.05V16.03L8.58002 16.09V16.13H8.61002ZM15.29 13.41L15.2 13.34V13.38L15.25 13.41H15.29ZM15.19 14.3H15.2L15.17 14.24L15.19 14.27V14.3V14.31H15.15L15.14 14.29L15.19 14.3ZM14.93 14.04L14.82 13.94V13.99L14.89 14.07H14.93V14.03V14.04Z" fill="#CF1126"/>
<path d="M12.01 15.96L11.87 16.03H12L12.01 15.96Z" fill="#F7E017"/>
<path d="M11.39 15.92L11.33 15.8L11.39 15.77L11.44 15.8V15.9L11.39 15.91V15.92Z" fill="#CF1126"/>
<path d="M11.21 15.83H11.34L11.32 15.77L11.21 15.8V15.82V15.83Z" fill="#CF1126"/>
<path d="M11.21 15.83H11.36L11.34 15.8L11.24 15.82H11.21V15.83Z" fill="#CF1126"/>
<path d="M11.39 15.92L11.32 15.78L11.38 15.83V15.92H11.39ZM11.9 16.01L12.01 15.97H12.02L12.06 16.01L11.96 15.94H11.91L11.82 16L11.9 16.01Z" fill="#CF1126"/>
<path d="M10.43 17.33H10.5L10.46 17.31L10.43 17.33Z" fill="#F7E017"/>
<path d="M10.14 15.08L10.24 14.96H10.19L10.16 15.02L10.14 15.09V15.08Z" fill="#CF1126"/>
<path d="M12.86 16.17H12.85V16.15V16.13V16.11L12.83 16.09V16.05L12.85 16.07L12.91 16.16V16.18L12.86 16.17Z" fill="#F7E017"/>
<path d="M14.14 15.16V15.19V15.22V15.3V15.33V15.37L14.13 15.42V15.44L14.1 15.48L14.04 15.56L14.15 15.52L14.19 15.42V15.31L14.13 15.16H14.14ZM13.84 15.61L13.8 15.59L13.77 15.57L13.75 15.54V15.52L13.72 15.47L13.7 15.42V15.31L13.68 15.35V15.5L13.75 15.62H13.83L13.84 15.61Z" fill="#CF1126"/>
<path d="M13.71 15.43V15.38V15.34V15.32L13.73 15.3H13.67V15.34L13.69 15.42V15.45L13.71 15.43ZM13.83 15.48L13.8 15.46H13.79V15.44H13.81L13.83 15.46V15.48Z" fill="#CF1126"/>
<path d="M13.85 15.61H13.83L13.81 15.6H13.79L13.77 15.57L13.75 15.53V15.5L13.72 15.45V15.42V15.4V15.36L13.69 15.41L13.77 15.6H13.86L13.85 15.61ZM14.03 15.21L13.96 15.08L13.92 15.12L14 15.19H14.03V15.21ZM14.01 14.99H14.03L14.04 15L14.07 15.04L14.09 15.08V15.11L14.12 15.14V15.16L14.13 15.18V15.31V15.34V15.41L14.08 15.5L14.02 15.56L14.17 15.49L14.2 15.35L14.16 15.18L14.09 15.01L14.01 14.99Z" fill="#CF1126"/>
<path d="M14.13 15.15V15.2L14.14 15.22V15.32V15.38V15.41L14.13 15.43L14.06 15.52H14.12L14.24 15.4L14.16 15.13H14.13V15.15ZM14.06 15.02V15.01H14.05V15H14.04V14.98H14.07V15C14.07 15 14.09 15.02 14.09 15.03L14.06 15.02Z" fill="#CF1126"/>
<path d="M14.13 15.14V15.17L14.14 15.19V15.15V15.13L14.12 15.15L14.13 15.14ZM13.74 15.29L13.76 15.31V15.33L13.78 15.32L13.76 15.29H13.74Z" fill="#CF1126"/>
<path d="M14.14 15.29V15.22L14.13 15.21V15.19L14.12 15.17V15.15L14.1 15.11L14.08 15.07V15.04L14.05 15V14.98L14.14 15.02L14.18 15.25L14.16 15.3L14.14 15.29Z" fill="#CF1126"/>
<path d="M14.13 15.23L14.11 15.17L14.09 15.12L14.07 15.08V15.05L14.04 15.03L14.02 14.99L14.13 15.13L14.15 15.25H14.12L14.13 15.23Z" fill="#CF1126"/>
<path d="M14.04 15L14.12 15.16L14.14 15.24V15.18L14.11 15.06L14.05 15.01L14.04 15ZM14.21 15.18V15.16V15.14V15.11L14.2 15.09V15.07V15.03V14.98L14.22 14.96L14.27 14.91H14.18L14.16 15.03L14.19 15.19H14.24L14.21 15.18Z" fill="#CF1126"/>
<path d="M14.21 15.18H14.2L14.19 15.15V15.11V15.08V15.04L14.21 15L14.25 14.94L14.19 14.99V15.18H14.23H14.21Z" fill="#CF1126"/>
<path d="M12.78 16.08L12.72 15.95L12.77 15.91L12.87 16.06L12.83 16.09H12.79L12.78 16.08Z" fill="#F7E017"/>
<path d="M15.17 14.27H15.19L15.2 14.28H15.22H15.23H15.24V14.25L15.23 14.2L15.27 14.26V14.29L15.23 14.31H15.17V14.26V14.27Z" fill="#CF1126"/>
<path d="M15.17 14.27H15.19H15.22L15.2 14.21V14.19L15.24 14.25V14.28L15.19 14.3L15.16 14.26L15.17 14.27ZM9.39001 15.31H9.41L9.38 15.33V15.31H9.39001ZM9.56001 14.77L9.63 14.68L9.65 14.76L9.57 14.82L9.55 14.78L9.56001 14.77Z" fill="#CF1126"/>
<path d="M9.51001 14.68H9.64001L9.51001 14.67V14.68ZM10.3 16.15L10.25 16.12L10.2 16.1L10.18 16.08L10.16 16.05L10.14 16.02L10.12 15.99L10.09 15.94L10.04 16.06L10.15 16.14H10.3V16.15Z" fill="#CF1126"/>
<path d="M10.31 16.15L10.19 16.09V16.12L10.3 16.17V16.15H10.31ZM10.14 16.02L10.09 15.95V15.97L10.13 16.04L10.14 16.02Z" fill="#CF1126"/>
<path d="M10.19 16.09L10.37 16.18L10.31 16.2L10.18 16.16L10.2 16.1L10.19 16.09Z" fill="#CF1126"/>
<path d="M10.2 16.09L10.14 16.02L10.12 15.97V15.95H10.1L10.12 16H10.13L10.15 16.09H10.21H10.2Z" fill="#CF1126"/>
<path d="M10.15 16.04L10.13 16.02V16.05H10.15V16.04Z" fill="#CF1126"/>
</g>
</g>
<defs>
<clipPath id="clip0_170_17821">
<rect width="24" height="24" fill="white"/>
</clipPath>
</defs>
</svg>
