<svg width="24" height="24" viewBox="0 0 24 24" fill="none" xmlns="http://www.w3.org/2000/svg">
<g clip-path="url(#clip0_161_12489)">
<mask id="mask0_161_12489" style="mask-type:luminance" maskUnits="userSpaceOnUse" x="0" y="0" width="24" height="24">
<path d="M12 24C18.6274 24 24 18.6274 24 12C24 5.37258 18.6274 0 12 0C5.37258 0 0 5.37258 0 12C0 18.6274 5.37258 24 12 24Z" fill="white"/>
</mask>
<g mask="url(#mask0_161_12489)">
<path d="M24 0H0V24H24V0Z" fill="#009E49"/>
<path d="M24 0H0V12H24V0Z" fill="#EF2B2D"/>
<path d="M13.53 12.64L16 10.85H12.94L12 7.94L11.06 10.85H8L10.47 12.64L9.53 15.55L12 13.75L14.47 15.55L13.53 12.64Z" fill="#FCD116"/>
</g>
</g>
<defs>
<clipPath id="clip0_161_12489">
<rect width="24" height="24" fill="white"/>
</clipPath>
</defs>
</svg>
