<svg width="24" height="24" viewBox="0 0 24 24" fill="none" xmlns="http://www.w3.org/2000/svg">
<g clip-path="url(#clip0_161_12525)">
<mask id="mask0_161_12525" style="mask-type:luminance" maskUnits="userSpaceOnUse" x="0" y="0" width="24" height="24">
<path d="M12 24C18.6274 24 24 18.6274 24 12C24 5.37257 18.6274 -1.52588e-05 12 -1.52588e-05C5.37258 -1.52588e-05 0 5.37257 0 12C0 18.6274 5.37258 24 12 24Z" fill="white"/>
</mask>
<g mask="url(#mask0_161_12525)">
<path d="M-6 -1.52588e-05H30V24H-6V-1.52588e-05Z" fill="#C8102E"/>
<mask id="mask1_161_12525" style="mask-type:luminance" maskUnits="userSpaceOnUse" x="-6" y="0" width="36" height="24">
<path d="M30 -1.52588e-05H-6V24H30V-1.52588e-05Z" fill="white"/>
</mask>
<g mask="url(#mask1_161_12525)">
<path d="M-7.79999 -1.20001V25.2L31.8 -1.20001V25.2L-7.79999 -1.20001Z" fill="#43B02A"/>
<path d="M33.32 28.03L12 13.82L-9.32001 28.03V-4.04001L12 10.17L33.32 -4.04001V28.03ZM14.73 12L30.28 22.36V1.62999L14.73 11.99V12ZM-6.28001 1.62999V22.36L9.26999 12L-6.28001 1.62999Z" fill="white"/>
</g>
<path d="M12 17.07C14.8001 17.07 17.07 14.8001 17.07 12C17.07 9.19991 14.8001 6.92999 12 6.92999C9.19991 6.92999 6.92999 9.19991 6.92999 12C6.92999 14.8001 9.19991 17.07 12 17.07Z" fill="white"/>
<path d="M12 8.27998L12.31 8.81998H12.94L12.63 9.35998L12.94 9.89998H12.31L12 10.44L11.69 9.89998H11.06L11.37 9.35998L11.06 8.81998H11.69L12 8.27998Z" fill="#C8102E"/>
<path d="M12 10.56L11.66 9.95999H10.97L11.31 9.35999L10.97 8.75999H11.66L12 8.15999L12.34 8.75999H13.03L12.69 9.35999L13.03 9.95999H12.34L12 10.56ZM11.15 9.85999H11.71L11.99 10.35L12.27 9.85999H12.83L12.55 9.36999L12.83 8.87999H12.27L11.99 8.38999L11.71 8.87999H11.15L11.43 9.36999L11.15 9.85999Z" fill="#43B02A"/>
<path d="M15.21 13.85H14.58L14.27 14.39L13.96 13.85H13.33L13.64 13.31L13.33 12.77H13.96L14.27 12.23L14.58 12.77H15.21L14.9 13.31L15.21 13.85Z" fill="#C8102E"/>
<path d="M14.27 14.5L13.93 13.9H13.24L13.58 13.3L13.24 12.7H13.93L14.27 12.1L14.61 12.7H15.3L14.96 13.3L15.3 13.9H14.61L14.27 14.5ZM13.42 13.8H13.98L14.26 14.29L14.54 13.8H15.1L14.82 13.31L15.1 12.82H14.54L14.26 12.33L13.98 12.82H13.42L13.7 13.31L13.42 13.8Z" fill="#43B02A"/>
<path d="M8.78003 13.85L9.09003 13.31L8.78003 12.77H9.41003L9.72003 12.23L10.03 12.77H10.66L10.35 13.31L10.66 13.85H10.03L9.72003 14.39L9.41003 13.85H8.78003Z" fill="#C8102E"/>
<path d="M9.72 14.5L9.38 13.9H8.69L9.03 13.3L8.69 12.7H9.38L9.72 12.1L10.06 12.7H10.75L10.41 13.3L10.75 13.9H10.06L9.72 14.5ZM8.88 13.8H9.44L9.72 14.29L10 13.8H10.56L10.28 13.31L10.56 12.82H10L9.72 12.33L9.44 12.82H8.88L9.16 13.31L8.88 13.8Z" fill="#43B02A"/>
</g>
</g>
<defs>
<clipPath id="clip0_161_12525">
<rect width="24" height="24" fill="white"/>
</clipPath>
</defs>
</svg>
