<svg width="24" height="24" viewBox="0 0 24 24" fill="none" xmlns="http://www.w3.org/2000/svg">
<g clip-path="url(#clip0_170_17592)">
<mask id="mask0_170_17592" style="mask-type:luminance" maskUnits="userSpaceOnUse" x="0" y="0" width="24" height="24">
<path d="M12 24C18.6274 24 24 18.6274 24 12C24 5.37258 18.6274 0 12 0C5.37258 0 0 5.37258 0 12C0 18.6274 5.37258 24 12 24Z" fill="white"/>
</mask>
<g mask="url(#mask0_170_17592)">
<path d="M0 0H24V24H0V0Z" fill="#032EA1"/>
<path d="M0 6H24V18H0V6Z" fill="#E00025"/>
<path d="M9.5 11.44H14.55V13.38H9.5V11.44Z" fill="white"/>
<path d="M14.54 13.4H9.48997L9.46997 13.38V11.44L9.48997 11.42H14.54L14.56 11.44V13.38L14.54 13.4ZM9.51997 13.36H14.53V11.46H9.51997V13.36Z" fill="black"/>
<path d="M9.47998 11.84H14.53V12.04H9.47998V11.84ZM9.47998 12.15H14.53V12.38H9.47998V12.15ZM9.54998 12.51V13.24H9.70998V12.51H9.54998ZM9.85998 12.51V13.24H10.02V12.51H9.85998ZM10.19 12.51V13.24H10.35V12.51H10.19ZM10.52 12.51V13.24H10.68V12.51H10.52ZM10.83 12.51V13.24H10.99V12.51H10.83ZM13.01 12.51V13.24H13.17V12.51H13.01ZM13.31 12.51V13.24H13.47V12.51H13.31ZM13.64 12.51V13.24H13.8V12.51H13.64ZM13.97 12.51V13.24H14.13V12.51H13.97ZM14.29 12.51V13.24H14.45V12.51H14.29Z" fill="white"/>
<path d="M14.45 13.26H14.29L14.27 13.24V12.51L14.29 12.49H14.45L14.47 12.51V13.24L14.45 13.26ZM14.31 13.22H14.43V12.53H14.31V13.22ZM14.13 13.26H13.97L13.95 13.24V12.51L13.97 12.49H14.13L14.15 12.51V13.24L14.13 13.26ZM13.99 13.22H14.11V12.53H13.99V13.22ZM13.8 13.26H13.64L13.62 13.24V12.51L13.64 12.49H13.8L13.82 12.51V13.24L13.8 13.26ZM13.66 13.22H13.78V12.53H13.66V13.22ZM13.47 13.26H13.31L13.29 13.24V12.51L13.31 12.49H13.47L13.49 12.51V13.24L13.47 13.26ZM13.33 13.22H13.45V12.53H13.33V13.22ZM13.17 13.26H13.01L12.99 13.24V12.51L13.01 12.49H13.17L13.19 12.51V13.24L13.17 13.26ZM13.03 13.22H13.15V12.53H13.03V13.22ZM10.99 13.26H10.83L10.81 13.24V12.51L10.83 12.49H10.99L11.01 12.51V13.24L10.99 13.26ZM10.85 13.22H10.97V12.53H10.85V13.22ZM10.68 13.26H10.52L10.5 13.24V12.51L10.52 12.49H10.68L10.7 12.51V13.24L10.68 13.26ZM10.54 13.22H10.66V12.53H10.54V13.22ZM10.35 13.26H10.19L10.17 13.24V12.51L10.19 12.49H10.35L10.37 12.51V13.24L10.35 13.26ZM10.21 13.22H10.33V12.53H10.21V13.22ZM10.02 13.26H9.86001L9.84001 13.24V12.51L9.86001 12.49H10.02L10.04 12.51V13.24L10.02 13.26ZM9.88001 13.22H10V12.53H9.88001V13.22ZM9.71001 13.26H9.55001L9.53001 13.24V12.51L9.55001 12.49H9.71001L9.73001 12.51V13.24L9.71001 13.26ZM9.57001 13.22H9.69001V12.53H9.57001V13.22ZM14.52 12.4H9.47001L9.45001 12.38V12.15L9.47001 12.13H14.52L14.54 12.15V12.38L14.52 12.4ZM9.50001 12.36H14.51V12.17H9.50001V12.36ZM14.52 12.06H9.47001L9.45001 12.04V11.84L9.47001 11.82H14.52L14.54 11.84V12.04L14.52 12.06ZM9.50001 12.02H14.51V11.86H9.50001V12.02Z" fill="black"/>
<path d="M9.47998 11.54H14.53V11.73H9.47998V11.54Z" fill="white"/>
<path d="M14.52 11.75H9.47001L9.45001 11.73V11.54L9.47001 11.52H14.52L14.54 11.54V11.73L14.52 11.75ZM9.50001 11.71H14.51V11.56H9.50001V11.71Z" fill="black"/>
<path d="M7.52002 13.48C7.60002 13.44 7.69002 13.35 7.72002 13.24H16.28C16.31 13.34 16.4 13.44 16.48 13.48H7.52002Z" fill="white"/>
<path d="M16.55 13.5H7.45001L7.52001 13.47C7.59001 13.43 7.68001 13.34 7.71001 13.25L16.3 13.24C16.33 13.35 16.42 13.44 16.49 13.48L16.56 13.51L16.55 13.5ZM7.58001 13.47H16.41C16.35 13.42 16.29 13.35 16.26 13.27H7.73001C7.70001 13.35 7.64001 13.43 7.58001 13.47Z" fill="black"/>
<path d="M11.89 8.48C11.89 8.48 11.89 8.3 11.99 8.3C12.1 8.3 12.09 8.48 12.09 8.48H11.89ZM11.34 10.9V10.65C11.34 10.53 11.22 10.52 11.21 10.43C11.21 10.43 11.19 10.3 11.23 10.23C11.28 10.41 11.37 10.38 11.37 10.3C11.37 10.24 11.32 10.18 11.22 10.02C11.19 9.97 11.21 9.81 11.25 9.76C11.27 9.9 11.29 9.96 11.35 9.96C11.39 9.96 11.41 9.94 11.41 9.87C11.41 9.78 11.35 9.74 11.32 9.66C11.29 9.57 11.31 9.47 11.37 9.42C11.39 9.55 11.39 9.61 11.45 9.61C11.57 9.57 11.45 9.4 11.42 9.35C11.39 9.3 11.46 9.2 11.46 9.2C11.5 9.32 11.51 9.33 11.55 9.32C11.6 9.31 11.6 9.23 11.53 9.17C11.49 9.13 11.49 9.07 11.53 9.02C11.57 9.1 11.63 9.1 11.63 9.05L11.6 8.86H12.36L12.32 9.05C12.31 9.1 12.38 9.12 12.43 9.03C12.47 9.08 12.48 9.14 12.43 9.18C12.37 9.24 12.36 9.32 12.41 9.33C12.45 9.34 12.46 9.33 12.5 9.21C12.5 9.21 12.56 9.28 12.54 9.36C12.51 9.4 12.39 9.58 12.51 9.62C12.57 9.62 12.56 9.57 12.59 9.43C12.65 9.48 12.67 9.58 12.64 9.67C12.61 9.75 12.55 9.79 12.55 9.88C12.55 9.95 12.58 9.97 12.61 9.97C12.67 9.97 12.69 9.9 12.71 9.77C12.76 9.83 12.78 9.98 12.74 10.03C12.64 10.19 12.59 10.25 12.59 10.31C12.59 10.38 12.68 10.42 12.73 10.24C12.77 10.3 12.75 10.44 12.75 10.44C12.75 10.53 12.63 10.54 12.62 10.66V10.91H11.31L11.34 10.9ZM11.66 8.86L11.64 8.72H12.34L12.32 8.86H11.65H11.66ZM11.71 8.72L11.69 8.61H12.29L12.27 8.72H11.7H11.71ZM11.8 8.6V8.49H12.19V8.6H11.8ZM13.27 13.48C13.18 13.45 13.05 13.35 13.05 13.26V12.18L13.17 12.03H10.83L10.94 12.18V13.26C10.94 13.36 10.85 13.45 10.76 13.48H13.27Z" fill="white"/>
<path d="M10.65 13.5L10.75 13.46C10.83 13.43 10.92 13.34 10.92 13.25V12.18L10.79 12H13.21L13.07 12.18V13.25C13.07 13.33 13.19 13.42 13.28 13.46L13.38 13.5H10.65ZM10.86 12.05L10.95 12.17V13.25C10.95 13.33 10.9 13.41 10.83 13.45H13.18C13.1 13.4 13.02 13.32 13.02 13.25V12.17L13.12 12.05H10.86ZM12.67 10.92H11.32V10.65C11.32 10.59 11.29 10.56 11.26 10.53C11.23 10.5 11.2 10.47 11.2 10.43C11.2 10.43 11.18 10.29 11.22 10.22L11.24 10.18V10.23C11.28 10.33 11.31 10.35 11.33 10.35C11.34 10.35 11.35 10.33 11.35 10.31C11.35 10.26 11.32 10.21 11.25 10.12C11.23 10.1 11.22 10.07 11.2 10.04C11.16 9.98 11.18 9.82 11.23 9.75L11.26 9.71V9.76C11.28 9.9 11.3 9.94 11.34 9.94C11.35 9.94 11.38 9.94 11.38 9.87C11.38 9.82 11.36 9.79 11.34 9.75C11.32 9.73 11.31 9.7 11.3 9.67C11.27 9.58 11.29 9.47 11.35 9.41L11.38 9.38V9.42C11.38 9.42 11.4 9.47 11.4 9.49C11.41 9.58 11.42 9.59 11.44 9.59C11.46 9.59 11.47 9.57 11.47 9.56C11.49 9.51 11.43 9.42 11.41 9.38V9.37C11.38 9.31 11.44 9.21 11.45 9.2L11.47 9.17V9.21C11.52 9.32 11.53 9.32 11.55 9.31C11.55 9.31 11.57 9.31 11.57 9.29C11.57 9.27 11.57 9.23 11.52 9.19C11.47 9.14 11.48 9.07 11.52 9.02L11.54 9V9.03C11.54 9.03 11.6 9.09 11.61 9.08C11.61 9.08 11.61 9.07 11.62 9.06L11.58 8.84H11.63L11.61 8.7H11.67L11.65 8.58H11.76V8.46H11.85C11.85 8.43 11.85 8.35 11.9 8.3C11.92 8.28 11.94 8.27 11.97 8.27C12 8.27 12.02 8.28 12.04 8.3C12.08 8.34 12.09 8.42 12.09 8.46H12.19V8.58H12.29L12.27 8.7H12.33L12.31 8.84H12.36L12.32 9.05C12.32 9.05 12.32 9.06 12.32 9.07C12.33 9.07 12.36 9.07 12.38 9.02V8.99L12.41 9.01C12.46 9.07 12.46 9.14 12.41 9.18C12.37 9.22 12.36 9.26 12.36 9.28C12.36 9.28 12.36 9.3 12.38 9.3C12.4 9.3 12.41 9.3 12.45 9.2V9.17L12.48 9.2C12.48 9.2 12.55 9.28 12.52 9.37C12.52 9.37 12.52 9.38 12.52 9.39C12.5 9.43 12.44 9.52 12.46 9.57C12.46 9.58 12.48 9.59 12.49 9.6C12.51 9.6 12.52 9.59 12.53 9.5C12.53 9.48 12.53 9.45 12.54 9.43V9.39L12.57 9.42C12.63 9.48 12.66 9.59 12.62 9.68C12.61 9.71 12.59 9.74 12.58 9.76C12.56 9.8 12.54 9.83 12.54 9.88C12.54 9.95 12.57 9.95 12.58 9.95C12.62 9.95 12.64 9.9 12.66 9.77V9.72L12.7 9.76C12.75 9.82 12.77 9.99 12.73 10.05C12.71 10.08 12.69 10.1 12.68 10.13C12.62 10.23 12.58 10.28 12.58 10.32C12.58 10.34 12.58 10.36 12.6 10.36C12.61 10.36 12.65 10.34 12.68 10.24V10.19L12.72 10.23C12.76 10.3 12.74 10.43 12.74 10.44C12.74 10.49 12.71 10.52 12.68 10.54C12.65 10.57 12.62 10.6 12.62 10.66V10.92H12.67ZM11.36 10.88H12.63V10.65C12.63 10.57 12.67 10.54 12.71 10.51C12.74 10.49 12.76 10.47 12.76 10.43C12.76 10.4 12.76 10.35 12.76 10.3C12.72 10.38 12.68 10.39 12.66 10.39C12.63 10.39 12.6 10.35 12.6 10.31C12.6 10.25 12.63 10.2 12.7 10.1C12.72 10.08 12.73 10.05 12.75 10.02C12.77 9.99 12.76 9.9 12.75 9.83C12.73 9.92 12.71 9.99 12.64 9.99C12.61 9.99 12.56 9.98 12.56 9.88C12.56 9.82 12.59 9.78 12.61 9.74C12.62 9.72 12.64 9.69 12.65 9.67C12.67 9.61 12.67 9.54 12.64 9.48C12.64 9.49 12.64 9.5 12.64 9.51C12.63 9.59 12.62 9.64 12.56 9.64C12.56 9.64 12.51 9.61 12.5 9.59C12.47 9.52 12.54 9.42 12.57 9.37C12.57 9.37 12.57 9.37 12.57 9.36C12.57 9.32 12.57 9.28 12.55 9.26C12.52 9.34 12.5 9.37 12.45 9.35C12.43 9.35 12.41 9.33 12.4 9.3C12.39 9.26 12.41 9.2 12.46 9.16C12.49 9.13 12.49 9.1 12.46 9.06C12.43 9.1 12.39 9.12 12.36 9.11C12.34 9.11 12.32 9.08 12.33 9.05L12.36 8.89H11.64L11.67 9.06C11.67 9.06 11.65 9.11 11.63 9.12C11.6 9.12 11.57 9.11 11.55 9.07C11.53 9.1 11.53 9.14 11.55 9.17C11.59 9.21 11.62 9.27 11.61 9.31C11.61 9.33 11.59 9.35 11.56 9.36C11.51 9.37 11.49 9.36 11.46 9.27C11.44 9.3 11.43 9.34 11.44 9.37C11.44 9.37 11.44 9.37 11.44 9.38C11.47 9.43 11.53 9.53 11.51 9.6C11.51 9.63 11.48 9.64 11.45 9.65C11.39 9.65 11.38 9.6 11.37 9.52C11.37 9.52 11.37 9.5 11.37 9.49C11.34 9.54 11.33 9.61 11.36 9.68C11.37 9.71 11.38 9.73 11.4 9.75C11.42 9.79 11.45 9.83 11.45 9.89C11.45 9.99 11.39 10 11.37 10C11.3 10 11.28 9.94 11.26 9.84C11.24 9.9 11.23 9.99 11.26 10.03C11.28 10.06 11.3 10.08 11.31 10.11C11.38 10.21 11.41 10.27 11.41 10.32C11.41 10.36 11.39 10.39 11.35 10.4C11.33 10.4 11.29 10.4 11.25 10.31C11.25 10.36 11.25 10.41 11.25 10.44C11.25 10.47 11.27 10.49 11.3 10.52C11.33 10.55 11.37 10.59 11.38 10.66V10.89L11.36 10.88ZM11.68 8.84H12.31V8.74H11.67V8.84H11.68ZM11.72 8.7H12.26V8.63H11.71V8.7H11.72ZM11.82 8.58H12.16V8.51H11.81V8.58H11.82ZM11.91 8.46H12.07C12.07 8.46 12.07 8.36 12.03 8.33C12.02 8.32 12 8.31 11.99 8.31C11.97 8.31 11.96 8.31 11.95 8.33C11.92 8.36 11.91 8.42 11.91 8.46Z" fill="black"/>
<path d="M11.25 12.51H11.41V13.24H11.25V12.51ZM12.59 12.51H12.75V13.24H12.59V12.51Z" fill="white"/>
<path d="M12.75 13.26H12.59L12.57 13.24V12.51L12.59 12.49H12.75L12.77 12.51V13.24L12.75 13.26ZM12.61 13.22H12.73V12.53H12.61V13.22ZM11.41 13.26H11.25L11.23 13.24V12.51L11.25 12.49H11.41L11.43 12.51V13.24L11.41 13.26ZM11.27 13.22H11.39V12.53H11.27V13.22Z" fill="black"/>
<path d="M10.8 10.81V12.04H13.19V10.81C13.1 10.85 13.08 10.94 13.08 10.94V11.46H10.92V10.94C10.92 10.94 10.9 10.85 10.8 10.81Z" fill="white"/>
<path d="M13.21 12.05H10.78V10.77H10.81C10.92 10.82 10.94 10.92 10.94 10.92V11.43H13.06V10.92C13.06 10.92 13.08 10.82 13.19 10.78H13.22V12.04L13.21 12.05ZM10.82 12.01H13.18V10.84C13.13 10.87 13.11 10.93 13.11 10.94V11.48H10.91V10.94C10.91 10.94 10.89 10.88 10.83 10.84V12.01H10.82Z" fill="black"/>
<path d="M11.17 11.9C11.25 11.94 11.33 11.97 11.36 12.05V13.26C11.36 13.35 11.23 13.45 11.15 13.48H12.84C12.76 13.44 12.63 13.35 12.63 13.26V12.05C12.66 11.97 12.74 11.94 12.82 11.9H11.17Z" fill="white"/>
<path d="M12.93 13.5H12.84H11.04L11.14 13.46C11.22 13.42 11.34 13.33 11.34 13.25V12.05C11.32 11.99 11.26 11.96 11.19 11.93C11.18 11.93 11.17 11.92 11.16 11.91L11.09 11.87H12.9L12.83 11.91C12.83 11.91 12.81 11.92 12.8 11.93C12.74 11.96 12.68 11.99 12.65 12.05V13.25C12.65 13.33 12.77 13.42 12.85 13.46L12.93 13.5ZM11.26 13.46H12.77C12.7 13.41 12.61 13.34 12.61 13.26V12.05C12.63 11.99 12.68 11.95 12.74 11.92H11.26C11.31 11.95 11.36 11.98 11.39 12.04V13.25C11.39 13.33 11.3 13.41 11.23 13.45H11.26V13.46Z" fill="black"/>
<path d="M13.08 11.92V11.05H12.86V10.97H11.14V11.05H10.92V11.92H13.08ZM12.52 13.48C12.44 13.45 12.33 13.35 12.33 13.26V12.23L12.39 12.14H11.61L11.67 12.23V13.26C11.67 13.36 11.56 13.45 11.48 13.48H12.52Z" fill="white"/>
<path d="M11.39 13.5L11.47 13.46C11.54 13.43 11.65 13.34 11.65 13.25V12.23L11.57 12.11H12.43L12.35 12.23V13.25C12.35 13.33 12.45 13.42 12.53 13.46L12.61 13.5H11.39ZM11.65 12.16L11.7 12.23V13.27C11.7 13.35 11.63 13.43 11.57 13.47H12.46C12.39 13.42 12.33 13.34 12.33 13.27V12.23L12.38 12.16H11.67H11.65ZM13.1 11.94H10.9V11.03H11.12V10.95H12.88V11.03H13.1V11.94ZM10.94 11.9H13.06V11.07H12.84V10.99H11.16V11.07H10.94V11.9Z" fill="black"/>
<path d="M11.8 12.14H12.2V13.49H11.8V12.14Z" fill="white"/>
<path d="M12.22 13.5H11.78V12.11H12.22V13.5ZM11.82 13.46H12.18V12.15H11.82V13.46Z" fill="black"/>
<path d="M12.4 11.84C12.4 11.75 12.66 11.75 12.79 11.67H11.2C11.33 11.75 11.58 11.75 11.58 11.84L11.63 12.01L12.29 12.04L12.39 11.84H12.4Z" fill="white"/>
<path d="M12.29 12.06L11.63 12.03H11.61L11.56 11.84C11.56 11.8 11.47 11.78 11.39 11.76C11.32 11.74 11.25 11.72 11.19 11.69V11.66H12.79V11.69C12.79 11.69 12.67 11.74 12.6 11.76C12.51 11.78 12.42 11.8 12.42 11.84L12.32 12.05H12.3L12.29 12.06ZM11.65 11.99L12.28 12.02L12.38 11.84C12.38 11.78 12.48 11.75 12.59 11.73C12.63 11.73 12.67 11.71 12.7 11.7H11.29C11.29 11.7 11.36 11.72 11.4 11.73C11.51 11.76 11.6 11.78 11.6 11.85L11.65 12.01V11.99Z" fill="black"/>
<path d="M12.72 10.9C12.72 10.68 12.72 10.6 12.8 10.6V11.29C12.64 11.35 12.52 11.56 12.52 11.56H11.49C11.49 11.56 11.37 11.35 11.21 11.29V10.6C11.29 10.6 11.29 10.69 11.29 10.9H12.72ZM12.79 10.81C12.79 10.56 13.01 10.53 13.01 10.53V10.75C12.93 10.75 12.89 10.82 12.89 10.93C12.89 11.04 12.96 11.04 12.96 11.04V11.67H12.8V10.81H12.79Z" fill="white"/>
<path d="M12.97 11.7H12.77V11.33C12.63 11.4 12.53 11.58 12.53 11.58L11.48 11.59C11.48 11.59 11.36 11.38 11.21 11.32H11.2V10.59H11.22C11.32 10.59 11.32 10.68 11.32 10.89H12.71C12.71 10.7 12.71 10.59 12.81 10.59H12.83V10.66C12.9 10.55 13.02 10.53 13.02 10.53H13.04V10.79H13.02C13.02 10.79 12.98 10.79 12.96 10.81C12.93 10.84 12.92 10.88 12.92 10.95C12.92 11.04 12.96 11.04 12.97 11.04H12.99V11.06V11.71L12.97 11.7ZM12.81 11.66H12.93V11.07C12.93 11.07 12.86 11.03 12.86 10.94C12.86 10.86 12.88 10.81 12.91 10.77C12.93 10.75 12.95 10.74 12.98 10.74V10.56C12.93 10.57 12.8 10.63 12.8 10.81V11.65L12.81 11.66ZM11.5 11.54H12.51C12.51 11.54 12.64 11.34 12.78 11.28V10.63C12.78 10.63 12.74 10.72 12.74 10.91V10.93H11.27V10.91C11.27 10.72 11.27 10.65 11.23 10.63V11.28C11.37 11.34 11.48 11.5 11.5 11.54Z" fill="black"/>
<path d="M11.2 10.81C11.2 10.56 10.98 10.53 10.98 10.53V10.75C11.06 10.75 11.1 10.82 11.1 10.93C11.1 11.04 11.03 11.04 11.03 11.04V11.67H11.19V10.81H11.2Z" fill="white"/>
<path d="M11.22 11.7H11.02V11.03H11.04C11.04 11.03 11.09 11.03 11.09 10.94C11.09 10.88 11.08 10.83 11.05 10.8C11.03 10.78 11.01 10.78 10.99 10.78H10.97V10.52H10.99C10.99 10.52 11.22 10.56 11.22 10.82V11.7ZM11.06 11.66H11.18V10.82C11.18 10.64 11.06 10.58 11 10.57V10.75C11 10.75 11.05 10.76 11.07 10.78C11.1 10.81 11.12 10.87 11.12 10.95C11.12 11.04 11.08 11.07 11.05 11.08V11.67L11.06 11.66Z" fill="black"/>
<path d="M12.67 10.39H11.32V10.36H12.67V10.39ZM12.66 9.99H11.35V9.96H12.66V9.99ZM12.54 9.64H11.44V9.61H12.54V9.64ZM12.46 9.35H11.53V9.32H12.46V9.35ZM12.38 9.11H11.62V9.08H12.38V9.11Z" fill="black"/>
<path d="M12.41 12H11.57V11.71H10.91V11.67H13.07V11.71H12.42V12H12.41ZM11.61 11.96H12.37V11.71H11.61V11.96Z" fill="black"/>
<path d="M11.49 11.03C11.62 11.19 11.61 11.46 11.61 11.62H12.38C12.38 11.46 12.37 11.19 12.5 11.03H11.49ZM11.92 9.21L11.81 9.16V9C11.81 9 11.9 9.02 11.91 9.09C11.92 8.99 11.95 9 11.99 8.96C12.03 9 12.06 8.99 12.07 9.09C12.07 9.02 12.12 9.02 12.17 9V9.16L12.06 9.21H11.91H11.92Z" fill="white"/>
<path d="M12.4 11.64H11.59V11.59C11.59 11.43 11.59 11.19 11.48 11.05L11.45 11.02H12.54L12.51 11.05C12.39 11.19 12.39 11.44 12.4 11.6V11.65V11.64ZM11.63 11.6H12.36C12.36 11.44 12.36 11.21 12.46 11.05H11.53C11.63 11.21 11.63 11.43 11.63 11.59V11.6ZM11.92 9.23L11.8 9.17V8.98H11.83C11.83 8.98 11.83 8.99 11.84 8.99C11.86 8.99 11.89 9 11.91 9.03C11.92 9 11.94 8.98 11.96 8.97C11.96 8.97 11.98 8.96 11.98 8.95H11.99H12C12 8.95 12.02 8.96 12.02 8.97C12.04 8.99 12.06 9 12.07 9.03C12.09 9.01 12.12 9 12.14 8.99C12.14 8.99 12.14 8.99 12.15 8.99H12.18V9.18L12.06 9.24H11.9L11.92 9.23ZM11.84 9.14L11.93 9.19H12.07L12.16 9.14V9.02C12.16 9.02 12.11 9.04 12.1 9.08H12.06C12.05 9.01 12.04 9 12.01 8.98C12.01 8.98 12.01 8.98 12 8.97C12 8.97 12 8.97 11.99 8.98C11.96 9 11.95 9.01 11.94 9.08H11.9C11.9 9.08 11.88 9.03 11.84 9.02V9.14Z" fill="black"/>
<path d="M11.92 9.46L11.75 9.34V9.2C11.81 9.21 11.88 9.22 11.89 9.3C11.91 9.19 11.95 9.14 12.01 9.1C12.07 9.14 12.11 9.2 12.13 9.3C12.13 9.22 12.21 9.22 12.27 9.2V9.34L12.09 9.46H11.93H11.92Z" fill="white"/>
<path d="M12.09 9.48H11.91L11.72 9.35V9.17H11.74C11.74 9.17 11.75 9.17 11.76 9.17C11.8 9.17 11.84 9.19 11.87 9.22C11.89 9.15 11.93 9.1 11.98 9.06H11.99H12C12.06 9.1 12.09 9.15 12.11 9.22C12.14 9.19 12.18 9.18 12.22 9.17C12.22 9.17 12.23 9.17 12.24 9.17H12.26V9.34L12.07 9.47L12.09 9.48ZM11.92 9.44H12.07L12.23 9.33V9.22C12.17 9.23 12.14 9.24 12.13 9.29H12.09C12.07 9.2 12.04 9.15 11.99 9.11C11.94 9.15 11.91 9.21 11.89 9.29H11.85C11.85 9.24 11.81 9.23 11.75 9.22V9.33L11.91 9.44H11.92Z" fill="black"/>
<path d="M11.9 9.86L11.7 9.68V9.47C11.77 9.49 11.85 9.5 11.86 9.61C11.88 9.45 11.93 9.37 12 9.31C12.07 9.37 12.11 9.45 12.14 9.61C12.14 9.5 12.23 9.49 12.3 9.47V9.68L12.1 9.86H11.91H11.9ZM12.28 10.09L12.1 10.34H11.89L11.71 10.09H12.28ZM11.6 10.52C11.69 10.57 11.72 10.67 11.73 10.85H12.24C12.24 10.66 12.28 10.56 12.37 10.52H11.59H11.6Z" fill="white"/>
<path d="M12.27 10.87H11.72V10.85C11.71 10.66 11.68 10.58 11.6 10.53L11.53 10.49H12.47L12.4 10.53C12.32 10.57 12.29 10.66 12.28 10.85V10.87H12.27ZM11.75 10.83H12.22C12.22 10.7 12.25 10.6 12.31 10.54H11.65C11.71 10.6 11.74 10.71 11.74 10.83H11.75ZM12.1 10.37H11.87L11.66 10.08H12.31L12.1 10.37ZM11.9 10.33H12.09L12.24 10.12H11.75L11.9 10.33ZM11.9 9.88L11.69 9.69V9.44H11.72L11.74 9.45C11.78 9.46 11.83 9.48 11.86 9.52C11.89 9.41 11.93 9.34 11.99 9.29H12H12.01C12.07 9.35 12.11 9.42 12.14 9.52C12.17 9.47 12.22 9.46 12.26 9.45H12.28H12.31V9.69L12.1 9.88H11.9ZM11.72 9.67L11.91 9.84H12.08L12.27 9.67V9.5C12.21 9.52 12.16 9.53 12.15 9.62H12.11C12.09 9.49 12.05 9.41 11.99 9.35C11.93 9.41 11.89 9.49 11.87 9.63H11.83C11.83 9.54 11.77 9.53 11.71 9.51V9.68L11.72 9.67Z" fill="black"/>
<path d="M12.4 10.09V9.84C12.31 9.86 12.26 9.91 12.23 9.98C12.23 9.9 12.12 9.7 12 9.61C11.88 9.72 11.77 9.89 11.77 9.98C11.75 9.91 11.69 9.86 11.6 9.84V10.09H12.4Z" fill="white"/>
<path d="M12.4 10.11H11.6L11.58 10.09V9.84L11.6 9.82C11.67 9.84 11.72 9.87 11.75 9.92C11.78 9.82 11.88 9.68 11.98 9.59H12C12.1 9.67 12.2 9.82 12.23 9.92C12.26 9.87 12.32 9.83 12.38 9.82L12.4 9.84V10.09L12.38 10.11H12.4ZM11.62 10.07H12.38V9.86C12.32 9.88 12.27 9.93 12.25 9.99H12.21C12.21 9.91 12.11 9.73 12 9.63C11.89 9.74 11.79 9.9 11.79 9.98H11.75C11.75 9.98 11.68 9.89 11.62 9.86V10.07Z" fill="black"/>
<path d="M12.43 10.52V10.27C12.34 10.29 12.27 10.34 12.25 10.41C12.25 10.33 12.13 10.13 12 10.04C11.87 10.15 11.74 10.32 11.75 10.41C11.73 10.34 11.66 10.29 11.57 10.27V10.52H12.44H12.43Z" fill="white"/>
<path d="M12.43 10.53H11.56L11.54 10.51V10.26L11.56 10.24C11.64 10.26 11.69 10.3 11.73 10.35C11.76 10.25 11.87 10.11 11.98 10.02H12C12.11 10.1 12.22 10.25 12.25 10.35C12.29 10.3 12.34 10.26 12.42 10.24L12.44 10.26V10.51L12.42 10.53H12.43ZM11.58 10.5H12.42V10.29C12.35 10.31 12.3 10.36 12.27 10.42H12.23C12.23 10.34 12.12 10.16 12 10.06C11.87 10.17 11.76 10.33 11.77 10.41H11.73C11.73 10.41 11.66 10.32 11.58 10.29V10.5Z" fill="black"/>
<path d="M12.54 11.03V10.74C12.42 10.77 12.35 10.86 12.31 10.91C12.31 10.75 12.13 10.51 12 10.43C11.86 10.51 11.69 10.76 11.69 10.91C11.65 10.86 11.58 10.77 11.46 10.74V11.03H12.55H12.54Z" fill="white"/>
<path d="M12.54 11.05H11.45L11.43 11.03V10.74L11.45 10.72C11.55 10.74 11.61 10.81 11.66 10.86C11.69 10.7 11.85 10.49 11.98 10.41H12C12.13 10.48 12.29 10.7 12.32 10.86C12.38 10.79 12.45 10.74 12.53 10.72L12.55 10.74V11.03L12.53 11.05H12.54ZM11.47 11.02H12.52V10.77C12.45 10.79 12.38 10.85 12.33 10.92H12.3C12.3 10.77 12.14 10.54 12 10.45C11.87 10.53 11.7 10.76 11.7 10.91H11.67C11.67 10.91 11.57 10.8 11.48 10.77V11.02H11.47Z" fill="black"/>
<path d="M12.48 11.68V11.38C12.38 11.42 12.34 11.52 12.31 11.59C12.32 11.29 12.14 10.96 12 10.88C11.86 10.96 11.67 11.3 11.69 11.59C11.66 11.52 11.63 11.42 11.52 11.38V11.68H12.48Z" fill="white"/>
<path d="M12.48 11.7H11.52L11.5 11.68V11.38L11.53 11.36C11.61 11.39 11.64 11.45 11.67 11.5C11.69 11.21 11.86 10.93 11.99 10.85H12.01C12.14 10.93 12.31 11.2 12.33 11.5C12.36 11.44 12.4 11.39 12.47 11.36L12.5 11.38V11.68L12.48 11.7ZM11.54 11.66H12.46V11.41C12.4 11.45 12.37 11.51 12.34 11.57C12.34 11.58 12.34 11.59 12.33 11.6H12.29C12.3 11.29 12.13 10.99 12 10.9C11.87 10.99 11.69 11.31 11.71 11.59H11.67C11.67 11.59 11.66 11.58 11.65 11.57C11.62 11.51 11.6 11.45 11.53 11.42V11.67L11.54 11.66Z" fill="black"/>
<path d="M12.4 12.14V11.84C12.29 11.87 12.28 11.91 12.25 11.97C12.26 11.79 12.13 11.58 11.99 11.5C11.85 11.58 11.72 11.79 11.73 11.97C11.7 11.9 11.69 11.86 11.58 11.84V12.14H12.39H12.4Z" fill="white"/>
<path d="M12.42 12.16H11.57V11.82H11.59C11.67 11.84 11.7 11.87 11.72 11.9C11.74 11.73 11.86 11.56 11.98 11.49H11.99H12C12.12 11.56 12.24 11.73 12.26 11.9C12.28 11.87 12.31 11.84 12.39 11.82H12.41V12.16H12.42ZM11.61 12.12H12.38V11.87C12.31 11.89 12.3 11.92 12.28 11.96C12.28 11.96 12.28 11.98 12.27 11.98L12.23 12.07V11.97C12.25 11.8 12.13 11.6 12 11.52C11.87 11.6 11.75 11.79 11.76 11.97V12.07L11.72 11.98C11.72 11.98 11.72 11.96 11.71 11.95C11.69 11.9 11.68 11.88 11.61 11.86V12.11V12.12Z" fill="black"/>
<path d="M7.72002 13.25V12.34C7.69002 12.22 7.59002 12.12 7.52002 12.1V11.3L7.69002 11.39L7.88002 12.22V13.24H7.73002L7.72002 13.25Z" fill="white"/>
<path d="M7.90001 13.27H7.71001V12.35C7.68001 12.24 7.59001 12.15 7.52001 12.13H7.51001V11.28L7.71001 11.39L7.90001 12.24V13.28V13.27ZM7.74001 13.23H7.85001V12.23L7.66001 11.41L7.53001 11.34V12.09C7.61001 12.12 7.70001 12.22 7.73001 12.34V13.23H7.74001Z" fill="black"/>
<path d="M7.72002 13.25V12.34C7.69002 12.22 7.59002 12.12 7.52002 12.1V11.25C7.63002 11.25 7.69002 11.4 7.69002 11.4L7.88002 12.23V13.24H7.73002L7.72002 13.25Z" fill="white"/>
<path d="M7.7 13.27V12.34C7.67 12.23 7.58 12.14 7.51 12.12H7.5V11.23H7.52C7.64 11.23 7.7 11.38 7.7 11.39L7.89 12.23V13.26H7.7V13.27ZM7.54 12.09C7.62 12.12 7.71 12.22 7.74 12.34V13.23H7.85V12.23L7.66 11.4C7.66 11.4 7.62 11.29 7.53 11.27V12.09H7.54Z" fill="black"/>
<path d="M7.60999 13.48C7.68999 13.45 7.79999 13.35 7.79999 13.26V12.13L7.74999 12.04H9.67999L9.59999 12.13V13.26C9.59999 13.36 9.67999 13.45 9.74999 13.48H7.60999Z" fill="white"/>
<path d="M9.84001 13.5H7.51001L7.59001 13.46C7.66001 13.43 7.77001 13.34 7.77001 13.25V12.12L7.70001 12H9.71001L9.61001 12.12V13.25C9.61001 13.34 9.68001 13.43 9.75001 13.46L9.83001 13.5H9.84001ZM7.68001 13.46H9.68001C9.62001 13.41 9.57001 13.33 9.57001 13.26V12.12L9.62001 12.05H7.77001L7.81001 12.12V13.26C7.81001 13.34 7.74001 13.42 7.68001 13.46Z" fill="black"/>
<path d="M9.35999 13.48C9.27999 13.45 9.16999 13.35 9.16999 13.26V12.18L9.32999 12.03H8.01999L8.17999 12.18V13.26C8.17999 13.36 8.06999 13.45 7.98999 13.48H9.35999Z" fill="white"/>
<path d="M9.45002 13.5H7.90002L7.98002 13.46C8.05002 13.43 8.16002 13.34 8.16002 13.25V12.18L7.97002 12H9.38002L9.19002 12.18V13.25C9.19002 13.33 9.29002 13.42 9.37002 13.46L9.45002 13.5ZM8.07002 13.46H9.29002C9.22002 13.41 9.16002 13.33 9.16002 13.26V12.17L9.29002 12.05H8.08002L8.21002 12.17V13.26C8.21002 13.34 8.14002 13.42 8.08002 13.46H8.07002Z" fill="black"/>
<path d="M9.18 13.48C9.1 13.45 8.99 13.35 8.99 13.26V12.29L9.1 12.14H8.27L8.38 12.29V13.26C8.38 13.36 8.27 13.45 8.19 13.48H9.19H9.18Z" fill="white"/>
<path d="M9.28003 13.5H8.09003L8.17003 13.46C8.24003 13.43 8.35003 13.34 8.35003 13.25V12.28L8.23003 12.1H9.14003L9.02003 12.28V13.25C9.02003 13.33 9.12003 13.42 9.20003 13.46L9.28003 13.5ZM8.26003 13.46H9.11003C9.04003 13.41 8.98003 13.33 8.98003 13.26V12.28L9.07003 12.16H8.31003L8.40003 12.28V13.26C8.40003 13.34 8.33003 13.42 8.27003 13.46H8.26003Z" fill="black"/>
<path d="M8.47998 12.14H8.87998V13.49H8.47998V12.14Z" fill="white"/>
<path d="M8.90002 13.5H8.46002V12.11H8.90002V13.5ZM8.50002 13.46H8.86002V12.15H8.50002V13.46Z" fill="black"/>
<path d="M7.92999 12.51H8.08999V13.24H7.92999V12.51ZM9.25999 12.51H9.41999V13.24H9.25999V12.51ZM7.79999 11.28H7.98999V12.03H7.79999V11.28ZM7.79999 11.14H7.98999V11.28H7.79999V11.14Z" fill="white"/>
<path d="M9.42003 13.26H9.26003L9.24003 13.24V12.51L9.26003 12.49H9.42003L9.44003 12.51V13.24L9.42003 13.26ZM9.28003 13.22H9.40003V12.53H9.28003V13.22ZM8.09003 13.26H7.93003L7.91003 13.24V12.51L7.93003 12.49H8.09003L8.11003 12.51V13.24L8.09003 13.26ZM7.95003 13.22H8.07003V12.53H7.95003V13.22ZM7.99003 12.05H7.80003L7.78003 12.03V11.14L7.80003 11.12H7.99003L8.01003 11.14V11.28V12.03L7.99003 12.05ZM7.82003 12.01H7.97003V11.3H7.82003V12.01ZM7.82003 11.26H7.97003V11.16H7.82003V11.26Z" fill="black"/>
<path d="M9.37 11.44H9.64V12.02H9.37V11.44Z" fill="white"/>
<path d="M9.64999 12.04H9.37999L9.35999 12.02V11.44L9.37999 11.42H9.64999L9.66999 11.44V12.02L9.64999 12.04ZM9.39999 12H9.62999V11.46H9.39999V12Z" fill="black"/>
<path d="M7.99 12.02V10.74C8.04 10.74 8.05 10.93 8.18 10.93C8.25 10.93 8.24 10.85 8.2 10.79C8.17 10.73 8.13 10.66 8.18 10.51C8.22 10.62 8.32 10.66 8.3 10.59C8.27 10.47 8.18 10.45 8.25 10.27C8.27 10.42 8.37 10.42 8.35 10.33C8.32 10.23 8.27 10.19 8.34 10.05C8.38 10.21 8.43 10.2 8.43 10.1C8.43 9.95 8.43 9.79 8.62 9.73C8.62 9.73 8.63 9.59 8.7 9.59C8.77 9.59 8.78 9.73 8.78 9.73C8.97 9.79 8.97 9.95 8.97 10.1C8.97 10.2 9.02 10.21 9.06 10.05C9.13 10.19 9.07 10.23 9.05 10.33C9.03 10.42 9.12 10.43 9.15 10.27C9.22 10.45 9.13 10.47 9.1 10.59C9.08 10.66 9.18 10.62 9.22 10.51C9.27 10.65 9.23 10.73 9.2 10.79C9.16 10.85 9.16 10.93 9.22 10.93C9.35 10.93 9.35 10.74 9.41 10.74V12.02H8.01H7.99ZM7.69 11.05V12.03H7.8V11.05C7.8 11.05 7.72 11.03 7.69 11.05Z" fill="white"/>
<path d="M7.81998 12.05H7.66998V11.04C7.66998 11.04 7.74998 11 7.79998 11.03H7.80998V12.05H7.81998ZM7.70998 12.01H7.77998V11.06C7.77998 11.06 7.72998 11.05 7.70998 11.06V12.01ZM9.40998 12.04H7.96998V10.72H7.98998C7.98998 10.72 8.03998 10.76 8.05998 10.8C8.08998 10.85 8.10998 10.91 8.17998 10.91C8.19998 10.91 8.19998 10.91 8.19998 10.9C8.20998 10.88 8.19998 10.84 8.17998 10.8C8.14998 10.75 8.09998 10.66 8.15998 10.5L8.17998 10.45L8.19998 10.5C8.21998 10.57 8.26998 10.6 8.27998 10.6C8.27998 10.6 8.27998 10.6 8.27998 10.59C8.27998 10.56 8.25998 10.53 8.23998 10.5C8.20998 10.44 8.16998 10.39 8.21998 10.25L8.24998 10.18V10.26C8.26998 10.33 8.29998 10.36 8.30998 10.36C8.30998 10.36 8.30998 10.35 8.30998 10.32C8.30998 10.3 8.29998 10.28 8.28998 10.26C8.25998 10.2 8.23998 10.14 8.28998 10.02L8.30998 9.97V10.02C8.33998 10.1 8.35998 10.12 8.36998 10.13C8.36998 10.13 8.36998 10.11 8.36998 10.08C8.36998 9.92 8.36998 9.76 8.55998 9.7C8.55998 9.66 8.58998 9.56 8.65998 9.56C8.72998 9.56 8.74998 9.66 8.75998 9.7C8.94998 9.77 8.94998 9.93 8.94998 10.07V10.13C8.94998 10.13 8.96998 10.1 8.98998 10.02V9.97L9.02998 10.02C9.08998 10.14 9.05998 10.19 9.02998 10.26C9.02998 10.28 9.00998 10.3 9.00998 10.32C9.00998 10.34 9.00998 10.35 9.00998 10.36C9.01998 10.36 9.04998 10.33 9.05998 10.26V10.18L9.09998 10.25C9.14998 10.39 9.11998 10.44 9.07998 10.5C9.06998 10.53 9.04998 10.55 9.03998 10.59C9.03998 10.59 9.03998 10.59 9.03998 10.6C9.04998 10.6 9.09998 10.57 9.11998 10.5L9.13998 10.45L9.15998 10.5C9.21998 10.66 9.16998 10.74 9.13998 10.8C9.11998 10.84 9.10998 10.88 9.11998 10.9C9.11998 10.9 9.11998 10.91 9.13998 10.91C9.19998 10.91 9.22998 10.85 9.25998 10.8C9.27998 10.76 9.29998 10.72 9.32998 10.72H9.34998V12.04H9.40998ZM8.00998 12H9.36998V10.78C9.36998 10.78 9.35998 10.8 9.34998 10.81C9.31998 10.87 9.28998 10.94 9.19998 10.94C9.16998 10.94 9.14998 10.92 9.13998 10.91C9.11998 10.87 9.13998 10.81 9.15998 10.77C9.17998 10.73 9.21998 10.67 9.18998 10.56C9.15998 10.62 9.10998 10.64 9.07998 10.64C9.05998 10.64 9.04998 10.62 9.05998 10.58C9.06998 10.54 9.08998 10.51 9.09998 10.48C9.11998 10.44 9.14998 10.4 9.12998 10.33C9.11998 10.36 9.09998 10.39 9.06998 10.4C9.04998 10.4 9.03998 10.4 9.01998 10.4C8.99998 10.38 8.99998 10.36 9.00998 10.32C9.00998 10.29 9.02998 10.27 9.02998 10.25C9.04998 10.2 9.05998 10.16 9.03998 10.1C9.01998 10.16 8.99998 10.19 8.96998 10.18C8.94998 10.18 8.92998 10.16 8.92998 10.09C8.92998 9.93 8.92998 9.79 8.75998 9.74H8.74998V9.72C8.74998 9.69 8.72998 9.6 8.68998 9.6C8.64998 9.6 8.62998 9.69 8.62998 9.72L8.61998 9.74C8.44998 9.79 8.44998 9.93 8.44998 10.08C8.44998 10.17 8.41998 10.18 8.40998 10.19C8.37998 10.19 8.35998 10.17 8.33998 10.11C8.31998 10.18 8.33998 10.21 8.34998 10.26C8.34998 10.28 8.36998 10.3 8.36998 10.33C8.36998 10.36 8.36998 10.39 8.35998 10.41C8.34998 10.42 8.32998 10.42 8.30998 10.41C8.28998 10.41 8.26998 10.38 8.24998 10.34C8.23998 10.41 8.24998 10.45 8.27998 10.49C8.29998 10.52 8.30998 10.55 8.31998 10.59C8.31998 10.63 8.31998 10.64 8.29998 10.65C8.26998 10.65 8.21998 10.63 8.18998 10.57C8.15998 10.68 8.18998 10.74 8.21998 10.78C8.23998 10.82 8.25998 10.88 8.23998 10.92C8.23998 10.93 8.20998 10.95 8.17998 10.95C8.08998 10.95 8.04998 10.87 8.02998 10.82C8.02998 10.82 8.01998 10.8 8.00998 10.79V12.01V12Z" fill="black"/>
<path d="M7.69 11.69C7.83 11.76 7.96 11.84 8 12.04H7.69V11.69ZM9.6 11.39V12.03H9.69V11.39C9.69 11.39 9.62 11.37 9.6 11.39Z" fill="white"/>
<path d="M9.71998 12.05H9.58998V11.38C9.58998 11.38 9.66998 11.36 9.69998 11.38H9.70998V12.06L9.71998 12.05ZM9.61998 12.01H9.66998V11.4C9.66998 11.4 9.62998 11.4 9.61998 11.4V12.01ZM8.01998 12.05H7.66998V11.65H7.69998C7.84998 11.74 7.97998 11.82 8.01998 12.02V12.04V12.05ZM7.70998 12.01H7.96998C7.92998 11.86 7.82998 11.78 7.70998 11.72V12.01Z" fill="black"/>
<path d="M9.7 11.68C9.56 11.75 9.43 11.83 9.39 12.03H9.7V11.68ZM8.78 10.19L8.86 10.12V10.03C8.86 10.03 8.81 10.04 8.79 10.07C8.77 10.01 8.73 9.97 8.68 9.94C8.63 9.97 8.58 10.01 8.57 10.07C8.55 10.04 8.53 10.03 8.5 10.03V10.12L8.58 10.19H8.78Z" fill="white"/>
<path d="M9.71998 12.05H9.36998V12.03C9.40998 11.83 9.54998 11.75 9.68998 11.67H9.71998V12.05ZM9.40998 12.01H9.66998V11.72C9.54998 11.78 9.43998 11.86 9.40998 12.01ZM8.78998 10.21H8.56998L8.47998 10.13V10.01H8.49998C8.49998 10.01 8.53998 10.02 8.55998 10.03C8.57998 9.98 8.61998 9.95 8.66998 9.92C8.71998 9.95 8.75998 9.98 8.77998 10.03C8.79998 10.01 8.80998 10.01 8.83998 10.01H8.85998V10.13L8.76998 10.21H8.78998ZM8.58998 10.17H8.77998L8.84998 10.11V10.06C8.84998 10.06 8.82998 10.07 8.81998 10.09L8.79998 10.12V10.08C8.79998 10.08 8.73998 9.99 8.68998 9.97C8.63998 10 8.60998 10.03 8.59998 10.08V10.12L8.56998 10.09C8.55998 10.07 8.54998 10.07 8.53998 10.06V10.11L8.60998 10.17H8.58998Z" fill="black"/>
<path d="M8.83001 10.41L8.87001 10.33V10.22C8.87001 10.22 8.82001 10.23 8.80001 10.26C8.78001 10.2 8.74001 10.16 8.69001 10.13C8.64001 10.16 8.59001 10.2 8.58001 10.26C8.56001 10.23 8.54001 10.22 8.51001 10.22V10.33L8.55001 10.41H8.84001H8.83001Z" fill="white"/>
<path d="M8.52999 10.43L8.48999 10.33V10.19H8.50999C8.50999 10.19 8.54999 10.2 8.56999 10.22C8.58999 10.17 8.62999 10.14 8.67999 10.11C8.72999 10.14 8.76999 10.17 8.78999 10.22C8.80999 10.2 8.81999 10.2 8.84999 10.2H8.86999V10.34L8.82999 10.44H8.51999L8.52999 10.43ZM8.51999 10.32L8.54999 10.39H8.80999L8.83999 10.32V10.24C8.83999 10.24 8.81999 10.25 8.80999 10.27L8.78999 10.3V10.26C8.78999 10.26 8.72999 10.17 8.67999 10.14C8.62999 10.17 8.59999 10.21 8.58999 10.25V10.29L8.55999 10.26C8.54999 10.24 8.53999 10.24 8.52999 10.23V10.31L8.51999 10.32Z" fill="black"/>
<path d="M8.82997 10.7L8.94997 10.55V10.41C8.94997 10.41 8.87997 10.43 8.84997 10.48C8.81997 10.38 8.75997 10.36 8.67997 10.31C8.59997 10.36 8.53997 10.38 8.50997 10.47C8.47997 10.42 8.44997 10.41 8.40997 10.4V10.54L8.52997 10.69H8.82997V10.7Z" fill="white"/>
<path d="M8.84001 10.72H8.52001L8.39001 10.56V10.39H8.41001C8.41001 10.39 8.48001 10.41 8.50001 10.44C8.53001 10.38 8.58001 10.35 8.63001 10.32C8.64001 10.32 8.65001 10.31 8.67001 10.3H8.68001H8.69001C8.70001 10.3 8.71001 10.31 8.72001 10.32C8.78001 10.35 8.83001 10.38 8.85001 10.45C8.88001 10.42 8.90001 10.41 8.94001 10.4H8.96001V10.57L8.83001 10.73L8.84001 10.72ZM8.54001 10.68H8.82001L8.93001 10.55V10.44C8.93001 10.44 8.89001 10.46 8.87001 10.5L8.85001 10.54V10.5C8.82001 10.42 8.77001 10.4 8.71001 10.36C8.71001 10.36 8.70001 10.36 8.69001 10.35C8.69001 10.35 8.67001 10.36 8.66001 10.37C8.60001 10.4 8.56001 10.43 8.54001 10.5V10.54L8.50001 10.5C8.48001 10.46 8.46001 10.45 8.44001 10.45V10.56L8.55001 10.69L8.54001 10.68Z" fill="black"/>
<path d="M8.86999 10.99C8.86999 10.99 9.00999 10.87 9.01999 10.8V10.65C8.96999 10.65 8.91999 10.67 8.87999 10.73C8.84999 10.6 8.78999 10.57 8.68999 10.51C8.58999 10.57 8.53999 10.61 8.49999 10.73C8.45999 10.67 8.40999 10.65 8.35999 10.65V10.8C8.37999 10.87 8.50999 10.99 8.50999 10.99H8.87999H8.86999Z" fill="white"/>
<path d="M8.87003 11.01H8.49003C8.48003 11 8.36003 10.88 8.34003 10.81V10.63H8.36003C8.36003 10.63 8.45003 10.65 8.49003 10.69C8.53003 10.59 8.58003 10.55 8.67003 10.49H8.68003H8.69003C8.78003 10.55 8.84003 10.59 8.87003 10.69C8.91003 10.65 8.96003 10.64 9.00003 10.63H9.02003V10.8C9.02003 10.87 8.88003 10.99 8.87003 11V11.01ZM8.51003 10.97H8.86003C8.91003 10.92 8.99003 10.84 9.00003 10.8V10.67C9.00003 10.67 8.92003 10.7 8.89003 10.74L8.87003 10.78V10.74C8.83003 10.63 8.78003 10.59 8.69003 10.53C8.60003 10.59 8.55003 10.62 8.52003 10.74V10.78L8.48003 10.74C8.45003 10.69 8.42003 10.68 8.37003 10.67V10.8C8.37003 10.8 8.47003 10.93 8.51003 10.97Z" fill="black"/>
<path d="M8.93 11.52C8.93 11.52 9.12 11.31 9.13 11.23V10.99C9.06 10.99 8.99 11.05 8.94 11.15C8.9 10.95 8.83 10.81 8.69 10.72C8.56 10.82 8.49 10.95 8.44 11.15C8.39 11.05 8.32 11 8.25 10.99V11.23C8.26 11.31 8.45 11.52 8.45 11.52H8.94H8.93Z" fill="white"/>
<path d="M8.92998 11.54H8.42998C8.40998 11.52 8.23998 11.32 8.22998 11.24V10.97H8.24998C8.31998 10.98 8.37998 11.03 8.42998 11.1C8.47998 10.91 8.54998 10.79 8.66998 10.7H8.67998H8.68998C8.80998 10.79 8.87998 10.91 8.92998 11.1C8.97998 11.03 9.03998 10.98 9.10998 10.97H9.12998V11.23C9.12998 11.32 8.94998 11.51 8.92998 11.54ZM8.44998 11.5H8.91998C8.97998 11.44 9.09998 11.29 9.09998 11.23V11.02C9.03998 11.04 8.98998 11.09 8.94998 11.16L8.91998 11.21V11.16C8.85998 10.96 8.78998 10.84 8.67998 10.75C8.56998 10.84 8.49998 10.96 8.44998 11.16V11.21L8.40998 11.16C8.36998 11.08 8.31998 11.03 8.25998 11.02V11.23C8.26998 11.29 8.38998 11.44 8.43998 11.51L8.44998 11.5Z" fill="black"/>
<path d="M8.93 11.84C8.93 11.84 9.09 11.67 9.13 11.6V11.36C9.06 11.36 8.99 11.42 8.94 11.52C8.9 11.32 8.83 11.21 8.69 11.11C8.56 11.21 8.49 11.32 8.44 11.52C8.39 11.42 8.32 11.37 8.25 11.36V11.6C8.29 11.67 8.45 11.84 8.45 11.84H8.94H8.93Z" fill="white"/>
<path d="M8.92998 11.86H8.42998C8.42998 11.86 8.26998 11.69 8.22998 11.62V11.35H8.24998C8.31998 11.36 8.37998 11.41 8.42998 11.48C8.47998 11.31 8.54998 11.2 8.66998 11.11H8.67998H8.68998C8.81998 11.2 8.88998 11.31 8.92998 11.48C8.97998 11.41 9.03998 11.36 9.10998 11.35H9.12998V11.61C9.09998 11.69 8.93998 11.85 8.92998 11.86ZM8.44998 11.82H8.91998C8.91998 11.82 9.06998 11.66 9.09998 11.6V11.39C9.03998 11.41 8.98998 11.46 8.94998 11.53L8.91998 11.58V11.53C8.86998 11.34 8.79998 11.23 8.67998 11.14C8.55998 11.23 8.48998 11.34 8.44998 11.53V11.58L8.40998 11.53C8.36998 11.45 8.31998 11.4 8.25998 11.39V11.6C8.29998 11.66 8.41998 11.79 8.43998 11.82H8.44998Z" fill="black"/>
<path d="M8.99999 12.02C8.94999 11.81 8.90999 11.66 8.67999 11.5C8.44999 11.66 8.40999 11.81 8.35999 12.02H8.99999Z" fill="white"/>
<path d="M9.03003 12.04H8.34003V12.02C8.39003 11.82 8.43003 11.66 8.67003 11.49H8.68003H8.69003C8.93003 11.65 8.97003 11.82 9.02003 12.02V12.04H9.03003ZM8.39003 12H8.97003C8.92003 11.8 8.88003 11.67 8.68003 11.53C8.48003 11.67 8.43003 11.8 8.39003 12Z" fill="black"/>
<path d="M9.12001 12.14V11.84C9.02001 11.88 8.92001 11.94 8.89001 12.01C8.85001 11.84 8.78001 11.77 8.68001 11.67C8.59001 11.77 8.52001 11.84 8.49001 12.01C8.46001 11.94 8.36001 11.88 8.26001 11.84V12.14H9.13001H9.12001Z" fill="white"/>
<path d="M9.13998 12.16H8.22998V11.81H8.25998C8.35998 11.86 8.42998 11.91 8.47998 11.96C8.51998 11.82 8.57998 11.75 8.66998 11.65V11.63L8.70998 11.66C8.78998 11.74 8.84998 11.82 8.88998 11.95C8.92998 11.9 9.00998 11.85 9.10998 11.81H9.13998V12.15V12.16ZM8.26998 12.12H9.09998V11.87C8.99998 11.91 8.92998 11.97 8.89998 12.02L8.87998 12.07V12.02C8.82998 11.87 8.76998 11.8 8.67998 11.7C8.59998 11.79 8.53998 11.86 8.50998 12.02V12.07L8.46998 12.02C8.43998 11.97 8.36998 11.91 8.26998 11.87V12.12Z" fill="black"/>
<path d="M16.27 13.25V12.34C16.3 12.22 16.4 12.12 16.47 12.1V11.3L16.3 11.39L16.11 12.22V13.24H16.26L16.27 13.25Z" fill="white"/>
<path d="M16.29 13.27H16.1V12.23L16.29 11.39L16.49 11.28V12.13H16.48C16.41 12.15 16.32 12.25 16.29 12.36V13.28V13.27ZM16.14 13.23H16.25V12.34C16.28 12.22 16.38 12.12 16.45 12.09V11.34L16.32 11.41L16.13 12.23V13.23H16.14Z" fill="black"/>
<path d="M16.27 13.25V12.34C16.3 12.22 16.4 12.12 16.47 12.1V11.25C16.36 11.25 16.3 11.4 16.3 11.4L16.11 12.23V13.24H16.26L16.27 13.25Z" fill="white"/>
<path d="M16.29 13.27H16.1V12.22L16.29 11.39C16.29 11.39 16.35 11.23 16.48 11.23H16.5V12.12H16.49C16.42 12.14 16.33 12.24 16.3 12.35V13.28L16.29 13.27ZM16.14 13.22H16.25V12.33C16.28 12.21 16.37 12.11 16.45 12.08V11.26C16.37 11.28 16.32 11.39 16.32 11.39L16.13 12.22V13.21L16.14 13.22Z" fill="black"/>
<path d="M16.39 13.48C16.31 13.45 16.2 13.35 16.2 13.26V12.13L16.25 12.04H14.32L14.4 12.13V13.26C14.4 13.36 14.32 13.45 14.25 13.48H16.39Z" fill="white"/>
<path d="M16.48 13.5H14.15L14.23 13.46C14.3 13.43 14.37 13.34 14.37 13.25V12.12L14.27 12H16.28L16.21 12.12V13.25C16.21 13.33 16.31 13.42 16.39 13.46L16.47 13.5H16.48ZM14.32 13.46H16.32C16.25 13.41 16.19 13.33 16.19 13.26V12.12L16.23 12.05H14.38L14.43 12.12V13.26C14.43 13.34 14.38 13.42 14.32 13.46Z" fill="black"/>
<path d="M14.64 13.48C14.72 13.45 14.83 13.35 14.83 13.26V12.18L14.67 12.03H15.98L15.82 12.18V13.26C15.82 13.36 15.93 13.45 16.01 13.48H14.64Z" fill="white"/>
<path d="M16.1 13.5H14.55L14.63 13.46C14.7 13.43 14.81 13.34 14.81 13.25V12.18L14.62 12H16.03L15.84 12.18V13.25C15.84 13.33 15.94 13.42 16.02 13.46L16.1 13.5ZM14.71 13.46H15.93C15.86 13.41 15.8 13.33 15.8 13.26V12.17L15.93 12.05H14.72L14.85 12.17V13.26C14.85 13.34 14.78 13.42 14.72 13.46H14.71Z" fill="black"/>
<path d="M14.82 13.48C14.9 13.45 15.01 13.35 15.01 13.26V12.29L14.9 12.14H15.73L15.62 12.29V13.26C15.62 13.36 15.73 13.45 15.81 13.48H14.81H14.82Z" fill="white"/>
<path d="M15.91 13.5H14.72L14.8 13.46C14.87 13.43 14.98 13.34 14.98 13.25V12.28L14.86 12.1H15.77L15.65 12.28V13.25C15.65 13.33 15.75 13.42 15.83 13.46L15.91 13.5ZM14.89 13.46H15.74C15.67 13.41 15.61 13.33 15.61 13.26V12.28L15.7 12.16H14.94L15.03 12.28V13.26C15.03 13.34 14.96 13.42 14.9 13.46H14.89Z" fill="black"/>
<path d="M15.51 12.14H15.11V13.49H15.51V12.14Z" fill="white"/>
<path d="M15.53 13.5H15.09V12.11H15.53V13.5ZM15.14 13.46H15.5V12.15H15.14V13.46Z" fill="black"/>
<path d="M16.06 12.51H15.9V13.24H16.06V12.51ZM14.74 12.51H14.58V13.24H14.74V12.51ZM16.2 11.28H16.01V12.03H16.2V11.28ZM16.2 11.14H16.01V11.28H16.2V11.14Z" fill="white"/>
<path d="M16.06 13.26H15.9L15.88 13.24V12.51L15.9 12.49H16.06L16.08 12.51V13.24L16.06 13.26ZM15.92 13.22H16.04V12.53H15.92V13.22ZM14.74 13.26H14.58L14.56 13.24V12.51L14.58 12.49H14.74L14.76 12.51V13.24L14.74 13.26ZM14.6 13.22H14.72V12.53H14.6V13.22ZM16.2 12.05H16.01L15.99 12.03V11.28V11.14L16.01 11.12H16.2L16.22 11.14V12.03L16.2 12.05ZM16.03 12.01H16.18V11.3H16.03V12.01ZM16.03 11.26H16.18V11.16H16.03V11.26Z" fill="black"/>
<path d="M14.62 11.44H14.35V12.02H14.62V11.44Z" fill="white"/>
<path d="M14.62 12.04H14.35L14.33 12.02V11.44L14.35 11.42H14.62L14.64 11.44V12.02L14.62 12.04ZM14.37 12H14.6V11.46H14.37V12Z" fill="black"/>
<path d="M16.01 12.02V10.74C15.96 10.74 15.95 10.93 15.82 10.93C15.75 10.93 15.76 10.85 15.8 10.79C15.83 10.73 15.87 10.66 15.82 10.51C15.78 10.62 15.68 10.66 15.7 10.59C15.73 10.47 15.82 10.45 15.75 10.27C15.73 10.42 15.63 10.42 15.65 10.33C15.68 10.23 15.73 10.19 15.66 10.05C15.62 10.21 15.57 10.2 15.57 10.1C15.57 9.95 15.57 9.79 15.38 9.73C15.38 9.73 15.37 9.59 15.3 9.59C15.23 9.59 15.22 9.73 15.22 9.73C15.03 9.79 15.03 9.95 15.03 10.1C15.03 10.2 14.98 10.21 14.94 10.05C14.87 10.19 14.93 10.23 14.95 10.33C14.97 10.42 14.88 10.43 14.85 10.27C14.78 10.45 14.87 10.47 14.9 10.59C14.92 10.66 14.82 10.62 14.78 10.51C14.73 10.65 14.77 10.73 14.8 10.79C14.84 10.85 14.84 10.93 14.78 10.93C14.65 10.93 14.65 10.74 14.59 10.74V12.02H15.99H16.01ZM16.31 11.05V12.03H16.2V11.05C16.2 11.05 16.28 11.03 16.31 11.05Z" fill="white"/>
<path d="M16.33 12.05H16.18V11.04H16.19C16.24 11.01 16.29 11.01 16.32 11.04V12.05H16.33ZM16.22 12.01H16.29V11.06C16.29 11.06 16.25 11.05 16.22 11.06V12.01ZM14.59 12.04V10.72H14.61C14.61 10.72 14.66 10.76 14.68 10.8C14.71 10.85 14.73 10.91 14.8 10.91C14.82 10.91 14.82 10.91 14.82 10.9C14.83 10.88 14.82 10.84 14.8 10.8C14.77 10.75 14.72 10.66 14.78 10.5L14.8 10.45L14.82 10.5C14.84 10.57 14.89 10.6 14.9 10.6C14.9 10.6 14.9 10.6 14.9 10.59C14.9 10.56 14.88 10.53 14.86 10.5C14.83 10.44 14.79 10.39 14.84 10.25L14.87 10.18V10.26C14.89 10.33 14.92 10.36 14.93 10.36C14.93 10.36 14.93 10.35 14.93 10.32C14.93 10.3 14.92 10.28 14.91 10.26C14.88 10.2 14.86 10.14 14.91 10.02L14.93 9.97V10.02C14.96 10.1 14.98 10.12 14.99 10.13C14.99 10.13 14.99 10.11 14.99 10.08C14.99 9.92 14.99 9.76 15.18 9.7C15.18 9.66 15.21 9.56 15.28 9.56C15.35 9.56 15.37 9.66 15.38 9.7C15.57 9.77 15.57 9.93 15.57 10.07V10.13C15.57 10.13 15.59 10.1 15.61 10.02V9.97L15.65 10.02C15.71 10.14 15.68 10.19 15.65 10.26C15.65 10.28 15.63 10.3 15.63 10.32C15.63 10.34 15.63 10.35 15.63 10.36C15.64 10.36 15.67 10.33 15.68 10.26V10.18L15.72 10.25C15.77 10.39 15.74 10.44 15.7 10.5C15.69 10.53 15.67 10.55 15.66 10.59C15.66 10.59 15.66 10.59 15.66 10.6C15.67 10.6 15.72 10.57 15.74 10.5L15.76 10.45L15.78 10.5C15.84 10.66 15.79 10.74 15.76 10.8C15.74 10.84 15.73 10.88 15.74 10.9C15.74 10.9 15.74 10.91 15.76 10.91C15.82 10.91 15.85 10.85 15.88 10.8C15.9 10.76 15.92 10.72 15.95 10.72H15.97V12.04H14.53H14.59ZM14.63 10.78V12H15.99V10.78C15.99 10.78 15.98 10.8 15.97 10.81C15.94 10.87 15.91 10.94 15.82 10.94C15.79 10.94 15.77 10.92 15.76 10.91C15.74 10.87 15.76 10.81 15.78 10.77C15.8 10.73 15.84 10.67 15.81 10.56C15.78 10.62 15.73 10.64 15.7 10.64C15.68 10.64 15.67 10.62 15.68 10.58C15.69 10.54 15.71 10.51 15.72 10.48C15.74 10.44 15.77 10.4 15.75 10.33C15.74 10.36 15.72 10.39 15.69 10.4C15.67 10.4 15.66 10.4 15.64 10.4C15.62 10.38 15.62 10.36 15.63 10.32C15.63 10.29 15.65 10.27 15.65 10.25C15.67 10.2 15.68 10.16 15.66 10.1C15.64 10.16 15.62 10.19 15.59 10.18C15.57 10.18 15.55 10.16 15.55 10.09C15.55 9.93 15.55 9.79 15.38 9.74H15.37V9.72C15.37 9.69 15.35 9.6 15.31 9.6C15.27 9.6 15.25 9.69 15.25 9.72L15.24 9.74C15.07 9.79 15.07 9.93 15.07 10.08C15.07 10.17 15.04 10.18 15.03 10.19C15 10.19 14.98 10.17 14.96 10.11C14.94 10.18 14.96 10.21 14.97 10.26C14.97 10.28 14.99 10.3 14.99 10.33C14.99 10.36 14.99 10.39 14.98 10.41C14.97 10.42 14.95 10.42 14.93 10.41C14.91 10.41 14.89 10.38 14.87 10.34C14.86 10.41 14.87 10.45 14.9 10.49C14.92 10.52 14.93 10.55 14.94 10.59C14.94 10.63 14.94 10.64 14.92 10.65C14.89 10.65 14.84 10.63 14.81 10.57C14.78 10.68 14.81 10.74 14.84 10.78C14.86 10.82 14.88 10.88 14.86 10.92C14.86 10.93 14.83 10.95 14.8 10.95C14.71 10.95 14.67 10.87 14.65 10.82C14.65 10.82 14.64 10.8 14.63 10.79V10.78Z" fill="black"/>
<path d="M16.31 11.69C16.17 11.76 16.04 11.84 16 12.04H16.31V11.69ZM14.39 11.39V12.03H14.3V11.39C14.3 11.39 14.37 11.37 14.39 11.39Z" fill="white"/>
<path d="M14.41 12.05H14.28V11.38H14.29C14.29 11.38 14.37 11.36 14.4 11.38V12.05H14.41ZM14.32 12.01H14.37V11.4C14.37 11.4 14.34 11.4 14.32 11.4V12.01ZM16.33 12.05H15.98V12.03C16.02 11.83 16.16 11.75 16.3 11.67H16.33V12.05ZM16.02 12.01H16.28V11.72C16.16 11.78 16.05 11.86 16.02 12.01Z" fill="black"/>
<path d="M14.3 11.68C14.44 11.75 14.57 11.83 14.61 12.03H14.3V11.68ZM15.21 10.19L15.13 10.12V10.03C15.13 10.03 15.18 10.04 15.2 10.07C15.22 10.01 15.26 9.97 15.31 9.94C15.36 9.97 15.41 10.01 15.42 10.07C15.44 10.04 15.46 10.03 15.49 10.03V10.12L15.41 10.19H15.21Z" fill="white"/>
<path d="M14.64 12.05H14.29V11.65H14.32C14.47 11.74 14.6 11.82 14.64 12.02V12.04V12.05ZM14.32 12.01H14.58C14.54 11.86 14.44 11.78 14.32 11.72V12.01ZM15.42 10.21H15.2L15.11 10.13V10.01H15.13C15.13 10.01 15.17 10.02 15.19 10.04C15.21 9.99 15.25 9.95 15.3 9.93C15.35 9.96 15.39 9.99 15.41 10.04C15.43 10.03 15.44 10.02 15.47 10.02H15.49V10.14L15.4 10.22L15.42 10.21ZM15.22 10.17H15.41L15.48 10.11V10.06C15.48 10.06 15.46 10.07 15.45 10.09L15.43 10.12V10.08C15.43 10.08 15.37 9.99 15.32 9.97C15.27 10 15.24 10.04 15.23 10.08V10.12L15.2 10.09C15.19 10.07 15.18 10.07 15.17 10.06V10.11L15.24 10.17H15.22Z" fill="black"/>
<path d="M15.17 10.41L15.13 10.33V10.22C15.13 10.22 15.18 10.23 15.2 10.26C15.22 10.2 15.26 10.16 15.31 10.13C15.36 10.16 15.41 10.2 15.42 10.26C15.44 10.23 15.46 10.22 15.49 10.22V10.33L15.45 10.41H15.16H15.17Z" fill="white"/>
<path d="M15.47 10.43H15.16L15.12 10.33V10.19H15.14C15.14 10.19 15.18 10.2 15.2 10.22C15.22 10.17 15.26 10.13 15.31 10.11C15.36 10.14 15.4 10.17 15.42 10.22C15.44 10.21 15.45 10.2 15.48 10.2H15.5V10.34L15.46 10.44L15.47 10.43ZM15.18 10.39H15.44L15.47 10.32V10.24C15.47 10.24 15.45 10.25 15.44 10.27L15.42 10.3V10.26C15.42 10.26 15.36 10.17 15.31 10.15C15.26 10.18 15.23 10.22 15.22 10.27V10.31L15.19 10.28C15.18 10.26 15.17 10.26 15.16 10.25V10.33L15.19 10.4L15.18 10.39Z" fill="black"/>
<path d="M15.17 10.7L15.05 10.55V10.41C15.05 10.41 15.12 10.43 15.15 10.48C15.18 10.38 15.24 10.36 15.32 10.31C15.4 10.36 15.46 10.38 15.49 10.47C15.52 10.42 15.55 10.41 15.59 10.4V10.54L15.47 10.69H15.17V10.7Z" fill="white"/>
<path d="M15.47 10.72H15.15L15.02 10.56V10.39H15.04C15.04 10.39 15.1 10.41 15.13 10.44C15.16 10.37 15.21 10.35 15.26 10.31C15.26 10.31 15.28 10.3 15.29 10.29H15.3H15.31C15.32 10.29 15.33 10.3 15.35 10.31C15.4 10.34 15.45 10.37 15.48 10.43C15.51 10.4 15.53 10.39 15.57 10.38H15.59V10.55L15.46 10.71L15.47 10.72ZM15.18 10.68H15.46L15.57 10.55V10.44C15.57 10.44 15.53 10.46 15.51 10.49L15.49 10.53V10.49C15.46 10.41 15.42 10.39 15.36 10.36C15.36 10.36 15.34 10.36 15.33 10.34C15.33 10.34 15.32 10.34 15.31 10.35C15.25 10.39 15.2 10.41 15.18 10.49V10.53L15.14 10.49C15.12 10.46 15.1 10.44 15.08 10.43V10.54L15.19 10.67L15.18 10.68Z" fill="black"/>
<path d="M15.13 10.99C15.13 10.99 14.99 10.87 14.98 10.8V10.65C15.03 10.65 15.08 10.67 15.12 10.73C15.15 10.6 15.21 10.57 15.31 10.51C15.41 10.57 15.46 10.61 15.5 10.73C15.54 10.67 15.59 10.65 15.64 10.65V10.8C15.62 10.87 15.49 10.99 15.49 10.99H15.12H15.13Z" fill="white"/>
<path d="M15.12 11.01C15.12 11.01 14.97 10.88 14.97 10.8V10.62H14.99C15.04 10.62 15.08 10.64 15.12 10.68C15.16 10.58 15.21 10.54 15.3 10.48H15.31H15.32C15.41 10.54 15.47 10.58 15.5 10.68C15.54 10.64 15.59 10.63 15.63 10.62H15.65V10.8C15.63 10.87 15.51 10.98 15.5 11H15.12V11.01ZM15 10.67V10.8C15 10.8 15.08 10.92 15.14 10.97H15.49C15.49 10.97 15.61 10.85 15.63 10.8V10.67C15.63 10.67 15.55 10.7 15.52 10.74L15.5 10.78V10.74C15.46 10.63 15.41 10.59 15.32 10.53C15.23 10.59 15.18 10.62 15.15 10.74V10.78L15.11 10.74C15.08 10.69 15.05 10.68 15 10.67Z" fill="black"/>
<path d="M15.07 11.52C15.07 11.52 14.88 11.31 14.87 11.23V10.99C14.94 10.99 15.01 11.05 15.06 11.15C15.1 10.95 15.17 10.81 15.31 10.72C15.44 10.82 15.51 10.95 15.56 11.15C15.61 11.05 15.68 11 15.75 10.99V11.23C15.74 11.31 15.55 11.52 15.55 11.52H15.06H15.07Z" fill="white"/>
<path d="M15.06 11.54C15.06 11.54 14.86 11.31 14.86 11.23V10.97H14.88C14.95 10.97 15.01 11.02 15.06 11.1C15.11 10.91 15.18 10.79 15.3 10.7H15.31H15.32C15.44 10.79 15.51 10.91 15.56 11.1C15.61 11.03 15.67 10.98 15.74 10.97H15.76V11.23C15.75 11.32 15.58 11.51 15.56 11.53H15.06V11.54ZM14.9 11.01V11.23C14.9 11.29 15.03 11.44 15.08 11.5H15.55C15.6 11.44 15.72 11.29 15.73 11.22V11.01C15.67 11.03 15.62 11.08 15.58 11.15L15.55 11.2V11.15C15.49 10.95 15.42 10.83 15.31 10.74C15.2 10.83 15.13 10.95 15.08 11.15V11.2L15.04 11.15C15 11.07 14.95 11.02 14.89 11.01H14.9Z" fill="black"/>
<path d="M15.07 11.84C15.07 11.84 14.91 11.67 14.87 11.6V11.36C14.94 11.36 15.01 11.42 15.06 11.52C15.1 11.32 15.17 11.21 15.31 11.11C15.44 11.21 15.51 11.32 15.56 11.52C15.61 11.42 15.68 11.37 15.75 11.36V11.6C15.71 11.67 15.55 11.84 15.55 11.84H15.06H15.07Z" fill="white"/>
<path d="M15.06 11.86C15.06 11.86 14.89 11.68 14.86 11.61V11.34H14.88C14.95 11.35 15.01 11.4 15.06 11.47C15.11 11.3 15.18 11.19 15.3 11.1H15.31H15.32C15.45 11.19 15.52 11.3 15.56 11.47C15.61 11.4 15.67 11.35 15.74 11.34H15.76V11.6C15.72 11.68 15.57 11.84 15.56 11.85H15.06V11.86ZM14.9 11.6C14.93 11.66 15.06 11.79 15.08 11.82H15.55C15.55 11.82 15.7 11.66 15.73 11.6V11.39C15.67 11.41 15.62 11.46 15.58 11.53L15.55 11.58V11.53C15.5 11.34 15.43 11.23 15.31 11.14C15.19 11.23 15.12 11.34 15.08 11.53V11.58L15.04 11.53C15 11.45 14.95 11.4 14.89 11.39V11.6H14.9Z" fill="black"/>
<path d="M15 12.02C15.05 11.81 15.09 11.66 15.32 11.5C15.55 11.66 15.59 11.81 15.64 12.02H15Z" fill="white"/>
<path d="M15.66 12.04H14.97V12.02C15.02 11.82 15.06 11.66 15.3 11.49H15.31H15.32C15.56 11.65 15.6 11.82 15.65 12.02V12.04H15.66ZM15.02 12H15.6C15.55 11.8 15.51 11.67 15.31 11.53C15.11 11.67 15.06 11.8 15.02 12Z" fill="black"/>
<path d="M14.88 12.14V11.84C14.98 11.88 15.08 11.94 15.11 12.01C15.15 11.84 15.22 11.77 15.32 11.67C15.41 11.77 15.48 11.84 15.51 12.01C15.54 11.94 15.64 11.88 15.74 11.84V12.14H14.87H14.88Z" fill="white"/>
<path d="M15.77 12.16H14.86V11.81H14.89C14.99 11.86 15.06 11.91 15.11 11.96C15.15 11.83 15.22 11.75 15.29 11.67L15.32 11.64V11.66C15.42 11.76 15.48 11.83 15.52 11.97C15.56 11.92 15.64 11.87 15.74 11.83H15.77V12.17V12.16ZM14.9 12.12H15.73V11.87C15.63 11.91 15.56 11.97 15.53 12.02L15.51 12.07V12.02C15.46 11.87 15.41 11.8 15.32 11.7C15.24 11.79 15.17 11.86 15.13 12.02V12.07L15.09 12.02C15.06 11.97 14.99 11.91 14.89 11.87V12.12H14.9Z" fill="black"/>
<path d="M7.30002 13.47V13.74H16.69V13.47H7.30002ZM7.13002 13.75V14.11H16.86V13.75H7.13002ZM16.87 14.1H7.13002H6.85002V14.57H17.15V14.1H16.87ZM6.56002 14.58V15.13H17.44V14.58H6.56002ZM17.44 15.13H6.56002H6.27002V15.68H17.72V15.13H17.43H17.44Z" fill="white"/>
<path d="M17.74 15.71H6.25V15.12H6.54V14.57H6.83V14.1H7.11V13.74H7.28V13.46H16.71V13.74H16.88V14.1H17.16V14.57H17.45V15.12H17.74V15.71ZM6.29 15.67H17.7V15.16H6.29V15.67ZM6.58 15.11H17.42V14.6H6.58V15.11ZM6.87 14.56H17.13V14.13H16.87H7.14H6.88V14.56H6.87ZM7.15 14.08H16.84V13.76H7.15V14.08ZM7.32 13.72H16.67V13.49H7.32V13.72Z" fill="black"/>
<path d="M8.32001 13.47H9.03001V15.68H8.32001V13.47Z" fill="white"/>
<path d="M9.04999 15.71H8.29999V13.45H9.04999V15.71ZM8.33999 15.66H9.00999V13.49H8.33999V15.66Z" fill="black"/>
<path d="M8.47998 13.47H8.87998V15.68H8.47998V13.47Z" fill="white"/>
<path d="M8.90002 15.71H8.46002V13.45H8.90002V15.71ZM8.50002 15.66H8.85002V13.49H8.50002V15.66Z" fill="black"/>
<path d="M11.64 13.47H12.35V15.68H11.64V13.47Z" fill="white"/>
<path d="M12.38 15.71H11.63V13.45H12.38V15.71ZM11.67 15.66H12.34V13.49H11.67V15.66Z" fill="black"/>
<path d="M11.8 13.47H12.2V15.68H11.8V13.47Z" fill="white"/>
<path d="M12.22 15.71H11.78V13.45H12.22V15.71ZM11.82 15.66H12.17V13.49H11.82V15.66Z" fill="black"/>
<path d="M14.96 13.47H15.67V15.68H14.96V13.47Z" fill="white"/>
<path d="M15.69 15.71H14.94V13.45H15.69V15.71ZM14.98 15.66H15.65V13.49H14.98V15.66Z" fill="black"/>
<path d="M15.12 13.47H15.52V15.68H15.12V13.47Z" fill="white"/>
<path d="M15.54 15.71H15.1V13.45H15.54V15.71ZM15.14 15.66H15.49V13.49H15.14V15.66Z" fill="black"/>
<path d="M12.18 15.43H11.8V15.39H12.18V15.43ZM15.52 15.43H15.11V15.39H15.52V15.43ZM8.87997 15.43H8.46997V15.39H8.87997V15.43ZM12.18 15.15H11.8V15.11H12.18V15.15ZM15.52 15.15H15.11V15.11H15.52V15.15ZM8.87997 15.15H8.46997V15.11H8.87997V15.15ZM12.18 14.87H11.8V14.83H12.18V14.87ZM15.52 14.87H15.11V14.83H15.52V14.87ZM8.87997 14.87H8.46997V14.83H8.87997V14.87ZM15.52 14.6H15.11V14.56H15.52V14.6ZM12.18 14.6H11.8V14.56H12.18V14.6ZM8.87997 14.6H8.46997V14.56H8.87997V14.6ZM15.52 14.32H15.11V14.28H15.52V14.32ZM8.87997 14.32H8.46997V14.28H8.87997V14.32ZM12.18 14.32H11.8V14.28H12.18V14.32ZM15.52 14.04H15.11V14H15.52V14.04ZM8.87997 14.04H8.46997V14H8.87997V14.04ZM12.18 14.04H11.8V14H12.18V14.04ZM15.52 13.77H15.11V13.73H15.52V13.77ZM8.87997 13.77H8.46997V13.73H8.87997V13.77ZM12.18 13.77H11.8V13.73H12.18V13.77ZM16.28 13.27H7.71997V13.23H16.28V13.27Z" fill="black"/>
</g>
</g>
<defs>
<clipPath id="clip0_170_17592">
<rect width="24" height="24" fill="white"/>
</clipPath>
</defs>
</svg>
