<svg width="24" height="24" viewBox="0 0 24 24" fill="none" xmlns="http://www.w3.org/2000/svg">
<g clip-path="url(#clip0_104_15727)">
<mask id="mask0_104_15727" style="mask-type:luminance" maskUnits="userSpaceOnUse" x="0" y="0" width="24" height="24">
<path d="M12 24C18.6274 24 24 18.6274 24 12C24 5.37258 18.6274 0 12 0C5.37258 0 0 5.37258 0 12C0 18.6274 5.37258 24 12 24Z" fill="white"/>
</mask>
<g mask="url(#mask0_104_15727)">
<path d="M24 0H0V24H24V0Z" fill="#FF3B45"/>
<path d="M18 0H6V24H18V0Z" fill="white"/>
<path d="M11.71 14.42V16.84H12.15V14.35L14.48 14.84L14.19 14.07L16.44 12.03L15.82 11.93L16.23 10.46L14.91 10.7L14.62 10L13.42 11.16L13.78 8.45L12.95 8.8L11.96 7.16L11.02 8.88L10.07 8.35L10.54 11.16L9.27 9.89L9.16 10.67L7.81 10.38L8.25 11.79L7.56 12.03L9.74 13.93L9.41 14.7L11.71 14.42Z" fill="#FF3B45"/>
</g>
</g>
<defs>
<clipPath id="clip0_104_15727">
<rect width="24" height="24" fill="white"/>
</clipPath>
</defs>
</svg>
