<svg width="24" height="24" viewBox="0 0 24 24" fill="none" xmlns="http://www.w3.org/2000/svg">
<g clip-path="url(#clip0_170_16064)">
<mask id="mask0_170_16064" style="mask-type:luminance" maskUnits="userSpaceOnUse" x="0" y="0" width="24" height="24">
<path d="M12 24C18.6274 24 24 18.6274 24 12C24 5.37257 18.6274 -1.52588e-05 12 -1.52588e-05C5.37258 -1.52588e-05 0 5.37257 0 12C0 18.6274 5.37258 24 12 24Z" fill="white"/>
</mask>
<g mask="url(#mask0_170_16064)">
<path d="M0 -0.0800171H36.24V24.08H0V-0.0800171Z" fill="white"/>
<path d="M0 -0.0800171H12.08V18.04H0V-0.0800171Z" fill="#0033A0"/>
<path d="M0 12H36.24V24.08H0V12Z" fill="#DA281B"/>
<path d="M7.86001 7.50998L9.64001 6.21998H7.44001L6.77001 4.12998L6.09001 6.21998H3.89001L5.67001 7.50998L4.99001 9.59998L6.77001 8.30998L8.54001 9.59998L7.86001 7.50998Z" fill="white"/>
</g>
</g>
<defs>
<clipPath id="clip0_170_16064">
<rect width="24" height="24" fill="white"/>
</clipPath>
</defs>
</svg>
