<svg width="24" height="24" viewBox="0 0 24 24" fill="none" xmlns="http://www.w3.org/2000/svg">
<g clip-path="url(#clip0_121_13903)">
<mask id="mask0_121_13903" style="mask-type:luminance" maskUnits="userSpaceOnUse" x="0" y="0" width="24" height="24">
<path d="M12 24C18.6274 24 24 18.6274 24 12C24 5.37258 18.6274 0 12 0C5.37258 0 0 5.37258 0 12C0 18.6274 5.37258 24 12 24Z" fill="white"/>
</mask>
<g mask="url(#mask0_121_13903)">
<path d="M30 0H-6V24H30V0Z" fill="#F42525"/>
<path d="M7.04 8.1L7.74 10.08L6.06 8.84V8.83V8.84L4.38 10.08L5.08 8.1L5.1 8.09H5.09L3.37 6.92L5.45 6.93L6.02 4.94L6.66 6.92L6.64999 6.93H6.66L8.75 6.92L7.02999 8.09H7.02L7.04 8.1Z" fill="#FFDE00"/>
<path d="M11.65 10.12L11.76 9.71001L11.89 10.11L11.78 10.49L11.65 10.12Z" fill="#FFDE00"/>
<path d="M11.89 10.11H12.32L11.97 10.35L11.57 10.34L11.89 10.11Z" fill="#FFDE00"/>
<path d="M11.97 10.35L12.12 10.76L11.77 10.5L11.65 10.13L11.97 10.35Z" fill="#FFDE00"/>
<path d="M11.65 10.11H11.22L11.58 10.35L11.97 10.34L11.65 10.11Z" fill="#FFDE00"/>
<path d="M11.57 10.35L11.43 10.76L11.77 10.5L11.9 10.13L11.57 10.35Z" fill="#FFDE00"/>
<path d="M9.70999 12.15L9.93999 11.79L9.94999 12.21L9.72999 12.54L9.70999 12.15Z" fill="#FFDE00"/>
<path d="M9.94999 12.21L10.36 12.33L9.95999 12.46L9.57999 12.34L9.94999 12.21Z" fill="#FFDE00"/>
<path d="M9.95999 12.47L9.97999 12.89L9.72999 12.56L9.70999 12.16L9.95999 12.47Z" fill="#FFDE00"/>
<path d="M9.72 12.15L9.31 12.03L9.58 12.35L9.96 12.46L9.72 12.15Z" fill="#FFDE00"/>
<path d="M9.57999 12.35L9.32999 12.7L9.71999 12.56L9.94999 12.23L9.57999 12.35Z" fill="#FFDE00"/>
<path d="M12.15 7.61L12.48 7.33L12.36 7.74L12.05 7.99L12.15 7.61Z" fill="#FFDE00"/>
<path d="M12.36 7.75L12.72 7.98H12.29L11.97 7.76L12.36 7.75Z" fill="#FFDE00"/>
<path d="M12.29 7.99L12.19 8.39999L12.05 8L12.15 7.62L12.29 7.99Z" fill="#FFDE00"/>
<path d="M12.16 7.61L11.81 7.37L11.97 7.76L12.3 7.98L12.16 7.61Z" fill="#FFDE00"/>
<path d="M11.96 7.76001L11.62 8.02001L12.05 8.00001L12.36 7.76001H11.96Z" fill="#FFDE00"/>
<path d="M10.95 5.25L11.18 4.89L11.19 5.32L10.96 5.65L10.95 5.25Z" fill="#FFDE00"/>
<path d="M11.19 5.32001L11.6 5.45001L11.19 5.57001L10.81 5.45001L11.19 5.32001Z" fill="#FFDE00"/>
<path d="M11.19 5.56999L11.21 5.99999L10.96 5.65999L10.95 5.25999L11.19 5.56999Z" fill="#FFDE00"/>
<path d="M10.95 5.25L10.54 5.12L10.81 5.45L11.2 5.56L10.95 5.25Z" fill="#FFDE00"/>
<path d="M10.81 5.46L10.55 5.8L10.96 5.66L11.18 5.33L10.81 5.46Z" fill="#FFDE00"/>
</g>
</g>
<defs>
<clipPath id="clip0_121_13903">
<rect width="24" height="24" fill="white"/>
</clipPath>
</defs>
</svg>
