<svg width="24" height="24" viewBox="0 0 24 24" fill="none" xmlns="http://www.w3.org/2000/svg">
<g clip-path="url(#clip0_170_14756)">
<mask id="mask0_170_14756" style="mask-type:luminance" maskUnits="userSpaceOnUse" x="0" y="0" width="24" height="24">
<path d="M12 24C18.6274 24 24 18.6274 24 12C24 5.37256 18.6274 -1.90735e-05 12 -1.90735e-05C5.37258 -1.90735e-05 0 5.37256 0 12C0 18.6274 5.37258 24 12 24Z" fill="white"/>
</mask>
<g mask="url(#mask0_170_14756)">
<path d="M0 -0.0200195H36.07V24.03H0V-0.0200195Z" fill="white"/>
<path d="M0 -0.0200195H36.07V5.98998H0V-0.0200195Z" fill="#FFD100"/>
<path d="M0 12H36.07V24.02H0V12Z" fill="#EF3340"/>
<path d="M0 18.02H36.07V24.03H0V18.02Z" fill="#003DA5"/>
<path d="M12 12L0 24.03V-0.0200195L12 12Z" fill="#009639"/>
<path d="M6.27 8.88998C4.55 9.09998 3.33 10.66 3.53 12.37C3.7 13.8 4.83 14.93 6.27 15.11C4.55 15.59 2.77 14.58 2.3 12.86C1.82 11.14 2.83 9.35998 4.55 8.88998C5.11 8.72998 5.71 8.72998 6.27 8.88998Z" fill="white"/>
<path d="M6.03001 9.98998L5.88001 10.45L6.27001 10.17L6.66001 10.45L6.51002 9.98998L6.91001 9.70998H6.42001L6.27001 9.24998L6.12001 9.70998H5.64001L6.03001 9.98998Z" fill="white"/>
<path d="M6.27001 10.68L6.12001 11.13H5.64001L6.03001 11.42L5.88001 11.88L6.27001 11.59L6.66001 11.88L6.51002 11.42L6.91001 11.13H6.42001L6.27001 10.68Z" fill="white"/>
<path d="M6.27001 12.1L6.12001 12.56H5.64001L6.03001 12.84L5.88001 13.3L6.27001 13.02L6.66001 13.3L6.51002 12.84L6.91001 12.56H6.42001L6.27001 12.1Z" fill="white"/>
<path d="M6.42001 13.98L6.27001 13.52L6.12001 13.98H5.64001L6.03001 14.27L5.88001 14.72L6.27001 14.44L6.66001 14.72L6.51002 14.27L6.91001 13.98H6.42001Z" fill="white"/>
</g>
</g>
<defs>
<clipPath id="clip0_170_14756">
<rect width="24" height="24" fill="white"/>
</clipPath>
</defs>
</svg>
