<svg width="24" height="24" viewBox="0 0 24 24" fill="none" xmlns="http://www.w3.org/2000/svg">
<g clip-path="url(#clip0_161_12509)">
<mask id="mask0_161_12509" style="mask-type:luminance" maskUnits="userSpaceOnUse" x="0" y="0" width="24" height="24">
<path d="M12 24C18.6274 24 24 18.6274 24 12C24 5.37258 18.6274 0 12 0C5.37258 0 0 5.37258 0 12C0 18.6274 5.37258 24 12 24Z" fill="white"/>
</mask>
<g mask="url(#mask0_161_12509)">
<path d="M0.0999756 0.0399933H35.97V23.96H0.0999756V0.0399933Z" fill="#002A8F"/>
<path d="M3.67999 4.82999H35.97V9.60999H5.59999V14.39H35.97V19.17H3.67999V4.82999Z" fill="white"/>
<path d="M12 12L0.0999756 23.96V0.0399933L12 12Z" fill="#CB1515"/>
<path d="M6.85999 12.51L8.25999 11.49H6.52999L5.99999 9.84999L5.46999 11.49H3.73999L5.13999 12.51L4.59999 14.15L5.99999 13.14L7.39999 14.15L6.85999 12.51Z" fill="white"/>
</g>
</g>
<defs>
<clipPath id="clip0_161_12509">
<rect width="24" height="24" fill="white"/>
</clipPath>
</defs>
</svg>
