<svg width="24" height="24" viewBox="0 0 24 24" fill="none" xmlns="http://www.w3.org/2000/svg">
<g clip-path="url(#clip0_170_14315)">
<mask id="mask0_170_14315" style="mask-type:luminance" maskUnits="userSpaceOnUse" x="0" y="0" width="24" height="24">
<path d="M12 24C18.6274 24 24 18.6274 24 12C24 5.37258 18.6274 0 12 0C5.37258 0 0 5.37258 0 12C0 18.6274 5.37258 24 12 24Z" fill="white"/>
</mask>
<g mask="url(#mask0_170_14315)">
<path d="M0 0H24V24H0" fill="#002B7F"/>
<path d="M0 15H24V18H0" fill="#F9E814"/>
<path d="M4.09002 7.73L4.13002 7.69L4.89002 5.33L5.69002 7.73L3.65002 6.26H6.18002M6.49002 10.76L7.56002 7.56L8.63002 10.76L5.87002 8.8H9.25002" fill="white"/>
</g>
</g>
<defs>
<clipPath id="clip0_170_14315">
<rect width="24" height="24" fill="white"/>
</clipPath>
</defs>
</svg>
