<svg width="24" height="24" viewBox="0 0 24 24" fill="none" xmlns="http://www.w3.org/2000/svg">
<g clip-path="url(#clip0_250_2)">
<path d="M12 24C18.6274 24 24 18.6274 24 12C24 5.37258 18.6274 0 12 0C5.37258 0 0 5.37258 0 12C0 18.6274 5.37258 24 12 24Z" fill="#62B5E5"/>
<mask id="mask0_250_2" style="mask-type:luminance" maskUnits="userSpaceOnUse" x="0" y="0" width="24" height="24">
<path d="M12 24C18.6274 24 24 18.6274 24 12C24 5.37258 18.6274 0 12 0C5.37258 0 0 5.37258 0 12C0 18.6274 5.37258 24 12 24Z" fill="white"/>
</mask>
<g mask="url(#mask0_250_2)">
<path d="M11.5939 3.92778C12.7768 3.91136 12.0227 3.33726 12.768 3.14021C13.5133 2.94315 16.3977 2.57873 13.0232 2.15115C9.64863 1.72294 11.3678 -0.437057 11.3678 -0.437057C20.5964 0.523574 23.5781 7.03705 24.0006 8.08484V9.47052C22.6149 9.57473 23.3975 8.27052 22.092 8.13978C20.7865 8.00905 22.5758 8.81873 20.6949 8.69115C18.8147 8.56357 19.2594 7.67684 18.6682 7.00168C18.0777 6.32652 17.0589 5.7461 16.5455 6.23747C16.032 6.72884 12.6884 7.27515 13.3067 5.62168C13.9251 3.96821 11.6956 4.99894 10.7438 5.03621C9.79137 5.07347 10.4116 3.94421 11.5945 3.92778H11.5939Z" fill="#008751"/>
<path d="M-0.469886 19.9611C-3.13136 7.36673 5.42275 0.323998 5.42275 0.323998C5.42275 0.323998 7.89032 -1.05348 6.85138 1.38442C5.81306 3.82231 7.61117 3.29873 6.60569 4.61495C5.60022 5.93116 6.95559 5.83263 5.8598 7.87326C4.76338 9.91389 4.55559 7.89158 3.10927 10.8827C1.66296 13.8739 5.49159 10.6023 4.45011 13.2644C4.21896 13.8556 3.97896 14.4524 3.87096 15.0815C3.79201 15.5425 3.68843 16.2897 4.11917 16.6244C4.49622 16.9181 5.09811 16.7065 5.36843 17.2067C5.41517 17.2926 5.4398 17.3886 5.4518 17.4859C5.5339 18.1813 5.3438 19.0295 4.7918 19.5189C4.3219 19.9358 3.67075 20.0425 3.09917 20.2541C2.24148 20.5724 1.64401 21.1718 1.29538 22.0194L-0.470517 19.9611H-0.469886Z" fill="#008751"/>
<path d="M32.6962 15.7838C32.6962 15.7838 31.2316 13.0573 27.3543 16.7728C23.4771 20.4884 22.6459 16.9048 24.4358 14.8042C26.2257 12.7036 23.5175 14.0722 24.6802 12.6095C25.8429 11.1467 25.3863 8.81936 24.2236 10.5006C23.0608 12.1819 22.3029 15.4213 20.9716 13.0724C19.6396 10.7236 16.9421 15.3404 17.0084 16.4419C17.0747 17.5434 13.4968 20.6293 13.9857 18.3025C14.4745 15.9758 10.6895 16.4166 9.96821 19.1539C9.24695 21.8918 11.9514 19.9863 10.9731 22.0333C9.9941 24.0802 8.84716 21.4888 7.58147 21.9537C7.49937 21.984 7.42358 22.0149 7.35284 22.0471C6.696 22.3465 6.50147 23.1884 6.94863 23.7543C6.94863 23.7543 20.0981 26.4897 32.6968 15.7831L32.6962 15.7838Z" fill="#008751"/>
<path d="M12.192 9.87094C12.192 9.87094 12.3948 10.8107 10.0484 10.2922C10.0484 10.2922 9.19644 9.87915 9.95118 9.51031C10.7059 9.14147 11.8649 8.92989 12.192 9.87094Z" fill="#008751"/>
<path d="M9.42192 11.292C9.42192 11.292 9.50781 11.6905 8.51244 11.4707C8.51244 11.4707 8.15118 11.2958 8.47139 11.1392C8.7916 10.9825 9.28297 10.8928 9.42192 11.292Z" fill="#008751"/>
<path d="M14.4947 15.0215C14.4947 15.0215 15.6732 14.7196 15.8558 13.6604C15.8558 13.6604 16.4779 12.3726 15.6353 12.6429C14.7928 12.9133 12.2633 15.0183 14.4947 15.0215Z" fill="#008751"/>
</g>
</g>
<defs>
<clipPath id="clip0_250_2">
<rect width="24" height="24" fill="white"/>
</clipPath>
</defs>
</svg>
