<svg width="24" height="24" viewBox="0 0 24 24" fill="none" xmlns="http://www.w3.org/2000/svg">
<g clip-path="url(#clip0_161_12545)">
<mask id="mask0_161_12545" style="mask-type:luminance" maskUnits="userSpaceOnUse" x="0" y="0" width="24" height="24">
<path d="M12 24C18.6274 24 24 18.6274 24 12C24 5.37258 18.6274 0 12 0C5.37258 0 0 5.37258 0 12C0 18.6274 5.37258 24 12 24Z" fill="white"/>
</mask>
<g mask="url(#mask0_161_12545)">
<path d="M-0.039978 0.0199966H35.9V23.98H-0.039978V0.0199966Z" fill="#6AB2E7"/>
<path d="M-0.039978 12H35.9V23.98H-0.039978V12Z" fill="#12AD2B"/>
<path d="M-0.039978 0.0199966V23.98L5.98002 17.99L12 12L5.98002 6.01L-0.039978 0.0199966Z" fill="white"/>
<path d="M4.69 9.1L5.41 11.32H7.74L5.85 12.69L6.57 14.91L4.68 13.54L2.79 14.91L3.51 12.69L1.62 11.32H3.95L4.67 9.1H4.69Z" fill="#D7141A"/>
</g>
</g>
<defs>
<clipPath id="clip0_161_12545">
<rect width="24" height="24" fill="white"/>
</clipPath>
</defs>
</svg>
