<svg width="24" height="24" viewBox="0 0 24 24" fill="none" xmlns="http://www.w3.org/2000/svg">
<g clip-path="url(#clip0_170_16211)">
<mask id="mask0_170_16211" style="mask-type:luminance" maskUnits="userSpaceOnUse" x="0" y="0" width="24" height="24">
<path d="M12 24C18.6274 24 24 18.6274 24 12C24 5.37258 18.6274 0 12 0C5.37258 0 0 5.37258 0 12C0 18.6274 5.37258 24 12 24Z" fill="white"/>
</mask>
<g mask="url(#mask0_170_16211)">
<path d="M0 0H24V24H0V0Z" fill="black"/>
<path d="M0 0H24V16H0V0Z" fill="white"/>
<path d="M0 0H24V8H0V0Z" fill="#CE1126"/>
<path d="M12.03 12.08L14.34 14.23L14.18 10.33C14.16 9.74 13.64 9.87 13.27 10.09C12.89 10.33 12.46 10.33 12.01 10.17C11.55 10.33 11.12 10.33 10.75 10.09C10.38 9.88 9.85999 9.74 9.83999 10.33L9.67999 14.23L12.05 12.08H12.03Z" fill="white"/>
<path d="M9.65999 14.25C9.65999 14.25 9.64999 14.24 9.64999 14.23L9.80999 10.33C9.80999 10.13 9.87999 10 9.99999 9.93C10.23 9.8 10.6 9.98 10.75 10.07C11.1 10.29 11.52 10.32 12 10.15C12 10.15 12 10.15 12.01 10.15C12.49 10.32 12.91 10.29 13.26 10.07C13.41 9.98 13.78 9.8 14.01 9.93C14.13 10 14.19 10.13 14.2 10.33L14.36 14.23C14.36 14.23 14.36 14.25 14.35 14.25H14.33L12.03 12.12L9.67999 14.25C9.67999 14.25 9.67999 14.25 9.66999 14.25H9.65999ZM10.19 9.93C10.13 9.93 10.07 9.94 10.02 9.97C9.91999 10.03 9.85999 10.15 9.84999 10.33L9.68999 14.18L12.02 12.07C12.02 12.07 12.04 12.07 12.05 12.07L14.32 14.18L14.16 10.33C14.16 10.15 14.1 10.02 13.99 9.97C13.78 9.85 13.42 10.03 13.28 10.11C12.92 10.34 12.5 10.37 12 10.2C11.51 10.37 11.08 10.34 10.72 10.11C10.61 10.05 10.38 9.93 10.18 9.93H10.19Z" fill="#C09300"/>
<path d="M10.09 10.19L9.93 13.98L9.66 14.22L9.82 10.32C9.9 10.27 10.03 10.18 10.09 10.18V10.19ZM10.42 10.46L10.28 13.63L10.01 13.91L10.17 10.25C10.22 10.3 10.38 10.43 10.41 10.46H10.42ZM10.71 10.71L10.6 13.36L10.38 13.57L10.52 10.55C10.57 10.6 10.68 10.68 10.71 10.71ZM11.03 10.84L10.92 13.1L10.71 13.27L10.82 10.76C10.87 10.78 10.98 10.84 11.03 10.84ZM11.33 10.84L11.25 12.72L11.03 12.93L11.11 10.86C11.16 10.86 11.3 10.86 11.32 10.84H11.33Z" fill="#C09300"/>
<path d="M13.91 10.19L14.07 13.98L14.34 14.22L14.18 10.32C14.1 10.27 13.97 10.18 13.91 10.18V10.19ZM13.58 10.46L13.72 13.63L13.99 13.91L13.83 10.25C13.78 10.3 13.62 10.43 13.59 10.46H13.58ZM13.29 10.71L13.4 13.36L13.62 13.57L13.48 10.55C13.43 10.6 13.32 10.68 13.29 10.71ZM12.97 10.84L13.08 13.1L13.29 13.27L13.18 10.76C13.13 10.78 13.02 10.84 12.97 10.84ZM12.67 10.84L12.75 12.72L12.97 12.93L12.89 10.86C12.84 10.86 12.7 10.86 12.68 10.84H12.67Z" fill="#C09300"/>
<path d="M12.11 12.51L12.43 13.99L12.32 14.1L12.21 14.02L12.03 12.7L12.11 14.02L12 14.16L11.89 14.02L11.97 12.7L11.79 14.02L11.68 14.1L11.57 13.99L11.89 12.51H12.1H12.11Z" fill="#C09300"/>
<path d="M12 14.18L11.87 14.02L11.92 13.15L11.8 14.03L11.67 14.13L11.55 14.01L11.88 12.51H12.12L12.45 14.01L12.33 14.13L12.2 14.03L12.08 13.15L12.13 14.02L12 14.18ZM11.91 14L12 14.11L12.09 14L12.01 12.69H12.05L12.23 14L12.32 14.07L12.41 13.98L12.09 12.53H11.91L11.59 13.98L11.68 14.07L11.77 14L11.95 12.69H11.99L11.91 14Z" fill="#C09300"/>
<path d="M11.27 11.86L10.63 14.15L11.52 14.29L11.9 12.57L11.28 11.87L11.27 11.86Z" fill="white"/>
<path d="M11.52 14.3L10.63 14.16H10.62C10.62 14.16 10.62 14.15 10.62 14.14L11.26 11.85C11.26 11.85 11.26 11.84 11.27 11.84C11.27 11.84 11.28 11.84 11.29 11.84L11.91 12.54C11.91 12.54 11.91 12.55 11.91 12.56L11.53 14.28C11.53 14.28 11.52 14.3 11.51 14.3H11.52ZM10.65 14.13L11.5 14.26L11.87 12.57L11.28 11.9L10.65 14.13Z" fill="#C09300"/>
<path d="M11.14 12.85C11.14 12.85 11.13 12.85 11.12 12.84L11.04 12.65L11.08 12.63L11.15 12.79L11.55 12.41L11.58 12.44L11.16 12.84C11.16 12.84 11.16 12.84 11.15 12.84L11.14 12.85Z" fill="#C09300"/>
<path d="M11.36 14.29L11.27 14.01L11.13 14.24C11.13 14.24 11.12 14.25 11.11 14.25C11.11 14.25 11.09 14.25 11.09 14.23L10.99 13.88L10.84 14.1L10.81 14.08L10.99 13.83L10.85 13.33V13.31L11.13 13.03C11.13 13.03 11.14 13.03 11.15 13.03C11.15 13.03 11.16 13.03 11.17 13.04L11.24 13.31L11.41 13.08C11.41 13.08 11.42 13.07 11.43 13.08C11.43 13.08 11.44 13.08 11.45 13.1L11.52 13.5L11.7 13.22L11.59 12.84L11.46 13.02C11.46 13.02 11.45 13.02 11.44 13.02C11.44 13.02 11.43 13.02 11.42 13L11.33 12.18H11.37L11.45 12.94L11.68 12.63L11.71 12.66L11.61 12.79L11.72 13.17L11.77 13.09L11.81 13.11L11.74 13.22L11.76 13.28H11.72V13.27L11.53 13.56L11.62 13.99H11.58L11.5 13.6L11.33 13.87C11.33 13.87 11.32 13.88 11.31 13.87C11.31 13.87 11.29 13.87 11.29 13.86L11.2 13.58L11.03 13.86L11.13 14.18L11.27 13.95C11.27 13.95 11.28 13.94 11.29 13.94C11.29 13.94 11.31 13.94 11.31 13.95L11.42 14.27H11.38L11.36 14.29ZM11.2 13.5C11.2 13.5 11.22 13.5 11.22 13.51L11.31 13.79L11.48 13.52L11.41 13.13L11.24 13.36C11.24 13.36 11.23 13.36 11.22 13.36C11.22 13.36 11.21 13.36 11.2 13.34L11.12 13.07L10.88 13.32L11 13.78L11.17 13.5C11.17 13.5 11.18 13.49 11.19 13.49L11.2 13.5Z" fill="#C09300"/>
<path d="M12.73 11.86L13.37 14.15L12.48 14.29L12.1 12.57L12.72 11.87L12.73 11.86Z" fill="white"/>
<path d="M12.48 14.3C12.48 14.3 12.46 14.3 12.46 14.28L12.08 12.56C12.08 12.56 12.08 12.55 12.08 12.54L12.7 11.84C12.7 11.84 12.71 11.84 12.72 11.84C12.72 11.84 12.73 11.84 12.73 11.85L13.37 14.14C13.37 14.14 13.37 14.15 13.37 14.16C13.37 14.16 13.37 14.16 13.36 14.16L12.47 14.3H12.48ZM12.13 12.57L12.5 14.26L13.35 14.13L12.72 11.9L12.13 12.57Z" fill="#C09300"/>
<path d="M12.86 12.85H12.85L12.43 12.45L12.46 12.42L12.86 12.8L12.93 12.64L12.97 12.66L12.89 12.85C12.89 12.85 12.89 12.86 12.87 12.86L12.86 12.85Z" fill="#C09300"/>
<path d="M12.64 14.29H12.6L12.71 13.95C12.71 13.95 12.71 13.94 12.73 13.94C12.73 13.94 12.75 13.94 12.75 13.95L12.88 14.18L12.98 13.86L12.81 13.58L12.72 13.86C12.72 13.86 12.72 13.87 12.7 13.87H12.68L12.51 13.6L12.43 14H12.39L12.48 13.56L12.29 13.27V13.29L12.24 13.28L12.26 13.22L12.19 13.11L12.23 13.09L12.28 13.17L12.39 12.79L12.29 12.66L12.32 12.63L12.55 12.94L12.63 12.17H12.67L12.58 13C12.58 13 12.58 13.02 12.56 13.02H12.54L12.41 12.84L12.3 13.22L12.48 13.5L12.55 13.1C12.55 13.1 12.55 13.08 12.57 13.08H12.59L12.76 13.31L12.83 13.04C12.83 13.04 12.83 13.03 12.85 13.03H12.87L13.15 13.31C13.15 13.31 13.15 13.32 13.15 13.33L13.01 13.83L13.19 14.08L13.16 14.1L13.01 13.88L12.91 14.23C12.91 14.23 12.91 14.24 12.89 14.25C12.89 14.25 12.87 14.25 12.87 14.24L12.73 14.01L12.64 14.29ZM12.52 13.53L12.69 13.8L12.78 13.52C12.78 13.52 12.78 13.51 12.8 13.51C12.8 13.51 12.82 13.51 12.82 13.52L12.99 13.8L13.11 13.34L12.87 13.09L12.79 13.36C12.79 13.36 12.79 13.37 12.77 13.38H12.75L12.58 13.15L12.51 13.54L12.52 13.53Z" fill="#C09300"/>
<path d="M12 15.17C12.67 15.17 13.32 15.12 13.7 15.01C13.86 14.98 13.86 14.9 13.86 14.79C14.02 14.74 13.94 14.55 14.05 14.55C13.94 14.58 13.91 14.36 13.78 14.39C13.78 14.2 13.59 14.18 13.43 14.23C13.11 14.34 12.54 14.36 12.01 14.36C11.47 14.34 10.91 14.34 10.59 14.23C10.43 14.18 10.24 14.2 10.24 14.39C10.1 14.36 10.08 14.58 9.97 14.55C10.08 14.55 10 14.74 10.16 14.79C10.16 14.9 10.16 14.98 10.32 15.01C10.69 15.12 11.34 15.17 12.01 15.17H12Z" fill="white"/>
<path d="M12 15.21C11.28 15.21 10.66 15.15 10.3 15.05C10.12 15.02 10.11 14.92 10.1 14.82C10.02 14.78 10 14.7 9.99001 14.65C9.99001 14.61 9.98001 14.6 9.97001 14.59C9.97001 14.59 9.96001 14.59 9.95001 14.59C9.93001 14.59 9.92001 14.57 9.92001 14.55C9.92001 14.53 9.94001 14.51 9.96001 14.51H9.98001C10 14.51 10.02 14.49 10.05 14.45C10.08 14.41 10.13 14.35 10.19 14.35C10.2 14.28 10.24 14.24 10.27 14.21C10.34 14.16 10.46 14.15 10.59 14.19C10.85 14.28 11.27 14.29 11.71 14.31C11.81 14.31 11.9 14.31 12 14.32C12.69 14.32 13.15 14.28 13.41 14.19C13.54 14.15 13.65 14.16 13.73 14.21C13.76 14.23 13.8 14.27 13.81 14.35C13.88 14.35 13.92 14.41 13.95 14.45C13.98 14.49 14 14.51 14.02 14.51H14.04C14.06 14.51 14.08 14.53 14.08 14.55C14.08 14.57 14.07 14.59 14.05 14.59H14.03C14.03 14.59 14.02 14.61 14.01 14.65C14 14.7 13.98 14.78 13.9 14.82C13.9 14.92 13.88 15.02 13.71 15.05C13.35 15.15 12.73 15.21 12.01 15.21H12ZM10.05 14.57C10.05 14.57 10.07 14.61 10.07 14.63C10.08 14.68 10.09 14.73 10.16 14.75C10.18 14.75 10.19 14.77 10.19 14.79C10.19 14.9 10.19 14.95 10.32 14.97C10.67 15.07 11.29 15.13 12 15.13C12.71 15.13 13.33 15.07 13.68 14.97C13.81 14.95 13.81 14.9 13.81 14.79C13.81 14.77 13.82 14.76 13.84 14.75C13.9 14.73 13.92 14.68 13.93 14.63C13.93 14.61 13.94 14.59 13.95 14.57C13.93 14.55 13.91 14.53 13.89 14.5C13.85 14.44 13.82 14.42 13.78 14.43C13.77 14.43 13.76 14.43 13.75 14.43C13.75 14.43 13.74 14.41 13.74 14.4C13.74 14.35 13.72 14.31 13.69 14.29C13.64 14.25 13.54 14.25 13.44 14.29C13.17 14.38 12.7 14.42 12 14.42C11.9 14.42 11.81 14.42 11.71 14.41C11.26 14.39 10.84 14.38 10.56 14.29C10.46 14.26 10.37 14.26 10.31 14.29C10.28 14.31 10.26 14.35 10.26 14.4C10.26 14.41 10.26 14.42 10.25 14.43C10.25 14.43 10.23 14.44 10.22 14.43C10.18 14.43 10.15 14.45 10.11 14.5C10.09 14.52 10.07 14.55 10.05 14.57Z" fill="#C09300"/>
<path d="M11.08 14.15C11.3 14.18 11.54 14.2 11.73 14.18C11.84 14.18 11.91 14.36 11.7 14.39C11.51 14.41 11.22 14.39 11.06 14.36C10.92 14.34 10.63 14.28 10.44 14.23C10.25 14.15 10.39 13.99 10.49 14.01C10.65 14.06 10.87 14.12 11.08 14.15ZM12.92 14.15C12.7 14.18 12.46 14.2 12.28 14.18C12.17 14.18 12.09 14.36 12.3 14.39C12.49 14.41 12.78 14.39 12.94 14.36C13.08 14.34 13.37 14.28 13.56 14.23C13.75 14.15 13.61 13.99 13.51 14.01C13.35 14.06 13.13 14.12 12.92 14.15Z" fill="white"/>
<path d="M12.48 14.42C12.41 14.42 12.35 14.42 12.29 14.41C12.14 14.39 12.14 14.3 12.14 14.28C12.14 14.21 12.2 14.16 12.27 14.16C12.46 14.18 12.71 14.16 12.91 14.13C13.17 14.1 13.39 14.03 13.5 14C13.57 13.98 13.65 14.03 13.67 14.1C13.67 14.12 13.69 14.21 13.57 14.26C13.37 14.32 13.06 14.37 12.94 14.39C12.83 14.41 12.65 14.43 12.48 14.43V14.42ZM12.27 14.2C12.27 14.2 12.19 14.24 12.18 14.28C12.18 14.33 12.22 14.36 12.3 14.37C12.49 14.39 12.79 14.37 12.94 14.34C13.06 14.32 13.37 14.26 13.56 14.21C13.62 14.18 13.65 14.14 13.64 14.1C13.63 14.05 13.57 14.02 13.52 14.03C13.41 14.07 13.19 14.13 12.93 14.17C12.73 14.2 12.47 14.22 12.28 14.2H12.27ZM11.52 14.42C11.35 14.42 11.16 14.4 11.05 14.38C10.93 14.36 10.62 14.3 10.43 14.25C10.3 14.19 10.32 14.11 10.33 14.09C10.35 14.02 10.43 13.98 10.5 13.99C10.61 14.03 10.83 14.09 11.09 14.13C11.29 14.16 11.54 14.18 11.73 14.16C11.8 14.16 11.86 14.22 11.86 14.28C11.86 14.31 11.86 14.39 11.71 14.42C11.65 14.42 11.59 14.43 11.52 14.43V14.42ZM10.47 14.03C10.47 14.03 10.38 14.06 10.37 14.1C10.36 14.14 10.38 14.18 10.45 14.21C10.64 14.26 10.95 14.32 11.07 14.34C11.22 14.37 11.51 14.39 11.71 14.37C11.79 14.36 11.83 14.33 11.83 14.28C11.83 14.24 11.79 14.2 11.75 14.2C11.56 14.23 11.3 14.2 11.1 14.17C10.84 14.13 10.62 14.07 10.51 14.03C10.51 14.03 10.5 14.03 10.49 14.03H10.47Z" fill="#C09300"/>
<path d="M10.42 14.04C10.26 14.01 10.18 14.2 10.23 14.31C10.25 14.26 10.37 14.26 10.39 14.2C10.42 14.12 10.37 14.12 10.42 14.04ZM11.06 14.54C11.06 14.43 11.17 14.45 11.17 14.34C11.17 14.29 11.14 14.2 11.09 14.2C11.04 14.2 10.98 14.25 10.98 14.31C10.96 14.42 11.06 14.43 11.06 14.54ZM11.83 14.23C11.99 14.23 11.97 14.44 11.9 14.55C11.9 14.47 11.76 14.44 11.76 14.39C11.76 14.31 11.88 14.31 11.83 14.23ZM13.58 14.04C13.74 14.01 13.82 14.2 13.77 14.31C13.75 14.26 13.63 14.26 13.61 14.2C13.58 14.12 13.63 14.12 13.58 14.04ZM12.94 14.54C12.94 14.43 12.83 14.45 12.83 14.34C12.83 14.29 12.86 14.2 12.91 14.2C12.96 14.2 13.02 14.25 13.02 14.31C13.04 14.42 12.94 14.43 12.94 14.54ZM12.17 14.23C12.01 14.23 12.03 14.44 12.1 14.55C12.1 14.47 12.24 14.44 12.24 14.39C12.24 14.31 12.12 14.31 12.17 14.23Z" fill="white"/>
<path d="M12.11 14.57C12.11 14.57 12.1 14.57 12.09 14.57C12.04 14.5 12.01 14.37 12.05 14.29C12.07 14.26 12.1 14.22 12.18 14.22C12.18 14.22 12.2 14.22 12.2 14.23V14.25C12.18 14.28 12.19 14.28 12.22 14.31C12.24 14.33 12.28 14.36 12.28 14.4C12.28 14.44 12.25 14.46 12.21 14.48C12.18 14.5 12.14 14.53 12.14 14.56C12.14 14.56 12.14 14.58 12.13 14.58L12.11 14.57ZM12.14 14.25C12.14 14.25 12.1 14.27 12.09 14.29C12.06 14.34 12.08 14.43 12.11 14.49C12.13 14.46 12.16 14.44 12.18 14.43C12.2 14.41 12.23 14.4 12.23 14.38C12.23 14.35 12.22 14.34 12.19 14.32C12.17 14.3 12.14 14.28 12.15 14.25H12.14ZM11.89 14.57C11.89 14.57 11.88 14.56 11.88 14.55C11.88 14.52 11.85 14.5 11.81 14.47C11.78 14.45 11.74 14.42 11.74 14.39C11.74 14.34 11.77 14.32 11.8 14.3C11.83 14.28 11.83 14.27 11.82 14.24V14.22C11.82 14.22 11.83 14.21 11.84 14.21C11.91 14.21 11.95 14.25 11.97 14.28C12.01 14.36 11.98 14.49 11.93 14.56C11.93 14.56 11.92 14.56 11.91 14.56L11.89 14.57ZM11.86 14.25C11.86 14.25 11.84 14.31 11.82 14.32C11.8 14.34 11.78 14.35 11.78 14.38C11.78 14.39 11.81 14.41 11.83 14.43C11.85 14.45 11.88 14.47 11.9 14.49C11.93 14.43 11.94 14.34 11.92 14.29C11.91 14.27 11.89 14.25 11.87 14.25H11.86ZM12.94 14.56C12.94 14.56 12.92 14.56 12.92 14.54C12.92 14.5 12.9 14.48 12.87 14.46C12.84 14.44 12.81 14.41 12.81 14.34C12.81 14.27 12.85 14.18 12.91 14.18C12.97 14.18 13.04 14.24 13.04 14.31C13.05 14.38 13.02 14.41 13 14.45C12.98 14.48 12.96 14.5 12.96 14.55C12.96 14.56 12.96 14.57 12.94 14.57V14.56ZM12.92 14.22C12.92 14.22 12.86 14.29 12.86 14.33C12.86 14.37 12.88 14.39 12.91 14.41C12.92 14.42 12.94 14.43 12.95 14.45C12.95 14.43 12.97 14.42 12.98 14.41C13 14.38 13.02 14.35 13.01 14.31C13.01 14.27 12.97 14.22 12.92 14.22ZM11.06 14.56C11.06 14.56 11.04 14.56 11.04 14.54C11.04 14.5 11.02 14.47 11 14.44C10.97 14.41 10.94 14.37 10.96 14.3C10.96 14.24 11.02 14.17 11.09 14.17C11.16 14.17 11.19 14.26 11.19 14.33C11.19 14.4 11.16 14.42 11.13 14.45C11.1 14.47 11.08 14.49 11.08 14.53C11.08 14.54 11.08 14.55 11.06 14.55V14.56ZM11.08 14.22C11.08 14.22 10.99 14.26 10.99 14.31C10.98 14.36 10.99 14.38 11.02 14.41C11.03 14.42 11.04 14.44 11.05 14.45C11.06 14.43 11.07 14.42 11.09 14.41C11.12 14.39 11.14 14.37 11.14 14.33C11.14 14.28 11.11 14.22 11.08 14.22ZM13.77 14.33C13.77 14.33 13.75 14.33 13.75 14.32C13.75 14.3 13.71 14.29 13.68 14.28C13.64 14.27 13.6 14.25 13.59 14.22C13.57 14.18 13.58 14.15 13.59 14.13C13.59 14.11 13.59 14.1 13.57 14.06C13.57 14.06 13.57 14.05 13.57 14.04C13.57 14.04 13.57 14.03 13.59 14.03C13.66 14.02 13.73 14.04 13.78 14.1C13.83 14.17 13.84 14.26 13.81 14.32C13.81 14.32 13.8 14.33 13.79 14.33H13.77ZM13.62 14.06C13.62 14.06 13.63 14.11 13.62 14.13C13.62 14.15 13.62 14.16 13.62 14.19C13.62 14.21 13.66 14.22 13.69 14.23C13.71 14.23 13.74 14.25 13.75 14.26C13.76 14.21 13.75 14.15 13.72 14.11C13.7 14.09 13.67 14.05 13.61 14.05L13.62 14.06ZM10.23 14.33C10.23 14.33 10.21 14.33 10.21 14.32C10.18 14.25 10.19 14.16 10.24 14.1C10.28 14.04 10.35 14.01 10.43 14.03C10.43 14.03 10.44 14.03 10.45 14.04C10.46 14.05 10.45 14.05 10.45 14.06C10.43 14.1 10.43 14.11 10.43 14.13C10.43 14.15 10.43 14.17 10.43 14.22C10.41 14.26 10.37 14.27 10.34 14.29C10.31 14.3 10.28 14.31 10.27 14.33C10.27 14.33 10.26 14.34 10.25 14.34L10.23 14.33ZM10.38 14.06C10.32 14.06 10.29 14.1 10.27 14.12C10.24 14.16 10.23 14.22 10.24 14.27C10.26 14.26 10.28 14.25 10.3 14.24C10.33 14.23 10.36 14.22 10.37 14.2C10.38 14.17 10.37 14.15 10.37 14.14C10.37 14.12 10.37 14.1 10.37 14.07L10.38 14.06Z" fill="#C09300"/>
<path d="M10.47 14.09C10.52 14.09 10.61 14.11 10.63 14.14L10.47 14.09ZM10.74 14.18C10.74 14.18 10.88 14.2 10.93 14.23L10.74 14.18ZM11.7 14.28C11.65 14.28 11.54 14.28 11.51 14.3L11.7 14.28ZM11.41 14.28C11.41 14.28 11.27 14.25 11.22 14.28H11.41ZM13.53 14.09C13.48 14.09 13.4 14.11 13.37 14.14L13.53 14.09ZM13.26 14.18C13.26 14.18 13.12 14.2 13.07 14.23L13.26 14.18ZM12.3 14.28C12.35 14.28 12.46 14.28 12.49 14.3L12.3 14.28ZM12.59 14.28C12.59 14.28 12.73 14.25 12.78 14.28H12.59Z" fill="white"/>
<path d="M11.52 14.32H11.51C11.51 14.32 11.51 14.31 11.51 14.3C11.54 14.27 11.63 14.27 11.71 14.27C11.71 14.27 11.72 14.27 11.73 14.27V14.28C11.73 14.28 11.73 14.28 11.72 14.28L11.53 14.3L11.52 14.32ZM12.48 14.32L12.29 14.3C12.29 14.3 12.29 14.3 12.28 14.3C12.28 14.3 12.28 14.29 12.28 14.28C12.28 14.28 12.28 14.28 12.3 14.28C12.38 14.28 12.47 14.28 12.5 14.31C12.5 14.31 12.5 14.32 12.5 14.33C12.5 14.33 12.5 14.33 12.49 14.33L12.48 14.32ZM12.78 14.3H12.59C12.59 14.3 12.57 14.3 12.57 14.28C12.57 14.28 12.57 14.28 12.57 14.27C12.61 14.24 12.72 14.24 12.78 14.27C12.78 14.27 12.78 14.28 12.78 14.29C12.78 14.3 12.78 14.3 12.77 14.3H12.78ZM11.41 14.3H11.22C11.22 14.3 11.21 14.3 11.21 14.29C11.21 14.28 11.21 14.28 11.21 14.27C11.26 14.24 11.38 14.24 11.42 14.27C11.42 14.27 11.42 14.28 11.42 14.29C11.42 14.29 11.42 14.29 11.41 14.29V14.3ZM13.08 14.24H13.07V14.22C13.12 14.19 13.23 14.17 13.26 14.17C13.26 14.17 13.27 14.17 13.28 14.17C13.28 14.17 13.28 14.18 13.28 14.19L13.09 14.24H13.08ZM10.92 14.24L10.73 14.19C10.73 14.19 10.73 14.18 10.73 14.17C10.73 14.17 10.73 14.17 10.75 14.17C10.78 14.17 10.89 14.2 10.94 14.22C10.94 14.22 10.94 14.23 10.94 14.24C10.94 14.24 10.94 14.24 10.93 14.24H10.92ZM13.37 14.16C13.37 14.16 13.37 14.16 13.36 14.16C13.36 14.16 13.36 14.15 13.36 14.14C13.39 14.11 13.48 14.08 13.53 14.08C13.53 14.08 13.54 14.08 13.54 14.09C13.54 14.1 13.54 14.1 13.53 14.11L13.37 14.16ZM10.63 14.16L10.47 14.11C10.47 14.11 10.47 14.1 10.47 14.09C10.47 14.09 10.47 14.09 10.49 14.09C10.55 14.09 10.63 14.12 10.66 14.15C10.66 14.15 10.66 14.16 10.66 14.17C10.66 14.17 10.66 14.17 10.65 14.17L10.63 14.16Z" fill="#C09300"/>
<path d="M10.42 14.52C10.42 14.52 10.39 14.5 10.4 14.49C10.4 14.47 10.42 14.46 10.44 14.46C10.44 14.46 10.47 14.48 10.47 14.49C10.47 14.49 10.47 14.52 10.46 14.52C10.46 14.52 10.45 14.52 10.44 14.52H10.42ZM12.28 14.65L12.26 14.63C12.26 14.62 12.28 14.6 12.29 14.6C12.29 14.6 12.31 14.6 12.32 14.61C12.33 14.62 12.32 14.64 12.32 14.65C12.32 14.65 12.29 14.65 12.28 14.65ZM12.29 14.74C12.29 14.74 12.27 14.73 12.27 14.71C12.27 14.69 12.27 14.69 12.29 14.68H12.3H12.31C12.33 14.68 12.33 14.7 12.33 14.71C12.33 14.72 12.33 14.73 12.31 14.74C12.3 14.74 12.3 14.74 12.29 14.74ZM10.57 14.37C10.57 14.37 10.54 14.38 10.53 14.39C10.51 14.39 10.48 14.41 10.46 14.39C10.44 14.39 10.41 14.39 10.41 14.41C10.41 14.43 10.45 14.44 10.46 14.43C10.47 14.41 10.51 14.4 10.52 14.43C10.5 14.45 10.51 14.48 10.49 14.51C10.49 14.53 10.49 14.54 10.47 14.55C10.45 14.55 10.44 14.55 10.42 14.55C10.4 14.55 10.38 14.56 10.37 14.58C10.36 14.6 10.34 14.62 10.34 14.64C10.34 14.66 10.37 14.67 10.39 14.67C10.41 14.67 10.44 14.68 10.46 14.69C10.5 14.69 10.53 14.71 10.57 14.72C10.62 14.74 10.68 14.74 10.73 14.76C10.73 14.76 10.74 14.76 10.75 14.76C10.77 14.76 10.78 14.74 10.79 14.72C10.8 14.68 10.81 14.64 10.82 14.6C10.82 14.58 10.84 14.55 10.81 14.56C10.79 14.57 10.78 14.59 10.76 14.59C10.73 14.59 10.75 14.62 10.76 14.63C10.76 14.65 10.76 14.67 10.74 14.69C10.72 14.7 10.7 14.69 10.68 14.69C10.66 14.69 10.62 14.69 10.64 14.65C10.64 14.63 10.64 14.61 10.65 14.59C10.65 14.57 10.66 14.55 10.67 14.52C10.66 14.49 10.64 14.52 10.62 14.53C10.61 14.53 10.57 14.54 10.59 14.56C10.61 14.57 10.59 14.6 10.59 14.62C10.59 14.65 10.56 14.65 10.54 14.65C10.52 14.65 10.49 14.63 10.51 14.61C10.51 14.59 10.52 14.57 10.52 14.55L10.54 14.48C10.54 14.48 10.55 14.44 10.56 14.42C10.56 14.4 10.58 14.38 10.58 14.35C10.58 14.34 10.58 14.33 10.57 14.33V14.37ZM10.45 14.61C10.45 14.61 10.45 14.62 10.45 14.63C10.43 14.63 10.43 14.63 10.43 14.63C10.43 14.63 10.43 14.63 10.44 14.62C10.44 14.62 10.44 14.62 10.45 14.62V14.61ZM10.42 14.78C10.42 14.78 10.41 14.75 10.43 14.73C10.44 14.73 10.45 14.73 10.46 14.73C10.48 14.75 10.48 14.76 10.46 14.77C10.46 14.77 10.45 14.77 10.44 14.77C10.44 14.77 10.43 14.77 10.42 14.77V14.78ZM10.52 14.81C10.52 14.81 10.49 14.79 10.5 14.77C10.5 14.76 10.5 14.75 10.53 14.75C10.55 14.75 10.56 14.75 10.56 14.78C10.56 14.79 10.56 14.79 10.56 14.8C10.56 14.8 10.54 14.81 10.53 14.8L10.52 14.81ZM13.53 14.82C13.53 14.82 13.53 14.82 13.53 14.8C13.53 14.79 13.53 14.78 13.56 14.77C13.58 14.76 13.59 14.77 13.6 14.77C13.61 14.79 13.61 14.8 13.6 14.81C13.6 14.81 13.6 14.81 13.57 14.81C13.55 14.81 13.55 14.81 13.54 14.81L13.53 14.82ZM10.66 14.85C10.66 14.85 10.64 14.84 10.64 14.82C10.64 14.81 10.64 14.81 10.64 14.8C10.64 14.8 10.65 14.8 10.66 14.8C10.66 14.8 10.67 14.8 10.68 14.8C10.7 14.81 10.7 14.83 10.69 14.84C10.68 14.85 10.67 14.86 10.65 14.85H10.66ZM11.4 14.89C11.4 14.87 11.4 14.85 11.4 14.83C11.4 14.81 11.4 14.79 11.4 14.78C11.4 14.75 11.4 14.72 11.41 14.69C11.41 14.67 11.41 14.66 11.41 14.64C11.41 14.62 11.41 14.59 11.41 14.57C11.41 14.57 11.41 14.54 11.43 14.55C11.44 14.57 11.46 14.59 11.48 14.6C11.49 14.6 11.48 14.62 11.48 14.63C11.47 14.63 11.46 14.65 11.46 14.66C11.46 14.67 11.46 14.69 11.46 14.7C11.46 14.72 11.46 14.74 11.46 14.76C11.46 14.78 11.46 14.8 11.46 14.82C11.46 14.83 11.46 14.85 11.46 14.86C11.46 14.87 11.46 14.89 11.45 14.9C11.44 14.9 11.42 14.9 11.41 14.9L11.4 14.89ZM12.4 14.56C12.4 14.56 12.37 14.59 12.35 14.6C12.33 14.62 12.37 14.62 12.37 14.64C12.37 14.66 12.37 14.68 12.37 14.7C12.37 14.72 12.37 14.74 12.37 14.76C12.37 14.78 12.34 14.78 12.33 14.79C12.31 14.79 12.31 14.81 12.29 14.82C12.29 14.84 12.28 14.86 12.28 14.87C12.28 14.89 12.27 14.9 12.28 14.92C12.28 14.92 12.29 14.92 12.3 14.92C12.32 14.92 12.33 14.92 12.35 14.92C12.39 14.92 12.43 14.92 12.47 14.92C12.5 14.92 12.52 14.92 12.54 14.92C12.56 14.92 12.57 14.9 12.57 14.89C12.56 14.87 12.57 14.84 12.56 14.82C12.56 14.8 12.56 14.77 12.56 14.75C12.56 14.73 12.54 14.72 12.52 14.74C12.51 14.75 12.49 14.75 12.48 14.77C12.47 14.79 12.5 14.79 12.51 14.81C12.51 14.83 12.51 14.84 12.51 14.86C12.51 14.88 12.49 14.88 12.48 14.88C12.46 14.88 12.44 14.89 12.43 14.87C12.43 14.85 12.43 14.84 12.43 14.82C12.43 14.79 12.43 14.76 12.43 14.73C12.43 14.69 12.43 14.66 12.42 14.62C12.42 14.6 12.42 14.58 12.4 14.58V14.56ZM12.38 14.84H12.39V14.85L12.38 14.87C12.38 14.87 12.38 14.87 12.37 14.87C12.37 14.87 12.37 14.86 12.37 14.85C12.37 14.85 12.37 14.85 12.39 14.85L12.38 14.84ZM11.37 14.52C11.37 14.52 11.34 14.54 11.33 14.54C11.3 14.54 11.3 14.57 11.33 14.58C11.33 14.58 11.33 14.6 11.33 14.61C11.33 14.64 11.32 14.66 11.33 14.68C11.33 14.71 11.32 14.74 11.32 14.77C11.32 14.8 11.32 14.83 11.31 14.86C11.31 14.89 11.29 14.88 11.27 14.87C11.27 14.86 11.27 14.85 11.27 14.83C11.27 14.8 11.26 14.79 11.23 14.79C11.21 14.79 11.2 14.77 11.2 14.75C11.2 14.74 11.23 14.75 11.25 14.74C11.28 14.74 11.28 14.7 11.26 14.69C11.25 14.67 11.22 14.66 11.21 14.64C11.21 14.61 11.19 14.58 11.17 14.57C11.13 14.57 11.11 14.6 11.09 14.63C11.07 14.63 11.06 14.63 11.04 14.64C11.02 14.64 10.98 14.69 11.01 14.7C11.03 14.7 11.08 14.72 11.06 14.74C11.05 14.76 11.02 14.76 11 14.76C10.98 14.76 10.95 14.75 10.95 14.72C10.95 14.69 10.95 14.67 10.93 14.64C10.93 14.61 10.89 14.62 10.89 14.64C10.87 14.66 10.87 14.69 10.89 14.71C10.9 14.73 10.89 14.76 10.88 14.79C10.88 14.82 10.84 14.82 10.82 14.83C10.81 14.83 10.77 14.83 10.78 14.85C10.81 14.85 10.84 14.87 10.86 14.86C10.89 14.86 10.91 14.84 10.93 14.81C10.95 14.79 10.98 14.81 11 14.81C11.03 14.81 11.05 14.83 11.08 14.81C11.08 14.79 11.12 14.76 11.13 14.79C11.13 14.82 11.15 14.83 11.18 14.83C11.21 14.83 11.2 14.85 11.2 14.87C11.2 14.9 11.22 14.92 11.25 14.93C11.25 14.93 11.27 14.93 11.28 14.93C11.31 14.93 11.33 14.91 11.34 14.88C11.35 14.86 11.35 14.83 11.36 14.81C11.36 14.77 11.37 14.73 11.37 14.69C11.37 14.65 11.37 14.62 11.38 14.58C11.38 14.55 11.38 14.53 11.39 14.5C11.39 14.49 11.39 14.48 11.37 14.49V14.52ZM11.14 14.66C11.14 14.66 11.14 14.66 11.14 14.68C11.14 14.69 11.14 14.7 11.15 14.7C11.15 14.7 11.15 14.7 11.15 14.71C11.15 14.71 11.14 14.71 11.13 14.71C11.11 14.71 11.1 14.71 11.09 14.69V14.68C11.09 14.68 11.1 14.67 11.11 14.66L11.13 14.65L11.14 14.66ZM13.37 14.4C13.37 14.4 13.33 14.4 13.31 14.4C13.27 14.4 13.26 14.43 13.29 14.45C13.31 14.5 13.34 14.44 13.37 14.45C13.42 14.45 13.42 14.51 13.43 14.55C13.43 14.59 13.44 14.63 13.46 14.66C13.49 14.7 13.44 14.72 13.41 14.69C13.39 14.67 13.35 14.64 13.32 14.67C13.29 14.68 13.29 14.72 13.26 14.74C13.22 14.75 13.21 14.7 13.19 14.68C13.17 14.65 13.13 14.65 13.1 14.64C13.09 14.61 13.1 14.56 13.06 14.54C13.03 14.55 12.99 14.6 13.03 14.62C13.07 14.65 13.01 14.67 13 14.69C12.98 14.72 12.97 14.76 12.97 14.79C12.93 14.81 12.92 14.76 12.91 14.73C12.91 14.69 12.88 14.7 12.85 14.72C12.82 14.73 12.8 14.76 12.78 14.79C12.78 14.81 12.78 14.84 12.78 14.86C12.78 14.89 12.82 14.87 12.84 14.87C12.87 14.86 12.89 14.89 12.86 14.91C12.84 14.93 12.79 14.92 12.79 14.96C12.81 14.96 12.83 14.96 12.85 14.96C12.89 14.95 12.93 14.92 12.93 14.88C12.93 14.84 12.99 14.85 13.01 14.84C13.05 14.83 13.09 14.83 13.1 14.87C13.12 14.9 13.18 14.92 13.2 14.89C13.23 14.87 13.24 14.84 13.24 14.81C13.24 14.78 13.28 14.78 13.29 14.8C13.31 14.83 13.36 14.82 13.39 14.8C13.42 14.78 13.42 14.74 13.46 14.74C13.52 14.72 13.58 14.71 13.64 14.69C13.69 14.68 13.64 14.65 13.62 14.63C13.58 14.61 13.55 14.69 13.51 14.65C13.48 14.63 13.48 14.58 13.47 14.54C13.47 14.49 13.47 14.44 13.43 14.4C13.41 14.38 13.38 14.37 13.34 14.37L13.37 14.4ZM13.14 14.72C13.14 14.72 13.14 14.72 13.16 14.72C13.17 14.72 13.19 14.74 13.19 14.75C13.19 14.75 13.19 14.75 13.18 14.76C13.18 14.76 13.17 14.76 13.16 14.76C13.16 14.76 13.14 14.75 13.14 14.74C13.14 14.74 13.14 14.74 13.14 14.72C13.14 14.71 13.14 14.71 13.14 14.7C13.14 14.7 13.14 14.7 13.15 14.7L13.14 14.72ZM13.36 14.73C13.36 14.73 13.38 14.73 13.39 14.74C13.39 14.75 13.39 14.76 13.38 14.77H13.37C13.37 14.77 13.37 14.77 13.36 14.77C13.36 14.77 13.35 14.77 13.35 14.75C13.35 14.74 13.36 14.73 13.38 14.73H13.36ZM13.06 14.73C13.06 14.73 13.06 14.73 13.07 14.73C13.07 14.73 13.07 14.73 13.07 14.75V14.77C13.07 14.77 13.07 14.77 13.05 14.77C13.03 14.77 13.03 14.77 13.03 14.75C13.03 14.74 13.03 14.73 13.03 14.73H13.04H13.06ZM12.87 14.78C12.87 14.78 12.88 14.78 12.88 14.79C12.88 14.8 12.88 14.81 12.88 14.81C12.88 14.81 12.86 14.81 12.85 14.81C12.85 14.81 12.86 14.81 12.87 14.81V14.78ZM13.18 14.82H13.19C13.19 14.82 13.19 14.83 13.19 14.84C13.19 14.84 13.16 14.84 13.15 14.84C13.15 14.84 13.15 14.84 13.15 14.83C13.15 14.83 13.16 14.83 13.17 14.83L13.18 14.82ZM12.6 14.98C12.6 14.97 12.62 14.97 12.63 14.96C12.65 14.96 12.66 14.94 12.68 14.92C12.68 14.91 12.69 14.9 12.69 14.89C12.69 14.87 12.69 14.86 12.69 14.84C12.69 14.83 12.67 14.81 12.66 14.81C12.66 14.81 12.64 14.81 12.63 14.79C12.63 14.78 12.63 14.77 12.64 14.76C12.64 14.75 12.65 14.73 12.66 14.72C12.66 14.72 12.68 14.72 12.69 14.72C12.69 14.72 12.7 14.74 12.71 14.75C12.72 14.76 12.73 14.77 12.73 14.79C12.73 14.8 12.74 14.81 12.74 14.82C12.74 14.83 12.74 14.85 12.74 14.86C12.74 14.88 12.74 14.9 12.74 14.92C12.74 14.92 12.73 14.94 12.72 14.94C12.71 14.94 12.7 14.96 12.68 14.96C12.68 14.96 12.66 14.97 12.65 14.97C12.63 14.97 12.61 14.97 12.6 14.97V14.98ZM12.37 15C12.37 15 12.37 14.99 12.36 14.98C12.36 14.98 12.36 14.97 12.36 14.96C12.37 14.95 12.38 14.94 12.41 14.96C12.43 14.97 12.44 14.97 12.44 14.96C12.44 14.96 12.46 14.94 12.47 14.94C12.47 14.94 12.48 14.94 12.49 14.94C12.49 14.94 12.49 14.94 12.49 14.96C12.49 14.98 12.49 14.98 12.49 14.98C12.49 14.98 12.48 14.98 12.47 14.98C12.46 14.98 12.45 14.98 12.44 14.96C12.44 14.96 12.42 14.96 12.41 14.98C12.41 14.98 12.41 14.98 12.39 14.98C12.38 14.98 12.38 14.98 12.37 14.97V15ZM11.7 14.7C11.7 14.7 11.65 14.72 11.65 14.74C11.65 14.77 11.68 14.79 11.66 14.82C11.66 14.85 11.63 14.87 11.61 14.85C11.6 14.82 11.59 14.78 11.57 14.75C11.54 14.75 11.53 14.79 11.51 14.8C11.51 14.83 11.55 14.85 11.55 14.88C11.55 14.91 11.54 14.95 11.51 14.96C11.49 14.98 11.46 14.97 11.43 14.98C11.4 15 11.46 15.01 11.47 15.01C11.51 15.01 11.54 15.01 11.57 14.98C11.6 14.97 11.59 14.92 11.62 14.92C11.67 14.92 11.73 14.92 11.78 14.92C11.81 14.92 11.85 14.92 11.87 14.94C11.87 14.98 11.9 15 11.93 15.01C11.95 15.01 11.96 14.99 11.98 14.99C12.01 14.98 12 14.94 12.02 14.92C12.08 14.92 12.13 14.92 12.19 14.92C12.2 14.92 12.2 14.91 12.21 14.9C12.21 14.88 12.21 14.86 12.21 14.84C12.2 14.81 12.21 14.78 12.19 14.75C12.16 14.75 12.14 14.77 12.11 14.77C12.08 14.78 12.05 14.81 12.05 14.85C12.03 14.88 12 14.85 12.01 14.82C12.01 14.81 12.01 14.8 12.01 14.79C11.99 14.77 11.96 14.78 11.94 14.77C11.91 14.77 11.87 14.77 11.84 14.77C11.81 14.77 11.78 14.77 11.75 14.77C11.72 14.77 11.72 14.73 11.71 14.71C11.71 14.71 11.7 14.71 11.69 14.71L11.7 14.7ZM11.77 14.82C11.77 14.82 11.79 14.82 11.8 14.82C11.81 14.82 11.83 14.82 11.84 14.82C11.87 14.82 11.91 14.82 11.94 14.82C11.94 14.82 11.96 14.82 11.96 14.83V14.9C11.96 14.9 11.96 14.92 11.96 14.93C11.96 14.93 11.94 14.93 11.94 14.91C11.94 14.9 11.94 14.89 11.94 14.87C11.94 14.87 11.94 14.87 11.94 14.86H11.92C11.89 14.86 11.86 14.86 11.83 14.86C11.81 14.86 11.78 14.86 11.76 14.86C11.76 14.86 11.74 14.86 11.73 14.85C11.73 14.85 11.73 14.83 11.74 14.83C11.75 14.83 11.76 14.83 11.77 14.83V14.82ZM12.15 14.83C12.15 14.83 12.15 14.83 12.15 14.84V14.86C12.13 14.86 12.12 14.86 12.11 14.86C12.11 14.86 12.11 14.85 12.11 14.84C12.11 14.84 12.13 14.83 12.14 14.83H12.15Z" fill="#C09300"/>
<path d="M12.42 10.42L12.39 10.3C12.45 10.36 12.67 10.38 12.67 10.38C12.53 10.32 12.4 9.87 12.42 9.51C12.43 9.15 12.37 9.01 12.32 8.96C12.25 8.89 12.04 8.83 11.89 8.82C11.81 8.82 11.82 8.88 11.82 8.88C11.67 8.84 11.52 8.83 11.45 8.88C11.39 8.92 11.37 9.13 11.42 9.1C11.53 9.01 11.63 9.1 11.7 9.19C11.76 9.28 11.76 9.52 11.67 9.8C11.58 10.1 11.33 10.4 11.33 10.4C11.46 10.4 11.65 10.28 11.65 10.28L11.6 10.47C11.74 10.4 11.85 10.3 11.85 10.3L11.99 10.44C12.04 10.38 12.13 10.3 12.13 10.3C12.13 10.3 12.24 10.42 12.41 10.44L12.42 10.42Z" fill="white"/>
<path d="M11.58 10.49L11.62 10.31C11.56 10.35 11.43 10.41 11.33 10.41H11.29L11.32 10.38C11.32 10.38 11.56 10.08 11.65 9.79C11.74 9.5 11.73 9.27 11.68 9.19C11.63 9.12 11.58 9.08 11.53 9.07C11.5 9.07 11.46 9.07 11.43 9.1C11.42 9.11 11.4 9.1 11.4 9.1C11.39 9.1 11.38 9.08 11.37 9.05C11.37 9 11.38 8.88 11.44 8.84C11.52 8.79 11.69 8.81 11.8 8.84C11.8 8.84 11.8 8.82 11.81 8.81C11.83 8.79 11.85 8.78 11.88 8.78C12.03 8.78 12.25 8.85 12.32 8.92C12.38 8.98 12.45 9.13 12.43 9.49C12.41 9.86 12.55 10.29 12.67 10.34V10.38C12.67 10.38 12.51 10.37 12.42 10.33C12.44 10.39 12.43 10.41 12.42 10.41C12.42 10.41 12.41 10.42 12.4 10.42C12.26 10.41 12.15 10.33 12.12 10.29C12.09 10.32 12.03 10.37 12 10.42V10.44L11.85 10.3C11.81 10.33 11.72 10.41 11.61 10.46L11.57 10.48L11.58 10.49ZM11.68 10.22L11.63 10.41C11.75 10.35 11.84 10.26 11.84 10.26H11.85L11.98 10.39C12.03 10.33 12.1 10.27 12.1 10.26H12.11H12.12C12.12 10.26 12.22 10.37 12.37 10.39C12.37 10.37 12.35 10.33 12.34 10.3L12.37 10.28C12.37 10.28 12.5 10.33 12.57 10.34C12.45 10.2 12.35 9.82 12.36 9.5C12.37 9.13 12.3 9 12.26 8.96C12.2 8.9 11.99 8.84 11.85 8.83C11.84 8.83 11.82 8.83 11.81 8.84V8.87V8.9H11.78C11.61 8.86 11.48 8.85 11.43 8.89C11.41 8.9 11.4 8.94 11.39 8.98C11.39 9.02 11.39 9.05 11.39 9.06C11.43 9.03 11.47 9.02 11.51 9.02C11.57 9.02 11.63 9.07 11.69 9.16C11.76 9.26 11.75 9.52 11.66 9.79C11.59 10.03 11.42 10.27 11.35 10.36C11.47 10.34 11.61 10.25 11.62 10.25L11.66 10.22H11.68Z" fill="#C09300"/>
<path d="M12.37 10.31C12.24 10.12 12.21 9.62 12.21 9.6H12.25C12.25 9.6 12.28 10.11 12.4 10.29L12.36 10.31H12.37ZM11.88 10.29L11.84 10.27C11.93 10.1 11.96 9.54 11.96 9.54H12C12 9.54 11.97 10.11 11.87 10.29H11.88ZM12.11 10.29C12.07 10.18 12.07 9.59 12.07 9.56H12.11C12.11 9.73 12.11 10.19 12.15 10.27H12.11V10.29ZM11.67 10.28L11.64 10.25C11.78 10.1 11.85 9.55 11.85 9.55H11.89C11.89 9.55 11.81 10.12 11.67 10.28Z" fill="#C09300"/>
<path d="M11.73 9.29C11.73 9.29 11.71 9.2 11.69 9.18C11.62 9.08 11.52 9 11.41 9.09C11.41 9.09 11.45 8.97 11.53 8.97C11.59 8.97 11.74 9.02 11.87 9.23C11.87 9.23 11.78 9.21 11.75 9.23C11.71 9.27 11.72 9.29 11.72 9.29H11.73ZM11.41 8.94C11.41 8.94 11.43 8.88 11.45 8.87C11.52 8.82 11.67 8.84 11.82 8.87C11.82 8.87 11.81 8.81 11.89 8.81C12.03 8.81 12.25 8.88 12.32 8.95C12.34 8.97 12.35 8.99 12.37 9.03C12.37 9.03 12.24 8.99 12.22 8.99C12.18 8.99 12.16 8.99 12.11 9C12.09 9 12.05 9.01 12.03 9.03C12.02 9.04 12 9.09 11.98 9.09C11.94 9.09 11.95 9.09 11.94 9.07C11.93 9.06 11.92 9.03 11.91 9.04C11.87 9.04 11.81 9.02 11.74 8.96C11.67 8.9 11.64 8.89 11.54 8.89C11.44 8.89 11.41 8.95 11.41 8.95V8.94Z" fill="#C09300"/>
<path d="M11.73 9.29C11.73 9.29 11.73 9.29 11.73 9.27C11.73 9.23 11.71 9.2 11.7 9.18C11.65 9.1 11.6 9.06 11.54 9.06C11.5 9.06 11.46 9.06 11.43 9.1H11.41C11.41 9.1 11.45 8.98 11.54 8.97C11.61 8.97 11.75 9.02 11.88 9.24H11.87C11.83 9.24 11.77 9.22 11.76 9.24C11.74 9.26 11.74 9.27 11.73 9.28C11.73 9.28 11.73 9.29 11.73 9.3H11.72L11.73 9.29ZM11.52 9.04C11.52 9.04 11.53 9.04 11.54 9.04C11.6 9.04 11.65 9.09 11.71 9.17C11.72 9.19 11.73 9.21 11.74 9.25C11.74 9.25 11.75 9.23 11.76 9.22C11.78 9.2 11.84 9.22 11.87 9.22C11.71 8.96 11.55 8.97 11.55 8.97C11.49 8.97 11.46 9.04 11.44 9.07C11.47 9.05 11.5 9.04 11.52 9.04ZM11.98 9.09C11.98 9.09 11.94 9.09 11.94 9.07C11.94 9.07 11.94 9.06 11.93 9.05C11.93 9.05 11.93 9.03 11.92 9.03C11.88 9.03 11.82 9.01 11.74 8.95C11.66 8.89 11.64 8.88 11.54 8.88C11.45 8.88 11.42 8.94 11.42 8.94H11.41V8.93C11.41 8.91 11.43 8.87 11.45 8.86C11.53 8.81 11.71 8.84 11.81 8.86C11.81 8.86 11.81 8.83 11.82 8.82C11.83 8.81 11.85 8.8 11.88 8.8C12.03 8.8 12.24 8.87 12.31 8.94C12.33 8.96 12.35 8.99 12.36 9.02H12.35C12.35 9.02 12.23 8.98 12.21 8.98C12.21 8.98 12.19 8.98 12.18 8.98C12.16 8.98 12.14 8.98 12.1 8.99C12.1 8.99 12.05 9 12.03 9.02C12.03 9.02 12.03 9.03 12.02 9.04C12.02 9.06 12 9.08 11.98 9.08V9.09ZM11.91 9.02C11.91 9.02 11.93 9.03 11.93 9.04V9.05C11.93 9.05 11.93 9.06 11.96 9.06C11.97 9.06 11.98 9.04 11.99 9.03C11.99 9.03 12 9.01 12.01 9.01C12.03 9 12.06 8.99 12.08 8.98C12.08 8.98 12.14 8.97 12.16 8.97C12.16 8.97 12.18 8.97 12.19 8.97C12.19 8.97 12.28 8.97 12.33 9C12.32 8.98 12.31 8.96 12.29 8.95C12.22 8.88 12.01 8.82 11.87 8.82C11.85 8.82 11.83 8.82 11.82 8.84C11.81 8.86 11.82 8.88 11.82 8.88C11.65 8.84 11.52 8.83 11.46 8.88C11.45 8.88 11.44 8.9 11.43 8.92C11.45 8.9 11.48 8.88 11.54 8.88C11.64 8.88 11.67 8.88 11.75 8.95C11.82 9.01 11.88 9.04 11.92 9.03L11.91 9.02Z" fill="#C09300"/>
<path d="M11.96 9.02C11.9821 9.02 12 9.00209 12 8.98C12 8.95791 11.9821 8.94 11.96 8.94C11.9379 8.94 11.92 8.95791 11.92 8.98C11.92 9.00209 11.9379 9.02 11.96 9.02Z" fill="white"/>
<path d="M12 12.92C13.1 12.07 13.01 10.83 13.01 10.83C12.98 10.83 12.95 10.83 12.92 10.83C12.69 10.83 12.14 10.7 12.01 10.53C11.87 10.68 11.31 10.83 11.08 10.83C11.05 10.83 11.02 10.83 10.99 10.83C10.99 10.83 10.89 12.07 12 12.92Z" fill="white"/>
<path d="M12 12.94H11.99C10.89 12.09 10.98 10.84 10.98 10.82V10.8H11C11.03 10.8 11.05 10.8 11.08 10.8C11.31 10.8 11.86 10.65 12 10.51L12.02 10.49V10.51C12.16 10.67 12.7 10.8 12.93 10.8C12.96 10.8 12.98 10.8 13.01 10.8H13.03V10.82C13.03 10.83 13.11 12.08 12.01 12.93H12V12.94ZM11.01 10.85C11.01 11.02 11.01 12.12 12 12.89C12.99 12.12 12.99 11.02 12.99 10.85C12.97 10.85 12.95 10.85 12.92 10.85C12.7 10.85 12.16 10.73 12.01 10.56C11.84 10.72 11.29 10.85 11.08 10.85C11.06 10.85 11.03 10.85 11.01 10.85Z" fill="#C09300"/>
<path d="M12 12.82C11.59 12.49 11.3 12.05 11.16 11.55C11.11 11.39 11.09 11.22 11.08 11.06C11.08 11.02 11.08 10.97 11.08 10.92V10.9H11.1C11.1 10.9 11.12 10.9 11.13 10.9C11.34 10.9 11.83 10.78 12.02 10.63C12.21 10.79 12.7 10.9 12.89 10.9H12.93V10.91C12.93 10.95 12.93 11.01 12.93 11.05C12.92 11.21 12.89 11.38 12.85 11.54C12.71 12.04 12.42 12.48 12.01 12.8L12 12.82ZM11.1 10.94C11.1 10.94 11.1 11.03 11.1 11.06C11.11 11.22 11.14 11.39 11.18 11.55C11.32 12.05 11.59 12.46 11.99 12.79C12.39 12.47 12.67 12.05 12.81 11.55C12.85 11.39 12.88 11.22 12.89 11.06C12.89 11.03 12.89 10.98 12.89 10.94H12.88C12.68 10.94 12.2 10.84 11.99 10.68C11.79 10.83 11.31 10.94 11.09 10.94C11.09 10.94 11.09 10.94 11.08 10.94H11.1Z" fill="#C09300"/>
<mask id="mask1_170_16211" style="mask-type:luminance" maskUnits="userSpaceOnUse" x="11" y="10" width="2" height="3">
<path d="M12.91 10.93H12.88C12.67 10.93 12.19 10.82 12.01 10.67C11.82 10.82 11.33 10.94 11.12 10.94C11.12 10.94 11.1 10.94 11.09 10.94V11.08C11.11 11.24 11.13 11.41 11.18 11.57C11.32 12.07 11.6 12.49 12 12.81C12.4 12.49 12.68 12.07 12.82 11.57C12.86 11.41 12.89 11.25 12.9 11.08C12.9 11.03 12.9 10.99 12.9 10.94L12.91 10.93Z" fill="white"/>
</mask>
<g mask="url(#mask1_170_16211)">
<path fill-rule="evenodd" clip-rule="evenodd" d="M11.07 10.64H11.69V12.81H11.07V10.64Z" fill="#C09300"/>
<path fill-rule="evenodd" clip-rule="evenodd" d="M11.69 10.64H12.31V12.81H11.69V10.64Z" fill="white"/>
<path fill-rule="evenodd" clip-rule="evenodd" d="M12.31 10.64H12.93V12.81H12.31V10.64Z" fill="#C09300"/>
</g>
</g>
</g>
<defs>
<clipPath id="clip0_170_16211">
<rect width="24" height="24" fill="white"/>
</clipPath>
</defs>
</svg>
