<svg width="24" height="24" viewBox="0 0 24 24" fill="none" xmlns="http://www.w3.org/2000/svg">
<g clip-path="url(#clip0_170_17907)">
<mask id="mask0_170_17907" style="mask-type:luminance" maskUnits="userSpaceOnUse" x="0" y="0" width="24" height="24">
<path d="M12 24C18.6274 24 24 18.6274 24 12C24 5.37258 18.6274 0 12 0C5.37258 0 0 5.37258 0 12C0 18.6274 5.37258 24 12 24Z" fill="white"/>
</mask>
<g mask="url(#mask0_170_17907)">
<path d="M0 0H24V24H0V0Z" fill="#DA121A"/>
<path d="M0 0H24V16H0V0Z" fill="#FCDD09"/>
<path d="M0 0H24V8H0V0Z" fill="#078930"/>
<path d="M12 16.7C14.5957 16.7 16.7 14.5957 16.7 12C16.7 9.40426 14.5957 7.3 12 7.3C9.40425 7.3 7.29999 9.40426 7.29999 12C7.29999 14.5957 9.40425 16.7 12 16.7Z" fill="#0F47AF"/>
<path d="M12 8.24L11.84 8.75L12.52 10.84H11.61L11.51 11.15H14.41L14.84 10.84H12.84L12 8.24Z" fill="#FCDD09"/>
<path d="M13.01 10.61L14.21 8.96L13.01 10.61Z" fill="black"/>
<path d="M14.1459 8.91434L12.9465 10.5645L13.076 10.6586L14.2753 9.00841L14.1459 8.91434Z" fill="#FCDD09"/>
<path d="M15.57 10.84H15.04L13.26 12.13L12.98 11.27H12.65L13.55 14.03L13.98 14.34L13.36 12.44L15.57 10.84Z" fill="#FCDD09"/>
<path d="M13.64 12.53L15.58 13.16L13.64 12.53Z" fill="black"/>
<path d="M13.6605 12.4547L13.611 12.6068L15.5512 13.2372L15.6006 13.085L13.6605 12.4547Z" fill="#FCDD09"/>
<path d="M14.21 15.04L14.05 14.53L12.27 13.24L13 12.71L12.9 12.4L10.55 14.11L10.39 14.62L12.01 13.45L14.22 15.05L14.21 15.04Z" fill="#FCDD09"/>
<path d="M12.08 13.72H11.92V15.76H12.08V13.72Z" fill="#FCDD09"/>
<path d="M9.79002 15.04L10.22 14.73L10.9 12.64L11.63 13.17L11.9 12.98L9.55002 11.27H9.02002L10.64 12.44L9.80002 15.04H9.79002Z" fill="#FCDD09"/>
<path d="M10.36 12.53L8.42001 13.16L10.36 12.53Z" fill="black"/>
<path d="M10.3462 12.455L8.40601 13.0854L8.45545 13.2376L10.3956 12.6072L10.3462 12.455Z" fill="#FCDD09"/>
<path d="M8.42999 10.84L8.85999 11.15H11.06L10.78 12.01L11.05 12.2L11.95 9.44L11.79 8.93L11.17 10.83H8.43999L8.42999 10.84Z" fill="#FCDD09"/>
<path d="M10.99 10.61L9.78998 8.96L10.99 10.61Z" fill="black"/>
<path d="M9.85527 8.92097L9.72583 9.01501L10.9249 10.6654L11.0544 10.5714L9.85527 8.92097Z" fill="#FCDD09"/>
</g>
</g>
<defs>
<clipPath id="clip0_170_17907">
<rect width="24" height="24" fill="white"/>
</clipPath>
</defs>
</svg>
