<svg width="24" height="24" viewBox="0 0 24 24" fill="none" xmlns="http://www.w3.org/2000/svg">
<g clip-path="url(#clip0_104_17677)">
<mask id="mask0_104_17677" style="mask-type:luminance" maskUnits="userSpaceOnUse" x="0" y="0" width="24" height="24">
<path d="M12 24C18.6274 24 24 18.6274 24 12C24 5.37258 18.6274 0 12 0C5.37258 0 0 5.37258 0 12C0 18.6274 5.37258 24 12 24Z" fill="white"/>
</mask>
<g mask="url(#mask0_104_17677)">
<path d="M24 0H0V9H24V0Z" fill="#CE1226"/>
<path d="M24 8H0V17H24V8Z" fill="#FCD116"/>
<path d="M24 16.02H0V24H24V16.02Z" fill="#016B3F"/>
<path d="M12.72 11.29L11.99 9.20999L11.28 11.3L9.07001 11.35L10.83 12.67L10.2 14.79L12.01 13.52L13.82 14.78L13.17 12.67L14.93 11.33L12.72 11.29Z" fill="#202036"/>
</g>
</g>
<defs>
<clipPath id="clip0_104_17677">
<rect width="24" height="24" fill="white"/>
</clipPath>
</defs>
</svg>
