<svg width="24" height="24" viewBox="0 0 24 24" fill="none" xmlns="http://www.w3.org/2000/svg">
<g clip-path="url(#clip0_170_16430)">
<mask id="mask0_170_16430" style="mask-type:luminance" maskUnits="userSpaceOnUse" x="0" y="0" width="24" height="24">
<path d="M12 24C18.6274 24 24 18.6274 24 12C24 5.37257 18.6274 -1.14441e-05 12 -1.14441e-05C5.37258 -1.14441e-05 0 5.37257 0 12C0 18.6274 5.37258 24 12 24Z" fill="white"/>
</mask>
<g mask="url(#mask0_170_16430)">
<path d="M30.02 -0.0100098H-6.01001V24.01H30.02V-0.0100098Z" fill="#DA000C"/>
<path d="M30.02 -0.0100098H-6.01001V15.33H30.02V-0.0100098Z" fill="white"/>
<path d="M12.28 11.15H8.38995V13.82H12.28V11.15Z" fill="black"/>
<path d="M10.41 13.43H8.04001L7.51001 13.78V14.15H10.41" fill="#DA000C"/>
<path d="M10.44 14.17H7.47998V13.76L8.02998 13.4H10.44V13.46H8.04998L7.54998 13.79V14.11H10.44V14.17Z" fill="black"/>
<path d="M9.41998 11.89C9.75998 11.89 10.04 12.17 10.04 12.53V13.43H10.49V10.03H8.03998V13.43H8.79998V12.53C8.79998 12.19 9.06998 11.89 9.41998 11.89Z" fill="#DA000C"/>
<path d="M10.52 13.46H10.01V12.53C10.01 12.2 9.75001 11.92 9.42001 11.92C9.09001 11.92 8.83001 12.2 8.83001 12.53V13.46H8.01001V9.99999H10.52V13.46ZM10.07 13.4H10.46V10.06H8.07001V13.4H8.77001V12.53C8.77001 12.17 9.07001 11.86 9.42001 11.86C9.77001 11.86 10.07 12.16 10.07 12.53V13.4Z" fill="black"/>
<path d="M10.01 7.72999H8.88V9.78999H10.01V7.72999Z" fill="black"/>
<path d="M9.99996 9.46999H9.01996V9.11999H8.29996V9.46999H7.80996V9.11999H7.51996V9.74999H10.01M7.79996 9.74999H9.91996V10.03H7.79996V9.74999Z" fill="#DA000C"/>
<path d="M9.95999 10.06H7.77999V9.78999H7.48999V9.09999H7.83999V9.44999H8.26999V9.09999H9.04999V9.44999H10.03V9.50999H8.97999V9.15999H8.31999V9.50999H7.76999V9.15999H7.53999V9.72999H7.76999H9.94999H10.02V9.78999H9.94999V10.06H9.95999ZM7.82999 9.99999H9.88999V9.78999H7.82999V9.99999Z" fill="black"/>
<path d="M8.64995 6.97999V9.11999H9.01995V8.52999C9.01995 8.30999 9.17995 8.12999 9.38995 8.11999C9.38995 8.11999 9.39995 8.11999 9.40995 8.11999C9.63995 8.11999 9.81995 8.29999 9.81995 8.52999V9.11999H10.17V6.97999H8.63995H8.64995Z" fill="#DA000C"/>
<path d="M10.2 9.14999H9.79V8.52999C9.79 8.31999 9.62 8.14999 9.41 8.14999C9.41 8.14999 9.41 8.14999 9.4 8.14999C9.2 8.14999 9.06 8.31999 9.06 8.52999V9.14999H8.63V6.94999H10.22V9.14999H10.2ZM9.85 9.08999H10.14V7.00999H8.67V9.08999H8.98V8.52999C8.98 8.28999 9.15 8.09999 9.38 8.08999C9.38 8.08999 9.39 8.08999 9.4 8.08999C9.64 8.08999 9.84 8.28999 9.84 8.52999V9.08999H9.85Z" fill="black"/>
<path d="M8.51001 6.68999V6.97999H10.29V6.68999H8.51001Z" fill="#DA000C"/>
<path d="M10.32 7.00999H8.47998V6.65999H10.32V7.00999ZM8.53998 6.94999H10.26V6.71999H8.53998V6.94999Z" fill="black"/>
<path d="M8.28997 6.12999V6.68999H10.42V6.12999H10.09V6.40999H9.68997V6.12999H9.07997V6.40999H8.67997V6.12999H8.27997H8.28997Z" fill="#DA000C"/>
<path d="M10.45 6.71999H8.26001V6.09999H8.73001V6.37999H9.07001V6.09999H9.74001V6.37999H10.08V6.09999H10.47V6.71999H10.45ZM8.32001 6.65999H10.39V6.15999H10.12V6.43999H9.66001V6.15999H9.12001V6.43999H8.66001V6.15999H8.32001V6.65999Z" fill="black"/>
<path d="M10.45 13.75H7.47998V13.81H10.45V13.75Z" fill="black"/>
<path d="M12.31 13.61H10.34L9.75 13.9V14.33H12.31" fill="#DA000C"/>
<path d="M12.34 14.35H9.70996V13.88L10.33 13.58H12.34V13.64H10.34L9.76996 13.91V14.29H12.34V14.35Z" fill="black"/>
<path d="M12.37 13.86H9.73999V13.92H12.37V13.86Z" fill="black"/>
<path d="M15.62 11.15H11.73V13.82H15.62V11.15Z" fill="black"/>
<path d="M13.59 13.43H15.96L16.49 13.78V14.15H13.59" fill="#DA000C"/>
<path d="M16.52 14.17H13.56V14.11H16.46V13.79L15.96 13.46H13.56V13.4H15.98L16.52 13.76V14.17Z" fill="black"/>
<path d="M14.59 11.89C14.25 11.89 13.97 12.17 13.97 12.53V13.43H13.52V10.03H15.97V13.43H15.21V12.53C15.21 12.19 14.94 11.89 14.59 11.89Z" fill="#DA000C"/>
<path d="M16 13.46H15.18V12.53C15.18 12.2 14.91 11.92 14.59 11.92C14.27 11.92 14 12.19 14 12.53V13.46H13.49V9.99999H16V13.46ZM15.24 13.4H15.94V10.06H13.55V13.4H13.94V12.53C13.94 12.16 14.23 11.86 14.59 11.86C14.95 11.86 15.24 12.17 15.24 12.53V13.4Z" fill="black"/>
<path d="M15.14 7.72999H14.01V9.78999H15.14V7.72999Z" fill="black"/>
<path d="M14.01 9.46999H14.99V9.11999H15.71V9.46999H16.2V9.11999H16.49V9.74999H14M16.2 9.74999H14.08V10.03H16.2V9.74999Z" fill="#DA000C"/>
<path d="M16.24 10.06H14.06V9.78999H13.99V9.72999H14.06H16.24H16.47V9.15999H16.24V9.50999H15.69V9.15999H15.03V9.50999H13.98V9.44999H14.96V9.09999H15.74V9.44999H16.17V9.09999H16.52V9.78999H16.23V10.06H16.24ZM14.11 9.99999H16.17V9.78999H14.11V9.99999Z" fill="black"/>
<path d="M15.36 6.97999V9.11999H14.99V8.52999C14.99 8.30999 14.83 8.12999 14.62 8.11999C14.62 8.11999 14.61 8.11999 14.6 8.11999C14.37 8.11999 14.19 8.29999 14.19 8.52999V9.11999H13.84V6.97999H15.37H15.36Z" fill="#DA000C"/>
<path d="M15.39 9.14999H14.96V8.52999C14.96 8.31999 14.81 8.15999 14.62 8.14999C14.62 8.14999 14.62 8.14999 14.61 8.14999C14.4 8.14999 14.23 8.31999 14.23 8.52999V9.14999H13.82V6.94999H15.41V9.14999H15.39ZM15.02 9.08999H15.33V7.00999H13.86V9.08999H14.15V8.52999C14.15 8.28999 14.35 8.08999 14.59 8.08999C14.59 8.08999 14.6 8.08999 14.61 8.08999C14.84 8.09999 15.01 8.28999 15.01 8.52999V9.08999H15.02Z" fill="black"/>
<path d="M15.49 6.68999V6.97999H13.71V6.68999H15.49Z" fill="#DA000C"/>
<path d="M15.53 7.00999H13.69V6.65999H15.53V7.00999ZM13.75 6.94999H15.47V6.71999H13.75V6.94999Z" fill="black"/>
<path d="M15.72 6.12999V6.68999H13.59V6.12999H13.92V6.40999H14.32V6.12999H14.93V6.40999H15.33V6.12999H15.73H15.72Z" fill="#DA000C"/>
<path d="M15.75 6.71999H13.56V6.09999H13.95V6.37999H14.29V6.09999H14.96V6.37999H15.3V6.09999H15.77V6.71999H15.75ZM13.62 6.65999H15.69V6.15999H15.35V6.43999H14.89V6.15999H14.35V6.43999H13.89V6.15999H13.62V6.65999Z" fill="black"/>
<path d="M16.52 13.75H13.55V13.81H16.52V13.75Z" fill="black"/>
<path d="M11.7 13.61H13.67L14.26 13.9V14.33H11.7" fill="#DA000C"/>
<path d="M14.3 14.35H11.67V14.29H14.23V13.91L13.66 13.64H11.67V13.58H13.68L14.3 13.88V14.35Z" fill="black"/>
<path d="M14.27 13.86H11.64V13.92H14.27V13.86Z" fill="black"/>
<path d="M13.05 13.2C12.89 13.25 12.74 13.34 12.6 13.43C12.41 13.54 12.23 13.66 12.06 13.8C12 13.84 11.94 13.88 11.9 13.94C11.84 13.99 11.77 14.06 11.79 14.15C11.79 14.19 11.84 14.1 11.88 14.1C11.94 14.07 12.01 14.06 12.07 14.07C12.15 13.99 12.25 13.93 12.33 13.86C12.51 13.72 12.71 13.61 12.91 13.5C12.98 13.46 13.05 13.43 13.12 13.4L13.06 13.2H13.05Z" fill="#F8D80E"/>
<path d="M11.79 14.18C11.79 14.18 11.79 14.18 11.78 14.18C11.78 14.18 11.76 14.18 11.76 14.15C11.75 14.05 11.82 13.97 11.88 13.92C11.93 13.86 11.99 13.81 12.05 13.78C12.2 13.65 12.38 13.53 12.59 13.41L12.65 13.38C12.78 13.31 12.91 13.23 13.05 13.18H13.07L13.14 13.42H13.12C13.05 13.45 12.98 13.49 12.92 13.52C12.69 13.65 12.5 13.77 12.34 13.88C12.31 13.91 12.27 13.93 12.24 13.96C12.19 14 12.13 14.04 12.08 14.09H12.07C12.01 14.08 11.95 14.09 11.9 14.12C11.9 14.12 11.87 14.14 11.86 14.15C11.84 14.17 11.83 14.18 11.81 14.18H11.79ZM13.04 13.23C12.91 13.28 12.79 13.35 12.67 13.42L12.61 13.45C12.4 13.57 12.23 13.69 12.07 13.82C12.02 13.86 11.96 13.9 11.91 13.95C11.84 14.01 11.81 14.06 11.8 14.12C11.82 14.1 11.84 14.08 11.86 14.08C11.92 14.05 11.99 14.04 12.05 14.05C12.1 14 12.15 13.96 12.2 13.93C12.23 13.91 12.27 13.88 12.3 13.85C12.46 13.73 12.64 13.61 12.88 13.49C12.94 13.46 13 13.42 13.07 13.4L13.02 13.24L13.04 13.23Z" fill="black"/>
<path d="M12.27 13.91C12.27 13.91 12.24 13.9 12.24 13.88V13.64C12.24 13.64 12.25 13.61 12.27 13.61C12.29 13.61 12.3 13.62 12.3 13.64V13.88C12.3 13.88 12.29 13.91 12.27 13.91Z" fill="black"/>
<path d="M12.42 13.81C12.42 13.81 12.39 13.8 12.39 13.78V13.54C12.39 13.54 12.4 13.51 12.42 13.51C12.44 13.51 12.45 13.52 12.45 13.54V13.78C12.45 13.78 12.44 13.81 12.42 13.81Z" fill="black"/>
<path d="M12.57 13.71C12.57 13.71 12.54 13.7 12.54 13.68V13.45C12.54 13.45 12.55 13.42 12.57 13.42C12.59 13.42 12.6 13.43 12.6 13.45V13.68C12.6 13.68 12.59 13.71 12.57 13.71Z" fill="black"/>
<path d="M12.71 13.63C12.71 13.63 12.68 13.62 12.68 13.6V13.36C12.68 13.36 12.69 13.33 12.71 13.33C12.73 13.33 12.74 13.34 12.74 13.36V13.6C12.74 13.6 12.73 13.63 12.71 13.63Z" fill="black"/>
<path d="M10.97 13.2C10.95 13.27 10.92 13.33 10.9 13.4C11.24 13.53 11.56 13.7 11.86 13.89C11.96 13.96 12.07 14.03 12.15 14.12C12.17 14.17 12.12 14.21 12.07 14.2C12.03 14.18 11.98 14.17 11.93 14.2C11.86 14.23 11.8 14.33 11.9 14.36C12.04 14.45 12.27 14.41 12.34 14.25C12.38 14.16 12.38 14.06 12.31 13.99C12.18 13.85 12.02 13.75 11.86 13.65C11.58 13.48 11.28 13.32 10.97 13.21V13.2Z" fill="#F8D80E"/>
<path d="M12.07 14.44C12 14.44 11.94 14.42 11.89 14.39C11.83 14.37 11.82 14.33 11.82 14.31C11.82 14.26 11.86 14.2 11.91 14.18C11.96 14.14 12.01 14.16 12.06 14.18C12.06 14.18 12.09 14.18 12.1 14.18C12.1 14.18 12.11 14.16 12.1 14.15C12.03 14.07 11.94 14.01 11.85 13.95L11.82 13.93C11.5 13.73 11.18 13.56 10.87 13.44H10.85L10.94 13.19H10.96C11.24 13.3 11.53 13.45 11.86 13.64L11.9 13.66C12.05 13.75 12.2 13.85 12.32 13.99C12.4 14.07 12.39 14.2 12.35 14.28C12.32 14.36 12.25 14.41 12.17 14.44C12.14 14.45 12.1 14.46 12.07 14.46V14.44ZM11.99 14.21C11.99 14.21 11.96 14.21 11.95 14.22C11.95 14.22 11.88 14.28 11.88 14.31C11.88 14.33 11.89 14.34 11.92 14.35C11.99 14.4 12.08 14.41 12.17 14.39C12.24 14.37 12.3 14.32 12.32 14.26C12.35 14.19 12.36 14.09 12.29 14.02C12.18 13.89 12.02 13.79 11.88 13.7L11.85 13.68C11.54 13.49 11.25 13.35 10.98 13.25L10.92 13.41C11.23 13.53 11.55 13.69 11.86 13.89L11.89 13.91C11.98 13.97 12.08 14.04 12.15 14.13C12.15 14.13 12.15 14.2 12.13 14.22C12.11 14.24 12.07 14.25 12.04 14.24C12.04 14.24 11.99 14.22 11.98 14.22L11.99 14.21Z" fill="black"/>
<path d="M11.89 13.68L11.87 13.88L11.89 13.68Z" fill="#F8D80E"/>
<path d="M11.87 13.92C11.85 13.92 11.84 13.9 11.84 13.89L11.86 13.69C11.86 13.69 11.88 13.66 11.89 13.66C11.91 13.66 11.92 13.68 11.92 13.69L11.9 13.89C11.9 13.89 11.89 13.92 11.87 13.92Z" fill="black"/>
<path d="M12.05 13.79L12 13.99L12.05 13.79Z" fill="#F8D80E"/>
<path d="M12 14.02C11.98 14.02 11.97 14 11.98 13.98L12.03 13.78C12.03 13.78 12.05 13.75 12.07 13.76C12.09 13.76 12.1 13.78 12.09 13.8L12.04 14C12.04 14 12.02 14.02 12.01 14.02H12Z" fill="black"/>
<path d="M12.24 13.92L12.13 14.07L12.24 13.92Z" fill="#F8D80E"/>
<path d="M12.13 14.11C12.13 14.11 12.12 14.11 12.11 14.11C12.1 14.11 12.09 14.08 12.11 14.07L12.22 13.92C12.22 13.92 12.25 13.9 12.26 13.92C12.27 13.92 12.28 13.95 12.26 13.96L12.15 14.11L12.13 14.12V14.11Z" fill="black"/>
<path d="M12.29 14.3L12.13 14.21L12.29 14.3Z" fill="#F8D80E"/>
<path d="M12.29 14.33C12.29 14.33 12.29 14.33 12.28 14.33L12.12 14.24C12.12 14.24 12.1 14.21 12.11 14.2C12.11 14.19 12.14 14.18 12.15 14.19L12.31 14.28C12.31 14.28 12.33 14.31 12.32 14.32C12.32 14.33 12.3 14.34 12.29 14.34V14.33Z" fill="black"/>
<path d="M12.34 14.13L12.16 14.15L12.34 14.13Z" fill="#F8D80E"/>
<path d="M12.16 14.18C12.16 14.18 12.13 14.17 12.13 14.15C12.13 14.13 12.14 14.12 12.16 14.12L12.34 14.1C12.34 14.1 12.37 14.11 12.37 14.13C12.37 14.15 12.36 14.16 12.34 14.16L12.16 14.18Z" fill="black"/>
<path d="M12.11 14.43C12.11 14.43 12.08 14.42 12.08 14.4V14.24C12.08 14.24 12.08 14.21 12.1 14.21C12.12 14.21 12.13 14.22 12.13 14.24V14.4C12.13 14.4 12.13 14.43 12.11 14.43Z" fill="black"/>
<path d="M12.04 14.21L11.89 14.32L12.04 14.21Z" fill="#F8D80E"/>
<path d="M11.89 14.35C11.89 14.35 11.87 14.35 11.87 14.34C11.87 14.33 11.87 14.31 11.87 14.3L12.02 14.19C12.02 14.19 12.05 14.19 12.06 14.19C12.06 14.2 12.06 14.22 12.06 14.23L11.91 14.34C11.91 14.34 11.9 14.34 11.89 14.34V14.35Z" fill="black"/>
<path d="M11.32 13.59C11.32 13.59 11.29 13.58 11.29 13.56V13.37C11.29 13.37 11.3 13.34 11.32 13.34C11.34 13.34 11.35 13.35 11.35 13.37V13.56C11.35 13.56 11.34 13.59 11.32 13.59Z" fill="black"/>
<path d="M11.7 13.82C11.7 13.82 11.67 13.81 11.67 13.79V13.58C11.67 13.58 11.68 13.55 11.7 13.55C11.72 13.55 11.73 13.56 11.73 13.58V13.79C11.73 13.79 11.72 13.82 11.7 13.82Z" fill="black"/>
<path d="M11.51 13.71C11.51 13.71 11.48 13.7 11.48 13.68V13.48C11.48 13.48 11.49 13.45 11.51 13.45C11.53 13.45 11.54 13.46 11.54 13.48V13.68C11.54 13.68 11.53 13.71 11.51 13.71Z" fill="black"/>
<path d="M10.78 17.91V18.4H11.09V18.16H11.51V18.4H11.84V17.91H10.79H10.78ZM10.78 18.58V19.07H11.83V18.58H11.5V18.82H11.08V18.58H10.77H10.78Z" fill="#F8D80E"/>
<path d="M11.86 19.1H10.75V18.55H11.12V18.79H11.47V18.55H11.86V19.1ZM10.81 19.04H11.8V18.61H11.53V18.85H11.05V18.61H10.81V19.04ZM11.86 18.42H11.47V18.18H11.12V18.42H10.75V17.87H11.86V18.42ZM11.53 18.36H11.8V17.93H10.81V18.36H11.05V18.12H11.53V18.36Z" fill="black"/>
<path d="M12.13 15.85H11.83V19.38H12.13V15.85Z" fill="#F8D80E"/>
<path d="M12.16 19.41H11.8V15.82H12.16V19.41ZM11.86 19.35H12.1V15.88H11.86V19.35Z" fill="black"/>
<path d="M12.13 16.15H11.83V19.19H12.13V16.15Z" fill="#F8D80E"/>
<path d="M12.16 19.22H11.8V16.12H12.16V19.22ZM11.86 19.16H12.1V16.18H11.86V19.16Z" fill="black"/>
<path d="M11.98 14.98L12.63 15.36L11.98 15.73L11.33 15.36L11.98 14.98ZM11.11 15.22H10.94V15.49H11.11L11.97 15.99L12.83 15.49H13V15.22H12.83L11.97 14.72L11.11 15.22Z" fill="#F8D80E"/>
<path d="M11.98 16.03L11.11 15.52H10.92V15.19H11.11L11.98 14.68L12.85 15.19H13.04V15.52H12.85L11.98 16.03ZM10.98 15.46H11.13L11.99 15.96L12.85 15.46H13V15.25H12.85L11.99 14.75L11.13 15.25H10.98V15.46ZM11.98 15.77L11.27 15.36L11.98 14.95L12.69 15.36L11.98 15.77ZM11.39 15.36L11.97 15.7L12.55 15.36L11.97 15.02L11.39 15.36Z" fill="black"/>
<path d="M11.96 14.06C11.81 14.08 11.7 14.23 11.71 14.37C11.71 14.6 11.71 14.82 11.71 15.05C11.71 15.2 11.85 15.33 11.99 15.33C12.11 15.34 12.23 15.27 12.28 15.16C12.25 15.14 12.21 15.12 12.18 15.1C12.15 15.17 12.08 15.22 12 15.21C11.9 15.21 11.82 15.12 11.83 15.02C11.83 14.79 11.83 14.57 11.83 14.34C11.83 14.25 11.92 14.17 12.02 14.18C12.06 14.17 12.11 14.22 12.13 14.18C12.17 14.13 12.1 14.09 12.07 14.06C12.03 14.06 11.99 14.06 11.96 14.06ZM12.32 14.3C12.32 14.3 12.25 14.37 12.21 14.4V14.86C12.21 14.86 12.29 14.91 12.33 14.93C12.33 14.74 12.33 14.54 12.33 14.35C12.33 14.34 12.33 14.32 12.33 14.31L12.32 14.3Z" fill="#F8D80E"/>
<path d="M12.03 15.37C12.03 15.37 12.01 15.37 12 15.37C11.84 15.37 11.7 15.23 11.69 15.06C11.69 14.92 11.69 14.77 11.69 14.63C11.69 14.54 11.69 14.46 11.69 14.37C11.69 14.21 11.81 14.05 11.97 14.03C11.98 14.03 12 14.03 12.01 14.03C12.03 14.03 12.06 14.03 12.09 14.03L12.11 14.05C12.14 14.08 12.21 14.13 12.16 14.2C12.13 14.25 12.08 14.23 12.06 14.22C12.05 14.22 12.03 14.22 12.03 14.22C11.99 14.22 11.96 14.22 11.93 14.25C11.9 14.27 11.88 14.31 11.88 14.35C11.88 14.49 11.88 14.63 11.88 14.77C11.88 14.86 11.88 14.94 11.88 15.03C11.88 15.07 11.89 15.11 11.92 15.15C11.95 15.18 11.98 15.19 12.02 15.19C12.08 15.19 12.15 15.16 12.17 15.1V15.07L12.34 15.17V15.2C12.28 15.31 12.16 15.39 12.03 15.39V15.37ZM11.97 14.09C11.84 14.11 11.74 14.24 11.75 14.37C11.75 14.46 11.75 14.54 11.75 14.63C11.75 14.77 11.75 14.91 11.75 15.05C11.75 15.18 11.87 15.3 12 15.3C12.1 15.3 12.2 15.26 12.25 15.17L12.2 15.14C12.16 15.2 12.08 15.24 12.01 15.24C11.96 15.24 11.91 15.22 11.87 15.18C11.83 15.14 11.81 15.08 11.81 15.02C11.81 14.94 11.81 14.85 11.81 14.76C11.81 14.62 11.81 14.48 11.81 14.34C11.81 14.29 11.84 14.24 11.88 14.2C11.92 14.17 11.97 14.15 12.02 14.15C12.04 14.15 12.06 14.15 12.08 14.15C12.08 14.15 12.1 14.15 12.11 14.15C12.11 14.15 12.11 14.12 12.07 14.08C12.07 14.08 12.03 14.08 12.01 14.08C12 14.08 11.98 14.08 11.97 14.08V14.09ZM12.35 14.98L12.17 14.87V14.38H12.19C12.19 14.38 12.27 14.32 12.28 14.29L12.3 14.25L12.33 14.29C12.33 14.29 12.34 14.32 12.34 14.33C12.34 14.45 12.34 14.57 12.34 14.69C12.34 14.76 12.34 14.84 12.34 14.91V14.96L12.35 14.98ZM12.23 14.83L12.29 14.86C12.29 14.8 12.29 14.75 12.29 14.69C12.29 14.58 12.29 14.47 12.29 14.37C12.27 14.39 12.25 14.4 12.23 14.41V14.83Z" fill="black"/>
<path d="M12.86 6.40999H11.08V9.63999H12.86V6.40999Z" fill="black"/>
<path d="M10.96 6.40999V9.11999H11.53V8.31999C11.53 8.12999 11.65 7.87999 12.01 7.87999C12.37 7.87999 12.49 8.13999 12.49 8.31999V9.11999H13.06V6.40999H10.96ZM11.92 6.71999H12.09V7.64999H11.92V6.71999ZM11.42 6.89999H11.6V7.57999H11.42V6.89999ZM12.42 6.89999H12.6V7.57999H12.42V6.89999Z" fill="#DA000C"/>
<path d="M13.08 9.14999H12.45V8.31999C12.45 7.98999 12.17 7.90999 12 7.90999C11.83 7.90999 11.55 7.99999 11.55 8.31999V9.14999H10.92V6.37999H13.08V9.14999ZM12.52 9.08999H13.02V6.43999H10.99V9.08999H11.49V8.31999C11.49 8.13999 11.6 7.84999 12 7.84999C12.4 7.84999 12.51 8.14999 12.51 8.31999V9.08999H12.52ZM12.12 7.67999H11.88V6.68999H12.12V7.67999ZM11.95 7.60999H12.06V6.73999H11.95V7.60999ZM12.62 7.60999H12.38V6.86999H12.62V7.60999ZM12.45 7.54999H12.57V6.92999H12.45V7.54999ZM11.62 7.60999H11.38V6.86999H11.62V7.60999ZM11.45 7.54999H11.57V6.92999H11.45V7.54999Z" fill="black"/>
<path d="M10.76 6.02999V6.41999H13.24V6.02999H10.76Z" fill="#DA000C"/>
<path d="M13.27 6.43999H10.73V5.98999H13.27V6.43999ZM10.8 6.37999H13.22V6.05999H10.8V6.37999Z" fill="black"/>
<path d="M10.53 5.57999V6.02999H13.48V5.57999H13.11V5.82999H12.69V5.57999H12.21V5.82999H11.79V5.57999H11.31V5.82999H10.89V5.57999H10.52H10.53Z" fill="#DA000C"/>
<path d="M13.51 6.05999H10.5V5.54999H10.93V5.79999H11.29V5.54999H11.83V5.79999H12.19V5.54999H12.73V5.79999H13.09V5.54999H13.52V6.05999H13.51ZM10.56 5.99999H13.45V5.60999H13.14V5.85999H12.66V5.60999H12.24V5.85999H11.76V5.60999H11.34V5.85999H10.86V5.60999H10.55V5.99999H10.56Z" fill="black"/>
<path d="M9.97998 10.03V10.31H14.02V10.03H9.97998Z" fill="#DA000C"/>
<path d="M14.05 10.34H9.95001V9.99999H14.05V10.34ZM10.02 10.28H14V10.06H10.02V10.28Z" fill="black"/>
<path d="M9.82001 9.11999V10.03H14.19V9.11999H13.78V9.46999H13.23V9.11999H12.49V9.46999H11.53V9.11999H10.79V9.46999H10.24V9.11999H9.83001H9.82001Z" fill="#DA000C"/>
<path d="M14.22 10.06H9.78998V9.08999H10.26V9.43999H10.75V9.08999H11.55V9.43999H12.45V9.08999H13.25V9.43999H13.74V9.08999H14.21V10.06H14.22ZM9.84998 9.99999H14.16V9.14999H13.81V9.49999H13.2V9.14999H12.52V9.49999H11.5V9.14999H10.82V9.49999H10.21V9.14999H9.85998V9.99999H9.84998Z" fill="black"/>
<path d="M10.35 10.31V13.61H11.13V12.37C11.13 11.79 11.52 11.51 12.01 11.51C12.5 11.51 12.89 11.78 12.89 12.37V13.61H13.67V10.31H10.35Z" fill="#DA000C"/>
<path d="M13.66 13.64H12.88C12.88 13.64 12.85 13.63 12.85 13.61V12.37C12.85 11.97 12.63 11.54 12 11.54C11.47 11.54 11.15 11.85 11.15 12.37V13.61C11.15 13.61 11.14 13.64 11.12 13.64H10.34C10.34 13.64 10.31 13.63 10.31 13.61V10.31C10.31 10.31 10.32 10.28 10.34 10.28H13.66C13.66 10.28 13.69 10.29 13.69 10.31V13.61C13.69 13.61 13.68 13.64 13.66 13.64ZM12.91 13.58H13.63V10.34H10.37V13.58H11.09V12.37C11.09 11.82 11.44 11.48 12 11.48C12.56 11.48 12.91 11.83 12.91 12.37V13.58Z" fill="black"/>
</g>
</g>
<defs>
<clipPath id="clip0_170_16430">
<rect width="24" height="24" fill="white"/>
</clipPath>
</defs>
</svg>
