<svg width="24" height="24" viewBox="0 0 24 24" fill="none" xmlns="http://www.w3.org/2000/svg">
<g clip-path="url(#clip0_170_14729)">
<mask id="mask0_170_14729" style="mask-type:luminance" maskUnits="userSpaceOnUse" x="0" y="0" width="24" height="24">
<path d="M12 24C18.6274 24 24 18.6274 24 12C24 5.37258 18.6274 0 12 0C5.37258 0 0 5.37258 0 12C0 18.6274 5.37258 24 12 24Z" fill="white"/>
</mask>
<g mask="url(#mask0_170_14729)">
<path d="M0 0H24V24H0V0Z" fill="#CE1126"/>
<path d="M12 21.53C17.2632 21.53 21.53 17.2633 21.53 12C21.53 6.73673 17.2632 2.47 12 2.47C6.7367 2.47 2.46997 6.73673 2.46997 12C2.46997 17.2633 6.7367 21.53 12 21.53Z" fill="#FCD116"/>
<mask id="mask1_170_14729" style="mask-type:luminance" maskUnits="userSpaceOnUse" x="2" y="2" width="20" height="20">
<path d="M12 21.53C17.2632 21.53 21.53 17.2633 21.53 12C21.53 6.73673 17.2632 2.47 12 2.47C6.7367 2.47 2.46997 6.73673 2.46997 12C2.46997 17.2633 6.7367 21.53 12 21.53Z" fill="white"/>
</mask>
<g mask="url(#mask1_170_14729)">
<path d="M2.46997 19.45L12 12L2.46997 4.55V19.45Z" fill="#007A5E"/>
<path d="M21.53 4.55L12 12L21.53 19.45V4.55Z" fill="#007A5E"/>
</g>
<path d="M12 14.1C13.1598 14.1 14.1 13.1598 14.1 12C14.1 10.8402 13.1598 9.9 12 9.9C10.8402 9.9 9.90002 10.8402 9.90002 12C9.90002 13.1598 10.8402 14.1 12 14.1Z" fill="#CE1126"/>
<path d="M4.61999 12.01C4.81999 12.4 5.19999 12.83 5.54999 12.99C5.56999 12.6 5.43999 12.1 5.25999 11.69L4.60999 12.01H4.61999Z" fill="#CE1126"/>
<path d="M4.26999 10.69C4.55999 11.32 3.46999 12.79 5.24999 13.16C5.02999 12.86 4.90999 12.35 4.96999 11.95C5.33999 12.11 5.70999 12.48 5.85999 12.82C6.47999 11.1 4.64999 11.27 4.26999 10.69Z" fill="#FCD116"/>
<path d="M12.21 1.04L12 0.389999L11.79 1.04H11.11L11.66 1.44L11.45 2.09L12 1.69L12.55 2.09L12.34 1.44L12.89 1.04H12.21Z" fill="#FCD116"/>
<path d="M17.14 2.42L17.69 2.02H17.01L16.8 1.38L16.59 2.02H15.91L16.46 2.42L16.25 3.07L16.8 2.67L17.35 3.07L17.14 2.42Z" fill="#FCD116"/>
<path d="M7.41 2.02L7.2 1.38L6.99 2.02H6.31L6.86 2.42L6.65 3.07L7.2 2.67L7.75 3.07L7.54 2.42L8.09 2.02H7.41Z" fill="#FCD116"/>
<path d="M17.14 21.71L17.69 21.31H17.01L16.8 20.66L16.59 21.31H15.91L16.46 21.71L16.25 22.36L16.8 21.96L17.35 22.36L17.14 21.71Z" fill="#FCD116"/>
<path d="M12.21 22.56L12 21.91L11.79 22.56H11.11L11.66 22.96L11.45 23.61L12 23.21L12.55 23.61L12.34 22.96L12.89 22.56H12.21Z" fill="#FCD116"/>
<path d="M7.41 21.31L7.2 20.66L6.99 21.31H6.31L6.86 21.71L6.65 22.36L7.2 21.96L7.75 22.36L7.54 21.71L8.09 21.31H7.41Z" fill="#FCD116"/>
<path d="M12 10.07L10.87 13.56L13.84 11.41H10.17L13.14 13.56L12.01 10.07H12Z" fill="#FCD116"/>
</g>
</g>
<defs>
<clipPath id="clip0_170_14729">
<rect width="24" height="24" fill="white"/>
</clipPath>
</defs>
</svg>
