<svg width="24" height="24" viewBox="0 0 24 24" fill="none" xmlns="http://www.w3.org/2000/svg">
<g clip-path="url(#clip0_170_14790)">
<mask id="mask0_170_14790" style="mask-type:luminance" maskUnits="userSpaceOnUse" x="0" y="0" width="24" height="24">
<path d="M12 24C18.6274 24 24 18.6274 24 12C24 5.3726 18.6274 1.23978e-05 12 1.23978e-05C5.37258 1.23978e-05 0 5.3726 0 12C0 18.6274 5.37258 24 12 24Z" fill="white"/>
</mask>
<g mask="url(#mask0_170_14790)">
<path d="M-6.08002 -0.0499878H30.08V24.05H-6.08002V-0.0499878Z" fill="white"/>
<path d="M-6.08002 -0.0499878H30.08V7.98001H-6.08002V-0.0499878ZM-6.08002 16.02H30.08V24.05H-6.08002V16.02Z" fill="#00BCE4"/>
<path d="M6.22 9.13001L5.96 9.92001H5.12L5.8 10.42L5.54 11.22L6.22 10.72L6.89999 11.22L6.64 10.42L7.31999 9.92001H6.48L6.22 9.13001Z" fill="#00BCE4"/>
<path d="M6.48 13.39L6.22 12.6L5.96 13.39H5.12L5.8 13.89L5.54 14.69L6.22 14.19L6.89999 14.69L6.64 13.89L7.31999 13.39H6.48Z" fill="#00BCE4"/>
<path d="M12.26 11.66L12 10.86L11.74 11.66H10.9L11.58 12.15L11.32 12.95L12 12.46L12.68 12.95L12.42 12.15L13.1 11.66H12.26Z" fill="#00BCE4"/>
<path d="M17.36 10.42L17.1 11.22L17.78 10.72L18.46 11.22L18.2 10.42L18.88 9.92001H18.04L17.78 9.13001L17.52 9.92001H16.68L17.36 10.42Z" fill="#00BCE4"/>
<path d="M18.04 13.39L17.78 12.6L17.52 13.39H16.68L17.36 13.89L17.1 14.69L17.78 14.19L18.46 14.69L18.2 13.89L18.88 13.39H18.04Z" fill="#00BCE4"/>
</g>
</g>
<defs>
<clipPath id="clip0_170_14790">
<rect width="24" height="24" fill="white"/>
</clipPath>
</defs>
</svg>
