<svg width="24" height="24" viewBox="0 0 24 24" fill="none" xmlns="http://www.w3.org/2000/svg">
<g clip-path="url(#clip0_161_13377)">
<mask id="mask0_161_13377" style="mask-type:luminance" maskUnits="userSpaceOnUse" x="0" y="0" width="24" height="24">
<path d="M12 24C18.6274 24 24 18.6274 24 12C24 5.37258 18.6274 0 12 0C5.37258 0 0 5.37258 0 12C0 18.6274 5.37258 24 12 24Z" fill="white"/>
</mask>
<g mask="url(#mask0_161_13377)">
<path d="M0 0H24V24H0V0Z" fill="white"/>
<path d="M0 0H24V8H0V0Z" fill="#FF6820"/>
<path d="M0 16H24V24H0V16Z" fill="#046A38"/>
<path d="M12 15.02C13.6679 15.02 15.02 13.6679 15.02 12C15.02 10.3321 13.6679 8.98 12 8.98C10.3321 8.98 8.98001 10.3321 8.98001 12C8.98001 13.6679 10.3321 15.02 12 15.02Z" fill="#07038D"/>
<path d="M12 14.61C13.4415 14.61 14.61 13.4415 14.61 12C14.61 10.5585 13.4415 9.39 12 9.39C10.5586 9.39 9.39001 10.5585 9.39001 12C9.39001 13.4415 10.5586 14.61 12 14.61Z" fill="white"/>
<path d="M12 12.52C12.2872 12.52 12.52 12.2872 12.52 12C12.52 11.7128 12.2872 11.48 12 11.48C11.7128 11.48 11.48 11.7128 11.48 12C11.48 12.2872 11.7128 12.52 12 12.52Z" fill="#07038D"/>
<path d="M12 9.39L12.1 10.96L12 11.74L11.9 10.96L12 9.39Z" fill="#07038D"/>
<path d="M12.34 9.52C12.4007 9.52 12.45 9.47075 12.45 9.41C12.45 9.34924 12.4007 9.3 12.34 9.3C12.2792 9.3 12.23 9.34924 12.23 9.41C12.23 9.47075 12.2792 9.52 12.34 9.52Z" fill="#07038D"/>
<path d="M12 14.61L11.9 13.04L12 12.26L12.1 13.04L12 14.61Z" fill="#07038D"/>
<path d="M11.66 14.7C11.7207 14.7 11.77 14.6507 11.77 14.59C11.77 14.5292 11.7207 14.48 11.66 14.48C11.5992 14.48 11.55 14.5292 11.55 14.59C11.55 14.6507 11.5992 14.7 11.66 14.7Z" fill="#07038D"/>
<path d="M12.68 9.48L12.37 11.02L12.07 11.75L12.18 10.97L12.68 9.48Z" fill="#07038D"/>
<path d="M13 9.7C13.0608 9.7 13.11 9.65075 13.11 9.59C13.11 9.52925 13.0608 9.48 13 9.48C12.9393 9.48 12.89 9.52925 12.89 9.59C12.89 9.65075 12.9393 9.7 13 9.7Z" fill="#07038D"/>
<path d="M11.32 14.52L11.63 12.98L11.93 12.25L11.82 13.03L11.32 14.52Z" fill="#07038D"/>
<path d="M11 14.52C11.0608 14.52 11.11 14.4708 11.11 14.41C11.11 14.3493 11.0608 14.3 11 14.3C10.9393 14.3 10.89 14.3493 10.89 14.41C10.89 14.4708 10.9393 14.52 11 14.52Z" fill="#07038D"/>
<path d="M13.3 9.74L12.6 11.15L12.13 11.77L12.43 11.05L13.3 9.74Z" fill="#07038D"/>
<path d="M13.59 10.04C13.6507 10.04 13.7 9.99075 13.7 9.93C13.7 9.86925 13.6507 9.82 13.59 9.82C13.5292 9.82 13.48 9.86925 13.48 9.93C13.48 9.99075 13.5292 10.04 13.59 10.04Z" fill="#07038D"/>
<path d="M10.7 14.26L11.4 12.85L11.87 12.23L11.57 12.95L10.7 14.26Z" fill="#07038D"/>
<path d="M10.41 14.18C10.4707 14.18 10.52 14.1308 10.52 14.07C10.52 14.0092 10.4707 13.96 10.41 13.96C10.3492 13.96 10.3 14.0092 10.3 14.07C10.3 14.1308 10.3492 14.18 10.41 14.18Z" fill="#07038D"/>
<path d="M13.85 10.15L12.81 11.33L12.19 11.81L12.67 11.19L13.85 10.15Z" fill="#07038D"/>
<path d="M14.07 10.52C14.1308 10.52 14.18 10.4707 14.18 10.41C14.18 10.3492 14.1308 10.3 14.07 10.3C14.0093 10.3 13.96 10.3492 13.96 10.41C13.96 10.4707 14.0093 10.52 14.07 10.52Z" fill="#07038D"/>
<path d="M10.15 13.85L11.19 12.67L11.81 12.19L11.33 12.81L10.15 13.85Z" fill="#07038D"/>
<path d="M9.93001 13.7C9.99076 13.7 10.04 13.6507 10.04 13.59C10.04 13.5292 9.99076 13.48 9.93001 13.48C9.86926 13.48 9.82001 13.5292 9.82001 13.59C9.82001 13.6507 9.86926 13.7 9.93001 13.7Z" fill="#07038D"/>
<path d="M14.26 10.7L12.95 11.57L12.23 11.87L12.85 11.4L14.26 10.7Z" fill="#07038D"/>
<path d="M14.41 11.11C14.4707 11.11 14.52 11.0608 14.52 11C14.52 10.9392 14.4707 10.89 14.41 10.89C14.3492 10.89 14.3 10.9392 14.3 11C14.3 11.0608 14.3492 11.11 14.41 11.11Z" fill="#07038D"/>
<path d="M9.73999 13.3L11.05 12.43L11.77 12.13L11.15 12.6L9.73999 13.3Z" fill="#07038D"/>
<path d="M9.58998 13.11C9.65073 13.11 9.69998 13.0608 9.69998 13C9.69998 12.9392 9.65073 12.89 9.58998 12.89C9.52923 12.89 9.47998 12.9392 9.47998 13C9.47998 13.0608 9.52923 13.11 9.58998 13.11Z" fill="#07038D"/>
<path d="M14.52 11.32L13.03 11.82L12.25 11.93L12.98 11.63L14.52 11.32Z" fill="#07038D"/>
<path d="M14.59 11.77C14.6507 11.77 14.7 11.7208 14.7 11.66C14.7 11.5993 14.6507 11.55 14.59 11.55C14.5292 11.55 14.48 11.5993 14.48 11.66C14.48 11.7208 14.5292 11.77 14.59 11.77Z" fill="#07038D"/>
<path d="M9.47998 12.68L10.97 12.18L11.75 12.07L11.02 12.37L9.47998 12.68Z" fill="#07038D"/>
<path d="M9.40999 12.45C9.47074 12.45 9.51999 12.4007 9.51999 12.34C9.51999 12.2792 9.47074 12.23 9.40999 12.23C9.34924 12.23 9.29999 12.2792 9.29999 12.34C9.29999 12.4007 9.34924 12.45 9.40999 12.45Z" fill="#07038D"/>
<path d="M14.61 12L13.04 12.1L12.26 12L13.04 11.9L14.61 12Z" fill="#07038D"/>
<path d="M14.59 12.45C14.6507 12.45 14.7 12.4008 14.7 12.34C14.7 12.2793 14.6507 12.23 14.59 12.23C14.5292 12.23 14.48 12.2793 14.48 12.34C14.48 12.4008 14.5292 12.45 14.59 12.45Z" fill="#07038D"/>
<path d="M9.39001 12L10.96 11.9L11.74 12L10.96 12.1L9.39001 12Z" fill="#07038D"/>
<path d="M9.40999 11.77C9.47074 11.77 9.51999 11.7208 9.51999 11.66C9.51999 11.5993 9.47074 11.55 9.40999 11.55C9.34924 11.55 9.29999 11.5993 9.29999 11.66C9.29999 11.7208 9.34924 11.77 9.40999 11.77Z" fill="#07038D"/>
<path d="M14.52 12.68L12.98 12.37L12.25 12.07L13.03 12.18L14.52 12.68Z" fill="#07038D"/>
<path d="M14.41 13.11C14.4707 13.11 14.52 13.0608 14.52 13C14.52 12.9392 14.4707 12.89 14.41 12.89C14.3492 12.89 14.3 12.9392 14.3 13C14.3 13.0608 14.3492 13.11 14.41 13.11Z" fill="#07038D"/>
<path d="M9.47998 11.32L11.02 11.63L11.75 11.93L10.97 11.82L9.47998 11.32Z" fill="#07038D"/>
<path d="M9.58998 11.11C9.65073 11.11 9.69998 11.0608 9.69998 11C9.69998 10.9392 9.65073 10.89 9.58998 10.89C9.52923 10.89 9.47998 10.9392 9.47998 11C9.47998 11.0608 9.52923 11.11 9.58998 11.11Z" fill="#07038D"/>
<path d="M14.26 13.3L12.85 12.6L12.23 12.13L12.95 12.43L14.26 13.3Z" fill="#07038D"/>
<path d="M14.07 13.7C14.1307 13.7 14.18 13.6507 14.18 13.59C14.18 13.5292 14.1307 13.48 14.07 13.48C14.0092 13.48 13.96 13.5292 13.96 13.59C13.96 13.6507 14.0092 13.7 14.07 13.7Z" fill="#07038D"/>
<path d="M9.73999 10.7L11.15 11.4L11.77 11.87L11.05 11.57L9.73999 10.7Z" fill="#07038D"/>
<path d="M9.93001 10.52C9.99076 10.52 10.04 10.4707 10.04 10.41C10.04 10.3492 9.99076 10.3 9.93001 10.3C9.86926 10.3 9.82001 10.3492 9.82001 10.41C9.82001 10.4707 9.86926 10.52 9.93001 10.52Z" fill="#07038D"/>
<path d="M13.8499 13.85L12.6699 12.81L12.1899 12.19L12.8099 12.67L13.8499 13.85Z" fill="#07038D"/>
<path d="M13.5899 14.18C13.6507 14.18 13.6999 14.1307 13.6999 14.07C13.6999 14.0092 13.6507 13.96 13.5899 13.96C13.5292 13.96 13.4799 14.0092 13.4799 14.07C13.4799 14.1307 13.5292 14.18 13.5899 14.18Z" fill="#07038D"/>
<path d="M10.15 10.15L11.33 11.19L11.81 11.81L11.19 11.33L10.15 10.15Z" fill="#07038D"/>
<path d="M10.41 10.04C10.4707 10.04 10.52 9.99074 10.52 9.92999C10.52 9.86924 10.4707 9.81999 10.41 9.81999C10.3492 9.81999 10.3 9.86924 10.3 9.92999C10.3 9.99074 10.3492 10.04 10.41 10.04Z" fill="#07038D"/>
<path d="M13.3 14.26L12.43 12.95L12.13 12.23L12.6 12.85L13.3 14.26Z" fill="#07038D"/>
<path d="M13 14.52C13.0608 14.52 13.11 14.4707 13.11 14.41C13.11 14.3492 13.0608 14.3 13 14.3C12.9393 14.3 12.89 14.3492 12.89 14.41C12.89 14.4707 12.9393 14.52 13 14.52Z" fill="#07038D"/>
<path d="M10.7 9.74L11.57 11.05L11.87 11.77L11.4 11.15L10.7 9.74Z" fill="#07038D"/>
<path d="M11 9.7C11.0608 9.7 11.11 9.65075 11.11 9.59C11.11 9.52925 11.0608 9.48 11 9.48C10.9393 9.48 10.89 9.52925 10.89 9.59C10.89 9.65075 10.9393 9.7 11 9.7Z" fill="#07038D"/>
<path d="M12.68 14.52L12.18 13.03L12.07 12.25L12.37 12.98L12.68 14.52Z" fill="#07038D"/>
<path d="M12.34 14.7C12.4007 14.7 12.45 14.6507 12.45 14.59C12.45 14.5292 12.4007 14.48 12.34 14.48C12.2792 14.48 12.23 14.5292 12.23 14.59C12.23 14.6507 12.2792 14.7 12.34 14.7Z" fill="#07038D"/>
<path d="M11.32 9.48L11.82 10.97L11.93 11.75L11.63 11.02L11.32 9.48Z" fill="#07038D"/>
<path d="M11.66 9.52C11.7207 9.52 11.77 9.47075 11.77 9.41C11.77 9.34924 11.7207 9.3 11.66 9.3C11.5992 9.3 11.55 9.34924 11.55 9.41C11.55 9.47075 11.5992 9.52 11.66 9.52Z" fill="#07038D"/>
</g>
</g>
<defs>
<clipPath id="clip0_161_13377">
<rect width="24" height="24" fill="white"/>
</clipPath>
</defs>
</svg>
