<svg width="24" height="24" viewBox="0 0 24 24" fill="none" xmlns="http://www.w3.org/2000/svg">
<g clip-path="url(#clip0_104_13869)">
<mask id="mask0_104_13869" style="mask-type:luminance" maskUnits="userSpaceOnUse" x="0" y="0" width="24" height="24">
<path d="M12 24C18.6274 24 24 18.6274 24 12C24 5.37258 18.6274 0 12 0C5.37258 0 0 5.37258 0 12C0 18.6274 5.37258 24 12 24Z" fill="white"/>
</mask>
<g mask="url(#mask0_104_13869)">
<path d="M30.09 -0.0599976H-6.09003V7.85H30.09V-0.0599976Z" fill="#009E3B"/>
<path d="M30.09 7.85001H-6.09003V15.95H30.09V7.85001Z" fill="white"/>
<path d="M30.09 15.96H-6.09003V24.06H30.09V15.96Z" fill="#FA030F"/>
<path d="M0.599988 6.29001V7.13001H0.429988V6.29001H0.239988V7.13001H0.109988V6.29001H-0.0700121V6.71001H-0.700012V6.72001V7.42001V7.43001H-0.530012V7.42001H-0.210012V7.13001H-0.530012V6.95001H-0.0700121V7.42001V7.43001H0.779988V6.29001H0.599988Z" fill="white"/>
<path d="M0.790008 7.56H-0.679993V7.86H0.790008V7.56Z" fill="white"/>
<path d="M2.98 6.29001H0.880005V6.53001H2.98V6.29001Z" fill="white"/>
<path d="M1.86 6.71001V6.95001H2.18001V7.13001H1.73001V6.70001H1.55H0.880005V7.43001H1.10001V6.94001H1.55V7.43001H1.73001H2.36V7.42001V6.71001H1.86Z" fill="white"/>
<path d="M1.42 7.12H1.19V7.42H1.42V7.12Z" fill="white"/>
<path d="M3.78999 6.29001V7.13001H3.61999V6.29001H3.43999V7.13001H3.29999V6.29001H3.11999V6.71001H2.48999V6.72001V7.42001V7.43001H2.66999V7.42001H2.97999V7.13001H2.66999V6.95001H3.11999V7.42001V7.43001H3.96999V6.29001H3.78999Z" fill="white"/>
<path d="M2.36001 7.56H0.890015V7.86H2.36001V7.56Z" fill="white"/>
<path d="M3.98001 7.56H2.51001V7.86H3.98001V7.56Z" fill="white"/>
<path d="M6.17001 6.29001H4.07001V6.53001H6.17001V6.29001Z" fill="white"/>
<path d="M5.06001 6.71001V6.95001H5.38001V7.13001H4.92001V6.70001H4.74001H4.07001V7.43001H4.30001V6.94001H4.74001V7.43001H4.92001H5.55001V7.42001V6.71001H5.06001Z" fill="white"/>
<path d="M4.62002 7.12H4.39001V7.42H4.62002V7.12Z" fill="white"/>
<path d="M6.97999 6.29001V7.13001H6.80999V6.29001H6.62999V7.13001H6.48999V6.29001H6.30999V6.71001H5.67999V6.72001V7.42001V7.43001H5.85999V7.42001H6.17999V7.13001H5.85999V6.95001H6.30999V7.42001V7.43001H7.15999V6.29001H6.97999Z" fill="white"/>
<path d="M5.55002 7.56H4.08002V7.86H5.55002V7.56Z" fill="white"/>
<path d="M7.17001 7.56H5.70001V7.86H7.17001V7.56Z" fill="white"/>
<path d="M9.37002 6.29001H7.27002V6.53001H9.37002V6.29001Z" fill="white"/>
<path d="M8.25001 6.71001V6.95001H8.57001V7.13001H8.11001V6.70001H7.93001H7.26001V7.43001H7.49001V6.94001H7.93001V7.43001H8.11001H8.74001V7.42001H8.75001V6.71001H8.25001Z" fill="white"/>
<path d="M7.81002 7.12H7.58002V7.42H7.81002V7.12Z" fill="white"/>
<path d="M10.17 6.29001V7.13001H10V6.29001H9.82V7.13001H9.69V6.29001H9.5V6.71001H8.88V6.72001V7.42001V7.43001H9.05V7.42001H9.37V7.13001H9.05V6.95001H9.5V7.42001V7.43001H10.36V6.29001H10.17Z" fill="white"/>
<path d="M8.74002 7.56H7.27002V7.86H8.74002V7.56Z" fill="white"/>
<path d="M10.36 7.56H8.89001V7.86H10.36V7.56Z" fill="white"/>
<path d="M12.56 6.29001H10.46V6.53001H12.56V6.29001Z" fill="white"/>
<path d="M11.44 6.71001V6.95001H11.76V7.13001H11.3099V6.70001H11.1299H10.45V7.43001H10.68V6.94001H11.1299V7.43001H11.3099H11.94V7.42001V6.71001H11.44Z" fill="white"/>
<path d="M11 7.12H10.77V7.42H11V7.12Z" fill="white"/>
<path d="M13.3699 6.29001V7.13001H13.1999V6.29001H13.0099V7.13001H12.8799V6.29001H12.6999V6.71001H12.0699V6.72001V7.42001V7.43001H12.2399V7.42001H12.5599V7.13001H12.2399V6.95001H12.6999V7.42001V7.43001H13.5499V6.29001H13.3699Z" fill="white"/>
<path d="M11.93 7.56H10.46V7.86H11.93V7.56Z" fill="white"/>
<path d="M13.55 7.56H12.08V7.86H13.55V7.56Z" fill="white"/>
<path d="M15.75 6.29001H13.65V6.53001H15.75V6.29001Z" fill="white"/>
<path d="M14.63 6.71001V6.95001H14.95V7.13001H14.5V6.70001H14.32H13.64V7.43001H13.87V6.94001H14.32V7.43001H14.5H15.13V7.42001V6.71001H14.63Z" fill="white"/>
<path d="M14.19 7.12H13.96V7.42H14.19V7.12Z" fill="white"/>
<path d="M16.5599 6.29001V7.13001H16.3899V6.29001H16.2099V7.13001H16.0699V6.29001H15.8899V6.71001H15.2599V6.72001V7.42001V7.43001H15.4399V7.42001H15.7499V7.13001H15.4399V6.95001H15.8899V7.42001V7.43001H16.7399V6.29001H16.5599Z" fill="white"/>
<path d="M15.12 7.56H13.65V7.86H15.12V7.56Z" fill="white"/>
<path d="M16.75 7.56H15.28V7.86H16.75V7.56Z" fill="white"/>
<path d="M18.94 6.29001H16.84V6.53001H18.94V6.29001Z" fill="white"/>
<path d="M17.83 6.71001V6.95001H18.15V7.13001H17.69V6.70001H17.51H16.84V7.43001H17.07V6.94001H17.51V7.43001H17.69H18.32V7.42001V6.71001H17.83Z" fill="white"/>
<path d="M17.38 7.12H17.15V7.42H17.38V7.12Z" fill="white"/>
<path d="M19.75 6.29001V7.13001H19.58V6.29001H19.4V7.13001H19.26V6.29001H19.08V6.71001H18.45V6.72001V7.42001V7.43001H18.6299V7.42001H18.95V7.13001H18.6299V6.95001H19.08V7.42001V7.43001H19.93V6.29001H19.75Z" fill="white"/>
<path d="M18.32 7.56H16.85V7.86H18.32V7.56Z" fill="white"/>
<path d="M19.94 7.56H18.47V7.86H19.94V7.56Z" fill="white"/>
<path d="M22.14 6.29001H20.04V6.53001H22.14V6.29001Z" fill="white"/>
<path d="M21.02 6.71001V6.95001H21.34V7.13001H20.88V6.70001H20.7H20.03V7.43001H20.26V6.94001H20.7V7.43001H20.88H21.51V7.42001H21.52V6.71001H21.02Z" fill="white"/>
<path d="M20.58 7.12H20.35V7.42H20.58V7.12Z" fill="white"/>
<path d="M22.94 6.29001V7.13001H22.77V6.29001H22.59V7.13001H22.46V6.29001H22.27V6.71001H21.65V6.72001V7.42001V7.43001H21.82V7.42001H22.14V7.13001H21.82V6.95001H22.27V7.42001V7.43001H23.13V6.29001H22.94Z" fill="white"/>
<path d="M21.51 7.56H20.04V7.86H21.51V7.56Z" fill="white"/>
<path d="M23.13 7.56H21.66V7.86H23.13V7.56Z" fill="white"/>
<path d="M25.33 6.29001H23.23V6.53001H25.33V6.29001Z" fill="white"/>
<path d="M24.21 6.71001V6.95001H24.53V7.13001H24.08V6.70001H23.89H23.22V7.43001H23.45V6.94001H23.89V7.43001H24.08H24.71V7.42001V6.71001H24.21Z" fill="white"/>
<path d="M23.77 7.12H23.54V7.42H23.77V7.12Z" fill="white"/>
<path d="M24.7 7.56H23.23V7.86H24.7V7.56Z" fill="white"/>
<path d="M0.599988 16.41V17.25H0.429988V16.41H0.239988V17.25H0.109988V16.41H-0.0700121V16.83H-0.700012V16.84V17.54H-0.530012H-0.210012V17.25H-0.530012V17.07H-0.0700121V17.54V17.55H0.779988V16.41H0.599988Z" fill="white"/>
<path d="M0.790008 15.96H-0.679993V16.26H0.790008V15.96Z" fill="white"/>
<path d="M2.98 16.41H0.880005V16.65H2.98V16.41Z" fill="white"/>
<path d="M1.86 16.83V17.07H2.18001V17.25H1.73001V16.82H1.55H0.880005V17.55H1.10001V17.06H1.55V17.55H1.73001H2.36V17.54V16.83H1.86Z" fill="white"/>
<path d="M1.42 17.24H1.19V17.54H1.42V17.24Z" fill="white"/>
<path d="M3.78999 16.41V17.25H3.61999V16.41H3.43999V17.25H3.29999V16.41H3.11999V16.83H2.48999V16.84V17.54H2.66999H2.97999V17.25H2.66999V17.07H3.11999V17.54V17.55H3.96999V16.41H3.78999Z" fill="white"/>
<path d="M2.36001 15.96H0.890015V16.26H2.36001V15.96Z" fill="white"/>
<path d="M3.98001 15.96H2.51001V16.26H3.98001V15.96Z" fill="white"/>
<path d="M6.17001 16.41H4.07001V16.65H6.17001V16.41Z" fill="white"/>
<path d="M5.06001 16.83V17.07H5.38001V17.25H4.92001V16.82H4.74001H4.07001V17.55H4.30001V17.06H4.74001V17.55H4.92001H5.55001V17.54V16.83H5.06001Z" fill="white"/>
<path d="M4.62002 17.24H4.39001V17.54H4.62002V17.24Z" fill="white"/>
<path d="M6.97999 16.41V17.25H6.80999V16.41H6.62999V17.25H6.48999V16.41H6.30999V16.83H5.67999V16.84V17.54H5.85999H6.17999V17.25H5.85999V17.07H6.30999V17.54V17.55H7.15999V16.41H6.97999Z" fill="white"/>
<path d="M5.55002 15.96H4.08002V16.26H5.55002V15.96Z" fill="white"/>
<path d="M7.17001 15.96H5.70001V16.26H7.17001V15.96Z" fill="white"/>
<path d="M9.37002 16.41H7.27002V16.65H9.37002V16.41Z" fill="white"/>
<path d="M8.25001 16.83V17.07H8.57001V17.25H8.11001V16.82H7.93001H7.26001V17.55H7.49001V17.06H7.93001V17.55H8.11001H8.74001V17.54H8.75001V16.83H8.25001Z" fill="white"/>
<path d="M7.81002 17.24H7.58002V17.54H7.81002V17.24Z" fill="white"/>
<path d="M10.17 16.41V17.25H10V16.41H9.82V17.25H9.69V16.41H9.5V16.83H8.88V16.84V17.54H9.05H9.37V17.25H9.05V17.07H9.5V17.54V17.55H10.36V16.41H10.17Z" fill="white"/>
<path d="M8.74002 15.96H7.27002V16.26H8.74002V15.96Z" fill="white"/>
<path d="M10.36 15.96H8.89001V16.26H10.36V15.96Z" fill="white"/>
<path d="M12.56 16.41H10.46V16.65H12.56V16.41Z" fill="white"/>
<path d="M11.44 16.83V17.07H11.76V17.25H11.3099V16.82H11.1299H10.45V17.55H10.68V17.06H11.1299V17.55H11.3099H11.94V17.54V16.83H11.44Z" fill="white"/>
<path d="M11 17.24H10.77V17.54H11V17.24Z" fill="white"/>
<path d="M13.3699 16.41V17.25H13.1999V16.41H13.0099V17.25H12.8799V16.41H12.6999V16.83H12.0699V16.84V17.54H12.2399H12.5599V17.25H12.2399V17.07H12.6999V17.54V17.55H13.5499V16.41H13.3699Z" fill="white"/>
<path d="M11.93 15.96H10.46V16.26H11.93V15.96Z" fill="white"/>
<path d="M13.55 15.96H12.08V16.26H13.55V15.96Z" fill="white"/>
<path d="M15.75 16.41H13.65V16.65H15.75V16.41Z" fill="white"/>
<path d="M14.63 16.83V17.07H14.95V17.25H14.5V16.82H14.32H13.64V17.55H13.87V17.06H14.32V17.55H14.5H15.13V17.54V16.83H14.63Z" fill="white"/>
<path d="M14.19 17.24H13.96V17.54H14.19V17.24Z" fill="white"/>
<path d="M16.5599 16.41V17.25H16.3899V16.41H16.2099V17.25H16.0699V16.41H15.8899V16.83H15.2599V16.84V17.54H15.4399H15.7499V17.25H15.4399V17.07H15.8899V17.54V17.55H16.7399V16.41H16.5599Z" fill="white"/>
<path d="M15.12 15.96H13.65V16.26H15.12V15.96Z" fill="white"/>
<path d="M16.75 15.96H15.28V16.26H16.75V15.96Z" fill="white"/>
<path d="M18.94 16.41H16.84V16.65H18.94V16.41Z" fill="white"/>
<path d="M17.83 16.83V17.07H18.15V17.25H17.69V16.82H17.51H16.84V17.55H17.07V17.06H17.51V17.55H17.69H18.32V17.54V16.83H17.83Z" fill="white"/>
<path d="M17.38 17.24H17.15V17.54H17.38V17.24Z" fill="white"/>
<path d="M19.75 16.41V17.25H19.58V16.41H19.4V17.25H19.26V16.41H19.08V16.83H18.45V16.84V17.54H18.6299H18.95V17.25H18.6299V17.07H19.08V17.54V17.55H19.93V16.41H19.75Z" fill="white"/>
<path d="M18.32 15.96H16.85V16.26H18.32V15.96Z" fill="white"/>
<path d="M19.94 15.96H18.47V16.26H19.94V15.96Z" fill="white"/>
<path d="M22.14 16.41H20.04V16.65H22.14V16.41Z" fill="white"/>
<path d="M21.02 16.83V17.07H21.34V17.25H20.88V16.82H20.7H20.03V17.55H20.26V17.06H20.7V17.55H20.88H21.51V17.54H21.52V16.83H21.02Z" fill="white"/>
<path d="M20.58 17.24H20.35V17.54H20.58V17.24Z" fill="white"/>
<path d="M22.94 16.41V17.25H22.77V16.41H22.59V17.25H22.46V16.41H22.27V16.83H21.65V16.84V17.54H21.82H22.14V17.25H21.82V17.07H22.27V17.54V17.55H23.13V16.41H22.94Z" fill="white"/>
<path d="M21.51 15.96H20.04V16.26H21.51V15.96Z" fill="white"/>
<path d="M23.13 15.96H21.66V16.26H23.13V15.96Z" fill="white"/>
<path d="M25.33 16.41H23.23V16.65H25.33V16.41Z" fill="white"/>
<path d="M24.21 16.83V17.07H24.53V17.25H24.08V16.82H23.89H23.22V17.55H23.45V17.06H23.89V17.55H24.08H24.71V17.54V16.83H24.21Z" fill="white"/>
<path d="M23.77 17.24H23.54V17.54H23.77V17.24Z" fill="white"/>
<path d="M24.7 15.96H23.23V16.26H24.7V15.96Z" fill="white"/>
<path d="M10.79 9.73C10.79 9.73 9.22995 10.13 9.11995 11.71C9.03995 13.63 10.21 14 10.21 14C9.90995 13.64 9.61995 12.95 9.61995 11.93C9.61995 10.91 10.79 9.72 10.79 9.72V9.73Z" fill="#FA030F"/>
<path d="M14.8699 11.71C14.7699 10.12 13.21 9.76001 13.2 9.73001C13.2 9.73001 14.3699 10.92 14.3699 11.94C14.3699 12.96 14.08 13.64 13.78 14.01C13.78 14.01 14.9499 13.64 14.8699 11.72V11.71Z" fill="#FA030F"/>
<path d="M13.61 13.14C14.5 10.99 12.97 9.84001 12.97 9.84001C12.97 9.84001 13.7 10.96 13.36 12.28C13.11 13.08 12.73 13.61 12.31 13.95L12.34 9.93001L12 9.57001L11.65 9.93001L11.73 13.98C11.3 13.64 10.9 13.11 10.64 12.28C10.29 10.96 11.03 9.84001 11.03 9.84001C11.03 9.84001 9.49996 10.99 10.39 13.14C10.66 13.8 11.07 14.19 11.5 14.41C10.93 14.62 10.46 14.57 10.46 14.57C10.46 14.57 11.08 14.76 11.8 14.64L12.01 14.99L12.27 14.65C12.97 14.75 13.56 14.57 13.56 14.57C13.56 14.57 13.09 14.61 12.52 14.41C12.95 14.19 13.35 13.8 13.63 13.14H13.61Z" fill="#FA030F"/>
<path d="M11.62 9.65C11.9 9.65 11.98 9.42 11.99 9.26C12.01 9.42 12.08 9.65 12.36 9.65C12.8 9.65 12.77 9.17 12.7 9C12.7 9 12.66 9.39 12.36 9.39C12.06 9.39 11.99 9.1 11.99 9.1C11.99 9.1 11.93 9.39 11.62 9.39C11.31 9.39 11.28 9 11.28 9C11.2 9.17 11.17 9.65 11.62 9.65Z" fill="#FA030F"/>
</g>
</g>
<defs>
<clipPath id="clip0_104_13869">
<rect width="24" height="24" fill="white"/>
</clipPath>
</defs>
</svg>
