<svg width="24" height="24" viewBox="0 0 24 24" fill="none" xmlns="http://www.w3.org/2000/svg">
<g clip-path="url(#clip0_161_11071)">
<mask id="mask0_161_11071" style="mask-type:luminance" maskUnits="userSpaceOnUse" x="0" y="0" width="24" height="24">
<path d="M12 24C18.6274 24 24 18.6274 24 12C24 5.37258 18.6274 0 12 0C5.37258 0 0 5.37258 0 12C0 18.6274 5.37258 24 12 24Z" fill="white"/>
</mask>
<g mask="url(#mask0_161_11071)">
<path d="M0 0H24V24H0V0Z" fill="white"/>
<path d="M0 0H24V8H0V0Z" fill="#CD1125"/>
<path d="M0 16H24V24H0V16Z" fill="black"/>
<path d="M11.79 13.54H6.43999C6.39999 13.92 6.00999 14.19 5.56999 14.16C5.51999 14.16 5.47999 14.15 5.42999 14.14C6.17999 13.77 6.12999 13.4 5.65999 12.57C5.91999 12.48 5.95999 12.45 6.22999 12.27C6.03999 12.84 6.71999 12.77 7.20999 12.77C7.20999 12.57 7.22999 12.34 7.07999 12.31C7.26999 12.24 7.28999 12.22 7.59999 11.96V12.73H11.29V12.2C11.29 12.14 11.24 12.09 11.18 12.09C11.12 12.09 11.07 12.14 11.07 12.2V12.5C11.07 12.5 11.03 12.58 10.99 12.58H8.16999V12.08L10.29 10.03C10.28 10.14 10.49 10.42 10.59 10.46C10.52 10.47 10.44 10.46 10.39 10.51L8.65999 12.19H10.58C10.58 11.74 10.99 11.74 11.19 11.59C11.38 11.75 11.8 11.75 11.8 12.19V13.53L11.79 13.54ZM12.19 13.54V10.04C12.39 10.15 12.54 10.27 12.78 10.33C12.77 10.47 12.64 10.51 12.64 10.61V12.76C12.91 12.82 12.97 12.66 13.1 12.58C13.13 12.92 13.35 13.26 13.34 13.53H12.18L12.19 13.54ZM15.85 11.2L16.28 10.84V12.72H16.58V10.58C16.73 10.46 16.92 10.32 17.01 10.16V13.53H14.31C14.27 12.83 14.27 12.12 15.08 12.27V11.99C15.08 11.92 14.98 11.98 14.98 11.92L15.54 11.46V12.73H15.84V11.21L15.85 11.2ZM15.71 10.24C15.66 10.24 15.58 9.96 15.6 9.9C15.62 9.84 15.69 9.84 15.72 9.87C15.77 9.92 15.76 10.24 15.72 10.24H15.71ZM15.21 10.63C15.06 10.54 15.08 10.51 15.21 10.54C15.44 10.61 15.56 10.55 15.72 10.38L15.84 10.44C16 10.52 16.1 10.49 16.16 10.29C16.18 10.23 16.23 10.25 16.24 10.31C16.29 10.59 16.08 10.67 15.87 10.59C15.75 10.55 15.73 10.55 15.68 10.59C15.55 10.69 15.37 10.71 15.2 10.61L15.21 10.63ZM17.41 13.54V10.04C17.61 10.15 17.76 10.27 18 10.33C17.99 10.47 17.86 10.51 17.86 10.61V12.76C18.13 12.82 18.19 12.66 18.32 12.58C18.35 12.92 18.57 13.26 18.56 13.53H17.4L17.41 13.54ZM6.92999 13.92C6.92999 13.83 6.99999 13.76 7.08999 13.76C7.17999 13.76 7.24999 13.83 7.24999 13.92C7.24999 14.01 7.17999 14.08 7.08999 14.08C6.99999 14.08 6.92999 14.01 6.92999 13.92ZM14.84 12.65C14.84 12.7 14.9 12.74 14.96 12.74C15.02 12.74 15.08 12.7 15.08 12.65C15.08 12.6 15.02 12.56 14.96 12.56C14.9 12.56 14.84 12.6 14.84 12.65Z" fill="#017B3D"/>
</g>
</g>
<defs>
<clipPath id="clip0_161_11071">
<rect width="24" height="24" fill="white"/>
</clipPath>
</defs>
</svg>
