<svg width="24" height="24" viewBox="0 0 24 24" fill="none" xmlns="http://www.w3.org/2000/svg">
<g clip-path="url(#clip0_161_13112)">
<mask id="mask0_161_13112" style="mask-type:luminance" maskUnits="userSpaceOnUse" x="0" y="0" width="24" height="24">
<path d="M12 24C18.6274 24 24 18.6274 24 12C24 5.37258 18.6274 0 12 0C5.37258 0 0 5.37258 0 12C0 18.6274 5.37258 24 12 24Z" fill="white"/>
</mask>
<g mask="url(#mask0_161_13112)">
<path d="M-6.09 -0.0599976H30.1V24.07H-6.09V-0.0599976Z" fill="white"/>
<path d="M-6.09 2.2H30.1V5.97H-6.09V2.2Z" fill="#0038B8"/>
<path d="M-6.09 18.03H30.1V21.8H-6.09V18.03Z" fill="#0038B8"/>
<path d="M12 16.62L10.67 14.31H8.01001L9.34001 12L8.01001 9.69H10.67L12 7.38L13.33 9.69H15.99L14.66 12L15.99 14.31H13.33L12 16.62ZM11.52 14.31L12.01 15.15L12.5 14.31H11.53H11.52ZM13.76 13.58H14.73L14.24 12.74L13.75 13.58H13.76ZM11.1 13.58H12.92L13.83 12.01L12.92 10.44H11.1L10.19 12.01L11.1 13.58ZM9.28001 13.58H10.25L9.76001 12.74L9.27001 13.58H9.28001ZM13.76 10.43L14.25 11.27L14.74 10.43H13.77H13.76ZM9.28001 10.43L9.77001 11.27L10.26 10.43H9.29001H9.28001ZM11.52 9.70001H12.49L12 8.86L11.51 9.70001H11.52Z" fill="#0038B8"/>
</g>
</g>
<defs>
<clipPath id="clip0_161_13112">
<rect width="24" height="24" fill="white"/>
</clipPath>
</defs>
</svg>
