<svg width="24" height="24" viewBox="0 0 24 24" fill="none" xmlns="http://www.w3.org/2000/svg">
<g clip-path="url(#clip0_104_15718)">
<mask id="mask0_104_15718" style="mask-type:luminance" maskUnits="userSpaceOnUse" x="0" y="0" width="24" height="24">
<path d="M12 24C18.6274 24 24 18.6274 24 12C24 5.37258 18.6274 0 12 0C5.37258 0 0 5.37258 0 12C0 18.6274 5.37258 24 12 24Z" fill="white"/>
</mask>
<g mask="url(#mask0_104_15718)">
<path d="M24 0H0V24H24V0Z" fill="white"/>
<path d="M17 12C17 14.76 14.76 17 12 17C9.24 17 7 14.76 7 12C7 9.24 9.24 7 12 7C14.76 7 17 9.24 17 12Z" fill="#DB2E2E"/>
</g>
</g>
<defs>
<clipPath id="clip0_104_15718">
<rect width="24" height="24" fill="white"/>
</clipPath>
</defs>
</svg>
