<svg width="24" height="24" viewBox="0 0 24 24" fill="none" xmlns="http://www.w3.org/2000/svg">
<g clip-path="url(#clip0_170_16115)">
<mask id="mask0_170_16115" style="mask-type:luminance" maskUnits="userSpaceOnUse" x="0" y="0" width="24" height="24">
<path d="M12 24C18.6274 24 24 18.6274 24 12C24 5.37258 18.6274 0 12 0C5.37258 0 0 5.37258 0 12C0 18.6274 5.37258 24 12 24Z" fill="white"/>
</mask>
<g mask="url(#mask0_170_16115)">
<path d="M0 0H24V23.99H0V0Z" fill="#00ABC2"/>
<path d="M12.97 12.73C13.9476 12.73 14.74 11.9375 14.74 10.96C14.74 9.98246 13.9476 9.19 12.97 9.19C11.9925 9.19 11.2 9.98246 11.2 10.96C11.2 11.9375 11.9925 12.73 12.97 12.73Z" fill="#FFEC2D"/>
<path d="M12.97 8.94C13.08 8.94 13.12 8.87 13.12 8.79C13.12 8.68 12.97 8.18 12.97 8.18C12.97 8.18 12.82 8.68 12.82 8.79C12.82 8.87 12.86 8.94 12.97 8.94Z" fill="#FFEC2D"/>
<path d="M14.98 10.96C14.98 11.07 15.05 11.11 15.13 11.11C15.24 11.11 15.74 10.96 15.74 10.96C15.74 10.96 15.24 10.81 15.13 10.81C15.05 10.81 14.98 10.85 14.98 10.96Z" fill="#FFEC2D"/>
<path d="M12.97 12.97C12.86 12.97 12.82 13.04 12.82 13.12C12.82 13.23 12.97 13.73 12.97 13.73C12.97 13.73 13.12 13.23 13.12 13.12C13.12 13.04 13.08 12.97 12.97 12.97Z" fill="#FFEC2D"/>
<path d="M10.95 10.96C10.95 10.85 10.88 10.81 10.8 10.81C10.69 10.81 10.19 10.96 10.19 10.96C10.19 10.96 10.69 11.11 10.8 11.11C10.88 11.11 10.95 11.07 10.95 10.96Z" fill="#FFEC2D"/>
<path d="M13.74 9.09C13.84 9.13 13.9 9.09 13.93 9.01C13.97 8.91 14.03 8.39 14.03 8.39C14.03 8.39 13.7 8.8 13.66 8.9C13.63 8.97 13.64 9.05 13.74 9.09Z" fill="#FFEC2D"/>
<path d="M14.83 11.73C14.79 11.83 14.83 11.89 14.91 11.92C15.01 11.96 15.53 12.02 15.53 12.02C15.53 12.02 15.12 11.69 15.02 11.65C14.95 11.62 14.87 11.63 14.83 11.73Z" fill="#FFEC2D"/>
<path d="M12.19 12.82C12.09 12.78 12.03 12.82 12 12.9C11.96 13 11.9 13.52 11.9 13.52C11.9 13.52 12.23 13.11 12.27 13.01C12.3 12.94 12.29 12.86 12.19 12.82Z" fill="#FFEC2D"/>
<path d="M11.1 10.19C11.14 10.09 11.1 10.03 11.02 10C10.92 9.96 10.4 9.9 10.4 9.9C10.4 9.9 10.81 10.23 10.91 10.27C10.98 10.3 11.06 10.29 11.1 10.19Z" fill="#FFEC2D"/>
<path d="M14.39 9.53C14.47 9.6 14.54 9.59 14.6 9.53C14.67 9.46 14.93 9 14.93 9C14.93 9 14.47 9.25 14.4 9.33C14.34 9.39 14.32 9.46 14.4 9.54L14.39 9.53Z" fill="#FFEC2D"/>
<path d="M14.39 12.38C14.32 12.46 14.33 12.53 14.39 12.59C14.46 12.66 14.92 12.92 14.92 12.92C14.92 12.92 14.67 12.46 14.59 12.39C14.53 12.33 14.46 12.31 14.38 12.39L14.39 12.38Z" fill="#FFEC2D"/>
<path d="M11.54 12.38C11.46 12.31 11.39 12.32 11.33 12.38C11.26 12.45 11 12.91 11 12.91C11 12.91 11.46 12.66 11.53 12.58C11.59 12.52 11.61 12.45 11.53 12.37L11.54 12.38Z" fill="#FFEC2D"/>
<path d="M11.54 9.53C11.61 9.45 11.6 9.38 11.54 9.32C11.47 9.25 11.01 8.99 11.01 8.99C11.01 8.99 11.26 9.45 11.34 9.52C11.4 9.58 11.47 9.6 11.55 9.52L11.54 9.53Z" fill="#FFEC2D"/>
<path d="M14.83 10.19C14.87 10.29 14.95 10.3 15.02 10.27C15.12 10.23 15.53 9.9 15.53 9.9C15.53 9.9 15.01 9.96 14.91 10C14.84 10.03 14.79 10.09 14.83 10.19Z" fill="#FFEC2D"/>
<path d="M13.74 12.82C13.64 12.86 13.63 12.94 13.66 13.01C13.7 13.11 14.03 13.52 14.03 13.52C14.03 13.52 13.97 13 13.93 12.9C13.9 12.83 13.84 12.78 13.74 12.82Z" fill="#FFEC2D"/>
<path d="M11.1 11.73C11.06 11.63 10.98 11.62 10.91 11.65C10.81 11.69 10.4 12.02 10.4 12.02C10.4 12.02 10.92 11.96 11.02 11.92C11.09 11.89 11.14 11.83 11.1 11.73Z" fill="#FFEC2D"/>
<path d="M12.19 9.09C12.29 9.05 12.3 8.97 12.27 8.9C12.23 8.8 11.9 8.39 11.9 8.39C11.9 8.39 11.96 8.91 12 9.01C12.03 9.08 12.09 9.13 12.19 9.09Z" fill="#FFEC2D"/>
<path d="M13.36 8.98C13.46 9 13.52 8.94 13.53 8.86C13.55 8.76 13.51 8.24 13.51 8.24C13.51 8.24 13.27 8.7 13.25 8.81C13.23 8.89 13.26 8.96 13.36 8.98Z" fill="#FFEC2D"/>
<path d="M14.94 11.35C14.92 11.45 14.98 11.51 15.06 11.52C15.16 11.54 15.68 11.5 15.68 11.5C15.68 11.5 15.22 11.26 15.11 11.24C15.03 11.22 14.96 11.25 14.94 11.35Z" fill="#FFEC2D"/>
<path d="M12.57 12.93C12.47 12.91 12.41 12.97 12.4 13.05C12.38 13.15 12.42 13.67 12.42 13.67C12.42 13.67 12.66 13.21 12.68 13.1C12.7 13.02 12.67 12.95 12.57 12.93Z" fill="#FFEC2D"/>
<path d="M10.99 10.56C11.01 10.46 10.95 10.4 10.87 10.39C10.77 10.37 10.25 10.41 10.25 10.41C10.25 10.41 10.71 10.65 10.82 10.67C10.9 10.69 10.97 10.66 10.99 10.56Z" fill="#FFEC2D"/>
<path d="M14.09 9.28C14.18 9.34 14.25 9.3 14.29 9.24C14.35 9.15 14.51 8.65 14.51 8.65C14.51 8.65 14.11 8.99 14.05 9.07C14.01 9.14 14 9.21 14.09 9.27V9.28Z" fill="#FFEC2D"/>
<path d="M14.64 12.08C14.58 12.17 14.62 12.24 14.68 12.28C14.77 12.34 15.27 12.5 15.27 12.5C15.27 12.5 14.93 12.1 14.85 12.04C14.78 12 14.71 11.99 14.65 12.08H14.64Z" fill="#FFEC2D"/>
<path d="M11.85 12.63C11.76 12.57 11.69 12.61 11.65 12.67C11.59 12.76 11.43 13.26 11.43 13.26C11.43 13.26 11.83 12.92 11.89 12.84C11.93 12.77 11.94 12.7 11.85 12.64V12.63Z" fill="#FFEC2D"/>
<path d="M11.29 9.84C11.35 9.75 11.31 9.68 11.25 9.64C11.16 9.58 10.66 9.42 10.66 9.42C10.66 9.42 11 9.82 11.08 9.88C11.15 9.92 11.22 9.93 11.28 9.84H11.29Z" fill="#FFEC2D"/>
<path d="M14.64 9.84C14.7 9.93 14.78 9.92 14.84 9.88C14.93 9.82 15.26 9.42 15.26 9.42C15.26 9.42 14.76 9.58 14.67 9.64C14.6 9.68 14.57 9.75 14.63 9.84H14.64Z" fill="#FFEC2D"/>
<path d="M14.09 12.63C14 12.69 14.01 12.77 14.05 12.83C14.11 12.92 14.51 13.25 14.51 13.25C14.51 13.25 14.35 12.75 14.29 12.66C14.25 12.59 14.18 12.56 14.09 12.62V12.63Z" fill="#FFEC2D"/>
<path d="M11.29 12.08C11.23 11.99 11.15 12 11.09 12.04C11 12.1 10.67 12.5 10.67 12.5C10.67 12.5 11.17 12.34 11.26 12.28C11.33 12.24 11.36 12.17 11.3 12.08H11.29Z" fill="#FFEC2D"/>
<path d="M11.85 9.28C11.94 9.22 11.93 9.14 11.89 9.08C11.83 8.99 11.43 8.66 11.43 8.66C11.43 8.66 11.59 9.16 11.65 9.25C11.69 9.32 11.76 9.35 11.85 9.29V9.28Z" fill="#FFEC2D"/>
<path d="M14.94 10.56C14.96 10.66 15.03 10.69 15.11 10.67C15.21 10.65 15.68 10.41 15.68 10.41C15.68 10.41 15.16 10.37 15.06 10.39C14.98 10.41 14.92 10.46 14.94 10.56Z" fill="#FFEC2D"/>
<path d="M13.36 12.93C13.26 12.95 13.23 13.02 13.25 13.1C13.27 13.2 13.51 13.67 13.51 13.67C13.51 13.67 13.55 13.15 13.53 13.05C13.51 12.97 13.46 12.91 13.36 12.93Z" fill="#FFEC2D"/>
<path d="M10.99 11.35C10.97 11.25 10.9 11.22 10.82 11.24C10.72 11.26 10.25 11.5 10.25 11.5C10.25 11.5 10.77 11.54 10.87 11.52C10.95 11.5 11.01 11.45 10.99 11.35Z" fill="#FFEC2D"/>
<path d="M12.57 8.98C12.67 8.96 12.7 8.89 12.68 8.81C12.66 8.71 12.42 8.24 12.42 8.24C12.42 8.24 12.38 8.76 12.4 8.86C12.42 8.94 12.47 9 12.57 8.98Z" fill="#FFEC2D"/>
<path d="M12.65 14.8C12.65 14.8 12.56 14.8 12.51 14.82C12.45 14.82 12.39 14.85 12.33 14.86H12.31H12.27C12.27 14.87 12.27 14.88 12.27 14.89C12.27 14.9 12.27 14.91 12.27 14.92C12.27 14.92 12.26 14.94 12.25 14.95C12.25 14.95 12.23 14.97 12.22 14.97C12.21 14.97 12.2 14.97 12.19 14.97C12.18 14.97 12.17 14.97 12.15 14.97C12.14 14.97 12.13 14.96 12.12 14.95C12.11 14.95 12.1 14.95 12.08 14.95C12.07 14.95 12.06 14.95 12.05 14.95C12.04 14.95 12.02 14.95 12.01 14.94C12 14.94 11.99 14.93 11.98 14.92C11.94 14.95 11.89 14.97 11.86 15.02C11.84 15.04 11.84 15.07 11.84 15.09C11.84 15.12 11.84 15.15 11.86 15.18C11.86 15.18 11.86 15.15 11.88 15.14C11.91 15.12 11.94 15.1 11.97 15.1C12 15.09 11.99 15.1 11.98 15.12C11.98 15.13 11.96 15.17 11.98 15.15C12.07 15.11 12.17 15.1 12.26 15.1C12.4 15.09 12.54 15.08 12.68 15.08H13.08C13.14 15.09 13.21 15.1 13.27 15.09C13.28 15.09 13.31 15.09 13.32 15.08C13.29 15.06 13.26 15.06 13.23 15.06H12.98C12.91 15.06 12.84 15.06 12.77 15.03C12.75 15.03 12.74 15.01 12.72 15.03C12.69 15.03 12.67 15.04 12.64 15.05C12.59 15.05 12.55 15.05 12.51 15.03C12.54 14.99 12.58 14.95 12.61 14.91C12.58 14.91 12.56 14.9 12.53 14.89C12.58 14.86 12.62 14.82 12.67 14.78L12.65 14.8Z" fill="#FFEC2D"/>
<path d="M14.7 15.26C14.6 15.32 14.53 15.22 14.45 15.19C14.39 15.22 14.39 15.32 14.33 15.37C14.27 15.44 14.19 15.35 14.19 15.28C14.11 15.34 14.08 15.49 13.95 15.47C13.89 15.42 13.85 15.32 13.8 15.44C13.76 15.5 13.67 15.57 13.62 15.49C13.6 15.42 13.57 15.33 13.53 15.45C13.5 15.53 13.41 15.59 13.33 15.56C13.28 15.52 13.37 15.38 13.31 15.39C13.22 15.45 13.17 15.6 13.04 15.58C12.99 15.53 13.07 15.43 13.02 15.37C12.96 15.45 12.89 15.57 12.78 15.58C12.73 15.54 12.78 15.42 12.75 15.4C12.64 15.47 12.52 15.59 12.38 15.55C12.43 15.34 12.66 15.27 12.86 15.25C13.19 15.21 13.54 15.28 13.86 15.16C13.91 15.13 14.04 15.08 13.99 15.01C13.95 14.95 14.09 14.98 14.11 14.91C14.11 14.83 14.17 14.84 14.25 14.83C14.57 14.82 14.89 14.88 15.21 14.9C15.23 15.06 15.06 15.17 14.92 15.12C14.85 15.13 14.75 14.97 14.77 15.09C14.76 15.15 14.77 15.24 14.71 15.28M11.97 14.94C12.04 15.01 12.1 14.93 12.17 14.9C12.4 14.82 12.61 14.68 12.81 14.54C12.93 14.44 13.04 14.31 13.2 14.28C13.52 14.18 13.86 14.2 14.18 14.11C14.42 13.78 14.84 13.66 15.18 13.47C15.26 13.45 15.29 13.38 15.31 13.31C15.44 13.1 15.62 12.92 15.84 12.79C15.94 12.73 16.06 12.7 16.18 12.73C16.18 12.87 16.09 12.99 16 13.08C16.08 13.08 16.14 13.03 16.22 13.03C16.25 13.17 16.1 13.24 16.02 13.33C16.06 13.34 16.24 13.35 16.14 13.4C16.02 13.48 15.89 13.54 15.78 13.63C15.88 13.65 15.89 13.67 15.78 13.71C15.72 13.75 15.62 13.76 15.61 13.83C15.69 13.88 15.57 13.92 15.53 13.94C15.45 13.96 15.36 13.99 15.47 14.06C15.43 14.12 15.34 14.14 15.27 14.13C15.29 14.2 15.32 14.28 15.23 14.31C15.02 14.47 14.78 14.58 14.52 14.6C14.84 14.62 15.18 14.56 15.45 14.39C15.49 14.35 15.68 14.3 15.57 14.26C15.52 14.24 15.41 14.22 15.4 14.18C15.55 14.09 15.74 14.12 15.9 14.07C15.9 14.02 15.78 14.03 15.73 14.02C15.62 14.02 15.62 13.98 15.73 13.97C15.87 13.93 16.02 13.93 16.14 13.84C16.05 13.8 15.93 13.84 15.83 13.8C16 13.73 16.2 13.72 16.35 13.61C16.42 13.53 16.26 13.56 16.21 13.56C16.12 13.58 16.07 13.53 16.18 13.49C16.36 13.36 16.59 13.27 16.72 13.07C16.75 13.03 16.79 12.89 16.69 12.94C16.56 12.98 16.45 13.13 16.3 13.08C16.59 12.86 16.86 12.61 17.06 12.3C17.07 12.21 16.93 12.2 16.89 12.27C16.71 12.45 16.54 12.66 16.3 12.77C16.53 12.55 16.71 12.29 16.88 12.03C16.91 11.95 17.01 11.85 16.96 11.77C16.88 11.7 16.78 11.77 16.73 11.85C16.59 12.04 16.48 12.25 16.29 12.41C16.45 12.1 16.62 11.78 16.62 11.42C16.62 11.35 16.6 11.24 16.51 11.25C16.43 11.26 16.45 11.38 16.42 11.44C16.35 11.68 16.32 11.94 16.17 12.16C16.2 11.96 16.26 11.76 16.22 11.56C16.2 11.47 16.06 11.51 16.07 11.6C15.9 12.47 15.32 13.23 14.55 13.67C14.2 13.87 13.81 13.99 13.41 14.05C13.3 14.07 13.19 14.05 13.09 14.1C12.84 14.29 12.69 14.61 12.38 14.71C12.24 14.78 12.06 14.79 11.96 14.92C11.96 14.94 11.95 14.96 11.95 14.97" fill="#FFEC2D"/>
<path d="M12.9 14.06C12.85 14.14 12.83 14.24 12.77 14.32C12.59 14.16 12.33 14.16 12.11 14.15C11.92 14.15 11.72 14.12 11.58 13.99C11.43 13.87 11.3 13.7 11.13 13.6C10.97 13.56 10.82 13.51 10.69 13.4C10.42 13.18 10.27 12.86 10.01 12.64C9.96 12.59 9.9 12.55 9.85 12.51C9.8 12.52 9.82 12.64 9.76 12.58C9.72 12.55 9.64 12.55 9.63 12.58C9.71 12.68 9.79 12.8 9.8 12.94C9.75 12.94 9.65 12.93 9.62 12.94C9.69 13.05 9.78 13.14 9.89 13.22C9.84 13.22 9.74 13.22 9.72 13.24C9.82 13.32 9.94 13.41 10.07 13.43C10.1 13.47 10.03 13.54 10.09 13.57C10.12 13.58 10.23 13.61 10.16 13.64C10.11 13.68 10.13 13.76 10.19 13.76C10.23 13.78 10.33 13.79 10.33 13.82C10.29 13.86 10.18 13.9 10.28 13.94C10.37 13.99 10.48 14.02 10.58 14.03C10.53 14.07 10.46 14.1 10.41 14.14C10.65 14.28 10.93 14.38 11.19 14.47C11.3 14.51 11.4 14.54 11.52 14.56C11.2 14.54 10.89 14.45 10.6 14.32C10.45 14.25 10.3 14.19 10.14 14.13C10.21 14.09 10.29 14.09 10.36 14.06C10.21 14.03 10.05 14.02 9.92 13.94C9.94 13.9 10.01 13.9 10.06 13.89C10.14 13.87 10.19 13.85 10.08 13.84C9.97 13.81 9.84 13.82 9.74 13.76C9.74 13.72 9.85 13.73 9.89 13.72C9.94 13.72 10 13.7 10.04 13.67C9.87 13.6 9.64 13.65 9.51 13.5C9.48 13.44 9.61 13.49 9.64 13.48C9.73 13.48 9.83 13.51 9.92 13.48C9.67 13.37 9.4 13.27 9.21 13.07C9.19 13.04 9.13 12.95 9.18 12.94C9.33 12.96 9.44 13.12 9.59 13.1C9.61 13.07 9.5 13.03 9.47 12.98C9.24 12.78 9.01 12.57 8.85 12.31C8.84 12.22 8.98 12.21 9.01 12.28C9.19 12.45 9.35 12.65 9.57 12.77C9.65 12.81 9.53 12.73 9.51 12.7C9.31 12.46 9.11 12.21 8.97 11.94C8.94 11.89 8.9 11.8 8.97 11.77C9.05 11.73 9.12 11.78 9.16 11.85C9.31 12.04 9.42 12.26 9.61 12.42C9.45 12.11 9.28 11.79 9.28 11.43C9.28 11.36 9.28 11.26 9.38 11.26C9.46 11.25 9.45 11.35 9.47 11.4C9.55 11.66 9.58 11.94 9.74 12.17C9.71 11.98 9.66 11.78 9.69 11.58C9.69 11.52 9.77 11.5 9.82 11.53C9.86 11.62 9.87 11.74 9.9 11.84C10.1 12.52 10.54 13.12 11.13 13.52C11.61 13.85 12.18 14.04 12.76 14.08C12.81 14.08 12.86 14.08 12.92 14.08" fill="#FFEC2D"/>
<path d="M12.24 14.68C12.2566 14.68 12.27 14.6666 12.27 14.65C12.27 14.6334 12.2566 14.62 12.24 14.62C12.2235 14.62 12.21 14.6334 12.21 14.65C12.21 14.6666 12.2235 14.68 12.24 14.68Z" fill="#FFEC2D"/>
<path d="M12.24 14.66C12.2455 14.66 12.25 14.6555 12.25 14.65C12.25 14.6445 12.2455 14.64 12.24 14.64C12.2345 14.64 12.23 14.6445 12.23 14.65C12.23 14.6555 12.2345 14.66 12.24 14.66Z" fill="#FFEC2D"/>
<path d="M3.77002 9.97C3.83002 9.84 3.86002 9.76 3.86002 9.62C3.86002 9.39 3.71002 9.22 3.42002 9.21C3.70002 9.2 3.86002 9.02 3.86002 8.8C3.86002 8.67 3.84002 8.58 3.77002 8.45L3.07002 7.01C3.05002 6.96 3.04002 6.9 3.04002 6.82C3.04002 6.69 3.17002 6.58 3.30002 6.58C3.42002 6.58 3.55002 6.69 3.55002 6.82C3.55002 6.98 3.47002 7.05 3.38002 7.05C3.28002 7.05 3.23002 7.01 3.23002 6.93C3.23002 6.88 3.25002 6.86 3.29002 6.86C3.38002 6.86 3.35002 6.98 3.35002 6.98C3.39002 6.98 3.43002 6.92 3.41002 6.87C3.44002 6.87 3.47002 6.84 3.50002 6.82C3.48002 6.8 3.45002 6.78 3.41002 6.77C3.43002 6.7 3.41002 6.67 3.34002 6.65C3.35002 6.68 3.35002 6.7 3.34002 6.72C3.24002 6.69 3.10002 6.74 3.10002 6.9C3.10002 7.06 3.21002 7.2 3.43002 7.17C3.38002 7.19 3.35002 7.24 3.35002 7.3C3.39002 7.28 3.43002 7.28 3.43002 7.28C3.41002 7.32 3.37002 7.36 3.37002 7.45C3.41002 7.43 3.45002 7.4 3.50002 7.42C3.42002 7.58 3.52002 7.79 3.77002 7.84C3.68002 7.73 3.63002 7.62 3.63002 7.5C3.63002 7.13 3.73002 7.07 3.73002 6.81C3.73002 6.7 3.67002 6.59 3.57002 6.51C3.64002 6.49 3.69002 6.46 3.71002 6.41C3.66002 6.34 3.63002 6.32 3.54002 6.32C3.63002 6.27 3.73002 6.17 3.73002 6C3.73002 5.75 3.63002 5.64 3.63002 5.35C3.63002 5.19 3.76002 4.99 3.76002 4.99C3.53002 5.01 3.42002 5.23 3.48002 5.4C3.44002 5.4 3.41002 5.4 3.38002 5.37C3.36002 5.42 3.38002 5.47 3.43002 5.52C3.40002 5.54 3.38002 5.52 3.33002 5.52C3.33002 5.57 3.36002 5.62 3.43002 5.67C3.22002 5.62 3.10002 5.76 3.10002 5.91C3.10002 6.02 3.18002 6.11 3.26002 6.11C3.29002 6.11 3.32002 6.1 3.34002 6.08C3.35002 6.11 3.34002 6.15 3.34002 6.18C3.40002 6.16 3.43002 6.13 3.41002 6.06C3.45002 6.06 3.49002 6.04 3.51002 6.01C3.49002 5.98 3.45002 5.96 3.41002 5.96C3.44002 5.89 3.41002 5.86 3.35002 5.83C3.35002 5.83 3.38002 5.96 3.30002 5.96C3.26002 5.96 3.23002 5.95 3.23002 5.89C3.23002 5.84 3.27002 5.77 3.37002 5.78C3.47002 5.78 3.55002 5.85 3.55002 6.01C3.55002 6.16 3.43002 6.23 3.28002 6.23C3.14002 6.23 3.04002 6.16 3.04002 6.02C3.04002 5.83 3.32002 5.39 3.32002 5.22C3.32002 5.09 3.21002 5.02 3.09002 5.02C3.02002 5.02 2.96002 5.05 2.91002 5.09C2.86002 5.06 2.80002 5.02 2.73002 5.02C2.62002 5.02 2.50002 5.09 2.50002 5.22C2.50002 5.39 2.78002 5.83 2.78002 6.02C2.78002 6.16 2.67002 6.24 2.54002 6.23C2.39002 6.23 2.27002 6.15 2.27002 6.01C2.27002 5.85 2.35002 5.79 2.45002 5.78C2.55002 5.78 2.59002 5.84 2.59002 5.89C2.59002 5.95 2.56002 5.96 2.52002 5.96C2.44002 5.96 2.47002 5.83 2.47002 5.83C2.42002 5.86 2.38002 5.9 2.41002 5.96C2.37002 5.96 2.33002 5.98 2.31002 6.01C2.33002 6.04 2.37002 6.05 2.41002 6.06C2.38002 6.13 2.42002 6.16 2.48002 6.18C2.46002 6.15 2.46002 6.11 2.48002 6.08C2.50002 6.1 2.54002 6.11 2.56002 6.11C2.64002 6.11 2.72002 6.03 2.72002 5.91C2.72002 5.76 2.59002 5.61 2.39002 5.67C2.46002 5.62 2.49002 5.57 2.49002 5.52C2.44002 5.52 2.42002 5.54 2.39002 5.52C2.43002 5.47 2.45002 5.42 2.44002 5.37C2.41002 5.4 2.38002 5.41 2.34002 5.4C2.41002 5.23 2.29002 5.02 2.06002 4.99C2.06002 4.99 2.19002 5.19 2.19002 5.35C2.19002 5.64 2.09002 5.74 2.09002 6C2.09002 6.16 2.19002 6.27 2.28002 6.32C2.20002 6.32 2.16002 6.35 2.11002 6.41C2.14002 6.46 2.18002 6.49 2.25002 6.51C2.14002 6.59 2.09002 6.7 2.09002 6.81C2.09002 7.07 2.19002 7.13 2.19002 7.5C2.19002 7.61 2.15002 7.73 2.05002 7.84C2.30002 7.79 2.40002 7.57 2.32002 7.42C2.37002 7.4 2.41002 7.43 2.45002 7.45C2.45002 7.36 2.42002 7.33 2.39002 7.28C2.39002 7.28 2.43002 7.28 2.47002 7.3C2.47002 7.24 2.44002 7.2 2.39002 7.17C2.60002 7.2 2.72002 7.07 2.72002 6.9C2.72002 6.73 2.57002 6.69 2.48002 6.72C2.48002 6.7 2.48002 6.67 2.48002 6.65C2.42002 6.66 2.39002 6.7 2.41002 6.77C2.37002 6.77 2.35002 6.79 2.32002 6.82C2.34002 6.85 2.37002 6.86 2.41002 6.87C2.39002 6.93 2.43002 6.97 2.47002 6.98C2.47002 6.98 2.44002 6.86 2.53002 6.86C2.57002 6.86 2.59002 6.88 2.59002 6.93C2.59002 7 2.55002 7.05 2.44002 7.05C2.36002 7.05 2.27002 6.98 2.27002 6.82C2.27002 6.69 2.40002 6.57 2.52002 6.58C2.65002 6.58 2.78002 6.69 2.78002 6.82C2.78002 6.9 2.78002 6.96 2.75002 7.01L2.05002 8.45C1.99002 8.58 1.96002 8.66 1.96002 8.8C1.96002 9.03 2.11002 9.2 2.40002 9.21C2.12002 9.22 1.96002 9.4 1.96002 9.62C1.96002 9.75 1.98002 9.84 2.05002 9.97L2.75002 11.41C2.77002 11.46 2.78002 11.52 2.78002 11.6C2.78002 11.73 2.65002 11.84 2.52002 11.84C2.40002 11.84 2.27002 11.73 2.27002 11.6C2.27002 11.44 2.35002 11.37 2.44002 11.37C2.54002 11.37 2.59002 11.41 2.59002 11.49C2.59002 11.54 2.57002 11.56 2.53002 11.56C2.44002 11.56 2.47002 11.44 2.47002 11.44C2.43002 11.44 2.39002 11.5 2.41002 11.55C2.38002 11.55 2.35002 11.58 2.32002 11.6C2.34002 11.62 2.37002 11.64 2.41002 11.65C2.39002 11.72 2.41002 11.75 2.48002 11.77C2.47002 11.74 2.47002 11.72 2.48002 11.7C2.58002 11.73 2.72002 11.68 2.72002 11.52C2.72002 11.36 2.61002 11.22 2.39002 11.25C2.44002 11.23 2.47002 11.18 2.47002 11.12C2.43002 11.14 2.39002 11.14 2.39002 11.14C2.41002 11.1 2.45002 11.06 2.45002 10.97C2.41002 10.99 2.37002 11.02 2.32002 11C2.40002 10.84 2.30002 10.63 2.05002 10.58C2.14002 10.69 2.19002 10.8 2.19002 10.92C2.19002 11.29 2.09002 11.35 2.09002 11.61C2.09002 11.72 2.15002 11.83 2.25002 11.91C2.18002 11.93 2.13002 11.96 2.11002 12.01C2.14002 12.06 2.18002 12.09 2.25002 12.11C2.14002 12.19 2.09002 12.3 2.09002 12.41C2.09002 12.67 2.19002 12.73 2.19002 13.1C2.19002 13.21 2.15002 13.33 2.05002 13.44C2.30002 13.39 2.40002 13.17 2.32002 13.02C2.37002 13 2.41002 13.03 2.45002 13.05C2.45002 12.96 2.42002 12.93 2.39002 12.88C2.39002 12.88 2.43002 12.88 2.47002 12.9C2.47002 12.84 2.44002 12.8 2.39002 12.77C2.60002 12.8 2.72002 12.67 2.72002 12.5C2.72002 12.33 2.57002 12.29 2.48002 12.32C2.48002 12.3 2.48002 12.27 2.48002 12.25C2.42002 12.26 2.39002 12.3 2.41002 12.37C2.37002 12.37 2.35002 12.39 2.32002 12.42C2.34002 12.45 2.37002 12.46 2.41002 12.47C2.39002 12.53 2.43002 12.57 2.47002 12.58C2.47002 12.58 2.44002 12.46 2.53002 12.46C2.57002 12.46 2.59002 12.48 2.59002 12.53C2.59002 12.6 2.55002 12.65 2.44002 12.65C2.36002 12.65 2.27002 12.58 2.27002 12.42C2.27002 12.29 2.40002 12.17 2.52002 12.18C2.65002 12.18 2.78002 12.29 2.78002 12.42C2.78002 12.5 2.78002 12.56 2.75002 12.61L2.05002 14.05C1.99002 14.18 1.96002 14.26 1.96002 14.4C1.96002 14.63 2.11002 14.8 2.40002 14.81C2.12002 14.82 1.96002 15 1.96002 15.22C1.96002 15.35 1.98002 15.44 2.05002 15.57L2.75002 17.01C2.77002 17.06 2.78002 17.12 2.78002 17.2C2.78002 17.33 2.65002 17.44 2.52002 17.44C2.40002 17.44 2.27002 17.33 2.27002 17.2C2.27002 17.04 2.35002 16.97 2.44002 16.97C2.54002 16.97 2.59002 17.01 2.59002 17.09C2.59002 17.14 2.57002 17.16 2.53002 17.16C2.44002 17.16 2.47002 17.04 2.47002 17.04C2.43002 17.04 2.39002 17.1 2.41002 17.15C2.38002 17.15 2.35002 17.18 2.32002 17.2C2.34002 17.22 2.37002 17.24 2.41002 17.25C2.39002 17.32 2.41002 17.35 2.48002 17.37C2.47002 17.34 2.47002 17.32 2.48002 17.3C2.58002 17.33 2.72002 17.28 2.72002 17.12C2.72002 16.96 2.61002 16.82 2.39002 16.85C2.44002 16.83 2.47002 16.78 2.47002 16.72C2.43002 16.74 2.39002 16.74 2.39002 16.74C2.41002 16.7 2.45002 16.66 2.45002 16.57C2.41002 16.59 2.37002 16.62 2.32002 16.6C2.40002 16.44 2.30002 16.23 2.05002 16.18C2.14002 16.29 2.19002 16.4 2.19002 16.52C2.19002 16.89 2.09002 16.95 2.09002 17.21C2.09002 17.32 2.15002 17.43 2.25002 17.51C2.18002 17.53 2.13002 17.56 2.11002 17.61C2.16002 17.68 2.19002 17.7 2.28002 17.7C2.19002 17.75 2.09002 17.85 2.09002 18.02C2.09002 18.27 2.19002 18.38 2.19002 18.67C2.19002 18.83 2.06002 19.03 2.06002 19.03C2.29002 19.01 2.40002 18.79 2.34002 18.62C2.38002 18.62 2.41002 18.62 2.44002 18.65C2.46002 18.6 2.44002 18.55 2.39002 18.5C2.42002 18.48 2.44002 18.5 2.49002 18.5C2.49002 18.45 2.46002 18.4 2.39002 18.35C2.60002 18.4 2.72002 18.26 2.72002 18.11C2.72002 18 2.64002 17.91 2.56002 17.91C2.53002 17.91 2.50002 17.92 2.48002 17.94C2.47002 17.91 2.48002 17.87 2.48002 17.84C2.42002 17.86 2.39002 17.89 2.41002 17.96C2.37002 17.96 2.33002 17.98 2.31002 18.01C2.33002 18.04 2.37002 18.06 2.41002 18.06C2.38002 18.13 2.41002 18.16 2.47002 18.19C2.47002 18.19 2.44002 18.06 2.52002 18.06C2.56002 18.06 2.59002 18.07 2.59002 18.13C2.59002 18.18 2.55002 18.25 2.45002 18.24C2.35002 18.24 2.27002 18.17 2.27002 18.01C2.27002 17.86 2.39002 17.79 2.54002 17.79C2.68002 17.79 2.78002 17.86 2.78002 18C2.78002 18.19 2.50002 18.63 2.50002 18.8C2.50002 18.93 2.61002 19 2.73002 19C2.80002 19 2.86002 18.97 2.91002 18.93C2.96002 18.96 3.02002 19 3.09002 19C3.20002 19 3.32002 18.93 3.32002 18.8C3.32002 18.63 3.04002 18.19 3.04002 18C3.04002 17.86 3.15002 17.78 3.28002 17.79C3.43002 17.79 3.55002 17.87 3.55002 18.01C3.55002 18.17 3.47002 18.23 3.37002 18.24C3.27002 18.24 3.23002 18.18 3.23002 18.13C3.23002 18.07 3.26002 18.06 3.30002 18.06C3.38002 18.06 3.35002 18.19 3.35002 18.19C3.40002 18.16 3.44002 18.12 3.41002 18.06C3.45002 18.06 3.49002 18.04 3.51002 18.01C3.49002 17.98 3.45002 17.97 3.41002 17.96C3.44002 17.89 3.40002 17.86 3.34002 17.84C3.36002 17.87 3.36002 17.91 3.34002 17.94C3.32002 17.92 3.28002 17.91 3.26002 17.91C3.18002 17.91 3.10002 17.99 3.10002 18.11C3.10002 18.26 3.23002 18.41 3.43002 18.35C3.36002 18.4 3.33002 18.45 3.33002 18.5C3.38002 18.5 3.40002 18.48 3.43002 18.5C3.39002 18.55 3.37002 18.6 3.38002 18.65C3.41002 18.62 3.44002 18.61 3.48002 18.62C3.41002 18.79 3.53002 19 3.76002 19.03C3.76002 19.03 3.63002 18.83 3.63002 18.67C3.63002 18.38 3.73002 18.28 3.73002 18.02C3.73002 17.86 3.63002 17.75 3.54002 17.7C3.62002 17.7 3.66002 17.67 3.71002 17.61C3.68002 17.56 3.64002 17.53 3.57002 17.51C3.68002 17.43 3.73002 17.32 3.73002 17.21C3.73002 16.95 3.63002 16.89 3.63002 16.52C3.63002 16.41 3.67002 16.29 3.77002 16.18C3.52002 16.23 3.42002 16.45 3.50002 16.6C3.45002 16.62 3.41002 16.59 3.37002 16.57C3.37002 16.66 3.40002 16.69 3.43002 16.74C3.43002 16.74 3.39002 16.74 3.35002 16.72C3.35002 16.78 3.38002 16.82 3.43002 16.85C3.22002 16.82 3.10002 16.95 3.10002 17.12C3.10002 17.29 3.25002 17.33 3.34002 17.3C3.34002 17.32 3.34002 17.35 3.34002 17.37C3.40002 17.36 3.43002 17.32 3.41002 17.25C3.45002 17.25 3.47002 17.23 3.50002 17.2C3.48002 17.17 3.45002 17.16 3.41002 17.15C3.43002 17.09 3.39002 17.05 3.35002 17.04C3.35002 17.04 3.38002 17.16 3.29002 17.16C3.25002 17.16 3.23002 17.14 3.23002 17.09C3.23002 17.02 3.27002 16.97 3.38002 16.97C3.46002 16.97 3.55002 17.04 3.55002 17.2C3.55002 17.33 3.42002 17.45 3.30002 17.44C3.17002 17.44 3.04002 17.33 3.04002 17.2C3.04002 17.12 3.04002 17.06 3.07002 17.01L3.77002 15.57C3.83002 15.44 3.86002 15.36 3.86002 15.22C3.86002 14.99 3.71002 14.82 3.42002 14.81C3.70002 14.8 3.86002 14.62 3.86002 14.4C3.86002 14.27 3.84002 14.18 3.77002 14.05L3.07002 12.61C3.05002 12.56 3.04002 12.5 3.04002 12.42C3.04002 12.29 3.17002 12.18 3.30002 12.18C3.42002 12.18 3.55002 12.29 3.55002 12.42C3.55002 12.58 3.47002 12.65 3.38002 12.65C3.28002 12.65 3.23002 12.61 3.23002 12.53C3.23002 12.48 3.25002 12.46 3.29002 12.46C3.38002 12.46 3.35002 12.58 3.35002 12.58C3.39002 12.58 3.43002 12.52 3.41002 12.47C3.44002 12.47 3.47002 12.44 3.50002 12.42C3.48002 12.4 3.45002 12.38 3.41002 12.37C3.43002 12.3 3.41002 12.27 3.34002 12.25C3.35002 12.28 3.35002 12.3 3.34002 12.32C3.24002 12.29 3.10002 12.34 3.10002 12.5C3.10002 12.66 3.21002 12.8 3.43002 12.77C3.38002 12.79 3.35002 12.84 3.35002 12.9C3.39002 12.88 3.43002 12.88 3.43002 12.88C3.41002 12.92 3.37002 12.96 3.37002 13.05C3.41002 13.03 3.45002 13 3.50002 13.02C3.42002 13.18 3.52002 13.39 3.77002 13.44C3.68002 13.33 3.63002 13.22 3.63002 13.1C3.63002 12.73 3.73002 12.67 3.73002 12.41C3.73002 12.3 3.67002 12.19 3.57002 12.11C3.64002 12.09 3.69002 12.06 3.71002 12.01C3.68002 11.96 3.64002 11.93 3.57002 11.91C3.68002 11.83 3.73002 11.72 3.73002 11.61C3.73002 11.35 3.63002 11.29 3.63002 10.92C3.63002 10.81 3.67002 10.69 3.77002 10.58C3.52002 10.63 3.42002 10.85 3.50002 11C3.45002 11.02 3.41002 10.99 3.37002 10.97C3.37002 11.06 3.40002 11.09 3.43002 11.14C3.43002 11.14 3.39002 11.14 3.35002 11.12C3.35002 11.18 3.38002 11.22 3.43002 11.25C3.22002 11.22 3.10002 11.35 3.10002 11.52C3.10002 11.69 3.25002 11.73 3.34002 11.7C3.34002 11.72 3.34002 11.75 3.34002 11.77C3.40002 11.76 3.43002 11.72 3.41002 11.65C3.45002 11.65 3.47002 11.63 3.50002 11.6C3.48002 11.57 3.45002 11.56 3.41002 11.55C3.43002 11.49 3.39002 11.45 3.35002 11.44C3.35002 11.44 3.38002 11.56 3.29002 11.56C3.25002 11.56 3.23002 11.54 3.23002 11.49C3.23002 11.42 3.27002 11.37 3.38002 11.37C3.46002 11.37 3.55002 11.44 3.55002 11.6C3.55002 11.73 3.42002 11.85 3.30002 11.84C3.17002 11.84 3.04002 11.73 3.04002 11.6C3.04002 11.52 3.04002 11.46 3.07002 11.41L3.77002 9.97ZM2.91002 9.54C2.84002 9.33 2.64002 9.21 2.46002 9.2C2.64002 9.2 2.85002 9.07 2.91002 8.86C2.98002 9.07 3.18002 9.19 3.36002 9.2C3.18002 9.2 2.97002 9.33 2.91002 9.54ZM2.71002 5.21C2.76002 5.15 2.91002 5.27 2.91002 5.27C2.91002 5.27 3.06002 5.14 3.11002 5.21C3.17002 5.29 3.00002 5.59 2.91002 5.82C2.82002 5.6 2.65002 5.29 2.71002 5.21ZM2.63002 6.41C2.63002 6.41 2.60002 6.41 2.58002 6.41C2.73002 6.38 2.85002 6.33 2.91002 6.21C2.97002 6.32 3.10002 6.38 3.24002 6.41C3.23002 6.41 3.20002 6.41 3.19002 6.41C3.04002 6.43 2.94002 6.54 2.91002 6.6C2.88002 6.54 2.78002 6.43 2.63002 6.41ZM2.15002 8.77C2.15002 8.69 2.17002 8.62 2.20002 8.56L2.91002 7.06L3.62002 8.56C3.65002 8.63 3.67002 8.7 3.67002 8.77C3.67002 8.96 3.50002 9.03 3.40002 9.03C3.28002 9.03 3.16002 8.94 3.16002 8.83C3.16002 8.76 3.20002 8.72 3.25002 8.72C3.38002 8.72 3.38002 8.83 3.35002 8.9C3.43002 8.86 3.48002 8.8 3.47002 8.73C3.52002 8.73 3.56002 8.7 3.60002 8.65C3.57002 8.61 3.53002 8.58 3.47002 8.58C3.50002 8.47 3.42002 8.42 3.35002 8.4C3.37002 8.48 3.39002 8.57 3.25002 8.57C3.15002 8.57 3.07002 8.59 3.03002 8.65V8.22C3.01002 8.09 3.19002 8.1 3.30002 8.13C3.26002 7.98 3.17002 7.9 2.97002 7.92C3.02002 7.9 3.07002 7.85 3.07002 7.77C3.07002 7.65 2.97002 7.52 2.91002 7.48C2.85002 7.52 2.75002 7.65 2.75002 7.77C2.75002 7.86 2.80002 7.9 2.85002 7.92C2.65002 7.9 2.56002 7.98 2.52002 8.13C2.63002 8.09 2.81002 8.09 2.80002 8.22V8.65C2.74002 8.59 2.67002 8.57 2.57002 8.57C2.43002 8.57 2.45002 8.48 2.47002 8.4C2.40002 8.43 2.33002 8.47 2.35002 8.58C2.29002 8.58 2.25002 8.61 2.22002 8.65C2.26002 8.7 2.31002 8.72 2.35002 8.73C2.34002 8.8 2.39002 8.87 2.47002 8.9C2.44002 8.83 2.44002 8.72 2.57002 8.72C2.63002 8.72 2.66002 8.76 2.66002 8.83C2.66002 8.94 2.54002 9.03 2.42002 9.03C2.32002 9.03 2.15002 8.96 2.15002 8.77ZM2.91002 14.46C2.98002 14.67 3.18002 14.79 3.36002 14.8C3.18002 14.8 2.97002 14.93 2.91002 15.14C2.84002 14.93 2.64002 14.81 2.46002 14.8C2.64002 14.8 2.85002 14.67 2.91002 14.46ZM3.11002 18.79C3.06002 18.85 2.91002 18.73 2.91002 18.73C2.91002 18.73 2.76002 18.86 2.71002 18.79C2.65002 18.71 2.82002 18.41 2.91002 18.18C3.00002 18.4 3.17002 18.71 3.11002 18.79ZM3.19002 17.59C3.19002 17.59 3.22002 17.59 3.24002 17.59C3.09002 17.62 2.97002 17.67 2.91002 17.79C2.85002 17.68 2.72002 17.62 2.58002 17.59C2.59002 17.59 2.62002 17.59 2.63002 17.59C2.78002 17.57 2.88002 17.46 2.91002 17.4C2.94002 17.46 3.04002 17.57 3.19002 17.59ZM3.67002 15.23C3.67002 15.31 3.65002 15.38 3.62002 15.44L2.91002 16.94L2.20002 15.44C2.17002 15.37 2.15002 15.3 2.15002 15.23C2.15002 15.04 2.32002 14.97 2.42002 14.97C2.54002 14.97 2.66002 15.06 2.66002 15.17C2.66002 15.24 2.62002 15.28 2.57002 15.28C2.44002 15.28 2.44002 15.17 2.47002 15.1C2.39002 15.14 2.34002 15.2 2.35002 15.27C2.30002 15.27 2.26002 15.3 2.22002 15.35C2.25002 15.39 2.29002 15.42 2.35002 15.42C2.32002 15.53 2.40002 15.58 2.47002 15.6C2.45002 15.52 2.43002 15.43 2.57002 15.43C2.67002 15.43 2.75002 15.41 2.79002 15.35V15.78C2.81002 15.91 2.63002 15.9 2.52002 15.87C2.56002 16.02 2.65002 16.1 2.85002 16.08C2.80002 16.1 2.75002 16.15 2.75002 16.23C2.75002 16.35 2.85002 16.48 2.91002 16.52C2.97002 16.48 3.07002 16.35 3.07002 16.23C3.07002 16.14 3.02002 16.1 2.97002 16.08C3.17002 16.1 3.26002 16.02 3.30002 15.87C3.19002 15.91 3.01002 15.91 3.02002 15.78V15.35C3.08002 15.41 3.15002 15.43 3.25002 15.43C3.39002 15.43 3.37002 15.52 3.35002 15.6C3.42002 15.57 3.49002 15.53 3.47002 15.42C3.53002 15.42 3.57002 15.39 3.60002 15.35C3.56002 15.3 3.51002 15.28 3.47002 15.27C3.48002 15.2 3.44002 15.13 3.35002 15.1C3.38002 15.17 3.38002 15.28 3.25002 15.28C3.19002 15.28 3.16002 15.24 3.16002 15.17C3.16002 15.06 3.28002 14.97 3.40002 14.97C3.50002 14.97 3.67002 15.04 3.67002 15.23ZM3.62002 14.15C3.65002 14.22 3.67002 14.29 3.67002 14.36C3.67002 14.55 3.50002 14.62 3.40002 14.62C3.28002 14.62 3.16002 14.53 3.16002 14.42C3.16002 14.35 3.20002 14.31 3.25002 14.31C3.38002 14.31 3.38002 14.42 3.35002 14.49C3.43002 14.45 3.48002 14.39 3.47002 14.32C3.52002 14.32 3.56002 14.29 3.60002 14.24C3.57002 14.2 3.53002 14.17 3.47002 14.17C3.50002 14.06 3.42002 14.01 3.35002 13.99C3.37002 14.07 3.39002 14.16 3.25002 14.16C3.15002 14.16 3.07002 14.18 3.03002 14.24V13.81C3.01002 13.68 3.19002 13.69 3.30002 13.72C3.26002 13.57 3.17002 13.49 2.97002 13.51C3.02002 13.49 3.07002 13.44 3.07002 13.36C3.07002 13.24 2.97002 13.11 2.91002 13.07C2.85002 13.11 2.75002 13.24 2.75002 13.36C2.75002 13.45 2.80002 13.49 2.85002 13.51C2.65002 13.49 2.56002 13.57 2.52002 13.72C2.63002 13.68 2.81002 13.68 2.80002 13.81V14.24C2.74002 14.18 2.67002 14.16 2.57002 14.16C2.43002 14.16 2.45002 14.07 2.47002 13.99C2.40002 14.02 2.33002 14.06 2.35002 14.17C2.29002 14.17 2.25002 14.2 2.22002 14.24C2.26002 14.29 2.31002 14.31 2.35002 14.32C2.34002 14.39 2.39002 14.46 2.47002 14.49C2.44002 14.42 2.44002 14.31 2.57002 14.31C2.63002 14.31 2.66002 14.35 2.66002 14.42C2.66002 14.53 2.54002 14.62 2.42002 14.62C2.32002 14.62 2.15002 14.55 2.15002 14.36C2.15002 14.28 2.17002 14.21 2.20002 14.15L2.91002 12.65L3.62002 14.15ZM3.19002 12C3.19002 12 3.21002 12 3.22002 12C3.22002 12 3.20002 12 3.19002 12C3.04002 12.02 2.94002 12.13 2.91002 12.19C2.88002 12.13 2.78002 12.02 2.63002 12C2.63002 12 2.61002 12 2.60002 12C2.60002 12 2.62002 12 2.63002 12C2.78002 11.98 2.88002 11.87 2.91002 11.81C2.94002 11.87 3.04002 11.98 3.19002 12ZM2.91002 11.35L2.20002 9.85C2.17002 9.78 2.15002 9.71 2.15002 9.64C2.15002 9.45 2.32002 9.38 2.42002 9.38C2.54002 9.38 2.66002 9.47 2.66002 9.58C2.66002 9.65 2.62002 9.69 2.57002 9.69C2.44002 9.69 2.44002 9.58 2.47002 9.51C2.39002 9.55 2.34002 9.61 2.35002 9.68C2.30002 9.68 2.26002 9.71 2.22002 9.76C2.25002 9.8 2.29002 9.83 2.35002 9.83C2.32002 9.94 2.40002 9.99 2.47002 10.01C2.45002 9.93 2.43002 9.84 2.57002 9.84C2.67002 9.84 2.75002 9.82 2.79002 9.76V10.19C2.81002 10.32 2.63002 10.31 2.52002 10.28C2.56002 10.43 2.65002 10.51 2.85002 10.49C2.80002 10.51 2.75002 10.56 2.75002 10.64C2.75002 10.76 2.85002 10.89 2.91002 10.93C2.97002 10.89 3.07002 10.76 3.07002 10.64C3.07002 10.55 3.02002 10.51 2.97002 10.49C3.17002 10.51 3.26002 10.43 3.30002 10.28C3.19002 10.32 3.01002 10.32 3.02002 10.19V9.76C3.08002 9.82 3.15002 9.84 3.25002 9.84C3.39002 9.84 3.37002 9.93 3.35002 10.01C3.42002 9.98 3.49002 9.94 3.47002 9.83C3.53002 9.83 3.57002 9.8 3.60002 9.76C3.56002 9.71 3.51002 9.69 3.47002 9.68C3.48002 9.61 3.44002 9.54 3.35002 9.51C3.38002 9.58 3.38002 9.69 3.25002 9.69C3.19002 9.69 3.16002 9.65 3.16002 9.58C3.16002 9.47 3.28002 9.38 3.40002 9.38C3.50002 9.38 3.67002 9.45 3.67002 9.64C3.67002 9.72 3.65002 9.79 3.62002 9.85L2.91002 11.35Z" fill="#FFEC2D"/>
</g>
</g>
<defs>
<clipPath id="clip0_170_16115">
<rect width="24" height="24" fill="white"/>
</clipPath>
</defs>
</svg>
