<svg width="24" height="24" viewBox="0 0 24 24" fill="none" xmlns="http://www.w3.org/2000/svg">
<g clip-path="url(#clip0_170_16563)">
<mask id="mask0_170_16563" style="mask-type:luminance" maskUnits="userSpaceOnUse" x="0" y="0" width="24" height="24">
<path d="M12 24C18.6274 24 24 18.6274 24 12C24 5.37257 18.6274 -1.14441e-05 12 -1.14441e-05C5.37258 -1.14441e-05 0 5.37257 0 12C0 18.6274 5.37258 24 12 24Z" fill="white"/>
</mask>
<g mask="url(#mask0_170_16563)">
<path d="M-6.29999 -0.200012H30.31V24.2H-6.29999V-0.200012Z" fill="white"/>
<path d="M-6.29999 -0.200012H30.31V7.11999H-6.29999V-0.200012Z" fill="black"/>
<path d="M-6.29999 16.88H30.31V24.2H-6.29999V16.88Z" fill="#006600"/>
<path d="M7.64 19.25L7.9 19.4L15.03 7.05999C15.45 6.94999 15.68 6.54999 15.9 6.15999C16.05 5.89999 16.66 4.83999 16.93 3.46999C15.87 4.38999 15.26 5.43999 15.11 5.70999C14.88 6.10999 14.65 6.49999 14.76 6.91999L7.63 19.26L7.64 19.25Z" fill="black" stroke="black" stroke-width="0.15" stroke-miterlimit="37.5"/>
<path d="M7.64 19.25L7.9 19.4L15.03 7.05999C15.45 6.94999 15.68 6.54999 15.9 6.15999C16.05 5.89999 16.66 4.83999 16.93 3.46999C15.87 4.38999 15.26 5.43999 15.11 5.70999C14.88 6.10999 14.65 6.49999 14.76 6.91999L7.63 19.26L7.64 19.25Z" fill="white"/>
<path d="M16.36 19.25L16.1 19.4L8.97001 7.05999C8.55001 6.94999 8.32001 6.54999 8.10001 6.15999C7.95001 5.89999 7.34001 4.83999 7.07001 3.46999C8.13001 4.38999 8.74001 5.43999 8.89001 5.70999C9.12001 6.10999 9.35001 6.49999 9.24001 6.91999L16.37 19.26L16.36 19.25Z" fill="black" stroke="black" stroke-width="0.15" stroke-miterlimit="37.5"/>
<path d="M16.36 19.25L16.1 19.4L8.97001 7.05999C8.55001 6.94999 8.32001 6.54999 8.10001 6.15999C7.95001 5.89999 7.34001 4.83999 7.07001 3.46999C8.13001 4.38999 8.74001 5.43999 8.89001 5.70999C9.12001 6.10999 9.35001 6.49999 9.24001 6.91999L16.37 19.26L16.36 19.25Z" fill="white"/>
<path d="M-6.29999 8.33999V15.66H9.11001C9.57001 16.88 11.09 19.32 12.01 19.32C12.93 19.32 14.45 16.88 14.91 15.66H30.32V8.33999H14.91C14.45 7.11999 12.93 4.67999 12.01 4.67999C11.09 4.67999 9.57001 7.11999 9.11001 8.33999H-6.29999Z" fill="#BB0000"/>
<path d="M14.9 15.66C15.36 14.44 15.66 13.22 15.66 12C15.66 10.78 15.35 9.55999 14.9 8.33999C14.44 9.55999 14.14 10.78 14.14 12C14.14 13.22 14.45 14.44 14.9 15.66Z" fill="black"/>
<path d="M9.11004 15.66C8.65004 14.44 8.35004 13.22 8.35004 12C8.35004 10.78 8.66004 9.55999 9.11004 8.33999C9.57004 9.55999 9.87004 10.78 9.87004 12C9.87004 13.22 9.56004 14.44 9.11004 15.66Z" fill="black"/>
<path d="M12 12.92C12.3369 12.92 12.61 12.5081 12.61 12C12.61 11.4919 12.3369 11.08 12 11.08C11.6631 11.08 11.39 11.4919 11.39 12C11.39 12.5081 11.6631 12.92 12 12.92Z" fill="white"/>
<path d="M12.16 12.89C12.16 12.89 12.77 14.11 12.77 16.09C12.77 18.07 12.16 19.29 12.16 19.29V12.88V12.89Z" fill="white"/>
<path d="M11.85 11.11C11.85 11.11 11.24 9.88999 11.24 7.90999C11.24 5.92999 11.85 4.70999 11.85 4.70999V11.12V11.11Z" fill="white"/>
<path d="M11.85 12.89C11.85 12.89 11.24 14.11 11.24 16.09C11.24 18.07 11.85 19.29 11.85 19.29V12.88V12.89Z" fill="white"/>
<path d="M12.16 11.11C12.16 11.11 12.77 9.88999 12.77 7.90999C12.77 5.92999 12.16 4.70999 12.16 4.70999V11.12V11.11Z" fill="white"/>
</g>
</g>
<defs>
<clipPath id="clip0_170_16563">
<rect width="24" height="24" fill="white"/>
</clipPath>
</defs>
</svg>
