<svg width="24" height="24" viewBox="0 0 24 24" fill="none" xmlns="http://www.w3.org/2000/svg">
<g clip-path="url(#clip0_104_17753)">
<mask id="mask0_104_17753" style="mask-type:luminance" maskUnits="userSpaceOnUse" x="0" y="0" width="24" height="24">
<path d="M12 24C18.6274 24 24 18.6274 24 12C24 5.37258 18.6274 0 12 0C5.37258 0 0 5.37258 0 12C0 18.6274 5.37258 24 12 24Z" fill="white"/>
</mask>
<g mask="url(#mask0_104_17753)">
<path d="M24 0H0V24H24V0Z" fill="white"/>
<path d="M6.4682 6.19397L4.26154 8.41377L4.75798 8.90728L6.96464 6.68748L6.4682 6.19397Z" fill="#28292B"/>
<path d="M7.17939 6.91609L4.97311 9.13628L5.46964 9.62969L7.67592 7.40951L7.17939 6.91609Z" fill="#28292B"/>
<path d="M7.86519 7.60303L5.65891 9.82321L6.15543 10.3166L8.36171 8.09644L7.86519 7.60303Z" fill="#28292B"/>
<path d="M17.7722 13.7541L16.9055 14.6269L17.4022 15.1201L18.2689 14.2473L17.7722 13.7541Z" fill="#28292B"/>
<path d="M16.4015 15.1266L15.5562 15.9783L16.0531 16.4714L16.8984 15.6196L16.4015 15.1266Z" fill="#28292B"/>
<path d="M18.4758 14.4806L17.6163 15.3464L18.1131 15.8396L18.9726 14.9738L18.4758 14.4806Z" fill="#28292B"/>
<path d="M17.1205 15.8393L16.2676 16.6976L16.7641 17.191L17.617 16.3327L17.1205 15.8393Z" fill="#28292B"/>
<path d="M19.1685 15.1622L18.3061 16.0252L18.8012 16.52L19.6636 15.657L19.1685 15.1622Z" fill="#28292B"/>
<path d="M17.8237 16.5278L16.9634 17.3929L17.4598 17.8865L18.3201 17.0214L17.8237 16.5278Z" fill="#28292B"/>
<path d="M18.8659 7.45318L18.3726 7.94987L19.2454 8.81657L19.7386 8.31988L18.8659 7.45318Z" fill="#28292B"/>
<path d="M17.5226 6.1048L17.0289 6.60098L17.8795 7.44744L18.3732 6.95125L17.5226 6.1048Z" fill="#28292B"/>
<path d="M16.3 7.31999L16.79 6.81999L17.65 7.67999L18.15 8.16999L19.01 9.02999L18.52 9.52999L17.65 8.66999L17.16 8.16999L16.3 7.31999Z" fill="#28292B"/>
<path d="M17.4657 8.85651L16.9705 9.35123L17.8327 10.2143L18.3279 9.71963L17.4657 8.85651Z" fill="#28292B"/>
<path d="M16.1037 7.50387L15.6104 8.00056L16.4761 8.86022L16.9693 8.36352L16.1037 7.50387Z" fill="#28292B"/>
<path d="M5.69 14.22L6.18 13.73L7.04 14.57L7.53 15.07L8.41 15.93L7.91 16.43L7.04 15.56L6.55 15.07L5.69 14.22Z" fill="#28292B"/>
<path d="M6.82385 15.7731L6.33069 16.2699L7.19651 17.1294L7.68967 16.6326L6.82385 15.7731Z" fill="#28292B"/>
<path d="M5.46657 14.4298L4.97333 14.9265L5.83191 15.7791L6.32515 15.2824L5.46657 14.4298Z" fill="#28292B"/>
<path d="M4.28 15.62L4.77 15.13L5.64 15.99L6.13 16.48L6.99 17.33L6.5 17.83L5.64 16.97L5.14 16.48L4.28 15.62Z" fill="#28292B"/>
<path d="M15.83 11.85C15.83 13.92 14.15 15.61 12.08 15.61C10.01 15.61 8.32001 13.93 8.32001 11.85C8.32001 9.77 10 8.09 12.08 8.09C14.16 8.09 15.83 9.77 15.83 11.85Z" fill="#2E4593"/>
<path d="M15.82 11.85C15.82 12.03 15.81 12.2 15.78 12.37C15.67 11.63 15.26 10.28 13.73 10.26C12.61 10.26 12.22 10.76 11.98 11.35C11.64 12.2 11.6 13.24 10.09 13.24C8.98 13.24 8.5 12.61 8.31 11.9C8.31 11.88 8.31 11.86 8.31 11.84C8.31 11.2 8.47 10.6 8.75 10.08C9.38 8.9 10.63 8.09 12.07 8.09C14.14 8.09 15.82 9.77 15.82 11.85Z" fill="#DB2E2E"/>
</g>
</g>
<defs>
<clipPath id="clip0_104_17753">
<rect width="24" height="24" fill="white"/>
</clipPath>
</defs>
</svg>
