<svg width="24" height="24" viewBox="0 0 24 24" fill="none" xmlns="http://www.w3.org/2000/svg">
<g clip-path="url(#clip0_170_14243)">
<mask id="mask0_170_14243" style="mask-type:luminance" maskUnits="userSpaceOnUse" x="0" y="0" width="24" height="24">
<path d="M12 24C18.6274 24 24 18.6274 24 12C24 5.37258 18.6274 0 12 0C5.37258 0 0 5.37258 0 12C0 18.6274 5.37258 24 12 24Z" fill="white"/>
</mask>
<g mask="url(#mask0_170_14243)">
<path d="M0 0H24V24H0V0Z" fill="#244AA5"/>
<path d="M12.13 8.86C12.23 8.98 12.3 9.09 12.3 9.24C12.22 9.28 12.1 9.3 12.03 9.37C12.45 9.31 12.53 9.8 13 9.61C13.02 9.68 13.08 9.74 13.17 9.71L13.22 9.58C13.4 9.53 13.35 9.83 13.56 9.77C13.66 9.85 13.59 10 13.66 10.1C13.66 10.22 13.71 10.32 13.76 10.42C13.81 10.36 13.84 10.28 13.96 10.3C14.04 10.39 14.11 10.48 14.13 10.58C14.1 10.77 14.05 10.94 14.25 11.04V11.1C14.38 11.16 14.69 11.04 14.69 11.28C14.67 11.36 14.77 11.28 14.81 11.34C14.89 11.31 15.01 11.32 15.11 11.32C15.19 11.5 15.01 11.62 14.96 11.78C15.04 11.86 15.01 12.01 14.99 12.11L14.94 12.14C15.07 12.17 15.24 12.12 15.36 12.2L15.58 12.28C15.68 12.22 15.8 12.21 15.93 12.22C16.03 12.3 15.9 12.42 15.98 12.48C16.1 12.48 16.2 12.5 16.21 12.6L16.23 12.63C16.31 12.48 16.55 12.58 16.65 12.47C16.82 12.47 16.85 12.65 16.93 12.75C16.96 13.01 16.65 13.13 16.75 13.39C16.68 13.52 16.55 13.62 16.45 13.73C16.48 13.75 16.47 13.79 16.47 13.81C16.37 13.87 16.45 14.04 16.32 14.06C16.3 14.17 16.1 14.13 16.17 14.24C16.3 14.42 16.1 14.52 16.1 14.68C16.02 14.77 15.85 14.6 15.85 14.77C15.75 14.8 15.65 14.68 15.58 14.77C15.55 14.89 15.65 14.93 15.63 15.05C15.8 15.03 15.85 15.2 15.91 15.3L16.08 15.47C15.91 15.6 15.69 15.45 15.49 15.53C15.44 15.5 15.49 15.44 15.44 15.41C15.39 15.35 15.29 15.35 15.21 15.33C15.23 15.41 15.08 15.43 15.14 15.52C15.14 15.55 15.17 15.62 15.11 15.62C14.98 15.66 14.99 15.5 14.88 15.56C14.73 15.62 14.85 15.84 14.63 15.82C14.66 16.02 14.3 16.16 14.55 16.33C14.58 16.36 14.57 16.43 14.57 16.48C14.42 16.61 14.15 16.56 13.98 16.51C13.85 16.48 13.93 16.31 13.88 16.22C13.83 16.14 13.68 16.08 13.68 15.96C13.58 15.92 13.5 15.89 13.43 15.81C13.2 16.04 12.91 16.25 12.58 16.26C12.43 16.34 12.35 16.64 12.11 16.51C12.02 16.66 11.74 16.51 11.72 16.73C11.61 16.77 11.66 16.91 11.59 16.98C11.56 17.15 11.59 17.29 11.73 17.39C11.79 17.52 11.6 17.52 11.68 17.63C11.7 17.67 11.68 17.73 11.65 17.75C11.6 17.78 11.58 17.8 11.6 17.85C11.56 17.85 11.54 17.88 11.51 17.91C11.47 17.99 11.33 18.04 11.24 18.09C11.15 18.12 11.08 18.05 11.02 17.99C11 18.08 10.93 18.13 10.84 18.13C10.71 18.13 10.73 18.01 10.63 17.96C10.67 17.81 10.54 17.74 10.58 17.61C10.69 17.53 10.87 17.47 10.82 17.29C10.7 17.15 10.74 16.94 10.63 16.77C10.55 16.7 10.43 16.6 10.47 16.44C10.58 16.31 10.47 16.16 10.41 16.03C10.38 15.92 10.32 15.82 10.32 15.69C10.14 15.58 10.13 15.3 9.86999 15.27C9.68999 15.27 9.64999 15.04 9.46999 15.05C9.44999 15.02 9.40999 14.99 9.37999 14.96C9.24999 15.05 9.07999 14.93 8.90999 14.98C8.79999 14.8 8.99999 14.55 8.70999 14.44V14.32C8.70999 14.32 8.75999 14.3 8.76999 14.29C8.78999 14.16 8.55999 14.15 8.64999 14.01C8.59999 13.97 8.53999 13.95 8.56999 13.87C8.43999 13.61 8.06999 13.64 7.97999 13.38C8.04999 13.32 8.04999 13.26 8.06999 13.21C8.00999 13.11 7.98999 13 8.00999 12.89C8.06999 12.87 8.09999 12.8 8.13999 12.74C8.05999 12.69 7.96999 12.61 7.88999 12.64C7.73999 12.61 7.62999 12.5 7.49999 12.43C7.46999 12.4 7.47999 12.34 7.47999 12.3C7.65999 12.24 7.44999 11.98 7.67999 12.01C7.73999 11.93 7.85999 11.91 7.95999 11.85C8.04999 11.83 8.12999 11.87 8.21999 11.89C8.29999 11.99 8.42999 11.95 8.49999 12.03C8.57999 12.01 8.66999 11.97 8.75999 12.01C8.75999 11.87 8.82999 11.78 8.92999 11.68C8.94999 11.62 9.03999 11.58 9.10999 11.55C9.24999 11.58 9.41999 11.58 9.51999 11.48C9.58999 11.52 9.64999 11.44 9.71999 11.44C9.80999 11.42 9.88999 11.44 9.94999 11.49C9.94999 11.32 10.25 11.46 10.31 11.26C10.38 11.13 10.13 11.08 10.14 10.96C10.1 10.83 10.2 10.76 10.25 10.67C10.31 10.64 10.38 10.61 10.45 10.63C10.64 10.56 10.49 10.17 10.8 10.31C10.8 10.35 10.78 10.4 10.8 10.41C10.91 10.41 10.93 10.28 11 10.24C11.03 10.12 10.96 9.98 11.06 9.89C11.11 9.89 11.15 9.86 11.19 9.82C11.19 9.73 11.14 9.68 11.06 9.62C11.03 9.66 10.97 9.62 10.93 9.65C10.93 9.55 10.87 9.48 10.85 9.39C10.8 9.36 10.77 9.32 10.79 9.26C10.87 9.18 10.79 9 10.97 9.04C11.04 8.98 11.15 9.02 11.22 8.92C11.4 8.82 11.63 8.82 11.76 8.64C11.82 8.64 11.89 8.59 11.94 8.64C11.96 8.75 12.12 8.71 12.12 8.81" fill="#D0A650"/>
<path d="M13.43 6.59L13.2 5.88L12.97 6.59H12.22L12.83 7.03L12.6 7.74L13.2 7.3L13.81 7.74L13.58 7.03L14.19 6.59H13.44H13.43Z" fill="white"/>
<path d="M15.78 7.01L15.55 6.3L15.32 7.01H14.57L15.18 7.45L14.95 8.16L15.55 7.72L16.16 8.16L15.93 7.45L16.54 7.01H15.79H15.78Z" fill="white"/>
<path d="M18.03 7.82L17.8 7.11L17.57 7.82H16.82L17.43 8.26L17.2 8.97L17.81 8.53L18.41 8.97L18.18 8.26L18.79 7.82H18.04H18.03Z" fill="white"/>
<path d="M11.03 6.59L10.8 5.88L10.57 6.59H9.82001L10.43 7.03L10.2 7.74L10.81 7.3L11.41 7.74L11.18 7.03L11.79 6.59H11.04H11.03Z" fill="white"/>
<path d="M8.68 7.01L8.45 6.3L8.22 7.01H7.47L8.08 7.45L7.85 8.16L8.46 7.72L9.06 8.16L8.83 7.45L9.44 7.01H8.69H8.68Z" fill="white"/>
<path d="M6.43 7.82L6.2 7.11L5.97 7.82H5.22L5.83 8.26L5.6 8.97L6.2 8.53L6.81 8.97L6.58 8.26L7.19 7.82H6.44H6.43Z" fill="white"/>
</g>
</g>
<defs>
<clipPath id="clip0_170_14243">
<rect width="24" height="24" fill="white"/>
</clipPath>
</defs>
</svg>
