<svg width="24" height="24" viewBox="0 0 24 24" fill="none" xmlns="http://www.w3.org/2000/svg">
<g clip-path="url(#clip0_161_13133)">
<mask id="mask0_161_13133" style="mask-type:luminance" maskUnits="userSpaceOnUse" x="0" y="0" width="24" height="24">
<path d="M12 24C18.6274 24 24 18.6274 24 12C24 5.37258 18.6274 0 12 0C5.37258 0 0 5.37258 0 12C0 18.6274 5.37258 24 12 24Z" fill="white"/>
</mask>
<g mask="url(#mask0_161_13133)">
<path d="M0 0H24V23.99H0V0Z" fill="#FF0000"/>
<path fill-rule="evenodd" clip-rule="evenodd" d="M12.76 8.56L12.86 6.64C12.86 6.64 12.86 6.62 12.85 6.62C12.85 6.62 12.83 6.62 12.83 6.63L12.34 8.48C12.34 8.48 12.34 8.49 12.34 8.5C12.32 8.62 12.4 8.73 12.52 8.75C12.64 8.77 12.75 8.69 12.77 8.57C12.77 8.57 12.77 8.57 12.77 8.56M13.29 8.72L13.69 6.84C13.69 6.84 13.69 6.82 13.68 6.82H13.66L12.88 8.57C12.88 8.57 12.88 8.58 12.88 8.59C12.84 8.7 12.91 8.83 13.02 8.86C13.13 8.9 13.26 8.83 13.29 8.72C13.29 8.72 13.29 8.72 13.29 8.71V8.72ZM13.79 8.97L14.48 7.18V7.16H14.46L13.42 8.76C13.42 8.76 13.42 8.77 13.42 8.78C13.37 8.89 13.41 9.02 13.51 9.07C13.62 9.12 13.75 9.08 13.8 8.98C13.8 8.98 13.8 8.98 13.8 8.97M14.24 9.28L15.2 7.62V7.6H15.18L13.9 9.02C13.9 9.02 13.9 9.02 13.89 9.03C13.82 9.13 13.84 9.26 13.94 9.33C14.04 9.4 14.17 9.38 14.24 9.28ZM14.64 9.67L15.85 8.18V8.16H15.83L14.35 9.36C14.35 9.36 14.35 9.36 14.34 9.37C14.26 9.45 14.26 9.59 14.34 9.68C14.42 9.76 14.56 9.76 14.65 9.68M14.97 10.11L16.4 8.83V8.81H16.38L14.73 9.77C14.73 9.77 14.72 9.77 14.71 9.78C14.61 9.85 14.59 9.99 14.66 10.08C14.73 10.18 14.87 10.2 14.96 10.13M15.23 10.6L16.84 9.55C16.84 9.55 16.84 9.54 16.84 9.53C16.84 9.53 16.83 9.52 16.82 9.53L15.04 10.22C15.04 10.22 15.03 10.22 15.02 10.22C14.91 10.27 14.87 10.4 14.93 10.51C14.98 10.62 15.11 10.66 15.22 10.6C15.22 10.6 15.22 10.6 15.23 10.6ZM15.41 11.12L17.16 10.34C17.16 10.34 17.17 10.33 17.16 10.32C17.16 10.32 17.15 10.31 17.14 10.31L15.27 10.71C15.27 10.71 15.26 10.71 15.25 10.71C15.14 10.75 15.07 10.87 15.11 10.98C15.15 11.09 15.27 11.16 15.38 11.12C15.38 11.12 15.38 11.12 15.39 11.12M15.51 11.66L17.36 11.17C17.36 11.17 17.37 11.16 17.37 11.15C17.37 11.15 17.37 11.13 17.35 11.14L15.44 11.24C15.44 11.24 15.43 11.24 15.42 11.24C15.3 11.26 15.22 11.37 15.24 11.49C15.26 11.61 15.37 11.69 15.49 11.67C15.49 11.67 15.49 11.67 15.5 11.67M15.52 12.22L17.43 12.02C17.43 12.02 17.45 12.02 17.45 12C17.45 11.98 17.45 11.98 17.43 11.98L15.53 11.78C15.53 11.78 15.52 11.78 15.51 11.78C15.39 11.78 15.29 11.88 15.29 12C15.29 12.12 15.39 12.22 15.51 12.22C15.51 12.22 15.51 12.22 15.52 12.22ZM15.44 12.76L17.36 12.86C17.36 12.86 17.38 12.86 17.38 12.85C17.38 12.85 17.38 12.83 17.37 12.83L15.52 12.34C15.52 12.34 15.51 12.34 15.5 12.34C15.38 12.32 15.27 12.4 15.25 12.52C15.23 12.64 15.31 12.75 15.43 12.77C15.43 12.77 15.43 12.77 15.44 12.77M15.28 13.29L17.16 13.69C17.16 13.69 17.18 13.69 17.18 13.68V13.66L15.43 12.88C15.43 12.88 15.42 12.88 15.41 12.88C15.3 12.84 15.17 12.91 15.14 13.02C15.1 13.13 15.17 13.26 15.28 13.29C15.28 13.29 15.28 13.29 15.29 13.29H15.28ZM15.03 13.79L16.82 14.48H16.84V14.46L15.24 13.42C15.24 13.42 15.23 13.42 15.22 13.42C15.11 13.37 14.98 13.41 14.93 13.51C14.88 13.62 14.92 13.75 15.02 13.8C15.02 13.8 15.02 13.8 15.03 13.8M14.72 14.24L16.38 15.2H16.4V15.18L14.98 13.9C14.98 13.9 14.98 13.9 14.97 13.89C14.87 13.82 14.74 13.84 14.67 13.94C14.6 14.04 14.62 14.17 14.72 14.24ZM14.33 14.64L15.82 15.85H15.84V15.83L14.64 14.35C14.64 14.35 14.64 14.35 14.63 14.34C14.55 14.26 14.41 14.26 14.32 14.34C14.24 14.42 14.24 14.56 14.32 14.65M13.89 14.97L15.17 16.4H15.19V16.38L14.23 14.73C14.23 14.73 14.23 14.72 14.22 14.71C14.15 14.61 14.01 14.59 13.92 14.66C13.83 14.73 13.8 14.87 13.87 14.96M13.4 15.23L14.44 16.84C14.44 16.84 14.45 16.84 14.46 16.84C14.46 16.84 14.47 16.83 14.46 16.82L13.77 15.04C13.77 15.04 13.77 15.03 13.77 15.02C13.72 14.91 13.59 14.87 13.48 14.93C13.37 14.98 13.33 15.11 13.39 15.22C13.39 15.22 13.39 15.22 13.39 15.23M12.88 15.41L13.66 17.16C13.66 17.16 13.67 17.17 13.68 17.16C13.68 17.16 13.69 17.15 13.69 17.14L13.29 15.27C13.29 15.27 13.29 15.26 13.29 15.25C13.25 15.14 13.13 15.07 13.02 15.11C12.91 15.15 12.84 15.27 12.88 15.38C12.88 15.38 12.88 15.38 12.88 15.39M12.34 15.51L12.83 17.36C12.83 17.36 12.84 17.37 12.85 17.37C12.85 17.37 12.87 17.37 12.86 17.35L12.76 15.44C12.76 15.44 12.76 15.43 12.76 15.42C12.74 15.3 12.63 15.22 12.51 15.24C12.39 15.26 12.31 15.37 12.33 15.49C12.33 15.49 12.33 15.49 12.33 15.5M11.78 15.52L11.98 17.43C11.98 17.43 11.98 17.45 12 17.45C12.02 17.45 12.02 17.45 12.02 17.43L12.22 15.53C12.22 15.53 12.22 15.52 12.22 15.51C12.22 15.39 12.12 15.29 12 15.29C11.88 15.29 11.78 15.39 11.78 15.51C11.78 15.51 11.78 15.51 11.78 15.52ZM11.24 15.44L11.14 17.36C11.14 17.36 11.14 17.38 11.15 17.38C11.15 17.38 11.17 17.38 11.17 17.37L11.66 15.52C11.66 15.52 11.66 15.51 11.66 15.5C11.68 15.38 11.6 15.27 11.48 15.25C11.36 15.23 11.25 15.31 11.23 15.43C11.23 15.43 11.23 15.43 11.23 15.44M10.71 15.28L10.31 17.16C10.31 17.16 10.31 17.18 10.32 17.18H10.34L11.12 15.43C11.12 15.43 11.12 15.42 11.12 15.41C11.16 15.3 11.09 15.17 10.98 15.14C10.87 15.1 10.74 15.17 10.71 15.28C10.71 15.28 10.71 15.28 10.71 15.29V15.28ZM10.21 15.03L9.51999 16.82V16.84H9.53999L10.58 15.24C10.58 15.24 10.58 15.23 10.58 15.22C10.63 15.11 10.59 14.98 10.49 14.93C10.38 14.88 10.25 14.92 10.2 15.02C10.2 15.02 10.2 15.02 10.2 15.03M9.75999 14.72L8.79999 16.38V16.4H8.81999L10.1 14.98C10.1 14.98 10.1 14.98 10.11 14.97C10.18 14.87 10.16 14.74 10.06 14.67C9.95999 14.6 9.82999 14.62 9.75999 14.72ZM9.35999 14.33L8.14999 15.82V15.84H8.16999L9.64999 14.64C9.64999 14.64 9.64999 14.64 9.65999 14.63C9.73999 14.55 9.73999 14.41 9.65999 14.32C9.57999 14.24 9.43999 14.24 9.34999 14.32M9.02999 13.89L7.59999 15.17V15.19H7.61999L9.26999 14.23C9.26999 14.23 9.27999 14.23 9.28999 14.22C9.38999 14.15 9.40999 14.01 9.33999 13.92C9.26999 13.82 9.12999 13.8 9.03999 13.87M8.76999 13.4L7.15999 14.45C7.15999 14.45 7.15999 14.46 7.15999 14.47C7.15999 14.47 7.16999 14.48 7.17999 14.47L8.95999 13.78C8.95999 13.78 8.96999 13.78 8.97999 13.78C9.08999 13.73 9.12999 13.6 9.06999 13.49C9.01999 13.38 8.88999 13.34 8.77999 13.4C8.77999 13.4 8.77999 13.4 8.76999 13.4ZM8.58999 12.88L6.83999 13.66C6.83999 13.66 6.82999 13.67 6.83999 13.68C6.83999 13.68 6.84999 13.69 6.85999 13.69L8.72999 13.29C8.72999 13.29 8.73999 13.29 8.74999 13.29C8.85999 13.25 8.92999 13.13 8.88999 13.02C8.84999 12.91 8.72999 12.84 8.61999 12.88C8.61999 12.88 8.61999 12.88 8.60999 12.88M8.48999 12.34L6.63999 12.83C6.63999 12.83 6.62999 12.84 6.62999 12.85C6.62999 12.85 6.62999 12.87 6.64999 12.86L8.55999 12.76C8.55999 12.76 8.56999 12.76 8.57999 12.76C8.69999 12.74 8.77999 12.63 8.75999 12.51C8.73999 12.39 8.62999 12.31 8.50999 12.33C8.50999 12.33 8.50999 12.33 8.49999 12.33M8.47999 11.78L6.56999 11.98C6.56999 11.98 6.54999 11.98 6.54999 12C6.54999 12.02 6.54999 12.02 6.56999 12.02L8.46999 12.22C8.46999 12.22 8.47999 12.22 8.48999 12.22C8.60999 12.22 8.70999 12.12 8.70999 12C8.70999 11.88 8.60999 11.78 8.48999 11.78C8.48999 11.78 8.48999 11.78 8.47999 11.78ZM8.55999 11.24L6.63999 11.14C6.63999 11.14 6.61999 11.14 6.61999 11.15C6.61999 11.15 6.61999 11.17 6.62999 11.17L8.47999 11.66C8.47999 11.66 8.48999 11.66 8.49999 11.66C8.61999 11.68 8.72999 11.6 8.74999 11.48C8.76999 11.36 8.68999 11.25 8.56999 11.23C8.56999 11.23 8.56999 11.23 8.55999 11.23M8.71999 10.71L6.83999 10.31C6.83999 10.31 6.81999 10.31 6.81999 10.32V10.34L8.56999 11.12C8.56999 11.12 8.57999 11.12 8.58999 11.12C8.69999 11.16 8.82999 11.09 8.85999 10.98C8.89999 10.87 8.82999 10.74 8.71999 10.71C8.71999 10.71 8.71999 10.71 8.70999 10.71H8.71999ZM8.96999 10.21L7.17999 9.52H7.15999V9.54L8.75999 10.58C8.75999 10.58 8.76999 10.58 8.77999 10.58C8.88999 10.63 9.01999 10.59 9.06999 10.49C9.11999 10.38 9.07999 10.25 8.97999 10.2C8.97999 10.2 8.97999 10.2 8.96999 10.2M9.27999 9.76L7.61999 8.8H7.59999V8.82L9.01999 10.1C9.01999 10.1 9.01999 10.1 9.02999 10.11C9.12999 10.18 9.25999 10.16 9.32999 10.06C9.39999 9.96 9.37999 9.83 9.27999 9.76ZM9.66999 9.36L8.17999 8.15H8.15999V8.17L9.35999 9.65C9.35999 9.65 9.35999 9.65 9.36999 9.66C9.44999 9.74 9.58999 9.74 9.67999 9.66C9.75999 9.58 9.75999 9.44 9.67999 9.35M10.11 9.03L8.82999 7.6H8.80999V7.62L9.76999 9.27C9.76999 9.27 9.76999 9.28 9.77999 9.29C9.84999 9.39 9.98999 9.41 10.08 9.34C10.18 9.27 10.2 9.13 10.13 9.04M10.6 8.77L9.54999 7.16C9.54999 7.16 9.53999 7.16 9.52999 7.16C9.52999 7.16 9.51999 7.17 9.52999 7.18L10.22 8.96C10.22 8.96 10.22 8.97 10.22 8.98C10.27 9.09 10.4 9.13 10.51 9.07C10.62 9.02 10.66 8.89 10.6 8.78C10.6 8.78 10.6 8.78 10.6 8.77ZM11.12 8.59L10.34 6.84C10.34 6.84 10.33 6.83 10.32 6.84C10.32 6.84 10.31 6.85 10.31 6.86L10.71 8.73C10.71 8.73 10.71 8.74 10.71 8.75C10.75 8.86 10.87 8.93 10.98 8.89C11.09 8.85 11.16 8.73 11.12 8.62C11.12 8.62 11.12 8.62 11.12 8.61M11.66 8.49L11.17 6.64C11.17 6.64 11.16 6.63 11.15 6.63C11.15 6.63 11.13 6.63 11.14 6.65L11.24 8.56C11.24 8.56 11.24 8.57 11.24 8.58C11.26 8.7 11.37 8.78 11.49 8.76C11.61 8.74 11.69 8.63 11.67 8.51C11.67 8.51 11.67 8.51 11.67 8.5M12.22 8.48L12.02 6.57C12.02 6.57 12.02 6.55 12 6.55C11.98 6.55 11.98 6.55 11.98 6.57L11.78 8.47C11.78 8.47 11.78 8.48 11.78 8.49C11.78 8.61 11.88 8.71 12 8.71C12.12 8.71 12.22 8.61 12.22 8.49C12.22 8.49 12.22 8.49 12.22 8.48ZM12 8.71C13.81 8.71 15.29 10.18 15.29 12C15.29 13.82 13.82 15.29 12 15.29C10.18 15.29 8.70999 13.82 8.70999 12C8.70999 10.18 10.18 8.71 12 8.71ZM12 9.11C13.6 9.11 14.89 10.4 14.89 12C14.89 13.6 13.6 14.89 12 14.89C10.4 14.89 9.10999 13.6 9.10999 12C9.10999 10.4 10.4 9.11 12 9.11ZM9.58999 12.87C9.88999 12.25 10.29 11.7 10.77 11.25C10.84 11.3 10.92 11.35 10.99 11.4C10.49 11.87 10.06 12.46 9.72999 13.18C9.67999 13.08 9.62999 12.98 9.58999 12.87ZM12.2 11.38C12.27 11.44 12.33 11.49 12.4 11.55C12.47 11.49 12.54 11.44 12.61 11.38C12.55 11.32 12.48 11.26 12.41 11.21C12.34 11.26 12.27 11.32 12.2 11.37M11.78 11.05C11.85 11.1 11.93 11.15 12 11.21C12.07 11.16 12.14 11.1 12.22 11.05C12.15 11 12.08 10.94 12 10.89C11.93 10.94 11.86 10.99 11.78 11.05ZM11.8 11.73C11.87 11.79 11.93 11.85 12 11.92C12.06 11.86 12.13 11.79 12.2 11.73C12.14 11.67 12.07 11.61 12 11.55C11.93 11.61 11.87 11.67 11.8 11.73ZM11.39 11.38C11.46 11.43 11.53 11.49 11.6 11.55C11.67 11.49 11.73 11.43 11.8 11.38C11.73 11.32 11.66 11.27 11.59 11.22C11.52 11.28 11.46 11.33 11.39 11.39M12.68 10.76C12.61 10.71 12.54 10.65 12.46 10.6C12.38 10.65 12.29 10.7 12.21 10.75C12.28 10.8 12.36 10.85 12.43 10.9C12.51 10.85 12.59 10.8 12.67 10.75M13.06 11.08C13 11.02 12.93 10.97 12.86 10.91C12.78 10.96 12.7 11.01 12.63 11.06C12.7 11.11 12.76 11.17 12.83 11.23C12.91 11.18 12.98 11.13 13.06 11.08ZM11.74 10.47C11.83 10.41 11.91 10.36 12 10.31C12.09 10.36 12.17 10.41 12.26 10.47C12.17 10.52 12.09 10.57 12 10.62C11.91 10.57 11.83 10.52 11.74 10.47ZM11.32 10.76C11.39 10.71 11.46 10.65 11.54 10.6C11.62 10.65 11.71 10.7 11.79 10.75C11.72 10.8 11.64 10.85 11.57 10.9C11.49 10.85 11.41 10.8 11.33 10.75M10.94 11.08C11 11.02 11.07 10.97 11.14 10.91C11.22 10.96 11.3 11.01 11.37 11.06C11.3 11.11 11.24 11.17 11.17 11.23C11.09 11.18 11.02 11.13 10.94 11.08ZM9.72999 10.7C9.99999 10.81 10.26 10.94 10.52 11.09C10.12 11.47 9.75999 11.93 9.45999 12.47C9.41999 12.3 9.40999 12.12 9.40999 11.94C9.40999 11.49 9.51999 11.07 9.72999 10.7ZM9.94999 10.37C10.27 10.47 10.58 10.61 10.89 10.78C10.82 10.83 10.76 10.89 10.69 10.95C10.41 10.79 10.12 10.66 9.81999 10.55C9.85999 10.49 9.89999 10.43 9.93999 10.38M10.23 10.06C10.59 10.15 10.95 10.29 11.3 10.47C11.23 10.52 11.15 10.57 11.08 10.63C10.75 10.46 10.41 10.32 10.08 10.22C10.13 10.17 10.18 10.11 10.23 10.06ZM10.63 9.75H10.65C10.65 9.75 10.67 9.75 10.68 9.75C11.04 9.84 11.41 9.99 11.77 10.17C11.68 10.22 11.59 10.27 11.5 10.33C11.15 10.16 10.79 10.02 10.43 9.92C10.43 9.92 10.41 9.92 10.38 9.9C10.46 9.84 10.54 9.78 10.62 9.73M13.15 9.63C13.15 9.63 13.13 9.63 13.12 9.63C12.74 9.74 12.36 9.88 12 10.07C11.64 9.89 11.27 9.75 10.9 9.64C10.9 9.64 10.89 9.64 10.88 9.64C10.87 9.64 10.86 9.64 10.85 9.64C11.2 9.47 11.59 9.37 12 9.37C12.41 9.37 12.81 9.47 13.15 9.64M13.61 9.92C13.61 9.92 13.59 9.92 13.58 9.92C13.21 10.03 12.85 10.16 12.49 10.34C12.4 10.28 12.31 10.23 12.22 10.18C12.59 9.99 12.97 9.84 13.34 9.75C13.34 9.75 13.36 9.75 13.37 9.75C13.45 9.8 13.53 9.86 13.61 9.92ZM13.93 10.22C13.59 10.33 13.25 10.47 12.93 10.63C12.86 10.58 12.78 10.52 12.71 10.47C13.07 10.29 13.43 10.15 13.78 10.06C13.83 10.11 13.88 10.16 13.93 10.22ZM14.17 10.54C13.88 10.65 13.58 10.78 13.3 10.94C13.23 10.88 13.17 10.83 13.1 10.77C13.41 10.6 13.73 10.46 14.04 10.36C14.08 10.42 14.12 10.47 14.16 10.53M14.53 12.47C14.23 11.93 13.87 11.48 13.47 11.09C13.73 10.94 14 10.8 14.26 10.7C14.46 11.07 14.58 11.49 14.58 11.94C14.58 12.12 14.56 12.3 14.53 12.47ZM14.27 13.17C13.94 12.45 13.51 11.86 13.01 11.39C13.08 11.34 13.16 11.29 13.23 11.24C13.7 11.7 14.11 12.25 14.41 12.86C14.37 12.97 14.32 13.07 14.27 13.17ZM13.87 13.73C13.55 12.92 13.11 12.26 12.59 11.73C12.66 11.67 12.73 11.61 12.8 11.56C13.34 12.09 13.79 12.73 14.09 13.47C14.02 13.56 13.95 13.65 13.87 13.73ZM13.38 14.13L13.35 14.04C13.06 13.27 12.66 12.63 12.19 12.12C12.25 12.05 12.32 11.99 12.39 11.93C12.93 12.49 13.38 13.18 13.64 13.96C13.56 14.03 13.47 14.09 13.38 14.15M10.88 14.27L10.91 14.17C11.15 13.47 11.53 12.85 12 12.32C12.47 12.85 12.85 13.47 13.09 14.17L13.12 14.27C12.78 14.43 12.4 14.52 12 14.52C11.6 14.52 11.22 14.43 10.88 14.27ZM10.36 13.94C10.63 13.16 11.07 12.48 11.61 11.91C11.68 11.97 11.74 12.04 11.81 12.1C11.34 12.62 10.94 13.25 10.65 14.02L10.62 14.11C10.53 14.05 10.44 13.99 10.36 13.92M9.90999 13.47C10.21 12.74 10.66 12.09 11.2 11.56C11.27 11.62 11.34 11.67 11.41 11.73C10.89 12.26 10.45 12.91 10.13 13.73C10.05 13.65 9.97999 13.56 9.90999 13.47Z" fill="#FFFF00"/>
</g>
</g>
<defs>
<clipPath id="clip0_161_13133">
<rect width="24" height="24" fill="white"/>
</clipPath>
</defs>
</svg>
