<svg width="24" height="24" viewBox="0 0 24 24" fill="none" xmlns="http://www.w3.org/2000/svg">
<g clip-path="url(#clip0_170_17938)">
<mask id="mask0_170_17938" style="mask-type:luminance" maskUnits="userSpaceOnUse" x="0" y="0" width="24" height="24">
<path d="M12 24C18.6274 24 24 18.6274 24 12C24 5.37258 18.6274 0 12 0C5.37258 0 0 5.37258 0 12C0 18.6274 5.37258 24 12 24Z" fill="white"/>
</mask>
<g mask="url(#mask0_170_17938)">
<path d="M0 0H24V24H0V0Z" fill="#D81C22"/>
<path d="M0 6H24V18H0V6Z" fill="white"/>
<path fill-rule="evenodd" clip-rule="evenodd" d="M11.85 6.8H11.86C11.95 7.06 12.09 7.3 12.27 7.5C12.38 7.63 12.52 7.74 12.68 7.81C12.89 7.85 13.09 7.9 13.3 7.95C13.41 7.98 13.51 8.03 13.61 8.08C13.73 8.15 13.84 8.23 13.96 8.31C14.15 8.45 14.34 8.6 14.52 8.74C14.56 8.77 14.55 8.79 14.49 8.78C14.28 8.76 14.07 8.75 13.87 8.77C13.87 8.78 13.87 8.8 13.87 8.81C14.2 9.12 14.58 9.36 15 9.53C14.8 9.53 14.6 9.53 14.4 9.52C14.33 9.5 14.26 9.49 14.19 9.47C14.03 9.37 13.85 9.33 13.66 9.35C13.56 9.37 13.52 9.43 13.55 9.53C13.59 9.57 13.63 9.61 13.67 9.63C13.77 9.68 13.86 9.73 13.95 9.78C14.17 9.93 14.37 10.1 14.56 10.29C14.93 10.59 15.33 10.85 15.75 11.07C15.83 11.11 15.89 11.17 15.95 11.24C15.95 11.26 15.95 11.28 15.93 11.29C15.89 11.3 15.86 11.31 15.82 11.31C15.55 11.28 15.27 11.25 15 11.21C14.94 11.21 14.87 11.21 14.81 11.21C14.73 11.24 14.71 11.29 14.74 11.37C14.79 11.42 14.85 11.45 14.92 11.47C15.3 11.56 15.68 11.66 16.06 11.78C16.16 11.81 16.24 11.86 16.33 11.92C16.33 11.96 16.32 11.99 16.27 12C16.18 12.02 16.08 12.04 15.99 12.05C15.74 12.07 15.49 12.09 15.23 12.09C15.13 12.1 15.03 12.12 14.93 12.13C14.86 12.14 14.8 12.17 14.75 12.22C14.75 12.29 14.78 12.33 14.85 12.34C14.95 12.35 15.05 12.36 15.15 12.36C15.33 12.38 15.49 12.45 15.63 12.55C15.72 12.65 15.81 12.75 15.91 12.84C16.21 13.1 16.52 13.36 16.83 13.61C16.73 13.63 16.64 13.65 16.54 13.66C16.42 13.67 16.31 13.66 16.2 13.6C16.06 13.53 15.93 13.46 15.79 13.38C15.75 13.36 15.7 13.35 15.65 13.35C15.53 13.38 15.42 13.42 15.32 13.5C15.23 13.56 15.21 13.63 15.26 13.72C15.35 13.81 15.45 13.89 15.56 13.95C15.8 14.09 16.04 14.22 16.29 14.35C16.53 14.48 16.75 14.64 16.96 14.8C17.06 14.88 17.14 14.98 17.19 15.09C17.2 15.19 17.16 15.26 17.07 15.29C16.96 15.3 16.85 15.28 16.76 15.21C16.51 15.04 16.26 14.87 16 14.72C15.87 14.63 15.72 14.58 15.57 14.57C15.16 14.57 14.75 14.57 14.35 14.57C14.26 14.57 14.17 14.54 14.08 14.52C13.91 14.44 13.74 14.36 13.57 14.28C13.5 14.26 13.43 14.25 13.35 14.26C13.18 14.35 13.09 14.49 13.07 14.68C13.07 14.9 13.07 15.13 13.07 15.35C13.07 15.65 13.17 15.92 13.36 16.15C13.6 16.39 13.86 16.62 14.12 16.84C14.23 16.94 14.33 17.05 14.41 17.17H14.12C14.07 17.14 14.02 17.11 13.98 17.07C13.86 16.95 13.75 16.82 13.63 16.7C13.52 16.63 13.4 16.59 13.27 16.58C13.14 16.57 13.01 16.55 12.88 16.54C12.8 16.54 12.73 16.54 12.65 16.54C12.64 16.58 12.64 16.62 12.65 16.66C12.69 16.73 12.73 16.8 12.77 16.88C12.78 16.91 12.79 16.95 12.79 16.99C12.74 16.99 12.69 16.98 12.65 16.94C12.48 16.77 12.29 16.62 12.09 16.5C12 16.43 11.95 16.34 11.95 16.22C11.91 16.14 11.84 16.1 11.75 16.13C11.65 16.16 11.56 16.18 11.46 16.2C11.37 16.2 11.29 16.17 11.22 16.12C11.06 16.08 10.91 16.1 10.78 16.2C10.66 16.29 10.54 16.38 10.43 16.48C10.12 16.7 9.77999 16.81 9.39999 16.8C9.15999 16.85 8.96999 16.97 8.82999 17.17H8.69999C8.69999 17.17 8.69999 17.13 8.69999 17.12C8.80999 16.93 8.95999 16.78 9.15999 16.68C9.41999 16.63 9.65999 16.52 9.86999 16.37C10.09 16.17 10.27 15.95 10.43 15.7C10.54 15.54 10.61 15.37 10.67 15.19C10.71 15.03 10.69 14.89 10.62 14.75C10.49 14.57 10.32 14.47 10.11 14.43C10.04 14.43 9.97999 14.46 9.91999 14.48C9.44999 14.7 8.96999 14.9 8.48999 15.08C8.27999 15.14 8.06999 15.17 7.84999 15.17C7.70999 15.18 7.56999 15.16 7.44999 15.09C7.39999 15.04 7.37999 14.99 7.38999 14.92C7.54999 14.85 7.71999 14.79 7.88999 14.74C8.29999 14.63 8.68999 14.49 9.05999 14.3C9.16999 14.24 9.26999 14.16 9.34999 14.07C9.40999 13.98 9.39999 13.91 9.30999 13.85C9.09999 13.75 8.88999 13.76 8.68999 13.88C8.61999 13.93 8.54999 13.98 8.47999 14.02C8.10999 14.21 7.72999 14.36 7.32999 14.45C7.09999 14.51 6.91999 14.44 6.79999 14.24C6.89999 14.24 6.98999 14.24 7.08999 14.24C7.11999 14.24 7.14999 14.22 7.17999 14.21C7.23999 14.17 7.29999 14.12 7.35999 14.07C7.63999 13.77 7.95999 13.5 8.29999 13.28C8.47999 13.18 8.65999 13.08 8.83999 12.98C8.88999 12.94 8.92999 12.89 8.94999 12.83C8.95999 12.7 8.92999 12.58 8.83999 12.48C8.78999 12.41 8.71999 12.38 8.63999 12.4C8.50999 12.48 8.38999 12.56 8.25999 12.65C8.16999 12.7 8.06999 12.75 7.96999 12.78C7.81999 12.78 7.68999 12.74 7.57999 12.64C7.55999 12.62 7.54999 12.6 7.55999 12.58C7.57999 12.58 7.59999 12.58 7.60999 12.58C7.65999 12.54 7.70999 12.51 7.75999 12.47C7.92999 12.32 8.09999 12.16 8.25999 11.99C8.37999 11.88 8.50999 11.8 8.65999 11.74C8.78999 11.72 8.90999 11.68 9.02999 11.61C9.16999 11.49 9.29999 11.35 9.39999 11.19C9.45999 11.12 9.47999 11.03 9.45999 10.94C9.42999 10.86 9.38999 10.78 9.34999 10.7C9.32999 10.65 9.28999 10.62 9.22999 10.61C9.09999 10.65 8.96999 10.69 8.82999 10.72C8.70999 10.75 8.58999 10.75 8.45999 10.74C8.37999 10.73 8.34999 10.68 8.37999 10.6C8.42999 10.55 8.46999 10.51 8.52999 10.46C8.70999 10.33 8.89999 10.21 9.08999 10.1C9.24999 10.03 9.40999 9.95 9.55999 9.85C9.62999 9.8 9.66999 9.72 9.67999 9.64C9.77999 9.47 9.92999 9.36 10.13 9.31C10.39 9.33 10.44 9.23 10.29 9.02C10.25 9 10.21 8.99 10.17 8.99C10.09 9.01 9.99999 9.01 9.91999 9.01C9.89999 9.01 9.88999 9 9.88999 8.98C9.90999 8.93 9.93999 8.89 9.98999 8.86C10.1 8.77 10.22 8.69 10.35 8.61C10.6 8.51 10.83 8.36 11.02 8.17C11.04 8.14 11.05 8.11 11.04 8.07C11.02 8.07 11.01 8.06 10.99 8.06C10.83 8.11 10.68 8.15 10.52 8.2C10.51 8.2 10.51 8.19 10.52 8.18C10.74 7.91 10.99 7.68 11.27 7.49C11.51 7.29 11.69 7.05 11.82 6.77L11.85 6.8ZM10.65 8.77C10.72 8.77 10.78 8.77 10.84 8.8C10.86 8.81 10.87 8.83 10.87 8.84C10.81 8.95 10.72 9.04 10.6 9.09C10.58 9.09 10.57 9.08 10.56 9.06C10.56 9 10.56 8.93 10.56 8.87C10.56 8.82 10.6 8.79 10.64 8.77H10.65ZM11.87 8.99C11.94 8.98 12 9 12.03 9.07C12.04 9.14 12.03 9.2 12.01 9.26C11.94 9.32 11.87 9.36 11.78 9.37C11.67 9.4 11.55 9.42 11.43 9.41C11.4 9.37 11.39 9.33 11.4 9.29C11.44 9.22 11.5 9.16 11.58 9.12C11.68 9.07 11.77 9.02 11.87 8.98V8.99ZM12.37 8.95C12.46 8.94 12.54 8.97 12.59 9.05C12.59 9.09 12.59 9.12 12.59 9.16C12.57 9.18 12.55 9.19 12.53 9.2C12.44 9.2 12.36 9.2 12.27 9.19C12.27 9.19 12.25 9.17 12.24 9.16C12.22 9.05 12.26 8.98 12.36 8.95H12.37ZM13.01 8.99C13.01 8.99 13.09 8.99 13.13 8.99C13.15 8.99 13.17 9.01 13.18 9.03C13.19 9.25 13.09 9.35 12.87 9.33C12.85 9.33 12.83 9.31 12.82 9.29C12.78 9.12 12.85 9.02 13.01 8.99ZM14.97 12.93C15.03 12.93 15.08 12.95 15.13 12.98C15.18 13.01 15.22 13.04 15.27 13.08C15.29 13.11 15.29 13.14 15.28 13.18C15.21 13.28 15.13 13.37 15.04 13.46C15.02 13.48 15 13.49 14.98 13.49C14.9 13.47 14.81 13.46 14.73 13.45C14.68 13.45 14.63 13.42 14.59 13.4C14.56 13.38 14.55 13.36 14.54 13.32C14.55 13.29 14.57 13.26 14.59 13.23C14.7 13.11 14.84 13.01 14.99 12.94L14.97 12.93ZM14 12.74C14.11 12.73 14.21 12.74 14.3 12.8C14.34 12.85 14.34 12.91 14.32 12.97C14.16 13.19 13.95 13.26 13.69 13.18C13.64 13.15 13.59 13.12 13.54 13.08C13.53 13.06 13.52 13.03 13.53 13C13.66 12.87 13.82 12.79 14 12.74ZM13.97 11.04C14.11 11.02 14.2 11.07 14.26 11.19C14.26 11.4 14.16 11.47 13.96 11.42C13.89 11.39 13.84 11.34 13.79 11.28C13.8 11.16 13.86 11.08 13.97 11.03V11.04ZM11.96 10.04C12.01 10.04 12.06 10.04 12.1 10.07C12.15 10.13 12.14 10.18 12.08 10.23C12.01 10.29 11.94 10.32 11.85 10.31C11.75 10.28 11.66 10.25 11.57 10.21C11.7 10.14 11.83 10.09 11.96 10.05V10.04ZM9.54999 12.1C9.70999 12.1 9.86999 12.1 10.03 12.14C10.19 12.19 10.2 12.27 10.06 12.37C9.81999 12.53 9.54999 12.62 9.25999 12.63C9.19999 12.59 9.15999 12.54 9.13999 12.47C9.10999 12.39 9.06999 12.31 9.03999 12.23C9.03999 12.21 9.03999 12.2 9.03999 12.19C9.09999 12.17 9.15999 12.15 9.21999 12.14C9.32999 12.13 9.43999 12.11 9.53999 12.1H9.54999ZM12.54 10.01C12.63 10.01 12.67 10.06 12.67 10.15C12.67 10.29 12.61 10.37 12.48 10.39C12.3 10.43 12.26 10.37 12.36 10.22C12.41 10.14 12.47 10.07 12.55 10.01H12.54ZM13.18 10.2C13.3 10.2 13.42 10.22 13.53 10.28C13.58 10.31 13.6 10.35 13.59 10.4C13.59 10.49 13.57 10.57 13.51 10.63C13.44 10.66 13.37 10.66 13.29 10.65C13.2 10.63 13.11 10.6 13.02 10.57C12.87 10.53 12.85 10.45 12.95 10.33C13.01 10.26 13.08 10.21 13.17 10.19L13.18 10.2ZM10.79 11.52C10.93 11.53 11.04 11.6 11.12 11.73C11.12 11.81 11.09 11.84 11.01 11.82C10.91 11.78 10.82 11.71 10.77 11.61C10.76 11.57 10.77 11.55 10.8 11.52H10.79ZM10.36 10.26C10.46 10.26 10.56 10.26 10.65 10.26C10.74 10.27 10.76 10.32 10.72 10.4C10.65 10.5 10.57 10.59 10.48 10.68C10.42 10.74 10.36 10.73 10.32 10.65C10.27 10.57 10.25 10.49 10.24 10.4C10.24 10.37 10.24 10.35 10.26 10.32C10.29 10.29 10.33 10.27 10.36 10.26ZM11.66 13.31C11.79 13.31 11.92 13.34 12.04 13.38C12.06 13.38 12.08 13.4 12.09 13.42C12 13.57 11.9 13.72 11.79 13.85C11.73 13.69 11.68 13.52 11.64 13.35C11.64 13.34 11.64 13.32 11.65 13.31H11.66ZM12.52 11.82C12.52 11.82 12.59 11.84 12.61 11.87C12.66 11.96 12.67 12.05 12.64 12.15C12.57 12.16 12.53 12.14 12.5 12.07C12.46 11.98 12.46 11.9 12.52 11.82ZM9.67999 10.38C9.80999 10.35 9.91999 10.39 9.99999 10.5C10.06 10.6 10.12 10.7 10.18 10.8C10.07 10.86 9.94999 10.9 9.81999 10.91C9.80999 10.91 9.78999 10.9 9.77999 10.89C9.67999 10.79 9.58999 10.67 9.53999 10.54C9.53999 10.51 9.53999 10.47 9.54999 10.44C9.58999 10.41 9.63999 10.39 9.68999 10.38H9.67999ZM12.07 11.56C12.12 11.56 12.16 11.59 12.19 11.64C12.25 11.72 12.3 11.81 12.33 11.91C12.33 11.96 12.33 12 12.33 12.05C12.3 12.11 12.26 12.13 12.19 12.11C11.89 11.99 11.85 11.81 12.06 11.56H12.07ZM10.34 13.21C10.54 13.19 10.65 13.28 10.68 13.48C10.69 13.59 10.68 13.71 10.65 13.82C10.61 13.87 10.56 13.87 10.51 13.84C10.47 13.8 10.44 13.75 10.42 13.7C10.37 13.55 10.33 13.4 10.31 13.25C10.32 13.25 10.33 13.23 10.34 13.22V13.21ZM11.57 11.38C11.66 11.36 11.71 11.4 11.71 11.49C11.71 11.55 11.69 11.61 11.66 11.66C11.6 11.73 11.55 11.73 11.51 11.65C11.48 11.58 11.48 11.51 11.5 11.44C11.52 11.41 11.54 11.39 11.57 11.38ZM11.05 13.43C11.15 13.43 11.24 13.46 11.3 13.54C11.33 13.6 11.33 13.67 11.32 13.73C11.3 13.79 11.26 13.81 11.21 13.78C11.13 13.69 11.07 13.58 11.04 13.46C11.04 13.45 11.04 13.44 11.05 13.43ZM11.1 9.34C11.17 9.34 11.21 9.36 11.21 9.43C11.19 9.57 11.11 9.69 10.99 9.77C10.9 9.83 10.81 9.87 10.71 9.9C10.67 9.9 10.63 9.9 10.59 9.9C10.57 9.87 10.56 9.83 10.57 9.8C10.7 9.59 10.87 9.44 11.1 9.35V9.34Z" fill="#019E3F"/>
</g>
</g>
<defs>
<clipPath id="clip0_170_17938">
<rect width="24" height="24" fill="white"/>
</clipPath>
</defs>
</svg>
