<svg width="24" height="24" viewBox="0 0 24 24" fill="none" xmlns="http://www.w3.org/2000/svg">
<g clip-path="url(#clip0_170_14943)">
<mask id="mask0_170_14943" style="mask-type:luminance" maskUnits="userSpaceOnUse" x="0" y="0" width="24" height="24">
<path d="M12 24C18.6274 24 24 18.6274 24 12C24 5.37258 18.6274 0 12 0C5.37258 0 0 5.37258 0 12C0 18.6274 5.37258 24 12 24Z" fill="white"/>
</mask>
<g mask="url(#mask0_170_14943)">
<path d="M0 0H24V24H0V0Z" fill="white"/>
<path d="M0 0H24V7.2H0V0Z" fill="#001489"/>
<path d="M0 16.8H24V24H0V16.8Z" fill="#009A44"/>
<path d="M12 8.52C12.1 8.52 12.19 8.58 12.24 8.66C12.8 8.73 13.1 9.13 13.2 9.61C13.32 10.16 13.2 10.91 12.8 11.7L14.3 13.69C14.38 13.65 14.46 13.61 14.54 13.57L15.09 14.73C13.16 15.73 10.86 15.73 8.92999 14.73L9.47999 13.57C9.55999 13.61 9.63999 13.65 9.71999 13.69L11.22 11.7C10.83 10.91 10.7 10.16 10.82 9.61C10.92 9.14 11.22 8.73 11.78 8.66C11.83 8.57 11.92 8.52 12.02 8.52H12ZM12.59 11.43C12.89 10.75 12.99 10.11 12.9 9.69C12.82 9.31 12.62 9.04 12.25 8.98V9.95L12.72 10.42H12.34V11.1L12.59 11.43ZM11.75 8.97C11.37 9.03 11.18 9.31 11.1 9.68C11 10.1 11.1 10.75 11.41 11.42L11.66 11.09V10.41H11.28L11.75 9.94V8.97ZM9.64999 14.07L9.48999 14.41L9.74999 14.34L9.64999 14.07ZM9.51999 14.56C9.63999 14.61 9.75999 14.66 9.87999 14.7L9.79999 14.48L9.51999 14.56ZM10.12 14.5L10.46 14.39L10.36 14.17C10.22 14.13 10.08 14.08 9.94999 14.03L10.12 14.5ZM10.52 14.54L10.17 14.65L10.23 14.81C10.38 14.85 10.54 14.89 10.69 14.93L10.52 14.54ZM10.9 14.68L11.27 14.53L11.18 14.36C11.02 14.34 10.87 14.31 10.71 14.27L10.89 14.68H10.9ZM11.34 14.67L10.96 14.83L11.03 15C11.2 15.03 11.37 15.05 11.54 15.06L11.34 14.68V14.67ZM11.72 14.77L12.19 14.53L12.12 14.42C11.92 14.42 11.72 14.42 11.52 14.4L11.72 14.77ZM12.27 14.66L11.79 14.91L11.87 15.07C12.08 15.07 12.3 15.07 12.51 15.05L12.26 14.66H12.27ZM12.66 14.75L13.03 14.5L12.92 14.35C12.76 14.38 12.6 14.4 12.44 14.41L12.66 14.75ZM13.11 14.62L12.73 14.88L12.82 15.02C12.99 15 13.16 14.97 13.33 14.93L13.11 14.62ZM13.46 14.6L13.77 14.33L13.65 14.18C13.51 14.22 13.38 14.26 13.24 14.29L13.47 14.6H13.46ZM13.86 14.45L13.55 14.73L13.64 14.85C13.79 14.81 13.94 14.76 14.08 14.71L13.86 14.45ZM14.17 14.38L14.38 14.13L14.29 13.94C14.17 13.99 14.05 14.04 13.93 14.09L14.17 14.39V14.38ZM14.45 14.28L14.27 14.5L14.36 14.61C14.43 14.58 14.5 14.55 14.56 14.52L14.45 14.28Z" fill="black"/>
</g>
</g>
<defs>
<clipPath id="clip0_170_14943">
<rect width="24" height="24" fill="white"/>
</clipPath>
</defs>
</svg>
