<svg width="24" height="24" viewBox="0 0 24 24" fill="none" xmlns="http://www.w3.org/2000/svg">
<g clip-path="url(#clip0_170_16179)">
<mask id="mask0_170_16179" style="mask-type:luminance" maskUnits="userSpaceOnUse" x="0" y="0" width="24" height="24">
<path d="M12 24C18.6274 24 24 18.6274 24 12C24 5.37259 18.6274 1.14441e-05 12 1.14441e-05C5.37258 1.14441e-05 0 5.37259 0 12C0 18.6274 5.37258 24 12 24Z" fill="white"/>
</mask>
<g mask="url(#mask0_170_16179)">
<path d="M30.02 -0.019989H-6.03V24.02H30.02V-0.019989Z" fill="#239E46"/>
<path d="M30.02 -0.019989H-6.03V18.01H30.02V-0.019989Z" fill="black"/>
<path d="M30.02 -0.019989H-6.03V5.99001H30.02V-0.019989Z" fill="#E70013"/>
<path d="M11.41 14.92C13.0227 14.92 14.33 13.6127 14.33 12C14.33 10.3873 13.0227 9.08001 11.41 9.08001C9.79732 9.08001 8.48999 10.3873 8.48999 12C8.48999 13.6127 9.79732 14.92 11.41 14.92Z" fill="white"/>
<path d="M12 14.54C13.4028 14.54 14.54 13.4028 14.54 12C14.54 10.5972 13.4028 9.46001 12 9.46001C10.5972 9.46001 9.45999 10.5972 9.45999 12C9.45999 13.4028 10.5972 14.54 12 14.54Z" fill="black"/>
<path d="M15.83 12L16.75 10.72L15.25 11.21L14.33 9.93001V11.51L12.83 12L14.33 12.49V14.06L15.25 12.79L16.75 13.27L15.83 12Z" fill="white"/>
</g>
</g>
<defs>
<clipPath id="clip0_170_16179">
<rect width="24" height="24" fill="white"/>
</clipPath>
</defs>
</svg>
