<svg width="24" height="24" viewBox="0 0 24 24" fill="none" xmlns="http://www.w3.org/2000/svg">
<g clip-path="url(#clip0_161_12568)">
<mask id="mask0_161_12568" style="mask-type:luminance" maskUnits="userSpaceOnUse" x="0" y="0" width="24" height="24">
<path d="M12 24C18.6274 24 24 18.6274 24 12C24 5.37258 18.6274 0 12 0C5.37258 0 0 5.37258 0 12C0 18.6274 5.37258 24 12 24Z" fill="white"/>
</mask>
<g mask="url(#mask0_161_12568)">
<path d="M24 0H0V24H24V0Z" fill="#002B7F"/>
<path d="M24 12H0V24H24V12Z" fill="#CE1126"/>
<path d="M6.61 7.04001L6.55 8.94001H4.62C4.38 8.48001 4.19 8.09001 4.19 7.56001C4.19 7.12001 4.54 6.76001 5.04 6.76001C5.57 6.76001 6.16 6.94001 6.6 7.04001H6.61Z" fill="#FFD83D"/>
<path d="M4.41998 7.13V8.23V7.13Z" fill="#FFD83D"/>
<path d="M4.41998 7.13V8.23" stroke="black" stroke-width="0.05" stroke-linecap="round" stroke-linejoin="round"/>
<path d="M4.57999 7.02V8.48V7.02Z" fill="#FFD83D"/>
<path d="M4.57999 7.02V8.48" stroke="black" stroke-width="0.05" stroke-linecap="round" stroke-linejoin="round"/>
<path d="M4.72998 6.94V8.68V6.94Z" fill="#FFD83D"/>
<path d="M4.72998 6.94V8.68" stroke="black" stroke-width="0.05" stroke-linecap="round" stroke-linejoin="round"/>
<path d="M4.88998 6.91V8.27V6.91Z" fill="#FFD83D"/>
<path d="M4.88998 6.91V8.27" stroke="black" stroke-width="0.05" stroke-linecap="round" stroke-linejoin="round"/>
<path d="M5.03998 6.90001V8.28001V6.90001Z" fill="#FFD83D"/>
<path d="M5.03998 6.90001V8.28001" stroke="black" stroke-width="0.05" stroke-linecap="round" stroke-linejoin="round"/>
<path d="M5.19998 6.85001V8.27001V6.85001Z" fill="#FFD83D"/>
<path d="M5.19998 6.85001V8.27001" stroke="black" stroke-width="0.05" stroke-linecap="round" stroke-linejoin="round"/>
<path d="M5.34998 6.85001V8.27001V6.85001Z" fill="#FFD83D"/>
<path d="M5.34998 6.85001V8.27001" stroke="black" stroke-width="0.05" stroke-linecap="round" stroke-linejoin="round"/>
<path d="M5.50998 6.87V8.29V6.87Z" fill="#FFD83D"/>
<path d="M5.50998 6.87V8.29" stroke="black" stroke-width="0.05" stroke-linecap="round" stroke-linejoin="round"/>
<path d="M5.65997 6.88V8.3V6.88Z" fill="#FFD83D"/>
<path d="M5.65997 6.88V8.3" stroke="black" stroke-width="0.05" stroke-linecap="round" stroke-linejoin="round"/>
<path d="M5.81998 6.97001V8.39001V6.97001Z" fill="#FFD83D"/>
<path d="M5.81998 6.97001V8.39001" stroke="black" stroke-width="0.05" stroke-linecap="round" stroke-linejoin="round"/>
<path d="M5.96997 6.98V8.59V6.98Z" fill="#FFD83D"/>
<path d="M5.96997 6.98V8.59" stroke="black" stroke-width="0.05" stroke-linecap="round" stroke-linejoin="round"/>
<path d="M6.12997 6.98V8.4V6.98Z" fill="#FFD83D"/>
<path d="M6.12997 6.98V8.4" stroke="black" stroke-width="0.05" stroke-linecap="round" stroke-linejoin="round"/>
<path d="M6.27997 6.98V8.4V6.98Z" fill="#FFD83D"/>
<path d="M6.27997 6.98V8.4" stroke="black" stroke-width="0.05" stroke-linecap="round" stroke-linejoin="round"/>
<path d="M5.38998 6.91001C5.71998 6.96001 6.42998 7.30001 6.34998 7.75001C6.22998 8.39001 5.85998 8.14001 5.35998 8.04001L4.97998 8.17001C4.84998 8.31001 4.64998 8.43001 4.50998 8.27001H4.28998V9.14001H6.75998V7.03001L5.38998 6.90001V6.91001Z" fill="black" stroke="black" stroke-width="0.05" stroke-linecap="round" stroke-linejoin="round"/>
<path d="M6.49998 6.91001C6.58282 6.91001 6.64998 6.84285 6.64998 6.76001C6.64998 6.67717 6.58282 6.61001 6.49998 6.61001C6.41713 6.61001 6.34998 6.67717 6.34998 6.76001C6.34998 6.84285 6.41713 6.91001 6.49998 6.91001Z" fill="#FFD83D" stroke="black" stroke-width="0.06" stroke-linecap="round" stroke-linejoin="round"/>
<path d="M6.15998 6.83001C6.24282 6.83001 6.30998 6.76285 6.30998 6.68001C6.30998 6.59716 6.24282 6.53001 6.15998 6.53001C6.07714 6.53001 6.00998 6.59716 6.00998 6.68001C6.00998 6.76285 6.07714 6.83001 6.15998 6.83001Z" fill="#FFD83D" stroke="black" stroke-width="0.06" stroke-linecap="round" stroke-linejoin="round"/>
<path d="M5.81998 6.74C5.90283 6.74 5.96998 6.67285 5.96998 6.59C5.96998 6.50716 5.90283 6.44 5.81998 6.44C5.73714 6.44 5.66998 6.50716 5.66998 6.59C5.66998 6.67285 5.73714 6.74 5.81998 6.74Z" fill="#FFD83D" stroke="black" stroke-width="0.06" stroke-linecap="round" stroke-linejoin="round"/>
<path d="M5.47999 6.69001C5.56283 6.69001 5.62999 6.62285 5.62999 6.54001C5.62999 6.45716 5.56283 6.39001 5.47999 6.39001C5.39714 6.39001 5.32999 6.45716 5.32999 6.54001C5.32999 6.62285 5.39714 6.69001 5.47999 6.69001Z" fill="#FFD83D" stroke="black" stroke-width="0.06" stroke-linecap="round" stroke-linejoin="round"/>
<path d="M5.12998 6.65001C5.21282 6.65001 5.27998 6.58285 5.27998 6.50001C5.27998 6.41716 5.21282 6.35001 5.12998 6.35001C5.04714 6.35001 4.97998 6.41716 4.97998 6.50001C4.97998 6.58285 5.04714 6.65001 5.12998 6.65001Z" fill="#FFD83D" stroke="black" stroke-width="0.06" stroke-linecap="round" stroke-linejoin="round"/>
<path d="M4.79999 6.67C4.88284 6.67 4.94999 6.60285 4.94999 6.52C4.94999 6.43716 4.88284 6.37 4.79999 6.37C4.71715 6.37 4.64999 6.43716 4.64999 6.52C4.64999 6.60285 4.71715 6.67 4.79999 6.67Z" fill="#FFD83D" stroke="black" stroke-width="0.06" stroke-linecap="round" stroke-linejoin="round"/>
<path d="M4.47999 6.78C4.56283 6.78 4.62999 6.71285 4.62999 6.63C4.62999 6.54716 4.56283 6.48 4.47999 6.48C4.39714 6.48 4.32999 6.54716 4.32999 6.63C4.32999 6.71285 4.39714 6.78 4.47999 6.78Z" fill="#FFD83D" stroke="black" stroke-width="0.06" stroke-linecap="round" stroke-linejoin="round"/>
<path d="M4.21 6.98001C4.29284 6.98001 4.36 6.91285 4.36 6.83001C4.36 6.74717 4.29284 6.68001 4.21 6.68001C4.12715 6.68001 4.06 6.74717 4.06 6.83001C4.06 6.91285 4.12715 6.98001 4.21 6.98001Z" fill="#FFD83D" stroke="black" stroke-width="0.06" stroke-linecap="round" stroke-linejoin="round"/>
<path d="M4.00999 7.26001C4.09283 7.26001 4.15999 7.19285 4.15999 7.11001C4.15999 7.02716 4.09283 6.96001 4.00999 6.96001C3.92714 6.96001 3.85999 7.02716 3.85999 7.11001C3.85999 7.19285 3.92714 7.26001 4.00999 7.26001Z" fill="#FFD83D" stroke="black" stroke-width="0.06" stroke-linecap="round" stroke-linejoin="round"/>
<path d="M3.91999 7.58001C4.00283 7.58001 4.06999 7.51285 4.06999 7.43001C4.06999 7.34716 4.00283 7.28001 3.91999 7.28001C3.83715 7.28001 3.76999 7.34716 3.76999 7.43001C3.76999 7.51285 3.83715 7.58001 3.91999 7.58001Z" fill="#FFD83D" stroke="black" stroke-width="0.06" stroke-linecap="round" stroke-linejoin="round"/>
<path d="M3.93 7.92C4.01284 7.92 4.08 7.85285 4.08 7.77C4.08 7.68716 4.01284 7.62 3.93 7.62C3.84716 7.62 3.78 7.68716 3.78 7.77C3.78 7.85285 3.84716 7.92 3.93 7.92Z" fill="#FFD83D" stroke="black" stroke-width="0.06" stroke-linecap="round" stroke-linejoin="round"/>
<path d="M3.99 8.25C4.07284 8.25 4.14 8.18285 4.14 8.10001C4.14 8.01716 4.07284 7.95 3.99 7.95C3.90715 7.95 3.84 8.01716 3.84 8.10001C3.84 8.18285 3.90715 8.25 3.99 8.25Z" fill="#FFD83D" stroke="black" stroke-width="0.06" stroke-linecap="round" stroke-linejoin="round"/>
<path d="M6.56998 6.96001V7.16001C6.17998 7.10001 5.64998 6.89001 5.15998 6.89001C4.69998 6.89001 4.34998 7.07001 4.34998 7.53001C4.34998 7.99001 4.53998 8.40001 4.79998 8.81001L4.52998 8.94001C4.28998 8.48001 4.09998 8.09001 4.09998 7.56001C4.09998 7.12001 4.44998 6.68001 5.04998 6.68001C5.57998 6.68001 6.11998 6.86001 6.56998 6.96001Z" fill="#FFD83D" stroke="black" stroke-width="0.06" stroke-linecap="round" stroke-linejoin="round"/>
<path d="M6.94998 7.04001L7.00998 8.94001H8.93998C9.17998 8.48001 9.36998 8.09001 9.36998 7.56001C9.36998 7.12001 9.01998 6.76001 8.51998 6.76001C7.98998 6.76001 7.39998 6.94001 6.95998 7.04001H6.94998Z" fill="#FFD83D"/>
<path d="M9.12997 7.13V8.23V7.13Z" fill="#FFD83D"/>
<path d="M9.12997 7.13V8.23" stroke="black" stroke-width="0.05" stroke-linecap="round" stroke-linejoin="round"/>
<path d="M8.97998 7.02V8.48V7.02Z" fill="#FFD83D"/>
<path d="M8.97998 7.02V8.48" stroke="black" stroke-width="0.05" stroke-linecap="round" stroke-linejoin="round"/>
<path d="M8.81998 6.94V8.68V6.94Z" fill="#FFD83D"/>
<path d="M8.81998 6.94V8.68" stroke="black" stroke-width="0.05" stroke-linecap="round" stroke-linejoin="round"/>
<path d="M8.66998 6.91V8.27V6.91Z" fill="#FFD83D"/>
<path d="M8.66998 6.91V8.27" stroke="black" stroke-width="0.05" stroke-linecap="round" stroke-linejoin="round"/>
<path d="M8.50998 6.90001V8.28001V6.90001Z" fill="#FFD83D"/>
<path d="M8.50998 6.90001V8.28001" stroke="black" stroke-width="0.05" stroke-linecap="round" stroke-linejoin="round"/>
<path d="M8.35999 6.85001V8.27001V6.85001Z" fill="#FFD83D"/>
<path d="M8.35999 6.85001V8.27001" stroke="black" stroke-width="0.05" stroke-linecap="round" stroke-linejoin="round"/>
<path d="M8.19998 6.85001V8.27001V6.85001Z" fill="#FFD83D"/>
<path d="M8.19998 6.85001V8.27001" stroke="black" stroke-width="0.05" stroke-linecap="round" stroke-linejoin="round"/>
<path d="M8.04999 6.87V8.29V6.87Z" fill="#FFD83D"/>
<path d="M8.04999 6.87V8.29" stroke="black" stroke-width="0.05" stroke-linecap="round" stroke-linejoin="round"/>
<path d="M7.88998 6.88V8.3V6.88Z" fill="#FFD83D"/>
<path d="M7.88998 6.88V8.3" stroke="black" stroke-width="0.05" stroke-linecap="round" stroke-linejoin="round"/>
<path d="M7.73999 6.97001V8.39001V6.97001Z" fill="#FFD83D"/>
<path d="M7.73999 6.97001V8.39001" stroke="black" stroke-width="0.05" stroke-linecap="round" stroke-linejoin="round"/>
<path d="M7.58997 6.98V8.59V6.98Z" fill="#FFD83D"/>
<path d="M7.58997 6.98V8.59" stroke="black" stroke-width="0.05" stroke-linecap="round" stroke-linejoin="round"/>
<path d="M7.42999 6.98V8.4V6.98Z" fill="#FFD83D"/>
<path d="M7.42999 6.98V8.4" stroke="black" stroke-width="0.05" stroke-linecap="round" stroke-linejoin="round"/>
<path d="M7.27997 6.98V8.4V6.98Z" fill="#FFD83D"/>
<path d="M7.27997 6.98V8.4" stroke="black" stroke-width="0.05" stroke-linecap="round" stroke-linejoin="round"/>
<path d="M8.15998 6.91001C7.82998 6.96001 7.11998 7.30001 7.19998 7.75001C7.31998 8.39001 7.68998 8.14001 8.18998 8.04001L8.56998 8.17001C8.69998 8.31001 8.89998 8.43001 9.03998 8.27001H9.25998V9.14001H6.78998V7.03001L8.15998 6.90001V6.91001Z" fill="black" stroke="black" stroke-width="0.05" stroke-linecap="round" stroke-linejoin="round"/>
<path d="M7.05997 6.91001C7.14282 6.91001 7.20997 6.84285 7.20997 6.76001C7.20997 6.67717 7.14282 6.61001 7.05997 6.61001C6.97713 6.61001 6.90997 6.67717 6.90997 6.76001C6.90997 6.84285 6.97713 6.91001 7.05997 6.91001Z" fill="#FFD83D" stroke="black" stroke-width="0.06" stroke-linecap="round" stroke-linejoin="round"/>
<path d="M7.38999 6.83001C7.47283 6.83001 7.53999 6.76285 7.53999 6.68001C7.53999 6.59716 7.47283 6.53001 7.38999 6.53001C7.30715 6.53001 7.23999 6.59716 7.23999 6.68001C7.23999 6.76285 7.30715 6.83001 7.38999 6.83001Z" fill="#FFD83D" stroke="black" stroke-width="0.06" stroke-linecap="round" stroke-linejoin="round"/>
<path d="M7.73997 6.74C7.82281 6.74 7.88997 6.67285 7.88997 6.59C7.88997 6.50716 7.82281 6.44 7.73997 6.44C7.65712 6.44 7.58997 6.50716 7.58997 6.59C7.58997 6.67285 7.65712 6.74 7.73997 6.74Z" fill="#FFD83D" stroke="black" stroke-width="0.06" stroke-linecap="round" stroke-linejoin="round"/>
<path d="M8.07999 6.69001C8.16284 6.69001 8.22999 6.62285 8.22999 6.54001C8.22999 6.45716 8.16284 6.39001 8.07999 6.39001C7.99715 6.39001 7.92999 6.45716 7.92999 6.54001C7.92999 6.62285 7.99715 6.69001 8.07999 6.69001Z" fill="#FFD83D" stroke="black" stroke-width="0.06" stroke-linecap="round" stroke-linejoin="round"/>
<path d="M8.41999 6.65001C8.50283 6.65001 8.56999 6.58285 8.56999 6.50001C8.56999 6.41716 8.50283 6.35001 8.41999 6.35001C8.33715 6.35001 8.26999 6.41716 8.26999 6.50001C8.26999 6.58285 8.33715 6.65001 8.41999 6.65001Z" fill="#FFD83D" stroke="black" stroke-width="0.06" stroke-linecap="round" stroke-linejoin="round"/>
<path d="M8.75999 6.67C8.84283 6.67 8.90999 6.60285 8.90999 6.52C8.90999 6.43716 8.84283 6.37 8.75999 6.37C8.67714 6.37 8.60999 6.43716 8.60999 6.52C8.60999 6.60285 8.67714 6.67 8.75999 6.67Z" fill="#FFD83D" stroke="black" stroke-width="0.06" stroke-linecap="round" stroke-linejoin="round"/>
<path d="M9.07999 6.78C9.16284 6.78 9.22999 6.71285 9.22999 6.63C9.22999 6.54716 9.16284 6.48 9.07999 6.48C8.99715 6.48 8.92999 6.54716 8.92999 6.63C8.92999 6.71285 8.99715 6.78 9.07999 6.78Z" fill="#FFD83D" stroke="black" stroke-width="0.06" stroke-linecap="round" stroke-linejoin="round"/>
<path d="M9.34998 6.98001C9.43282 6.98001 9.49998 6.91285 9.49998 6.83001C9.49998 6.74717 9.43282 6.68001 9.34998 6.68001C9.26714 6.68001 9.19998 6.74717 9.19998 6.83001C9.19998 6.91285 9.26714 6.98001 9.34998 6.98001Z" fill="#FFD83D" stroke="black" stroke-width="0.06" stroke-linecap="round" stroke-linejoin="round"/>
<path d="M9.53998 7.26001C9.62283 7.26001 9.68998 7.19285 9.68998 7.11001C9.68998 7.02716 9.62283 6.96001 9.53998 6.96001C9.45714 6.96001 9.38998 7.02716 9.38998 7.11001C9.38998 7.19285 9.45714 7.26001 9.53998 7.26001Z" fill="#FFD83D" stroke="black" stroke-width="0.06" stroke-linecap="round" stroke-linejoin="round"/>
<path d="M9.62998 7.58001C9.71282 7.58001 9.77998 7.51285 9.77998 7.43001C9.77998 7.34716 9.71282 7.28001 9.62998 7.28001C9.54714 7.28001 9.47998 7.34716 9.47998 7.43001C9.47998 7.51285 9.54714 7.58001 9.62998 7.58001Z" fill="#FFD83D" stroke="black" stroke-width="0.06" stroke-linecap="round" stroke-linejoin="round"/>
<path d="M9.62998 7.92C9.71282 7.92 9.77998 7.85285 9.77998 7.77C9.77998 7.68716 9.71282 7.62 9.62998 7.62C9.54714 7.62 9.47998 7.68716 9.47998 7.77C9.47998 7.85285 9.54714 7.92 9.62998 7.92Z" fill="#FFD83D" stroke="black" stroke-width="0.06" stroke-linecap="round" stroke-linejoin="round"/>
<path d="M9.56998 8.25C9.65283 8.25 9.71998 8.18285 9.71998 8.10001C9.71998 8.01716 9.65283 7.95 9.56998 7.95C9.48714 7.95 9.41998 8.01716 9.41998 8.10001C9.41998 8.18285 9.48714 8.25 9.56998 8.25Z" fill="#FFD83D" stroke="black" stroke-width="0.06" stroke-linecap="round" stroke-linejoin="round"/>
<path d="M6.98999 6.96001V7.16001C7.37999 7.10001 7.90999 6.89001 8.39999 6.89001C8.85999 6.89001 9.20999 7.07001 9.20999 7.53001C9.20999 7.99001 9.01999 8.40001 8.75999 8.81001L9.02999 8.94001C9.26999 8.48001 9.45999 8.09001 9.45999 7.56001C9.45999 7.12001 9.10999 6.68001 8.50999 6.68001C7.97999 6.68001 7.43999 6.86001 6.98999 6.96001Z" fill="#FFD83D" stroke="black" stroke-width="0.06" stroke-linecap="round" stroke-linejoin="round"/>
<path d="M6.78 4.94L6.62 5.23L6.78 5.52L6.94 5.23L6.78 4.94ZM6.78 5.68L6.62 5.97L6.78 6.26L6.94 5.97L6.78 5.68Z" fill="#FFD83D" stroke="black" stroke-width="0.06" stroke-linecap="round" stroke-linejoin="round"/>
<path d="M6.22 5.61L6.47 5.77L6.72 5.61L6.47 5.45L6.22 5.61ZM6.84 5.61L7.09 5.77L7.34 5.61L7.09 5.45L6.84 5.61Z" fill="#FFD83D" stroke="black" stroke-width="0.06" stroke-linecap="round" stroke-linejoin="round"/>
<path d="M6.78 5.73001C6.84628 5.73001 6.9 5.67628 6.9 5.61001C6.9 5.54373 6.84628 5.49001 6.78 5.49001C6.71373 5.49001 6.66 5.54373 6.66 5.61001C6.66 5.67628 6.71373 5.73001 6.78 5.73001Z" fill="#FFD83D" stroke="black" stroke-width="0.06" stroke-linecap="round" stroke-linejoin="round"/>
<path d="M6.77999 6.69C6.95672 6.69 7.09999 6.54673 7.09999 6.37C7.09999 6.19327 6.95672 6.05 6.77999 6.05C6.60326 6.05 6.45999 6.19327 6.45999 6.37C6.45999 6.54673 6.60326 6.69 6.77999 6.69Z" fill="#FFD83D" stroke="black" stroke-width="0.06" stroke-linecap="round" stroke-linejoin="round"/>
<path d="M6.7 6.06001C6.7 6.15001 6.7 6.21001 6.7 6.26001C6.62 6.26001 6.55 6.27001 6.47 6.28001M7.08 6.28001C7.01 6.27001 6.93 6.26001 6.85 6.26001V6.06001M6.47 6.44001C6.57 6.42001 6.67 6.41001 6.78 6.41001C6.89 6.41001 6.99 6.41001 7.09 6.44001" stroke="black" stroke-width="0.05" stroke-linecap="round" stroke-linejoin="round"/>
<path d="M6.46999 6.9C6.43999 7.42 6.37999 7.95 6.17999 8.33L6.50999 8.2C6.61999 7.76 6.64999 7.2 6.67999 6.94L6.46999 6.9ZM7.08999 6.9L6.87999 6.94C6.90999 7.21 6.93999 7.77 7.04999 8.2L7.37999 8.33C7.17999 7.95 7.11999 7.42 7.08999 6.9Z" fill="#FFD83D" stroke="black" stroke-width="0.06" stroke-linecap="round" stroke-linejoin="round"/>
<path d="M6.77999 8.03C6.38999 8.03 6.09999 8.21 6.07999 8.69C5.97999 8.52 5.57999 7.99 5.19999 8.06C4.96999 8.1 4.77999 8.41 4.80999 8.77C4.61999 8.23 4.07999 8.15 3.67999 8.46C4.02999 8.75 4.18999 9.61 4.48999 9.98H9.06999C9.36999 9.61 9.52999 8.75 9.87999 8.46C9.47999 8.14 8.93999 8.23 8.74999 8.77C8.77999 8.41 8.57999 8.1 8.35999 8.06C7.97999 7.99 7.57999 8.52 7.47999 8.69C7.45999 8.22 7.16999 8.03 6.77999 8.03Z" fill="#FFD83D" stroke="black" stroke-width="0.06" stroke-linecap="round" stroke-linejoin="round"/>
<path d="M9.06 9.98C9.06 10.15 8.04 10.34 6.78 10.34C5.52 10.34 4.5 10.15 4.5 9.98C4.5 9.81 5.52 9.72 6.78 9.72C8.04 9.72 9.06 9.81 9.06 9.98Z" fill="black" stroke="black" stroke-width="0.05" stroke-linecap="round" stroke-linejoin="round"/>
<path d="M6.77998 6.92C6.84073 6.92 6.88998 6.87076 6.88998 6.81C6.88998 6.74925 6.84073 6.7 6.77998 6.7C6.71923 6.7 6.66998 6.74925 6.66998 6.81C6.66998 6.87076 6.71923 6.92 6.77998 6.92Z" fill="#FFD83D" stroke="black" stroke-width="0.05" stroke-linecap="round" stroke-linejoin="round"/>
<path d="M6.77998 7.15001C6.84073 7.15001 6.88998 7.10076 6.88998 7.04001C6.88998 6.97926 6.84073 6.93001 6.77998 6.93001C6.71923 6.93001 6.66998 6.97926 6.66998 7.04001C6.66998 7.10076 6.71923 7.15001 6.77998 7.15001Z" fill="#FFD83D" stroke="black" stroke-width="0.05" stroke-linecap="round" stroke-linejoin="round"/>
<path d="M6.77997 7.4C6.84625 7.4 6.89997 7.34628 6.89997 7.28C6.89997 7.21373 6.84625 7.16 6.77997 7.16C6.7137 7.16 6.65997 7.21373 6.65997 7.28C6.65997 7.34628 6.7137 7.4 6.77997 7.4Z" fill="#FFD83D" stroke="black" stroke-width="0.05" stroke-linecap="round" stroke-linejoin="round"/>
<path d="M6.77998 7.70001C6.8573 7.70001 6.91998 7.63733 6.91998 7.56001C6.91998 7.48269 6.8573 7.42001 6.77998 7.42001C6.70266 7.42001 6.63998 7.48269 6.63998 7.56001C6.63998 7.63733 6.70266 7.70001 6.77998 7.70001Z" fill="#FFD83D" stroke="black" stroke-width="0.05" stroke-linecap="round" stroke-linejoin="round"/>
<path d="M6.78 8.03001C6.86836 8.03001 6.94 7.95837 6.94 7.87001C6.94 7.78164 6.86836 7.71001 6.78 7.71001C6.69163 7.71001 6.62 7.78164 6.62 7.87001C6.62 7.95837 6.69163 8.03001 6.78 8.03001Z" fill="#FFD83D" stroke="black" stroke-width="0.05" stroke-linecap="round" stroke-linejoin="round"/>
<path d="M6.71999 8.17001C6.71999 8.17001 6.68999 8.18001 6.68999 8.21001C6.68999 8.24001 6.69999 8.30001 6.70999 8.34001C6.70999 8.39001 6.73999 8.37001 6.74999 8.34001C6.74999 8.30001 6.74999 8.28001 6.74999 8.22001C6.74999 8.19001 6.72999 8.17001 6.71999 8.17001ZM6.83999 8.17001C6.83999 8.17001 6.79999 8.18001 6.80999 8.22001C6.80999 8.29001 6.80999 8.31001 6.80999 8.34001C6.80999 8.38001 6.83999 8.39001 6.84999 8.34001C6.84999 8.30001 6.85999 8.24001 6.86999 8.21001C6.86999 8.18001 6.85999 8.17001 6.83999 8.17001ZM6.60999 8.18001C6.60999 8.18001 6.57999 8.20001 6.57999 8.21001C6.57999 8.24001 6.58999 8.28001 6.58999 8.32001C6.58999 8.37001 6.62999 8.35001 6.62999 8.32001C6.62999 8.29001 6.62999 8.25001 6.62999 8.20001C6.62999 8.18001 6.62999 8.17001 6.60999 8.17001V8.18001ZM6.93999 8.18001C6.93999 8.18001 6.91999 8.18001 6.91999 8.21001C6.91999 8.26001 6.91999 8.30001 6.91999 8.33001C6.91999 8.36001 6.95999 8.38001 6.95999 8.33001C6.95999 8.28001 6.96999 8.25001 6.96999 8.22001C6.96999 8.20001 6.94999 8.19001 6.93999 8.19001V8.18001ZM6.46999 8.24001C6.46999 8.24001 6.43999 8.26001 6.44999 8.28001C6.44999 8.32001 6.46999 8.36001 6.46999 8.40001C6.46999 8.43001 6.49999 8.42001 6.49999 8.40001C6.49999 8.38001 6.49999 8.33001 6.49999 8.28001C6.49999 8.25001 6.48999 8.24001 6.46999 8.24001ZM7.06999 8.24001C7.06999 8.24001 7.04999 8.25001 7.04999 8.28001C7.04999 8.33001 7.04999 8.38001 7.04999 8.40001C7.04999 8.42001 7.07999 8.44001 7.07999 8.40001C7.07999 8.36001 7.07999 8.32001 7.09999 8.28001C7.09999 8.26001 7.09999 8.24001 7.07999 8.24001H7.06999ZM5.27999 8.24001C5.27999 8.24001 5.24999 8.26001 5.25999 8.29001C5.27999 8.33001 5.29999 8.36001 5.31999 8.40001C5.33999 8.44001 5.35999 8.41001 5.34999 8.39001C5.34999 8.36001 5.32999 8.33001 5.30999 8.28001C5.30999 8.26001 5.28999 8.25001 5.27999 8.25001V8.24001ZM8.27999 8.24001C8.27999 8.24001 8.25999 8.24001 8.24999 8.27001C8.21999 8.33001 8.21999 8.36001 8.20999 8.38001C8.20999 8.41001 8.22999 8.43001 8.23999 8.39001C8.25999 8.35001 8.27999 8.32001 8.29999 8.28001C8.30999 8.25001 8.29999 8.23001 8.27999 8.23001V8.24001ZM5.39999 8.24001C5.39999 8.24001 5.37999 8.26001 5.38999 8.28001C5.40999 8.32001 5.42999 8.35001 5.43999 8.39001C5.44999 8.43001 5.47999 8.42001 5.46999 8.39001C5.45999 8.36001 5.45999 8.34001 5.43999 8.28001C5.42999 8.25001 5.40999 8.24001 5.39999 8.24001ZM8.14999 8.24001C8.14999 8.24001 8.12999 8.25001 8.11999 8.28001C8.09999 8.34001 8.09999 8.36001 8.08999 8.39001C8.07999 8.42001 8.10999 8.43001 8.11999 8.39001C8.13999 8.35001 8.15999 8.31001 8.16999 8.28001C8.16999 8.26001 8.16999 8.25001 8.15999 8.24001H8.14999ZM5.54999 8.27001C5.54999 8.27001 5.51999 8.30001 5.52999 8.33001C5.53999 8.37001 5.55999 8.40001 5.57999 8.44001C5.59999 8.48001 5.61999 8.47001 5.61999 8.44001C5.61999 8.41001 5.60999 8.37001 5.57999 8.30001C5.57999 8.27001 5.55999 8.26001 5.53999 8.26001L5.54999 8.27001ZM8.00999 8.27001C8.00999 8.27001 7.97999 8.27001 7.96999 8.31001C7.94999 8.38001 7.93999 8.42001 7.92999 8.45001C7.92999 8.48001 7.94999 8.49001 7.96999 8.45001C7.98999 8.41001 8.00999 8.37001 8.01999 8.34001C8.02999 8.31001 8.01999 8.29001 7.99999 8.28001L8.00999 8.27001ZM5.17999 8.29001C5.17999 8.29001 5.14999 8.32001 5.15999 8.34001C5.17999 8.37001 5.18999 8.39001 5.19999 8.42001C5.21999 8.46001 5.23999 8.42001 5.22999 8.40001C5.22999 8.38001 5.20999 8.35001 5.20999 8.32001C5.20999 8.30001 5.18999 8.29001 5.17999 8.29001ZM8.37999 8.29001C8.37999 8.29001 8.35999 8.29001 8.34999 8.32001C8.34999 8.35001 8.32999 8.38001 8.32999 8.40001C8.32999 8.42001 8.33999 8.45001 8.35999 8.42001C8.37999 8.38001 8.38999 8.37001 8.39999 8.34001C8.40999 8.32001 8.39999 8.29001 8.37999 8.29001ZM6.34999 8.38001C6.34999 8.38001 6.30999 8.40001 6.31999 8.43001C6.32999 8.47001 6.34999 8.50001 6.35999 8.54001C6.36999 8.58001 6.39999 8.56001 6.39999 8.54001C6.39999 8.51001 6.39999 8.48001 6.37999 8.42001C6.37999 8.40001 6.36999 8.39001 6.34999 8.39001V8.38001ZM7.20999 8.38001C7.20999 8.38001 7.18999 8.38001 7.17999 8.41001C7.16999 8.47001 7.15999 8.50001 7.15999 8.53001C7.15999 8.56001 7.18999 8.58001 7.19999 8.53001C7.20999 8.48001 7.22999 8.45001 7.23999 8.42001C7.23999 8.40001 7.22999 8.37001 7.20999 8.37001V8.38001ZM6.77999 8.41001C6.77999 8.41001 6.75999 8.44001 6.74999 8.46001C6.74999 8.54001 6.71999 8.61001 6.68999 8.65001C6.65999 8.69001 6.61999 8.68001 6.57999 8.65001C6.53999 8.62001 6.51999 8.61001 6.47999 8.58001C6.43999 8.55001 6.40999 8.57001 6.45999 8.64001C6.59999 8.84001 6.74999 9.01001 6.74999 9.34001C6.74999 9.38001 6.74999 9.40001 6.77999 9.40001C6.80999 9.40001 6.80999 9.39001 6.80999 9.34001C6.80999 9.01001 6.95999 8.84001 7.09999 8.64001C7.14999 8.57001 7.11999 8.55001 7.07999 8.58001C7.03999 8.61001 7.01999 8.63001 6.97999 8.65001C6.93999 8.67001 6.89999 8.68001 6.86999 8.65001C6.83999 8.61001 6.80999 8.54001 6.80999 8.46001C6.80999 8.44001 6.80999 8.41001 6.77999 8.41001ZM5.70999 8.36001C5.70999 8.36001 5.69999 8.37001 5.69999 8.39001C5.69999 8.42001 5.72999 8.48001 5.73999 8.51001C5.73999 8.54001 5.77999 8.53001 5.77999 8.49001C5.77999 8.45001 5.77999 8.44001 5.75999 8.40001C5.75999 8.38001 5.73999 8.36001 5.71999 8.36001H5.70999ZM7.84999 8.36001C7.84999 8.36001 7.81999 8.38001 7.80999 8.40001C7.79999 8.44001 7.80999 8.46001 7.78999 8.49001C7.78999 8.53001 7.81999 8.53001 7.82999 8.51001C7.82999 8.48001 7.85999 8.42001 7.86999 8.39001C7.86999 8.37001 7.86999 8.36001 7.85999 8.36001H7.84999ZM5.06999 8.38001C5.06999 8.38001 5.03999 8.40001 5.05999 8.44001C5.07999 8.48001 5.10999 8.52001 5.12999 8.54001C5.14999 8.56001 5.16999 8.54001 5.14999 8.52001C5.12999 8.49001 5.12999 8.45001 5.09999 8.41001C5.09999 8.39001 5.07999 8.39001 5.06999 8.39001V8.38001ZM8.48999 8.38001C8.48999 8.38001 8.46999 8.38001 8.45999 8.40001C8.43999 8.45001 8.42999 8.48001 8.40999 8.51001C8.38999 8.54001 8.40999 8.56001 8.42999 8.53001C8.44999 8.50001 8.47999 8.46001 8.49999 8.43001C8.51999 8.40001 8.49999 8.38001 8.48999 8.37001V8.38001ZM4.10999 8.48001C4.10999 8.48001 4.07999 8.52001 4.10999 8.54001C4.13999 8.58001 4.15999 8.59001 4.18999 8.62001C4.21999 8.64001 4.21999 8.62001 4.20999 8.59001C4.19999 8.57001 4.17999 8.54001 4.14999 8.51001C4.13999 8.49001 4.11999 8.48001 4.10999 8.48001ZM9.44999 8.48001C9.44999 8.48001 9.42999 8.48001 9.40999 8.51001C9.37999 8.55001 9.36999 8.57001 9.34999 8.59001C9.33999 8.61001 9.34999 8.64001 9.36999 8.62001C9.39999 8.59001 9.41999 8.57001 9.44999 8.54001C9.46999 8.52001 9.45999 8.48001 9.44999 8.48001ZM4.25999 8.51001C4.25999 8.51001 4.22999 8.52001 4.24999 8.55001C4.26999 8.59001 4.28999 8.63001 4.30999 8.66001C4.32999 8.69001 4.36999 8.70001 4.34999 8.66001C4.32999 8.61001 4.32999 8.59001 4.30999 8.55001C4.30999 8.53001 4.27999 8.52001 4.25999 8.52001V8.51001ZM9.29999 8.51001C9.29999 8.51001 9.25999 8.52001 9.24999 8.54001C9.22999 8.58001 9.22999 8.61001 9.20999 8.65001C9.18999 8.70001 9.23999 8.69001 9.24999 8.65001C9.26999 8.62001 9.28999 8.57001 9.30999 8.54001C9.31999 8.51001 9.30999 8.50001 9.29999 8.50001V8.51001ZM3.95999 8.52001C3.95999 8.52001 3.92999 8.54001 3.95999 8.56001C3.98999 8.58001 4.01999 8.60001 4.04999 8.63001C4.08999 8.66001 4.09999 8.63001 4.07999 8.61001C4.05999 8.58001 4.03999 8.56001 3.98999 8.53001C3.97999 8.53001 3.96999 8.53001 3.95999 8.53001V8.52001ZM9.58999 8.52001C9.58999 8.52001 9.56999 8.52001 9.55999 8.52001C9.50999 8.55001 9.48999 8.57001 9.46999 8.60001C9.44999 8.63001 9.46999 8.65001 9.49999 8.62001C9.52999 8.59001 9.56999 8.57001 9.58999 8.55001C9.60999 8.53001 9.60999 8.51001 9.58999 8.51001V8.52001ZM6.25999 8.54001C6.25999 8.54001 6.23999 8.56001 6.23999 8.58001C6.24999 8.62001 6.25999 8.65001 6.26999 8.69001C6.26999 8.73001 6.31999 8.73001 6.30999 8.69001C6.30999 8.66001 6.29999 8.62001 6.28999 8.57001C6.28999 8.55001 6.27999 8.54001 6.26999 8.54001H6.25999ZM7.28999 8.54001C7.28999 8.54001 7.26999 8.55001 7.26999 8.57001C7.25999 8.62001 7.24999 8.66001 7.24999 8.69001C7.24999 8.72001 7.27999 8.72001 7.28999 8.69001C7.28999 8.65001 7.30999 8.62001 7.31999 8.58001C7.31999 8.56001 7.31999 8.55001 7.29999 8.54001H7.28999ZM5.34999 8.48001C5.34999 8.48001 5.32999 8.50001 5.34999 8.53001C5.38999 8.68001 5.40999 8.76001 5.39999 8.80001C5.39999 8.84001 5.36999 8.84001 5.33999 8.83001C5.30999 8.82001 5.27999 8.80001 5.24999 8.78001C5.21999 8.76001 5.19999 8.78001 5.22999 8.81001C5.40999 8.96001 5.53999 9.13001 5.58999 9.34001C5.59999 9.38001 5.62999 9.39001 5.61999 9.34001C5.57999 9.08001 5.56999 8.86001 5.62999 8.72001C5.64999 8.67001 5.62999 8.62001 5.58999 8.70001C5.55999 8.76001 5.51999 8.78001 5.48999 8.73001C5.45999 8.68001 5.38999 8.55001 5.36999 8.50001C5.36999 8.48001 5.34999 8.47001 5.34999 8.47001V8.48001ZM8.19999 8.48001C8.19999 8.48001 8.17999 8.49001 8.17999 8.51001C8.15999 8.57001 8.08999 8.70001 8.05999 8.74001C8.02999 8.79001 7.98999 8.77001 7.95999 8.71001C7.91999 8.63001 7.89999 8.68001 7.91999 8.73001C7.97999 8.87001 7.96999 9.08001 7.92999 9.35001C7.92999 9.40001 7.94999 9.39001 7.95999 9.35001C8.00999 9.14001 8.13999 8.97001 8.31999 8.82001C8.35999 8.79001 8.32999 8.77001 8.29999 8.79001C8.26999 8.81001 8.23999 8.83001 8.20999 8.84001C8.17999 8.85001 8.15999 8.84001 8.14999 8.81001C8.14999 8.77001 8.14999 8.69001 8.19999 8.54001C8.19999 8.51001 8.19999 8.49001 8.19999 8.49001V8.48001ZM4.41999 8.55001C4.41999 8.55001 4.38999 8.56001 4.39999 8.59001C4.40999 8.63001 4.43999 8.67001 4.44999 8.70001C4.44999 8.73001 4.48999 8.71001 4.47999 8.68001C4.46999 8.65001 4.47999 8.62001 4.46999 8.59001C4.46999 8.57001 4.44999 8.56001 4.42999 8.56001L4.41999 8.55001ZM9.12999 8.55001C9.12999 8.55001 9.08999 8.56001 9.08999 8.58001C9.08999 8.62001 9.08999 8.64001 9.07999 8.67001C9.06999 8.70001 9.09999 8.72001 9.10999 8.69001C9.10999 8.66001 9.13999 8.62001 9.15999 8.58001C9.15999 8.55001 9.15999 8.54001 9.13999 8.54001L9.12999 8.55001ZM4.98999 8.50001C4.98999 8.50001 4.96999 8.55001 4.98999 8.57001C5.00999 8.60001 5.03999 8.63001 5.06999 8.67001C5.09999 8.70001 5.10999 8.67001 5.09999 8.65001C5.07999 8.62001 5.05999 8.60001 5.01999 8.53001C5.00999 8.51001 4.99999 8.51001 4.99999 8.51001L4.98999 8.50001ZM8.55999 8.50001C8.55999 8.50001 8.54999 8.50001 8.53999 8.52001C8.49999 8.58001 8.47999 8.61001 8.45999 8.64001C8.43999 8.67001 8.45999 8.69001 8.48999 8.66001C8.51999 8.62001 8.54999 8.59001 8.56999 8.56001C8.58999 8.54001 8.57999 8.49001 8.56999 8.49001L8.55999 8.50001ZM4.54999 8.62001C4.54999 8.62001 4.52999 8.62001 4.52999 8.65001C4.52999 8.68001 4.54999 8.71001 4.55999 8.74001C4.55999 8.77001 4.58999 8.77001 4.58999 8.74001C4.58999 8.71001 4.58999 8.68001 4.57999 8.64001C4.57999 8.62001 4.55999 8.61001 4.54999 8.61001V8.62001ZM8.99999 8.62001C8.99999 8.62001 8.96999 8.63001 8.96999 8.65001C8.96999 8.68001 8.95999 8.72001 8.95999 8.75001C8.95999 8.78001 8.97999 8.79001 8.98999 8.75001C8.98999 8.72001 9.00999 8.69001 9.01999 8.66001C9.01999 8.64001 9.01999 8.63001 8.99999 8.63001V8.62001ZM4.94999 8.66001C4.94999 8.66001 4.90999 8.68001 4.93999 8.71001C4.97999 8.76001 5.00999 8.79001 5.02999 8.80001C5.03999 8.82001 5.07999 8.81001 5.05999 8.78001C5.03999 8.74001 4.99999 8.70001 4.98999 8.67001C4.98999 8.66001 4.96999 8.66001 4.95999 8.66001H4.94999ZM8.59999 8.66001C8.59999 8.66001 8.57999 8.66001 8.57999 8.67001C8.55999 8.70001 8.52999 8.74001 8.50999 8.78001C8.48999 8.82001 8.51999 8.82001 8.53999 8.80001C8.54999 8.78001 8.58999 8.75001 8.62999 8.71001C8.64999 8.68001 8.62999 8.66001 8.61999 8.66001H8.59999ZM4.31999 8.79001C4.31999 8.79001 4.29999 8.80001 4.31999 8.83001C4.36999 8.89001 4.41999 8.99001 4.41999 9.03001C4.41999 9.07001 4.39999 9.07001 4.37999 9.07001C4.31999 9.07001 4.29999 9.03001 4.24999 9.02001C4.19999 9.01001 4.18999 9.03001 4.22999 9.06001C4.40999 9.19001 4.59999 9.34001 4.66999 9.48001C4.69999 9.54001 4.73999 9.56001 4.71999 9.50001C4.64999 9.34001 4.62999 9.20001 4.64999 9.12001C4.66999 9.04001 4.68999 8.98001 4.67999 8.93001C4.67999 8.88001 4.64999 8.89001 4.63999 8.93001C4.63999 8.96001 4.61999 9.00001 4.60999 9.02001C4.59999 9.04001 4.55999 9.04001 4.51999 8.99001C4.47999 8.94001 4.37999 8.84001 4.34999 8.81001C4.33999 8.81001 4.32999 8.79001 4.31999 8.79001ZM9.22999 8.79001C9.22999 8.79001 9.20999 8.79001 9.19999 8.81001C9.16999 8.84001 9.06999 8.94001 9.02999 8.99001C8.98999 9.04001 8.94999 9.03001 8.93999 9.02001C8.92999 9.00001 8.91999 8.96001 8.90999 8.93001C8.89999 8.89001 8.86999 8.88001 8.86999 8.93001C8.86999 8.98001 8.88999 9.03001 8.89999 9.12001C8.91999 9.20001 8.89999 9.34001 8.82999 9.50001C8.80999 9.55001 8.84999 9.53001 8.87999 9.48001C8.94999 9.34001 9.13999 9.19001 9.31999 9.06001C9.35999 9.03001 9.34999 9.01001 9.29999 9.02001C9.24999 9.03001 9.21999 9.07001 9.16999 9.07001C9.14999 9.07001 9.12999 9.07001 9.12999 9.03001C9.12999 8.99001 9.17999 8.90001 9.22999 8.83001C9.24999 8.80001 9.23999 8.79001 9.22999 8.79001Z" fill="black"/>
<path d="M4.59998 9.79001L4.65998 9.98001L4.59998 9.79001ZM4.71998 9.75001L4.76998 9.94001L4.71998 9.75001ZM4.84998 9.73001L4.88998 9.92001L4.84998 9.73001ZM4.96998 9.71001L5.00998 9.90001L4.96998 9.71001ZM5.12998 9.69001L5.15998 9.88001L5.12998 9.69001ZM5.28998 9.69001L5.31998 9.88001L5.28998 9.69001ZM5.45998 9.64001L5.47998 9.84001L5.45998 9.64001ZM5.60998 9.65001L5.62998 9.85001L5.60998 9.65001ZM5.75998 9.63001L5.77998 9.83001L5.75998 9.63001ZM5.90998 9.61001V9.81001V9.61001ZM6.06998 9.61001V9.81001V9.61001ZM6.20998 9.60001V9.80001V9.60001ZM6.36998 9.59001V9.79001V9.59001ZM6.54998 9.59001V9.79001V9.59001ZM8.95998 9.79001L8.89998 9.98001L8.95998 9.79001ZM8.83998 9.75001L8.78998 9.94001L8.83998 9.75001ZM8.70998 9.73001L8.66998 9.92001L8.70998 9.73001ZM8.57998 9.71001L8.53998 9.90001L8.57998 9.71001ZM8.42998 9.69001L8.39998 9.88001L8.42998 9.69001ZM8.25998 9.69001L8.22998 9.88001L8.25998 9.69001ZM8.09998 9.64001L8.07998 9.84001L8.09998 9.64001ZM7.94998 9.65001L7.92998 9.85001L7.94998 9.65001ZM7.79998 9.63001L7.77998 9.83001L7.79998 9.63001ZM7.64998 9.61001V9.81001V9.61001ZM7.48998 9.61001V9.81001V9.61001ZM7.34998 9.60001V9.80001V9.60001ZM7.18998 9.59001V9.79001V9.59001ZM7.00998 9.59001V9.79001V9.59001ZM6.77998 9.57001V9.79001V9.57001Z" fill="#FFD83D"/>
<path d="M4.59998 9.79001L4.65998 9.98001M4.71998 9.75001L4.76998 9.94001M4.84998 9.73001L4.88998 9.92001M4.96998 9.71001L5.00998 9.90001M5.12998 9.69001L5.15998 9.88001M5.28998 9.69001L5.31998 9.88001M5.45998 9.64001L5.47998 9.84001M5.60998 9.65001L5.62998 9.85001M5.75998 9.63001L5.77998 9.83001M5.90998 9.61001V9.81001M6.06998 9.61001V9.81001M6.20998 9.60001V9.80001M6.36998 9.59001V9.79001M6.54998 9.59001V9.79001M8.95998 9.79001L8.89998 9.98001M8.83998 9.75001L8.78998 9.94001M8.70998 9.73001L8.66998 9.92001M8.57998 9.71001L8.53998 9.90001M8.42998 9.69001L8.39998 9.88001M8.25998 9.69001L8.22998 9.88001M8.09998 9.64001L8.07998 9.84001M7.94998 9.65001L7.92998 9.85001M7.79998 9.63001L7.77998 9.83001M7.64998 9.61001V9.81001M7.48998 9.61001V9.81001M7.34998 9.60001V9.80001M7.18998 9.59001V9.79001M7.00998 9.59001V9.79001M6.77998 9.57001V9.79001" stroke="black" stroke-width="0.05" stroke-linecap="round" stroke-linejoin="round"/>
</g>
</g>
<defs>
<clipPath id="clip0_161_12568">
<rect width="24" height="24" fill="white"/>
</clipPath>
</defs>
</svg>
