<svg width="24" height="24" viewBox="0 0 24 24" fill="none" xmlns="http://www.w3.org/2000/svg">
<g clip-path="url(#clip0_170_14839)">
<mask id="mask0_170_14839" style="mask-type:luminance" maskUnits="userSpaceOnUse" x="0" y="0" width="24" height="24">
<path d="M12 24C18.6274 24 24 18.6274 24 12C24 5.37258 18.6274 0 12 0C5.37258 0 0 5.37258 0 12C0 18.6274 5.37258 24 12 24Z" fill="white"/>
</mask>
<g mask="url(#mask0_170_14839)">
<path d="M0 0H24V24H0V0Z" fill="black"/>
<path d="M12 12.23C14.1373 12.23 15.87 10.4973 15.87 8.36C15.87 6.22266 14.1373 4.49 12 4.49C9.86266 4.49 8.13 6.22266 8.13 8.36C8.13 10.4973 9.86266 12.23 12 12.23Z" fill="#CE1126"/>
<path d="M12 2.24C11.87 2.24 11.82 2.44 11.82 2.63C11.82 3.1 11.88 3.35 12 4.04C12.12 3.35 12.18 3.1 12.18 2.63C12.18 2.43 12.13 2.24 12 2.24Z" fill="#CE1126"/>
<path d="M12.53 2.26C12.4 2.25 12.33 2.44 12.32 2.63C12.28 3.1 12.32 3.35 12.38 4.05C12.56 3.37 12.64 3.13 12.68 2.66C12.7 2.47 12.66 2.27 12.53 2.26Z" fill="#CE1126"/>
<path d="M13.06 2.33C12.93 2.31 12.85 2.49 12.81 2.68C12.73 3.14 12.74 3.4 12.74 4.1C12.98 3.44 13.08 3.2 13.16 2.74C13.19 2.55 13.18 2.35 13.05 2.32L13.06 2.33Z" fill="#CE1126"/>
<path d="M13.59 2.44C13.46 2.41 13.37 2.58 13.31 2.77C13.19 3.22 13.18 3.48 13.12 4.18C13.42 3.54 13.54 3.32 13.66 2.86C13.71 2.67 13.71 2.47 13.59 2.44Z" fill="#CE1126"/>
<path d="M14.09 2.61C13.97 2.57 13.85 2.73 13.79 2.92C13.63 3.36 13.6 3.61 13.48 4.31C13.83 3.7 13.97 3.49 14.13 3.05C14.2 2.87 14.22 2.67 14.09 2.62V2.61Z" fill="#CE1126"/>
<path d="M14.59 2.80999C14.47 2.75999 14.34 2.90999 14.26 3.08999C14.06 3.51999 14.01 3.75999 13.83 4.43999C14.23 3.85999 14.39 3.65999 14.59 3.23999C14.67 3.05999 14.71 2.86999 14.59 2.80999Z" fill="#CE1126"/>
<path d="M15.06 3.05999C14.95 2.98999 14.81 3.13999 14.71 3.30999C14.47 3.71999 14.4 3.95999 14.16 4.61999C14.61 4.07999 14.79 3.89999 15.02 3.48999C15.12 3.31999 15.17 3.12999 15.06 3.05999Z" fill="#CE1126"/>
<path d="M15.51 3.33999C15.4 3.26999 15.25 3.39999 15.14 3.55999C14.87 3.94999 14.78 4.17999 14.48 4.81999C14.98 4.31999 15.17 4.14999 15.44 3.76999C15.55 3.60999 15.62 3.41999 15.52 3.34999L15.51 3.33999Z" fill="#CE1126"/>
<path d="M15.94 3.67C15.84 3.59 15.68 3.7 15.55 3.85C15.25 4.21 15.13 4.44 14.78 5.05C15.32 4.6 15.52 4.45 15.82 4.08C15.95 3.93 16.03 3.75 15.93 3.67H15.94Z" fill="#CE1126"/>
<path d="M16.33 4.03C16.24 3.94 16.06 4.04 15.93 4.18C15.6 4.51 15.46 4.73 15.06 5.31C15.64 4.91 15.85 4.77 16.19 4.44C16.33 4.3 16.43 4.13 16.34 4.04L16.33 4.03Z" fill="#CE1126"/>
<path d="M16.69 4.42C16.61 4.32 16.42 4.41 16.28 4.53C15.92 4.83 15.77 5.03 15.31 5.57C15.92 5.22 16.15 5.1 16.51 4.8C16.66 4.67 16.78 4.51 16.69 4.41V4.42Z" fill="#CE1126"/>
<path d="M17.02 4.85001C16.95 4.74001 16.76 4.81001 16.6 4.93001C16.21 5.20001 16.05 5.39001 15.55 5.89001C16.19 5.59001 16.42 5.50001 16.81 5.23001C16.97 5.12001 17.1 4.97001 17.03 4.86001L17.02 4.85001Z" fill="#CE1126"/>
<path d="M17.3 5.3C17.23 5.19 17.04 5.24 16.87 5.34C16.46 5.58 16.28 5.75 15.74 6.2C16.4 5.96 16.64 5.89 17.05 5.65C17.22 5.55 17.36 5.41 17.3 5.3Z" fill="#CE1126"/>
<path d="M17.55 5.77C17.5 5.65 17.3 5.69 17.12 5.77C16.69 5.97 16.5 6.12 15.92 6.53C16.6 6.35 16.85 6.3 17.27 6.1C17.45 6.02 17.6 5.89 17.55 5.77Z" fill="#CE1126"/>
<path d="M17.76 6.27001C17.72 6.15001 17.52 6.17001 17.33 6.23001C16.89 6.39001 16.68 6.53001 16.07 6.88001C16.76 6.76001 17.02 6.73001 17.46 6.57001C17.64 6.50001 17.81 6.39001 17.77 6.27001H17.76Z" fill="#CE1126"/>
<path d="M17.92 6.78001C17.89 6.65001 17.68 6.66 17.5 6.71C17.05 6.83 16.82 6.95 16.18 7.25C16.88 7.19 17.14 7.18 17.59 7.06C17.78 7.01 17.95 6.91001 17.92 6.78001Z" fill="#CE1126"/>
<path d="M5.96999 7.3C5.94999 7.43 6.12999 7.51 6.31999 7.55C6.77999 7.63 7.03999 7.62 7.73999 7.62C7.07999 7.38 6.83999 7.28 6.37999 7.2C6.18999 7.17 5.98999 7.18 5.95999 7.31L5.96999 7.3Z" fill="#CE1126"/>
<path d="M6.07999 6.78C6.04999 6.91 6.21999 7 6.40999 7.06C6.85999 7.18 7.11999 7.19 7.81999 7.25C7.17999 6.95 6.95999 6.83 6.49999 6.71C6.30999 6.66 6.10999 6.66 6.07999 6.78Z" fill="#CE1126"/>
<path d="M6.23998 6.27C6.19998 6.39 6.35998 6.51 6.54998 6.57C6.98998 6.73 7.23998 6.76 7.93998 6.88C7.32998 6.53 7.11998 6.39 6.67998 6.23C6.49998 6.16 6.29998 6.14 6.24998 6.27H6.23998Z" fill="#CE1126"/>
<path d="M6.44998 5.77C6.39998 5.89 6.54998 6.02 6.72998 6.1C7.15998 6.3 7.39998 6.35 8.07998 6.53C7.49998 6.13 7.29998 5.97 6.87998 5.77C6.69998 5.69 6.50998 5.65 6.44998 5.77Z" fill="#CE1126"/>
<path d="M6.69999 5.3C6.62999 5.41 6.77999 5.55 6.94999 5.65C7.35999 5.89 7.59999 5.96 8.25999 6.2C7.71999 5.75 7.53999 5.57 7.12999 5.34C6.95999 5.24 6.76999 5.19 6.69999 5.3Z" fill="#CE1126"/>
<path d="M6.97998 4.85C6.90998 4.96 7.03998 5.11 7.19998 5.22C7.58998 5.49 7.81998 5.58 8.45998 5.88C7.95998 5.38 7.78998 5.19 7.40998 4.92C7.24998 4.81 7.05998 4.74 6.98998 4.84L6.97998 4.85Z" fill="#CE1126"/>
<path d="M7.30999 4.42C7.22999 4.52 7.33998 4.68 7.48998 4.81C7.84998 5.11 8.07998 5.23 8.68998 5.58C8.23998 5.04 8.08998 4.84 7.71998 4.54C7.56998 4.41 7.38999 4.33 7.30999 4.43V4.42Z" fill="#CE1126"/>
<path d="M7.66999 4.03C7.57999 4.12 7.67999 4.3 7.81999 4.43C8.14999 4.76 8.36999 4.9 8.94999 5.3C8.54999 4.72 8.40999 4.51 8.07999 4.17C7.93999 4.03 7.76999 3.93 7.67999 4.02L7.66999 4.03Z" fill="#CE1126"/>
<path d="M8.05999 3.67C7.95999 3.75 8.04999 3.94 8.16999 4.08C8.46999 4.44 8.66999 4.59 9.20999 5.05C8.85999 4.44 8.73999 4.21 8.43999 3.85C8.30999 3.7 8.14999 3.58 8.04999 3.67H8.05999Z" fill="#CE1126"/>
<path d="M8.48998 3.34C8.37998 3.41 8.44998 3.6 8.56998 3.76C8.83998 4.15 9.02998 4.31 9.52998 4.81C9.22998 4.17 9.13998 3.94 8.86998 3.55C8.75998 3.39 8.60998 3.26 8.49998 3.33L8.48998 3.34Z" fill="#CE1126"/>
<path d="M8.93999 3.06C8.82999 3.13 8.87999 3.32 8.97999 3.49C9.21999 3.9 9.38999 4.08 9.83999 4.62C9.59999 3.96 9.52999 3.72 9.28999 3.31C9.18999 3.14 9.04999 3 8.93999 3.06Z" fill="#CE1126"/>
<path d="M9.40999 2.81C9.28999 2.86 9.32999 3.06 9.40999 3.24C9.60999 3.67 9.75999 3.86 10.17 4.44C9.98999 3.76 9.93999 3.51 9.73999 3.09C9.65999 2.91 9.52999 2.76 9.40999 2.81Z" fill="#CE1126"/>
<path d="M9.90998 2.61C9.78998 2.65 9.80998 2.85 9.86998 3.04C10.03 3.48 10.17 3.69 10.52 4.3C10.4 3.61 10.37 3.35 10.21 2.91C10.14 2.73 10.03 2.56 9.90998 2.6V2.61Z" fill="#CE1126"/>
<path d="M10.41 2.44C10.28 2.47 10.29 2.68 10.34 2.86C10.46 3.31 10.58 3.54 10.88 4.18C10.82 3.48 10.81 3.22 10.69 2.77C10.64 2.58 10.54 2.41 10.41 2.44Z" fill="#CE1126"/>
<path d="M10.94 2.33C10.81 2.35 10.8 2.55 10.83 2.75C10.91 3.21 11.01 3.45 11.25 4.11C11.25 3.4 11.26 3.15 11.18 2.69C11.15 2.5 11.06 2.31 10.93 2.34L10.94 2.33Z" fill="#CE1126"/>
<path d="M11.47 2.26C11.34 2.27 11.31 2.47 11.32 2.66C11.36 3.13 11.44 3.37 11.62 4.05C11.68 3.35 11.72 3.1 11.68 2.63C11.66 2.44 11.6 2.25 11.47 2.26Z" fill="#CE1126"/>
<path d="M0 7.07H24V19.53H0V7.07Z" fill="black"/>
<path d="M0 8H24V24H0V8Z" fill="#CE1126"/>
<path d="M0 16H24V24H0V16Z" fill="#339E35"/>
</g>
</g>
<defs>
<clipPath id="clip0_170_14839">
<rect width="24" height="24" fill="white"/>
</clipPath>
</defs>
</svg>
