<svg width="24" height="24" viewBox="0 0 24 24" fill="none" xmlns="http://www.w3.org/2000/svg">
<g clip-path="url(#clip0_170_14342)">
<mask id="mask0_170_14342" style="mask-type:luminance" maskUnits="userSpaceOnUse" x="0" y="0" width="24" height="24">
<path d="M12 24C18.6274 24 24 18.6274 24 12C24 5.37258 18.6274 0 12 0C5.37258 0 0 5.37258 0 12C0 18.6274 5.37258 24 12 24Z" fill="white"/>
</mask>
<g mask="url(#mask0_170_14342)">
<path d="M0 0H24V24H0V0Z" fill="white"/>
<path d="M24 12H12V10.29H24V12ZM24 8.57H12V6.86H24V8.57ZM24 5.14H12V3.43H24V5.14ZM24 1.71H12V0H24V1.71Z" fill="#CC0000"/>
<path d="M0 0H12V13.71H0V0Z" fill="#000066"/>
<path d="M24 22.29H0V20.58H24V22.29ZM24 18.86H0V17.15H24V18.86ZM24 15.43H0V13.72H24V15.43Z" fill="#CC0000"/>
<path d="M8.39001 5.04L8.58001 6.36L9.33001 5.25L8.93001 6.53L10.08 5.86L9.17001 6.84L10.5 6.73L9.25001 7.21L10.5 7.69L9.17001 7.58L10.08 8.56L8.93001 7.89L9.33001 9.17L8.58001 8.06L8.39001 9.38L8.20001 8.06L7.45001 9.17L7.85001 7.89L6.70001 8.56L7.61001 7.58L6.28001 7.69L7.53001 7.21L6.28001 6.73L7.61001 6.84L6.70001 5.86L7.85001 6.53L7.45001 5.25L8.20001 6.36L8.39001 5.04ZM7.30001 5.09C6.13001 4.57 4.77001 5.09 4.25001 6.27C3.73001 7.44 4.25001 8.8 5.43001 9.32C6.03001 9.59 6.71001 9.59 7.31001 9.32C6.14001 10.16 4.52001 9.89 3.68001 8.72C2.84001 7.55 3.11001 5.93 4.28001 5.09C5.19001 4.44 6.41001 4.44 7.31001 5.09H7.30001Z" fill="#FFCC00"/>
</g>
</g>
<defs>
<clipPath id="clip0_170_14342">
<rect width="24" height="24" fill="white"/>
</clipPath>
</defs>
</svg>
