<svg width="24" height="24" viewBox="0 0 24 24" fill="none" xmlns="http://www.w3.org/2000/svg">
<g clip-path="url(#clip0_170_16324)">
<mask id="mask0_170_16324" style="mask-type:luminance" maskUnits="userSpaceOnUse" x="0" y="0" width="24" height="24">
<path d="M12 24C18.6274 24 24 18.6274 24 12C24 5.37258 18.6274 0 12 0C5.37258 0 0 5.37258 0 12C0 18.6274 5.37258 24 12 24Z" fill="white"/>
</mask>
<g mask="url(#mask0_170_16324)">
<path d="M0 0H24V24H0V0Z" fill="white"/>
<path d="M12 0H24V24H12V0Z" fill="#CF142B"/>
<path d="M5.66999 9.15H4.33999V8.02C4.16999 8 4.01999 7.86 3.98999 7.69C3.98999 7.69 3.98999 7.68 3.98999 7.67H2.85999V6.34H3.98999C4.00999 6.17 4.14999 6.02 4.31999 5.99C4.31999 5.99 4.32999 5.99 4.33999 5.99V4.86H5.66999V5.99C5.83999 6.01 5.98999 6.15 6.01999 6.32C6.01999 6.32 6.01999 6.33 6.01999 6.34H7.14999V7.67H6.01999C5.99999 7.84 5.85999 7.99 5.68999 8.02C5.68999 8.02 5.67999 8.02 5.66999 8.02V9.15ZM4.47999 9H5.51999V7.87H5.59999C5.59999 7.87 5.63999 7.87 5.65999 7.87C5.78999 7.84 5.88999 7.72 5.87999 7.6V7.52H7.00999V6.48H5.87999V6.4C5.87999 6.4 5.87999 6.36 5.87999 6.34C5.84999 6.21 5.72999 6.11 5.60999 6.12H5.52999V4.99H4.48999V6.12H4.40999C4.40999 6.12 4.36999 6.12 4.34999 6.12C4.21999 6.15 4.11999 6.27 4.12999 6.39V6.47H2.99999V7.51H4.12999V7.59C4.12999 7.59 4.12999 7.63 4.12999 7.65C4.15999 7.78 4.27999 7.88 4.39999 7.87H4.47999V9Z" fill="#CF142B"/>
<path d="M5.58999 6.05C5.74999 6.03 5.90999 6.16 5.94999 6.32C5.94999 6.35 5.94999 6.38 5.94999 6.41V7.58C5.96999 7.74 5.83999 7.9 5.67999 7.94C5.64999 7.94 5.61999 7.94 5.58999 7.94H4.41999C4.25999 7.96 4.09999 7.83 4.05999 7.67C4.05999 7.64 4.05999 7.61 4.05999 7.58V6.41C4.03999 6.25 4.16999 6.09 4.32999 6.05C4.35999 6.05 4.38999 6.05 4.41999 6.05H5.58999Z" fill="white"/>
<path d="M4.40999 4.93H5.57999V9.06H4.40999V4.93ZM2.92999 6.41H7.05999V7.58H2.92999V6.41Z" fill="white"/>
<path d="M5.58998 9.07H4.39998V7.59H2.91998V6.4H4.39998V4.92H5.58998V6.4H7.06998V7.59H5.58998V9.07ZM4.41998 9.06H5.57998V7.59H4.41998V9.06ZM5.58998 7.58H7.05998V6.42H5.58998V7.58ZM4.41998 7.58H5.57998V6.42H4.41998V7.58ZM2.93998 7.58H4.40998V6.42H2.93998V7.58ZM4.41998 6.41H5.57998V4.94H4.41998V6.41Z" fill="black"/>
<path d="M4.48 5H5.52V9H4.48V5ZM3 6.48H7V7.52H3V6.48Z" fill="white"/>
<path d="M5.52999 9.01H4.46999V7.53H2.98999V6.47H4.46999V4.99H5.52999V6.47H7.00999V7.53H5.52999V9.01ZM4.49999 8.99H5.50999V7.54H4.49999V8.99ZM5.52999 7.5H6.97999V6.49H5.52999V7.5ZM4.49999 7.5H5.50999V6.49H4.49999V7.5ZM3.00999 7.5H4.45999V6.49H3.00999V7.5ZM4.49999 6.47H5.50999V5.02H4.49999V6.47Z" fill="black"/>
<path d="M4.99998 7.93C5.5136 7.93 5.92998 7.51362 5.92998 7C5.92998 6.48637 5.5136 6.07 4.99998 6.07C4.48635 6.07 4.06998 6.48637 4.06998 7C4.06998 7.51362 4.48635 7.93 4.99998 7.93Z" fill="white"/>
<path d="M5 7.94C4.48 7.94 4.06 7.52 4.06 7C4.06 6.48 4.48 6.06 5 6.06C5.52 6.06 5.94 6.48 5.94 7C5.94 7.52 5.52 7.94 5 7.94ZM5 6.09C4.5 6.09 4.09 6.5 4.09 7C4.09 7.5 4.5 7.91 5 7.91C5.5 7.91 5.91 7.5 5.91 7C5.91 6.5 5.5 6.09 5 6.09Z" fill="black"/>
<path d="M5 7.69C5.38107 7.69 5.69 7.38107 5.69 7C5.69 6.61892 5.38107 6.31 5 6.31C4.61892 6.31 4.31 6.61892 4.31 7C4.31 7.38107 4.61892 7.69 5 7.69Z" fill="white"/>
<path d="M4.99999 7.7C4.60999 7.7 4.29999 7.39 4.29999 7C4.29999 6.61 4.60999 6.3 4.99999 6.3C5.38999 6.3 5.69999 6.61 5.69999 7C5.69999 7.39 5.38999 7.7 4.99999 7.7ZM4.99999 6.33C4.62999 6.33 4.32999 6.63 4.32999 7C4.32999 7.37 4.62999 7.67 4.99999 7.67C5.36999 7.67 5.66999 7.37 5.66999 7C5.66999 6.63 5.36999 6.33 4.99999 6.33Z" fill="black"/>
<path d="M5.88998 6.26C5.88998 6.26 5.79998 6.35 5.75998 6.39L5.72998 6.37C5.72998 6.37 5.83998 6.27 5.87998 6.23L5.89998 6.26H5.88998ZM5.85998 6.2C5.79998 6.22 5.68998 6.25 5.63998 6.28V6.26C5.63998 6.26 5.66998 6.11 5.66998 6.08H5.70998C5.70998 6.08 5.68998 6.18 5.67998 6.22C5.71998 6.22 5.80998 6.18 5.82998 6.17L5.84998 6.2H5.85998Z" fill="white"/>
<path d="M5.75998 6.4L5.72998 6.38C5.77998 6.34 5.83998 6.28 5.87998 6.24L5.89998 6.27C5.86998 6.29 5.80998 6.36 5.76998 6.4H5.75998ZM5.73998 6.37H5.75998C5.75998 6.37 5.84998 6.28 5.87998 6.26V6.24C5.87998 6.24 5.77998 6.33 5.73998 6.37ZM5.64998 6.29V6.27H5.63998C5.65998 6.24 5.67998 6.13 5.67998 6.09H5.71998C5.71998 6.09 5.71998 6.09 5.71998 6.1C5.70998 6.13 5.69998 6.18 5.68998 6.22C5.72998 6.22 5.80998 6.19 5.82998 6.17L5.84998 6.2C5.79998 6.22 5.67998 6.25 5.63998 6.28L5.64998 6.29ZM5.63998 6.27C5.63998 6.27 5.77998 6.22 5.83998 6.2V6.18C5.83998 6.18 5.70998 6.22 5.67998 6.23C5.67998 6.19 5.68998 6.14 5.69998 6.1H5.67998C5.67998 6.1 5.65998 6.23 5.63998 6.27Z" fill="black"/>
<path d="M5.94 6.34H5.89C5.9 6.28 5.85 6.19 5.77 6.14C5.69 6.09 5.62 6.1 5.61 6.16C5.6 6.22 5.65 6.31 5.73 6.36C5.76 6.38 5.79 6.39 5.82 6.39L5.85 6.35L5.89 6.39L5.85 6.43C5.69 6.41 5.56 6.26 5.56 6.1C5.56 6.09 5.56 6.07 5.56 6.06C5.71 6.03 5.88 6.14 5.92 6.3C5.92 6.31 5.92 6.32 5.92 6.33L5.94 6.34Z" fill="white"/>
<path d="M5.85 6.44C5.69 6.42 5.56 6.26 5.56 6.1C5.56 6.09 5.56 6.07 5.56 6.06C5.72 6.03 5.88 6.14 5.93 6.31C5.93 6.32 5.93 6.33 5.93 6.34H5.88C5.88 6.28 5.84 6.2 5.76 6.15C5.72 6.12 5.67 6.11 5.64 6.12C5.62 6.12 5.61 6.14 5.61 6.16C5.61 6.22 5.65 6.3 5.73 6.35C5.76 6.37 5.79 6.38 5.81 6.38L5.84 6.34L5.88 6.38L5.84 6.42L5.85 6.44ZM5.57 6.07C5.57 6.07 5.57 6.09 5.57 6.1C5.57 6.25 5.69 6.4 5.85 6.42L5.89 6.38L5.86 6.35L5.83 6.38C5.8 6.38 5.77 6.37 5.74 6.35C5.66 6.3 5.61 6.21 5.62 6.15C5.62 6.13 5.64 6.11 5.66 6.1C5.69 6.09 5.74 6.1 5.79 6.13C5.87 6.18 5.92 6.26 5.91 6.33H5.94V6.31C5.9 6.16 5.74 6.05 5.59 6.07H5.57Z" fill="black"/>
<path d="M5.73998 7.89C5.73998 7.89 5.64999 7.8 5.60999 7.76L5.62999 7.73C5.62999 7.73 5.72999 7.84 5.76999 7.88L5.73998 7.9V7.89ZM5.79999 7.86C5.77999 7.8 5.74999 7.69 5.71999 7.64H5.73998C5.73998 7.64 5.88999 7.67 5.91999 7.67V7.71C5.91999 7.71 5.81999 7.69 5.77999 7.68C5.77999 7.72 5.81999 7.81 5.82999 7.83L5.79999 7.85V7.86Z" fill="white"/>
<path d="M5.73998 7.89999C5.71998 7.86999 5.64999 7.80999 5.60999 7.76999L5.62999 7.73999C5.66999 7.78999 5.72999 7.84999 5.76999 7.88999L5.73998 7.90999V7.89999ZM5.61999 7.75999C5.61999 7.75999 5.71999 7.84999 5.74999 7.87999H5.76999C5.76999 7.87999 5.67999 7.77999 5.63999 7.73999V7.75999H5.61999ZM5.79999 7.86999C5.77999 7.81999 5.74999 7.69999 5.71999 7.65999H5.73998V7.64999C5.76998 7.66999 5.87999 7.68999 5.91999 7.68999V7.72999C5.91999 7.72999 5.91999 7.72999 5.90999 7.72999C5.87999 7.71999 5.82999 7.70999 5.78999 7.69999C5.78999 7.73999 5.81999 7.81999 5.83999 7.83999L5.80999 7.85999L5.79999 7.86999ZM5.72999 7.64999C5.72999 7.64999 5.78999 7.78999 5.79999 7.84999H5.81999C5.81999 7.84999 5.77999 7.71999 5.76999 7.68999C5.80999 7.68999 5.85999 7.69999 5.89999 7.70999V7.68999C5.89999 7.68999 5.76999 7.66999 5.72999 7.64999Z" fill="black"/>
<path d="M5.65998 7.94V7.89C5.71998 7.9 5.80998 7.85 5.85998 7.77C5.90998 7.69 5.89998 7.62 5.83998 7.61C5.77998 7.6 5.68998 7.65 5.63998 7.73C5.61998 7.76 5.60998 7.79 5.60998 7.82L5.64998 7.85L5.60998 7.89L5.56998 7.85C5.58998 7.69 5.73998 7.56 5.89998 7.56C5.90998 7.56 5.92998 7.56 5.93998 7.56C5.96998 7.71 5.85998 7.88 5.69998 7.92C5.68998 7.92 5.67998 7.92 5.66998 7.92L5.65998 7.94Z" fill="white"/>
<path d="M5.65999 7.94V7.89C5.71999 7.89 5.79999 7.85 5.84999 7.77C5.87999 7.73 5.88999 7.68 5.87999 7.65C5.87999 7.63 5.85999 7.62 5.83999 7.62C5.77999 7.62 5.69999 7.66 5.64999 7.74C5.62999 7.77 5.61999 7.8 5.61999 7.82L5.65999 7.85L5.61999 7.89L5.57999 7.85C5.59999 7.69 5.74999 7.56 5.90999 7.56C5.91999 7.56 5.93999 7.56 5.94999 7.56C5.97999 7.72 5.86999 7.88 5.69999 7.93C5.68999 7.93 5.67999 7.93 5.66999 7.93L5.65999 7.94ZM5.66999 7.9V7.93H5.68999C5.83999 7.89 5.94999 7.73 5.92999 7.58C5.91999 7.58 5.90999 7.58 5.89999 7.58C5.74999 7.58 5.60999 7.7 5.57999 7.86L5.61999 7.9L5.64999 7.87L5.61999 7.84C5.61999 7.81 5.62999 7.78 5.64999 7.75C5.69999 7.67 5.78999 7.62 5.84999 7.63C5.86999 7.63 5.88999 7.65 5.89999 7.67C5.90999 7.7 5.89999 7.75 5.86999 7.8C5.81999 7.88 5.73999 7.93 5.66999 7.92V7.9Z" fill="black"/>
<path d="M4.10998 7.74C4.10998 7.74 4.19998 7.65 4.23998 7.61L4.26998 7.63C4.26998 7.63 4.15998 7.73 4.11998 7.77L4.09998 7.74H4.10998ZM4.13998 7.8C4.19998 7.78 4.30998 7.75 4.35998 7.72V7.74C4.35998 7.74 4.32998 7.89 4.32998 7.92H4.28998C4.28998 7.92 4.30998 7.82 4.31998 7.78C4.27998 7.78 4.18998 7.82 4.16998 7.83L4.14998 7.8H4.13998Z" fill="white"/>
<path d="M4.31998 7.92H4.27998C4.27998 7.92 4.27998 7.92 4.27998 7.91C4.28998 7.88 4.29998 7.83 4.30998 7.79C4.26998 7.79 4.18998 7.82 4.16998 7.84L4.14998 7.81C4.19998 7.79 4.31998 7.76 4.35998 7.73V7.75H4.36998C4.34998 7.78 4.32998 7.89 4.32998 7.93L4.31998 7.92ZM4.29998 7.9H4.31998C4.31998 7.9 4.33998 7.77 4.35998 7.73C4.35998 7.73 4.21998 7.78 4.15998 7.8V7.82C4.15998 7.82 4.28998 7.78 4.31998 7.77C4.31998 7.81 4.30998 7.86 4.29998 7.9ZM4.11998 7.78L4.09998 7.75C4.12998 7.73 4.18998 7.66 4.22998 7.62L4.25998 7.64C4.20998 7.68 4.14998 7.74 4.10998 7.78H4.11998ZM4.11998 7.74V7.76C4.11998 7.76 4.21998 7.67 4.25998 7.63H4.23998C4.23998 7.63 4.14998 7.72 4.11998 7.74Z" fill="black"/>
<path d="M4.06 7.66H4.11C4.1 7.72 4.15 7.81 4.23 7.86C4.31 7.91 4.38 7.9 4.39 7.84C4.4 7.78 4.35 7.69 4.27 7.64C4.24 7.62 4.21 7.61 4.18 7.61L4.15 7.65L4.11 7.61L4.15 7.57C4.31 7.59 4.44 7.74 4.44 7.9C4.44 7.91 4.44 7.93 4.44 7.94C4.29 7.97 4.12 7.86 4.08 7.7C4.08 7.69 4.08 7.68 4.08 7.67L4.06 7.66Z" fill="white"/>
<path d="M4.38999 7.95C4.24999 7.95 4.10999 7.85 4.06999 7.7C4.06999 7.69 4.06999 7.68 4.06999 7.67H4.11999C4.11999 7.73 4.15999 7.81 4.23999 7.86C4.27999 7.89 4.32999 7.9 4.35999 7.89C4.37999 7.89 4.38999 7.87 4.38999 7.85C4.38999 7.79 4.34999 7.71 4.26999 7.66C4.23999 7.64 4.20999 7.63 4.18999 7.63L4.15999 7.67L4.11999 7.63L4.15999 7.59C4.31999 7.61 4.44999 7.77 4.44999 7.93C4.44999 7.94 4.44999 7.96 4.44999 7.97C4.42999 7.97 4.41999 7.97 4.39999 7.97L4.38999 7.95ZM4.06999 7.67V7.69C4.10999 7.84 4.26999 7.95 4.41999 7.93C4.41999 7.92 4.41999 7.91 4.41999 7.9C4.41999 7.75 4.29999 7.6 4.13999 7.58L4.09999 7.62L4.12999 7.65L4.15999 7.62C4.18999 7.62 4.21999 7.63 4.24999 7.65C4.32999 7.7 4.37999 7.79 4.36999 7.85C4.36999 7.87 4.34999 7.89 4.32999 7.9C4.29999 7.91 4.24999 7.9 4.19999 7.87C4.11999 7.82 4.06999 7.74 4.07999 7.67H4.04999H4.06999Z" fill="black"/>
<path d="M4.25999 6.11C4.25999 6.11 4.34999 6.2 4.38999 6.24L4.36999 6.27C4.36999 6.27 4.26999 6.16 4.22999 6.12L4.25999 6.1V6.11ZM4.19999 6.14C4.21999 6.2 4.24999 6.31 4.27999 6.36H4.25999C4.25999 6.36 4.10999 6.33 4.07999 6.33V6.29C4.07999 6.29 4.17999 6.31 4.21999 6.32C4.21999 6.28 4.17999 6.19 4.16999 6.17L4.19999 6.15V6.14Z" fill="white"/>
<path d="M4.27 6.37C4.24 6.35 4.13 6.33 4.09 6.33V6.29C4.09 6.29 4.09 6.29 4.1 6.29C4.13 6.3 4.18 6.31 4.22 6.32C4.22 6.28 4.19 6.2 4.17 6.18L4.2 6.16C4.22 6.21 4.25 6.33 4.28 6.37H4.26V6.38L4.27 6.37ZM4.1 6.32C4.1 6.32 4.24 6.34 4.27 6.36C4.24 6.31 4.21 6.21 4.2 6.15H4.18C4.18 6.15 4.22 6.28 4.23 6.31C4.19 6.31 4.14 6.3 4.1 6.29V6.31V6.32ZM4.37 6.28C4.33 6.23 4.27 6.17 4.23 6.13L4.26 6.11C4.28 6.14 4.35 6.2 4.39 6.24L4.37 6.27V6.28ZM4.24 6.13C4.24 6.13 4.33 6.22 4.37 6.27V6.25C4.37 6.25 4.28 6.16 4.26 6.13H4.24Z" fill="black"/>
<path d="M4.33999 6.06V6.11C4.27999 6.1 4.18999 6.15 4.13999 6.23C4.08999 6.31 4.09999 6.38 4.15999 6.39C4.21999 6.4 4.30999 6.35 4.35999 6.27C4.37999 6.24 4.38999 6.21 4.38999 6.18L4.34999 6.15L4.38999 6.11L4.42999 6.15C4.40999 6.31 4.25999 6.44 4.09999 6.44C4.08999 6.44 4.06999 6.44 4.05999 6.44C4.02999 6.29 4.13999 6.12 4.29999 6.08C4.30999 6.08 4.31999 6.08 4.32999 6.08L4.33999 6.06Z" fill="white"/>
<path d="M4.10999 6.44C4.09999 6.44 4.07999 6.44 4.06999 6.44C4.03999 6.28 4.14999 6.12 4.31999 6.07C4.32999 6.07 4.33999 6.07 4.34999 6.07V6.12C4.28999 6.12 4.20999 6.16 4.15999 6.24C4.12999 6.28 4.11999 6.33 4.12999 6.36C4.12999 6.38 4.14999 6.39 4.16999 6.39C4.22999 6.39 4.30999 6.35 4.35999 6.27C4.37999 6.24 4.38999 6.21 4.38999 6.19L4.34999 6.16L4.38999 6.12L4.42999 6.16C4.40999 6.32 4.25999 6.45 4.09999 6.45L4.10999 6.44ZM4.06999 6.43C4.06999 6.43 4.08999 6.43 4.09999 6.43C4.24999 6.43 4.38999 6.31 4.41999 6.15L4.37999 6.11L4.34999 6.14L4.37999 6.17C4.37999 6.2 4.36999 6.23 4.34999 6.26C4.29999 6.34 4.20999 6.39 4.14999 6.38C4.12999 6.38 4.10999 6.36 4.09999 6.34C4.08999 6.31 4.09999 6.26 4.12999 6.21C4.17999 6.13 4.25999 6.08 4.32999 6.09V6.06H4.30999C4.15999 6.1 4.04999 6.26 4.06999 6.41V6.43Z" fill="black"/>
<path d="M4.25999 7.52C4.25999 7.52 4.20999 7.44 4.19999 7.42C4.19999 7.42 4.21999 7.4 4.22999 7.4C4.22999 7.42 4.25999 7.47 4.25999 7.47L4.30999 7.44C4.30999 7.44 4.27999 7.4 4.26999 7.39C4.27999 7.39 4.29999 7.37 4.29999 7.37C4.29999 7.38 4.29999 7.4 4.32999 7.42C4.32999 7.42 4.37999 7.39 4.38999 7.37L4.40999 7.4C4.40999 7.4 4.28999 7.47 4.25999 7.5V7.52ZM4.18999 7.08C4.13999 7.08 4.10999 7.14 4.11999 7.19C4.11999 7.24 4.17999 7.28 4.22999 7.27C4.27999 7.27 4.30999 7.21 4.29999 7.16C4.28999 7.11 4.24999 7.07 4.18999 7.08ZM4.19999 7.11C4.19999 7.11 4.27999 7.12 4.28999 7.16C4.29999 7.2 4.26999 7.23 4.22999 7.23C4.18999 7.23 4.14999 7.21 4.14999 7.18C4.14999 7.15 4.16999 7.11 4.20999 7.11H4.19999ZM4.30999 6.79C4.30999 6.79 4.24999 6.84 4.21999 6.87C4.21999 6.85 4.19999 6.83 4.17999 6.83C4.15999 6.83 4.12999 6.85 4.12999 6.86C4.12999 6.88 4.11999 6.95 4.11999 6.95C4.16999 6.95 4.25999 6.95 4.29999 6.97V6.93H4.22999V6.91L4.27999 6.87C4.27999 6.87 4.32999 6.83 4.32999 6.8L4.30999 6.79ZM4.19999 6.92C4.19999 6.92 4.13999 6.92 4.11999 6.92C4.11999 6.88 4.13999 6.86 4.15999 6.87C4.17999 6.87 4.19999 6.88 4.19999 6.93V6.92ZM4.39999 6.41C4.39999 6.41 4.30999 6.45 4.30999 6.48C4.30999 6.5 4.30999 6.52 4.33999 6.54C4.35999 6.56 4.37999 6.56 4.39999 6.56C4.41999 6.56 4.44999 6.53 4.44999 6.52C4.44999 6.51 4.41999 6.47 4.39999 6.47L4.42999 6.43C4.42999 6.43 4.46999 6.48 4.47999 6.48C4.46999 6.51 4.44999 6.55 4.40999 6.57C4.36999 6.59 4.32999 6.59 4.29999 6.55C4.26999 6.52 4.27999 6.46 4.29999 6.44C4.31999 6.41 4.36999 6.4 4.36999 6.38L4.39999 6.41ZM4.57999 6.21V6.34C4.57999 6.34 4.57999 6.39 4.57999 6.42L4.61999 6.39L4.60999 6.34L4.67999 6.3C4.67999 6.3 4.70999 6.32 4.70999 6.34L4.76999 6.32L4.69999 6.28L4.59999 6.21H4.57999ZM4.60999 6.25L4.66999 6.29L4.60999 6.32V6.25ZM4.89999 6.12C4.89999 6.12 4.89999 6.22 4.90999 6.27C4.94999 6.27 4.97999 6.27 4.99999 6.24V6.28C4.99999 6.28 4.91999 6.28 4.87999 6.29C4.87999 6.23 4.87999 6.15 4.85999 6.12H4.90999H4.89999ZM5.20999 6.14C5.20999 6.14 5.17999 6.23 5.16999 6.28C5.20999 6.29 5.23999 6.3 5.25999 6.28V6.32C5.25999 6.32 5.16999 6.29 5.12999 6.28C5.14999 6.23 5.16999 6.15 5.16999 6.11H5.20999V6.14ZM5.51999 6.28L5.40999 6.35C5.40999 6.35 5.36999 6.37 5.33999 6.38L5.37999 6.4L5.41999 6.37L5.47999 6.41C5.47999 6.41 5.47999 6.45 5.44999 6.46L5.49999 6.5V6.42L5.51999 6.3V6.28ZM5.48999 6.31V6.38L5.42999 6.34L5.48999 6.31ZM5.57999 6.58L5.55999 6.55C5.55999 6.55 5.67999 6.5 5.71999 6.47L5.67999 6.66C5.70999 6.65 5.76999 6.62 5.77999 6.6L5.79999 6.64C5.79999 6.64 5.68999 6.67 5.63999 6.7L5.66999 6.52C5.66999 6.52 5.57999 6.56 5.56999 6.59L5.57999 6.58ZM5.84999 6.83C5.84999 6.83 5.84999 6.79 5.82999 6.78L5.85999 6.76C5.86999 6.79 5.88999 6.89 5.88999 6.91H5.85999C5.86999 6.9 5.85999 6.85 5.85999 6.85C5.80999 6.85 5.72999 6.87 5.71999 6.89V6.85C5.71999 6.85 5.80999 6.85 5.85999 6.83H5.84999ZM5.68999 7.22C5.68999 7.22 5.74999 7.17 5.77999 7.14C5.77999 7.16 5.79999 7.18 5.81999 7.18C5.83999 7.18 5.86999 7.16 5.86999 7.15C5.86999 7.13 5.87999 7.06 5.87999 7.06C5.82999 7.06 5.73999 7.06 5.69999 7.04V7.08H5.76999V7.1L5.71999 7.14C5.71999 7.14 5.66999 7.18 5.66999 7.21L5.68999 7.22ZM5.79999 7.09C5.79999 7.09 5.85999 7.09 5.87999 7.09C5.87999 7.13 5.85999 7.15 5.83999 7.14C5.81999 7.14 5.79999 7.13 5.79999 7.08V7.09ZM5.62999 7.33L5.59999 7.38C5.59999 7.38 5.64999 7.39 5.66999 7.41C5.66999 7.43 5.70999 7.48 5.70999 7.54L5.73999 7.48C5.73999 7.48 5.70999 7.47 5.69999 7.41C5.74999 7.39 5.77999 7.39 5.78999 7.4L5.81999 7.35C5.81999 7.35 5.69999 7.39 5.68999 7.39C5.67999 7.39 5.62999 7.37 5.62999 7.35V7.33Z" fill="black"/>
<path d="M5.42998 7.72C5.45208 7.72 5.46998 7.70209 5.46998 7.68C5.46998 7.65791 5.45208 7.64 5.42998 7.64C5.40789 7.64 5.38998 7.65791 5.38998 7.68C5.38998 7.70209 5.40789 7.72 5.42998 7.72Z" fill="black"/>
<path d="M4.57 7.72C4.59209 7.72 4.61 7.70209 4.61 7.68C4.61 7.65791 4.59209 7.64 4.57 7.64C4.54791 7.64 4.53 7.65791 4.53 7.68C4.53 7.70209 4.54791 7.72 4.57 7.72Z" fill="black"/>
<path d="M5.05997 7.88C5.05997 7.88 5.04997 7.88 5.03997 7.87C5.03997 7.87 5.03997 7.88 5.03997 7.89C5.02997 7.9 5.01997 7.89 5.00997 7.89C4.99997 7.89 4.98997 7.89 4.97997 7.89C4.97997 7.89 4.97997 7.88 4.97997 7.87C4.97997 7.87 4.96997 7.88 4.95997 7.88C4.95997 7.88 4.95997 7.87 4.95997 7.86C4.95997 7.86 4.94997 7.86 4.93997 7.86C4.92997 7.86 4.92997 7.84 4.91997 7.83C4.90997 7.82 4.90997 7.81 4.91997 7.8C4.91997 7.8 4.92997 7.8 4.92997 7.79C4.92997 7.79 4.90997 7.79 4.90997 7.78C4.90997 7.78 4.91997 7.78 4.92997 7.78C4.92997 7.78 4.92997 7.78 4.92997 7.76C4.92997 7.74 4.94997 7.74 4.94997 7.73C4.94997 7.73 4.96997 7.71 4.97997 7.71H4.98997V7.69C4.98997 7.69 4.98997 7.7 4.98997 7.71C4.98997 7.71 4.98997 7.71 4.99997 7.71C5.01997 7.71 5.01997 7.71 5.02997 7.73C5.02997 7.73 5.04997 7.73 5.04997 7.76C5.04997 7.76 5.04997 7.77 5.04997 7.78H5.06997C5.06997 7.78 5.06997 7.79 5.04997 7.79C5.04997 7.79 5.04997 7.79 5.05997 7.8C5.05997 7.81 5.05997 7.83 5.05997 7.83C5.05997 7.83 5.05997 7.85 5.03997 7.86C5.03997 7.86 5.02997 7.86 5.01997 7.86V7.88H5.05997ZM4.96997 7.84C4.96997 7.84 4.96997 7.85 4.96997 7.87C4.96997 7.89 4.98997 7.88 4.99997 7.88C5.00997 7.88 5.01997 7.88 5.02997 7.87C5.02997 7.86 5.02997 7.85 5.02997 7.84C5.02997 7.83 5.03997 7.85 5.04997 7.85C5.06997 7.85 5.06997 7.83 5.06997 7.82C5.06997 7.82 5.07997 7.8 5.06997 7.79C5.05997 7.79 5.04997 7.79 5.03997 7.79C5.02997 7.79 5.04997 7.79 5.05997 7.77C5.05997 7.75 5.04997 7.75 5.03997 7.74C5.03997 7.74 5.01997 7.72 5.00997 7.74C4.99997 7.74 5.00997 7.76 4.99997 7.76C4.98997 7.76 4.99997 7.74 4.98997 7.74C4.97997 7.74 4.96997 7.74 4.95997 7.74C4.95997 7.74 4.93997 7.75 4.93997 7.77C4.93997 7.78 4.95997 7.78 4.95997 7.79C4.95997 7.8 4.93997 7.79 4.92997 7.79C4.91997 7.8 4.92997 7.81 4.92997 7.82C4.92997 7.82 4.92997 7.84 4.94997 7.85C4.95997 7.85 4.96997 7.84 4.96997 7.84Z" fill="black"/>
<path d="M4.99998 7.86C4.99998 7.86 4.99998 7.86 4.99998 7.85C4.99998 7.85 4.98998 7.85 4.97998 7.85C4.97998 7.85 4.96998 7.85 4.96998 7.83H4.95998V7.81C4.95998 7.81 4.95998 7.8 4.95998 7.79C4.95998 7.79 4.95998 7.79 4.95998 7.78C4.95998 7.78 4.96998 7.78 4.97998 7.78C4.98998 7.78 4.98998 7.78 4.99998 7.78C4.99998 7.78 4.99998 7.78 4.99998 7.79C4.99998 7.79 4.99998 7.8 4.99998 7.81C4.99998 7.81 4.99998 7.82 4.99998 7.83C4.99998 7.83 4.99998 7.83 4.98998 7.83C4.98998 7.83 4.98998 7.84 4.97998 7.85C4.97998 7.85 4.97998 7.86 4.95998 7.85V7.86H4.99998ZM4.99998 7.83C4.99998 7.83 4.99998 7.83 4.99998 7.84C4.99998 7.84 5.00998 7.84 5.01998 7.84C5.02998 7.84 5.02998 7.84 5.01998 7.83C5.01998 7.83 5.00998 7.83 5.01998 7.82C5.01998 7.82 5.01998 7.82 5.02998 7.82C5.02998 7.82 5.02998 7.81 5.02998 7.8C5.02998 7.8 5.02998 7.79 5.01998 7.79H5.00998C5.00998 7.79 5.00998 7.79 5.00998 7.78C5.00998 7.78 4.99998 7.78 4.98998 7.78C4.97998 7.78 4.97998 7.78 4.96998 7.78V7.79C4.96998 7.79 4.96998 7.79 4.95998 7.79C4.95998 7.79 4.95998 7.79 4.94998 7.8C4.94998 7.8 4.94998 7.81 4.94998 7.82H4.95998C4.95998 7.82 4.95998 7.82 4.95998 7.83V7.84C4.95998 7.84 4.95998 7.84 4.97998 7.84V7.83H4.99998Z" fill="black"/>
<path d="M4.99996 7.82C5.00548 7.82 5.00996 7.81553 5.00996 7.81C5.00996 7.80448 5.00548 7.8 4.99996 7.8C4.99444 7.8 4.98996 7.80448 4.98996 7.81C4.98996 7.81553 4.99444 7.82 4.99996 7.82Z" fill="black"/>
<path d="M5.03 7.13C5.03 7.12 5.03 7.09 5.03 7.07C5.03 7.1 5.03 7.12 5.03 7.13ZM4.99 7.13C4.99 7.12 4.98 7.08 4.97 7.07C4.97 7.08 4.99 7.12 4.99 7.13ZM4.99 6.69C4.99 6.69 4.99 6.69 4.97 6.66C4.99 6.68 4.99 6.69 4.99 6.69Z" fill="black"/>
<path d="M5.16001 7.49C5.16001 7.49 5.13001 7.5 5.13001 7.51C5.13001 7.51 5.15001 7.52 5.16001 7.52C5.15001 7.52 5.11001 7.53 5.09001 7.52C5.08001 7.52 4.99001 7.51 4.97001 7.51C4.96001 7.51 4.94001 7.5 4.94001 7.48C4.94001 7.48 4.94001 7.46 4.95001 7.46C4.95001 7.45 4.97001 7.43 5.00001 7.41C4.96001 7.41 4.91001 7.4 4.89001 7.38C4.86001 7.37 4.84001 7.38 4.83001 7.41C4.83001 7.46 4.80001 7.48 4.77001 7.48C4.75001 7.48 4.74001 7.48 4.74001 7.48L4.80001 7.5C4.80001 7.5 4.82001 7.57 4.80001 7.58C4.80001 7.58 4.77001 7.58 4.75001 7.58C4.73001 7.58 4.74001 7.58 4.73001 7.58C4.72001 7.58 4.71001 7.58 4.71001 7.58C4.71001 7.58 4.71001 7.55 4.73001 7.54C4.74001 7.54 4.76001 7.54 4.76001 7.52C4.76001 7.52 4.73001 7.52 4.70001 7.5C4.68001 7.5 4.67001 7.48 4.68001 7.44C4.68001 7.4 4.73001 7.4 4.76001 7.39C4.76001 7.37 4.76001 7.34 4.78001 7.32C4.81001 7.29 4.86001 7.3 4.90001 7.3C4.92001 7.29 4.97001 7.27 5.01001 7.27C5.05001 7.27 5.22001 7.22 5.29001 7.23C5.27001 7.2 5.28001 7.14 5.31001 7.13C5.35001 7.11 5.39001 7.17 5.40001 7.16C5.41001 7.15 5.39001 7.13 5.36001 7.1C5.36001 7.09 5.36001 7.09 5.36001 7.08V7.06C5.36001 7.06 5.39001 7.06 5.39001 7.08C5.39001 7.09 5.41001 7.1 5.42001 7.09C5.43001 7.09 5.42001 7.09 5.42001 7.07V7.05C5.42001 7.05 5.45001 7.02 5.47001 7.02C5.47001 7.02 5.48001 7.04 5.49001 7.05C5.50001 7.07 5.52001 7.07 5.53001 7.08C5.53001 7.08 5.53001 7.1 5.54001 7.11C5.55001 7.13 5.58001 7.16 5.61001 7.18C5.61001 7.18 5.62001 7.18 5.62001 7.19V7.21C5.62001 7.21 5.60001 7.21 5.59001 7.21C5.57001 7.2 5.56001 7.19 5.55001 7.2C5.52001 7.2 5.50001 7.25 5.47001 7.25C5.43001 7.25 5.41001 7.19 5.39001 7.21C5.37001 7.23 5.44001 7.27 5.43001 7.29C5.43001 7.29 5.45001 7.31 5.44001 7.32C5.48001 7.32 5.51001 7.29 5.52001 7.27C5.54001 7.24 5.55001 7.23 5.56001 7.23C5.57001 7.23 5.58001 7.23 5.58001 7.24C5.58001 7.24 5.59001 7.24 5.60001 7.24C5.61001 7.24 5.60001 7.26 5.60001 7.26C5.60001 7.26 5.60001 7.26 5.59001 7.26C5.59001 7.26 5.58001 7.26 5.57001 7.27C5.57001 7.27 5.56001 7.29 5.55001 7.3C5.55001 7.31 5.52001 7.33 5.51001 7.34C5.51001 7.34 5.51001 7.36 5.51001 7.37C5.51001 7.37 5.51001 7.37 5.52001 7.37C5.52001 7.37 5.52001 7.37 5.52001 7.38C5.52001 7.38 5.48001 7.43 5.47001 7.43C5.45001 7.43 5.44001 7.41 5.45001 7.4C5.43001 7.4 5.42001 7.39 5.42001 7.38C5.42001 7.38 5.39001 7.4 5.38001 7.41C5.38001 7.41 5.37001 7.41 5.36001 7.41L5.33001 7.43C5.30001 7.43 5.27001 7.45 5.24001 7.45H5.17001L5.16001 7.49Z" fill="white"/>
<path d="M4.74 7.62001C4.74 7.62001 4.74 7.62001 4.73 7.62001C4.73 7.61001 4.73 7.59001 4.76 7.58001C4.77 7.58001 4.79 7.58001 4.79 7.57001C4.79 7.57001 4.78 7.57001 4.77 7.57001C4.76 7.57001 4.74 7.57001 4.73 7.57001C4.7 7.56001 4.7 7.54001 4.7 7.51001C4.7 7.48001 4.73 7.46001 4.78 7.46001C4.78 7.44001 4.78 7.41001 4.8 7.40001C4.83 7.37001 4.87 7.38001 4.9 7.38001C4.9 7.38001 4.91 7.38001 4.92 7.38001C4.94 7.37001 4.98 7.35001 5.03 7.35001C5.04 7.35001 5.07 7.35001 5.1 7.34001C5.16 7.33001 5.25 7.31001 5.3 7.31001C5.3 7.29001 5.3 7.27001 5.3 7.25001C5.3 7.23001 5.31 7.21001 5.33 7.21001C5.36 7.19001 5.39 7.21001 5.41 7.23001C5.41 7.23001 5.42 7.24001 5.43 7.24001C5.43 7.24001 5.43 7.23001 5.41 7.21001C5.41 7.21001 5.4 7.20001 5.39 7.19001C5.39 7.18001 5.39 7.18001 5.39 7.17001V7.14001C5.39 7.14001 5.42 7.14001 5.43 7.16001C5.43 7.16001 5.43 7.17001 5.44 7.17001C5.44 7.17001 5.44 7.17001 5.43 7.15001C5.43 7.15001 5.43 7.14001 5.43 7.13001C5.43 7.13001 5.46 7.10001 5.48 7.10001C5.48 7.10001 5.49 7.11001 5.49 7.12001C5.49 7.13001 5.5 7.13001 5.51 7.14001C5.51 7.14001 5.52 7.14001 5.53 7.15001C5.53 7.15001 5.53 7.15001 5.53 7.16001C5.53 7.16001 5.53 7.17001 5.53 7.18001C5.54 7.21001 5.57 7.23001 5.6 7.25001C5.6 7.25001 5.61 7.25001 5.61 7.27001V7.29001C5.61 7.29001 5.59 7.29001 5.57 7.29001C5.57 7.29001 5.55 7.28001 5.54 7.28001C5.53 7.28001 5.52 7.29001 5.51 7.30001C5.5 7.31001 5.48 7.33001 5.46 7.33001C5.44 7.33001 5.43 7.31001 5.41 7.30001C5.4 7.29001 5.39 7.28001 5.38 7.28001C5.38 7.28001 5.39 7.30001 5.4 7.31001C5.41 7.32001 5.43 7.34001 5.42 7.35001C5.42 7.35001 5.43 7.37001 5.43 7.38001C5.46 7.38001 5.49 7.35001 5.5 7.33001C5.52 7.30001 5.53 7.29001 5.55 7.28001H5.57C5.57 7.28001 5.57 7.28001 5.57 7.29001C5.57 7.29001 5.57 7.30001 5.57 7.31001C5.57 7.31001 5.56 7.31001 5.55 7.31001C5.55 7.31001 5.55 7.32001 5.54 7.33001C5.54 7.33001 5.54 7.34001 5.53 7.35001C5.53 7.35001 5.52 7.36001 5.51 7.37001C5.51 7.37001 5.5 7.38001 5.49 7.39001C5.49 7.39001 5.49 7.40001 5.49 7.41001C5.49 7.41001 5.49 7.41001 5.5 7.41001C5.5 7.41001 5.5 7.42001 5.5 7.43001C5.5 7.44001 5.46 7.49001 5.45 7.49001C5.45 7.49001 5.43 7.49001 5.43 7.48001C5.43 7.48001 5.43 7.48001 5.43 7.47001H5.42C5.42 7.47001 5.42 7.47001 5.41 7.46001C5.4 7.46001 5.38 7.48001 5.37 7.48001C5.37 7.48001 5.36 7.48001 5.35 7.48001L5.32 7.49001C5.31 7.49001 5.3 7.49001 5.29 7.49001C5.27 7.49001 5.25 7.50001 5.23 7.50001H5.17C5.16 7.50001 5.14 7.51001 5.14 7.52001C5.14 7.52001 5.14 7.52001 5.16 7.52001C5.15 7.52001 5.11 7.53001 5.09 7.52001C5.08 7.52001 5.05 7.52001 5.01 7.52001C4.99 7.52001 4.98 7.52001 4.97 7.52001C4.97 7.52001 4.95 7.52001 4.95 7.51001C4.95 7.51001 4.95 7.50001 4.95 7.48001C4.95 7.48001 4.95 7.46001 4.96 7.46001C4.96 7.45001 4.98 7.44001 5 7.42001C4.96 7.42001 4.92 7.41001 4.91 7.39001C4.88 7.39001 4.87 7.39001 4.86 7.41001C4.86 7.44001 4.86 7.46001 4.84 7.47001C4.83 7.48001 4.81 7.48001 4.8 7.48001H4.78L4.83 7.50001C4.85 7.52001 4.86 7.53001 4.86 7.55001C4.86 7.57001 4.85 7.58001 4.84 7.58001C4.84 7.58001 4.81 7.58001 4.8 7.58001C4.8 7.58001 4.8 7.58001 4.79 7.58001H4.78H4.76L4.74 7.62001ZM4.74 7.61001C4.74 7.61001 4.74 7.61001 4.76 7.61001C4.76 7.61001 4.76 7.61001 4.78 7.61001C4.78 7.61001 4.78 7.61001 4.79 7.61001C4.8 7.61001 4.82 7.61001 4.82 7.61001C4.82 7.61001 4.83 7.60001 4.83 7.58001C4.83 7.57001 4.83 7.55001 4.81 7.54001L4.75 7.52001C4.75 7.52001 4.76 7.51001 4.78 7.52001C4.79 7.52001 4.81 7.52001 4.81 7.51001C4.82 7.50001 4.83 7.48001 4.83 7.46001C4.84 7.43001 4.86 7.42001 4.9 7.43001C4.91 7.44001 4.96 7.46001 5 7.45001C4.95 7.48001 4.95 7.49001 4.95 7.49001C4.94 7.49001 4.94 7.51001 4.94 7.51001C4.94 7.51001 4.94 7.52001 4.94 7.53001C4.94 7.53001 4.95 7.53001 4.96 7.53001C4.96 7.53001 4.98 7.53001 5 7.53001C5.03 7.53001 5.07 7.54001 5.08 7.53001C5.09 7.53001 5.11 7.53001 5.13 7.53001C5.13 7.53001 5.12 7.53001 5.12 7.52001C5.12 7.51001 5.13 7.50001 5.14 7.49001H5.21C5.21 7.49001 5.25 7.49001 5.27 7.49001C5.28 7.49001 5.29 7.49001 5.3 7.49001L5.33 7.48001C5.33 7.48001 5.36 7.46001 5.37 7.45001V7.46001C5.37 7.46001 5.37 7.46001 5.38 7.46001C5.38 7.46001 5.38 7.46001 5.38 7.47001C5.38 7.47001 5.38 7.47001 5.39 7.47001C5.39 7.47001 5.43 7.43001 5.43 7.42001C5.43 7.42001 5.43 7.41001 5.43 7.40001C5.43 7.40001 5.44 7.39001 5.45 7.38001C5.45 7.38001 5.46 7.37001 5.47 7.36001C5.47 7.36001 5.47 7.36001 5.47 7.35001C5.47 7.35001 5.47 7.33001 5.48 7.33001C5.48 7.33001 5.5 7.31001 5.51 7.32001C5.51 7.32001 5.51 7.32001 5.5 7.32001C5.5 7.32001 5.5 7.32001 5.49 7.32001C5.49 7.32001 5.47 7.33001 5.45 7.36001C5.44 7.38001 5.41 7.41001 5.37 7.41001C5.37 7.40001 5.37 7.39001 5.36 7.38001C5.36 7.38001 5.35 7.36001 5.34 7.35001C5.33 7.34001 5.31 7.32001 5.32 7.31001C5.32 7.31001 5.32 7.31001 5.32 7.30001C5.33 7.29001 5.35 7.30001 5.36 7.32001C5.37 7.33001 5.39 7.34001 5.4 7.35001C5.42 7.35001 5.43 7.34001 5.45 7.32001C5.46 7.31001 5.47 7.30001 5.49 7.30001C5.5 7.30001 5.51 7.30001 5.52 7.30001C5.52 7.30001 5.54 7.30001 5.55 7.30001C5.55 7.30001 5.55 7.30001 5.55 7.29001C5.55 7.29001 5.55 7.29001 5.54 7.28001C5.51 7.26001 5.48 7.23001 5.47 7.21001V7.19001C5.47 7.19001 5.47 7.19001 5.46 7.19001C5.46 7.19001 5.44 7.19001 5.44 7.17001C5.44 7.17001 5.44 7.16001 5.43 7.15001C5.42 7.15001 5.4 7.17001 5.39 7.18001C5.39 7.18001 5.39 7.18001 5.39 7.19001C5.39 7.19001 5.39 7.19001 5.39 7.20001C5.39 7.20001 5.39 7.20001 5.38 7.20001C5.38 7.20001 5.37 7.20001 5.36 7.18001C5.36 7.18001 5.34 7.17001 5.33 7.17001C5.33 7.17001 5.33 7.18001 5.33 7.19001C5.33 7.19001 5.33 7.19001 5.33 7.20001C5.33 7.20001 5.34 7.21001 5.35 7.22001C5.37 7.24001 5.38 7.25001 5.37 7.27001C5.37 7.27001 5.35 7.27001 5.34 7.27001C5.32 7.26001 5.3 7.24001 5.28 7.25001C5.27 7.25001 5.26 7.27001 5.26 7.29001C5.26 7.31001 5.26 7.34001 5.26 7.35001C5.21 7.35001 5.12 7.36001 5.05 7.37001C5.02 7.37001 4.99 7.38001 4.98 7.38001C4.93 7.38001 4.89 7.41001 4.87 7.41001C4.87 7.41001 4.86 7.41001 4.85 7.41001C4.81 7.41001 4.78 7.41001 4.75 7.43001C4.73 7.45001 4.73 7.47001 4.73 7.49001C4.7 7.49001 4.66 7.49001 4.66 7.53001C4.66 7.56001 4.66 7.57001 4.68 7.58001C4.69 7.58001 4.7 7.58001 4.72 7.58001C4.74 7.58001 4.75 7.58001 4.75 7.60001C4.75 7.61001 4.73 7.62001 4.72 7.62001C4.71 7.62001 4.7 7.64001 4.7 7.65001L4.74 7.61001Z" fill="black"/>
<path d="M5.27 7.21C5.27 7.21 5.25 7.25 5.27 7.27C5.29 7.28 5.31 7.29 5.32 7.31C5.32 7.32 5.32 7.34 5.32 7.34C5.3 7.34 5.28 7.36 5.27 7.38C5.27 7.35 5.24 7.36 5.22 7.36C5.22 7.33 5.2 7.31 5.17 7.31C5.17 7.31 5.17 7.3 5.16 7.29H5.12C5.12 7.29 5.13 7.27001 5.12 7.26C5.12 7.25 5.08 7.26 5.07 7.26C5.07 7.24001 5.07 7.24 5.07 7.22C5.07 7.21 5.03 7.22 5.01 7.21C5.02 7.2 5.03 7.18 5.02 7.17C5.02 7.15 4.97 7.17 4.97 7.15C4.97 7.15 5.02 7.14 5.03 7.13C5.05 7.13 5.1 7.14 5.16 7.16C5.17 7.17 5.26 7.2 5.26 7.23L5.27 7.21Z" fill="white"/>
<path d="M5.27001 7.39001C5.27001 7.37001 5.25001 7.37001 5.23001 7.37001C5.23001 7.37001 5.23001 7.35001 5.23001 7.34001C5.23001 7.33001 5.21001 7.32001 5.19001 7.32001C5.19001 7.32001 5.19001 7.31001 5.18001 7.30001C5.18001 7.30001 5.17001 7.30001 5.16001 7.30001H5.14001C5.14001 7.30001 5.14001 7.30001 5.14001 7.29001C5.14001 7.29001 5.14001 7.28001 5.14001 7.27001C5.14001 7.27001 5.12001 7.27001 5.11001 7.27001H5.09001C5.09001 7.27001 5.09001 7.25001 5.09001 7.23001C5.09001 7.23001 5.07001 7.23001 5.05001 7.22001H5.03001C5.04001 7.21001 5.05001 7.20001 5.04001 7.18001C5.04001 7.18001 5.03001 7.18001 5.02001 7.18001H5.00001C5.00001 7.18001 5.00001 7.18001 5.00001 7.17001C5.00001 7.16001 5.07001 7.15001 5.07001 7.15001C5.09001 7.15001 5.14001 7.16001 5.20001 7.18001C5.20001 7.18001 5.21001 7.18001 5.22001 7.19001C5.25001 7.20001 5.30001 7.22001 5.30001 7.25001C5.30001 7.25001 5.30001 7.25001 5.30001 7.26001C5.30001 7.27001 5.30001 7.29001 5.30001 7.31001C5.30001 7.31001 5.31001 7.31001 5.32001 7.32001C5.33001 7.32001 5.35001 7.34001 5.35001 7.35001C5.35001 7.36001 5.35001 7.37001 5.35001 7.38001C5.34001 7.38001 5.32001 7.40001 5.31001 7.42001L5.27001 7.39001ZM5.25001 7.36001C5.25001 7.36001 5.27001 7.36001 5.27001 7.38001C5.27001 7.36001 5.30001 7.34001 5.32001 7.34001C5.32001 7.34001 5.32001 7.34001 5.32001 7.33001C5.32001 7.33001 5.30001 7.31001 5.29001 7.30001C5.29001 7.30001 5.28001 7.30001 5.27001 7.29001C5.25001 7.27001 5.26001 7.25001 5.26001 7.24001C5.26001 7.24001 5.26001 7.24001 5.26001 7.23001C5.26001 7.21001 5.21001 7.19001 5.19001 7.18001C5.18001 7.18001 5.17001 7.18001 5.17001 7.17001C5.12001 7.16001 5.06001 7.14001 5.04001 7.14001C5.02001 7.14001 4.98001 7.14001 4.98001 7.15001C4.98001 7.15001 4.99001 7.15001 5.00001 7.15001C5.01001 7.15001 5.02001 7.15001 5.03001 7.15001C5.03001 7.16001 5.03001 7.18001 5.03001 7.19001C5.03001 7.19001 5.03001 7.19001 5.04001 7.19001C5.06001 7.19001 5.08001 7.19001 5.08001 7.20001C5.08001 7.21001 5.08001 7.22001 5.08001 7.24001C5.08001 7.24001 5.08001 7.24001 5.09001 7.24001C5.10001 7.24001 5.12001 7.24001 5.13001 7.24001V7.26001C5.13001 7.26001 5.13001 7.26001 5.14001 7.26001H5.16001C5.16001 7.26001 5.17001 7.27001 5.18001 7.28001C5.20001 7.28001 5.22001 7.29001 5.22001 7.30001C5.22001 7.30001 5.22001 7.32001 5.22001 7.33001C5.22001 7.33001 5.23001 7.33001 5.24001 7.33001L5.25001 7.36001Z" fill="black"/>
<path d="M5.16001 7.49C5.16001 7.49 5.14001 7.49 5.14001 7.47C5.14001 7.47 5.14001 7.47 5.14001 7.46H5.12001H5.11001C5.11001 7.46 5.08001 7.46 5.06001 7.46C5.04001 7.46 5.03001 7.46 5.02001 7.46C5.08001 7.44 5.10001 7.43 5.10001 7.42C5.10001 7.42 5.10001 7.4 5.10001 7.39C5.09001 7.37 5.04001 7.36 5.01001 7.36C5.04001 7.36 5.09001 7.36 5.11001 7.39C5.11001 7.4 5.12001 7.41 5.11001 7.43C5.11001 7.44 5.09001 7.46 5.06001 7.47C5.08001 7.47 5.10001 7.47 5.11001 7.47C5.11001 7.47 5.11001 7.47 5.12001 7.47C5.14001 7.47 5.16001 7.47 5.17001 7.47C5.17001 7.47 5.15001 7.47 5.15001 7.48C5.15001 7.48 5.15001 7.48 5.17001 7.49H5.16001ZM5.35001 7.46C5.35001 7.44 5.32001 7.43 5.29001 7.43C5.28001 7.43 5.27001 7.43 5.26001 7.43C5.26001 7.43 5.28001 7.43 5.29001 7.43C5.32001 7.43 5.35001 7.43 5.36001 7.47L5.35001 7.46ZM5.41001 7.44C5.44001 7.43 5.46001 7.41 5.49001 7.39C5.46001 7.41 5.44001 7.43 5.41001 7.45V7.44Z" fill="black"/>
<path d="M5.45001 7.17C5.45001 7.17 5.45001 7.17 5.44001 7.17C5.44001 7.17 5.40001 7.14 5.39001 7.13C5.40001 7.14 5.43001 7.16 5.44001 7.17H5.45001C5.45001 7.17 5.45001 7.16 5.45001 7.14C5.45001 7.15 5.46001 7.17 5.45001 7.18V7.17Z" fill="black"/>
<path d="M5.23001 7.37C5.23001 7.36 5.25001 7.35 5.27001 7.33C5.27001 7.33 5.28001 7.33 5.29001 7.32C5.29001 7.32 5.28001 7.32 5.27001 7.33C5.26001 7.34 5.24001 7.36 5.23001 7.37ZM5.17001 7.32C5.18001 7.32 5.22001 7.3 5.25001 7.3C5.22001 7.3 5.19001 7.32 5.17001 7.32ZM5.12001 7.29C5.16001 7.29 5.21001 7.27 5.24001 7.28C5.24001 7.28 5.16001 7.28 5.12001 7.29ZM5.08001 7.25C5.13001 7.24 5.18001 7.24 5.22001 7.25C5.18001 7.25 5.13001 7.25 5.09001 7.25H5.08001ZM5.23001 7.21C5.23001 7.21 5.22001 7.21 5.20001 7.21C5.15001 7.21 5.07001 7.19 5.01001 7.21C5.07001 7.2 5.16001 7.21 5.20001 7.21C5.21001 7.21 5.22001 7.21 5.23001 7.21ZM5.33001 7.18C5.33001 7.17 5.32001 7.16 5.32001 7.16C5.32001 7.15 5.32001 7.13 5.33001 7.12C5.33001 7.12 5.32001 7.09 5.33001 7.07C5.33001 7.06 5.34001 7.05 5.36001 7.04C5.37001 7.04 5.38001 7.04 5.38001 7.04C5.38001 7.04 5.38001 7.04 5.36001 7.04C5.34001 7.04 5.33001 7.04 5.32001 7.05C5.32001 7.05 5.30001 7.07 5.30001 7.08C5.29001 7.1 5.28001 7.11 5.26001 7.12C5.25001 7.12 5.23001 7.13 5.22001 7.13C5.20001 7.13 5.18001 7.14 5.16001 7.16C5.18001 7.14 5.20001 7.14 5.22001 7.13C5.23001 7.13 5.25001 7.13 5.26001 7.12C5.27001 7.12 5.28001 7.1 5.30001 7.08C5.30001 7.08 5.31001 7.06 5.32001 7.05C5.32001 7.05 5.34001 7.04 5.36001 7.04C5.38001 7.04 5.38001 7.04 5.38001 7.04C5.38001 7.04 5.38001 7.04 5.35001 7.05C5.33001 7.05 5.33001 7.05 5.32001 7.07C5.32001 7.08 5.32001 7.1 5.32001 7.11C5.32001 7.11 5.31001 7.14 5.31001 7.15C5.31001 7.15 5.31001 7.15 5.31001 7.17L5.33001 7.18Z" fill="black"/>
<path d="M5.43999 7.45C5.45999 7.44 5.46999 7.43 5.47999 7.42C5.47999 7.42 5.47999 7.42 5.48999 7.41C5.48999 7.41 5.48999 7.41 5.47999 7.42C5.46999 7.42 5.45999 7.44 5.42999 7.45H5.43999ZM5.50999 7.33C5.51999 7.33 5.52999 7.32 5.52999 7.31C5.52999 7.3 5.54999 7.29 5.56999 7.28C5.54999 7.28 5.53999 7.3 5.52999 7.31C5.52999 7.31 5.51999 7.33 5.49999 7.33H5.50999ZM5.47999 7.23C5.46999 7.23 5.45999 7.22 5.45999 7.21V7.2C5.45999 7.2 5.46999 7.2 5.47999 7.2C5.47999 7.2 5.48999 7.2 5.49999 7.2C5.49999 7.2 5.49999 7.2 5.51999 7.2H5.49999C5.49999 7.2 5.49999 7.2 5.48999 7.2C5.48999 7.2 5.47999 7.2 5.46999 7.2C5.46999 7.2 5.46999 7.2 5.46999 7.21C5.46999 7.21 5.46999 7.23 5.48999 7.23C5.48999 7.23 5.48999 7.23 5.49999 7.23C5.49999 7.23 5.51999 7.23 5.52999 7.23C5.51999 7.23 5.50999 7.23 5.49999 7.23C5.49999 7.23 5.49999 7.23 5.48999 7.23H5.47999ZM5.50999 7.14H5.49999C5.49999 7.14 5.49999 7.13 5.49999 7.12C5.49999 7.12 5.50999 7.12 5.51999 7.12C5.51999 7.12 5.51999 7.12 5.51999 7.13L5.50999 7.14ZM5.49999 7.12C5.49999 7.12 5.49999 7.12 5.49999 7.13C5.49999 7.13 5.49999 7.13 5.50999 7.13L5.49999 7.12ZM5.45999 7.08C5.45999 7.08 5.45999 7.08 5.44999 7.08C5.44999 7.08 5.46999 7.08 5.47999 7.08C5.47999 7.08 5.46999 7.08 5.45999 7.08Z" fill="black"/>
<path d="M5.02999 6.59H4.99999V6.58H5.02999V6.59ZM5.03999 6.57H4.99999V6.56H5.03999V6.57ZM5.03999 6.56H4.99999V6.54H5.03999V6.56Z" fill="black"/>
<path d="M5.21999 6.61C5.21999 6.61 5.18999 6.61 5.16999 6.61C5.16999 6.62 5.16999 6.65 5.16999 6.66C5.21999 6.7 5.25999 6.76 5.25999 6.82C5.26999 6.83 5.27999 6.84 5.28999 6.86C5.31999 6.84 5.35999 6.82 5.38999 6.81C5.40999 6.81 5.43999 6.81 5.45999 6.81C5.45999 6.81 5.54999 6.86 5.56999 6.88C5.58999 6.89 5.60999 6.91 5.61999 6.93C5.62999 6.95 5.62999 6.98 5.61999 6.98L5.54999 6.96C5.54999 6.96 5.54999 6.94 5.54999 6.93C5.54999 6.92 5.54999 6.92 5.54999 6.91H5.52999C5.52999 6.91 5.50999 6.91 5.50999 6.9C5.50999 6.9 5.42999 6.86 5.41999 6.86C5.40999 6.86 5.38999 6.86 5.37999 6.87C5.37999 6.88 5.34999 6.92 5.32999 6.93C5.32999 6.93 5.32999 6.94 5.32999 6.95C5.32999 6.95 5.36999 6.95 5.39999 6.95C5.42999 6.95 5.45999 6.98 5.47999 7C5.54999 7.06 5.56999 7.1 5.59999 7.12C5.59999 7.12 5.61999 7.14 5.61999 7.16H5.54999C5.54999 7.16 5.54999 7.12 5.54999 7.11C5.54999 7.1 5.52999 7.11 5.51999 7.11C5.51999 7.11 5.50999 7.1 5.49999 7.09C5.49999 7.07 5.45999 7.05 5.43999 7.04C5.41999 7.03 5.41999 7.04 5.39999 7.04C5.38999 7.04 5.36999 7.04 5.34999 7.04C5.32999 7.04 5.27999 7.06 5.23999 7.07C5.21999 7.07 5.16999 7.09 5.11999 7.1C5.07999 7.1 4.98999 7.12 4.96999 7.12C4.96999 7.16 4.91999 7.22 4.90999 7.23C4.89999 7.25 4.89999 7.26 4.90999 7.27C4.90999 7.27 4.98999 7.27 4.99999 7.27C5.01999 7.27 5.04999 7.27 5.05999 7.27C5.06999 7.27 5.08999 7.29 5.09999 7.3C5.10999 7.3 5.11999 7.31 5.11999 7.33C5.11999 7.33 5.12999 7.35 5.13999 7.35H5.05999C5.05999 7.35 5.05999 7.32 5.03999 7.32C5.02999 7.32 5.01999 7.34 4.99999 7.33C4.93999 7.33 4.89999 7.33 4.83999 7.33C4.81999 7.33 4.80999 7.31 4.81999 7.28C4.81999 7.26 4.81999 7.24 4.81999 7.23C4.81999 7.23 4.78999 7.26 4.77999 7.27C4.75999 7.29 4.77999 7.32 4.77999 7.33C4.78999 7.34 4.85999 7.4 4.86999 7.42C4.86999 7.43 4.89999 7.45 4.92999 7.47C4.92999 7.49 4.94999 7.50001 4.96999 7.51H4.86999C4.86999 7.51 4.86999 7.5 4.86999 7.48C4.86999 7.48 4.86999 7.46 4.84999 7.46C4.83999 7.46 4.82999 7.45 4.81999 7.43C4.81999 7.42 4.76999 7.36 4.75999 7.35C4.74999 7.34 4.70999 7.3 4.69999 7.29C4.69999 7.29 4.69999 7.27 4.69999 7.26C4.69999 7.26 4.72999 7.21 4.73999 7.19C4.73999 7.17 4.73999 7.17 4.73999 7.17C4.69999 7.14 4.65999 7.09 4.62999 7.05C4.62999 7.05 4.56999 7.05 4.54999 7.05C4.52999 7.05 4.50999 7.04 4.48999 7.05C4.48999 7.06 4.48999 7.09 4.48999 7.1C4.50999 7.11 4.52999 7.14 4.54999 7.17C4.56999 7.2 4.54999 7.22 4.52999 7.24C4.52999 7.25 4.52999 7.24 4.52999 7.27C4.52999 7.28 4.52999 7.32 4.52999 7.32C4.51999 7.32 4.49999 7.34 4.48999 7.35C4.47999 7.37 4.46999 7.35 4.47999 7.32C4.47999 7.3 4.46999 7.29 4.45999 7.27C4.44999 7.26 4.45999 7.22 4.45999 7.21C4.45999 7.2 4.47999 7.18 4.45999 7.16C4.43999 7.14 4.40999 7.11 4.41999 7.06C4.41999 7 4.48999 6.98 4.51999 6.99C4.57999 7.02 4.60999 7.01 4.62999 7.01C4.64999 6.98001 4.66999 6.96 4.69999 6.94C4.72999 6.92 4.79999 6.89 4.85999 6.88L5.01999 6.82C5.01999 6.82 5.03999 6.79 5.03999 6.78C5.01999 6.67 5.02999 6.56 5.10999 6.5C5.10999 6.5 5.10999 6.47 5.12999 6.45C5.12999 6.45 5.14999 6.48 5.14999 6.49C5.18999 6.5 5.25999 6.53 5.27999 6.54C5.28999 6.54 5.30999 6.54 5.30999 6.55C5.30999 6.55 5.31999 6.56 5.32999 6.57C5.32999 6.58 5.32999 6.6 5.32999 6.6H5.28999C5.28999 6.6 5.28999 6.62 5.31999 6.62C5.31999 6.62 5.31999 6.64 5.30999 6.64C5.30999 6.64 5.29999 6.64 5.28999 6.64C5.26999 6.64 5.24999 6.63 5.22999 6.62L5.21999 6.61Z" fill="white"/>
<path d="M4.83999 7.49001C4.83999 7.49001 4.83999 7.48001 4.83999 7.47001C4.83999 7.47001 4.83999 7.47001 4.82999 7.47001C4.80999 7.47001 4.79999 7.46001 4.79999 7.44001C4.79999 7.43001 4.74999 7.37001 4.73999 7.36001C4.73999 7.36001 4.73999 7.36001 4.71999 7.34001C4.70999 7.33001 4.67999 7.30001 4.67999 7.30001C4.67999 7.30001 4.67999 7.30001 4.67999 7.29001V7.27001C4.67999 7.27001 4.70999 7.22001 4.71999 7.20001C4.71999 7.19001 4.71999 7.19001 4.71999 7.18001C4.67999 7.15001 4.63999 7.11001 4.61999 7.07001C4.59999 7.07001 4.55999 7.07001 4.53999 7.07001C4.53999 7.07001 4.50999 7.06001 4.48999 7.07001C4.48999 7.08001 4.48999 7.10001 4.48999 7.11001C4.50999 7.12001 4.52999 7.15001 4.54999 7.18001C4.57999 7.21001 4.54999 7.23001 4.52999 7.25001C4.52999 7.25001 4.52999 7.25001 4.52999 7.26001C4.52999 7.27001 4.52999 7.29001 4.52999 7.30001C4.52999 7.30001 4.52999 7.31001 4.51999 7.32001C4.50999 7.32001 4.49999 7.33001 4.48999 7.35001C4.48999 7.35001 4.47999 7.35001 4.46999 7.35001C4.45999 7.35001 4.46999 7.32001 4.46999 7.31001C4.46999 7.30001 4.46999 7.28001 4.44999 7.27001C4.44999 7.27001 4.44999 7.21001 4.44999 7.20001C4.44999 7.20001 4.45999 7.17001 4.44999 7.16001C4.43999 7.15001 4.39999 7.11001 4.39999 7.06001C4.39999 7.03001 4.41999 7.01001 4.43999 7.00001C4.45999 6.99001 4.48999 6.99001 4.50999 7.00001C4.55999 7.02001 4.58999 7.02001 4.60999 7.02001C4.61999 7.00001 4.64999 6.97001 4.68999 6.95001C4.71999 6.93001 4.78999 6.90001 4.85999 6.89001L5.01999 6.83001C5.01999 6.83001 5.03999 6.82001 5.03999 6.80001C5.00999 6.66001 5.03999 6.56001 5.11999 6.51001C5.11999 6.51001 5.11999 6.51001 5.11999 6.49001C5.11999 6.49001 5.11999 6.47001 5.12999 6.46001C5.12999 6.46001 5.12999 6.46001 5.12999 6.47001C5.12999 6.47001 5.13999 6.49001 5.14999 6.50001C5.17999 6.51001 5.24999 6.54001 5.27999 6.55001H5.29999C5.29999 6.55001 5.29999 6.55001 5.30999 6.55001C5.30999 6.55001 5.32999 6.56001 5.32999 6.57001C5.32999 6.57001 5.32999 6.58001 5.32999 6.59001C5.32999 6.59001 5.32999 6.60001 5.31999 6.61001C5.31999 6.61001 5.31999 6.61001 5.29999 6.61001H5.27999C5.27999 6.61001 5.27999 6.61001 5.29999 6.62001C5.29999 6.62001 5.29999 6.62001 5.29999 6.63001C5.29999 6.63001 5.28999 6.65001 5.27999 6.65001C5.27999 6.65001 5.26999 6.65001 5.25999 6.65001C5.24999 6.65001 5.22999 6.65001 5.21999 6.64001C5.21999 6.64001 5.20999 6.64001 5.19999 6.64001C5.17999 6.64001 5.17999 6.64001 5.15999 6.64001C5.15999 6.64001 5.15999 6.67001 5.15999 6.68001C5.19999 6.72001 5.24999 6.78001 5.24999 6.83001C5.25999 6.84001 5.26999 6.85001 5.27999 6.87001C5.28999 6.87001 5.29999 6.86001 5.30999 6.85001C5.32999 6.84001 5.34999 6.82001 5.36999 6.82001C5.38999 6.82001 5.41999 6.82001 5.43999 6.82001C5.43999 6.82001 5.52999 6.87001 5.54999 6.89001C5.56999 6.90001 5.58999 6.92001 5.59999 6.94001C5.60999 6.96001 5.60999 6.99001 5.59999 7.00001L5.52999 6.98001C5.52999 6.97001 5.52999 6.96001 5.52999 6.94001C5.52999 6.94001 5.51999 6.94001 5.50999 6.94001C5.50999 6.94001 5.48999 6.94001 5.47999 6.93001C5.47999 6.93001 5.40999 6.89001 5.39999 6.89001C5.37999 6.89001 5.36999 6.89001 5.35999 6.89001C5.35999 6.89001 5.32999 6.94001 5.30999 6.95001C5.31999 6.95001 5.35999 6.95001 5.37999 6.95001C5.40999 6.95001 5.43999 6.98001 5.45999 7.00001C5.50999 7.04001 5.52999 7.07001 5.54999 7.09001C5.54999 7.10001 5.56999 7.11001 5.56999 7.11001C5.56999 7.11001 5.58999 7.13001 5.58999 7.15001H5.51999C5.51999 7.13001 5.51999 7.11001 5.51999 7.10001C5.51999 7.10001 5.50999 7.10001 5.49999 7.10001C5.49999 7.10001 5.48999 7.10001 5.46999 7.08001C5.46999 7.06001 5.42999 7.04001 5.40999 7.03001C5.40999 7.03001 5.39999 7.03001 5.38999 7.03001C5.38999 7.03001 5.38999 7.03001 5.37999 7.03001C5.36999 7.03001 5.34999 7.03001 5.32999 7.03001C5.31999 7.03001 5.26999 7.05001 5.21999 7.06001C5.20999 7.06001 5.16999 7.07001 5.12999 7.08001C5.11999 7.08001 5.10999 7.08001 5.09999 7.08001C5.05999 7.08001 4.97999 7.10001 4.95999 7.10001C4.95999 7.14001 4.90999 7.20001 4.89999 7.21001C4.89999 7.22001 4.88999 7.24001 4.89999 7.24001C4.89999 7.24001 4.92999 7.24001 4.97999 7.24001C4.97999 7.24001 4.97999 7.24001 4.98999 7.24001C5.00999 7.24001 5.03999 7.24001 5.04999 7.24001C5.04999 7.24001 5.06999 7.24001 5.07999 7.25001C5.07999 7.25001 5.08999 7.25001 5.09999 7.26001C5.10999 7.26001 5.11999 7.27001 5.11999 7.28001V7.29001C5.11999 7.29001 5.11999 7.29001 5.11999 7.30001H5.03999V7.28001C5.02999 7.28001 5.00999 7.30001 4.99999 7.29001C4.96999 7.29001 4.93999 7.29001 4.91999 7.29001C4.88999 7.29001 4.86999 7.29001 4.83999 7.29001C4.83999 7.29001 4.81999 7.29001 4.81999 7.28001C4.81999 7.27001 4.80999 7.25001 4.81999 7.24001C4.81999 7.22001 4.81999 7.21001 4.81999 7.20001C4.81999 7.20001 4.79999 7.22001 4.78999 7.23001C4.77999 7.24001 4.77999 7.26001 4.78999 7.28001C4.79999 7.29001 4.86999 7.35001 4.87999 7.37001C4.87999 7.37001 4.89999 7.39001 4.91999 7.41001H4.92999V7.42001C4.92999 7.43001 4.93999 7.44001 4.94999 7.45001C4.94999 7.45001 4.94999 7.45001 4.95999 7.46001H4.85999L4.83999 7.49001ZM4.82999 7.44001C4.82999 7.44001 4.83999 7.44001 4.84999 7.44001C4.85999 7.44001 4.84999 7.45001 4.84999 7.45001V7.47001H4.92999C4.92999 7.47001 4.90999 7.45001 4.89999 7.44001H4.88999C4.88999 7.44001 4.84999 7.40001 4.83999 7.39001C4.83999 7.37001 4.76999 7.31001 4.75999 7.30001C4.73999 7.27001 4.75999 7.25001 4.75999 7.24001C4.75999 7.24001 4.77999 7.22001 4.78999 7.21001C4.78999 7.21001 4.78999 7.21001 4.79999 7.20001C4.79999 7.22001 4.79999 7.23001 4.79999 7.25001C4.79999 7.25001 4.79999 7.27001 4.79999 7.28001C4.79999 7.28001 4.79999 7.28001 4.80999 7.28001C4.83999 7.28001 4.85999 7.28001 4.88999 7.28001C4.90999 7.28001 4.93999 7.28001 4.96999 7.28001C4.97999 7.28001 4.98999 7.28001 4.99999 7.27001C4.99999 7.27001 5.00999 7.27001 5.01999 7.27001C5.01999 7.27001 5.01999 7.28001 5.01999 7.29001H5.08999C5.08999 7.29001 5.08999 7.27001 5.06999 7.27001C5.06999 7.27001 5.05999 7.27001 5.04999 7.26001L5.02999 7.25001C5.02999 7.25001 4.98999 7.25001 4.97999 7.25001C4.97999 7.25001 4.97999 7.25001 4.96999 7.25001C4.91999 7.25001 4.88999 7.25001 4.87999 7.25001C4.87999 7.25001 4.86999 7.22001 4.87999 7.20001C4.88999 7.20001 4.92999 7.14001 4.93999 7.10001C4.95999 7.10001 5.04999 7.09001 5.08999 7.08001C5.09999 7.08001 5.10999 7.08001 5.11999 7.08001C5.15999 7.08001 5.18999 7.07001 5.19999 7.06001C5.23999 7.06001 5.28999 7.04001 5.30999 7.03001C5.32999 7.03001 5.34999 7.03001 5.35999 7.03001C5.35999 7.03001 5.35999 7.03001 5.36999 7.03001C5.36999 7.03001 5.38999 7.03001 5.39999 7.03001C5.39999 7.03001 5.44999 7.06001 5.45999 7.09001C5.46999 7.11001 5.47999 7.11001 5.47999 7.11001C5.47999 7.11001 5.49999 7.11001 5.50999 7.11001C5.50999 7.12001 5.50999 7.14001 5.50999 7.16001H5.56999C5.56999 7.16001 5.56999 7.14001 5.54999 7.13001C5.54999 7.13001 5.53999 7.11001 5.52999 7.10001C5.50999 7.08001 5.47999 7.05001 5.43999 7.01001C5.42999 6.99001 5.38999 6.97001 5.36999 6.96001C5.33999 6.96001 5.29999 6.96001 5.29999 6.96001V6.94001C5.31999 6.92001 5.34999 6.88001 5.34999 6.88001C5.35999 6.87001 5.37999 6.86001 5.39999 6.87001C5.40999 6.87001 5.47999 6.90001 5.48999 6.91001C5.48999 6.91001 5.49999 6.91001 5.50999 6.91001C5.50999 6.91001 5.52999 6.91001 5.53999 6.91001C5.54999 6.91001 5.54999 6.92001 5.53999 6.93001C5.53999 6.94001 5.53999 6.95001 5.53999 6.96001L5.59999 6.98001C5.59999 6.98001 5.59999 6.95001 5.59999 6.94001C5.58999 6.92001 5.56999 6.90001 5.54999 6.89001C5.52999 6.88001 5.44999 6.83001 5.43999 6.82001C5.42999 6.82001 5.38999 6.82001 5.37999 6.82001C5.35999 6.82001 5.34999 6.84001 5.32999 6.85001C5.31999 6.85001 5.29999 6.87001 5.28999 6.87001C5.28999 6.85001 5.26999 6.84001 5.25999 6.83001C5.25999 6.77001 5.20999 6.72001 5.16999 6.68001C5.16999 6.68001 5.16999 6.64001 5.16999 6.63001C5.18999 6.63001 5.19999 6.63001 5.21999 6.63001C5.21999 6.63001 5.22999 6.63001 5.23999 6.63001C5.24999 6.63001 5.26999 6.63001 5.27999 6.64001C5.27999 6.64001 5.27999 6.64001 5.28999 6.64001H5.29999C5.27999 6.64001 5.26999 6.63001 5.26999 6.62001C5.26999 6.62001 5.28999 6.62001 5.29999 6.62001H5.30999C5.30999 6.62001 5.30999 6.62001 5.30999 6.61001C5.30999 6.61001 5.29999 6.60001 5.28999 6.59001C5.28999 6.59001 5.28999 6.59001 5.27999 6.59001H5.25999C5.22999 6.58001 5.15999 6.55001 5.12999 6.54001C5.12999 6.54001 5.12999 6.52001 5.11999 6.51001C5.11999 6.51001 5.11999 6.52001 5.11999 6.53001V6.55001C5.02999 6.61001 5.02999 6.73001 5.04999 6.83001C5.04999 6.86001 5.03999 6.87001 5.02999 6.87001L4.86999 6.93001C4.80999 6.94001 4.73999 6.97001 4.70999 6.99001C4.66999 7.01001 4.64999 7.04001 4.63999 7.06001C4.62999 7.06001 4.58999 7.07001 4.52999 7.04001C4.50999 7.04001 4.48999 7.04001 4.46999 7.04001C4.44999 7.05001 4.43999 7.07001 4.43999 7.10001C4.43999 7.15001 4.46999 7.18001 4.47999 7.19001C4.49999 7.21001 4.48999 7.23001 4.47999 7.25001C4.47999 7.26001 4.46999 7.30001 4.47999 7.31001C4.47999 7.31001 4.50999 7.34001 4.49999 7.36001C4.49999 7.38001 4.49999 7.39001 4.49999 7.39001C4.50999 7.38001 4.51999 7.37001 4.53999 7.36001C4.53999 7.36001 4.53999 7.36001 4.53999 7.35001C4.53999 7.34001 4.53999 7.32001 4.53999 7.31001C4.53999 7.31001 4.53999 7.30001 4.53999 7.29001C4.56999 7.26001 4.57999 7.25001 4.55999 7.23001C4.53999 7.20001 4.51999 7.18001 4.49999 7.17001C4.47999 7.16001 4.47999 7.13001 4.49999 7.12001C4.50999 7.10001 4.53999 7.10001 4.55999 7.11001C4.57999 7.12001 4.62999 7.12001 4.63999 7.11001C4.65999 7.15001 4.69999 7.19001 4.73999 7.23001C4.73999 7.23001 4.73999 7.24001 4.73999 7.26001C4.73999 7.29001 4.70999 7.33001 4.69999 7.34001C4.69999 7.34001 4.69999 7.34001 4.69999 7.35001C4.69999 7.35001 4.71999 7.36001 4.74999 7.39001C4.74999 7.39001 4.75999 7.40001 4.76999 7.41001C4.77999 7.42001 4.82999 7.48001 4.82999 7.49001C4.82999 7.49001 4.83999 7.51001 4.84999 7.51001L4.82999 7.44001Z" fill="black"/>
<path d="M4.81 7.20001C4.86 7.18001 4.9 7.12001 4.9 7.09001C4.9 7.07001 4.89 7.04001 4.84 7.04001C4.84 7.04001 4.9 7.07001 4.91 7.09001C4.91 7.09001 4.93 7.09001 4.94 7.09001C4.95 7.09001 4.96 7.09001 4.97 7.09001C4.97 7.09001 4.95 7.09001 4.94 7.09001C4.93 7.09001 4.92 7.09001 4.91 7.09001C4.91 7.13001 4.86 7.18001 4.81 7.20001ZM5.28 7.03001C5.28 7.03001 5.23 7.03001 5.22 7.02001C5.22 7.02001 5.21 7.02001 5.2 7.02001C5.21 7.02001 5.22 7.02001 5.23 7.02001C5.25 7.02001 5.26 7.03001 5.3 7.03001C5.3 7.03001 5.29 7.03001 5.28 7.03001ZM5.33 6.96001C5.33 6.96001 5.3 6.96001 5.28 6.95001C5.26 6.95001 5.24 6.94001 5.22 6.94001C5.24 6.94001 5.26 6.94001 5.29 6.95001C5.29 6.93001 5.29 6.90001 5.29 6.88001C5.29 6.91001 5.29 6.93001 5.29 6.96001C5.3 6.96001 5.31 6.96001 5.32 6.96001H5.33ZM5.26 6.82001C5.24 6.81001 5.22 6.79001 5.19 6.79001C5.22 6.79001 5.25 6.81001 5.27 6.82001H5.26ZM5.17 6.67001C5.13 6.64001 5.11 6.60001 5.11 6.54001C5.11 6.60001 5.13 6.63001 5.17 6.66001V6.67001Z" fill="black"/>
<path d="M4.88998 7.12001C4.91998 7.12001 4.93998 7.12001 4.94998 7.09001C4.93998 7.12001 4.90998 7.12001 4.88998 7.12001ZM5.16998 6.62001C5.12998 6.62001 5.09998 6.60001 5.10998 6.54001C5.10998 6.59001 5.12998 6.60001 5.16998 6.61001V6.62001Z" fill="black"/>
<path d="M4.83999 7.03C4.83999 7.03 4.83999 7.03 4.83999 7.02C4.83999 7.02 4.83999 7.02 4.83999 7.03ZM5.28999 6.59C5.28999 6.58 5.26999 6.57 5.25999 6.56C5.23999 6.55 5.20999 6.53 5.21999 6.51C5.21999 6.53 5.22999 6.55 5.25999 6.56C5.27999 6.56 5.28999 6.58 5.29999 6.59H5.28999ZM5.32999 6.57H5.31999C5.31999 6.57 5.31999 6.56 5.31999 6.55C5.31999 6.55 5.31999 6.56 5.31999 6.57C5.31999 6.57 5.31999 6.57 5.33999 6.57H5.32999Z" fill="black"/>
<path d="M5.27 6.59001C5.27 6.59001 5.23 6.66001 5.19 6.68001C5.14 6.71001 5.09 6.74001 5.03 6.75001C5.03 6.75001 5.01 6.75001 5 6.75001C4.99 6.75001 4.98 6.74001 4.97 6.72001C4.97 6.72001 4.97 6.67001 4.98 6.66001C5 6.66001 5.01 6.66001 5.03 6.66001C5.03 6.66001 5.05 6.66001 5.05 6.68001C5.05 6.69001 5.04 6.70001 5.03 6.69001C5.02 6.69001 5 6.68001 4.99 6.69001C4.99 6.69001 4.98 6.71001 4.99 6.72001C4.99 6.73001 5.01 6.74001 5.01 6.74001H5.03C5.09 6.73001 5.14 6.70001 5.18 6.67001C5.21 6.65001 5.24 6.60001 5.25 6.58001H5.26L5.27 6.59001ZM5.03 6.67001H4.98C4.99 6.67001 5.01 6.67001 5.03 6.67001ZM5.15 6.53001C5.15 6.53001 5.15 6.48001 5.18 6.50001C5.21 6.52001 5.18 6.53001 5.18 6.54001V6.55001" fill="white"/>
<path d="M5.01998 6.76C5.01998 6.76 5.01998 6.76 5.00998 6.76C5.00998 6.76 4.98998 6.76 4.97998 6.73C4.97998 6.73 4.97998 6.7 4.97998 6.68C4.97998 6.68 4.97998 6.67 4.98998 6.67C5.00998 6.67 5.01998 6.67 5.03998 6.67H5.05998C5.05998 6.67 5.05998 6.67 5.05998 6.68C5.05998 6.68 5.05998 6.68 5.05998 6.69C5.05998 6.69 5.04998 6.69 5.03998 6.69C5.02998 6.69 5.00998 6.69 5.00998 6.69C5.00998 6.69 4.99998 6.71 5.00998 6.72C5.00998 6.73 5.02998 6.74 5.02998 6.74H5.04998C5.10998 6.73 5.14998 6.7 5.19998 6.67C5.22998 6.65 5.25998 6.6 5.26998 6.58H5.27998C5.25998 6.61 5.22998 6.65 5.19998 6.67C5.14998 6.71 5.09998 6.73 5.03998 6.74C5.03998 6.74 5.02998 6.74 5.01998 6.74V6.76ZM5.02998 6.67C5.02998 6.67 4.99998 6.67 4.98998 6.67C4.98998 6.67 4.98998 6.67 4.98998 6.68C4.98998 6.69 4.98998 6.72 4.98998 6.72C4.98998 6.74 5.00998 6.74 5.01998 6.75C5.02998 6.75 5.03998 6.75 5.04998 6.75C5.10998 6.74 5.15998 6.71 5.20998 6.68C5.23998 6.66 5.26998 6.62 5.27998 6.59H5.26998C5.26998 6.59 5.22998 6.65 5.19998 6.67C5.14998 6.7 5.09998 6.73 5.04998 6.74C5.04998 6.74 5.02998 6.74 5.01998 6.74C5.01998 6.74 4.99998 6.74 4.99998 6.72C4.99998 6.72 4.99998 6.69 4.99998 6.68C4.99998 6.68 5.02998 6.68 5.03998 6.68C5.03998 6.68 5.03998 6.68 5.04998 6.68C5.04998 6.68 5.04998 6.68 5.02998 6.68V6.67ZM5.03998 6.68C5.01998 6.68 5.00998 6.68 4.98998 6.68C4.98998 6.68 5.01998 6.67 5.03998 6.68ZM5.18998 6.55V6.54C5.18998 6.54 5.18998 6.54 5.18998 6.53C5.18998 6.53 5.18998 6.52 5.16998 6.52H5.14998C5.14998 6.52 5.14998 6.53 5.14998 6.54V6.55C5.14998 6.55 5.14998 6.54 5.14998 6.53V6.51C5.14998 6.51 5.15998 6.51 5.16998 6.51C5.17998 6.51 5.18998 6.52 5.18998 6.53C5.18998 6.53 5.18998 6.54 5.18998 6.55Z" fill="black"/>
<path d="M5.28 6.60001L5.09 6.50001L5.1 6.49001L5.28 6.59001L5.29 6.60001H5.28Z" fill="black"/>
<path d="M4.85999 6.51001C4.85999 6.51001 4.76999 6.51001 4.72999 6.51001C4.70999 6.51001 4.66999 6.57001 4.64999 6.58001C4.62999 6.59001 4.59999 6.53001 4.56999 6.54001C4.54999 6.55001 4.56999 6.62001 4.56999 6.62001C4.55999 6.62001 4.52999 6.59001 4.50999 6.60001C4.48999 6.61001 4.52999 6.70001 4.50999 6.71001C4.50999 6.71001 4.45999 6.67001 4.43999 6.68001C4.41999 6.69001 4.44999 6.82001 4.43999 6.83001C4.42999 6.83001 4.36999 6.79001 4.35999 6.81001C4.34999 6.83001 4.43999 6.87001 4.46999 6.87001H4.49999C4.49999 6.87001 4.57999 6.87001 4.58999 6.87001L4.62999 6.83001C4.69999 6.75001 4.76999 6.67001 4.85999 6.67001V6.51001Z" fill="white"/>
<path d="M4.59 6.87001C4.59 6.87001 4.51 6.87001 4.5 6.86001H4.48C4.46 6.86001 4.38 6.83001 4.37 6.80001C4.37 6.80001 4.37 6.80001 4.37 6.79001C4.37 6.78001 4.4 6.79001 4.42 6.79001C4.43 6.79001 4.45 6.80001 4.45 6.79001C4.45 6.79001 4.45 6.75001 4.45 6.72001C4.45 6.67001 4.45 6.65001 4.45 6.64001C4.45 6.64001 4.47 6.64001 4.49 6.66001C4.49 6.66001 4.51 6.68001 4.52 6.67001C4.52 6.67001 4.52 6.65001 4.52 6.63001C4.52 6.60001 4.51 6.57001 4.52 6.56001C4.53 6.56001 4.55 6.56001 4.56 6.57001C4.56 6.57001 4.58 6.58001 4.58 6.57001C4.58 6.57001 4.58 6.55001 4.58 6.54001C4.58 6.52001 4.58 6.49001 4.58 6.49001C4.6 6.49001 4.62 6.49001 4.63 6.51001C4.64 6.51001 4.65 6.53001 4.66 6.53001C4.67 6.53001 4.69 6.51001 4.7 6.49001C4.72 6.47001 4.73 6.46001 4.74 6.46001C4.77 6.46001 4.83 6.47001 4.87 6.46001V6.62001C4.78 6.62001 4.7 6.70001 4.64 6.78001L4.6 6.82001L4.59 6.87001ZM4.5 6.85001C4.5 6.85001 4.56 6.85001 4.59 6.86001L4.63 6.82001C4.69 6.74001 4.76 6.66001 4.86 6.66001V6.51001C4.86 6.51001 4.77 6.51001 4.74 6.51001C4.74 6.51001 4.72 6.53001 4.7 6.54001C4.68 6.56001 4.67 6.57001 4.65 6.58001C4.64 6.58001 4.63 6.58001 4.62 6.56001C4.61 6.55001 4.59 6.54001 4.57 6.54001C4.57 6.54001 4.57 6.57001 4.57 6.59001C4.57 6.61001 4.57 6.62001 4.57 6.63001C4.57 6.63001 4.55 6.63001 4.54 6.63001C4.53 6.63001 4.51 6.61001 4.51 6.62001C4.51 6.62001 4.51 6.66001 4.51 6.68001C4.51 6.71001 4.51 6.72001 4.51 6.72001C4.51 6.72001 4.49 6.72001 4.48 6.71001C4.47 6.71001 4.45 6.69001 4.45 6.69001C4.45 6.69001 4.45 6.74001 4.45 6.76001C4.45 6.81001 4.45 6.83001 4.45 6.84001C4.45 6.84001 4.43 6.84001 4.41 6.84001C4.39 6.84001 4.37 6.82001 4.37 6.84001C4.38 6.86001 4.45 6.89001 4.48 6.89001H4.51L4.5 6.85001Z" fill="black"/>
<path d="M4.49999 6.86001C4.52999 6.80001 4.59999 6.74001 4.65999 6.70001C4.60999 6.73001 4.53999 6.79001 4.50999 6.85001L4.49999 6.86001ZM4.43999 6.82001C4.48999 6.76001 4.61999 6.67001 4.65999 6.66001C4.61999 6.66001 4.48999 6.76001 4.43999 6.81001V6.82001ZM4.49999 6.71001C4.57999 6.66001 4.64999 6.63001 4.72999 6.61001C4.65999 6.63001 4.58999 6.67001 4.49999 6.71001ZM4.55999 6.62001C4.60999 6.60001 4.67999 6.59001 4.72999 6.59001C4.66999 6.59001 4.60999 6.59001 4.55999 6.62001ZM4.64999 6.57001C4.72999 6.56001 4.76999 6.56001 4.78999 6.56001C4.76999 6.56001 4.73999 6.56001 4.64999 6.57001Z" fill="black"/>
<path d="M5.13 7.60001L5.14 7.61001C5.14 7.61001 5.13 7.61001 5.12 7.61001L4.54 7.44001V7.41001L5.12 7.59001L5.13 7.60001ZM4.57 6.80001C4.57 6.80001 4.56 6.78001 4.55 6.78001C4.55 6.78001 4.53 6.79001 4.53 6.80001L4.55 6.82001H4.56L4.57 6.80001ZM4.63 6.82001L4.58 6.87001C4.58 6.87001 4.58 6.89001 4.59 6.88001L4.64 6.83001C4.64 6.83001 4.64 6.81001 4.63 6.82001ZM4.6 6.86001L4.75 7.02001H4.78V6.99001L4.62 6.84001L4.6 6.86001Z" fill="white"/>
<path d="M5.12 7.63001L4.54 7.46001C4.54 7.46001 4.53 7.46001 4.53 7.45001C4.53 7.45001 4.53 7.44001 4.53 7.43001C4.53 7.43001 4.54 7.43001 4.55 7.43001L5.13 7.61001C5.13 7.61001 5.14 7.62001 5.14 7.63001C5.14 7.63001 5.13 7.63001 5.12 7.63001ZM4.54 7.43001C4.54 7.43001 4.54 7.43001 4.54 7.44001L5.12 7.61001C5.12 7.61001 5.12 7.61001 5.13 7.61001L4.55 7.43001H4.54ZM4.79 7.03001H4.76L4.61 6.88001H4.6C4.6 6.88001 4.59 6.89001 4.58 6.88001C4.58 6.88001 4.58 6.87001 4.58 6.86001L4.63 6.81001H4.62L4.77 6.97001V7.00001L4.79 7.03001ZM4.76 7.01001H4.78V6.99001L4.63 6.84001L4.61 6.86001L4.76 7.01001ZM4.56 6.81001C4.56 6.81001 4.53 6.80001 4.53 6.79001C4.53 6.79001 4.53 6.79001 4.53 6.78001C4.53 6.78001 4.53 6.78001 4.54 6.78001C4.55 6.78001 4.56 6.79001 4.57 6.81001H4.56ZM4.55 6.78001C4.55 6.78001 4.54 6.78001 4.54 6.79001C4.54 6.79001 4.55 6.80001 4.56 6.81001H4.57C4.57 6.81001 4.56 6.78001 4.55 6.78001Z" fill="black"/>
<path d="M4.95999 6.57C4.95999 6.57 4.95999 6.56 4.95999 6.55C4.96999 6.55 4.95999 6.55 4.96999 6.55C4.96999 6.55 4.97999 6.55 4.97999 6.56V6.55H4.98999C4.98999 6.55 4.98999 6.53 4.98999 6.52C4.99999 6.52 4.98999 6.51 4.99999 6.51C5.00999 6.51 5.01999 6.49 5.00999 6.49C5.00999 6.47 5.01999 6.47 5.03999 6.47C5.03999 6.46 5.01999 6.46 5.00999 6.44C5.00999 6.43 4.96999 6.41 4.93999 6.41C4.90999 6.41 4.87999 6.44 4.86999 6.46C4.85999 6.48 4.82999 6.48 4.81999 6.48C4.81999 6.48 4.80999 6.48 4.79999 6.48C4.79999 6.48 4.77999 6.48 4.76999 6.48C4.75999 6.48 4.74999 6.48 4.73999 6.48C4.73999 6.48 4.69999 6.48 4.68999 6.48C4.67999 6.48 4.68999 6.5 4.68999 6.5C4.68999 6.5 4.71999 6.5 4.72999 6.5C4.73999 6.5 4.76999 6.5 4.77999 6.5C4.79999 6.5 4.81999 6.5 4.84999 6.51V6.54H4.82999C4.82999 6.54 4.80999 6.54 4.79999 6.53C4.78999 6.53 4.77999 6.53 4.77999 6.53C4.74999 6.54 4.62999 6.64 4.61999 6.66C4.60999 6.68 4.58999 6.7 4.56999 6.73C4.55999 6.75 4.53999 6.77 4.52999 6.81C4.50999 6.81 4.48999 6.84 4.48999 6.84V6.85C4.48999 6.85 4.48999 6.86 4.49999 6.86V6.87L4.54999 6.82C4.54999 6.82 4.55999 6.78 4.56999 6.77C4.59999 6.74 4.62999 6.69 4.63999 6.67C4.63999 6.67 4.69999 6.64 4.71999 6.63C4.71999 6.67 4.71999 6.7 4.71999 6.72C4.71999 6.76 4.73999 6.78 4.74999 6.82C4.74999 6.85 4.74999 6.87 4.74999 6.89C4.74999 6.9 4.74999 6.9 4.76999 6.91C4.77999 6.91 4.82999 6.91 4.83999 6.91C4.86999 6.91 4.88999 6.91 4.89999 6.92C4.92999 6.92 4.95999 6.92 4.96999 6.93C4.97999 6.93 4.99999 6.99 5.00999 7.01C5.00999 7.03 5.05999 7.05 5.06999 7.06C5.06999 7.07 5.08999 7.1 5.07999 7.11C5.07999 7.12 5.07999 7.13 5.08999 7.13C5.09999 7.13 5.13999 7.13 5.14999 7.13C5.14999 7.13 5.16999 7.15 5.17999 7.15C5.18999 7.15 5.20999 7.15 5.22999 7.15C5.24999 7.15 5.23999 7.13 5.22999 7.13C5.22999 7.13 5.19999 7.13 5.18999 7.13C5.17999 7.13 5.14999 7.1 5.13999 7.09C5.12999 7.08 5.11999 7.06 5.11999 7.04C5.11999 7.03 5.06999 6.97 5.05999 6.95C5.05999 6.95 5.02999 6.89 5.02999 6.88C5.02999 6.87 5.00999 6.86 5.00999 6.86C4.96999 6.85 4.95999 6.84 4.91999 6.84C4.88999 6.84 4.88999 6.84 4.87999 6.81C4.87999 6.8 4.86999 6.77 4.87999 6.75C4.87999 6.75 4.87999 6.72 4.87999 6.71C4.87999 6.71 4.87999 6.69 4.87999 6.68C4.87999 6.67 4.87999 6.63 4.87999 6.62C4.87999 6.6 4.87999 6.59 4.87999 6.57H4.95999ZM4.98999 6.73C4.98999 6.73 4.96999 6.73 4.95999 6.73C4.95999 6.73 4.97999 6.73 4.98999 6.73C4.98999 6.73 4.98999 6.76 4.98999 6.77V6.73Z" fill="white"/>
<path d="M5.29998 7.16C5.29998 7.16 5.27998 7.16 5.25998 7.16C5.25998 7.16 5.24998 7.16 5.23998 7.15C5.23998 7.15 5.23998 7.15 5.22998 7.15C5.22998 7.15 5.18998 7.14 5.17998 7.15C5.17998 7.15 5.16998 7.15 5.15998 7.15C5.15998 7.15 5.15998 7.14 5.15998 7.13C5.15998 7.12 5.15998 7.09 5.14998 7.08C5.14998 7.08 5.13998 7.08 5.12998 7.06C5.10998 7.05 5.08998 7.03 5.08998 7.02C5.08998 7.02 5.05998 6.95 5.04998 6.95C5.04998 6.95 5.01998 6.93 4.97998 6.94C4.97998 6.94 4.97998 6.94 4.96998 6.94C4.95998 6.94 4.93998 6.94 4.91998 6.94C4.91998 6.94 4.89998 6.94 4.88998 6.94C4.86998 6.94 4.84998 6.94 4.84998 6.94C4.84998 6.94 4.82998 6.93 4.82998 6.92C4.82998 6.92 4.82998 6.91 4.82998 6.9C4.82998 6.89 4.82998 6.87 4.82998 6.85C4.82998 6.84 4.82998 6.82 4.81998 6.81C4.81998 6.79 4.80998 6.78 4.79998 6.75C4.79998 6.73 4.79998 6.7 4.79998 6.67C4.78998 6.67 4.77998 6.68 4.75998 6.69C4.74998 6.69 4.72998 6.7 4.72998 6.71C4.72998 6.71 4.68998 6.78 4.66998 6.81C4.66998 6.81 4.64998 6.84 4.64998 6.86L4.59998 6.91C4.59998 6.91 4.59998 6.91 4.58998 6.91C4.58998 6.91 4.58998 6.91 4.58998 6.9C4.58998 6.9 4.60998 6.88 4.62998 6.87C4.62998 6.85 4.64998 6.83 4.65998 6.82C4.65998 6.82 4.65998 6.81 4.66998 6.8C4.67998 6.78 4.68998 6.77 4.69998 6.75C4.69998 6.75 4.70998 6.73 4.71998 6.72C4.72998 6.7 4.84998 6.6 4.88998 6.59C4.88998 6.59 4.89998 6.59 4.91998 6.59C4.91998 6.59 4.92998 6.59 4.93998 6.59H4.95998C4.95998 6.59 4.95998 6.59 4.95998 6.58H4.93998C4.92998 6.58 4.90998 6.57 4.89998 6.58C4.88998 6.58 4.84998 6.58 4.83998 6.58H4.80998C4.80998 6.58 4.78998 6.57 4.78998 6.56V6.55C4.79998 6.55 4.82998 6.55 4.83998 6.55C4.83998 6.55 4.83998 6.55 4.84998 6.55C4.84998 6.55 4.84998 6.55 4.85998 6.55H4.88998H4.89998C4.89998 6.55 4.92998 6.55 4.93998 6.53C4.94998 6.51 4.97998 6.48 5.01998 6.48C5.04998 6.48 5.08998 6.5 5.09998 6.51C5.09998 6.51 5.09998 6.51 5.10998 6.52C5.10998 6.52 5.11998 6.52 5.11998 6.54C5.09998 6.54 5.08998 6.54 5.08998 6.55V6.57C5.08998 6.57 5.08998 6.57 5.07998 6.57C5.07998 6.57 5.07998 6.58 5.06998 6.58C5.06998 6.58 5.06998 6.59 5.06998 6.6V6.61C5.06998 6.61 5.06998 6.61 5.05998 6.61C5.05998 6.61 5.05998 6.61 5.05998 6.62C5.05998 6.62 5.05998 6.62 5.04998 6.62C5.04998 6.62 5.04998 6.62 5.04998 6.63C5.04998 6.64 5.04998 6.65 5.04998 6.67C5.04998 6.67 5.04998 6.72 5.04998 6.73C5.04998 6.73 5.04998 6.73 5.04998 6.74H5.06998C5.06998 6.75 5.06998 6.78 5.06998 6.78C5.06998 6.78 5.04998 6.78 5.03998 6.78C5.03998 6.78 5.03998 6.79 5.03998 6.8C5.03998 6.81 5.03998 6.83 5.03998 6.84C5.03998 6.84 5.03998 6.85 5.03998 6.86C5.03998 6.88 5.03998 6.88 5.06998 6.88C5.09998 6.88 5.11998 6.89 5.13998 6.9H5.15998C5.15998 6.9 5.17998 6.91 5.18998 6.92C5.18998 6.93 5.21998 6.99 5.21998 6.99C5.22998 7 5.26998 7.06 5.27998 7.08C5.27998 7.08 5.27998 7.08 5.27998 7.1C5.27998 7.11 5.27998 7.12 5.29998 7.13C5.30998 7.14 5.33998 7.17 5.34998 7.17C5.35998 7.17 5.37998 7.17 5.38998 7.17C5.38998 7.17 5.38998 7.17 5.38998 7.18C5.38998 7.18 5.38998 7.2 5.36998 7.2L5.29998 7.16ZM5.17998 7.12C5.17998 7.12 5.22998 7.12 5.23998 7.13C5.23998 7.13 5.23998 7.13 5.24998 7.13C5.24998 7.13 5.25998 7.13 5.26998 7.13C5.29998 7.13 5.30998 7.13 5.31998 7.13C5.31998 7.13 5.28998 7.13 5.27998 7.13C5.26998 7.13 5.23998 7.1 5.21998 7.09C5.21998 7.08 5.20998 7.07 5.19998 7.06V7.05C5.19998 7.04 5.14998 6.98 5.13998 6.96C5.13998 6.96 5.10998 6.9 5.10998 6.88C5.10998 6.88 5.09998 6.87 5.08998 6.87H5.06998C5.06998 6.87 5.02998 6.85 4.99998 6.85C4.96998 6.85 4.95998 6.85 4.95998 6.82C4.95998 6.82 4.95998 6.82 4.95998 6.8C4.95998 6.78 4.95998 6.77 4.95998 6.75C4.95998 6.75 4.95998 6.73 4.95998 6.72C4.95998 6.72 4.95998 6.71 4.95998 6.7C4.95998 6.7 4.95998 6.69 4.95998 6.68C4.95998 6.67 4.95998 6.63 4.95998 6.62C4.95998 6.61 4.95998 6.59 4.95998 6.58C4.95998 6.58 4.95998 6.55 4.96998 6.55C4.96998 6.55 4.97998 6.55 4.98998 6.55C4.98998 6.55 4.99998 6.55 5.00998 6.56C5.00998 6.56 5.00998 6.56 5.00998 6.55C5.00998 6.55 5.00998 6.53 5.00998 6.52V6.51C5.00998 6.49 5.02998 6.49 5.03998 6.49C5.03998 6.49 5.02998 6.49 5.01998 6.48C5.01998 6.47 4.97998 6.45 4.94998 6.45C4.91998 6.45 4.88998 6.48 4.87998 6.49C4.86998 6.51 4.83998 6.51 4.82998 6.51C4.82998 6.51 4.82998 6.51 4.81998 6.51H4.78998C4.78998 6.51 4.78998 6.51 4.77998 6.51C4.77998 6.51 4.76998 6.51 4.75998 6.51C4.75998 6.51 4.71998 6.51 4.70998 6.51C4.70998 6.51 4.73998 6.51 4.74998 6.51C4.74998 6.51 4.78998 6.51 4.79998 6.51C4.81998 6.51 4.82998 6.51 4.84998 6.51H4.86998C4.86998 6.51 4.86998 6.54 4.85998 6.54H4.83998C4.83998 6.54 4.83998 6.54 4.82998 6.54H4.81998C4.81998 6.54 4.80998 6.54 4.79998 6.54C4.76998 6.55 4.64998 6.64 4.63998 6.66C4.63998 6.67 4.62998 6.68 4.61998 6.69C4.61998 6.7 4.59998 6.71 4.58998 6.73C4.58998 6.73 4.58998 6.74 4.57998 6.75C4.57998 6.77 4.55998 6.78 4.54998 6.8C4.52998 6.8 4.50998 6.83 4.50998 6.83L4.54998 6.79C4.54998 6.79 4.55998 6.74 4.56998 6.73C4.58998 6.7 4.61998 6.66 4.62998 6.64C4.62998 6.64 4.63998 6.62 4.65998 6.61C4.67998 6.61 4.69998 6.59 4.69998 6.58C4.69998 6.62 4.69998 6.65 4.69998 6.67C4.69998 6.69 4.70998 6.71 4.71998 6.73C4.71998 6.74 4.71998 6.76 4.72998 6.77C4.72998 6.79 4.72998 6.81 4.72998 6.82C4.72998 6.82 4.72998 6.83 4.72998 6.84C4.72998 6.84 4.72998 6.84 4.73998 6.85C4.73998 6.85 4.75998 6.85 4.77998 6.85C4.78998 6.85 4.80998 6.85 4.80998 6.85C4.82998 6.85 4.84998 6.85 4.85998 6.85C4.85998 6.85 4.85998 6.85 4.86998 6.85C4.89998 6.85 4.92998 6.85 4.93998 6.86C4.94998 6.86 4.96998 6.9 4.97998 6.94C4.97998 6.94 4.99998 6.97 5.01998 6.98C5.01998 6.98 5.03998 6.99 5.03998 7C5.04998 7.01 5.05998 7.04 5.05998 7.06C5.05998 7.06 5.05998 7.06 5.05998 7.07L5.17998 7.12ZM4.96998 6.73C4.96998 6.73 4.97998 6.73 4.98998 6.73C4.98998 6.73 4.98998 6.71 4.98998 6.7H4.96998V6.73Z" fill="black"/>
<path d="M4.97998 6.54C4.97998 6.54 4.96998 6.54 4.95998 6.54V6.52C4.95998 6.52 4.95998 6.52 4.95998 6.51C4.95998 6.51 4.95998 6.51 4.94998 6.51C4.94998 6.51 4.94998 6.51 4.93998 6.51C4.93998 6.51 4.93998 6.51 4.91998 6.51C4.91998 6.51 4.91998 6.51 4.92998 6.51H4.94998C4.94998 6.51 4.94998 6.52 4.94998 6.53V6.54C4.94998 6.54 4.95998 6.54 4.96998 6.53C4.96998 6.51 4.98998 6.51 4.99998 6.52H4.97998C4.97998 6.52 4.97998 6.54 4.94998 6.54H4.97998ZM4.91998 6.5C4.91998 6.5 4.91998 6.5 4.92998 6.5C4.92998 6.5 4.92998 6.48 4.92998 6.47C4.92998 6.44 4.97998 6.43 4.99998 6.43C5.01998 6.43 5.02998 6.44 5.03998 6.46C5.03998 6.46 5.03998 6.48 5.05998 6.48C5.05998 6.48 5.05998 6.48 5.04998 6.48C5.04998 6.48 5.02998 6.47 5.02998 6.45C5.02998 6.44 5.00998 6.43 4.99998 6.43C4.97998 6.43 4.94998 6.44 4.93998 6.46C4.93998 6.48 4.93998 6.49 4.93998 6.49C4.93998 6.49 4.93998 6.49 4.92998 6.49C4.92998 6.49 4.92998 6.5 4.92998 6.51L4.91998 6.5Z" fill="black"/>
<path d="M5.05998 6.92C5.02998 6.91 5.00998 6.9 4.97998 6.9C4.95998 6.9 4.94998 6.9 4.92998 6.9C4.91998 6.9 4.90998 6.9 4.89998 6.89C4.87998 6.89 4.86998 6.87 4.83998 6.87C4.83998 6.87 4.87998 6.87 4.89998 6.89C4.89998 6.89 4.91998 6.89 4.92998 6.9C4.93998 6.9 4.95998 6.9 4.97998 6.9C5.00998 6.9 5.02998 6.9 5.05998 6.92ZM4.94998 6.83C4.94998 6.83 4.88998 6.81 4.86998 6.79C4.88998 6.81 4.91998 6.82 4.94998 6.82V6.83ZM4.92998 6.77C4.92998 6.76 4.90998 6.75 4.88998 6.75C4.91998 6.75 4.92998 6.76 4.93998 6.78L4.92998 6.77ZM4.85998 6.74C4.85998 6.74 4.82998 6.74 4.81998 6.73C4.81998 6.73 4.83998 6.74 4.85998 6.74ZM4.90998 6.68C4.90998 6.68 4.89998 6.68 4.88998 6.68C4.89998 6.68 4.90998 6.68 4.92998 6.68C4.92998 6.68 4.91998 6.68 4.90998 6.68ZM4.86998 6.66C4.85998 6.66 4.84998 6.63 4.83998 6.61C4.83998 6.61 4.83998 6.6 4.83998 6.59C4.83998 6.59 4.83998 6.6 4.83998 6.61C4.83998 6.63 4.85998 6.65 4.86998 6.65V6.66Z" fill="black"/>
<path d="M4.97 6.62C4.92 6.62 4.89 6.58 4.87 6.51C4.88 6.56 4.9 6.59 4.93 6.6C4.93 6.59 4.92 6.57 4.91 6.55C4.91 6.55 4.91 6.54 4.91 6.53C4.91 6.53 4.91 6.54 4.91 6.55C4.92 6.6 4.93 6.62 4.97 6.63V6.62Z" fill="black"/>
<path d="M5.2 7.1C5.2 7.1 5.19 7.09 5.18 7.07V7.04H5.16V7.02C5.16 7.02 5.16 7.02 5.17 7.02V7.04H5.19L5.21 7.07C5.21 7.08 5.21 7.09 5.21 7.1H5.2ZM5.16 7.04L5.18 7.07C5.18 7.07 5.18 7.09 5.19 7.09C5.19 7.09 5.19 7.08 5.19 7.07L5.17 7.04V7.02H5.16V7.04Z" fill="black"/>
</g>
</g>
<defs>
<clipPath id="clip0_170_16324">
<rect width="24" height="24" fill="white"/>
</clipPath>
</defs>
</svg>
