<svg width="24" height="24" viewBox="0 0 24 24" fill="none" xmlns="http://www.w3.org/2000/svg">
<g clip-path="url(#clip0_161_11066)">
<mask id="mask0_161_11066" style="mask-type:luminance" maskUnits="userSpaceOnUse" x="0" y="0" width="24" height="24">
<path d="M12 24C18.6274 24 24 18.6274 24 12C24 5.37258 18.6274 0 12 0C5.37258 0 0 5.37258 0 12C0 18.6274 5.37258 24 12 24Z" fill="white"/>
</mask>
<g mask="url(#mask0_161_11066)">
<path d="M-6 0H30V24H-6V0Z" fill="#D01C1F"/>
<path d="M-6 4.8H30V19.2H-6V4.8Z" fill="#00A95C"/>
<path d="M10.39 9.95H11.61L11.99 8.8L12.37 9.95H13.59L12.58 10.69L12.99 11.86L11.98 11.14L10.97 11.86L11.38 10.69L10.37 9.95H10.39ZM6 9.36C6.55 12.1 9.67 13.95 12.99 13.5C15.56 13.15 17.58 11.48 18 9.36C18 12.59 15.31 15.2 12 15.2C8.69 15.2 6 12.59 6 9.36Z" fill="#FFD700"/>
</g>
</g>
<defs>
<clipPath id="clip0_161_11066">
<rect width="24" height="24" fill="white"/>
</clipPath>
</defs>
</svg>
