<svg width="24" height="24" viewBox="0 0 24 24" fill="none" xmlns="http://www.w3.org/2000/svg">
<g clip-path="url(#clip0_170_15021)">
<mask id="mask0_170_15021" style="mask-type:luminance" maskUnits="userSpaceOnUse" x="0" y="0" width="24" height="24">
<path d="M12 24C18.6274 24 24 18.6274 24 12C24 5.37258 18.6274 0 12 0C5.37258 0 0 5.37258 0 12C0 18.6274 5.37258 24 12 24Z" fill="white"/>
</mask>
<g mask="url(#mask0_170_15021)">
<path d="M0 0H24V24H0V0Z" fill="#CC092F"/>
<path d="M0 0H16V24H0V0Z" fill="#FFD200"/>
<path d="M0 0H8V24H0V0Z" fill="#0046AE"/>
<path d="M11.35 8.44C11.35 8.44 11.28 8.44 11.25 8.47C11.29 8.48 11.31 8.51 11.31 8.55V8.65H11.21C11.21 8.65 11.14 8.63 11.13 8.59C11.09 8.65 11.09 8.73 11.13 8.79C11.14 8.75 11.17 8.73 11.21 8.73H11.31V9.21C11.31 9.21 11.29 9.28 11.25 9.29C11.3 9.29 11.34 9.36 11.35 9.39C11.36 9.36 11.4 9.29 11.45 9.29C11.42 9.28 11.39 9.25 11.39 9.21V8.73H11.49C11.49 8.73 11.56 8.75 11.57 8.79C11.61 8.73 11.61 8.65 11.57 8.59C11.56 8.63 11.53 8.65 11.49 8.65H11.39V8.55C11.39 8.55 11.41 8.48 11.45 8.47C11.42 8.45 11.38 8.44 11.35 8.44Z" fill="black"/>
<path d="M11.35 8.45999C11.35 8.45999 11.31 8.45999 11.29 8.45999C11.31 8.47999 11.33 8.50999 11.33 8.53999V8.63999V8.65999H11.31H11.21C11.21 8.65999 11.15 8.64999 11.13 8.61999C11.13 8.63999 11.12 8.65999 11.12 8.67999C11.12 8.69999 11.12 8.71999 11.12 8.73999C11.14 8.71999 11.17 8.69999 11.2 8.69999H11.32V8.70999V9.18999C11.32 9.18999 11.31 9.24999 11.28 9.25999C11.29 9.25999 11.31 9.27999 11.32 9.28999C11.32 9.29999 11.33 9.30999 11.34 9.32999C11.34 9.31999 11.35 9.30999 11.36 9.28999C11.37 9.27999 11.38 9.26999 11.4 9.25999C11.38 9.23999 11.36 9.20999 11.36 9.17999V8.67999H11.38H11.48C11.48 8.67999 11.54 8.68999 11.56 8.71999C11.56 8.69999 11.57 8.67999 11.57 8.65999C11.57 8.63999 11.57 8.61999 11.57 8.59999C11.55 8.61999 11.52 8.63999 11.49 8.63999H11.39H11.37V8.61999V8.51999C11.37 8.51999 11.38 8.45999 11.41 8.43999C11.39 8.43999 11.37 8.42999 11.35 8.42999" fill="#FFD200"/>
<path d="M12.59 10.19C12.53 10.15 12.48 10.1 12.44 10.04C12.36 9.90001 12.32 9.74001 12.32 9.57001C12.32 9.50001 12.4 9.42001 12.4 9.36001C12.4 9.31001 12.4 9.27001 12.4 9.22001C12.43 9.22001 12.48 9.27001 12.48 9.27001C12.48 9.27001 12.48 9.12001 12.43 9.10001C12.43 9.10001 12.45 9.08001 12.52 9.08001C12.5 9.03001 12.41 8.97001 12.41 8.97001C12.41 8.97001 12.42 8.95001 12.43 8.95001C12.46 8.94001 12.48 8.93001 12.51 8.92001C12.48 8.92001 12.45 8.90001 12.42 8.89001C12.33 8.86001 12.25 8.83001 12.16 8.79001C12.05 8.74001 11.94 8.71001 11.82 8.71001C11.77 8.71001 11.7 8.71001 11.66 8.74001C11.62 8.76001 11.63 8.80001 11.61 8.81001C11.58 8.84001 11.53 8.84001 11.5 8.84001C11.33 8.84001 11.33 9.02001 11.33 9.02001C11.33 9.02001 11.37 8.96001 11.45 8.96001C11.57 8.96001 11.67 9.03001 11.67 9.05001C11.67 9.06001 11.66 9.06001 11.66 9.06001C11.58 9.06001 11.46 9.01001 11.39 9.01001V9.04001C11.54 9.09001 11.68 9.16001 11.68 9.48001C11.68 9.68001 11.66 9.88001 11.56 10.04C11.52 10.1 11.47 10.15 11.41 10.19L12 10.3L12.59 10.19Z" fill="black"/>
<path d="M12 10.05L11.41 10.18C11.41 10.18 11.26 10.13 11.17 10.08C11.01 9.99 10.93 9.91 10.75 9.9V9.76C10.75 9.68 10.78 9.62 10.78 9.54C10.7 9.52 10.48 9.25 10.28 9.14C9.97997 9.33 9.75997 9.64 9.75997 9.79V13.97C9.75997 14.03 9.71997 14.12 9.71997 14.12C9.82997 14.07 10.03 13.8 10.07 13.7V13.75C10.23 13.68 10.35 13.48 10.41 13.38V13.43C10.56 13.3 10.74 12.55 10.74 12.55L11.05 12.85C11.05 12.85 10.94 13.08 10.9 13.12C10.92 13.12 10.94 13.12 10.96 13.12C10.94 13.15 10.78 13.37 10.74 13.46C10.69 13.54 10.66 13.5 10.59 13.5C10.53 13.5 10.4 13.59 10.38 13.63C10.36 13.67 10.34 13.71 10.34 13.76C10.34 13.8 10.39 13.86 10.39 13.86C10.39 13.85 10.39 13.84 10.4 13.83L10.54 14C10.54 14 10.62 14.03 10.64 14C10.69 13.95 10.75 13.92 10.79 13.85C10.81 13.81 10.82 13.77 10.85 13.73L11.18 13.29V13.34C11.24 13.24 11.47 13.05 11.47 13.05L11.72 13.16C11.72 13.16 11.26 14.22 10.85 14.39C10.85 14.39 11.03 14.47 11.25 14.58L11.35 14.63C11.35 14.63 11.41 14.56 11.44 14.52C11.57 14.34 11.7 14.14 11.7 14.14C11.7 14.19 11.64 14.36 11.52 14.56L11.45 14.68L11.54 14.73C11.76 14.86 11.96 15.01 12.04 15.15L12.09 15.02L12.04 14.89V10.22L12.07 10.15L12.04 10.04L12 10.05Z" fill="black"/>
<path d="M12 14.9C11.92 14.82 11.76 14.72 11.58 14.62C11.8 14.23 11.91 13.61 11.86 13.49C11.86 13.49 11.77 13.81 11.66 13.99C11.56 14.16 11.43 14.35 11.31 14.49C11.22 14.45 11.13 14.42 11.03 14.39C11.39 14.11 11.76 13.19 11.76 13.19L11.38 13.01C11.38 13.01 11.24 13.18 11.19 13.21C11.19 13.21 11.17 13.13 11.16 13.1C11.16 13.1 11.11 13.14 11.08 13.14L11.06 13.05L10.96 13.07C11.02 13.04 11.08 12.88 11.08 12.88L10.72 12.4C10.72 12.4 10.59 13.01 10.45 13.14V10.49L10.57 10.6L10.74 10.44V10.32L10.59 10.46V10.09C10.59 10.09 10.62 10.04 10.64 10.01C10.67 10.05 10.75 10.19 10.84 10.27C10.86 10.21 10.96 10.15 10.96 10.15C10.96 10.15 11 10.25 11.05 10.27C11.07 10.23 11.19 10.16 11.19 10.16C11.19 10.16 11.09 10.18 11.05 10.21C11.01 10.21 11.01 10.06 11.01 10.06C11.01 10.06 10.86 10.13 10.83 10.18C10.8 10.18 10.76 10.06 10.74 10.01C10.78 10.01 10.81 10.01 10.85 10.01C10.89 10.01 10.95 10.03 11 10.06C11.06 10.09 11.13 10.13 11.19 10.15C11.27 10.18 11.38 10.19 11.41 10.19C11.37 10.22 11.33 10.24 11.29 10.26C11.29 10.26 11.47 10.26 11.59 10.2C11.64 10.17 11.68 10.14 11.72 10.11C11.7 10.17 11.67 10.22 11.63 10.26C11.81 10.24 11.91 10.14 11.93 10.1C11.95 10.15 11.97 10.19 12 10.23H12.07V14.76L12 14.89V14.9ZM10.64 9.55999V9.63999V9.88999C10.57 9.86999 10.49 9.75999 10.45 9.69999V9.66999C10.45 9.66999 10.46 9.61999 10.48 9.59999H10.44C10.44 9.59999 10.41 9.62999 10.41 9.65999V9.67999L10.29 9.80999L10.17 9.62999V9.58999C10.17 9.58999 10.19 9.52999 10.21 9.50999H10.17C10.17 9.50999 10.13 9.55999 10.13 9.58999V9.62999L9.98997 9.76999L9.91998 9.61999C9.99998 9.50999 10.14 9.37999 10.26 9.28999C10.26 9.28999 10.53 9.53999 10.63 9.56999L10.64 9.55999ZM9.94998 9.80999V10.02L9.84998 10.11V9.79999C9.84998 9.79999 9.85998 9.72999 9.87998 9.69999L9.93997 9.80999H9.94998ZM10.24 9.87999V10.01L10.13 10.11V9.70999L10.24 9.87999ZM10.09 10.11L9.97997 10.01V9.85999L10.09 9.73999V10.11ZM10.6 9.95999C10.6 9.95999 10.51 10.08 10.44 10.12V9.76999C10.44 9.76999 10.53 9.91999 10.6 9.95999ZM10.39 9.78999V10.11L10.28 10.01V9.89999L10.39 9.78999ZM9.94998 10.14V10.46L9.84998 10.37V10.23L9.94998 10.14ZM10.09 10.24V10.36L9.97997 10.46V10.14L10.09 10.24ZM10.24 10.14V10.46L10.13 10.36V10.25L10.24 10.15V10.14ZM10.39 10.24V10.35L10.28 10.45V10.13L10.39 10.23V10.24ZM10.54 10.46L10.43 10.36V10.25C10.43 10.25 10.51 10.18 10.54 10.14V10.46ZM10.26 10.6L10.38 10.49V13.36L10.15 13.61V10.5L10.27 10.61L10.26 10.6ZM10.08 13.51C10.08 13.6 9.91998 13.79 9.84998 13.84V10.5L9.95998 10.61L10.08 10.5V13.51Z" fill="#B07E5B"/>
<path d="M11.04 13.22L11.12 13.16V13.23L10.79 13.7C10.76 13.73 10.74 13.82 10.74 13.82C10.74 13.82 10.7 13.8 10.7 13.77C10.7 13.74 10.7 13.7 10.7 13.7C10.68 13.72 10.65 13.73 10.62 13.73C10.62 13.69 10.69 13.65 10.7 13.59C10.64 13.63 10.59 13.61 10.53 13.63C10.46 13.65 10.44 13.68 10.42 13.68C10.41 13.68 10.4 13.66 10.4 13.64C10.4 13.62 10.5 13.55 10.56 13.54C10.57 13.54 10.69 13.57 10.72 13.53L10.99 13.11C10.99 13.11 11.01 13.11 11.02 13.11C11.02 13.11 11.02 13.19 11.04 13.21V13.22ZM10.5 13.69C10.5 13.69 10.5 13.7 10.5 13.71L10.46 13.74C10.46 13.74 10.45 13.74 10.44 13.74C10.44 13.74 10.44 13.73 10.44 13.72L10.48 13.69H10.5ZM10.56 13.73C10.56 13.73 10.57 13.76 10.56 13.77L10.47 13.85C10.46 13.86 10.44 13.85 10.43 13.85C10.43 13.84 10.43 13.82 10.43 13.81L10.52 13.73C10.52 13.73 10.53 13.73 10.54 13.73C10.55 13.73 10.56 13.73 10.57 13.74L10.56 13.73ZM10.61 13.79C10.61 13.79 10.62 13.82 10.61 13.83L10.52 13.91C10.52 13.91 10.49 13.91 10.48 13.91C10.48 13.91 10.47 13.88 10.48 13.87L10.57 13.79C10.57 13.79 10.57 13.79 10.59 13.79C10.6 13.79 10.61 13.79 10.62 13.8L10.61 13.79ZM10.64 13.84C10.64 13.84 10.66 13.84 10.67 13.85C10.68 13.86 10.68 13.88 10.67 13.89L10.58 13.97C10.58 13.97 10.55 13.97 10.54 13.97C10.54 13.96 10.54 13.94 10.54 13.93L10.63 13.85C10.63 13.85 10.63 13.85 10.65 13.85L10.64 13.84Z" fill="#CC092F"/>
<path d="M12 10.05L12.59 10.18C12.59 10.18 12.74 10.13 12.83 10.08C12.99 9.99 13.07 9.91 13.25 9.9V9.76C13.25 9.68 13.22 9.62 13.22 9.54C13.3 9.52 13.52 9.25 13.72 9.14C14.02 9.33 14.24 9.64 14.24 9.79V13.97C14.24 14.03 14.28 14.12 14.28 14.12C14.17 14.07 13.97 13.8 13.93 13.7V13.75C13.77 13.68 13.65 13.48 13.59 13.38V13.43C13.44 13.3 13.26 12.55 13.26 12.55L12.95 12.85C12.95 12.85 13.06 13.08 13.1 13.12C13.08 13.12 13.06 13.12 13.04 13.12C13.06 13.15 13.22 13.37 13.26 13.46C13.31 13.54 13.34 13.5 13.41 13.5C13.47 13.5 13.6 13.59 13.62 13.63C13.64 13.67 13.66 13.71 13.66 13.76C13.66 13.8 13.61 13.86 13.61 13.86C13.61 13.85 13.61 13.84 13.6 13.83L13.46 14C13.46 14 13.38 14.03 13.36 14C13.31 13.95 13.25 13.92 13.21 13.85C13.19 13.81 13.18 13.77 13.15 13.73L12.82 13.29V13.34C12.76 13.24 12.53 13.05 12.53 13.05L12.28 13.16C12.28 13.16 12.74 14.22 13.15 14.39C13.15 14.39 12.97 14.47 12.75 14.58L12.65 14.63C12.65 14.63 12.59 14.56 12.56 14.52C12.43 14.34 12.3 14.14 12.3 14.14C12.3 14.19 12.36 14.36 12.48 14.56L12.55 14.68L12.46 14.73C12.24 14.86 12.04 15.01 11.96 15.15L11.91 15.02L11.96 14.89V10.22L11.93 10.15L11.96 10.04L12 10.05Z" fill="black"/>
<path d="M12 14.9C12.08 14.82 12.24 14.72 12.42 14.62C12.2 14.23 12.09 13.61 12.14 13.49C12.14 13.49 12.23 13.81 12.34 13.99C12.44 14.16 12.57 14.35 12.69 14.49C12.78 14.45 12.87 14.42 12.97 14.39C12.61 14.11 12.24 13.19 12.24 13.19L12.62 13.01C12.62 13.01 12.76 13.18 12.81 13.21C12.81 13.21 12.83 13.13 12.84 13.1C12.84 13.1 12.89 13.14 12.92 13.14L12.94 13.05L13.04 13.07C12.98 13.04 12.92 12.88 12.92 12.88L13.28 12.4C13.28 12.4 13.41 13.01 13.55 13.14V10.49L13.43 10.6L13.26 10.44V10.32L13.41 10.46V10.09C13.41 10.09 13.38 10.04 13.36 10.01C13.33 10.05 13.25 10.19 13.16 10.27C13.14 10.21 13.04 10.15 13.04 10.15C13.04 10.15 13 10.25 12.95 10.27C12.93 10.23 12.81 10.16 12.81 10.16C12.81 10.16 12.91 10.18 12.95 10.21C12.99 10.21 12.99 10.06 12.99 10.06C12.99 10.06 13.14 10.13 13.17 10.18C13.2 10.18 13.24 10.06 13.26 10.01C13.22 10.01 13.19 10.01 13.15 10.01C13.11 10.01 13.05 10.03 13 10.06C12.94 10.09 12.87 10.13 12.81 10.15C12.73 10.18 12.62 10.19 12.59 10.19C12.63 10.22 12.67 10.24 12.71 10.26C12.71 10.26 12.53 10.26 12.41 10.2C12.36 10.17 12.32 10.14 12.28 10.11C12.3 10.17 12.33 10.22 12.37 10.26C12.19 10.24 12.09 10.14 12.07 10.1C12.05 10.15 12.03 10.19 12 10.23H11.93V14.76L12 14.89V14.9ZM13.36 9.55999V9.63999V9.88999C13.43 9.86999 13.51 9.75999 13.55 9.69999V9.66999C13.55 9.66999 13.54 9.61999 13.52 9.59999H13.56C13.56 9.59999 13.59 9.62999 13.59 9.65999V9.67999L13.71 9.80999L13.83 9.62999V9.58999C13.83 9.58999 13.81 9.52999 13.79 9.50999H13.83C13.83 9.50999 13.87 9.55999 13.87 9.58999V9.62999L14.01 9.76999L14.08 9.61999C14 9.50999 13.86 9.37999 13.74 9.28999C13.74 9.28999 13.47 9.53999 13.37 9.56999L13.36 9.55999ZM14.05 9.80999V10.02L14.15 10.11V9.79999C14.15 9.79999 14.14 9.72999 14.12 9.69999L14.06 9.80999H14.05ZM13.76 9.87999V10.01L13.87 10.11V9.70999L13.76 9.87999ZM13.91 10.11L14.02 10.01V9.85999L13.91 9.73999V10.11ZM13.4 9.95999C13.4 9.95999 13.49 10.08 13.56 10.12V9.76999C13.56 9.76999 13.47 9.91999 13.4 9.95999ZM13.61 9.78999V10.11L13.72 10.01V9.89999L13.61 9.78999ZM14.05 10.14V10.46L14.15 10.37V10.23L14.05 10.14ZM13.91 10.24V10.36L14.02 10.46V10.14L13.91 10.24ZM13.76 10.14V10.46L13.87 10.36V10.25L13.76 10.15V10.14ZM13.61 10.24V10.35L13.72 10.45V10.13L13.61 10.23V10.24ZM13.46 10.46L13.57 10.36V10.25C13.57 10.25 13.49 10.18 13.46 10.14V10.46ZM13.74 10.6L13.62 10.49V13.36L13.85 13.61V10.5L13.73 10.61L13.74 10.6ZM13.92 13.51C13.92 13.6 14.08 13.79 14.15 13.84V10.5L14.04 10.61L13.92 10.5V13.51Z" fill="#B07E5B"/>
<path d="M12.96 13.22L12.88 13.16V13.23L13.21 13.7C13.24 13.73 13.26 13.82 13.26 13.82C13.26 13.82 13.3 13.8 13.3 13.77C13.3 13.74 13.3 13.7 13.3 13.7C13.32 13.72 13.35 13.73 13.38 13.73C13.38 13.69 13.31 13.65 13.3 13.59C13.36 13.63 13.41 13.61 13.47 13.63C13.54 13.65 13.56 13.68 13.58 13.68C13.59 13.68 13.6 13.66 13.6 13.64C13.6 13.62 13.5 13.55 13.44 13.54C13.43 13.54 13.31 13.57 13.28 13.53L13.01 13.11C13.01 13.11 12.99 13.11 12.98 13.11C12.98 13.11 12.98 13.19 12.96 13.21V13.22ZM13.5 13.69C13.5 13.69 13.5 13.7 13.5 13.71L13.54 13.74C13.54 13.74 13.55 13.74 13.56 13.74C13.56 13.74 13.56 13.73 13.56 13.72L13.52 13.69H13.5ZM13.44 13.73C13.44 13.73 13.43 13.76 13.44 13.77L13.53 13.85C13.54 13.86 13.56 13.85 13.57 13.85C13.57 13.84 13.57 13.82 13.57 13.81L13.48 13.73C13.48 13.73 13.47 13.73 13.46 13.73C13.45 13.73 13.44 13.73 13.43 13.74L13.44 13.73ZM13.39 13.79C13.39 13.79 13.38 13.82 13.39 13.83L13.48 13.91C13.48 13.91 13.51 13.91 13.52 13.91C13.52 13.91 13.53 13.88 13.52 13.87L13.43 13.79C13.43 13.79 13.43 13.79 13.41 13.79C13.4 13.79 13.39 13.79 13.38 13.8L13.39 13.79ZM13.36 13.84C13.36 13.84 13.34 13.84 13.33 13.85C13.32 13.86 13.32 13.88 13.33 13.89L13.42 13.97C13.42 13.97 13.45 13.97 13.46 13.97C13.46 13.96 13.46 13.94 13.46 13.93L13.37 13.85C13.37 13.85 13.37 13.85 13.35 13.85L13.36 13.84Z" fill="#CC092F"/>
<path d="M11.86 8.76001C12.01 8.76001 12.12 8.83001 12.26 8.89001C12.3 8.91001 12.33 8.92001 12.36 8.93001C12.34 8.94001 12.33 8.96001 12.32 8.98001C12.32 8.98001 12.38 8.99001 12.41 9.05001C12.41 9.05001 12.35 9.05001 12.34 9.09001C12.37 9.09001 12.41 9.14001 12.41 9.18001L12.32 9.15001C12.33 9.22001 12.34 9.29001 12.34 9.35001C12.34 9.40001 12.26 9.47001 12.26 9.56001C12.26 9.85001 12.33 9.96001 12.38 10.05C12.4 10.09 12.42 10.13 12.45 10.16C12.3 10.08 12.19 9.98001 12.19 9.89001V9.54001H12.15V9.89001C12.15 9.96001 12.17 9.99001 12.17 9.99001C12.19 10.06 12.24 10.18 12.27 10.22C12.13 10.15 12.06 10.05 12.06 10.02V9.54001H12.02V10.06C12.02 10.06 11.99 10.11 11.97 10.12C11.96 10.11 11.93 10.08 11.92 10.06V10.03V9.54001H11.88V10.02C11.88 10.02 11.81 10.15 11.67 10.22C11.7 10.17 11.75 10.06 11.77 9.99001C11.77 9.99001 11.79 9.96001 11.79 9.89001V9.54001H11.75V9.89001C11.75 9.98001 11.64 10.08 11.49 10.16C11.52 10.13 11.54 10.09 11.56 10.05C11.62 9.95001 11.69 9.83001 11.69 9.47001C11.69 9.34001 11.67 9.25001 11.64 9.18001C11.63 9.16001 11.62 9.10001 11.7 9.10001C11.74 9.10001 11.84 9.17001 11.84 9.17001C11.84 9.13001 11.82 9.10001 11.79 9.08001C11.78 9.08001 11.77 9.06001 11.77 9.04001C11.77 9.02001 11.79 9.00001 11.81 8.99001C11.82 8.99001 11.65 8.95001 11.65 8.88001C11.65 8.86001 11.66 8.85001 11.7 8.85001C11.75 8.85001 11.82 8.91001 11.89 8.91001C11.94 8.91001 11.96 8.90001 12.01 8.90001C12.07 8.90001 12.21 9.02001 12.25 9.02001C12.2 8.99001 12.12 8.87001 11.99 8.87001C11.95 8.87001 11.91 8.87001 11.87 8.87001C11.82 8.87001 11.77 8.82001 11.71 8.82001C11.67 8.82001 11.63 8.82001 11.63 8.82001C11.62 8.80001 11.63 8.79001 11.63 8.78001C11.65 8.75001 11.7 8.75001 11.75 8.74001C11.77 8.74001 11.78 8.74001 11.8 8.74001H11.84L11.86 8.76001Z" fill="#B07E5B"/>
<path d="M11.37 8.94C11.37 8.94 11.44 8.88 11.48 8.88C11.51 8.88 11.63 8.88 11.63 8.88C11.64 8.92 11.71 8.98 11.71 9.05C11.71 9.05 11.64 8.92 11.45 8.92C11.42 8.92 11.39 8.92 11.37 8.94ZM11.68 9.07C11.68 9.07 11.64 9.11001 11.63 9.14001C11.59 9.12001 11.52 9.05 11.52 9.05C11.52 9.05 11.58 9.09 11.68 9.07Z" fill="#CC092F"/>
<path d="M11.62 8.95999C11.62 8.95999 11.57 8.93999 11.57 8.92999C11.57 8.90999 11.59 8.90999 11.61 8.92999C11.61 8.93999 11.62 8.94999 11.62 8.96999V8.95999Z" fill="black"/>
<path d="M11.84 9.06C11.8952 9.06 11.94 9.02866 11.94 8.99C11.94 8.95134 11.8952 8.92 11.84 8.92C11.7848 8.92 11.74 8.95134 11.74 8.99C11.74 9.02866 11.7848 9.06 11.84 9.06Z" fill="black"/>
<path d="M11.84 9.06C11.8787 9.06 11.91 9.02866 11.91 8.99C11.91 8.95134 11.8787 8.92 11.84 8.92C11.8014 8.92 11.77 8.95134 11.77 8.99C11.77 9.02866 11.8014 9.06 11.84 9.06Z" fill="#FFD200"/>
<path d="M11.84 9.02001C11.8566 9.02001 11.87 9.00657 11.87 8.99001C11.87 8.97344 11.8566 8.96001 11.84 8.96001C11.8234 8.96001 11.81 8.97344 11.81 8.99001C11.81 9.00657 11.8234 9.02001 11.84 9.02001Z" fill="black"/>
<path d="M10.74 13.89L10.96 14.01L10.91 14.25L10.69 14.13L10.74 13.89Z" fill="black"/>
<path d="M9.73002 11.58L9.65002 11.62L10.53 13.55H10.62L9.73002 11.59V11.58ZM10.77 13.85L10.71 13.92L10.75 14.01L10.83 13.97L10.78 13.85H10.77Z" fill="black"/>
<path d="M10 13.1C10 13.1 10.07 13.25 10.13 13.27C10.1 13.27 10.01 13.3 10.01 13.3C10.01 13.3 10.18 13.45 10.32 13.46C10.44 13.46 10.5 13.41 10.5 13.41L10.48 13.28C10.43 13.22 10.36 13.18 10.29 13.15C10.17 13.11 10.01 13.1 10.01 13.1H10ZM10.56 12.83C10.56 12.83 10.46 12.92 10.43 13.02C10.4 13.12 10.45 13.24 10.45 13.24L10.54 13.4C10.54 13.4 10.66 13.34 10.71 13.24C10.76 13.14 10.74 13.02 10.74 13.02C10.74 13.02 10.65 13.06 10.63 13.07C10.65 12.96 10.56 12.83 10.56 12.83ZM10.23 12.79C10.23 12.79 10.11 12.83 10 12.82C9.89001 12.82 9.80001 12.72 9.80001 12.72C9.80001 12.72 9.89001 12.66 9.93001 12.67C9.88001 12.65 9.81001 12.53 9.81001 12.53C9.81001 12.53 9.91001 12.5 10 12.53C10.09 12.56 10.17 12.66 10.17 12.66L10.23 12.78V12.79ZM10.27 12.22C10.27 12.22 10.33 12.34 10.31 12.38C10.33 12.35 10.4 12.31 10.4 12.31C10.4 12.31 10.44 12.5 10.4 12.63C10.36 12.76 10.24 12.8 10.24 12.8L10.11 12.54C10.11 12.54 10.09 12.44 10.13 12.37C10.17 12.3 10.27 12.23 10.27 12.23V12.22ZM9.52001 11.9C9.52001 11.9 9.65001 11.89 9.76001 11.93C9.86001 11.97 9.89001 12.04 9.89001 12.04L9.94001 12.17C9.94001 12.17 9.80001 12.22 9.70001 12.18C9.60001 12.14 9.51001 12.01 9.51001 12.01C9.51001 12.01 9.59001 11.98 9.61001 11.99C9.57001 11.97 9.52001 11.89 9.52001 11.89V11.9ZM9.91001 11.66C9.91001 11.66 9.97001 11.73 9.97001 11.81C9.98001 11.77 10.05 11.72 10.05 11.72C10.05 11.72 10.12 11.89 10.11 12.01C10.1 12.13 9.99001 12.2 9.99001 12.2L9.86001 11.96C9.86001 11.96 9.82001 11.86 9.83001 11.78C9.84001 11.7 9.91001 11.65 9.91001 11.65V11.66ZM9.48001 11.2C9.48001 11.2 9.46001 11.33 9.50001 11.41C9.53001 11.48 9.56001 11.49 9.56001 11.49C9.49001 11.45 9.39001 11.44 9.39001 11.44C9.39001 11.44 9.43001 11.58 9.51001 11.65C9.59001 11.72 9.73001 11.7 9.73001 11.7C9.73001 11.7 9.82001 11.59 9.81001 11.46C9.80001 11.33 9.71001 11.2 9.71001 11.2C9.71001 11.2 9.67001 11.28 9.67001 11.34C9.64001 11.28 9.49001 11.19 9.49001 11.19L9.48001 11.2ZM10.5 13.4V13.45C10.58 13.45 10.59 13.45 10.61 13.47C10.63 13.49 10.66 13.5 10.69 13.49C10.72 13.48 10.74 13.44 10.72 13.4C10.71 13.37 10.68 13.36 10.65 13.37C10.63 13.37 10.62 13.39 10.61 13.4C10.58 13.41 10.5 13.41 10.5 13.41V13.4Z" fill="black"/>
<path d="M10.5 13.37L10.54 13.4C10.5 13.47 10.49 13.47 10.5 13.5C10.5 13.53 10.5 13.56 10.47 13.57C10.44 13.59 10.4 13.58 10.38 13.55C10.36 13.52 10.38 13.49 10.39 13.47C10.4 13.46 10.42 13.45 10.43 13.45C10.46 13.43 10.5 13.37 10.5 13.37ZM10.23 12.81V12.86C10.31 12.86 10.32 12.86 10.34 12.88C10.36 12.9 10.39 12.91 10.42 12.9C10.45 12.89 10.47 12.85 10.45 12.82C10.44 12.79 10.41 12.78 10.38 12.79C10.36 12.79 10.35 12.81 10.34 12.82C10.31 12.83 10.23 12.83 10.23 12.83V12.81Z" fill="black"/>
<path d="M10.25 12.82L10.28 12.85C10.23 12.91 10.22 12.91 10.22 12.94C10.22 12.97 10.21 13 10.18 13.01C10.15 13.02 10.11 13.01 10.09 12.98C10.08 12.95 10.09 12.92 10.11 12.9C10.12 12.89 10.14 12.89 10.16 12.88C10.19 12.87 10.24 12.81 10.24 12.81L10.25 12.82ZM9.96997 12.25V12.3C10.05 12.3 10.06 12.3 10.08 12.32C10.1 12.34 10.13 12.35 10.16 12.34C10.19 12.33 10.21 12.29 10.19 12.25C10.18 12.22 10.15 12.21 10.12 12.22C10.1 12.22 10.09 12.24 10.08 12.25C10.05 12.26 9.96997 12.26 9.96997 12.26V12.25Z" fill="black"/>
<path d="M9.99 12.24L10.02 12.27C9.97 12.33 9.96 12.33 9.96 12.36C9.96 12.39 9.95 12.42 9.92 12.43C9.89 12.44 9.85 12.43 9.83 12.4C9.82 12.37 9.83 12.34 9.85 12.32C9.86 12.31 9.88 12.31 9.9 12.3C9.93 12.29 9.98 12.23 9.98 12.23L9.99 12.24ZM9.69 11.66V11.71C9.77 11.71 9.78 11.71 9.8 11.73C9.82 11.75 9.85 11.76 9.88 11.75C9.91 11.74 9.93 11.7 9.91 11.66C9.9 11.63 9.87 11.62 9.84 11.63C9.82 11.63 9.81 11.65 9.8 11.66C9.77 11.67 9.69 11.67 9.69 11.67V11.66Z" fill="black"/>
<path d="M9.71 11.65L9.74 11.68C9.69 11.74 9.68 11.74 9.68 11.77C9.68 11.8 9.67 11.83 9.64 11.84C9.61 11.85 9.57 11.84 9.55 11.81C9.54 11.78 9.55 11.75 9.57 11.73C9.58 11.72 9.6 11.72 9.62 11.71C9.65 11.7 9.7 11.64 9.7 11.64L9.71 11.65Z" fill="black"/>
<path d="M10.77 13.96L10.9 14.03L10.87 14.18L10.74 14.11L10.77 13.96ZM10.18 12.67C10.18 12.67 10.11 12.56 10.08 12.49C10.05 12.42 9.98002 12.32 10 12.31C10.02 12.31 10.05 12.36 10.08 12.43C10.11 12.5 10.21 12.66 10.18 12.67ZM9.89002 12.02C9.89002 12.02 9.83002 11.95 9.80002 11.88C9.77002 11.81 9.74002 11.76 9.76002 11.75C9.78002 11.75 9.81002 11.8 9.83002 11.86C9.85002 11.91 9.91002 12 9.89002 12.01V12.02ZM10.56 13.48C10.56 13.48 10.44 13.28 10.36 13.11C10.28 12.94 10.22 12.8 10.24 12.79C10.26 12.79 10.32 12.94 10.4 13.11C10.48 13.28 10.57 13.47 10.55 13.47L10.56 13.48Z" fill="#FFD200"/>
<path d="M10.67 13.46C10.6866 13.46 10.7 13.4466 10.7 13.43C10.7 13.4134 10.6866 13.4 10.67 13.4C10.6534 13.4 10.64 13.4134 10.64 13.43C10.64 13.4466 10.6534 13.46 10.67 13.46Z" fill="#FFD200"/>
<path d="M10.43 13.55C10.4466 13.55 10.46 13.5366 10.46 13.52C10.46 13.5034 10.4466 13.49 10.43 13.49C10.4135 13.49 10.4 13.5034 10.4 13.52C10.4 13.5366 10.4135 13.55 10.43 13.55Z" fill="#FFD200"/>
<path d="M10.39 12.86C10.4066 12.86 10.42 12.8466 10.42 12.83C10.42 12.8134 10.4066 12.8 10.39 12.8C10.3734 12.8 10.36 12.8134 10.36 12.83C10.36 12.8466 10.3734 12.86 10.39 12.86Z" fill="#FFD200"/>
<path d="M10.15 12.99C10.1666 12.99 10.18 12.9766 10.18 12.96C10.18 12.9434 10.1666 12.93 10.15 12.93C10.1334 12.93 10.12 12.9434 10.12 12.96C10.12 12.9766 10.1334 12.99 10.15 12.99Z" fill="#FFD200"/>
<path d="M10.13 12.3C10.1465 12.3 10.16 12.2866 10.16 12.27C10.16 12.2534 10.1465 12.24 10.13 12.24C10.1134 12.24 10.1 12.2534 10.1 12.27C10.1 12.2866 10.1134 12.3 10.13 12.3Z" fill="#FFD200"/>
<path d="M9.89999 12.41C9.91656 12.41 9.93 12.3966 9.93 12.38C9.93 12.3634 9.91656 12.35 9.89999 12.35C9.88343 12.35 9.87 12.3634 9.87 12.38C9.87 12.3966 9.88343 12.41 9.89999 12.41Z" fill="#FFD200"/>
<path d="M9.85001 11.71C9.86658 11.71 9.88001 11.6966 9.88001 11.68C9.88001 11.6634 9.86658 11.65 9.85001 11.65C9.83344 11.65 9.82001 11.6634 9.82001 11.68C9.82001 11.6966 9.83344 11.71 9.85001 11.71Z" fill="#FFD200"/>
<path d="M9.62003 11.82C9.6366 11.82 9.65003 11.8066 9.65003 11.79C9.65003 11.7734 9.6366 11.76 9.62003 11.76C9.60346 11.76 9.59003 11.7734 9.59003 11.79C9.59003 11.8066 9.60346 11.82 9.62003 11.82Z" fill="#FFD200"/>
<path d="M9.51001 11.28C9.51001 11.28 9.51001 11.38 9.54001 11.43C9.57001 11.48 9.64001 11.51 9.64001 11.51C9.64001 11.51 9.64001 11.41 9.61001 11.36C9.58001 11.31 9.51001 11.28 9.51001 11.28ZM9.45001 11.5C9.45001 11.5 9.53001 11.5 9.58001 11.54C9.63001 11.58 9.65001 11.65 9.65001 11.65C9.61001 11.65 9.58001 11.65 9.55001 11.62C9.50001 11.58 9.46001 11.5 9.46001 11.5H9.45001ZM9.71001 11.31C9.71001 11.31 9.68001 11.4 9.69001 11.44C9.69001 11.51 9.73001 11.59 9.73001 11.59C9.73001 11.59 9.77001 11.51 9.76001 11.44C9.75001 11.37 9.72001 11.33 9.71001 11.31ZM9.57001 11.92C9.57001 11.92 9.63001 11.99 9.67001 12.01C9.73001 12.04 9.83001 12.04 9.83001 12.04C9.80001 12 9.76001 11.97 9.72001 11.95C9.66001 11.92 9.57001 11.92 9.57001 11.92ZM9.59001 12.06C9.59001 12.06 9.62001 12.12 9.68001 12.14C9.74001 12.16 9.85001 12.16 9.85001 12.16C9.82001 12.13 9.79001 12.1 9.75001 12.08C9.69001 12.05 9.60001 12.05 9.60001 12.05L9.59001 12.06ZM9.91001 11.74C9.91001 11.74 9.88001 11.82 9.88001 11.86C9.88001 11.92 9.92001 11.99 9.92001 11.99C9.92001 11.99 9.95001 11.91 9.94001 11.85C9.94001 11.81 9.92001 11.78 9.90001 11.74H9.91001ZM10.03 11.82C10.03 11.82 9.97001 11.9 9.96001 11.97C9.95001 12.04 9.99001 12.13 9.99001 12.13C9.99001 12.13 10.06 12.06 10.07 11.98C10.08 11.9 10.03 11.81 10.03 11.81V11.82ZM9.87001 12.55C9.87001 12.55 9.89001 12.59 9.90001 12.61C9.92001 12.63 9.94001 12.65 9.96001 12.67C9.99001 12.67 10.02 12.67 10.05 12.67C10.1 12.68 10.16 12.72 10.16 12.72C10.16 12.72 10.09 12.62 10.02 12.57C9.97001 12.55 9.92001 12.54 9.87001 12.54V12.55ZM9.86001 12.72C9.86001 12.72 9.95001 12.68 10.03 12.69C10.11 12.7 10.17 12.76 10.17 12.76C10.17 12.76 10.07 12.79 9.99001 12.78C9.94001 12.78 9.90001 12.75 9.86001 12.71V12.72ZM10.25 12.3C10.25 12.3 10.17 12.38 10.16 12.46C10.15 12.54 10.22 12.6 10.22 12.6C10.22 12.57 10.22 12.55 10.22 12.52C10.23 12.5 10.24 12.48 10.26 12.46C10.26 12.44 10.26 12.41 10.26 12.39C10.26 12.36 10.24 12.33 10.23 12.3H10.25ZM10.36 12.4C10.36 12.4 10.28 12.48 10.26 12.56C10.24 12.64 10.28 12.73 10.28 12.73C10.28 12.73 10.35 12.68 10.37 12.59C10.39 12.5 10.37 12.4 10.37 12.4H10.36ZM10.55 12.9C10.55 12.9 10.58 12.99 10.59 13.03C10.59 13.09 10.59 13.11 10.59 13.11C10.59 13.11 10.55 13.14 10.54 13.17C10.52 13.2 10.52 13.24 10.52 13.24C10.52 13.24 10.45 13.13 10.46 13.06C10.47 12.99 10.55 12.9 10.55 12.9ZM10.7 13.06C10.7 13.06 10.61 13.12 10.57 13.18C10.55 13.22 10.54 13.26 10.55 13.3C10.59 13.3 10.63 13.27 10.65 13.23C10.69 13.17 10.69 13.05 10.69 13.05L10.7 13.06ZM10.1 13.31C10.1 13.31 10.23 13.31 10.31 13.33C10.39 13.35 10.42 13.39 10.42 13.39C10.42 13.39 10.33 13.43 10.25 13.41C10.17 13.39 10.1 13.31 10.1 13.31ZM10.08 13.16C10.08 13.16 10.14 13.25 10.22 13.28C10.33 13.33 10.45 13.3 10.45 13.3C10.45 13.3 10.38 13.22 10.29 13.18C10.2 13.14 10.08 13.15 10.08 13.15V13.16Z" fill="#007A50"/>
<path d="M14.57 11.36L14.59 11.4C14.59 11.4 14.56 11.42 14.55 11.43C14.54 11.45 14.55 11.49 14.55 11.49C14.55 11.49 14.41 11.48 14.38 11.49C14.36 11.5 14.38 11.6 14.38 11.69C14.36 11.81 14.31 11.8 14.31 11.82C14.31 11.84 14.33 11.88 14.33 11.88C14.33 11.88 14.3 11.88 14.3 11.9C14.3 11.92 14.3 11.95 14.3 11.97L14.08 12.39C14.08 12.39 14.05 12.41 14.04 12.44C14.04 12.46 14.04 12.47 14.04 12.49C14.04 12.49 14 12.49 13.99 12.52C13.99 12.54 13.98 12.57 13.99 12.59C13.97 12.59 13.96 12.6 13.95 12.62C13.94 12.65 13.95 12.66 13.95 12.67L13.71 13.14C13.71 13.14 13.61 13.19 13.57 13.28C13.54 13.33 13.55 13.39 13.59 13.43C13.59 13.43 13.53 13.43 13.51 13.47C13.49 13.5 13.51 13.56 13.55 13.58C13.59 13.6 13.65 13.58 13.66 13.55C13.68 13.52 13.64 13.46 13.64 13.46C13.69 13.46 13.75 13.44 13.77 13.39C13.81 13.3 13.77 13.24 13.8 13.19L14.04 12.72C14.04 12.72 14.07 12.72 14.08 12.69C14.08 12.68 14.08 12.66 14.08 12.64C14.1 12.64 14.12 12.61 14.13 12.59C14.14 12.56 14.13 12.53 14.13 12.53C14.15 12.53 14.16 12.51 14.17 12.5C14.18 12.48 14.17 12.46 14.18 12.44L14.4 12.02C14.4 12.02 14.45 11.99 14.46 11.97C14.46 11.96 14.46 11.93 14.46 11.93C14.46 11.93 14.5 11.93 14.52 11.91C14.54 11.9 14.5 11.86 14.59 11.78C14.65 11.72 14.75 11.68 14.75 11.66C14.75 11.63 14.65 11.52 14.65 11.52C14.65 11.52 14.69 11.52 14.7 11.49C14.7 11.47 14.7 11.45 14.7 11.44H14.74V11.25L14.59 11.36H14.57ZM13.26 13.97C13.26 13.97 13.26 14 13.26 14.01C13.26 14.01 13.21 14 13.2 14.01C13.18 14.01 13.2 14.24 13.2 14.24C13.2 14.24 13.39 14.12 13.39 14.1C13.39 14.08 13.35 14.05 13.35 14.05C13.36 14.05 13.38 14.04 13.38 14.03C13.38 14.02 13.38 13.98 13.34 13.96C13.33 13.96 13.31 13.95 13.3 13.96C13.29 13.96 13.27 13.96 13.26 13.98V13.97Z" fill="black"/>
<path d="M14.6 11.37L14.69 11.42V11.31L14.6 11.37ZM14.57 11.43C14.57 11.43 14.57 11.49 14.58 11.5C14.59 11.51 14.64 11.5 14.65 11.49C14.66 11.48 14.65 11.43 14.64 11.42C14.64 11.42 14.62 11.42 14.61 11.42C14.59 11.42 14.58 11.42 14.57 11.44V11.43ZM14.41 11.51C14.41 11.51 14.41 11.6 14.41 11.67C14.41 11.74 14.39 11.75 14.38 11.78C14.37 11.8 14.33 11.83 14.33 11.83L14.36 11.86C14.36 11.86 14.38 11.83 14.41 11.77C14.45 11.7 14.45 11.56 14.46 11.55C14.49 11.54 14.52 11.53 14.55 11.52C14.55 11.52 14.48 11.52 14.44 11.52C14.44 11.52 14.42 11.52 14.41 11.52V11.51ZM14.42 11.89C14.42 11.89 14.45 11.82 14.47 11.79C14.51 11.7 14.61 11.64 14.61 11.62C14.61 11.6 14.58 11.53 14.58 11.53C14.58 11.53 14.5 11.55 14.49 11.56C14.48 11.57 14.49 11.68 14.44 11.77C14.42 11.8 14.41 11.84 14.39 11.87L14.44 11.89H14.42ZM14.63 11.63C14.63 11.63 14.52 11.72 14.48 11.8C14.45 11.86 14.43 11.9 14.43 11.9H14.47C14.47 11.9 14.47 11.86 14.47 11.84C14.48 11.82 14.48 11.79 14.54 11.75C14.59 11.71 14.67 11.67 14.67 11.66C14.67 11.65 14.59 11.55 14.59 11.55C14.6 11.58 14.61 11.61 14.62 11.64L14.63 11.63ZM14.31 12.12C14.38 11.99 14.4 11.98 14.4 11.97C14.4 11.95 14.4 11.93 14.38 11.91C14.38 11.91 14.36 11.91 14.35 11.91C14.34 11.91 14.33 11.91 14.32 11.93C14.32 11.95 14.32 11.97 14.25 12.1L14.1 12.39C14.1 12.39 14.1 12.42 14.11 12.43C14.12 12.43 14.14 12.43 14.15 12.42L14.3 12.13L14.31 12.12ZM14.05 12.45C14.05 12.45 14.05 12.49 14.08 12.5C14.11 12.51 14.13 12.51 14.14 12.5C14.15 12.49 14.14 12.46 14.11 12.45C14.1 12.45 14.09 12.45 14.07 12.45C14.07 12.45 14.05 12.45 14.05 12.46V12.45ZM13.99 12.54C13.99 12.54 13.99 12.59 14.03 12.61C14.07 12.63 14.09 12.62 14.11 12.61C14.13 12.6 14.11 12.56 14.07 12.54C14.06 12.54 14.05 12.54 14.04 12.54C14.02 12.54 14.01 12.54 14 12.56L13.99 12.54ZM13.96 12.63C13.96 12.63 13.96 12.67 13.99 12.68C14.02 12.69 14.04 12.69 14.05 12.68C14.06 12.67 14.05 12.64 14.02 12.63C14.01 12.63 14 12.63 13.98 12.63C13.98 12.63 13.96 12.63 13.96 12.64V12.63ZM13.93 12.72L13.71 13.16C13.71 13.16 13.61 13.22 13.58 13.28C13.55 13.34 13.58 13.4 13.61 13.42C13.65 13.44 13.71 13.42 13.74 13.36C13.77 13.3 13.74 13.22 13.76 13.19L13.98 12.75C13.98 12.75 13.98 12.72 13.97 12.71C13.97 12.71 13.96 12.71 13.95 12.71C13.94 12.71 13.93 12.71 13.93 12.73V12.72ZM13.51 13.48C13.51 13.48 13.51 13.54 13.54 13.55C13.57 13.56 13.61 13.55 13.62 13.53C13.63 13.51 13.62 13.47 13.59 13.46C13.58 13.46 13.57 13.46 13.56 13.46C13.54 13.46 13.53 13.46 13.52 13.48H13.51ZM13.29 13.97H13.27C13.27 13.98 13.27 14 13.3 14.01C13.33 14.02 13.35 14.02 13.35 14.01C13.35 14 13.35 13.98 13.32 13.97C13.32 13.97 13.3 13.97 13.29 13.97ZM13.22 14.04V14.2L13.35 14.11C13.35 14.11 13.27 14.04 13.22 14.04ZM13.3 10.45C13.3 10.36 13.42 10.27 13.42 10.27H10.59C10.59 10.27 10.71 10.36 10.71 10.45V12.56C10.71 12.56 10.72 12.65 10.75 12.69C10.78 12.73 10.84 12.78 10.9 12.82C11.09 12.94 11.4 13.07 11.63 13.17C11.83 13.26 11.91 13.3 12.01 13.42C12.11 13.29 12.19 13.26 12.39 13.17C12.63 13.06 12.94 12.94 13.12 12.82C13.18 12.78 13.24 12.73 13.27 12.69C13.3 12.65 13.31 12.61 13.31 12.56V10.45H13.3Z" fill="#FFD200"/>
<path d="M10.77 11.64V10.45C10.77 10.45 10.76 10.37 10.74 10.34H13.27C13.27 10.34 13.24 10.41 13.24 10.45V11.64L12.01 12.01L10.78 11.64H10.77Z" fill="#CC092F"/>
<path d="M13.23 11.64H12.47L11.53 11.63H10.77V12.56C10.77 12.56 10.82 12.71 11.09 12.85C11.54 13.08 11.89 13.18 12 13.31C12.1 13.18 12.45 13.08 12.91 12.85C13.19 12.71 13.23 12.61 13.23 12.56V11.65V11.64Z" fill="#0046AE"/>
<path d="M12.45 11.59C12.45 11.59 12.89 11.48 12.89 11.01C12.89 10.64 12.45 10.46 12.44 10.37C12.4 10.52 12.59 10.73 12.59 10.98C12.59 11.3 12.35 11.32 12.35 11.32C12.29 11.32 12.27 11.36 12.25 11.36C12.2 11.36 12.18 11.3 12.14 11.3C12.1 11.3 12.06 11.37 12.01 11.37C11.96 11.37 11.92 11.3 11.88 11.3C11.83 11.3 11.81 11.36 11.77 11.36C11.75 11.36 11.73 11.32 11.67 11.32C11.67 11.32 11.43 11.3 11.43 10.98C11.43 10.73 11.62 10.52 11.58 10.37C11.57 10.46 11.13 10.64 11.13 11.01C11.13 11.48 11.57 11.59 11.57 11.59L11.44 11.82C11.44 11.82 11.62 11.82 11.72 11.91C11.84 12.01 11.83 12.22 11.83 12.37C11.83 12.49 11.81 12.62 11.75 12.67C11.67 12.74 11.61 12.75 11.61 12.83C11.61 12.9 11.66 12.91 11.75 12.96C11.86 13.02 11.86 13.1 12.02 13.1C12.18 13.1 12.18 13.02 12.29 12.96C12.38 12.91 12.43 12.9 12.43 12.83C12.43 12.75 12.37 12.74 12.29 12.67C12.23 12.62 12.21 12.49 12.21 12.37C12.21 12.22 12.2 12.01 12.32 11.91C12.42 11.83 12.6 11.82 12.6 11.82L12.47 11.59H12.45ZM12 10.41L11.92 10.63L11.71 10.53L11.81 10.74L11.59 10.82L11.81 10.9L11.71 11.11L11.92 11.01L12 11.23L12.08 11.01L12.29 11.11L12.19 10.9L12.41 10.82L12.19 10.74L12.29 10.53L12.08 10.63L12 10.41ZM11.53 11.63C11.53 11.63 11.26 11.56 11.16 11.43C11.05 11.53 10.91 11.6 10.77 11.65C10.77 11.65 10.99 11.75 11.16 11.88C11.24 11.77 11.53 11.64 11.53 11.64V11.63Z" fill="black"/>
<path d="M12.47 11.63C12.47 11.63 12.77 11.76 12.84 11.87C13.01 11.74 13.23 11.64 13.23 11.64C13.09 11.6 12.95 11.52 12.84 11.42C12.74 11.55 12.47 11.62 12.47 11.62V11.63ZM11.64 11.91L11.53 12.02L11.64 12.13L11.75 12.02L11.64 11.91ZM12.36 11.91L12.25 12.02L12.36 12.13L12.47 12.02L12.36 11.91ZM11.62 12.53C11.62 12.6 11.62 12.67 11.61 12.73C11.61 12.73 11.76 12.69 11.79 12.53C11.8 12.46 11.82 12.2 11.75 12.15L11.56 12.11C11.61 12.24 11.63 12.38 11.63 12.52L11.62 12.53ZM12.26 12.16C12.19 12.2 12.2 12.47 12.22 12.54C12.25 12.69 12.4 12.74 12.4 12.74C12.4 12.67 12.39 12.6 12.39 12.54C12.39 12.4 12.41 12.26 12.46 12.13L12.27 12.17L12.26 12.16ZM11.16 12.17C11.09 12.19 11.05 12.25 11.07 12.32C11.07 12.33 11.07 12.34 11.08 12.35C11.08 12.35 11.06 12.35 11.05 12.35C11.05 12.35 11.05 12.35 11.04 12.35C10.97 12.35 10.92 12.41 10.92 12.48C10.92 12.55 10.98 12.6 11.05 12.6C11.05 12.6 11.06 12.6 11.07 12.6C11.07 12.6 11.06 12.62 11.06 12.63C11.03 12.69 11.06 12.77 11.13 12.79C11.19 12.82 11.27 12.79 11.29 12.72C11.29 12.72 11.29 12.7 11.29 12.69C11.29 12.69 11.3 12.71 11.31 12.71C11.36 12.76 11.44 12.75 11.49 12.7C11.54 12.65 11.53 12.57 11.48 12.52C11.48 12.52 11.46 12.51 11.45 12.5C11.45 12.5 11.47 12.5 11.48 12.49C11.54 12.45 11.56 12.38 11.52 12.32C11.5 12.28 11.45 12.26 11.41 12.26C11.39 12.26 11.37 12.26 11.35 12.28C11.35 12.28 11.33 12.29 11.33 12.3C11.33 12.23 11.27 12.17 11.2 12.17C11.2 12.17 11.18 12.17 11.17 12.17H11.16ZM12.49 12.54C12.5 12.67 12.61 12.77 12.74 12.81C12.72 12.77 12.7 12.73 12.7 12.69C12.68 12.54 12.8 12.42 12.96 12.42C12.98 12.42 13.01 12.42 13.03 12.42C12.97 12.32 12.87 12.26 12.75 12.26C12.59 12.26 12.47 12.38 12.49 12.54Z" fill="black"/>
<path d="M11.35 10.98C11.35 11.22 11.48 11.36 11.65 11.36C11.68 11.36 11.72 11.4 11.75 11.4C11.8 11.4 11.83 11.34 11.86 11.34C11.9 11.34 11.93 11.4 11.99 11.4C12.05 11.4 12.08 11.34 12.12 11.34C12.15 11.34 12.18 11.4 12.23 11.4C12.26 11.4 12.3 11.36 12.33 11.36C12.5 11.36 12.63 11.22 12.63 10.98C12.63 10.78 12.46 10.54 12.48 10.5C12.48 10.5 12.8 10.73 12.8 11C12.8 11.44 12.35 11.55 12.35 11.55L12.45 11.78C12.45 11.78 12.31 11.8 12.23 11.87C12.12 11.96 12.12 12.21 12.12 12.37C12.12 12.57 12.12 12.65 12.2 12.7C12.27 12.76 12.33 12.77 12.33 12.82C12.33 12.87 12.27 12.89 12.2 12.92C12.11 12.96 12.11 13.02 11.98 13.02C11.85 13.02 11.85 12.95 11.76 12.92C11.68 12.89 11.63 12.87 11.63 12.82C11.63 12.76 11.69 12.75 11.76 12.7C11.83 12.65 11.84 12.56 11.84 12.37C11.84 12.2 11.84 11.96 11.73 11.87C11.65 11.8 11.51 11.78 11.51 11.78L11.61 11.55C11.61 11.55 11.16 11.44 11.16 11C11.16 10.73 11.48 10.5 11.48 10.5C11.5 10.54 11.33 10.78 11.33 10.98H11.35ZM11.83 12.8C11.74 12.8 11.69 12.82 11.69 12.85C11.69 12.88 11.75 12.89 11.83 12.89C11.85 12.89 11.88 12.88 11.88 12.85C11.88 12.82 11.86 12.8 11.83 12.8ZM12.17 12.8C12.17 12.8 12.12 12.82 12.12 12.84C12.12 12.87 12.15 12.88 12.17 12.88C12.26 12.88 12.31 12.86 12.31 12.84C12.31 12.82 12.25 12.79 12.17 12.79V12.8ZM12 10.55L12.05 10.69L12.18 10.63L12.12 10.76L12.26 10.81L12.12 10.86L12.18 10.99L12.05 10.93L12 11.07L11.95 10.93L11.82 10.99L11.88 10.86L11.74 10.81L11.88 10.76L11.82 10.63L11.95 10.69L12 10.55ZM10.9 11.64C10.9 11.64 11.07 11.72 11.15 11.8C11.23 11.71 11.38 11.63 11.38 11.63C11.38 11.63 11.24 11.59 11.15 11.49C11.06 11.59 10.89 11.64 10.89 11.64H10.9ZM13.1 11.64C13.1 11.64 12.93 11.72 12.85 11.8C12.77 11.71 12.62 11.63 12.62 11.63C12.62 11.63 12.76 11.59 12.85 11.49C12.94 11.59 13.11 11.64 13.11 11.64H13.1ZM11.64 11.97L11.7 12.03L11.64 12.09L11.58 12.03L11.64 11.97ZM12.36 11.97L12.42 12.03L12.36 12.09L12.3 12.03L12.36 11.97ZM11.72 12.21C11.76 12.26 11.75 12.35 11.75 12.47C11.75 12.54 11.72 12.6 11.66 12.64C11.66 12.35 11.63 12.28 11.61 12.19L11.71 12.21H11.72ZM12.39 12.19C12.37 12.28 12.34 12.35 12.34 12.64C12.28 12.6 12.25 12.54 12.25 12.47C12.25 12.35 12.25 12.26 12.28 12.21L12.38 12.19H12.39ZM11.29 12.3C11.29 12.3 11.29 12.32 11.29 12.33V12.35C11.24 12.33 11.17 12.35 11.14 12.39C11.14 12.39 11.13 12.38 11.12 12.37C11.12 12.37 11.11 12.35 11.11 12.34C11.1 12.29 11.13 12.23 11.18 12.22C11.23 12.21 11.28 12.24 11.3 12.29L11.29 12.3ZM11.43 12.48C11.43 12.48 11.41 12.48 11.4 12.49C11.4 12.49 11.38 12.49 11.37 12.49C11.37 12.43 11.34 12.38 11.28 12.36C11.28 12.36 11.28 12.34 11.29 12.34C11.29 12.34 11.3 12.32 11.31 12.32C11.36 12.29 11.42 12.31 11.44 12.35C11.47 12.4 11.45 12.46 11.41 12.48H11.43ZM11.31 12.67L11.29 12.65V12.63C11.35 12.61 11.39 12.57 11.39 12.51C11.39 12.51 11.41 12.51 11.42 12.51C11.42 12.51 11.44 12.51 11.45 12.53C11.49 12.56 11.5 12.63 11.46 12.67C11.43 12.71 11.36 12.72 11.32 12.68L11.31 12.67ZM11.08 12.61C11.08 12.61 11.08 12.59 11.1 12.58C11.1 12.58 11.11 12.57 11.12 12.56C11.15 12.61 11.21 12.63 11.27 12.62C11.27 12.62 11.27 12.64 11.27 12.65C11.27 12.66 11.27 12.67 11.27 12.68C11.25 12.73 11.19 12.75 11.14 12.73C11.09 12.71 11.07 12.65 11.09 12.6L11.08 12.61ZM11.07 12.38C11.07 12.38 11.09 12.38 11.1 12.38C11.1 12.38 11.11 12.38 11.12 12.39C11.08 12.44 11.08 12.5 11.11 12.55C11.11 12.55 11.09 12.55 11.09 12.56C11.08 12.56 11.07 12.56 11.06 12.56C11.01 12.56 10.97 12.51 10.97 12.46C10.97 12.41 11.02 12.37 11.07 12.37V12.38Z" fill="#FFD200"/>
<path d="M11.24 12.58C11.2897 12.58 11.33 12.5397 11.33 12.49C11.33 12.4403 11.2897 12.4 11.24 12.4C11.1903 12.4 11.15 12.4403 11.15 12.49C11.15 12.5397 11.1903 12.58 11.24 12.58Z" fill="#FFD200"/>
<path d="M12.89 12.36C12.73 12.39 12.62 12.53 12.64 12.69C12.59 12.65 12.55 12.59 12.55 12.53C12.54 12.41 12.62 12.32 12.76 12.32C12.81 12.32 12.86 12.33 12.9 12.36H12.89Z" fill="#FFD200"/>
<path d="M13.36 10.29H10.64C10.64 10.29 10.72 10.38 10.72 10.44V12.27V12.55C10.72 12.55 10.72 12.59 10.73 12.61C10.73 12.63 10.75 12.65 10.76 12.66C10.76 12.66 10.82 12.72 10.85 12.75C10.85 12.75 10.87 12.76 10.87 12.77C10.87 12.77 10.89 12.78 10.89 12.79C11.03 12.88 11.26 12.98 11.46 13.07L11.62 13.14C11.81 13.22 11.89 13.26 11.98 13.38C12.08 13.27 12.16 13.23 12.35 13.14L12.51 13.07C12.71 12.98 12.94 12.88 13.08 12.79C13.08 12.79 13.16 12.73 13.19 12.7C13.19 12.7 13.2 12.69 13.21 12.68C13.21 12.68 13.21 12.67 13.22 12.66C13.22 12.66 13.24 12.63 13.25 12.61C13.25 12.59 13.26 12.57 13.26 12.55V12.27V10.44C13.26 10.38 13.31 10.32 13.34 10.29H13.36ZM13.32 10.45V12.28V12.56C13.32 12.56 13.32 12.61 13.31 12.64C13.31 12.66 13.29 12.68 13.27 12.7C13.27 12.7 13.27 12.71 13.26 12.72C13.26 12.72 13.25 12.73 13.24 12.74C13.2 12.78 13.16 12.81 13.12 12.84C12.97 12.94 12.75 13.04 12.54 13.13L12.38 13.2C12.19 13.29 12.11 13.32 12.01 13.44L11.99 13.46L11.97 13.44C11.87 13.32 11.79 13.28 11.6 13.2L11.44 13.13C11.24 13.04 11.01 12.94 10.86 12.84C10.86 12.84 10.84 12.83 10.83 12.82C10.82 12.81 10.81 12.81 10.81 12.8C10.77 12.77 10.74 12.74 10.71 12.7C10.71 12.7 10.68 12.66 10.68 12.64C10.68 12.61 10.67 12.59 10.67 12.56V12.28V10.45C10.67 10.37 10.56 10.29 10.56 10.29V10.25H13.42V10.29C13.42 10.29 13.31 10.37 13.31 10.45H13.32ZM13.26 10.32H13.27H13.31L13.28 10.35C13.26 10.38 13.25 10.41 13.25 10.45V12.28V12.56C13.25 12.56 13.22 12.67 13.1 12.76C13.1 12.76 13.05 12.79 13.02 12.81C12.99 12.83 12.95 12.85 12.92 12.87C12.75 12.95 12.6 13.02 12.47 13.08C12.24 13.18 12.08 13.25 12.02 13.33L12 13.35L11.98 13.33C11.92 13.25 11.75 13.18 11.53 13.08C11.4 13.02 11.25 12.96 11.08 12.87C10.96 12.81 10.89 12.76 10.84 12.71C10.84 12.71 10.82 12.69 10.81 12.68C10.76 12.63 10.75 12.58 10.75 12.55V12.27V10.44C10.75 10.44 10.75 10.37 10.72 10.34L10.69 10.31H10.78H13.22H13.26V10.32ZM13.22 10.36H10.78H10.77C10.78 10.39 10.79 10.42 10.79 10.45V12.28V12.56C10.79 12.58 10.8 12.61 10.84 12.66L10.86 12.68C10.91 12.72 10.98 12.77 11.09 12.83C11.26 12.91 11.41 12.98 11.54 13.04C11.76 13.13 11.92 13.2 11.99 13.28C12.07 13.2 12.23 13.13 12.44 13.04C12.57 12.98 12.72 12.92 12.89 12.83C12.89 12.83 12.96 12.79 12.99 12.78C13.02 12.76 13.05 12.75 13.07 12.73C13.18 12.65 13.2 12.59 13.2 12.56V12.28V10.45C13.2 10.45 13.2 10.39 13.22 10.36Z" fill="black"/>
</g>
</g>
<defs>
<clipPath id="clip0_170_15021">
<rect width="24" height="24" fill="white"/>
</clipPath>
</defs>
</svg>
