<svg width="24" height="24" viewBox="0 0 24 24" fill="none" xmlns="http://www.w3.org/2000/svg">
<g clip-path="url(#clip0_170_14805)">
<mask id="mask0_170_14805" style="mask-type:luminance" maskUnits="userSpaceOnUse" x="0" y="0" width="24" height="24">
<path d="M12 24C18.6274 24 24 18.6274 24 12C24 5.37258 18.6274 0 12 0C5.37258 0 0 5.37258 0 12C0 18.6274 5.37258 24 12 24Z" fill="white"/>
</mask>
<g mask="url(#mask0_170_14805)">
<path d="M0 0H24V24H0V0Z" fill="#DA2031"/>
<path d="M8 0H16V24H8V0Z" fill="#0066B2"/>
<path d="M4.00002 11.2C4.60754 11.2 5.10002 10.7075 5.10002 10.1C5.10002 9.49249 4.60754 9 4.00002 9C3.39251 9 2.90002 9.49249 2.90002 10.1C2.90002 10.7075 3.39251 11.2 4.00002 11.2Z" fill="#FFD300"/>
<path d="M3.99999 10.8C4.66273 10.8 5.19999 10.2627 5.19999 9.59999C5.19999 8.93725 4.66273 8.39999 3.99999 8.39999C3.33725 8.39999 2.79999 8.93725 2.79999 9.59999C2.79999 10.2627 3.33725 10.8 3.99999 10.8Z" fill="#DA2031"/>
<path d="M4.00001 10.6C4.44184 10.6 4.80001 10.2418 4.80001 9.8C4.80001 9.35817 4.44184 9 4.00001 9C3.55818 9 3.20001 9.35817 3.20001 9.8C3.20001 10.2418 3.55818 10.6 4.00001 10.6Z" fill="#FFD300"/>
<path d="M4.07999 7.2C3.97999 7.25 3.93999 7.33 3.93999 7.41C3.93999 7.48 3.96999 7.56 3.96999 7.62C3.96999 7.73 3.84999 7.77 3.84999 7.94C3.84999 8 3.89999 8.06 3.89999 8.2C3.89999 8.28 3.84999 8.29 3.79999 8.3C3.73999 8.3 3.69999 8.26 3.69999 8.2C3.69999 8.17 3.69999 8.15 3.72999 8.13C3.72999 8.13 3.72999 8.13 3.73999 8.12C3.75999 8.1 3.78999 8.09 3.78999 8.03C3.78999 8 3.76999 7.97 3.74999 7.92C3.72999 7.87 3.74999 7.78 3.78999 7.72C3.71999 7.75 3.67999 7.81 3.64999 7.87C3.62999 7.94 3.64999 7.99 3.61999 8.05C3.59999 8.09 3.57999 8.11 3.55999 8.14C3.52999 8.18 3.49999 8.26 3.49999 8.3C3.49999 8.58 3.71999 8.8 3.99999 8.8C4.27999 8.8 4.49999 8.58 4.49999 8.3C4.49999 8.26 4.46999 8.18 4.43999 8.14C4.41999 8.11 4.38999 8.09 4.37999 8.05C4.34999 7.99 4.36999 7.95 4.34999 7.87C4.32999 7.81 4.27999 7.74 4.20999 7.72C4.24999 7.77 4.26999 7.86 4.24999 7.92C4.22999 7.98 4.20999 8 4.20999 8.03C4.20999 8.09 4.23999 8.1 4.25999 8.12C4.25999 8.12 4.25999 8.12 4.26999 8.13C4.28999 8.15 4.29999 8.17 4.29999 8.2C4.29999 8.26 4.25999 8.3 4.19999 8.3C4.13999 8.3 4.09999 8.27 4.09999 8.2C4.09999 8.01 4.17999 8 4.17999 7.85C4.17999 7.65 3.99999 7.55 3.99999 7.4C3.99999 7.35 4.00999 7.26 4.07999 7.2ZM1.79999 11.4H2.79999V16.2H1.79999V11.4ZM5.19999 11.4H6.19999V16.2H5.19999V11.4ZM2.99999 11.4H4.99999L3.99999 12L2.99999 11.4ZM2.99999 12.2H4.99999V12.6H2.99999V12.2ZM2.99999 15H4.99999V15.4H2.99999V15ZM2.99999 15.6H4.99999L3.99999 16.2L2.99999 15.6Z" fill="#FFD300"/>
<path d="M4 14.8C4.55228 14.8 5 14.3523 5 13.8C5 13.2477 4.55228 12.8 4 12.8C3.44772 12.8 3 13.2477 3 13.8C3 14.3523 3.44772 14.8 4 14.8Z" fill="#FFD300"/>
<path d="M3.99999 13.47C4.11044 13.47 4.19999 13.3805 4.19999 13.27C4.19999 13.1596 4.11044 13.07 3.99999 13.07C3.88953 13.07 3.79999 13.1596 3.79999 13.27C3.79999 13.3805 3.88953 13.47 3.99999 13.47Z" fill="#DA2032"/>
<path d="M3.99999 14.53C4.11044 14.53 4.19999 14.4405 4.19999 14.33C4.19999 14.2195 4.11044 14.13 3.99999 14.13C3.88953 14.13 3.79999 14.2195 3.79999 14.33C3.79999 14.4405 3.88953 14.53 3.99999 14.53Z" fill="#DA2032"/>
<path d="M3.99997 12.68C4.32997 12.68 4.58997 12.94 4.58997 13.27C4.58997 13.6 4.32997 13.86 3.99997 13.86C3.73997 13.86 3.52997 14.07 3.52997 14.33C3.52997 14.59 3.73997 14.8 3.99997 14.8V14.92C3.66997 14.92 3.40997 14.66 3.40997 14.33C3.40997 14 3.66997 13.74 3.99997 13.74C4.25997 13.74 4.46997 13.53 4.46997 13.27C4.46997 13.01 4.25997 12.8 3.99997 12.8V12.68Z" fill="#DA2032"/>
</g>
</g>
<defs>
<clipPath id="clip0_170_14805">
<rect width="24" height="24" fill="white"/>
</clipPath>
</defs>
</svg>
