<svg width="24" height="24" viewBox="0 0 24 24" fill="none" xmlns="http://www.w3.org/2000/svg">
<g clip-path="url(#clip0_170_14818)">
<mask id="mask0_170_14818" style="mask-type:luminance" maskUnits="userSpaceOnUse" x="0" y="0" width="24" height="24">
<path d="M12 24C18.6274 24 24 18.6274 24 12C24 5.37258 18.6274 0 12 0C5.37258 0 0 5.37258 0 12C0 18.6274 5.37258 24 12 24Z" fill="white"/>
</mask>
<g mask="url(#mask0_170_14818)">
<path d="M0 0H24V24H0V0Z" fill="black"/>
<path d="M0 0H24V8.25H0V0Z" fill="white"/>
<path d="M0 0H24V7.5H0V0Z" fill="#007168"/>
<path d="M0 15.74H24V24H0V15.74Z" fill="white"/>
<path d="M0 16.5H24V24H0V16.5Z" fill="#FCE100"/>
<path d="M0 1.71V22.29L13.5 12L0 1.71Z" fill="#D21034"/>
<path d="M6.56997 15L4.61997 13.57L2.66997 15L3.42997 12.7L1.46997 11.29H3.88997L4.62997 9L5.36997 11.3H7.78997L5.82997 12.7L6.58997 14.99L6.56997 15Z" fill="#FCE100"/>
<path fill-rule="evenodd" clip-rule="evenodd" d="M2.92999 13.4H4.33999C4.44999 13.53 4.70999 13.58 4.94999 13.4C5.38999 13.16 6.23999 13.4 6.23999 13.4L6.40999 13.22L5.99999 11.88L5.84999 11.72C5.84999 11.72 5.53999 11.53 4.93999 11.59C4.33999 11.65 4.12999 11.57 4.12999 11.57C4.12999 11.57 3.60999 11.63 3.45999 11.71C3.43999 11.72 3.28999 11.88 3.28999 11.88L2.92999 13.4Z" fill="white"/>
<path d="M4.61002 13.53C4.49002 13.53 4.39002 13.49 4.32002 13.41H2.92002C2.92002 13.41 2.91002 13.41 2.90002 13.41C2.90002 13.41 2.90002 13.4 2.90002 13.39L3.26002 11.87C3.28002 11.85 3.41002 11.71 3.43002 11.7C3.58002 11.63 4.09002 11.56 4.11002 11.56C4.11002 11.56 4.11002 11.56 4.12002 11.56C4.12002 11.56 4.33002 11.64 4.92002 11.58C5.01002 11.58 5.09002 11.57 5.16002 11.57C5.60002 11.57 5.83002 11.71 5.84002 11.71L5.99002 11.87L6.40002 13.21C6.40002 13.21 6.40002 13.22 6.40002 13.23L6.23002 13.41C6.23002 13.41 6.22002 13.41 6.21002 13.41C6.21002 13.41 5.36002 13.17 4.93002 13.41C4.82002 13.49 4.70002 13.53 4.60002 13.53H4.61002ZM2.95002 13.38H4.33002C4.33002 13.38 4.34002 13.38 4.35002 13.38C4.46002 13.5 4.70002 13.54 4.93002 13.38C5.35002 13.15 6.12002 13.34 6.23002 13.38L6.38002 13.22L5.98002 11.89L5.84002 11.74C5.84002 11.74 5.59002 11.61 5.18002 11.61C5.11002 11.61 5.03002 11.61 4.95002 11.62C4.40002 11.68 4.18002 11.62 4.14002 11.6C4.09002 11.6 3.62002 11.67 3.48002 11.73C3.46002 11.75 3.38002 11.83 3.32002 11.89L2.97002 13.38H2.95002Z" fill="black"/>
<path d="M4.61001 13.54C4.51001 13.54 4.41001 13.5 4.31001 13.43C4.31001 13.43 4.30001 13.41 4.31001 13.4C4.31001 13.4 4.40001 13.29 4.60001 13.18C4.07001 12.97 3.23001 13.07 3.22001 13.07C3.21001 13.07 3.20001 13.07 3.20001 13.05C3.20001 13.04 3.20001 13.03 3.22001 13.03C3.26001 13.03 4.12001 12.92 4.66001 13.15C4.92001 13.03 5.33001 12.93 5.96001 13.02C5.97001 13.02 5.98001 13.03 5.98001 13.04C5.98001 13.05 5.98001 13.06 5.96001 13.06C5.36001 12.98 4.96001 13.06 4.71001 13.18C4.82001 13.23 4.91001 13.3 4.97001 13.39C4.97001 13.39 4.97001 13.4 4.97001 13.41V13.42C4.85001 13.5 4.74001 13.54 4.63001 13.54H4.61001ZM4.35001 13.4C4.53001 13.53 4.71001 13.52 4.91001 13.39C4.84001 13.31 4.75001 13.25 4.64001 13.2C4.47001 13.28 4.38001 13.37 4.35001 13.4Z" fill="black"/>
<path d="M4.65002 11.71V13.19V11.71ZM5.84002 11.73L6.09002 12.9L5.84002 11.73ZM3.47002 11.71L3.33002 12.32L3.47002 11.71Z" fill="black"/>
<path d="M4.63999 13.21C4.63999 13.21 4.61999 13.21 4.61999 13.19V11.71C4.61999 11.71 4.63999 11.69 4.64999 11.69C4.64999 11.69 4.66999 11.69 4.66999 11.71V13.19C4.66999 13.19 4.64999 13.21 4.63999 13.21ZM6.08999 12.93C6.08999 12.93 6.06999 12.93 6.06999 12.91L5.81999 11.74C5.81999 11.74 5.81999 11.72 5.83999 11.71C5.83999 11.71 5.85999 11.71 5.85999 11.73L6.10999 12.9C6.10999 12.9 6.10999 12.92 6.08999 12.93ZM3.31999 12.34C3.30999 12.34 3.29999 12.33 3.29999 12.31L3.43999 11.7C3.43999 11.7 3.44999 11.68 3.45999 11.68C3.46999 11.68 3.47999 11.69 3.47999 11.71L3.33999 12.32C3.33999 12.32 3.32999 12.34 3.31999 12.34Z" fill="black"/>
<path fill-rule="evenodd" clip-rule="evenodd" d="M2.01001 13.56L2.34001 13.95C2.34001 13.95 2.41001 13.97 2.45001 13.95L2.94001 13.36L3.15001 13.11C3.15001 13.11 3.19001 13.03 3.19001 12.99L3.58001 12.64H3.66001C3.66001 12.64 3.59001 12.62 3.62001 12.58L3.71001 12.51L3.78001 12.6L3.67001 12.73H3.56001L3.35001 12.92L3.44001 13L3.58001 13.37L3.75001 13.25L3.64001 12.87L3.88001 12.62L3.79001 12.48L3.85001 12.4C3.85001 12.4 4.66001 12.91 4.98001 12.78L5.00001 12.41C5.00001 12.41 4.16001 12.32 4.14001 12.16C4.12001 12 4.33001 11.97 4.33001 11.97L4.24001 11.84L4.26001 11.77L4.41001 11.96L4.74001 11.68L6.70001 13.91C6.81001 13.87 6.83001 13.84 6.84001 13.73L4.92001 11.53L5.07001 11.37C5.07001 11.37 5.11001 11.32 5.11001 11.27L5.34001 11.07C5.41001 11.09 5.45001 11.13 5.49001 11.19L6.11001 10.67C6.11001 10.67 6.18001 10.7 6.21001 10.68L7.23001 9.7L6.11001 10.49L6.07001 10.46C6.07001 10.46 6.11001 10.42 6.07001 10.36C6.03001 10.31 5.96001 10.41 5.95001 10.41C5.94001 10.41 5.79001 10.36 5.76001 10.29V10.47L5.46001 10.73H5.24001L4.93001 11.02L4.89001 11.14L4.94001 11.24C4.94001 11.24 4.77001 11.39 4.77001 11.38C4.77001 11.37 4.74001 11.34 4.73001 11.33L4.87001 11.2L4.89001 11.11L4.84001 11.04C4.84001 11.04 4.64001 11.24 4.63001 11.22L4.10001 10.62L4.13001 10.51L3.80001 10.15C3.68001 10.11 3.49001 10.1 3.45001 10.37C3.42001 10.43 3.17001 10.37 3.17001 10.37L3.03001 10.4L2.26001 11.5L2.69001 12.02L3.57001 10.9L3.60001 10.58L3.78001 10.79C3.84001 10.79 3.90001 10.79 3.96001 10.77L4.48001 11.35L4.39001 11.43L4.47001 11.52C4.47001 11.52 4.53001 11.48 4.56001 11.46C4.56001 11.47 4.59001 11.5 4.60001 11.51C4.56001 11.53 4.53001 11.57 4.48001 11.59C4.41001 11.54 4.34001 11.49 4.35001 11.4L4.06001 11.64V11.69L3.18001 12.41H3.10001L3.08001 12.65L3.65001 12.18V12.11L3.71001 12.16L4.15001 11.81C4.15001 11.81 4.18001 11.85 4.17001 11.85C4.16001 11.85 3.78001 12.2 3.78001 12.2V12.24L3.70001 12.3L3.66001 12.27L3.13001 12.74H3.05001L2.76001 13.03C2.68001 13.03 2.62001 13.04 2.55001 13.09L2.02001 13.55L2.01001 13.56Z" fill="black"/>
<path d="M2.4 13.98C2.4 13.98 2.36 13.98 2.33 13.96L2 13.57C2 13.57 2 13.55 2 13.54L2.53 13.08C2.6 13.03 2.66 13.02 2.74 13.02L3.03 12.73C3.03 12.73 3.03 12.73 3.04 12.73H3.11L3.63 12.27C3.63 12.27 3.65 12.27 3.66 12.27L3.69 12.29L3.74 12.25V12.22C3.74 12.22 3.75 12.22 3.75 12.21C4.01 11.97 4.1 11.89 4.13 11.86L3.71 12.2C3.71 12.2 3.69 12.2 3.68 12.2L3.66 12.18V12.2C3.66 12.2 3.66 12.21 3.66 12.22L3.09 12.69H3.07C3.07 12.69 3.06 12.68 3.06 12.67L3.08 12.44C3.08 12.44 3.08 12.42 3.1 12.42H3.17L4.03 11.69V11.65C4.03 11.65 4.04 11.65 4.05 11.64L4.34 11.39H4.36C4.36 11.39 4.37 11.4 4.37 11.41C4.37 11.49 4.42 11.54 4.48 11.58C4.5 11.58 4.51 11.56 4.53 11.55C4.54 11.55 4.56 11.53 4.57 11.52C4.57 11.52 4.57 11.51 4.56 11.5C4.56 11.5 4.54 11.51 4.54 11.52C4.52 11.53 4.51 11.54 4.49 11.55C4.49 11.55 4.47 11.55 4.46 11.55L4.38 11.46C4.38 11.46 4.38 11.44 4.38 11.43L4.45 11.36L3.95 10.8C3.89 10.82 3.83 10.82 3.78 10.81C3.78 10.81 3.78 10.81 3.77 10.81L3.62 10.64L3.6 10.91C3.6 10.91 3.6 10.91 3.6 10.92L2.72 12.04C2.72 12.04 2.72 12.04 2.7 12.04C2.7 12.04 2.69 12.04 2.68 12.04L2.25 11.52C2.25 11.52 2.25 11.5 2.25 11.49L3.02 10.39C3.02 10.39 3.02 10.39 3.03 10.39L3.17 10.36C3.28 10.38 3.41 10.39 3.43 10.36C3.45 10.26 3.49 10.18 3.55 10.14C3.64 10.09 3.75 10.11 3.81 10.14L4.14 10.5C4.14 10.5 4.14 10.51 4.14 10.52L4.11 10.62L4.62 11.2C4.62 11.2 4.74 11.09 4.77 11.06C4.79 11.04 4.8 11.03 4.81 11.03C4.81 11.03 4.81 11.03 4.83 11.03H4.84L4.86 11.07L4.88 11.02L5.19 10.72C5.19 10.72 5.19 10.72 5.2 10.72H5.41L5.68 10.47V10.3C5.68 10.3 5.7 10.28 5.71 10.28C5.71 10.28 5.73 10.28 5.73 10.29C5.76 10.34 5.87 10.39 5.9 10.4C5.92 10.38 5.95 10.34 5.99 10.34C5.99 10.34 6.02 10.34 6.03 10.36C6.06 10.41 6.05 10.43 6.04 10.45H6.06L7.16 9.68C7.16 9.68 7.18 9.68 7.19 9.68C7.19 9.68 7.19 9.7 7.19 9.71L6.17 10.69C6.14 10.71 6.09 10.7 6.06 10.69L5.45 11.2C5.45 11.2 5.44 11.2 5.43 11.2H5.42C5.38 11.15 5.35 11.12 5.3 11.1L5.09 11.28C5.09 11.28 5.08 11.35 5.05 11.38L4.92 11.52C5.09 11.71 6.81 13.69 6.83 13.71C6.83 13.71 6.83 13.71 6.83 13.73C6.83 13.85 6.79 13.88 6.68 13.93H6.66L4.71 11.71L4.39 11.98C4.39 11.98 4.39 11.98 4.37 11.98H4.36L4.24 11.83V11.85L4.32 11.97C4.32 11.97 4.32 11.98 4.32 11.99C4.32 11.99 4.32 12 4.3 12C4.3 12 4.2 12.01 4.16 12.07C4.14 12.1 4.13 12.13 4.14 12.16C4.15 12.27 4.66 12.36 4.98 12.4C4.99 12.4 5 12.4 5 12.42C5 12.79 4.98 12.79 4.97 12.8C4.93 12.82 4.88 12.82 4.83 12.82C4.49 12.82 3.94 12.49 3.84 12.43L3.8 12.48L3.88 12.6C3.88 12.6 3.88 12.62 3.88 12.63L3.65 12.88L3.76 13.25V13.27L3.59 13.39C3.59 13.39 3.58 13.39 3.57 13.39C3.57 13.39 3.56 13.39 3.56 13.38L3.43 13.01L3.34 12.93C3.34 12.93 3.34 12.93 3.34 12.91C3.34 12.91 3.34 12.9 3.34 12.89L3.55 12.7C3.55 12.7 3.55 12.7 3.56 12.7H3.66L3.75 12.59L3.7 12.53L3.63 12.58V12.6C3.63 12.6 3.63 12.6 3.66 12.62C3.67 12.62 3.68 12.63 3.68 12.64C3.68 12.65 3.67 12.66 3.66 12.66H3.58L3.2 12.99C3.2 13.03 3.19 13.08 3.16 13.11L2.95 13.36L2.46 13.95C2.44 13.96 2.42 13.97 2.4 13.97V13.98ZM2.36 13.93C2.36 13.93 2.41 13.95 2.44 13.93L2.93 13.34L3.14 13.09C3.14 13.09 3.18 13.01 3.18 12.99C3.18 12.99 3.18 12.98 3.18 12.97L3.57 12.62C3.57 12.62 3.58 12.62 3.59 12.62H3.6C3.6 12.62 3.6 12.59 3.62 12.57L3.71 12.5C3.71 12.5 3.73 12.5 3.74 12.5L3.81 12.59C3.81 12.59 3.81 12.61 3.81 12.62L3.7 12.75C3.7 12.75 3.7 12.75 3.68 12.75H3.58L3.4 12.92L3.47 12.98L3.6 13.32L3.73 13.23L3.63 12.86C3.63 12.86 3.63 12.85 3.63 12.84L3.85 12.6L3.77 12.48V12.46L3.83 12.38C3.83 12.38 3.85 12.38 3.86 12.38C3.86 12.38 4.49 12.78 4.85 12.78C4.89 12.78 4.93 12.78 4.96 12.76C4.96 12.72 4.97 12.57 4.97 12.43C4.79 12.41 4.13 12.33 4.11 12.16C4.11 12.11 4.11 12.07 4.14 12.03C4.18 11.98 4.24 11.96 4.28 11.95L4.21 11.85C4.21 11.85 4.21 11.84 4.21 11.83L4.23 11.76C4.23 11.76 4.24 11.74 4.25 11.74C4.25 11.74 4.26 11.74 4.27 11.74L4.4 11.91L4.72 11.64C4.72 11.64 4.74 11.64 4.75 11.64L6.7 13.86C6.79 13.82 6.8 13.8 6.81 13.72C6.77 13.67 6.5 13.37 4.9 11.52C4.9 11.52 4.9 11.5 4.9 11.49L5.05 11.33C5.05 11.33 5.08 11.29 5.08 11.25C5.08 11.25 5.08 11.24 5.08 11.23L5.31 11.03C5.31 11.03 5.32 11.03 5.33 11.03C5.39 11.05 5.43 11.08 5.47 11.14L6.07 10.63C6.07 10.63 6.09 10.63 6.1 10.63C6.1 10.63 6.15 10.66 6.17 10.64L6.99 9.85L6.1 10.48H6.08L6.04 10.45C6.04 10.45 6.04 10.45 6.04 10.43C6.04 10.41 6.04 10.4 6.05 10.39C6.05 10.38 6.06 10.37 6.05 10.34C6.05 10.34 6.05 10.34 6.04 10.34C6.04 10.34 6 10.37 5.98 10.38C5.97 10.39 5.96 10.4 5.95 10.4C5.94 10.4 5.83 10.36 5.77 10.31V10.44C5.77 10.44 5.77 10.45 5.76 10.45L5.48 10.71C5.48 10.71 5.48 10.71 5.47 10.71H5.26L4.96 11L4.93 11.11L4.97 11.2C4.97 11.2 4.97 11.22 4.97 11.23C4.8 11.38 4.8 11.38 4.78 11.37C4.78 11.37 4.77 11.36 4.77 11.35C4.77 11.35 4.76 11.34 4.75 11.33C4.74 11.32 4.73 11.31 4.73 11.3C4.73 11.3 4.73 11.29 4.73 11.28L4.87 11.16V11.12C4.87 11.12 4.87 11.12 4.87 11.11V11.09L4.85 11.05C4.85 11.05 4.85 11.05 4.84 11.06C4.69 11.21 4.67 11.22 4.65 11.22C4.65 11.22 4.65 11.22 4.64 11.22L4.11 10.62C4.11 10.62 4.11 10.61 4.11 10.6L4.14 10.5L3.82 10.15C3.77 10.13 3.68 10.11 3.6 10.15C3.54 10.18 3.51 10.25 3.5 10.34C3.47 10.41 3.27 10.38 3.2 10.36L3.08 10.39L2.32 11.47L2.72 11.96L3.58 10.87L3.61 10.56C3.61 10.56 3.61 10.54 3.62 10.54H3.64L3.82 10.74C3.87 10.74 3.93 10.74 3.98 10.72C3.98 10.72 4 10.72 4.01 10.72L4.53 11.3C4.53 11.3 4.53 11.32 4.53 11.33L4.46 11.4L4.51 11.46C4.51 11.46 4.53 11.44 4.54 11.44C4.55 11.43 4.57 11.42 4.58 11.41C4.59 11.41 4.6 11.41 4.61 11.41V11.43C4.61 11.43 4.64 11.46 4.65 11.46C4.65 11.46 4.65 11.47 4.65 11.48C4.65 11.49 4.65 11.49 4.64 11.49C4.62 11.5 4.6 11.51 4.58 11.53C4.56 11.54 4.54 11.56 4.52 11.57C4.52 11.57 4.51 11.57 4.5 11.57C4.44 11.53 4.38 11.48 4.36 11.4L4.1 11.61V11.65C4.1 11.65 4.09 11.65 4.08 11.66L3.21 12.38C3.21 12.38 3.21 12.38 3.2 12.38H3.14L3.13 12.55L3.65 12.12V12.06C3.65 12.06 3.65 12.04 3.66 12.04H3.68L3.72 12.08L4.15 11.74C4.15 11.74 4.15 11.74 4.17 11.74H4.18C4.21 11.78 4.21 11.79 4.2 11.8C4.2 11.8 4.2 11.8 4.19 11.8C4.17 11.82 3.95 12.02 3.81 12.15V12.18C3.81 12.18 3.8 12.18 3.8 12.19L3.73 12.25C3.73 12.25 3.71 12.25 3.7 12.25L3.67 12.23L3.15 12.69C3.15 12.69 3.15 12.69 3.14 12.69H3.07L2.78 12.98C2.78 12.98 2.78 12.98 2.77 12.98C2.69 12.98 2.63 13 2.57 13.04L2.06 13.49L2.37 13.86L2.36 13.93ZM4.76 11.32C4.76 11.32 4.76 11.33 4.77 11.34C4.8 11.32 4.85 11.27 4.9 11.23V11.2H4.88L4.75 11.32H4.76Z" fill="black"/>
</g>
</g>
<defs>
<clipPath id="clip0_170_14818">
<rect width="24" height="24" fill="white"/>
</clipPath>
</defs>
</svg>
