<svg width="24" height="24" viewBox="0 0 24 24" fill="none" xmlns="http://www.w3.org/2000/svg">
<g clip-path="url(#clip0_161_10409)">
<path d="M12 24C18.6274 24 24 18.6274 24 12C24 5.37258 18.6274 0 12 0C5.37258 0 0 5.37258 0 12C0 18.6274 5.37258 24 12 24Z" fill="#003893"/>
<path d="M12 23.12C18.1414 23.12 23.12 18.1414 23.12 12C23.12 5.8586 18.1414 0.880005 12 0.880005C5.8586 0.880005 0.880005 5.8586 0.880005 12C0.880005 18.1414 5.8586 23.12 12 23.12Z" fill="#DC143C"/>
<mask id="mask0_161_10409" style="mask-type:luminance" maskUnits="userSpaceOnUse" x="0" y="0" width="24" height="24">
<path d="M12 24C18.6274 24 24 18.6274 24 12C24 5.37258 18.6274 0 12 0C5.37258 0 0 5.37258 0 12C0 18.6274 5.37258 24 12 24Z" fill="white"/>
</mask>
<g mask="url(#mask0_161_10409)">
<path d="M8.38 5.00999C9.17 7.00999 11.43 7.98999 13.43 7.20999C14.44 6.80999 15.23 6.01999 15.63 5.00999C15.63 7.00999 14.01 8.62999 12.01 8.62999C10.01 8.62999 8.39001 7.00999 8.39001 5.00999" fill="white"/>
<path d="M12 8.38C12.9334 8.38 13.69 7.62336 13.69 6.69C13.69 5.75664 12.9334 5 12 5C11.0666 5 10.31 5.75664 10.31 6.69C10.31 7.62336 11.0666 8.38 12 8.38Z" fill="white"/>
<path d="M12.65 5.13999L12.46 4.39999L12 5.00999" fill="white"/>
<path d="M13.19 5.5L13.3 4.75L12.64 5.14" fill="white"/>
<path d="M13.56 6.05L13.95 5.39L13.2 5.5" fill="white"/>
<path d="M13.69 6.68999L14.3 6.22999L13.56 6.03999" fill="white"/>
<path d="M13.56 7.33999L14.3 7.14999L13.69 6.68999" fill="white"/>
<path d="M13.19 7.89L13.94 8L13.55 7.34" fill="white"/>
<path d="M11.35 5.13999L11.54 4.39999L12 5.00999" fill="white"/>
<path d="M10.81 5.5L10.7 4.75L11.36 5.14" fill="white"/>
<path d="M10.44 6.05L10.05 5.39L10.8 5.5" fill="white"/>
<path d="M10.31 6.68999L9.70001 6.22999L10.44 6.03999" fill="white"/>
<path d="M10.44 7.33999L9.70001 7.14999L10.31 6.68999" fill="white"/>
<path d="M10.81 7.89L10.06 8L10.45 7.34" fill="white"/>
<path d="M12 18.18C13.3641 18.18 14.47 17.0741 14.47 15.71C14.47 14.3458 13.3641 13.24 12 13.24C10.6358 13.24 9.52997 14.3458 9.52997 15.71C9.52997 17.0741 10.6358 18.18 12 18.18Z" fill="white"/>
<path d="M12.64 18.09L12 19.6L11.36 18.09" fill="white"/>
<path d="M11.36 13.33L12 11.82L12.64 13.33" fill="white"/>
<path d="M9.61999 16.35L8.10999 15.71L9.61999 15.07" fill="white"/>
<path d="M14.38 15.07L15.89 15.71L14.38 16.35" fill="white"/>
<path d="M11.36 18.09L10.05 19.08L10.25 17.45" fill="white"/>
<path d="M12.64 13.33L13.95 12.34L13.75 13.97" fill="white"/>
<path d="M9.62 15.07L8.63 13.76L10.26 13.96" fill="white"/>
<path d="M14.38 16.35L15.37 17.66L13.74 17.46" fill="white"/>
<path d="M10.25 17.45L8.62 17.65L9.60999 16.34" fill="white"/>
<path d="M13.75 13.96L15.38 13.76L14.39 15.07" fill="white"/>
<path d="M10.25 13.96L10.05 12.33L11.36 13.32" fill="white"/>
<path d="M13.75 17.45L13.95 19.08L12.64 18.09" fill="white"/>
</g>
</g>
<defs>
<clipPath id="clip0_161_10409">
<rect width="24" height="24" fill="white"/>
</clipPath>
</defs>
</svg>
