<svg width="24" height="24" viewBox="0 0 24 24" fill="none" xmlns="http://www.w3.org/2000/svg">
<g clip-path="url(#clip0_161_13652)">
<mask id="mask0_161_13652" style="mask-type:luminance" maskUnits="userSpaceOnUse" x="0" y="0" width="24" height="24">
<path d="M12 24C18.6274 24 24 18.6274 24 12C24 5.37258 18.6274 0 12 0C5.37258 0 0 5.37258 0 12C0 18.6274 5.37258 24 12 24Z" fill="white"/>
</mask>
<g mask="url(#mask0_161_13652)">
<path d="M0 0H24V24H0V0Z" fill="#0067C6"/>
<path d="M0 8H24V16H0V8Z" fill="white"/>
<path d="M8.78998 11.98L9.14998 12V11.95H9.00998V11.78L9.16998 11.67V11.6L9.01998 11.71C9.01998 11.67 8.98998 11.63 8.95998 11.62C8.92998 11.61 8.88998 11.61 8.85998 11.62C8.81998 11.65 8.81998 11.69 8.80998 11.73L8.78998 11.96V11.98ZM8.84998 11.93V11.75C8.84998 11.75 8.86998 11.69 8.89998 11.67C8.91998 11.65 8.95998 11.67 8.96998 11.69C8.98998 11.73 8.97998 11.78 8.96998 11.83V11.93H8.84998ZM8.83998 11.43L9.18998 11.51L9.26998 11.17H9.21998L9.14998 11.45L9.03998 11.43L9.09998 11.17H9.04998L8.98998 11.42L8.89998 11.4L8.95998 11.12H8.90998L8.82998 11.44L8.83998 11.43ZM8.95998 10.96L9.29998 11.08L9.31998 11.03L9.18998 10.98L9.23998 10.83C9.23998 10.83 9.25998 10.74 9.23998 10.7C9.21998 10.67 9.17998 10.65 9.14998 10.65C9.10998 10.65 9.07998 10.68 9.05998 10.71C9.02998 10.76 9.01998 10.81 8.99998 10.86L8.96998 10.95L8.95998 10.96ZM9.02998 10.93L9.07998 10.78C9.07998 10.78 9.10998 10.72 9.13998 10.71C9.16998 10.71 9.18998 10.72 9.18998 10.75C9.18998 10.8 9.17998 10.84 9.15998 10.89L9.12998 10.97L9.01998 10.93H9.02998ZM9.14998 10.53L9.33998 10.64C9.33998 10.64 9.41998 10.67 9.45998 10.64C9.50998 10.61 9.53998 10.56 9.56998 10.51C9.58998 10.47 9.59998 10.41 9.56998 10.37C9.53998 10.33 9.48998 10.31 9.44998 10.28L9.32998 10.21L9.29998 10.25L9.47998 10.36C9.47998 10.36 9.52998 10.41 9.52998 10.44C9.52998 10.48 9.49998 10.52 9.47998 10.55C9.45998 10.58 9.42998 10.6 9.38998 10.59C9.34998 10.59 9.31998 10.56 9.28998 10.54L9.16998 10.47L9.13998 10.51L9.14998 10.53ZM9.40998 10.11L9.68998 10.33L9.81998 10.16C9.81998 10.16 9.86998 10.08 9.84998 10.03C9.82998 9.98999 9.79998 9.96999 9.75998 9.96999C9.73998 9.96999 9.71998 9.97999 9.70998 9.98999C9.71998 9.94999 9.68998 9.91999 9.64998 9.90999C9.60998 9.89999 9.56998 9.91999 9.53998 9.94999C9.50998 9.98999 9.47998 10.03 9.44998 10.06L9.39998 10.12L9.40998 10.11ZM9.47998 10.1L9.57998 9.96999C9.57998 9.96999 9.61998 9.92999 9.64998 9.93999C9.66998 9.93999 9.67998 9.97999 9.66998 9.99999C9.64998 10.04 9.61998 10.07 9.59998 10.1L9.55998 10.15L9.47998 10.09V10.1ZM9.58998 10.19L9.68998 10.06C9.68998 10.06 9.72998 10.02 9.75998 10.02C9.78998 10.02 9.79998 10.05 9.78998 10.08C9.77998 10.13 9.73998 10.16 9.70998 10.2L9.66998 10.26L9.57998 10.19H9.58998ZM9.72998 9.73999L9.96998 9.99999L10.18 9.79999L10.15 9.75999L9.97998 9.91999L9.76998 9.69999L9.72998 9.73999ZM10.04 9.45999L10.26 9.73999L10.3 9.70999L10.08 9.42999L10.04 9.45999ZM10.36 9.23999C10.36 9.23999 10.3 9.28999 10.27 9.31999C10.24 9.34999 10.24 9.37999 10.23 9.40999C10.22 9.43999 10.23 9.46999 10.26 9.49999C10.28 9.52999 10.3 9.54999 10.33 9.56999C10.36 9.58999 10.39 9.58999 10.43 9.58999C10.47 9.58999 10.5 9.56999 10.55 9.53999C10.59 9.50999 10.62 9.47999 10.64 9.44999C10.66 9.41999 10.66 9.37999 10.65 9.33999L10.6 9.35999C10.61 9.42999 10.57 9.46999 10.52 9.49999C10.44 9.54999 10.36 9.54999 10.31 9.46999C10.26 9.38999 10.31 9.31999 10.38 9.26999C10.43 9.23999 10.48 9.21999 10.52 9.24999L10.56 9.21999C10.56 9.21999 10.5 9.18999 10.47 9.19999C10.43 9.19999 10.4 9.21999 10.36 9.23999ZM10.78 9.02999L10.74 9.42999L10.8 9.40999V9.28999H10.81L10.99 9.21999L11.08 9.29999L11.14 9.27999L10.84 9.01999L10.78 9.03999V9.02999ZM10.83 9.06999L10.95 9.16999L10.82 9.21999V9.05999H10.83V9.06999ZM11.56 8.80999L11.58 9.16999H11.77C11.82 9.14999 11.87 9.13999 11.91 9.09999C11.95 9.04999 11.96 8.97999 11.94 8.91999C11.92 8.86999 11.87 8.81999 11.82 8.80999C11.77 8.79999 11.71 8.80999 11.66 8.80999H11.56ZM11.62 8.85999H11.77C11.77 8.85999 11.83 8.85999 11.85 8.87999C11.89 8.89999 11.91 8.94999 11.9 8.98999C11.9 9.03999 11.86 9.08999 11.81 9.09999C11.78 9.09999 11.75 9.09999 11.73 9.10999H11.63L11.61 8.85999H11.62ZM12.06 8.78999L12.04 9.14999L12.39 9.16999V9.11999L12.1 9.09999V8.98999L12.37 9.00999V8.95999L12.11 8.93999V8.83999L12.4 8.85999V8.80999L12.07 8.78999H12.06ZM12.99 8.93999L12.86 9.26999L12.91 9.28999L13.01 9.02999L13.13 9.37999L13.19 9.39999L13.32 9.06999L13.27 9.04999L13.17 9.30999L13.05 8.95999L12.99 8.93999ZM13.47 9.14999L13.31 9.46999L13.26 9.44999L13.42 9.12999L13.47 9.14999ZM13.74 9.29999C13.74 9.29999 13.67 9.25999 13.63 9.24999C13.59 9.23999 13.56 9.24999 13.53 9.24999C13.5 9.24999 13.47 9.27999 13.45 9.30999C13.43 9.33999 13.42 9.36999 13.42 9.39999C13.42 9.42999 13.42 9.45999 13.44 9.48999C13.46 9.51999 13.49 9.54999 13.53 9.57999C13.57 9.60999 13.61 9.61999 13.65 9.61999C13.69 9.61999 13.72 9.61999 13.75 9.58999L13.71 9.54999C13.65 9.58999 13.6 9.55999 13.55 9.52999C13.47 9.47999 13.44 9.39999 13.49 9.32999C13.54 9.24999 13.63 9.26999 13.7 9.30999C13.75 9.33999 13.79 9.37999 13.78 9.42999L13.83 9.44999C13.83 9.44999 13.83 9.38999 13.81 9.35999C13.79 9.32999 13.77 9.29999 13.73 9.26999L13.74 9.29999ZM14.08 9.55999L13.71 9.70999L13.76 9.74999L13.88 9.69999L14.03 9.82999L14 9.94999L14.05 9.98999L14.14 9.59999L14.09 9.55999H14.08ZM14.06 9.61999L14.02 9.76999L13.91 9.67999L14.06 9.61999ZM14.35 9.80999L14.08 10.04L14.11 10.08L14.22 9.98999L14.33 10.12L14.3 10.3L14.34 10.35L14.38 10.16C14.38 10.16 14.46 10.2 14.49 10.18C14.52 10.17 14.55 10.14 14.55 10.1C14.55 10.05 14.52 10.01 14.49 9.96999L14.36 9.80999H14.35ZM14.34 9.87999L14.46 10.02C14.46 10.02 14.5 10.08 14.48 10.11C14.46 10.14 14.43 10.13 14.41 10.11C14.37 10.08 14.34 10.04 14.3 9.99999L14.26 9.94999L14.35 9.87999H14.34ZM14.76 10.37L14.36 10.39L14.39 10.44H14.51L14.61 10.61L14.54 10.71L14.57 10.76L14.79 10.42L14.76 10.37ZM14.73 10.43L14.64 10.56L14.57 10.44H14.73V10.43ZM14.99 10.85C14.97 10.79 14.93 10.73 14.87 10.7C14.8 10.67 14.72 10.68 14.67 10.74C14.63 10.79 14.63 10.86 14.64 10.92C14.65 10.99 14.68 11.05 14.73 11.1H14.7L14.72 11.16L14.89 11.1L14.83 10.92H14.79L14.84 11.07L14.78 11.09C14.78 11.09 14.7 10.98 14.69 10.92C14.68 10.87 14.68 10.82 14.71 10.78C14.75 10.74 14.82 10.72 14.87 10.76C14.92 10.8 14.95 10.85 14.96 10.91C14.96 10.95 14.96 10.99 14.94 11.02C14.94 11.02 14.94 11.03 14.94 11.04V11.06C14.94 11.06 15 11 15 10.96C15 10.92 15 10.88 14.98 10.85H14.99ZM15.09 11.12L14.89 11.16C14.89 11.16 14.83 11.18 14.81 11.19C14.79 11.2 14.78 11.23 14.77 11.26C14.77 11.29 14.77 11.32 14.77 11.37C14.77 11.41 14.79 11.45 14.81 11.47C14.83 11.49 14.85 11.51 14.87 11.52C14.89 11.53 14.92 11.52 14.96 11.52L15.16 11.48V11.43L14.96 11.47C14.87 11.49 14.84 11.44 14.83 11.36C14.81 11.28 14.83 11.23 14.91 11.21L15.1 11.17V11.12H15.09ZM15.2 11.73L14.83 11.57V11.63L14.95 11.68L14.96 11.87L14.85 11.93V11.99L15.2 11.78V11.72V11.73ZM15.15 11.77L15.02 11.85V11.71L15.15 11.77ZM9.06998 12.65H9.01998L9.07998 12.88H9.12998L9.06998 12.65ZM14.93 12.65H14.98L14.92 12.88H14.87L14.93 12.65ZM9.61998 13.57L9.21998 13.62L9.24998 13.67H9.36998V13.66L9.47998 13.82L9.41998 13.93L9.44998 13.98L9.63998 13.63L9.60998 13.58L9.61998 13.57ZM9.58998 13.62L9.50998 13.76L9.42998 13.64L9.58998 13.62ZM9.76998 13.79L9.51998 14.03L9.54998 14.07L9.75998 13.87L9.64998 14.18L9.68998 14.22L9.99998 14.13L9.78998 14.33L9.81998 14.37L10.07 14.13L10.02 14.07L9.70998 14.16L9.82998 13.86L9.76998 13.8V13.79ZM10.14 14.16L9.92998 14.44L10.21 14.65L10.24 14.61L9.99998 14.43L10.07 14.34L10.28 14.5L10.31 14.46L10.1 14.3L10.16 14.22L10.39 14.39L10.42 14.35L10.15 14.15L10.14 14.16ZM10.49 14.42L10.32 14.73L10.37 14.75L10.44 14.63L10.59 14.71L10.63 14.89L10.69 14.92L10.65 14.73C10.65 14.73 10.73 14.73 10.76 14.7C10.78 14.67 10.8 14.64 10.79 14.61C10.78 14.56 10.73 14.54 10.69 14.52L10.5 14.42H10.49ZM10.51 14.49L10.67 14.58C10.67 14.58 10.73 14.62 10.72 14.65C10.72 14.68 10.69 14.69 10.66 14.69C10.61 14.69 10.56 14.65 10.52 14.63L10.46 14.6L10.51 14.5V14.49ZM10.89 14.63L10.76 14.96L10.81 14.98L10.94 14.65L10.89 14.63ZM11.22 14.74C11.22 14.74 11.14 14.72 11.11 14.72C11.07 14.72 11.04 14.73 11.02 14.75C11 14.77 10.98 14.8 10.96 14.83C10.95 14.86 10.95 14.89 10.96 14.93C10.96 14.96 10.98 14.99 11.01 15.01C11.04 15.03 11.07 15.05 11.12 15.07C11.17 15.09 11.21 15.09 11.25 15.08C11.29 15.08 11.32 15.05 11.34 15.02L11.29 14.99C11.24 15.05 11.19 15.03 11.13 15.01C11.04 14.98 10.99 14.92 11.02 14.83C11.05 14.74 11.14 14.74 11.22 14.76C11.27 14.78 11.32 14.8 11.33 14.86H11.38C11.38 14.86 11.36 14.81 11.34 14.78C11.32 14.75 11.28 14.73 11.24 14.72L11.22 14.74ZM11.57 14.82L11.34 15.15H11.4L11.47 15.06L11.66 15.09L11.7 15.21H11.76L11.63 14.84H11.57V14.82ZM11.59 14.88L11.64 15.03L11.5 15.01L11.59 14.88ZM12.41 14.82C12.41 14.82 12.33 14.84 12.3 14.86C12.27 14.88 12.25 14.9 12.23 14.93C12.21 14.96 12.21 14.99 12.23 15.03C12.23 15.06 12.25 15.09 12.27 15.12C12.29 15.15 12.32 15.16 12.35 15.17C12.38 15.17 12.43 15.17 12.48 15.17C12.53 15.17 12.57 15.14 12.6 15.12C12.63 15.1 12.65 15.06 12.65 15.03H12.6C12.59 15.1 12.53 15.12 12.47 15.13C12.38 15.15 12.31 15.12 12.29 15.03C12.27 14.93 12.35 14.89 12.43 14.87C12.49 14.86 12.54 14.86 12.57 14.9L12.62 14.88C12.62 14.88 12.57 14.83 12.54 14.82C12.51 14.81 12.47 14.81 12.42 14.82H12.41ZM12.65 14.78L12.75 15.12L13.08 15.02V14.97L12.78 15.05L12.75 14.95L13 14.87V14.82L12.73 14.9L12.7 14.81L12.97 14.73V14.68L12.63 14.78H12.65ZM13.03 14.66L13.18 14.98L13.22 14.96L13.1 14.69L13.45 14.85H13.47L13.51 14.83L13.36 14.51L13.32 14.53L13.44 14.8L13.09 14.64L13.03 14.67V14.66ZM13.42 14.48L13.45 14.52L13.58 14.44L13.75 14.69L13.79 14.66L13.62 14.41L13.75 14.33L13.72 14.29L13.41 14.49L13.42 14.48ZM13.78 14.23L14.02 14.49L14.06 14.45L13.96 14.35L14.09 14.23L14.27 14.25L14.32 14.21L14.13 14.18C14.13 14.18 14.16 14.1 14.14 14.07C14.12 14.04 14.09 14.01 14.06 14.01C14.01 14.01 13.97 14.05 13.94 14.08L13.78 14.22V14.23ZM13.85 14.23L13.99 14.11C13.99 14.11 14.05 14.07 14.08 14.09C14.11 14.1 14.11 14.14 14.09 14.16C14.06 14.21 14.02 14.24 13.98 14.27L13.93 14.32L13.85 14.24V14.23ZM14.2 13.81L14.36 14.18L14.4 14.13L14.35 14.02L14.47 13.87L14.59 13.9L14.63 13.85L14.24 13.77L14.2 13.82V13.81ZM14.26 13.83L14.41 13.86L14.32 13.97L14.26 13.83ZM14.35 13.61L14.65 13.8L14.81 13.56L14.77 13.53L14.64 13.72L14.39 13.56L14.36 13.6L14.35 13.61Z" fill="#C8A400"/>
<mask id="mask1_161_13652" style="mask-type:luminance" maskUnits="userSpaceOnUse" x="9" y="9" width="6" height="5">
<path d="M12 9.37999L9.72998 13.31H14.27L12 9.37999Z" fill="white"/>
</mask>
<g mask="url(#mask1_161_13652)">
<path d="M12 9.38L10.88 11.32L10.33 12.27H13.67L13.15 11.36L12 9.37V9.38Z" fill="white"/>
<path opacity="0.62" d="M11.9999 9.37999L11.9199 9.52999L11.9999 11.49L12.0799 9.52999L11.9999 9.37999Z" fill="#17C0EB"/>
<path opacity="0.62" d="M13.9999 10.83L13.8399 10.8L11.9999 11.49L13.8899 10.96L13.9999 10.84V10.83Z" fill="#17C0EB"/>
<path d="M12.2699 11.39L12.1699 11.42L12.2799 11.39H12.2699Z" fill="white"/>
<path opacity="0.62" d="M13.2399 13.18L13.2199 13.01L11.9999 11.47L13.0799 13.1L13.2299 13.17L13.2399 13.18Z" fill="#17C0EB"/>
<path d="M12.1699 11.71L12.0999 11.62L12.1599 11.71H12.1699Z" fill="white"/>
<path opacity="0.62" d="M10.7599 13.18L10.9099 13.11L11.9899 11.48L10.7699 13.02L10.7499 13.19L10.7599 13.18Z" fill="#17C0EB"/>
<path d="M11.8299 11.71L11.8899 11.62L11.8199 11.71H11.8299Z" fill="white"/>
<path opacity="0.62" d="M9.99994 10.83L10.1099 10.95L11.9999 11.48L10.1599 10.79L9.99994 10.82V10.83Z" fill="#17C0EB"/>
<path d="M11.7299 11.39L11.8399 11.42L11.7399 11.38L11.7299 11.39Z" fill="white"/>
<path opacity="0.62" d="M12.29 9.4L12.19 9.53L12 11.48L12.36 9.55L12.3 9.39L12.29 9.4Z" fill="#17C0EB"/>
<path d="M12.04 11.2L12.03 11.31L12.05 11.2H12.04Z" fill="white"/>
<path opacity="0.62" d="M14.07 11.12L13.91 11.06L12 11.48L13.94 11.22L14.07 11.11V11.12Z" fill="#17C0EB"/>
<path d="M12.28 11.43L12.17 11.45H12.28V11.43Z" fill="white"/>
<path opacity="0.62" d="M12.99 13.34V13.17L12 11.48L12.85 13.25L12.99 13.34Z" fill="#17C0EB"/>
<path d="M12.13 11.73L12.07 11.63L12.12 11.73H12.13Z" fill="white"/>
<path opacity="0.62" d="M10.54 13L10.7 12.95L12 11.48L10.58 12.83L10.54 12.99V13Z" fill="#17C0EB"/>
<path d="M11.8 11.69L11.87 11.61L11.79 11.69H11.8Z" fill="white"/>
<path opacity="0.62" d="M10.11 10.56L10.2 10.7L12 11.48L10.28 10.55H10.11V10.56Z" fill="#17C0EB"/>
<path opacity="0.62" d="M12.5799 9.45999L12.4599 9.57999L11.9999 11.49L12.6199 9.62999L12.5799 9.46999V9.45999Z" fill="#17C0EB"/>
<path d="M12.0799 11.21L12.0499 11.32L12.0899 11.21H12.0799Z" fill="white"/>
<path opacity="0.62" d="M14.0999 11.41L13.9499 11.33L11.9899 11.48L13.9499 11.5L14.0899 11.41H14.0999Z" fill="#17C0EB"/>
<path opacity="0.62" d="M12.7199 13.46L12.7499 13.29L11.9999 11.48L12.5899 13.35L12.7199 13.46Z" fill="#17C0EB"/>
<path d="M12.0999 11.75L12.0599 11.65L12.0899 11.76L12.0999 11.75Z" fill="white"/>
<path opacity="0.62" d="M10.34 12.78L10.51 12.76L12 11.49L10.4 12.63L10.34 12.79V12.78Z" fill="#17C0EB"/>
<path d="M11.78 11.66L11.86 11.59L11.77 11.65L11.78 11.66Z" fill="white"/>
<path opacity="0.62" d="M10.2599 10.31L10.3299 10.46L11.9999 11.49L10.4199 10.32H10.2499L10.2599 10.31Z" fill="#17C0EB"/>
<path d="M11.7599 11.32L11.8499 11.38L11.7599 11.31V11.32Z" fill="white"/>
<path opacity="0.62" d="M12.8599 9.55999L12.7199 9.65999L11.9999 11.48L12.8699 9.71999L12.8499 9.54999L12.8599 9.55999Z" fill="#17C0EB"/>
<path d="M12.12 11.22L12.08 11.32L12.13 11.22H12.12Z" fill="white"/>
<path opacity="0.62" d="M14.0899 11.7L13.9499 11.6L11.9899 11.48L13.9299 11.77L14.0799 11.7H14.0899Z" fill="#17C0EB"/>
<path d="M12.2799 11.51L12.1699 11.5L12.2799 11.52V11.51Z" fill="white"/>
<path opacity="0.62" d="M12.4399 13.54L12.4899 13.38L11.9999 11.48L12.3299 13.41L12.4399 13.53V13.54Z" fill="#17C0EB"/>
<path d="M12.06 11.76L12.03 11.65L12.05 11.76H12.06Z" fill="white"/>
<path opacity="0.62" d="M10.1799 12.53H10.3499L11.9999 11.48L10.2599 12.39L10.1799 12.54V12.53Z" fill="#17C0EB"/>
<path d="M11.7499 11.62L11.8399 11.56L11.7399 11.61L11.7499 11.62Z" fill="white"/>
<path opacity="0.62" d="M10.4399 10.07L10.4899 10.23L11.9999 11.48L10.5999 10.11L10.4399 10.08V10.07Z" fill="#17C0EB"/>
<path d="M11.7899 11.29L11.8799 11.36L11.7999 11.28L11.7899 11.29Z" fill="white"/>
<path opacity="0.62" d="M13.12 9.7L12.97 9.78L12 11.49L13.11 9.87V9.7H13.12Z" fill="#17C0EB"/>
<path d="M12.15 11.24L12.1 11.33L12.16 11.24H12.15Z" fill="white"/>
<path opacity="0.62" d="M14.04 11.99L13.92 11.87L12 11.48L13.88 12.04L14.04 11.99Z" fill="#17C0EB"/>
<path opacity="0.62" d="M12.15 13.58L12.22 13.43L12 11.48L12.05 13.44L12.14 13.58H12.15Z" fill="#17C0EB"/>
<path d="M12.02 11.77L12.01 11.66V11.77H12.02Z" fill="white"/>
<path opacity="0.62" d="M10.05 12.27L10.22 12.29L12.01 11.48L10.16 12.14L10.06 12.27H10.05Z" fill="#17C0EB"/>
<path opacity="0.62" d="M10.65 9.87L10.68 10.04L12 11.49L10.8 9.93999L10.64 9.88L10.65 9.87Z" fill="#17C0EB"/>
<path opacity="0.62" d="M13.35 9.87L13.19 9.93L11.99 11.48L13.31 10.03L13.34 9.86L13.35 9.87Z" fill="#17C0EB"/>
<path d="M12.18 11.26L12.11 11.35L12.18 11.27V11.26Z" fill="white"/>
<path opacity="0.62" d="M13.9499 12.27L13.8499 12.14L11.9999 11.48L13.7899 12.29L13.9599 12.27H13.9499Z" fill="#17C0EB"/>
<path d="M12.2599 11.59L12.1599 11.55L12.2599 11.6V11.59Z" fill="white"/>
<path opacity="0.62" d="M11.85 13.58L11.94 13.44L11.99 11.48L11.77 13.43L11.84 13.58H11.85Z" fill="#17C0EB"/>
<path opacity="0.62" d="M9.95996 11.99L10.12 12.04L12 11.48L10.08 11.87L9.95996 11.99Z" fill="#17C0EB"/>
<path d="M11.72 11.55L11.83 11.52L11.72 11.54V11.55Z" fill="white"/>
<path opacity="0.62" d="M10.8799 9.7V9.87L11.9999 11.49L11.0299 9.78L10.8799 9.7Z" fill="#17C0EB"/>
<path d="M11.8499 11.24L11.9099 11.33L11.8599 11.23L11.8499 11.24Z" fill="white"/>
<path opacity="0.62" d="M13.5599 10.07L13.3999 10.1L11.9999 11.47L13.5099 10.22L13.5599 10.06V10.07Z" fill="#17C0EB"/>
<path d="M12.2099 11.29L12.1299 11.36L12.2199 11.29H12.2099Z" fill="white"/>
<path opacity="0.62" d="M13.8199 12.53L13.7399 12.38L11.9999 11.47L13.6499 12.52H13.8199V12.53Z" fill="#17C0EB"/>
<path d="M12.25 11.62L12.15 11.56L12.24 11.62H12.25Z" fill="white"/>
<path opacity="0.62" d="M11.5599 13.54L11.6699 13.42L11.9999 11.49L11.5099 13.39L11.5599 13.55V13.54Z" fill="#17C0EB"/>
<path d="M11.9399 11.76L11.9599 11.65L11.9299 11.76H11.9399Z" fill="white"/>
<path opacity="0.62" d="M9.90996 11.7L10.06 11.77L12 11.48L10.04 11.6L9.89996 11.7H9.90996Z" fill="#17C0EB"/>
<path d="M11.72 11.51L11.83 11.5H11.72V11.51Z" fill="white"/>
<path opacity="0.62" d="M11.1399 9.56L11.1199 9.73L11.9899 11.49L11.2699 9.67L11.1299 9.57L11.1399 9.56Z" fill="#17C0EB"/>
<path d="M11.8799 11.22L11.9299 11.32L11.8899 11.22H11.8799Z" fill="white"/>
<path opacity="0.62" d="M13.7499 10.31H13.5799L11.9999 11.49L13.6699 10.46L13.7399 10.31H13.7499Z" fill="#17C0EB"/>
<path opacity="0.62" d="M13.6599 12.78L13.5999 12.62L11.9999 11.48L13.4899 12.75L13.6599 12.77V12.78Z" fill="#17C0EB"/>
<path d="M12.2199 11.66L12.1299 11.59L12.2099 11.66H12.2199Z" fill="white"/>
<path opacity="0.62" d="M11.2799 13.46L11.4099 13.35L11.9999 11.48L11.2499 13.29L11.2799 13.46Z" fill="#17C0EB"/>
<path d="M11.9 11.75L11.93 11.65L11.89 11.75H11.9Z" fill="white"/>
<path opacity="0.62" d="M9.89995 11.41L10.04 11.5L12 11.48L10.04 11.33L9.88995 11.41H9.89995Z" fill="#17C0EB"/>
<path opacity="0.62" d="M11.4199 9.46L11.3799 9.62L11.9999 11.48L11.5399 9.57L11.4199 9.45V9.46Z" fill="#17C0EB"/>
<path d="M11.9199 11.21L11.9599 11.32L11.9299 11.21H11.9199Z" fill="white"/>
<path opacity="0.62" d="M13.8899 10.56H13.7199L11.9999 11.48L13.7999 10.7L13.8899 10.56Z" fill="#17C0EB"/>
<path d="M12.2599 11.36L12.1599 11.41L12.2599 11.37V11.36Z" fill="white"/>
<path opacity="0.62" d="M13.4599 13L13.4199 12.84L11.9999 11.49L13.2999 12.96L13.4599 13.01V13Z" fill="#17C0EB"/>
<path d="M12.1999 11.69L12.1199 11.61L12.1899 11.69H12.1999Z" fill="white"/>
<path opacity="0.62" d="M11.0099 13.34L11.1499 13.25L11.9999 11.48L11.0099 13.17V13.34Z" fill="#17C0EB"/>
<path d="M11.8699 11.73L11.9199 11.63L11.8599 11.73H11.8699Z" fill="white"/>
<path opacity="0.62" d="M9.92993 11.12L10.0599 11.23L11.9999 11.49L10.0899 11.07L9.92993 11.13V11.12Z" fill="#17C0EB"/>
<path opacity="0.62" d="M11.7099 9.39999L11.6499 9.55999L12.0099 11.49L11.8199 9.53999L11.7199 9.40999L11.7099 9.39999Z" fill="#17C0EB"/>
<path d="M11.9599 11.2L11.9799 11.31V11.2H11.9599Z" fill="white"/>
<path d="M12 10.78C11.62 10.78 11.25 10.92 10.97 11.16L10.45 12.07C10.43 12.17 10.42 12.27 10.42 12.36H10.6C10.6 11.59 11.23 10.96 12 10.96C12.77 10.96 13.4 11.59 13.4 12.36H13.58C13.58 12.26 13.58 12.16 13.55 12.07L13.03 11.16C12.74 10.91 12.38 10.78 12 10.78Z" fill="#FF0000"/>
<path d="M11.9999 10.81C11.5799 10.81 11.1999 10.98 10.9199 11.25L10.4899 11.99C10.4599 12.11 10.4399 12.24 10.4399 12.36H10.5899C10.5899 11.59 11.2199 10.96 11.9899 10.96C12.7599 10.96 13.3899 11.59 13.3899 12.36H13.5399C13.5399 12.23 13.5199 12.1 13.4899 11.98L13.0599 11.24C12.7799 10.97 12.3999 10.8 11.9799 10.8L11.9999 10.81Z" fill="#FF6600"/>
<path d="M12 10.84C11.55 10.84 11.14 11.04 10.86 11.35L10.55 11.89C10.5 12.04 10.47 12.2 10.47 12.37H10.59C10.59 11.6 11.22 10.97 11.99 10.97C12.76 10.97 13.39 11.6 13.39 12.37H13.51C13.51 12.2 13.48 12.04 13.43 11.89L13.12 11.35C12.84 11.04 12.43 10.84 11.98 10.84H12Z" fill="#FFFF00"/>
<path d="M11.9999 10.87C11.4799 10.87 11.0199 11.13 10.7599 11.53L10.6599 11.7C10.5599 11.9 10.5099 12.13 10.5099 12.36H10.5999C10.5999 11.59 11.2299 10.96 11.9999 10.96C12.7699 10.96 13.3999 11.59 13.3999 12.36H13.4899C13.4899 12.13 13.4399 11.91 13.3399 11.7L13.2399 11.52C12.9699 11.12 12.5199 10.86 11.9999 10.86V10.87Z" fill="#00FF00"/>
<path d="M12 10.9C11.19 10.9 10.53 11.56 10.53 12.37H10.6C10.6 11.6 11.23 10.97 12 10.97C12.77 10.97 13.4 11.6 13.4 12.37H13.47C13.47 11.56 12.81 10.9 12 10.9Z" fill="#00CCFF"/>
<path d="M11.9999 10.93C11.2099 10.93 10.5599 11.58 10.5599 12.37H10.6099C10.6099 11.6 11.2299 10.98 11.9999 10.98C12.7699 10.98 13.3899 11.6 13.3899 12.37H13.4399C13.4399 11.58 12.7899 10.93 11.9999 10.93Z" fill="#0000FF"/>
<path d="M12 10.95C11.22 10.95 10.59 11.58 10.59 12.36V12.39H10.62C10.62 12.39 10.62 12.37 10.62 12.36C10.62 11.6 11.24 10.98 12 10.98C12.76 10.98 13.38 11.6 13.38 12.36V12.39H13.41V12.36C13.41 11.58 12.78 10.95 12 10.95Z" fill="#800080"/>
<path d="M12.01 11.58C12.01 11.58 11.97 11.56 11.95 11.56C11.92 11.59 11.92 11.61 11.92 11.63C11.92 11.63 11.93 11.64 11.95 11.66C11.97 11.68 11.97 11.69 11.97 11.73C11.97 11.75 11.97 11.79 11.99 11.79C12.01 11.79 12.02 11.78 12.03 11.75C12.03 11.72 12.04 11.71 12.05 11.69C12.06 11.62 12.05 11.6 12.01 11.58Z" fill="#510000"/>
<path d="M11.9 11.41C11.9 11.41 11.85 11.45 11.83 11.43C11.83 11.42 11.83 11.4 11.83 11.38C11.85 11.34 11.87 11.32 11.91 11.3C11.99 11.25 12.05 11.27 12.09 11.34C12.13 11.4 12.17 11.47 12.17 11.53C12.17 11.55 12.18 11.58 12.17 11.6C12.12 11.65 12.01 11.55 11.94 11.56C11.92 11.56 11.89 11.58 11.87 11.56C11.85 11.55 11.87 11.52 11.87 11.51C11.89 11.49 11.92 11.43 11.92 11.4C11.92 11.38 11.92 11.4 11.9 11.4V11.41Z" fill="#FF0000"/>
<path d="M11.8899 11.38C11.8899 11.38 11.8599 11.42 11.8399 11.44C11.8399 11.44 11.8699 11.45 11.8899 11.43L11.9099 11.42C11.8999 11.42 11.8899 11.44 11.8899 11.44C11.8799 11.45 11.8499 11.48 11.8399 11.51C11.8299 11.54 11.8199 11.57 11.8299 11.57C11.8399 11.57 11.8499 11.6 11.8899 11.61C11.9599 11.64 11.9799 11.7 12.0499 11.7C12.1099 11.7 12.0999 11.66 12.1399 11.67C12.1799 11.67 12.1999 11.65 12.1599 11.63C12.1099 11.61 12.0099 11.63 11.9699 11.63C11.9599 11.48 11.9699 11.54 11.9699 11.47C11.9699 11.4 11.9499 11.4 11.9699 11.35C11.9499 11.38 11.9199 11.38 11.8999 11.38H11.8899Z" fill="url(#paint0_linear_161_13652)"/>
<path d="M12.03 11.28V11.3V11.34C12.03 11.34 12.05 11.36 12.05 11.37C12.05 11.38 12.06 11.39 12.07 11.4C12.08 11.4 12.07 11.44 12.08 11.44L12.1 11.4V11.38C12.1 11.37 12.1 11.36 12.08 11.35C12.08 11.35 12.08 11.35 12.08 11.34C12.08 11.33 12.06 11.32 12.05 11.31L12.03 11.28Z" fill="#FF2A2A"/>
<path d="M12.0399 11.55C12.0399 11.55 11.9899 11.53 11.9699 11.52C11.9299 11.51 11.8799 11.48 11.8499 11.49C11.8399 11.49 11.8399 11.51 11.8399 11.52C11.8399 11.54 11.8199 11.57 11.8399 11.56C11.8599 11.55 11.9299 11.59 11.9499 11.6C11.9599 11.6 11.9799 11.62 11.9899 11.64C11.9999 11.66 11.9899 11.7 11.9899 11.72C11.9899 11.74 11.9899 11.79 12.0099 11.79C12.0299 11.79 12.0499 11.78 12.0599 11.75C12.0599 11.72 12.0699 11.7 12.0899 11.68C12.1099 11.66 12.1199 11.65 12.1399 11.65C12.1599 11.65 12.1899 11.67 12.1899 11.65C12.1899 11.63 12.1799 11.62 12.1899 11.6C12.1899 11.58 12.1799 11.59 12.1599 11.58C12.1199 11.57 12.0899 11.57 12.0599 11.56L12.0399 11.55Z" fill="url(#paint1_linear_161_13652)"/>
<path d="M11.9399 11.6C11.9399 11.6 11.8599 11.55 11.8299 11.56H11.8199C11.8199 11.56 11.8199 11.54 11.8199 11.53C11.8199 11.52 11.8199 11.5 11.8399 11.49C11.8599 11.47 11.9199 11.51 11.9499 11.52L11.9299 11.6H11.9399Z" fill="#910000"/>
<path d="M12.0599 11.69C12.0899 11.63 12.1099 11.64 12.1499 11.64C12.1599 11.64 12.1699 11.63 12.1599 11.62C12.1599 11.64 12.0999 11.62 12.0699 11.62C12.0099 11.64 12.0199 11.75 11.9999 11.77C12.0299 11.79 12.0399 11.71 12.0499 11.69H12.0599Z" fill="#FF3A3A"/>
<path d="M10.33 12.27L9.97998 12.88H14.03L13.68 12.27H10.34H10.33Z" fill="white"/>
<path d="M10.21 12.76C10.15 12.76 10.1 12.76 10.04 12.77L10.02 12.8L10.27 12.77C10.39 12.77 10.49 12.8 10.62 12.8H10.78C10.9 12.8 11.01 12.77 11.13 12.77C11.25 12.77 11.35 12.8 11.48 12.8H11.64C11.76 12.8 11.87 12.77 11.99 12.77C12.11 12.77 12.21 12.8 12.34 12.8H12.5C12.62 12.8 12.73 12.77 12.85 12.77C12.97 12.77 13.07 12.8 13.2 12.8H13.36C13.48 12.8 13.59 12.77 13.71 12.77C13.8 12.77 13.89 12.79 13.98 12.8L13.96 12.77H13.8C13.75 12.76 13.69 12.76 13.64 12.76C13.52 12.76 13.41 12.79 13.29 12.79C13.17 12.79 13.07 12.76 12.94 12.76C12.89 12.76 12.83 12.76 12.78 12.76C12.66 12.76 12.55 12.79 12.43 12.79C12.31 12.79 12.21 12.76 12.08 12.76C12.03 12.76 11.97 12.76 11.92 12.76C11.8 12.76 11.69 12.79 11.57 12.79C11.45 12.79 11.35 12.76 11.22 12.76C11.17 12.76 11.11 12.76 11.06 12.76C10.94 12.76 10.83 12.79 10.71 12.79C10.59 12.79 10.49 12.76 10.36 12.76C10.31 12.76 10.25 12.76 10.2 12.76H10.21Z" fill="url(#paint2_linear_161_13652)"/>
<path d="M10.21 12.72C10.15 12.72 10.1 12.72 10.04 12.73L10.02 12.76L10.27 12.73C10.39 12.73 10.49 12.76 10.62 12.76H10.78C10.9 12.76 11.01 12.73 11.13 12.73C11.25 12.73 11.35 12.76 11.48 12.76H11.64C11.76 12.76 11.87 12.73 11.99 12.73C12.11 12.73 12.21 12.76 12.34 12.76H12.5C12.62 12.76 12.73 12.73 12.85 12.73C12.97 12.73 13.07 12.76 13.2 12.76H13.36C13.48 12.76 13.59 12.73 13.71 12.73C13.8 12.73 13.89 12.75 13.98 12.76L13.96 12.73H13.8C13.75 12.72 13.69 12.72 13.64 12.72C13.52 12.72 13.41 12.75 13.29 12.75C13.17 12.75 13.07 12.72 12.94 12.72C12.89 12.72 12.83 12.72 12.78 12.72C12.66 12.72 12.55 12.75 12.43 12.75C12.31 12.75 12.21 12.72 12.08 12.72C12.03 12.72 11.97 12.72 11.92 12.72C11.8 12.72 11.69 12.75 11.57 12.75C11.45 12.75 11.35 12.72 11.22 12.72C11.17 12.72 11.11 12.72 11.06 12.72C10.94 12.72 10.83 12.75 10.71 12.75C10.59 12.75 10.49 12.72 10.36 12.72C10.31 12.72 10.25 12.72 10.2 12.72H10.21Z" fill="url(#paint3_linear_161_13652)"/>
<path d="M10.21 12.68C10.15 12.68 10.1 12.68 10.04 12.69L10.02 12.72L10.27 12.69C10.39 12.69 10.49 12.72 10.62 12.72H10.78C10.9 12.72 11.01 12.69 11.13 12.69C11.25 12.69 11.35 12.72 11.48 12.72H11.64C11.76 12.72 11.87 12.69 11.99 12.69C12.11 12.69 12.21 12.72 12.34 12.72H12.5C12.62 12.72 12.73 12.69 12.85 12.69C12.97 12.69 13.07 12.72 13.2 12.72H13.36C13.48 12.72 13.59 12.69 13.71 12.69C13.8 12.69 13.89 12.71 13.98 12.72L13.96 12.69H13.8C13.75 12.68 13.69 12.68 13.64 12.68C13.52 12.68 13.41 12.71 13.29 12.71C13.17 12.71 13.07 12.68 12.94 12.68C12.89 12.68 12.83 12.68 12.78 12.68C12.66 12.68 12.55 12.71 12.43 12.71C12.31 12.71 12.21 12.68 12.08 12.68C12.03 12.68 11.97 12.68 11.92 12.68C11.8 12.68 11.69 12.71 11.57 12.71C11.45 12.71 11.35 12.68 11.22 12.68C11.17 12.68 11.11 12.68 11.06 12.68C10.94 12.68 10.83 12.71 10.71 12.71C10.59 12.71 10.49 12.68 10.36 12.68C10.31 12.68 10.25 12.68 10.2 12.68H10.21Z" fill="url(#paint4_linear_161_13652)"/>
<path d="M10.21 12.64C10.15 12.64 10.1 12.64 10.04 12.65L10.02 12.68L10.27 12.65C10.39 12.65 10.49 12.68 10.62 12.68H10.78C10.9 12.68 11.01 12.65 11.13 12.65C11.25 12.65 11.35 12.68 11.48 12.68H11.64C11.76 12.68 11.87 12.65 11.99 12.65C12.11 12.65 12.21 12.68 12.34 12.68H12.5C12.62 12.68 12.73 12.65 12.85 12.65C12.97 12.65 13.07 12.68 13.2 12.68H13.36C13.48 12.68 13.59 12.65 13.71 12.65C13.8 12.65 13.89 12.67 13.98 12.68L13.96 12.65H13.8C13.75 12.64 13.69 12.64 13.64 12.64C13.52 12.64 13.41 12.67 13.29 12.67C13.17 12.67 13.07 12.64 12.94 12.64C12.89 12.64 12.83 12.64 12.78 12.64C12.66 12.64 12.55 12.67 12.43 12.67C12.31 12.67 12.21 12.64 12.08 12.64C12.03 12.64 11.97 12.64 11.92 12.64C11.8 12.64 11.69 12.67 11.57 12.67C11.45 12.67 11.35 12.64 11.22 12.64C11.17 12.64 11.11 12.64 11.06 12.64C10.94 12.64 10.83 12.67 10.71 12.67C10.59 12.67 10.49 12.64 10.36 12.64C10.31 12.64 10.25 12.64 10.2 12.64H10.21Z" fill="url(#paint5_linear_161_13652)"/>
<path d="M10.21 12.6C10.15 12.6 10.1 12.6 10.04 12.61L10.02 12.64L10.27 12.61C10.39 12.61 10.49 12.64 10.62 12.64H10.78C10.9 12.64 11.01 12.61 11.13 12.61C11.25 12.61 11.35 12.64 11.48 12.64H11.64C11.76 12.64 11.87 12.61 11.99 12.61C12.11 12.61 12.21 12.64 12.34 12.64H12.5C12.62 12.64 12.73 12.61 12.85 12.61C12.97 12.61 13.07 12.64 13.2 12.64H13.36C13.48 12.64 13.59 12.61 13.71 12.61C13.8 12.61 13.89 12.63 13.98 12.64L13.96 12.61H13.8C13.75 12.6 13.69 12.6 13.64 12.6C13.52 12.6 13.41 12.63 13.29 12.63C13.17 12.63 13.07 12.6 12.94 12.6C12.89 12.6 12.83 12.6 12.78 12.6C12.66 12.6 12.55 12.63 12.43 12.63C12.31 12.63 12.21 12.6 12.08 12.6C12.03 12.6 11.97 12.6 11.92 12.6C11.8 12.6 11.69 12.63 11.57 12.63C11.45 12.63 11.35 12.6 11.22 12.6C11.17 12.6 11.11 12.6 11.06 12.6C10.94 12.6 10.83 12.63 10.71 12.63C10.59 12.63 10.49 12.6 10.36 12.6C10.31 12.6 10.25 12.6 10.2 12.6H10.21Z" fill="url(#paint6_linear_161_13652)"/>
<path d="M10.21 12.56C10.15 12.56 10.1 12.56 10.04 12.57L10.02 12.6L10.27 12.57C10.39 12.57 10.49 12.6 10.62 12.6H10.78C10.9 12.6 11.01 12.57 11.13 12.57C11.25 12.57 11.35 12.6 11.48 12.6H11.64C11.76 12.6 11.87 12.57 11.99 12.57C12.11 12.57 12.21 12.6 12.34 12.6H12.5C12.62 12.6 12.73 12.57 12.85 12.57C12.97 12.57 13.07 12.6 13.2 12.6H13.36C13.48 12.6 13.59 12.57 13.71 12.57C13.8 12.57 13.89 12.59 13.98 12.6L13.96 12.57H13.8C13.75 12.56 13.69 12.56 13.64 12.56C13.52 12.56 13.41 12.59 13.29 12.59C13.17 12.59 13.07 12.56 12.94 12.56C12.89 12.56 12.83 12.56 12.78 12.56C12.66 12.56 12.55 12.59 12.43 12.59C12.31 12.59 12.21 12.56 12.08 12.56C12.03 12.56 11.97 12.56 11.92 12.56C11.8 12.56 11.69 12.59 11.57 12.59C11.45 12.59 11.35 12.56 11.22 12.56C11.17 12.56 11.11 12.56 11.06 12.56C10.94 12.56 10.83 12.59 10.71 12.59C10.59 12.59 10.49 12.56 10.36 12.56C10.31 12.56 10.25 12.56 10.2 12.56H10.21Z" fill="url(#paint7_linear_161_13652)"/>
<path d="M10.21 12.52C10.15 12.52 10.1 12.52 10.04 12.53L10.02 12.56L10.27 12.53C10.39 12.53 10.49 12.56 10.62 12.56H10.78C10.9 12.56 11.01 12.53 11.13 12.53C11.25 12.53 11.35 12.56 11.48 12.56H11.64C11.76 12.56 11.87 12.53 11.99 12.53C12.11 12.53 12.21 12.56 12.34 12.56H12.5C12.62 12.56 12.73 12.53 12.85 12.53C12.97 12.53 13.07 12.56 13.2 12.56H13.36C13.48 12.56 13.59 12.53 13.71 12.53C13.8 12.53 13.89 12.55 13.98 12.56L13.96 12.53H13.8C13.75 12.52 13.69 12.52 13.64 12.52C13.52 12.52 13.41 12.55 13.29 12.55C13.17 12.55 13.07 12.52 12.94 12.52C12.89 12.52 12.83 12.52 12.78 12.52C12.66 12.52 12.55 12.55 12.43 12.55C12.31 12.55 12.21 12.52 12.08 12.52C12.03 12.52 11.97 12.52 11.92 12.52C11.8 12.52 11.69 12.55 11.57 12.55C11.45 12.55 11.35 12.52 11.22 12.52C11.17 12.52 11.11 12.52 11.06 12.52C10.94 12.52 10.83 12.55 10.71 12.55C10.59 12.55 10.49 12.52 10.36 12.52C10.31 12.52 10.25 12.52 10.2 12.52H10.21Z" fill="url(#paint8_linear_161_13652)"/>
<path d="M10.21 12.48C10.15 12.48 10.1 12.48 10.04 12.49L10.02 12.52L10.27 12.49C10.39 12.49 10.49 12.52 10.62 12.52H10.78C10.9 12.52 11.01 12.49 11.13 12.49C11.25 12.49 11.35 12.52 11.48 12.52H11.64C11.76 12.52 11.87 12.49 11.99 12.49C12.11 12.49 12.21 12.52 12.34 12.52H12.5C12.62 12.52 12.73 12.49 12.85 12.49C12.97 12.49 13.07 12.52 13.2 12.52H13.36C13.48 12.52 13.59 12.49 13.71 12.49C13.8 12.49 13.89 12.51 13.98 12.52L13.96 12.49H13.8C13.75 12.48 13.69 12.48 13.64 12.48C13.52 12.48 13.41 12.51 13.29 12.51C13.17 12.51 13.07 12.48 12.94 12.48C12.89 12.48 12.83 12.48 12.78 12.48C12.66 12.48 12.55 12.51 12.43 12.51C12.31 12.51 12.21 12.48 12.08 12.48C12.03 12.48 11.97 12.48 11.92 12.48C11.8 12.48 11.69 12.51 11.57 12.51C11.45 12.51 11.35 12.48 11.22 12.48C11.17 12.48 11.11 12.48 11.06 12.48C10.94 12.48 10.83 12.51 10.71 12.51C10.59 12.51 10.49 12.48 10.36 12.48C10.31 12.48 10.25 12.48 10.2 12.48H10.21Z" fill="url(#paint9_linear_161_13652)"/>
<path d="M10.21 12.44C10.15 12.44 10.1 12.44 10.04 12.45L10.02 12.48L10.27 12.45C10.39 12.45 10.49 12.48 10.62 12.48H10.78C10.9 12.48 11.01 12.45 11.13 12.45C11.25 12.45 11.35 12.48 11.48 12.48H11.64C11.76 12.48 11.87 12.45 11.99 12.45C12.11 12.45 12.21 12.48 12.34 12.48H12.5C12.62 12.48 12.73 12.45 12.85 12.45C12.97 12.45 13.07 12.48 13.2 12.48H13.36C13.48 12.48 13.59 12.45 13.71 12.45C13.8 12.45 13.89 12.47 13.98 12.48L13.96 12.45H13.8C13.75 12.44 13.69 12.44 13.64 12.44C13.52 12.44 13.41 12.47 13.29 12.47C13.17 12.47 13.07 12.44 12.94 12.44C12.89 12.44 12.83 12.44 12.78 12.44C12.66 12.44 12.55 12.47 12.43 12.47C12.31 12.47 12.21 12.44 12.08 12.44C12.03 12.44 11.97 12.44 11.92 12.44C11.8 12.44 11.69 12.47 11.57 12.47C11.45 12.47 11.35 12.44 11.22 12.44C11.17 12.44 11.11 12.44 11.06 12.44C10.94 12.44 10.83 12.47 10.71 12.47C10.59 12.47 10.49 12.44 10.36 12.44C10.31 12.44 10.25 12.44 10.2 12.44H10.21Z" fill="url(#paint10_linear_161_13652)"/>
<path d="M10.33 12.27H13.67H10.34H10.33ZM10.33 12.28H13.69H10.34H10.33ZM10.32 12.29L13.7 12.3L10.34 12.29H10.32ZM10.31 12.31V12.33H13.71V12.31H10.31ZM10.29 12.34V12.36H13.71V12.34H10.29ZM10.28 12.36V12.38H13.73V12.36H10.28ZM10.26 12.39V12.41H13.74V12.39H10.26ZM10.25 12.41V12.43H13.76V12.41H10.25ZM10.48 12.44C10.6 12.46 10.61 12.44 10.61 12.44H10.48ZM13.38 12.44C13.38 12.44 13.39 12.46 13.51 12.44H13.38Z" fill="url(#paint11_linear_161_13652)"/>
<path d="M13.09 11.89C13.03 11.89 13.01 11.92 13.01 11.92C12.91 12.3 12.59 12.68 12.2 12.68H11.91V13.06H14.1L13.88 12.67C13.53 12.62 13.25 12.26 13.16 11.92C13.16 11.92 13.14 11.89 13.08 11.89H13.09Z" fill="url(#paint12_linear_161_13652)"/>
<path d="M13.09 11.91C13.09 11.91 13.05 11.91 13.04 11.92C13.04 11.92 13.03 11.92 13.03 11.93C12.98 12.12 12.87 12.31 12.73 12.45C12.59 12.6 12.41 12.69 12.21 12.69H11.94V13.04H14.11L13.91 12.68C13.74 12.66 13.59 12.57 13.47 12.44C13.33 12.3 13.22 12.11 13.17 11.92C13.17 11.92 13.17 11.92 13.16 11.91C13.15 11.91 13.13 11.9 13.11 11.9L13.09 11.91Z" fill="#97C924"/>
<path d="M13.0899 11.91C13.0899 11.91 13.0899 11.91 13.0999 11.91V12.29C13.0999 12.37 13.0699 12.44 13.0299 12.52C13.0099 12.58 12.9899 12.55 12.9499 12.62C12.8799 12.64 12.8399 12.65 12.7699 12.66C12.6799 12.67 12.4799 12.69 12.3799 12.66C12.5099 12.62 12.6299 12.54 12.7299 12.44C12.7599 12.41 12.7799 12.38 12.8099 12.35C12.8499 12.3 12.8899 12.25 12.9199 12.19C12.9299 12.17 12.9399 12.15 12.9599 12.12C12.9799 12.09 12.9899 12.05 12.9999 12.02C12.9999 12.01 12.9999 12 13.0099 11.98C13.0099 11.96 13.0199 11.93 13.0299 11.91C13.0299 11.91 13.0299 11.91 13.0399 11.9C13.0399 11.9 13.0499 11.9 13.0599 11.9C13.0599 11.9 13.0799 11.9 13.0899 11.9V11.91Z" fill="#EDE71F"/>
<path d="M13.0699 11.96C13.0599 12.18 12.9899 12.43 12.8299 12.59C12.7699 12.64 12.6999 12.68 12.6299 12.67C12.8699 12.47 13.0199 12.17 13.0699 11.95V11.96Z" fill="#C6CB24"/>
<path d="M12.87 12.33C12.83 12.43 12.7 12.57 12.55 12.69C12.51 12.69 12.49 12.69 12.45 12.69C12.54 12.69 12.74 12.51 12.86 12.33H12.87Z" fill="#9ECB34"/>
<path d="M12.5399 11.89C12.4799 11.89 12.4599 11.92 12.4599 11.92C12.3599 12.3 12.0399 12.68 11.6499 12.68H11.3599V13.06H13.5499L13.3299 12.67C12.9799 12.62 12.6999 12.26 12.6099 11.92C12.6099 11.92 12.5899 11.89 12.5299 11.89H12.5399Z" fill="url(#paint13_linear_161_13652)"/>
<path d="M12.54 11.91C12.54 11.91 12.5 11.91 12.49 11.92C12.49 11.92 12.48 11.92 12.48 11.93C12.43 12.12 12.32 12.31 12.18 12.45C12.04 12.6 11.86 12.69 11.66 12.69H11.39V13.04H13.56L13.36 12.68C13.19 12.66 13.04 12.57 12.92 12.44C12.78 12.3 12.67 12.11 12.62 11.92C12.62 11.92 12.62 11.92 12.61 11.91C12.6 11.91 12.58 11.9 12.56 11.9L12.54 11.91Z" fill="#97C924"/>
<path d="M12.5399 11.91C12.5399 11.91 12.5399 11.91 12.5499 11.91V12.29C12.5499 12.37 12.5199 12.44 12.4799 12.52C12.4599 12.58 12.4399 12.55 12.3999 12.62C12.3299 12.64 12.2899 12.65 12.2199 12.66C12.1299 12.67 11.9299 12.69 11.8299 12.66C11.9599 12.62 12.0799 12.54 12.1799 12.44C12.2099 12.41 12.2299 12.38 12.2599 12.35C12.2999 12.3 12.3399 12.25 12.3699 12.19C12.3799 12.17 12.3899 12.15 12.4099 12.12C12.4299 12.09 12.4399 12.05 12.4499 12.02C12.4499 12.01 12.4499 12 12.4599 11.98C12.4599 11.96 12.4699 11.93 12.4799 11.91C12.4799 11.91 12.4799 11.91 12.4899 11.9C12.4899 11.9 12.4999 11.9 12.5099 11.9C12.5099 11.9 12.5299 11.9 12.5399 11.9V11.91Z" fill="#EDE71F"/>
<path d="M12.5199 11.96C12.5099 12.18 12.4399 12.43 12.2799 12.59C12.2199 12.64 12.1499 12.68 12.0799 12.67C12.3199 12.47 12.4699 12.17 12.5199 11.95V11.96Z" fill="#C6CB24"/>
<path d="M12.3299 12.33C12.2899 12.43 12.1599 12.57 12.0099 12.69C11.9699 12.69 11.9499 12.69 11.9099 12.69C11.9999 12.69 12.1999 12.51 12.3199 12.33H12.3299Z" fill="#9ECB34"/>
<path d="M12.0799 11.93C12.1799 12.31 12.4999 12.69 12.8799 12.69H13.1699V13.07H10.8199V12.69H11.1099C11.4899 12.69 11.8199 12.31 11.9199 11.93C11.9199 11.93 11.9399 11.9 11.9999 11.9C12.0599 11.9 12.0799 11.93 12.0799 11.93Z" fill="url(#paint14_linear_161_13652)"/>
<path d="M12 11.91C12 11.91 12.04 11.91 12.05 11.92H12.06C12.11 12.11 12.21 12.3 12.36 12.44C12.5 12.59 12.68 12.68 12.88 12.68H13.15V13.03H10.83V12.68H11.1C11.3 12.68 11.48 12.58 11.62 12.44C11.76 12.3 11.87 12.11 11.92 11.92C11.92 11.92 11.92 11.92 11.93 11.91C11.93 11.91 11.96 11.9 11.98 11.9L12 11.91Z" fill="#97C924"/>
<path d="M11.97 11.91C11.97 11.91 11.96 11.91 11.95 11.91C11.95 11.91 11.94 11.91 11.94 11.92L11.92 11.99V12.03L11.86 12.13C11.85 12.15 11.84 12.18 11.82 12.2C11.79 12.26 11.75 12.31 11.71 12.36C11.69 12.39 11.66 12.42 11.63 12.45C11.53 12.55 11.41 12.63 11.28 12.67C11.38 12.69 11.42 12.67 11.51 12.65C11.58 12.64 11.66 12.63 11.73 12.61C11.78 12.54 11.76 12.56 11.78 12.51C11.82 12.43 11.88 12.36 11.9 12.27C11.96 12.16 11.97 11.96 11.97 11.91Z" fill="#EDE71F"/>
<path d="M11.97 11.96C11.96 12.18 11.89 12.43 11.73 12.59C11.67 12.64 11.6 12.68 11.53 12.67C11.77 12.47 11.92 12.17 11.97 11.95V11.96Z" fill="#C6CB24"/>
<path d="M11.7799 12.33C11.7399 12.43 11.6099 12.57 11.4599 12.69C11.4199 12.69 11.3999 12.69 11.3599 12.69C11.4499 12.69 11.6499 12.51 11.7699 12.33H11.7799Z" fill="#9ECB34"/>
<path d="M12.03 11.91C12.03 11.91 12.04 11.91 12.05 11.91C12.05 11.91 12.06 11.91 12.06 11.92L12.08 11.99V12.03L12.14 12.13L12.18 12.2C12.21 12.26 12.25 12.31 12.29 12.36C12.31 12.39 12.34 12.42 12.37 12.45C12.47 12.55 12.59 12.64 12.72 12.68C12.46 12.68 12.35 12.66 12.26 12.54C12.17 12.42 12.13 12.37 12.11 12.29C12.09 12.21 12.04 12.06 12.04 11.9L12.03 11.91Z" fill="#EDE71F"/>
<path d="M12.0499 11.96C12.0599 12.18 12.1299 12.39 12.2799 12.55C12.3399 12.6 12.4099 12.64 12.4799 12.63C12.2199 12.45 12.0899 12.18 12.0399 11.96H12.0499Z" fill="#C6CB24"/>
<path d="M11.4599 11.89C11.3999 11.89 11.3799 11.92 11.3799 11.92C11.2899 12.27 10.9599 12.72 10.6099 12.77L10.4399 13.07H12.1899V12.67C11.8799 12.59 11.6199 12.26 11.5399 11.93C11.5399 11.93 11.5199 11.9 11.4599 11.9V11.89Z" fill="url(#paint15_linear_161_13652)"/>
<path d="M11.46 11.91C11.46 11.91 11.42 11.91 11.41 11.92H11.4C11.35 12.11 11.23 12.3 11.11 12.45C10.99 12.6 10.76 12.76 10.61 12.77L10.46 13.03H12.17V12.65C12.04 12.61 11.93 12.53 11.83 12.43C11.69 12.29 11.58 12.1 11.53 11.91C11.53 11.91 11.53 11.91 11.52 11.9C11.52 11.9 11.49 11.89 11.47 11.89L11.46 11.91Z" fill="#97C924"/>
<path d="M11.4099 11.96C11.3899 12.28 11.2099 12.69 11.0099 12.76C10.9399 12.78 10.8299 12.79 10.7899 12.8C11.1399 12.63 11.3499 12.24 11.4199 11.97L11.4099 11.96Z" fill="#93BC30"/>
<path d="M11.46 11.91C11.46 11.91 11.46 11.91 11.45 11.91V12.29C11.45 12.37 11.48 12.44 11.52 12.52C11.52 12.52 11.52 12.53 11.52 12.54C11.53 12.58 11.55 12.59 11.6 12.63C11.78 12.76 12 12.79 12.13 12.77C12.09 12.74 12.05 12.71 12.01 12.68C12.07 12.68 12.13 12.68 12.17 12.66C12.04 12.62 11.92 12.54 11.82 12.44C11.8 12.42 11.79 12.4 11.77 12.38L11.75 12.35C11.75 12.35 11.67 12.24 11.64 12.19C11.63 12.17 11.62 12.15 11.6 12.12C11.58 12.07 11.56 12.03 11.54 11.98C11.54 11.96 11.53 11.93 11.52 11.91C11.52 11.91 11.52 11.91 11.51 11.9C11.51 11.9 11.5 11.9 11.49 11.9C11.49 11.9 11.47 11.9 11.46 11.9V11.91Z" fill="#EDE71F"/>
<path d="M11.4799 11.96C11.4899 12.18 11.5599 12.43 11.7199 12.59C11.7799 12.64 11.8499 12.68 11.9199 12.67C11.6799 12.47 11.5299 12.17 11.4799 11.95V11.96Z" fill="#CCD11E"/>
<path d="M11.6299 12.26C11.7099 12.47 11.9299 12.66 12.1499 12.79C12.1899 12.79 12.1999 12.79 12.2399 12.79C12.0799 12.71 11.8299 12.58 11.6299 12.26Z" fill="#9ECB34"/>
<path d="M10.91 11.89C10.85 11.89 10.83 11.92 10.83 11.92C10.74 12.27 10.41 12.72 10.06 12.77L9.88995 13.07H11.64V12.67C11.33 12.59 11.07 12.26 10.99 11.93C10.99 11.93 10.97 11.9 10.91 11.9V11.89Z" fill="url(#paint16_linear_161_13652)"/>
<path d="M10.91 11.91C10.91 11.91 10.87 11.91 10.86 11.92H10.85C10.8 12.11 10.68 12.3 10.56 12.45C10.44 12.6 10.21 12.76 10.06 12.77L9.90997 13.03H11.62V12.65C11.49 12.61 11.38 12.53 11.28 12.43C11.14 12.29 11.03 12.1 10.98 11.91C10.98 11.91 10.98 11.91 10.97 11.9C10.97 11.9 10.94 11.89 10.92 11.89L10.91 11.91Z" fill="#97C924"/>
<path d="M10.8599 11.96C10.8399 12.28 10.6599 12.69 10.4599 12.76C10.3899 12.78 10.2799 12.79 10.2399 12.8C10.5899 12.63 10.7999 12.24 10.8699 11.97L10.8599 11.96Z" fill="#93BC30"/>
<path d="M10.91 11.91C10.91 11.91 10.91 11.91 10.9 11.91V12.29C10.9 12.37 10.93 12.44 10.97 12.52C10.97 12.52 10.97 12.53 10.97 12.54C10.98 12.58 11 12.59 11.05 12.63C11.23 12.76 11.45 12.79 11.58 12.77C11.54 12.74 11.5 12.71 11.46 12.68C11.52 12.68 11.58 12.68 11.62 12.66C11.49 12.62 11.37 12.54 11.27 12.44C11.25 12.42 11.24 12.4 11.22 12.38L11.2 12.35C11.2 12.35 11.12 12.24 11.09 12.19C11.08 12.17 11.07 12.15 11.05 12.12C11.03 12.07 11.01 12.03 10.99 11.98C10.99 11.96 10.98 11.93 10.97 11.91C10.97 11.91 10.97 11.91 10.96 11.9C10.96 11.9 10.95 11.9 10.94 11.9C10.94 11.9 10.92 11.9 10.91 11.9V11.91Z" fill="#EDE71F"/>
<path d="M10.9299 11.96C10.9399 12.18 11.0099 12.43 11.1699 12.59C11.2299 12.64 11.2999 12.68 11.3699 12.67C11.1299 12.47 10.9799 12.17 10.9299 11.95V11.96Z" fill="#C6CB24"/>
<path d="M11.08 12.26C11.16 12.47 11.38 12.66 11.6 12.79C11.64 12.79 11.65 12.79 11.69 12.79C11.53 12.71 11.28 12.58 11.08 12.26Z" fill="#9ECB34"/>
<path d="M14.01 12.88C14.01 12.88 13.85 12.88 13.78 12.88H13.73C13.73 12.88 13.65 12.89 13.61 12.89C13.48 12.89 13.37 12.92 13.25 12.92C13.13 12.92 13.02 12.89 12.89 12.89C12.85 12.89 12.81 12.89 12.77 12.89C12.64 12.89 12.53 12.92 12.41 12.92C12.29 12.92 12.18 12.89 12.05 12.89C12.01 12.89 11.97 12.89 11.93 12.89C11.8 12.89 11.69 12.92 11.57 12.92C11.45 12.92 11.34 12.89 11.21 12.89C11.21 12.89 11.19 12.89 11.18 12.89H11.16C11.16 12.89 11.16 12.89 11.15 12.89C11.15 12.89 11.15 12.89 11.14 12.89C11.14 12.89 11.13 12.89 11.12 12.89H11.09C10.96 12.89 10.85 12.92 10.73 12.92C10.61 12.92 10.5 12.89 10.37 12.89C10.37 12.89 10.35 12.89 10.34 12.89C10.34 12.89 10.33 12.89 10.32 12.89C10.32 12.89 10.32 12.89 10.31 12.89C10.31 12.89 10.31 12.89 10.3 12.89C10.3 12.89 10.29 12.89 10.28 12.89H10.25C10.15 12.89 10.03 12.91 9.92996 12.92L9.70996 13.31H11.95H14.24L13.98 12.88H14.01Z" fill="white"/>
<path d="M13.71 12.82H13.69C13.57 12.82 13.49 12.86 13.29 12.86C13.09 12.86 13.07 12.82 12.84 12.83C12.63 12.83 12.54 12.87 12.42 12.87C12.3 12.87 12.12 12.85 11.97 12.87C11.82 12.89 11.66 12.92 11.54 12.92C11.4 12.92 11.26 12.89 11.12 12.91C10.98 12.93 10.91 12.96 10.73 12.96C10.57 12.96 10.41 12.94 10.28 12.94C10.16 12.94 10.02 12.97 9.91995 12.99L9.88995 13.04C9.96995 13.04 10.19 13 10.27 12.99C10.35 12.99 10.65 13.01 10.82 13C10.99 12.99 11 12.96 11.2 12.96C11.34 12.96 11.44 12.97 11.58 12.97C11.67 12.97 11.75 12.93 11.88 12.93H11.98C12.09 12.91 12.28 12.93 12.41 12.93C12.53 12.93 12.6 12.91 12.73 12.9H12.89C13.01 12.9 13.12 12.92 13.23 12.92C13.35 12.92 13.46 12.89 13.58 12.88H13.74C13.82 12.88 13.95 12.88 14.03 12.89L14 12.84C13.92 12.84 13.81 12.82 13.71 12.82Z" fill="url(#paint17_linear_161_13652)"/>
<path d="M10.23 13.24C10.11 13.24 9.99999 13.27 9.88999 13.27C9.84999 13.27 9.80999 13.27 9.75999 13.26L9.73999 13.29H9.78999H9.94999C10.07 13.29 10.18 13.26 10.29 13.26C10.41 13.26 10.51 13.29 10.63 13.29H10.79C10.91 13.29 11.02 13.26 11.13 13.26C11.25 13.26 11.35 13.29 11.48 13.29H11.64C11.76 13.29 11.87 13.26 11.98 13.26C12.1 13.26 12.2 13.29 12.32 13.29H12.48C12.6 13.29 12.71 13.26 12.82 13.26C12.94 13.26 13.04 13.29 13.16 13.29H13.32C13.44 13.29 13.55 13.26 13.66 13.26C13.78 13.26 13.88 13.29 14 13.29H14.22L14.2 13.26H14.08C13.96 13.26 13.86 13.24 13.74 13.24C13.69 13.24 13.63 13.24 13.58 13.24C13.46 13.24 13.35 13.27 13.24 13.27C13.12 13.27 13.02 13.24 12.9 13.24C12.85 13.24 12.79 13.24 12.74 13.24C12.62 13.24 12.51 13.27 12.4 13.27C12.28 13.27 12.18 13.24 12.06 13.24C12.01 13.24 11.95 13.24 11.9 13.24C11.78 13.24 11.67 13.27 11.56 13.27C11.44 13.27 11.34 13.24 11.22 13.24C11.17 13.24 11.11 13.24 11.06 13.24C10.94 13.24 10.83 13.27 10.72 13.27C10.6 13.27 10.5 13.24 10.38 13.24C10.33 13.24 10.27 13.24 10.22 13.24H10.23Z" fill="url(#paint18_linear_161_13652)"/>
<path d="M10.23 13.19C10.11 13.19 9.99999 13.22 9.88999 13.22C9.84999 13.22 9.80999 13.22 9.75999 13.21L9.73999 13.24H9.78999H9.94999C10.07 13.24 10.18 13.21 10.29 13.21C10.41 13.21 10.51 13.24 10.63 13.24H10.79C10.91 13.24 11.02 13.21 11.13 13.21C11.25 13.21 11.35 13.24 11.48 13.24H11.64C11.76 13.24 11.87 13.21 11.98 13.21C12.1 13.21 12.2 13.24 12.32 13.24H12.48C12.6 13.24 12.71 13.21 12.82 13.21C12.94 13.21 13.04 13.24 13.16 13.24H13.32C13.44 13.24 13.55 13.21 13.66 13.21C13.78 13.21 13.88 13.24 14 13.24H14.22L14.2 13.21H14.08C13.96 13.21 13.86 13.19 13.74 13.19C13.69 13.19 13.63 13.19 13.58 13.19C13.46 13.19 13.35 13.22 13.24 13.22C13.12 13.22 13.02 13.19 12.9 13.19C12.85 13.19 12.79 13.19 12.74 13.19C12.62 13.19 12.51 13.22 12.4 13.22C12.28 13.22 12.18 13.19 12.06 13.19C12.01 13.19 11.95 13.19 11.9 13.19C11.78 13.19 11.67 13.22 11.56 13.22C11.44 13.22 11.34 13.19 11.22 13.19C11.17 13.19 11.11 13.19 11.06 13.19C10.94 13.19 10.83 13.22 10.72 13.22C10.6 13.22 10.5 13.19 10.38 13.19C10.33 13.19 10.27 13.19 10.22 13.19H10.23Z" fill="url(#paint19_linear_161_13652)"/>
<path d="M10.23 13.15C10.11 13.15 9.99999 13.18 9.88999 13.18C9.84999 13.18 9.80999 13.18 9.75999 13.17L9.73999 13.2H9.78999H9.94999C10.07 13.2 10.18 13.17 10.29 13.17C10.41 13.17 10.51 13.2 10.63 13.2H10.79C10.91 13.2 11.02 13.17 11.13 13.17C11.25 13.17 11.35 13.2 11.48 13.2H11.64C11.76 13.2 11.87 13.17 11.98 13.17C12.1 13.17 12.2 13.2 12.32 13.2H12.48C12.6 13.2 12.71 13.17 12.82 13.17C12.94 13.17 13.04 13.2 13.16 13.2H13.32C13.44 13.2 13.55 13.17 13.66 13.17C13.78 13.17 13.88 13.2 14 13.2H14.22L14.2 13.17H14.08C13.96 13.17 13.86 13.15 13.74 13.15C13.69 13.15 13.63 13.15 13.58 13.15C13.46 13.15 13.35 13.18 13.24 13.18C13.12 13.18 13.02 13.15 12.9 13.15C12.85 13.15 12.79 13.15 12.74 13.15C12.62 13.15 12.51 13.18 12.4 13.18C12.28 13.18 12.18 13.15 12.06 13.15C12.01 13.15 11.95 13.15 11.9 13.15C11.78 13.15 11.67 13.18 11.56 13.18C11.44 13.18 11.34 13.15 11.22 13.15C11.17 13.15 11.11 13.15 11.06 13.15C10.94 13.15 10.83 13.18 10.72 13.18C10.6 13.18 10.5 13.15 10.38 13.15C10.33 13.15 10.27 13.15 10.22 13.15H10.23Z" fill="url(#paint20_linear_161_13652)"/>
<path d="M10.23 13.1C10.11 13.1 9.99999 13.13 9.88999 13.13C9.84999 13.13 9.80999 13.13 9.75999 13.12L9.73999 13.15H9.78999H9.94999C10.07 13.15 10.18 13.12 10.29 13.12C10.41 13.12 10.51 13.15 10.63 13.15H10.79C10.91 13.15 11.02 13.12 11.13 13.12C11.25 13.12 11.35 13.15 11.48 13.15H11.64C11.76 13.15 11.87 13.12 11.98 13.12C12.1 13.12 12.2 13.15 12.32 13.15H12.48C12.6 13.15 12.71 13.12 12.82 13.12C12.94 13.12 13.04 13.15 13.16 13.15H13.32C13.44 13.15 13.55 13.12 13.66 13.12C13.78 13.12 13.88 13.15 14 13.15H14.22L14.2 13.12H14.08C13.96 13.12 13.86 13.1 13.74 13.1C13.69 13.1 13.63 13.1 13.58 13.1C13.46 13.1 13.35 13.13 13.24 13.13C13.12 13.13 13.02 13.1 12.9 13.1C12.85 13.1 12.79 13.1 12.74 13.1C12.62 13.1 12.51 13.13 12.4 13.13C12.28 13.13 12.18 13.1 12.06 13.1C12.01 13.1 11.95 13.1 11.9 13.1C11.78 13.1 11.67 13.13 11.56 13.13C11.44 13.13 11.34 13.1 11.22 13.1C11.17 13.1 11.11 13.1 11.06 13.1C10.94 13.1 10.83 13.13 10.72 13.13C10.6 13.13 10.5 13.1 10.38 13.1C10.33 13.1 10.27 13.1 10.22 13.1H10.23Z" fill="url(#paint21_linear_161_13652)"/>
<path d="M10.23 13.05C10.11 13.05 9.99999 13.08 9.88999 13.08C9.84999 13.08 9.80999 13.08 9.75999 13.07L9.73999 13.1H9.78999H9.94999C10.07 13.1 10.18 13.07 10.29 13.07C10.41 13.07 10.51 13.1 10.63 13.1H10.79C10.91 13.1 11.02 13.07 11.13 13.07C11.25 13.07 11.35 13.1 11.48 13.1H11.64C11.76 13.1 11.87 13.07 11.98 13.07C12.1 13.07 12.2 13.1 12.32 13.1H12.48C12.6 13.1 12.71 13.07 12.82 13.07C12.94 13.07 13.04 13.1 13.16 13.1H13.32C13.44 13.1 13.55 13.07 13.66 13.07C13.78 13.07 13.88 13.1 14 13.1H14.22L14.2 13.07H14.08C13.96 13.07 13.86 13.05 13.74 13.05C13.69 13.05 13.63 13.05 13.58 13.05C13.46 13.05 13.35 13.08 13.24 13.08C13.12 13.08 13.02 13.05 12.9 13.05C12.85 13.05 12.79 13.05 12.74 13.05C12.62 13.05 12.51 13.08 12.4 13.08C12.28 13.08 12.18 13.05 12.06 13.05C12.01 13.05 11.95 13.05 11.9 13.05C11.78 13.05 11.67 13.08 11.56 13.08C11.44 13.08 11.34 13.05 11.22 13.05C11.17 13.05 11.11 13.05 11.06 13.05C10.94 13.05 10.83 13.08 10.72 13.08C10.6 13.08 10.5 13.05 10.38 13.05C10.33 13.05 10.27 13.05 10.22 13.05H10.23Z" fill="url(#paint22_linear_161_13652)"/>
<path d="M10.23 13.01C10.11 13.01 9.99999 13.04 9.88999 13.04C9.84999 13.04 9.80999 13.04 9.75999 13.03L9.73999 13.06H9.78999H9.94999C10.07 13.06 10.18 13.03 10.29 13.03C10.41 13.03 10.51 13.06 10.63 13.06H10.79C10.91 13.06 11.02 13.03 11.13 13.03C11.25 13.03 11.35 13.06 11.48 13.06H11.64C11.76 13.06 11.87 13.03 11.98 13.03C12.1 13.03 12.2 13.06 12.32 13.06H12.48C12.6 13.06 12.71 13.03 12.82 13.03C12.94 13.03 13.04 13.06 13.16 13.06H13.32C13.44 13.06 13.55 13.03 13.66 13.03C13.78 13.03 13.88 13.06 14 13.06H14.22L14.2 13.03H14.08C13.96 13.03 13.86 13.01 13.74 13.01C13.69 13.01 13.63 13.01 13.58 13.01C13.46 13.01 13.35 13.04 13.24 13.04C13.12 13.04 13.02 13.01 12.9 13.01C12.85 13.01 12.79 13.01 12.74 13.01C12.62 13.01 12.51 13.04 12.4 13.04C12.28 13.04 12.18 13.01 12.06 13.01C12.01 13.01 11.95 13.01 11.9 13.01C11.78 13.01 11.67 13.04 11.56 13.04C11.44 13.04 11.34 13.01 11.22 13.01C11.17 13.01 11.11 13.01 11.06 13.01C10.94 13.01 10.83 13.04 10.72 13.04C10.6 13.04 10.5 13.01 10.38 13.01C10.33 13.01 10.27 13.01 10.22 13.01H10.23Z" fill="url(#paint23_linear_161_13652)"/>
<path d="M10.23 12.96C10.11 12.96 9.99999 12.99 9.88999 12.99C9.84999 12.99 9.80999 12.99 9.75999 12.98L9.73999 13.01H9.78999H9.94999C10.07 13.01 10.18 12.98 10.29 12.98C10.41 12.98 10.51 13.01 10.63 13.01H10.79C10.91 13.01 11.02 12.98 11.13 12.98C11.25 12.98 11.35 13.01 11.48 13.01H11.64C11.76 13.01 11.87 12.98 11.98 12.98C12.1 12.98 12.2 13.01 12.32 13.01H12.48C12.6 13.01 12.71 12.98 12.82 12.98C12.94 12.98 13.04 13.01 13.16 13.01H13.32C13.44 13.01 13.55 12.98 13.66 12.98C13.78 12.98 13.88 13.01 14 13.01H14.22L14.2 12.98H14.08C13.96 12.98 13.86 12.96 13.74 12.96C13.69 12.96 13.63 12.96 13.58 12.96C13.46 12.96 13.35 12.99 13.24 12.99C13.12 12.99 13.02 12.96 12.9 12.96C12.85 12.96 12.79 12.96 12.74 12.96C12.62 12.96 12.51 12.99 12.4 12.99C12.28 12.99 12.18 12.96 12.06 12.96C12.01 12.96 11.95 12.96 11.9 12.96C11.78 12.96 11.67 12.99 11.56 12.99C11.44 12.99 11.34 12.96 11.22 12.96C11.17 12.96 11.11 12.96 11.06 12.96C10.94 12.96 10.83 12.99 10.72 12.99C10.6 12.99 10.5 12.96 10.38 12.96C10.33 12.96 10.27 12.96 10.22 12.96H10.23Z" fill="url(#paint24_linear_161_13652)"/>
<path d="M10.23 12.92C10.11 12.92 9.99999 12.95 9.88999 12.95C9.84999 12.95 9.80999 12.95 9.75999 12.94L9.73999 12.97H9.78999H9.94999C10.07 12.97 10.18 12.94 10.29 12.94C10.41 12.94 10.51 12.97 10.63 12.97H10.79C10.91 12.97 11.02 12.94 11.13 12.94C11.25 12.94 11.35 12.97 11.48 12.97H11.64C11.76 12.97 11.87 12.94 11.98 12.94C12.1 12.94 12.2 12.97 12.32 12.97H12.48C12.6 12.97 12.71 12.94 12.82 12.94C12.94 12.94 13.04 12.97 13.16 12.97H13.32C13.44 12.97 13.55 12.94 13.66 12.94C13.78 12.94 13.88 12.97 14 12.97H14.22L14.2 12.94H14.08C13.96 12.94 13.86 12.92 13.74 12.92C13.69 12.92 13.63 12.92 13.58 12.92C13.46 12.92 13.35 12.95 13.24 12.95C13.12 12.95 13.02 12.92 12.9 12.92C12.85 12.92 12.79 12.92 12.74 12.92C12.62 12.92 12.51 12.95 12.4 12.95C12.28 12.95 12.18 12.92 12.06 12.92C12.01 12.92 11.95 12.92 11.9 12.92C11.78 12.92 11.67 12.95 11.56 12.95C11.44 12.95 11.34 12.92 11.22 12.92C11.17 12.92 11.11 12.92 11.06 12.92C10.94 12.92 10.83 12.95 10.72 12.95C10.6 12.95 10.5 12.92 10.38 12.92C10.33 12.92 10.27 12.92 10.22 12.92H10.23Z" fill="url(#paint25_linear_161_13652)"/>
<path d="M10.23 12.87C10.11 12.87 9.99999 12.9 9.88999 12.9C9.84999 12.9 9.80999 12.9 9.75999 12.89L9.73999 12.92H9.78999H9.94999C10.07 12.92 10.18 12.89 10.29 12.89C10.41 12.89 10.51 12.92 10.63 12.92H10.79C10.91 12.92 11.02 12.89 11.13 12.89C11.25 12.89 11.35 12.92 11.48 12.92H11.64C11.76 12.92 11.87 12.89 11.98 12.89C12.1 12.89 12.2 12.92 12.32 12.92H12.48C12.6 12.92 12.71 12.89 12.82 12.89C12.94 12.89 13.04 12.92 13.16 12.92H13.32C13.44 12.92 13.55 12.89 13.66 12.89C13.78 12.89 13.88 12.92 14 12.92H14.22L14.2 12.89H14.08C13.96 12.89 13.86 12.87 13.74 12.87C13.69 12.87 13.63 12.87 13.58 12.87C13.46 12.87 13.35 12.9 13.24 12.9C13.12 12.9 13.02 12.87 12.9 12.87C12.85 12.87 12.79 12.87 12.74 12.87C12.62 12.87 12.51 12.9 12.4 12.9C12.28 12.9 12.18 12.87 12.06 12.87C12.01 12.87 11.95 12.87 11.9 12.87C11.78 12.87 11.67 12.9 11.56 12.9C11.44 12.9 11.34 12.87 11.22 12.87C11.17 12.87 11.11 12.87 11.06 12.87C10.94 12.87 10.83 12.9 10.72 12.9C10.6 12.9 10.5 12.87 10.38 12.87C10.33 12.87 10.27 12.87 10.22 12.87H10.23Z" fill="url(#paint26_linear_161_13652)"/>
<path d="M9.99997 12.88L9.90997 13.03C10.01 13.01 10.16 12.97 10.29 12.97C10.42 12.97 10.58 13 10.73 13C10.91 13 10.98 12.96 11.12 12.95C11.26 12.94 11.41 12.97 11.54 12.97C11.65 12.97 11.82 12.93 11.97 12.92C12.12 12.91 12.25 12.93 12.42 12.93C12.59 12.93 12.62 12.89 12.83 12.88C13.06 12.88 13.08 12.91 13.28 12.91C13.43 12.91 13.56 12.88 13.7 12.87C13.84 12.86 13.9 12.87 14 12.87L13.93 12.75L10.32 12.83L9.98997 12.87L9.99997 12.88Z" fill="#97C924"/>
<path d="M13.78 12.88H13.92C13.92 12.88 13.99 12.9 14.03 12.9V12.88C14.03 12.88 13.86 12.88 13.79 12.88H13.78Z" fill="white"/>
</g>
<path d="M12 9.31999L10.85 11.3L9.67999 13.33H11.97H14.31L13.16 11.35L11.99 9.31999H12ZM12 9.42999L13.12 11.38L14.22 13.28H11.97H9.76999L10.89 11.33L11.99 9.42999H12Z" fill="#C8A400"/>
</g>
</g>
<defs>
<linearGradient id="paint0_linear_161_13652" x1="11.9799" y1="11.62" x2="12.0499" y2="11.42" gradientUnits="userSpaceOnUse">
<stop stop-color="#510000"/>
<stop offset="0.3" stop-color="#8A0000"/>
<stop offset="1" stop-color="#AA0000"/>
</linearGradient>
<linearGradient id="paint1_linear_161_13652" x1="11.9799" y1="11.66" x2="12.0299" y2="11.53" gradientUnits="userSpaceOnUse">
<stop stop-color="#FF2A2A"/>
<stop offset="1" stop-color="#FF0000"/>
</linearGradient>
<linearGradient id="paint2_linear_161_13652" x1="10.02" y1="12.79" x2="16.79" y2="12.79" gradientUnits="userSpaceOnUse">
<stop stop-color="#002255"/>
<stop offset="0.5" stop-color="#0044AA"/>
<stop offset="1" stop-color="#002255"/>
</linearGradient>
<linearGradient id="paint3_linear_161_13652" x1="-3.95486e-05" y1="12.75" x2="0.99996" y2="12.75" gradientUnits="userSpaceOnUse">
<stop stop-color="#002255"/>
<stop offset="0.5" stop-color="#0044AA"/>
<stop offset="1" stop-color="#002255"/>
</linearGradient>
<linearGradient id="paint4_linear_161_13652" x1="-3.95486e-05" y1="12.71" x2="0.99996" y2="12.71" gradientUnits="userSpaceOnUse">
<stop stop-color="#002255"/>
<stop offset="0.5" stop-color="#0044AA"/>
<stop offset="1" stop-color="#002255"/>
</linearGradient>
<linearGradient id="paint5_linear_161_13652" x1="-3.95486e-05" y1="12.67" x2="0.99996" y2="12.67" gradientUnits="userSpaceOnUse">
<stop stop-color="#002255"/>
<stop offset="0.5" stop-color="#0044AA"/>
<stop offset="1" stop-color="#002255"/>
</linearGradient>
<linearGradient id="paint6_linear_161_13652" x1="-3.95486e-05" y1="12.62" x2="0.99996" y2="12.62" gradientUnits="userSpaceOnUse">
<stop stop-color="#002255"/>
<stop offset="0.5" stop-color="#0044AA"/>
<stop offset="1" stop-color="#002255"/>
</linearGradient>
<linearGradient id="paint7_linear_161_13652" x1="-3.95486e-05" y1="12.59" x2="0.99996" y2="12.59" gradientUnits="userSpaceOnUse">
<stop stop-color="#002255"/>
<stop offset="0.5" stop-color="#0044AA"/>
<stop offset="1" stop-color="#002255"/>
</linearGradient>
<linearGradient id="paint8_linear_161_13652" x1="-3.95486e-05" y1="12.55" x2="0.99996" y2="12.55" gradientUnits="userSpaceOnUse">
<stop stop-color="#002255"/>
<stop offset="0.5" stop-color="#0044AA"/>
<stop offset="1" stop-color="#002255"/>
</linearGradient>
<linearGradient id="paint9_linear_161_13652" x1="-3.95486e-05" y1="12.51" x2="0.99996" y2="12.51" gradientUnits="userSpaceOnUse">
<stop stop-color="#002255"/>
<stop offset="0.5" stop-color="#0044AA"/>
<stop offset="1" stop-color="#002255"/>
</linearGradient>
<linearGradient id="paint10_linear_161_13652" x1="-3.95486e-05" y1="12.47" x2="0.99996" y2="12.47" gradientUnits="userSpaceOnUse">
<stop stop-color="#002255"/>
<stop offset="0.5" stop-color="#0044AA"/>
<stop offset="1" stop-color="#002255"/>
</linearGradient>
<linearGradient id="paint11_linear_161_13652" x1="-9.77739e-07" y1="12.36" x2="16.79" y2="12.36" gradientUnits="userSpaceOnUse">
<stop stop-color="#002255"/>
<stop offset="0.5" stop-color="#0044AA"/>
<stop offset="1" stop-color="#002255"/>
</linearGradient>
<linearGradient id="paint12_linear_161_13652" x1="13.01" y1="12.42" x2="13.01" y2="12.63" gradientUnits="userSpaceOnUse">
<stop stop-color="#F5F549"/>
<stop offset="1" stop-color="#97C924"/>
</linearGradient>
<linearGradient id="paint13_linear_161_13652" x1="12.4699" y1="-1304.64" x2="12.4699" y2="-1304.64" gradientUnits="userSpaceOnUse">
<stop stop-color="#F5F549"/>
<stop offset="1" stop-color="#97C924"/>
</linearGradient>
<linearGradient id="paint14_linear_161_13652" x1="11.9999" y1="12.42" x2="11.9999" y2="12.63" gradientUnits="userSpaceOnUse">
<stop stop-color="#F5F549"/>
<stop offset="1" stop-color="#97C924"/>
</linearGradient>
<linearGradient id="paint15_linear_161_13652" x1="11.3099" y1="-1304.64" x2="11.3099" y2="-1304.64" gradientUnits="userSpaceOnUse">
<stop stop-color="#F5F549"/>
<stop offset="1" stop-color="#97C924"/>
</linearGradient>
<linearGradient id="paint16_linear_161_13652" x1="10.76" y1="-1304.64" x2="10.76" y2="-1304.64" gradientUnits="userSpaceOnUse">
<stop stop-color="#F5F549"/>
<stop offset="1" stop-color="#97C924"/>
</linearGradient>
<linearGradient id="paint17_linear_161_13652" x1="-5.82004" y1="12.93" x2="29.82" y2="12.93" gradientUnits="userSpaceOnUse">
<stop stop-color="#002255"/>
<stop offset="0.5" stop-color="#0044AA"/>
<stop offset="1" stop-color="#002255"/>
</linearGradient>
<linearGradient id="paint18_linear_161_13652" x1="-5.82001" y1="13.27" x2="29.82" y2="13.27" gradientUnits="userSpaceOnUse">
<stop stop-color="#002255"/>
<stop offset="0.5" stop-color="#0044AA"/>
<stop offset="1" stop-color="#002255"/>
</linearGradient>
<linearGradient id="paint19_linear_161_13652" x1="-5.82001" y1="13.22" x2="29.82" y2="13.22" gradientUnits="userSpaceOnUse">
<stop stop-color="#002255"/>
<stop offset="0.5" stop-color="#0044AA"/>
<stop offset="1" stop-color="#002255"/>
</linearGradient>
<linearGradient id="paint20_linear_161_13652" x1="-5.82001" y1="13.17" x2="29.82" y2="13.17" gradientUnits="userSpaceOnUse">
<stop stop-color="#002255"/>
<stop offset="0.5" stop-color="#0044AA"/>
<stop offset="1" stop-color="#002255"/>
</linearGradient>
<linearGradient id="paint21_linear_161_13652" x1="-5.82001" y1="13.12" x2="29.82" y2="13.12" gradientUnits="userSpaceOnUse">
<stop stop-color="#002255"/>
<stop offset="0.5" stop-color="#0044AA"/>
<stop offset="1" stop-color="#002255"/>
</linearGradient>
<linearGradient id="paint22_linear_161_13652" x1="-5.82001" y1="13.08" x2="29.82" y2="13.08" gradientUnits="userSpaceOnUse">
<stop stop-color="#002255"/>
<stop offset="0.5" stop-color="#0044AA"/>
<stop offset="1" stop-color="#002255"/>
</linearGradient>
<linearGradient id="paint23_linear_161_13652" x1="-5.82001" y1="13.04" x2="29.82" y2="13.04" gradientUnits="userSpaceOnUse">
<stop stop-color="#002255"/>
<stop offset="0.5" stop-color="#0044AA"/>
<stop offset="1" stop-color="#002255"/>
</linearGradient>
<linearGradient id="paint24_linear_161_13652" x1="-5.82001" y1="12.99" x2="29.82" y2="12.99" gradientUnits="userSpaceOnUse">
<stop stop-color="#002255"/>
<stop offset="0.5" stop-color="#0044AA"/>
<stop offset="1" stop-color="#002255"/>
</linearGradient>
<linearGradient id="paint25_linear_161_13652" x1="-5.82001" y1="12.94" x2="29.82" y2="12.94" gradientUnits="userSpaceOnUse">
<stop stop-color="#002255"/>
<stop offset="0.5" stop-color="#0044AA"/>
<stop offset="1" stop-color="#002255"/>
</linearGradient>
<linearGradient id="paint26_linear_161_13652" x1="-5.82001" y1="12.9" x2="29.82" y2="12.9" gradientUnits="userSpaceOnUse">
<stop stop-color="#002255"/>
<stop offset="0.5" stop-color="#0044AA"/>
<stop offset="1" stop-color="#002255"/>
</linearGradient>
<clipPath id="clip0_161_13652">
<rect width="24" height="24" fill="white"/>
</clipPath>
</defs>
</svg>
