<svg width="24" height="24" viewBox="0 0 24 24" fill="none" xmlns="http://www.w3.org/2000/svg">
<g clip-path="url(#clip0_161_12660)">
<mask id="mask0_161_12660" style="mask-type:luminance" maskUnits="userSpaceOnUse" x="0" y="0" width="24" height="24">
<path d="M12 24C18.6274 24 24 18.6274 24 12C24 5.37258 18.6274 0 12 0C5.37258 0 0 5.37258 0 12C0 18.6274 5.37258 24 12 24Z" fill="white"/>
</mask>
<g mask="url(#mask0_161_12660)">
<path d="M24 0H0V24H24V0Z" fill="#0DB02B"/>
<path d="M24 0H0V16H24V0Z" fill="white"/>
<path d="M24 0H0V8H24V0Z" fill="#E05206"/>
<path d="M12 15.13C13.7286 15.13 15.13 13.7286 15.13 12C15.13 10.2713 13.7286 8.87 12 8.87C10.2713 8.87 8.87 10.2713 8.87 12C8.87 13.7286 10.2713 15.13 12 15.13Z" fill="#E05206"/>
</g>
</g>
<defs>
<clipPath id="clip0_161_12660">
<rect width="24" height="24" fill="white"/>
</clipPath>
</defs>
</svg>
