<svg width="24" height="24" viewBox="0 0 24 24" fill="none" xmlns="http://www.w3.org/2000/svg">
<g clip-path="url(#clip0_161_10713)">
<mask id="mask0_161_10713" style="mask-type:luminance" maskUnits="userSpaceOnUse" x="0" y="0" width="24" height="24">
<path d="M12 24C18.6274 24 24 18.6274 24 12C24 5.37258 18.6274 0 12 0C5.37258 0 0 5.37258 0 12C0 18.6274 5.37258 24 12 24Z" fill="white"/>
</mask>
<g mask="url(#mask0_161_10713)">
<path d="M32.68 0H-3.32001V24H32.68V0Z" fill="white"/>
<path d="M32.68 0H5.67999V24H32.68V0Z" fill="#01411C"/>
<path d="M12.68 16.8C15.331 16.8 17.48 14.651 17.48 12C17.48 9.34903 15.331 7.2 12.68 7.2C10.029 7.2 7.88 9.34903 7.88 12C7.88 14.651 10.029 16.8 12.68 16.8Z" fill="white"/>
<path d="M13.91 15.31C16.3401 15.31 18.31 13.34 18.31 10.91C18.31 8.47994 16.3401 6.50999 13.91 6.50999C11.48 6.50999 9.51001 8.47994 9.51001 10.91C9.51001 13.34 11.48 15.31 13.91 15.31Z" fill="#01411C"/>
<path d="M15.32 10.43L16.45 10.68L15.68 9.80999L16.27 8.80999L15.2 9.27999L14.43 8.40999L14.54 9.56999L13.48 10.03L14.61 10.28L14.73 11.44L15.32 10.43Z" fill="white"/>
</g>
</g>
<defs>
<clipPath id="clip0_161_10713">
<rect width="24" height="24" fill="white"/>
</clipPath>
</defs>
</svg>
