<svg width="24" height="24" viewBox="0 0 24 24" fill="none" xmlns="http://www.w3.org/2000/svg">
<g clip-path="url(#clip0_161_10963)">
<mask id="mask0_161_10963" style="mask-type:luminance" maskUnits="userSpaceOnUse" x="0" y="0" width="24" height="24">
<path d="M12 24C18.6274 24 24 18.6274 24 12C24 5.37258 18.6274 0 12 0C5.37258 0 0 5.37258 0 12C0 18.6274 5.37258 24 12 24Z" fill="white"/>
</mask>
<g mask="url(#mask0_161_10963)">
<path d="M-6.26001 -0.169998H30.25V24.17H-6.26001V-0.169998Z" fill="white"/>
<path d="M-6.26001 16.06H30.25V24.17H-6.26001V16.06Z" fill="#0038A8"/>
<path d="M-6.26001 -0.169998H30.25V7.94H-6.26001V-0.169998Z" fill="#D52B1E"/>
<path d="M15.05 12C15.05 13.69 13.68 15.05 12 15.05C10.32 15.05 8.95001 13.68 8.95001 12C8.95001 10.32 10.32 8.95001 12 8.95001C13.68 8.95001 15.05 10.32 15.05 12Z" fill="white"/>
<path d="M12 15.12C10.28 15.12 8.88 13.72 8.88 12C8.88 10.28 10.28 8.88 12 8.88C13.72 8.88 15.12 10.28 15.12 12C15.12 13.72 13.72 15.12 12 15.12ZM12 9.02C10.35 9.02 9.01 10.36 9.01 12C9.01 13.64 10.35 14.99 12 14.99C13.65 14.99 14.99 13.65 14.99 12C14.99 10.35 13.65 9.02 12 9.02Z" fill="black"/>
<path d="M13.47 11.53C13.4 11.53 13.4 11.61 13.4 11.61C13.4 11.64 13.41 11.7 13.47 11.71C13.53 11.71 13.55 11.65 13.55 11.61C13.55 11.6 13.55 11.53 13.48 11.52" fill="#009B3A"/>
<path d="M13.47 11.73C13.4 11.73 13.38 11.65 13.39 11.61C13.39 11.61 13.39 11.56 13.42 11.54C13.44 11.52 13.46 11.52 13.48 11.52C13.55 11.52 13.57 11.59 13.57 11.62C13.57 11.64 13.57 11.69 13.53 11.71C13.52 11.72 13.5 11.73 13.48 11.73H13.47ZM13.42 11.6C13.42 11.6 13.42 11.6 13.42 11.61C13.42 11.63 13.42 11.69 13.47 11.69C13.48 11.69 13.49 11.69 13.5 11.68C13.52 11.66 13.53 11.63 13.53 11.61C13.53 11.6 13.53 11.54 13.48 11.54C13.46 11.54 13.45 11.54 13.44 11.55C13.43 11.56 13.42 11.58 13.42 11.59V11.6Z" fill="black"/>
<path d="M10.08 13.22L10.05 13.18C10.05 13.18 10.05 13.17 10.03 13.16C10.03 13.16 10.02 13.16 10.01 13.16H9.99C9.98 13.16 9.97 13.17 9.97 13.18C9.97 13.19 9.97 13.2 9.98 13.22L10.01 13.27L10.08 13.23V13.22ZM10.34 13.21L10.01 13.41L9.91 13.24C9.91 13.24 9.88 13.18 9.88 13.16C9.88 13.14 9.88 13.12 9.88 13.1C9.88 13.08 9.9 13.06 9.92 13.05C9.94 13.05 9.95 13.03 9.97 13.03C9.99 13.03 10.01 13.03 10.02 13.04C10.03 13.04 10.04 13.05 10.05 13.07C10.05 13.06 10.05 13.04 10.05 13.04C10.05 13.04 10.05 13.03 10.05 13.01C10.05 13 10.05 12.99 10.06 12.98L10.13 12.87L10.2 12.99L10.13 13.11L10.12 13.14C10.12 13.15 10.12 13.16 10.12 13.17L10.25 13.1L10.31 13.2L10.34 13.21ZM9.76 12.94L9.66 12.64L9.74 12.61L9.8 12.8L9.86 12.78L9.8 12.6L9.88 12.58L9.94 12.76L10.01 12.74L9.95 12.54L10.03 12.51L10.13 12.82L9.76 12.94ZM9.77 12.32V12.29C9.77 12.29 9.76 12.25 9.75 12.24C9.75 12.24 9.73 12.23 9.72 12.23C9.71 12.23 9.7 12.23 9.69 12.25C9.69 12.25 9.68 12.27 9.69 12.3V12.33L9.78 12.32H9.77ZM9.62 12.46L9.6 12.26C9.6 12.26 9.6 12.18 9.62 12.16C9.64 12.14 9.67 12.12 9.7 12.12C9.74 12.12 9.77 12.12 9.79 12.14C9.81 12.16 9.83 12.2 9.84 12.24V12.3L9.99 12.28V12.4L9.62 12.44V12.46ZM9.6 11.71V11.59L9.84 11.61C9.86 11.61 9.88 11.61 9.9 11.63C9.92 11.63 9.94 11.65 9.95 11.67C9.96 11.69 9.97 11.7 9.98 11.72C9.98 11.74 9.98 11.77 9.98 11.8C9.98 11.82 9.98 11.84 9.97 11.86C9.97 11.88 9.96 11.9 9.95 11.91C9.95 11.92 9.93 11.94 9.91 11.95C9.9 11.95 9.88 11.97 9.86 11.97C9.83 11.97 9.81 11.97 9.79 11.97L9.56 11.95V11.83L9.81 11.86C9.83 11.86 9.85 11.86 9.86 11.85C9.87 11.84 9.88 11.82 9.88 11.8C9.88 11.78 9.88 11.76 9.87 11.75C9.86 11.74 9.84 11.73 9.82 11.73L9.59 11.7L9.6 11.71ZM9.99 11.38L10.01 11.32C10.01 11.32 10.01 11.29 10.01 11.27C10.01 11.26 10 11.25 9.99 11.25C9.98 11.25 9.97 11.25 9.96 11.25C9.96 11.25 9.94 11.27 9.94 11.29L9.92 11.35L9.99 11.38ZM9.84 11.33L9.86 11.28C9.86 11.28 9.86 11.25 9.86 11.24C9.86 11.24 9.85 11.22 9.84 11.22C9.84 11.22 9.82 11.22 9.81 11.22C9.81 11.22 9.79 11.24 9.79 11.25L9.77 11.3L9.84 11.32V11.33ZM9.66 11.4L9.73 11.19C9.73 11.19 9.76 11.13 9.79 11.12C9.81 11.11 9.84 11.11 9.86 11.12C9.88 11.12 9.9 11.14 9.91 11.16C9.91 11.17 9.92 11.19 9.92 11.21C9.94 11.19 9.95 11.17 9.97 11.16C9.99 11.16 10.01 11.16 10.03 11.16C10.05 11.16 10.06 11.18 10.08 11.19C10.09 11.2 10.1 11.22 10.1 11.24C10.1 11.25 10.1 11.27 10.1 11.29C10.1 11.32 10.1 11.33 10.09 11.34L10.02 11.53L9.66 11.4ZM9.86 10.9L9.92 10.8L10.17 10.95L10.27 10.79L10.35 10.84L10.19 11.1L9.86 10.9ZM10.11 10.52L10.19 10.43L10.48 10.68L10.4 10.77L10.11 10.52ZM10.65 10.31L10.75 10.27C10.75 10.27 10.77 10.32 10.77 10.35C10.77 10.37 10.77 10.4 10.76 10.42C10.75 10.44 10.73 10.46 10.7 10.49C10.67 10.52 10.64 10.53 10.61 10.54C10.58 10.54 10.55 10.54 10.52 10.54C10.49 10.53 10.45 10.5 10.42 10.47C10.38 10.42 10.36 10.37 10.37 10.32C10.37 10.27 10.4 10.23 10.45 10.19C10.49 10.16 10.52 10.14 10.56 10.14C10.59 10.14 10.63 10.14 10.67 10.17L10.6 10.26C10.6 10.26 10.58 10.25 10.57 10.25C10.56 10.25 10.55 10.25 10.54 10.25C10.53 10.25 10.52 10.25 10.51 10.26C10.49 10.28 10.48 10.3 10.48 10.33C10.48 10.35 10.49 10.37 10.52 10.4C10.55 10.43 10.57 10.45 10.59 10.45C10.61 10.45 10.63 10.45 10.65 10.43C10.67 10.42 10.68 10.4 10.68 10.38C10.68 10.36 10.68 10.34 10.66 10.32M11.04 10.08L10.94 9.98001L10.97 10.12L11.05 10.08H11.04ZM11.1 10.14L10.98 10.2V10.27L10.88 10.33L10.83 9.92001L10.95 9.86001L11.25 10.14L11.14 10.2L11.09 10.15L11.1 10.14ZM11.57 9.74001L11.6 9.95001H11.63C11.63 9.95001 11.67 9.94001 11.68 9.93001C11.68 9.93001 11.7 9.91001 11.7 9.90001C11.7 9.89001 11.7 9.86001 11.7 9.83001C11.7 9.79001 11.68 9.76001 11.67 9.75001C11.65 9.74001 11.63 9.73001 11.6 9.74001H11.57ZM11.44 9.67001L11.62 9.64001C11.62 9.64001 11.68 9.64001 11.71 9.64001C11.73 9.64001 11.75 9.66001 11.77 9.67001C11.79 9.69001 11.8 9.70001 11.81 9.73001C11.82 9.75001 11.83 9.78001 11.83 9.80001C11.83 9.84001 11.83 9.87001 11.83 9.90001C11.83 9.92001 11.81 9.94001 11.8 9.96001C11.79 9.98001 11.77 9.99001 11.75 10C11.73 10.01 11.7 10.02 11.68 10.02L11.5 10.04L11.45 9.66001L11.44 9.67001ZM11.96 9.60001L12.28 9.62001V9.70001L12.07 9.69001V9.75001L12.25 9.76001V9.84001L12.06 9.83001V9.91001L12.26 9.93001V10.02L11.93 10L11.96 9.62001V9.60001ZM12.45 9.64001L12.56 9.67001L12.48 9.95001L12.66 10L12.63 10.09L12.34 10.01L12.45 9.64001ZM13.1 10.07L13.12 10.09C13.12 10.09 13.16 10.11 13.17 10.11C13.18 10.11 13.19 10.11 13.2 10.09C13.2 10.09 13.2 10.07 13.2 10.06C13.2 10.05 13.19 10.04 13.17 10.02L13.14 10L13.09 10.07H13.1ZM13.1 9.87001L13.27 9.98001C13.27 9.98001 13.33 10.03 13.33 10.06C13.33 10.09 13.33 10.12 13.31 10.15C13.29 10.18 13.26 10.2 13.23 10.21C13.2 10.21 13.16 10.21 13.12 10.18L13.07 10.14L12.99 10.26L12.89 10.19L13.1 9.87001ZM13.51 10.46L13.58 10.33L13.45 10.4L13.51 10.46ZM13.47 10.53L13.37 10.43L13.31 10.46L13.22 10.37L13.4 10.29L13.6 10.2L13.69 10.29L13.52 10.67L13.43 10.58L13.46 10.52L13.47 10.53ZM13.83 10.7L13.86 10.74C13.86 10.74 13.86 10.75 13.88 10.76C13.88 10.76 13.89 10.76 13.9 10.76H13.92C13.93 10.76 13.94 10.75 13.94 10.73C13.94 10.73 13.94 10.71 13.92 10.69L13.89 10.65L13.82 10.69L13.83 10.7ZM13.57 10.72L13.9 10.51L14.01 10.68C14.01 10.68 14.04 10.74 14.05 10.76C14.05 10.78 14.05 10.8 14.05 10.82C14.05 10.84 14.03 10.86 14.01 10.87C13.99 10.88 13.97 10.89 13.96 10.89C13.94 10.89 13.92 10.89 13.91 10.88C13.9 10.88 13.89 10.86 13.87 10.85C13.87 10.86 13.87 10.88 13.87 10.88C13.87 10.88 13.87 10.9 13.87 10.91C13.87 10.91 13.87 10.93 13.86 10.94L13.8 11.05L13.73 10.94L13.8 10.82L13.81 10.79C13.81 10.78 13.81 10.77 13.81 10.76L13.68 10.84L13.62 10.74L13.57 10.72ZM14.03 11.24L14.15 11.15H14.01L14.04 11.24H14.03ZM13.96 11.29L13.91 11.16H13.84L13.8 11.05H14.21L14.25 11.18L13.94 11.45L13.9 11.33L13.95 11.29H13.96ZM14.14 11.7H14.22L14.24 11.87L14.08 11.89C14.08 11.89 14.03 11.83 14.02 11.8C14.01 11.77 14 11.74 13.99 11.71C13.99 11.66 13.99 11.63 13.99 11.6C14 11.57 14.02 11.54 14.05 11.52C14.08 11.5 14.11 11.49 14.15 11.48C14.19 11.48 14.23 11.48 14.26 11.49C14.29 11.5 14.32 11.53 14.34 11.56C14.36 11.58 14.37 11.62 14.37 11.66C14.37 11.7 14.37 11.73 14.37 11.76C14.37 11.78 14.36 11.8 14.34 11.82C14.32 11.84 14.3 11.85 14.28 11.86L14.25 11.75C14.25 11.75 14.27 11.73 14.28 11.72C14.28 11.71 14.28 11.69 14.28 11.68C14.28 11.65 14.26 11.63 14.25 11.62C14.23 11.61 14.2 11.6 14.16 11.61C14.12 11.61 14.09 11.63 14.07 11.64C14.05 11.66 14.05 11.68 14.05 11.71C14.05 11.72 14.05 11.74 14.06 11.75C14.06 11.76 14.07 11.77 14.08 11.79H14.12L14.11 11.71L14.14 11.7ZM14.39 12.28V12.4L14.15 12.37C14.13 12.37 14.11 12.37 14.09 12.35C14.07 12.35 14.05 12.33 14.04 12.31C14.03 12.29 14.02 12.28 14.01 12.26C14.01 12.24 14.01 12.21 14.01 12.18C14.01 12.16 14.01 12.14 14.02 12.12C14.02 12.1 14.03 12.08 14.04 12.07C14.05 12.06 14.06 12.04 14.08 12.03C14.1 12.02 14.11 12.01 14.13 12.01C14.16 12.01 14.18 12.01 14.2 12.01L14.43 12.04V12.16L14.18 12.13C14.16 12.13 14.14 12.13 14.13 12.14C14.12 12.15 14.11 12.17 14.11 12.19C14.11 12.21 14.11 12.23 14.12 12.24C14.13 12.25 14.15 12.26 14.17 12.26L14.4 12.29L14.39 12.28ZM14.03 12.72H14.18L14.06 12.64L14.03 12.72ZM13.95 12.72L13.99 12.59L13.94 12.55L13.98 12.43L14.3 12.69L14.26 12.81H13.85L13.89 12.7H13.96L13.95 12.72ZM14.16 13.07L14.09 13.18H13.94L14.01 13.31L13.94 13.42L13.82 13.18L13.68 13.1L13.74 13L13.88 13.08L14.15 13.06L14.16 13.07Z" fill="black"/>
<path d="M12 14.58C10.58 14.58 9.41998 13.42 9.41998 12C9.41998 10.58 10.58 9.42 12 9.42C13.42 9.42 14.58 10.58 14.58 12C14.58 13.42 13.42 14.58 12 14.58ZM12 9.47C10.61 9.47 9.46998 10.6 9.46998 12C9.46998 13.4 10.6 14.53 12 14.53C13.4 14.53 14.53 13.4 14.53 12C14.53 10.61 13.4 9.47 12 9.47Z" fill="black"/>
<path d="M12 13.92C10.94 13.92 10.07 13.05 10.07 11.99C10.07 10.93 10.94 10.06 12 10.06C13.06 10.06 13.93 10.93 13.93 11.99C13.93 13.05 13.06 13.92 12 13.92ZM12 10.12C10.97 10.12 10.13 10.96 10.13 11.99C10.13 13.02 10.97 13.87 12.01 13.87C13.05 13.87 13.88 13.03 13.88 11.99C13.88 11.49 13.69 11.02 13.33 10.66C12.98 10.31 12.51 10.11 12 10.11V10.12Z" fill="black"/>
<path d="M12 11.31L12.16 11.77H12.64L12.25 12.07L12.39 12.53L11.99 12.25L11.59 12.53L11.73 12.07L11.34 11.78H11.82L11.98 11.31H12Z" fill="#FEDF00"/>
<path d="M12.41 12.56L11.99 12.27L11.57 12.56L11.72 12.07L11.32 11.76H11.83L12 11.27L12.17 11.75H12.68L12.28 12.07L12.43 12.56H12.41ZM11.38 11.79L11.75 12.07L11.62 12.51L12 12.25L12.38 12.51L12.25 12.07L12.62 11.79H12.16L12.01 11.34L11.86 11.77H11.4L11.38 11.79Z" fill="black"/>
<path d="M12.87 13.31C12.87 13.31 12.79 13.33 12.77 13.33C12.75 13.33 12.68 13.33 12.66 13.33C12.64 13.33 12.61 13.33 12.6 13.33C12.46 13.31 12.83 13.32 12.87 13.3M12.51 13.2C12.51 13.2 12.56 13.08 12.58 13.05C12.6 13.02 12.63 12.95 12.66 12.91C12.67 12.89 12.72 12.84 12.73 12.87C12.65 12.94 12.59 13.06 12.55 13.14C12.55 13.14 12.52 13.19 12.51 13.21C12.51 13.22 12.51 13.24 12.49 13.25C12.49 13.25 12.5 13.22 12.51 13.2ZM13.04 13.28C13.04 13.28 12.98 13.28 12.94 13.26C12.9 13.25 12.84 13.24 12.78 13.24C12.72 13.24 12.67 13.26 12.63 13.27C12.59 13.29 12.53 13.29 12.53 13.29C12.53 13.29 12.5 13.29 12.51 13.29C12.52 13.29 12.58 13.24 12.58 13.24L12.61 13.19C12.61 13.19 12.79 12.97 12.77 12.91C12.8 12.87 12.83 12.79 12.81 12.78C12.81 12.78 12.68 12.82 12.65 12.84C12.62 12.87 12.6 12.92 12.59 12.96C12.59 12.99 12.53 13.02 12.53 13.02C12.49 13.05 12.46 13.14 12.45 13.21C12.44 13.28 12.26 13.32 12.26 13.32C12.26 13.32 12.21 13.34 12.26 13.35C12.26 13.35 12.29 13.38 12.3 13.39C12.32 13.39 12.43 13.35 12.45 13.35C12.49 13.35 12.52 13.37 12.56 13.38C12.6 13.39 12.64 13.4 12.67 13.39C12.7 13.38 12.74 13.39 12.77 13.39C12.8 13.39 12.84 13.39 12.86 13.39C12.88 13.39 12.94 13.35 12.94 13.35C12.94 13.35 13 13.32 13.04 13.31C13.08 13.29 13.05 13.29 13.05 13.29" fill="#009B3A"/>
<path d="M12.62 13.4C12.62 13.4 12.57 13.4 12.54 13.38C12.5 13.37 12.47 13.36 12.43 13.35C12.43 13.35 12.39 13.36 12.37 13.37C12.33 13.38 12.3 13.39 12.29 13.39C12.28 13.39 12.26 13.37 12.25 13.36C12.25 13.36 12.22 13.36 12.22 13.33C12.22 13.31 12.24 13.3 12.25 13.3C12.3 13.29 12.42 13.25 12.43 13.2C12.43 13.16 12.46 13.04 12.52 13C12.53 13 12.57 12.97 12.57 12.95C12.57 12.94 12.6 12.86 12.64 12.83C12.66 12.82 12.8 12.75 12.82 12.77C12.84 12.8 12.79 12.89 12.78 12.92C12.78 12.94 12.78 12.96 12.75 13.02C12.72 13.08 12.65 13.18 12.62 13.2L12.58 13.25C12.58 13.25 12.56 13.26 12.55 13.27C12.57 13.27 12.6 13.27 12.62 13.25C12.67 13.23 12.72 13.22 12.78 13.21C12.83 13.21 12.9 13.21 12.94 13.23C12.98 13.24 13.04 13.25 13.04 13.25C13.04 13.25 13.06 13.25 13.06 13.27C13.06 13.28 13.05 13.29 13.03 13.3C12.99 13.32 12.93 13.34 12.93 13.34C12.93 13.34 12.87 13.37 12.85 13.38C12.83 13.38 12.79 13.39 12.76 13.38C12.74 13.38 12.69 13.37 12.66 13.38C12.65 13.38 12.64 13.38 12.62 13.38V13.4ZM12.44 13.33C12.48 13.33 12.52 13.35 12.55 13.36C12.58 13.37 12.62 13.38 12.65 13.37C12.68 13.36 12.73 13.37 12.76 13.37C12.79 13.37 12.82 13.37 12.84 13.37C12.86 13.37 12.9 13.34 12.92 13.33C12.92 13.33 12.98 13.3 13.02 13.29C13 13.29 12.96 13.28 12.93 13.27C12.89 13.26 12.83 13.25 12.77 13.25C12.72 13.25 12.67 13.27 12.62 13.28C12.57 13.3 12.51 13.3 12.51 13.3C12.5 13.3 12.48 13.3 12.47 13.3C12.47 13.3 12.47 13.29 12.48 13.28C12.48 13.28 12.52 13.25 12.54 13.24L12.58 13.19C12.58 13.19 12.75 12.97 12.73 12.93V12.92C12.75 12.88 12.77 12.83 12.77 12.81C12.74 12.81 12.65 12.85 12.63 12.87C12.6 12.89 12.58 12.94 12.57 12.98C12.56 13.02 12.51 13.04 12.51 13.05C12.48 13.07 12.45 13.16 12.44 13.23C12.43 13.31 12.26 13.35 12.24 13.35C12.24 13.35 12.25 13.35 12.26 13.37L12.28 13.39C12.28 13.39 12.33 13.38 12.35 13.37C12.39 13.36 12.41 13.35 12.42 13.35L12.44 13.33ZM12.6 13.35C12.6 13.35 12.55 13.35 12.55 13.33C12.55 13.31 12.55 13.31 12.68 13.31C12.75 13.31 12.85 13.31 12.87 13.29V13.31C12.85 13.32 12.82 13.33 12.78 13.34H12.77C12.77 13.34 12.72 13.34 12.69 13.34C12.68 13.34 12.66 13.34 12.65 13.34C12.65 13.34 12.64 13.34 12.63 13.34C12.62 13.34 12.6 13.34 12.59 13.34L12.6 13.35ZM12.49 13.26H12.48C12.48 13.26 12.47 13.25 12.47 13.24V13.23C12.47 13.22 12.48 13.2 12.49 13.19C12.49 13.19 12.5 13.16 12.52 13.14C12.54 13.1 12.56 13.06 12.57 13.05C12.57 13.05 12.58 13.03 12.59 13.01C12.61 12.98 12.63 12.94 12.65 12.91C12.65 12.91 12.69 12.85 12.72 12.85C12.72 12.85 12.74 12.85 12.74 12.86V12.88C12.65 12.96 12.59 13.1 12.57 13.14C12.57 13.14 12.54 13.2 12.53 13.21C12.53 13.21 12.53 13.21 12.53 13.22C12.53 13.22 12.53 13.24 12.51 13.25L12.49 13.26Z" fill="black"/>
<path d="M12.5601 13.49C12.5601 13.49 12.3201 13.36 12.3001 13.36C12.3001 13.36 12.1901 13.3 12.1401 13.29C12.1101 13.28 12.0601 13.28 12.0401 13.28C12.0001 13.28 11.9301 13.3 11.9301 13.3L11.9901 13.32C11.9901 13.32 12.0501 13.35 12.0701 13.36C12.1101 13.38 12.1101 13.41 12.1101 13.41L12.3301 13.51L12.3701 13.54C12.3701 13.54 12.4101 13.48 12.5401 13.49" fill="#009B3A"/>
<path d="M12.39 13.55L12.34 13.51L12.12 13.41C12.12 13.41 12.12 13.38 12.08 13.37C12.05 13.36 12 13.33 12 13.33L11.91 13.29H11.94C11.94 13.29 12.01 13.26 12.05 13.26C12.07 13.26 12.12 13.26 12.15 13.27C12.18 13.27 12.24 13.31 12.27 13.32C12.29 13.32 12.3 13.34 12.31 13.34C12.32 13.34 12.51 13.44 12.57 13.47V13.49C12.45 13.49 12.41 13.53 12.41 13.53L12.39 13.55ZM12.13 13.4L12.35 13.49L12.39 13.52C12.39 13.52 12.44 13.48 12.51 13.48C12.42 13.43 12.31 13.37 12.3 13.37C12.3 13.37 12.3 13.37 12.26 13.35C12.22 13.33 12.17 13.31 12.14 13.3C12.11 13.29 12.06 13.29 12.05 13.29C12.03 13.29 12 13.29 11.98 13.3H12.01C12.01 13.3 12.07 13.34 12.1 13.36C12.13 13.38 12.14 13.4 12.15 13.41L12.13 13.4Z" fill="black"/>
<path d="M12.8 12.98C12.88 12.91 12.91 12.81 12.98 12.76C12.99 12.76 12.99 12.78 12.98 12.8C12.97 12.82 12.95 12.83 12.95 12.84C12.94 12.86 12.9 12.89 12.89 12.91C12.89 12.93 12.87 12.95 12.84 12.97C12.81 12.99 12.82 13.02 12.81 13.03C12.81 13.04 12.76 13.08 12.73 13.13C12.73 13.18 12.73 13.16 12.69 13.17C12.74 13.09 12.77 13.04 12.81 12.97M12.63 13.2C12.63 13.2 12.47 13.3 12.52 13.28C12.57 13.27 12.71 13.22 12.75 13.2C12.8 13.18 12.83 13.13 12.86 13.1C12.9 13.06 13.01 12.95 13.03 12.91C13.05 12.87 13.07 12.81 12.99 12.67C12.99 12.67 12.98 12.7 12.95 12.72C12.92 12.75 12.88 12.77 12.88 12.77L12.83 12.82C12.83 12.82 12.65 13.14 12.63 13.19" fill="#009B3A"/>
<path d="M12.51 13.3C12.51 13.3 12.5 13.3 12.49 13.3C12.49 13.28 12.49 13.28 12.56 13.23C12.58 13.22 12.6 13.2 12.61 13.2C12.64 13.14 12.8 12.84 12.81 12.83L12.86 12.78C12.86 12.78 12.9 12.75 12.93 12.72C12.96 12.7 12.97 12.67 12.97 12.67V12.64L13 12.66C13.08 12.79 13.06 12.86 13.04 12.91C13.02 12.95 12.93 13.04 12.88 13.09L12.86 13.11C12.86 13.11 12.84 13.13 12.83 13.14C12.8 13.17 12.78 13.2 12.74 13.21C12.7 13.23 12.56 13.28 12.51 13.29C12.51 13.29 12.51 13.29 12.5 13.29L12.51 13.3ZM12.64 13.2C12.64 13.2 12.63 13.21 12.58 13.24C12.64 13.22 12.71 13.19 12.73 13.18C12.76 13.17 12.79 13.14 12.81 13.11C12.81 13.1 12.83 13.09 12.84 13.08L12.86 13.06C12.86 13.06 13 12.93 13.01 12.89C13.03 12.85 13.04 12.8 12.98 12.68C12.98 12.68 12.96 12.7 12.95 12.71C12.92 12.74 12.88 12.76 12.88 12.77L12.83 12.81C12.83 12.81 12.65 13.13 12.63 13.18L12.64 13.2ZM12.69 13.19L12.67 13.17C12.72 13.09 12.75 13.04 12.78 12.97C12.78 12.97 12.85 12.89 12.87 12.85C12.9 12.81 12.92 12.77 12.95 12.75C12.97 12.76 12.97 12.78 12.95 12.81C12.95 12.82 12.93 12.83 12.92 12.84C12.92 12.84 12.9 12.86 12.89 12.87C12.88 12.88 12.86 12.9 12.86 12.91C12.85 12.93 12.84 12.96 12.8 12.98C12.78 12.99 12.78 13.01 12.78 13.02V13.03C12.78 13.04 12.77 13.05 12.75 13.07C12.73 13.09 12.71 13.11 12.7 13.13C12.7 13.16 12.7 13.17 12.67 13.18C12.67 13.18 12.67 13.18 12.65 13.18L12.69 13.19ZM12.96 12.8C12.96 12.8 12.96 12.8 12.96 12.81C12.96 12.81 12.96 12.81 12.96 12.8Z" fill="black"/>
<path d="M13.24 13.09H13.14C13.14 13.09 13.08 13.09 13 13.09C12.92 13.09 12.9 13.12 12.88 13.14C12.86 13.16 12.8 13.22 12.8 13.22H12.83C12.91 13.16 12.97 13.18 12.99 13.18C13.02 13.18 13.05 13.18 13.12 13.15C13.2 13.12 13.19 13.15 13.19 13.15C13.15 13.16 13.11 13.17 13.07 13.17C13.01 13.17 12.96 13.18 12.94 13.18C12.92 13.18 12.75 13.23 12.75 13.23C12.75 13.23 12.93 13.24 12.95 13.25C12.97 13.25 13 13.25 13.03 13.25C13.1 13.22 13.13 13.21 13.16 13.2C13.19 13.2 13.22 13.17 13.22 13.17C13.22 13.17 13.24 13.16 13.26 13.13C13.28 13.1 13.25 13.11 13.25 13.11M13.33 12.58C13.33 12.58 13.37 12.48 13.4 12.46C13.42 12.44 13.45 12.44 13.47 12.43C13.47 12.43 13.53 12.43 13.47 12.44C13.44 12.44 13.41 12.46 13.39 12.49C13.37 12.55 13.35 12.61 13.3 12.65C13.27 12.68 13.25 12.73 13.25 12.73H13.22C13.28 12.7 13.31 12.63 13.34 12.58H13.33ZM13.63 12.55L13.58 12.57C13.5 12.59 13.47 12.64 13.43 12.68C13.41 12.7 13.39 12.72 13.3 12.75C13.22 12.78 13.17 12.83 13.16 12.83C13.16 12.83 13.14 12.83 13.14 12.85H13.16C13.16 12.85 13.32 12.83 13.38 12.79C13.42 12.76 13.45 12.74 13.48 12.68C13.5 12.65 13.52 12.6 13.52 12.63C13.52 12.72 13.39 12.8 13.33 12.83C13.3 12.84 13.26 12.85 13.2 12.86C13.15 12.86 13.11 12.86 13.12 12.86C13.12 12.84 13.13 12.84 13.15 12.82C13.18 12.79 13.24 12.78 13.28 12.76C13.33 12.74 13.39 12.7 13.41 12.67C13.44 12.64 13.45 12.63 13.45 12.6C13.47 12.53 13.47 12.49 13.49 12.47C13.56 12.39 13.57 12.36 13.57 12.33C13.57 12.33 13.54 12.35 13.52 12.36C13.48 12.38 13.47 12.38 13.4 12.4C13.33 12.42 13.33 12.47 13.32 12.49C13.32 12.49 13.29 12.54 13.27 12.54C13.26 12.54 13.22 12.6 13.21 12.63C13.21 12.65 13.18 12.67 13.17 12.67C13.16 12.67 13.2 12.51 13.21 12.48C13.22 12.45 13.22 12.4 13.22 12.39C13.22 12.38 13.22 12.33 13.19 12.33C13.16 12.33 13.16 12.29 13.16 12.29C13.09 12.35 13.13 12.45 13.14 12.52C13.14 12.58 13.13 12.69 13.13 12.69C13.2 12.72 13.14 12.8 13.13 12.82C13.11 12.85 13.07 12.85 13.05 12.87C13.03 12.89 12.89 13.09 12.89 13.09L13.06 13.04C13.06 13.04 13.08 13.04 13.06 13.02C13.03 13 13.06 12.93 13.09 12.91C13.13 12.88 13.19 12.91 13.19 12.91C13.19 12.91 13.27 12.92 13.37 12.88C13.45 12.85 13.49 12.8 13.53 12.76C13.55 12.74 13.59 12.67 13.61 12.63C13.62 12.61 13.65 12.56 13.63 12.56" fill="#009B3A"/>
<path d="M12.97 13.25C12.97 13.25 12.95 13.25 12.94 13.25C12.93 13.25 12.82 13.24 12.74 13.23V13.2C12.74 13.2 12.76 13.2 12.78 13.19C12.78 13.19 12.84 13.13 12.86 13.11L12.88 13.08C12.88 13.08 13.02 12.89 13.04 12.86C13.05 12.85 13.07 12.84 13.08 12.83C13.09 12.83 13.11 12.82 13.12 12.8C13.14 12.78 13.16 12.74 13.15 12.71C13.15 12.7 13.14 12.69 13.13 12.69H13.12V12.67C13.12 12.67 13.14 12.56 13.13 12.5C13.13 12.49 13.13 12.48 13.13 12.46C13.12 12.4 13.1 12.31 13.16 12.26L13.18 12.24V12.27C13.18 12.27 13.18 12.3 13.2 12.3C13.24 12.3 13.24 12.36 13.24 12.38C13.24 12.38 13.24 12.45 13.23 12.48C13.23 12.51 13.19 12.61 13.19 12.64C13.19 12.64 13.2 12.63 13.21 12.62C13.22 12.59 13.26 12.54 13.28 12.53C13.29 12.53 13.32 12.49 13.32 12.48C13.32 12.48 13.32 12.47 13.32 12.46C13.32 12.43 13.34 12.39 13.41 12.38C13.43 12.38 13.44 12.38 13.45 12.38C13.49 12.37 13.5 12.37 13.53 12.35C13.53 12.35 13.54 12.35 13.55 12.34C13.57 12.32 13.58 12.32 13.59 12.32V12.33C13.59 12.37 13.57 12.4 13.51 12.48C13.51 12.49 13.5 12.51 13.49 12.54C13.49 12.56 13.49 12.58 13.47 12.6C13.49 12.58 13.52 12.56 13.56 12.55C13.56 12.55 13.58 12.54 13.61 12.53H13.63C13.63 12.53 13.63 12.55 13.6 12.61V12.63C13.6 12.63 13.53 12.73 13.51 12.74C13.51 12.74 13.5 12.76 13.49 12.76C13.46 12.8 13.42 12.84 13.35 12.86C13.25 12.9 13.17 12.89 13.16 12.89C13.16 12.89 13.11 12.87 13.07 12.89C13.06 12.9 13.03 12.94 13.04 12.97C13.04 12.97 13.04 12.97 13.04 12.98C13.05 12.98 13.06 13 13.06 13.01C13.06 13.01 13.06 13.01 13.04 13.01H13C13 13.01 13.08 13.03 13.09 13.03H13.1C13.1 13.03 13.18 13.03 13.2 13.03C13.2 13.03 13.22 13.03 13.23 13.03C13.24 13.04 13.23 13.06 13.23 13.07C13.21 13.1 13.19 13.12 13.19 13.12C13.19 13.12 13.15 13.14 13.12 13.15C13.12 13.15 13.06 13.16 13 13.19C12.98 13.19 12.96 13.2 12.94 13.2L12.97 13.25ZM12.83 13.2C12.88 13.2 12.94 13.2 12.95 13.21C12.97 13.21 12.99 13.21 13.02 13.21C13.09 13.18 13.12 13.17 13.15 13.16C13.15 13.16 13.21 13.14 13.21 13.13C13.21 13.13 13.23 13.12 13.24 13.09C13.2 13.09 13.14 13.09 13.14 13.09C13.14 13.09 13.14 13.09 13.12 13.09C13.1 13.09 13.05 13.09 13 13.09C12.93 13.09 12.9 13.12 12.89 13.13C12.89 13.13 12.87 13.15 12.86 13.16C12.91 13.13 12.95 13.14 12.98 13.14C12.98 13.14 12.99 13.14 13 13.14C13 13.14 13.05 13.14 13.12 13.11C13.18 13.09 13.19 13.1 13.2 13.11C13.2 13.11 13.2 13.12 13.2 13.13C13.2 13.13 13.2 13.14 13.19 13.15C13.15 13.16 13.11 13.17 13.07 13.17C13.04 13.17 13.01 13.17 12.98 13.17C12.96 13.17 12.94 13.17 12.93 13.17C12.93 13.17 12.88 13.18 12.83 13.19V13.2ZM13.16 12.67C13.16 12.67 13.19 12.7 13.19 12.71C13.2 12.75 13.16 12.81 13.15 12.82C13.14 12.84 13.12 12.84 13.1 12.85C13.09 12.85 13.07 12.86 13.07 12.87C13.06 12.89 12.98 13 12.94 13.05L13.06 13.02C13.06 13.02 13.05 13.01 13.05 12.99C13.05 12.96 13.07 12.91 13.1 12.89C13.12 12.88 13.14 12.87 13.15 12.87C13.15 12.87 13.15 12.86 13.15 12.85C13.15 12.83 13.16 12.83 13.17 12.82C13.19 12.8 13.23 12.78 13.26 12.77H13.28C13.29 12.77 13.3 12.76 13.31 12.75C13.31 12.75 13.33 12.75 13.33 12.74C13.37 12.72 13.4 12.69 13.42 12.67C13.45 12.64 13.45 12.63 13.46 12.61C13.46 12.59 13.47 12.56 13.48 12.55C13.48 12.52 13.49 12.5 13.51 12.48C13.56 12.42 13.58 12.39 13.58 12.37L13.56 12.38C13.53 12.4 13.52 12.4 13.47 12.41C13.46 12.41 13.45 12.41 13.43 12.41C13.38 12.42 13.37 12.45 13.36 12.47C13.36 12.47 13.36 12.48 13.36 12.49C13.36 12.5 13.32 12.54 13.31 12.55C13.31 12.55 13.27 12.6 13.25 12.63C13.24 12.66 13.21 12.68 13.2 12.67C13.19 12.64 13.24 12.47 13.24 12.47C13.24 12.45 13.25 12.4 13.25 12.38C13.25 12.37 13.25 12.33 13.23 12.33C13.21 12.33 13.2 12.31 13.2 12.3C13.17 12.34 13.18 12.4 13.2 12.46C13.2 12.47 13.2 12.49 13.2 12.5C13.2 12.55 13.2 12.64 13.19 12.67H13.16ZM13.19 12.88C13.19 12.88 13.27 12.88 13.36 12.85C13.41 12.83 13.44 12.8 13.47 12.77C13.43 12.8 13.38 12.83 13.36 12.84C13.33 12.85 13.29 12.86 13.25 12.87H13.23C13.23 12.87 13.21 12.87 13.19 12.87V12.88ZM13.28 12.78C13.28 12.78 13.21 12.82 13.19 12.83C13.24 12.83 13.34 12.8 13.39 12.77C13.43 12.74 13.45 12.73 13.49 12.67C13.49 12.67 13.5 12.65 13.5 12.64C13.51 12.61 13.52 12.6 13.54 12.6C13.55 12.6 13.55 12.62 13.55 12.62C13.55 12.63 13.55 12.64 13.55 12.66C13.55 12.64 13.57 12.63 13.58 12.61V12.59C13.58 12.59 13.61 12.56 13.61 12.55C13.59 12.55 13.59 12.56 13.59 12.56C13.53 12.58 13.49 12.62 13.46 12.66C13.46 12.66 13.46 12.67 13.45 12.68C13.43 12.7 13.41 12.72 13.34 12.75C13.33 12.75 13.32 12.76 13.31 12.77C13.31 12.77 13.29 12.77 13.28 12.78ZM13.22 12.75V12.73C13.22 12.73 13.28 12.65 13.3 12.61C13.3 12.6 13.31 12.59 13.32 12.58C13.34 12.54 13.37 12.48 13.39 12.45C13.41 12.44 13.43 12.43 13.45 12.42C13.45 12.42 13.46 12.42 13.47 12.42C13.47 12.42 13.5 12.42 13.51 12.42V12.43C13.51 12.43 13.5 12.44 13.47 12.45C13.46 12.45 13.41 12.47 13.4 12.49C13.38 12.55 13.36 12.61 13.31 12.65C13.28 12.68 13.26 12.72 13.26 12.72L13.22 12.74V12.75Z" fill="black"/>
<path d="M13.14 13.01C13.14 13.01 13.16 13.01 13.18 12.98C13.2 12.95 13.18 12.91 13.15 12.91C13.13 12.91 13.11 12.91 13.08 12.95C13.05 13 13.1 13.01 13.12 13.02C13.12 13.02 13.14 13.02 13.15 13.02" fill="#009B3A"/>
<path d="M13.11 13.03C13.09 13.03 13.06 13.02 13.05 13C13.05 12.99 13.05 12.97 13.06 12.94C13.09 12.89 13.12 12.89 13.14 12.89C13.14 12.89 13.18 12.9 13.19 12.92C13.19 12.94 13.19 12.96 13.19 12.98C13.17 13.01 13.16 13.01 13.15 13.02C13.13 13.02 13.12 13.02 13.11 13.02V13.03ZM13.15 12.92C13.15 12.92 13.12 12.92 13.09 12.96C13.09 12.96 13.08 12.98 13.09 12.99C13.09 12.99 13.11 13.01 13.12 13.01H13.14C13.14 13.01 13.14 13.01 13.17 12.98C13.17 12.97 13.17 12.96 13.17 12.95C13.17 12.95 13.16 12.93 13.15 12.93V12.92Z" fill="black"/>
<path d="M13.05 12.71C13.05 12.71 13.01 12.79 13.03 12.81C13.03 12.81 13.05 12.83 13.06 12.83C13.07 12.83 13.11 12.81 13.13 12.78C13.15 12.75 13.17 12.71 13.13 12.69C13.09 12.67 13.06 12.69 13.05 12.72" fill="#009B3A"/>
<path d="M13.07 12.84C13.07 12.84 13.04 12.83 13.03 12.82C13.03 12.82 13.02 12.74 13.04 12.7C13.04 12.7 13.1 12.64 13.14 12.67C13.16 12.67 13.17 12.69 13.17 12.71C13.17 12.73 13.17 12.76 13.15 12.78C13.13 12.82 13.08 12.84 13.06 12.84H13.07ZM13.04 12.79C13.04 12.79 13.05 12.8 13.06 12.8C13.06 12.8 13.1 12.78 13.12 12.76C13.13 12.74 13.14 12.72 13.14 12.71C13.14 12.71 13.14 12.7 13.12 12.69C13.12 12.69 13.08 12.67 13.06 12.71C13.04 12.75 13.03 12.78 13.04 12.79Z" fill="black"/>
<path d="M13.18 12.24C13.18 12.24 13.18 12.24 13.17 12.22C13.15 12.2 13.12 12.15 13.12 12.15C13.07 12.18 13.06 12.23 13.06 12.25C13.06 12.27 13.06 12.32 13.06 12.37C13.06 12.39 13.06 12.4 13.03 12.46C13.01 12.52 13.03 12.57 13.03 12.59C13.03 12.61 13.05 12.67 13.05 12.67L13.07 12.66H13.1C13.1 12.66 13.13 12.61 13.13 12.58C13.13 12.56 13.13 12.52 13.12 12.47C13.11 12.39 13.11 12.37 13.12 12.32C13.12 12.27 13.17 12.24 13.17 12.24" fill="#009B3A"/>
<path d="M13.05 12.69V12.67C13.05 12.67 13.02 12.61 13.02 12.59C13.02 12.57 12.99 12.51 13.02 12.46C13.04 12.4 13.05 12.39 13.05 12.37C13.05 12.34 13.05 12.3 13.05 12.28V12.26C13.05 12.24 13.07 12.18 13.12 12.15H13.13C13.13 12.15 13.16 12.19 13.18 12.22C13.2 12.24 13.2 12.25 13.19 12.26H13.18C13.18 12.26 13.14 12.29 13.13 12.33C13.13 12.37 13.13 12.4 13.13 12.47C13.13 12.52 13.14 12.56 13.14 12.58C13.14 12.61 13.11 12.66 13.11 12.67C13.1 12.67 13.08 12.67 13.08 12.67C13.08 12.67 13.07 12.67 13.06 12.68H13.05V12.69ZM13.11 12.17C13.11 12.17 13.06 12.23 13.06 12.25C13.06 12.25 13.06 12.26 13.06 12.27C13.06 12.3 13.06 12.33 13.06 12.37C13.06 12.39 13.06 12.41 13.03 12.47C13.01 12.51 13.03 12.56 13.03 12.58C13.03 12.58 13.03 12.58 13.03 12.59C13.03 12.6 13.04 12.63 13.05 12.65H13.06C13.06 12.65 13.08 12.65 13.09 12.65C13.09 12.63 13.11 12.6 13.11 12.58C13.11 12.56 13.11 12.53 13.1 12.47C13.09 12.39 13.09 12.36 13.1 12.32C13.1 12.28 13.14 12.25 13.15 12.24C13.13 12.22 13.11 12.2 13.1 12.18L13.11 12.17Z" fill="black"/>
<path d="M13.25 12.32C13.25 12.32 13.28 12.32 13.29 12.29C13.31 12.26 13.3 12.23 13.3 12.23C13.26 12.15 13.2 12.21 13.2 12.21C13.15 12.31 13.24 12.32 13.24 12.32" fill="#009B3A"/>
<path d="M13.25 12.34C13.25 12.34 13.2 12.34 13.19 12.3C13.18 12.28 13.18 12.25 13.19 12.21C13.19 12.21 13.22 12.17 13.26 12.18C13.28 12.18 13.3 12.2 13.32 12.23C13.32 12.23 13.32 12.27 13.31 12.31C13.29 12.34 13.26 12.35 13.26 12.35L13.25 12.34ZM13.22 12.22C13.22 12.22 13.2 12.27 13.22 12.28C13.22 12.3 13.25 12.3 13.26 12.3C13.26 12.3 13.28 12.3 13.29 12.28C13.3 12.26 13.3 12.24 13.3 12.23C13.3 12.21 13.28 12.2 13.27 12.2C13.25 12.2 13.24 12.21 13.23 12.22H13.22Z" fill="black"/>
<path d="M13.4 12.17C13.34 12.17 13.31 12.28 13.31 12.28C13.31 12.28 13.3 12.31 13.27 12.33C13.23 12.35 13.26 12.38 13.26 12.44C13.26 12.5 13.22 12.59 13.22 12.59V12.62C13.22 12.62 13.21 12.65 13.22 12.6C13.26 12.52 13.3 12.54 13.32 12.46C13.33 12.4 13.43 12.38 13.43 12.38H13.4C13.29 12.33 13.4 12.2 13.42 12.18C13.44 12.16 13.46 12.16 13.4 12.16" fill="#009B3A"/>
<path d="M13.2 12.66C13.19 12.66 13.18 12.65 13.18 12.64L13.2 12.6C13.2 12.6 13.24 12.5 13.24 12.45C13.24 12.43 13.24 12.42 13.24 12.41C13.24 12.38 13.24 12.35 13.27 12.33C13.3 12.31 13.31 12.29 13.31 12.29C13.31 12.28 13.35 12.17 13.42 12.16C13.42 12.16 13.47 12.16 13.47 12.17C13.47 12.18 13.47 12.19 13.46 12.2C13.46 12.2 13.46 12.2 13.45 12.21C13.4 12.27 13.38 12.31 13.39 12.34C13.39 12.35 13.4 12.37 13.42 12.37H13.45V12.41C13.43 12.41 13.36 12.44 13.35 12.48C13.34 12.53 13.32 12.55 13.3 12.57C13.28 12.58 13.27 12.6 13.25 12.63C13.25 12.65 13.23 12.67 13.21 12.67L13.2 12.66ZM13.4 12.19C13.4 12.19 13.33 12.27 13.32 12.29C13.32 12.29 13.31 12.32 13.27 12.35C13.26 12.35 13.26 12.37 13.27 12.4C13.27 12.41 13.27 12.43 13.27 12.45C13.27 12.48 13.27 12.52 13.25 12.55C13.25 12.55 13.25 12.55 13.26 12.55C13.28 12.53 13.29 12.52 13.3 12.48C13.3 12.44 13.34 12.42 13.37 12.4C13.35 12.39 13.34 12.37 13.34 12.35C13.33 12.29 13.38 12.23 13.4 12.2V12.19Z" fill="black"/>
<path d="M13.38 12.31C13.35 12.37 13.43 12.37 13.45 12.36L13.47 12.34C13.5 12.29 13.47 12.26 13.46 12.26C13.44 12.26 13.41 12.26 13.38 12.32" fill="#009B3A"/>
<path d="M13.42 12.38C13.42 12.38 13.38 12.38 13.37 12.36C13.37 12.36 13.35 12.33 13.37 12.3C13.4 12.23 13.45 12.23 13.47 12.24C13.48 12.24 13.5 12.26 13.51 12.28C13.51 12.3 13.51 12.32 13.5 12.35C13.5 12.35 13.48 12.37 13.47 12.38C13.47 12.38 13.45 12.38 13.44 12.38H13.42ZM13.44 12.26C13.44 12.26 13.4 12.28 13.39 12.31V12.34C13.4 12.35 13.43 12.35 13.44 12.34C13.44 12.34 13.45 12.33 13.46 12.32C13.47 12.31 13.47 12.29 13.46 12.28C13.46 12.27 13.45 12.26 13.44 12.26C13.44 12.26 13.44 12.26 13.43 12.26H13.44Z" fill="black"/>
<path d="M13.22 12.07C13.22 12.07 13.3 12.22 13.31 12.21V12.18C13.31 12.18 13.31 12.15 13.3 12.11C13.3 12.07 13.3 12.03 13.27 12C13.25 11.97 13.21 11.93 13.19 11.89C13.17 11.84 13.19 11.75 13.19 11.74C13.19 11.73 13.19 11.74 13.19 11.73C13.19 11.72 13.11 11.68 13.11 11.68C13.11 11.68 13.11 11.71 13.11 11.76C13.11 11.77 13.11 11.79 13.11 11.81C13.11 11.83 13.12 11.86 13.15 11.92C13.19 11.99 13.2 12.03 13.22 12.07ZM13.67 11.54C13.67 11.54 13.65 11.58 13.64 11.58C13.64 11.58 13.51 11.69 13.5 11.7C13.5 11.7 13.43 11.73 13.37 11.88C13.31 12.04 13.34 12.18 13.34 12.18H13.37V12.16C13.37 12.16 13.37 12.11 13.39 12.07C13.39 12.03 13.44 11.98 13.47 11.94C13.5 11.9 13.52 11.84 13.52 11.84C13.55 11.77 13.57 11.71 13.6 11.67C13.6 11.72 13.39 12.06 13.37 12.18H13.43C13.48 12.13 13.54 12.03 13.59 11.97C13.63 11.91 13.65 11.81 13.66 11.77C13.66 11.73 13.66 11.54 13.66 11.54" fill="#009B3A"/>
<path d="M13.32 12.23C13.32 12.23 13.28 12.21 13.22 12.08C13.22 12.06 13.2 12.04 13.19 12.02C13.18 12 13.17 11.97 13.15 11.93C13.12 11.87 13.1 11.84 13.11 11.81C13.11 11.8 13.11 11.79 13.11 11.78C13.11 11.78 13.11 11.77 13.11 11.76C13.11 11.71 13.11 11.68 13.11 11.68V11.65L13.13 11.66C13.15 11.67 13.21 11.7 13.22 11.72C13.22 11.72 13.23 11.73 13.22 11.75C13.22 11.81 13.22 11.86 13.22 11.89C13.23 11.92 13.25 11.94 13.27 11.96C13.28 11.97 13.29 11.98 13.3 12C13.31 12.02 13.32 12.05 13.32 12.08C13.32 12.09 13.32 12.11 13.32 12.12V12.14C13.32 12.08 13.32 11.99 13.36 11.88C13.4 11.78 13.44 11.72 13.49 11.69C13.5 11.69 13.62 11.58 13.63 11.57C13.63 11.57 13.65 11.54 13.66 11.53H13.67H13.68C13.68 11.53 13.68 11.72 13.68 11.77C13.68 11.81 13.65 11.91 13.61 11.97L13.59 12C13.55 12.06 13.49 12.14 13.45 12.18L13.36 12.2H13.34C13.34 12.2 13.34 12.21 13.33 12.22L13.32 12.23ZM13.13 11.71C13.13 11.71 13.13 11.74 13.13 11.77C13.13 11.77 13.13 11.78 13.13 11.79C13.13 11.79 13.13 11.81 13.13 11.82C13.13 11.84 13.14 11.87 13.17 11.92C13.19 11.96 13.2 11.98 13.21 12.01C13.22 12.03 13.23 12.05 13.24 12.07C13.28 12.14 13.3 12.17 13.31 12.19C13.31 12.18 13.31 12.16 13.3 12.13C13.3 12.12 13.3 12.1 13.3 12.09C13.3 12.07 13.3 12.04 13.28 12.02C13.28 12.02 13.26 12 13.25 11.99C13.23 11.97 13.21 11.94 13.2 11.91C13.19 11.87 13.2 11.81 13.2 11.76C13.2 11.76 13.17 11.74 13.14 11.72L13.13 11.71ZM13.51 11.72C13.45 11.75 13.41 11.83 13.39 11.89C13.34 12.01 13.35 12.13 13.36 12.17L13.38 12.08C13.38 12.08 13.42 12 13.45 11.96V11.94L13.51 11.85C13.52 11.82 13.53 11.8 13.54 11.78C13.56 11.74 13.57 11.71 13.59 11.68L13.61 11.65V11.69C13.61 11.69 13.57 11.79 13.51 11.91C13.46 12.01 13.4 12.12 13.38 12.18H13.42C13.42 12.18 13.51 12.06 13.55 12L13.57 11.97C13.61 11.91 13.63 11.81 13.64 11.78C13.64 11.75 13.64 11.65 13.64 11.6C13.64 11.6 13.51 11.71 13.5 11.72H13.51Z" fill="black"/>
<path d="M13.2601 11.58L13.2001 11.54C13.2001 11.54 13.2001 11.6 13.2001 11.63C13.2001 11.66 13.2001 11.72 13.2001 11.75C13.2001 11.78 13.1801 11.83 13.2001 11.88C13.2201 11.93 13.2501 11.96 13.2701 11.99C13.2901 12.02 13.3201 12.18 13.3201 12.18C13.3201 12.18 13.3101 11.96 13.3201 11.9C13.3201 11.84 13.3301 11.75 13.3201 11.7C13.3101 11.65 13.2801 11.6 13.2501 11.57M13.4001 11.37C13.4001 11.37 13.4301 11.31 13.4401 11.26C13.4401 11.24 13.4401 11.2 13.4401 11.17C13.4401 11.15 13.4401 11.12 13.4401 11.12C13.4401 11.12 13.4401 11.12 13.4401 11.16C13.4401 11.16 13.4401 11.2 13.4401 11.23C13.4401 11.26 13.4401 11.28 13.4201 11.32C13.4101 11.35 13.4201 11.39 13.4201 11.4C13.4201 11.41 13.3901 11.45 13.3901 11.45C13.3901 11.45 13.3801 11.48 13.3901 11.51C13.3901 11.54 13.3901 11.57 13.3901 11.57C13.3901 11.57 13.4001 11.54 13.4301 11.54C13.4301 11.54 13.4301 11.49 13.4301 11.47C13.4301 11.45 13.4501 11.35 13.4601 11.32C13.4701 11.27 13.4801 11.19 13.4601 11.1C13.4601 11.08 13.4501 11 13.4501 11C13.4501 11 13.4201 11.02 13.4001 11.11C13.4001 11.14 13.4001 11.21 13.4001 11.29C13.4001 11.33 13.3601 11.51 13.3501 11.52" fill="#009B3A"/>
<path d="M13.32 12.19C13.31 12.13 13.29 12.02 13.27 12C13.27 11.99 13.26 11.98 13.25 11.97C13.24 11.95 13.22 11.93 13.2 11.89C13.18 11.85 13.19 11.81 13.2 11.77V11.75C13.2 11.73 13.2 11.7 13.2 11.67C13.2 11.65 13.2 11.64 13.2 11.62C13.2 11.59 13.2 11.53 13.2 11.53V11.51H13.22C13.22 11.51 13.25 11.52 13.28 11.55C13.28 11.55 13.34 11.65 13.35 11.69C13.36 11.74 13.36 11.83 13.35 11.9C13.35 11.96 13.35 12.17 13.35 12.17H13.32V12.19ZM13.22 11.57C13.22 11.57 13.22 11.62 13.22 11.64C13.22 11.65 13.22 11.67 13.22 11.69C13.22 11.72 13.22 11.75 13.22 11.77C13.22 11.77 13.22 11.79 13.22 11.8C13.22 11.83 13.22 11.87 13.22 11.9C13.23 11.93 13.25 11.95 13.26 11.97C13.26 11.98 13.28 11.99 13.28 12C13.28 12 13.29 12.03 13.3 12.05C13.3 12 13.3 11.95 13.3 11.92C13.3 11.86 13.31 11.77 13.3 11.73C13.28 11.67 13.26 11.63 13.24 11.6C13.23 11.59 13.22 11.58 13.21 11.58L13.22 11.57ZM13.38 11.61V11.56C13.38 11.56 13.38 11.54 13.38 11.51H13.36C13.36 11.51 13.38 11.42 13.39 11.36C13.39 11.33 13.4 11.3 13.4 11.29C13.4 11.25 13.4 11.21 13.4 11.18C13.4 11.15 13.4 11.13 13.4 11.11C13.42 11.02 13.45 10.99 13.45 10.99L13.47 10.97V11C13.47 11 13.47 11.08 13.48 11.1C13.51 11.21 13.48 11.3 13.48 11.33C13.47 11.36 13.45 11.46 13.45 11.48C13.45 11.5 13.45 11.54 13.45 11.55L13.44 11.56C13.42 11.56 13.41 11.58 13.41 11.58L13.39 11.62L13.38 11.61ZM13.41 11.44C13.41 11.44 13.4 11.47 13.41 11.49C13.41 11.5 13.41 11.51 13.41 11.52C13.41 11.52 13.42 11.52 13.43 11.52C13.43 11.5 13.43 11.48 13.43 11.47C13.43 11.45 13.45 11.35 13.46 11.32C13.46 11.3 13.48 11.23 13.46 11.13C13.46 11.13 13.46 11.14 13.46 11.16C13.46 11.16 13.46 11.18 13.46 11.19C13.46 11.2 13.46 11.22 13.46 11.23C13.46 11.26 13.46 11.28 13.44 11.32C13.44 11.34 13.44 11.35 13.44 11.37C13.44 11.38 13.44 11.4 13.44 11.4C13.44 11.4 13.42 11.43 13.41 11.45V11.44ZM13.45 11.03C13.45 11.03 13.43 11.07 13.43 11.1C13.43 11.11 13.43 11.13 13.43 11.16C13.43 11.17 13.43 11.19 13.43 11.2C13.43 11.18 13.43 11.16 13.43 11.15C13.43 11.15 13.43 11.14 13.43 11.13C13.43 11.11 13.43 11.09 13.44 11.08C13.44 11.07 13.44 11.04 13.44 11.02L13.45 11.03Z" fill="black"/>
<path d="M13.41 11.38L13.39 11.36H13.41V11.38Z" fill="black"/>
<path d="M13.29 10.92C13.29 10.92 13.31 10.94 13.3 10.95C13.3 10.96 13.3 10.99 13.3 10.99C13.3 10.99 13.3 11.03 13.31 11.05C13.31 11.07 13.33 11.08 13.32 11.12C13.32 11.14 13.29 11.17 13.3 11.22C13.3 11.24 13.32 11.27 13.33 11.28C13.33 11.29 13.33 11.33 13.33 11.35C13.33 11.38 13.34 11.39 13.34 11.39C13.34 11.39 13.32 11.42 13.32 11.39C13.32 11.34 13.32 11.32 13.3 11.3C13.29 11.26 13.27 11.2 13.3 11.15C13.3 11.15 13.3 11.12 13.3 11.1C13.3 11.08 13.29 11.04 13.28 11.02C13.28 11 13.28 10.96 13.28 10.95M13.21 11.16C13.21 11.16 13.22 11.2 13.25 11.26C13.25 11.28 13.28 11.33 13.28 11.34C13.28 11.36 13.28 11.37 13.28 11.38V11.42V11.44C13.28 11.44 13.2 11.39 13.16 11.37C13.12 11.34 13.08 11.31 13.06 11.29C13.03 11.27 12.96 11.18 12.96 11.11L12.93 11.08C12.93 11.08 12.9 11.23 13.02 11.33C13.05 11.36 13.09 11.39 13.17 11.42C13.25 11.46 13.24 11.49 13.27 11.56C13.3 11.63 13.32 11.67 13.33 11.69C13.33 11.71 13.33 12.01 13.33 12.01V12.04C13.33 12.04 13.41 11.76 13.44 11.73C13.44 11.73 13.37 11.72 13.38 11.61V11.54C13.38 11.54 13.35 11.45 13.38 11.4C13.38 11.4 13.41 11.3 13.4 11.22C13.4 11.17 13.4 11.15 13.38 11.1C13.38 11.02 13.34 10.92 13.34 10.9C13.33 10.86 13.33 10.86 13.31 10.83C13.31 10.82 13.3 10.78 13.29 10.78L13.27 10.83C13.27 10.83 13.26 10.88 13.25 10.89C13.25 10.93 13.22 10.96 13.21 11.05C13.21 11.07 13.21 11.11 13.21 11.12C13.21 11.12 13.21 11.15 13.21 11.16Z" fill="#009B3A"/>
<path d="M13.35 12.04H13.32V12.01C13.32 11.89 13.33 11.7 13.32 11.69C13.32 11.68 13.3 11.65 13.28 11.6L13.26 11.56C13.26 11.56 13.25 11.53 13.24 11.51C13.23 11.47 13.22 11.45 13.16 11.42C13.08 11.38 13.04 11.35 13.01 11.32C12.89 11.22 12.91 11.06 12.91 11.06V11.04L12.97 11.09C12.97 11.16 13.04 11.24 13.07 11.26L13.09 11.28C13.09 11.28 13.15 11.33 13.17 11.35C13.19 11.37 13.24 11.4 13.27 11.41C13.27 11.4 13.27 11.38 13.27 11.38C13.27 11.38 13.27 11.36 13.27 11.34C13.27 11.33 13.25 11.28 13.24 11.26C13.21 11.2 13.21 11.18 13.2 11.16C13.2 11.15 13.2 11.12 13.2 11.11C13.2 11.11 13.2 11.09 13.2 11.08C13.2 11.07 13.2 11.06 13.2 11.05C13.2 10.99 13.22 10.95 13.23 10.92C13.23 10.91 13.23 10.9 13.24 10.88C13.24 10.87 13.26 10.82 13.26 10.82C13.27 10.77 13.28 10.76 13.29 10.76C13.31 10.76 13.32 10.79 13.32 10.81C13.32 10.81 13.33 10.85 13.34 10.88C13.36 10.97 13.38 11.03 13.38 11.08C13.38 11.11 13.38 11.12 13.38 11.14V11.19C13.4 11.28 13.37 11.38 13.37 11.38C13.35 11.43 13.36 11.51 13.36 11.51V11.58C13.36 11.68 13.42 11.69 13.42 11.69H13.45L13.43 11.71C13.41 11.73 13.35 11.91 13.33 12.01L13.35 12.04ZM12.95 11.1C12.95 11.1 12.95 11.24 13.04 11.31C13.08 11.34 13.11 11.37 13.19 11.4C13.25 11.43 13.27 11.46 13.28 11.5C13.28 11.51 13.29 11.53 13.3 11.55L13.32 11.59C13.32 11.59 13.36 11.67 13.36 11.68C13.36 11.7 13.36 11.84 13.36 11.93C13.38 11.86 13.41 11.77 13.43 11.73C13.41 11.72 13.37 11.69 13.37 11.6V11.53C13.37 11.53 13.35 11.46 13.37 11.41C13.37 11.41 13.36 11.43 13.35 11.42C13.33 11.42 13.33 11.4 13.33 11.39C13.33 11.34 13.33 11.32 13.32 11.3C13.3 11.26 13.29 11.19 13.32 11.14C13.32 11.14 13.32 11.12 13.32 11.1C13.32 11.09 13.32 11.07 13.32 11.06C13.32 11.05 13.32 11.03 13.32 11.02C13.32 11.01 13.32 10.98 13.32 10.96V10.95C13.32 10.95 13.32 10.95 13.32 10.94C13.32 10.94 13.32 10.93 13.32 10.92V10.89H13.34C13.34 10.9 13.34 10.92 13.34 10.93C13.34 10.94 13.34 10.96 13.34 10.97C13.34 10.97 13.34 11.01 13.35 11.03C13.35 11.03 13.35 11.03 13.35 11.04C13.35 11.05 13.36 11.07 13.35 11.1C13.35 11.11 13.35 11.12 13.35 11.13C13.35 11.15 13.33 11.17 13.34 11.19C13.34 11.2 13.34 11.22 13.36 11.23C13.36 11.23 13.36 11.25 13.37 11.25C13.37 11.26 13.37 11.28 13.37 11.3C13.37 11.3 13.37 11.32 13.37 11.33C13.37 11.35 13.38 11.37 13.38 11.37C13.38 11.37 13.41 11.27 13.4 11.19V11.14C13.4 11.14 13.39 11.11 13.38 11.08C13.38 11.04 13.36 10.97 13.34 10.89C13.34 10.89 13.33 10.84 13.32 10.82V10.8C13.32 10.8 13.32 10.8 13.32 10.79C13.32 10.79 13.32 10.8 13.32 10.81C13.32 10.81 13.31 10.86 13.3 10.87C13.3 10.88 13.3 10.9 13.29 10.91C13.29 10.94 13.27 10.97 13.26 11.03C13.26 11.03 13.26 11.05 13.26 11.06C13.26 11.09 13.26 11.1 13.26 11.1V11.13C13.26 11.13 13.27 11.17 13.3 11.22C13.3 11.22 13.33 11.3 13.33 11.32C13.33 11.33 13.33 11.36 13.33 11.36V11.4V11.44L13.31 11.43C13.31 11.43 13.23 11.38 13.19 11.35C13.16 11.33 13.13 11.3 13.11 11.28L13.09 11.26C13.09 11.26 12.99 11.15 12.98 11.08L12.95 11.1Z" fill="black"/>
<path d="M13.27 11.54C13.27 11.54 13.26 11.51 13.25 11.5C13.23 11.47 13.19 11.45 13.1 11.4C13.01 11.35 12.98 11.28 12.93 11.24C12.91 11.22 12.86 11.22 12.86 11.22C12.86 11.22 12.9 11.28 12.91 11.3C12.92 11.33 12.93 11.34 12.98 11.39C13.03 11.44 13.1 11.46 13.14 11.47C13.2 11.49 13.27 11.54 13.27 11.54ZM12.97 11.09C12.97 11.09 13 11.18 13.05 11.25C13.13 11.35 13.28 11.42 13.28 11.42C13.27 11.36 13.24 11.29 13.22 11.26C13.15 11.15 12.97 11.09 12.97 11.09ZM13.19 11.14C13.23 11.05 13.11 10.97 13.08 10.9C13.09 10.89 13.11 10.92 13.12 10.93C13.14 10.96 13.2 11.03 13.2 11.03L13.22 10.95L13.08 10.82L13.03 10.85C13.01 10.97 13.2 11.13 13.2 11.13" fill="#009B3A"/>
<path d="M13.26 11.55C13.26 11.55 13.18 11.5 13.13 11.48C13.13 11.48 13.03 11.45 12.97 11.4C12.92 11.36 12.91 11.34 12.9 11.32C12.9 11.32 12.86 11.25 12.85 11.23L12.83 11.2H12.86C12.86 11.2 12.91 11.21 12.93 11.23C12.95 11.24 12.97 11.26 12.98 11.29C13.01 11.32 13.04 11.36 13.09 11.39C13.19 11.44 13.22 11.46 13.25 11.49C13.26 11.5 13.28 11.53 13.28 11.53H13.27V11.55H13.26ZM12.89 11.24C12.89 11.24 12.92 11.28 12.92 11.29C12.92 11.29 12.92 11.29 12.92 11.3C12.92 11.32 12.94 11.34 12.98 11.38C13.03 11.42 13.08 11.44 13.12 11.45C13.12 11.45 13.17 11.47 13.2 11.49C13.18 11.47 13.14 11.45 13.07 11.41C13.01 11.38 12.98 11.34 12.95 11.3C12.93 11.28 12.92 11.26 12.9 11.25C12.9 11.25 12.88 11.25 12.88 11.24H12.89ZM13.3 11.44H13.27C13.27 11.44 13.12 11.35 13.04 11.25C13.01 11.21 12.98 11.15 12.96 11.09V11.07H12.97C13 11.07 13.16 11.13 13.22 11.24C13.24 11.27 13.26 11.34 13.28 11.41V11.44H13.3ZM12.99 11.11C13.01 11.16 13.03 11.21 13.06 11.24C13.12 11.31 13.21 11.37 13.26 11.39C13.25 11.34 13.23 11.28 13.21 11.26C13.16 11.18 13.04 11.13 12.99 11.11ZM13.18 11.15C13.18 11.15 12.98 10.99 13 10.86V10.85C13.02 10.85 13.04 10.83 13.04 10.83V10.8L13.21 10.96L13.19 11.06C13.19 11.06 13.2 11.12 13.19 11.15H13.18ZM13.03 10.87C13.03 10.96 13.14 11.08 13.18 11.11C13.18 11.06 13.15 11.01 13.11 10.97C13.09 10.95 13.07 10.93 13.06 10.91V10.89C13.06 10.89 13.07 10.89 13.08 10.89C13.09 10.89 13.1 10.91 13.12 10.92C13.13 10.94 13.16 10.97 13.18 11V10.96L13.06 10.85C13.05 10.86 13.03 10.87 13.02 10.87H13.03Z" fill="black"/>
<path d="M12.94 10.93L12.89 10.95L12.91 11H12.92C12.92 11 12.97 11.08 12.99 11.09C13 11.09 13.04 11.1 13.08 11.12C13.13 11.14 13.22 11.22 13.22 11.22C13.22 11.22 13.08 11.06 13.02 10.94L13 10.87H12.95C12.95 10.87 12.96 10.92 12.93 10.94" fill="#009B3A"/>
<path d="M13.22 11.22C13.22 11.22 13.14 11.15 13.09 11.13C13.06 11.12 13.03 11.11 13.02 11.11H13C12.97 11.11 12.93 11.04 12.92 11.03V11.01L12.88 10.94H12.9C12.9 10.94 12.91 10.94 12.94 10.93L12.95 10.88V10.86H13.02L13.04 10.94C13.09 11.05 13.23 11.21 13.23 11.21L13.21 11.23L13.22 11.22ZM12.92 10.99C12.92 10.99 12.97 11.07 12.99 11.07C12.99 11.07 12.99 11.07 13.01 11.07C13.03 11.07 13.06 11.08 13.09 11.1C13.1 11.1 13.12 11.11 13.14 11.13C13.1 11.07 13.05 11 13.02 10.94L13 10.88H12.98C12.98 10.88 12.98 10.93 12.95 10.95C12.94 10.95 12.92 10.96 12.92 10.96V10.99Z" fill="black"/>
<path d="M12.41 10.83C12.41 10.83 12.46 10.87 12.49 10.89C12.52 10.91 12.61 10.96 12.68 10.97C12.7 10.97 12.78 10.98 12.78 10.98C12.78 10.94 12.82 10.94 12.82 10.94H12.7C12.6 10.92 12.53 10.88 12.47 10.81C12.55 10.86 12.66 10.93 12.75 10.93C13.12 10.89 12.64 10.88 12.6 10.86C12.56 10.83 12.52 10.79 12.52 10.79H12.41C12.41 10.79 12.36 10.79 12.41 10.83Z" fill="#009B3A"/>
<path d="M12.79 11H12.78C12.78 11 12.69 10.99 12.68 10.98C12.63 10.98 12.56 10.94 12.49 10.89C12.46 10.87 12.44 10.85 12.41 10.83C12.41 10.83 12.37 10.8 12.38 10.78C12.38 10.76 12.41 10.76 12.42 10.76H12.53C12.53 10.76 12.57 10.8 12.61 10.83C12.62 10.83 12.7 10.85 12.76 10.85C12.89 10.86 12.91 10.87 12.91 10.89C12.91 10.9 12.91 10.91 12.83 10.92V10.94C12.83 10.94 12.8 10.94 12.8 10.97L12.79 11ZM12.42 10.82C12.42 10.82 12.47 10.86 12.49 10.88C12.57 10.93 12.63 10.95 12.67 10.96C12.68 10.96 12.73 10.96 12.76 10.97C12.76 10.97 12.76 10.96 12.76 10.95H12.72C12.72 10.95 12.71 10.95 12.7 10.95H12.69C12.59 10.95 12.52 10.9 12.45 10.83L12.47 10.81H12.49C12.49 10.81 12.53 10.85 12.56 10.86C12.53 10.84 12.51 10.81 12.5 10.8H12.4C12.4 10.8 12.4 10.8 12.42 10.82ZM12.73 10.92C12.73 10.92 12.73 10.92 12.74 10.92C12.78 10.92 12.81 10.92 12.83 10.91C12.8 10.91 12.77 10.91 12.74 10.9C12.68 10.9 12.63 10.89 12.6 10.88C12.64 10.9 12.67 10.91 12.7 10.92H12.72H12.73Z" fill="black"/>
<path d="M12.84 11.04C12.84 11.04 12.88 11.04 12.89 11.01C12.89 10.98 12.89 10.96 12.85 10.95C12.83 10.95 12.8 10.95 12.78 10.98C12.76 11.02 12.82 11.04 12.82 11.04C12.82 11.04 12.83 11.04 12.84 11.04ZM12.88 10.83C12.88 10.83 12.84 10.86 12.84 10.9C12.84 10.95 12.92 10.93 12.92 10.93H12.93C12.93 10.93 12.94 10.91 12.93 10.87C12.93 10.83 12.89 10.82 12.86 10.82" fill="#009B3A"/>
<path d="M12.84 11.05H12.82C12.82 11.05 12.78 11.03 12.77 11.01C12.77 11 12.77 10.99 12.77 10.98C12.79 10.94 12.82 10.94 12.85 10.94C12.85 10.94 12.84 10.92 12.83 10.91C12.83 10.87 12.83 10.85 12.84 10.83C12.84 10.82 12.86 10.81 12.88 10.81C12.88 10.81 12.96 10.83 12.96 10.87C12.96 10.91 12.96 10.93 12.96 10.93H12.94C12.94 10.93 12.91 10.95 12.88 10.94C12.9 10.95 12.91 10.97 12.9 11C12.9 11.04 12.87 11.04 12.84 11.04V11.05ZM12.83 10.96C12.83 10.96 12.8 10.96 12.79 10.98C12.79 10.98 12.79 10.98 12.79 10.99C12.79 11 12.82 11.01 12.82 11.02C12.82 11.02 12.82 11.02 12.84 11.02C12.84 11.02 12.87 11.02 12.87 11C12.87 10.98 12.87 10.96 12.84 10.96C12.84 10.96 12.83 10.96 12.82 10.96H12.83ZM12.88 10.84C12.88 10.84 12.87 10.84 12.86 10.84C12.86 10.84 12.86 10.86 12.86 10.89C12.86 10.89 12.86 10.9 12.86 10.91C12.88 10.92 12.91 10.91 12.92 10.91C12.92 10.91 12.92 10.89 12.92 10.87C12.92 10.84 12.9 10.83 12.87 10.83L12.88 10.84ZM13 10.88V10.86L12.99 10.87L13 10.88Z" fill="black"/>
<path d="M13.01 10.86C13.01 10.86 13.01 10.86 13.02 10.86C13.04 10.86 13.05 10.82 13.05 10.82C13.05 10.77 13.02 10.76 13.02 10.76C12.96 10.75 12.96 10.8 12.96 10.8C12.94 10.87 13 10.87 13.01 10.87M12.73 10.62L12.77 10.68C12.77 10.68 12.82 10.73 12.83 10.75C12.84 10.77 12.89 10.86 12.89 10.86C12.89 10.86 12.89 10.86 12.9 10.86C12.9 10.85 12.87 10.74 12.86 10.73C12.85 10.7 12.82 10.67 12.8 10.65C12.8 10.65 12.77 10.62 12.75 10.59C12.79 10.65 12.91 10.8 12.94 10.87C12.94 10.87 12.94 10.79 12.94 10.75C12.93 10.63 12.9 10.6 12.89 10.58C12.87 10.55 12.83 10.52 12.8 10.51C12.77 10.5 12.73 10.48 12.69 10.47C12.65 10.46 12.69 10.49 12.69 10.53C12.71 10.57 12.72 10.6 12.73 10.63" fill="#009B3A"/>
<path d="M12.89 10.88C12.89 10.88 12.84 10.78 12.83 10.76C12.82 10.74 12.77 10.7 12.77 10.69C12.77 10.69 12.73 10.64 12.73 10.62C12.73 10.62 12.71 10.56 12.69 10.53C12.69 10.53 12.69 10.52 12.68 10.51C12.67 10.49 12.66 10.47 12.67 10.46C12.67 10.45 12.7 10.46 12.7 10.46C12.73 10.46 12.75 10.48 12.77 10.49C12.78 10.49 12.79 10.49 12.8 10.5C12.83 10.51 12.88 10.54 12.9 10.58C12.9 10.58 12.94 10.65 12.95 10.76C12.96 10.75 12.98 10.75 13.01 10.75C13.03 10.75 13.06 10.78 13.05 10.83C13.05 10.84 13.03 10.88 13.01 10.89C13.01 10.89 13.01 10.89 13 10.89C13 10.89 12.97 10.89 12.96 10.88H12.93C12.93 10.88 12.93 10.87 12.92 10.86C12.92 10.86 12.92 10.87 12.92 10.88C12.92 10.89 12.9 10.89 12.9 10.89L12.89 10.88ZM13 10.76H12.98C12.97 10.76 12.97 10.78 12.97 10.78C12.97 10.8 12.97 10.81 12.97 10.82C12.97 10.82 12.99 10.83 13 10.83C13 10.83 13 10.83 13.01 10.83C13.01 10.83 13.03 10.81 13.03 10.79C13.03 10.75 13.01 10.74 13.01 10.74C13.01 10.74 13.01 10.74 13 10.74V10.76ZM12.74 10.61C12.74 10.61 12.74 10.63 12.78 10.66C12.78 10.66 12.83 10.71 12.84 10.73C12.84 10.74 12.87 10.78 12.89 10.81C12.89 10.79 12.88 10.77 12.87 10.75C12.83 10.68 12.77 10.61 12.75 10.58L12.77 10.56C12.77 10.56 12.8 10.61 12.81 10.61C12.81 10.61 12.86 10.67 12.87 10.7C12.87 10.7 12.87 10.72 12.88 10.74C12.89 10.76 12.9 10.78 12.91 10.79C12.91 10.77 12.91 10.75 12.91 10.74C12.9 10.64 12.87 10.6 12.86 10.58C12.86 10.58 12.8 10.52 12.77 10.51C12.76 10.51 12.75 10.51 12.74 10.5C12.72 10.5 12.69 10.48 12.67 10.47C12.67 10.47 12.67 10.47 12.67 10.48C12.67 10.48 12.67 10.5 12.68 10.5C12.7 10.53 12.71 10.57 12.72 10.6L12.74 10.61Z" fill="black"/>
<path d="M12.57 10.81C12.57 10.81 12.63 10.87 12.71 10.88C12.79 10.89 12.8 10.88 12.8 10.88C12.8 10.88 12.84 10.86 12.82 10.84C12.7 10.79 12.58 10.72 12.52 10.65C12.52 10.65 12.53 10.64 12.57 10.68C12.6 10.71 12.61 10.72 12.63 10.73C12.68 10.76 12.7 10.77 12.74 10.8C12.76 10.81 12.82 10.83 12.82 10.83C12.82 10.83 12.82 10.81 12.84 10.81C12.84 10.81 12.84 10.78 12.78 10.74C12.75 10.72 12.73 10.69 12.7 10.66C12.7 10.66 12.64 10.65 12.57 10.64C12.52 10.64 12.43 10.56 12.43 10.58C12.43 10.6 12.44 10.66 12.47 10.7C12.5 10.74 12.52 10.78 12.56 10.82" fill="#009B3A"/>
<path d="M12.8 10.9C12.8 10.9 12.76 10.9 12.72 10.9C12.64 10.89 12.62 10.87 12.58 10.84H12.57V10.82C12.57 10.82 12.51 10.76 12.48 10.72C12.45 10.67 12.44 10.6 12.44 10.58V10.56C12.45 10.56 12.47 10.56 12.5 10.58C12.53 10.6 12.56 10.62 12.59 10.62C12.66 10.63 12.72 10.64 12.72 10.64C12.74 10.67 12.77 10.7 12.79 10.72C12.82 10.75 12.86 10.78 12.85 10.8L12.84 10.81C12.84 10.81 12.84 10.81 12.84 10.82C12.84 10.82 12.84 10.84 12.84 10.85C12.84 10.87 12.81 10.88 12.8 10.89C12.8 10.89 12.8 10.89 12.78 10.89L12.8 10.9ZM12.58 10.8H12.59C12.59 10.8 12.64 10.86 12.71 10.87C12.78 10.88 12.79 10.87 12.8 10.87C12.81 10.87 12.82 10.86 12.82 10.85C12.67 10.78 12.57 10.72 12.51 10.65V10.63C12.52 10.62 12.55 10.63 12.58 10.66C12.6 10.68 12.62 10.7 12.63 10.71C12.67 10.74 12.69 10.75 12.72 10.76H12.74C12.74 10.76 12.79 10.79 12.81 10.8C12.81 10.8 12.81 10.8 12.81 10.79C12.81 10.79 12.79 10.76 12.76 10.74C12.73 10.72 12.71 10.69 12.68 10.66C12.66 10.66 12.61 10.65 12.56 10.64C12.53 10.64 12.49 10.61 12.46 10.6C12.46 10.6 12.44 10.59 12.43 10.58C12.43 10.61 12.45 10.65 12.46 10.68C12.46 10.68 12.51 10.76 12.54 10.79L12.58 10.8Z" fill="black"/>
<path d="M11.87 13.35L11.56 13.46L11.48 13.49C11.59 13.47 11.67 13.52 11.67 13.52L11.98 13.38C11.98 13.38 11.98 13.38 11.98 13.37C11.98 13.37 11.92 13.34 11.88 13.35" fill="#009B3A"/>
<path d="M11.67 13.54C11.67 13.54 11.59 13.49 11.49 13.51V13.49L11.56 13.46C11.57 13.46 11.84 13.36 11.87 13.35C11.92 13.34 11.98 13.37 11.98 13.37C11.99 13.37 11.99 13.39 11.99 13.39L11.67 13.55V13.54ZM11.55 13.48C11.61 13.48 11.65 13.51 11.67 13.51L11.96 13.38C11.96 13.38 11.9 13.35 11.88 13.36L11.57 13.47L11.55 13.48Z" fill="black"/>
<path d="M11.47 13.5C11.47 13.5 11.47 13.5 11.47 13.51C11.49 13.51 11.48 13.52 11.55 13.53C11.62 13.53 11.67 13.53 11.68 13.51C11.69 13.49 11.51 13.47 11.47 13.5Z" fill="#009B3A"/>
<path d="M11.59 13.55C11.59 13.55 11.56 13.55 11.55 13.55C11.49 13.55 11.48 13.54 11.47 13.53C11.47 13.53 11.47 13.53 11.47 13.52C11.47 13.52 11.47 13.51 11.47 13.5C11.47 13.5 11.68 13.49 11.7 13.5C11.7 13.5 11.7 13.51 11.7 13.52C11.69 13.53 11.65 13.55 11.6 13.55H11.59ZM11.49 13.51C11.49 13.51 11.5 13.51 11.56 13.52C11.61 13.52 11.65 13.52 11.67 13.52C11.63 13.51 11.53 13.5 11.49 13.52V13.51Z" fill="black"/>
<path d="M11.03 12.51V12.42C11.03 12.42 11 12.19 10.97 12.14C10.97 12.13 10.97 12.11 10.95 12.11C10.92 12.11 10.92 12.18 10.91 12.25C10.86 12.6 11.13 12.86 11.13 12.86L11.02 12.51H11.03Z" fill="#009B3A"/>
<path d="M11.13 12.87C11.13 12.87 10.85 12.6 10.9 12.25V12.23C10.9 12.17 10.9 12.12 10.93 12.1H10.95C10.97 12.1 10.98 12.12 10.98 12.14C11.01 12.19 11.02 12.4 11.02 12.43V12.51L11.15 12.86L11.12 12.88L11.13 12.87ZM10.95 12.12C10.95 12.12 10.93 12.19 10.93 12.23V12.25C10.89 12.5 11.03 12.7 11.1 12.8L11.01 12.51V12.42C10.99 12.33 10.97 12.18 10.96 12.15C10.96 12.15 10.96 12.14 10.96 12.13V12.12H10.95Z" fill="black"/>
<path d="M12.4 13.54C12.4 13.54 12.37 13.54 12.39 13.51C12.41 13.49 12.46 13.48 12.47 13.48C12.48 13.48 12.51 13.48 12.53 13.48C12.55 13.48 12.58 13.5 12.57 13.52C12.57 13.53 12.53 13.55 12.49 13.55C12.46 13.55 12.44 13.55 12.42 13.55C12.41 13.55 12.39 13.55 12.39 13.55" fill="#009B3A"/>
<path d="M12.49 13.57C12.49 13.57 12.44 13.57 12.42 13.57C12.41 13.57 12.4 13.57 12.39 13.57C12.39 13.57 12.37 13.57 12.36 13.55C12.36 13.55 12.36 13.53 12.36 13.52C12.38 13.49 12.44 13.48 12.45 13.48C12.46 13.48 12.49 13.48 12.52 13.48C12.54 13.48 12.57 13.5 12.57 13.52V13.54C12.56 13.56 12.52 13.58 12.48 13.58L12.49 13.57ZM12.4 13.52C12.4 13.52 12.41 13.52 12.43 13.52C12.44 13.52 12.46 13.52 12.49 13.52C12.53 13.52 12.55 13.5 12.56 13.5C12.56 13.5 12.54 13.49 12.52 13.48C12.5 13.48 12.47 13.48 12.46 13.48C12.46 13.48 12.4 13.49 12.39 13.51L12.4 13.52Z" fill="black"/>
<path d="M12.1 13.37C12.1 13.37 12.01 13.33 11.92 13.28C11.8 13.22 11.66 13.14 11.56 12.99C11.44 12.81 11.33 12.71 11.3 12.69C11.27 12.67 11.27 12.66 11.26 12.68C11.26 12.69 11.26 12.7 11.26 12.72C11.29 12.76 11.35 12.84 11.37 12.88C11.41 12.95 11.49 13.04 11.49 13.09H11.47C11.47 13.09 11.28 13.03 11.21 12.8C11.15 12.63 11.18 12.59 11.17 12.5C11.15 12.35 11.14 12.34 11.07 12.18C11.07 12.18 11.03 12.11 11.02 12.12C11.02 12.14 11.02 12.21 11.02 12.21V12.29C11.02 12.29 11.02 12.48 11.02 12.49C11.02 12.5 10.97 12.62 11.17 12.82C11.17 12.82 11.17 12.85 11.15 12.82C11.13 12.8 10.99 12.69 10.94 12.51C10.89 12.33 10.89 12.15 10.92 12.07C10.95 12 11.01 11.83 10.99 11.69C10.99 11.67 10.99 11.63 10.97 11.64C10.97 11.64 10.95 11.72 10.94 11.75C10.92 11.78 10.9 11.82 10.89 11.84C10.88 11.88 10.81 11.94 10.82 12.06C10.84 12.19 10.84 12.21 10.86 12.26C10.86 12.28 10.88 12.32 10.87 12.33L10.83 12.28C10.83 12.28 10.7 12.03 10.78 11.83C10.86 11.63 11.06 11.44 11.06 11.44C11.06 11.44 11.22 11.31 11.25 11.27C11.26 11.26 11.25 11.25 11.25 11.25C11.21 11.26 10.9 11.32 10.79 11.7C10.79 11.7 10.79 11.72 10.78 11.71C10.77 11.71 10.78 11.69 10.78 11.69C10.78 11.69 10.85 11.43 11.04 11.31C11.25 11.18 11.23 11.2 11.29 11.16C11.33 11.13 11.37 11.1 11.42 11.02L11.44 10.96C11.44 10.96 11.43 10.96 11.42 10.98C11.42 10.98 11.36 11.07 11.27 11.1C11.18 11.13 11.11 11.09 11.02 11.19C10.93 11.29 10.86 11.43 10.86 11.43C10.86 11.43 10.84 11.47 10.83 11.46V11.42C10.83 11.42 10.95 11.17 11.05 11.11C11.15 11.06 11.23 11.01 11.29 10.97C11.36 10.92 11.47 10.79 11.51 10.75C11.51 10.75 11.58 10.68 11.59 10.66C11.59 10.65 11.62 10.63 11.61 10.63L11.54 10.65C11.54 10.65 11.22 10.74 11.03 11.04C11.03 11.05 11 11.08 10.99 11.09C10.97 11.11 10.96 11.15 10.96 11.15C10.95 11.14 11.07 10.98 11.07 10.98L11.09 10.88C11.09 10.88 11.13 10.73 11.2 10.62C11.2 10.62 11.25 10.56 11.26 10.55C11.28 10.53 11.23 10.56 11.24 10.55C11.24 10.55 10.94 10.76 10.94 11.03C10.94 11.08 10.91 11.12 10.87 11.18C10.82 11.25 10.81 11.29 10.78 11.4C10.78 11.44 10.76 11.49 10.75 11.53V11.57C10.74 11.57 10.75 11.54 10.75 11.54C10.75 11.54 10.78 11.34 10.8 11.28C10.82 11.22 10.83 11.18 10.83 11.18C10.83 11.18 10.82 11.03 10.85 10.95C10.88 10.88 10.95 10.78 10.96 10.76C10.96 10.75 11 10.68 11.01 10.61C11.01 10.6 11.01 10.61 10.99 10.64C10.96 10.71 10.93 10.73 10.88 10.8C10.88 10.8 10.74 10.9 10.69 11.2C10.69 11.2 10.69 11.31 10.67 11.48C10.66 11.61 10.67 11.73 10.68 11.8C10.68 11.84 10.71 11.84 10.7 11.85C10.7 11.85 10.7 11.85 10.69 11.82C10.67 11.78 10.66 11.72 10.66 11.64C10.66 11.49 10.67 11.36 10.67 11.36C10.67 11.36 10.68 11.11 10.58 11C10.58 11 10.6 11.05 10.61 11.11C10.62 11.18 10.6 11.28 10.59 11.31C10.59 11.35 10.51 11.51 10.54 11.67C10.54 11.67 10.6 11.93 10.67 12.06C10.63 12.01 10.54 11.8 10.54 11.79C10.54 11.77 10.47 11.65 10.42 11.59C10.39 11.56 10.31 11.51 10.31 11.51C10.31 11.51 10.27 11.48 10.3 11.52C10.33 11.56 10.36 11.62 10.38 11.65C10.41 11.71 10.45 11.77 10.47 11.83C10.5 11.89 10.56 12.06 10.56 12.06L10.6 12.17C10.6 12.17 10.67 12.21 10.7 12.25C10.73 12.28 10.79 12.36 10.84 12.49C10.86 12.55 10.91 12.6 10.91 12.6C10.91 12.6 10.91 12.62 10.86 12.55C10.82 12.48 10.78 12.34 10.68 12.24C10.61 12.16 10.4 12.08 10.4 12.08C10.4 12.08 10.53 12.3 10.56 12.34C10.61 12.4 10.69 12.49 10.71 12.52C10.73 12.54 10.85 12.69 10.87 12.72C10.9 12.76 10.92 12.77 10.93 12.79C10.96 12.82 11.06 12.89 11.06 12.9C11.02 12.87 10.97 12.84 10.92 12.8C10.87 12.77 10.67 12.68 10.53 12.5C10.5 12.45 10.48 12.42 10.47 12.43C10.45 12.43 10.56 12.79 10.78 12.91C10.78 12.91 11.02 13.02 11.08 13.05C11.11 13.07 11.17 13.09 11.2 13.12C11.22 13.13 11.19 13.13 11.18 13.13C11.05 13.12 10.87 13.1 10.75 13.04C10.75 13.04 10.7 13.01 10.75 13.05C10.78 13.09 10.84 13.18 10.96 13.23C11.08 13.28 11.25 13.31 11.31 13.31C11.37 13.31 11.59 13.31 11.63 13.33C11.67 13.34 11.74 13.39 11.78 13.4C11.82 13.41 11.92 13.45 11.92 13.45C11.92 13.45 11.95 13.47 11.97 13.47C11.99 13.47 12.07 13.47 12.08 13.47C12.08 13.46 12.06 13.44 12.06 13.44" fill="#009B3A"/>
<path d="M12.06 13.43C12.06 13.43 12.02 13.43 12.01 13.43C11.99 13.43 11.96 13.41 11.96 13.41C11.96 13.41 11.85 13.37 11.82 13.36C11.8 13.36 11.77 13.34 11.74 13.32C11.71 13.31 11.69 13.29 11.67 13.29C11.64 13.29 11.52 13.28 11.43 13.28C11.4 13.28 11.37 13.28 11.35 13.28C11.29 13.28 11.12 13.25 11 13.19C10.9 13.14 10.84 13.07 10.8 13.03C10.8 13.03 10.79 13.02 10.78 13.01C10.77 12.99 10.76 12.98 10.76 12.97C10.76 12.97 10.78 12.97 10.8 12.97C10.92 13.04 11.11 13.05 11.22 13.06C11.2 13.05 11.18 13.04 11.16 13.02C11.14 13.02 11.13 13 11.12 13C11.07 12.97 10.83 12.86 10.82 12.86C10.61 12.75 10.5 12.43 10.5 12.38C10.5 12.38 10.5 12.37 10.5 12.36C10.52 12.35 10.54 12.38 10.57 12.44C10.68 12.59 10.83 12.67 10.91 12.72C10.91 12.72 10.91 12.72 10.92 12.72C10.92 12.71 10.9 12.7 10.89 12.68C10.87 12.66 10.75 12.51 10.73 12.48C10.73 12.48 10.71 12.46 10.69 12.44C10.66 12.4 10.61 12.35 10.57 12.3C10.54 12.26 10.41 12.04 10.41 12.03L10.39 12H10.42C10.42 12 10.51 12.05 10.58 12.09L10.55 12.01C10.55 12.01 10.49 11.84 10.46 11.78C10.43 11.72 10.4 11.66 10.37 11.61C10.37 11.61 10.37 11.59 10.35 11.58C10.33 11.55 10.31 11.51 10.29 11.48C10.28 11.46 10.27 11.45 10.28 11.44C10.28 11.44 10.3 11.44 10.32 11.45C10.32 11.45 10.4 11.5 10.43 11.53C10.49 11.58 10.55 11.71 10.56 11.73C10.56 11.73 10.56 11.73 10.56 11.74C10.54 11.67 10.53 11.62 10.53 11.62C10.51 11.49 10.55 11.37 10.57 11.3C10.57 11.28 10.57 11.27 10.58 11.26C10.58 11.26 10.58 11.25 10.58 11.24C10.58 11.2 10.6 11.12 10.59 11.06C10.59 11.03 10.57 10.99 10.57 10.97C10.57 10.95 10.57 10.94 10.57 10.94C10.64 11.01 10.66 11.13 10.66 11.22C10.66 11.18 10.66 11.16 10.66 11.16C10.71 10.87 10.83 10.77 10.85 10.76C10.86 10.74 10.88 10.73 10.89 10.71C10.92 10.67 10.94 10.65 10.96 10.6C10.98 10.56 10.98 10.56 10.99 10.56C10.99 10.56 11 10.56 10.99 10.58C10.99 10.63 10.97 10.68 10.94 10.74C10.94 10.75 10.93 10.76 10.91 10.79C10.88 10.83 10.85 10.89 10.83 10.94C10.8 11.02 10.81 11.17 10.81 11.17C10.81 11.17 10.8 11.21 10.78 11.27C10.77 11.3 10.76 11.37 10.75 11.42C10.75 11.41 10.75 11.4 10.75 11.39C10.77 11.28 10.79 11.24 10.84 11.17C10.88 11.11 10.91 11.07 10.91 11.02C10.91 10.75 11.2 10.54 11.21 10.53C11.23 10.52 11.24 10.51 11.24 10.53V10.55C11.24 10.55 11.22 10.57 11.21 10.58C11.2 10.59 11.18 10.61 11.18 10.61C11.11 10.71 11.07 10.86 11.07 10.86V10.92C11.25 10.69 11.51 10.62 11.51 10.62C11.57 10.59 11.58 10.6 11.59 10.6C11.59 10.6 11.59 10.61 11.57 10.62C11.57 10.62 11.57 10.62 11.56 10.63C11.56 10.64 11.52 10.68 11.49 10.71C11.49 10.71 11.48 10.74 11.47 10.75C11.42 10.81 11.33 10.9 11.27 10.95C11.22 10.99 11.15 11.03 11.03 11.1C10.94 11.15 10.83 11.38 10.82 11.4C10.82 11.4 10.89 11.26 10.98 11.16C11.04 11.09 11.1 11.09 11.15 11.08C11.18 11.08 11.21 11.08 11.23 11.07C11.31 11.04 11.37 10.96 11.37 10.95C11.37 10.95 11.38 10.92 11.39 10.92C11.39 10.92 11.4 10.92 11.4 10.93C11.4 10.95 11.38 11 11.38 11C11.33 11.09 11.28 11.12 11.24 11.15C11.22 11.16 11.21 11.17 11.19 11.18C11.16 11.2 11.13 11.21 10.98 11.31C10.91 11.35 10.86 11.42 10.82 11.48C10.93 11.32 11.09 11.26 11.19 11.24C11.19 11.24 11.2 11.24 11.21 11.24C11.21 11.24 11.21 11.26 11.2 11.27C11.17 11.3 11.01 11.43 11 11.44C11 11.44 10.8 11.63 10.72 11.83C10.64 12.03 10.77 12.27 10.77 12.27C10.77 12.27 10.78 12.29 10.79 12.3C10.79 12.3 10.79 12.28 10.79 12.27C10.78 12.22 10.77 12.19 10.75 12.07C10.74 11.98 10.78 11.92 10.8 11.88C10.8 11.87 10.82 11.85 10.82 11.84C10.82 11.83 10.83 11.81 10.84 11.79C10.84 11.78 10.86 11.76 10.86 11.74C10.86 11.73 10.87 11.7 10.88 11.68C10.88 11.65 10.89 11.64 10.89 11.64C10.89 11.64 10.9 11.64 10.91 11.64C10.92 11.64 10.92 11.66 10.93 11.69C10.93 11.69 10.93 11.69 10.93 11.7C10.96 11.86 10.89 12.04 10.86 12.09C10.83 12.16 10.83 12.35 10.88 12.52C10.91 12.66 11.01 12.76 11.05 12.8C10.98 12.72 10.91 12.61 10.93 12.51C10.93 12.5 10.93 12.32 10.93 12.31V12.23C10.93 12.23 10.91 12.15 10.92 12.13C10.92 12.13 10.92 12.13 10.93 12.13L10.99 12.2C11.06 12.37 11.07 12.38 11.09 12.53C11.09 12.56 11.09 12.58 11.09 12.6C11.09 12.65 11.09 12.71 11.13 12.82C11.2 13.04 11.39 13.1 11.39 13.11C11.39 13.08 11.36 13.05 11.33 13.01C11.31 12.98 11.29 12.95 11.27 12.92C11.26 12.9 11.23 12.86 11.21 12.83C11.19 12.8 11.17 12.78 11.16 12.76C11.16 12.75 11.14 12.73 11.16 12.71C11.16 12.71 11.16 12.7 11.18 12.7C11.18 12.7 11.2 12.7 11.21 12.71C11.21 12.71 11.21 12.71 11.22 12.71C11.25 12.73 11.36 12.83 11.48 13.01C11.58 13.15 11.71 13.23 11.84 13.29C11.93 13.33 12.02 13.38 12.02 13.38C12.02 13.38 12.06 13.41 12.05 13.43C12.05 13.43 12.05 13.43 12.04 13.44C12.03 13.44 12 13.44 11.98 13.44L12.06 13.43ZM10.81 12.99C10.84 13.03 10.9 13.11 11 13.15C11.11 13.2 11.28 13.23 11.34 13.23C11.36 13.23 11.39 13.23 11.42 13.23C11.54 13.23 11.64 13.23 11.66 13.25C11.68 13.25 11.71 13.27 11.74 13.29C11.77 13.3 11.79 13.32 11.81 13.33C11.85 13.34 11.95 13.38 11.96 13.38C11.96 13.38 11.99 13.4 12.01 13.4C12.03 13.4 12.09 13.4 12.1 13.4C12.1 13.4 12.1 13.39 12.08 13.38C12.07 13.38 11.98 13.33 11.9 13.29C11.77 13.23 11.63 13.15 11.54 13C11.42 12.82 11.31 12.73 11.28 12.7C11.28 12.7 11.28 12.7 11.27 12.7C11.27 12.7 11.27 12.7 11.26 12.7C11.26 12.7 11.26 12.7 11.26 12.72C11.27 12.74 11.29 12.76 11.31 12.79C11.33 12.82 11.36 12.86 11.37 12.88C11.38 12.91 11.41 12.94 11.43 12.97C11.46 13.02 11.49 13.06 11.49 13.09V13.1C11.49 13.1 11.49 13.1 11.46 13.1C11.46 13.1 11.27 13.03 11.19 12.8C11.15 12.69 11.15 12.63 11.15 12.57C11.15 12.55 11.15 12.52 11.15 12.5C11.13 12.36 11.13 12.35 11.05 12.18C11.05 12.18 11.03 12.15 11.02 12.13C11.02 12.15 11.02 12.18 11.02 12.2V12.29C11.02 12.36 11.02 12.48 11.02 12.49C11 12.6 11.09 12.72 11.17 12.8C11.17 12.8 11.17 12.82 11.16 12.83C11.15 12.83 11.13 12.83 11.13 12.82C11.13 12.82 11.13 12.82 11.12 12.81C11.08 12.78 10.99 12.69 10.94 12.57C10.93 12.57 10.91 12.57 10.88 12.51C10.87 12.49 10.86 12.46 10.84 12.43C10.81 12.36 10.77 12.27 10.7 12.2C10.65 12.14 10.52 12.08 10.46 12.05C10.5 12.11 10.58 12.25 10.6 12.28C10.64 12.32 10.68 12.38 10.72 12.42C10.74 12.44 10.75 12.45 10.76 12.46C10.78 12.48 10.9 12.63 10.92 12.66C10.94 12.69 10.96 12.71 10.97 12.72C10.97 12.72 11.03 12.78 11.06 12.8C11.09 12.82 11.1 12.83 11.1 12.83C11.1 12.83 11.1 12.83 11.1 12.84C11.08 12.82 11.05 12.81 11.02 12.79C11 12.77 10.98 12.76 10.95 12.74C10.95 12.74 10.93 12.73 10.91 12.72C10.83 12.67 10.67 12.59 10.56 12.44C10.56 12.42 10.53 12.39 10.52 12.38C10.53 12.45 10.64 12.73 10.83 12.83C10.83 12.83 11.07 12.94 11.13 12.97C11.14 12.97 11.15 12.98 11.17 12.99C11.2 13 11.23 13.02 11.25 13.04C11.26 13.04 11.25 13.06 11.25 13.06C11.25 13.07 11.22 13.07 11.22 13.07C11.12 13.07 10.92 13.05 10.8 12.98L10.81 12.99ZM10.64 12.12C10.64 12.12 10.71 12.16 10.74 12.2C10.8 12.26 10.85 12.35 10.89 12.45C10.9 12.48 10.92 12.5 10.93 12.52C10.88 12.34 10.88 12.15 10.91 12.07C10.93 12.02 11 11.85 10.98 11.7C10.98 11.7 10.98 11.7 10.98 11.69C10.98 11.69 10.98 11.69 10.98 11.68C10.98 11.68 10.98 11.68 10.98 11.69C10.98 11.71 10.96 11.74 10.96 11.76C10.96 11.78 10.94 11.79 10.94 11.81C10.94 11.83 10.92 11.84 10.92 11.86C10.92 11.87 10.91 11.89 10.9 11.9C10.88 11.94 10.84 11.99 10.85 12.08C10.86 12.21 10.87 12.23 10.89 12.27C10.91 12.34 10.91 12.35 10.89 12.36C10.89 12.36 10.88 12.36 10.85 12.3C10.85 12.29 10.72 12.04 10.8 11.84C10.88 11.64 11.08 11.44 11.08 11.44C11.08 11.44 11.23 11.32 11.27 11.28C11.14 11.32 10.92 11.42 10.84 11.71C10.84 11.71 10.84 11.73 10.82 11.73C10.82 11.73 10.82 11.73 10.81 11.73C10.81 11.73 10.81 11.73 10.81 11.72C10.81 11.72 10.81 11.7 10.81 11.69C10.81 11.67 10.89 11.42 11.08 11.3C11.23 11.21 11.26 11.19 11.29 11.17C11.3 11.17 11.31 11.16 11.33 11.14C11.37 11.12 11.41 11.09 11.46 11C11.43 11.03 11.39 11.08 11.33 11.1C11.3 11.11 11.27 11.11 11.24 11.11C11.19 11.11 11.14 11.11 11.08 11.18C10.99 11.28 10.92 11.41 10.92 11.42C10.89 11.46 10.89 11.46 10.88 11.46C10.88 11.46 10.88 11.46 10.87 11.46C10.87 11.45 10.87 11.43 10.87 11.42C10.87 11.41 10.99 11.16 11.09 11.11C11.2 11.05 11.28 11 11.33 10.97C11.39 10.93 11.47 10.83 11.53 10.77C11.53 10.76 11.55 10.75 11.55 10.74H11.56C11.56 10.74 11.62 10.67 11.63 10.65C11.62 10.65 11.61 10.65 11.6 10.66C11.6 10.66 11.28 10.75 11.09 11.04C11.09 11.05 11.06 11.08 11.05 11.1C11.05 11.1 11.05 11.1 11.05 11.11C11.05 11.13 11.04 11.14 11.03 11.14V11.16L11.01 11.15C11.01 11.15 11 11.14 11.02 11.1C11.04 11.07 11.06 11.04 11.11 10.98L11.13 10.88C11.13 10.88 11.17 10.73 11.24 10.63C11.15 10.71 11.01 10.87 11.01 11.05C11.01 11.1 10.98 11.15 10.94 11.21C10.89 11.28 10.88 11.32 10.86 11.42C10.86 11.46 10.84 11.51 10.83 11.55C10.83 11.56 10.83 11.58 10.83 11.59C10.83 11.59 10.83 11.59 10.82 11.59C10.8 11.59 10.8 11.55 10.8 11.54C10.8 11.54 10.83 11.34 10.85 11.28C10.87 11.23 10.88 11.19 10.88 11.18C10.88 11.16 10.87 11.02 10.9 10.95C10.92 10.9 10.96 10.84 10.99 10.8C11 10.78 11.01 10.77 11.02 10.76C11.03 10.73 11.05 10.7 11.05 10.67C11.03 10.71 11.01 10.73 10.99 10.76C10.98 10.77 10.97 10.79 10.95 10.81C10.95 10.81 10.82 10.91 10.77 11.2C10.77 11.2 10.77 11.31 10.75 11.48C10.74 11.61 10.75 11.72 10.76 11.79C10.76 11.79 10.76 11.8 10.76 11.81C10.76 11.81 10.76 11.81 10.76 11.82C10.76 11.82 10.76 11.82 10.76 11.83V11.82C10.76 11.82 10.76 11.82 10.76 11.81C10.76 11.81 10.76 11.81 10.76 11.8C10.76 11.8 10.73 11.71 10.73 11.61C10.73 11.46 10.74 11.33 10.74 11.33C10.74 11.33 10.74 11.15 10.69 11.03C10.69 11.04 10.69 11.06 10.69 11.07C10.7 11.13 10.69 11.22 10.68 11.26C10.68 11.26 10.68 11.27 10.68 11.28C10.68 11.28 10.68 11.3 10.67 11.32C10.65 11.39 10.61 11.51 10.63 11.63C10.63 11.63 10.68 11.85 10.75 11.98C10.75 11.99 10.77 12.01 10.77 12.01C10.79 12.04 10.79 12.04 10.79 12.05C10.79 12.05 10.79 12.05 10.75 12.02C10.75 12.02 10.74 12 10.73 11.99C10.69 11.93 10.65 11.82 10.62 11.75C10.62 11.75 10.56 11.61 10.5 11.55C10.48 11.53 10.43 11.5 10.41 11.48C10.43 11.51 10.45 11.54 10.46 11.57C10.46 11.57 10.47 11.59 10.48 11.6C10.52 11.66 10.55 11.72 10.57 11.78C10.6 11.84 10.66 12.01 10.66 12.01L10.7 12.12H10.64Z" fill="black"/>
<path d="M13.51 11.53L13.55 11.61C13.55 11.61 13.55 11.57 13.55 11.55C13.55 11.53 13.54 11.45 13.54 11.45L13.52 11.47L13.48 11.53C13.48 11.53 13.49 11.53 13.52 11.53" fill="#009B3A"/>
<path d="M13.53 11.61C13.53 11.61 13.51 11.54 13.5 11.54H13.47H13.45V11.52C13.45 11.52 13.47 11.48 13.49 11.46L13.53 11.43V11.45C13.53 11.45 13.54 11.53 13.54 11.55C13.54 11.57 13.54 11.61 13.54 11.61H13.51H13.53ZM13.49 11.51C13.49 11.51 13.5 11.51 13.51 11.51C13.51 11.51 13.51 11.51 13.52 11.51C13.52 11.49 13.52 11.48 13.52 11.46C13.52 11.46 13.5 11.48 13.49 11.5V11.51Z" fill="black"/>
</g>
</g>
<defs>
<clipPath id="clip0_161_10963">
<rect width="24" height="24" fill="white"/>
</clipPath>
</defs>
</svg>
