<svg width="24" height="24" viewBox="0 0 24 24" fill="none" xmlns="http://www.w3.org/2000/svg">
<g clip-path="url(#clip0_170_16298)">
<mask id="mask0_170_16298" style="mask-type:luminance" maskUnits="userSpaceOnUse" x="0" y="0" width="24" height="24">
<path d="M12 24C18.6274 24 24 18.6274 24 12C24 5.37258 18.6274 0 12 0C5.37258 0 0 5.37258 0 12C0 18.6274 5.37258 24 12 24Z" fill="white"/>
</mask>
<g mask="url(#mask0_170_16298)">
<path d="M0 0H24V12L3.73 23.73L0 0Z" fill="#0038A8"/>
<path d="M3.73 12H24V24H0L3.73 12Z" fill="#CE1126"/>
<path d="M12.76 12L0 24V0L12.76 12Z" fill="white"/>
<path d="M8.29001 11.84L8.16001 11.7L8.03001 11.57L7.09001 11.76C7.06001 11.6 7.00001 11.46 6.91001 11.33L7.71001 10.8V10.62V10.43V10.21H7.30001H7.12001L6.59001 11.01C6.46001 10.92 6.31001 10.86 6.16001 10.83L6.35001 9.89L6.22001 9.76L6.08001 9.63L5.92001 9.47L5.76001 9.63L5.62001 9.76L5.49001 9.89L5.68001 10.83C5.52001 10.86 5.38001 10.92 5.25001 11.01L4.72001 10.21H4.54001H4.35001H4.13001V10.62V10.8L4.93001 11.33C4.84001 11.46 4.78001 11.61 4.75001 11.76L3.81001 11.57L3.68001 11.7L3.55001 11.84L3.39001 12L3.55001 12.16L3.68001 12.3L3.81001 12.43L4.75001 12.24C4.78001 12.4 4.84001 12.54 4.93001 12.67L4.13001 13.2V13.38V13.57V13.79H4.54001H4.72001L5.25001 12.99C5.38001 13.08 5.53001 13.14 5.68001 13.17L5.49001 14.11L5.62001 14.24L5.76001 14.37L5.92001 14.53L6.08001 14.37L6.22001 14.24L6.35001 14.11L6.16001 13.17C6.32001 13.14 6.46001 13.08 6.59001 12.99L7.12001 13.79H7.30001H7.49001H7.71001V13.38V13.2L6.91001 12.67C7.00001 12.54 7.06001 12.39 7.09001 12.24L8.03001 12.43L8.16001 12.3L8.29001 12.16L8.45001 12L8.29001 11.84Z" fill="#FCD116"/>
<path d="M11.37 12L10.92 12.16V12.64L10.62 12.26L10.16 12.4L10.43 12.01L10.16 11.62L10.62 11.76L10.91 11.38V11.86L11.37 12.02V12Z" fill="#FCD116"/>
<path d="M2.78002 18.11L2.87002 17.64L2.46002 17.39L2.93002 17.33L3.04002 16.87L3.24002 17.3L3.72002 17.26L3.37002 17.59L3.56002 18.03L3.14002 17.8L2.78002 18.11Z" fill="#FCD116"/>
<path d="M2.78002 5.89L3.14002 6.2L3.56002 5.97L3.37002 6.41L3.72002 6.74L3.24002 6.7L3.04002 7.13L2.93002 6.67L2.46002 6.61L2.87002 6.36L2.78002 5.89Z" fill="#FCD116"/>
</g>
</g>
<defs>
<clipPath id="clip0_170_16298">
<rect width="24" height="24" fill="white"/>
</clipPath>
</defs>
</svg>
