<svg width="24" height="24" viewBox="0 0 24 24" fill="none" xmlns="http://www.w3.org/2000/svg">
<g clip-path="url(#clip0_104_17300)">
<mask id="mask0_104_17300" style="mask-type:luminance" maskUnits="userSpaceOnUse" x="0" y="0" width="24" height="24">
<path d="M12 24C18.6274 24 24 18.6274 24 12C24 5.37258 18.6274 0 12 0C5.37258 0 0 5.37258 0 12C0 18.6274 5.37258 24 12 24Z" fill="white"/>
</mask>
<g mask="url(#mask0_104_17300)">
<path d="M24 0H0V24H24V0Z" fill="#FF0000"/>
<path d="M9.6 0H0V24H9.6V0Z" fill="#006600"/>
<path fill-rule="evenodd" clip-rule="evenodd" d="M12.73 14.48C11.52 14.44 5.98 10.98 5.94 10.43L6.25 9.92001C6.8 10.72 12.46 14.08 13.02 13.96L12.73 14.47" fill="#FFFF00"/>
<path d="M12.73 14.49C12.09 14.47 10.26 13.49 8.88999 12.66C8.10999 12.18 7.37999 11.7 6.83999 11.3C6.42999 11 5.93999 10.6 5.92999 10.43L6.23999 9.92001C6.51999 10.33 8.13999 11.4 9.61999 12.28C11.36 13.32 12.75 14.01 13 13.96C13 13.96 13 13.96 13.01 13.96C13.02 13.96 13.01 13.96 13.01 13.97L12.72 14.48C12.72 14.48 12.72 14.48 12.71 14.48L12.73 14.49ZM5.94999 10.44C5.97999 10.69 7.21999 11.62 8.89999 12.64C10.26 13.47 12.07 14.44 12.72 14.47L12.99 13.98C12.64 14 11.06 13.16 9.61999 12.3C8.15999 11.43 6.54999 10.37 6.23999 9.95001L5.93999 10.44H5.94999Z" fill="black"/>
<path fill-rule="evenodd" clip-rule="evenodd" d="M6.18003 9.86002C6.07003 10.15 7.63003 11.11 9.50003 12.25C11.37 13.39 12.98 14.09 13.1 13.99C13.1 13.98 13.16 13.89 13.15 13.89C13.13 13.92 13.07 13.93 12.99 13.91C12.48 13.76 11.17 13.16 9.54003 12.17C7.91003 11.18 6.49003 10.27 6.27003 9.88002C6.25003 9.85002 6.24003 9.80002 6.25003 9.77002L6.20003 9.85002V9.86002H6.18003ZM12.76 14.5C12.76 14.5 12.7 14.54 12.63 14.53C12.18 14.48 10.81 13.81 9.18003 12.84C7.29003 11.71 5.73003 10.68 5.90003 10.41L5.95003 10.33C5.80003 10.79 9.03003 12.64 9.22003 12.75C11.09 13.91 12.66 14.58 12.8 14.41L12.75 14.5H12.76Z" fill="#FFFF00"/>
<path d="M12.68 14.54C12.68 14.54 12.64 14.54 12.62 14.54C12.16 14.49 10.77 13.81 9.17 12.85C7.03 11.57 5.95 10.8 5.88 10.49C5.88 10.46 5.88 10.43 5.89 10.4L5.94 10.32C5.94 10.32 5.94 10.32 5.95 10.32C5.83 10.67 7.86 11.93 9.09 12.65C9.16 12.69 9.20001 12.71 9.22001 12.73C11.07 13.87 12.65 14.56 12.79 14.39C12.79 14.39 12.8 14.39 12.81 14.39C12.81 14.39 12.81 14.4 12.81 14.41L12.76 14.5C12.74 14.53 12.71 14.54 12.68 14.54ZM5.94 10.37L5.91 10.42C5.91 10.42 5.9 10.46 5.91 10.49C5.98 10.79 7.06 11.56 9.19 12.84C10.79 13.8 12.17 14.48 12.63 14.53C12.7 14.53 12.73 14.53 12.75 14.51L12.78 14.46C12.45 14.56 10.7 13.69 9.22001 12.78C9.20001 12.77 9.16 12.74 9.09 12.7C7.00001 11.47 5.94 10.69 5.94 10.38V10.37ZM13.06 14.01C12.74 14.01 11.12 13.25 9.49 12.26C7.48 11.04 6.06 10.15 6.17 9.86001L6.22 9.76001C6.22 9.76001 6.22 9.76001 6.23 9.76001C6.23 9.79001 6.23 9.84001 6.25 9.87001C6.48 10.28 8.12001 11.31 9.52001 12.16C11.05 13.09 12.42 13.74 12.97 13.9C13.04 13.92 13.1 13.92 13.12 13.88C13.12 13.88 13.12 13.88 13.13 13.88C13.13 13.88 13.13 13.88 13.08 13.98V13.99C13.08 13.99 13.05 14 13.03 14L13.06 14.01ZM6.19 9.86001C6.08 10.16 7.9 11.26 9.5 12.24C11.42 13.41 12.97 14.07 13.09 13.98C13.09 13.98 13.11 13.94 13.12 13.92C13.09 13.93 13.04 13.92 12.99 13.92C12.43 13.76 11.07 13.11 9.53 12.18C6.86 10.56 6.38 10.1 6.25 9.89001C6.24 9.87001 6.23 9.83001 6.23 9.80001L6.19 9.87001V9.86001Z" fill="black"/>
<path fill-rule="evenodd" clip-rule="evenodd" d="M9.61 10.77C10.82 10.77 12.31 10.6 13.17 10.26L12.98 9.95999C12.47 10.24 10.97 10.43 9.59 10.45C7.96 10.44 6.81 10.28 6.23 9.89999L6.06 10.22C7.12 10.67 8.2 10.76 9.6 10.77" fill="#FFFF00"/>
<path d="M9.61 10.78C8.21 10.78 7.13 10.68 6.06 10.23L6.23 9.91C6.77 10.27 7.83 10.45 9.58 10.46C11.36 10.42 12.58 10.18 12.96 9.97C12.96 9.97 12.97 9.97 12.98 9.97L13.17 10.27C12.58 10.51 11.33 10.76 9.61 10.78ZM6.08 10.22C7.14 10.67 8.21 10.76 9.6 10.76C11.31 10.75 12.55 10.49 13.14 10.26L12.97 9.98C12.57 10.19 11.35 10.43 9.59 10.47C7.85 10.45 6.78 10.28 6.24 9.92L6.08 10.22Z" fill="black"/>
<path fill-rule="evenodd" clip-rule="evenodd" d="M13.22 10.27C13.22 10.27 12.63 10.51 11.81 10.65C11.25 10.74 10.52 10.81 9.61002 10.81C8.74002 10.81 8.04002 10.75 7.50002 10.68C6.63002 10.54 6.19002 10.36 6.02002 10.29C6.04002 10.26 6.05002 10.24 6.06002 10.21C6.54002 10.4 6.98002 10.51 7.51002 10.59C8.04002 10.66 8.74002 10.72 9.60002 10.72C10.51 10.72 11.23 10.64 11.78 10.56C12.63 10.42 13.09 10.25 13.15 10.17L13.21 10.27H13.22ZM13.06 9.96002C12.97 10.03 12.51 10.2 11.71 10.32C11.17 10.4 10.49 10.47 9.62002 10.47C8.79002 10.47 8.12002 10.41 7.60002 10.34C6.78002 10.23 6.35002 10.04 6.19002 9.98002C6.21002 9.95002 6.22002 9.93002 6.24002 9.90002C6.36002 9.96002 6.78002 10.13 7.61002 10.25C8.12002 10.32 8.80002 10.38 9.62002 10.38C10.49 10.38 11.16 10.31 11.7 10.23C12.51 10.12 12.94 9.91002 13.01 9.86002L13.07 9.96002H13.06Z" fill="#FFFF00"/>
<path d="M9.59002 10.82C8.86002 10.82 8.15002 10.78 7.50002 10.69C6.66002 10.56 6.21002 10.37 6.04002 10.3H6.02002V10.29C6.02002 10.28 6.03002 10.27 6.04002 10.26C6.04002 10.24 6.06002 10.23 6.06002 10.21C6.06002 10.21 6.06002 10.21 6.07002 10.21C6.53002 10.39 6.97002 10.51 7.52002 10.59C8.17002 10.68 8.87002 10.72 9.59002 10.72H9.61002C10.35 10.72 11.07 10.67 11.79 10.56C12.63 10.43 13.09 10.25 13.16 10.17L13.22 10.27C13.22 10.27 13.22 10.27 13.22 10.28C13.17 10.34 12.6 10.53 11.8 10.67C11.11 10.77 10.37 10.83 9.60002 10.83C9.60002 10.83 9.59002 10.83 9.58002 10.83L9.59002 10.82ZM6.03002 10.28C6.20002 10.35 6.65002 10.54 7.49002 10.67C8.14002 10.76 8.84002 10.8 9.58002 10.8H9.60002C10.37 10.8 11.11 10.75 11.8 10.64C12.62 10.5 13.15 10.31 13.2 10.27L13.15 10.19C13.06 10.27 12.63 10.44 11.78 10.58C11.05 10.69 10.34 10.74 9.59002 10.74C9.59002 10.74 9.58002 10.74 9.57002 10.74C8.85002 10.74 8.15002 10.69 7.49002 10.61C6.95002 10.53 6.50002 10.41 6.05002 10.23C6.05002 10.24 6.04002 10.26 6.03002 10.27C6.03002 10.27 6.03002 10.29 6.02002 10.29L6.03002 10.28ZM9.59002 10.49C8.86002 10.49 8.17002 10.45 7.59002 10.36C6.87002 10.27 6.45002 10.11 6.25002 10.03C6.22002 10.03 6.20002 10.01 6.18002 10.01C6.20002 9.98003 6.21002 9.96003 6.23002 9.93003C6.23002 9.93003 6.23002 9.93003 6.24002 9.93003C6.31002 9.97003 6.71002 10.15 7.61002 10.28C8.01002 10.34 8.68002 10.4 9.60002 10.4H9.62002C10.56 10.4 11.26 10.32 11.69 10.25C12.46 10.14 12.92 9.94003 12.99 9.88003L13.05 9.98003C12.96 10.05 12.51 10.22 11.69 10.35C11.01 10.45 10.32 10.5 9.60002 10.5C9.60002 10.5 9.59002 10.5 9.58002 10.5L9.59002 10.49ZM6.20002 9.98003C6.20002 9.98003 6.23002 9.99003 6.25002 10C6.45002 10.08 6.87002 10.24 7.59002 10.33C8.18002 10.42 8.88002 10.46 9.61002 10.46C10.33 10.46 11.02 10.41 11.7 10.31C12.49 10.18 12.93 10.03 13.04 9.95003L12.99 9.87003C12.9 9.93003 12.48 10.12 11.69 10.23C11.25 10.29 10.56 10.38 9.61002 10.38C9.61002 10.38 9.60002 10.38 9.59002 10.38C8.67002 10.38 8.00002 10.31 7.60002 10.25C6.74002 10.13 6.33002 9.95003 6.24002 9.90003C6.23002 9.92003 6.22002 9.94003 6.20002 9.96003V9.98003Z" fill="black"/>
<path fill-rule="evenodd" clip-rule="evenodd" d="M5.64 12.23C6.38 12.63 8.04001 12.83 9.60001 12.85C11.02 12.85 12.88 12.63 13.57 12.26L13.55 11.86C13.33 12.2 11.35 12.52 9.58 12.51C7.82 12.5 6.18 12.22 5.63 11.87V12.23" fill="#FFFF00"/>
<path d="M9.62 12.85C9.62 12.85 9.61001 12.85 9.60001 12.85C7.49001 12.83 6.17 12.52 5.63 12.23C5.63 12.23 5.63 12.23 5.63 12.22V11.86C5.63 11.86 5.63 11.86 5.63 11.85C5.63 11.85 5.63 11.85 5.64 11.85C6.19 12.21 7.85 12.47 9.58 12.49C9.61 12.49 9.65 12.49 9.68001 12.49C11.4 12.49 13.33 12.17 13.54 11.84C13.54 11.84 13.54 11.84 13.55 11.84C13.55 11.84 13.55 11.84 13.55 11.85L13.57 12.25C13.57 12.25 13.57 12.25 13.57 12.26C12.87 12.63 11.02 12.85 9.61 12.85H9.62ZM5.65 12.22C6.18 12.5 7.50001 12.81 9.60001 12.83H9.62C11.01 12.83 12.86 12.61 13.56 12.25L13.54 11.89C13.24 12.23 11.32 12.53 9.58 12.52C7.86 12.51 6.22 12.24 5.64 11.89V12.22H5.65Z" fill="black"/>
<path fill-rule="evenodd" clip-rule="evenodd" d="M13.6 12.17V12.27C13.5 12.39 12.84 12.58 12.02 12.72C11.4 12.82 10.58 12.89 9.57002 12.89C8.56002 12.89 7.84002 12.82 7.24002 12.73C6.30002 12.59 5.70002 12.35 5.58002 12.28V12.17C5.94002 12.41 6.93002 12.59 7.26002 12.64C7.85002 12.73 8.61002 12.8 9.57002 12.8C10.58 12.8 11.39 12.73 12.01 12.63C12.6 12.55 13.44 12.32 13.6 12.18V12.17ZM13.61 11.83V11.93C13.51 12.05 12.85 12.24 12.03 12.38C11.41 12.48 10.59 12.55 9.58002 12.55C8.57002 12.55 7.85002 12.48 7.25002 12.39C6.31002 12.25 5.71002 12.01 5.59002 11.94V11.83C5.95002 12.07 6.94002 12.25 7.27002 12.3C7.86002 12.39 8.62002 12.46 9.58002 12.46C10.59 12.46 11.4 12.39 12.02 12.29C12.61 12.21 13.45 11.98 13.61 11.84V11.83Z" fill="#FFFF00"/>
<path d="M9.58002 12.89C8.73002 12.89 7.94002 12.84 7.25002 12.73C6.35002 12.6 5.73002 12.37 5.58002 12.28V12.17C5.58002 12.17 5.58002 12.17 5.58002 12.16C5.58002 12.16 5.58002 12.16 5.59002 12.16C5.95002 12.4 6.96002 12.58 7.26002 12.63C7.95002 12.74 8.72002 12.79 9.57002 12.79C10.47 12.79 11.28 12.73 12.01 12.62C12.59 12.54 13.43 12.32 13.59 12.17C13.59 12.17 13.59 12.17 13.6 12.17C13.6 12.17 13.6 12.17 13.6 12.18V12.28C13.49 12.41 12.83 12.6 12.02 12.73C11.29 12.84 10.47 12.9 9.57002 12.9L9.58002 12.89ZM5.60002 12.26C5.71002 12.32 6.29002 12.56 7.25002 12.7C7.94002 12.81 8.72002 12.86 9.57002 12.86C10.47 12.86 11.29 12.8 12.02 12.69C12.81 12.56 13.48 12.38 13.59 12.25V12.18C13.39 12.33 12.58 12.54 12.01 12.62C11.29 12.73 10.47 12.79 9.57002 12.79C8.72002 12.79 7.94002 12.74 7.26002 12.63C6.96002 12.58 5.98002 12.41 5.60002 12.17V12.25V12.26ZM9.58002 12.55C8.73002 12.55 7.94002 12.5 7.25002 12.39C6.35002 12.26 5.73002 12.03 5.58002 11.94V11.83C5.58002 11.83 5.58002 11.83 5.58002 11.82C5.58002 11.82 5.58002 11.82 5.59002 11.82C5.95002 12.06 6.96002 12.24 7.26002 12.29C7.95002 12.4 8.72002 12.45 9.57002 12.45C10.47 12.45 11.28 12.39 12.01 12.28C12.59 12.2 13.43 11.98 13.59 11.83V11.93C13.48 12.06 12.82 12.25 12.01 12.38C11.28 12.49 10.46 12.55 9.56002 12.55H9.58002ZM5.60002 11.92C5.71002 11.98 6.29002 12.22 7.25002 12.36C7.94002 12.47 8.72002 12.52 9.57002 12.52C10.47 12.52 11.29 12.46 12.02 12.35C12.81 12.22 13.48 12.04 13.59 11.91V11.84C13.39 11.99 12.58 12.2 12.01 12.28C11.29 12.39 10.47 12.45 9.57002 12.45C8.72002 12.45 7.94002 12.4 7.26002 12.29C6.96002 12.24 5.98002 12.07 5.60002 11.83V11.91V11.92Z" fill="black"/>
<path fill-rule="evenodd" clip-rule="evenodd" d="M9.59004 14.41C7.88004 14.4 6.41004 13.94 6.10004 13.87L6.33004 14.22C6.88004 14.45 8.31004 14.79 9.61004 14.75C10.91 14.71 12.05 14.61 12.85 14.22L13.08 13.85C12.53 14.11 10.68 14.4 9.59004 14.4" fill="#FFFF00"/>
<path d="M9.41004 14.77C8.18004 14.77 6.87004 14.46 6.33004 14.23L6.10004 13.88C6.10004 13.88 6.10004 13.88 6.10004 13.87C6.10004 13.87 6.10004 13.87 6.11004 13.87C6.15004 13.87 6.20004 13.89 6.27004 13.91C6.77004 14.04 8.09004 14.4 9.60004 14.41C10.69 14.41 12.54 14.12 13.08 13.86H13.09C13.09 13.86 13.09 13.86 13.09 13.87L12.86 14.24C12.02 14.65 10.81 14.73 9.62004 14.77C9.55004 14.77 9.49004 14.77 9.42004 14.77H9.41004ZM6.34004 14.22C6.91004 14.46 8.33004 14.79 9.61004 14.75C10.8 14.72 12.01 14.63 12.84 14.22L13.05 13.89C12.47 14.14 10.66 14.42 9.60004 14.42C8.09004 14.42 6.77004 14.05 6.27004 13.92C6.22004 13.91 6.17004 13.89 6.14004 13.89L6.35004 14.22H6.34004Z" fill="black"/>
<path fill-rule="evenodd" clip-rule="evenodd" d="M12.93 14.15C12.9 14.2 12.86 14.25 12.83 14.3C12.45 14.43 11.86 14.57 11.61 14.61C11.1 14.72 10.3 14.79 9.60003 14.79C8.08003 14.77 6.84003 14.47 6.26003 14.22L6.21003 14.14L6.29003 14.16C7.33003 14.53 8.49003 14.68 9.60003 14.71C10.3 14.71 11 14.63 11.57 14.53C12.44 14.36 12.79 14.22 12.9 14.16L12.93 14.14V14.15ZM13.13 13.82C13.1 13.86 13.08 13.91 13.05 13.95C12.85 14.02 12.3 14.18 11.5 14.29C10.97 14.36 10.65 14.43 9.60003 14.45C7.64003 14.4 6.37003 14.02 6.07003 13.92L6.03003 13.83C7.17003 14.13 8.33003 14.33 9.61003 14.35C10.57 14.33 10.97 14.26 11.5 14.19C12.43 14.05 12.9 13.89 13.04 13.85L13.14 13.81L13.13 13.82Z" fill="#FFFF00"/>
<path d="M9.59003 14.81C8.04003 14.79 6.82003 14.49 6.25003 14.24L6.20003 14.16C6.20003 14.16 6.20003 14.16 6.20003 14.15C6.20003 14.15 6.20003 14.13 6.21003 14.13L6.29003 14.16C7.22003 14.49 8.33003 14.67 9.59003 14.71C9.60003 14.71 9.61003 14.71 9.62003 14.71C10.38 14.71 11.09 14.61 11.56 14.53C12.53 14.34 12.82 14.2 12.89 14.17L12.92 14.15C12.92 14.15 12.92 14.15 12.93 14.15C12.93 14.15 12.93 14.15 12.93 14.16C12.89 14.21 12.86 14.27 12.83 14.31C12.45 14.44 11.86 14.58 11.6 14.62C11.07 14.73 10.26 14.8 9.59003 14.8V14.81ZM6.26003 14.22C7.12003 14.59 8.55003 14.77 9.59003 14.79C10.26 14.79 11.07 14.72 11.6 14.61C11.86 14.57 12.44 14.43 12.82 14.3C12.84 14.26 12.87 14.23 12.9 14.19C12.81 14.23 12.5 14.36 11.58 14.55C11.11 14.63 10.4 14.73 9.64003 14.73C9.63003 14.73 9.62003 14.73 9.61003 14.73C8.34003 14.7 7.23003 14.52 6.30003 14.18L6.23003 14.15L6.27003 14.22H6.26003ZM9.61003 14.47C7.86003 14.43 6.64003 14.12 6.07003 13.94L6.03003 13.85C6.03003 13.85 6.03003 13.85 6.03003 13.84C6.03003 13.84 6.03003 13.84 6.04003 13.84C7.34003 14.18 8.47003 14.35 9.61003 14.36C10.46 14.34 10.88 14.28 11.33 14.22C11.38 14.22 11.44 14.2 11.5 14.2C12.4 14.06 12.87 13.91 13.02 13.86L13.12 13.82H13.13V13.83C13.1 13.87 13.08 13.92 13.05 13.96C12.78 14.06 12.21 14.2 11.5 14.3C11.42 14.31 11.35 14.32 11.28 14.33C10.86 14.39 10.49 14.44 9.60003 14.46L9.61003 14.47ZM6.09003 13.92C6.66003 14.1 7.87003 14.4 9.61003 14.45C10.5 14.43 10.86 14.38 11.28 14.32C11.35 14.31 11.43 14.3 11.5 14.29C12.21 14.19 12.77 14.04 13.04 13.95C13.06 13.91 13.08 13.88 13.1 13.84L13.04 13.86H13.02C12.87 13.91 12.39 14.06 11.49 14.2C11.43 14.2 11.38 14.22 11.32 14.22C10.87 14.28 10.45 14.34 9.60003 14.36C8.47003 14.34 7.33003 14.18 6.04003 13.84L6.07003 13.9L6.09003 13.92Z" fill="black"/>
<path fill-rule="evenodd" clip-rule="evenodd" d="M13.15 11.91C13.15 13.04 12.58 14.05 12.12 14.49C11.46 15.12 10.59 15.53 9.58 15.54C8.45 15.56 7.38 14.82 7.09 14.5C6.53 13.86 6.07 13.06 6.06 11.97C6.13 10.74 6.61 9.89 7.31 9.3C8.01 8.71 8.94 8.43 9.71 8.45C10.6 8.47 11.65 8.91 12.37 9.78C12.84 10.35 13.05 10.97 13.16 11.91H13.15ZM9.59 8.06C11.77 8.06 13.56 9.83 13.56 12.01C13.56 14.19 11.77 15.96 9.59 15.96C7.41 15.96 5.63 14.19 5.63 12.01C5.63 9.83 7.41 8.06 9.59 8.06Z" fill="#FFFF00"/>
<path d="M9.59 15.96C7.4 15.96 5.62 14.18 5.62 12C5.62 9.82001 7.4 8.04001 9.59 8.04001C10.65 8.04001 11.65 8.45001 12.4 9.20001C13.16 9.95001 13.57 10.94 13.57 12C13.57 13.06 13.15 14.05 12.4 14.8C11.65 15.55 10.65 15.96 9.59 15.96ZM9.59 8.07001C7.41 8.07001 5.64 9.84001 5.64 12.01C5.64 14.18 7.41 15.95 9.59 15.95C10.64 15.95 11.63 15.54 12.39 14.79C13.14 14.04 13.56 13.06 13.56 12.01C13.56 10.96 13.15 9.97001 12.39 9.23001C11.64 8.48001 10.65 8.07001 9.59 8.07001ZM9.52999 15.56C8.37 15.56 7.33 14.8 7.08 14.51C6.4 13.74 6.06 12.91 6.04 11.97C6.1 10.84 6.53 9.94001 7.29 9.29001C7.94 8.74001 8.87 8.41001 9.7 8.44001C10.68 8.47001 11.71 8.98001 12.37 9.78001C12.82 10.33 13.04 10.93 13.16 11.91C13.16 13 12.63 14.02 12.12 14.5C11.42 15.17 10.54 15.54 9.56999 15.56C9.54999 15.56 9.54 15.56 9.52 15.56H9.52999ZM9.63 8.46001C8.82 8.46001 7.94 8.78001 7.31 9.31001C6.55 9.95001 6.13 10.85 6.06 11.97C6.07 12.9 6.41 13.72 7.09 14.49C7.34 14.77 8.37 15.53 9.52 15.53C9.54 15.53 9.54999 15.53 9.56999 15.53C10.53 15.51 11.41 15.15 12.11 14.48C12.61 14 13.15 12.99 13.14 11.91C13.03 10.93 12.81 10.33 12.36 9.79001C11.7 9.00001 10.69 8.49001 9.71 8.46001C9.68 8.46001 9.66 8.46001 9.63 8.46001Z" fill="black"/>
<path fill-rule="evenodd" clip-rule="evenodd" d="M9.60002 8.04001C11.78 8.04001 13.56 9.82001 13.56 12C13.56 14.18 11.78 15.96 9.60002 15.96C7.42002 15.96 5.64001 14.18 5.64001 12C5.64001 9.82001 7.42002 8.04001 9.60002 8.04001ZM5.72001 12C5.72001 14.13 7.47002 15.87 9.59001 15.87C11.71 15.87 13.46 14.13 13.46 12C13.46 9.87001 11.71 8.13001 9.59001 8.13001C7.47002 8.13001 5.72001 9.87001 5.72001 12Z" fill="#FFFF00"/>
<path d="M9.60001 15.98C7.41001 15.98 5.63 14.2 5.63 12.01C5.63 9.82001 7.41001 8.04001 9.60001 8.04001C11.79 8.04001 13.57 9.82001 13.57 12.01C13.57 14.2 11.79 15.98 9.60001 15.98ZM9.60001 8.05001C7.42001 8.05001 5.65 9.82001 5.65 12C5.65 14.18 7.42001 15.95 9.60001 15.95C11.78 15.95 13.55 14.18 13.55 12C13.55 9.82001 11.78 8.05001 9.60001 8.05001ZM9.60001 15.89C8.57001 15.89 7.6 15.48 6.86 14.75C6.12 14.01 5.72 13.04 5.72 12.01C5.72 10.98 6.13 10 6.86 9.27001C7.6 8.53001 8.57001 8.13001 9.60001 8.13001C10.63 8.13001 11.6 8.54001 12.34 9.27001C13.08 10.01 13.48 10.98 13.48 12.01C13.48 13.04 13.07 14.02 12.34 14.75C11.6 15.49 10.63 15.89 9.60001 15.89ZM9.60001 8.14001C8.58001 8.14001 7.61 8.54001 6.88 9.27001C6.15 10 5.74 10.97 5.74 12C5.74 13.03 6.14 14 6.88 14.73C7.61 15.46 8.58001 15.86 9.60001 15.86C10.62 15.86 11.59 15.46 12.33 14.73C13.06 14 13.47 13.03 13.47 12C13.47 10.97 13.07 10 12.33 9.27001C11.6 8.54001 10.63 8.14001 9.60001 8.14001Z" fill="black"/>
<path fill-rule="evenodd" clip-rule="evenodd" d="M9.60003 8.37003C11.59 8.37003 13.23 10 13.23 12C13.23 14 11.59 15.63 9.60003 15.63C7.61003 15.63 5.97003 14 5.97003 12C5.97003 10 7.61003 8.37003 9.60003 8.37003ZM6.06003 12C6.06003 13.95 7.66003 15.54 9.60003 15.54C11.54 15.54 13.14 13.95 13.14 12C13.14 10.05 11.54 8.46003 9.60003 8.46003C7.66003 8.46003 6.06003 10.05 6.06003 12Z" fill="#FFFF00"/>
<path d="M9.60002 15.64C8.63002 15.64 7.72002 15.26 7.03002 14.57C6.34002 13.88 5.96002 12.97 5.96002 12C5.96002 11.03 6.34002 10.12 7.03002 9.43002C7.72002 8.74002 8.63002 8.36002 9.60002 8.36002C10.57 8.36002 11.48 8.74002 12.17 9.43002C12.86 10.12 13.24 11.03 13.24 12C13.24 12.97 12.86 13.88 12.17 14.57C11.48 15.26 10.57 15.64 9.60002 15.64ZM9.60002 8.38002C8.64002 8.38002 7.73002 8.76002 7.05002 9.44002C6.36002 10.13 5.99002 11.03 5.99002 11.99C5.99002 12.95 6.37002 13.86 7.05002 14.54C7.74002 15.23 8.64002 15.6 9.60002 15.6C10.56 15.6 11.47 15.22 12.15 14.54C12.84 13.85 13.21 12.95 13.21 11.99C13.21 11.03 12.83 10.12 12.15 9.44002C11.46 8.75002 10.56 8.38002 9.60002 8.38002ZM9.60002 15.55C8.66002 15.55 7.77002 15.18 7.09002 14.51C6.42002 13.84 6.04002 12.95 6.04002 12C6.04002 11.05 6.41002 10.16 7.09002 9.49002C7.76002 8.82002 8.65002 8.45002 9.60002 8.45002C10.55 8.45002 11.43 8.82002 12.11 9.49002C12.78 10.16 13.16 11.05 13.16 12C13.16 12.95 12.79 13.84 12.11 14.51C11.44 15.18 10.55 15.55 9.60002 15.55ZM9.60002 8.47002C8.66002 8.47002 7.78002 8.84002 7.11002 9.51002C6.44002 10.18 6.07002 11.06 6.07002 12C6.07002 12.94 6.44002 13.82 7.11002 14.49C7.78002 15.16 8.66002 15.53 9.60002 15.53C10.54 15.53 11.42 15.16 12.09 14.49C12.76 13.82 13.13 12.94 13.13 12C13.13 11.06 12.76 10.18 12.09 9.51002C11.42 8.84002 10.54 8.47002 9.60002 8.47002Z" fill="black"/>
<path fill-rule="evenodd" clip-rule="evenodd" d="M9.76004 8.03H9.42004V15.99H9.76004V8.03Z" fill="#FFFF00"/>
<path d="M9.76003 16H9.42003C9.42003 16 9.41003 16 9.41003 15.99V8.03H9.75003C9.75003 8.03 9.76003 8.03 9.76003 8.04V16ZM9.43003 15.97H9.75003V8.03H9.43003V15.97Z" fill="black"/>
<path fill-rule="evenodd" clip-rule="evenodd" d="M9.73001 7.98001H9.82001V16.03H9.73001V7.98001ZM9.39001 7.98001H9.48001V16.03H9.39001V7.98001Z" fill="#FFFF00"/>
<path d="M9.48 16.04H9.39001C9.39001 16.04 9.38 16.04 9.38 16.03V7.98C9.38 7.98 9.38001 7.97 9.39001 7.97H9.48C9.48 7.97 9.49 7.97 9.49 7.98V16.03L9.48 16.04ZM9.4 16.02H9.46V7.99H9.4V16.02ZM9.81001 16.04H9.72001C9.72001 16.04 9.71 16.04 9.71 16.03V7.98H9.8C9.8 7.98 9.81001 7.98 9.81001 7.99V16.04ZM9.74 16.02H9.8V7.99H9.74V16.02Z" fill="black"/>
<path fill-rule="evenodd" clip-rule="evenodd" d="M13.56 12.16V11.87L13.32 11.65L11.96 11.29L10 11.09L7.64 11.21L5.96 11.61L5.62 11.86V12.15L6.48 11.76L8.52 11.44H10.48L11.92 11.6L12.92 11.84L13.56 12.16Z" fill="#FFFF00"/>
<path d="M13.56 12.17L12.92 11.85L11.92 11.61L10.48 11.45H8.51999L6.47999 11.77L5.61999 12.15C5.61999 12.15 5.61999 12.15 5.60999 12.15V11.86L5.94999 11.61L7.62999 11.21L9.98998 11.09L11.95 11.29L13.31 11.65L13.55 11.87V12.16L13.56 12.17ZM10.48 11.43L11.92 11.59L12.92 11.83L13.55 12.14V11.87L13.32 11.65L11.96 11.29L9.99999 11.09L7.63999 11.21L5.95999 11.61L5.62999 11.86V12.13L6.46999 11.75L8.50999 11.43H10.47H10.48Z" fill="black"/>
<path fill-rule="evenodd" clip-rule="evenodd" d="M9.60001 11.39C10.54 11.39 11.44 11.48 12.16 11.62C12.9 11.77 13.43 11.95 13.6 12.16V12.26C13.38 12 12.68 11.81 12.14 11.7C11.43 11.56 10.52 11.47 9.59001 11.47C8.61001 11.47 7.69001 11.56 6.99001 11.7C6.43001 11.81 5.67001 12.03 5.58001 12.25V12.14C5.63001 11.99 6.19001 11.76 6.98001 11.6C7.69001 11.46 8.60001 11.37 9.59001 11.37L9.60001 11.39ZM9.60001 11.05C10.54 11.05 11.44 11.14 12.16 11.28C12.9 11.43 13.43 11.61 13.6 11.82V11.92C13.38 11.66 12.68 11.47 12.14 11.36C11.43 11.22 10.52 11.13 9.59001 11.13C8.61001 11.13 7.70001 11.22 6.99001 11.36C6.44001 11.46 5.66001 11.69 5.57001 11.91V11.8C5.62001 11.65 6.19001 11.41 6.97001 11.26C7.68001 11.12 8.59001 11.03 9.58001 11.03L9.60001 11.05Z" fill="#FFFF00"/>
<path d="M5.59003 12.28C5.59003 12.28 5.59003 12.28 5.59003 12.27V12.16C5.65003 12 6.24003 11.77 7.00003 11.62C7.76003 11.47 8.69003 11.39 9.61003 11.39C9.61003 11.39 9.63003 11.39 9.64003 11.39C10.52 11.39 11.42 11.47 12.18 11.62C12.96 11.78 13.46 11.96 13.63 12.17V12.27C13.63 12.27 13.63 12.27 13.63 12.28C13.63 12.28 13.63 12.28 13.62 12.28C13.39 12.01 12.61 11.81 12.17 11.73C11.42 11.58 10.52 11.5 9.65003 11.5H9.62003C8.70003 11.5 7.78003 11.58 7.02003 11.73C6.40003 11.85 5.70003 12.08 5.62003 12.28C5.62003 12.28 5.62003 12.28 5.61003 12.28H5.59003ZM9.62003 11.47C10.49 11.47 11.39 11.55 12.14 11.7C12.58 11.79 13.33 11.97 13.59 12.24V12.17C13.42 11.97 12.92 11.79 12.16 11.63C11.39 11.48 10.49 11.4 9.60003 11.4C8.67003 11.4 7.75003 11.48 6.99003 11.63C6.36003 11.76 5.66003 11.98 5.60003 12.16V12.22C5.77003 11.99 6.54003 11.79 7.00003 11.7C7.76003 11.55 8.68003 11.47 9.60003 11.47C9.60003 11.47 9.62003 11.47 9.63003 11.47H9.62003ZM5.59003 11.94C5.59003 11.94 5.59003 11.94 5.59003 11.93V11.82C5.65003 11.66 6.25003 11.42 7.00003 11.28C7.76003 11.13 8.69003 11.05 9.61003 11.05C9.61003 11.05 9.63003 11.05 9.64003 11.05C10.52 11.05 11.42 11.13 12.18 11.28C12.96 11.44 13.46 11.62 13.63 11.83V11.93C13.63 11.93 13.63 11.93 13.63 11.94C13.63 11.94 13.63 11.94 13.62 11.94C13.39 11.67 12.61 11.47 12.17 11.39C11.42 11.24 10.53 11.16 9.65003 11.16H9.62003C8.71003 11.16 7.79003 11.24 7.03003 11.39C6.41003 11.51 5.70003 11.74 5.62003 11.94C5.62003 11.94 5.62003 11.94 5.61003 11.94H5.59003ZM9.63003 11.13C10.5 11.13 11.4 11.21 12.15 11.36C12.59 11.45 13.34 11.63 13.6 11.9V11.83C13.43 11.63 12.93 11.45 12.17 11.29C11.41 11.14 10.51 11.06 9.64003 11.06H9.61003C8.68003 11.06 7.76003 11.14 7.00003 11.29C6.19003 11.45 5.66003 11.68 5.61003 11.82V11.88C5.77003 11.66 6.52003 11.45 7.01003 11.36C7.77003 11.21 8.69003 11.13 9.61003 11.13C9.61003 11.13 9.63003 11.13 9.64003 11.13H9.63003Z" fill="black"/>
<path fill-rule="evenodd" clip-rule="evenodd" d="M9.57999 9.32001C11.05 9.32001 12.34 9.53001 12.93 9.83001L13.14 10.2C12.63 9.92001 11.24 9.64001 9.57999 9.68001C8.22999 9.68001 6.77999 9.83001 6.04999 10.22L6.30999 9.79001C6.90999 9.48001 8.30999 9.32001 9.57999 9.32001Z" fill="#FFFF00"/>
<path d="M6.04999 10.23C6.04999 10.23 6.04999 10.23 6.04999 10.22L6.30999 9.79001C6.92999 9.47001 8.39999 9.32001 9.57999 9.32001C11 9.32001 12.32 9.51001 12.93 9.83001L13.14 10.2V10.21C13.14 10.21 13.14 10.21 13.13 10.21C12.59 9.92001 11.2 9.65001 9.57999 9.69001C7.35999 9.70001 6.41999 10.03 6.05999 10.23H6.04999ZM6.31999 9.79001L6.08999 10.18C6.47999 9.98001 7.42999 9.67001 9.58999 9.66001C11.18 9.62001 12.56 9.88001 13.12 10.16L12.93 9.83001C12.31 9.52001 11 9.32001 9.58999 9.33001C8.40999 9.33001 6.94999 9.48001 6.32999 9.79001H6.31999Z" fill="black"/>
<path fill-rule="evenodd" clip-rule="evenodd" d="M9.60003 9.62001C10.44 9.62001 11.25 9.67001 11.9 9.78001C12.5 9.89001 13.08 10.06 13.16 10.15L13.22 10.26C13.02 10.13 12.52 9.98001 11.89 9.86001C11.25 9.74001 10.44 9.70001 9.60003 9.70001C8.65003 9.70001 7.91003 9.75001 7.28003 9.86001C6.61003 9.99001 6.15003 10.16 6.03003 10.25L6.09003 10.13C6.31003 10.02 6.67003 9.88001 7.26003 9.77001C7.91003 9.65001 8.66003 9.61001 9.60003 9.61001V9.62001ZM9.60003 9.29001C10.4 9.29001 11.2 9.33001 11.82 9.44001C12.31 9.54001 12.79 9.68001 12.97 9.82001L13.06 9.97001C12.9 9.79001 12.31 9.63001 11.78 9.53001C11.17 9.42001 10.4 9.38001 9.60003 9.38001C8.76003 9.38001 7.98003 9.43001 7.37003 9.54001C6.79003 9.65001 6.42003 9.78001 6.26003 9.88001L6.34003 9.76001C6.56003 9.65001 6.91003 9.54001 7.35003 9.45001C7.96003 9.34001 8.75003 9.29001 9.59003 9.29001H9.60003Z" fill="#FFFF00"/>
<path d="M13.22 10.28C13.02 10.15 12.54 10.01 11.89 9.89001C11.32 9.78001 10.55 9.73001 9.60003 9.73001C8.65003 9.73001 7.92003 9.78001 7.28003 9.89001C6.61003 10.01 6.15003 10.19 6.04003 10.28H6.03003C6.03003 10.28 6.03003 10.28 6.03003 10.27L6.09003 10.15C6.39003 10 6.77003 9.88001 7.26003 9.79001C7.85003 9.68001 8.53003 9.64001 9.60003 9.63001C9.60003 9.63001 9.64003 9.63001 9.66003 9.63001C10.54 9.63001 11.32 9.69001 11.91 9.79001C12.52 9.90001 13.09 10.07 13.17 10.16L13.24 10.27V10.28H13.22ZM9.66003 9.70001C10.58 9.70001 11.33 9.75001 11.89 9.86001C12.5 9.98001 12.97 10.11 13.19 10.24L13.15 10.17C13.07 10.08 12.5 9.92001 11.9 9.81001C11.3 9.70001 10.51 9.65001 9.60003 9.65001C8.53003 9.65001 7.86003 9.70001 7.27003 9.81001C6.79003 9.90001 6.41003 10.01 6.11003 10.16L6.07003 10.24C6.23003 10.15 6.67003 9.99001 7.29003 9.87001C7.92003 9.76001 8.66003 9.71001 9.61003 9.71001C9.63003 9.71001 9.65003 9.71001 9.67003 9.71001L9.66003 9.70001ZM13.06 9.97001C12.9 9.79001 12.27 9.62001 11.79 9.54001C11.23 9.44001 10.52 9.39001 9.61003 9.39001C8.73003 9.39001 7.96003 9.45001 7.38003 9.55001C6.87003 9.65001 6.46003 9.77001 6.28003 9.89001H6.27003C6.27003 9.89001 6.27003 9.89001 6.27003 9.88001L6.35003 9.76001C6.57003 9.65001 6.92003 9.54001 7.37003 9.45001C7.95003 9.35001 8.72003 9.29001 9.62003 9.29001C10.5 9.29001 11.27 9.34001 11.84 9.44001C12.36 9.54001 12.83 9.69001 12.99 9.82001L13.08 9.97001C13.08 9.97001 13.08 9.98001 13.08 9.99001L13.06 9.97001ZM9.60003 9.36001C10.51 9.36001 11.22 9.42001 11.78 9.51001C12.22 9.59001 12.78 9.73001 13.01 9.90001L12.96 9.82001C12.8 9.70001 12.34 9.55001 11.82 9.45001C11.25 9.35001 10.48 9.29001 9.60003 9.30001C8.71003 9.30001 7.93003 9.36001 7.36003 9.46001C6.92003 9.55001 6.57003 9.65001 6.35003 9.76001L6.30003 9.84001C6.50003 9.73001 6.89003 9.61001 7.37003 9.52001C7.95003 9.41001 8.72003 9.36001 9.60003 9.36001Z" fill="black"/>
<path fill-rule="evenodd" clip-rule="evenodd" d="M11.57 13.65C10.84 13.51 10.11 13.49 9.60001 13.5C7.14001 13.53 6.35001 14 6.25001 14.15L6.07001 13.85C6.70001 13.4 8.03001 13.14 9.61001 13.17C10.43 13.18 11.14 13.24 11.73 13.35L11.56 13.65" fill="#FFFF00"/>
<path d="M6.25001 14.16L6.07001 13.86C6.07001 13.86 6.07001 13.85 6.07001 13.84C6.70001 13.39 8.02001 13.13 9.62001 13.16C10.49 13.17 11.18 13.23 11.75 13.34C11.75 13.34 11.75 13.34 11.75 13.35L11.58 13.65C11.58 13.65 11.58 13.65 11.57 13.65C10.99 13.54 10.33 13.49 9.60001 13.5C7.21001 13.53 6.37001 13.99 6.26001 14.14L6.25001 14.16ZM6.08001 13.85L6.25001 14.13C6.31001 14.05 6.54001 13.91 7.03001 13.77C7.66001 13.6 8.55001 13.5 9.59001 13.49C10.32 13.49 10.98 13.53 11.55 13.64L11.71 13.36C11.15 13.25 10.46 13.19 9.60001 13.18C8.02001 13.15 6.70001 13.41 6.07001 13.85H6.08001Z" fill="black"/>
<path fill-rule="evenodd" clip-rule="evenodd" d="M9.58002 13.46C10.26 13.47 10.93 13.5 11.58 13.62L11.53 13.7C10.93 13.59 10.29 13.55 9.58002 13.55C8.67002 13.55 7.76002 13.63 6.96002 13.86C6.71002 13.93 6.29002 14.09 6.25002 14.23L6.20002 14.15C6.21002 14.07 6.47002 13.91 6.94002 13.77C7.85002 13.51 8.71002 13.46 9.58002 13.46ZM9.61002 13.11C10.32 13.12 11.05 13.16 11.76 13.3L11.71 13.39C11.07 13.26 10.46 13.22 9.61002 13.21C8.70002 13.21 7.74002 13.28 6.86002 13.53C6.58002 13.61 6.09002 13.79 6.07002 13.93L6.02002 13.85C6.03002 13.72 6.45002 13.55 6.83002 13.44C7.71002 13.18 8.68002 13.12 9.60002 13.12L9.61002 13.11Z" fill="#FFFF00"/>
<path d="M6.25003 14.23L6.20003 14.15C6.22003 14.06 6.48003 13.9 6.94003 13.77C7.81003 13.52 8.63003 13.46 9.58003 13.46C10.23 13.46 10.92 13.5 11.58 13.62C11.58 13.62 11.58 13.62 11.58 13.63L11.53 13.71C11.53 13.71 11.53 13.71 11.52 13.71C10.95 13.61 10.32 13.56 9.57003 13.56C8.57003 13.56 7.69003 13.66 6.95003 13.87C6.68003 13.94 6.29003 14.11 6.25003 14.23ZM6.22003 14.14L6.25003 14.2C6.33003 14.07 6.72003 13.91 6.96003 13.85C7.70003 13.64 8.58003 13.54 9.58003 13.54C10.32 13.54 10.96 13.59 11.53 13.69L11.57 13.63C10.91 13.51 10.23 13.48 9.59003 13.47C8.64003 13.47 7.82003 13.53 6.95003 13.78C6.48003 13.91 6.24003 14.07 6.22003 14.14ZM6.08003 13.94L6.03003 13.86C6.04003 13.69 6.66003 13.5 6.85003 13.44C7.61003 13.22 8.49003 13.12 9.62003 13.11C10.31 13.12 11.05 13.15 11.77 13.3L11.72 13.39C11.72 13.39 11.72 13.39 11.71 13.39C11.03 13.25 10.38 13.22 9.62003 13.21C8.49003 13.21 7.62003 13.31 6.87003 13.53C6.50003 13.64 6.10003 13.81 6.09003 13.92L6.08003 13.94ZM6.04003 13.84L6.07003 13.9C6.15003 13.73 6.78003 13.54 6.86003 13.52C7.61003 13.3 8.48003 13.2 9.61003 13.2C10.37 13.21 11.02 13.25 11.7 13.38L11.74 13.31C11.03 13.17 10.29 13.14 9.61003 13.13C8.48003 13.13 7.60003 13.24 6.85003 13.45C6.37003 13.59 6.06003 13.74 6.04003 13.84Z" fill="black"/>
<path fill-rule="evenodd" clip-rule="evenodd" d="M13.1 13.9L12.8 14.36L11.95 13.61L9.74998 12.13L7.26998 10.77L5.97998 10.33L6.24998 9.81999L6.33998 9.76999L7.13998 9.96999L9.77998 11.33L11.3 12.29L12.58 13.21L13.1 13.81L13.08 13.91L13.1 13.9Z" fill="#FFFF00"/>
<path d="M12.81 14.36L11.96 13.61L9.75999 12.13L7.27999 10.77L5.98999 10.33L6.25999 9.81999L6.34999 9.76999L7.14999 9.96999L9.78999 11.33L11.31 12.29L12.59 13.21L13.11 13.81L13.09 13.91L12.79 14.37L12.81 14.36ZM6.00999 10.31L7.27999 10.75L9.75999 12.11L11.96 13.59L12.8 14.34L13.09 13.9L13.11 13.81L12.59 13.21L11.31 12.29L9.78999 11.33L7.14999 9.96999L6.35999 9.76999L6.26999 9.81999L5.99999 10.31H6.00999Z" fill="black"/>
<path fill-rule="evenodd" clip-rule="evenodd" d="M5.95002 10.33C6.18002 10.18 7.84002 10.92 9.57002 11.96C11.3 13.01 12.96 14.2 12.81 14.42L12.76 14.5L12.74 14.52C12.74 14.52 12.77 14.49 12.74 14.4C12.67 14.16 11.49 13.22 9.54002 12.04C7.64002 10.91 6.06002 10.23 5.90002 10.42L5.95002 10.32V10.33ZM13.16 13.89C13.3 13.61 11.76 12.45 9.85002 11.32C7.90002 10.21 6.49002 9.56002 6.23002 9.76002L6.17002 9.86002C6.17002 9.86002 6.17002 9.86002 6.18002 9.84002C6.23002 9.80002 6.30002 9.80002 6.34002 9.80002C6.78002 9.80002 8.05002 10.39 9.82002 11.41C10.6 11.86 13.1 13.47 13.09 13.92C13.09 13.96 13.09 13.97 13.08 13.99L13.14 13.89H13.16Z" fill="#FFFF00"/>
<path d="M12.73 14.53C12.73 14.53 12.73 14.52 12.73 14.51C12.73 14.51 12.75 14.48 12.73 14.41C12.65 14.16 11.41 13.19 9.54001 12.06C7.55001 10.87 6.06001 10.26 5.91001 10.44C5.91001 10.44 5.90001 10.44 5.89001 10.44C5.89001 10.44 5.89001 10.44 5.89001 10.43L5.94001 10.33C6.18001 10.17 7.84001 10.92 9.57001 11.96C11.13 12.91 12.75 14.04 12.82 14.37C12.82 14.4 12.82 14.42 12.82 14.43L12.77 14.51L12.75 14.53H12.73ZM6.00001 10.38C6.44001 10.38 7.91001 11.06 9.54001 12.03C11.44 13.18 12.66 14.13 12.74 14.39C12.75 14.42 12.76 14.45 12.76 14.47L12.8 14.41C12.8 14.41 12.8 14.38 12.8 14.36C12.73 14.04 11.08 12.88 9.56002 11.96C7.87002 10.94 6.19001 10.18 5.95001 10.32L5.92001 10.38C5.92001 10.38 5.97001 10.37 6.00001 10.37V10.38ZM13.1 14C13.1 14 13.1 13.99 13.1 13.98C13.1 13.98 13.1 13.95 13.1 13.93C13.1 13.47 10.56 11.84 9.83001 11.41C8.06001 10.4 6.80001 9.81001 6.36001 9.81001C6.36001 9.81001 6.26001 9.81001 6.22001 9.85001C6.22001 9.85001 6.22001 9.86001 6.21001 9.86001C6.21001 9.86001 6.21001 9.86001 6.20001 9.86001C6.20001 9.86001 6.20001 9.86001 6.20001 9.85001L6.26002 9.75001C6.57002 9.52001 8.40002 10.47 9.89002 11.31C11.61 12.33 13.36 13.58 13.2 13.9L13.14 13.99C13.14 13.99 13.14 13.99 13.14 14H13.1ZM6.36001 9.79001C6.81001 9.79001 8.08002 10.38 9.85002 11.4C10.36 11.7 13.14 13.43 13.13 13.92L13.16 13.88C13.29 13.62 11.84 12.5 9.86001 11.32C7.77001 10.14 6.50002 9.58001 6.26002 9.75001L6.23001 9.80001C6.23001 9.80001 6.33001 9.78001 6.36001 9.78001V9.79001Z" fill="black"/>
<path d="M7.22003 12.44C7.22003 13.09 7.49003 13.68 7.92003 14.11C8.35003 14.54 8.94003 14.81 9.59003 14.81C10.24 14.81 10.84 14.54 11.27 14.11C11.7 13.68 11.97 13.09 11.97 12.43V9.26001H7.22003V12.43V12.44Z" fill="white"/>
<path d="M9.59002 14.83C8.96002 14.83 8.37002 14.58 7.91002 14.12C7.46002 13.67 7.21002 13.07 7.21002 12.44V9.27002H7.22002H11.97H11.98V12.45C11.98 13.09 11.73 13.68 11.28 14.13C10.83 14.58 10.23 14.83 9.59002 14.83ZM7.24002 12.44C7.24002 13.06 7.49002 13.65 7.93002 14.1C8.38002 14.55 8.97002 14.8 9.59002 14.8C10.21 14.8 10.81 14.55 11.26 14.11C11.71 13.66 11.95 13.07 11.95 12.44V9.29002H7.23002V12.44H7.24002Z" fill="black"/>
<path d="M7.31006 12.44C7.31006 13.06 7.57006 13.63 7.98006 14.04C8.39006 14.45 8.96006 14.71 9.59006 14.71C10.2201 14.71 10.7901 14.46 11.2001 14.04C11.6101 13.63 11.8701 13.06 11.8701 12.44V9.37H7.32006V12.44M10.9501 10.29V12.25V12.46C10.9501 12.51 10.9501 12.58 10.9501 12.63C10.9101 12.94 10.7701 13.21 10.5601 13.42C10.3101 13.67 9.97006 13.82 9.60006 13.82C9.23006 13.82 8.89006 13.66 8.65006 13.42C8.40006 13.17 8.25006 12.82 8.25006 12.46V10.3H10.9701L10.9501 10.29Z" fill="#FF0000"/>
<path d="M9.59005 14.73C8.98005 14.73 8.41005 14.49 7.97005 14.06C7.54005 13.63 7.30005 13.06 7.30005 12.45V9.37H11.88V12.45C11.88 13.06 11.64 13.63 11.21 14.06C10.78 14.49 10.2 14.73 9.59005 14.73ZM7.32005 12.44C7.32005 13.04 7.56005 13.61 7.99005 14.03C8.42005 14.46 8.99005 14.7 9.59005 14.7C10.19 14.7 10.76 14.46 11.19 14.04C11.62 13.61 11.85 13.05 11.85 12.45V9.38H7.32005V12.44ZM9.59005 13.82C9.23005 13.82 8.89005 13.68 8.63005 13.41C8.37005 13.15 8.23005 12.8 8.23005 12.44V10.27H10.95V10.28V12.24V12.45C10.95 12.51 10.95 12.57 10.94 12.62C10.9 12.92 10.77 13.19 10.55 13.41C10.29 13.67 9.95005 13.81 9.58005 13.81L9.59005 13.82ZM8.25005 10.3V12.45C8.25005 12.8 8.40005 13.15 8.65005 13.4C8.91005 13.66 9.25005 13.8 9.60005 13.8C9.95005 13.8 10.3 13.66 10.55 13.41C10.77 13.19 10.9 12.92 10.94 12.63C10.94 12.58 10.94 12.52 10.94 12.46V12.25V10.3H8.24005H8.25005Z" fill="black"/>
<path d="M7.60999 10.18C7.60999 9.96003 7.76999 9.91003 7.76999 9.91003C7.76999 9.91003 7.93999 9.97003 7.93999 10.19H7.60999" fill="#FFFF00"/>
<path d="M7.47 9.91002L7.44 10.16H7.61C7.61 9.95002 7.77 9.92002 7.77 9.92002C7.77 9.92002 7.93 9.97002 7.93 10.16H8.1L8.07 9.90002H7.47V9.91002Z" fill="#FFFF00"/>
<path d="M7.61999 10.17H7.42999L7.45999 9.90002H8.06999L8.09999 10.18H7.90999C7.90999 9.98003 7.75999 9.94002 7.74999 9.94002C7.74999 9.94002 7.59999 9.97002 7.59999 10.17H7.61999ZM7.94999 10.15H8.09999L8.06999 9.91002H7.80999C7.80999 9.91002 7.84999 9.93002 7.86999 9.95002C7.90999 9.98002 7.94999 10.04 7.94999 10.14V10.15ZM7.45999 10.15H7.59999C7.59999 10.04 7.64999 9.98002 7.68999 9.95002C7.70999 9.93002 7.72999 9.92002 7.73999 9.92002H7.47999L7.44999 10.15H7.45999Z" fill="black"/>
<path d="M7.43002 10.16H8.11002C8.11002 10.16 8.14002 10.17 8.14002 10.19C8.14002 10.21 8.13002 10.22 8.11002 10.22H7.43002C7.43002 10.22 7.40002 10.21 7.40002 10.19C7.40002 10.17 7.41002 10.16 7.43002 10.16Z" fill="#FFFF00"/>
<path d="M8.11001 10.24H7.43001C7.43001 10.24 7.39001 10.22 7.39001 10.2C7.39001 10.18 7.41001 10.16 7.43001 10.16H8.11001C8.11001 10.16 8.15001 10.18 8.15001 10.2C8.15001 10.22 8.13001 10.24 8.11001 10.24ZM7.43001 10.17C7.43001 10.17 7.41001 10.17 7.41001 10.19C7.41001 10.21 7.41001 10.21 7.43001 10.21H8.11001C8.11001 10.21 8.13001 10.21 8.13001 10.19C8.13001 10.17 8.13001 10.17 8.11001 10.17H7.43001Z" fill="black"/>
<path d="M7.68004 10.16C7.68004 10.03 7.77004 9.99002 7.77004 9.99002C7.77004 9.99002 7.86004 10.03 7.86004 10.16H7.67004" fill="#FFFF00"/>
<path d="M7.88004 10.17H7.68004L7.67004 10.16C7.67004 10.07 7.71004 10.03 7.74004 10C7.74004 10 7.77004 9.98001 7.78004 9.98001C7.78004 9.98001 7.88004 10.03 7.88004 10.16V10.17ZM7.69004 10.15H7.85004C7.85004 10.05 7.78004 10.01 7.77004 10C7.75004 10 7.69004 10.05 7.69004 10.15Z" fill="black"/>
<path d="M7.45005 9.80002H8.10005C8.10005 9.80002 8.12005 9.81002 8.12005 9.83002C8.12005 9.85002 8.11005 9.86002 8.10005 9.86002H7.45005C7.45005 9.86002 7.43005 9.85002 7.43005 9.83002C7.43005 9.81002 7.44005 9.80002 7.45005 9.80002Z" fill="#FFFF00"/>
<path d="M8.10004 9.87001H7.45004C7.45004 9.87001 7.42004 9.85001 7.42004 9.83001C7.42004 9.81001 7.44004 9.79001 7.45004 9.79001H8.10004C8.10004 9.79001 8.13004 9.81001 8.13004 9.83001C8.13004 9.85001 8.11004 9.87001 8.10004 9.87001ZM7.45004 9.81001C7.45004 9.81001 7.44004 9.81001 7.44004 9.83001C7.44004 9.85001 7.44004 9.85001 7.45004 9.85001H8.10004C8.10004 9.85001 8.11004 9.85001 8.11004 9.83001C8.11004 9.81001 8.11004 9.81001 8.10004 9.81001H7.45004Z" fill="black"/>
<path d="M7.46 9.86005H8.08C8.08 9.86005 8.1 9.87005 8.1 9.89005C8.1 9.91005 8.09 9.92005 8.08 9.92005H7.46C7.46 9.92005 7.44 9.91005 7.44 9.89005C7.44 9.87005 7.45 9.86005 7.46 9.86005Z" fill="#FFFF00"/>
<path d="M8.07999 9.93004H7.45999C7.45999 9.93004 7.42999 9.91004 7.42999 9.89004C7.42999 9.87004 7.44999 9.85004 7.45999 9.85004H8.07999C8.07999 9.85004 8.10999 9.87004 8.10999 9.89004C8.10999 9.91004 8.08999 9.93004 8.07999 9.93004ZM7.45999 9.87004C7.45999 9.87004 7.44999 9.87004 7.44999 9.89004C7.44999 9.91004 7.44999 9.91004 7.45999 9.91004H8.07999C8.07999 9.91004 8.08999 9.91004 8.08999 9.89004C8.08999 9.87004 8.08999 9.87004 8.07999 9.87004H7.45999Z" fill="black"/>
<path d="M7.66003 9.44002H7.71003V9.47002H7.75003V9.43002H7.80003V9.47002H7.84003V9.43002H7.89003V9.51002C7.89003 9.51002 7.88003 9.53002 7.87003 9.53002H7.69003C7.69003 9.53002 7.67003 9.53002 7.67003 9.51002V9.43002L7.66003 9.44002Z" fill="#FFFF00"/>
<path d="M7.86002 9.55002H7.68002C7.68002 9.55002 7.65002 9.54002 7.65002 9.52002V9.44002H7.71002V9.47002H7.73002V9.43002H7.80002V9.47002H7.82002V9.43002H7.89002V9.52002C7.89002 9.52002 7.88002 9.55002 7.86002 9.55002ZM7.67002 9.45002V9.52002C7.67002 9.52002 7.67002 9.53002 7.68002 9.53002H7.86002C7.86002 9.53002 7.87002 9.53002 7.87002 9.52002V9.45002H7.84002V9.49002H7.78002V9.45002H7.75002V9.49002H7.69002V9.46002H7.66002L7.67002 9.45002Z" fill="black"/>
<path d="M7.85 9.54004V9.80004H7.69V9.54004H7.85Z" fill="#FFFF00"/>
<path d="M7.86999 9.81003H7.67999L7.68999 9.53003H7.85999L7.86999 9.81003ZM7.69999 9.79003H7.84999L7.83999 9.55003H7.70999L7.69999 9.79003Z" fill="black"/>
<path d="M7.64004 9.66003V9.80003H7.48004V9.66003H7.64004Z" fill="#FFFF00"/>
<path d="M7.47003 9.81003V9.65002H7.65003V9.81003H7.47003ZM7.49003 9.67002V9.79002H7.63003V9.67002H7.49003Z" fill="black"/>
<path d="M8.06002 9.66003V9.80003H7.90002V9.66003H8.06002Z" fill="#FFFF00"/>
<path d="M7.89001 9.81003V9.65002H8.07001V9.81003H7.89001ZM7.92001 9.67002V9.79002H8.06002V9.67002H7.92001Z" fill="black"/>
<path d="M7.45001 9.56003H7.50001V9.60003H7.54001V9.56003H7.59001V9.60003H7.63001V9.56003H7.68001V9.64003C7.68001 9.65003 7.68001 9.66003 7.66001 9.66003H7.49001C7.49001 9.66003 7.47001 9.66003 7.47001 9.64003V9.56003H7.45001Z" fill="#FFFF00"/>
<path d="M7.65 9.67002H7.48C7.48 9.67002 7.45 9.66002 7.45 9.64002V9.56002H7.51V9.59002H7.53V9.55002H7.6V9.59002H7.62V9.55002H7.69V9.64002C7.69 9.66002 7.68 9.67002 7.66 9.67002H7.65ZM7.46 9.57002V9.64002C7.46 9.64002 7.46 9.65002 7.47 9.65002H7.64C7.64 9.65002 7.65 9.65002 7.65 9.64002V9.57002H7.62V9.61002H7.56V9.57002H7.53V9.61002H7.47V9.58002H7.44L7.46 9.57002Z" fill="black"/>
<path d="M7.88 9.56003H7.93V9.60003H7.97V9.56003H8.02001V9.60003H8.06001V9.56003H8.11V9.64003C8.11 9.65003 8.11 9.66003 8.09 9.66003H7.92C7.92 9.66003 7.9 9.66003 7.9 9.64003V9.56003H7.88Z" fill="#FFFF00"/>
<path d="M8.06999 9.67002H7.9C7.9 9.67002 7.87 9.66002 7.87 9.64002V9.56002H7.93V9.59002H7.95V9.55002H8.02V9.59002H8.04V9.55002H8.10999V9.64002C8.10999 9.66002 8.1 9.67002 8.08 9.67002H8.06999ZM7.89 9.57002V9.64002C7.89 9.64002 7.89 9.65002 7.9 9.65002H8.06999C8.06999 9.65002 8.08 9.65002 8.08 9.64002V9.57002H8.05V9.61002H7.99V9.57002H7.96V9.61002H7.9V9.58002H7.87L7.89 9.57002Z" fill="black"/>
<path d="M7.76001 9.62002C7.76001 9.62002 7.80001 9.59002 7.79001 9.62002V9.68002H7.76001V9.62002Z" fill="black"/>
<path d="M7.54004 9.71003C7.54004 9.71003 7.57004 9.69003 7.57004 9.71003V9.76003H7.54004V9.71003Z" fill="black"/>
<path d="M7.97003 9.71003C7.97003 9.71003 8.00003 9.69003 8.00003 9.71003V9.76003H7.97003V9.71003Z" fill="black"/>
<path d="M7.60999 12.03C7.60999 11.81 7.76999 11.76 7.76999 11.76C7.76999 11.76 7.93999 11.82 7.93999 12.04H7.60999" fill="#FFFF00"/>
<path d="M7.47 11.76L7.44 12.01H7.61C7.61 11.8 7.77 11.77 7.77 11.77C7.77 11.77 7.93 11.82 7.93 12.01H8.1L8.07 11.75H7.47V11.76Z" fill="#FFFF00"/>
<path d="M7.61999 12.02H7.42999L7.45999 11.75H8.07999L8.10999 12.02H7.91999C7.91999 11.82 7.76999 11.78 7.75999 11.78C7.75999 11.78 7.60999 11.81 7.60999 12.01L7.61999 12.02ZM7.94999 12H8.09999L8.06999 11.76H7.80999C7.80999 11.76 7.84999 11.78 7.86999 11.8C7.90999 11.83 7.94999 11.89 7.94999 11.99V12ZM7.45999 12H7.59999C7.59999 11.89 7.64999 11.83 7.68999 11.8C7.70999 11.79 7.72999 11.78 7.73999 11.77H7.47999L7.44999 12H7.45999Z" fill="black"/>
<path d="M7.43002 12.0201H8.11002C8.11002 12.0201 8.14002 12.03 8.14002 12.05C8.14002 12.07 8.13002 12.08 8.11002 12.08H7.43002C7.43002 12.08 7.40002 12.07 7.40002 12.05C7.40002 12.03 7.41002 12.0201 7.43002 12.0201Z" fill="#FFFF00"/>
<path d="M8.11001 12.09H7.43001C7.43001 12.09 7.39001 12.07 7.39001 12.05C7.39001 12.03 7.41001 12.01 7.43001 12.01H8.11001C8.11001 12.01 8.15001 12.03 8.15001 12.05C8.15001 12.07 8.13001 12.09 8.11001 12.09ZM7.43001 12.03C7.43001 12.03 7.41001 12.03 7.41001 12.05C7.41001 12.07 7.41001 12.07 7.43001 12.07H8.11001C8.11001 12.07 8.13001 12.07 8.13001 12.05C8.13001 12.03 8.13001 12.03 8.11001 12.03H7.43001Z" fill="black"/>
<path d="M7.68004 12.01C7.68004 11.88 7.77004 11.84 7.77004 11.84C7.77004 11.84 7.86004 11.88 7.86004 12.01H7.67004" fill="#FFFF00"/>
<path d="M7.88004 12.02H7.68004L7.67004 12.01C7.67004 11.92 7.71004 11.88 7.74004 11.85C7.74004 11.85 7.77004 11.83 7.78004 11.83C7.78004 11.83 7.88004 11.88 7.88004 12.01V12.02ZM7.69004 12H7.85004C7.85004 11.9 7.78004 11.86 7.77004 11.85C7.75004 11.85 7.69004 11.9 7.69004 12Z" fill="black"/>
<path d="M7.45005 11.65H8.10005C8.10005 11.65 8.12005 11.66 8.12005 11.68C8.12005 11.7 8.11005 11.71 8.10005 11.71H7.45005C7.45005 11.71 7.43005 11.7 7.43005 11.68C7.43005 11.66 7.44005 11.65 7.45005 11.65Z" fill="#FFFF00"/>
<path d="M8.10004 11.72H7.45004C7.45004 11.72 7.42004 11.7 7.42004 11.68C7.42004 11.66 7.44004 11.64 7.45004 11.64H8.10004C8.10004 11.64 8.13004 11.66 8.13004 11.68C8.13004 11.7 8.11004 11.72 8.10004 11.72ZM7.45004 11.66C7.45004 11.66 7.44004 11.66 7.44004 11.68C7.44004 11.7 7.44004 11.7 7.45004 11.7H8.10004C8.10004 11.7 8.11004 11.7 8.11004 11.68C8.11004 11.66 8.11004 11.66 8.10004 11.66H7.45004Z" fill="black"/>
<path d="M7.46 11.7101H8.08C8.08 11.7101 8.1 11.7201 8.1 11.7401C8.1 11.7601 8.09 11.7701 8.08 11.7701H7.46C7.46 11.7701 7.44 11.7601 7.44 11.7401C7.44 11.7201 7.45 11.7101 7.46 11.7101Z" fill="#FFFF00"/>
<path d="M8.07999 11.78H7.45999C7.45999 11.78 7.42999 11.76 7.42999 11.74C7.42999 11.72 7.44999 11.7 7.45999 11.7H8.07999C8.07999 11.7 8.10999 11.72 8.10999 11.74C8.10999 11.76 8.08999 11.78 8.07999 11.78ZM7.45999 11.72C7.45999 11.72 7.44999 11.72 7.44999 11.74C7.44999 11.76 7.44999 11.76 7.45999 11.76H8.07999C8.07999 11.76 8.08999 11.76 8.08999 11.74C8.08999 11.72 8.08999 11.72 8.07999 11.72H7.45999Z" fill="black"/>
<path d="M7.66003 11.29H7.71003V11.32H7.75003V11.28H7.80003V11.32H7.84003V11.28H7.89003V11.36C7.89003 11.36 7.88003 11.38 7.87003 11.38H7.69003C7.69003 11.38 7.67003 11.38 7.67003 11.36V11.28L7.66003 11.29Z" fill="#FFFF00"/>
<path d="M7.86002 11.4H7.68002C7.68002 11.4 7.65002 11.39 7.65002 11.37V11.29H7.71002V11.32H7.73002V11.28H7.80002V11.32H7.82002V11.28H7.89002V11.37C7.89002 11.37 7.88002 11.4 7.86002 11.4ZM7.67002 11.3V11.37C7.67002 11.37 7.67002 11.38 7.68002 11.38H7.86002C7.86002 11.38 7.87002 11.38 7.87002 11.37V11.3H7.84002V11.34H7.78002V11.3H7.75002V11.34H7.69002V11.31H7.66002L7.67002 11.3Z" fill="black"/>
<path d="M7.85 11.4V11.66H7.69V11.4H7.85Z" fill="#FFFF00"/>
<path d="M7.86999 11.66H7.67999L7.68999 11.38H7.85999L7.86999 11.66ZM7.69999 11.64H7.84999L7.83999 11.4H7.70999L7.69999 11.64Z" fill="black"/>
<path d="M7.64004 11.52V11.66H7.48004V11.52H7.64004Z" fill="#FFFF00"/>
<path d="M7.47003 11.66V11.5H7.65003V11.66H7.47003ZM7.49003 11.53V11.65H7.63003V11.53H7.49003Z" fill="black"/>
<path d="M8.06002 11.52V11.66H7.90002V11.52H8.06002Z" fill="#FFFF00"/>
<path d="M7.89001 11.66V11.5H8.07001V11.66H7.89001ZM7.92001 11.53V11.65H8.06002V11.53H7.92001Z" fill="black"/>
<path d="M7.45001 11.41H7.50001V11.45H7.54001V11.41H7.59001V11.45H7.63001V11.41H7.68001V11.49C7.68001 11.5 7.68001 11.51 7.66001 11.51H7.49001C7.49001 11.51 7.47001 11.51 7.47001 11.49V11.41H7.45001Z" fill="#FFFF00"/>
<path d="M7.65 11.53H7.48C7.48 11.53 7.45 11.52 7.45 11.5V11.42H7.51V11.45H7.53V11.41H7.6V11.45H7.62V11.41H7.69V11.5C7.69 11.52 7.68 11.53 7.66 11.53H7.65ZM7.46 11.42V11.49C7.46 11.49 7.46 11.5 7.47 11.5H7.64C7.64 11.5 7.65 11.5 7.65 11.49V11.42H7.62V11.46H7.56V11.42H7.53V11.46H7.47V11.43H7.44L7.46 11.42Z" fill="black"/>
<path d="M7.88 11.41H7.93V11.45H7.97V11.41H8.02001V11.45H8.06001V11.41H8.11V11.49C8.11 11.5 8.11 11.51 8.09 11.51H7.92C7.92 11.51 7.9 11.51 7.9 11.49V11.41H7.88Z" fill="#FFFF00"/>
<path d="M8.06999 11.53H7.9C7.9 11.53 7.87 11.52 7.87 11.5V11.42H7.93V11.45H7.95V11.41H8.02V11.45H8.04V11.41H8.10999V11.5C8.10999 11.52 8.1 11.53 8.08 11.53H8.06999ZM7.89 11.42V11.49C7.89 11.49 7.89 11.5 7.9 11.5H8.06999C8.06999 11.5 8.08 11.5 8.08 11.49V11.42H8.05V11.46H7.99V11.42H7.96V11.46H7.9V11.43H7.87L7.89 11.42Z" fill="black"/>
<path d="M7.76001 11.48C7.76001 11.48 7.80001 11.45 7.79001 11.48V11.54H7.76001V11.48Z" fill="black"/>
<path d="M7.54004 11.57C7.54004 11.57 7.57004 11.55 7.57004 11.57V11.62H7.54004V11.57Z" fill="black"/>
<path d="M7.97003 11.57C7.97003 11.57 8.00003 11.55 8.00003 11.57V11.62H7.97003V11.57Z" fill="black"/>
<path d="M8.33002 13.96C8.18002 13.8 8.25002 13.65 8.25002 13.65C8.25002 13.65 8.41002 13.57 8.56002 13.72L8.32002 13.95" fill="#FFFF00"/>
<path d="M8.04004 13.86L8.20004 14.06L8.32004 13.94C8.17004 13.79 8.26004 13.65 8.26004 13.65C8.26004 13.65 8.41004 13.57 8.55004 13.71L8.67004 13.59L8.47004 13.43L8.05004 13.86H8.04004Z" fill="#FFFF00"/>
<path d="M8.20003 14.08L8.03003 13.87L8.47003 13.43L8.69003 13.6L8.56003 13.73C8.42003 13.59 8.29003 13.67 8.28003 13.67C8.28003 13.67 8.20003 13.8 8.34003 13.94L8.21003 14.08H8.20003ZM8.06003 13.87L8.21003 14.05L8.31003 13.95C8.23003 13.87 8.22003 13.79 8.23003 13.74C8.23003 13.72 8.23003 13.7 8.24003 13.68L8.06003 13.87ZM8.37003 13.62C8.37003 13.62 8.49003 13.63 8.55003 13.7L8.65003 13.6L8.46003 13.45L8.27003 13.64C8.27003 13.64 8.31003 13.63 8.34003 13.63C8.34003 13.63 8.34003 13.63 8.35003 13.63L8.37003 13.62Z" fill="black"/>
<path d="M8.2 14.0701L8.68001 13.5901C8.68001 13.5901 8.71001 13.5901 8.72001 13.5901C8.73001 13.5901 8.73001 13.6201 8.72001 13.6301L8.24 14.1101C8.24 14.1101 8.21 14.1101 8.2 14.1101C8.19 14.1101 8.19 14.0801 8.2 14.0701Z" fill="#FFFF00"/>
<path d="M8.21999 14.13C8.20999 14.13 8.19999 14.13 8.18999 14.12C8.18999 14.12 8.17999 14.1 8.17999 14.09V14.07L8.65999 13.59C8.65999 13.59 8.69999 13.58 8.70999 13.59C8.72999 13.61 8.72999 13.63 8.70999 13.64L8.22999 14.12C8.22999 14.12 8.21999 14.12 8.20999 14.12L8.21999 14.13ZM8.68999 13.59L8.20999 14.07C8.20999 14.07 8.20999 14.08 8.20999 14.09C8.20999 14.09 8.20999 14.09 8.21999 14.09C8.21999 14.09 8.21999 14.09 8.22999 14.09L8.70999 13.61C8.70999 13.61 8.70999 13.59 8.70999 13.58C8.70999 13.58 8.69999 13.58 8.68999 13.58V13.59Z" fill="black"/>
<path d="M8.36998 13.9C8.27998 13.81 8.30998 13.72 8.30998 13.72C8.30998 13.72 8.39998 13.68 8.49998 13.77L8.36998 13.9Z" fill="#FFFF00"/>
<path d="M8.36999 13.91C8.30999 13.84 8.29999 13.78 8.29999 13.74C8.29999 13.74 8.29999 13.71 8.29999 13.7C8.29999 13.7 8.30999 13.7 8.32999 13.7C8.35999 13.7 8.42999 13.7 8.49999 13.76L8.35999 13.91H8.36999ZM8.31999 13.72C8.31999 13.72 8.29999 13.81 8.36999 13.88L8.48999 13.76C8.41999 13.69 8.33999 13.71 8.32999 13.71L8.31999 13.72Z" fill="black"/>
<path d="M7.95 13.81L8.41 13.35C8.41 13.35 8.44 13.35 8.45 13.35C8.46 13.35 8.46 13.38 8.45 13.39L7.99 13.85C7.99 13.85 7.96 13.85 7.95 13.85C7.94 13.85 7.94 13.82 7.95 13.81Z" fill="#FFFF00"/>
<path d="M7.97001 13.86C7.97001 13.86 7.95001 13.86 7.94001 13.85C7.93001 13.84 7.92001 13.81 7.94001 13.8L8.40001 13.34C8.40001 13.34 8.41001 13.34 8.42001 13.34C8.42001 13.34 8.44001 13.34 8.45001 13.35C8.46001 13.36 8.47001 13.39 8.45001 13.4L7.99001 13.86C7.99001 13.86 7.98001 13.86 7.97001 13.86ZM7.96001 13.81V13.83C7.96001 13.83 7.96001 13.83 7.97001 13.83L8.43001 13.37V13.35C8.43001 13.35 8.43001 13.35 8.42001 13.35L7.96001 13.81Z" fill="black"/>
<path d="M7.99999 13.84L8.43999 13.4C8.43999 13.4 8.46999 13.4 8.47999 13.4C8.48999 13.4 8.48999 13.43 8.47999 13.44L8.03999 13.88C8.03999 13.88 8.00999 13.88 7.99999 13.88C7.98999 13.88 7.98999 13.85 7.99999 13.84Z" fill="#FFFF00"/>
<path d="M8.02999 13.89C8.02999 13.89 8.00999 13.89 7.99999 13.88C7.99999 13.88 7.98999 13.86 7.98999 13.85V13.83L8.42999 13.39C8.42999 13.39 8.46999 13.38 8.47999 13.39C8.48999 13.4 8.49999 13.43 8.47999 13.44L8.03999 13.88C8.03999 13.88 8.02999 13.88 8.01999 13.88L8.02999 13.89ZM8.45999 13.4L8.01999 13.84V13.85C8.01999 13.85 8.01999 13.85 8.02999 13.85L8.46999 13.41V13.39C8.46999 13.39 8.46999 13.39 8.45999 13.39V13.4Z" fill="black"/>
<path d="M7.84003 13.4L7.87003 13.37L7.89003 13.39L7.92003 13.36L7.89003 13.33L7.93003 13.29L7.96003 13.32L7.99003 13.29L7.96003 13.26L8.00003 13.22L8.06003 13.28C8.06003 13.28 8.06003 13.3 8.06003 13.31L7.94003 13.44C7.94003 13.44 7.92003 13.44 7.91003 13.44L7.85003 13.38L7.84003 13.4Z" fill="#FFFF00"/>
<path d="M7.91002 13.47H7.89002L7.83002 13.41L7.87002 13.36L7.89002 13.38H7.90002L7.87002 13.34L7.92002 13.29L7.95002 13.31H7.96002L7.93002 13.27L7.98002 13.22L8.04002 13.28C8.04002 13.28 8.05002 13.31 8.04002 13.32L7.92002 13.45H7.90002L7.91002 13.47ZM7.86002 13.4L7.91002 13.45C7.91002 13.45 7.92002 13.45 7.93002 13.45L8.05002 13.32C8.05002 13.32 8.05002 13.31 8.05002 13.3L8.00002 13.25L7.98002 13.27L8.01002 13.3L7.97002 13.34L7.94002 13.31L7.92002 13.33L7.95002 13.36L7.91002 13.4L7.89002 13.38L7.87002 13.4H7.86002Z" fill="black"/>
<path d="M8.05 13.34L8.24 13.51L8.12 13.63L7.94 13.44L8.05 13.33" fill="#FFFF00"/>
<path d="M8.11999 13.65L7.92999 13.45L8.04999 13.33L8.25999 13.52L8.11999 13.66V13.65ZM7.95999 13.45L8.11999 13.63L8.22999 13.52L8.04999 13.36L7.95999 13.45Z" fill="black"/>
<path d="M7.99 13.57L8.09 13.66L7.97 13.78L7.87 13.68L7.98 13.57H7.99Z" fill="#FFFF00"/>
<path d="M7.96999 13.8L7.85999 13.68L7.97999 13.56L8.09999 13.67L7.96999 13.8ZM7.88999 13.68L7.96999 13.77L8.06998 13.67L7.97999 13.59L7.87999 13.69L7.88999 13.68Z" fill="black"/>
<path d="M8.27997 13.2701L8.37997 13.36L8.25997 13.48L8.15997 13.38L8.26997 13.2701H8.27997Z" fill="#FFFF00"/>
<path d="M8.26997 13.5L8.15997 13.38L8.27997 13.26L8.38997 13.36L8.25997 13.49L8.26997 13.5ZM8.18997 13.38L8.26997 13.47L8.36997 13.37L8.27997 13.29L8.17997 13.39L8.18997 13.38Z" fill="black"/>
<path d="M7.78 13.64L7.81 13.61L7.83 13.63L7.85 13.61L7.82 13.58L7.85 13.55L7.88 13.58L7.9 13.56L7.87 13.53L7.9 13.5L7.96 13.56C7.96 13.56 7.96 13.58 7.96 13.59L7.84 13.71C7.84 13.71 7.82 13.71 7.81 13.71L7.75 13.65L7.78 13.64Z" fill="#FFFF00"/>
<path d="M7.85002 13.71H7.83002L7.77002 13.65L7.81002 13.6L7.83002 13.62H7.84002L7.81002 13.58L7.86002 13.53L7.89002 13.56H7.90002L7.87002 13.52L7.92002 13.47L7.98002 13.53C7.98002 13.53 7.99002 13.56 7.98002 13.57L7.86002 13.69C7.86002 13.69 7.85002 13.69 7.84002 13.69L7.85002 13.71ZM7.80002 13.64L7.85002 13.69C7.85002 13.69 7.86002 13.69 7.87002 13.69L7.99002 13.57C7.99002 13.57 7.99002 13.56 7.99002 13.55L7.94002 13.5L7.92002 13.52L7.95002 13.55L7.91002 13.59L7.88002 13.56L7.86002 13.58L7.89002 13.61L7.85002 13.65L7.83002 13.63L7.81002 13.65L7.80002 13.64Z" fill="black"/>
<path d="M8.07999 13.33L8.10999 13.3L8.12999 13.32L8.14999 13.3L8.11999 13.27L8.14999 13.24L8.17999 13.27L8.19999 13.25L8.16999 13.22L8.19999 13.19L8.25999 13.25C8.25999 13.25 8.25999 13.27 8.25999 13.28L8.13999 13.4C8.13999 13.4 8.11999 13.4 8.10999 13.4L8.04999 13.34L8.07999 13.33Z" fill="#FFFF00"/>
<path d="M8.15001 13.41H8.13001L8.07001 13.35L8.12001 13.3L8.14001 13.32H8.15001L8.12001 13.28L8.17001 13.23L8.20001 13.25H8.21001L8.18001 13.21L8.23001 13.16L8.29001 13.22C8.29001 13.22 8.29001 13.23 8.29001 13.24V13.26L8.17001 13.38C8.17001 13.38 8.16001 13.38 8.15001 13.38V13.41ZM8.10001 13.33L8.15001 13.38C8.15001 13.38 8.16001 13.38 8.17001 13.38L8.29001 13.26L8.24001 13.21L8.22001 13.23L8.25001 13.26L8.21001 13.3L8.18001 13.27L8.16001 13.29L8.19001 13.32L8.15001 13.36L8.13001 13.34L8.11001 13.36L8.10001 13.33Z" fill="black"/>
<path d="M8.03998 13.46C8.03998 13.46 8.03998 13.42 8.05998 13.44L8.09998 13.48L8.07998 13.5L8.03998 13.46Z" fill="black"/>
<path d="M7.96002 13.68C7.96002 13.68 7.96002 13.64 7.98002 13.66L8.01002 13.69L7.99002 13.71L7.96002 13.68Z" fill="black"/>
<path d="M8.26001 13.38C8.26001 13.38 8.26001 13.34 8.28001 13.36L8.31001 13.39L8.29001 13.41L8.26001 13.38Z" fill="black"/>
<path d="M9.44 10.18C9.44 9.96003 9.6 9.91003 9.6 9.91003C9.6 9.91003 9.77 9.97003 9.77 10.19H9.44" fill="#FFFF00"/>
<path d="M9.30002 9.91002L9.27002 10.16H9.44002C9.44002 9.95002 9.60002 9.92002 9.60002 9.92002C9.60002 9.92002 9.76002 9.97002 9.76002 10.16H9.93002L9.90002 9.90002H9.30002V9.91002Z" fill="#FFFF00"/>
<path d="M9.45001 10.17H9.26001L9.29001 9.90002H9.91001L9.94001 10.17H9.75001C9.75001 9.97002 9.60001 9.93003 9.59001 9.93003C9.59001 9.93003 9.44001 9.96002 9.44001 10.16L9.45001 10.17ZM9.78001 10.15H9.93001L9.90001 9.91002H9.64001C9.64001 9.91002 9.68001 9.93002 9.70001 9.95002C9.74001 9.98002 9.78001 10.04 9.78001 10.14V10.15ZM9.28001 10.15H9.42001C9.42001 10.04 9.47001 9.98002 9.51001 9.95002C9.53001 9.93002 9.55001 9.92002 9.56001 9.92002H9.30001L9.27001 10.15H9.28001Z" fill="black"/>
<path d="M9.26004 10.16H9.94004C9.94004 10.16 9.97004 10.17 9.97004 10.19C9.97004 10.21 9.96004 10.22 9.94004 10.22H9.26004C9.26004 10.22 9.23004 10.21 9.23004 10.19C9.23004 10.17 9.24004 10.16 9.26004 10.16Z" fill="#FFFF00"/>
<path d="M9.94003 10.24H9.26003C9.26003 10.24 9.22003 10.22 9.22003 10.2C9.22003 10.18 9.24003 10.16 9.26003 10.16H9.94003C9.94003 10.16 9.98003 10.18 9.98003 10.2C9.98003 10.22 9.96003 10.24 9.94003 10.24ZM9.26003 10.17C9.26003 10.17 9.24003 10.17 9.24003 10.19C9.24003 10.21 9.24003 10.21 9.26003 10.21H9.94003C9.94003 10.21 9.96003 10.21 9.96003 10.19C9.96003 10.17 9.96003 10.17 9.94003 10.17H9.26003Z" fill="black"/>
<path d="M9.51006 10.16C9.51006 10.03 9.60006 9.99002 9.60006 9.99002C9.60006 9.99002 9.69006 10.03 9.69006 10.16H9.50006" fill="#FFFF00"/>
<path d="M9.70005 10.17H9.50005L9.49005 10.16C9.49005 10.07 9.53005 10.03 9.56005 10C9.56005 10 9.59005 9.98001 9.60005 9.98001C9.60005 9.98001 9.70005 10.03 9.70005 10.16V10.17ZM9.52005 10.15H9.68005C9.68005 10.05 9.61005 10.01 9.60005 10C9.58005 10 9.52005 10.05 9.52005 10.15Z" fill="black"/>
<path d="M9.28007 9.80002H9.93007C9.93007 9.80002 9.95007 9.81002 9.95007 9.83002C9.95007 9.85002 9.94007 9.86002 9.93007 9.86002H9.28007C9.28007 9.86002 9.26007 9.85002 9.26007 9.83002C9.26007 9.81002 9.27007 9.80002 9.28007 9.80002Z" fill="#FFFF00"/>
<path d="M9.93006 9.87001H9.28006C9.28006 9.87001 9.25006 9.85001 9.25006 9.83001C9.25006 9.81001 9.27006 9.79001 9.28006 9.79001H9.93006C9.93006 9.79001 9.96006 9.81001 9.96006 9.83001C9.96006 9.85001 9.94006 9.87001 9.93006 9.87001ZM9.28006 9.81001C9.28006 9.81001 9.27006 9.81001 9.27006 9.83001C9.27006 9.85001 9.27006 9.85001 9.28006 9.85001H9.93006C9.93006 9.85001 9.94006 9.85001 9.94006 9.83001C9.94006 9.81001 9.94006 9.81001 9.93006 9.81001H9.28006Z" fill="black"/>
<path d="M9.29002 9.86005H9.91002C9.91002 9.86005 9.93002 9.87005 9.93002 9.89005C9.93002 9.91005 9.92002 9.92005 9.91002 9.92005H9.29002C9.29002 9.92005 9.27002 9.91005 9.27002 9.89005C9.27002 9.87005 9.28002 9.86005 9.29002 9.86005Z" fill="#FFFF00"/>
<path d="M9.91001 9.93004H9.29001C9.29001 9.93004 9.26001 9.91004 9.26001 9.89004C9.26001 9.87004 9.28001 9.85004 9.29001 9.85004H9.91001C9.91001 9.85004 9.94001 9.87004 9.94001 9.89004C9.94001 9.91004 9.92001 9.93004 9.91001 9.93004ZM9.29001 9.87004C9.29001 9.87004 9.28001 9.87004 9.28001 9.89004C9.28001 9.91004 9.28001 9.91004 9.29001 9.91004H9.91001C9.91001 9.91004 9.92001 9.91004 9.92001 9.89004C9.92001 9.87004 9.92001 9.87004 9.91001 9.87004H9.29001Z" fill="black"/>
<path d="M9.49005 9.44002H9.54005V9.47002H9.58005V9.43002H9.63005V9.47002H9.67005V9.43002H9.72005V9.51002C9.72005 9.51002 9.71005 9.53002 9.70005 9.53002H9.52005C9.52005 9.53002 9.50005 9.53002 9.50005 9.51002V9.43002L9.49005 9.44002Z" fill="#FFFF00"/>
<path d="M9.69004 9.55002H9.51004C9.51004 9.55002 9.48004 9.54002 9.48004 9.52002V9.44002H9.54004V9.47002H9.56004V9.43002H9.63004V9.47002H9.65004V9.43002H9.72004V9.52002C9.72004 9.52002 9.71004 9.55002 9.69004 9.55002ZM9.50004 9.45002V9.52002C9.50004 9.52002 9.50004 9.53002 9.51004 9.53002H9.69004C9.69004 9.53002 9.70004 9.53002 9.70004 9.52002V9.45002H9.67004V9.49002H9.61004V9.45002H9.58004V9.49002H9.52004V9.46002H9.49004L9.50004 9.45002Z" fill="black"/>
<path d="M9.68002 9.54004V9.80004H9.52002V9.54004H9.68002Z" fill="#FFFF00"/>
<path d="M9.70001 9.81003H9.51001L9.52001 9.53003H9.69001L9.70001 9.81003ZM9.53001 9.79003H9.68001L9.67001 9.55003H9.54001L9.53001 9.79003Z" fill="black"/>
<path d="M9.47006 9.66003V9.80003H9.31006V9.66003H9.47006Z" fill="#FFFF00"/>
<path d="M9.30005 9.81003V9.65002H9.48005V9.81003H9.30005ZM9.32005 9.67002V9.79002H9.46005V9.67002H9.32005Z" fill="black"/>
<path d="M9.89004 9.66003V9.80003H9.73004V9.66003H9.89004Z" fill="#FFFF00"/>
<path d="M9.72003 9.81003V9.65002H9.90003V9.81003H9.72003ZM9.75003 9.67002V9.79002H9.89003V9.67002H9.75003Z" fill="black"/>
<path d="M9.28003 9.56003H9.33003V9.60003H9.37003V9.56003H9.42003V9.60003H9.46003V9.56003H9.51003V9.64003C9.51003 9.65003 9.51003 9.66003 9.49003 9.66003H9.32003C9.32003 9.66003 9.30003 9.66003 9.30003 9.64003V9.56003H9.28003Z" fill="#FFFF00"/>
<path d="M9.48002 9.67002H9.31002C9.31002 9.67002 9.28002 9.66002 9.28002 9.64002V9.56002H9.34002V9.59002H9.36002V9.55002H9.43002V9.59002H9.45002V9.55002H9.52002V9.64002C9.52002 9.66002 9.51002 9.67002 9.49002 9.67002H9.48002ZM9.29002 9.57002V9.64002C9.29002 9.64002 9.29002 9.65002 9.30002 9.65002H9.47002C9.47002 9.65002 9.48002 9.65002 9.48002 9.64002V9.57002H9.45002V9.61002H9.39002V9.57002H9.36002V9.61002H9.30002V9.58002H9.27002L9.29002 9.57002Z" fill="black"/>
<path d="M9.70001 9.56003H9.75001V9.60003H9.79001V9.56003H9.84001V9.60003H9.88001V9.56003H9.93001V9.64003C9.93001 9.65003 9.93001 9.66003 9.91001 9.66003H9.74001C9.74001 9.66003 9.72001 9.66003 9.72001 9.64003V9.56003H9.70001Z" fill="#FFFF00"/>
<path d="M9.9 9.67002H9.73C9.73 9.67002 9.7 9.66002 9.7 9.64002V9.56002H9.76V9.59002H9.78V9.55002H9.85V9.59002H9.87V9.55002H9.94V9.64002C9.94 9.66002 9.93 9.67002 9.91 9.67002H9.9ZM9.71 9.57002V9.64002C9.71 9.64002 9.71 9.65002 9.72 9.65002H9.89C9.89 9.65002 9.9 9.65002 9.9 9.64002V9.57002H9.87V9.61002H9.81V9.57002H9.78V9.61002H9.72V9.58002H9.69L9.71 9.57002Z" fill="black"/>
<path d="M9.58002 9.62002C9.58002 9.62002 9.62002 9.59002 9.61002 9.62002V9.68002H9.58002V9.62002Z" fill="black"/>
<path d="M9.37006 9.71003C9.37006 9.71003 9.40006 9.69003 9.40006 9.71003V9.76003H9.37006V9.71003Z" fill="black"/>
<path d="M9.80005 9.71003C9.80005 9.71003 9.83005 9.69003 9.83005 9.71003V9.76003H9.80005V9.71003Z" fill="black"/>
<path d="M11.5801 10.18C11.5801 9.96003 11.4201 9.91003 11.4201 9.91003C11.4201 9.91003 11.2501 9.97003 11.2501 10.19H11.5801" fill="#FFFF00"/>
<path d="M11.72 9.91002L11.75 10.16H11.58C11.58 9.95002 11.42 9.92002 11.42 9.92002C11.42 9.92002 11.26 9.97002 11.26 10.16H11.09L11.12 9.90002H11.72V9.91002Z" fill="#FFFF00"/>
<path d="M11.57 10.17C11.57 9.96004 11.42 9.93004 11.42 9.93004C11.42 9.93004 11.27 9.97004 11.27 10.16H11.08L11.11 9.88004H11.73L11.76 10.16H11.57V10.17ZM11.1 10.15H11.25C11.25 10.05 11.3 9.99004 11.33 9.96004C11.35 9.94004 11.38 9.93004 11.39 9.92004H11.13L11.1 10.16V10.15ZM11.45 9.92004C11.45 9.92004 11.48 9.94004 11.5 9.95004C11.54 9.98004 11.59 10.04 11.59 10.15H11.73L11.7 9.92004H11.44H11.45Z" fill="black"/>
<path d="M11.76 10.16H11.08C11.08 10.16 11.05 10.17 11.05 10.19C11.05 10.21 11.06 10.22 11.08 10.22H11.76C11.76 10.22 11.79 10.21 11.79 10.19C11.79 10.17 11.78 10.16 11.76 10.16Z" fill="#FFFF00"/>
<path d="M11.76 10.24H11.08C11.08 10.24 11.04 10.22 11.04 10.2C11.04 10.18 11.06 10.16 11.08 10.16H11.76C11.76 10.16 11.8 10.18 11.8 10.2C11.8 10.22 11.78 10.24 11.76 10.24ZM11.08 10.17C11.08 10.17 11.06 10.17 11.06 10.19C11.06 10.21 11.06 10.21 11.08 10.21H11.76C11.76 10.21 11.78 10.21 11.78 10.19C11.78 10.17 11.78 10.17 11.76 10.17H11.08Z" fill="black"/>
<path d="M11.5101 10.16C11.5101 10.03 11.4201 9.99002 11.4201 9.99002C11.4201 9.99002 11.3301 10.03 11.3301 10.16H11.5201" fill="#FFFF00"/>
<path d="M11.5201 10.17H11.3101C11.3101 10.03 11.4101 9.98001 11.4101 9.98001L11.4401 10C11.4701 10.03 11.5101 10.07 11.5101 10.16L11.5201 10.17ZM11.3401 10.15H11.5001C11.5001 10.05 11.4301 10.01 11.4201 10C11.4101 10 11.3401 10.04 11.3401 10.15Z" fill="black"/>
<path d="M11.7401 9.80002H11.0901C11.0901 9.80002 11.0701 9.81002 11.0701 9.83002C11.0701 9.85002 11.0801 9.86002 11.0901 9.86002H11.7401C11.7401 9.86002 11.7601 9.85002 11.7601 9.83002C11.7601 9.81002 11.7501 9.80002 11.7401 9.80002Z" fill="#FFFF00"/>
<path d="M11.7401 9.87001H11.0901C11.0901 9.87001 11.0601 9.85001 11.0601 9.83001C11.0601 9.81001 11.0801 9.79001 11.0901 9.79001H11.7401C11.7401 9.79001 11.7701 9.81001 11.7701 9.83001C11.7701 9.85001 11.7501 9.87001 11.7401 9.87001ZM11.0901 9.81001C11.0901 9.81001 11.0801 9.81001 11.0801 9.83001C11.0801 9.85001 11.0801 9.85001 11.0901 9.85001H11.7401C11.7401 9.85001 11.7501 9.85001 11.7501 9.83001C11.7501 9.81001 11.7501 9.81001 11.7401 9.81001H11.0901Z" fill="black"/>
<path d="M11.73 9.86005H11.11C11.11 9.86005 11.09 9.87005 11.09 9.89005C11.09 9.91005 11.1 9.92005 11.11 9.92005H11.73C11.73 9.92005 11.75 9.91005 11.75 9.89005C11.75 9.87005 11.74 9.86005 11.73 9.86005Z" fill="#FFFF00"/>
<path d="M11.73 9.93004H11.11C11.11 9.93004 11.08 9.91004 11.08 9.89004C11.08 9.87004 11.1 9.85004 11.11 9.85004H11.73C11.73 9.85004 11.76 9.87004 11.76 9.89004C11.76 9.91004 11.74 9.93004 11.73 9.93004ZM11.11 9.87004C11.11 9.87004 11.1 9.87004 11.1 9.89004C11.1 9.91004 11.1 9.91004 11.11 9.91004H11.73C11.73 9.91004 11.74 9.91004 11.74 9.89004C11.74 9.87004 11.74 9.87004 11.73 9.87004H11.11Z" fill="black"/>
<path d="M11.53 9.44002H11.48V9.47002H11.44V9.43002H11.39V9.47002H11.35V9.43002H11.3V9.51002C11.3 9.51002 11.31 9.53002 11.32 9.53002H11.5C11.5 9.53002 11.52 9.53002 11.52 9.51002V9.43002L11.53 9.44002Z" fill="#FFFF00"/>
<path d="M11.51 9.55002H11.33C11.33 9.55002 11.3 9.54002 11.3 9.52002V9.43002H11.37V9.47002H11.39V9.43002H11.46V9.47002H11.48V9.44002H11.54V9.52002C11.54 9.52002 11.52 9.55002 11.51 9.55002ZM11.32 9.44002V9.51002C11.32 9.51002 11.32 9.52002 11.33 9.52002H11.51C11.51 9.52002 11.52 9.52002 11.52 9.51002V9.44002H11.49V9.47002H11.43V9.43002H11.4V9.47002H11.34V9.43002H11.31L11.32 9.44002Z" fill="black"/>
<path d="M11.3401 9.54004V9.80004H11.5001V9.54004H11.3401Z" fill="#FFFF00"/>
<path d="M11.3201 9.81003V9.53003H11.5001V9.81003H11.3201ZM11.3501 9.55003V9.79003H11.4901V9.55003H11.3501Z" fill="black"/>
<path d="M11.55 9.66003V9.80003H11.71V9.66003H11.55Z" fill="#FFFF00"/>
<path d="M11.72 9.81003H11.53V9.65002H11.7V9.81003H11.72ZM11.56 9.79002H11.7V9.67002H11.56V9.79002Z" fill="black"/>
<path d="M11.1301 9.66003V9.80003H11.2901V9.66003H11.1301Z" fill="#FFFF00"/>
<path d="M11.3 9.81003H11.11V9.65002H11.28V9.81003H11.3ZM11.13 9.79002H11.27V9.67002H11.13V9.79002Z" fill="black"/>
<path d="M11.74 9.56003H11.69V9.60003H11.65V9.56003H11.6V9.60003H11.56V9.56003H11.51V9.64003C11.51 9.65003 11.51 9.66003 11.53 9.66003H11.7C11.7 9.66003 11.72 9.66003 11.72 9.64003V9.56003H11.74Z" fill="#FFFF00"/>
<path d="M11.72 9.67002H11.55C11.55 9.67002 11.52 9.66002 11.52 9.64002V9.55002H11.59V9.59002H11.61V9.55002H11.68V9.59002H11.7V9.56002H11.76V9.64002C11.76 9.64002 11.75 9.67002 11.73 9.67002H11.72ZM11.53 9.57002V9.64002C11.53 9.64002 11.53 9.65002 11.54 9.65002H11.71C11.71 9.65002 11.72 9.65002 11.72 9.64002V9.57002H11.69V9.60002H11.63V9.56002H11.6V9.60002H11.54V9.56002H11.51L11.53 9.57002Z" fill="black"/>
<path d="M11.32 9.56003H11.27V9.60003H11.23V9.56003H11.18V9.60003H11.14V9.56003H11.09V9.64003C11.09 9.65003 11.09 9.66003 11.11 9.66003H11.28C11.28 9.66003 11.3 9.66003 11.3 9.64003V9.56003H11.32Z" fill="#FFFF00"/>
<path d="M11.29 9.67002H11.12C11.12 9.67002 11.09 9.66002 11.09 9.64002V9.55002H11.16V9.59002H11.18V9.55002H11.25V9.59002H11.27V9.56002H11.33V9.64002C11.33 9.64002 11.32 9.67002 11.3 9.67002H11.29ZM11.11 9.57002V9.64002C11.11 9.64002 11.11 9.65002 11.12 9.65002H11.29C11.29 9.65002 11.3 9.65002 11.3 9.64002V9.57002H11.27V9.60002H11.21V9.56002H11.18V9.60002H11.12V9.56002H11.09L11.11 9.57002Z" fill="black"/>
<path d="M11.4401 9.62002C11.4401 9.62002 11.4001 9.59002 11.4101 9.62002V9.68002H11.4401V9.62002Z" fill="black"/>
<path d="M11.6501 9.71003C11.6501 9.71003 11.6201 9.69003 11.6201 9.71003V9.76003H11.6501V9.71003Z" fill="black"/>
<path d="M11.2201 9.71003C11.2201 9.71003 11.1901 9.69003 11.1901 9.71003V9.76003H11.2201V9.71003Z" fill="black"/>
<path d="M11.5801 12.03C11.5801 11.81 11.4201 11.76 11.4201 11.76C11.4201 11.76 11.2501 11.82 11.2501 12.04H11.5801" fill="#FFFF00"/>
<path d="M11.72 11.76L11.75 12.01H11.58C11.58 11.8 11.42 11.77 11.42 11.77C11.42 11.77 11.26 11.82 11.26 12.01H11.09L11.12 11.75H11.72V11.76Z" fill="#FFFF00"/>
<path d="M11.57 12.02C11.57 11.81 11.42 11.78 11.42 11.78C11.42 11.78 11.27 11.82 11.27 12.01H11.08L11.11 11.73H11.73L11.76 12.01H11.57V12.02ZM11.1 12H11.25C11.25 11.9 11.3 11.84 11.33 11.81C11.35 11.79 11.38 11.78 11.39 11.77H11.13L11.1 12.01V12ZM11.45 11.77C11.45 11.77 11.48 11.79 11.5 11.8C11.54 11.83 11.59 11.89 11.59 12H11.73L11.7 11.77H11.44H11.45Z" fill="black"/>
<path d="M11.76 12.0201H11.08C11.08 12.0201 11.05 12.03 11.05 12.05C11.05 12.07 11.06 12.08 11.08 12.08H11.76C11.76 12.08 11.79 12.07 11.79 12.05C11.79 12.03 11.78 12.0201 11.76 12.0201Z" fill="#FFFF00"/>
<path d="M11.76 12.09H11.08C11.08 12.09 11.04 12.07 11.04 12.05C11.04 12.03 11.06 12.01 11.08 12.01H11.76C11.76 12.01 11.8 12.03 11.8 12.05C11.8 12.07 11.78 12.09 11.76 12.09ZM11.08 12.03C11.08 12.03 11.06 12.03 11.06 12.05C11.06 12.07 11.06 12.07 11.08 12.07H11.76C11.76 12.07 11.78 12.07 11.78 12.05C11.78 12.03 11.78 12.03 11.76 12.03H11.08Z" fill="black"/>
<path d="M11.5101 12.01C11.5101 11.88 11.4201 11.84 11.4201 11.84C11.4201 11.84 11.3301 11.88 11.3301 12.01H11.5201" fill="#FFFF00"/>
<path d="M11.5201 12.02H11.3101C11.3101 11.88 11.4101 11.83 11.4101 11.83L11.4401 11.85C11.4701 11.88 11.5101 11.92 11.5101 12.01L11.5201 12.02ZM11.3401 12H11.5001C11.5001 11.9 11.4301 11.86 11.4201 11.85C11.4101 11.85 11.3401 11.89 11.3401 12Z" fill="black"/>
<path d="M11.7401 11.65H11.0901C11.0901 11.65 11.0701 11.66 11.0701 11.68C11.0701 11.7 11.0801 11.71 11.0901 11.71H11.7401C11.7401 11.71 11.7601 11.7 11.7601 11.68C11.7601 11.66 11.7501 11.65 11.7401 11.65Z" fill="#FFFF00"/>
<path d="M11.7401 11.72H11.0901C11.0901 11.72 11.0601 11.7 11.0601 11.68C11.0601 11.66 11.0801 11.64 11.0901 11.64H11.7401C11.7401 11.64 11.7701 11.66 11.7701 11.68C11.7701 11.7 11.7501 11.72 11.7401 11.72ZM11.0901 11.66C11.0901 11.66 11.0801 11.66 11.0801 11.68C11.0801 11.7 11.0801 11.7 11.0901 11.7H11.7401C11.7401 11.7 11.7501 11.7 11.7501 11.68C11.7501 11.66 11.7501 11.66 11.7401 11.66H11.0901Z" fill="black"/>
<path d="M11.73 11.7101H11.11C11.11 11.7101 11.09 11.7201 11.09 11.7401C11.09 11.7601 11.1 11.7701 11.11 11.7701H11.73C11.73 11.7701 11.75 11.7601 11.75 11.7401C11.75 11.7201 11.74 11.7101 11.73 11.7101Z" fill="#FFFF00"/>
<path d="M11.73 11.78H11.11C11.11 11.78 11.08 11.76 11.08 11.74C11.08 11.72 11.1 11.7 11.11 11.7H11.73C11.73 11.7 11.76 11.72 11.76 11.74C11.76 11.76 11.74 11.78 11.73 11.78ZM11.11 11.72C11.11 11.72 11.1 11.72 11.1 11.74C11.1 11.76 11.1 11.76 11.11 11.76H11.73C11.73 11.76 11.74 11.76 11.74 11.74C11.74 11.72 11.74 11.72 11.73 11.72H11.11Z" fill="black"/>
<path d="M11.53 11.29H11.48V11.32H11.44V11.28H11.39V11.32H11.35V11.28H11.3V11.36C11.3 11.36 11.31 11.38 11.32 11.38H11.5C11.5 11.38 11.52 11.38 11.52 11.36V11.28L11.53 11.29Z" fill="#FFFF00"/>
<path d="M11.51 11.4H11.33C11.33 11.4 11.3 11.39 11.3 11.37V11.28H11.37V11.32H11.39V11.28H11.46V11.32H11.48V11.29H11.54V11.37C11.54 11.37 11.52 11.4 11.51 11.4ZM11.32 11.3V11.37C11.32 11.37 11.32 11.38 11.33 11.38H11.51C11.51 11.38 11.52 11.38 11.52 11.37V11.3H11.49V11.33H11.43V11.29H11.4V11.33H11.34V11.29H11.31L11.32 11.3Z" fill="black"/>
<path d="M11.3401 11.4V11.66H11.5001V11.4H11.3401Z" fill="#FFFF00"/>
<path d="M11.3201 11.66V11.38H11.5001V11.66H11.3201ZM11.3501 11.41V11.65H11.4901V11.41H11.3501Z" fill="black"/>
<path d="M11.55 11.52V11.66H11.71V11.52H11.55Z" fill="#FFFF00"/>
<path d="M11.72 11.66H11.53V11.5H11.7V11.66H11.72ZM11.56 11.64H11.7V11.52H11.56V11.64Z" fill="black"/>
<path d="M11.1301 11.52V11.66H11.2901V11.52H11.1301Z" fill="#FFFF00"/>
<path d="M11.3 11.66H11.11V11.5H11.28V11.66H11.3ZM11.13 11.64H11.27V11.52H11.13V11.64Z" fill="black"/>
<path d="M11.74 11.41H11.69V11.45H11.65V11.41H11.6V11.45H11.56V11.41H11.51V11.49C11.51 11.5 11.51 11.51 11.53 11.51H11.7C11.7 11.51 11.72 11.51 11.72 11.49V11.41H11.74Z" fill="#FFFF00"/>
<path d="M11.72 11.53H11.55C11.55 11.53 11.52 11.52 11.52 11.5V11.41H11.59V11.45H11.61V11.41H11.68V11.45H11.7V11.42H11.76V11.5C11.76 11.5 11.75 11.53 11.73 11.53H11.72ZM11.53 11.42V11.49C11.53 11.49 11.53 11.5 11.54 11.5H11.71C11.71 11.5 11.72 11.5 11.72 11.49V11.42H11.69V11.45H11.63V11.41H11.6V11.45H11.54V11.41H11.51L11.53 11.42Z" fill="black"/>
<path d="M11.32 11.41H11.27V11.45H11.23V11.41H11.18V11.45H11.14V11.41H11.09V11.49C11.09 11.5 11.09 11.51 11.11 11.51H11.28C11.28 11.51 11.3 11.51 11.3 11.49V11.41H11.32Z" fill="#FFFF00"/>
<path d="M11.29 11.53H11.12C11.12 11.53 11.09 11.52 11.09 11.5V11.41H11.16V11.45H11.18V11.41H11.25V11.45H11.27V11.42H11.33V11.5C11.33 11.5 11.32 11.53 11.3 11.53H11.29ZM11.11 11.42V11.49C11.11 11.49 11.11 11.5 11.12 11.5H11.29C11.29 11.5 11.3 11.5 11.3 11.49V11.42H11.27V11.45H11.21V11.41H11.18V11.45H11.12V11.41H11.09L11.11 11.42Z" fill="black"/>
<path d="M11.4401 11.48C11.4401 11.48 11.4001 11.45 11.4101 11.48V11.54H11.4401V11.48Z" fill="black"/>
<path d="M11.6501 11.57C11.6501 11.57 11.6201 11.55 11.6201 11.57V11.62H11.6501V11.57Z" fill="black"/>
<path d="M11.2201 11.57C11.2201 11.57 11.1901 11.55 11.1901 11.57V11.62H11.2201V11.57Z" fill="black"/>
<path d="M10.86 13.96C11.01 13.8 10.94 13.65 10.94 13.65C10.94 13.65 10.78 13.57 10.63 13.72L10.87 13.95" fill="#FFFF00"/>
<path d="M11.15 13.86L10.99 14.06L10.87 13.94C11.02 13.79 10.93 13.65 10.93 13.65C10.93 13.65 10.78 13.57 10.64 13.71L10.52 13.59L10.72 13.43L11.14 13.86H11.15Z" fill="#FFFF00"/>
<path d="M10.99 14.08L10.86 13.95C11 13.8 10.92 13.67 10.92 13.67C10.92 13.67 10.78 13.59 10.65 13.73L10.52 13.6L10.74 13.43L11.18 13.87L11.01 14.08H10.99ZM10.88 13.95L10.98 14.05L11.13 13.87L10.95 13.68C10.95 13.68 10.96 13.72 10.96 13.74C10.96 13.79 10.96 13.87 10.88 13.95ZM10.54 13.6L10.64 13.7C10.71 13.63 10.79 13.62 10.84 13.62C10.87 13.62 10.9 13.62 10.91 13.63L10.72 13.44L10.53 13.59L10.54 13.6Z" fill="black"/>
<path d="M10.99 14.07L10.51 13.59C10.51 13.59 10.48 13.59 10.47 13.59C10.46 13.59 10.46 13.62 10.47 13.63L10.95 14.11C10.95 14.11 10.98 14.11 10.99 14.11C11 14.11 11 14.08 10.99 14.07Z" fill="#FFFF00"/>
<path d="M10.97 14.13H10.95L10.47 13.65C10.47 13.65 10.46 13.61 10.47 13.6C10.49 13.58 10.51 13.58 10.52 13.6L11 14.08C11 14.08 11 14.09 11 14.1C11 14.11 11 14.12 10.99 14.13C10.99 14.13 10.97 14.14 10.96 14.14L10.97 14.13ZM10.5 13.59C10.5 13.59 10.49 13.59 10.48 13.59C10.48 13.59 10.48 13.61 10.48 13.62L10.96 14.1C10.96 14.1 10.96 14.1 10.97 14.1H10.98C10.98 14.1 10.98 14.09 10.98 14.08L10.5 13.6V13.59Z" fill="black"/>
<path d="M10.8201 13.9C10.9101 13.81 10.8801 13.72 10.8801 13.72C10.8801 13.72 10.7901 13.68 10.6901 13.77L10.8201 13.9Z" fill="#FFFF00"/>
<path d="M10.8201 13.91L10.6801 13.76C10.7501 13.69 10.8201 13.69 10.8501 13.69C10.8701 13.69 10.8701 13.69 10.8801 13.69C10.8801 13.69 10.8801 13.72 10.8801 13.73C10.8801 13.77 10.8801 13.83 10.8101 13.89L10.8201 13.91ZM10.7101 13.76L10.8301 13.88C10.9001 13.81 10.8801 13.73 10.8801 13.72C10.8601 13.72 10.7901 13.7 10.7201 13.77L10.7101 13.76Z" fill="black"/>
<path d="M11.24 13.81L10.78 13.35C10.78 13.35 10.75 13.35 10.74 13.35C10.73 13.35 10.73 13.38 10.74 13.39L11.2 13.85C11.2 13.85 11.23 13.85 11.24 13.85C11.25 13.85 11.25 13.82 11.24 13.81Z" fill="#FFFF00"/>
<path d="M11.22 13.86H11.2L10.74 13.4C10.74 13.4 10.73 13.36 10.74 13.35C10.74 13.35 10.76 13.34 10.77 13.34H10.79L11.25 13.8C11.25 13.8 11.26 13.84 11.25 13.85C11.25 13.85 11.23 13.86 11.22 13.86ZM10.77 13.35C10.77 13.35 10.77 13.35 10.76 13.35V13.37L11.22 13.83C11.22 13.83 11.22 13.83 11.23 13.83V13.81L10.77 13.35Z" fill="black"/>
<path d="M11.19 13.84L10.75 13.4C10.75 13.4 10.72 13.4 10.71 13.4C10.7 13.4 10.7 13.43 10.71 13.44L11.15 13.88C11.15 13.88 11.18 13.88 11.19 13.88C11.2 13.88 11.2 13.85 11.19 13.84Z" fill="#FFFF00"/>
<path d="M11.17 13.89H11.15L10.71 13.45C10.71 13.45 10.7 13.41 10.71 13.4C10.72 13.39 10.75 13.38 10.76 13.4L11.2 13.84C11.2 13.84 11.2 13.85 11.2 13.86C11.2 13.87 11.2 13.88 11.19 13.89C11.19 13.89 11.17 13.9 11.16 13.9L11.17 13.89ZM10.74 13.4H10.73V13.42L11.17 13.86C11.17 13.86 11.17 13.86 11.18 13.86C11.18 13.86 11.18 13.86 11.18 13.85L10.74 13.41V13.4Z" fill="black"/>
<path d="M11.35 13.4L11.32 13.37L11.3 13.39L11.27 13.36L11.3 13.33L11.26 13.29L11.23 13.32L11.2 13.29L11.23 13.26L11.19 13.22L11.13 13.28C11.13 13.28 11.13 13.3 11.13 13.31L11.25 13.44C11.25 13.44 11.27 13.44 11.28 13.44L11.34 13.38L11.35 13.4Z" fill="#FFFF00"/>
<path d="M11.28 13.47H11.26L11.14 13.34C11.14 13.34 11.13 13.31 11.14 13.3L11.2 13.24L11.25 13.29L11.22 13.32H11.23L11.26 13.31L11.31 13.36L11.28 13.39H11.29L11.31 13.38L11.35 13.42L11.29 13.49C11.29 13.49 11.28 13.49 11.27 13.49L11.28 13.47ZM11.19 13.25L11.14 13.3C11.14 13.3 11.14 13.31 11.14 13.32L11.26 13.45C11.26 13.45 11.27 13.45 11.28 13.45L11.33 13.4L11.31 13.38L11.29 13.4L11.25 13.36L11.28 13.33L11.26 13.31L11.23 13.34L11.19 13.3L11.22 13.27L11.2 13.25H11.19Z" fill="black"/>
<path d="M11.1401 13.34L10.9501 13.51L11.0701 13.63L11.2501 13.44L11.1401 13.33" fill="#FFFF00"/>
<path d="M11.0701 13.65L10.9301 13.51L11.1401 13.32L11.2601 13.44L11.0701 13.64V13.65ZM10.9701 13.52L11.0801 13.63L11.2401 13.45L11.1501 13.36L10.9701 13.52Z" fill="black"/>
<path d="M11.21 13.57L11.11 13.66L11.23 13.78L11.33 13.68L11.22 13.57H11.21Z" fill="#FFFF00"/>
<path d="M11.22 13.8L11.09 13.67L11.21 13.56L11.33 13.68L11.22 13.8ZM11.12 13.67L11.22 13.77L11.3 13.68L11.2 13.58L11.11 13.66L11.12 13.67Z" fill="black"/>
<path d="M10.9101 13.2701L10.8101 13.36L10.9301 13.48L11.0301 13.38L10.9201 13.2701H10.9101Z" fill="#FFFF00"/>
<path d="M10.92 13.5L10.79 13.37L10.91 13.26L11.03 13.38L10.92 13.5ZM10.82 13.37L10.92 13.47L11 13.38L10.9 13.28L10.81 13.36L10.82 13.37Z" fill="black"/>
<path d="M11.41 13.64L11.38 13.61L11.36 13.63L11.34 13.61L11.37 13.58L11.34 13.55L11.31 13.58L11.29 13.56L11.32 13.53L11.29 13.5L11.23 13.56C11.23 13.56 11.23 13.58 11.23 13.59L11.35 13.71C11.35 13.71 11.37 13.71 11.38 13.71L11.44 13.65L11.41 13.64Z" fill="#FFFF00"/>
<path d="M11.34 13.71H11.32L11.2 13.59C11.2 13.59 11.19 13.56 11.2 13.55L11.26 13.49L11.31 13.54L11.28 13.57H11.29L11.32 13.56L11.37 13.61L11.34 13.64H11.35L11.37 13.63L11.41 13.68L11.35 13.75C11.35 13.75 11.34 13.75 11.33 13.75L11.34 13.71ZM11.26 13.5L11.21 13.55C11.21 13.55 11.21 13.56 11.21 13.57L11.33 13.69C11.33 13.69 11.34 13.69 11.35 13.69L11.4 13.64L11.38 13.62L11.36 13.64L11.32 13.6L11.35 13.57L11.33 13.55L11.3 13.58L11.26 13.54L11.29 13.51L11.27 13.49L11.26 13.5Z" fill="black"/>
<path d="M11.1101 13.33L11.0801 13.3L11.0601 13.32L11.0401 13.3L11.0701 13.27L11.0401 13.24L11.0101 13.27L10.9901 13.25L11.0201 13.22L10.9901 13.19L10.9301 13.25C10.9301 13.25 10.9301 13.27 10.9301 13.28L11.0501 13.4C11.0501 13.4 11.0701 13.4 11.0801 13.4L11.1401 13.34L11.1101 13.33Z" fill="#FFFF00"/>
<path d="M11.04 13.41H11.02L10.9 13.29C10.9 13.29 10.9 13.28 10.9 13.27V13.25L10.96 13.19L11.01 13.24L10.98 13.27H10.99L11.02 13.26L11.07 13.31L11.04 13.34H11.05L11.07 13.33L11.12 13.38L11.06 13.44C11.06 13.44 11.05 13.44 11.04 13.44V13.41ZM10.96 13.19L10.91 13.24L11.03 13.36C11.03 13.36 11.04 13.36 11.05 13.36L11.1 13.31L11.08 13.29L11.06 13.31L11.02 13.27L11.05 13.24L11.03 13.22L11 13.25L10.96 13.21L10.99 13.18L10.97 13.16L10.96 13.19Z" fill="black"/>
<path d="M11.15 13.46C11.15 13.46 11.15 13.42 11.13 13.44L11.09 13.48L11.11 13.5L11.15 13.46Z" fill="black"/>
<path d="M11.24 13.68C11.24 13.68 11.24 13.64 11.22 13.66L11.19 13.69L11.21 13.71L11.24 13.68Z" fill="black"/>
<path d="M10.94 13.38C10.94 13.38 10.94 13.34 10.92 13.36L10.89 13.39L10.91 13.41L10.94 13.38Z" fill="black"/>
<path d="M9.31 12.1C9.31 12.19 9.34 12.27 9.4 12.33C9.45 12.39 9.53 12.43 9.61 12.43C9.69 12.43 9.77 12.39 9.82 12.34C9.87 12.28 9.91 12.2 9.91 12.11V11.68H9.31V12.11" fill="#003399"/>
<path d="M9.78001 12.22C9.78001 12.22 9.75001 12.22 9.74001 12.2L9.41001 11.87C9.41001 11.87 9.39001 11.81 9.41001 11.79C9.43001 11.77 9.47001 11.77 9.49001 11.79L9.82001 12.12C9.82001 12.12 9.84001 12.18 9.82001 12.2C9.81001 12.21 9.79001 12.22 9.78001 12.22Z" fill="white"/>
<path d="M9.31 11.06C9.31 11.15 9.34 11.23 9.4 11.29C9.45 11.35 9.53 11.39 9.61 11.39C9.69 11.39 9.77 11.35 9.82 11.3C9.87 11.24 9.91 11.16 9.91 11.07V10.64H9.31V11.07" fill="#003399"/>
<path d="M9.78001 11.18C9.78001 11.18 9.75001 11.18 9.74001 11.16L9.41001 10.83C9.41001 10.83 9.39001 10.77 9.41001 10.75C9.43001 10.73 9.47001 10.73 9.49001 10.75L9.82001 11.08C9.82001 11.08 9.84001 11.14 9.82001 11.16C9.81001 11.17 9.79001 11.18 9.78001 11.18Z" fill="white"/>
<path d="M8.47003 12.1C8.47003 12.19 8.50003 12.27 8.56003 12.33C8.61003 12.39 8.69003 12.43 8.77003 12.43C8.85003 12.43 8.93003 12.39 8.98003 12.34C9.03003 12.28 9.07003 12.2 9.07003 12.11V11.68H8.47003V12.11" fill="#003399"/>
<path d="M8.94005 12.22C8.94005 12.22 8.91005 12.22 8.90005 12.2L8.57005 11.87C8.57005 11.87 8.55005 11.81 8.57005 11.79C8.59005 11.77 8.63005 11.77 8.65005 11.79L8.98005 12.12C8.98005 12.12 9.00005 12.18 8.98005 12.2C8.97005 12.21 8.95005 12.22 8.94005 12.22Z" fill="white"/>
<path d="M10.14 12.1C10.14 12.19 10.17 12.27 10.23 12.33C10.28 12.39 10.36 12.43 10.44 12.43C10.52 12.43 10.6 12.39 10.65 12.34C10.7 12.28 10.74 12.2 10.74 12.11V11.68H10.14V12.11" fill="#003399"/>
<path d="M10.61 12.22C10.61 12.22 10.58 12.22 10.57 12.2L10.24 11.87C10.24 11.87 10.22 11.81 10.24 11.79C10.26 11.77 10.3 11.77 10.32 11.79L10.65 12.12C10.65 12.12 10.67 12.18 10.65 12.2C10.64 12.21 10.62 12.22 10.61 12.22Z" fill="white"/>
<path d="M9.31 13.13C9.31 13.22 9.34 13.3 9.4 13.36C9.45 13.42 9.53 13.46 9.61 13.46C9.69 13.46 9.77 13.42 9.82 13.37C9.87 13.31 9.91 13.23 9.91 13.14V12.71H9.31V13.14" fill="#003399"/>
<path d="M9.78001 13.25C9.78001 13.25 9.75001 13.25 9.74001 13.23L9.41001 12.9C9.41001 12.9 9.39001 12.84 9.41001 12.82C9.43001 12.8 9.47001 12.8 9.49001 12.82L9.82001 13.15C9.82001 13.15 9.84001 13.21 9.82001 13.23C9.81001 13.24 9.79001 13.25 9.78001 13.25Z" fill="white"/>
</g>
</g>
<defs>
<clipPath id="clip0_104_17300">
<rect width="24" height="24" fill="white"/>
</clipPath>
</defs>
</svg>
