<svg width="24" height="24" viewBox="0 0 24 24" fill="none" xmlns="http://www.w3.org/2000/svg">
<g clip-path="url(#clip0_170_14301)">
<mask id="mask0_170_14301" style="mask-type:luminance" maskUnits="userSpaceOnUse" x="0" y="0" width="24" height="24">
<path d="M12 24C18.6274 24 24 18.6274 24 12C24 5.37258 18.6274 0 12 0C5.37258 0 0 5.37258 0 12C0 18.6274 5.37258 24 12 24Z" fill="white"/>
</mask>
<g mask="url(#mask0_170_14301)">
<path d="M0 0.0299988H24V23.98H0V0.0299988Z" fill="#FAD201"/>
<path d="M0 0.0299988H24V12H0V0.0299988Z" fill="#00A3E0"/>
<path d="M0 17.99H24V23.98H0V17.99Z" fill="#20603D"/>
<path d="M17.45 5.06L17.55 6.85L18.11 5.15L17.75 6.91L18.74 5.41L17.93 7.01L19.27 5.82L18.08 7.16L19.68 6.35L18.18 7.34L19.94 6.98L18.24 7.54L20.03 7.64L18.24 7.74L19.94 8.3L18.18 7.94L19.68 8.93L18.08 8.12L19.27 9.46L17.93 8.27L18.74 9.87L17.75 8.37L18.11 10.13L17.55 8.43L17.45 10.22L17.35 8.43L16.79 10.13L17.15 8.37L16.16 9.87L16.97 8.27L15.63 9.46L16.82 8.12L15.22 8.93L16.72 7.94L14.96 8.3L16.66 7.74L14.87 7.64L16.66 7.54L14.96 6.98L16.72 7.34L15.22 6.35L16.82 7.16L15.63 5.82L16.97 7.01L16.16 5.41L17.15 6.91L16.79 5.15L17.35 6.85L17.45 5.06Z" fill="#E5BE01"/>
<path d="M17.45 8.39999C17.8642 8.39999 18.2 8.06421 18.2 7.64999C18.2 7.23578 17.8642 6.89999 17.45 6.89999C17.0358 6.89999 16.7 7.23578 16.7 7.64999C16.7 8.06421 17.0358 8.39999 17.45 8.39999Z" stroke="#00A3E0" stroke-width="0.09" stroke-miterlimit="2.31"/>
</g>
</g>
<defs>
<clipPath id="clip0_170_14301">
<rect width="24" height="24" fill="white"/>
</clipPath>
</defs>
</svg>
