<svg width="24" height="24" viewBox="0 0 24 24" fill="none" xmlns="http://www.w3.org/2000/svg">
<g clip-path="url(#clip0_170_16314)">
<mask id="mask0_170_16314" style="mask-type:luminance" maskUnits="userSpaceOnUse" x="0" y="0" width="24" height="24">
<path d="M12 24C18.6274 24 24 18.6274 24 12C24 5.37258 18.6274 0 12 0C5.37258 0 0 5.37258 0 12C0 18.6274 5.37258 24 12 24Z" fill="white"/>
</mask>
<g mask="url(#mask0_170_16314)">
<path d="M0 -0.240005H24V24.23H0V-0.240005Z" fill="#CE1126"/>
<path d="M0 -0.240005H12V12H0V-0.240005Z" fill="#002B7F"/>
<path d="M6.88001 9.17L6.63001 8.42L6.39001 9.17H5.60001L6.24001 9.63L5.99001 10.38L6.63001 9.92L7.27001 10.38L7.03001 9.63L7.67001 9.17H6.88001Z" fill="white"/>
<path d="M4.55 6.02L4.36 5.42L4.16 6.02H3.53L4.04 6.39L3.84 6.99L4.36 6.62L4.87 6.99L4.67 6.39L5.18 6.02H4.55Z" fill="white"/>
<path d="M6.31999 4.52999L6.11999 5.12999L6.62999 4.75999L7.13999 5.12999L6.94999 4.52999L7.45999 4.14999H6.82999L6.62999 3.54999L6.43999 4.14999H5.79999L6.31999 4.52999Z" fill="white"/>
<path d="M9.26 6.01999L9.74 5.66999H9.15L8.96 5.09999L8.78 5.66999H8.19L8.67 6.01999L8.48 6.57999L8.96 6.22999L9.44 6.57999L9.26 6.01999Z" fill="white"/>
<path d="M7.89 7.38999L7.77 7.01999L7.65 7.38999H7.25L7.57 7.62999L7.45 7.99999L7.77 7.76999L8.09 7.99999L7.97 7.62999L8.29 7.38999H7.89Z" fill="white"/>
</g>
</g>
<defs>
<clipPath id="clip0_170_16314">
<rect width="24" height="24" fill="white"/>
</clipPath>
</defs>
</svg>
