<svg width="24" height="24" viewBox="0 0 24 24" fill="none" xmlns="http://www.w3.org/2000/svg">
<g clip-path="url(#clip0_104_14159)">
<mask id="mask0_104_14159" style="mask-type:luminance" maskUnits="userSpaceOnUse" x="0" y="0" width="24" height="24">
<path d="M12 24C18.6274 24 24 18.6274 24 12C24 5.37258 18.6274 0 12 0C5.37258 0 0 5.37258 0 12C0 18.6274 5.37258 24 12 24Z" fill="white"/>
</mask>
<g mask="url(#mask0_104_14159)">
<path d="M24 0H0V24H24V0Z" fill="#005430"/>
<path d="M12.26 10.48C12.26 10.48 12.16 10.48 12.12 10.5C11.98 10.55 11.83 10.61 11.69 10.66C11.66 10.67 11.64 10.69 11.62 10.72C11.65 10.72 11.68 10.72 11.71 10.72C12.1 10.72 12.49 10.7 12.88 10.69C12.91 10.69 12.95 10.69 12.98 10.69C13.02 10.69 13.03 10.72 13.02 10.75C13 10.81 12.98 10.87 12.95 10.92C12.92 10.98 12.86 10.99 12.8 11C12.65 11.03 12.49 11.06 12.34 11.1C12.18 11.14 12.01 11.2 11.85 11.26C11.81 11.27 11.77 11.29 11.74 11.32C11.67 11.37 11.67 11.43 11.72 11.5C11.77 11.57 11.85 11.6 11.93 11.63C11.96 11.64 12 11.65 12.03 11.66C12.1 11.69 12.12 11.71 12.1 11.78C12.06 11.93 12.06 11.95 11.89 11.94C11.68 11.92 11.49 11.87 11.31 11.77C11.13 11.67 10.99 11.53 10.89 11.34C10.88 11.32 10.87 11.3 10.85 11.27C10.83 11.29 10.81 11.31 10.8 11.33C10.68 11.49 10.55 11.64 10.39 11.76C10.3 11.82 10.21 11.88 10.12 11.93C10.02 11.98 9.90997 11.99 9.79997 11.98C9.63997 11.96 9.53997 11.88 9.48997 11.73C9.47997 11.69 9.46997 11.65 9.45997 11.6C9.42997 11.6 9.40997 11.62 9.37997 11.63C9.11997 11.74 8.84997 11.82 8.56997 11.9C8.51997 11.91 8.51997 11.91 8.46997 11.9C8.47997 11.85 8.51997 11.85 8.55997 11.83C8.80997 11.69 9.05997 11.55 9.31997 11.42C9.42997 11.36 9.49997 11.29 9.51997 11.17C9.53997 11.08 9.58997 10.99 9.62997 10.9C9.63997 10.87 9.65997 10.85 9.67997 10.82C9.73997 10.87 9.70997 10.93 9.70997 10.98C9.70997 11.03 9.70997 11.09 9.70997 11.15C9.73997 11.14 9.75997 11.13 9.76997 11.12C9.87997 11.03 9.98997 10.95 10.1 10.85C10.24 10.73 10.25 10.62 10.17 10.46C10.13 10.39 10.1 10.32 10.06 10.25C10.04 10.21 10.02 10.16 9.96997 10.14C9.92997 10.12 9.91997 10.08 9.92997 10.04C9.95997 9.96999 9.98997 9.89999 10.03 9.83999C10.05 9.79999 10.08 9.79999 10.12 9.82999C10.21 9.90999 10.29 9.98999 10.34 10.1C10.36 10.15 10.36 10.16 10.29 10.19C10.29 10.21 10.31 10.24 10.31 10.26C10.33 10.34 10.36 10.41 10.37 10.49C10.42 10.71 10.36 10.9 10.21 11.06C10.07 11.21 9.91997 11.34 9.73997 11.45C9.69997 11.47 9.65997 11.49 9.66997 11.55C9.66997 11.61 9.69997 11.66 9.75997 11.68C9.79997 11.69 9.84997 11.7 9.89997 11.7C9.99997 11.7 10.1 11.66 10.19 11.61C10.44 11.46 10.61 11.24 10.76 11C10.79 10.96 10.77 10.92 10.76 10.88C10.67 10.6 10.59 10.33 10.48 10.06C10.42 9.89999 10.48 9.77999 10.56 9.65999C10.56 9.65999 10.57 9.65999 10.59 9.64999C10.6 9.66999 10.62 9.68999 10.63 9.71999C10.82 10.1 10.95 10.49 11 10.91C11 10.97 11.02 11.03 11.03 11.09C11.09 11.35 11.23 11.49 11.5 11.56C11.44 11.28 11.63 11.15 11.85 11.05C11.77 10.98 11.68 10.95 11.59 10.95C11.46 10.94 11.34 10.94 11.21 10.93C11.04 10.93 11.03 10.9 11.07 10.74C11.11 10.61 11.18 10.52 11.32 10.48C11.5 10.42 11.68 10.36 11.85 10.29C11.88 10.29 11.9 10.27 11.93 10.26C11.93 10.25 11.93 10.24 11.93 10.23C11.85 10.06 11.93 9.82999 12.08 9.72999C12.15 9.68999 12.23 9.68999 12.31 9.70999C12.42 9.73999 12.52 9.78999 12.6 9.85999C12.71 9.94999 12.73 10.08 12.65 10.2C12.58 10.31 12.48 10.36 12.36 10.41C12.32 10.43 12.29 10.45 12.25 10.48H12.26ZM12.4 10.14C12.4 10.14 12.4 10.13 12.4 10.12C12.32 10.08 12.25 10.02 12.15 10.01C12.13 10.08 12.14 10.14 12.17 10.2C12.25 10.18 12.32 10.16 12.39 10.15L12.4 10.14Z" fill="white"/>
<path d="M14.86 15.5H14.74C12.78 15.5 10.82 15.5 8.86 15.5C8.64 15.5 8.42 15.48 8.2 15.47C8.06 15.46 7.92 15.42 7.8 15.34C7.76 15.32 7.73 15.28 7.69 15.26C7.69 15.25 7.69 15.24 7.69 15.24C7.69 15.24 7.71 15.24 7.72 15.24C10.09 15.24 12.46 15.24 14.83 15.24C14.83 15.24 14.83 15.24 14.84 15.24C14.86 15.21 14.85 15.18 14.82 15.15C14.81 15.14 14.79 15.12 14.78 15.11C14.74 15.06 14.74 15.04 14.78 14.99C14.86 14.88 14.97 14.89 15.03 15.02C15.05 15.07 15.03 15.1 15 15.12C14.97 15.15 14.94 15.18 14.96 15.25H15.05C15.36 15.25 15.66 15.25 15.97 15.25C16.03 15.25 16.08 15.25 16.14 15.27C16.22 15.28 16.27 15.33 16.28 15.41C16.3 15.51 16.3 15.61 16.27 15.71C16.24 15.81 16.12 15.86 16.01 15.8C15.96 15.77 15.91 15.77 15.86 15.77C15.8 15.77 15.75 15.77 15.69 15.77C15.64 15.77 15.59 15.77 15.54 15.8C15.49 15.83 15.43 15.83 15.38 15.8C15.34 15.77 15.29 15.77 15.24 15.77C15.2 15.77 15.15 15.77 15.11 15.77C15.05 15.77 15.01 15.78 14.97 15.83C14.92 15.89 14.89 15.88 14.83 15.83C14.83 15.83 14.82 15.82 14.81 15.81C14.75 15.74 14.75 15.72 14.81 15.65C14.84 15.62 14.87 15.59 14.84 15.53L14.86 15.5ZM15.93 15.65V15.5H14.98C14.98 15.59 15.02 15.65 15.1 15.65C15.17 15.65 15.23 15.65 15.3 15.65C15.33 15.65 15.36 15.64 15.39 15.62C15.46 15.59 15.52 15.58 15.59 15.62C15.61 15.63 15.63 15.64 15.65 15.65C15.74 15.65 15.83 15.65 15.93 15.65Z" fill="white"/>
<path d="M6.94998 10.64C6.98998 10.7 6.97998 10.77 6.96998 10.84C6.92998 10.99 6.94998 11.14 6.96998 11.28C7.01998 11.52 7.16998 11.64 7.40998 11.64C7.49998 11.64 7.59998 11.63 7.68998 11.61C7.90998 11.56 8.10998 11.47 8.28998 11.33C8.42998 11.22 8.51998 11.08 8.52998 10.91C8.52998 10.75 8.52998 10.59 8.52998 10.43C8.42998 10.45 8.40998 10.46 8.41998 10.55C8.43998 10.74 8.38998 10.9 8.26998 11.04C8.07998 11.24 7.84998 11.38 7.57998 11.43C7.32998 11.47 7.08998 11.29 7.05998 11.04C7.03998 10.87 7.05998 10.71 7.10998 10.55C7.11998 10.52 7.13998 10.48 7.15998 10.45H7.17998C7.17998 10.47 7.17998 10.5 7.17998 10.52C7.17998 10.6 7.17998 10.68 7.17998 10.75C7.17998 10.79 7.17998 10.83 7.19998 10.87C7.26998 11.1 7.41998 11.19 7.64998 11.11C7.86998 11.04 8.04998 10.89 8.19998 10.72C8.24998 10.67 8.25998 10.6 8.23998 10.52C8.15998 10.54 8.08998 10.56 8.01998 10.59C7.94998 10.61 7.87998 10.61 7.80998 10.59C7.74998 10.57 7.71998 10.53 7.71998 10.47C7.71998 10.41 7.71998 10.36 7.71998 10.3C7.71998 10.15 7.79998 10.03 7.90998 9.93999C7.97998 9.88999 8.05998 9.89999 8.11998 9.93999C8.19998 10.01 8.25998 10.08 8.32998 10.16C8.34998 10.18 8.35998 10.2 8.36998 10.22C8.41998 10.19 8.45998 10.17 8.51998 10.14C8.51998 10.04 8.50998 9.93999 8.49998 9.83999C8.45998 9.49999 8.41998 9.14999 8.36998 8.80999C8.36998 8.75999 8.36998 8.70999 8.35998 8.66999C8.35998 8.62999 8.35998 8.58999 8.33998 8.55999C8.31998 8.49999 8.33998 8.44999 8.36998 8.40999C8.39998 8.37999 8.41998 8.34999 8.44998 8.32999C8.50998 8.27999 8.52998 8.28999 8.55998 8.34999C8.56998 8.37999 8.57998 8.40999 8.58998 8.43999C8.62998 8.54999 8.67998 8.66999 8.71998 8.77999C8.71998 8.79999 8.73998 8.81999 8.73998 8.83999C8.75998 8.93999 8.71998 8.97999 8.60998 8.95999C8.63998 9.30999 8.65998 9.66999 8.68998 10.04C8.73998 9.99999 8.76998 9.96999 8.80998 9.93999C8.82998 9.92999 8.85998 9.91999 8.87998 9.92999C8.88998 9.92999 8.89998 9.96999 8.89998 9.98999C8.89998 10.04 8.89998 10.09 8.89998 10.14C8.91998 10.26 9.00998 10.29 9.10998 10.22C9.18998 10.16 9.22998 10.08 9.26998 9.98999C9.27998 9.95999 9.29998 9.92999 9.30998 9.89999H9.32998C9.32998 9.92999 9.33998 9.95999 9.34998 9.98999C9.35998 10.04 9.36998 10.08 9.38998 10.13C9.39998 10.16 9.42998 10.19 9.44998 10.21C9.49998 10.25 9.55998 10.23 9.57998 10.17C9.59998 10.11 9.59998 10.05 9.57998 9.98999C9.55998 9.92999 9.59998 9.86999 9.65998 9.85999C9.69998 9.85999 9.70998 9.87999 9.70998 9.90999C9.72998 10.01 9.72998 10.11 9.70998 10.21C9.69998 10.29 9.66998 10.37 9.57998 10.39C9.47998 10.42 9.38998 10.39 9.30998 10.32C9.29998 10.31 9.27998 10.29 9.25998 10.27C9.23998 10.29 9.20998 10.31 9.18998 10.33C9.10998 10.4 9.01998 10.43 8.91998 10.43C8.82998 10.43 8.75998 10.39 8.69998 10.31C8.69998 10.33 8.69998 10.35 8.69998 10.37C8.69998 10.52 8.71998 10.66 8.70998 10.81C8.70998 10.92 8.69998 11.04 8.66998 11.15C8.61998 11.37 8.50998 11.54 8.30998 11.65C7.98998 11.83 7.65998 11.93 7.28998 11.91C7.06998 11.9 6.91998 11.8 6.84998 11.58C6.74998 11.27 6.76998 10.97 6.88998 10.67C6.88998 10.66 6.89998 10.65 6.90998 10.64C6.90998 10.64 6.90998 10.64 6.92998 10.63L6.94998 10.64ZM8.13998 10.31C8.07998 10.23 8.03998 10.17 7.92998 10.17C7.92998 10.2 7.90998 10.23 7.90998 10.26C7.90998 10.32 7.92998 10.35 7.99998 10.34C8.03998 10.34 8.07998 10.32 8.13998 10.31Z" fill="white"/>
<path d="M15.91 8.7C15.95 8.76 15.99 8.81 16.03 8.87C16.03 8.87 16.04 8.87 16.07 8.9C16.04 8.79 16.06 8.69 16.02 8.59C15.97 8.47 16.02 8.32 16.15 8.24C16.16 8.26 16.19 8.28 16.19 8.3C16.26 8.47 16.33 8.63 16.37 8.81C16.34 8.81 16.32 8.81 16.3 8.81V8.83C16.3 8.96 16.32 9.08 16.33 9.21C16.33 9.23 16.33 9.26 16.35 9.28C16.44 9.41 16.54 9.53 16.65 9.65C16.65 9.63 16.65 9.62 16.65 9.6C16.59 9.25 16.55 8.9 16.52 8.55C16.52 8.43 16.54 8.34 16.6 8.25C16.65 8.18 16.69 8.19 16.72 8.27C16.73 8.3 16.74 8.33 16.75 8.36C16.79 8.48 16.82 8.61 16.86 8.73C16.88 8.82 16.87 8.84 16.79 8.87C16.79 8.97 16.79 9.07 16.81 9.17C16.83 9.41 16.86 9.65 16.88 9.89C16.88 9.95 16.9 10 16.94 10.05C17.05 10.2 17.16 10.35 17.26 10.5C17.32 10.58 17.37 10.67 17.41 10.75C17.46 10.86 17.47 10.98 17.43 11.11C17.41 11.08 17.39 11.06 17.37 11.03C17.23 10.84 17.1 10.65 16.96 10.46C16.96 10.46 16.94 10.44 16.93 10.42C16.93 10.45 16.93 10.48 16.93 10.5C16.93 10.63 16.93 10.75 16.93 10.88C16.93 10.95 16.91 11.01 16.89 11.08C16.89 11.1 16.87 11.12 16.85 11.14C16.81 11.09 16.82 11.05 16.82 11C16.84 10.82 16.82 10.64 16.8 10.46C16.79 10.38 16.78 10.3 16.76 10.22C16.76 10.2 16.75 10.17 16.73 10.16C16.62 10.01 16.51 9.86 16.4 9.71C16.4 9.71 16.4 9.71 16.38 9.71C16.38 9.76 16.38 9.8 16.38 9.85C16.4 10.18 16.42 10.51 16.43 10.84C16.43 10.93 16.42 11.02 16.4 11.12C16.4 11.16 16.37 11.21 16.35 11.24C16.26 11.41 16.11 11.48 15.92 11.43C15.79 11.4 15.69 11.33 15.6 11.22C15.58 11.2 15.56 11.17 15.54 11.14C15.5 11.18 15.47 11.21 15.45 11.24C15.41 11.3 15.38 11.37 15.34 11.44C15.27 11.56 15.2 11.69 15.12 11.81C15.1 11.84 15.08 11.86 15.06 11.88C15.02 11.92 14.97 11.94 14.91 11.91C14.8 11.85 14.71 11.78 14.63 11.68C14.58 11.62 14.57 11.55 14.57 11.48C14.57 11.29 14.61 11.11 14.67 10.93C14.67 10.92 14.68 10.91 14.69 10.9C14.73 10.91 14.72 10.94 14.72 10.97C14.72 11.06 14.72 11.15 14.74 11.24C14.75 11.33 14.78 11.42 14.81 11.52C14.81 11.54 14.83 11.56 14.84 11.58C14.89 11.66 14.96 11.66 15.02 11.58C15.05 11.55 15.07 11.5 15.09 11.47C15.19 11.3 15.29 11.12 15.39 10.95C15.41 10.91 15.44 10.88 15.47 10.85C15.51 10.81 15.56 10.81 15.61 10.85C15.65 10.89 15.69 10.93 15.73 10.97C15.77 11.01 15.81 11.06 15.85 11.1C15.95 11.18 16.07 11.15 16.13 11.04C16.17 10.97 16.18 10.89 16.18 10.82C16.18 10.59 16.17 10.36 16.16 10.13C16.15 9.92 16.13 9.71 16.11 9.5C16.11 9.4 16.08 9.32 16.01 9.24C15.87 9.08 15.74 8.91 15.6 8.75C15.53 8.67 15.49 8.59 15.51 8.48C15.52 8.43 15.51 8.37 15.51 8.32C15.51 8.3 15.52 8.26 15.53 8.26C15.55 8.26 15.58 8.26 15.6 8.28C15.61 8.28 15.62 8.3 15.63 8.3C15.72 8.38 15.8 8.46 15.89 8.54C15.9 8.55 15.92 8.56 15.93 8.58C15.97 8.63 15.97 8.65 15.9 8.69L15.91 8.7Z" fill="white"/>
<path d="M7.64999 9.46998C7.57999 9.55998 7.51999 9.62998 7.45999 9.70998C7.44999 9.72998 7.45999 9.75998 7.45999 9.77998C7.47999 9.99998 7.48999 10.22 7.50999 10.43C7.51999 10.56 7.52999 10.69 7.45999 10.81C7.45999 10.82 7.44999 10.83 7.43999 10.84C7.43999 10.84 7.42999 10.84 7.40999 10.85C7.36999 10.74 7.38999 10.63 7.36999 10.52C7.34999 10.41 7.33999 10.29 7.32999 10.17C7.31999 10.06 7.29999 9.94998 7.28999 9.82998C7.27999 9.82998 7.26999 9.82998 7.24999 9.82998C6.99999 9.80998 6.90999 9.63998 6.87999 9.46998C6.85999 9.33998 6.86999 9.20998 6.87999 9.07998C6.87999 9.02998 6.89999 8.98998 6.86999 8.91998C6.84999 8.96998 6.82999 8.98998 6.81999 9.01998C6.78999 9.14998 6.75999 9.28998 6.72999 9.41998C6.70999 9.49998 6.67999 9.56998 6.65999 9.64998C6.64999 9.67998 6.61999 9.70998 6.59999 9.73998C6.53999 9.79998 6.46999 9.79998 6.40999 9.73998C6.38999 9.71998 6.37999 9.68998 6.35999 9.65998C6.23999 9.39998 6.19999 9.11998 6.25999 8.83998C6.25999 8.79998 6.28999 8.75998 6.29999 8.71998C6.34999 8.74998 6.32999 8.77998 6.33999 8.80998C6.34999 8.94998 6.35999 9.08998 6.37999 9.22998C6.37999 9.28998 6.40999 9.34998 6.42999 9.39998C6.43999 9.42998 6.45999 9.45998 6.47999 9.47998C6.51999 9.52998 6.55999 9.51998 6.58999 9.47998C6.60999 9.44998 6.61999 9.41998 6.61999 9.38998C6.62999 9.31998 6.64999 9.23998 6.65999 9.16998C6.67999 8.98998 6.73999 8.81998 6.84999 8.66998C6.86999 8.63998 6.89999 8.60998 6.92999 8.58998C7.00999 8.53998 7.08999 8.57998 7.07999 8.66998C7.07999 8.74998 7.05999 8.81998 7.03999 8.89998C6.99999 9.01998 6.98999 9.13998 7.02999 9.25998C7.04999 9.31998 7.06999 9.36998 7.09999 9.41998C7.12999 9.46998 7.17999 9.50998 7.24999 9.49998C7.24999 9.44998 7.24999 9.39998 7.24999 9.35998C7.23999 9.21998 7.22999 9.07998 7.20999 8.93998C7.20999 8.85998 7.17999 8.78998 7.16999 8.70998C7.16999 8.66998 7.15999 8.61998 7.14999 8.57998C7.14999 8.55998 7.13999 8.52998 7.12999 8.50998C7.09999 8.42998 7.12999 8.32998 7.19999 8.27998C7.22999 8.25998 7.24999 8.26998 7.25999 8.27998C7.33999 8.37998 7.40999 8.48998 7.41999 8.62998C7.41999 8.65998 7.39999 8.68998 7.38999 8.72998C7.38999 8.74998 7.35999 8.76998 7.35999 8.78998C7.37999 9.00998 7.39999 9.23998 7.42999 9.45998C7.52999 9.40998 7.58999 9.28998 7.56999 9.18998C7.54999 9.06998 7.51999 8.94998 7.48999 8.82998C7.45999 8.71998 7.46999 8.60998 7.52999 8.48998C7.54999 8.50998 7.57999 8.51998 7.58999 8.52998C7.67999 8.61998 7.70999 8.71998 7.69999 8.83998C7.67999 8.98998 7.71999 9.13998 7.75999 9.27998C7.79999 9.39998 7.86999 9.45998 7.98999 9.45998C8.07999 9.45998 8.10999 9.42998 8.09999 9.32998C8.07999 9.15998 8.01999 8.98998 7.95999 8.82998C7.94999 8.79998 7.92999 8.76998 7.91999 8.73998C7.89999 8.68998 7.90999 8.64998 7.93999 8.61998C7.95999 8.59998 7.97999 8.56998 7.99999 8.53998C8.03999 8.49998 8.06999 8.48998 8.10999 8.53998C8.15999 8.58998 8.19999 8.63998 8.23999 8.68998C8.29999 8.77998 8.28999 8.80998 8.19999 8.86998C8.22999 8.99998 8.25999 9.12998 8.28999 9.24998C8.28999 9.27998 8.28999 9.31998 8.29999 9.35998C8.29999 9.57998 8.17999 9.69998 7.97999 9.74998C7.85999 9.77998 7.73999 9.70998 7.68999 9.58998C7.67999 9.55998 7.66999 9.51998 7.64999 9.47998V9.46998Z" fill="white"/>
<path d="M11.44 8.15999C11.5 8.21999 11.52 8.27999 11.54 8.33999C11.59 8.49999 11.6 8.66999 11.61 8.83999C11.61 8.97999 11.66 9.10999 11.72 9.22999C11.74 9.26999 11.77 9.30999 11.8 9.33999C11.89 9.41999 11.99 9.38999 12.02 9.26999C12.04 9.17999 12.03 9.08999 12.01 8.99999C11.97 8.83999 11.92 8.68999 11.87 8.53999C11.85 8.47999 11.84 8.43999 11.89 8.38999C11.92 8.35999 11.94 8.31999 11.96 8.28999C11.99 8.23999 12.01 8.22999 12.06 8.26999C12.17 8.34999 12.24 8.45999 12.28 8.58999C12.28 8.61999 12.28 8.64999 12.28 8.66999C12.26 8.69999 12.23 8.66999 12.2 8.65999C12.18 8.64999 12.17 8.63999 12.13 8.60999C12.13 8.64999 12.14 8.66999 12.15 8.68999C12.2 8.82999 12.23 8.96999 12.24 9.11999C12.24 9.23999 12.22 9.34999 12.17 9.44999C12.08 9.61999 11.92 9.66999 11.75 9.55999C11.68 9.50999 11.62 9.44999 11.54 9.38999C11.53 9.40999 11.51 9.42999 11.5 9.44999C11.41 9.56999 11.3 9.64999 11.15 9.69999C10.96 9.75999 10.8 9.67999 10.73 9.49999C10.69 9.39999 10.69 9.28999 10.69 9.17999C10.69 9.10999 10.69 9.02999 10.69 8.94999C10.65 8.94999 10.64 8.98999 10.63 9.00999C10.6 9.08999 10.57 9.17999 10.54 9.25999C10.52 9.31999 10.49 9.38999 10.46 9.44999C10.45 9.47999 10.43 9.51999 10.41 9.53999C10.36 9.60999 10.29 9.61999 10.21 9.56999C10.18 9.54999 10.15 9.52999 10.13 9.49999C9.92999 9.27999 9.88999 9.01999 9.95999 8.73999C9.96999 8.68999 9.98999 8.62999 10.01 8.57999C10.01 8.55999 10.03 8.54999 10.04 8.52999C10.04 8.52999 10.05 8.52999 10.06 8.52999C10.06 8.55999 10.06 8.58999 10.05 8.60999C10.02 8.75999 10.02 8.90999 10.05 9.05999C10.06 9.13999 10.09 9.21999 10.14 9.27999C10.21 9.36999 10.27 9.35999 10.32 9.24999C10.4 9.07999 10.48 8.89999 10.56 8.72999C10.6 8.64999 10.65 8.57999 10.7 8.50999C10.73 8.46999 10.76 8.42999 10.82 8.44999C10.87 8.45999 10.9 8.53999 10.89 8.59999C10.88 8.70999 10.86 8.80999 10.85 8.91999C10.85 9.02999 10.85 9.13999 10.85 9.24999C10.85 9.39999 10.96 9.46999 11.1 9.42999C11.31 9.36999 11.42 9.24999 11.43 9.03999C11.43 8.84999 11.4 8.65999 11.35 8.47999C11.33 8.39999 11.33 8.33999 11.37 8.26999C11.39 8.23999 11.41 8.19999 11.44 8.14999V8.15999Z" fill="white"/>
<path d="M13.23 11.6C13.23 11.6 13.19 11.53 13.2 11.5C13.29 11.17 13.24 10.84 13.2 10.51C13.16 10.17 13.11 9.82998 13.06 9.49998C13.06 9.44998 13.04 9.40998 13.01 9.36998C12.84 9.14998 12.67 8.92998 12.5 8.70998C12.48 8.67998 12.45 8.65998 12.42 8.63998C12.38 8.60998 12.35 8.57998 12.35 8.51998C12.35 8.44998 12.35 8.36998 12.35 8.29998C12.35 8.26998 12.35 8.23998 12.38 8.21998C12.41 8.19998 12.44 8.21998 12.47 8.23998C12.61 8.35998 12.74 8.47998 12.88 8.59998C12.88 8.59998 12.88 8.59998 12.89 8.60998C12.89 8.63998 12.92 8.66998 12.91 8.68998C12.91 8.69998 12.87 8.70998 12.84 8.70998C12.84 8.70998 12.82 8.70998 12.81 8.70998C12.83 8.76998 12.94 8.93999 13.03 9.01999C13.03 8.98999 13.03 8.96998 13.03 8.94998C13.03 8.85998 13.01 8.76998 13 8.67998C13 8.64998 13 8.62998 12.98 8.59998C12.95 8.54998 12.94 8.48998 12.97 8.43998C12.99 8.39998 13 8.35998 13.02 8.31998C13.05 8.26998 13.1 8.26998 13.14 8.31998C13.14 8.32998 13.16 8.33998 13.16 8.35998C13.22 8.49998 13.28 8.64998 13.34 8.78998C13.34 8.80998 13.35 8.82998 13.36 8.84998C13.38 8.93998 13.36 8.95998 13.27 8.95998C13.27 9.10998 13.28 9.25998 13.3 9.40998C13.3 9.43998 13.33 9.46998 13.35 9.49998C13.54 9.79998 13.74 10.1 13.92 10.41C14.01 10.56 14.07 10.72 14.13 10.88C14.15 10.94 14.16 11.01 14.17 11.07C14.17 11.09 14.17 11.12 14.17 11.14C14.17 11.14 14.16 11.14 14.15 11.14C14.13 11.11 14.11 11.09 14.09 11.06C13.91 10.64 13.65 10.26 13.4 9.87998C13.4 9.85998 13.38 9.84998 13.37 9.83998C13.37 9.83998 13.36 9.83998 13.35 9.82998C13.35 9.93998 13.37 10.05 13.37 10.16C13.39 10.44 13.45 10.71 13.44 10.99C13.44 11.17 13.41 11.34 13.33 11.51C13.32 11.54 13.29 11.57 13.27 11.6H13.23Z" fill="white"/>
<path d="M17.44 8.20998C17.5 8.25998 17.65 8.53998 17.7 8.68998C17.7 8.71998 17.7 8.74998 17.72 8.78998C17.68 8.78998 17.66 8.77998 17.63 8.76998V8.78998C17.64 8.99998 17.65 9.20998 17.68 9.42998C17.72 9.82998 17.78 10.24 17.77 10.65C17.77 10.8 17.75 10.96 17.72 11.11C17.62 11.57 17.36 11.82 16.89 11.9C16.84 11.9 16.79 11.93 16.74 11.9C16.74 11.86 16.77 11.84 16.8 11.82C16.86 11.78 16.93 11.74 16.99 11.69C17.09 11.61 17.2 11.54 17.29 11.45C17.46 11.29 17.55 11.08 17.55 10.84C17.55 10.65 17.55 10.46 17.53 10.27C17.5 9.96998 17.47 9.65998 17.43 9.35998C17.39 9.05998 17.35 8.75998 17.31 8.45998C17.31 8.42998 17.31 8.39998 17.32 8.36998C17.35 8.29998 17.4 8.24998 17.45 8.19998L17.44 8.20998Z" fill="white"/>
<path d="M14.4 8.85998H14.31C14.3 8.99998 14.31 9.14998 14.32 9.28998C14.38 9.78998 14.44 10.29 14.44 10.79C14.44 10.96 14.44 11.13 14.39 11.3C14.36 11.43 14.3 11.55 14.21 11.64C14.16 11.69 14.11 11.75 14.06 11.8C13.97 11.9 13.86 11.96 13.73 11.98C13.62 12 13.51 12 13.4 12.01C13.38 12.01 13.35 12 13.33 11.99C13.33 11.99 13.33 11.98 13.33 11.97C13.36 11.95 13.39 11.93 13.43 11.92C13.7 11.86 13.9 11.68 14.09 11.49C14.24 11.34 14.29 11.15 14.28 10.94C14.26 10.69 14.25 10.44 14.23 10.2C14.19 9.80998 14.15 9.40998 14.11 9.01998C14.11 8.91998 14.08 8.82998 14.07 8.73998C14.07 8.68998 14.05 8.64998 14.04 8.59998C14.02 8.52998 14.03 8.46998 14.08 8.41998C14.12 8.37998 14.15 8.33998 14.19 8.30998C14.22 8.27998 14.24 8.28998 14.26 8.30998C14.28 8.33998 14.29 8.37998 14.3 8.40998C14.34 8.52998 14.37 8.63998 14.4 8.75998C14.4 8.78998 14.4 8.81998 14.4 8.85998Z" fill="white"/>
<path d="M14.87 11.43C14.87 11.43 14.87 11.39 14.87 11.37C14.92 11.16 14.9 10.95 14.87 10.75C14.82 10.38 14.77 10.01 14.71 9.64C14.66 9.31 14.64 8.99 14.55 8.67C14.51 8.53 14.55 8.4 14.64 8.29C14.65 8.28 14.67 8.27 14.69 8.25C14.71 8.28 14.73 8.31 14.74 8.34C14.76 8.4 14.78 8.47 14.81 8.53C14.85 8.63 14.9 8.72 14.95 8.82C14.96 8.85 14.97 8.88 14.99 8.91C14.92 8.94 14.87 8.9 14.8 8.88C14.8 8.92 14.8 8.96 14.8 8.99C14.86 9.48 14.92 9.97 14.98 10.46C14.99 10.58 15.02 10.7 15.04 10.81C15.07 11 15.04 11.19 14.94 11.36C14.92 11.39 14.9 11.42 14.88 11.45H14.86L14.87 11.43Z" fill="white"/>
<path d="M8.94 9.25C8.94 9.25 8.99 9.19 9.03 9.17C9.18 9.07 9.33 8.96 9.46 8.83C9.5 8.79 9.53 8.75 9.57 8.71C9.48 8.62 9.47 8.51 9.52 8.4C9.55 8.33 9.6 8.28 9.66 8.26C9.75 8.23 9.83 8.28 9.85 8.37C9.86 8.45 9.84 8.52 9.81 8.59C9.8 8.63 9.78 8.66 9.79 8.7C9.8 8.74 9.79 8.77 9.74 8.78C9.71 8.78 9.69 8.81 9.67 8.83C9.5 9.04 9.28 9.16 9.04 9.26C9.01 9.27 8.98 9.29 8.94 9.26V9.25ZM9.69 8.44C9.69 8.44 9.67 8.44 9.66 8.44C9.62 8.47 9.62 8.51 9.66 8.55C9.67 8.51 9.68 8.48 9.69 8.44Z" fill="white"/>
<path d="M6.53001 10.92C6.55001 11.02 6.55001 11.11 6.53001 11.19C6.50001 11.29 6.47001 11.38 6.48001 11.49C6.48001 11.53 6.49001 11.57 6.51001 11.6C6.54001 11.66 6.58001 11.66 6.62001 11.61C6.64001 11.59 6.66001 11.56 6.68001 11.54C6.68001 11.54 6.69001 11.54 6.70001 11.54C6.70001 11.54 6.72001 11.56 6.72001 11.57C6.72001 11.65 6.72001 11.72 6.68001 11.78C6.64001 11.84 6.59001 11.87 6.51001 11.86C6.44001 11.85 6.39001 11.8 6.38001 11.73C6.37001 11.62 6.35001 11.5 6.37001 11.38C6.39001 11.23 6.45001 11.09 6.49001 10.95C6.49001 10.95 6.50001 10.93 6.53001 10.91V10.92Z" fill="white"/>
<path d="M15.55 9.56001C15.55 9.49001 15.55 9.42001 15.53 9.35001C15.53 9.27001 15.55 9.20001 15.62 9.15001C15.67 9.11001 15.7 9.12001 15.73 9.18001C15.7567 9.23334 15.7633 9.28001 15.75 9.32001C15.75 9.32001 15.73 9.32001 15.72 9.32001C15.64 9.30001 15.63 9.30001 15.62 9.39001C15.62 9.47001 15.62 9.55001 15.62 9.63001C15.62 9.68001 15.62 9.74001 15.58 9.78001C15.51 9.75001 15.51 9.68001 15.47 9.63001C15.44 9.58001 15.41 9.53001 15.37 9.47001C15.35 9.48001 15.33 9.49001 15.32 9.50001C15.28 9.51001 15.26 9.50001 15.25 9.46001C15.25 9.42001 15.25 9.37001 15.25 9.33001C15.25 9.31001 15.27 9.28001 15.29 9.27001C15.31 9.27001 15.34 9.27001 15.36 9.29001C15.39 9.33001 15.42 9.38001 15.45 9.43001C15.48 9.48001 15.5 9.53001 15.52 9.57001H15.54L15.55 9.56001Z" fill="white"/>
<path d="M6.33002 10.52C6.33002 10.52 6.37002 10.47 6.40002 10.44C6.59002 10.24 6.82002 10.1 7.08002 10.02C7.11002 10.02 7.14002 9.99 7.16002 10.04C7.18002 10.08 7.16002 10.14 7.14002 10.16C7.13002 10.16 7.11002 10.17 7.10002 10.18C6.84002 10.26 6.60002 10.37 6.37002 10.52H6.35002C6.35002 10.52 6.35002 10.52 6.34002 10.51L6.33002 10.52Z" fill="white"/>
<path d="M13.01 11.67C12.9 11.76 12.79 11.85 12.67 11.89C12.65 11.89 12.63 11.89 12.61 11.89C12.49 11.89 12.45 11.84 12.47 11.73C12.47 11.7 12.48 11.67 12.49 11.64C12.49 11.64 12.49 11.63 12.49 11.62C12.45 11.62 12.42 11.63 12.38 11.64C12.38 11.64 12.38 11.64 12.36 11.62C12.43 11.56 12.51 11.51 12.59 11.48C12.63 11.47 12.65 11.49 12.64 11.54C12.64 11.57 12.62 11.6 12.62 11.63C12.62 11.67 12.59 11.71 12.63 11.76C12.66 11.76 12.7 11.75 12.74 11.73C12.8 11.71 12.85 11.68 12.9 11.66C12.93 11.65 12.96 11.63 13.02 11.66L13.01 11.67Z" fill="white"/>
<path d="M16.27 11.73C16.27 11.73 16.33 11.73 16.34 11.73C16.39 11.74 16.41 11.78 16.37 11.81C16.3 11.88 16.21 11.91 16.11 11.92C16.09 11.92 16.05 11.9 16.05 11.88C16.05 11.86 16.06 11.83 16.08 11.81C16.1 11.78 16.13 11.77 16.15 11.74C16.18 11.7 16.18 11.67 16.14 11.64C16.14 11.64 16.12 11.64 16.11 11.62C16.1 11.6 16.08 11.58 16.08 11.56C16.08 11.54 16.11 11.51 16.13 11.51C16.16 11.5 16.2 11.51 16.24 11.51C16.33 11.51 16.35 11.55 16.31 11.63C16.3 11.66 16.29 11.68 16.27 11.72V11.73Z" fill="white"/>
<path d="M11.65 9.76999C11.7 9.84999 11.72 9.92999 11.7 10.01C11.68 10.11 11.6 10.13 11.52 10.08C11.52 10.08 11.5 10.08 11.49 10.06C11.48 10.08 11.47 10.09 11.46 10.11C11.41 10.18 11.35 10.18 11.3 10.11C11.25 10.03 11.24 9.93999 11.28 9.84999C11.33 9.90999 11.31 9.99999 11.39 10.04C11.45 9.98999 11.41 9.89999 11.46 9.83999C11.53 9.87999 11.51 9.97999 11.59 10.01C11.65 9.94999 11.59 9.85999 11.65 9.77999V9.76999Z" fill="white"/>
<path d="M15.34 10.38C15.32 10.32 15.34 10.29 15.37 10.27C15.41 10.23 15.45 10.2 15.5 10.17C15.62 10.08 15.74 9.98999 15.85 9.89999C15.87 9.87999 15.9 9.86999 15.92 9.85999C15.98 9.96999 15.96 10.02 15.87 10.07C15.73 10.15 15.59 10.24 15.45 10.32C15.42 10.34 15.38 10.36 15.34 10.38Z" fill="white"/>
<path d="M17.05 8.44998C17.15 8.56998 17.18 8.71998 17.19 8.86998C17.19 9.02998 17.19 9.07998 17.12 9.13998C17.12 9.11998 17.1 9.09998 17.1 9.07998C17.09 8.91998 17.06 8.76998 16.97 8.63998C16.93 8.57998 16.95 8.51998 17.05 8.44998Z" fill="white"/>
<path d="M13.66 8.87C13.66 8.87 13.66 8.79 13.66 8.76C13.69 8.64 13.65 8.55 13.56 8.47C13.5 8.41 13.49 8.38 13.53 8.31C13.57 8.24 13.62 8.23 13.66 8.31C13.74 8.43 13.78 8.56 13.75 8.7C13.75 8.75 13.72 8.79 13.69 8.84C13.69 8.85 13.66 8.86 13.64 8.87H13.66Z" fill="white"/>
<path d="M9.72 9.35998C9.71 9.47998 9.63 9.56998 9.53 9.59998C9.44 9.61998 9.34 9.54998 9.35 9.44998C9.35 9.31998 9.43 9.21998 9.53 9.13998C9.53 9.13998 9.54 9.13998 9.55 9.13998C9.56 9.17998 9.53 9.20998 9.52 9.23998C9.5 9.27998 9.48 9.31998 9.46 9.35998C9.45 9.38998 9.45 9.42998 9.48 9.45998C9.52 9.48998 9.55 9.47998 9.59 9.45998C9.62 9.43998 9.65 9.40998 9.68 9.38998C9.68 9.38998 9.7 9.38998 9.72 9.36998V9.35998Z" fill="white"/>
<path d="M13.59 9.09999C13.59 9.09999 13.63 9.16999 13.66 9.21999C13.68 9.15999 13.7 9.10999 13.73 9.04999C13.76 9.10999 13.78 9.14999 13.8 9.19999C13.88 9.15999 13.84 9.05999 13.91 9.01999C13.94 9.09999 13.95 9.17999 13.92 9.25999C13.9 9.30999 13.85 9.32999 13.8 9.28999C13.75 9.25999 13.72 9.25999 13.67 9.28999C13.62 9.32999 13.59 9.31999 13.56 9.24999C13.54 9.19999 13.54 9.15999 13.57 9.09999H13.59Z" fill="white"/>
<path d="M9.22001 11.11C9.23001 11.01 9.27001 10.93 9.25001 10.85C9.25001 10.85 9.24001 10.85 9.23001 10.85C9.13001 10.85 9.10001 10.8 9.14001 10.7C9.16001 10.67 9.17001 10.64 9.22001 10.63C9.26001 10.63 9.31001 10.66 9.33001 10.7C9.38001 10.8 9.34001 11.01 9.26001 11.1C9.26001 11.1 9.24001 11.1 9.22001 11.12V11.11Z" fill="white"/>
<path d="M7.85998 8.26999C7.85998 8.26999 7.86998 8.33999 7.87998 8.36999C7.87998 8.38999 7.90998 8.40999 7.91998 8.40999C7.92998 8.40999 7.94998 8.38999 7.95998 8.36999C7.96998 8.34999 7.97998 8.32999 7.98998 8.30999C8.03998 8.37999 8.02998 8.43999 7.98998 8.47999C7.94998 8.51999 7.90998 8.50999 7.84998 8.45999C7.79998 8.46999 7.74998 8.48999 7.70998 8.49999C7.68998 8.49999 7.65998 8.47999 7.63998 8.45999C7.58998 8.39999 7.58998 8.30999 7.63998 8.23999C7.66998 8.26999 7.66998 8.30999 7.67998 8.33999C7.67998 8.35999 7.69998 8.37999 7.71998 8.39999C7.73998 8.38999 7.76998 8.37999 7.77998 8.35999C7.79998 8.32999 7.81998 8.29999 7.83998 8.25999C7.83998 8.25999 7.84998 8.25999 7.85998 8.25999V8.26999Z" fill="white"/>
<path d="M15.86 10.7C15.86 10.7 15.86 10.65 15.86 10.63C15.88 10.55 15.86 10.49 15.79 10.44C15.78 10.43 15.76 10.42 15.75 10.41C15.7 10.37 15.7 10.35 15.74 10.31C15.78 10.26 15.81 10.25 15.85 10.28C15.97 10.36 16.01 10.57 15.92 10.68C15.91 10.69 15.89 10.7 15.88 10.71C15.88 10.71 15.87 10.71 15.86 10.71V10.7Z" fill="white"/>
<path d="M11.14 8.88999C11.14 8.88999 11.14 8.82999 11.14 8.80999C11.15 8.66999 11.13 8.53999 11.04 8.42999C11.04 8.42999 11.03 8.40999 11.02 8.39999C11 8.35999 11.02 8.30999 11.07 8.29999C11.11 8.27999 11.13 8.29999 11.14 8.33999C11.16 8.36999 11.17 8.38999 11.18 8.41999C11.22 8.54999 11.22 8.67999 11.2 8.81999C11.2 8.84999 11.18 8.87999 11.17 8.90999C11.17 8.90999 11.16 8.90999 11.15 8.90999L11.14 8.88999Z" fill="white"/>
<path d="M6.64997 8.63C6.66997 8.52 6.69997 8.44 6.66997 8.34C6.63997 8.35 6.61997 8.36 6.58997 8.37C6.56997 8.37 6.54997 8.37 6.53997 8.37C6.53997 8.35 6.52997 8.33 6.53997 8.31C6.56997 8.28 6.59997 8.24 6.62997 8.22C6.66997 8.19 6.70997 8.2 6.72997 8.25C6.73997 8.28 6.74997 8.32 6.74997 8.35C6.74997 8.43 6.70997 8.54 6.62997 8.63H6.64997Z" fill="white"/>
</g>
</g>
<defs>
<clipPath id="clip0_104_14159">
<rect width="24" height="24" fill="white"/>
</clipPath>
</defs>
</svg>
