<svg width="24" height="24" viewBox="0 0 24 24" fill="none" xmlns="http://www.w3.org/2000/svg">
<g clip-path="url(#clip0_170_14985)">
<mask id="mask0_170_14985" style="mask-type:luminance" maskUnits="userSpaceOnUse" x="0" y="0" width="24" height="24">
<path d="M12 24C18.6274 24 24 18.6274 24 12C24 5.37258 18.6274 0 12 0C5.37258 0 0 5.37258 0 12C0 18.6274 5.37258 24 12 24Z" fill="white"/>
</mask>
<g mask="url(#mask0_170_14985)">
<path d="M0 0.0100021H24V23.99H0V0.0100021Z" fill="white"/>
<path d="M0 0.0100021H24V12H0V0.0100021Z" fill="#ED2939"/>
<path d="M6.40002 10.37C8.02374 10.37 9.34002 9.05372 9.34002 7.43001C9.34002 5.80629 8.02374 4.49001 6.40002 4.49001C4.7763 4.49001 3.46002 5.80629 3.46002 7.43001C3.46002 9.05372 4.7763 10.37 6.40002 10.37Z" fill="white"/>
<path d="M7.73999 10.37C9.3637 10.37 10.68 9.05372 10.68 7.43001C10.68 5.80629 9.3637 4.49001 7.73999 4.49001C6.11627 4.49001 4.79999 5.80629 4.79999 7.43001C4.79999 9.05372 6.11627 10.37 7.73999 10.37Z" fill="#ED2939"/>
<path d="M8.01003 4.97L7.56003 6.36L8.74003 5.5H7.28003L8.46003 6.36L8.01003 4.97Z" fill="white"/>
<path d="M10.35 6.67H8.88995L10.07 7.53L9.61995 6.14L9.16995 7.53L10.35 6.67Z" fill="white"/>
<path d="M6.56998 9.41L7.74998 8.55H6.28998L7.46998 9.41L7.01998 8.02L6.56998 9.41Z" fill="white"/>
<path d="M9.45997 9.41L9.00997 8.02L8.55997 9.41L9.73997 8.55H8.27997L9.45997 9.41Z" fill="white"/>
<path d="M5.67999 6.67L6.85999 7.53L6.40999 6.14L5.95999 7.53L7.13999 6.67H5.67999Z" fill="white"/>
</g>
</g>
<defs>
<clipPath id="clip0_170_14985">
<rect width="24" height="24" fill="white"/>
</clipPath>
</defs>
</svg>
