<svg width="24" height="24" viewBox="0 0 24 24" fill="none" xmlns="http://www.w3.org/2000/svg">
<g clip-path="url(#clip0_121_10773)">
<mask id="mask0_121_10773" style="mask-type:luminance" maskUnits="userSpaceOnUse" x="0" y="0" width="24" height="24">
<path d="M12 24C18.6274 24 24 18.6274 24 12C24 5.37258 18.6274 0 12 0C5.37258 0 0 5.37258 0 12C0 18.6274 5.37258 24 12 24Z" fill="white"/>
</mask>
<g mask="url(#mask0_121_10773)">
<path d="M0 0H24V24H0V0Z" fill="white"/>
<path d="M0 8H24V24H0V8Z" fill="#0B4EA2"/>
<path d="M0 16H24V24H0V16Z" fill="#EE1C25"/>
<path d="M16.18 6.59C16.18 6.59 16.34 8.22 16.34 11.49C16.32 14.82 13.82 16.51 11.99 17.4C10.16 16.51 7.66998 14.83 7.63998 11.49C7.63998 8.23 7.79998 6.59 7.79998 6.59H16.17H16.18Z" fill="#EE1C25"/>
<path d="M11.63 15.47V11.39C10.25 11.39 9.86 11.51 9.44 11.64C9.48 11.22 9.48 10.8 9.44 10.39C9.85 10.52 10.25 10.64 11.63 10.64V9.51C11.19 9.51 10.59 9.53 9.9 9.76C9.94 9.34 9.94 8.92 9.9 8.5C10.59 8.73 11.19 8.75 11.63 8.75C11.63 8.42 11.53 7.71 11.4 7.13C11.8 7.17 12.2 7.17 12.6 7.13C12.47 7.71 12.37 8.42 12.37 8.75C12.81 8.75 13.41 8.73 14.1 8.5C14.06 8.92 14.06 9.34 14.1 9.76C13.41 9.52 12.81 9.51 12.37 9.51V10.64C13.75 10.64 14.14 10.52 14.56 10.39C14.52 10.81 14.52 11.23 14.56 11.64C14.15 11.51 13.75 11.39 12.37 11.39V15.47H11.63Z" fill="white"/>
<mask id="mask1_121_10773" style="mask-type:luminance" maskUnits="userSpaceOnUse" x="7" y="6" width="10" height="12">
<path d="M16.18 6.59C16.18 6.59 16.34 8.22 16.34 11.49C16.32 14.82 13.82 16.51 11.99 17.4C10.16 16.51 7.66998 14.83 7.63998 11.49C7.63998 8.23 7.79998 6.59 7.79998 6.59H16.17H16.18Z" fill="white"/>
</mask>
<g mask="url(#mask1_121_10773)">
<path d="M9.73999 18.68C8.92999 18.68 8.26999 17.55 8.26999 16.16C8.26999 14.77 8.92999 13.64 9.74999 13.64C10.09 13.64 10.41 13.84 10.68 14.2C11.26 12.83 12.33 12.6 13.07 13.68C13.17 13.83 13.27 14 13.35 14.2C13.98 13.32 14.91 13.49 15.42 14.57C15.93 15.65 15.83 17.24 15.2 18.12C14.94 18.48 14.61 18.68 14.27 18.68H9.74999H9.73999Z" fill="#0B4EA2"/>
</g>
<path d="M12 17.57L11.93 17.54C10.7 16.94 9.74999 16.26 9.02999 15.47C8.01999 14.35 7.49999 13.01 7.48999 11.49C7.48999 8.25 7.64999 6.59 7.64999 6.58V6.44H16.31V6.58C16.31 6.58 16.49 8.26 16.49 11.49C16.48 13.01 15.96 14.35 14.95 15.47C14.23 16.27 13.28 16.94 12.05 17.54L11.98 17.57H12ZM7.95999 6.75C7.91999 7.21 7.80999 8.8 7.80999 11.49C7.81999 12.93 8.30999 14.19 9.26999 15.26C9.94999 16.01 10.84 16.66 12 17.23C13.16 16.66 14.06 16.01 14.73 15.26C15.69 14.2 16.18 12.93 16.19 11.49C16.19 8.81 16.08 7.21 16.04 6.75H7.95999Z" fill="white"/>
</g>
</g>
<defs>
<clipPath id="clip0_121_10773">
<rect width="24" height="24" fill="white"/>
</clipPath>
</defs>
</svg>
