<svg width="24" height="24" viewBox="0 0 24 24" fill="none" xmlns="http://www.w3.org/2000/svg">
<g clip-path="url(#clip0_170_14770)">
<mask id="mask0_170_14770" style="mask-type:luminance" maskUnits="userSpaceOnUse" x="0" y="0" width="24" height="24">
<path d="M12 24C18.6274 24 24 18.6274 24 12C24 5.37258 18.6274 0 12 0C5.37258 0 0 5.37258 0 12C0 18.6274 5.37258 24 12 24Z" fill="white"/>
</mask>
<g mask="url(#mask0_170_14770)">
<path d="M0 0H24V24H0V0Z" fill="#FF0000"/>
<path d="M0 0H24V16H0V0Z" fill="#0000FF"/>
<path d="M0 0H24V8H0V0Z" fill="white"/>
<path d="M3.95 6.02C5.73 5.23 7.76 5.23 9.55 6.02C9.84 10.15 8.91 12.49 6.75 13.05C4.59 12.5 3.66 10.16 3.95 6.02Z" fill="#0000FF"/>
<path d="M6.74001 6.76L6.82001 6.95L7.03001 6.93L6.91001 7.1L7.03001 7.27L6.82001 7.25L6.74001 7.44L6.66001 7.25L6.45001 7.27L6.57001 7.1L6.45001 6.93L6.66001 6.95" fill="#FFFF00"/>
<path d="M5.94997 5.71L6.02997 5.9L6.23997 5.88L6.11997 6.05L6.23997 6.22L6.02997 6.2L5.94997 6.39L5.86997 6.2L5.65997 6.22L5.77997 6.05L5.65997 5.88L5.86997 5.9" fill="#FFFF00"/>
<path d="M7.52999 5.71L7.60999 5.9L7.81999 5.88L7.69999 6.05L7.81999 6.22L7.60999 6.2L7.52999 6.39L7.44999 6.2L7.23999 6.22L7.35999 6.05L7.23999 5.88L7.44999 5.9" fill="#FFFF00"/>
<path d="M6.73998 7.85L7.41998 9.2L7.86998 8.6L8.99998 10.11C8.99998 10.18 8.99998 10.25 8.96998 10.32C8.65998 11.42 7.81998 12.3 6.73998 12.66C5.65998 12.29 4.82998 11.41 4.50998 10.32C4.48998 10.25 4.47998 10.18 4.47998 10.11L5.60998 8.6L6.05998 9.2L6.73998 7.85Z" fill="white"/>
<path d="M4.51999 10.32C4.62999 10.72 5.04999 10.95 5.44999 10.84C5.50999 10.82 5.56999 10.8 5.61999 10.77C5.84999 10.64 6.13999 10.64 6.36999 10.77C6.59999 10.9 6.88999 10.9 7.11999 10.77C7.34999 10.64 7.63999 10.64 7.86999 10.77C8.22999 10.98 8.68999 10.85 8.89999 10.49C8.92999 10.44 8.94999 10.38 8.96999 10.32H8.99999V10.88C8.86999 10.88 8.73999 10.91 8.61999 10.98C8.38999 11.11 8.09999 11.11 7.86999 10.98C7.63999 10.85 7.34999 10.85 7.11999 10.98C6.88999 11.11 6.59999 11.11 6.36999 10.98C6.13999 10.85 5.84999 10.85 5.61999 10.98C5.38999 11.11 5.09999 11.11 4.86999 10.98C4.75999 10.91 4.62999 10.88 4.48999 10.88V10.33" fill="#0000FF"/>
<path d="M4.51999 10.75C4.62999 11.15 5.04999 11.38 5.44999 11.27C5.50999 11.25 5.56999 11.23 5.61999 11.2C5.84999 11.07 6.13999 11.07 6.36999 11.2C6.59999 11.33 6.88999 11.33 7.11999 11.2C7.34999 11.07 7.63999 11.07 7.86999 11.2C8.22999 11.41 8.68999 11.28 8.89999 10.92C8.92999 10.87 8.94999 10.81 8.96999 10.75H8.99999V11.31C8.86999 11.31 8.73999 11.34 8.61999 11.41C8.38999 11.54 8.09999 11.54 7.86999 11.41C7.63999 11.28 7.34999 11.28 7.11999 11.41C6.88999 11.54 6.59999 11.54 6.36999 11.41C6.13999 11.28 5.84999 11.28 5.61999 11.41C5.38999 11.54 5.09999 11.54 4.86999 11.41C4.75999 11.34 4.62999 11.31 4.48999 11.31V10.76" fill="#0000FF"/>
<path d="M3.73002 6.12C3.80002 6.09 3.87002 6.05 3.94002 6.02L4.16002 9.59C4.26002 11.12 5.28002 12.43 6.73002 12.89C8.19002 12.42 9.21002 11.11 9.30002 9.59L9.52002 6.02C9.59002 6.05 9.66002 6.08 9.73002 6.12L9.51002 9.61C9.41002 11.25 8.29002 12.65 6.72002 13.13C5.14002 12.66 4.03002 11.25 3.93002 9.61L3.71002 6.12H3.73002Z" fill="#FF0000"/>
</g>
</g>
<defs>
<clipPath id="clip0_170_14770">
<rect width="24" height="24" fill="white"/>
</clipPath>
</defs>
</svg>
