<svg width="24" height="24" viewBox="0 0 24 24" fill="none" xmlns="http://www.w3.org/2000/svg">
<g clip-path="url(#clip0_170_16193)">
<mask id="mask0_170_16193" style="mask-type:luminance" maskUnits="userSpaceOnUse" x="0" y="0" width="24" height="24">
<path d="M12 24C18.6274 24 24 18.6274 24 12C24 5.37256 18.6274 -1.90735e-05 12 -1.90735e-05C5.37258 -1.90735e-05 0 5.37256 0 12C0 18.6274 5.37258 24 12 24Z" fill="white"/>
</mask>
<g mask="url(#mask0_170_16193)">
<path d="M0 0.00997925H24V23.99H0V0.00997925Z" fill="#215B33"/>
<path d="M0 23.99V0.00997925H24" fill="#0051BA"/>
<mask id="mask1_170_16193" style="mask-type:luminance" maskUnits="userSpaceOnUse" x="0" y="0" width="24" height="24">
<path d="M24 0.00997925H0V23.99H24V0.00997925Z" fill="white"/>
</mask>
<g mask="url(#mask1_170_16193)">
<path d="M24 0.00997925L0 23.99L24 0.00997925Z" fill="black"/>
<path d="M0.340024 24.77L-0.349976 23.21L23.65 -0.77002L24.34 0.77998L0.340024 24.77Z" fill="#FCD116"/>
</g>
<path d="M6.55001 7.98998L6.28001 7.15998L6.01002 7.98998H5.14001L5.84001 8.49998L5.57001 9.32998L6.28001 8.81998L6.99002 9.32998L6.72002 8.49998L7.42001 7.98998H6.55001Z" fill="white"/>
<path d="M8.21001 6.46998L7.94001 7.29998L8.65001 6.78998L9.35001 7.29998L9.08001 6.46998L9.79001 5.95998H8.92001L8.65001 5.12998L8.38001 5.95998H7.51001L8.21001 6.46998Z" fill="white"/>
<path d="M8.92001 10.02L8.65001 9.18998L8.38001 10.02H7.51001L8.21001 10.53L7.94001 11.36L8.65001 10.85L9.35001 11.36L9.08001 10.53L9.79001 10.02H8.92001Z" fill="white"/>
<path d="M4.18002 10.02L3.91002 9.18998L3.64002 10.02H2.77002L3.47002 10.53L3.21002 11.36L3.91002 10.85L4.62002 11.36L4.35002 10.53L5.05002 10.02H4.18002Z" fill="white"/>
<path d="M3.91002 5.12998L3.64002 5.95998H2.77002L3.47002 6.46998L3.21002 7.29998L3.91002 6.78998L4.62002 7.29998L4.35002 6.46998L5.05002 5.95998H4.18002L3.91002 5.12998Z" fill="white"/>
</g>
</g>
<defs>
<clipPath id="clip0_170_16193">
<rect width="24" height="24" fill="white"/>
</clipPath>
</defs>
</svg>
