<svg width="24" height="24" viewBox="0 0 24 24" fill="none" xmlns="http://www.w3.org/2000/svg">
<g clip-path="url(#clip0_170_14368)">
<mask id="mask0_170_14368" style="mask-type:luminance" maskUnits="userSpaceOnUse" x="0" y="0" width="24" height="24">
<path d="M12 24C18.6274 24 24 18.6274 24 12C24 5.37258 18.6274 0 12 0C5.37258 0 0 5.37258 0 12C0 18.6274 5.37258 24 12 24Z" fill="white"/>
</mask>
<g mask="url(#mask0_170_14368)">
<path d="M0 0H24V24H0V0Z" fill="#FFBE29"/>
<path d="M1.12 2.24H7.36V21.76H1.12V2.24Z" fill="#EB7400"/>
<path d="M1.12 2.24H4.24V21.76H1.12V2.24Z" fill="#00534E"/>
<path d="M8.47998 2.24H22.88V21.76H8.47998V2.24Z" fill="#8D153A"/>
<path d="M12.75 16.75L12.87 16.68L12.92 16.75C12.99 16.84 13.17 16.84 13.29 16.75L13.38 16.68L13.46 16.75C13.56 16.84 13.76 16.84 13.88 16.75C13.97 16.69 13.98 16.69 14.04 16.73C14.07 16.76 14.17 16.79 14.26 16.8C14.42 16.82 14.42 16.82 14.51 16.68C14.59 16.57 14.6 16.52 14.58 16.41C14.57 16.32 14.56 16.24 14.55 16.15C14.55 16.02 14.55 16.02 14.73 15.96C14.84 15.92 14.96 15.88 15 15.85C15.08 15.81 15.29 15.57 15.29 15.52C15.29 15.51 15.21 15.49 15.11 15.48C14.71 15.44 14.64 15.23 14.9 14.84C15.32 14.21 15.58 13.59 15.58 13.2C15.58 13.02 15.59 12.97 15.61 13C15.7 13.16 15.54 13.81 15.28 14.28L15.18 14.47L15.28 14.45C15.33 14.44 15.65 14.31 15.99 14.16C16.91 13.75 17.22 13.68 17.82 13.7C18.32 13.72 18.53 13.82 18.88 14.17C19.07 14.36 19.25 14.5 19.57 14.7C20.27 15.13 20.3 15.16 20.33 15.66C20.36 16.17 20.35 16.2 19.95 16.28C19.61 16.35 19.4 16.51 19.35 16.72C19.32 16.83 19.38 16.84 19.55 16.73L19.67 16.65L19.73 16.73C19.8 16.83 19.96 16.83 20.09 16.73L20.19 16.65L20.29 16.73C20.44 16.85 20.65 16.82 20.71 16.67C20.72 16.64 20.75 16.65 20.81 16.7C20.92 16.8 21.21 16.84 21.24 16.76C21.25 16.73 21.23 16.66 21.19 16.6C21.02 16.35 20.97 16.24 20.97 16.1C20.97 15.91 21.02 15.82 21.24 15.67C21.5 15.49 21.58 15.25 21.38 15.25C21.26 15.25 21.13 15.14 21.05 14.97C20.89 14.62 20.92 14.22 21.16 13.56C21.41 12.89 21.43 12.77 21.43 12.32C21.43 11.96 21.43 11.9 21.34 11.7C21.29 11.58 21.18 11.4 21.11 11.3L20.97 11.12L21.15 10.98C21.69 10.54 21.58 9.82 20.93 9.54C20.73 9.46 20.68 9.45 20.33 9.45C20.12 9.45 19.8 9.48 19.62 9.51C19.43 9.54 19.12 9.57 18.91 9.57C18.57 9.57 18.51 9.57 18.38 9.49C18.24 9.42 18.22 9.38 18.19 9.22C18.19 9.19 18.16 9.15 18.14 9.14C18.09 9.13 17.88 9.31 17.85 9.39C17.83 9.43 17.82 9.43 17.78 9.37C17.75 9.33 17.71 9.25 17.68 9.19C17.63 9.03 17.69 8.91 17.89 8.82L18.04 8.75L17.95 8.7C17.77 8.59 17.46 8.66 17.34 8.85C17.31 8.9 17.27 8.94 17.26 8.94C17.25 8.94 17.19 8.89 17.13 8.83C16.89 8.6 16.97 8.27 17.29 8.17C17.46 8.12 17.61 8.16 17.64 8.27C17.69 8.44 17.83 8.22 17.81 8.02C17.79 7.89 17.8 7.88 17.89 7.88C18.02 7.88 18.3 8.05 18.38 8.18C18.48 8.33 18.47 8.57 18.36 8.75L18.27 8.89L18.38 8.87C18.55 8.84 18.71 8.74 18.79 8.62C18.88 8.49 18.89 8.24 18.81 8.11C18.74 7.98 18.74 7.96 18.85 8C19.04 8.08 19.13 8.16 19.21 8.3C19.28 8.43 19.28 8.46 19.24 8.59C19.22 8.67 19.17 8.78 19.13 8.83C19.07 8.91 19.07 8.92 19.12 8.92C19.21 8.92 19.39 8.84 19.46 8.77C19.49 8.74 19.54 8.65 19.57 8.58L19.62 8.45L19.67 8.55C19.75 8.69 19.9 8.81 20.08 8.88C20.28 8.96 20.36 8.97 20.26 8.88C20.19 8.83 20.06 8.46 20.1 8.43C20.12 8.41 20.39 8.61 20.69 8.87C20.98 9.12 21.16 9.2 21.42 9.2C21.76 9.2 21.95 8.91 21.8 8.64C21.71 8.48 21.51 8.46 21.4 8.6C21.35 8.66 21.33 8.71 21.35 8.78C21.37 8.86 21.36 8.87 21.29 8.87C21.19 8.87 21 8.75 20.66 8.47C20.14 8.04 19.5 7.68 19.04 7.55C18.75 7.47 18.12 7.43 17.82 7.49C17.5 7.55 17.11 7.73 16.9 7.92C16.53 8.26 16.52 8.72 16.88 9.14L16.98 9.26L16.91 9.37C16.81 9.52 16.82 9.73 16.93 9.88C16.98 9.95 17.03 10 17.04 10C17.05 10 17.06 9.96 17.07 9.9C17.08 9.77 17.14 9.68 17.24 9.64C17.33 9.61 17.39 9.62 17.81 9.79C18.25 9.96 18.97 9.97 19.73 9.82C20.11 9.75 20.55 9.75 20.74 9.82C21.1 9.97 21.18 10.35 20.92 10.63C20.81 10.75 20.7 10.81 20.33 10.9C20.05 10.97 19.98 10.98 19.35 10.97C18.81 10.97 18.61 10.97 18.39 11.02C18.15 11.07 18 11.07 17.29 11.06L16.47 11.04L16.56 11.11C16.56 11.11 16.68 11.2 16.72 11.22C16.78 11.25 16.78 11.26 16.69 11.29C16.64 11.31 16.52 11.33 16.42 11.33H16.25L16.23 11.47C16.22 11.55 16.22 11.64 16.23 11.67C16.25 11.72 16.24 11.73 16.19 11.71C16.15 11.7 16.06 11.67 15.97 11.66C15.88 11.65 15.77 11.61 15.72 11.58C15.63 11.54 15.62 11.54 15.58 11.6C15.55 11.65 15.27 11.86 15.22 11.86C15.22 11.86 15.2 11.82 15.2 11.77C15.2 11.72 15.16 11.59 15.11 11.49C15.06 11.39 15.02 11.27 15 11.23C14.98 11.18 14.97 11.17 14.95 11.21C14.93 11.24 14.91 11.31 14.9 11.37C14.89 11.43 14.85 11.53 14.8 11.59L14.73 11.7L14.68 11.61C14.63 11.51 14.55 11.4 14.52 11.4C14.51 11.4 14.49 11.43 14.48 11.47C14.46 11.55 14.26 11.78 14.21 11.78C14.19 11.78 14.18 11.71 14.18 11.64C14.18 11.57 14.16 11.5 14.15 11.5C14.14 11.5 14.12 11.52 14.12 11.55C14.12 11.61 13.95 11.79 13.89 11.79C13.87 11.79 13.83 11.81 13.8 11.84C13.74 11.91 13.69 11.9 13.71 11.82C13.72 11.78 13.71 11.7 13.69 11.64L13.64 11.48C13.64 11.48 13.57 11.46 13.44 11.5C13.23 11.56 13.16 11.55 13.27 11.47C13.31 11.44 13.37 11.34 13.4 11.24C13.43 11.14 13.48 11.06 13.51 11.05C13.55 11.04 13.55 11.05 13.51 11.11C13.48 11.15 13.45 11.21 13.45 11.23C13.45 11.25 13.43 11.32 13.4 11.37C13.37 11.42 13.35 11.47 13.36 11.47C13.37 11.47 13.45 11.45 13.53 11.41L13.69 11.33V11.4C13.69 11.4 13.71 11.54 13.73 11.62L13.77 11.77L13.88 11.72C13.99 11.67 14.1 11.49 14.1 11.35C14.1 11.28 14.14 11.29 14.16 11.36C14.16 11.38 14.19 11.46 14.22 11.54L14.27 11.68L14.35 11.59C14.35 11.59 14.44 11.45 14.47 11.38C14.51 11.26 14.57 11.21 14.57 11.3C14.57 11.36 14.74 11.58 14.78 11.57C14.8 11.57 14.83 11.48 14.85 11.38C14.9 11.19 14.98 11.06 15.03 11.08C15.05 11.09 15.06 11.11 15.05 11.13C15.04 11.15 15.08 11.27 15.14 11.41L15.27 11.72C15.29 11.77 15.31 11.76 15.44 11.66C15.52 11.59 15.59 11.52 15.6 11.49C15.61 11.45 15.63 11.45 15.7 11.49C15.8 11.55 16.15 11.65 16.17 11.63C16.17 11.63 16.19 11.53 16.19 11.43V11.25L16.29 11.27C16.34 11.28 16.46 11.28 16.54 11.27L16.7 11.25L16.56 11.16C16.48 11.11 16.41 11.04 16.39 11.01C16.37 10.98 16.3 10.95 16.23 10.95C16.02 10.93 15.66 10.73 15.66 10.64C15.66 10.62 15.71 10.65 15.77 10.71C15.91 10.83 16.1 10.91 16.27 10.91H16.4L16.32 10.81C16.28 10.75 16.24 10.64 16.23 10.55C16.22 10.41 16.2 10.38 16.05 10.28C15.96 10.22 15.84 10.12 15.8 10.07L15.71 9.98L15.67 10.09C15.65 10.15 15.62 10.2 15.6 10.2C15.58 10.2 15.54 10.16 15.5 10.12C15.46 10.08 15.41 10.04 15.4 10.04C15.39 10.04 15.35 10.1 15.31 10.17L15.24 10.3L15.19 10.22C15.19 10.22 15.09 10.1 15.04 10.06C14.99 10.02 14.96 9.97 14.98 9.97C15 9.97 15.07 10.02 15.13 10.08L15.24 10.19L15.29 10.11C15.29 10.11 15.33 9.99 15.32 9.93C15.3 9.84 15.3 9.84 15.34 9.89C15.36 9.93 15.43 9.99 15.49 10.04L15.6 10.13L15.68 10C15.75 9.87 15.76 9.87 15.79 9.95C15.84 10.06 16.17 10.32 16.45 10.48C16.49 10.5 16.48 10.42 16.4 10.23C16.38 10.18 16.36 10.09 16.36 10.03C16.36 9.94 16.33 9.9 16.22 9.82C16.05 9.7 16 9.61 15.97 9.4C15.96 9.32 15.93 9.23 15.9 9.2C15.87 9.16 15.86 9.18 15.87 9.33C15.87 9.43 15.87 9.56 15.84 9.61L15.8 9.71L15.77 9.63C15.77 9.63 15.67 9.51 15.6 9.46C15.53 9.41 15.47 9.36 15.48 9.35C15.49 9.34 15.57 9.39 15.66 9.45C15.79 9.55 15.82 9.56 15.84 9.52C15.86 9.47 15.84 9.24 15.8 9.09C15.78 9.01 15.78 9.01 15.88 9.11C15.95 9.18 15.99 9.27 16.03 9.42C16.07 9.61 16.09 9.64 16.27 9.79C16.38 9.88 16.47 9.95 16.48 9.95C16.49 9.95 16.5 9.71 16.51 9.42C16.53 8.87 16.51 8.74 16.37 8.57L16.3 8.48L16.41 8.37C16.55 8.22 16.62 8.1 16.65 7.94L16.67 7.81L16.55 7.92C16.45 8.01 16.4 8.03 16.28 8.03C16.16 8.03 16.12 8.01 16.04 7.93C15.95 7.83 15.78 7.74 15.62 7.69C15.56 7.67 15.54 7.69 15.54 7.72C15.54 7.75 15.51 7.83 15.47 7.9L15.4 8.03L15.25 7.88C15.16 7.79 15.05 7.72 14.97 7.7C14.76 7.65 14.75 7.65 14.75 7.8C14.75 8.03 14.65 8.07 14.47 7.92C14.33 7.8 14.22 7.78 13.95 7.81L13.75 7.83L13.79 7.92C13.82 7.99 13.81 8.03 13.75 8.11C13.64 8.25 13.51 8.31 13.29 8.31C13.19 8.31 13.07 8.33 13.02 8.35C12.97 8.37 12.84 8.4 12.73 8.41C12.62 8.42 12.51 8.44 12.48 8.45C12.43 8.47 12.42 8.45 12.44 8.34C12.46 8.17 12.34 8.05 12.15 8.05C11.9 8.05 11.79 8.26 11.89 8.55C11.91 8.61 11.93 8.68 11.94 8.74C11.95 8.79 12.06 8.93 12.2 9.06C12.33 9.19 12.45 9.32 12.47 9.35C12.49 9.38 12.56 9.44 12.62 9.47L12.73 9.53V9.41C12.7 9.28 12.73 9.26 12.8 9.35C12.83 9.38 12.89 9.43 12.94 9.47C13.02 9.52 13.04 9.52 13.04 9.47C13.04 9.44 13.06 9.38 13.08 9.33L13.12 9.24L13.19 9.36C13.23 9.43 13.34 9.58 13.45 9.7C13.66 9.93 13.78 10.19 13.72 10.25C13.69 10.27 13.62 10.27 13.47 10.25C13.36 10.23 13.21 10.22 13.15 10.22C13.03 10.24 13.02 10.22 13.09 10.13C13.17 10.03 13.16 10.02 13 10.02C12.82 10.02 12.38 9.94 12.22 9.87C12.06 9.81 12.02 9.82 11.97 9.97L11.88 10.24L11.83 10.39L12.01 10.37C12.11 10.37 12.23 10.34 12.29 10.32C12.35 10.3 12.4 10.3 12.4 10.3C12.4 10.3 12.38 10.36 12.34 10.43L12.27 10.55L12.38 10.53C12.44 10.52 12.53 10.49 12.58 10.46C12.67 10.42 12.68 10.42 12.75 10.53C12.84 10.66 12.9 10.66 12.92 10.52C12.94 10.37 12.99 10.39 13.08 10.59C13.17 10.78 13.26 10.84 13.28 10.73C13.28 10.69 13.33 10.63 13.39 10.6C13.5 10.53 13.58 10.55 13.63 10.66C13.68 10.78 13.57 10.9 13.26 11.09C12.63 11.46 12.27 11.97 12.16 12.61C12.07 13.19 12.36 13.8 12.95 14.23C13.23 14.44 13.68 14.66 13.65 14.57C13.53 14.22 13.53 13.54 13.65 13.43C13.67 13.41 13.66 13.48 13.64 13.59C13.54 13.97 13.58 14.28 13.84 15C14.07 15.65 14.04 15.93 13.71 16.11C13.61 16.17 13.54 16.18 13.26 16.18C12.96 16.18 12.93 16.18 12.83 16.26C12.74 16.33 12.61 16.57 12.61 16.68C12.61 16.74 12.68 16.73 12.81 16.66L12.75 16.75ZM17.64 16.73L17.77 16.65L17.86 16.73C17.97 16.83 18.1 16.83 18.21 16.73C18.26 16.68 18.3 16.65 18.3 16.66C18.32 16.69 18.33 16.71 18.35 16.74C18.38 16.78 18.43 16.81 18.53 16.81C18.65 16.81 18.68 16.81 18.73 16.74L18.79 16.66L18.91 16.74C19.25 16.95 19.43 16.73 19.28 16.28C19.2 16.05 19.25 15.93 19.49 15.64C19.6 15.52 19.68 15.39 19.68 15.35C19.68 15.29 19.66 15.28 19.52 15.29C19.39 15.29 19.35 15.28 19.28 15.2C19.17 15.08 19.17 14.94 19.3 14.78L19.4 14.65L19.22 14.53C19.12 14.46 18.94 14.31 18.82 14.18C18.55 13.9 18.28 13.77 17.93 13.74L17.7 13.72V13.89C17.7 14.11 17.81 14.33 18.1 14.69C18.43 15.1 18.46 15.17 18.47 15.71V16.17L18.38 16.26C18.29 16.34 18.25 16.35 17.97 16.37C17.7 16.39 17.65 16.4 17.57 16.47C17.47 16.56 17.43 16.61 17.4 16.73C17.38 16.8 17.39 16.82 17.44 16.82C17.48 16.82 17.56 16.78 17.63 16.74L17.64 16.73ZM10.53 15.41C10.53 15.35 10.56 15.34 10.69 15.32L10.85 15.3L10.75 15.22C10.63 15.12 10.61 15.05 10.72 15.05C10.83 15.05 11.01 14.94 11.04 14.86C11.05 14.82 11.04 14.77 11.02 14.75C10.96 14.68 10.84 14.69 10.82 14.77C10.8 14.85 10.76 14.85 10.67 14.77C10.54 14.65 10.54 14.4 10.67 14.25C10.73 14.18 10.73 14.18 10.65 14.11C10.57 14.03 10.51 13.88 10.55 13.85C10.56 13.84 10.63 13.85 10.7 13.87C10.8 13.9 10.83 13.9 10.87 13.87C10.99 13.78 10.87 13.66 10.67 13.69C10.59 13.7 10.56 13.69 10.55 13.65C10.55 13.62 10.47 13.58 10.4 13.56C10.26 13.53 10.26 13.53 10.26 13.62C10.26 13.72 10.2 13.74 10.09 13.67C10 13.62 9.91 13.66 9.91 13.75C9.91 13.84 10 13.88 10.16 13.87C10.28 13.87 10.29 13.95 10.17 14.08L10.09 14.17L10.16 14.26C10.26 14.4 10.25 14.63 10.14 14.75L10.05 14.84L9.99 14.77C9.91 14.67 9.81 14.68 9.78 14.78C9.76 14.85 9.78 14.88 9.87 14.96C9.93 15.01 10.02 15.05 10.07 15.05C10.19 15.05 10.18 15.14 10.07 15.23L9.97 15.3L10.12 15.32C10.2 15.33 10.27 15.36 10.27 15.37C10.27 15.43 10.31 15.62 10.41 15.62C10.5 15.62 10.55 15.5 10.55 15.41H10.53ZM12.4 14.74C12.53 14.69 12.83 14.45 12.83 14.39C12.83 14.37 12.75 14.29 12.65 14.2C12.44 14.02 12.22 13.71 12.16 13.53C12.13 13.44 11.98 13.28 11.57 12.89L11.02 12.37L10.86 12.41C10.77 12.43 10.67 12.45 10.62 12.45C10.55 12.45 10.55 12.45 10.65 12.53L10.75 12.61L10.9 12.53C11.04 12.45 11.05 12.45 11.06 12.51C11.07 12.55 11.05 12.61 11.01 12.65C10.97 12.69 10.95 12.74 10.96 12.76C10.97 12.78 10.94 12.81 10.88 12.84C10.78 12.89 10.71 13.05 10.79 13.05C10.86 13.05 11.02 12.86 11.01 12.79C11.01 12.76 11.01 12.72 11.02 12.71C11.08 12.67 11.08 12.83 11.02 12.9C10.98 12.94 10.96 12.99 10.97 13.01C10.98 13.03 10.95 13.06 10.89 13.09C10.79 13.14 10.72 13.3 10.8 13.3C10.88 13.3 11.04 13.11 11.02 13.04C11.01 13 11.02 12.97 11.02 12.96C11.06 12.94 11.09 13.06 11.05 13.12C11.03 13.15 11.03 13.19 11.05 13.23C11.09 13.29 11.05 13.41 10.98 13.45C10.95 13.47 10.98 13.5 11.04 13.55C11.14 13.62 11.14 13.63 11.14 13.95C11.14 14.22 11.15 14.28 11.2 14.33C11.26 14.38 11.26 14.38 11.26 14.33C11.26 14.28 11.36 14.21 11.44 14.21C11.46 14.21 11.61 14.33 11.77 14.48C11.93 14.63 12.09 14.76 12.14 14.77L12.25 14.79C12.25 14.79 12.34 14.77 12.41 14.74H12.4ZM10.72 13.45C10.72 13.36 10.54 13.27 10.32 13.25C10.15 13.23 10.14 13.23 10.14 13.32C10.14 13.39 10.17 13.42 10.29 13.47C10.48 13.55 10.72 13.54 10.72 13.45ZM10.92 13.45C11.01 13.37 11.05 13.28 11 13.28C10.94 13.28 10.78 13.42 10.78 13.48C10.78 13.56 10.81 13.56 10.93 13.46L10.92 13.45ZM10.73 13.19C10.73 13.19 10.71 13.11 10.62 13.07C10.42 12.98 10.19 12.94 10.13 12.99C10.03 13.07 10.1 13.18 10.26 13.2C10.33 13.2 10.42 13.23 10.47 13.25C10.6 13.3 10.72 13.28 10.74 13.2L10.73 13.19ZM10.73 12.93C10.74 12.86 10.7 12.84 10.33 12.71C10.06 12.62 9.93 12.66 10.02 12.82C10.05 12.88 10.1 12.9 10.22 12.92C10.31 12.93 10.42 12.96 10.48 12.97C10.63 13.02 10.72 13 10.73 12.92V12.93ZM10.92 12.69C10.98 12.64 11.02 12.57 11.02 12.55C11.02 12.47 10.8 12.61 10.77 12.71C10.74 12.83 10.79 12.82 10.92 12.7V12.69ZM10.73 12.68C10.74 12.6 10.61 12.53 10.35 12.48C10.16 12.44 10.07 12.46 10.09 12.55C10.09 12.6 10.16 12.63 10.34 12.69C10.63 12.78 10.72 12.78 10.73 12.69V12.68ZM10.99 12.31C11.33 12.16 11.36 11.8 11.04 11.7C10.91 11.66 10.82 11.68 10.77 11.77C10.73 11.84 10.76 11.96 10.81 11.96C10.83 11.96 10.84 11.98 10.84 12.01C10.84 12.14 10.33 12.2 10.12 12.09C10.05 12.05 10.01 11.96 10.08 11.96C10.13 11.96 10.16 11.86 10.13 11.79C10.1 11.7 10 11.66 9.86 11.7C9.54 11.78 9.55 12.14 9.87 12.3C10.13 12.43 10.71 12.43 10.98 12.31H10.99ZM10.78 12.03C10.78 12.03 10.79 11.98 10.76 11.96C10.69 11.91 10.69 11.82 10.77 11.73C10.83 11.66 10.84 11.55 10.86 10.5C10.89 8.67 11.03 7.3 11.22 6.97C11.29 6.84 11.28 6.84 11.09 6.97C10.85 7.13 10.66 7.34 10.5 7.64C10.19 8.21 10.08 8.97 10.08 10.6C10.08 11.53 10.08 11.65 10.14 11.73C10.19 11.81 10.19 11.84 10.16 11.93C10.14 11.99 10.13 12.04 10.14 12.05C10.21 12.11 10.71 12.1 10.79 12.03H10.78ZM13.61 10.29C13.61 10.29 13.6 10.19 13.56 10.11C13.5 9.98 13.47 9.96 13.39 9.96C13.12 9.96 12.68 9.84 12.23 9.65C11.97 9.54 11.88 9.51 11.85 9.54C11.77 9.61 11.9 9.79 12.11 9.88C12.29 9.96 12.8 10.06 13.03 10.06C13.16 10.06 13.17 10.06 13.09 10.17L13.03 10.25H13.18C13.26 10.25 13.38 10.27 13.44 10.28C13.59 10.32 13.59 10.32 13.61 10.28V10.29Z" fill="#FFBE29"/>
<path d="M19.14 16.89C19.07 16.89 18.98 16.87 18.87 16.8L18.8 16.76L18.78 16.78C18.71 16.88 18.65 16.89 18.52 16.88C18.44 16.88 18.33 16.86 18.28 16.77C18.28 16.77 18.28 16.77 18.28 16.76C18.28 16.76 18.27 16.77 18.26 16.78C18.13 16.91 17.95 16.92 17.81 16.78L17.76 16.74L17.68 16.79C17.61 16.83 17.51 16.88 17.45 16.88C17.43 16.88 17.38 16.88 17.35 16.84C17.32 16.8 17.33 16.75 17.35 16.7C17.39 16.56 17.43 16.5 17.54 16.4C17.64 16.31 17.72 16.3 17.99 16.29C18.28 16.27 18.29 16.26 18.35 16.2L18.42 16.13V15.7C18.4 15.17 18.38 15.13 18.05 14.72C17.75 14.34 17.63 14.11 17.63 13.87V13.75C17.16 13.75 16.83 13.85 16.03 14.21C15.73 14.34 15.38 14.49 15.31 14.51L15.18 14.54C15.12 14.65 15.05 14.76 14.97 14.87C14.85 15.05 14.8 15.19 14.84 15.27C14.87 15.34 14.97 15.38 15.12 15.4C15.33 15.42 15.37 15.46 15.37 15.51C15.37 15.61 15.12 15.86 15.05 15.9C15 15.92 14.88 15.97 14.77 16.01C14.71 16.03 14.65 16.05 14.63 16.06C14.63 16.07 14.63 16.1 14.63 16.13C14.63 16.21 14.65 16.3 14.66 16.38C14.68 16.51 14.66 16.57 14.58 16.7C14.47 16.86 14.44 16.87 14.26 16.85C14.17 16.84 14.05 16.8 14 16.76C14 16.76 13.99 16.75 13.98 16.75C13.97 16.75 13.94 16.78 13.93 16.78C13.78 16.89 13.55 16.89 13.42 16.78L13.38 16.75L13.33 16.78C13.17 16.89 12.95 16.89 12.86 16.77V16.75L12.76 16.8C12.64 16.86 12.58 16.87 12.52 16.84C12.49 16.82 12.47 16.79 12.47 16.74C12.47 16.61 12.6 16.35 12.71 16.26C12.83 16.17 12.88 16.16 13.19 16.17C13.47 16.17 13.52 16.17 13.6 16.11C13.85 15.97 13.93 15.77 13.69 15.08C13.64 14.95 13.6 14.83 13.57 14.72C13.53 14.72 13.45 14.72 13.26 14.61C13.13 14.54 12.99 14.46 12.87 14.38C12.82 14.5 12.55 14.69 12.43 14.75L12.4 14.76C12.3 14.8 12.24 14.81 12.21 14.81L12.1 14.79C12 14.77 11.71 14.5 11.69 14.49C11.55 14.36 11.44 14.26 11.4 14.24C11.36 14.24 11.32 14.28 11.31 14.29C11.31 14.32 11.31 14.37 11.26 14.39C11.21 14.41 11.17 14.38 11.13 14.34C11.06 14.27 11.05 14.18 11.05 13.91C11.05 13.64 11.05 13.62 10.98 13.57C10.95 13.55 10.92 13.53 10.9 13.5C10.84 13.55 10.79 13.58 10.74 13.55C10.72 13.55 10.71 13.53 10.7 13.52C10.67 13.54 10.63 13.55 10.58 13.55C10.58 13.55 10.6 13.55 10.62 13.55C10.77 13.53 10.9 13.58 10.94 13.67C10.97 13.74 10.94 13.81 10.88 13.86C10.81 13.92 10.73 13.9 10.64 13.86C10.62 13.86 10.6 13.85 10.58 13.84C10.59 13.88 10.62 13.94 10.67 13.98C10.77 14.07 10.78 14.12 10.69 14.22C10.59 14.34 10.59 14.54 10.69 14.64C10.7 14.65 10.71 14.66 10.72 14.67C10.74 14.62 10.78 14.58 10.84 14.56C10.91 14.54 10.99 14.56 11.04 14.62C11.08 14.67 11.09 14.74 11.07 14.81C11.03 14.92 10.83 15.04 10.7 15.05C10.71 15.06 10.73 15.08 10.75 15.09L10.99 15.28L10.67 15.33C10.61 15.33 10.59 15.34 10.58 15.35V15.38C10.58 15.45 10.54 15.54 10.49 15.59C10.45 15.62 10.41 15.64 10.37 15.64C10.24 15.64 10.18 15.46 10.17 15.36C10.15 15.36 10.12 15.35 10.08 15.34L9.75998 15.29L9.98998 15.12C9.98998 15.12 10.04 15.08 10.05 15.07C9.97998 15.07 9.86998 15.02 9.80998 14.96C9.70998 14.88 9.66998 14.82 9.69998 14.71C9.71998 14.64 9.76998 14.59 9.82998 14.58C9.89998 14.57 9.97998 14.6 10.04 14.68L10.07 14.66C10.16 14.57 10.16 14.38 10.08 14.26L9.97998 14.12L10.1 13.98C10.1 13.98 10.16 13.9 10.16 13.89C10.16 13.89 10.16 13.89 10.14 13.89C10.01 13.89 9.91998 13.88 9.86998 13.82C9.82998 13.79 9.81998 13.74 9.81998 13.69C9.81998 13.62 9.84998 13.57 9.89998 13.54C9.95998 13.51 10.03 13.51 10.1 13.54C10.13 13.56 10.15 13.56 10.16 13.57C10.16 13.57 10.16 13.56 10.16 13.55C10.16 13.51 10.16 13.48 10.17 13.45C10.1 13.41 10.05 13.36 10.05 13.27C10.05 13.24 10.05 13.2 10.07 13.17C10.03 13.14 9.99998 13.11 9.97998 13.06C9.95998 13.01 9.97998 12.95 10.02 12.91C9.97998 12.89 9.94998 12.86 9.91998 12.82C9.85998 12.71 9.87998 12.64 9.91998 12.61C9.93998 12.59 9.96998 12.57 9.99998 12.56C9.99998 12.55 9.98998 12.53 9.97998 12.51C9.96998 12.45 9.98998 12.41 10.02 12.38C9.93998 12.36 9.86998 12.34 9.80998 12.31C9.61998 12.22 9.50998 12.05 9.51998 11.88C9.52998 11.73 9.63998 11.62 9.79998 11.58C9.86998 11.56 9.92998 11.56 9.98998 11.58C9.96998 11.44 9.96998 11.18 9.96998 10.55C9.96998 8.91 10.08 8.13 10.4 7.55C10.57 7.24 10.76 7.02 11.02 6.85C11.17 6.75 11.22 6.72 11.27 6.77C11.32 6.82 11.29 6.88 11.24 6.96C11.11 7.2 10.93 8.26 10.89 10.45C10.88 11.13 10.87 11.42 10.85 11.57C10.9 11.57 10.96 11.57 11.02 11.59C11.18 11.64 11.28 11.76 11.29 11.9C11.29 12.04 11.23 12.17 11.1 12.26H11.12L11.06 12.29L11.58 12.78C11.77 12.96 11.91 13.09 12 13.19C11.96 13.01 11.95 12.83 11.98 12.65C12.09 11.99 12.47 11.46 13.11 11.08C13.46 10.87 13.47 10.79 13.45 10.74C13.44 10.71 13.42 10.68 13.4 10.68C13.38 10.68 13.35 10.68 13.32 10.71C13.28 10.74 13.25 10.78 13.24 10.8C13.23 10.89 13.17 10.91 13.14 10.91C13.06 10.92 12.98 10.84 12.9 10.67C12.89 10.65 12.88 10.63 12.87 10.61C12.86 10.69 12.82 10.73 12.77 10.75C12.67 10.77 12.6 10.66 12.58 10.62C12.57 10.6 12.55 10.57 12.54 10.56C12.53 10.56 12.51 10.57 12.51 10.58C12.45 10.61 12.36 10.64 12.29 10.65L12.03 10.7L12.17 10.44C12.1 10.46 11.99 10.47 11.9 10.48L11.61 10.51L11.78 9.98C11.8 9.91 11.83 9.85 11.88 9.81C11.78 9.74 11.72 9.65 11.7 9.57C11.7 9.52 11.7 9.47 11.74 9.43C11.81 9.37 11.9 9.4 12.2 9.53C12.63 9.72 13.06 9.84 13.32 9.84C13.3 9.82 13.28 9.79 13.26 9.77C13.15 9.65 13.04 9.51 13 9.43C13 9.46 12.99 9.48 12.99 9.49C12.99 9.51 12.99 9.56 12.95 9.58C12.9 9.61 12.85 9.58 12.79 9.54C12.76 9.52 12.72 9.49 12.68 9.46L12.71 9.67L12.48 9.54C12.42 9.51 12.33 9.44 12.3 9.39C12.29 9.37 12.18 9.25 12.04 9.11C12.01 9.08 11.79 8.86 11.76 8.75C11.75 8.69 11.73 8.63 11.71 8.57C11.65 8.39 11.66 8.23 11.74 8.12C11.81 8.03 11.91 7.98 12.04 7.98C12.16 7.98 12.26 8.02 12.33 8.1C12.39 8.17 12.41 8.26 12.4 8.36C12.4 8.36 12.4 8.37 12.4 8.38C12.46 8.37 12.55 8.36 12.61 8.35C12.72 8.35 12.83 8.31 12.87 8.29C12.94 8.26 13.08 8.24 13.17 8.24C13.36 8.24 13.48 8.19 13.57 8.07C13.62 8 13.62 8 13.6 7.95L13.53 7.77L13.83 7.74C14.11 7.71 14.25 7.74 14.4 7.87C14.48 7.94 14.53 7.95 14.54 7.94C14.54 7.94 14.57 7.9 14.57 7.8C14.57 7.73 14.57 7.66 14.62 7.62C14.68 7.58 14.75 7.6 14.88 7.62C14.97 7.64 15.09 7.72 15.2 7.82L15.28 7.9L15.31 7.85C15.35 7.78 15.37 7.72 15.37 7.7C15.37 7.66 15.38 7.63 15.41 7.61C15.45 7.58 15.51 7.59 15.54 7.61C15.71 7.66 15.89 7.76 15.99 7.87C16.05 7.94 16.08 7.95 16.18 7.95C16.28 7.95 16.31 7.94 16.4 7.86L16.68 7.6L16.62 7.94C16.59 8.12 16.52 8.25 16.37 8.41L16.3 8.48L16.33 8.52C16.49 8.71 16.5 8.88 16.48 9.41C16.46 9.96 16.45 9.97 16.43 9.99C16.41 10.01 16.39 10.02 16.36 10.01C16.36 10.01 16.36 10.03 16.36 10.04C16.36 10.09 16.38 10.17 16.39 10.21C16.48 10.43 16.49 10.5 16.45 10.54C16.43 10.56 16.39 10.57 16.35 10.54C16.32 10.52 16.29 10.51 16.26 10.49C16.26 10.51 16.26 10.53 16.26 10.56C16.26 10.64 16.3 10.73 16.34 10.78L16.49 10.98L17.26 11C17.96 11.02 18.11 11.01 18.34 10.96C18.57 10.91 18.77 10.9 19.32 10.91C19.95 10.91 20.01 10.91 20.28 10.84C20.65 10.74 20.74 10.69 20.84 10.59C20.95 10.47 21 10.32 20.97 10.19C20.94 10.06 20.84 9.95 20.69 9.89C20.51 9.82 20.07 9.81 19.72 9.89C18.94 10.04 18.21 10.03 17.76 9.86C17.36 9.7 17.31 9.69 17.24 9.72C17.17 9.75 17.13 9.81 17.12 9.92C17.12 9.96 17.11 10.08 17.02 10.08C17 10.08 16.96 10.08 16.85 9.93C16.72 9.75 16.71 9.51 16.83 9.33L16.87 9.27L16.8 9.19C16.42 8.75 16.42 8.24 16.82 7.87C17.04 7.67 17.43 7.48 17.77 7.42C18.08 7.37 18.72 7.4 19.03 7.49C19.5 7.62 20.14 7.99 20.67 8.42C20.98 8.67 21.17 8.8 21.25 8.81C21.23 8.72 21.25 8.65 21.32 8.57C21.39 8.49 21.49 8.45 21.59 8.46C21.69 8.47 21.78 8.53 21.84 8.63C21.92 8.77 21.92 8.93 21.84 9.06C21.75 9.21 21.59 9.29 21.39 9.29C21.11 9.29 20.91 9.2 20.61 8.94C20.41 8.76 20.24 8.63 20.15 8.57C20.18 8.67 20.24 8.81 20.27 8.84C20.3 8.86 20.37 8.92 20.33 8.98C20.29 9.04 20.22 9.03 20.02 8.95C19.84 8.87 19.69 8.76 19.6 8.62C19.57 8.69 19.53 8.77 19.48 8.82C19.4 8.9 19.2 8.99 19.09 8.99C19.07 8.99 19.02 8.99 18.99 8.94C18.96 8.89 19 8.84 19.04 8.78C19.07 8.74 19.12 8.64 19.14 8.56C19.17 8.44 19.17 8.43 19.11 8.32C19.05 8.21 18.98 8.14 18.84 8.08C18.92 8.24 18.91 8.51 18.81 8.65C18.72 8.79 18.54 8.9 18.36 8.93L18.09 8.98L18.26 8.7C18.35 8.55 18.36 8.34 18.28 8.21C18.2 8.09 17.94 7.95 17.85 7.95C17.85 7.95 17.85 7.95 17.84 7.95C17.84 7.97 17.84 7.99 17.84 8.01C17.86 8.17 17.79 8.38 17.67 8.4C17.65 8.4 17.56 8.42 17.53 8.29C17.53 8.27 17.51 8.25 17.49 8.24C17.44 8.21 17.36 8.21 17.27 8.24C17.14 8.28 17.05 8.37 17.03 8.48C17.01 8.59 17.05 8.7 17.14 8.78C17.17 8.81 17.2 8.83 17.22 8.85C17.22 8.84 17.24 8.83 17.25 8.81C17.38 8.59 17.74 8.51 17.95 8.64L18.15 8.76L17.88 8.89C17.68 8.98 17.68 9.09 17.71 9.17C17.73 9.22 17.76 9.28 17.78 9.31C17.86 9.21 18.04 9.05 18.13 9.07C18.19 9.09 18.23 9.15 18.23 9.2C18.25 9.34 18.26 9.36 18.38 9.42C18.49 9.48 18.54 9.49 18.88 9.49C19.09 9.49 19.4 9.46 19.58 9.43C19.77 9.4 20.09 9.37 20.31 9.37C20.67 9.37 20.73 9.37 20.94 9.47C21.28 9.61 21.5 9.88 21.54 10.19C21.58 10.5 21.45 10.8 21.17 11.02L21.05 11.12L21.15 11.25C21.23 11.35 21.34 11.54 21.39 11.67C21.48 11.88 21.49 11.95 21.49 12.32C21.49 12.78 21.46 12.91 21.21 13.58C20.97 14.22 20.94 14.6 21.1 14.93C21.17 15.07 21.27 15.17 21.36 15.17C21.49 15.17 21.53 15.25 21.54 15.28C21.58 15.4 21.47 15.58 21.26 15.72C21.05 15.87 21.02 15.94 21.02 16.09C21.02 16.21 21.07 16.31 21.23 16.55C21.26 16.6 21.32 16.71 21.29 16.77C21.28 16.8 21.25 16.83 21.19 16.84C21.08 16.87 20.85 16.82 20.74 16.73C20.74 16.73 20.74 16.73 20.73 16.72C20.69 16.78 20.64 16.82 20.57 16.84C20.46 16.87 20.33 16.84 20.23 16.76L20.18 16.72L20.13 16.76C20.04 16.83 19.94 16.86 19.85 16.85C19.78 16.84 19.72 16.8 19.68 16.75L19.66 16.73L19.59 16.77C19.47 16.85 19.38 16.89 19.31 16.84L19.29 16.82C19.26 16.84 19.21 16.87 19.14 16.87V16.89ZM18.76 16.56L18.94 16.67C19.05 16.74 19.15 16.76 19.2 16.72C19.25 16.68 19.29 16.54 19.2 16.3C19.11 16.05 19.16 15.89 19.43 15.59C19.52 15.49 19.58 15.4 19.6 15.36C19.57 15.36 19.53 15.36 19.52 15.36C19.38 15.36 19.31 15.35 19.22 15.25C19.03 15.05 19.15 14.84 19.24 14.74L19.29 14.68L19.17 14.6C19.07 14.53 18.88 14.37 18.76 14.24C18.5 13.97 18.25 13.85 17.92 13.82H17.76V13.9C17.76 14.1 17.86 14.31 18.15 14.66C18.49 15.09 18.52 15.17 18.54 15.72V16.21L18.43 16.32C18.32 16.42 18.26 16.43 17.98 16.45C17.72 16.46 17.68 16.48 17.62 16.53C17.53 16.61 17.5 16.65 17.48 16.75C17.51 16.74 17.55 16.72 17.6 16.69L17.78 16.58L17.91 16.7C17.99 16.78 18.08 16.78 18.16 16.7C18.26 16.6 18.29 16.6 18.31 16.61H18.34L18.36 16.64C18.38 16.67 18.39 16.69 18.41 16.72C18.42 16.74 18.46 16.75 18.53 16.76C18.63 16.76 18.64 16.76 18.67 16.72L18.77 16.59L18.76 16.56ZM12.89 16.59L12.98 16.71C13.02 16.76 13.16 16.76 13.25 16.69L13.39 16.59L13.51 16.7C13.59 16.77 13.74 16.77 13.84 16.7C13.94 16.63 13.99 16.61 14.08 16.69C14.1 16.7 14.17 16.73 14.26 16.75C14.31 16.75 14.36 16.76 14.37 16.75C14.38 16.75 14.41 16.7 14.44 16.66C14.51 16.56 14.51 16.53 14.5 16.44C14.49 16.35 14.48 16.26 14.47 16.17C14.47 15.99 14.5 15.97 14.7 15.9C14.81 15.86 14.92 15.82 14.96 15.8C15 15.78 15.12 15.65 15.18 15.58C15.16 15.58 15.13 15.58 15.09 15.57C14.88 15.55 14.75 15.48 14.69 15.36C14.63 15.23 14.67 15.05 14.83 14.82C15.25 14.2 15.5 13.6 15.5 13.22C15.5 13.03 15.5 12.96 15.57 12.94C15.6 12.94 15.64 12.94 15.66 12.98C15.73 13.1 15.69 13.36 15.63 13.56C15.56 13.82 15.45 14.1 15.33 14.33L15.31 14.37C15.42 14.33 15.66 14.23 15.94 14.1C16.86 13.69 17.19 13.61 17.8 13.63C18.32 13.65 18.54 13.75 18.91 14.13C19.09 14.31 19.27 14.45 19.59 14.65C20.31 15.09 20.35 15.14 20.38 15.67C20.41 16.2 20.39 16.27 19.95 16.37C19.74 16.42 19.48 16.52 19.41 16.74C19.43 16.74 19.46 16.71 19.5 16.69L19.68 16.58L19.77 16.71C19.77 16.71 19.81 16.75 19.85 16.76C19.9 16.76 19.97 16.75 20.03 16.7L20.17 16.59L20.31 16.7C20.38 16.75 20.46 16.77 20.52 16.75C20.55 16.75 20.59 16.72 20.61 16.67C20.62 16.64 20.64 16.62 20.67 16.61C20.72 16.6 20.77 16.63 20.82 16.67C20.9 16.74 21.07 16.76 21.13 16.75C21.13 16.73 21.11 16.7 21.09 16.67C20.91 16.41 20.86 16.29 20.86 16.13C20.86 15.92 20.92 15.81 21.16 15.64C21.35 15.51 21.4 15.38 21.38 15.36C21.38 15.36 21.37 15.36 21.34 15.36C21.19 15.36 21.04 15.24 20.95 15.04C20.78 14.67 20.81 14.26 21.06 13.58C21.3 12.92 21.33 12.8 21.33 12.37C21.33 12.02 21.33 11.96 21.24 11.78C21.19 11.66 21.09 11.49 21.02 11.39L20.84 11.15L21.07 10.96C21.31 10.77 21.42 10.51 21.38 10.26C21.34 10 21.15 9.77 20.86 9.65C20.67 9.57 20.63 9.56 20.29 9.57C20.08 9.57 19.77 9.6 19.59 9.63C19.4 9.66 19.08 9.69 18.86 9.69C18.52 9.69 18.45 9.69 18.29 9.61C18.13 9.53 18.09 9.47 18.06 9.29C18 9.32 17.87 9.44 17.85 9.49C17.85 9.51 17.83 9.55 17.77 9.56C17.72 9.56 17.68 9.53 17.65 9.49C17.61 9.45 17.57 9.36 17.54 9.29C17.49 9.15 17.5 8.96 17.78 8.83H17.81C17.66 8.75 17.42 8.82 17.33 8.96C17.25 9.09 17.21 9.09 17.19 9.09C17.17 9.09 17.14 9.09 17.01 8.96C16.88 8.84 16.83 8.68 16.86 8.52C16.9 8.36 17.02 8.24 17.2 8.18C17.32 8.14 17.44 8.14 17.53 8.19C17.58 8.22 17.61 8.26 17.63 8.3C17.65 8.26 17.68 8.18 17.67 8.1C17.66 8.02 17.65 7.96 17.69 7.92C17.72 7.88 17.77 7.88 17.82 7.88C17.97 7.88 18.27 8.06 18.37 8.21C18.48 8.38 18.48 8.65 18.36 8.85C18.49 8.81 18.61 8.73 18.67 8.64C18.74 8.53 18.75 8.31 18.69 8.2C18.65 8.13 18.61 8.05 18.65 7.99C18.7 7.94 18.77 7.97 18.82 7.99C19.02 8.07 19.13 8.17 19.22 8.32C19.29 8.46 19.3 8.51 19.26 8.66C19.24 8.73 19.2 8.81 19.17 8.88C19.24 8.85 19.32 8.81 19.36 8.78C19.38 8.76 19.43 8.68 19.45 8.62L19.55 8.35L19.68 8.58C19.75 8.7 19.89 8.81 20.05 8.88C20.05 8.88 20.06 8.88 20.07 8.88C20.01 8.76 19.97 8.61 19.96 8.54C19.96 8.52 19.96 8.48 19.99 8.45C20.03 8.41 20.08 8.37 20.68 8.89C20.95 9.13 21.12 9.21 21.36 9.21C21.5 9.21 21.63 9.15 21.69 9.05C21.74 8.96 21.74 8.86 21.69 8.76C21.66 8.7 21.61 8.67 21.55 8.66C21.5 8.66 21.44 8.68 21.4 8.72C21.36 8.77 21.35 8.8 21.36 8.83C21.37 8.87 21.38 8.93 21.35 8.97C21.32 9.01 21.26 9.01 21.23 9.01C21.13 9.01 20.98 8.94 20.55 8.59C20.03 8.17 19.41 7.81 18.96 7.68C18.68 7.6 18.05 7.57 17.77 7.62C17.46 7.68 17.09 7.85 16.89 8.03C16.55 8.34 16.55 8.76 16.88 9.15L17.02 9.31L16.92 9.46C16.83 9.59 16.84 9.76 16.94 9.89C16.94 9.89 16.95 9.91 16.96 9.91C16.98 9.77 17.06 9.67 17.17 9.63C17.29 9.59 17.36 9.61 17.79 9.78C18.22 9.95 18.92 9.96 19.67 9.81C20.06 9.73 20.52 9.74 20.72 9.82C20.91 9.9 21.04 10.04 21.08 10.22C21.12 10.4 21.06 10.59 20.92 10.75C20.8 10.89 20.68 10.94 20.29 11.04C20 11.12 19.93 11.12 19.29 11.12C18.75 11.12 18.56 11.12 18.34 11.17C18.09 11.22 17.94 11.23 17.23 11.21H16.63C16.63 11.21 16.68 11.23 16.7 11.24C16.74 11.26 16.78 11.29 16.78 11.34L16.85 11.38H16.75C16.75 11.38 16.7 11.42 16.66 11.44C16.6 11.46 16.47 11.48 16.37 11.48H16.26V11.56C16.24 11.63 16.24 11.7 16.24 11.72C16.24 11.74 16.27 11.8 16.24 11.84C16.2 11.88 16.14 11.86 16.12 11.85C16.09 11.84 16 11.82 15.91 11.8C15.82 11.78 15.7 11.74 15.64 11.71C15.64 11.71 15.61 11.7 15.6 11.69C15.56 11.75 15.26 11.98 15.18 11.98C15.1 11.98 15.09 11.88 15.09 11.83C15.09 11.8 15.05 11.68 15 11.57C14.98 11.52 14.95 11.46 14.93 11.41C14.93 11.41 14.93 11.43 14.93 11.44C14.92 11.51 14.87 11.62 14.82 11.69L14.68 11.91L14.58 11.7C14.58 11.7 14.53 11.61 14.5 11.58C14.45 11.68 14.27 11.92 14.17 11.92C14.11 11.92 14.07 11.86 14.07 11.75C14 11.83 13.91 11.92 13.85 11.92C13.85 11.92 13.82 11.93 13.81 11.94C13.73 12.03 13.66 12.01 13.64 12C13.62 12 13.57 11.95 13.6 11.85C13.6 11.83 13.6 11.77 13.58 11.71L13.54 11.59C13.54 11.59 13.48 11.6 13.42 11.62C13.23 11.68 13.15 11.68 13.12 11.62C13.08 11.55 13.16 11.49 13.19 11.47C13.21 11.45 13.26 11.37 13.3 11.27C13.31 11.24 13.33 11.19 13.35 11.15C13.3 11.19 13.24 11.22 13.18 11.26C12.57 11.62 12.22 12.1 12.12 12.73C12.03 13.28 12.31 13.86 12.88 14.28C13.07 14.42 13.31 14.55 13.44 14.6C13.35 14.22 13.35 13.61 13.5 13.48C13.53 13.46 13.56 13.45 13.59 13.47C13.64 13.5 13.64 13.55 13.6 13.71C13.51 14.08 13.55 14.37 13.79 15.08C14.06 15.85 13.94 16.1 13.63 16.28C13.51 16.35 13.42 16.36 13.15 16.35C12.85 16.35 12.84 16.35 12.76 16.41C12.69 16.46 12.6 16.63 12.58 16.74C12.6 16.74 12.63 16.72 12.67 16.7H12.69V16.69L12.84 16.61L12.89 16.59ZM19.57 15.21C19.64 15.21 19.69 15.21 19.72 15.25C19.75 15.28 19.75 15.33 19.75 15.35C19.75 15.44 19.58 15.65 19.54 15.69C19.29 15.98 19.27 16.07 19.34 16.26C19.37 16.34 19.39 16.42 19.39 16.5C19.5 16.37 19.69 16.28 19.93 16.23C20.1633 16.1767 20.27 15.9933 20.25 15.68C20.22 15.2 20.19 15.18 19.52 14.77C19.49 14.75 19.46 14.73 19.43 14.72L19.34 14.83C19.2 15 19.26 15.09 19.32 15.16C19.37 15.22 19.39 15.23 19.51 15.22C19.53 15.22 19.54 15.22 19.55 15.22L19.57 15.21ZM10.13 15.25C10.3 15.28 10.32 15.33 10.32 15.37C10.32 15.43 10.36 15.55 10.39 15.55C10.39 15.55 10.4 15.55 10.41 15.55C10.44 15.53 10.46 15.47 10.46 15.42V15.39C10.48 15.29 10.58 15.27 10.67 15.26C10.59 15.19 10.55 15.12 10.57 15.06C10.58 15.03 10.61 14.98 10.71 14.98C10.8 14.98 10.95 14.88 10.96 14.84C10.96 14.82 10.96 14.8 10.96 14.8C10.94 14.78 10.92 14.78 10.9 14.78H10.89C10.89 14.8 10.86 14.87 10.8 14.89C10.74 14.91 10.68 14.86 10.62 14.81C10.46 14.66 10.45 14.37 10.61 14.19C10.61 14.19 10.62 14.18 10.63 14.17C10.63 14.17 10.61 14.15 10.6 14.14C10.52 14.07 10.46 13.94 10.46 13.86C10.46 13.81 10.48 13.78 10.5 13.77C10.51 13.76 10.55 13.72 10.72 13.77C10.81 13.8 10.82 13.79 10.83 13.78C10.85 13.77 10.85 13.76 10.85 13.76C10.85 13.75 10.79 13.71 10.68 13.72C10.64 13.72 10.52 13.74 10.48 13.64C10.47 13.63 10.43 13.61 10.38 13.59C10.36 13.59 10.35 13.59 10.33 13.58C10.33 13.67 10.29 13.71 10.26 13.73C10.18 13.78 10.08 13.72 10.05 13.7C10.02 13.68 9.99998 13.68 9.98998 13.7C9.98998 13.7 9.97998 13.72 9.97998 13.73C9.97998 13.74 9.97998 13.75 9.97998 13.75C9.97998 13.75 10.03 13.78 10.15 13.78C10.26 13.78 10.3 13.82 10.31 13.85C10.33 13.9 10.33 13.98 10.22 14.11L10.17 14.16L10.2 14.21C10.32 14.38 10.31 14.65 10.18 14.79L10.04 14.94L9.92998 14.8C9.92998 14.8 9.87998 14.75 9.85998 14.76C9.84998 14.76 9.83998 14.78 9.83998 14.79C9.83998 14.82 9.82998 14.83 9.89998 14.89C9.94998 14.93 10.03 14.96 10.05 14.96C10.16 14.96 10.19 15.02 10.2 15.05C10.22 15.11 10.2 15.18 10.12 15.24L10.13 15.25ZM12.15 14.69L12.25 14.71C12.25 14.71 12.31 14.69 12.37 14.67C12.47 14.63 12.68 14.46 12.74 14.39C12.72 14.36 12.67 14.31 12.6 14.25C12.38 14.06 12.15 13.74 12.09 13.55C12.06 13.46 11.85 13.25 11.52 12.94L11.13 12.57C11.13 12.57 11.11 12.63 11.09 12.66C11.09 12.66 11.09 12.66 11.1 12.67C11.15 12.73 11.13 12.84 11.08 12.92C11.13 12.97 11.14 13.09 11.09 13.16C11.09 13.16 11.09 13.18 11.09 13.2C11.14 13.28 11.11 13.41 11.04 13.48C11.04 13.48 11.05 13.48 11.06 13.49C11.19 13.58 11.19 13.63 11.19 13.94C11.19 14.11 11.19 14.19 11.21 14.23C11.26 14.17 11.35 14.13 11.42 14.13C11.44 14.13 11.49 14.13 11.8 14.42C11.97 14.58 12.1 14.68 12.13 14.69H12.15ZM10.22 13.31C10.22 13.34 10.22 13.35 10.32 13.39C10.46 13.45 10.6 13.45 10.64 13.43C10.61 13.4 10.5 13.33 10.31 13.31C10.28 13.31 10.24 13.31 10.21 13.31H10.22ZM10.17 13.05C10.17 13.05 10.15 13.07 10.15 13.08C10.15 13.09 10.19 13.12 10.27 13.13C10.34 13.13 10.44 13.16 10.49 13.18C10.59 13.22 10.65 13.2 10.66 13.18C10.66 13.18 10.65 13.17 10.59 13.14C10.4 13.05 10.21 13.03 10.17 13.05ZM10.07 12.74C10.07 12.74 10.07 12.77 10.09 12.79C10.1 12.81 10.12 12.84 10.23 12.85C10.32 12.86 10.44 12.89 10.5 12.91C10.61 12.94 10.66 12.93 10.66 12.93C10.62 12.9 10.43 12.83 10.3 12.79C10.13 12.73 10.07 12.74 10.06 12.75L10.07 12.74ZM10.16 12.53C10.16 12.53 10.21 12.57 10.36 12.61C10.58 12.68 10.64 12.68 10.66 12.67C10.66 12.67 10.61 12.6 10.33 12.55C10.21 12.53 10.17 12.53 10.15 12.54L10.16 12.53ZM10.74 12.5H10.76L10.81 12.49C10.79 12.49 10.76 12.49 10.74 12.5ZM9.95998 11.76C9.95998 11.76 9.89998 11.76 9.87998 11.77C9.77998 11.8 9.70998 11.86 9.69998 11.95C9.68998 12.06 9.76998 12.17 9.89998 12.24C10.14 12.36 10.69 12.36 10.95 12.26C11.09 12.19 11.18 12.08 11.18 11.97C11.18 11.88 11.11 11.82 11.01 11.78C10.88 11.74 10.85 11.78 10.83 11.82C10.82 11.84 10.83 11.88 10.83 11.9C10.88 11.91 10.91 11.96 10.91 12.02C10.91 12.05 10.9 12.1 10.83 12.14C10.68 12.23 10.28 12.26 10.08 12.16C9.99998 12.12 9.94998 12.04 9.96998 11.97C9.96998 11.93 10.01 11.9 10.05 11.89C10.05 11.87 10.06 11.84 10.05 11.82C10.04 11.78 9.99998 11.76 9.94998 11.76H9.95998ZM10.21 12C10.31 12.02 10.58 12.02 10.69 11.99C10.66 11.96 10.64 11.92 10.64 11.88C10.64 11.82 10.66 11.75 10.72 11.68C10.76 11.63 10.77 11.44 10.79 10.49C10.82 8.79 10.94 7.49 11.11 7.03C10.89 7.18 10.72 7.38 10.56 7.66C10.26 8.21 10.15 8.98 10.15 10.59C10.15 11.47 10.15 11.62 10.2 11.69C10.26 11.79 10.27 11.85 10.22 11.96C10.22 11.98 10.21 12 10.2 12.01L10.21 12ZM13.77 11.27V11.45C13.77 11.45 13.79 11.56 13.81 11.65L13.83 11.72L13.86 11.7C13.95 11.66 14.04 11.51 14.04 11.39C14.04 11.29 14.11 11.27 14.12 11.27C14.16 11.27 14.22 11.29 14.24 11.39C14.24 11.41 14.27 11.48 14.29 11.56V11.58C14.29 11.58 14.38 11.45 14.39 11.4C14.41 11.33 14.47 11.21 14.55 11.22C14.57 11.22 14.63 11.24 14.63 11.33C14.63 11.36 14.69 11.44 14.74 11.49C14.74 11.46 14.76 11.43 14.77 11.39C14.79 11.3 14.86 11.09 14.96 11.04C14.99 11.03 15.02 11.03 15.05 11.04C15.08 11.06 15.1 11.08 15.1 11.11C15.1 11.13 15.1 11.15 15.1 11.16C15.1 11.19 15.13 11.28 15.18 11.4L15.3 11.68C15.3 11.68 15.35 11.64 15.37 11.62C15.44 11.56 15.5 11.5 15.51 11.48C15.51 11.46 15.53 11.43 15.57 11.41C15.62 11.39 15.66 11.41 15.72 11.45C15.79 11.5 16 11.56 16.1 11.58C16.1 11.55 16.1 11.51 16.1 11.45V11.19L16.29 11.23C16.33 11.23 16.41 11.23 16.49 11.23C16.43 11.19 16.35 11.12 16.32 11.08C16.32 11.08 16.27 11.05 16.21 11.05C16.01 11.03 15.57 10.83 15.57 10.66C15.57 10.63 15.59 10.6 15.61 10.59C15.65 10.57 15.69 10.59 15.8 10.67C15.92 10.78 16.09 10.85 16.23 10.85C16.18 10.78 16.14 10.67 16.13 10.57C16.12 10.45 16.12 10.45 15.98 10.35C15.88 10.28 15.76 10.19 15.71 10.13C15.65 10.28 15.61 10.29 15.58 10.29C15.56 10.29 15.53 10.29 15.43 10.19C15.42 10.18 15.4 10.16 15.39 10.16C15.38 10.18 15.37 10.2 15.35 10.23L15.23 10.47L15.11 10.3C15.11 10.3 15.02 10.19 14.97 10.15C14.89 10.08 14.86 10.03 14.88 9.99C14.89 9.96 14.92 9.94 14.95 9.94C14.99 9.94 15.06 9.98 15.15 10.07L15.2 10.12C15.2 10.12 15.23 10.03 15.22 9.98C15.21 9.91 15.19 9.85 15.25 9.82C15.31 9.8 15.34 9.85 15.37 9.88C15.39 9.91 15.45 9.97 15.5 10.01L15.54 10.04L15.57 9.98C15.63 9.88 15.65 9.83 15.71 9.83L15.64 9.66C15.64 9.66 15.57 9.57 15.49 9.52C15.34 9.42 15.34 9.38 15.33 9.36C15.33 9.34 15.33 9.31 15.35 9.3C15.39 9.27 15.43 9.25 15.62 9.4C15.65 9.42 15.67 9.44 15.69 9.45C15.69 9.38 15.68 9.23 15.64 9.1C15.63 9.05 15.61 8.99 15.66 8.96C15.71 8.93 15.75 8.96 15.83 9.05C15.91 9.13 15.96 9.23 16 9.39C16.04 9.56 16.05 9.58 16.22 9.72C16.26 9.75 16.29 9.78 16.32 9.8C16.32 9.71 16.33 9.57 16.34 9.39C16.36 8.83 16.34 8.73 16.22 8.59L16.11 8.45L16.26 8.29C16.37 8.18 16.43 8.08 16.46 7.97C16.37 8.05 16.3 8.07 16.18 8.07C16.05 8.07 15.98 8.04 15.89 7.95C15.81 7.86 15.66 7.78 15.51 7.74C15.49 7.81 15.44 7.91 15.44 7.92L15.32 8.13L15.1 7.92C15.02 7.84 14.92 7.78 14.85 7.76C14.81 7.76 14.75 7.73 14.72 7.73C14.72 7.75 14.72 7.78 14.72 7.79C14.72 7.84 14.72 8.01 14.61 8.06C14.53 8.1 14.44 8.06 14.32 7.97C14.21 7.87 14.12 7.84 13.86 7.87H13.75V7.88C13.79 7.99 13.77 8.05 13.7 8.14C13.58 8.3 13.42 8.36 13.19 8.36C13.1 8.36 12.99 8.38 12.95 8.4C12.88 8.43 12.74 8.46 12.64 8.47C12.53 8.48 12.43 8.5 12.41 8.5C12.39 8.5 12.34 8.52 12.3 8.5C12.25 8.46 12.26 8.4 12.27 8.32C12.27 8.26 12.27 8.21 12.23 8.18C12.19 8.14 12.13 8.11 12.05 8.11C11.97 8.11 11.91 8.14 11.87 8.19C11.82 8.26 11.81 8.38 11.86 8.51C11.88 8.57 11.9 8.64 11.92 8.71C11.92 8.74 12.01 8.85 12.16 9C12.26 9.1 12.41 9.26 12.45 9.31C12.45 9.33 12.51 9.37 12.56 9.4C12.56 9.34 12.56 9.26 12.62 9.23C12.69 9.2 12.75 9.28 12.77 9.31C12.79 9.33 12.84 9.38 12.89 9.41C12.89 9.38 12.91 9.34 12.92 9.31L13.02 9.08L13.16 9.34C13.19 9.4 13.3 9.54 13.41 9.67C13.56 9.84 13.81 10.2 13.67 10.33C13.62 10.37 13.54 10.38 13.36 10.34C13.24 10.32 13.11 10.31 13.07 10.31C13.01 10.31 12.93 10.33 12.9 10.27H12.88L12.89 10.25C12.87 10.2 12.91 10.15 12.94 10.11C12.94 10.11 12.92 10.11 12.91 10.11C12.72 10.11 12.28 10.03 12.1 9.96C12.01 9.93 11.99 9.93 11.98 9.93C11.98 9.93 11.96 9.94 11.94 10.02L11.84 10.34H11.91C12 10.32 12.12 10.3 12.18 10.29C12.31 10.25 12.34 10.27 12.36 10.29C12.4 10.33 12.39 10.37 12.33 10.49C12.38 10.48 12.44 10.46 12.48 10.44C12.62 10.38 12.66 10.41 12.74 10.54C12.75 10.56 12.77 10.58 12.77 10.59C12.77 10.59 12.77 10.57 12.77 10.56C12.77 10.52 12.79 10.42 12.87 10.4C12.95 10.39 13 10.47 13.07 10.61C13.1 10.67 13.13 10.71 13.15 10.74C13.17 10.68 13.23 10.63 13.28 10.59C13.35 10.54 13.42 10.52 13.48 10.54C13.54 10.56 13.59 10.61 13.62 10.68C13.66 10.78 13.62 10.88 13.53 10.97C13.56 10.97 13.58 10.99 13.59 11C13.63 11.05 13.59 11.1 13.55 11.15C13.52 11.18 13.51 11.22 13.51 11.23C13.51 11.26 13.49 11.31 13.47 11.35C13.47 11.35 13.47 11.35 13.48 11.35L13.74 11.23L13.77 11.27ZM15.72 10.68L15.76 9.89C15.76 9.89 15.79 9.94 15.81 9.97C15.84 10.04 16.06 10.23 16.31 10.39C16.31 10.37 16.29 10.34 16.28 10.31C16.26 10.25 16.24 10.15 16.24 10.08C16.24 10.02 16.24 10 16.13 9.92C15.99 9.82 15.92 9.73 15.88 9.61C15.88 9.64 15.87 9.67 15.86 9.69L15.77 9.89L15.72 10.68ZM13.16 10.18H13.18C13.27 10.18 13.39 10.2 13.45 10.21C13.48 10.21 13.5 10.22 13.53 10.23C13.53 10.21 13.51 10.18 13.49 10.14C13.44 10.03 13.43 10.03 13.38 10.03C13.32 10.03 13.25 10.03 13.17 10.01C13.17 10.01 13.18 10.03 13.19 10.04C13.21 10.09 13.19 10.13 13.16 10.18ZM11.89 9.6C11.89 9.6 11.97 9.74 12.13 9.81C12.3 9.89 12.79 9.98 13.01 9.98C12.77 9.93 12.48 9.83 12.19 9.71C12.13 9.68 11.95 9.61 11.89 9.6Z" fill="black"/>
<path d="M15.19 11.11C15.19 11.11 15.05 10.93 14.9 10.85C14.79 10.79 14.77 10.78 14.77 10.84C14.77 10.92 14.7 11.12 14.67 11.12C14.65 11.12 14.63 11.08 14.62 11.03C14.61 10.98 14.55 10.89 14.5 10.82L14.4 10.7L14.32 10.81C14.25 10.92 14.13 11.02 14.07 11.02C14.06 11.02 14.05 10.96 14.07 10.9C14.08 10.83 14.07 10.77 14.05 10.75C14.03 10.74 14.01 10.75 14.01 10.75C14.01 10.79 13.84 10.98 13.8 10.98C13.79 10.98 13.76 10.93 13.75 10.86L13.71 10.63C13.7 10.57 13.72 10.61 13.76 10.72L13.83 10.93L13.91 10.8C13.96 10.73 13.99 10.66 13.99 10.63C13.99 10.6 14.01 10.6 14.02 10.61C14.03 10.62 14.06 10.7 14.08 10.79L14.1 10.96L14.19 10.86C14.24 10.81 14.3 10.74 14.32 10.7C14.36 10.64 14.36 10.64 14.44 10.7C14.48 10.74 14.55 10.82 14.59 10.89C14.63 10.96 14.66 11.01 14.67 11C14.68 10.99 14.69 10.92 14.7 10.84L14.72 10.69C14.72 10.69 14.99 10.84 15.09 10.93C15.15 10.99 15.21 11.02 15.22 11.01C15.23 11 15.24 10.92 15.24 10.83C15.24 10.69 15.22 10.65 15.14 10.58C15.04 10.49 15.04 10.49 15 10.56C14.95 10.64 14.89 10.64 14.89 10.56C14.89 10.5 14.7 10.27 14.65 10.27C14.64 10.27 14.6 10.32 14.56 10.38C14.52 10.44 14.49 10.49 14.47 10.49C14.42 10.49 14.15 10.2 14.15 10.15C14.15 10.11 14.17 10.12 14.21 10.19C14.25 10.24 14.32 10.32 14.37 10.37C14.47 10.46 14.51 10.44 14.55 10.27C14.56 10.22 14.58 10.18 14.59 10.18C14.63 10.18 14.87 10.42 14.9 10.5L14.93 10.58L14.95 10.49C14.98 10.38 15.01 10.38 15.06 10.48C15.08 10.52 15.18 10.61 15.28 10.67L15.47 10.79L15.51 10.67C15.53 10.61 15.56 10.57 15.57 10.59C15.59 10.62 15.54 10.81 15.5 10.85C15.5 10.85 15.43 10.82 15.37 10.77L15.25 10.68V10.84C15.25 10.93 15.24 11.03 15.23 11.07C15.21 11.15 15.15 11.17 15.15 11.1L15.19 11.11ZM14.27 9.86C14.05 9.68 14.02 9.64 14.02 9.55V9.46L14.04 9.55C14.04 9.6 14.11 9.68 14.18 9.73L14.31 9.83L14.39 9.74C14.39 9.74 14.47 9.63 14.47 9.61C14.47 9.55 14.48 9.56 14.63 9.68C14.76 9.79 14.77 9.79 14.78 9.72C14.79 9.68 14.78 9.6 14.78 9.55C14.74 9.4 14.75 9.38 14.81 9.47C14.84 9.51 14.9 9.58 14.93 9.61C14.99 9.67 14.99 9.66 15.01 9.59C15.02 9.55 15.03 9.47 15.03 9.42V9.33L15.15 9.46C15.26 9.58 15.27 9.59 15.31 9.53C15.33 9.5 15.35 9.41 15.35 9.34C15.35 9.25 15.35 9.23 15.38 9.26C15.42 9.32 15.39 9.47 15.32 9.6L15.27 9.69L15.2 9.59C15.12 9.46 15.09 9.46 15.03 9.6C14.98 9.73 14.95 9.74 14.9 9.64C14.87 9.57 14.86 9.58 14.84 9.72L14.81 9.87L14.66 9.75L14.51 9.63L14.44 9.71C14.44 9.71 14.37 9.8 14.37 9.83C14.37 9.88 14.33 9.88 14.28 9.83L14.27 9.86ZM16.23 9.19C16.15 9.12 16.09 9.05 16.11 9.04C16.13 9.03 16.14 9.02 16.14 9.04C16.14 9.06 16.21 9.12 16.29 9.19C16.46 9.36 16.43 9.37 16.24 9.19H16.23ZM13.61 8.93C13.54 8.83 13.54 8.77 13.63 8.66C13.69 8.58 13.72 8.57 13.84 8.59C13.91 8.59 14.07 8.66 14.19 8.73C14.33 8.81 14.47 8.86 14.58 8.87C14.67 8.88 14.75 8.89 14.75 8.87C14.75 8.85 14.71 8.8 14.66 8.73C14.55 8.56 14.55 8.55 14.68 8.65C14.81 8.75 14.97 8.78 15.32 8.77H15.49L15.39 8.67C15.25 8.54 15.29 8.52 15.45 8.65C15.59 8.77 15.59 8.78 15.28 8.81C15.15 8.82 15.01 8.81 14.9 8.78C14.73 8.74 14.72 8.74 14.75 8.79C14.77 8.82 14.8 8.85 14.82 8.85C14.84 8.85 14.85 8.87 14.85 8.89C14.85 8.95 14.48 8.89 14.3 8.81C13.89 8.61 13.84 8.59 13.74 8.62C13.69 8.64 13.63 8.69 13.61 8.73C13.55 8.89 13.78 9.02 13.88 8.87C13.91 8.83 13.9 8.8 13.85 8.75C13.78 8.68 13.79 8.67 13.88 8.7C13.95 8.72 13.95 8.88 13.89 8.93C13.82 8.99 13.66 8.98 13.6 8.9L13.61 8.93ZM15.22 8.52C15.17 8.47 15.21 8.46 15.44 8.46C15.72 8.46 15.89 8.41 16.1 8.28C16.26 8.18 16.31 8.2 16.15 8.3C16.01 8.39 15.79 8.47 15.58 8.49C15.48 8.5 15.36 8.52 15.32 8.52C15.28 8.52 15.24 8.52 15.22 8.52Z" fill="black"/>
<path d="M15.22 11.22C15.22 11.22 15.22 11.22 15.21 11.22C15.17 11.22 15.13 11.18 15.13 11.12C15.11 11.09 15.01 10.99 14.88 10.92C14.87 10.92 14.86 10.91 14.85 10.9C14.83 11 14.78 11.2 14.68 11.2C14.6 11.2 14.57 11.1 14.56 11.06C14.56 11.03 14.5 10.94 14.45 10.88L14.41 10.83L14.39 10.86C14.33 10.95 14.21 11.07 14.12 11.1L14.08 11.14V11.11C14.08 11.11 14.04 11.1 14.02 11.08C14.02 11.07 13.99 11.04 14 10.93C13.96 10.98 13.91 11.03 13.87 11.05L13.83 11.11V11.08H13.81C13.77 11.08 13.72 11.06 13.69 10.9L13.65 10.67C13.64 10.59 13.67 10.57 13.7 10.56C13.77 10.54 13.8 10.61 13.84 10.73L13.87 10.8C13.91 10.73 13.94 10.68 13.94 10.66C13.94 10.62 13.96 10.59 13.99 10.58C14.02 10.56 14.05 10.56 14.08 10.58C14.13 10.61 14.16 10.73 14.17 10.82V10.84C14.22 10.79 14.27 10.73 14.28 10.7C14.3 10.67 14.32 10.63 14.37 10.62V10.6L14.4 10.62C14.43 10.62 14.46 10.65 14.49 10.68C14.53 10.71 14.59 10.79 14.63 10.85L14.65 10.71V10.67L14.7 10.66C14.73 10.66 14.75 10.65 14.92 10.75C14.92 10.75 14.94 10.76 14.95 10.77L14.93 10.72H14.91C14.89 10.72 14.83 10.69 14.83 10.6C14.82 10.56 14.73 10.45 14.67 10.39C14.66 10.4 14.65 10.42 14.63 10.45C14.54 10.6 14.51 10.6 14.48 10.6C14.46 10.6 14.41 10.6 14.25 10.42C14.09 10.25 14.09 10.2 14.09 10.18C14.09 10.11 14.13 10.09 14.15 10.09C14.21 10.07 14.25 10.13 14.29 10.18C14.32 10.23 14.39 10.3 14.44 10.34C14.46 10.35 14.47 10.36 14.48 10.37C14.48 10.36 14.5 10.33 14.51 10.28C14.53 10.18 14.57 10.14 14.62 10.14C14.7 10.14 14.86 10.32 14.95 10.43C14.97 10.4 14.99 10.37 15.03 10.37C15.11 10.37 15.15 10.45 15.16 10.48C15.17 10.5 15.25 10.57 15.36 10.64L15.47 10.71V10.68C15.52 10.57 15.56 10.55 15.59 10.54C15.62 10.54 15.65 10.54 15.67 10.58C15.72 10.65 15.64 10.88 15.6 10.93C15.55 10.98 15.49 10.95 15.37 10.87H15.36V10.88C15.36 10.96 15.36 11.08 15.34 11.13C15.32 11.21 15.27 11.25 15.21 11.25L15.22 11.22ZM15 10.77C15.06 10.81 15.12 10.85 15.16 10.89C15.17 10.89 15.18 10.91 15.19 10.92C15.19 10.9 15.19 10.88 15.19 10.85C15.19 10.73 15.19 10.71 15.11 10.65C15.1 10.64 15.08 10.63 15.07 10.62C15.05 10.65 15.04 10.66 15.02 10.68L14.99 10.78L15 10.77ZM14.26 10.15L14.86 10.02L14.51 9.76L14.49 9.79C14.49 9.79 14.44 9.85 14.44 9.87C14.44 9.93 14.4 9.95 14.38 9.96C14.34 9.98 14.28 9.96 14.23 9.92C14.02 9.75 13.95 9.68 13.95 9.55V9.46H14.1V9.55C14.1 9.55 14.16 9.64 14.23 9.69L14.3 9.75L14.33 9.71C14.33 9.71 14.39 9.63 14.39 9.62C14.39 9.59 14.39 9.55 14.44 9.53C14.5 9.5 14.54 9.53 14.67 9.65C14.68 9.66 14.7 9.67 14.71 9.69C14.71 9.66 14.71 9.63 14.7 9.6C14.67 9.5 14.65 9.42 14.71 9.38C14.77 9.35 14.82 9.41 14.85 9.45C14.87 9.48 14.9 9.52 14.93 9.55C14.93 9.52 14.93 9.48 14.93 9.45V9.17L15.18 9.44C15.19 9.46 15.21 9.48 15.23 9.5C15.23 9.47 15.25 9.42 15.25 9.38C15.25 9.31 15.25 9.24 15.31 9.22C15.33 9.22 15.37 9.21 15.41 9.26C15.47 9.35 15.43 9.53 15.36 9.67L15.25 9.87L15.12 9.67C15.12 9.67 15.1 9.64 15.09 9.63C15.09 9.63 15.09 9.65 15.08 9.67C15.05 9.74 15.02 9.82 14.94 9.82C14.92 9.82 14.9 9.82 14.88 9.8L14.84 10.04L14.26 10.15ZM16.4 9.39C16.35 9.39 16.28 9.33 16.19 9.25C16.04 9.12 16.04 9.07 16.04 9.05C16.04 9.03 16.04 9.01 16.06 8.99C16.08 8.97 16.12 8.96 16.14 8.96C16.16 8.96 16.18 8.97 16.19 8.99C16.2 9 16.25 9.06 16.33 9.13C16.44 9.24 16.5 9.3 16.44 9.36C16.42 9.38 16.41 9.38 16.39 9.38L16.4 9.39ZM13.78 9.07C13.78 9.07 13.76 9.07 13.75 9.07C13.67 9.07 13.59 9.03 13.55 8.97C13.46 8.85 13.46 8.75 13.57 8.61C13.65 8.52 13.7 8.5 13.84 8.51C13.93 8.52 14.1 8.59 14.21 8.66C14.34 8.73 14.47 8.78 14.57 8.79C14.58 8.79 14.59 8.79 14.6 8.79C14.6 8.79 14.6 8.78 14.59 8.77C14.51 8.65 14.46 8.59 14.52 8.53C14.57 8.48 14.64 8.53 14.71 8.59C14.83 8.68 14.97 8.71 15.3 8.7C15.3 8.7 15.24 8.63 15.22 8.6C15.19 8.6 15.17 8.59 15.15 8.57C15.15 8.57 15.1 8.5 15.11 8.46C15.14 8.39 15.22 8.39 15.41 8.38C15.68 8.38 15.84 8.33 16.03 8.21C16.13 8.15 16.23 8.1 16.27 8.17C16.32 8.24 16.22 8.31 16.16 8.35C16.01 8.45 15.78 8.53 15.56 8.55C15.52 8.55 15.48 8.55 15.44 8.56C15.44 8.56 15.46 8.57 15.47 8.58C15.54 8.64 15.6 8.69 15.58 8.76L15.64 8.81H15.54C15.54 8.81 15.41 8.85 15.26 8.86C15.14 8.87 15.01 8.86 14.89 8.84C14.89 8.85 14.89 8.86 14.89 8.87C14.89 8.9 14.87 8.93 14.85 8.95C14.75 9.01 14.38 8.93 14.24 8.86C14.13 8.8 14.04 8.76 13.98 8.73C13.98 8.73 13.98 8.75 13.98 8.76C13.99 8.83 13.98 8.93 13.92 8.98C13.88 9.02 13.82 9.04 13.75 9.04L13.78 9.07ZM13.74 8.71C13.74 8.71 13.69 8.75 13.68 8.77C13.66 8.83 13.72 8.87 13.72 8.87C13.73 8.87 13.79 8.9 13.82 8.85C13.82 8.85 13.82 8.84 13.8 8.82C13.77 8.79 13.73 8.75 13.73 8.71H13.74Z" fill="black"/>
<path d="M12.75 16.75L12.87 16.68L12.92 16.75C12.99 16.84 13.17 16.84 13.29 16.75L13.38 16.68L13.46 16.75C13.56 16.84 13.76 16.84 13.88 16.75C13.97 16.69 13.98 16.69 14.04 16.73C14.07 16.76 14.17 16.79 14.26 16.8C14.42 16.82 14.42 16.82 14.51 16.68C14.59 16.57 14.6 16.52 14.58 16.41C14.57 16.32 14.56 16.24 14.55 16.15C14.55 16.02 14.55 16.02 14.73 15.96C14.84 15.92 14.96 15.88 15 15.85C15.08 15.81 15.29 15.57 15.29 15.52C15.29 15.51 15.21 15.49 15.11 15.48C14.71 15.44 14.64 15.23 14.9 14.84C15.32 14.21 15.58 13.59 15.58 13.2C15.58 13.02 15.59 12.97 15.61 13C15.7 13.16 15.54 13.81 15.28 14.28L15.18 14.47L15.28 14.45C15.33 14.44 15.65 14.31 15.99 14.16C16.91 13.75 17.22 13.68 17.82 13.7C18.32 13.72 18.53 13.82 18.88 14.17C19.07 14.36 19.25 14.5 19.57 14.7C20.27 15.13 20.3 15.16 20.33 15.66C20.36 16.17 20.35 16.2 19.95 16.28C19.61 16.35 19.4 16.51 19.35 16.72C19.32 16.83 19.38 16.84 19.55 16.73L19.67 16.65L19.73 16.73C19.8 16.83 19.96 16.83 20.09 16.73L20.19 16.65L20.29 16.73C20.44 16.85 20.65 16.82 20.71 16.67C20.72 16.64 20.75 16.65 20.81 16.7C20.92 16.8 21.21 16.84 21.24 16.76C21.25 16.73 21.23 16.66 21.19 16.6C21.02 16.35 20.97 16.24 20.97 16.1C20.97 15.91 21.02 15.82 21.24 15.67C21.5 15.49 21.58 15.25 21.38 15.25C21.26 15.25 21.13 15.14 21.05 14.97C20.89 14.62 20.92 14.22 21.16 13.56C21.41 12.89 21.43 12.77 21.43 12.32C21.43 11.96 21.43 11.9 21.34 11.7C21.29 11.58 21.18 11.4 21.11 11.3L20.97 11.12L21.15 10.98C21.69 10.54 21.58 9.82 20.93 9.54C20.73 9.46 20.68 9.45 20.33 9.45C20.12 9.45 19.8 9.48 19.62 9.51C19.43 9.54 19.12 9.57 18.91 9.57C18.57 9.57 18.51 9.57 18.38 9.49C18.24 9.42 18.22 9.38 18.19 9.22C18.19 9.19 18.16 9.15 18.14 9.14C18.09 9.13 17.88 9.31 17.85 9.39C17.83 9.43 17.82 9.43 17.78 9.37C17.75 9.33 17.71 9.25 17.68 9.19C17.63 9.03 17.69 8.91 17.89 8.82L18.04 8.75L17.95 8.7C17.77 8.59 17.46 8.66 17.34 8.85C17.31 8.9 17.27 8.94 17.26 8.94C17.25 8.94 17.19 8.89 17.13 8.83C16.89 8.6 16.97 8.27 17.29 8.17C17.46 8.12 17.61 8.16 17.64 8.27C17.69 8.44 17.83 8.22 17.81 8.02C17.79 7.89 17.8 7.88 17.89 7.88C18.02 7.88 18.3 8.05 18.38 8.18C18.48 8.33 18.47 8.57 18.36 8.75L18.27 8.89L18.38 8.87C18.55 8.84 18.71 8.74 18.79 8.62C18.88 8.49 18.89 8.24 18.81 8.11C18.74 7.98 18.74 7.96 18.85 8C19.04 8.08 19.13 8.16 19.21 8.3C19.28 8.43 19.28 8.46 19.24 8.59C19.22 8.67 19.17 8.78 19.13 8.83C19.07 8.91 19.07 8.92 19.12 8.92C19.21 8.92 19.39 8.84 19.46 8.77C19.49 8.74 19.54 8.65 19.57 8.58L19.62 8.45L19.67 8.55C19.75 8.69 19.9 8.81 20.08 8.88C20.28 8.96 20.36 8.97 20.26 8.88C20.19 8.83 20.06 8.46 20.1 8.43C20.12 8.41 20.39 8.61 20.69 8.87C20.98 9.12 21.16 9.2 21.42 9.2C21.76 9.2 21.95 8.91 21.8 8.64C21.71 8.48 21.51 8.46 21.4 8.6C21.35 8.66 21.33 8.71 21.35 8.78C21.37 8.86 21.36 8.87 21.29 8.87C21.19 8.87 21 8.75 20.66 8.47C20.14 8.04 19.5 7.68 19.04 7.55C18.75 7.47 18.12 7.43 17.82 7.49C17.5 7.55 17.11 7.73 16.9 7.92C16.53 8.26 16.52 8.72 16.88 9.14L16.98 9.26L16.91 9.37C16.81 9.52 16.82 9.73 16.93 9.88C16.98 9.95 17.03 10 17.04 10C17.05 10 17.06 9.96 17.07 9.9C17.08 9.77 17.14 9.68 17.24 9.64C17.33 9.61 17.39 9.62 17.81 9.79C18.25 9.96 18.97 9.97 19.73 9.82C20.11 9.75 20.55 9.75 20.74 9.82C21.1 9.97 21.18 10.35 20.92 10.63C20.81 10.75 20.7 10.81 20.33 10.9C20.05 10.97 19.98 10.98 19.35 10.97C18.81 10.97 18.61 10.97 18.39 11.02C18.15 11.07 18 11.07 17.29 11.06L16.47 11.04L16.56 11.11C16.56 11.11 16.68 11.2 16.72 11.22C16.78 11.25 16.78 11.26 16.69 11.29C16.64 11.31 16.52 11.33 16.42 11.33H16.25L16.23 11.47C16.22 11.55 16.22 11.64 16.23 11.67C16.25 11.72 16.24 11.73 16.19 11.71C16.15 11.7 16.06 11.67 15.97 11.66C15.88 11.65 15.77 11.61 15.72 11.58C15.63 11.54 15.62 11.54 15.58 11.6C15.55 11.65 15.27 11.86 15.22 11.86C15.22 11.86 15.2 11.82 15.2 11.77C15.2 11.72 15.16 11.59 15.11 11.49C15.06 11.39 15.02 11.27 15 11.23C14.98 11.18 14.97 11.17 14.95 11.21C14.93 11.24 14.91 11.31 14.9 11.37C14.89 11.43 14.85 11.53 14.8 11.59L14.73 11.7L14.68 11.61C14.63 11.51 14.55 11.4 14.52 11.4C14.51 11.4 14.49 11.43 14.48 11.47C14.46 11.55 14.26 11.78 14.21 11.78C14.19 11.78 14.18 11.71 14.18 11.64C14.18 11.57 14.16 11.5 14.15 11.5C14.14 11.5 14.12 11.52 14.12 11.55C14.12 11.61 13.95 11.79 13.89 11.79C13.87 11.79 13.83 11.81 13.8 11.84C13.74 11.91 13.69 11.9 13.71 11.82C13.72 11.78 13.71 11.7 13.69 11.64L13.64 11.48C13.64 11.48 13.57 11.46 13.44 11.5C13.23 11.56 13.16 11.55 13.27 11.47C13.31 11.44 13.37 11.34 13.4 11.24C13.43 11.14 13.48 11.06 13.51 11.05C13.55 11.04 13.55 11.05 13.51 11.11C13.48 11.15 13.45 11.21 13.45 11.23C13.45 11.25 13.43 11.32 13.4 11.37C13.37 11.42 13.35 11.47 13.36 11.47C13.37 11.47 13.45 11.45 13.53 11.41L13.69 11.33V11.4C13.69 11.4 13.71 11.54 13.73 11.62L13.77 11.77L13.88 11.72C13.99 11.67 14.1 11.49 14.1 11.35C14.1 11.28 14.14 11.29 14.16 11.36C14.16 11.38 14.19 11.46 14.22 11.54L14.27 11.68L14.35 11.59C14.35 11.59 14.44 11.45 14.47 11.38C14.51 11.26 14.57 11.21 14.57 11.3C14.57 11.36 14.74 11.58 14.78 11.57C14.8 11.57 14.83 11.48 14.85 11.38C14.9 11.19 14.98 11.06 15.03 11.08C15.05 11.09 15.06 11.11 15.05 11.13C15.04 11.15 15.08 11.27 15.14 11.41L15.27 11.72C15.29 11.77 15.31 11.76 15.44 11.66C15.52 11.59 15.59 11.52 15.6 11.49C15.61 11.45 15.63 11.45 15.7 11.49C15.8 11.55 16.15 11.65 16.17 11.63C16.17 11.63 16.19 11.53 16.19 11.43V11.25L16.29 11.27C16.34 11.28 16.46 11.28 16.54 11.27L16.7 11.25L16.56 11.16C16.48 11.11 16.41 11.04 16.39 11.01C16.37 10.98 16.3 10.95 16.23 10.95C16.02 10.93 15.66 10.73 15.66 10.64C15.66 10.62 15.71 10.65 15.77 10.71C15.91 10.83 16.1 10.91 16.27 10.91H16.4L16.32 10.81C16.28 10.75 16.24 10.64 16.23 10.55C16.22 10.41 16.2 10.38 16.05 10.28C15.96 10.22 15.84 10.12 15.8 10.07L15.71 9.98L15.67 10.09C15.65 10.15 15.62 10.2 15.6 10.2C15.58 10.2 15.54 10.16 15.5 10.12C15.46 10.08 15.41 10.04 15.4 10.04C15.39 10.04 15.35 10.1 15.31 10.17L15.24 10.3L15.19 10.22C15.19 10.22 15.09 10.1 15.04 10.06C14.99 10.02 14.96 9.97 14.98 9.97C15 9.97 15.07 10.02 15.13 10.08L15.24 10.19L15.29 10.11C15.29 10.11 15.33 9.99 15.32 9.93C15.3 9.84 15.3 9.84 15.34 9.89C15.36 9.93 15.43 9.99 15.49 10.04L15.6 10.13L15.68 10C15.75 9.87 15.76 9.87 15.79 9.95C15.84 10.06 16.17 10.32 16.45 10.48C16.49 10.5 16.48 10.42 16.4 10.23C16.38 10.18 16.36 10.09 16.36 10.03C16.36 9.94 16.33 9.9 16.22 9.82C16.05 9.7 16 9.61 15.97 9.4C15.96 9.32 15.93 9.23 15.9 9.2C15.87 9.16 15.86 9.18 15.87 9.33C15.87 9.43 15.87 9.56 15.84 9.61L15.8 9.71L15.77 9.63C15.77 9.63 15.67 9.51 15.6 9.46C15.53 9.41 15.47 9.36 15.48 9.35C15.49 9.34 15.57 9.39 15.66 9.45C15.79 9.55 15.82 9.56 15.84 9.52C15.86 9.47 15.84 9.24 15.8 9.09C15.78 9.01 15.78 9.01 15.88 9.11C15.95 9.18 15.99 9.27 16.03 9.42C16.07 9.61 16.09 9.64 16.27 9.79C16.38 9.88 16.47 9.95 16.48 9.95C16.49 9.95 16.5 9.71 16.51 9.42C16.53 8.87 16.51 8.74 16.37 8.57L16.3 8.48L16.41 8.37C16.55 8.22 16.62 8.1 16.65 7.94L16.67 7.81L16.55 7.92C16.45 8.01 16.4 8.03 16.28 8.03C16.16 8.03 16.12 8.01 16.04 7.93C15.95 7.83 15.78 7.74 15.62 7.69C15.56 7.67 15.54 7.69 15.54 7.72C15.54 7.75 15.51 7.83 15.47 7.9L15.4 8.03L15.25 7.88C15.16 7.79 15.05 7.72 14.97 7.7C14.76 7.65 14.75 7.65 14.75 7.8C14.75 8.03 14.65 8.07 14.47 7.92C14.33 7.8 14.22 7.78 13.95 7.81L13.75 7.83L13.79 7.92C13.82 7.99 13.81 8.03 13.75 8.11C13.64 8.25 13.51 8.31 13.29 8.31C13.19 8.31 13.07 8.33 13.02 8.35C12.97 8.37 12.84 8.4 12.73 8.41C12.62 8.42 12.51 8.44 12.48 8.45C12.43 8.47 12.42 8.45 12.44 8.34C12.46 8.17 12.34 8.05 12.15 8.05C11.9 8.05 11.79 8.26 11.89 8.55C11.91 8.61 11.93 8.68 11.94 8.74C11.95 8.79 12.06 8.93 12.2 9.06C12.33 9.19 12.45 9.32 12.47 9.35C12.49 9.38 12.56 9.44 12.62 9.47L12.73 9.53V9.41C12.7 9.28 12.73 9.26 12.8 9.35C12.83 9.38 12.89 9.43 12.94 9.47C13.02 9.52 13.04 9.52 13.04 9.47C13.04 9.44 13.06 9.38 13.08 9.33L13.12 9.24L13.19 9.36C13.23 9.43 13.34 9.58 13.45 9.7C13.66 9.93 13.78 10.19 13.72 10.25C13.69 10.27 13.62 10.27 13.47 10.25C13.36 10.23 13.21 10.22 13.15 10.22C13.03 10.24 13.02 10.22 13.09 10.13C13.17 10.03 13.16 10.02 13 10.02C12.82 10.02 12.38 9.94 12.22 9.87C12.06 9.81 12.02 9.82 11.97 9.97L11.88 10.24L11.83 10.39L12.01 10.37C12.11 10.37 12.23 10.34 12.29 10.32C12.35 10.3 12.4 10.3 12.4 10.3C12.4 10.3 12.38 10.36 12.34 10.43L12.27 10.55L12.38 10.53C12.44 10.52 12.53 10.49 12.58 10.46C12.67 10.42 12.68 10.42 12.75 10.53C12.84 10.66 12.9 10.66 12.92 10.52C12.94 10.37 12.99 10.39 13.08 10.59C13.17 10.78 13.26 10.84 13.28 10.73C13.28 10.69 13.33 10.63 13.39 10.6C13.5 10.53 13.58 10.55 13.63 10.66C13.68 10.78 13.57 10.9 13.26 11.09C12.63 11.46 12.27 11.97 12.16 12.61C12.07 13.19 12.36 13.8 12.95 14.23C13.23 14.44 13.68 14.66 13.65 14.57C13.53 14.22 13.53 13.54 13.65 13.43C13.67 13.41 13.66 13.48 13.64 13.59C13.54 13.97 13.58 14.28 13.84 15C14.07 15.65 14.04 15.93 13.71 16.11C13.61 16.17 13.54 16.18 13.26 16.18C12.96 16.18 12.93 16.18 12.83 16.26C12.74 16.33 12.61 16.57 12.61 16.68C12.61 16.74 12.68 16.73 12.81 16.66L12.75 16.75ZM17.64 16.73L17.77 16.65L17.86 16.73C17.97 16.83 18.1 16.83 18.21 16.73C18.26 16.68 18.3 16.65 18.3 16.66C18.32 16.69 18.33 16.71 18.35 16.74C18.38 16.78 18.43 16.81 18.53 16.81C18.65 16.81 18.68 16.81 18.73 16.74L18.79 16.66L18.91 16.74C19.25 16.95 19.43 16.73 19.28 16.28C19.2 16.05 19.25 15.93 19.49 15.64C19.6 15.52 19.68 15.39 19.68 15.35C19.68 15.29 19.66 15.28 19.52 15.29C19.39 15.29 19.35 15.28 19.28 15.2C19.17 15.08 19.17 14.94 19.3 14.78L19.4 14.65L19.22 14.53C19.12 14.46 18.94 14.31 18.82 14.18C18.55 13.9 18.28 13.77 17.93 13.74L17.7 13.72V13.89C17.7 14.11 17.81 14.33 18.1 14.69C18.43 15.1 18.46 15.17 18.47 15.71V16.17L18.38 16.26C18.29 16.34 18.25 16.35 17.97 16.37C17.7 16.39 17.65 16.4 17.57 16.47C17.47 16.56 17.43 16.61 17.4 16.73C17.38 16.8 17.39 16.82 17.44 16.82C17.48 16.82 17.56 16.78 17.63 16.74L17.64 16.73ZM10.53 15.41C10.53 15.35 10.56 15.34 10.69 15.32L10.85 15.3L10.75 15.22C10.63 15.12 10.61 15.05 10.72 15.05C10.83 15.05 11.01 14.94 11.04 14.86C11.05 14.82 11.04 14.77 11.02 14.75C10.96 14.68 10.84 14.69 10.82 14.77C10.8 14.85 10.76 14.85 10.67 14.77C10.54 14.65 10.54 14.4 10.67 14.25C10.73 14.18 10.73 14.18 10.65 14.11C10.57 14.03 10.51 13.88 10.55 13.85C10.56 13.84 10.63 13.85 10.7 13.87C10.8 13.9 10.83 13.9 10.87 13.87C10.99 13.78 10.87 13.66 10.67 13.69C10.59 13.7 10.56 13.69 10.55 13.65C10.55 13.62 10.47 13.58 10.4 13.56C10.26 13.53 10.26 13.53 10.26 13.62C10.26 13.72 10.2 13.74 10.09 13.67C10 13.62 9.91 13.66 9.91 13.75C9.91 13.84 10 13.88 10.16 13.87C10.28 13.87 10.29 13.95 10.17 14.08L10.09 14.17L10.16 14.26C10.26 14.4 10.25 14.63 10.14 14.75L10.05 14.84L9.99 14.77C9.91 14.67 9.81 14.68 9.78 14.78C9.76 14.85 9.78 14.88 9.87 14.96C9.93 15.01 10.02 15.05 10.07 15.05C10.19 15.05 10.18 15.14 10.07 15.23L9.97 15.3L10.12 15.32C10.2 15.33 10.27 15.36 10.27 15.37C10.27 15.43 10.31 15.62 10.41 15.62C10.5 15.62 10.55 15.5 10.55 15.41H10.53ZM12.4 14.74C12.53 14.69 12.83 14.45 12.83 14.39C12.83 14.37 12.75 14.29 12.65 14.2C12.44 14.02 12.22 13.71 12.16 13.53C12.13 13.44 11.98 13.28 11.57 12.89L11.02 12.37L10.86 12.41C10.77 12.43 10.67 12.45 10.62 12.45C10.55 12.45 10.55 12.45 10.65 12.53L10.75 12.61L10.9 12.53C11.04 12.45 11.05 12.45 11.06 12.51C11.07 12.55 11.05 12.61 11.01 12.65C10.97 12.69 10.95 12.74 10.96 12.76C10.97 12.78 10.94 12.81 10.88 12.84C10.78 12.89 10.71 13.05 10.79 13.05C10.86 13.05 11.02 12.86 11.01 12.79C11.01 12.76 11.01 12.72 11.02 12.71C11.08 12.67 11.08 12.83 11.02 12.9C10.98 12.94 10.96 12.99 10.97 13.01C10.98 13.03 10.95 13.06 10.89 13.09C10.79 13.14 10.72 13.3 10.8 13.3C10.88 13.3 11.04 13.11 11.02 13.04C11.01 13 11.02 12.97 11.02 12.96C11.06 12.94 11.09 13.06 11.05 13.12C11.03 13.15 11.03 13.19 11.05 13.23C11.09 13.29 11.05 13.41 10.98 13.45C10.95 13.47 10.98 13.5 11.04 13.55C11.14 13.62 11.14 13.63 11.14 13.95C11.14 14.22 11.15 14.28 11.2 14.33C11.26 14.38 11.26 14.38 11.26 14.33C11.26 14.28 11.36 14.21 11.44 14.21C11.46 14.21 11.61 14.33 11.77 14.48C11.93 14.63 12.09 14.76 12.14 14.77L12.25 14.79C12.25 14.79 12.34 14.77 12.41 14.74H12.4ZM10.72 13.45C10.72 13.36 10.54 13.27 10.32 13.25C10.15 13.23 10.14 13.23 10.14 13.32C10.14 13.39 10.17 13.42 10.29 13.47C10.48 13.55 10.72 13.54 10.72 13.45ZM10.92 13.45C11.01 13.37 11.05 13.28 11 13.28C10.94 13.28 10.78 13.42 10.78 13.48C10.78 13.56 10.81 13.56 10.93 13.46L10.92 13.45ZM10.73 13.19C10.73 13.19 10.71 13.11 10.62 13.07C10.42 12.98 10.19 12.94 10.13 12.99C10.03 13.07 10.1 13.18 10.26 13.2C10.33 13.2 10.42 13.23 10.47 13.25C10.6 13.3 10.72 13.28 10.74 13.2L10.73 13.19ZM10.73 12.93C10.74 12.86 10.7 12.84 10.33 12.71C10.06 12.62 9.93 12.66 10.02 12.82C10.05 12.88 10.1 12.9 10.22 12.92C10.31 12.93 10.42 12.96 10.48 12.97C10.63 13.02 10.72 13 10.73 12.92V12.93ZM10.92 12.69C10.98 12.64 11.02 12.57 11.02 12.55C11.02 12.47 10.8 12.61 10.77 12.71C10.74 12.83 10.79 12.82 10.92 12.7V12.69ZM10.73 12.68C10.74 12.6 10.61 12.53 10.35 12.48C10.16 12.44 10.07 12.46 10.09 12.55C10.09 12.6 10.16 12.63 10.34 12.69C10.63 12.78 10.72 12.78 10.73 12.69V12.68ZM10.99 12.31C11.33 12.16 11.36 11.8 11.04 11.7C10.91 11.66 10.82 11.68 10.77 11.77C10.73 11.84 10.76 11.96 10.81 11.96C10.83 11.96 10.84 11.98 10.84 12.01C10.84 12.14 10.33 12.2 10.12 12.09C10.05 12.05 10.01 11.96 10.08 11.96C10.13 11.96 10.16 11.86 10.13 11.79C10.1 11.7 10 11.66 9.86 11.7C9.54 11.78 9.55 12.14 9.87 12.3C10.13 12.43 10.71 12.43 10.98 12.31H10.99ZM10.78 12.03C10.78 12.03 10.79 11.98 10.76 11.96C10.69 11.91 10.69 11.82 10.77 11.73C10.83 11.66 10.84 11.55 10.86 10.5C10.89 8.67 11.03 7.3 11.22 6.97C11.29 6.84 11.28 6.84 11.09 6.97C10.85 7.13 10.66 7.34 10.5 7.64C10.19 8.21 10.08 8.97 10.08 10.6C10.08 11.53 10.08 11.65 10.14 11.73C10.19 11.81 10.19 11.84 10.16 11.93C10.14 11.99 10.13 12.04 10.14 12.05C10.21 12.11 10.71 12.1 10.79 12.03H10.78ZM13.61 10.29C13.61 10.29 13.6 10.19 13.56 10.11C13.5 9.98 13.47 9.96 13.39 9.96C13.12 9.96 12.68 9.84 12.23 9.65C11.97 9.54 11.88 9.51 11.85 9.54C11.77 9.61 11.9 9.79 12.11 9.88C12.29 9.96 12.8 10.06 13.03 10.06C13.16 10.06 13.17 10.06 13.09 10.17L13.03 10.25H13.18C13.26 10.25 13.38 10.27 13.44 10.28C13.59 10.32 13.59 10.32 13.61 10.28V10.29Z" fill="#FFBE29"/>
<path d="M15.19 11.11C15.19 11.11 15.05 10.93 14.9 10.85C14.79 10.79 14.77 10.78 14.77 10.84C14.77 10.92 14.7 11.12 14.67 11.12C14.65 11.12 14.63 11.08 14.62 11.03C14.61 10.98 14.55 10.89 14.5 10.82L14.4 10.7L14.32 10.81C14.25 10.92 14.13 11.02 14.07 11.02C14.06 11.02 14.05 10.96 14.07 10.9C14.08 10.83 14.07 10.77 14.05 10.75C14.03 10.74 14.01 10.75 14.01 10.75C14.01 10.79 13.84 10.98 13.8 10.98C13.79 10.98 13.76 10.93 13.75 10.86L13.71 10.63C13.7 10.57 13.72 10.61 13.76 10.72L13.83 10.93L13.91 10.8C13.96 10.73 13.99 10.66 13.99 10.63C13.99 10.6 14.01 10.6 14.02 10.61C14.03 10.62 14.06 10.7 14.08 10.79L14.1 10.96L14.19 10.86C14.24 10.81 14.3 10.74 14.32 10.7C14.36 10.64 14.36 10.64 14.44 10.7C14.48 10.74 14.55 10.82 14.59 10.89C14.63 10.96 14.66 11.01 14.67 11C14.68 10.99 14.69 10.92 14.7 10.84L14.72 10.69C14.72 10.69 14.99 10.84 15.09 10.93C15.15 10.99 15.21 11.02 15.22 11.01C15.23 11 15.24 10.92 15.24 10.83C15.24 10.69 15.22 10.65 15.14 10.58C15.04 10.49 15.04 10.49 15 10.56C14.95 10.64 14.89 10.64 14.89 10.56C14.89 10.5 14.7 10.27 14.65 10.27C14.64 10.27 14.6 10.32 14.56 10.38C14.52 10.44 14.49 10.49 14.47 10.49C14.42 10.49 14.15 10.2 14.15 10.15C14.15 10.11 14.17 10.12 14.21 10.19C14.25 10.24 14.32 10.32 14.37 10.37C14.47 10.46 14.51 10.44 14.55 10.27C14.56 10.22 14.58 10.18 14.59 10.18C14.63 10.18 14.87 10.42 14.9 10.5L14.93 10.58L14.95 10.49C14.98 10.38 15.01 10.38 15.06 10.48C15.08 10.52 15.18 10.61 15.28 10.67L15.47 10.79L15.51 10.67C15.53 10.61 15.56 10.57 15.57 10.59C15.59 10.62 15.54 10.81 15.5 10.85C15.5 10.85 15.43 10.82 15.37 10.77L15.25 10.68V10.84C15.25 10.93 15.24 11.03 15.23 11.07C15.21 11.15 15.15 11.17 15.15 11.1L15.19 11.11ZM14.27 9.85999C14.05 9.67999 14.02 9.63999 14.02 9.54999V9.45999L14.04 9.54999C14.04 9.59999 14.11 9.67999 14.18 9.72999L14.31 9.82999L14.39 9.73999C14.39 9.73999 14.47 9.62999 14.47 9.60999C14.47 9.54999 14.48 9.55999 14.63 9.67999C14.76 9.78999 14.77 9.78999 14.78 9.71999C14.79 9.67999 14.78 9.59999 14.78 9.54999C14.74 9.39999 14.75 9.37999 14.81 9.46999C14.84 9.50999 14.9 9.57999 14.93 9.60999C14.99 9.66999 14.99 9.65999 15.01 9.58999C15.02 9.54999 15.03 9.46999 15.03 9.41999V9.32999L15.15 9.45999C15.26 9.57999 15.27 9.58999 15.31 9.52999C15.33 9.49999 15.35 9.40999 15.35 9.33999C15.35 9.24999 15.35 9.22999 15.38 9.25999C15.42 9.31999 15.39 9.46999 15.32 9.59999L15.27 9.68999L15.2 9.58999C15.12 9.45999 15.09 9.45999 15.03 9.59999C14.98 9.72999 14.95 9.73999 14.9 9.63999C14.87 9.56999 14.86 9.57999 14.84 9.71999L14.81 9.86999L14.66 9.74999L14.51 9.62999L14.44 9.70999C14.44 9.70999 14.37 9.79999 14.37 9.82999C14.37 9.87999 14.33 9.87999 14.28 9.82999L14.27 9.85999ZM16.23 9.18999C16.15 9.11999 16.09 9.04999 16.11 9.03999C16.13 9.02999 16.14 9.01999 16.14 9.03999C16.14 9.05999 16.21 9.11999 16.29 9.18999C16.46 9.35999 16.43 9.36999 16.24 9.18999H16.23ZM13.61 8.92999C13.54 8.82999 13.54 8.76999 13.63 8.65999C13.69 8.57999 13.72 8.56999 13.84 8.58999C13.91 8.58999 14.07 8.65999 14.19 8.72999C14.33 8.80999 14.47 8.85999 14.58 8.86999C14.67 8.87999 14.75 8.88999 14.75 8.86999C14.75 8.84999 14.71 8.79999 14.66 8.72999C14.55 8.55999 14.55 8.54999 14.68 8.64999C14.81 8.74999 14.97 8.77999 15.32 8.76999H15.49L15.39 8.66999C15.25 8.53999 15.29 8.51999 15.45 8.64999C15.59 8.76999 15.59 8.77999 15.28 8.80999C15.15 8.81999 15.01 8.80999 14.9 8.77999C14.73 8.73999 14.72 8.73999 14.75 8.78999C14.77 8.81999 14.8 8.84999 14.82 8.84999C14.84 8.84999 14.85 8.86999 14.85 8.88999C14.85 8.94999 14.48 8.88999 14.3 8.80999C13.89 8.60999 13.84 8.58999 13.74 8.61999C13.69 8.63999 13.63 8.68999 13.61 8.72999C13.55 8.88999 13.78 9.01999 13.88 8.86999C13.91 8.82999 13.9 8.79999 13.85 8.74999C13.78 8.67999 13.79 8.66999 13.88 8.69999C13.95 8.71999 13.95 8.87999 13.89 8.92999C13.82 8.98999 13.66 8.97999 13.6 8.89999L13.61 8.92999ZM15.22 8.51999C15.17 8.46999 15.21 8.45999 15.44 8.45999C15.72 8.45999 15.89 8.40999 16.1 8.27999C16.26 8.17999 16.31 8.19999 16.15 8.29999C16.01 8.38999 15.79 8.46999 15.58 8.48999C15.48 8.49999 15.36 8.51999 15.32 8.51999C15.28 8.51999 15.24 8.51999 15.22 8.51999Z" fill="black"/>
<path d="M10.05 19.48C10.05 19.48 9.91998 19.76 9.76998 19.87C9.54998 20.04 9.10998 20.02 8.91998 20.22C8.68998 20.45 8.93998 20.75 8.93998 20.78V20.94C8.93998 20.94 9.07998 20.94 9.13998 20.95C9.23998 20.97 9.26998 21.05 9.44998 21.03C9.89998 21 9.87998 20.58 9.90998 20.23C9.92998 20.09 9.98998 19.92 10.01 19.78C10.04 19.66 10.04 19.48 10.04 19.48H10.05Z" fill="#FFBE29"/>
<path d="M9.41002 21.05C9.31002 21.05 9.26002 21.02 9.21002 21C9.18002 20.98 9.16002 20.97 9.12002 20.97C9.06002 20.97 8.91002 20.96 8.91002 20.96H8.89002L8.90002 20.78C8.90002 20.78 8.90002 20.76 8.88002 20.75C8.83002 20.66 8.69002 20.4 8.88002 20.2C8.98002 20.09 9.16002 20.05 9.34002 20C9.49002 19.96 9.64002 19.92 9.73001 19.85C9.87002 19.74 10 19.47 10 19.47H10.04C10.04 19.47 10.04 19.67 10.01 19.79C10 19.84 9.98002 19.9 9.97002 19.96C9.95002 20.06 9.92002 20.15 9.91002 20.24C9.91002 20.27 9.91002 20.3 9.91002 20.33C9.89002 20.66 9.87002 21.03 9.44002 21.06C9.43002 21.06 9.41002 21.06 9.40002 21.06L9.41002 21.05ZM8.94002 20.91C8.94002 20.91 9.09002 20.91 9.14002 20.92C9.18002 20.92 9.21002 20.94 9.24002 20.96C9.29002 20.99 9.34002 21.01 9.45002 21.01C9.84002 20.98 9.86002 20.65 9.88002 20.32C9.88002 20.29 9.88002 20.26 9.88002 20.22C9.89002 20.13 9.92001 20.03 9.94001 19.94C9.96001 19.88 9.97001 19.82 9.98001 19.77C9.99001 19.71 10 19.63 10.01 19.57C9.96002 19.66 9.87002 19.81 9.77002 19.88C9.67002 19.96 9.51002 20 9.36002 20.04C9.19002 20.08 9.02002 20.13 8.92002 20.23C8.75002 20.41 8.87002 20.63 8.92002 20.73C8.94002 20.76 8.94002 20.77 8.94002 20.78V20.92V20.91Z" fill="black"/>
<path d="M21.32 19.47C21.32 19.47 21.45 19.75 21.6 19.86C21.82 20.03 22.26 20.01 22.45 20.21C22.68 20.44 22.43 20.74 22.43 20.77V20.93C22.43 20.93 22.29 20.93 22.23 20.94C22.13 20.96 22.1 21.04 21.92 21.02C21.47 20.99 21.49 20.57 21.46 20.22C21.44 20.08 21.38 19.91 21.36 19.77C21.33 19.65 21.33 19.47 21.33 19.47H21.32Z" fill="#FFBE29"/>
<path d="M21.95 21.05C21.95 21.05 21.93 21.05 21.91 21.05C21.48 21.02 21.46 20.65 21.44 20.32C21.44 20.29 21.44 20.26 21.44 20.23C21.43 20.15 21.4 20.05 21.38 19.96C21.36 19.9 21.35 19.84 21.34 19.79C21.31 19.67 21.31 19.49 21.31 19.49H21.35C21.35 19.49 21.48 19.75 21.62 19.86C21.72 19.93 21.87 19.97 22.01 20.01C22.18 20.05 22.36 20.1 22.47 20.21C22.67 20.41 22.53 20.66 22.47 20.75C22.47 20.76 22.46 20.77 22.45 20.78V20.96C22.45 20.96 22.3 20.96 22.24 20.97C22.21 20.97 22.18 20.99 22.15 21C22.1 21.02 22.05 21.05 21.95 21.05ZM21.34 19.57C21.34 19.63 21.35 19.71 21.37 19.77C21.38 19.82 21.4 19.88 21.41 19.94C21.43 20.04 21.46 20.13 21.47 20.22C21.47 20.25 21.47 20.29 21.47 20.32C21.49 20.65 21.51 20.98 21.9 21.01C22.01 21.01 22.06 20.99 22.11 20.96C22.14 20.94 22.17 20.93 22.21 20.92C22.26 20.92 22.36 20.91 22.41 20.91V20.77C22.41 20.77 22.41 20.75 22.42 20.72C22.47 20.62 22.6 20.4 22.42 20.22C22.32 20.12 22.15 20.08 21.98 20.03C21.83 19.99 21.68 19.95 21.57 19.87C21.47 19.79 21.38 19.65 21.33 19.56L21.34 19.57Z" fill="black"/>
<path d="M21.32 4.37C21.32 4.37 21.45 4.09 21.6 3.98C21.82 3.81 22.26 3.83 22.45 3.63C22.68 3.4 22.43 3.1 22.43 3.07V2.91C22.43 2.91 22.29 2.91 22.23 2.9C22.13 2.88 22.1 2.8 21.92 2.82C21.47 2.85 21.49 3.27 21.46 3.62C21.44 3.76 21.38 3.93 21.36 4.07C21.33 4.19 21.33 4.37 21.33 4.37H21.32ZM10.05 4.37C10.05 4.37 9.91998 4.09 9.76998 3.98C9.54998 3.81 9.10998 3.83 8.91998 3.63C8.68998 3.4 8.93998 3.1 8.93998 3.07V2.91C8.93998 2.91 9.07998 2.91 9.13998 2.9C9.23998 2.88 9.26998 2.8 9.44998 2.82C9.89998 2.85 9.87998 3.27 9.90998 3.62C9.92998 3.76 9.98998 3.93 10.01 4.07C10.04 4.19 10.04 4.37 10.04 4.37H10.05Z" fill="#FFBE29"/>
<path d="M21.27 4.42L21.29 4.37C21.29 4.37 21.29 4.18 21.32 4.07C21.33 4.02 21.35 3.96 21.36 3.9C21.38 3.8 21.41 3.71 21.42 3.62C21.42 3.59 21.42 3.56 21.42 3.53C21.44 3.2 21.46 2.83 21.89 2.8C22.01 2.8 22.07 2.82 22.12 2.85C22.15 2.87 22.17 2.88 22.21 2.88C22.27 2.88 22.42 2.89 22.42 2.89H22.44L22.43 3.07C22.43 3.07 22.43 3.09 22.45 3.1C22.5 3.19 22.64 3.45 22.45 3.65C22.35 3.76 22.17 3.8 21.99 3.85C21.84 3.89 21.69 3.93 21.6 4C21.47 4.1 21.35 4.34 21.33 4.38L21.26 4.42H21.27ZM21.95 2.84C21.95 2.84 21.93 2.84 21.92 2.84C21.53 2.87 21.51 3.2 21.49 3.53C21.49 3.56 21.49 3.59 21.49 3.63C21.48 3.72 21.45 3.82 21.43 3.91C21.41 3.97 21.4 4.03 21.39 4.08C21.38 4.14 21.37 4.22 21.36 4.28C21.41 4.19 21.5 4.04 21.6 3.97C21.7 3.89 21.86 3.85 22.01 3.81C22.18 3.77 22.35 3.72 22.45 3.62C22.62 3.44 22.5 3.22 22.45 3.12C22.43 3.09 22.43 3.08 22.43 3.07V2.93C22.43 2.93 22.29 2.93 22.24 2.92C22.2 2.92 22.17 2.9 22.14 2.88C22.1 2.86 22.05 2.83 21.96 2.83L21.95 2.84ZM10.03 4.38C10.03 4.38 9.89999 4.11 9.75999 4C9.65999 3.92 9.50999 3.89 9.36999 3.85C9.19999 3.81 9.01999 3.76 8.90999 3.65C8.70999 3.45 8.84999 3.2 8.90999 3.1C8.90999 3.09 8.91999 3.08 8.92999 3.07V2.89C8.92999 2.89 9.07999 2.89 9.13999 2.88C9.16999 2.88 9.19999 2.86 9.22999 2.85C9.27999 2.82 9.33999 2.79 9.45999 2.8C9.88999 2.83 9.90999 3.2 9.92999 3.53C9.92999 3.56 9.92999 3.59 9.92999 3.62C9.93999 3.7 9.96999 3.8 9.98999 3.89C10.01 3.95 10.02 4.01 10.03 4.06C10.06 4.18 10.06 4.36 10.06 4.37H10.02L10.03 4.38ZM8.93999 2.94V3.08C8.93999 3.08 8.93999 3.1 8.92999 3.13C8.87999 3.23 8.74999 3.45 8.92999 3.63C9.02999 3.73 9.19999 3.77 9.36999 3.82C9.51999 3.86 9.67999 3.9 9.77999 3.98C9.87999 4.06 9.96999 4.2 10.02 4.29C10.02 4.23 10.01 4.15 9.98999 4.09C9.97999 4.04 9.95999 3.98 9.94999 3.92C9.92999 3.82 9.89999 3.72 9.88999 3.64C9.88999 3.61 9.88999 3.57 9.88999 3.54C9.86999 3.21 9.84999 2.88 9.45999 2.85C9.34999 2.85 9.29999 2.87 9.24999 2.9C9.21999 2.92 9.18999 2.93 9.14999 2.94C9.09999 2.94 8.99999 2.95 8.94999 2.95L8.93999 2.94Z" fill="black"/>
</g>
</g>
<defs>
<clipPath id="clip0_170_14368">
<rect width="24" height="24" fill="white"/>
</clipPath>
</defs>
</svg>
