<svg width="24" height="24" viewBox="0 0 24 24" fill="none" xmlns="http://www.w3.org/2000/svg">
<g clip-path="url(#clip0_170_14362)">
<mask id="mask0_170_14362" style="mask-type:luminance" maskUnits="userSpaceOnUse" x="0" y="0" width="24" height="24">
<path d="M12 24C18.6274 24 24 18.6274 24 12C24 5.37258 18.6274 0 12 0C5.37258 0 0 5.37258 0 12C0 18.6274 5.37258 24 12 24Z" fill="white"/>
</mask>
<g mask="url(#mask0_170_14362)">
<path d="M0 0H24V24H0V0Z" fill="black"/>
<path d="M0 0H24V16H0V0Z" fill="white"/>
<path d="M0 0H24V8H0V0Z" fill="#CE1126"/>
<path d="M6.20001 14.19L7.62001 9.82L9.04001 14.19L5.32001 11.49H9.92001M14.95 14.19L16.37 9.82L17.79 14.19L14.07 11.49H18.67" fill="#007A3D"/>
</g>
</g>
<defs>
<clipPath id="clip0_170_14362">
<rect width="24" height="24" fill="white"/>
</clipPath>
</defs>
</svg>
