<svg width="24" height="24" viewBox="0 0 24 24" fill="none" xmlns="http://www.w3.org/2000/svg">
<g clip-path="url(#clip0_170_14686)">
<mask id="mask0_170_14686" style="mask-type:luminance" maskUnits="userSpaceOnUse" x="0" y="0" width="24" height="24">
<path d="M12 24C18.6274 24 24 18.6274 24 12C24 5.37258 18.6274 0 12 0C5.37258 0 0 5.37258 0 12C0 18.6274 5.37258 24 12 24Z" fill="white"/>
</mask>
<g mask="url(#mask0_170_14686)">
<path d="M0 0H24V24H0V0Z" fill="#006600"/>
<path d="M0 0H24V17.14H0V0Z" fill="white"/>
<path d="M0 0H24V6.86H0V0Z" fill="#CC0000"/>
<path d="M11.18 11.72C11.28 11.54 11.51 11.49 11.68 11.59C11.79 11.65 11.86 11.77 11.86 11.9V13.37H12.14V11.9C12.14 11.7 12.32 11.54 12.52 11.54C12.65 11.54 12.76 11.61 12.83 11.72C12.98 11.27 12.73 10.78 12.28 10.62C11.83 10.47 11.34 10.72 11.18 11.17C11.12 11.35 11.12 11.54 11.18 11.72Z" fill="#F8C300"/>
<path d="M11.37 11.33C11.62 11.28 11.87 11.39 12 11.61C12.13 11.39 12.38 11.28 12.63 11.33C12.58 10.98 12.26 10.74 11.92 10.79C11.64 10.83 11.42 11.05 11.38 11.33" fill="white"/>
<path d="M11.86 12.77C11.8 13.38 11.26 13.84 10.65 13.78C10.4 13.76 10.17 13.65 9.99001 13.48C9.75001 14.08 9.08001 14.37 8.48001 14.13C8.39001 14.1 8.31001 14.05 8.23001 13.99C8.34001 15.06 9.94001 14.84 10.06 13.8C10.56 14.68 11.67 14.43 12 13.35L11.86 12.76V12.77Z" fill="#F8C300"/>
<path d="M12.14 12.77C12.2 13.38 12.74 13.84 13.35 13.78C13.6 13.76 13.83 13.65 14.01 13.48C14.25 14.08 14.92 14.37 15.52 14.13C15.61 14.1 15.69 14.05 15.77 13.99C15.66 15.06 14.06 14.84 13.94 13.8C13.44 14.68 12.33 14.43 12 13.35L12.14 12.76V12.77Z" fill="#F8C300"/>
<path d="M10.79 14.67C10.57 15.15 10.12 15.24 9.73001 14.85C9.73001 14.85 9.89001 14.74 10.06 14.71C10.03 14.58 10.09 14.39 10.18 14.29C10.28 14.36 10.41 14.49 10.44 14.64C10.68 14.61 10.79 14.68 10.79 14.68V14.67Z" fill="#F8C300"/>
<path d="M12.54 14.62C12.24 15.06 11.79 15.07 11.46 14.62C11.46 14.62 11.63 14.54 11.8 14.53C11.8 14.39 11.88 14.22 11.99 14.14C12.07 14.22 12.18 14.37 12.19 14.53C12.43 14.53 12.53 14.62 12.53 14.62H12.54Z" fill="#F8C300"/>
<path d="M14.28 14.85C13.91 15.24 13.46 15.17 13.22 14.68C13.22 14.68 13.4 14.63 13.57 14.65C13.58 14.51 13.7 14.36 13.82 14.29C13.89 14.38 13.97 14.55 13.96 14.7C14.19 14.75 14.28 14.85 14.28 14.85Z" fill="#F8C300"/>
<path d="M14.78 15.97C12.96 15.43 11.04 15.43 9.22 15.97L9.09 15.52C11 14.95 13.01 14.95 14.92 15.52L14.79 15.97H14.78Z" fill="#F8C300"/>
<path d="M11.3 8.53H12.7L11.57 9.35L12 8.02L12.43 9.35L11.3 8.53Z" fill="#F8C300"/>
<path d="M9.25 9.08001H10.65L9.52 9.90001L9.95 8.57001L10.38 9.90001L9.25 9.08001Z" fill="#F8C300"/>
<path d="M7.73999 10.59H9.13999L8.00999 11.41L8.43999 10.08L8.86999 11.41L7.73999 10.59Z" fill="#F8C300"/>
<path d="M7.19 12.64H8.59L7.46 13.46L7.89 12.13L8.32 13.46L7.19 12.64Z" fill="#F8C300"/>
<path d="M14.75 9.08001H13.35L14.48 9.90001L14.05 8.57001L13.62 9.90001L14.75 9.08001Z" fill="#F8C300"/>
<path d="M16.26 10.59H14.86L15.99 11.41L15.56 10.08L15.13 11.41L16.26 10.59Z" fill="#F8C300"/>
<path d="M16.81 12.64H15.41L16.54 13.46L16.11 12.13L15.68 13.46L16.81 12.64Z" fill="#F8C300"/>
</g>
</g>
<defs>
<clipPath id="clip0_170_14686">
<rect width="24" height="24" fill="white"/>
</clipPath>
</defs>
</svg>
