<svg width="24" height="24" viewBox="0 0 24 24" fill="none" xmlns="http://www.w3.org/2000/svg">
<g clip-path="url(#clip0_104_14657)">
<mask id="mask0_104_14657" style="mask-type:luminance" maskUnits="userSpaceOnUse" x="0" y="0" width="24" height="24">
<path d="M12 24C18.6274 24 24 18.6274 24 12C24 5.37258 18.6274 0 12 0C5.37258 0 0 5.37258 0 12C0 18.6274 5.37258 24 12 24Z" fill="white"/>
</mask>
<g mask="url(#mask0_104_14657)">
<path d="M30.93 -0.619995H-6.94V24.63H30.93V-0.619995Z" fill="#E70013"/>
<path d="M16.83 12C16.83 14.67 14.67 16.83 12 16.83C9.32998 16.83 7.16998 14.67 7.16998 12C7.16998 9.33001 9.32998 7.17001 12 7.17001C14.67 7.17001 16.83 9.33001 16.83 12Z" fill="white"/>
<path d="M11.01 13.47C10.29 12.58 10.34 11.31 11.13 10.5C11.54 10.08 12.04 9.85 12.62 9.83C13.35 9.8 13.95 10.08 14.44 10.62C13.91 9.64 12.7 8.98 11.39 9.28C10.05 9.59 9.13998 10.83 9.23998 12.21C9.33998 13.56 10.39 14.62 11.7 14.77C12.18 14.83 12.65 14.77 13.09 14.58C13.52 14.4 14.14 13.92 14.2 13.73C13.19 14.61 11.73 14.36 11 13.46L11.01 13.47Z" fill="#E70013"/>
<path d="M14.56 11.62C14.56 11.62 14.59 11.58 14.62 11.55C14.57 11.55 14.55 11.56 14.53 11.57C14.25 11.64 13.98 11.7 13.71 11.77C13.66 11.78 13.64 11.77 13.61 11.73C13.46 11.49 13.31 11.24 13.16 11C13.15 10.98 13.13 10.96 13.12 10.94C13.12 10.94 13.11 10.94 13.1 10.94C13.1 10.96 13.1 10.99 13.1 11.01C13.08 11.29 13.06 11.57 13.04 11.85C13.04 11.9 13.02 11.93 12.96 11.94C12.89 11.95 12.82 11.97 12.74 11.99C12.52 12.04 12.29 12.1 12.07 12.15C12.07 12.15 12.07 12.16 12.07 12.17C12.09 12.17 12.11 12.19 12.13 12.2C12.39 12.31 12.65 12.42 12.91 12.52C12.97 12.54 12.98 12.57 12.98 12.63C12.96 12.91 12.94 13.19 12.91 13.47C12.91 13.49 12.91 13.52 12.91 13.56C12.94 13.53 12.96 13.51 12.97 13.49C13.16 13.27 13.34 13.06 13.52 12.84C13.55 12.8 13.58 12.8 13.63 12.82C13.86 12.92 14.09 13.01 14.32 13.1C14.37 13.12 14.43 13.14 14.48 13.17C14.48 13.14 14.47 13.12 14.45 13.09C14.3 12.85 14.15 12.6 14 12.36C13.98 12.32 13.98 12.3 14 12.26C14.19 12.04 14.37 11.83 14.56 11.61V11.62Z" fill="#E70013"/>
</g>
</g>
<defs>
<clipPath id="clip0_104_14657">
<rect width="24" height="24" fill="white"/>
</clipPath>
</defs>
</svg>
