<svg width="24" height="24" viewBox="0 0 24 24" fill="none" xmlns="http://www.w3.org/2000/svg">
<g clip-path="url(#clip0_161_12667)">
<mask id="mask0_161_12667" style="mask-type:luminance" maskUnits="userSpaceOnUse" x="0" y="0" width="24" height="24">
<path d="M12 24C18.6274 24 24 18.6274 24 12C24 5.37258 18.6274 0 12 0C5.37258 0 0 5.37258 0 12C0 18.6274 5.37258 24 12 24Z" fill="white"/>
</mask>
<g mask="url(#mask0_161_12667)">
<path d="M30.03 -0.0200043H-6.03003V24.02H30.03V-0.0200043Z" fill="#00843D"/>
<path d="M11.8699 2.64C12.9399 3.1 13.6799 4.16 13.6799 5.39C13.6799 7.04 12.3399 8.38 10.6899 8.38C9.94994 8.38 9.26994 8.11 8.74994 7.67C9.06994 7.81 9.42994 7.89 9.79994 7.91C11.4499 7.98 12.8499 6.7 12.9199 5.05C12.9599 4.09 12.5499 3.22 11.8699 2.64Z" fill="white"/>
<path d="M9.01997 4.83999L9.35997 3.79999L8.46997 4.43999H9.56997L8.67997 3.79999L9.01997 4.83999Z" fill="white"/>
<path d="M9.01997 3.29999L9.35997 2.25999L8.46997 2.89999H9.56997L8.67997 2.25999L9.01997 3.29999Z" fill="white"/>
<path d="M10.5399 4.08999L10.8799 3.04999L9.98993 3.68999H11.0899L10.1999 3.04999L10.5399 4.08999Z" fill="white"/>
<path d="M7.49995 5.58999L7.83995 4.54999L6.94995 5.18999H8.04995L7.15995 4.54999L7.49995 5.58999Z" fill="white"/>
<path d="M9.01997 6.38L9.35997 5.34L8.46997 5.98H9.56997L8.67997 5.34L9.01997 6.38Z" fill="white"/>
<path d="M4.78999 -0.0200043H-1.70001V24.02H4.78999V-0.0200043Z" fill="#D22630"/>
<path d="M4.78995 2.76999V3.00999L4.42995 3.34999L4.54995 3.45999L4.28995 3.69999L4.39995 3.79999V3.64999H4.61995V3.82999L4.11995 4.29999H3.86995L3.83995 4.12999H3.98995L3.82995 3.97999L3.42995 4.33999L3.82995 4.69999L3.98995 4.54999H3.83995L3.86995 4.37999H4.11995L4.61995 4.84999V5.02999H4.39995V4.87999L4.28995 4.97999L4.54995 5.21999L4.42995 5.33999L4.78995 5.67999V5.91999L4.16995 5.33999L4.28995 5.21999L4.02995 4.97999L4.24995 4.76999L4.09995 4.62999L3.81995 4.88999L3.19995 4.31999L3.81995 3.74999L4.09995 4.01999L4.24995 3.87999L4.02995 3.66999L4.28995 3.42999L4.16995 3.31999L4.78995 2.73999V2.76999ZM4.78995 3.90999V4.79999L4.64995 4.64999V4.47999H4.49995L4.37995 4.34999L4.49995 4.22999H4.64995V4.05999L4.78995 3.90999ZM3.72995 4.21999L3.74995 4.33999L3.72995 4.45999L3.59995 4.33999L3.72995 4.21999Z" fill="#383739"/>
<path d="M4.78998 2.78999V2.97999L4.39998 3.33999L4.51998 3.44999L4.25998 3.68999L4.41998 3.83999V3.65999H4.60998V3.81999L4.11998 4.27999H3.88998L3.86998 4.14999H4.03998L3.83998 3.95999L3.41998 4.34999L3.83998 4.73999L4.03998 4.54999H3.86998L3.88998 4.41999H4.11998L4.60998 4.87999V5.03999H4.41998V4.85999L4.25998 5.00999L4.51998 5.24999L4.39998 5.36999L4.78998 5.72999V5.91999L4.19998 5.36999L4.31998 5.24999L4.05998 5.00999L4.27998 4.79999L4.10998 4.63999L3.82998 4.90999L3.22998 4.35999L3.82998 3.80999L4.10998 4.07999L4.27998 3.91999L4.05998 3.70999L4.31998 3.46999L4.19998 3.35999L4.78998 2.80999V2.78999ZM4.78998 3.92999V4.76999L4.65998 4.63999V4.45999H4.49998L4.38998 4.34999L4.49998 4.23999H4.65998V4.05999L4.78998 3.92999ZM3.71998 4.25999V4.34999V4.43999L3.62998 4.34999L3.71998 4.25999Z" fill="#FFC72C"/>
<path d="M4.78995 7.28V7.52L4.42995 7.86L4.54995 7.97L4.28995 8.21L4.39995 8.31V8.16H4.61995V8.34L4.11995 8.81H3.86995L3.83995 8.64H3.98995L3.82995 8.49L3.42995 8.85L3.82995 9.21L3.98995 9.06H3.83995L3.86995 8.89H4.11995L4.61995 9.36V9.54H4.39995V9.39L4.28995 9.49L4.54995 9.73L4.42995 9.85L4.78995 10.19V10.43L4.16995 9.85L4.28995 9.73L4.02995 9.49L4.24995 9.28L4.09995 9.14L3.81995 9.4L3.19995 8.83L3.81995 8.26L4.09995 8.53L4.24995 8.39L4.02995 8.18L4.28995 7.94L4.16995 7.83L4.78995 7.25V7.28ZM4.78995 8.43V9.32L4.64995 9.17V9H4.49995L4.37995 8.87L4.49995 8.75H4.64995V8.58L4.78995 8.43ZM3.72995 8.74L3.74995 8.86L3.72995 8.98L3.59995 8.86L3.72995 8.74Z" fill="#383739"/>
<path d="M4.78998 7.31V7.5L4.39998 7.86L4.51998 7.97L4.25998 8.21L4.41998 8.36V8.18H4.60998V8.34L4.11998 8.8H3.88998L3.86998 8.67H4.03998L3.83998 8.48L3.41998 8.87L3.83998 9.26L4.03998 9.07H3.86998L3.88998 8.94H4.11998L4.60998 9.4V9.56H4.41998V9.38L4.25998 9.53L4.51998 9.77L4.39998 9.89L4.78998 10.25V10.44L4.19998 9.89L4.31998 9.77L4.05998 9.53L4.27998 9.32L4.10998 9.16L3.82998 9.43L3.22998 8.88L3.82998 8.33L4.10998 8.6L4.27998 8.44L4.05998 8.23L4.31998 7.99L4.19998 7.88L4.78998 7.33V7.31ZM4.78998 8.45V9.29L4.65998 9.16V8.98H4.49998L4.38998 8.87L4.49998 8.76H4.65998V8.58L4.78998 8.45ZM3.71998 8.78V8.87V8.96L3.62998 8.87L3.71998 8.78Z" fill="#FFC72C"/>
<path d="M4.78995 11.8V12.04L4.42995 12.38L4.54995 12.49L4.28995 12.73L4.39995 12.83V12.68H4.61995V12.86L4.11995 13.33H3.86995L3.83995 13.16H3.98995L3.82995 13.01L3.42995 13.37L3.82995 13.73L3.98995 13.58H3.83995L3.86995 13.41H4.11995L4.61995 13.88V14.06H4.39995V13.91L4.28995 14.01L4.54995 14.25L4.42995 14.37L4.78995 14.71V14.95L4.16995 14.37L4.28995 14.25L4.02995 14.01L4.24995 13.8L4.09995 13.66L3.81995 13.92L3.19995 13.35L3.81995 12.78L4.09995 13.05L4.24995 12.91L4.02995 12.7L4.28995 12.46L4.16995 12.35L4.78995 11.77V11.8ZM4.78995 12.95V13.84L4.64995 13.69V13.52H4.49995L4.37995 13.39L4.49995 13.27H4.64995V13.1L4.78995 12.95ZM3.72995 13.26L3.74995 13.38L3.72995 13.5L3.59995 13.38L3.72995 13.26Z" fill="#383739"/>
<path d="M4.78998 11.83V12.02L4.39998 12.38L4.51998 12.49L4.25998 12.73L4.41998 12.88V12.7H4.60998V12.86L4.11998 13.32H3.88998L3.86998 13.19H4.03998L3.83998 13L3.41998 13.39L3.83998 13.78L4.03998 13.59H3.86998L3.88998 13.46H4.11998L4.60998 13.92V14.08H4.41998V13.9L4.25998 14.05L4.51998 14.29L4.39998 14.41L4.78998 14.77V14.96L4.19998 14.41L4.31998 14.29L4.05998 14.05L4.27998 13.84L4.10998 13.68L3.82998 13.95L3.22998 13.4L3.82998 12.85L4.10998 13.12L4.27998 12.96L4.05998 12.75L4.31998 12.51L4.19998 12.4L4.78998 11.85V11.83ZM4.78998 12.97V13.81L4.65998 13.68V13.5H4.49998L4.38998 13.39L4.49998 13.28H4.65998V13.1L4.78998 12.97ZM3.71998 13.3V13.39V13.48L3.62998 13.39L3.71998 13.3Z" fill="#FFC72C"/>
<path d="M4.78995 16.32V16.56L4.42995 16.9L4.54995 17.01L4.28995 17.25L4.39995 17.35V17.2H4.61995V17.38L4.11995 17.85H3.86995L3.83995 17.68H3.98995L3.82995 17.53L3.42995 17.89L3.82995 18.25L3.98995 18.1H3.83995L3.86995 17.93H4.11995L4.61995 18.4V18.58H4.39995V18.43L4.28995 18.53L4.54995 18.77L4.42995 18.89L4.78995 19.23V19.47L4.16995 18.89L4.28995 18.77L4.02995 18.53L4.24995 18.32L4.09995 18.18L3.81995 18.44L3.19995 17.87L3.81995 17.3L4.09995 17.57L4.24995 17.43L4.02995 17.22L4.28995 16.98L4.16995 16.87L4.78995 16.29V16.32ZM4.78995 17.47V18.36L4.64995 18.21V18.04H4.49995L4.37995 17.91L4.49995 17.79H4.64995V17.62L4.78995 17.47ZM3.72995 17.78L3.74995 17.9L3.72995 18.02L3.59995 17.9L3.72995 17.78Z" fill="#383739"/>
<path d="M4.78998 16.35V16.54L4.39998 16.9L4.51998 17.01L4.25998 17.25L4.41998 17.4V17.22H4.60998V17.38L4.11998 17.84H3.88998L3.86998 17.71H4.03998L3.83998 17.52L3.41998 17.91L3.83998 18.3L4.03998 18.11H3.86998L3.88998 17.98H4.11998L4.60998 18.44V18.6H4.41998V18.42L4.25998 18.57L4.51998 18.81L4.39998 18.93L4.78998 19.29V19.48L4.19998 18.93L4.31998 18.81L4.05998 18.57L4.27998 18.36L4.10998 18.2L3.82998 18.47L3.22998 17.92L3.82998 17.37L4.10998 17.64L4.27998 17.48L4.05998 17.27L4.31998 17.03L4.19998 16.92L4.78998 16.37V16.35ZM4.78998 17.49V18.33L4.65998 18.2V18.02H4.49998L4.38998 17.91L4.49998 17.8H4.65998V17.62L4.78998 17.49ZM3.71998 17.81V17.9V17.99L3.62998 17.9L3.71998 17.81Z" fill="#FFC72C"/>
<path d="M-1.18001 21.24C-1.15001 21.38 -1.04001 21.48 -1.01001 21.62C-0.960007 21.47 -0.910007 21.35 -0.950007 21.19C-0.980007 21.07 -1.07001 20.99 -1.08001 20.87C-1.19001 20.97 -1.21001 21.1 -1.18001 21.24ZM-1.20001 21.82C-1.11001 21.94 -0.990008 22.04 -0.850008 22.1C-0.880008 21.99 -0.830007 21.91 -0.770007 21.83C-0.700007 21.73 -0.670007 21.63 -0.720007 21.51C-0.750007 21.57 -0.780007 21.62 -0.820007 21.68C-0.880007 21.76 -0.920007 21.84 -0.930007 21.94C-1.00001 21.89 -1.03001 21.81 -1.07001 21.74C-1.13001 21.63 -1.22001 21.54 -1.32001 21.48C-1.29001 21.6 -1.27001 21.73 -1.20001 21.83V21.82ZM-0.700007 22.18C-0.720007 22.25 -0.740007 22.32 -0.730007 22.39C-0.790007 22.33 -0.870007 22.28 -0.940007 22.23C-1.04001 22.15 -1.15001 22.1 -1.23001 22C-1.22001 22.15 -1.16001 22.26 -1.04001 22.35C-0.920008 22.44 -0.760008 22.49 -0.640007 22.59C-0.660007 22.46 -0.610007 22.35 -0.570007 22.23C-0.540007 22.11 -0.570007 22 -0.650007 21.91C-0.650007 22.01 -0.680007 22.09 -0.710007 22.18H-0.700007ZM-0.420007 22.63C-0.390007 22.73 -0.320007 22.81 -0.270007 22.9C-0.400007 22.86 -0.520007 22.79 -0.640007 22.72C-0.780007 22.64 -0.940007 22.59 -1.07001 22.49C-1.01001 22.73 -0.850007 22.86 -0.610007 22.94C-0.450007 22.99 -0.320008 22.96 -0.120008 23.04C-0.140007 22.91 -0.180007 22.77 -0.240007 22.65C-0.290007 22.56 -0.340008 22.48 -0.370008 22.39C-0.410008 22.47 -0.430007 22.55 -0.410007 22.63H-0.420007ZM0.0699925 22.99C0.119992 23.07 0.179993 23.13 0.249993 23.19C0.0599928 23.2 -0.0900071 23.08 -0.270007 23.08C-0.380007 23.08 -0.490007 23.11 -0.610007 23.1C-0.470007 23.19 -0.330007 23.27 -0.160007 23.29C0.0599926 23.32 0.259993 23.26 0.489993 23.29C0.379993 23.21 0.319993 23.11 0.249993 22.99C0.159993 22.85 0.0699924 22.75 -0.100008 22.72C-0.0300075 22.8 0.00999284 22.9 0.0599928 22.99H0.0699925ZM0.729993 23.3C0.399993 23.36 0.0799929 23.43 -0.250007 23.43C0.129993 23.56 0.479993 23.59 0.859993 23.45C1.05999 23.38 1.21999 23.34 1.36999 23.35C1.58999 23.37 1.86999 23.45 2.16999 23.77L2.28999 23.68C1.85999 23.3 1.29999 23.21 0.739993 23.3H0.729993Z" fill="#FFC72C"/>
<path d="M-0.890034 2.79999L-1.41003 2.47999V1.70999L-0.890034 1.38999V0.979994L-0.400034 0.679994H-0.0100341L0.739966 0.259995H2.33997L3.08997 0.679994H3.47997L3.96997 0.979994V1.38999L4.48997 1.70999V2.47999L3.96997 2.79999V3.20999L3.47997 3.50999H3.08997L2.33997 3.92999H0.739966L-0.0100341 3.50999H-0.400034L-0.890034 3.20999V2.79999Z" fill="#383739"/>
<path d="M0.739975 0.289993L-0.0100245 0.709993H-0.400024L-0.880024 0.999993V1.40999L-1.40002 1.72999V2.47999L-0.880024 2.79999V3.20999L-0.400024 3.49999H-0.0100245L0.739975 3.91999H2.33998L3.08998 3.49999H3.47998L3.95998 3.20999V2.79999L4.47998 2.47999V1.72999L3.95998 1.40999V0.999993L3.47998 0.709993H3.08998L2.33998 0.289993H0.739975ZM0.789976 0.439993H2.29998L3.04998 0.859993H3.43998L3.79998 1.07999V1.48999L4.31998 1.80999V2.38999L3.79998 2.70999V3.11999L3.43998 3.33999H3.04998L2.29998 3.75999H0.789976L0.0399756 3.33999H-0.350025L-0.710024 3.11999V2.70999L-1.23002 2.38999V1.80999L-0.710024 1.48999V1.07999L-0.350025 0.859993H0.0399756L0.789976 0.439993Z" fill="#00843D"/>
<path d="M1.52997 2.09999V0.459991H0.789968L0.0399685 0.879992H-0.350032L-0.700032 1.08999V1.48999L-1.22003 1.80999V2.07999H1.54997V3.71999H2.28997L3.03997 3.29999H3.42997L3.77997 3.08999V2.68999L4.29997 2.36999V2.09999H1.52997Z" fill="#FFC72C"/>
<path d="M-1.22003 2.09999V2.36999L-0.700032 2.68999V3.08999L-0.350032 3.29999H0.0399685L0.789968 3.71999H1.52997V2.07999H4.29997V1.80999L3.77997 1.48999V1.08999L3.42997 0.879992H3.03997L2.28997 0.459991H1.54997V2.09999H-1.22003Z" fill="white"/>
<path d="M-0.0800562 1.03L-0.210056 0.910004L-0.340056 0.990004L-0.210056 1.11L-0.370056 1.21H-0.010056L0.299944 1.5L0.399944 1.4L0.0999441 1.12V0.930004L-0.0800562 1.04V1.03Z" fill="#383739"/>
<path d="M0.51998 0.98L0.38998 0.860001L0.25998 0.940001L0.38998 1.06L0.22998 1.16H0.58998L0.89998 1.45L0.99998 1.35L0.69998 1.07V0.880001L0.51998 0.99V0.98Z" fill="#383739"/>
<path d="M-0.130044 1.37L-0.260044 1.25L-0.390044 1.33L-0.260044 1.45L-0.420044 1.55H-0.0600443L0.249956 1.84L0.349956 1.74L0.0499558 1.46V1.27L-0.130044 1.38V1.37Z" fill="#383739"/>
<path d="M1.53998 0.440002H1.21998L1.04998 0.600003H0.71998L0.47998 0.730002L0.53998 0.870003L0.75998 0.760002H0.85998L1.18998 1.15L1.54998 0.930002V0.450002L1.53998 0.440002Z" fill="#383739"/>
<path d="M-0.210068 0.930008L-0.0900683 1.04001L-0.190068 1.10001L-0.310069 0.990008L-0.210068 0.930008ZM0.0799317 0.950008V1.12001L0.369932 1.40001L0.289932 1.48001L-0.0100684 1.19001H-0.320068L0.0699315 0.950008H0.0799317Z" fill="#D22630"/>
<path d="M0.389968 0.880005L0.509968 0.990005L0.409968 1.05L0.289968 0.940005L0.389968 0.880005ZM0.679968 0.900005V1.07L0.969968 1.35L0.889968 1.43L0.589968 1.15H0.279968L0.669968 0.910005L0.679968 0.900005Z" fill="#D22630"/>
<path d="M-0.260056 1.28L-0.140056 1.39L-0.240056 1.45L-0.360056 1.34L-0.260056 1.28ZM0.0299439 1.29V1.46L0.319944 1.74L0.239944 1.82L-0.0600562 1.54H-0.370056L0.0199442 1.3L0.0299439 1.29Z" fill="#D22630"/>
<path d="M1.52993 0.460007H1.21993L1.04993 0.620007H0.719929L0.489929 0.740007L0.529929 0.850007L0.739929 0.740007H0.849929L1.17993 1.12001L1.52993 0.910007V0.460007Z" fill="#D22630"/>
<path d="M-0.0800562 3.16L-0.210056 3.28L-0.340056 3.2L-0.210056 3.08L-0.370056 2.98H-0.010056L0.299944 2.69L0.399944 2.79L0.0999441 3.07V3.26L-0.0800562 3.15V3.16Z" fill="#383739"/>
<path d="M0.51998 3.20999L0.38998 3.32999L0.25998 3.24999L0.38998 3.12999L0.22998 3.02999H0.58998L0.89998 2.73999L0.99998 2.83999L0.69998 3.11999V3.30999L0.51998 3.19999V3.20999Z" fill="#383739"/>
<path d="M-0.130044 2.81L-0.260044 2.93L-0.390044 2.85L-0.260044 2.73L-0.420044 2.63H-0.0600443L0.249956 2.34L0.349956 2.44L0.0499558 2.72V2.91L-0.130044 2.8V2.81Z" fill="#383739"/>
<path d="M1.53998 3.74H1.21998L1.04998 3.58H0.71998L0.47998 3.45L0.53998 3.31L0.75998 3.42H0.85998L1.18998 3.03L1.54998 3.25V3.73L1.53998 3.74Z" fill="#383739"/>
<path d="M-0.210068 3.25L-0.0900683 3.14L-0.190068 3.08L-0.310069 3.19L-0.210068 3.25ZM0.0799317 3.23V3.06L0.369932 2.78L0.289932 2.7L-0.0100684 2.99H-0.320068L0.0699315 3.23H0.0799317Z" fill="#D22630"/>
<path d="M0.389968 3.30999L0.509968 3.19999L0.409968 3.13999L0.289968 3.24999L0.389968 3.30999ZM0.679968 3.28999V3.11999L0.969968 2.83999L0.889968 2.75999L0.589968 3.03999H0.279968L0.669968 3.27999L0.679968 3.28999Z" fill="#D22630"/>
<path d="M-0.260056 2.91L-0.140056 2.8L-0.240056 2.74L-0.360056 2.85L-0.260056 2.91ZM0.0299439 2.89V2.72L0.319944 2.44L0.239944 2.36L-0.0600562 2.64H-0.370056L0.0199442 2.88L0.0299439 2.89Z" fill="#D22630"/>
<path d="M1.52993 3.72999H1.21993L1.04993 3.56999H0.719929L0.489929 3.44999L0.529929 3.33999L0.739929 3.44999H0.849929L1.17993 3.06999L1.52993 3.27999V3.72999Z" fill="#D22630"/>
<path d="M3.16994 1.03L3.29994 0.910004L3.42994 0.990004L3.29994 1.11L3.45994 1.21H3.09994L2.78994 1.5L2.68994 1.4L2.98994 1.12V0.930004L3.16994 1.04V1.03Z" fill="#383739"/>
<path d="M2.55996 0.98L2.68996 0.860001L2.81996 0.940001L2.68996 1.06L2.84996 1.16H2.48996L2.17996 1.45L2.07996 1.35L2.37996 1.07V0.880001L2.55996 0.99V0.98Z" fill="#383739"/>
<path d="M3.20998 1.37L3.33998 1.25L3.46998 1.33L3.33998 1.45L3.49998 1.55H3.13998L2.82998 1.84L2.72998 1.74L3.02998 1.46V1.27L3.20998 1.38V1.37Z" fill="#383739"/>
<path d="M1.53997 0.440002H1.85997L2.02997 0.600003H2.35997L2.59997 0.730002L2.53997 0.870003L2.31997 0.760002H2.21997L1.88997 1.15L1.52997 0.930002V0.450002L1.53997 0.440002Z" fill="#383739"/>
<path d="M3.29997 0.930008L3.17997 1.04001L3.27997 1.10001L3.39997 0.990008L3.29997 0.930008ZM3.00997 0.950008V1.12001L2.71997 1.40001L2.79997 1.48001L3.09997 1.19001H3.40997L3.01997 0.950008H3.00997Z" fill="#D22630"/>
<path d="M2.68999 0.880005L2.56999 0.990005L2.66998 1.05L2.78998 0.940005L2.68999 0.880005ZM2.39999 0.900005V1.07L2.10999 1.35L2.18999 1.43L2.48999 1.15H2.79998L2.40998 0.910005L2.39999 0.900005Z" fill="#D22630"/>
<path d="M3.33995 1.28L3.21995 1.39L3.31995 1.45L3.43995 1.34L3.33995 1.28ZM3.04995 1.29V1.46L2.75995 1.74L2.83995 1.82L3.13995 1.54H3.44995L3.05995 1.3L3.04995 1.29Z" fill="#D22630"/>
<path d="M1.54999 0.460007H1.85999L2.02999 0.620007H2.35999L2.58999 0.740007L2.54999 0.850007L2.33999 0.740007H2.22999L1.89999 1.12001L1.54999 0.910007V0.460007Z" fill="#D22630"/>
<path d="M3.16994 3.16L3.29994 3.28L3.42994 3.2L3.29994 3.08L3.45994 2.98H3.09994L2.78994 2.69L2.68994 2.79L2.98994 3.07V3.26L3.16994 3.15V3.16Z" fill="#383739"/>
<path d="M2.55996 3.20999L2.68996 3.32999L2.81996 3.24999L2.68996 3.12999L2.84996 3.02999H2.48996L2.17996 2.73999L2.07996 2.83999L2.37996 3.11999V3.30999L2.55996 3.19999V3.20999Z" fill="#383739"/>
<path d="M3.20998 2.81L3.33998 2.93L3.46998 2.85L3.33998 2.73L3.49998 2.63H3.13998L2.82998 2.34L2.72998 2.44L3.02998 2.72V2.91L3.20998 2.8V2.81Z" fill="#383739"/>
<path d="M1.53997 3.74H1.85997L2.02997 3.58H2.35997L2.59997 3.45L2.53997 3.31L2.31997 3.42H2.21997L1.88997 3.03L1.52997 3.25V3.73L1.53997 3.74Z" fill="#383739"/>
<path d="M3.29997 3.25L3.17997 3.14L3.27997 3.08L3.39997 3.19L3.29997 3.25ZM3.00997 3.23V3.06L2.71997 2.78L2.79997 2.7L3.09997 2.99H3.40997L3.01997 3.23H3.00997Z" fill="#D22630"/>
<path d="M2.68999 3.30999L2.56999 3.19999L2.66998 3.13999L2.78998 3.24999L2.68999 3.30999ZM2.39999 3.28999V3.11999L2.10999 2.83999L2.18999 2.75999L2.48999 3.03999H2.79998L2.40998 3.27999L2.39999 3.28999Z" fill="#D22630"/>
<path d="M3.33995 2.91L3.21995 2.8L3.31995 2.74L3.43995 2.85L3.33995 2.91ZM3.04995 2.89V2.72L2.75995 2.44L2.83995 2.36L3.13995 2.64H3.44995L3.05995 2.88L3.04995 2.89Z" fill="#D22630"/>
<path d="M1.54999 3.72999H1.85999L2.02999 3.56999H2.35999L2.58999 3.44999L2.54999 3.33999L2.33999 3.44999H2.22999L1.89999 3.06999L1.54999 3.27999V3.72999Z" fill="#D22630"/>
<path d="M3.37995 1.57001L3.52995 1.51001L3.72995 1.65001V1.69001L4.04995 2.09001L3.72995 2.49001V2.53001L3.52995 2.67001L3.37995 2.61001L3.46995 2.55001V2.43001L3.42995 2.39001H3.25995V1.79001H3.42995L3.46995 1.75001V1.63001L3.37995 1.57001Z" fill="#383739"/>
<path d="M3.71997 1.66L3.52997 1.53L3.41997 1.57L3.48997 1.62V1.75L3.43997 1.81H3.27997V2.37H3.43997L3.48997 2.43V2.56L3.41997 2.61L3.52997 2.65L3.71997 2.52V2.49L4.03997 2.09L3.71997 1.69V1.66Z" fill="#D22630"/>
<path d="M-0.570036 2.43L-0.660037 2.35V2.31L-0.850037 2.08L-0.660037 1.85V1.81L-0.570036 1.73L-0.410037 1.86H-0.500036L-0.370037 1.99H-0.0700364L0.169963 1.8V1.31H0.769964L1.46996 0.879998V0.769998L1.35996 0.699998H1.32996L1.20996 0.779998L1.18996 0.839998L1.09996 0.719998L1.27996 0.569998H1.30996L1.50996 0.419998H1.57996L1.77996 0.569998H1.80996L1.98996 0.719998L1.89996 0.839998L1.87996 0.779998L1.75996 0.699998H1.72996L1.61996 0.769998V0.879998L2.31996 1.31H2.91996V1.8L3.15996 1.99H3.45996L3.58996 1.85H3.49996L3.65996 1.72L3.74996 1.8V1.84L3.93996 2.07L3.74996 2.3V2.34L3.65996 2.42L3.49996 2.29H3.58996L3.45996 2.16H3.15996L2.91996 2.35V2.84H2.31996L1.61996 3.27V3.38L1.72996 3.45H1.75996L1.87996 3.37L1.89996 3.31L1.98996 3.43L1.80996 3.58H1.77996L1.57996 3.73H1.50996L1.30996 3.58H1.27996L1.09996 3.43L1.18996 3.31L1.20996 3.37L1.32996 3.45H1.35996L1.46996 3.38V3.27L0.769964 2.84H0.169963V2.35L-0.0700364 2.16H-0.370037L-0.500036 2.3H-0.410037L-0.570036 2.43Z" fill="#383739"/>
<path d="M1.54999 3.48L1.62999 3.54L1.54999 3.6V3.48ZM1.30999 3.58L1.50999 3.73H1.52999V3.62L1.42999 3.54L1.52999 3.46V3.25L0.789993 2.79H0.239993V2.33L-0.0400076 2.11H-0.470007L-0.580008 2.23L-0.690007 2.11H-0.820007L-0.650007 2.32V2.35L-0.580008 2.41L-0.470007 2.32H-0.540008V2.3L-0.390007 2.15H-0.0700073L0.179993 2.35V2.84H0.769993L1.47999 3.27V3.4L1.35999 3.48H1.31999L1.18999 3.4V3.37L1.11999 3.45L1.27999 3.58H1.29999H1.30999ZM-0.580008 1.99L-0.500007 2.09H-0.670007L-0.590007 1.99H-0.580008ZM1.52999 0.589997L1.44999 0.649997L1.52999 0.709997V0.589997ZM3.57999 2.1L3.65999 2.2L3.73999 2.1H3.56999H3.57999ZM1.76999 0.599997L1.56999 0.449997H1.54999V0.559997L1.64999 0.639997L1.54999 0.719997V0.929997L2.28999 1.39H2.83999V1.85L3.11999 2.07H3.54999L3.65999 1.95L3.76999 2.07H3.89999L3.72999 1.86V1.83L3.65999 1.77L3.54999 1.86H3.61999V1.88L3.46999 2.03H3.14999L2.89999 1.83V1.34H2.30999L1.59999 0.909997V0.779997L1.71999 0.699997H1.75999L1.88999 0.779997V0.809997L1.95999 0.729997L1.79999 0.599997H1.76999Z" fill="#FFC72C"/>
<path d="M1.52999 3.59L1.44999 3.53L1.52999 3.47V3.59ZM-0.500007 2.1L-0.580008 2.2L-0.660007 2.1H-0.490007H-0.500007ZM1.77999 3.58L1.57999 3.73H1.55999V3.62L1.65999 3.54L1.55999 3.46V3.25L2.29999 2.79H2.84999V2.33L3.12999 2.11H3.55999L3.66999 2.23L3.77999 2.11H3.90999L3.73999 2.32V2.35L3.66999 2.41L3.55999 2.32H3.62999V2.3L3.47999 2.15H3.15999L2.90999 2.35V2.84H2.31999L1.60999 3.27V3.4L1.72999 3.48H1.76999L1.89999 3.4V3.37L1.96999 3.45L1.80999 3.58H1.78999H1.77999ZM3.66999 1.99L3.58999 2.09H3.75999L3.67999 1.99H3.66999ZM1.30999 0.599997L1.50999 0.449997H1.52999V0.559997L1.42999 0.639997L1.52999 0.719997V0.929997L0.789993 1.39H0.239993V1.85L-0.0400076 2.07H-0.470007L-0.580008 1.95L-0.690007 2.07H-0.820007L-0.650007 1.86V1.83L-0.580008 1.77L-0.470007 1.86H-0.540008V1.88L-0.390007 2.03H-0.0700073L0.179993 1.83V1.34H0.769993L1.47999 0.909997V0.779997L1.35999 0.699997H1.31999L1.18999 0.779997V0.809997L1.11999 0.729997L1.27999 0.599997H1.30999ZM1.54999 0.709997L1.62999 0.649997L1.54999 0.589997V0.709997Z" fill="white"/>
<path d="M1.52998 2.09999V0.959991L0.78998 1.40999H0.24998V1.85999L-0.0200195 2.06999H1.54998V3.20999L2.28998 2.75999H2.82998V2.30999L3.09998 2.09999H1.52998Z" fill="#00843D"/>
<path d="M-0.0200195 2.09999L0.24998 2.30999V2.75999H0.78998L1.52998 3.20999V2.06999H3.09998L2.82998 1.85999V1.40999H2.28998L1.54998 0.959991V2.09999H-0.0200195Z" fill="#D22630"/>
<path d="M0.749961 1.54L0.619961 1.42L0.489961 1.5L0.619961 1.62L0.459961 1.72H0.819961L1.12996 2.01L1.22996 1.91L0.929961 1.63V1.44L0.749961 1.55V1.54Z" fill="#383739"/>
<path d="M2.33999 2.64L2.46999 2.76L2.59999 2.68L2.46999 2.56L2.62999 2.46H2.26999L1.95999 2.17L1.85999 2.27L2.15999 2.55V2.74L2.33999 2.63V2.64Z" fill="#383739"/>
<path d="M0.749961 2.64L0.619961 2.76L0.489961 2.68L0.619961 2.56L0.459961 2.46H0.819961L1.12996 2.17L1.22996 2.27L0.929961 2.55V2.74L0.749961 2.63V2.64Z" fill="#383739"/>
<path d="M2.33999 1.54L2.46999 1.42L2.59999 1.5L2.46999 1.62L2.62999 1.72H2.26999L1.95999 2.01L1.85999 1.91L2.15999 1.63V1.44L2.33999 1.55V1.54Z" fill="#383739"/>
<path d="M2.47 2.74L2.35 2.63L2.45 2.57L2.57 2.68L2.47 2.74ZM2.18 2.72V2.55L1.89 2.27L1.97 2.19L2.27 2.48H2.58L2.19 2.72H2.18ZM0.62 1.44L0.74 1.55L0.64 1.61L0.52 1.5L0.62 1.44ZM0.9 1.46V1.63L1.19 1.91L1.11 1.99L0.81 1.7H0.5L0.89 1.46H0.9Z" fill="#D22630"/>
<path d="M2.47 1.44L2.35 1.55L2.45 1.61L2.57 1.5L2.47 1.44ZM2.18 1.46V1.63L1.89 1.91L1.97 1.99L2.27 1.7H2.58L2.19 1.46H2.18ZM0.62 2.74L0.74 2.63L0.64 2.57L0.52 2.68L0.62 2.74ZM0.9 2.72V2.55L1.19 2.27L1.11 2.19L0.81 2.48H0.5L0.89 2.72H0.9Z" fill="#00843D"/>
<path d="M2.33999 2.09L1.53999 2.62L0.73999 2.09L1.53999 1.56L2.33999 2.09Z" fill="#383739"/>
<path d="M1.52998 1.59L0.789978 2.09H2.28998L1.54998 1.59V2.6L2.28998 2.1H0.789978L1.52998 2.6V1.59Z" fill="white"/>
<path d="M1.74998 2.27999V2.42999H1.31998V2.27999H1.03998V1.91999H1.31998V1.76999H1.74998V1.91999H2.02998V2.27999H1.74998Z" fill="#383739"/>
<path d="M1.34995 1.77999V1.92999H1.06995V2.08999H1.52995V1.78999H1.33995L1.34995 1.77999ZM1.54995 2.07999H2.00995V1.91999H1.72995V1.76999H1.53995V2.06999L1.54995 2.07999ZM1.06995 2.09999V2.25999H1.34995V2.40999H1.53995V2.10999H1.07995L1.06995 2.09999ZM1.54995 2.39999H1.73995V2.24999H2.01995V2.08999H1.55995V2.38999L1.54995 2.39999Z" fill="#D22630"/>
<path d="M2.89997 8.12999V7.9H3.53997V7.66999H4.17997V5.56H3.53997V5.33H2.89997V5.1H2.25997V4.87H0.829973V5.1H0.189973V5.33H-0.450027V5.56H-1.09003V7.66999H-0.450027V7.9H0.189973V8.12999H0.829973V8.36H2.25997V8.12999H2.89997Z" fill="#383739"/>
<path d="M0.839983 4.87V5.1H0.199983V5.33H-0.440017V5.56H-1.08002V7.64H-0.440017V7.86999H0.199983V8.1H0.839983V8.32999H2.23998V8.1H2.87998V7.86999H3.51998V7.64H4.15998V5.56H3.51998V5.33H2.87998V5.1H2.23998V4.87H0.839983ZM1.00998 5.04H2.06998V5.27H2.70998V5.5H3.34998V5.73H3.98998V7.47H3.34998V7.7H2.70998V7.93H2.06998V8.16H1.00998V7.93H0.369983V7.7H-0.270017V7.47H-0.910017V5.73H-0.270017V5.5H0.369983V5.27H1.00998V5.04Z" fill="#FFC72C"/>
<path d="M0.389986 7.93V7.7H-0.250014V7.47H-0.890015V5.77H-0.250014V5.54H0.389986V5.31H1.02999V5.08H2.05999V5.31H2.69999V5.54H3.33999V5.77H3.97999V7.47H3.33999V7.7H2.69999V7.93H2.05999V8.16H1.02999V7.93H0.389986Z" fill="#D22630"/>
<path d="M0.539964 5.47L0.369964 5.34V5.58L0.209963 5.68V5.53L0.0599637 5.67L-0.0900364 5.53V5.68L-0.270036 5.57V5.79L-0.410037 5.89V5.75L-0.580037 5.87L-0.750036 5.75V5.89L-0.910037 5.77V6.45H-1.10004V6.76H-0.910037V7.44L-0.750036 7.32V7.46L-0.580037 7.34L-0.410037 7.46V7.32L-0.270036 7.42V7.64L-0.0900364 7.53V7.68L0.0599637 7.54L0.209963 7.68V7.53L0.369964 7.63V7.87L0.539964 7.74V7.91L0.699964 7.76L0.859963 7.91V7.74L1.00996 7.85V8.11L1.22996 7.91V8.15L1.53996 7.95L1.84996 8.15V7.91L2.06996 8.11V7.85L2.21996 7.74V7.91L2.37996 7.76L2.53996 7.91V7.74L2.70996 7.87V7.63L2.86996 7.53V7.68L3.01996 7.54L3.16996 7.68V7.53L3.34996 7.64V7.42L3.48996 7.32V7.46L3.65996 7.34L3.82996 7.46V7.32L3.98996 7.44V6.76H4.17996V6.45H3.98996V5.77L3.82996 5.89V5.75L3.65996 5.87L3.48996 5.75V5.89L3.34996 5.79V5.57L3.16996 5.68V5.53L3.01996 5.67L2.86996 5.53V5.68L2.70996 5.58V5.34L2.53996 5.47V5.3L2.37996 5.45L2.21996 5.3V5.47L2.06996 5.36V5.1L1.84996 5.3V5.06L1.53996 5.26L1.22996 5.06V5.3L1.00996 5.1V5.36L0.859963 5.47V5.3L0.699964 5.45L0.539964 5.3V5.47Z" fill="#383739"/>
<path d="M0.550005 5.34L0.700005 5.47L0.850005 5.34V5.5L1.02001 5.37V7.84L0.850005 7.71V7.87L0.700005 7.74L0.550005 7.87V7.71L0.380005 7.84V5.37L0.550005 5.5V5.34Z" fill="#00843D"/>
<path d="M2.53 5.34L2.38 5.47L2.23 5.34V5.5L2.06 5.37V7.84L2.23 7.71V7.87L2.38 7.74L2.53 7.87V7.71L2.7 7.84V5.37L2.53 5.5V5.34Z" fill="#00843D"/>
<path d="M3.81999 5.92999V5.78999L3.66998 5.89999L3.51999 5.78999V5.92999L3.35999 5.80999V7.39999L3.51999 7.27999V7.41999L3.66998 7.30999L3.81999 7.41999V7.27999L3.97999 7.39999V6.73999H4.16998V6.46999H3.97999V5.80999L3.81999 5.92999Z" fill="#00843D"/>
<path d="M-0.0800099 5.56999L0.0599904 5.68999L0.19999 5.56999V5.70999L0.37999 5.59999V7.61999L0.19999 7.50999V7.64999L0.0599904 7.52999L-0.0800099 7.64999V7.50999L-0.26001 7.61999V5.59999L-0.0800099 5.70999V5.56999Z" fill="#FFC72C"/>
<path d="M1.24997 5.34L1.02997 5.14V8.09L1.24997 7.89V8.14L1.53997 7.95L1.82997 8.14V7.89L2.04997 8.09V5.14L1.82997 5.34V5.09L1.53997 5.28L1.24997 5.09V5.34Z" fill="#FFC72C"/>
<path d="M3.16001 5.56999L3.02001 5.68999L2.88001 5.56999V5.70999L2.70001 5.59999V7.61999L2.88001 7.50999V7.64999L3.02001 7.52999L3.16001 7.64999V7.50999L3.34001 7.61999V5.59999L3.16001 5.70999V5.56999Z" fill="#FFC72C"/>
<path d="M0.0199757 6.14998L-0.0300245 6.09998V5.99998L-0.150024 6.10998L0.0599756 6.31998L0.269976 6.10998L0.149975 5.99998V6.09998L0.0999756 6.14998V5.96998L0.189975 5.88998L0.0599756 5.77998L-0.0700245 5.88998L0.0199757 5.96998V6.14998Z" fill="#383739"/>
<path d="M0.65999 5.94999L0.60999 5.89999V5.79999L0.48999 5.90999L0.69999 6.11999L0.90999 5.90999L0.78999 5.79999V5.89999L0.73999 5.94999V5.76999L0.82999 5.68999L0.69999 5.57999L0.56999 5.68999L0.65999 5.76999V5.94999Z" fill="#383739"/>
<path d="M0.719949 5.75999V5.98999L0.809949 5.89999V5.82999L0.889949 5.89999L0.699949 6.08999L0.509949 5.89999L0.589949 5.82999V5.89999L0.679949 5.98999V5.75999L0.599949 5.68999L0.709949 5.59999L0.819949 5.68999L0.739949 5.75999H0.719949Z" fill="white"/>
<path d="M0.0799952 5.95999V6.18999L0.169995 6.09999V6.02999L0.249995 6.09999L0.0599952 6.28999L-0.130005 6.09999L-0.050005 6.02999V6.09999L0.0399952 6.18999V5.95999L-0.0400052 5.88999L0.0699949 5.79999L0.179995 5.88999L0.0999951 5.95999H0.0799952Z" fill="#D22630"/>
<path d="M3.72997 6.31999C3.72997 6.31999 3.68997 6.34999 3.65997 6.34999C3.62997 6.34999 3.60997 6.34999 3.58997 6.31999C3.52997 6.25999 3.52997 6.14999 3.52997 6.06999C3.52997 6.06999 3.59997 6.13999 3.60997 6.15999C3.60997 6.13999 3.65997 6.07999 3.65997 6.07999C3.65997 6.07999 3.69997 6.14999 3.70997 6.15999C3.71997 6.14999 3.78997 6.06999 3.78997 6.06999C3.78997 6.14999 3.78997 6.25999 3.72997 6.31999Z" fill="#383739"/>
<path d="M3.07001 6.14998L3.12001 6.09998V5.99998L3.24001 6.10998L3.03001 6.31998L2.82001 6.10998L2.94001 5.99998V6.09998L2.99001 6.14998V5.96998L2.90001 5.88998L3.03001 5.77998L3.16001 5.88998L3.07001 5.96998V6.14998Z" fill="#383739"/>
<path d="M2.42999 5.94999L2.47999 5.89999V5.79999L2.59999 5.90999L2.38999 6.11999L2.17999 5.90999L2.29999 5.79999V5.89999L2.34999 5.94999V5.76999L2.25999 5.68999L2.38999 5.57999L2.51999 5.68999L2.42999 5.76999V5.94999Z" fill="#383739"/>
<path d="M3.65999 6.10999L3.61999 6.18999C3.61999 6.18999 3.56999 6.13999 3.54999 6.11999C3.54999 6.20999 3.56999 6.27999 3.60999 6.31999C3.62999 6.33999 3.64999 6.33999 3.66999 6.33999C3.68999 6.33999 3.70999 6.33999 3.72999 6.31999C3.75999 6.28999 3.77999 6.20999 3.78999 6.11999C3.76999 6.13999 3.71999 6.18999 3.71999 6.18999C3.70999 6.15999 3.68999 6.13999 3.66999 6.10999H3.65999Z" fill="white"/>
<path d="M2.36 5.75999V5.98999L2.27 5.89999V5.82999L2.19 5.89999L2.38 6.08999L2.57 5.89999L2.49 5.82999V5.89999L2.4 5.98999V5.75999L2.48 5.68999L2.37 5.59999L2.26 5.68999L2.34 5.75999H2.36Z" fill="white"/>
<path d="M3.00002 5.95999V6.18999L2.91002 6.09999V6.02999L2.83002 6.09999L3.02002 6.28999L3.21002 6.09999L3.13002 6.02999V6.09999L3.04002 6.18999V5.95999L3.12002 5.88999L3.01002 5.79999L2.90002 5.88999L2.98002 5.95999H3.00002Z" fill="#D22630"/>
<path d="M1.78995 6.01999L1.71995 5.91999L1.89995 5.75999L1.73995 5.61999V5.71999L1.66995 5.77999V5.60999L1.82995 5.49999L1.54995 5.28999L1.26995 5.49999L1.42995 5.60999V5.77999L1.35995 5.71999V5.61999L1.19995 5.75999L1.37995 5.91999L1.30995 6.01999H1.80995H1.78995Z" fill="#383739"/>
<path d="M1.31996 6.01L1.37996 5.93L1.20996 5.77L1.32996 5.67V5.74L1.42996 5.83V5.61L1.28996 5.5L1.53996 5.31L1.78996 5.5L1.64996 5.61V5.83L1.74996 5.74V5.67L1.86996 5.77L1.69996 5.93L1.75996 6.01H1.31996Z" fill="#D22630"/>
<path d="M1.40997 5.49999L1.53997 5.58999L1.66997 5.49999L1.53997 5.40999L1.41997 5.49999H1.40997Z" fill="#383739"/>
<path d="M1.54 5.42C1.54 5.42 1.62 5.48 1.64 5.49C1.62 5.5 1.55 5.56 1.54 5.56C1.54 5.56 1.46 5.5 1.44 5.49C1.46 5.48 1.53 5.42 1.54 5.42Z" fill="#00843D"/>
<path d="M0.0199757 7.06999L-0.0300245 7.11999V7.21999L-0.150024 7.10999L0.0599756 6.89999L0.269976 7.10999L0.149975 7.21999V7.11999L0.0999756 7.06999V7.24999L0.189975 7.32999L0.0599756 7.43999L-0.0700245 7.32999L0.0199757 7.24999V7.06999Z" fill="#383739"/>
<path d="M0.65999 7.28L0.60999 7.33V7.43L0.48999 7.32L0.69999 7.11L0.90999 7.32L0.78999 7.43V7.33L0.73999 7.28V7.46L0.82999 7.54L0.69999 7.65L0.56999 7.54L0.65999 7.46V7.28Z" fill="#383739"/>
<path d="M0.719949 7.47V7.24L0.809949 7.33V7.4L0.889949 7.33L0.699949 7.14L0.509949 7.33L0.589949 7.4V7.33L0.679949 7.24V7.47L0.599949 7.54L0.709949 7.63L0.819949 7.54L0.739949 7.47H0.719949Z" fill="white"/>
<path d="M0.0799952 7.25999V7.02999L0.169995 7.11999V7.18999L0.249995 7.11999L0.0599952 6.92999L-0.130005 7.11999L-0.050005 7.18999V7.11999L0.0399952 7.02999V7.25999L-0.0400052 7.32999L0.0699949 7.41999L0.179995 7.32999L0.0999951 7.25999H0.0799952Z" fill="#D22630"/>
<path d="M3.72997 6.9C3.72997 6.9 3.68997 6.87 3.65997 6.87C3.62997 6.87 3.60997 6.87 3.58997 6.9C3.52997 6.96 3.52997 7.07 3.52997 7.15C3.52997 7.15 3.59997 7.08 3.60997 7.06C3.60997 7.08 3.65997 7.14 3.65997 7.14C3.65997 7.14 3.69997 7.07 3.70997 7.06C3.71997 7.07 3.78997 7.15 3.78997 7.15C3.78997 7.07 3.78997 6.96 3.72997 6.9Z" fill="#383739"/>
<path d="M3.07001 7.06999L3.12001 7.11999V7.21999L3.24001 7.10999L3.03001 6.89999L2.82001 7.10999L2.94001 7.21999V7.11999L2.99001 7.06999V7.24999L2.90001 7.32999L3.03001 7.43999L3.16001 7.32999L3.07001 7.24999V7.06999Z" fill="#383739"/>
<path d="M2.42999 7.28L2.47999 7.33V7.43L2.59999 7.32L2.38999 7.11L2.17999 7.32L2.29999 7.43V7.33L2.34999 7.28V7.46L2.25999 7.54L2.38999 7.65L2.51999 7.54L2.42999 7.46V7.28Z" fill="#383739"/>
<path d="M3.65999 7.12L3.61999 7.04C3.61999 7.04 3.56999 7.09 3.54999 7.11C3.54999 7.02 3.56999 6.95 3.60999 6.91C3.62999 6.89 3.64999 6.89 3.66999 6.89C3.68999 6.89 3.70999 6.89 3.72999 6.91C3.75999 6.94 3.77999 7.02 3.78999 7.11C3.76999 7.09 3.71999 7.04 3.71999 7.04C3.70999 7.07 3.68999 7.09 3.66999 7.12H3.65999Z" fill="white"/>
<path d="M2.36 7.47V7.24L2.27 7.33V7.4L2.19 7.33L2.38 7.14L2.57 7.33L2.49 7.4V7.33L2.4 7.24V7.47L2.48 7.54L2.37 7.63L2.26 7.54L2.34 7.47H2.36Z" fill="white"/>
<path d="M3.00002 7.25999V7.02999L2.91002 7.11999V7.18999L2.83002 7.11999L3.02002 6.92999L3.21002 7.11999L3.13002 7.18999V7.11999L3.04002 7.02999V7.25999L3.12002 7.32999L3.01002 7.41999L2.90002 7.32999L2.98002 7.25999H3.00002Z" fill="#D22630"/>
<path d="M1.78995 7.2L1.71995 7.3L1.89995 7.46L1.73995 7.6V7.5L1.66995 7.44V7.61L1.82995 7.72L1.54995 7.93L1.26995 7.72L1.42995 7.61V7.44L1.35995 7.5V7.6L1.19995 7.46L1.37995 7.3L1.30995 7.2H1.80995H1.78995Z" fill="#383739"/>
<path d="M1.31996 7.22L1.37996 7.3L1.20996 7.46L1.32996 7.56V7.49L1.42996 7.4V7.62L1.28996 7.73L1.53996 7.92L1.78996 7.73L1.64996 7.62V7.4L1.74996 7.49V7.56L1.86996 7.46L1.69996 7.3L1.75996 7.22H1.31996Z" fill="#D22630"/>
<path d="M1.40997 7.73L1.53997 7.64L1.66997 7.73L1.53997 7.82L1.41997 7.73H1.40997Z" fill="#383739"/>
<path d="M1.54 7.8C1.54 7.8 1.62 7.74 1.64 7.73C1.62 7.72 1.55 7.66 1.54 7.66C1.54 7.66 1.46 7.72 1.44 7.73C1.46 7.74 1.53 7.8 1.54 7.8Z" fill="#00843D"/>
<path d="M3.81996 6.50999H3.53996V6.39999H2.67996L2.07996 6.00999H1.00996L0.409958 6.39999H-0.450042V6.50999H-0.730042V6.70999H-0.450042V6.81999H0.409958L1.00996 7.20999H2.07996L2.67996 6.81999H3.53996V6.70999H3.81996V6.50999Z" fill="#383739"/>
<path d="M1.00997 6.03L0.409968 6.42H-0.440032V6.53H-0.720032V6.69H-0.440032V6.8H0.409968L1.00997 7.19H2.06997L2.66997 6.8H3.51997V6.69H3.79997V6.53H3.51997V6.42H2.66997L2.06997 6.03H1.00997ZM1.01997 6.08H2.05997L2.60997 6.44V6.5H3.21997V6.73H2.60997V6.79L2.05997 7.15H1.01997L0.469968 6.79V6.73H-0.150032V6.5H0.469968V6.44L1.01997 6.08Z" fill="#D22630"/>
<path d="M2.04999 6.09999L2.58999 6.44999V6.50999H3.19999V6.70999H2.58999V6.76999L2.04999 7.11999H1.02L0.479995 6.76999V6.70999H-0.130005V6.50999H0.479995V6.44999L1.02 6.09999H2.04999Z" fill="#D22630"/>
<path d="M0.759949 6.80999L0.989949 6.97999L1.13995 6.86999L1.04995 6.79999L0.989949 6.84999L0.939949 6.80999L1.80995 6.14999H1.62995L0.759949 6.80999ZM1.26995 7.06999H1.44995L2.31995 6.40999L2.08995 6.23999L1.93995 6.34999L2.02995 6.41999L2.08995 6.36999L2.13995 6.40999L1.26995 7.06999ZM1.63995 7.06999H1.81995L0.949949 6.40999L0.999949 6.36999L1.05995 6.41999L1.14995 6.34999L0.999949 6.23999L0.769949 6.40999L1.63995 7.06999ZM2.13995 6.80999L2.08995 6.84999L2.02995 6.79999L1.93995 6.86999L2.08995 6.97999L2.31995 6.80999L1.44995 6.14999H1.26995L2.13995 6.80999Z" fill="#383739"/>
<path d="M0.589966 6.60999L0.749966 6.70999L0.909966 6.60999L0.749966 6.50999L0.589966 6.60999Z" fill="#383739"/>
<path d="M1.38995 6.60999L1.54995 6.70999L1.70995 6.60999L1.54995 6.50999L1.38995 6.60999Z" fill="#383739"/>
<path d="M2.49999 6.60999L2.33999 6.70999L2.17999 6.60999L2.33999 6.50999L2.49999 6.60999Z" fill="#383739"/>
<path d="M2.28998 6.81L2.08998 6.96L1.96998 6.87L2.02998 6.82L2.08998 6.87L2.16998 6.81L1.31998 6.17H1.43998L2.28998 6.81ZM1.75998 7.05H1.63998L0.789978 6.41L0.989978 6.26L1.10998 6.35L1.04998 6.4L0.989978 6.35L0.909978 6.41L1.75998 7.05ZM1.43998 7.05H1.31998L2.16998 6.41L2.08998 6.35L2.02998 6.4L1.96998 6.35L2.08998 6.26L2.28998 6.41L1.43998 7.05ZM1.63998 6.17H1.75998L0.909978 6.81L0.989978 6.87L1.04998 6.82L1.10998 6.87L0.989978 6.96L0.789978 6.81L1.63998 6.17Z" fill="#FFC72C"/>
<path d="M0.739995 6.53L0.859995 6.61L0.739995 6.69L0.619995 6.61L0.739995 6.53Z" fill="#00843D"/>
<path d="M1.53998 6.53L1.65998 6.61L1.53998 6.69L1.41998 6.61L1.53998 6.53Z" fill="#00843D"/>
<path d="M2.33997 6.53L2.21997 6.61L2.33997 6.69L2.45997 6.61L2.33997 6.53Z" fill="#00843D"/>
<path d="M4.28998 10.96L4.34998 11.05L4.23998 11.13L4.34998 11.21L4.28998 11.3H4.15998L4.03998 11.22L3.72998 11.42V11.26L3.91998 11.14L3.72998 11.02V10.86L4.03998 11.06L4.15998 10.96H4.28998Z" fill="#383739"/>
<path d="M4.28998 10.4L4.34998 10.49L4.23998 10.57L4.34998 10.65L4.28998 10.74H4.15998L4.03998 10.66L3.72998 10.86V10.7L3.91998 10.58L3.72998 10.46V10.3L4.03998 10.5L4.15998 10.4H4.28998Z" fill="#383739"/>
<path d="M4.28998 11.87L4.34998 11.78L4.23998 11.7L4.34998 11.62L4.28998 11.53H4.15998L4.03998 11.61L3.72998 11.41V11.57L3.91998 11.69L3.72998 11.81V11.97L4.03998 11.77L4.15998 11.87H4.28998Z" fill="#383739"/>
<path d="M3.04999 9.41999V9.64999H3.21999V9.74999H3.38999V9.55999H3.23999V9.40999H3.04999V9.41999Z" fill="#383739"/>
<path d="M3.56 9.79V10.02H3.73V10.12H3.9V9.93H3.75V9.78H3.56V9.79Z" fill="#383739"/>
<path d="M0.0300026 9.41999V9.64999H-0.139997V9.74999H-0.309998V9.55999H-0.159997V9.40999H0.0300026V9.41999Z" fill="#383739"/>
<path d="M3.04999 12.84V12.61H3.21999V12.51H3.38999V12.7H3.23999V12.85H3.04999V12.84Z" fill="#383739"/>
<path d="M0.0300026 12.84V12.61H-0.139997V12.51H-0.309998V12.7H-0.159997V12.85H0.0300026V12.84Z" fill="#383739"/>
<path d="M3.56 12.47V12.24H3.73V12.14H3.9V12.33H3.75V12.48H3.56V12.47Z" fill="#383739"/>
<path d="M2.17 9.41999L2.04 9.28999L1.91001 9.40999C1.91001 9.40999 2.01001 9.50999 2.02001 9.51999L1.88 9.65999H2.09L2.17 9.58999L2.25 9.65999H2.46L2.32001 9.51999L2.43001 9.40999L2.3 9.28999C2.3 9.28999 2.21 9.36999 2.17 9.41999Z" fill="#383739"/>
<path d="M1.54 9.41999L1.41 9.28999L1.28 9.40999C1.28 9.40999 1.38 9.50999 1.39 9.51999L1.25 9.65999H1.46L1.54 9.58999L1.62 9.65999H1.83L1.69 9.51999L1.8 9.40999L1.67 9.28999C1.67 9.28999 1.58 9.36999 1.54 9.41999Z" fill="#383739"/>
<path d="M0.909995 9.41999L1.04 9.28999L1.16999 9.40999C1.16999 9.40999 1.07 9.50999 1.06 9.51999L1.2 9.65999H0.989995L0.909995 9.58999L0.829995 9.65999H0.619995L0.759995 9.51999L0.649995 9.40999L0.779995 9.28999C0.779995 9.28999 0.869995 9.36999 0.909995 9.41999Z" fill="#383739"/>
<path d="M2.17 12.85L2.04 12.98L1.91001 12.86C1.91001 12.86 2.01001 12.76 2.02001 12.75L1.88 12.61H2.09L2.17 12.68L2.25 12.61H2.46L2.32001 12.75L2.43001 12.86L2.3 12.98C2.3 12.98 2.21 12.9 2.17 12.85Z" fill="#383739"/>
<path d="M1.54 12.85L1.41 12.98L1.28 12.86C1.28 12.86 1.38 12.76 1.39 12.75L1.25 12.61H1.46L1.54 12.68L1.62 12.61H1.83L1.69 12.75L1.8 12.86L1.67 12.98C1.67 12.98 1.58 12.9 1.54 12.85Z" fill="#383739"/>
<path d="M0.909995 12.85L1.04 12.98L1.16999 12.86C1.16999 12.86 1.07 12.76 1.06 12.75L1.2 12.61H0.989995L0.909995 12.68L0.829995 12.61H0.619995L0.759995 12.75L0.649995 12.86L0.779995 12.98C0.779995 12.98 0.869995 12.9 0.909995 12.85Z" fill="#383739"/>
<path d="M3.73993 11.26V11.38L4.02993 11.19L4.15993 11.29H4.26993L4.31993 11.21L4.20993 11.12L4.31993 11.03L4.26993 10.96H4.15993L4.02993 11.05L3.73993 10.86V10.98L3.94993 11.11L3.73993 11.24V11.26Z" fill="#00843D"/>
<path d="M3.73993 10.7V10.82L4.02993 10.63L4.15993 10.73H4.26993L4.31993 10.65L4.20993 10.56L4.31993 10.47L4.26993 10.4H4.15993L4.02993 10.49L3.73993 10.3V10.42L3.94993 10.55L3.73993 10.68V10.7Z" fill="#00843D"/>
<path d="M3.73993 11.56V11.44L4.02993 11.63L4.15993 11.53H4.26993L4.31993 11.61L4.20993 11.7L4.31993 11.79L4.26993 11.86H4.15993L4.02993 11.77L3.73993 11.96V11.84L3.94993 11.71L3.73993 11.58V11.56Z" fill="#00843D"/>
<path d="M3.22996 9.44V9.59H3.37996V9.74H3.24996V9.64H3.07996V9.44H3.22996Z" fill="#00843D"/>
<path d="M3.72996 9.81V9.96H3.87996V10.11H3.74996V10.01H3.57996V9.81H3.72996Z" fill="#00843D"/>
<path d="M-0.140039 9.44V9.59H-0.290039V9.74H-0.160039V9.64H0.00996113V9.44H-0.140039Z" fill="#00843D"/>
<path d="M3.22996 12.82V12.67H3.37996V12.52H3.24996V12.62H3.07996V12.82H3.22996Z" fill="#00843D"/>
<path d="M-0.140039 12.82V12.67H-0.290039V12.52H-0.160039V12.62H0.00996113V12.82H-0.140039Z" fill="#00843D"/>
<path d="M3.72996 12.45V12.3H3.87996V12.15H3.74996V12.25H3.57996V12.45H3.72996Z" fill="#00843D"/>
<path d="M2.03994 9.31L2.16994 9.44C2.16994 9.44 2.28994 9.32 2.29994 9.31C2.30994 9.31 2.38994 9.39 2.39994 9.41C2.38994 9.42 2.28994 9.52 2.28994 9.52L2.41994 9.64H2.25994L2.17994 9.56L2.09994 9.64H1.93994L2.06994 9.52C2.06994 9.52 1.96994 9.42 1.95994 9.41C1.96994 9.4 2.04994 9.32 2.05994 9.31H2.03994Z" fill="#00843D"/>
<path d="M1.40994 9.31L1.53994 9.44C1.53994 9.44 1.65994 9.32 1.66994 9.31C1.67994 9.31 1.75994 9.39 1.76994 9.41C1.75994 9.42 1.65994 9.52 1.65994 9.52L1.78994 9.64H1.62994L1.54994 9.56L1.46994 9.64H1.30994L1.43994 9.52C1.43994 9.52 1.33994 9.42 1.32994 9.41C1.33994 9.4 1.41994 9.32 1.42994 9.31H1.40994Z" fill="#00843D"/>
<path d="M1.03997 9.31L0.909973 9.44C0.909973 9.44 0.789973 9.32 0.779973 9.31C0.769973 9.31 0.689973 9.39 0.679973 9.41C0.689973 9.42 0.789973 9.52 0.789973 9.52L0.659973 9.64H0.819973L0.899973 9.56L0.979973 9.64H1.13997L1.00997 9.52C1.00997 9.52 1.10997 9.42 1.11997 9.41C1.10997 9.4 1.02997 9.32 1.01997 9.31H1.03997Z" fill="#00843D"/>
<path d="M2.03994 12.95L2.16994 12.82C2.16994 12.82 2.28994 12.94 2.29994 12.95C2.30994 12.95 2.38994 12.87 2.39994 12.85C2.38994 12.84 2.28994 12.74 2.28994 12.74L2.41994 12.62H2.25994L2.17994 12.7L2.09994 12.62H1.93994L2.06994 12.74C2.06994 12.74 1.96994 12.84 1.95994 12.85C1.96994 12.86 2.04994 12.94 2.05994 12.95H2.03994Z" fill="#00843D"/>
<path d="M1.40994 12.95L1.53994 12.82C1.53994 12.82 1.65994 12.94 1.66994 12.95C1.67994 12.95 1.75994 12.87 1.76994 12.85C1.75994 12.84 1.65994 12.74 1.65994 12.74L1.78994 12.62H1.62994L1.54994 12.7L1.46994 12.62H1.30994L1.43994 12.74C1.43994 12.74 1.33994 12.84 1.32994 12.85C1.33994 12.86 1.41994 12.94 1.42994 12.95H1.40994Z" fill="#00843D"/>
<path d="M1.03997 12.95L0.909973 12.82C0.909973 12.82 0.789973 12.94 0.779973 12.95C0.769973 12.95 0.689973 12.87 0.679973 12.85C0.689973 12.84 0.789973 12.74 0.789973 12.74L0.659973 12.62H0.819973L0.899973 12.7L0.979973 12.62H1.13997L1.00997 12.74C1.00997 12.74 1.10997 12.84 1.11997 12.85C1.10997 12.86 1.02997 12.94 1.01997 12.95H1.03997Z" fill="#00843D"/>
<path d="M-0.160034 12.25V12.62H3.23997V12.25H3.73997V10.01H3.23997V9.64H-0.160034V10.01H-0.660034V12.25H-0.160034Z" fill="#383739"/>
<path d="M-0.140015 9.66V10.03H-0.640015V12.24H-0.140015V12.61H3.21999V12.24H3.71999V10.03H3.21999V9.66H-0.140015ZM0.0799856 9.8H3.00999V10.16L3.12999 10.25H3.58999V12.03H3.12999L3.00999 12.12V12.48H0.0799856V12.12L-0.0400147 12.03H-0.500014V10.25H-0.0400147L0.0799856 10.16V9.8Z" fill="#FFC72C"/>
<path d="M0.0899582 9.81999V10.15L0.529958 9.81999H0.0899582ZM2.54996 9.81999L2.98996 10.15V9.81999H2.54996ZM-0.480042 10.26V10.57L-0.0600419 10.26H-0.480042ZM3.14996 10.26L3.56996 10.57V10.26H3.14996ZM3.56996 11.69L3.14996 12H3.56996V11.69ZM-0.480042 11.7V12.01H-0.0600419L-0.480042 11.7ZM0.0899582 12.12V12.44H0.529958L0.0899582 12.12ZM2.98996 12.12L2.54996 12.44H2.98996V12.12Z" fill="#D22630"/>
<path d="M2.51996 9.81999C2.51996 9.81999 3.55996 10.59 3.56996 10.59V11.67C3.56996 11.67 2.52996 12.44 2.51996 12.44H0.569958C0.569958 12.44 -0.470042 11.67 -0.480042 11.67V10.59C-0.480042 10.59 0.559958 9.81999 0.569958 9.81999H2.51996Z" fill="#00843D"/>
<path d="M-0.230036 11.8L-0.350037 11.66L-0.240036 11.53L-0.350037 11.4L-0.240036 11.27L-0.350037 11.14L-0.240036 11.01L-0.350037 10.88L-0.240036 10.75L-0.350037 10.62L-0.230036 10.48H3.31996L3.43996 10.62L3.32996 10.75L3.43996 10.88L3.32996 11.01L3.43996 11.14L3.32996 11.27L3.43996 11.4L3.32996 11.53L3.43996 11.66L3.31996 11.8H-0.230036ZM2.20996 9.98L2.06996 9.86L1.93996 9.97L1.80996 9.86L1.67996 9.97L1.54996 9.86L1.41996 9.97L1.28996 9.86L1.15996 9.97L1.02996 9.86L0.889964 9.98V12.27L1.02996 12.39L1.15996 12.28L1.28996 12.39L1.41996 12.28L1.54996 12.39L1.67996 12.28L1.80996 12.39L1.93996 12.28L2.06996 12.39L2.20996 12.27V9.98Z" fill="#383739"/>
<path d="M1.93 9.98999L1.81 9.87999L1.69 9.98999V12.27L1.81 12.38L1.93 12.27V9.98999Z" fill="#FFC72C"/>
<path d="M1.39997 9.98999L1.27997 9.87999L1.15997 9.98999V12.27L1.27997 12.38L1.39997 12.27V9.98999Z" fill="#FFC72C"/>
<path d="M-0.230027 11.78L-0.340027 11.66L-0.230027 11.54H3.30997L3.41997 11.66L3.30997 11.78H-0.230027Z" fill="#FFC72C"/>
<path d="M3.30997 11.01L3.41997 11.13L3.30997 11.25H-0.230027L-0.340027 11.13L-0.230027 11.01H3.30997Z" fill="#FFC72C"/>
<path d="M3.30997 10.73L3.41997 10.61L3.30997 10.49H-0.230027L-0.340027 10.61L-0.230027 10.73H3.30997Z" fill="#FFC72C"/>
<path d="M2.18995 9.98999L2.06995 9.87999L1.94995 9.98999V12.27L2.06995 12.38L2.18995 12.27V9.98999Z" fill="#D22630"/>
<path d="M1.13996 9.98999L1.01996 9.87999L0.899963 9.98999V12.27L1.01996 12.38L1.13996 12.27V9.98999Z" fill="#D22630"/>
<path d="M-0.230027 11.52L-0.340027 11.4L-0.230027 11.28H3.30997L3.41997 11.4L3.30997 11.52H-0.230027Z" fill="#D22630"/>
<path d="M-0.230027 10.99L-0.340027 10.87L-0.230027 10.75H3.30997L3.41997 10.87L3.30997 10.99H-0.230027Z" fill="#D22630"/>
<path d="M1.65998 12.27L1.53998 12.38L1.41998 12.27V9.98999L1.53998 9.87999L1.65998 9.98999V12.27Z" fill="#D22630"/>
<path d="M2.72999 10.04H0.349988V10.23H0.0499878V12.04H0.349988V12.23H2.73999V12.04H3.03999V10.23H2.73999V10.04H2.72999Z" fill="#383739"/>
<path d="M0.359988 10.05V10.24H0.0499878V12.02H0.359988V12.21H0.609988L0.109988 11.79V10.47L0.609988 10.05H0.359988ZM2.46999 10.05L2.96999 10.47V11.79L2.46999 12.21H2.71999V12.02H3.01999V10.24H2.71999V10.05H2.46999Z" fill="#D22630"/>
<path d="M0.639944 10.05C0.639944 10.05 0.139944 10.47 0.129944 10.48V11.78C0.129944 11.78 0.629944 12.2 0.639944 12.21H2.43994C2.43994 12.21 2.93994 11.79 2.94994 11.78V10.48C2.94994 10.48 2.44994 10.06 2.43994 10.05H0.639944ZM0.669944 10.13H2.41994L2.87994 10.52V11.75L2.41994 12.14H0.669944L0.209944 11.75V10.52L0.669944 10.13Z" fill="#00843D"/>
<path d="M1.12992 11.77L1.20992 11.8V11.89L1.12992 11.98L1.26992 12.12H1.12992L1.02992 12.03L0.929917 12.12H0.789917L0.929917 11.98L0.829917 11.89V11.8L0.919917 11.77L1.01992 11.85L1.10992 11.77H1.12992Z" fill="#00843D"/>
<path d="M1.63993 11.77L1.71993 11.8V11.89L1.63993 11.98L1.77993 12.12H1.63993L1.53993 12.03L1.43993 12.12H1.29993L1.43993 11.98L1.33993 11.89V11.8L1.42993 11.77L1.52993 11.85L1.61993 11.77H1.63993Z" fill="#00843D"/>
<path d="M1.94994 11.77L1.86994 11.8V11.89L1.94994 11.98L1.80994 12.12H1.94994L2.04994 12.03L2.14994 12.12H2.28994L2.14994 11.98L2.24994 11.89V11.8L2.15994 11.77L2.05994 11.85L1.96994 11.77H1.94994Z" fill="#00843D"/>
<path d="M1.12992 10.5L1.20992 10.47V10.38L1.12992 10.29L1.26992 10.15H1.12992L1.02992 10.24L0.929917 10.15H0.789917L0.929917 10.29L0.829917 10.38V10.47L0.919917 10.5L1.01992 10.42L1.10992 10.5H1.12992Z" fill="#00843D"/>
<path d="M1.63993 10.5L1.71993 10.47V10.38L1.63993 10.29L1.77993 10.15H1.63993L1.53993 10.24L1.43993 10.15H1.29993L1.43993 10.29L1.33993 10.38V10.47L1.42993 10.5L1.52993 10.42L1.61993 10.5H1.63993Z" fill="#00843D"/>
<path d="M1.94994 10.5L1.86994 10.47V10.38L1.94994 10.29L1.80994 10.15H1.94994L2.04994 10.24L2.14994 10.15H2.28994L2.14994 10.29L2.24994 10.38V10.47L2.15994 10.5L2.05994 10.42L1.96994 10.5H1.94994Z" fill="#00843D"/>
<path d="M2.85997 10.64L2.77997 10.7L2.85997 10.76V10.87L2.73997 10.77C2.73997 10.77 2.65997 10.84 2.64997 10.85C2.64997 10.85 2.56997 10.84 2.55997 10.84C2.55997 10.84 2.52997 10.79 2.52997 10.78L2.60997 10.7C2.60997 10.7 2.53997 10.63 2.52997 10.62C2.52997 10.62 2.55997 10.57 2.55997 10.56L2.64997 10.55L2.73997 10.63L2.85997 10.53V10.64Z" fill="#00843D"/>
<path d="M2.85997 11.07L2.77997 11.13L2.85997 11.19V11.3L2.73997 11.2C2.73997 11.2 2.65997 11.27 2.64997 11.28C2.64997 11.28 2.56997 11.27 2.55997 11.27C2.55997 11.27 2.52997 11.22 2.52997 11.21L2.60997 11.13C2.60997 11.13 2.53997 11.06 2.52997 11.05C2.52997 11.05 2.55997 11 2.55997 10.99L2.64997 10.98L2.73997 11.06L2.85997 10.96V11.07Z" fill="#00843D"/>
<path d="M2.85997 11.62L2.77997 11.56L2.85997 11.5V11.39L2.73997 11.49C2.73997 11.49 2.65997 11.42 2.64997 11.41C2.64997 11.41 2.56997 11.42 2.55997 11.42C2.55997 11.42 2.52997 11.47 2.52997 11.48L2.60997 11.56C2.60997 11.56 2.53997 11.63 2.52997 11.64C2.52997 11.64 2.55997 11.69 2.55997 11.7L2.64997 11.71L2.73997 11.63L2.85997 11.73V11.62Z" fill="#00843D"/>
<path d="M0.219971 10.64L0.299971 10.7L0.219971 10.76V10.87L0.339971 10.77C0.339971 10.77 0.419971 10.84 0.429971 10.85C0.429971 10.85 0.509971 10.84 0.519971 10.84C0.519971 10.84 0.549971 10.79 0.549971 10.78L0.469971 10.7C0.469971 10.7 0.539971 10.63 0.549971 10.62C0.549971 10.62 0.519971 10.57 0.519971 10.56L0.429971 10.55L0.339971 10.63L0.219971 10.53V10.64Z" fill="#00843D"/>
<path d="M0.219971 11.07L0.299971 11.13L0.219971 11.19V11.3L0.339971 11.2C0.339971 11.2 0.419971 11.27 0.429971 11.28C0.429971 11.28 0.509971 11.27 0.519971 11.27C0.519971 11.27 0.549971 11.22 0.549971 11.21L0.469971 11.13C0.469971 11.13 0.539971 11.06 0.549971 11.05C0.549971 11.05 0.519971 11 0.519971 10.99L0.429971 10.98L0.339971 11.06L0.219971 10.96V11.07Z" fill="#00843D"/>
<path d="M0.219971 11.62L0.299971 11.56L0.219971 11.5V11.39L0.339971 11.49C0.339971 11.49 0.419971 11.42 0.429971 11.41C0.429971 11.41 0.509971 11.42 0.519971 11.42C0.519971 11.42 0.549971 11.47 0.549971 11.48L0.469971 11.56C0.469971 11.56 0.539971 11.63 0.549971 11.64C0.549971 11.64 0.519971 11.69 0.519971 11.7L0.429971 11.71L0.339971 11.63L0.219971 11.73V11.62Z" fill="#00843D"/>
<path d="M0.669971 10.14C0.669971 10.14 0.249971 10.5 0.229971 10.51C0.269971 10.54 0.299971 10.57 0.339971 10.61L0.419971 10.54H0.529971L0.569971 10.63C0.569971 10.63 0.499971 10.7 0.489971 10.71C0.499971 10.72 0.569971 10.79 0.569971 10.79L0.529971 10.87H0.419971C0.419971 10.87 0.349971 10.82 0.339971 10.81L0.219971 10.91V10.94C0.219971 10.94 0.299971 11.01 0.339971 11.04L0.419971 10.97H0.529971L0.569971 11.06C0.569971 11.06 0.499971 11.13 0.489971 11.14C0.499971 11.15 0.569971 11.22 0.569971 11.22L0.529971 11.3H0.419971C0.419971 11.3 0.349971 11.25 0.339971 11.24L0.219971 11.34V11.38L0.339971 11.48L0.419971 11.41H0.529971L0.569971 11.5C0.569971 11.5 0.499971 11.57 0.489971 11.58C0.499971 11.59 0.569971 11.66 0.569971 11.66L0.529971 11.74H0.419971C0.419971 11.74 0.349971 11.69 0.339971 11.68C0.299971 11.71 0.269971 11.74 0.229971 11.77C0.249971 11.79 0.669971 12.14 0.669971 12.14H0.769971L0.909971 12L0.819971 11.92L0.839971 11.81L0.93997 11.77L1.03997 11.85L1.13997 11.77L1.23997 11.81L1.25997 11.92L1.16997 12L1.30997 12.13L1.44997 12L1.35997 11.92L1.37997 11.81L1.47997 11.77L1.57997 11.85L1.67997 11.77L1.77997 11.81L1.79997 11.92L1.70997 12L1.84997 12.13L1.98997 12L1.89997 11.92L1.91997 11.81L2.01997 11.77L2.11997 11.85L2.21997 11.77L2.31997 11.81L2.33997 11.92L2.24997 12L2.38997 12.14H2.48997C2.48997 12.14 2.90997 11.78 2.92997 11.77C2.88997 11.74 2.85997 11.71 2.81997 11.68L2.73997 11.75H2.62997L2.58997 11.66C2.58997 11.66 2.65997 11.59 2.66997 11.58C2.65997 11.57 2.58997 11.5 2.58997 11.5L2.62997 11.42H2.73997C2.73997 11.42 2.80997 11.47 2.81997 11.48L2.93997 11.38V11.34L2.81997 11.24L2.73997 11.31H2.62997L2.58997 11.22C2.58997 11.22 2.65997 11.15 2.66997 11.14C2.65997 11.13 2.58997 11.06 2.58997 11.06L2.62997 10.98H2.73997C2.73997 10.98 2.80997 11.03 2.81997 11.04C2.85997 11.01 2.89997 10.98 2.93997 10.94V10.9L2.81997 10.8L2.73997 10.87H2.62997L2.58997 10.78C2.58997 10.78 2.65997 10.71 2.66997 10.7C2.65997 10.69 2.58997 10.62 2.58997 10.62L2.62997 10.54H2.73997C2.73997 10.54 2.80997 10.59 2.81997 10.6C2.85997 10.57 2.89997 10.54 2.92997 10.51C2.91997 10.5 2.48997 10.14 2.47997 10.14H2.37997L2.23997 10.28L2.32997 10.36L2.30997 10.47L2.20997 10.51L2.10997 10.43L2.00997 10.51L1.90997 10.47L1.88997 10.36L1.97997 10.28L1.83997 10.15L1.69997 10.28L1.78997 10.36L1.76997 10.47L1.66997 10.51L1.56997 10.43L1.46997 10.51L1.36997 10.47L1.34997 10.36L1.43997 10.28L1.29997 10.15L1.15997 10.28L1.24997 10.36L1.22997 10.47L1.12997 10.51L1.02997 10.43L0.929971 10.51L0.829971 10.47L0.809971 10.36L0.899971 10.28L0.759971 10.14H0.659971H0.669971ZM0.219971 11.09V11.18L0.269971 11.14L0.219971 11.1V11.09Z" fill="#D22630"/>
<path d="M1.02996 12.05L0.959961 12.12H1.10996L1.03996 12.05H1.02996Z" fill="white"/>
<path d="M1.53997 12.05L1.46997 12.12H1.61997L1.54997 12.05H1.53997Z" fill="white"/>
<path d="M2.04998 12.05L1.97998 12.12H2.12998L2.05998 12.05H2.04998Z" fill="white"/>
<path d="M0.959961 10.14L1.03996 10.21L1.10996 10.14H0.959961Z" fill="white"/>
<path d="M1.46997 10.14L1.53997 10.21L1.61997 10.14H1.46997Z" fill="white"/>
<path d="M1.97997 10.14L2.04997 10.21L2.11997 10.14H1.96997H1.97997Z" fill="white"/>
<path d="M2.86 10.66L2.81 10.7L2.86 10.74V10.66Z" fill="white"/>
<path d="M2.86 11.09L2.81 11.13L2.86 11.17V11.09Z" fill="white"/>
<path d="M2.86 11.51L2.81 11.55L2.86 11.59V11.51Z" fill="white"/>
<path d="M0.219971 10.66V10.75L0.269971 10.71L0.219971 10.67V10.66Z" fill="white"/>
<path d="M0.219971 11.09V11.18L0.269971 11.14L0.219971 11.1V11.09Z" fill="white"/>
<path d="M0.219971 11.51V11.6L0.269971 11.56L0.219971 11.52V11.51Z" fill="white"/>
<path d="M1.97996 10.99V10.84H1.82996V10.67H1.25996V10.84H1.10996V10.99H0.899963V11.27H1.10996V11.42H1.25996V11.59H1.82996V11.42H1.97996V11.27H2.18996V10.99H1.97996Z" fill="#383739"/>
<path d="M1.52997 10.69V10.86L1.28997 11V11.12H0.909973V11H1.11997V10.85H1.26997V10.68H1.52997V10.69Z" fill="#FFC72C"/>
<path d="M1.54999 11.57V11.4L1.78999 11.26V11.14H2.16999V11.26H1.95999V11.41H1.80999V11.58H1.54999V11.57Z" fill="#FFC72C"/>
<path d="M1.78999 11.12V11L1.54999 10.86V10.69H1.80999V10.86H1.95999V11.01H2.16999V11.13H1.78999V11.12Z" fill="white"/>
<path d="M0.909973 11.14H1.28997V11.26L1.52997 11.4V11.57H1.26997V11.4H1.11997V11.25H0.909973V11.13V11.14Z" fill="white"/>
<path d="M1.30994 11.14V11.26L1.53994 11.39V11.15H1.30994V11.14Z" fill="#D22630"/>
<path d="M1.52999 10.88L1.29999 11.01V11.13H1.52999V10.89V10.88Z" fill="#00843D"/>
<path d="M1.77999 11.12V11L1.54999 10.87V11.11H1.77999V11.12Z" fill="#D22630"/>
<path d="M1.54999 11.38L1.77999 11.25V11.13H1.54999V11.37V11.38Z" fill="#00843D"/>
<path d="M-0.520044 14.15V14.62H-0.970044V15.05H-1.42004V16.26H-0.970044V16.69H-0.520044V17.16H1.10996L1.39996 17.33L1.25996 17.41H0.679956L0.629956 17.35H1.15996L1.00996 17.2H0.259956L0.599956 17.55H1.30996L1.54996 17.41L1.78996 17.55H2.49996L2.83996 17.2H2.08996L1.93996 17.35H2.46996L2.41996 17.41H1.83996L1.69996 17.33L1.98996 17.16H3.61996V16.69H4.06996V16.26H4.51996V15.05H4.06996V14.62H3.61996V14.15H1.98996L1.69996 13.98L1.83996 13.9H2.41996L2.46996 13.96H1.93996L2.08996 14.11H2.83996L2.49996 13.76H1.78996L1.54996 13.9L1.30996 13.76H0.599956L0.259956 14.11H1.00996L1.15996 13.96H0.629956L0.679956 13.9H1.25996L1.39996 13.98L1.10996 14.15H-0.520044Z" fill="#D22630"/>
<path d="M1.96998 17.13H3.57998V16.66H4.02998V16.23H4.47998V15.05H4.02998V14.63H3.57998V14.16H1.96998L1.29998 13.75H0.609975L0.299975 14.07H0.999976L1.10998 13.96H0.589975L0.669975 13.87H1.25998L2.01998 14.33H3.40998V14.8H3.85998V15.23H4.30998V16.07H3.85998V16.5H3.40998V16.97H2.01998L1.25998 17.43H0.669975L0.589975 17.34H1.10998L0.999976 17.23H0.299975L0.609975 17.55H1.29998L1.96998 17.14V17.13ZM1.05998 16.97H-0.330025V16.5H-0.780025V16.07H-1.23002V15.23H-0.780025V14.8H-0.330025V14.33H1.05998L1.81998 13.87H2.40998L2.48998 13.96H1.96998L2.07998 14.07H2.77998L2.46998 13.75H1.77998L1.10998 14.16H-0.500024V14.63H-0.950025V15.05H-1.40002V16.23H-0.950025V16.66H-0.500024V17.13H1.10998L1.77998 17.54H2.46998L2.77998 17.22H2.07998L1.96998 17.33H2.48998L2.40998 17.42H1.81998L1.05998 16.96V16.97Z" fill="#FFC72C"/>
<path d="M3.27996 16.36V16.83H1.98996L1.53996 17.1L1.08996 16.83H-0.200037V16.36H-0.650036V15.93H-1.10004V15.36H-0.650036V14.93H-0.200037V14.46H1.08996L1.53996 14.19L1.98996 14.46H3.27996V14.93H3.72996V15.36H4.17996V15.93H3.72996V16.36H3.27996Z" fill="#00843D"/>
<path d="M-0.0300293 16.2V16.65H0.679971L-0.0300293 16.18V16.2Z" fill="#383739"/>
<path d="M-0.0300293 15.1V14.65H0.679971L-0.0300293 15.12V15.1Z" fill="#383739"/>
<path d="M3.10996 16.2V16.65H2.39996L3.10996 16.18V16.2Z" fill="#383739"/>
<path d="M3.10996 15.1V14.65H2.39996L3.10996 15.12V15.1Z" fill="#383739"/>
<path d="M-0.0100098 16.21L0.61999 16.63H-0.0100098V16.21Z" fill="#D22630"/>
<path d="M-0.0100098 15.09C-0.0100098 15.09 0.57999 14.7 0.61999 14.67H-0.0100098V15.09Z" fill="#D22630"/>
<path d="M3.08996 16.21C3.08996 16.21 2.49996 16.6 2.45996 16.63H3.08996V16.21Z" fill="#D22630"/>
<path d="M3.08996 15.09C3.08996 15.09 2.49996 14.7 2.45996 14.67H3.08996V15.09Z" fill="#D22630"/>
<path d="M0.879968 15.53V15.3H0.799968L0.419968 15.06L0.0399685 15.3H-0.0400319V15.53H-0.220032V15.78H-0.0400319V16.01H0.0399685L0.419968 16.25L0.799968 16.01H0.879968V15.78H1.14997V15.53H0.879968Z" fill="#383739"/>
<path d="M0.419946 15.08L0.769947 15.3H0.0799465L0.429946 15.08H0.419946ZM0.769947 16.01L0.419946 16.23L0.0699463 16.01H0.759946H0.769947Z" fill="#D22630"/>
<path d="M0.679939 15.54V15.75H0.249939V15.54H0.679939Z" fill="#D22630"/>
<path d="M0.859993 15.78V15.99H0.429993V15.78H0.859993Z" fill="#FFC72C"/>
<path d="M0.40998 15.78V15.99H-0.0200195V15.78H0.40998Z" fill="#FFC72C"/>
<path d="M1.13001 15.54V15.75H0.700012V15.54H1.13001Z" fill="#FFC72C"/>
<path d="M0.229988 15.54V15.75H-0.200012V15.54H0.229988Z" fill="#FFC72C"/>
<path d="M0.859993 15.31V15.52H0.429993V15.31H0.859993Z" fill="#FFC72C"/>
<path d="M0.40998 15.31V15.52H-0.0200195V15.31H0.40998Z" fill="#FFC72C"/>
<path d="M0.109983 15.59V15.71H-0.0800171V15.59H0.109983Z" fill="#383739"/>
<path d="M0.289976 15.36V15.48H0.0999756V15.36H0.289976Z" fill="#383739"/>
<path d="M0.739988 15.36V15.48H0.549988V15.36H0.739988Z" fill="#383739"/>
<path d="M0.559995 15.59V15.71H0.369995V15.59H0.559995Z" fill="#383739"/>
<path d="M1.01001 15.59V15.71H0.820007V15.59H1.01001Z" fill="#383739"/>
<path d="M0.739988 15.82V15.94H0.549988V15.82H0.739988Z" fill="#383739"/>
<path d="M0.289976 15.82V15.94H0.0999756V15.82H0.289976Z" fill="#383739"/>
<path d="M0.0999417 15.61H-0.0600586V15.69H0.0999417V15.61Z" fill="white"/>
<path d="M0.269925 15.38H0.109924V15.46H0.269925V15.38Z" fill="white"/>
<path d="M0.719936 15.38H0.559937V15.46H0.719936V15.38Z" fill="white"/>
<path d="M0.549953 15.61H0.389954V15.69H0.549953V15.61Z" fill="white"/>
<path d="M0.999966 15.61H0.839966V15.69H0.999966V15.61Z" fill="white"/>
<path d="M0.719936 15.84H0.559937V15.92H0.719936V15.84Z" fill="white"/>
<path d="M0.269925 15.84H0.109924V15.92H0.269925V15.84Z" fill="white"/>
<path d="M2.20994 15.53V15.3H2.28994L2.66994 15.06L3.04994 15.3H3.12994V15.53H3.30994V15.78H3.12994V16.01H3.04994L2.66994 16.25L2.28994 16.01H2.20994V15.78H1.93994V15.53H2.20994Z" fill="#383739"/>
<path d="M2.65994 15.08L2.30994 15.3H2.99994L2.64994 15.08H2.65994ZM2.31994 16.01L2.66994 16.23L3.01994 16.01H2.32994H2.31994Z" fill="#D22630"/>
<path d="M2.39996 15.54V15.75H2.82996V15.54H2.39996Z" fill="#D22630"/>
<path d="M2.21997 15.78V15.99H2.64997V15.78H2.21997Z" fill="#FFC72C"/>
<path d="M2.66992 15.78V15.99H3.09992V15.78H2.66992Z" fill="#FFC72C"/>
<path d="M1.94995 15.54V15.75H2.37995V15.54H1.94995Z" fill="#FFC72C"/>
<path d="M2.84998 15.54V15.75H3.27998V15.54H2.84998Z" fill="#FFC72C"/>
<path d="M2.21997 15.31V15.52H2.64997V15.31H2.21997Z" fill="#FFC72C"/>
<path d="M2.66992 15.31V15.52H3.09992V15.31H2.66992Z" fill="#FFC72C"/>
<path d="M2.96997 15.59V15.71H3.15997V15.59H2.96997Z" fill="#383739"/>
<path d="M2.78992 15.36V15.48H2.97992V15.36H2.78992Z" fill="#383739"/>
<path d="M2.33997 15.36V15.48H2.52997V15.36H2.33997Z" fill="#383739"/>
<path d="M2.51996 15.59V15.71H2.70996V15.59H2.51996Z" fill="#383739"/>
<path d="M2.06995 15.59V15.71H2.25995V15.59H2.06995Z" fill="#383739"/>
<path d="M2.33997 15.82V15.94H2.52997V15.82H2.33997Z" fill="#383739"/>
<path d="M2.78992 15.82V15.94H2.97992V15.82H2.78992Z" fill="#383739"/>
<path d="M2.98999 15.61H3.14999V15.69H2.98999V15.61Z" fill="white"/>
<path d="M2.80994 15.38H2.96994V15.46H2.80994V15.38Z" fill="white"/>
<path d="M2.35999 15.38H2.51999V15.46H2.35999V15.38Z" fill="white"/>
<path d="M2.53998 15.61H2.69998V15.69H2.53998V15.61Z" fill="white"/>
<path d="M2.08997 15.61H2.24997V15.69H2.08997V15.61Z" fill="white"/>
<path d="M2.35999 15.84H2.51999V15.92H2.35999V15.84Z" fill="white"/>
<path d="M2.80994 15.84H2.96994V15.92H2.80994V15.84Z" fill="white"/>
<path d="M1.99998 15.14V15.37H1.91998L1.53998 15.61L1.15998 15.37H1.07998V15.14H0.849976V14.89H1.07998V14.66H1.15998L1.53998 14.42L1.91998 14.66H1.99998V14.89H2.22998V15.14H1.99998Z" fill="#383739"/>
<path d="M1.54 15.59L1.89 15.37H1.2L1.55 15.59H1.54ZM1.89 14.66L1.54 14.44L1.19 14.66H1.88H1.89Z" fill="#FFC72C"/>
<path d="M1.97999 14.89V14.68H1.54999V14.89H1.97999Z" fill="#D22630"/>
<path d="M1.52998 14.89V14.68H1.09998V14.89H1.52998Z" fill="#D22630"/>
<path d="M2.21003 15.12V14.91H1.78003V15.12H2.21003Z" fill="#D22630"/>
<path d="M1.76002 15.12V14.91H1.33002V15.12H1.76002Z" fill="#D22630"/>
<path d="M1.31001 15.12V14.91H0.880005V15.12H1.31001Z" fill="#D22630"/>
<path d="M1.97999 15.35V15.14H1.54999V15.35H1.97999Z" fill="#D22630"/>
<path d="M1.52998 15.35V15.14H1.09998V15.35H1.52998Z" fill="#D22630"/>
<path d="M1.40997 14.72V14.84H1.21997V14.72H1.40997Z" fill="#383739"/>
<path d="M1.85998 14.72V14.84H1.66998V14.72H1.85998Z" fill="#383739"/>
<path d="M1.19 14.95V15.07H1V14.95H1.19Z" fill="#383739"/>
<path d="M1.64001 14.95V15.07H1.45001V14.95H1.64001Z" fill="#383739"/>
<path d="M2.09002 14.95V15.07H1.90002V14.95H2.09002Z" fill="#383739"/>
<path d="M1.40997 15.19V15.31H1.21997V15.19H1.40997Z" fill="#383739"/>
<path d="M1.85998 15.19V15.31H1.66998V15.19H1.85998Z" fill="#383739"/>
<path d="M1.39993 14.74H1.23993V14.82H1.39993V14.74Z" fill="white"/>
<path d="M1.84994 14.74H1.68994V14.82H1.84994V14.74Z" fill="white"/>
<path d="M1.16995 14.97H1.00995V15.05H1.16995V14.97Z" fill="white"/>
<path d="M1.61996 14.97H1.45996V15.05H1.61996V14.97Z" fill="white"/>
<path d="M2.06997 14.97H1.90997V15.05H2.06997V14.97Z" fill="white"/>
<path d="M1.39993 15.2H1.23993V15.28H1.39993V15.2Z" fill="white"/>
<path d="M1.84994 15.2H1.68994V15.28H1.84994V15.2Z" fill="white"/>
<path d="M1.99998 16.41V16.64H1.91998L1.53998 16.88L1.15998 16.64H1.07998V16.41H0.849976V16.16H1.07998V15.93H1.15998L1.53998 15.69L1.91998 15.93H1.99998V16.16H2.22998V16.41H1.99998Z" fill="#383739"/>
<path d="M1.54 16.86L1.89 16.64H1.2L1.55 16.86H1.54ZM1.89 15.93L1.54 15.71L1.19 15.93H1.88H1.89Z" fill="#FFC72C"/>
<path d="M1.97999 16.16V15.95H1.54999V16.16H1.97999Z" fill="#D22630"/>
<path d="M1.52998 16.16V15.95H1.09998V16.16H1.52998Z" fill="#D22630"/>
<path d="M2.21003 16.39V16.18H1.78003V16.39H2.21003Z" fill="#D22630"/>
<path d="M1.76002 16.39V16.18H1.33002V16.39H1.76002Z" fill="#D22630"/>
<path d="M1.31001 16.39V16.18H0.880005V16.39H1.31001Z" fill="#D22630"/>
<path d="M1.97999 16.63V16.42H1.54999V16.63H1.97999Z" fill="#D22630"/>
<path d="M1.52998 16.63V16.42H1.09998V16.63H1.52998Z" fill="#D22630"/>
<path d="M1.40997 16V16.12H1.21997V16H1.40997Z" fill="#383739"/>
<path d="M1.85998 16V16.12H1.66998V16H1.85998Z" fill="#383739"/>
<path d="M1.19 16.23V16.35H1V16.23H1.19Z" fill="#383739"/>
<path d="M1.64001 16.23V16.35H1.45001V16.23H1.64001Z" fill="#383739"/>
<path d="M2.09002 16.23V16.35H1.90002V16.23H2.09002Z" fill="#383739"/>
<path d="M1.40997 16.46V16.58H1.21997V16.46H1.40997Z" fill="#383739"/>
<path d="M1.85998 16.46V16.58H1.66998V16.46H1.85998Z" fill="#383739"/>
<path d="M1.39993 16.01H1.23993V16.09H1.39993V16.01Z" fill="white"/>
<path d="M1.84994 16.01H1.68994V16.09H1.84994V16.01Z" fill="white"/>
<path d="M1.16995 16.25H1.00995V16.33H1.16995V16.25Z" fill="white"/>
<path d="M1.61996 16.25H1.45996V16.33H1.61996V16.25Z" fill="white"/>
<path d="M2.06997 16.25H1.90997V16.33H2.06997V16.25Z" fill="white"/>
<path d="M1.39993 16.48H1.23993V16.56H1.39993V16.48Z" fill="white"/>
<path d="M1.84994 16.48H1.68994V16.56H1.84994V16.48Z" fill="white"/>
<path d="M-0.910034 19.18L0.769966 18.27H2.30997L3.98997 19.18V20.67L2.30997 21.58H0.769966L-0.910034 20.67V19.18Z" fill="#383739"/>
<path d="M0.779985 18.29L-0.890015 19.19V20.66L0.779985 21.56H2.30999L3.97999 20.66V19.19L2.30999 18.29H0.779985ZM0.809986 18.41H2.27999L3.85999 19.26V20.59L2.27999 21.44H0.799985L-0.780015 20.59V19.26L0.799985 18.41H0.809986Z" fill="#00843D"/>
<path d="M1.54999 19.92V21.43H2.26999L3.83999 20.59V19.94H1.52999V18.43H0.80999L-0.76001 19.27V19.92H1.54999Z" fill="#FFC72C"/>
<path d="M1.52999 19.92V21.43H0.80999L-0.76001 20.59V19.94H1.54999V18.43H2.26999L3.83999 19.27V19.92H1.52999Z" fill="white"/>
<path d="M1.67999 21.34V20.9L1.53999 20.99L1.39999 20.9V21.34H0.95999L1.25999 21.12V20.81L0.80999 20.52H0.48999V19.32H0.80999L1.25999 19.03V18.72L0.95999 18.5H1.39999V18.94L1.53999 18.85L1.67999 18.94V18.5H2.11999L1.81999 18.72V19.03L2.26999 19.32H2.58999V20.52H2.26999L1.81999 20.81V21.12L2.11999 21.34H1.67999Z" fill="#383739"/>
<path d="M1.69995 18.53V18.98L1.54995 18.88V19.01L2.23995 19.45H2.46995V19.92H2.57995V19.34H2.27995L1.81995 19.05V18.72L2.07995 18.53H1.70995H1.69995ZM0.509949 19.94V20.52H0.809949L1.26995 20.81V21.14L1.00995 21.33H1.37995V20.88L1.52995 20.98V20.85L0.839949 20.41H0.619949V19.94H0.509949Z" fill="#FFC72C"/>
<path d="M1.01996 18.53L1.27996 18.72V19.05L0.819958 19.34H0.519958V19.92H0.629958V19.45H0.849958L1.53996 19.01V18.88L1.38996 18.98V18.53H1.01996ZM2.46996 19.94V20.41H2.23996L1.54996 20.84V20.97L1.69996 20.87V21.32H2.06996L1.80996 21.13V20.8L2.26996 20.51H2.56996V19.93H2.45996L2.46996 19.94Z" fill="white"/>
<path d="M0.629944 20.39H0.839944L1.52994 20.83L2.21994 20.39H2.42994V19.47H2.21994L1.52994 19.03L0.839944 19.47H0.629944V20.39Z" fill="#D22630"/>
<path d="M2.01997 20.15H2.16997V20.08H2.05997V19.95H2.29997V20.27H2.06997V20.49H1.59997V20.17H1.80997V20.3H1.72997V20.36H1.94997V20.24L1.06997 19.7H0.919968V19.77H1.02997V19.9H0.789968V19.58H1.01997V19.36H1.48997V19.68H1.27997V19.55H1.35997V19.49H1.13997V19.61L2.01997 20.15ZM1.93997 19.61V19.49H1.71997V19.55H1.79997V19.68H1.58997V19.36H2.05997V19.58H2.28997V19.9H2.04997V19.77H2.15997V19.7H2.00997L1.12997 20.24V20.36H1.34997V20.3H1.26997V20.17H1.47997V20.49H1.00997V20.27H0.779968V19.95H1.01997V20.08H0.909968V20.15H1.05997L1.93997 19.61Z" fill="#383739"/>
<path d="M1.95999 20.24V20.39H1.70999V20.29H1.78999V20.2H1.61999V20.48H2.05999V20.26H2.28999V19.97H2.08999V20.06H2.19999V20.16H2.02999L1.13999 19.62V19.47H1.38999V19.57H1.30999V19.66H1.47999V19.38H1.03999V19.6H0.809988V19.89H1.00999V19.8H0.899988V19.7H1.06999L1.95999 20.24ZM2.01999 19.69H2.18999V19.79H2.07999V19.88H2.27999V19.59H2.04999V19.37H1.60999V19.65H1.77999V19.56H1.69999V19.46H1.94999V19.61L1.05999 20.15H0.889988V20.05H0.999988V19.96H0.799988V20.25H1.02999V20.47H1.46999V20.19H1.29999V20.28H1.37999V20.38H1.12999V20.23L2.01999 19.69Z" fill="white"/>
<path d="M3.50997 20V20.47H3.30997V20.3H3.10997V20.47H2.90997V20H3.10997V20.17H3.30997V20H3.50997Z" fill="#383739"/>
<path d="M2.78994 20.63V21.1H2.58994V20.93H2.38994V21.1H2.18994V20.63H2.38994V20.8H2.58994V20.63H2.78994Z" fill="#383739"/>
<path d="M3.50997 19.85V19.38H3.30997V19.55H3.10997V19.38H2.90997V19.85H3.10997V19.68H3.30997V19.85H3.50997Z" fill="#383739"/>
<path d="M-0.420044 20V20.47H-0.220044V20.3H-0.0200438V20.47H0.179956V20H-0.0200438V20.17H-0.220044V20H-0.420044Z" fill="#383739"/>
<path d="M-0.420044 19.85V19.38H-0.220044V19.55H-0.0200438V19.38H0.179956V19.85H-0.0200438V19.68H-0.220044V19.85H-0.420044Z" fill="#383739"/>
<path d="M2.78994 19.23V18.76H2.58994V18.93H2.38994V18.76H2.18994V19.23H2.38994V19.06H2.58994V19.23H2.78994Z" fill="#383739"/>
<path d="M0.289978 20.63V21.1H0.489978V20.93H0.689978V21.1H0.889978V20.63H0.689978V20.8H0.489978V20.63H0.289978Z" fill="#383739"/>
<path d="M0.289978 19.23V18.76H0.489978V18.93H0.689978V18.76H0.889978V19.23H0.689978V19.06H0.489978V19.23H0.289978Z" fill="#383739"/>
<path d="M2.90997 18.9V19.26H3.56997L2.90997 18.9Z" fill="#383739"/>
<path d="M0.179958 20.96V20.6H-0.480042L0.179958 20.96Z" fill="#383739"/>
<path d="M0.179958 18.9V19.26H-0.480042L0.179958 18.9Z" fill="#383739"/>
<path d="M2.90997 20.96V20.6H3.56997L2.90997 20.96Z" fill="#383739"/>
<path d="M3.31997 20.29V20.46H3.48997V20.02H3.31997V20.19H3.07997V20.02H2.90997V20.46H3.07997V20.29H3.31997Z" fill="#D22630"/>
<path d="M2.60995 20.92V21.09H2.77995V20.65H2.60995V20.82H2.36995V20.65H2.19995V21.09H2.36995V20.92H2.60995Z" fill="#D22630"/>
<path d="M3.31997 19.57V19.4H3.48997V19.84H3.31997V19.67H3.07997V19.84H2.90997V19.4H3.07997V19.57H3.31997Z" fill="#D22630"/>
<path d="M-0.240034 20.29V20.46H-0.410034V20.02H-0.240034V20.19H-3.38554e-05V20.02H0.169966V20.46H-3.38554e-05V20.29H-0.240034Z" fill="#D22630"/>
<path d="M-0.240034 19.57V19.4H-0.410034V19.84H-0.240034V19.67H-3.38554e-05V19.84H0.169966V19.4H-3.38554e-05V19.57H-0.240034Z" fill="#D22630"/>
<path d="M2.60995 18.94V18.77H2.77995V19.21H2.60995V19.04H2.36995V19.21H2.19995V18.77H2.36995V18.94H2.60995Z" fill="#D22630"/>
<path d="M0.479937 20.92V21.09H0.309937V20.65H0.479937V20.82H0.719936V20.65H0.889936V21.09H0.719936V20.92H0.479937Z" fill="#D22630"/>
<path d="M0.479937 18.94V18.77H0.309937V19.21H0.479937V19.04H0.719936V19.21H0.889936V18.77H0.719936V18.94H0.479937Z" fill="#D22630"/>
<path d="M2.92996 18.93V19.24H3.50996L2.92996 18.93ZM-0.420044 20.62L0.159956 20.93V20.62H-0.420044Z" fill="#FFC72C"/>
<path d="M0.159956 18.93L-0.420044 19.24H0.159956V18.93ZM2.92996 20.62V20.93L3.50996 20.62H2.92996Z" fill="white"/>
<path d="M4.25998 21.24C4.22998 21.38 4.11998 21.48 4.08998 21.62C4.03998 21.47 3.98998 21.35 4.02998 21.19C4.05998 21.07 4.14998 20.99 4.15998 20.87C4.26998 20.97 4.28998 21.1 4.25998 21.24ZM4.28998 21.82C4.19998 21.94 4.07998 22.04 3.93998 22.1C3.96998 21.99 3.91998 21.91 3.85998 21.83C3.78998 21.73 3.75998 21.63 3.80998 21.51C3.83998 21.57 3.86998 21.62 3.90998 21.68C3.96998 21.76 4.00998 21.84 4.01998 21.94C4.08998 21.89 4.11998 21.81 4.15998 21.74C4.21998 21.63 4.30998 21.54 4.40998 21.48C4.37998 21.6 4.35998 21.73 4.28998 21.83V21.82ZM3.78998 22.18C3.80998 22.25 3.82998 22.32 3.81998 22.39C3.87998 22.33 3.95998 22.28 4.02998 22.23C4.12998 22.15 4.23998 22.1 4.31998 22C4.30998 22.15 4.24998 22.26 4.12998 22.35C4.00998 22.44 3.84998 22.49 3.72998 22.59C3.74998 22.46 3.69998 22.35 3.65998 22.23C3.62998 22.11 3.65998 22 3.73998 21.91C3.73998 22.01 3.76998 22.09 3.79998 22.18H3.78998ZM3.50998 22.63C3.47998 22.73 3.40998 22.81 3.35998 22.9C3.48998 22.86 3.60998 22.79 3.72998 22.72C3.86998 22.64 4.02998 22.59 4.15998 22.49C4.09998 22.73 3.93998 22.86 3.69998 22.94C3.53998 22.99 3.40998 22.96 3.20998 23.04C3.22998 22.91 3.26998 22.77 3.32998 22.65C3.37998 22.56 3.42998 22.48 3.45998 22.39C3.49998 22.47 3.51998 22.55 3.49998 22.63H3.50998ZM3.01998 22.99C2.96998 23.07 2.90998 23.13 2.83998 23.19C3.02998 23.2 3.17998 23.08 3.35998 23.08C3.46998 23.08 3.57998 23.11 3.69998 23.1C3.55998 23.19 3.41998 23.27 3.24998 23.29C3.02998 23.32 2.82998 23.26 2.59998 23.29C2.70998 23.21 2.76998 23.11 2.83998 22.99C2.92998 22.85 3.01998 22.75 3.18998 22.72C3.11998 22.8 3.07998 22.9 3.02998 22.99H3.01998ZM2.34998 23.3C2.67998 23.36 2.99998 23.43 3.32998 23.43C2.94998 23.56 2.59998 23.59 2.21998 23.45C2.01998 23.38 1.85998 23.34 1.70998 23.35C1.48998 23.37 1.20998 23.45 0.909978 23.77L0.789978 23.68C1.21998 23.3 1.77998 23.21 2.33998 23.3H2.34998Z" fill="#FFC72C"/>
<mask id="mask1_161_12667" style="mask-type:luminance" maskUnits="userSpaceOnUse" x="-7" y="-1" width="38" height="26">
<path d="M30.03 -0.0200043H-6.03003V24.02H30.03V-0.0200043Z" fill="white"/>
</mask>
<g mask="url(#mask1_161_12667)">
<path d="M4.79001 -1.61V-1.37L4.43001 -1.03L4.55001 -0.920001L4.29001 -0.680001L4.40001 -0.580001V-0.730001H4.62001V-0.550001L4.12001 -0.0800006H3.87001L3.84001 -0.250001H3.99001L3.83001 -0.400001L3.43001 -0.0400006L3.83001 0.319999L3.99001 0.169999H3.84001L3.87001 -5.96046e-07H4.12001L4.62001 0.469999V0.649999H4.40001V0.499999L4.29001 0.599999L4.55001 0.839999L4.43001 0.959999L4.79001 1.3V1.54L4.17001 0.959999L4.29001 0.839999L4.03001 0.599999L4.25001 0.389999L4.10001 0.249999L3.82001 0.509999L3.20001 -0.0600007L3.82001 -0.630001L4.10001 -0.360001L4.25001 -0.500001L4.03001 -0.710001L4.29001 -0.950001L4.17001 -1.06L4.79001 -1.61ZM4.79001 -0.470001V0.419999L4.65001 0.269999V0.0999994H4.50001L4.38001 -0.0300006L4.50001 -0.150001H4.65001V-0.320001L4.79001 -0.470001ZM3.73001 -0.150001L3.75001 -0.0300006L3.73001 0.0899994L3.60001 -0.0300006L3.73001 -0.150001Z" fill="#383739"/>
<path d="M4.79004 -1.58V-1.39L4.40004 -1.03L4.52004 -0.920002L4.26004 -0.680002L4.42004 -0.530002V-0.710002H4.61004V-0.550002L4.12004 -0.0900018H3.89004L3.87004 -0.220002H4.04004L3.84004 -0.410002L3.42004 -0.0200018L3.84004 0.369998L4.04004 0.179998H3.87004L3.89004 0.0499982H4.12004L4.61004 0.509998V0.669998H4.42004V0.489998L4.26004 0.639998L4.52004 0.879998L4.40004 0.999998L4.79004 1.36V1.55L4.20004 0.999998L4.32004 0.879998L4.06004 0.639998L4.28004 0.429998L4.11004 0.269998L3.83004 0.539998L3.23004 -0.0100018L3.83004 -0.560002L4.11004 -0.290002L4.28004 -0.450002L4.06004 -0.660002L4.32004 -0.900002L4.20004 -1.01L4.79004 -1.58ZM4.79004 -0.440002V0.399998L4.66004 0.269998V0.0899982H4.50004L4.39004 -0.0200018L4.50004 -0.130002H4.66004V-0.310002L4.79004 -0.440002ZM3.72004 -0.120002V-0.0300018V0.0599982L3.63004 -0.0300018L3.72004 -0.120002Z" fill="#FFC72C"/>
</g>
</g>
</g>
<defs>
<clipPath id="clip0_161_12667">
<rect width="24" height="24" fill="white"/>
</clipPath>
</defs>
</svg>
