<svg width="24" height="24" viewBox="0 0 24 24" fill="none" xmlns="http://www.w3.org/2000/svg">
<g clip-path="url(#clip0_170_14254)">
<mask id="mask0_170_14254" style="mask-type:luminance" maskUnits="userSpaceOnUse" x="0" y="0" width="24" height="24">
<path d="M12 24C18.6274 24 24 18.6274 24 12C24 5.37258 18.6274 0 12 0C5.37258 0 0 5.37258 0 12C0 18.6274 5.37258 24 12 24Z" fill="white"/>
</mask>
<g mask="url(#mask0_170_14254)">
<path d="M0 0H24V24H0V0Z" fill="black"/>
<path d="M0 4H24V10H0V4ZM0 16H24V24H0V16Z" fill="#FCDC04"/>
<path d="M0 8H24V12H0V8ZM0 20H24V24H0V20Z" fill="#D90000"/>
<path d="M12 15.33C13.8391 15.33 15.33 13.8391 15.33 12C15.33 10.1609 13.8391 8.67 12 8.67C10.1609 8.67 8.66998 10.1609 8.66998 12C8.66998 13.8391 10.1609 15.33 12 15.33Z" fill="white"/>
<path d="M11.41 9.45L11.19 9.05C11.27 8.97 11.41 8.9 11.64 8.9C11.64 8.92 11.62 9.34 11.62 9.34L11.41 9.45Z" fill="#D90000"/>
<path d="M11.41 9.47L11.18 9.04C11.28 8.93 11.44 8.88 11.64 8.88H11.66V8.9C11.66 8.9 11.64 9.29 11.64 9.34L11.41 9.47ZM11.22 9.05L11.42 9.42L11.6 9.32C11.6 9.18 11.62 8.97 11.62 8.91C11.44 8.91 11.3 8.96 11.21 9.04L11.22 9.05Z" fill="black"/>
<path d="M11.62 9.34L11.65 8.9C11.65 8.9 12.1 8.87 12.34 9.17L12.1 9.51L11.62 9.34Z" fill="#FCDC04"/>
<path d="M12.11 9.53L11.6 9.35L11.63 8.88H11.65C11.65 8.88 12.11 8.86 12.35 9.15C12.35 9.15 12.31 9.21333 12.23 9.34L12.1 9.52L12.11 9.53ZM11.64 9.33L12.1 9.49C12.18 9.37 12.29 9.21 12.32 9.17C12.11 8.93 11.75 8.92 11.67 8.92L11.64 9.33Z" fill="black"/>
<path d="M12.11 9.5L12.33 9.16C12.48 9.32 12.54 9.43 12.56 9.59C12.56 9.59 12.21 9.68 12.21 9.67C12.21 9.66 12.11 9.5 12.11 9.5Z" fill="#D90000"/>
<path d="M12.21 9.7H12.2V9.69C12.19 9.67 12.11 9.53 12.1 9.52H12.09V9.5L12.32 9.14L12.34 9.16C12.49 9.32 12.55 9.43 12.58 9.6V9.62C12.57 9.64 12.22 9.71 12.21 9.71V9.7ZM12.13 9.51C12.13 9.51 12.2 9.63 12.22 9.66C12.27 9.66 12.49 9.6 12.54 9.58C12.52 9.43 12.46 9.33 12.33 9.19L12.13 9.5V9.51Z" fill="black"/>
<path d="M11.52 15.14C11.52 15.14 11.93 14.67 12.74 14.77C12.62 14.57 12.23 14.6 12.23 14.6C12.23 14.6 12.11 13.68 12.2 13.63C12.29 13.58 12.7 13.63 12.7 13.63C12.75 13.63 12.84 13.49 12.77 13.39C12.7 13.3 12.49 12.95 12.57 12.88C12.66 12.81 13.13 12.92 13.13 12.92L11.79 11.21C11.79 11.21 11.65 10.57 11.93 10.25C12.26 9.98 12.23 9.68 12.21 9.69C12.16 9.39 11.71 9.17 11.4 9.45C11.22 9.67 11.34 9.84 11.34 9.84C11.34 9.84 10.86 9.97 10.84 10.05C10.82 10.13 11.38 10.03 11.38 10.03L11.33 10.41C11.33 10.41 10.25 11.4 11.08 12.25L11.11 12.21C11.11 12.21 11.4 12.57 11.71 12.65C12 12.95 11.97 12.9 11.97 12.9C11.97 12.9 12.03 13.37 11.97 13.46C11.9 13.44 11.16 13.41 11.05 13.46C10.95 13.49 10.57 13.47 10.67 14.09C10.74 13.92 10.81 13.78 10.81 13.78C10.81 13.78 10.8 14 10.89 14.08C10.87 13.84 10.98 13.69 10.98 13.69C10.98 13.69 11 13.95 11.06 13.99C11.12 14.03 11.12 13.57 11.43 13.61C11.74 13.65 11.97 13.64 11.97 13.64C11.97 13.64 12.08 14.53 12.04 14.61C11.81 14.56 11.27 14.63 11.24 14.77C11.56 14.75 11.71 14.79 11.71 14.79C11.71 14.79 11.45 15.02 11.53 15.15L11.52 15.14Z" fill="black"/>
<path d="M11.52 15.17V15.15C11.44 15.03 11.6 14.86 11.66 14.79C11.6 14.79 11.46 14.76 11.23 14.78H11.21V14.76C11.25 14.6 11.79 14.54 12.02 14.58C12.03 14.48 11.99 13.98 11.95 13.64C11.89 13.64 11.69 13.64 11.42 13.61C11.22 13.59 11.15 13.78 11.12 13.9C11.1 13.96 11.09 13.99 11.07 13.99C11.07 13.99 11.05 13.99 11.04 13.99C10.99 13.96 10.97 13.83 10.96 13.74C10.93 13.8 10.89 13.92 10.9 14.07V14.11L10.87 14.08C10.81 14.03 10.79 13.92 10.79 13.85C10.76 13.91 10.73 14 10.69 14.09L10.67 14.15V14.09C10.57 13.53 10.87 13.48 11.01 13.45C11.03 13.45 11.04 13.45 11.06 13.45C11.17 13.41 11.85 13.43 11.97 13.45C12 13.36 11.97 13.06 11.96 12.93C11.93 12.91 11.87 12.85 11.71 12.68C11.44 12.61 11.19 12.33 11.12 12.25C11.11 12.27 11.1 12.27 11.1 12.27H11.09C10.87 12.04 10.76 11.79 10.77 11.51C10.79 10.94 11.28 10.46 11.34 10.41L11.39 10.06C11.25 10.08 10.92 10.13 10.86 10.08C10.86 10.08 10.85 10.06 10.86 10.05C10.88 9.97 11.23 9.86 11.35 9.83C11.32 9.78 11.27 9.63 11.42 9.44C11.56 9.31 11.76 9.27 11.94 9.34C12.11 9.4 12.23 9.54 12.26 9.68C12.26 9.68 12.3 9.99 11.97 10.27C11.72 10.56 11.83 11.15 11.84 11.2L13.21 12.95H13.16C12.97 12.9 12.67 12.85 12.61 12.9C12.61 12.9 12.6 12.92 12.6 12.93C12.59 13.03 12.75 13.3 12.81 13.38C12.85 13.43 12.85 13.49 12.81 13.56C12.79 13.6 12.75 13.64 12.71 13.64C12.6 13.63 12.29 13.6 12.22 13.64C12.17 13.66 12.2 14.14 12.25 14.57C12.33 14.57 12.65 14.57 12.76 14.75L12.78 14.78H12.74C12.33 14.72 12.03 14.83 11.84 14.92C11.64 15.02 11.54 15.14 11.54 15.14L11.52 15.16V15.17ZM11.41 14.74C11.61 14.74 11.7 14.76 11.71 14.76H11.74L11.71 14.79C11.65 14.85 11.5 15 11.53 15.1C11.57 15.06 11.67 14.97 11.82 14.89C12 14.8 12.3 14.69 12.7 14.74C12.56 14.59 12.23 14.61 12.23 14.61H12.21V14.59C12.18 14.37 12.09 13.65 12.19 13.6C12.29 13.55 12.68 13.6 12.7 13.6C12.71 13.6 12.74 13.58 12.76 13.54C12.76 13.52 12.8 13.45 12.76 13.4C12.71 13.34 12.52 13.05 12.54 12.92C12.54 12.9 12.55 12.88 12.57 12.87C12.65 12.81 12.97 12.87 13.1 12.89L11.79 11.21C11.79 11.21 11.65 10.55 11.93 10.24C12.2 10.01 12.22 9.77 12.22 9.71V9.69C12.2 9.55 12.08 9.42 11.92 9.37C11.75 9.31 11.57 9.34 11.44 9.46C11.27 9.66 11.38 9.82 11.38 9.82L11.4 9.84H11.38C11.15 9.91 10.91 10 10.9 10.05C10.92 10.08 11.19 10.05 11.42 10.01H11.44L11.38 10.42C11.38 10.42 10.84 10.92 10.82 11.51C10.82 11.77 10.91 12.01 11.11 12.23C11.11 12.23 11.11 12.22 11.12 12.21V12.19L11.15 12.21C11.15 12.21 11.44 12.57 11.74 12.64C11.95 12.86 11.99 12.89 11.99 12.89H12V12.91C12 12.99 12.05 13.38 12 13.47H11.99C11.92 13.45 11.19 13.42 11.08 13.47C11.07 13.47 11.05 13.47 11.03 13.48C10.9 13.5 10.65 13.55 10.7 14.02C10.76 13.88 10.81 13.76 10.81 13.76H10.84C10.84 13.76 10.84 13.93 10.88 14.02C10.88 13.81 10.97 13.68 10.97 13.67L11 13.63V13.68C11.01 13.78 11.04 13.93 11.07 13.96C11.07 13.95 11.09 13.92 11.1 13.89C11.14 13.77 11.21 13.55 11.44 13.58C11.75 13.62 11.98 13.61 11.98 13.61H12V13.63C12.01 13.72 12.11 14.53 12.07 14.61L12.06 14.62C11.85 14.57 11.38 14.64 11.29 14.74C11.34 14.74 11.39 14.74 11.43 14.74H11.41Z" fill="black"/>
<path d="M11.65 10.28C11.65 10.28 10.86 11.15 11.2 11.82C11.22 11.73 11.21 11.67 11.22 11.67C11.2 11.66 11.32 11.75 11.31 11.73C11.31 11.68 11.27 11.58 11.27 11.58C11.31 11.58 11.34 11.6 11.38 11.61C11.36 11.57 11.34 11.53 11.32 11.49C11.37 11.49 11.42 11.5 11.47 11.51C11.47 11.51 11.42 11.37 11.43 11.37C11.44 11.37 11.55 11.37 11.55 11.37C11.33 10.97 11.54 10.63 11.64 10.28H11.65Z" fill="#9CA69C"/>
<path d="M11.21 11.87L11.19 11.82C10.85 11.15 11.63 10.27 11.64 10.26L11.67 10.28C11.65 10.35 11.62 10.43 11.6 10.5C11.5 10.78 11.41 11.05 11.58 11.36L11.6 11.39H11.57C11.57 11.39 11.49 11.39 11.46 11.38C11.46 11.4 11.48 11.45 11.5 11.5V11.53L11.36 11.51L11.43 11.63L11.32 11.6C11.32 11.6 11.35 11.69 11.35 11.72L11.34 11.74C11.32 11.75 11.28 11.72 11.25 11.69C11.25 11.72 11.25 11.75 11.24 11.8V11.85L11.21 11.87ZM11.61 10.36C11.44 10.57 10.97 11.22 11.2 11.75C11.2 11.73 11.2 11.71 11.2 11.7C11.2 11.69 11.2 11.68 11.2 11.67L11.22 11.64H11.24V11.66C11.24 11.66 11.27 11.68 11.3 11.7C11.3 11.66 11.28 11.61 11.27 11.59V11.56L11.36 11.59L11.3 11.48L11.46 11.5C11.42 11.39 11.43 11.38 11.43 11.37H11.44C11.45 11.37 11.5 11.37 11.53 11.37C11.37 11.05 11.47 10.78 11.56 10.51C11.58 10.47 11.59 10.42 11.61 10.38V10.36Z" fill="#9CA69C"/>
<path d="M11.92 9.53C11.92 9.53 11.96 9.83 11.8 9.92C11.77 9.94 11.67 9.97 11.69 10.03C11.71 10.11 11.75 10.1 11.82 10.08C11.99 10.05 12.19 9.69 11.93 9.53H11.92Z" fill="#9CA69C"/>
<path d="M11.75 10.11C11.75 10.11 11.72 10.11 11.71 10.1C11.69 10.09 11.68 10.07 11.67 10.03C11.65 9.97 11.73 9.93 11.77 9.91C11.77 9.91 11.79 9.91 11.79 9.9C11.94 9.82 11.9 9.53 11.9 9.53V9.49L11.93 9.51C12.04 9.58 12.08 9.68 12.06 9.81C12.03 9.95 11.92 10.08 11.82 10.1C11.82 10.1 11.78 10.11 11.76 10.11H11.75ZM11.95 9.57C11.95 9.66 11.95 9.86 11.82 9.94C11.82 9.94 11.81 9.94 11.79 9.95C11.75 9.97 11.7 10 11.71 10.03C11.71 10.05 11.72 10.07 11.73 10.08C11.75 10.08 11.77 10.08 11.8 10.08C11.89 10.06 11.99 9.94 12.01 9.82C12.02 9.76 12.02 9.66 11.93 9.58L11.95 9.57Z" fill="#9CA69C"/>
<path d="M11.57 9.85C11.6031 9.85 11.63 9.82314 11.63 9.79C11.63 9.75686 11.6031 9.73 11.57 9.73C11.5369 9.73 11.51 9.75686 11.51 9.79C11.51 9.82314 11.5369 9.85 11.57 9.85Z" fill="white"/>
<path d="M11.38 10.04C11.38 10.04 11.12 10.3 11.33 10.39C11.55 10.33 11.49 10.29 11.54 10.24C11.54 10.14 11.43 10.11 11.37 10.05L11.38 10.04Z" fill="#D90000"/>
<path d="M11.33 10.4C11.27 10.37 11.23 10.34 11.23 10.29C11.21 10.18 11.34 10.05 11.37 10.02H11.38H11.39C11.41 10.04 11.43 10.06 11.45 10.07C11.5 10.1 11.56 10.14 11.56 10.22V10.23C11.55 10.24 11.54 10.25 11.54 10.26C11.52 10.3 11.5 10.34 11.34 10.38L11.33 10.4ZM11.38 10.06C11.38 10.06 11.25 10.21 11.26 10.28C11.26 10.31 11.29 10.34 11.34 10.36C11.49 10.32 11.5 10.29 11.51 10.26C11.51 10.25 11.52 10.23 11.53 10.22C11.53 10.17 11.49 10.14 11.44 10.1C11.42 10.09 11.4 10.07 11.38 10.05V10.06Z" fill="black"/>
<path d="M11.86 12.19C11.86 12.19 11.8 12.42 11.86 12.56C12.05 12.48 12.14 12.5 12.2 12.54C12.04 12.41 11.98 12.36 11.85 12.18L11.86 12.19Z" fill="#9CA69C"/>
<path d="M11.86 12.58V12.56C11.79 12.42 11.83 12.25 11.84 12.19V12.14L11.87 12.17C12 12.35 12.06 12.4 12.22 12.52L12.2 12.55C12.14 12.51 12.06 12.49 11.88 12.57H11.86V12.58ZM11.86 12.23C11.84 12.3 11.82 12.43 11.86 12.54C11.97 12.5 12.04 12.49 12.1 12.49C12.01 12.41 11.95 12.35 11.85 12.23H11.86Z" fill="#9CA69C"/>
<path d="M12.18 13.05V13.47C12.18 13.47 12.34 13.5 12.41 13.47C12.48 13.44 12.41 13.17 12.18 13.05Z" fill="white"/>
<path d="M12.32 13.5C12.26 13.5 12.19 13.49 12.19 13.49H12.18L12.17 13.02L12.2 13.04C12.38 13.14 12.47 13.34 12.46 13.44C12.46 13.48 12.44 13.5 12.42 13.5C12.39 13.5 12.36 13.51 12.33 13.51L12.32 13.5ZM12.21 13.46C12.21 13.46 12.35 13.48 12.4 13.46C12.4 13.46 12.41 13.45 12.41 13.43C12.41 13.35 12.34 13.18 12.19 13.08V13.46H12.21Z" fill="white"/>
<path d="M13.26 13.1C13.26 13.1 12.99 12.44 12.29 12.27C11.59 12.1 11.68 11.36 11.74 11.31C11.77 11.25 11.79 11.15 11.99 11.24C12.19 11.33 13.12 11.8 13.25 11.82C13.38 11.84 13.27 13.1 13.25 13.09L13.26 13.1Z" fill="#9CA69C"/>
<path d="M13.25 13.12H13.24C13.24 13.12 12.96 12.45 12.28 12.29C11.89 12.2 11.75 11.93 11.7 11.72C11.66 11.53 11.68 11.35 11.72 11.31C11.72 11.31 11.72 11.31 11.72 11.3C11.74 11.27 11.75 11.22 11.8 11.21C11.84 11.19 11.91 11.21 11.99 11.24C12.04 11.26 12.12 11.3 12.23 11.35C12.57 11.52 13.15 11.8 13.25 11.82C13.29 11.82 13.31 11.88 13.32 11.99C13.35 12.25 13.3 13.1 13.26 13.12H13.25ZM11.85 11.23C11.85 11.23 11.83 11.23 11.82 11.23C11.79 11.24 11.77 11.27 11.76 11.31C11.76 11.31 11.76 11.32 11.76 11.33C11.74 11.35 11.7 11.53 11.76 11.73C11.81 11.92 11.94 12.17 12.31 12.25C12.89 12.39 13.19 12.88 13.27 13.04C13.3 12.82 13.36 11.99 13.27 11.86C13.27 11.86 13.27 11.86 13.26 11.85C13.16 11.83 12.6 11.56 12.23 11.38C12.13 11.33 12.04 11.29 11.99 11.27C11.94 11.25 11.89 11.23 11.86 11.23H11.85Z" fill="black"/>
<path d="M12.59 12.27C12.59 12.27 13.52 12.83 13.24 13.3C13.51 13.12 13.42 12.81 13.42 12.81C13.42 12.81 13.64 13.38 13.11 13.66C13.17 13.71 13.2 13.7 13.2 13.7L13.11 13.79C13.11 13.79 13.07 13.86 13.43 13.68C13.33 13.76 13.32 13.82 13.32 13.82C13.32 13.82 13.35 13.9 13.58 13.69C13.39 13.89 13.35 14 13.35 14C13.86 13.95 14.98 12.29 13 11.8C13.11 11.91 13.09 11.89 13.09 11.89L12.59 12.27Z" fill="#D90000"/>
<path d="M13.35 14.02H13.34V13.99C13.37 13.94 13.41 13.88 13.46 13.82C13.41 13.85 13.36 13.87 13.34 13.86C13.32 13.86 13.31 13.84 13.31 13.84C13.31 13.84 13.31 13.81 13.35 13.77C13.13 13.87 13.11 13.85 13.1 13.84C13.1 13.84 13.1 13.82 13.1 13.81L13.16 13.74C13.14 13.74 13.12 13.72 13.09 13.7L13.07 13.68H13.09C13.42 13.5 13.46 13.21 13.44 13.03C13.42 13.13 13.38 13.25 13.24 13.34L13.21 13.32C13.32 13.14 13.3 12.82 12.61 12.34C12.56 12.31 12.56 12.31 12.56 12.3V12.29L13.04 11.93C13.04 11.93 13.01 11.89 12.96 11.85L12.92 11.81L12.98 11.83C13.43 11.94 14.18 12.24 14.12 12.99C14.1 13.23 13.99 13.5 13.82 13.72C13.66 13.92 13.48 14.05 13.33 14.07L13.35 14.02ZM13.57 13.68L13.59 13.71C13.5 13.81 13.42 13.91 13.38 13.98C13.65 13.92 14.06 13.45 14.1 12.94C14.14 12.42 13.77 12.03 13.05 11.83C13.07 11.85 13.08 11.86 13.09 11.87L13.1 11.88C13.1 11.88 13.1 11.9 13.1 11.91H13.09V11.92L12.62 12.27C12.62 12.27 12.63 12.27 12.64 12.28C13.01 12.54 13.41 12.9 13.29 13.24C13.47 13.07 13.41 12.83 13.41 12.82H13.44C13.44 12.82 13.65 13.38 13.14 13.67C13.18 13.69 13.2 13.69 13.2 13.69H13.26L13.14 13.79C13.17 13.79 13.25 13.76 13.42 13.67L13.44 13.7C13.37 13.76 13.35 13.8 13.34 13.82C13.36 13.82 13.42 13.82 13.57 13.68Z" fill="black"/>
<path d="M12.63 12.11C12.76 12.2 12.8 12.23 12.82 12.28C12.7 12.25 12.6 12.26 12.6 12.26C12.6 12.26 12.35 12.02 12.3 12C12.27 12 12.07 11.87 12.07 11.87C11.97 11.82 11.88 11.48 12.24 11.58C12.62 11.76 12.67 11.77 12.67 11.77C12.82 11.82 12.97 11.86 13.12 11.91C13.21 12.01 13.29 12.1 13.38 12.2C13.38 12.2 12.92 11.97 12.86 11.97C12.99 12.07 13.06 12.21 13.06 12.21C12.91 12.17 12.79 12.13 12.64 12.11H12.63Z" fill="white"/>
<path d="M12.85 12.3H12.82C12.71 12.27 12.6 12.27 12.6 12.27C12.5 12.18 12.34 12.03 12.31 12.01C12.27 12.01 12.12 11.91 12.07 11.88C12.01 11.85 11.95 11.72 11.98 11.63C12 11.58 12.06 11.51 12.25 11.56C12.62 11.73 12.68 11.75 12.68 11.75L13.13 11.89L13.39 12.18L13.37 12.21C13.24 12.15 13.04 12.05 12.94 12.01C13.03 12.1 13.08 12.2 13.08 12.2L13.1 12.24L13.03 12.22C12.92 12.19 12.82 12.16 12.71 12.14C12.79 12.2 12.83 12.23 12.84 12.27V12.3H12.85ZM12.64 12.24C12.64 12.24 12.73 12.24 12.79 12.25C12.77 12.22 12.72 12.19 12.64 12.14H12.62L12.63 12.1C12.77 12.12 12.88 12.15 13.01 12.19C12.98 12.14 12.92 12.06 12.84 11.99L12.8 11.95H12.86C12.86 11.95 13.16 12.08 13.3 12.15L13.11 11.93L12.67 11.79C12.67 11.79 12.61 11.77 12.24 11.6C12.12 11.57 12.04 11.58 12.01 11.65C11.98 11.72 12.03 11.84 12.08 11.86C12.17 11.92 12.28 11.98 12.3 11.98C12.3 11.98 12.56 12.2 12.6 12.24C12.6 12.24 12.62 12.24 12.63 12.24H12.64Z" fill="black"/>
<path d="M10.85 10.07C10.85 10.07 11.29 9.96 11.34 9.98L10.85 10.07Z" fill="black"/>
<path d="M10.85 10.09V10.06C10.92 10.04 11.29 9.95 11.34 9.97V10C11.34 10 11.06 10.04 10.85 10.09Z" fill="white"/>
</g>
</g>
<defs>
<clipPath id="clip0_170_14254">
<rect width="24" height="24" fill="white"/>
</clipPath>
</defs>
</svg>
