<svg width="24" height="24" viewBox="0 0 24 24" fill="none" xmlns="http://www.w3.org/2000/svg">
<g clip-path="url(#clip0_170_14309)">
<mask id="mask0_170_14309" style="mask-type:luminance" maskUnits="userSpaceOnUse" x="0" y="0" width="24" height="24">
<path d="M12 24C18.6274 24 24 18.6274 24 12C24 5.37259 18.6274 7.62939e-06 12 7.62939e-06C5.37258 7.62939e-06 0 5.37259 0 12C0 18.6274 5.37258 24 12 24Z" fill="white"/>
</mask>
<g mask="url(#mask0_170_14309)">
<path d="M34.99 -0.179993H-1.53998V24.17H34.99V-0.179993Z" fill="#00732F"/>
<path d="M34.99 7.94001H-1.53998V24.18H34.99V7.94001Z" fill="white"/>
<path d="M34.99 16.06H-1.53998V24.18H34.99V16.06Z" fill="black"/>
<path d="M7.59002 -0.179993H-1.53998V24.17H7.59002V-0.179993Z" fill="#FF0000"/>
</g>
</g>
<defs>
<clipPath id="clip0_170_14309">
<rect width="24" height="24" fill="white"/>
</clipPath>
</defs>
</svg>
