<svg width="24" height="24" viewBox="0 0 24 24" fill="none" xmlns="http://www.w3.org/2000/svg">
<g clip-path="url(#clip0_104_17683)">
<mask id="mask0_104_17683" style="mask-type:luminance" maskUnits="userSpaceOnUse" x="0" y="0" width="24" height="24">
<path d="M12 24C18.6274 24 24 18.6274 24 12C24 5.37258 18.6274 0 12 0C5.37258 0 0 5.37258 0 12C0 18.6274 5.37258 24 12 24Z" fill="white"/>
</mask>
<g mask="url(#mask0_104_17683)">
<path d="M38.25 -1.21001H-4.48999V25.21H38.25V-1.21001Z" fill="white"/>
<path d="M32.9 2.03H12.03V4.58H32.9V2.03Z" fill="#0038A8"/>
<path d="M32.9 7.82999H12.03V10.38H32.9V7.82999Z" fill="#0038A8"/>
<path d="M32.91 13.62H-4.48999V16.17H32.91V13.62Z" fill="#0038A8"/>
<path d="M32.91 19.42H-4.48999V21.97H32.91V19.42Z" fill="#0038A8"/>
<path fill-rule="evenodd" clip-rule="evenodd" d="M6.98001 7.07999L7.09001 8.83999C5.46001 10.01 6.47001 10.71 5.29001 11.09C6.09001 10.3 5.05001 10.3 5.95001 8.49999L6.99001 7.07999H6.98001Z" fill="#ECC705"/>
<path fill-rule="evenodd" clip-rule="evenodd" d="M5.52999 10.22C5.48999 9.86999 5.42999 9.42999 5.90999 8.49999L5.97999 8.52999C5.52999 9.46999 5.56999 9.87999 5.62999 10.22H5.52999ZM5.24999 11.09L5.31999 11.13C5.69999 10.75 5.66999 10.51 5.62999 10.23H5.52999C5.59999 10.51 5.59999 10.72 5.24999 11.09ZM5.31999 11.12L5.14999 11.19L5.25999 11.09H5.28999L5.32999 11.13L5.31999 11.12ZM6.03999 10.33C5.92999 10.71 5.86999 10.95 5.30999 11.12L5.26999 11.05C5.78999 10.88 5.85999 10.64 5.92999 10.33H6.03999ZM7.11999 8.87999L7.04999 8.80999C6.18999 9.42999 6.04999 9.94999 5.93999 10.33H6.04999C6.14999 9.97999 6.25999 9.49999 7.11999 8.87999ZM7.11999 8.83999V8.87999L7.07999 8.83999H7.11999ZM7.01999 7.07999L7.11999 8.83999H7.04999L6.90999 7.07999H7.01999Z" fill="#36373A"/>
<path fill-rule="evenodd" clip-rule="evenodd" d="M5.87 10.16C5.8 10.61 5.73 10.95 5.32 11.13L5.28 11.06C5.66 10.89 5.69 10.57 5.77 10.13L5.87 10.17V10.16ZM6.42 8.42999L6.35 8.39999C5.93 9.11999 5.83 9.70999 5.76 10.12L5.86 10.16C5.9 9.70999 6 9.15999 6.41 8.42999H6.42Z" fill="#36373A"/>
<path fill-rule="evenodd" clip-rule="evenodd" d="M6.98 7.07999L6.84 5.27999C8.46 4.10999 7.46 3.40999 8.64 3.03999C7.87 3.85999 8.88 3.86999 7.98 5.62999L6.98 7.07999Z" fill="#ECC705"/>
<path fill-rule="evenodd" clip-rule="evenodd" d="M8.40002 3.91C8.43002 4.26 8.50002 4.71 8.02002 5.67L7.95002 5.64C8.40002 4.71 8.36002 4.26 8.30002 3.95L8.41002 3.91H8.40002ZM8.67002 3.08L8.60002 3.01C8.22002 3.42 8.25002 3.63 8.29002 3.94L8.39002 3.9C8.32002 3.62 8.32002 3.45 8.67002 3.07V3.08ZM8.60002 3.01L8.77002 2.98L8.67002 3.08L8.64002 3.05L8.60002 3.01ZM7.87002 3.8C7.98002 3.45 8.05002 3.18 8.60002 3.01L8.64002 3.08C8.12002 3.25 8.05002 3.49 7.98002 3.84L7.87002 3.8ZM6.81002 5.29L6.88002 5.33C7.74002 4.71 7.88002 4.23 7.98002 3.85L7.87002 3.81C7.80002 4.19 7.66002 4.67 6.80002 5.29H6.81002ZM6.81002 5.32V5.28H6.84002L6.81002 5.32ZM6.91002 7.08L6.81002 5.32L6.88002 5.28L7.02002 7.08H6.91002Z" fill="#36373A"/>
<path fill-rule="evenodd" clip-rule="evenodd" d="M8.09 4.00999C8.16 3.52999 8.19 3.21999 8.61 3.00999L8.65 3.07999C8.27 3.24999 8.23 3.56999 8.16 4.00999H8.09ZM7.5 5.69999L7.57 5.73999C7.98 5.00999 8.09 4.45999 8.16 4.00999H8.09C8.02 4.41999 7.92 4.97999 7.5 5.69999Z" fill="#36373A"/>
<path fill-rule="evenodd" clip-rule="evenodd" d="M6.97999 7.07999L5.17999 7.17999C4.00999 5.55999 3.31999 6.55999 2.92999 5.37999C3.75999 6.17999 3.72999 5.16999 5.51999 6.03999L6.96999 7.06999L6.97999 7.07999Z" fill="#ECC705"/>
<path fill-rule="evenodd" clip-rule="evenodd" d="M3.80002 5.66999C4.15002 5.59999 4.60002 5.52999 5.56002 6.01999L5.49002 6.08999C4.56002 5.63999 4.14002 5.70999 3.83002 5.74999L3.79002 5.67999L3.80002 5.66999ZM2.97002 5.38999L2.90002 5.42999C3.31002 5.80999 3.52002 5.76999 3.83002 5.73999L3.79002 5.66999C3.51002 5.70999 3.34002 5.73999 2.96002 5.38999H2.97002ZM2.90002 5.42999L2.83002 5.28999L2.96002 5.38999H2.92002L2.89002 5.42999H2.90002ZM3.70002 6.14999C3.36002 6.04999 3.08002 5.97999 2.91002 5.42999L2.98002 5.38999C3.15002 5.90999 3.39002 5.97999 3.71002 6.07999V6.14999H3.70002ZM5.15002 7.21999L5.22002 7.17999C4.60002 6.27999 4.12002 6.17999 3.70002 6.07999V6.14999C4.08002 6.24999 4.56002 6.35999 5.15002 7.21999ZM5.18002 7.25999L5.14002 7.21999L5.18002 7.17999V7.24999V7.25999ZM6.98002 7.11999L5.18002 7.25999V7.14999L6.94002 7.04999L6.97002 7.11999H6.98002Z" fill="#36373A"/>
<path fill-rule="evenodd" clip-rule="evenodd" d="M3.91 5.97998C3.42 5.90998 3.12 5.83998 2.91 5.42998L2.98 5.38998C3.15 5.76998 3.47 5.83998 3.92 5.87998V5.97998H3.91ZM5.6 6.56998L5.64 6.49998C4.91 6.04998 4.36 5.94998 3.92 5.87998V5.98998C4.33 6.05998 4.89 6.12998 5.61 6.57998L5.6 6.56998Z" fill="#36373A"/>
<path fill-rule="evenodd" clip-rule="evenodd" d="M6.98 7.07999L8.74 6.93999C9.91 8.55999 10.6 7.59999 10.98 8.73999C10.15 7.97999 10.19 8.97999 8.39 8.07999L6.97 7.07999H6.98Z" fill="#ECC705"/>
<path fill-rule="evenodd" clip-rule="evenodd" d="M10.12 8.49999C9.77 8.52999 9.32 8.59999 8.39 8.11999L8.43 8.04999C9.36 8.52999 9.78 8.45999 10.09 8.42999L10.13 8.49999H10.12ZM10.95 8.77999L11.02 8.70999C10.61 8.32999 10.4 8.36999 10.09 8.42999L10.13 8.49999C10.41 8.45999 10.61 8.42999 10.96 8.77999H10.95ZM11.02 8.73999L11.09 8.87999L10.95 8.77999L10.98 8.73999H11.02ZM10.22 8.00999C10.56 8.07999 10.84 8.14999 11.01 8.73999H10.94C10.77 8.21999 10.53 8.14999 10.21 8.07999V8.00999H10.22ZM8.77 6.90999L8.7 6.97999C9.32 7.83999 9.8 7.97999 10.22 8.07999V8.00999C9.84 7.90999 9.36 7.76999 8.77 6.90999ZM8.74 6.90999H8.77L8.74 6.94999V6.90999ZM6.94 7.04999L8.74 6.90999V6.97999L6.98 7.11999L6.95 7.04999H6.94Z" fill="#36373A"/>
<path fill-rule="evenodd" clip-rule="evenodd" d="M10.05 8.19C10.5 8.26 10.81 8.29 11.02 8.74L10.95 8.78C10.78 8.37 10.46 8.33 10.01 8.26L10.05 8.19ZM8.32001 7.6L8.29001 7.67C9.02001 8.12 9.60001 8.19 10.01 8.25L10.05 8.18C9.60001 8.11 9.05001 8.01 8.32001 7.59V7.6Z" fill="#36373A"/>
<path fill-rule="evenodd" clip-rule="evenodd" d="M6.98 7.07999L5.81 8.42999C3.81 8.08999 4.01 9.28999 2.94 8.73999C4.08 8.69999 3.36 8.00999 5.22 7.35999L6.98 7.07999Z" fill="#ECC705"/>
<path fill-rule="evenodd" clip-rule="evenodd" d="M3.73001 8.28999C3.94001 8.00999 4.21001 7.66999 5.21001 7.31999L5.25001 7.38999C4.25001 7.72999 3.97001 8.07999 3.80001 8.35999L3.73001 8.28999ZM2.94001 8.69999V8.76999C3.49001 8.76999 3.63001 8.59999 3.80001 8.35999L3.73001 8.28999C3.56001 8.52999 3.45001 8.66999 2.93001 8.69999H2.94001ZM2.90001 8.77999L2.76001 8.70999H2.93001V8.74999L2.90001 8.78999V8.77999ZM4.01001 8.73999C3.70001 8.90999 3.46001 9.04999 2.91001 8.77999L2.94001 8.70999C3.46001 8.94999 3.67001 8.84999 3.94001 8.67999L4.01001 8.74999V8.73999ZM5.80001 8.45999V8.35999C4.73001 8.18999 4.28001 8.45999 3.93001 8.66999L4.00001 8.73999C4.31001 8.52999 4.76001 8.28999 5.80001 8.45999ZM5.84001 8.42999L5.80001 8.45999V8.42999H5.84001ZM6.98001 7.07999L5.84001 8.42999L5.77001 8.38999L6.95001 7.03999L6.98001 7.07999Z" fill="#36373A"/>
<path fill-rule="evenodd" clip-rule="evenodd" d="M4.01 8.45999C3.63 8.73999 3.39 8.94999 2.94 8.77999V8.70999C3.36 8.84999 3.6 8.67999 3.98 8.39999L4.02 8.45999H4.01ZM5.63 7.66999L5.59 7.59999C4.76 7.80999 4.32 8.14999 3.97 8.38999L4.01 8.45999C4.35 8.21999 4.8 7.86999 5.63 7.66999Z" fill="#36373A"/>
<path fill-rule="evenodd" clip-rule="evenodd" d="M6.98 7.07999L8.12 5.72999C10.12 6.03999 9.92 4.82999 10.98 5.37999C9.84 5.41999 10.57 6.13999 8.7 6.75999L6.97 7.06999L6.98 7.07999Z" fill="#ECC705"/>
<path fill-rule="evenodd" clip-rule="evenodd" d="M10.19 5.83999C9.98 6.11999 9.71 6.45999 8.71 6.80999L8.67 6.73999C9.67 6.42999 9.95 6.04999 10.12 5.80999L10.19 5.83999ZM10.98 5.45999V5.35999C10.43 5.38999 10.32 5.56999 10.12 5.80999L10.19 5.83999C10.36 5.62999 10.47 5.45999 10.98 5.45999ZM11.02 5.35999L11.16 5.42999L10.99 5.45999V5.38999L11.03 5.35999H11.02ZM9.91 5.42999C10.26 5.21999 10.46 5.11999 11.01 5.35999L10.97 5.42999C10.45 5.18999 10.25 5.31999 9.97 5.48999L9.9 5.42999H9.91ZM8.12 5.69999V5.76999C9.19 5.93999 9.64 5.69999 9.98 5.48999L9.91 5.42999C9.6 5.59999 9.15 5.86999 8.11 5.69999H8.12ZM8.09 5.69999H8.12V5.73999L8.09 5.69999ZM6.94 7.04999L8.08 5.69999L8.15 5.76999L6.97 7.07999L6.94 7.03999V7.04999Z" fill="#36373A"/>
<path fill-rule="evenodd" clip-rule="evenodd" d="M9.91001 5.66998C10.29 5.38998 10.57 5.21999 10.98 5.35999V5.42998C10.57 5.28998 10.32 5.48998 9.95001 5.73998L9.91001 5.66998ZM8.29001 6.45999L8.32001 6.55998C9.15001 6.34998 9.60001 6.00998 9.95001 5.72998L9.91001 5.65998C9.57001 5.93998 9.12001 6.27999 8.29001 6.45999Z" fill="#36373A"/>
<path fill-rule="evenodd" clip-rule="evenodd" d="M6.98 7.07999L5.63 5.89999C5.94 3.89999 4.73 4.10999 5.28 3.03999C5.32 4.17999 6.04 3.44999 6.67 5.31999L6.98 7.07999Z" fill="#ECC705"/>
<path fill-rule="evenodd" clip-rule="evenodd" d="M5.73002 3.83999C6.01002 4.04999 6.35002 4.31999 6.70002 5.31999L6.63002 5.35999C6.28002 4.35999 5.94002 4.11999 5.69002 3.90999L5.73002 3.83999ZM5.32002 3.04999H5.25002C5.28002 3.59999 5.46002 3.73999 5.70002 3.90999L5.74002 3.83999C5.50002 3.66999 5.36002 3.55999 5.33002 3.04999H5.32002ZM5.25002 3.04999L5.32002 2.90999V3.04999H5.25002ZM5.32002 4.11999C5.11002 3.80999 4.98002 3.56999 5.25002 3.04999L5.32002 3.07999C5.08002 3.56999 5.22002 3.76999 5.39002 4.07999L5.32002 4.11999ZM5.60002 5.90999H5.67002C5.84002 4.83999 5.57002 4.42999 5.39002 4.07999L5.32002 4.11999C5.49002 4.42999 5.73002 4.87999 5.60002 5.90999ZM5.60002 5.93999V5.89999H5.64002L5.60002 5.93999ZM6.94002 7.11999L5.59002 5.93999L5.66002 5.86999L6.97002 7.04999L6.94002 7.11999Z" fill="#36373A"/>
<path fill-rule="evenodd" clip-rule="evenodd" d="M5.56 4.11999C5.28 3.73999 5.11 3.49999 5.25 3.04999H5.32C5.18 3.45999 5.36 3.70999 5.63 4.07999L5.56 4.11999ZM6.36 5.73999H6.46C6.25 4.87999 5.91 4.42999 5.63 4.07999L5.56 4.11999C5.84 4.45999 6.18 4.90999 6.35 5.73999H6.36Z" fill="#36373A"/>
<path fill-rule="evenodd" clip-rule="evenodd" d="M6.98001 7.07999L8.29001 8.21999C7.98001 10.22 9.19001 10.02 8.64001 11.08C8.60001 9.97999 7.87001 10.7 7.26001 8.79999L6.98001 7.07999Z" fill="#ECC705"/>
<path fill-rule="evenodd" clip-rule="evenodd" d="M8.19001 10.3C7.91001 10.13 7.57001 9.84999 7.22001 8.80999H7.29001C7.64001 9.77999 7.98001 10.05 8.22001 10.26L8.19001 10.3ZM8.60001 11.09H8.67001C8.64001 10.54 8.46001 10.43 8.22001 10.26L8.19001 10.3C8.43001 10.47 8.57001 10.61 8.60001 11.09ZM8.67001 11.12L8.60001 11.26V11.09H8.64001L8.67001 11.13V11.12ZM8.60001 10.05C8.81001 10.36 8.94001 10.61 8.67001 11.12L8.60001 11.08C8.84001 10.6 8.70001 10.35 8.53001 10.08L8.60001 10.04V10.05ZM8.32001 8.25999L8.25001 8.22999C8.08001 9.29999 8.35001 9.74999 8.53001 10.09L8.60001 10.05C8.43001 9.70999 8.19001 9.28999 8.32001 8.24999V8.25999ZM8.32001 8.18999L8.36001 8.22999L8.32001 8.25999L8.29001 8.22999L8.32001 8.18999ZM6.98001 7.04999L8.33001 8.18999L8.30001 8.25999L6.95001 7.11999L6.98001 7.04999Z" fill="#36373A"/>
<path fill-rule="evenodd" clip-rule="evenodd" d="M8.35999 10.01C8.63999 10.39 8.80999 10.67 8.66999 11.12L8.59999 11.08C8.73999 10.67 8.55999 10.42 8.28999 10.08L8.35999 10.01ZM7.55999 8.38998L7.48999 8.42998C7.65999 9.25998 8.00999 9.70998 8.27999 10.09L8.34999 10.02C8.07999 9.66998 7.76999 9.22998 7.55999 8.38998Z" fill="#36373A"/>
<path fill-rule="evenodd" clip-rule="evenodd" d="M6.97999 7.07999H7.73999L6.97999 11.43L6.17999 7.07999H6.97999V11.43V7.07999Z" fill="#ECC705"/>
<path fill-rule="evenodd" clip-rule="evenodd" d="M7.02 11.43H6.91V7.07999H7.02V11.43ZM6.98 7.04999V7.08999H7.02V7.04999H6.98ZM6.18 7.04999V7.11999H6.97V7.04999H6.18ZM6.12 7.04999H6.19V7.08999H6.12V7.04999ZM6.91 11.43H7.02L6.22 7.07999H6.12L6.91 11.43ZM7.02 11.43H6.91L6.98 11.64L7.02 11.43ZM7.8 7.07999H7.7L6.91 11.43H7.02L7.81 7.07999H7.8ZM7.74 7.04999H7.81V7.08999H7.74V7.04999ZM6.98 7.04999V7.11999H7.74V7.04999H6.98Z" fill="#36373A"/>
<path fill-rule="evenodd" clip-rule="evenodd" d="M6.97999 7.08H6.17999L6.97999 2.7L7.73999 7.08H6.97999V2.7V7.08Z" fill="#ECC705"/>
<path fill-rule="evenodd" clip-rule="evenodd" d="M6.91002 2.69999H7.02002V7.07999H6.91002V2.69999ZM6.98002 7.11999V7.07999H6.91002V7.11999H6.98002ZM7.74002 7.11999V7.04999H6.98002V7.11999H7.74002ZM7.80002 7.11999H7.73002V7.07999H7.80002V7.11999ZM7.02002 2.69999L6.91002 2.73999L7.70002 7.08999H7.80002L7.01002 2.70999L7.02002 2.69999ZM6.91002 2.69999H7.02002L6.98002 2.48999L6.91002 2.69999ZM6.12002 7.07999H6.22002L7.02002 2.72999L6.91002 2.68999L6.12002 7.06999V7.07999ZM6.18002 7.11999H6.11002V7.07999H6.18002V7.11999ZM6.98002 7.11999V7.04999H6.19002V7.11999H6.98002Z" fill="#36373A"/>
<path fill-rule="evenodd" clip-rule="evenodd" d="M6.98 7.07999V7.87999L2.59 7.07999L6.98 6.28999V7.07999H2.59H6.98Z" fill="#ECC705"/>
<path fill-rule="evenodd" clip-rule="evenodd" d="M6.98001 7.11999H2.60001V7.04999H6.98001V7.11999ZM7.02001 7.11999V7.07999H6.98001V7.11999H7.02001ZM7.02001 7.07999V6.28999H6.91V7.07999H7.02001ZM6.94001 6.24999L7.01 6.20999V6.27999H6.97001L6.94001 6.23999V6.24999ZM2.59 7.04999L2.63 7.11999L6.98001 6.32999L6.95 6.25999L2.60001 7.04999H2.59ZM2.59 7.11999V7.04999L2.38 7.08999L2.59 7.12999V7.11999ZM6.94001 7.90999L6.97001 7.83999L2.62001 7.03999L2.58001 7.10999L6.93001 7.89999L6.94001 7.90999ZM7.02001 7.87999V7.91999H6.95L6.98001 7.87999H7.02001ZM7.02001 7.07999H6.91V7.86999H7.02001V7.07999Z" fill="#36373A"/>
<path fill-rule="evenodd" clip-rule="evenodd" d="M6.98001 7.07999V6.28999L11.33 7.07999L6.98001 7.87999V7.07999H11.33H6.98001Z" fill="#ECC705"/>
<path fill-rule="evenodd" clip-rule="evenodd" d="M6.98 7.04999H11.33V7.11999H6.98V7.04999ZM6.91 7.04999V7.08999H6.98V7.04999H6.91ZM6.91 7.07999V7.86999H7.02V7.07999H6.91ZM6.98 7.90999H6.91V7.86999H6.98V7.90999ZM11.33 7.11999L11.29 7.04999L6.94 7.84999L6.97 7.91999L11.32 7.12999L11.33 7.11999ZM11.33 7.04999V7.11999L11.54 7.07999L11.33 7.03999V7.04999ZM6.98 6.24999L6.95 6.31999L11.3 7.10999L11.34 7.03999L6.99 6.24999H6.98ZM6.91 6.28999V6.21999L6.98 6.25999V6.29999H6.91V6.28999ZM6.91 7.07999H7.02V6.28999H6.91V7.07999Z" fill="#36373A"/>
<path fill-rule="evenodd" clip-rule="evenodd" d="M6.98 7.07998L7.53 7.63999L3.87 10.16L6.39 6.49998L6.98 7.07998L3.87 10.16L6.98 7.07998Z" fill="#ECC705"/>
<path fill-rule="evenodd" clip-rule="evenodd" d="M6.98001 7.11999L3.91001 10.19L3.87001 10.12L6.94001 7.04999L6.97001 7.11999H6.98001ZM6.98001 7.04999V7.11999L7.02001 7.07999L6.98001 7.03999V7.04999ZM6.42001 6.49999L6.35001 6.53999L6.94001 7.12999L6.97001 7.05999L6.42001 6.50999V6.49999ZM6.36001 6.49999L6.40001 6.46999L6.43001 6.49999H6.36001ZM3.84001 10.12L3.91001 10.19L6.43001 6.52999L6.36001 6.48999L3.84001 10.12ZM3.91001 10.19L3.87001 10.16L3.83001 10.12L3.73001 10.33L3.90001 10.19H3.91001ZM7.53001 7.66999L7.49001 7.59999L3.86001 10.12L3.90001 10.19L7.53001 7.66999ZM7.56001 7.59999L7.60001 7.63999L7.53001 7.67999V7.63999L7.56001 7.59999ZM6.98001 7.04999L6.95001 7.11999L7.50001 7.66999L7.57001 7.59999L6.98001 7.04999Z" fill="#36373A"/>
<path fill-rule="evenodd" clip-rule="evenodd" d="M6.98001 7.08L6.39001 6.5L10.05 3.98L7.53001 7.64L6.98001 7.08L10.05 3.98L6.98001 7.08Z" fill="#ECC705"/>
<path fill-rule="evenodd" clip-rule="evenodd" d="M6.94001 7.05L10.01 3.98L10.08 4.01L6.97001 7.12L6.94001 7.05ZM6.94001 7.12L6.97001 7.08L6.94001 7.04L6.90001 7.08L6.94001 7.12ZM7.50001 7.67L7.57001 7.6L6.98001 7.05L6.95001 7.12L7.50001 7.67ZM7.56001 7.67L7.53001 7.71L7.49001 7.67L7.53001 7.63L7.56001 7.67ZM10.09 4.01L10.02 3.98L7.50001 7.6L7.57001 7.67L10.09 4.01ZM10.01 3.94L10.05 3.98L10.09 4.01L10.19 3.84L10.02 3.94H10.01ZM6.39001 6.5L6.42001 6.54L10.05 4.02L10.01 3.95L6.39001 6.5ZM6.36001 6.53V6.49H6.40001L6.36001 6.53ZM6.94001 7.12L6.97001 7.05L6.42001 6.5L6.35001 6.54L6.94001 7.13V7.12Z" fill="#36373A"/>
<path fill-rule="evenodd" clip-rule="evenodd" d="M6.98 7.08L6.39 7.64L3.87 3.98L7.53 6.5L6.98 7.08L3.87 3.98L6.98 7.08Z" fill="#ECC705"/>
<path fill-rule="evenodd" clip-rule="evenodd" d="M6.94 7.12L3.87 4.01L3.91 3.98L6.98 7.05L6.95 7.12H6.94ZM6.98 7.12V7.08L6.95 7.12H6.98ZM7.56 6.53L7.49 6.49L6.94 7.04L6.97 7.11L7.56 6.52V6.53ZM7.53 6.5H7.6L7.56 6.54L7.53 6.5ZM3.91 3.94L3.87 4.01L7.5 6.53L7.54 6.49L3.91 3.94ZM3.84 4.01L3.88 3.98L3.92 3.94L3.75 3.84L3.85 4.01H3.84ZM6.36 7.67L6.43 7.6L3.91 3.98L3.84 4.01L6.36 7.67ZM6.42 7.67L6.39 7.71L6.35 7.67L6.39 7.63L6.42 7.67ZM6.98 7.12L6.95 7.05L6.36 7.6L6.43 7.67L6.98 7.12Z" fill="#36373A"/>
<path fill-rule="evenodd" clip-rule="evenodd" d="M6.98001 7.07998L7.53001 6.49998L10.05 10.16L6.39001 7.63999L6.98001 7.07998L10.05 10.16L6.98001 7.07998Z" fill="#ECC705"/>
<path fill-rule="evenodd" clip-rule="evenodd" d="M6.98001 7.04999L10.09 10.12L10.02 10.19L6.95001 7.11999L6.98001 7.04999ZM6.94001 7.04999L6.97001 7.08999V7.01999L6.94001 7.05999V7.04999ZM6.36001 7.59999L6.43001 7.66999L6.98001 7.11999L6.95001 7.04999L6.36001 7.59999ZM6.39001 7.66999L6.35001 7.62999V7.58999L6.39001 7.62999V7.66999ZM10.01 10.19L10.05 10.12L6.42001 7.59999L6.39001 7.66999L10.01 10.19ZM10.09 10.12L10.05 10.16L10.01 10.19L10.18 10.33L10.08 10.12H10.09ZM7.56001 6.49999L7.49001 6.53999L10.01 10.2L10.08 10.13L7.56001 6.49999ZM7.50001 6.49999L7.54001 6.46999L7.57001 6.49999H7.50001ZM6.94001 7.04999L6.97001 7.11999L7.56001 6.52999L7.49001 6.48999L6.94001 7.03999V7.04999Z" fill="#36373A"/>
<path fill-rule="evenodd" clip-rule="evenodd" d="M8.43 7.07999C8.43 6.24999 7.77 5.62999 6.98 5.62999C6.19 5.62999 5.5 6.24999 5.5 7.07999C5.5 7.90999 6.16 8.52999 6.98 8.52999C7.77 8.52999 8.43 7.86999 8.43 7.07999Z" fill="#ECC705"/>
<path fill-rule="evenodd" clip-rule="evenodd" d="M7.94001 8.08999C8.22001 7.80999 8.35001 7.46999 8.35001 7.08999H8.45001C8.45001 7.49999 8.28001 7.84999 8.00001 8.12999L7.93001 8.08999H7.94001ZM6.98001 8.49999V8.56999C7.36001 8.56999 7.74001 8.39999 8.02001 8.11999L7.95001 8.07999C7.71001 8.31999 7.37001 8.48999 6.98001 8.48999V8.49999ZM5.98001 8.08999C6.22001 8.32999 6.56001 8.49999 6.98001 8.49999V8.56999C6.57001 8.56999 6.19001 8.39999 5.91001 8.11999L5.98001 8.07999V8.08999ZM5.56001 7.07999H5.45001C5.45001 7.48999 5.62001 7.83999 5.90001 8.11999L5.97001 8.07999C5.69001 7.79999 5.56001 7.45999 5.56001 7.07999ZM5.98001 6.07999C5.70001 6.31999 5.57001 6.66999 5.57001 7.07999H5.46001C5.46001 6.66999 5.63001 6.28999 5.91001 6.00999L5.98001 6.07999ZM6.98001 5.66999V5.56999C6.57001 5.56999 6.19001 5.73999 5.91001 6.01999L5.98001 6.08999C6.22001 5.81999 6.56001 5.67999 6.98001 5.67999V5.66999ZM7.94001 6.07999C7.70001 5.80999 7.36001 5.66999 6.97001 5.66999V5.56999C7.35001 5.56999 7.73001 5.73999 8.01001 6.01999L7.94001 6.08999V6.07999ZM8.36001 7.07999H8.46001C8.46001 6.66999 8.29001 6.28999 8.01001 6.00999L7.94001 6.07999C8.22001 6.31999 8.35001 6.66999 8.35001 7.07999H8.36001Z" fill="#36373A"/>
<path fill-rule="evenodd" clip-rule="evenodd" d="M8.01001 6.49999C7.94001 6.59999 7.87001 6.42999 7.56001 6.42999C7.22001 6.42999 7.18001 6.60999 7.11001 6.56999C7.07001 6.52999 7.38001 6.28999 7.49001 6.28999C7.59001 6.24999 7.90001 6.35999 8.01001 6.49999Z" fill="#36373A"/>
<path fill-rule="evenodd" clip-rule="evenodd" d="M7.64 6.59999C7.74 6.70999 7.67 6.87999 7.57 6.87999C7.47 6.87999 7.29 6.70999 7.4 6.59999H7.64Z" fill="#36373A"/>
<path fill-rule="evenodd" clip-rule="evenodd" d="M7.22 6.73998C7.22 6.56998 7.36 6.52998 7.56 6.52998C7.76 6.52998 7.87 6.69998 7.94 6.73998C7.87 6.73998 7.77 6.60998 7.56 6.60998C7.35 6.60998 7.35 6.60998 7.22 6.73998Z" fill="#36373A"/>
<path fill-rule="evenodd" clip-rule="evenodd" d="M7.26001 6.76999C7.29001 6.69999 7.36001 6.83999 7.54001 6.83999C7.67001 6.83999 7.75001 6.79999 7.85001 6.72999C7.92001 6.65999 7.71001 6.89999 7.57001 6.89999C7.43001 6.89999 7.23001 6.79999 7.26001 6.75999V6.76999Z" fill="#36373A"/>
<path fill-rule="evenodd" clip-rule="evenodd" d="M7.70001 6.83999C7.87001 6.76999 7.77001 6.62999 7.70001 6.59999C7.74001 6.62999 7.84001 6.76999 7.70001 6.83999Z" fill="#36373A"/>
<path fill-rule="evenodd" clip-rule="evenodd" d="M6.98 7.63999C7.05 7.63999 7.09 7.59999 7.19 7.59999C7.29 7.59999 7.54 7.76999 7.67 7.70999C7.36 7.84999 7.5 7.73999 6.98 7.73999H6.91L6.98 7.63999Z" fill="#36373A"/>
<path fill-rule="evenodd" clip-rule="evenodd" d="M7.74001 7.83999C7.67001 7.72999 7.70001 7.76999 7.57001 7.59999C7.71001 7.70999 7.71001 7.73999 7.74001 7.83999Z" fill="#36373A"/>
<path fill-rule="evenodd" clip-rule="evenodd" d="M6.98 7.94999C7.29 7.94999 7.26 7.87999 7.67 7.70999C7.36 7.73999 7.29 7.84999 6.98 7.84999H6.91L6.98 7.94999Z" fill="#36373A"/>
<path fill-rule="evenodd" clip-rule="evenodd" d="M6.98001 7.45999C7.05001 7.45999 7.09001 7.38999 7.19001 7.38999C7.29001 7.38999 7.43001 7.42999 7.50001 7.48999C7.54001 7.48999 7.46001 7.38999 7.36001 7.38999C7.26001 7.34999 7.29001 7.17999 7.19001 7.14999C7.19001 7.21999 7.23001 7.21999 7.23001 7.28999C7.23001 7.35999 7.13001 7.35999 7.09001 7.28999C7.13001 7.38999 7.02001 7.38999 6.98001 7.38999V7.45999Z" fill="#36373A"/>
<path fill-rule="evenodd" clip-rule="evenodd" d="M5.91 6.49999C5.98 6.59999 6.05 6.42999 6.36 6.42999C6.7 6.42999 6.74 6.60999 6.81 6.56999C6.84 6.52999 6.53 6.28999 6.43 6.28999C6.33 6.24999 6.02 6.35999 5.91 6.49999Z" fill="#36373A"/>
<path fill-rule="evenodd" clip-rule="evenodd" d="M6.29 6.59999C6.19 6.70999 6.25 6.87999 6.36 6.87999C6.47 6.87999 6.64 6.70999 6.53 6.59999H6.29Z" fill="#36373A"/>
<path fill-rule="evenodd" clip-rule="evenodd" d="M6.70001 6.73998C6.70001 6.56998 6.56001 6.52998 6.36001 6.52998C6.16001 6.52998 6.05001 6.69998 5.98001 6.73998C6.08001 6.73998 6.15001 6.60998 6.36001 6.60998C6.57001 6.60998 6.57001 6.60998 6.70001 6.73998Z" fill="#36373A"/>
<path fill-rule="evenodd" clip-rule="evenodd" d="M6.67001 6.76999C6.63001 6.69999 6.56001 6.83999 6.39001 6.83999C6.25001 6.83999 6.18001 6.79999 6.08001 6.72999C6.01001 6.65999 6.22001 6.89999 6.36001 6.89999C6.53001 6.89999 6.70001 6.79999 6.67001 6.75999V6.76999Z" fill="#36373A"/>
<path fill-rule="evenodd" clip-rule="evenodd" d="M6.21999 6.83999C6.04999 6.76999 6.14999 6.62999 6.21999 6.59999C6.17999 6.62999 6.07999 6.76999 6.21999 6.83999Z" fill="#36373A"/>
<path fill-rule="evenodd" clip-rule="evenodd" d="M6.98 7.63999C6.88 7.63999 6.84 7.59999 6.74 7.59999C6.64 7.59999 6.4 7.76999 6.25 7.70999C6.56 7.84999 6.42 7.73999 6.98 7.73999H7.02L6.98 7.63999Z" fill="#36373A"/>
<path fill-rule="evenodd" clip-rule="evenodd" d="M6.17999 7.83999C6.24999 7.72999 6.24999 7.76999 6.34999 7.59999C6.23999 7.70999 6.20999 7.73999 6.17999 7.83999Z" fill="#36373A"/>
<path fill-rule="evenodd" clip-rule="evenodd" d="M6.98 7.94999C6.64 7.94999 6.7 7.87999 6.25 7.70999C6.56 7.73999 6.63 7.84999 6.98 7.84999H7.02L6.98 7.94999Z" fill="#36373A"/>
<path fill-rule="evenodd" clip-rule="evenodd" d="M6.98001 7.45999C6.88001 7.45999 6.84001 7.38999 6.74001 7.38999C6.64001 7.38999 6.50001 7.42999 6.43001 7.48999C6.40001 7.48999 6.47001 7.38999 6.57001 7.38999C6.68001 7.34999 6.64001 7.17999 6.74001 7.14999C6.74001 7.21999 6.70001 7.21999 6.70001 7.28999C6.70001 7.35999 6.81001 7.35999 6.84001 7.28999C6.81001 7.38999 6.91001 7.38999 6.98001 7.38999V7.45999Z" fill="#36373A"/>
<path fill-rule="evenodd" clip-rule="evenodd" d="M6.98001 8.09C6.91001 8.09 6.74001 8.13 6.98001 8.13C7.19001 8.13 7.02001 8.09 6.98001 8.09Z" fill="#36373A"/>
</g>
</g>
<defs>
<clipPath id="clip0_104_17683">
<rect width="24" height="24" fill="white"/>
</clipPath>
</defs>
</svg>
