<svg width="24" height="24" viewBox="0 0 24 24" fill="none" xmlns="http://www.w3.org/2000/svg">
<g clip-path="url(#clip0_104_14059)">
<mask id="mask0_104_14059" style="mask-type:luminance" maskUnits="userSpaceOnUse" x="0" y="0" width="24" height="24">
<path d="M12 24C18.6274 24 24 18.6274 24 12C24 5.37258 18.6274 0 12 0C5.37258 0 0 5.37258 0 12C0 18.6274 5.37258 24 12 24Z" fill="white"/>
</mask>
<g mask="url(#mask0_104_14059)">
<path d="M30.06 7.41H-6.07001V9.27H30.06V7.41Z" fill="#DB2E2E"/>
<path d="M30.06 3.70999H-6.07001V5.56999H30.06V3.70999Z" fill="#DB2E2E"/>
<path d="M30.06 0H-6.07001V1.86H30.06V0Z" fill="#DB2E2E"/>
<path d="M30.06 11.12H-6.07001V12.98H30.06V11.12Z" fill="#DB2E2E"/>
<path d="M30.06 14.83H-6.07001V16.69H30.06V14.83Z" fill="#DB2E2E"/>
<path d="M30.06 18.54H-6.07001V20.4H30.06V18.54Z" fill="#DB2E2E"/>
<path d="M30.06 22.24H-6.07001V24.1H30.06V22.24Z" fill="#DB2E2E"/>
<path d="M30.06 5.56H-6.07001V7.42H30.06V5.56Z" fill="white"/>
<path d="M30.06 1.85999H-6.07001V3.71999H30.06V1.85999Z" fill="white"/>
<path d="M30.06 9.26999H-6.07001V11.13H30.06V9.26999Z" fill="white"/>
<path d="M30.06 12.97H-6.07001V14.83H30.06V12.97Z" fill="white"/>
<path d="M30.06 16.68H-6.07001V18.54H30.06V16.68Z" fill="white"/>
<path d="M30.06 20.39H-6.07001V22.25H30.06V20.39Z" fill="white"/>
<path d="M12.24 0H-6.07001V12.97H12.24V0Z" fill="#2E4593"/>
<path d="M0.0300169 1.85001L-0.129983 2.37001H-0.669983L-0.239983 2.68001L-0.399983 3.19001L0.0300169 2.88001L0.470017 3.19001L0.300017 2.68001L0.740017 2.37001H0.200017L0.0300169 1.85001Z" fill="white"/>
<path d="M0.0300169 4.45001L-0.129983 4.96001H-0.669983L-0.239983 5.28001L-0.399983 5.79001L0.0300169 5.47001L0.470017 5.79001L0.300017 5.28001L0.740017 4.96001H0.200017L0.0300169 4.45001Z" fill="white"/>
<path d="M0.0300169 7.04001L-0.129983 7.55001H-0.669983L-0.239983 7.87001L-0.399983 8.38001L0.0300169 8.07001L0.470017 8.38001L0.300017 7.87001L0.740017 7.55001H0.200017L0.0300169 7.04001Z" fill="white"/>
<path d="M0.200017 10.15L0.0300169 9.63998L-0.129983 10.15H-0.669983L-0.239983 10.46L-0.399983 10.98L0.0300169 10.66L0.470017 10.98L0.300017 10.46L0.740017 10.15H0.200017Z" fill="white"/>
<path d="M1.55998 0.559998L1.38998 1.07H0.849976L1.28998 1.38L1.11998 1.9L1.55998 1.58L1.98998 1.9L1.82998 1.38L2.25998 1.07H1.72998L1.55998 0.559998Z" fill="white"/>
<path d="M1.55998 3.14999L1.38998 3.65999H0.849976L1.28998 3.97999L1.11998 4.48999L1.55998 4.16999L1.98998 4.48999L1.82998 3.97999L2.25998 3.65999H1.72998L1.55998 3.14999Z" fill="white"/>
<path d="M1.55998 5.73999L1.38998 6.25999H0.849976L1.28998 6.56999L1.11998 7.08999L1.55998 6.76999L1.98998 7.08999L1.82998 6.56999L2.25998 6.25999H1.72998L1.55998 5.73999Z" fill="white"/>
<path d="M1.55998 8.34L1.38998 8.85H0.849976L1.28998 9.17L1.11998 9.68L1.55998 9.36L1.98998 9.68L1.82998 9.17L2.25998 8.85H1.72998L1.55998 8.34Z" fill="white"/>
<path d="M1.72998 11.45L1.55998 10.93L1.38998 11.45H0.849976L1.28998 11.76L1.11998 12.27L1.55998 11.96L1.98998 12.27L1.82998 11.76L2.25998 11.45H1.72998Z" fill="white"/>
<path d="M3.08 1.85001L2.92 2.37001H2.38L2.82001 2.68001L2.65001 3.19001L3.08 2.88001L3.52001 3.19001L3.35001 2.68001L3.79 2.37001H3.25L3.08 1.85001Z" fill="white"/>
<path d="M3.08 4.45001L2.92 4.96001H2.38L2.82001 5.28001L2.65001 5.79001L3.08 5.47001L3.52001 5.79001L3.35001 5.28001L3.79 4.96001H3.25L3.08 4.45001Z" fill="white"/>
<path d="M3.08 7.04001L2.92 7.55001H2.38L2.82001 7.87001L2.65001 8.38001L3.08 8.07001L3.52001 8.38001L3.35001 7.87001L3.79 7.55001H3.25L3.08 7.04001Z" fill="white"/>
<path d="M3.25 10.15L3.08 9.63998L2.92 10.15H2.38L2.82001 10.46L2.65001 10.98L3.08 10.66L3.52001 10.98L3.35001 10.46L3.79 10.15H3.25Z" fill="white"/>
<path d="M4.60997 0.559998L4.43997 1.07H3.90997L4.33997 1.38L4.16997 1.9L4.60997 1.58L5.04997 1.9L4.87997 1.38L5.31997 1.07H4.77997L4.60997 0.559998Z" fill="white"/>
<path d="M4.60997 3.14999L4.43997 3.65999H3.90997L4.33997 3.97999L4.16997 4.48999L4.60997 4.16999L5.04997 4.48999L4.87997 3.97999L5.31997 3.65999H4.77997L4.60997 3.14999Z" fill="white"/>
<path d="M4.60997 5.73999L4.43997 6.25999H3.90997L4.33997 6.56999L4.16997 7.08999L4.60997 6.76999L5.04997 7.08999L4.87997 6.56999L5.31997 6.25999H4.77997L4.60997 5.73999Z" fill="white"/>
<path d="M4.60997 8.34L4.43997 8.85H3.90997L4.33997 9.17L4.16997 9.68L4.60997 9.36L5.04997 9.68L4.87997 9.17L5.31997 8.85H4.77997L4.60997 8.34Z" fill="white"/>
<path d="M4.77997 11.45L4.60997 10.93L4.43997 11.45H3.90997L4.33997 11.76L4.16997 12.27L4.60997 11.96L5.04997 12.27L4.87997 11.76L5.31997 11.45H4.77997Z" fill="white"/>
<path d="M6.13999 1.85001L5.96999 2.37001H5.42999L5.86999 2.68001L5.69999 3.19001L6.13999 2.88001L6.56999 3.19001L6.40999 2.68001L6.83999 2.37001H6.29999L6.13999 1.85001Z" fill="white"/>
<path d="M6.13999 4.45001L5.96999 4.96001H5.42999L5.86999 5.28001L5.69999 5.79001L6.13999 5.47001L6.56999 5.79001L6.40999 5.28001L6.83999 4.96001H6.29999L6.13999 4.45001Z" fill="white"/>
<path d="M6.13999 7.04001L5.96999 7.55001H5.42999L5.86999 7.87001L5.69999 8.38001L6.13999 8.07001L6.56999 8.38001L6.40999 7.87001L6.83999 7.55001H6.29999L6.13999 7.04001Z" fill="white"/>
<path d="M6.29999 10.15L6.13999 9.63998L5.96999 10.15H5.42999L5.86999 10.46L5.69999 10.98L6.13999 10.66L6.56999 10.98L6.40999 10.46L6.83999 10.15H6.29999Z" fill="white"/>
<path d="M7.66002 0.559998L7.50002 1.07H6.96002L7.39002 1.38L7.23002 1.9L7.66002 1.58L8.10002 1.9L7.93002 1.38L8.37002 1.07H7.83002L7.66002 0.559998Z" fill="white"/>
<path d="M7.66002 3.14999L7.50002 3.65999H6.96002L7.39002 3.97999L7.23002 4.48999L7.66002 4.16999L8.10002 4.48999L7.93002 3.97999L8.37002 3.65999H7.83002L7.66002 3.14999Z" fill="white"/>
<path d="M7.66002 5.73999L7.50002 6.25999H6.96002L7.39002 6.56999L7.23002 7.08999L7.66002 6.76999L8.10002 7.08999L7.93002 6.56999L8.37002 6.25999H7.83002L7.66002 5.73999Z" fill="white"/>
<path d="M7.66002 8.34L7.50002 8.85H6.96002L7.39002 9.17L7.23002 9.68L7.66002 9.36L8.10002 9.68L7.93002 9.17L8.37002 8.85H7.83002L7.66002 8.34Z" fill="white"/>
<path d="M7.83002 11.45L7.66002 10.93L7.50002 11.45H6.96002L7.39002 11.76L7.23002 12.27L7.66002 11.96L8.10002 12.27L7.93002 11.76L8.37002 11.45H7.83002Z" fill="white"/>
<path d="M9.18998 1.85001L9.01998 2.37001H8.47998L8.91998 2.68001L8.74998 3.19001L9.18998 2.88001L9.61998 3.19001L9.45998 2.68001L9.88998 2.37001H9.34998L9.18998 1.85001Z" fill="white"/>
<path d="M9.18998 4.45001L9.01998 4.96001H8.47998L8.91998 5.28001L8.74998 5.79001L9.18998 5.47001L9.61998 5.79001L9.45998 5.28001L9.88998 4.96001H9.34998L9.18998 4.45001Z" fill="white"/>
<path d="M9.18998 7.04001L9.01998 7.55001H8.47998L8.91998 7.87001L8.74998 8.38001L9.18998 8.07001L9.61998 8.38001L9.45998 7.87001L9.88998 7.55001H9.34998L9.18998 7.04001Z" fill="white"/>
<path d="M9.34998 10.15L9.18998 9.63998L9.01998 10.15H8.47998L8.91998 10.46L8.74998 10.98L9.18998 10.66L9.61998 10.98L9.45998 10.46L9.88998 10.15H9.34998Z" fill="white"/>
<path d="M10.44 1.38L10.28 1.9L10.71 1.58L11.15 1.9L10.98 1.38L11.42 1.07H10.88L10.71 0.559998L10.55 1.07H10.01L10.44 1.38Z" fill="white"/>
<path d="M10.71 3.14999L10.55 3.65999H10.01L10.44 3.97999L10.28 4.48999L10.71 4.16999L11.15 4.48999L10.98 3.97999L11.42 3.65999H10.88L10.71 3.14999Z" fill="white"/>
<path d="M10.71 5.73999L10.55 6.25999H10.01L10.44 6.56999L10.28 7.08999L10.71 6.76999L11.15 7.08999L10.98 6.56999L11.42 6.25999H10.88L10.71 5.73999Z" fill="white"/>
<path d="M10.71 8.34L10.55 8.85H10.01L10.44 9.17L10.28 9.68L10.71 9.36L11.15 9.68L10.98 9.17L11.42 8.85H10.88L10.71 8.34Z" fill="white"/>
<path d="M10.88 11.45L10.71 10.93L10.55 11.45H10.01L10.44 11.76L10.28 12.27L10.71 11.96L11.15 12.27L10.98 11.76L11.42 11.45H10.88Z" fill="white"/>
</g>
</g>
<defs>
<clipPath id="clip0_104_14059">
<rect width="24" height="24" fill="white"/>
</clipPath>
</defs>
</svg>
