<svg width="24" height="24" viewBox="0 0 24 24" fill="none" xmlns="http://www.w3.org/2000/svg">
<g clip-path="url(#clip0_161_13144)">
<mask id="mask0_161_13144" style="mask-type:luminance" maskUnits="userSpaceOnUse" x="0" y="0" width="24" height="24">
<path d="M12 24C18.6274 24 24 18.6274 24 12C24 5.37258 18.6274 0 12 0C5.37258 0 0 5.37258 0 12C0 18.6274 5.37258 24 12 24Z" fill="white"/>
</mask>
<g mask="url(#mask0_161_13144)">
<path d="M30.64 0H0V12H30.64V0Z" fill="#D21034"/>
<path d="M30.64 12H0V24H30.64V12Z" fill="#009543"/>
<path d="M0 1.78999L17.83 12L0 22.21V1.78999Z" fill="black"/>
<path d="M30.64 10.17H0V13.83H30.64V10.17Z" fill="black"/>
<path d="M0 3.24001L15.3 12L0 20.76V3.24001Z" fill="#FDCE12"/>
<path d="M30.64 11.46H0V12.54H30.64V11.46Z" fill="#FDCE12"/>
<path d="M0 4.45L13.18 12L0 19.55V4.45Z" fill="black"/>
<path d="M3.71999 13.76V14.81C4.62999 14.81 6.41999 14.11 6.41999 11.86C6.41999 9.61 4.50999 9.19 3.93999 9.19C3.36999 9.19 1.60999 9.6 1.60999 11.44C1.60999 13.28 3.33999 13.45 3.67999 13.45C4.01999 13.45 5.29999 13.14 5.14999 11.76C5.14999 12.15 4.70999 12.98 3.77999 12.98C2.84999 12.98 2.26999 12.29 2.26999 11.61C2.26999 10.93 2.82999 10.02 3.80999 10.02C4.78999 10.02 5.49999 10.89 5.49999 11.77C5.49999 12.65 4.80999 13.76 3.70999 13.76H3.71999Z" fill="#FDCE12"/>
<path d="M2.92999 12.39L2.97999 12.43C2.97999 12.43 3.40999 11.45 4.56999 10.75C4.41999 10.83 3.64999 11.22 2.92999 12.4V12.39Z" fill="#FDCE12" stroke="#FDCE12" stroke-width="0.03" stroke-miterlimit="2.53"/>
<path d="M3.04002 12.23C3.04002 12.23 2.91002 11.96 3.02002 11.83C3.14002 11.71 3.08002 12.15 3.08002 12.15L3.13002 12.08C3.13002 12.08 3.05002 11.74 3.13002 11.67C3.22002 11.6 3.17002 11.99 3.17002 11.99L3.22002 11.92C3.22002 11.92 3.16002 11.59 3.25002 11.53C3.34002 11.47 3.28002 11.84 3.28002 11.84L3.34002 11.77C3.34002 11.77 3.29002 11.46 3.40002 11.39C3.51002 11.32 3.41002 11.68 3.41002 11.68L3.48002 11.6C3.48002 11.6 3.45002 11.32 3.54002 11.25C3.63002 11.19 3.55002 11.52 3.55002 11.52L3.61002 11.45C3.61002 11.45 3.59002 11.18 3.68002 11.12C3.77002 11.06 3.68002 11.37 3.68002 11.37L3.75002 11.31C3.75002 11.31 3.73002 11.04 3.84002 10.99C3.95002 10.94 3.82002 11.24 3.82002 11.24L3.89002 11.18C3.89002 11.18 3.91002 10.87 4.00002 10.84C4.09002 10.81 3.96002 11.11 3.96002 11.11L4.03002 11.06C4.03002 11.06 4.07002 10.79 4.17002 10.76C4.27002 10.73 4.11002 11 4.11002 11L4.18002 10.95C4.18002 10.95 4.25002 10.68 4.35002 10.66C4.45002 10.63 4.25002 10.91 4.25002 10.91L4.31002 10.87C4.31002 10.87 4.42002 10.63 4.50002 10.61C4.59002 10.59 4.40002 10.81 4.40002 10.81L4.48002 10.76C4.48002 10.76 4.62002 10.51 4.67002 10.59C4.72002 10.67 4.48002 10.78 4.48002 10.78L4.40002 10.82C4.40002 10.82 4.69002 10.68 4.73002 10.75C4.77002 10.82 4.33002 10.86 4.33002 10.86L4.26002 10.91C4.26002 10.91 4.55002 10.83 4.52002 10.91C4.48002 10.98 4.20002 10.97 4.20002 10.97L4.13002 11.02C4.13002 11.02 4.42002 10.95 4.38002 11.02C4.34002 11.09 4.06002 11.08 4.06002 11.08L3.99002 11.14C3.99002 11.14 4.27002 11.07 4.23002 11.15C4.19002 11.24 3.87002 11.23 3.87002 11.23L3.79002 11.3C3.79002 11.3 4.09002 11.2 4.06002 11.28C4.03002 11.36 3.69002 11.4 3.69002 11.4L3.61002 11.48C3.61002 11.48 3.93002 11.37 3.84002 11.48C3.74002 11.58 3.51002 11.6 3.51002 11.6L3.42002 11.71C3.42002 11.71 3.74002 11.52 3.69002 11.63C3.65002 11.74 3.33002 11.81 3.33002 11.81L3.27002 11.89C3.27002 11.89 3.56002 11.72 3.53002 11.82C3.50002 11.91 3.19002 12.01 3.19002 12.01L3.14002 12.08C3.14002 12.08 3.48002 11.88 3.45002 11.98C3.42002 12.08 3.10002 12.16 3.10002 12.16L3.06002 12.22C3.06002 12.22 3.37002 12.04 3.38002 12.13C3.39002 12.22 3.01002 12.3 3.01002 12.3V12.23H3.04002Z" fill="#FDCE12"/>
<path d="M4.76994 12.39L4.71994 12.43C4.71994 12.43 4.28994 11.45 3.12994 10.75C3.27994 10.83 4.04994 11.22 4.76994 12.4V12.39Z" fill="#FDCE12" stroke="#FDCE12" stroke-width="0.03" stroke-miterlimit="2.53"/>
<path d="M4.64997 12.23C4.64997 12.23 4.77997 11.96 4.66997 11.83C4.54997 11.71 4.60997 12.15 4.60997 12.15L4.55997 12.08C4.55997 12.08 4.63997 11.74 4.55997 11.67C4.46997 11.6 4.51997 11.99 4.51997 11.99L4.46997 11.92C4.46997 11.92 4.52997 11.59 4.43997 11.53C4.34997 11.47 4.40997 11.84 4.40997 11.84L4.34997 11.77C4.34997 11.77 4.39997 11.46 4.28997 11.39C4.17997 11.32 4.27997 11.68 4.27997 11.68L4.20997 11.6C4.20997 11.6 4.23997 11.32 4.14997 11.25C4.05997 11.19 4.13997 11.52 4.13997 11.52L4.07997 11.45C4.07997 11.45 4.09997 11.18 4.00997 11.12C3.91997 11.06 4.00997 11.37 4.00997 11.37L3.93997 11.31C3.93997 11.31 3.95997 11.04 3.84997 10.99C3.73997 10.94 3.86997 11.24 3.86997 11.24L3.79997 11.18C3.79997 11.18 3.77997 10.87 3.68997 10.84C3.59997 10.81 3.72997 11.11 3.72997 11.11L3.65997 11.06C3.65997 11.06 3.61997 10.79 3.51997 10.76C3.41997 10.73 3.57997 11 3.57997 11L3.50997 10.95C3.50997 10.95 3.43997 10.68 3.33997 10.66C3.23997 10.63 3.43997 10.91 3.43997 10.91L3.37997 10.87C3.37997 10.87 3.26997 10.63 3.18997 10.61C3.09997 10.59 3.28997 10.81 3.28997 10.81L3.20997 10.76C3.20997 10.76 3.06997 10.51 3.01997 10.59C2.96997 10.67 3.20997 10.78 3.20997 10.78L3.28997 10.82C3.28997 10.82 2.99997 10.68 2.95997 10.75C2.91997 10.82 3.35997 10.86 3.35997 10.86L3.42997 10.91C3.42997 10.91 3.13997 10.83 3.16997 10.91C3.20997 10.98 3.48997 10.97 3.48997 10.97L3.55997 11.02C3.55997 11.02 3.26997 10.95 3.30997 11.02C3.34997 11.09 3.62997 11.08 3.62997 11.08L3.69997 11.14C3.69997 11.14 3.41997 11.07 3.45997 11.15C3.49997 11.24 3.81997 11.23 3.81997 11.23L3.89997 11.3C3.89997 11.3 3.59997 11.2 3.62997 11.28C3.65997 11.36 3.99997 11.4 3.99997 11.4L4.07997 11.48C4.07997 11.48 3.75997 11.37 3.84997 11.48C3.94997 11.58 4.17997 11.6 4.17997 11.6L4.26997 11.71C4.26997 11.71 3.94997 11.52 3.99997 11.63C4.03997 11.74 4.35997 11.81 4.35997 11.81L4.41997 11.89C4.41997 11.89 4.12997 11.72 4.15997 11.82C4.18997 11.91 4.49997 12.01 4.49997 12.01L4.54997 12.08C4.54997 12.08 4.20997 11.88 4.23997 11.98C4.26997 12.08 4.58997 12.16 4.58997 12.16L4.62997 12.22C4.62997 12.22 4.31997 12.04 4.30997 12.13C4.29997 12.22 4.67997 12.3 4.67997 12.3V12.23H4.64997Z" fill="#FDCE12"/>
</g>
</g>
<defs>
<clipPath id="clip0_161_13144">
<rect width="24" height="24" fill="white"/>
</clipPath>
</defs>
</svg>
