<svg width="24" height="24" viewBox="0 0 24 24" fill="none" xmlns="http://www.w3.org/2000/svg">
<g clip-path="url(#clip0_121_10617)">
<mask id="mask0_121_10617" style="mask-type:luminance" maskUnits="userSpaceOnUse" x="0" y="0" width="24" height="24">
<path d="M12 24C18.6274 24 24 18.6274 24 12C24 5.37258 18.6274 0 12 0C5.37258 0 0 5.37258 0 12C0 18.6274 5.37258 24 12 24Z" fill="white"/>
</mask>
<g mask="url(#mask0_121_10617)">
<path d="M-6 0H30V24H-6V0Z" fill="#CF142B"/>
<path d="M-6 16H30V0H-6V16Z" fill="#00247D"/>
<path d="M-6 0H30V8H-6V0Z" fill="#FFCC00"/>
<path d="M4.28998 13.88L5.10998 14.52L5.48998 14.03L4.28998 13.88Z" fill="white"/>
<path d="M4.28998 13.88L5.32998 13.92L5.30998 14.54L4.28998 13.88Z" fill="white"/>
<path d="M5.30995 13.19L4.94995 14.17L5.53995 14.38L5.30995 13.19Z" fill="white"/>
<path d="M5.30994 13.19L5.59994 14.19L4.99994 14.36L5.30994 13.19Z" fill="white"/>
<path d="M4.63 15.05L5.49 14.47L5.14001 13.95L4.63 15.05Z" fill="white"/>
<path d="M4.63 15.05L4.99 14.07L5.58 14.28L4.64001 15.04L4.63 15.05Z" fill="white"/>
<path d="M6.26996 13.94L5.22996 13.9L5.20996 14.52L6.26996 13.93V13.94Z" fill="white"/>
<path d="M6.26994 13.94L5.40994 14.52L5.05994 14L6.26994 13.94Z" fill="white"/>
<path d="M5.84996 15.09L5.55996 14.09L4.95996 14.26L5.84996 15.09Z" fill="white"/>
<path d="M5.84997 15.09L5.02997 14.45L5.40997 13.96L5.83997 15.09H5.84997Z" fill="white"/>
<path d="M5.81995 11.5L6.30995 12.42L6.85995 12.13L5.81995 11.5Z" fill="white"/>
<path d="M5.81995 11.5L6.74995 11.96L6.47995 12.52L5.81995 11.5Z" fill="white"/>
<path d="M7.02994 11.29L6.30994 12.04L6.75994 12.47L7.02994 11.29Z" fill="white"/>
<path d="M7.02995 11.29L6.87995 12.32L6.25995 12.23L7.01995 11.29H7.02995Z" fill="white"/>
<path d="M5.64995 12.71L6.66995 12.53L6.55995 11.92L5.63995 12.71H5.64995Z" fill="white"/>
<path d="M5.64996 12.71L6.36996 11.96L6.81996 12.39L5.64996 12.7V12.71Z" fill="white"/>
<path d="M7.59996 12.37L6.66996 11.91L6.39996 12.47L7.60996 12.37H7.59996Z" fill="white"/>
<path d="M7.59997 12.37L6.57997 12.55L6.46997 11.94L7.59997 12.37Z" fill="white"/>
<path d="M6.74997 13.25L6.89997 12.22L6.27997 12.13L6.74997 13.25Z" fill="white"/>
<path d="M6.74995 13.25L6.25995 12.33L6.80995 12.04L6.74995 13.25Z" fill="white"/>
<path d="M7.95996 9.82999L8.17996 10.85L8.78996 10.72L7.95996 9.82999Z" fill="white"/>
<path d="M7.95996 9.82999L8.72996 10.52L8.30996 10.98L7.95996 9.81999V9.82999Z" fill="white"/>
<path d="M9.16996 9.95999L8.26996 10.48L8.57996 11.02L9.16996 9.95999Z" fill="white"/>
<path d="M9.16993 9.95999L8.74993 10.91L8.17993 10.66L9.16993 9.95999Z" fill="white"/>
<path d="M7.45996 10.94L8.48996 11.05L8.55996 10.43L7.45996 10.94Z" fill="white"/>
<path d="M7.45996 10.94L8.35996 10.42L8.66996 10.96L7.45996 10.94Z" fill="white"/>
<path d="M9.41998 11.15L8.64998 10.46L8.22998 10.92L9.41998 11.15Z" fill="white"/>
<path d="M9.41995 11.15L8.38995 11.04L8.45995 10.42L9.42995 11.15H9.41995Z" fill="white"/>
<path d="M8.36997 11.76L8.78997 10.81L8.21997 10.56L8.36997 11.76Z" fill="white"/>
<path d="M8.36996 11.76L8.14996 10.74L8.75996 10.61L8.36996 11.76Z" fill="white"/>
<path d="M10.5699 8.89999L10.4299 9.92999L11.0499 10.02L10.5799 8.89999H10.5699Z" fill="white"/>
<path d="M10.5699 8.89999L11.0599 9.81999L10.5099 10.11L10.5699 8.89999Z" fill="white"/>
<path d="M11.67 9.43999L10.65 9.61999L10.76 10.23L11.67 9.43999Z" fill="white"/>
<path d="M11.6699 9.43999L10.9499 10.19L10.4999 9.75999L11.6699 9.44999V9.43999Z" fill="white"/>
<path d="M9.71996 9.77999L10.65 10.24L10.92 9.67999L9.70996 9.77999H9.71996Z" fill="white"/>
<path d="M9.71997 9.77999L10.74 9.59999L10.85 10.21L9.71997 9.77999Z" fill="white"/>
<path d="M11.5 10.64L11.01 9.72L10.46 10.01L11.5 10.63V10.64Z" fill="white"/>
<path d="M11.4999 10.64L10.5699 10.18L10.8399 9.62L11.4999 10.64Z" fill="white"/>
<path d="M10.29 10.86L11.01 10.11L10.56 9.67999L10.29 10.86Z" fill="white"/>
<path d="M10.29 10.86L10.43 9.82999L11.05 9.91999L10.29 10.86Z" fill="white"/>
<path d="M19.72 13.88L18.9 14.52L18.52 14.03L19.72 13.88Z" fill="white"/>
<path d="M19.7199 13.88L18.6799 13.92L18.6999 14.54L19.7199 13.88Z" fill="white"/>
<path d="M18.7 13.19L19.06 14.17L18.47 14.38L18.7 13.19Z" fill="white"/>
<path d="M18.7 13.19L18.41 14.19L19.01 14.36L18.7 13.19Z" fill="white"/>
<path d="M19.38 15.05L18.52 14.47L18.87 13.95L19.38 15.05Z" fill="white"/>
<path d="M19.38 15.05L19.02 14.07L18.43 14.28L19.37 15.04L19.38 15.05Z" fill="white"/>
<path d="M17.74 13.94L18.78 13.9L18.8 14.52L17.74 13.93V13.94Z" fill="white"/>
<path d="M17.74 13.94L18.6 14.52L18.95 14L17.74 13.94Z" fill="white"/>
<path d="M18.16 15.09L18.45 14.09L19.05 14.26L18.16 15.09Z" fill="white"/>
<path d="M18.16 15.09L18.98 14.45L18.6 13.96L18.17 15.09H18.16Z" fill="white"/>
<path d="M18.19 11.5L17.7 12.42L17.15 12.13L18.19 11.5Z" fill="white"/>
<path d="M18.1899 11.5L17.2599 11.96L17.5299 12.52L18.1899 11.5Z" fill="white"/>
<path d="M16.98 11.29L17.7 12.04L17.25 12.47L16.98 11.29Z" fill="white"/>
<path d="M16.98 11.29L17.13 12.32L17.75 12.23L16.99 11.29H16.98Z" fill="white"/>
<path d="M18.36 12.71L17.34 12.53L17.45 11.92L18.37 12.71H18.36Z" fill="white"/>
<path d="M18.3599 12.71L17.6399 11.96L17.1899 12.39L18.3599 12.7V12.71Z" fill="white"/>
<path d="M16.41 12.37L17.34 11.91L17.61 12.47L16.4 12.37H16.41Z" fill="white"/>
<path d="M16.41 12.37L17.43 12.55L17.54 11.94L16.41 12.37Z" fill="white"/>
<path d="M17.26 13.25L17.11 12.22L17.73 12.13L17.26 13.25Z" fill="white"/>
<path d="M17.26 13.25L17.75 12.33L17.2 12.04L17.26 13.25Z" fill="white"/>
<path d="M16.05 9.82999L15.83 10.85L15.22 10.72L16.05 9.82999Z" fill="white"/>
<path d="M16.05 9.82999L15.28 10.52L15.7 10.98L16.05 9.81999V9.82999Z" fill="white"/>
<path d="M14.84 9.95999L15.74 10.48L15.43 11.02L14.84 9.95999Z" fill="white"/>
<path d="M14.84 9.95999L15.26 10.91L15.83 10.66L14.84 9.95999Z" fill="white"/>
<path d="M16.5499 10.94L15.52 11.05L15.45 10.43L16.5499 10.94Z" fill="white"/>
<path d="M16.55 10.94L15.65 10.42L15.34 10.96L16.55 10.94Z" fill="white"/>
<path d="M14.59 11.15L15.36 10.46L15.78 10.92L14.59 11.15Z" fill="white"/>
<path d="M14.59 11.15L15.62 11.04L15.55 10.42L14.58 11.15H14.59Z" fill="white"/>
<path d="M15.64 11.76L15.22 10.81L15.79 10.56L15.64 11.76Z" fill="white"/>
<path d="M15.64 11.76L15.86 10.74L15.25 10.61L15.64 11.76Z" fill="white"/>
<path d="M13.44 8.89999L13.58 9.92999L12.96 10.02L13.43 8.89999H13.44Z" fill="white"/>
<path d="M13.44 8.89999L12.95 9.81999L13.5 10.11L13.44 8.89999Z" fill="white"/>
<path d="M12.35 9.43999L13.37 9.61999L13.26 10.23L12.35 9.43999Z" fill="white"/>
<path d="M12.35 9.43999L13.07 10.19L13.52 9.75999L12.35 9.44999V9.43999Z" fill="white"/>
<path d="M14.29 9.77999L13.36 10.24L13.09 9.67999L14.3 9.77999H14.29Z" fill="white"/>
<path d="M14.29 9.77999L13.27 9.59999L13.16 10.21L14.29 9.77999Z" fill="white"/>
<path d="M12.5099 10.64L12.9999 9.72L13.5499 10.01L12.5099 10.63V10.64Z" fill="white"/>
<path d="M12.5099 10.64L13.4399 10.18L13.1699 9.62L12.5099 10.64Z" fill="white"/>
<path d="M13.7199 10.86L12.9999 10.11L13.4499 9.67999L13.7199 10.86Z" fill="white"/>
<path d="M13.72 10.86L13.58 9.82999L12.96 9.91999L13.72 10.86Z" fill="white"/>
</g>
</g>
<defs>
<clipPath id="clip0_121_10617">
<rect width="24" height="24" fill="white"/>
</clipPath>
</defs>
</svg>
