<svg width="24" height="24" viewBox="0 0 24 24" fill="none" xmlns="http://www.w3.org/2000/svg">
<g clip-path="url(#clip0_104_14128)">
<mask id="mask0_104_14128" style="mask-type:luminance" maskUnits="userSpaceOnUse" x="0" y="0" width="24" height="24">
<path d="M12 24C18.6274 24 24 18.6274 24 12C24 5.37258 18.6274 0 12 0C5.37258 0 0 5.37258 0 12C0 18.6274 5.37258 24 12 24Z" fill="white"/>
</mask>
<g mask="url(#mask0_104_14128)">
<path d="M24 0H0V23.98H24V0Z" fill="white"/>
<path d="M24 12H0V23.99H24V12Z" fill="#00AB39"/>
<path d="M16.16 6.99001C16.11 6.99001 16.06 6.99001 16 7.02001C15.89 7.07001 15.75 7.19001 15.51 7.37001C14.97 7.78001 14.35 7.84001 13.62 7.85001C12.1 7.88001 11.4 8.26001 11.07 8.73001C10.74 9.21001 10.78 9.78001 10.74 10.2C10.71 10.49 10.66 10.74 10.45 11.01C10.51 10.87 10.53 10.77 10.51 10.69C10.49 10.61 10.45 10.56 10.39 10.51C10.34 10.47 10.28 10.43 10.23 10.38C10.19 10.34 10.17 10.29 10.16 10.23C10.22 10.19 10.29 10.19 10.35 10.23C10.42 10.27 10.47 10.37 10.44 10.52V10.53C10.44 10.53 10.45 10.53 10.46 10.53C10.61 10.37 10.67 10.25 10.68 10.14C10.69 10.03 10.65 9.94001 10.59 9.86001C10.53 9.78001 10.46 9.72001 10.4 9.65001C10.35 9.59001 10.32 9.53001 10.33 9.46001C10.35 9.44001 10.38 9.42001 10.4 9.41001C10.44 9.39001 10.48 9.41001 10.51 9.43001C10.54 9.46001 10.57 9.51001 10.58 9.56001C10.6 9.61001 10.6 9.67001 10.59 9.71001V9.73001H10.61C10.71 9.58001 10.75 9.45001 10.75 9.34001C10.75 9.23001 10.71 9.13001 10.66 9.05001C10.61 8.97001 10.54 8.90001 10.48 8.85001C10.42 8.80001 10.37 8.75001 10.34 8.71001C10.34 8.70001 10.34 8.68001 10.34 8.67001C10.39 8.64001 10.45 8.62001 10.5 8.63001C10.56 8.64001 10.62 8.69001 10.64 8.79001C10.64 8.79001 10.64 8.81001 10.66 8.81001C10.68 8.81001 10.68 8.81001 10.68 8.79001C10.68 8.59001 10.65 8.42001 10.57 8.30001C10.5 8.19001 10.4 8.11001 10.27 8.07001C10.27 8.07001 10.27 8.05001 10.29 8.05001C10.33 7.99001 10.39 7.93001 10.44 7.86001C10.55 7.71001 10.66 7.52001 10.63 7.29001C10.63 7.29001 10.63 7.29001 10.62 7.29001C10.52 7.42001 10.33 7.46001 10.13 7.49001C10.15 7.45001 10.18 7.39001 10.21 7.33001C10.24 7.26001 10.26 7.18001 10.25 7.12001C10.25 7.12001 10.25 7.12001 10.25 7.11001C10.25 7.11001 10.25 7.11001 10.24 7.11001C10.12 7.24001 9.88999 7.32001 9.69999 7.37001C9.59999 7.40001 9.50999 7.42001 9.43999 7.44001C9.40999 7.45001 9.37999 7.46001 9.34999 7.47001C9.33999 7.47001 9.31999 7.49001 9.31999 7.50001C9.17999 7.47001 9.04999 7.45001 8.93999 7.44001C8.72999 7.43001 8.55999 7.45001 8.43999 7.50001C8.37999 7.52001 8.33999 7.55001 8.30999 7.59001C8.27999 7.62001 8.26999 7.67001 8.27999 7.71001C8.27999 7.75001 8.31999 7.79001 8.35999 7.82001C8.05999 7.70001 7.79999 7.65001 7.58999 7.65001C7.49999 7.65001 7.41999 7.65001 7.34999 7.67001C7.20999 7.69001 7.08999 7.74001 7.00999 7.79001C6.94999 7.83001 6.90999 7.86001 6.87999 7.89001C6.87999 7.89001 6.87999 7.89001 6.86999 7.89001V7.91001C6.86999 7.91001 6.87999 7.91001 6.88999 7.91001C6.92999 7.89001 6.96999 7.87001 7.01999 7.85001C7.05999 7.85001 7.09999 7.85001 7.12999 7.87001C7.16999 7.89001 7.20999 7.90001 7.22999 7.92001C7.24999 7.94001 7.27999 7.95001 7.27999 7.96001C7.29999 7.97001 7.32999 7.99001 7.34999 8.00001C7.28999 8.12001 7.26999 8.27001 7.26999 8.50001C7.25999 8.50001 7.24999 8.50001 7.23999 8.50001C7.17999 8.50001 7.09999 8.51001 7.00999 8.50001C6.88999 8.50001 6.74999 8.46001 6.61999 8.39001C6.63999 8.39001 6.65999 8.40001 6.67999 8.40001C6.76999 8.40001 6.85999 8.39001 6.91999 8.35001C6.91999 8.35001 6.93999 8.35001 6.94999 8.35001C6.94999 8.35001 6.95999 8.35001 6.95999 8.33001C6.95999 8.33001 6.95999 8.33001 6.95999 8.32001C6.86999 8.28001 6.38999 8.06001 5.97999 7.55001C5.97999 7.55001 5.97999 7.55001 5.95999 7.55001C5.95999 7.55001 5.94999 7.55001 5.94999 7.57001C5.96999 7.82001 6.04999 8.42001 6.53999 8.90001C6.53999 8.90001 6.54999 8.90001 6.55999 8.90001C6.56999 8.90001 6.55999 8.89001 6.55999 8.88001C6.54999 8.82001 6.53999 8.77001 6.52999 8.71001C6.52999 8.63001 6.52999 8.57001 6.50999 8.52001C6.65999 8.66001 6.81999 8.72001 6.95999 8.74001C7.14999 8.76001 7.31999 8.73001 7.42999 8.71001C7.42999 8.71001 7.43999 8.71001 7.44999 8.71001C7.44999 8.82001 7.40999 8.95001 7.33999 9.06001C7.29999 9.12001 7.25999 9.18001 7.20999 9.22001C7.15999 9.26001 7.10999 9.28001 7.06999 9.28001C7.06999 9.28001 7.05999 9.28001 7.05999 9.30001C7.05999 9.30001 7.05999 9.32001 7.07999 9.32001C7.27999 9.32001 7.44999 9.32001 7.63999 9.32001H7.66999C7.65999 9.34001 7.61999 9.38001 7.56999 9.42001C7.56999 9.42001 7.56999 9.43001 7.56999 9.44001C7.56999 9.44001 7.56999 9.45001 7.58999 9.45001C7.58999 9.45001 7.58999 9.45001 7.59999 9.45001C7.59999 9.45001 7.60999 9.45001 7.61999 9.45001C7.73999 9.44001 7.88999 9.41001 7.99999 9.33001C7.99999 9.34001 7.99999 9.36001 7.98999 9.37001C7.98999 9.38001 7.97999 9.39001 7.95999 9.41001C7.93999 9.42001 7.92999 9.44001 7.89999 9.45001C7.89999 9.45001 7.89999 9.46001 7.89999 9.47001C7.89999 9.48001 7.89999 9.48001 7.90999 9.48001C8.03999 9.47001 8.25999 9.37001 8.40999 9.20001C8.48999 9.21001 8.53999 9.25001 8.57999 9.29001C8.59999 9.31001 8.60999 9.33001 8.62999 9.35001C8.62999 9.35001 8.63999 9.35001 8.64999 9.36001V9.38001C8.64999 9.40001 8.65999 9.41001 8.67999 9.41001C8.61999 9.52001 8.59999 9.59001 8.60999 9.64001C8.60999 9.67001 8.62999 9.69001 8.63999 9.70001C8.55999 9.76001 8.49999 9.82001 8.45999 9.88001C8.43999 9.91001 8.42999 9.94001 8.43999 9.97001C8.43999 9.97001 8.43999 9.98001 8.44999 9.99001C8.44999 9.99001 8.43999 9.99001 8.42999 9.99001C8.34999 10.03 8.27999 10.1 8.22999 10.18C8.20999 10.22 8.19999 10.25 8.19999 10.29C8.19999 10.3 8.19999 10.32 8.21999 10.33C8.11999 10.38 8.02999 10.49 7.97999 10.59C7.94999 10.64 7.93999 10.69 7.93999 10.73C7.93999 10.75 7.94999 10.77 7.96999 10.78C7.86999 10.83 7.79999 10.95 7.77999 11.06C7.76999 11.11 7.75999 11.16 7.76999 11.2C7.76999 11.21 7.77999 11.22 7.78999 11.23C7.78999 11.23 7.77999 11.23 7.76999 11.24C7.73999 11.27 7.71999 11.3 7.70999 11.31C7.64999 11.39 7.62999 11.51 7.62999 11.61C7.62999 11.66 7.63999 11.71 7.65999 11.74C7.65999 11.75 7.67999 11.76 7.68999 11.77C7.62999 11.85 7.60999 11.97 7.60999 12.07C7.60999 12.12 7.61999 12.17 7.63999 12.2C7.63999 12.22 7.65999 12.23 7.67999 12.24C7.67999 12.24 7.69999 12.24 7.70999 12.24C7.70999 12.24 7.70999 12.25 7.69999 12.25C7.69999 12.25 7.67999 12.27 7.67999 12.29C7.67999 12.29 7.67999 12.31 7.67999 12.32C7.63999 12.39 7.60999 12.35 7.59999 12.32C7.44999 12 7.29999 11.81 7.14999 11.08C7.11999 10.95 6.83999 10.75 6.75999 10.24C6.73999 10.12 6.91999 9.87001 6.67999 9.79001C6.50999 9.48001 6.16999 9.60001 6.11999 9.70001C6.11999 9.70001 6.11999 9.71001 6.11999 9.72001C6.11999 9.72001 6.12999 9.72001 6.13999 9.72001C6.17999 9.71001 6.30999 9.75001 6.31999 9.83001C6.24999 10 6.33999 10.15 6.28999 10.13C6.28999 9.86001 5.98999 9.87001 5.97999 9.87001L5.84999 9.85001C5.40999 9.85001 5.53999 10.17 5.55999 10.23C5.55999 10.23 5.56999 10.23 5.57999 10.23C5.57999 10.23 5.59999 10.23 5.59999 10.22C5.57999 10.1 5.67999 10.09 5.77999 10.14C5.83999 10.38 5.97999 10.39 5.99999 10.39C6.17999 10.43 6.23999 10.55 6.23999 10.62C6.17999 10.6 6.10999 10.59 6.00999 10.6C5.93999 10.53 5.81999 10.51 5.77999 10.5C5.75999 10.5 5.61999 10.51 5.56999 10.59H5.54999C5.27999 10.67 5.38999 10.98 5.47999 11.02C5.47999 11.02 5.47999 11.02 5.49999 11.02C5.49999 11.02 5.49999 11.02 5.49999 11.01C5.45999 10.92 5.51999 10.86 5.58999 10.9C5.68999 11.01 5.81999 11.06 6.07999 10.91C6.07999 10.91 6.16999 10.95 6.25999 10.99C6.25999 11.1 6.36999 11.29 6.45999 11.43C6.42999 11.54 6.38999 11.65 6.35999 11.69C6.24999 11.77 6.15999 11.96 6.20999 12.14C6.17999 12.23 6.05999 12.27 6.05999 12.11C6.05999 12.11 6.04999 12.11 6.03999 12.11C6.02999 12.11 6.03999 12.12 6.03999 12.13C5.99999 12.24 6.17999 12.57 6.45999 12.4L6.51999 12.34C6.60999 12.34 6.70999 12.22 6.74999 12.11C6.88999 12.97 7.21999 13.83 7.35999 14.11C7.25999 14.42 6.95999 14.41 6.85999 14.31H6.83999V14.33C7.01999 14.51 7.11999 14.57 7.29999 14.57C7.68999 14.57 7.82999 14.32 7.85999 14.22C8.18999 14.15 8.43999 13.93 8.53999 13.92C8.54999 13.93 8.56999 13.96 8.58999 13.97C8.66999 14.03 8.72999 14.07 8.78999 14.07C8.81999 14.07 8.83999 14.07 8.86999 14.06C8.88999 14.11 8.92999 14.14 8.96999 14.17C8.94999 14.29 8.93999 14.52 8.85999 14.83C8.76999 15.14 8.60999 15.51 8.29999 15.87C8.17999 15.92 8.07999 15.84 8.00999 15.79C7.95999 15.75 7.81999 15.6 7.78999 15.52C7.75999 15.43 7.72999 15.36 7.67999 15.32C7.62999 15.28 7.54999 15.26 7.48999 15.25C7.46999 15.25 7.44999 15.25 7.43999 15.25C7.24999 15.1 7.05999 15.35 7.07999 15.51C7.07999 15.51 7.07999 15.52 7.08999 15.52H7.10999C7.13999 15.46 7.20999 15.48 7.24999 15.52C7.24999 15.58 7.24999 15.64 7.30999 15.72C7.24999 15.72 7.16999 15.74 7.08999 15.84C6.75999 15.88 6.81999 16.25 6.91999 16.31C6.91999 16.31 6.91999 16.32 6.93999 16.31C6.93999 16.31 6.94999 16.31 6.94999 16.3C6.83999 16.16 6.98999 16.1 7.06999 16.16C7.08999 16.22 7.17999 16.28 7.24999 16.31C7.24999 16.33 7.21999 16.4 7.22999 16.42C6.87999 16.61 7.19999 16.95 7.28999 16.93C7.28999 16.93 7.29999 16.93 7.30999 16.93C7.30999 16.93 7.30999 16.92 7.30999 16.91C7.25999 16.83 7.25999 16.73 7.34999 16.76C7.39999 16.79 7.47999 16.8 7.52999 16.8C7.63999 16.8 7.69999 16.73 7.83999 16.59C7.91999 16.51 7.98999 16.55 8.03999 16.58C8.03999 16.6 8.04999 16.63 8.07999 16.64C8.11999 16.66 8.20999 16.67 8.25999 16.66C8.54999 16.66 8.70999 16.59 8.83999 16.54C8.96999 16.49 9.08999 16.47 9.19999 16.47C9.29999 16.47 9.36999 16.49 9.47999 16.53C9.53999 16.55 9.62999 16.59 9.66999 16.59C9.73999 16.59 9.76999 16.55 9.78999 16.52C9.89999 16.5 9.91999 16.55 9.85999 16.67V16.69C9.85999 16.69 9.86999 16.69 9.87999 16.69C9.98999 16.64 10.32 16.32 9.87999 16.14C9.80999 16.08 9.71999 16.03 9.64999 16.03C9.57999 16.03 9.50999 16.06 9.43999 16.07C9.36999 16.09 9.29999 16.1 9.26999 16.1C9.17999 16.1 9.16999 16.04 9.15999 15.94C9.15999 15.84 9.36999 15.48 9.45999 15.36C9.64999 15.11 9.89999 14.83 10.08 14.64C10.62 14.62 10.4 14.94 10.31 15C10.31 15 10.31 15.01 10.31 15.02C10.31 15.02 10.32 15.03 10.33 15.02C10.53 14.97 10.71 14.83 10.77 14.71C10.77 14.71 10.91 14.47 10.79 14.26C10.79 14.25 10.78 14.23 10.77 14.22C10.84 14.19 10.92 14.07 10.92 14.06C11.01 14.09 11.36 14.06 11.39 13.87C11.55 13.89 11.84 13.78 11.85 13.61C11.87 13.63 11.91 13.63 11.95 13.62C11.97 13.77 12.19 13.9 12.24 13.87C12.26 14.11 12.57 14.23 12.66 14.19C12.64 14.25 12.87 14.36 12.96 14.35C12.79 14.82 12.48 15.35 12.05 15.56C11.94 15.55 11.77 15.47 11.7 15.42C11.64 15.38 11.57 15.33 11.52 15.26C11.47 15.19 11.48 15.19 11.43 15.14C11.38 15.09 11.29 15.06 11.25 15.06C11.23 15.06 11.19 15.08 11.16 15.1C10.74 15.02 10.78 15.33 10.82 15.43C10.82 15.43 10.82 15.44 10.83 15.44C10.84 15.44 10.85 15.44 10.85 15.44C10.85 15.28 10.94 15.28 10.99 15.36C11.02 15.41 11 15.44 10.99 15.47C10.94 15.47 10.9 15.49 10.84 15.53C10.47 15.49 10.5 15.9 10.62 15.94C10.62 15.94 10.62 15.95 10.64 15.94C10.64 15.94 10.65 15.94 10.65 15.93C10.58 15.83 10.75 15.68 10.79 15.86C10.79 15.86 10.79 15.87 10.79 15.88C10.79 15.94 10.87 15.99 10.93 16.02C10.92 16.04 10.9 16.05 10.89 16.08C10.5 16.22 10.72 16.55 10.83 16.6C10.83 16.6 10.84 16.6 10.85 16.6C10.85 16.6 10.85 16.59 10.85 16.58C10.81 16.53 10.83 16.42 10.99 16.44C11 16.49 11.07 16.51 11.13 16.51C11.24 16.51 11.44 16.36 11.55 16.3C11.65 16.24 11.82 16.27 11.86 16.27C11.88 16.29 11.91 16.31 11.99 16.31C12.38 16.31 12.45 16.09 12.84 16.1C13.02 16.1 13.44 16.31 13.57 16.12C13.63 16.1 13.66 16.15 13.59 16.22C13.59 16.22 13.59 16.23 13.59 16.24C13.59 16.24 13.6 16.24 13.61 16.24C13.73 16.25 14.08 15.87 13.61 15.75C13.61 15.75 13.61 15.75 13.61 15.74C13.6 15.74 13.54 15.67 13.4 15.67C13.26 15.67 13.16 15.74 13.11 15.75C13.01 15.78 13.04 15.7 13.05 15.67C13.17 15.39 13.72 14.86 13.98 14.65C14.01 14.64 14.04 14.62 14.07 14.6C14.32 14.51 14.39 14.76 14.14 14.85C14.13 14.86 14.13 14.88 14.14 14.89C14.15 14.9 14.16 14.91 14.18 14.91C14.77 14.75 14.68 14.43 14.68 14.43C14.7 14.1 14.31 13.96 14.24 13.93C14.13 13.81 14.11 13.74 14.12 13.65C14.12 13.61 14.16 13.54 14.21 13.57C14.3 13.65 14.42 13.69 14.45 13.63C14.38 13.71 14.85 13.99 14.9 13.87C14.95 14.07 15.28 14.06 15.35 14C15.45 14.19 15.79 14.14 15.79 14.11C15.78 14.18 16.09 14.28 16.23 14.18V14.2C16.35 14.34 16.42 14.52 16.5 14.85C16.58 15.17 16.56 15.43 16.46 15.69C16.46 15.69 16.43 15.7 16.39 15.69C16.31 15.66 16.26 15.63 16.2 15.59C16.15 15.55 16.08 15.49 16.03 15.42C15.99 15.34 15.96 15.28 15.91 15.23C15.86 15.18 15.78 15.16 15.72 15.16C15.72 15.16 15.67 15.17 15.65 15.19C15.34 15.09 15.18 15.43 15.22 15.53C15.22 15.53 15.22 15.54 15.23 15.54C15.24 15.54 15.25 15.54 15.25 15.54C15.28 15.46 15.43 15.42 15.48 15.49C15.48 15.52 15.48 15.55 15.48 15.56C15.41 15.56 15.34 15.59 15.26 15.68C14.89 15.7 15.02 16.06 15.09 16.16C15.09 16.16 15.09 16.17 15.11 16.16C15.11 16.16 15.12 16.16 15.12 16.15C15.12 16.05 15.22 15.92 15.29 16.02C15.32 16.07 15.4 16.11 15.45 16.12C15.03 16.31 15.33 16.59 15.45 16.64C15.45 16.64 15.46 16.64 15.47 16.64C15.47 16.64 15.47 16.63 15.47 16.62C15.42 16.54 15.45 16.41 15.55 16.45C15.55 16.52 15.69 16.56 15.75 16.56C15.86 16.56 15.98 16.47 16.09 16.41C16.19 16.35 16.43 16.35 16.48 16.35C16.64 16.5 16.95 16.46 17.12 16.41C17.3 16.35 17.44 16.25 17.59 16.25C17.79 16.25 17.94 16.49 18.11 16.29C18.22 16.24 18.26 16.37 18.2 16.46C18.2 16.46 18.2 16.47 18.2 16.48C18.2 16.48 18.21 16.48 18.22 16.48C18.33 16.43 18.63 16.16 18.22 15.97C18.24 15.92 18.06 15.77 17.92 15.77C17.74 15.77 17.47 16.04 17.36 15.5C17.33 15.37 17.26 14.41 17.25 14.32C17.29 14.3 17.33 14.27 17.37 14.27C17.41 14.27 17.45 14.27 17.49 14.33C17.53 14.39 17.56 14.49 17.46 14.62C17.46 14.62 17.47 14.62 17.48 14.62C17.73 14.37 17.79 14.11 17.72 13.93C17.65 13.75 17.47 13.61 17.32 13.61C17.14 13.61 16.94 13.5 16.78 13.34C16.62 13.18 16.51 13 16.44 12.84C16.43 12.81 16.41 12.78 16.4 12.75C17.49 12.37 17.8 11.51 17.8 10.97C17.8 10.6 17.65 10.29 17.43 10.06C17.43 9.97001 17.45 9.86001 17.48 9.76001C17.5 9.70001 17.52 9.65001 17.54 9.62001C17.54 9.60001 17.55 9.59001 17.56 9.58001C17.56 9.60001 17.56 9.62001 17.58 9.65001C17.6 9.70001 17.62 9.75001 17.65 9.80001C17.71 9.91001 17.77 10.02 17.83 10.07C17.83 10.07 17.84 10.07 17.85 10.07C17.85 10.07 17.85 10.07 17.86 10.06C17.9 9.52001 18.09 8.74001 18.69 8.01001C18.69 8.01001 18.7 8.00001 18.69 7.99001C18.69 7.99001 18.68 7.98001 18.67 7.98001C18.53 8.04001 18.41 8.11001 18.3 8.17001C17.33 8.69001 17.15 9.04001 16.62 9.45001C16.62 9.45001 16.62 9.46001 16.62 9.47001C16.62 9.47001 16.63 9.48001 16.64 9.48001C16.91 9.47001 17.13 9.41001 17.34 9.30001C17.29 9.39001 17.23 9.49001 17.17 9.59001C17.14 9.64001 17.1 9.69001 17.07 9.73001C17.06 9.75001 17.04 9.76001 17.03 9.76001C16.89 9.69001 16.74 9.65001 16.59 9.65001C16.05 9.65001 15.68 10.01 15.68 10.44C15.68 10.9 16.04 11.24 16.39 11.23C16.51 11.23 16.68 11.19 16.82 11.1C16.93 11.03 17.02 10.92 17.07 10.77C17.07 10.78 17.07 10.79 17.07 10.81C17.07 11.06 16.98 11.23 16.82 11.34C16.67 11.45 16.45 11.51 16.2 11.52C15.96 11.52 15.71 11.39 15.37 11.25C15.02 11.11 14.58 10.96 13.94 10.95C13.75 10.95 13.57 10.97 13.41 11.04C13.41 11.04 13.39 11.05 13.38 11.06C13.46 10.96 13.56 10.87 13.68 10.81C13.96 10.66 14.31 10.62 14.63 10.75C14.66 10.77 14.7 10.79 14.73 10.8C14.75 10.81 14.77 10.81 14.79 10.82C14.79 10.86 14.79 10.89 14.79 10.9C14.79 10.9 14.79 10.91 14.78 10.91C14.78 10.91 14.78 10.91 14.77 10.91C14.77 10.91 14.76 10.91 14.75 10.91C14.75 10.91 14.74 10.91 14.73 10.91C14.73 10.91 14.73 10.92 14.73 10.93C14.73 10.93 14.73 10.94 14.73 10.95C14.73 10.95 14.73 10.95 14.74 10.95C14.77 10.97 14.79 10.99 14.82 10.98C14.85 10.98 14.88 10.95 14.9 10.92C14.92 10.89 14.94 10.85 14.95 10.82C14.95 10.82 14.95 10.82 14.95 10.81C14.98 10.78 15 10.74 14.99 10.69C14.99 10.64 14.94 10.58 14.85 10.54C14.85 10.54 14.83 10.52 14.82 10.49C14.81 10.46 14.79 10.42 14.78 10.37C14.76 10.28 14.75 10.16 14.78 10.04C14.83 9.80001 15.01 9.57001 15.49 9.52001C15.58 9.54001 15.67 9.55001 15.73 9.55001C15.74 9.55001 15.75 9.55001 15.76 9.55001C15.76 9.55001 15.76 9.55001 15.77 9.57001C15.77 9.58001 15.78 9.60001 15.77 9.61001C15.77 9.62001 15.76 9.64001 15.74 9.66001C15.74 9.66001 15.74 9.66001 15.73 9.67001C15.73 9.67001 15.73 9.68001 15.73 9.69001C15.73 9.69001 15.73 9.70001 15.74 9.70001C15.74 9.70001 15.75 9.70001 15.76 9.70001C15.79 9.70001 15.82 9.70001 15.84 9.70001C15.87 9.68001 15.9 9.64001 15.92 9.60001C15.94 9.56001 15.94 9.51001 15.92 9.47001C15.92 9.44001 15.89 9.42001 15.86 9.41001C15.48 9.01001 15.5 8.54001 15.65 8.13001C15.72 7.93001 15.83 7.74001 15.94 7.61001C16.05 7.47001 16.17 7.37001 16.23 7.35001C16.25 7.35001 16.28 7.35001 16.3 7.35001C16.33 7.35001 16.36 7.32001 16.39 7.30001H16.41C16.41 7.30001 16.41 7.30001 16.42 7.30001C16.43 7.30001 16.45 7.30001 16.46 7.30001C16.46 7.30001 16.46 7.30001 16.47 7.30001C16.47 7.30001 16.47 7.33001 16.45 7.36001C16.45 7.36001 16.45 7.37001 16.45 7.38001C16.48 7.38001 16.51 7.36001 16.54 7.33001C16.57 7.30001 16.59 7.26001 16.6 7.22001C16.61 7.18001 16.6 7.14001 16.58 7.11001C16.56 7.08001 16.51 7.07001 16.45 7.07001C16.44 7.05001 16.42 7.03001 16.4 7.01001C16.38 7.00001 16.34 7.00001 16.31 7.00001H16.29C16.23 6.95001 16.18 6.93001 16.12 6.92001L16.16 6.99001ZM7.84999 8.71001C7.95999 8.71001 8.06999 8.73001 8.17999 8.78001C8.15999 8.80001 8.12999 8.81001 8.09999 8.82001C8.03999 8.83001 7.94999 8.83001 7.87999 8.82001C7.79999 8.81001 7.72999 8.78001 7.67999 8.75001C7.65999 8.75001 7.65999 8.74001 7.64999 8.73001C7.71999 8.73001 7.78999 8.72001 7.85999 8.72001L7.84999 8.71001ZM16.56 10.38C16.56 10.38 16.65 10.38 16.69 10.41C16.72 10.42 16.76 10.44 16.79 10.46C16.79 10.46 16.79 10.47 16.78 10.48C16.72 10.69 16.61 10.75 16.52 10.75C16.43 10.75 16.36 10.68 16.35 10.59C16.35 10.48 16.39 10.43 16.45 10.4C16.48 10.39 16.52 10.38 16.56 10.38ZM10.31 10.94C10.31 10.94 10.35 10.94 10.37 10.95C10.39 10.96 10.4 10.99 10.41 11.03V11.04C10.38 11.08 10.35 11.11 10.32 11.15C10.27 11.13 10.22 11.09 10.18 11.03C10.21 10.98 10.26 10.94 10.3 10.93L10.31 10.94Z" fill="black"/>
<path d="M16.17 7.05001C15.97 7.25001 15.77 7.40001 15.48 7.57001C14.98 7.88001 14.39 7.95001 13.66 7.99001C12.18 8.07001 11.53 8.36001 11.22 8.77001C10.92 9.19001 10.97 9.72001 10.89 10.28C10.87 10.45 10.81 10.66 10.72 10.84C10.64 10.99 10.53 11.11 10.38 11.18C10.79 10.81 10.79 10.45 10.83 10.23C10.89 9.85001 10.83 9.30001 11.12 8.84001C11.42 8.38001 12.08 7.99001 13.62 7.93001C14.26 7.91001 14.64 7.84001 14.91 7.76001C15.18 7.68001 15.33 7.58001 15.48 7.49001C15.64 7.39001 15.77 7.24001 15.9 7.14001C15.96 7.09001 16.03 7.05001 16.09 7.04001C16.11 7.04001 16.13 7.04001 16.15 7.04001L16.17 7.05001ZM16.35 7.14001C16.35 7.14001 16.4 7.14001 16.41 7.14001C16.42 7.14001 16.43 7.15001 16.43 7.16001C16.43 7.18001 16.43 7.22001 16.4 7.26001C16.37 7.30001 16.33 7.33001 16.28 7.35001C16.23 7.36001 16.15 7.33001 16.14 7.32001C16.14 7.32001 16.13 7.32001 16.12 7.32001C16.12 7.32001 16.1 7.30001 16.1 7.29001C16.1 7.29001 16.1 7.29001 16.09 7.29001C15.36 7.96001 14.74 8.08001 13.71 8.15001C13.36 8.17001 12.81 8.24001 12.34 8.36001C12.1 8.42001 11.89 8.49001 11.72 8.58001C11.55 8.67001 11.44 8.77001 11.41 8.89001V8.90001C11.41 8.90001 11.41 8.90001 11.42 8.90001C11.42 8.90001 11.44 8.92001 11.45 8.91001C11.54 8.91001 11.79 8.91001 12.13 8.91001C12.47 8.92001 12.9 8.95001 13.35 8.99001C14.22 9.07001 15.17 9.22001 15.74 9.47001C15.75 9.48001 15.76 9.50001 15.77 9.51001C15.76 9.51001 15.72 9.52001 15.67 9.51001C15.57 9.51001 15.41 9.46001 15.21 9.41001C14.82 9.31001 14.29 9.16001 13.81 9.11001C12.99 9.02001 12.49 8.91001 11.36 8.91001C11.36 8.91001 11.36 8.91001 11.35 8.91001C11.34 8.91001 11.35 8.91001 11.34 8.92001C11.33 8.93001 11.32 8.95001 11.3 8.97001C11.28 9.01001 11.26 9.07001 11.27 9.13001V9.14001V9.15001C11.37 9.17001 11.59 9.24001 11.87 9.34001C12.15 9.44001 12.5 9.58001 12.86 9.73001C13.57 10.02 14.32 10.37 14.74 10.65C14.77 10.67 14.81 10.71 14.83 10.73C14.83 10.73 14.83 10.74 14.84 10.75C14.84 10.75 14.84 10.75 14.84 10.76C14.84 10.76 14.82 10.77 14.8 10.78C14.63 10.74 14.37 10.6 14.06 10.42C13.73 10.23 13.34 10 12.99 9.85001C12.36 9.59001 11.6 9.25001 11.24 9.17001C11.24 9.17001 11.24 9.17001 11.24 9.18001C11.21 9.20001 11.2 9.22001 11.19 9.24001C11.19 9.26001 11.19 9.29001 11.19 9.31001C11.21 9.36001 11.26 9.41001 11.34 9.49001C11.49 9.65001 11.75 9.89001 12.08 10.32C12.65 11.06 12.92 11.42 13.03 11.59C13.09 11.68 13.11 11.72 13.11 11.74V11.75C13.11 11.75 13.11 11.75 13.09 11.76C13.04 11.76 13.02 11.75 12.99 11.72C12.96 11.69 12.93 11.65 12.89 11.57C12.8 11.42 12.66 11.16 12.31 10.71C12.1 10.44 11.85 10.15 11.64 9.90001C11.43 9.66001 11.26 9.47001 11.21 9.40001C11.21 9.40001 11.21 9.40001 11.21 9.39001C11.21 9.39001 11.19 9.39001 11.18 9.39001C11.18 9.39001 11.17 9.40001 11.16 9.41001C11.15 9.43001 11.14 9.45001 11.13 9.48001C11.11 9.54001 11.1 9.63001 11.09 9.71001C11.08 9.80001 11.07 9.89001 11.06 9.97001C11.06 10.04 11.06 10.1 11.06 10.12V10.13C11.07 10.26 11.13 10.37 11.2 10.52C11.27 10.68 11.37 10.88 11.45 11.2C11.52 11.47 11.59 11.75 11.62 11.96C11.64 12.07 11.64 12.16 11.64 12.22C11.64 12.25 11.64 12.28 11.62 12.29C11.6 12.3 11.6 12.31 11.59 12.31H11.56C11.56 12.31 11.55 12.28 11.54 12.25C11.53 12.19 11.53 12.08 11.51 11.93C11.48 11.62 11.39 11.11 11.09 10.34C11.09 10.34 11.08 10.36 11.07 10.37C11.06 10.39 11.05 10.43 11.03 10.47C11 10.56 10.96 10.68 10.93 10.82C10.88 11.01 10.84 11.24 10.82 11.46C10.82 11.43 10.82 11.4 10.82 11.37C10.82 11.29 10.82 11.21 10.82 11.14C10.82 11.11 10.82 11.08 10.84 11.05C10.84 11.04 10.84 11.03 10.85 11.02C10.85 11.01 10.85 10.99 10.87 10.98C10.87 10.98 10.87 10.97 10.87 10.96C10.87 10.96 10.87 10.96 10.86 10.96C10.73 11.09 10.64 11.18 10.58 11.32C10.55 11.39 10.52 11.47 10.5 11.57C10.5 11.5 10.5 11.44 10.51 11.39C10.52 11.34 10.52 11.3 10.53 11.29C10.53 11.29 10.53 11.28 10.53 11.27C10.53 11.27 10.52 11.27 10.51 11.27C10.43 11.31 10.31 11.39 10.2 11.5C10.15 11.55 10.11 11.61 10.08 11.66C10.11 11.55 10.13 11.51 10.15 11.47C10.15 11.47 10.16 11.45 10.17 11.44C10.17 11.44 10.17 11.43 10.17 11.42C9.71001 11.46 9.43001 11.63 9.27001 11.83C9.16001 11.96 9.11001 12.09 9.08001 12.21C9.10001 11.92 9.28001 11.64 9.53001 11.54C9.67001 11.48 9.87001 11.46 10.05 11.42C10.22 11.39 10.37 11.35 10.44 11.27C10.65 11.2 10.8 11 10.9 10.8C11.01 10.59 11.07 10.37 11.09 10.25C11.18 9.75001 11.09 9.22001 11.37 8.81001C11.51 8.60001 11.74 8.42001 12.13 8.29001C12.52 8.16001 13.08 8.06001 13.86 8.04001C14.5 8.02001 14.88 7.94001 15.15 7.84001C15.42 7.74001 15.56 7.62001 15.72 7.53001C15.81 7.48001 15.96 7.35001 16.12 7.24001C16.2 7.19001 16.28 7.14001 16.36 7.11001C16.39 7.10001 16.42 7.09001 16.45 7.08001L16.35 7.14001ZM10.2 7.22001C10.18 7.28001 10.14 7.34001 10.11 7.39001C10.08 7.43001 10.05 7.46001 10.03 7.48001C10.02 7.49001 10.01 7.50001 10.01 7.50001C9.90001 7.51001 9.79001 7.53001 9.70001 7.57001C9.69001 7.57001 9.68001 7.58001 9.67001 7.59001C9.60001 7.57001 9.54001 7.55001 9.48001 7.54001C9.48001 7.54001 9.49001 7.52001 9.51001 7.51001C9.53001 7.50001 9.55001 7.49001 9.59001 7.48001C9.65001 7.46001 9.74001 7.44001 9.83001 7.42001C9.98001 7.38001 10.13 7.32001 10.23 7.21001L10.2 7.22001ZM16.53 7.22001C16.53 7.22001 16.56 7.22001 16.57 7.23001C16.59 7.24001 16.59 7.26001 16.59 7.28001C16.59 7.30001 16.57 7.32001 16.56 7.35001C16.56 7.33001 16.56 7.32001 16.56 7.30001C16.55 7.27001 16.52 7.26001 16.48 7.25001C16.48 7.24001 16.49 7.23001 16.5 7.21001C16.51 7.21001 16.53 7.21001 16.54 7.21001L16.53 7.22001ZM10.62 7.36001C10.56 7.66001 10.4 7.84001 10.25 7.96001C10.17 8.02001 10.08 8.07001 10.02 8.10001C9.99001 8.12001 9.96001 8.13001 9.94001 8.14001C9.94001 8.14001 9.92001 8.15001 9.92001 8.16001C9.92001 8.16001 9.91001 8.18001 9.91001 8.19001C9.91001 8.19001 9.91001 8.21001 9.93001 8.21001C9.96001 8.21001 10.02 8.21001 10.09 8.21001C10.11 8.21001 10.12 8.21001 10.15 8.21001C10.23 8.37001 10.26 8.59001 10.25 8.85001C10.25 9.13001 10.2 9.44001 10.14 9.74001C10.08 10.04 10.01 10.37 10.01 10.66C10.01 10.8 10.03 10.94 10.08 11.05C10.12 11.14 10.18 11.22 10.27 11.27C10.25 11.29 10.23 11.32 10.18 11.33C10.13 11.35 10.06 11.36 9.99001 11.38C9.84001 11.4 9.67001 11.42 9.54001 11.46C9.45001 11.49 9.27001 11.58 9.12001 11.76C9.00001 11.9 8.92001 12.11 8.95001 12.36V12.37C8.95001 12.37 8.95001 12.38 8.95001 12.39C8.95001 12.43 8.95001 12.46 8.97001 12.51C8.97001 12.51 8.98001 12.53 8.99001 12.52C8.99001 12.52 9.00001 12.51 9.00001 12.5C9.00001 12.49 9.00001 12.47 9.00001 12.46C9.03001 12.48 9.07001 12.48 9.12001 12.49C9.06001 12.63 9.02001 12.79 8.99001 12.95C8.96001 12.9 8.91001 12.86 8.85001 12.82C8.85001 12.8 8.85001 12.78 8.85001 12.76C8.85001 12.66 8.79001 12.55 8.64001 12.42C8.65001 12.4 8.66001 12.39 8.67001 12.37C8.70001 12.28 8.67001 12.18 8.60001 12.03C8.65001 11.94 8.65001 11.81 8.58001 11.62C8.58001 11.62 8.60001 11.61 8.60001 11.6C8.66001 11.52 8.68001 11.4 8.63001 11.22C8.64001 11.21 8.66001 11.2 8.67001 11.19C8.73001 11.12 8.76001 11.01 8.73001 10.83C8.75001 10.82 8.77001 10.81 8.79001 10.79C8.85001 10.73 8.87001 10.62 8.86001 10.45C8.90001 10.44 8.94001 10.42 8.97001 10.39C9.03001 10.33 9.05001 10.24 9.03001 10.1C9.06001 10.09 9.09001 10.07 9.11001 10.05C9.16001 9.99001 9.19001 9.90001 9.18001 9.76001C9.20001 9.76001 9.22001 9.74001 9.23001 9.73001C9.26001 9.69001 9.27001 9.64001 9.27001 9.56001C9.27001 9.50001 9.27001 9.40001 9.26001 9.29001C9.28001 9.25001 9.30001 9.21001 9.31001 9.15001C9.32001 9.07001 9.31001 8.96001 9.28001 8.83001C9.32001 8.73001 9.35001 8.61001 9.34001 8.47001C9.37001 8.48001 9.40001 8.49001 9.45001 8.47001C9.50001 8.47001 9.56001 8.43001 9.63001 8.38001C9.63001 8.38001 9.63001 8.37001 9.63001 8.36001C9.63001 8.36001 9.62001 8.35001 9.61001 8.36001C9.59001 8.36001 9.57001 8.38001 9.56001 8.39001C9.55001 8.39001 9.54001 8.40001 9.53001 8.39001C9.46001 8.36001 9.44001 8.39001 9.23001 8.22001C9.23001 8.22001 9.23001 8.22001 9.22001 8.22001H9.21001C9.21001 8.22001 9.21001 8.23001 9.21001 8.24001C9.23001 8.28001 9.27001 8.32001 9.30001 8.35001C9.32001 8.36001 9.32001 8.37001 9.34001 8.38001C9.29001 8.37001 9.25001 8.35001 9.22001 8.34001C9.22001 8.34001 9.21001 8.34001 9.20001 8.34001C9.20001 8.34001 9.20001 8.35001 9.20001 8.36001C9.29001 8.57001 9.22001 8.82001 9.07001 8.99001C8.92001 9.15001 8.68001 9.23001 8.41001 9.11001C8.41001 9.11001 8.40001 9.10001 8.39001 9.11001C8.35001 9.17001 8.32001 9.23001 8.26001 9.29001C8.22001 9.33001 8.16001 9.37001 8.08001 9.41001C8.11001 9.38001 8.14001 9.35001 8.15001 9.32001C8.18001 9.26001 8.18001 9.20001 8.18001 9.13001C8.18001 9.13001 8.18001 9.12001 8.17001 9.11001H8.15001C8.10001 9.20001 7.96001 9.32001 7.72001 9.41001C7.82001 9.33001 7.88001 9.24001 7.89001 9.15001C7.89001 9.15001 7.89001 9.14001 7.89001 9.13001C7.89001 9.13001 7.88001 9.13001 7.87001 9.13001C7.74001 9.25001 7.51001 9.28001 7.29001 9.30001C7.34001 9.28001 7.39001 9.24001 7.43001 9.20001C7.51001 9.11001 7.58001 8.97001 7.63001 8.78001C7.78001 8.87001 7.93001 8.90001 8.05001 8.89001C8.19001 8.89001 8.29001 8.83001 8.37001 8.78001C8.37001 8.81001 8.37001 8.84001 8.37001 8.89001C8.37001 8.89001 8.37001 8.91001 8.38001 8.91001C8.38001 8.91001 8.40001 8.91001 8.40001 8.90001C8.47001 8.73001 8.51001 8.62001 8.50001 8.53001C8.50001 8.44001 8.43001 8.37001 8.33001 8.28001C8.33001 8.28001 8.33001 8.28001 8.32001 8.28001C8.32001 8.28001 8.31001 8.28001 8.31001 8.29001C8.31001 8.31001 8.31001 8.33001 8.31001 8.35001C8.11001 8.34001 7.89001 8.15001 7.45001 8.48001C7.44001 8.29001 7.45001 8.16001 7.50001 8.06001C7.52001 8.06001 7.54001 8.06001 7.56001 8.06001C7.60001 8.06001 7.64001 8.03001 7.67001 7.98001C7.70001 7.94001 7.71001 7.88001 7.72001 7.80001C7.98001 7.81001 8.29001 7.86001 8.61001 7.96001C8.61001 7.96001 8.63001 7.96001 8.63001 7.95001V7.93001C8.58001 7.91001 8.53001 7.88001 8.50001 7.86001C8.48001 7.84001 8.46001 7.82001 8.45001 7.80001C8.43001 7.75001 8.45001 7.69001 8.53001 7.65001C8.68001 7.56001 9.03001 7.53001 9.59001 7.72001C9.57001 7.75001 9.55001 7.78001 9.54001 7.82001V7.84001H9.56001C9.72001 7.68001 9.95001 7.66001 10.17 7.62001C10.37 7.59001 10.55 7.55001 10.68 7.39001L10.62 7.36001ZM10.46 7.62001C10.32 7.73001 10.19 7.77001 10.06 7.79001C9.94001 7.81001 9.89001 7.85001 9.86001 7.87001C9.86001 7.87001 9.85001 7.87001 9.84001 7.87001C9.83001 7.87001 9.84001 7.87001 9.83001 7.87001C9.83001 7.87001 9.80001 7.85001 9.78001 7.83001C9.78001 7.83001 9.77001 7.83001 9.76001 7.83001C9.76001 7.83001 9.75001 7.83001 9.76001 7.85001C9.76001 7.88001 9.78001 7.91001 9.80001 7.95001C9.81001 7.97001 9.82001 7.99001 9.84001 8.01001C9.85001 8.03001 9.86001 8.04001 9.87001 8.05001C9.87001 8.05001 9.87001 8.05001 9.88001 8.05001C9.89001 8.05001 9.88001 8.05001 9.89001 8.05001C9.93001 7.96001 9.97001 7.90001 10 7.87001C10.03 7.84001 10.06 7.84001 10.08 7.84001C10.1 7.84001 10.12 7.86001 10.14 7.87001C10.14 7.87001 10.16 7.88001 10.17 7.89001C10.17 7.89001 10.19 7.90001 10.2 7.89001C10.2 7.89001 10.2 7.89001 10.21 7.89001C10.26 7.82001 10.36 7.74001 10.48 7.65001C10.48 7.65001 10.48 7.64001 10.48 7.63001C10.48 7.63001 10.48 7.62001 10.46 7.62001ZM5.99001 7.67001C6.18001 7.94001 6.44001 8.20001 6.80001 8.39001C6.65001 8.40001 6.54001 8.37001 6.44001 8.31001C6.32001 8.23001 6.23001 8.10001 6.14001 7.96001C6.14001 7.96001 6.13001 7.96001 6.12001 7.96001C6.12001 7.96001 6.12001 7.96001 6.11001 7.96001C6.11001 7.96001 6.11001 7.96001 6.11001 7.97001C6.23001 8.23001 6.33001 8.35001 6.39001 8.43001C6.45001 8.51001 6.47001 8.56001 6.46001 8.68001C6.31001 8.57001 6.20001 8.38001 6.12001 8.18001C6.04001 7.98001 6.00001 7.78001 5.99001 7.66001V7.67001ZM15.82 7.69001C15.72 7.82001 15.63 7.98001 15.56 8.16001C15.42 8.53001 15.39 8.98001 15.66 9.37001C15.07 9.15001 14.18 9.01001 13.36 8.94001C12.91 8.90001 12.48 8.87001 12.14 8.86001C11.84 8.85001 11.64 8.85001 11.53 8.86001C11.58 8.77001 11.71 8.68001 11.89 8.61001C12.09 8.53001 12.34 8.46001 12.6 8.41001C13.11 8.30001 13.63 8.25001 13.74 8.24001C14.55 8.21001 15.12 8.05001 15.51 7.87001C15.64 7.81001 15.74 7.75001 15.83 7.70001L15.82 7.69001ZM8.56001 7.75001C8.56001 7.75001 8.50001 7.75001 8.46001 7.75001C8.46001 7.75001 8.45001 7.75001 8.45001 7.77001C8.45001 7.80001 8.46001 7.81001 8.48001 7.83001C8.50001 7.85001 8.51001 7.85001 8.53001 7.87001C8.57001 7.89001 8.62001 7.93001 8.65001 8.02001C8.65001 8.02001 8.65001 8.03001 8.66001 8.03001C8.66001 8.03001 8.67001 8.03001 8.68001 8.03001C8.68001 8.02001 8.68001 8.00001 8.69001 8.00001C8.69001 8.00001 8.70001 8.01001 8.71001 8.02001C8.71001 8.02001 8.72001 8.03001 8.74001 8.04001C8.75001 8.04001 8.76001 8.04001 8.78001 8.04001C8.91001 8.00001 9.00001 7.98001 9.06001 7.97001C9.12001 7.97001 9.16001 7.97001 9.18001 8.00001H9.20001C9.20001 8.00001 9.20001 7.99001 9.20001 7.98001C9.14001 7.88001 9.07001 7.85001 9.00001 7.84001C8.93001 7.84001 8.86001 7.84001 8.79001 7.84001C8.71001 7.83001 8.67001 7.81001 8.62001 7.79001C8.60001 7.79001 8.57001 7.78001 8.55001 7.77001L8.56001 7.75001ZM8.58001 7.80001C8.58001 7.80001 8.70001 7.84001 8.73001 7.84001C8.71001 7.91001 8.75001 7.94001 8.78001 7.96001C8.68001 7.97001 8.58001 7.82001 8.58001 7.81001V7.80001ZM7.55001 7.80001C7.55001 7.80001 7.55001 7.88001 7.54001 7.92001C7.54001 7.95001 7.52001 7.96001 7.50001 7.97001C7.48001 7.97001 7.44001 7.97001 7.40001 7.96001C7.37001 7.94001 7.27001 7.90001 7.16001 7.87001C7.14001 7.87001 7.11001 7.87001 7.09001 7.87001C7.22001 7.83001 7.38001 7.81001 7.56001 7.81001L7.55001 7.80001ZM8.95001 7.85001C9.00001 7.85001 9.04001 7.88001 9.00001 7.90001C8.95001 7.93001 8.87001 7.97001 8.82001 7.95001C8.87001 7.95001 8.89001 7.89001 8.86001 7.85001C8.84001 7.85001 8.90001 7.85001 8.96001 7.85001H8.95001ZM9.18001 8.02001C9.09001 8.02001 9.04001 8.02001 8.99001 8.03001C8.95001 8.04001 8.92001 8.06001 8.89001 8.08001C8.89001 8.08001 8.89001 8.09001 8.89001 8.10001C8.89001 8.11001 8.89001 8.11001 8.90001 8.11001C8.93001 8.11001 8.95001 8.12001 8.96001 8.12001C8.96001 8.12001 8.96001 8.12001 8.96001 8.14001C8.96001 8.14001 8.96001 8.15001 8.97001 8.15001C8.97001 8.15001 8.98001 8.15001 8.99001 8.15001C9.01001 8.10001 9.03001 8.08001 9.06001 8.07001C9.08001 8.06001 9.12001 8.05001 9.17001 8.05001C9.17001 8.05001 9.18001 8.05001 9.18001 8.03001C9.18001 8.01001 9.18001 8.02001 9.17001 8.01001L9.18001 8.02001ZM18.59 8.15001C17.96 8.87001 17.81 9.66001 17.77 9.90001C17.69 9.76001 17.58 9.60001 17.65 9.40001C17.8 9.03001 17.85 8.98001 18.25 8.46001V8.44001H18.23C17.8 8.80001 17.6 9.05001 17.43 9.21001C17.27 9.36001 17.13 9.44001 16.85 9.48001C17.38 9.03001 17.62 8.63001 18.6 8.15001H18.59ZM10.3 8.21001C10.34 8.23001 10.39 8.25001 10.45 8.29001C10.53 8.36001 10.61 8.48001 10.65 8.66001C10.62 8.61001 10.58 8.58001 10.54 8.56001C10.47 8.53001 10.4 8.53001 10.35 8.53001C10.35 8.49001 10.35 8.45001 10.34 8.41001C10.4 8.41001 10.45 8.41001 10.51 8.47001H10.53V8.45001C10.46 8.35001 10.38 8.30001 10.32 8.30001C10.32 8.27001 10.31 8.23001 10.3 8.20001V8.21001ZM6.43001 8.37001C6.43001 8.37001 6.46001 8.37001 6.47001 8.39001C6.66001 8.53001 6.82001 8.61001 6.97001 8.63001C7.13001 8.66001 7.29001 8.63001 7.46001 8.57001C7.46001 8.57001 7.57001 8.54001 7.65001 8.52001C7.74001 8.51001 7.84001 8.50001 7.94001 8.50001C8.04001 8.50001 8.14001 8.50001 8.21001 8.53001C8.26001 8.54001 8.30001 8.56001 8.33001 8.59001C8.17001 8.56001 8.03001 8.55001 7.85001 8.56001C7.85001 8.56001 7.85001 8.56001 7.84001 8.56001C7.84001 8.56001 7.83001 8.56001 7.83001 8.58001C7.83001 8.58001 7.83001 8.59001 7.84001 8.60001C7.85001 8.61001 7.84001 8.60001 7.85001 8.60001C7.86001 8.60001 7.88001 8.60001 7.90001 8.60001C7.94001 8.60001 8.00001 8.59001 8.07001 8.60001C8.13001 8.60001 8.16001 8.60001 8.30001 8.65001C8.31001 8.65001 8.32001 8.67001 8.32001 8.69001C8.32001 8.69001 8.31001 8.69001 8.30001 8.69001C8.28001 8.69001 8.26001 8.69001 8.23001 8.67001C8.17001 8.66001 8.10001 8.65001 8.01001 8.64001C7.84001 8.62001 7.63001 8.62001 7.46001 8.67001C7.31001 8.73001 7.12001 8.76001 6.93001 8.73001C6.75001 8.70001 6.58001 8.61001 6.45001 8.45001C6.44001 8.43001 6.43001 8.42001 6.42001 8.40001L6.43001 8.37001ZM18.01 8.67001C17.67 9.08001 17.49 9.43001 17.4 9.67001C17.34 9.81001 17.32 9.92001 17.29 9.99001C17.29 10.02 17.27 10.03 17.27 10.04C17.23 10 17.18 9.97001 17.14 9.94001C17.14 9.92001 17.14 9.91001 17.15 9.88001C17.16 9.84001 17.18 9.80001 17.21 9.75001C17.26 9.65001 17.34 9.51001 17.44 9.37001C17.59 9.15001 17.79 8.91001 18.01 8.68001V8.67001ZM10.36 8.89001C10.47 8.96001 10.57 9.05001 10.63 9.17001C10.68 9.27001 10.69 9.40001 10.66 9.56001C10.66 9.48001 10.62 9.41001 10.57 9.37001C10.53 9.33001 10.47 9.31001 10.42 9.31001C10.38 9.31001 10.35 9.32001 10.31 9.34001C10.32 9.28001 10.33 9.22001 10.34 9.16001C10.35 9.16001 10.37 9.16001 10.4 9.16001C10.43 9.17001 10.46 9.19001 10.5 9.21001C10.53 9.23001 10.56 9.26001 10.58 9.29001C10.6 9.32001 10.61 9.34001 10.61 9.36001C10.61 9.36001 10.61 9.38001 10.63 9.38001C10.63 9.38001 10.65 9.38001 10.65 9.36001C10.65 9.34001 10.64 9.31001 10.62 9.29001C10.62 9.29001 10.62 9.27001 10.61 9.26001C10.59 9.22001 10.56 9.19001 10.52 9.16001C10.48 9.13001 10.45 9.10001 10.42 9.08001C10.4 9.06001 10.38 9.05001 10.35 9.05001C10.35 8.99001 10.36 8.94001 10.36 8.89001ZM9.18001 8.95001C9.22001 9.04001 9.22001 9.11001 9.21001 9.16001C9.20001 9.22001 9.16001 9.26001 9.11001 9.30001C9.02001 9.36001 8.89001 9.39001 8.77001 9.41001C8.76001 9.41001 8.74001 9.41001 8.73001 9.40001C8.73001 9.40001 8.73001 9.40001 8.73001 9.39001C8.73001 9.39001 8.73001 9.38001 8.75001 9.37001C8.77001 9.35001 8.80001 9.34001 8.83001 9.31001C8.89001 9.27001 8.97001 9.21001 9.05001 9.14001C9.10001 9.09001 9.15001 9.03001 9.20001 8.96001L9.18001 8.95001ZM11.39 9.02001C12.64 9.07001 12.97 9.15001 13.8 9.25001C14.37 9.32001 14.89 9.47001 15.27 9.56001C14.9 9.65001 14.73 9.88001 14.68 10.11C14.65 10.24 14.66 10.37 14.68 10.48C14.68 10.52 14.7 10.54 14.71 10.57C14.27 10.3 13.57 9.98001 12.91 9.70001C12.55 9.55001 12.2 9.41001 11.91 9.31001C11.66 9.22001 11.48 9.17001 11.36 9.14001C11.36 9.10001 11.35 9.05001 11.37 9.01001L11.39 9.02001ZM11.29 9.32001C11.29 9.32001 11.32 9.32001 11.35 9.34001C11.39 9.35001 11.44 9.37001 11.5 9.39001C11.62 9.43001 11.77 9.49001 11.94 9.56001C12.28 9.70001 12.68 9.87001 12.99 10C13.33 10.14 13.81 10.43 14.21 10.65C14.23 10.66 14.25 10.67 14.26 10.68C14.24 10.68 14.23 10.68 14.21 10.68C14.08 10.68 13.92 10.71 13.77 10.77C13.47 10.88 13.18 11.11 13.08 11.53C13.07 11.51 13.06 11.5 13.05 11.48C12.88 11.24 12.57 10.87 12.15 10.33C11.89 10 11.63 9.76001 11.47 9.58001C11.39 9.49001 11.33 9.42001 11.3 9.37001C11.29 9.35001 11.29 9.33001 11.29 9.31001V9.32001ZM9.16001 9.35001C9.18001 9.45001 9.18001 9.53001 9.16001 9.58001C9.15001 9.63001 9.12001 9.67001 9.07001 9.69001C9.00001 9.72001 8.90001 9.72001 8.78001 9.73001C8.74001 9.73001 8.71001 9.71001 8.70001 9.69001C8.68001 9.67001 8.68001 9.64001 8.68001 9.61001C8.68001 9.55001 8.73001 9.48001 8.76001 9.45001C8.76001 9.45001 8.77001 9.45001 8.79001 9.45001C8.93001 9.45001 9.05001 9.42001 9.13001 9.36001L9.16001 9.35001ZM15.87 9.58001C15.88 9.60001 15.87 9.62001 15.87 9.65001C15.86 9.68001 15.84 9.70001 15.82 9.72001C15.83 9.70001 15.84 9.69001 15.84 9.67001C15.84 9.65001 15.84 9.62001 15.84 9.60001C15.84 9.60001 15.84 9.60001 15.85 9.60001C15.85 9.60001 15.86 9.58001 15.87 9.57001V9.58001ZM11.24 9.61001C11.24 9.61001 11.25 9.61001 11.26 9.62001C11.31 9.66001 11.38 9.74001 11.47 9.85001C11.64 10.06 11.87 10.37 12.09 10.65C12.32 10.94 12.5 11.27 12.67 11.52C12.7 11.56 12.72 11.59 12.75 11.63C12.67 11.61 12.59 11.59 12.49 11.59C12.44 11.59 12.38 11.59 12.33 11.6C12.12 11.63 11.91 11.75 11.74 12.01C11.7 11.8 11.63 11.54 11.54 11.24C11.41 10.8 11.33 10.64 11.28 10.54C11.23 10.44 11.2 10.39 11.16 10.19C11.16 10.11 11.16 9.94001 11.19 9.81001C11.2 9.74001 11.22 9.68001 11.23 9.64001C11.23 9.63001 11.23 9.62001 11.24 9.61001ZM10.25 9.66001C10.25 9.66001 10.3 9.72001 10.34 9.75001C10.39 9.80001 10.46 9.84001 10.51 9.91001C10.56 9.98001 10.59 10.05 10.59 10.14C10.59 10.21 10.55 10.31 10.49 10.42C10.49 10.37 10.49 10.32 10.48 10.28C10.45 10.22 10.4 10.17 10.34 10.14C10.28 10.11 10.22 10.09 10.18 10.07C10.18 10.07 10.17 10.07 10.16 10.07C10.17 10.03 10.19 10 10.21 9.98001C10.24 9.96001 10.27 9.96001 10.31 9.98001C10.35 9.99001 10.38 10.02 10.41 10.04C10.44 10.07 10.46 10.1 10.47 10.11C10.47 10.11 10.48 10.12 10.49 10.11C10.49 10.11 10.5 10.1 10.5 10.09C10.45 9.96001 10.36 9.93001 10.3 9.89001C10.27 9.87001 10.25 9.85001 10.24 9.81001C10.24 9.78001 10.24 9.73001 10.25 9.67001V9.66001ZM6.29001 9.70001C6.41001 9.70001 6.50001 9.74001 6.55001 9.83001C6.54001 9.84001 6.52001 9.84001 6.50001 9.84001C6.49001 9.79001 6.41001 9.74001 6.34001 9.73001C6.34001 9.73001 6.33001 9.73001 6.32001 9.73001C6.32001 9.73001 6.32001 9.73001 6.32001 9.75001C6.32001 9.75001 6.32001 9.76001 6.33001 9.76001C6.38001 9.78001 6.43001 9.80001 6.41001 9.85001C6.39001 9.85001 6.37001 9.85001 6.35001 9.85001C6.35001 9.80001 6.25001 9.76001 6.16001 9.72001C6.21001 9.71001 6.25001 9.70001 6.29001 9.70001ZM9.07001 9.76001C9.07001 9.88001 9.05001 9.96001 9.01001 10C8.97001 10.04 8.90001 10.05 8.83001 10.05C8.76001 10.05 8.68001 10.03 8.62001 10.03C8.62001 10.03 8.59001 10.03 8.58001 10.02C8.58001 10.02 8.57001 10.01 8.57001 9.99001C8.57001 9.97001 8.58001 9.93001 8.61001 9.90001C8.63001 9.87001 8.67001 9.83001 8.70001 9.81001C8.73001 9.79001 8.75001 9.78001 8.77001 9.78001C8.88001 9.78001 8.99001 9.78001 9.05001 9.78001C9.06001 9.78001 9.07001 9.78001 9.09001 9.78001L9.07001 9.76001ZM16.56 9.85001C17.05 9.85001 17.66 10.35 17.66 11.06C17.66 11.56 17.37 12.38 16.32 12.74C16.02 12.16 15.46 11.64 14.73 11.39C14.73 11.39 14.73 11.39 14.72 11.39C14.72 11.39 14.71 11.39 14.71 11.41C14.71 11.41 14.71 11.42 14.72 11.43C15.51 11.7 16.04 12.32 16.3 12.97C16.37 13.14 16.54 13.38 16.71 13.54C16.88 13.7 17.08 13.8 17.27 13.81C17.4 13.81 17.55 13.89 17.61 14.06C17.66 14.19 17.66 14.36 17.53 14.55C17.55 14.47 17.53 14.4 17.51 14.35C17.46 14.27 17.36 14.24 17.3 14.25C17.19 14.25 17.12 14.31 16.97 14.39C16.97 14.39 16.96 14.4 16.97 14.41C16.97 14.41 17.03 14.42 17.08 14.42C17.08 14.51 17.22 15.46 17.25 15.59C17.35 16.25 17.81 15.93 17.89 15.94C18.04 15.96 18.07 16 18.12 16.05C18.07 16.05 18.03 16.21 18.05 16.31C17.87 16.44 17.68 16.24 17.54 16.24C17.38 16.24 17.21 16.35 17.03 16.41C16.87 16.46 16.78 16.5 16.58 16.41C16.61 16.41 16.65 16.39 16.65 16.39C16.65 16.39 16.65 16.39 16.66 16.39C16.66 16.39 16.67 16.39 16.67 16.38C16.67 16.38 16.67 16.37 16.67 16.36C16.67 16.36 16.66 16.36 16.65 16.36H16.64C16.64 16.36 16.62 16.36 16.61 16.36C16.58 16.36 16.55 16.36 16.51 16.36C16.43 16.36 16.35 16.36 16.32 16.36C16.23 16.36 16.11 16.39 16 16.44C15.89 16.5 15.81 16.57 15.71 16.57C15.65 16.57 15.6 16.56 15.55 16.52C15.58 16.43 15.57 16.31 15.5 16.21H15.48C15.59 16.19 15.64 16.13 15.71 16.13C15.8 16.13 15.8 16.31 16.26 16.01C16.26 16.01 16.26 16.01 16.26 16C16.26 16 16.26 15.99 16.26 15.98C16.26 15.98 16.25 15.98 16.24 15.98C15.83 16.17 15.96 16.03 15.75 16.04C15.55 16.04 15.54 16.12 15.42 16.11C15.36 16.11 15.28 16.08 15.27 16.05C15.32 16.04 15.33 15.89 15.31 15.81C15.31 15.81 15.31 15.8 15.31 15.79C15.34 15.76 15.41 15.75 15.47 15.75C15.53 15.75 15.61 15.81 15.7 15.84C15.79 15.88 15.87 15.81 15.98 15.88H16V15.86C15.96 15.84 15.88 15.75 15.79 15.71C15.73 15.69 15.67 15.67 15.6 15.66C15.56 15.62 15.48 15.55 15.49 15.54C15.51 15.53 15.53 15.51 15.55 15.48C15.57 15.45 15.59 15.43 15.59 15.4C15.59 15.38 15.59 15.37 15.59 15.36C15.59 15.36 15.59 15.36 15.59 15.34C15.61 15.31 15.63 15.3 15.66 15.3C15.71 15.3 15.74 15.32 15.79 15.37C15.83 15.41 15.88 15.48 15.93 15.56C15.99 15.67 16.08 15.74 16.17 15.8C16.14 15.82 16.11 15.85 16.11 15.85C16.11 15.85 16.11 15.85 16.09 15.85C16.09 15.85 16.08 15.86 16.09 15.87C16.1 15.88 16.1 15.88 16.11 15.87C16.11 15.87 16.11 15.87 16.12 15.87C16.12 15.87 16.14 15.87 16.16 15.87C16.19 15.87 16.23 15.89 16.28 15.89C16.32 15.89 16.37 15.89 16.41 15.89C16.45 15.89 16.49 15.86 16.51 15.83C16.65 15.58 16.63 15.21 16.56 14.88C16.48 14.55 16.25 14.11 16.24 14.1C16.24 13.99 15.96 13.66 15.9 13.73C15.9 13.72 15.9 13.71 15.9 13.69C15.9 13.67 15.88 13.65 15.87 13.62C15.84 13.57 15.8 13.52 15.75 13.48C15.7 13.44 15.65 13.41 15.61 13.4C15.59 13.4 15.56 13.4 15.54 13.41C15.54 13.41 15.54 13.42 15.53 13.43C15.53 13.41 15.51 13.38 15.49 13.36C15.46 13.31 15.41 13.27 15.36 13.23C15.31 13.19 15.26 13.16 15.21 13.15C15.19 13.15 15.16 13.15 15.15 13.15C15.15 13.13 15.13 13.11 15.12 13.09C15.09 13.04 15.04 13 14.98 12.96C14.92 12.92 14.86 12.9 14.81 12.9C14.78 12.9 14.75 12.91 14.73 12.94C14.73 12.9 14.72 12.87 14.7 12.83C14.67 12.77 14.61 12.71 14.55 12.67C14.49 12.63 14.42 12.6 14.36 12.61C14.33 12.61 14.3 12.62 14.28 12.64C14.28 12.64 14.26 12.57 14.24 12.54C14.2 12.49 14.13 12.45 14.06 12.43C13.99 12.41 13.92 12.4 13.87 12.41C13.84 12.41 13.82 12.42 13.8 12.44C13.8 12.44 13.8 12.45 13.79 12.46C13.79 12.46 13.79 12.46 13.79 12.45C13.77 12.43 13.75 12.41 13.73 12.4C13.68 12.37 13.61 12.34 13.54 12.33C13.5 12.33 13.47 12.33 13.44 12.33C13.41 12.33 13.38 12.33 13.35 12.35C13.32 12.37 13.3 12.4 13.29 12.44C13.27 12.41 13.25 12.39 13.21 12.37C13.15 12.35 13.08 12.35 13.01 12.37C12.94 12.39 12.88 12.41 12.83 12.44C12.82 12.45 12.81 12.46 12.8 12.48C12.8 12.48 12.78 12.46 12.77 12.46C12.72 12.44 12.65 12.43 12.58 12.44C12.51 12.45 12.44 12.46 12.39 12.5C12.37 12.52 12.35 12.54 12.34 12.57C12.32 12.57 12.31 12.55 12.29 12.55C12.23 12.54 12.15 12.55 12.07 12.57C11.99 12.59 11.93 12.62 11.89 12.67C11.87 12.69 11.87 12.72 11.87 12.75C11.86 12.75 11.85 12.74 11.83 12.74C11.77 12.74 11.69 12.74 11.62 12.77C11.55 12.8 11.49 12.83 11.46 12.88C11.45 12.9 11.44 12.92 11.44 12.93C11.42 12.93 11.4 12.91 11.37 12.91C11.3 12.91 11.23 12.93 11.16 12.96C11.09 12.99 11.04 13.04 11.01 13.09C11.01 13.1 11.01 13.12 11 13.13C10.98 13.13 10.95 13.13 10.93 13.13C10.91 13.13 10.95 13.06 10.99 12.99C11.02 12.96 11.04 12.92 11.07 12.88C11.07 12.88 11.08 12.87 11.08 12.86C11.08 12.86 11.07 12.85 11.06 12.85C10.9 12.93 10.77 13.12 10.67 13.35C10.57 13.58 10.52 13.83 10.52 14.03C10.54 14.22 10.61 14.32 10.66 14.41C10.7 14.5 10.72 14.58 10.64 14.77C10.59 14.87 10.58 14.89 10.45 14.96C10.6 14.65 10.13 14.47 9.61001 14.76C9.61001 14.76 9.61001 14.76 9.60001 14.77C9.60001 14.77 9.60001 14.78 9.60001 14.79C9.60001 14.79 9.61001 14.79 9.62001 14.79C9.66001 14.79 9.68001 14.79 9.71001 14.78C9.78001 14.9 9.50001 15.17 9.33001 15.42C9.24001 15.55 9.00001 15.89 9.00001 16.04C9.00001 16.19 9.04001 16.27 9.16001 16.27C9.19001 16.27 9.25001 16.27 9.32001 16.26C9.39001 16.25 9.50001 16.2 9.56001 16.2C9.62001 16.2 9.66001 16.2 9.73001 16.26C9.71001 16.26 9.58001 16.5 9.66001 16.58C9.66001 16.6 9.59001 16.6 9.58001 16.6C9.54001 16.6 9.45001 16.56 9.39001 16.54C9.28001 16.5 9.23001 16.47 9.12001 16.48C9.00001 16.48 8.82001 16.53 8.69001 16.58C8.56001 16.63 8.45001 16.66 8.16001 16.67C8.12001 16.67 8.08001 16.67 8.05001 16.65C8.10001 16.58 8.13001 16.56 8.13001 16.56C8.13001 16.56 8.14001 16.56 8.15001 16.55C8.15001 16.55 8.15001 16.54 8.15001 16.53C8.15001 16.52 8.14001 16.53 8.13001 16.53C8.13001 16.53 8.13001 16.53 8.12001 16.53C8.12001 16.53 8.10001 16.53 8.09001 16.53C8.06001 16.53 7.79001 16.58 7.69001 16.64C7.58001 16.7 7.52001 16.83 7.43001 16.83C7.37001 16.83 7.35001 16.83 7.30001 16.79C7.35001 16.57 7.19001 16.5 7.26001 16.45C7.33001 16.46 7.61001 16.5 7.87001 16.33C7.87001 16.33 7.87001 16.33 7.87001 16.32C7.87001 16.32 7.87001 16.31 7.87001 16.3C7.87001 16.3 7.86001 16.3 7.85001 16.3C7.70001 16.39 7.60001 16.22 7.48001 16.23C7.28001 16.25 7.33001 16.28 7.21001 16.28C7.15001 16.28 7.07001 16.25 7.06001 16.22C7.10001 16.13 7.17001 16.01 7.13001 15.94C7.16001 15.91 7.19001 15.9 7.26001 15.9C7.32001 15.9 7.35001 15.95 7.44001 15.99C7.76001 16.15 7.67001 16.02 7.91001 16.11H7.93001C7.93001 16.11 7.93001 16.07 7.91001 16.06C7.63001 16.02 7.56001 15.91 7.49001 15.84C7.47001 15.82 7.42001 15.81 7.37001 15.8C7.24001 15.68 7.24001 15.57 7.25001 15.56C7.27001 15.55 7.34001 15.45 7.33001 15.43C7.36001 15.4 7.38001 15.41 7.42001 15.4C7.56001 15.4 7.70001 15.61 7.66001 15.69C7.66001 15.69 7.78001 15.8 7.85001 15.89C7.91001 15.96 8.03001 16.11 8.19001 16.08C8.19001 16.08 8.20001 16.08 8.21001 16.08C8.51001 15.81 8.73001 15.37 8.87001 14.98C8.94001 14.79 9.00001 14.6 9.03001 14.46C9.06001 14.32 9.08001 14.21 9.08001 14.17C9.08001 13.95 9.03001 13.6 9.03001 13.27C9.03001 12.96 9.09001 12.66 9.26001 12.48C9.30001 12.48 9.35001 12.46 9.39001 12.44C9.50001 12.4 9.61001 12.33 9.70001 12.23C9.70001 12.26 9.70001 12.28 9.72001 12.31C9.74001 12.38 9.77001 12.45 9.81001 12.52C9.90001 12.66 10.03 12.78 10.2 12.81C10.2 12.81 10.22 12.81 10.22 12.8C10.22 12.8 10.22 12.79 10.22 12.78C10.2 12.78 10.18 12.77 10.17 12.75C10.17 12.74 10.15 12.71 10.15 12.69C10.15 12.64 10.17 12.57 10.19 12.5C10.21 12.44 10.24 12.39 10.26 12.34C10.31 12.45 10.39 12.57 10.51 12.64C10.65 12.73 10.85 12.75 11.09 12.64V12.63C10.9 12.54 10.85 12.43 10.85 12.32C10.85 12.26 10.85 12.21 10.87 12.16C10.97 12.27 11.09 12.36 11.2 12.4C11.26 12.42 11.31 12.43 11.36 12.42C11.38 12.42 11.4 12.4 11.41 12.39C11.41 12.41 11.43 12.43 11.44 12.45C11.45 12.47 11.47 12.48 11.49 12.48C11.49 12.52 11.49 12.54 11.47 12.56C11.45 12.58 11.42 12.59 11.39 12.58C11.39 12.58 11.39 12.58 11.39 12.59C11.4 12.6 11.42 12.61 11.43 12.62C11.43 12.62 11.44 12.62 11.45 12.62C11.45 12.62 11.46 12.62 11.47 12.62C11.47 12.62 11.47 12.62 11.48 12.62C11.48 12.62 11.5 12.62 11.51 12.62C11.56 12.62 11.61 12.59 11.66 12.55C11.7 12.51 11.74 12.47 11.76 12.42C11.78 12.37 11.78 12.32 11.75 12.28C11.75 12.24 11.75 12.2 11.75 12.15C11.77 12.1 11.8 12.04 11.87 11.97C11.94 11.9 12.03 11.83 12.14 11.78C12.35 11.68 12.61 11.65 12.89 11.8C12.89 11.8 12.89 11.81 12.9 11.81C12.92 11.83 12.95 11.84 12.97 11.85C12.97 11.89 12.97 11.92 12.95 11.93C12.93 11.95 12.9 11.95 12.87 11.94C12.87 11.94 12.87 11.94 12.87 11.95C12.88 11.97 12.9 11.98 12.91 11.98C12.91 11.98 12.92 11.98 12.93 11.98C12.93 11.98 12.95 11.98 12.96 11.98C12.96 11.98 12.98 11.98 12.99 11.98C13.04 11.98 13.09 11.97 13.13 11.94C13.17 11.92 13.21 11.88 13.22 11.84C13.23 11.81 13.22 11.79 13.22 11.76C13.22 11.74 13.22 11.71 13.22 11.69C13.22 11.67 13.2 11.64 13.18 11.61C13.18 11.57 13.18 11.54 13.18 11.51C13.24 11.34 13.33 11.24 13.44 11.17C13.57 11.1 13.73 11.08 13.92 11.09C14.55 11.1 14.98 11.24 15.32 11.38C15.66 11.52 15.92 11.66 16.19 11.65C16.45 11.65 16.69 11.58 16.87 11.45C17.05 11.32 17.16 11.11 17.16 10.84C17.16 10.74 17.13 10.65 17.08 10.57C17 10.42 16.86 10.3 16.72 10.25C16.67 10.23 16.61 10.22 16.56 10.22C16.51 10.22 16.46 10.22 16.41 10.25C16.32 10.29 16.26 10.4 16.26 10.53C16.26 10.68 16.38 10.78 16.52 10.79C16.66 10.79 16.8 10.69 16.87 10.46C16.92 10.5 16.97 10.56 17 10.62C16.97 10.84 16.87 10.97 16.75 11.05C16.63 11.13 16.48 11.16 16.37 11.17C16.08 11.18 15.76 10.89 15.76 10.48C15.76 10.11 16.08 9.79001 16.57 9.79001L16.56 9.85001ZM6.62001 9.88001C6.77001 10.02 6.62001 10.12 6.65001 10.28C6.76001 10.93 7.03001 11.01 7.08001 11.29C7.23001 12.23 7.65001 12.68 7.68001 12.71C7.69001 12.73 7.71001 12.75 7.73001 12.76C7.73001 12.83 7.73001 12.95 7.78001 13.06C7.82001 13.16 7.88001 13.26 7.95001 13.3C7.95001 13.39 7.98001 13.49 8.04001 13.58C8.09001 13.67 8.16001 13.74 8.24001 13.76C8.27001 13.79 8.29001 13.81 8.32001 13.83C8.39001 13.98 7.93001 14.15 7.73001 14.21C7.66001 14.41 7.42001 14.58 7.24001 14.57C7.11001 14.57 7.10001 14.54 7.02001 14.5C7.31001 14.45 7.42001 14.46 7.40001 13.79C7.40001 13.78 7.40001 13.76 7.40001 13.76C7.40001 13.76 7.40001 13.76 7.40001 13.75C7.40001 13.75 7.40001 13.74 7.38001 13.74C7.38001 13.74 7.38001 13.74 7.37001 13.74C7.37001 13.74 7.37001 13.74 7.37001 13.75C7.23001 14.16 6.85001 12.57 6.77001 12C6.75001 11.86 6.90001 11.57 6.88001 11.41C6.88001 11.41 6.85001 11.41 6.84001 11.41C6.83001 11.48 6.80001 11.56 6.77001 11.64C6.77001 11.64 6.75001 11.65 6.74001 11.66C6.72001 11.68 6.69001 11.71 6.66001 11.75C6.61001 11.83 6.54001 11.88 6.62001 12.08C6.65001 12.15 6.52001 12.29 6.47001 12.32C6.47001 12.2 6.28001 12.17 6.24001 12.18C6.22001 12.05 6.28001 11.89 6.37001 11.81C6.47001 11.71 6.55001 11.38 6.49001 11.23C6.49001 11.21 6.47001 11.2 6.45001 11.21C6.45001 11.21 6.43001 11.21 6.43001 11.23C6.43001 11.23 6.43001 11.25 6.43001 11.26C6.44001 11.28 6.45001 11.31 6.45001 11.34C6.40001 11.38 6.30001 11.17 6.39001 11.1C6.41001 11.1 6.43001 11.1 6.44001 11.1C6.46001 11.1 6.47001 11.08 6.47001 11.06C6.47001 11.04 6.45001 11.03 6.43001 11.03C6.37001 11.04 6.19001 10.98 6.07001 10.91C5.74001 11.02 5.68001 11.01 5.59001 10.9C5.65001 10.83 5.59001 10.71 5.59001 10.7C5.65001 10.65 5.71001 10.64 5.78001 10.65C5.81001 10.65 5.91001 10.68 5.97001 10.74C6.09001 10.7 6.28001 10.79 6.30001 10.88C6.30001 10.89 6.31001 10.9 6.32001 10.9C6.33001 10.9 6.35001 10.9 6.36001 10.89C6.37001 10.88 6.37001 10.87 6.36001 10.85C6.34001 10.77 6.24001 10.38 5.95001 10.37C5.95001 10.37 5.80001 10.34 5.80001 10.18C5.85001 10.16 5.98001 10.07 5.97001 9.97001C6.11001 10.01 6.18001 10.16 6.18001 10.23C6.24001 10.27 6.44001 10.32 6.49001 10.85C6.49001 10.86 6.49001 10.88 6.51001 10.88C6.52001 10.88 6.54001 10.88 6.55001 10.88C6.56001 10.88 6.56001 10.86 6.56001 10.85C6.55001 10.72 6.53001 10.62 6.50001 10.53C6.50001 10.38 6.47001 10.28 6.37001 10.15C6.32001 10.06 6.31001 9.97001 6.37001 9.90001C6.47001 9.91001 6.62001 9.86001 6.63001 9.86001L6.62001 9.88001ZM5.76001 9.98001C5.76001 9.98001 5.84001 9.98001 5.88001 9.99001C5.88001 10 5.88001 10.04 5.88001 10.07C5.88001 10.07 5.87001 10.08 5.87001 10.09C5.80001 10.08 5.67001 10.02 5.61001 10.09C5.61001 10.09 5.60001 10.09 5.60001 10.1C5.60001 10.1 5.60001 10.1 5.62001 10.11H5.64001C5.70001 10.1 5.78001 10.11 5.81001 10.15C5.81001 10.15 5.79001 10.16 5.78001 10.17C5.72001 10.16 5.63001 10.14 5.53001 10.2C5.53001 10.05 5.64001 10 5.76001 10V9.98001ZM8.50001 10.08C8.50001 10.08 8.59001 10.08 8.65001 10.09C8.72001 10.1 8.81001 10.11 8.89001 10.11C8.90001 10.11 8.92001 10.11 8.93001 10.11C8.95001 10.24 8.93001 10.31 8.89001 10.35C8.84001 10.39 8.76001 10.4 8.68001 10.4C8.59001 10.4 8.50001 10.38 8.41001 10.37C8.40001 10.37 8.39001 10.37 8.37001 10.37C8.36001 10.37 8.34001 10.37 8.34001 10.37C8.33001 10.37 8.32001 10.36 8.32001 10.35C8.32001 10.33 8.32001 10.3 8.34001 10.26C8.37001 10.2 8.44001 10.13 8.50001 10.1V10.08ZM8.29001 10.42C8.29001 10.42 8.37001 10.42 8.44001 10.43C8.53001 10.44 8.63001 10.46 8.72001 10.45C8.73001 10.45 8.75001 10.45 8.76001 10.45C8.78001 10.61 8.76001 10.69 8.70001 10.73C8.65001 10.77 8.57001 10.78 8.48001 10.77C8.39001 10.77 8.29001 10.74 8.19001 10.74C8.17001 10.74 8.15001 10.74 8.13001 10.74C8.13001 10.74 8.12001 10.74 8.11001 10.74C8.11001 10.74 8.10001 10.73 8.09001 10.72C8.09001 10.7 8.09001 10.66 8.11001 10.61C8.15001 10.53 8.22001 10.45 8.29001 10.41V10.42ZM10.11 10.49C10.22 10.51 10.32 10.57 10.38 10.66C10.44 10.74 10.46 10.85 10.42 10.97C10.42 10.94 10.4 10.91 10.38 10.89C10.35 10.86 10.31 10.86 10.27 10.86C10.21 10.86 10.16 10.89 10.12 10.9C10.12 10.88 10.12 10.87 10.11 10.86C10.11 10.83 10.11 10.79 10.11 10.76C10.13 10.76 10.15 10.76 10.19 10.76C10.26 10.76 10.34 10.79 10.38 10.82H10.4V10.8C10.3 10.72 10.23 10.7 10.18 10.68C10.15 10.68 10.13 10.67 10.12 10.66C10.12 10.66 10.11 10.64 10.1 10.63C10.1 10.59 10.1 10.55 10.1 10.5L10.11 10.49ZM11.05 10.63C11.05 10.63 11.07 10.63 11.08 10.65C11.09 10.67 11.11 10.69 11.12 10.72C11.15 10.78 11.18 10.87 11.21 10.97C11.27 11.16 11.32 11.38 11.33 11.48C11.39 11.85 11.39 12.09 11.41 12.24C11.41 12.26 11.41 12.27 11.41 12.28C11.39 12.3 11.36 12.3 11.32 12.3C11.27 12.3 11.22 12.27 11.17 12.24C11.07 12.18 10.97 12.08 10.92 11.99C10.92 11.99 10.92 11.99 10.91 11.99C10.91 11.99 10.89 11.99 10.89 12C10.81 12.09 10.77 12.17 10.77 12.25C10.77 12.33 10.79 12.4 10.82 12.45C10.85 12.5 10.91 12.55 10.96 12.58C10.99 12.6 11.01 12.6 11.04 12.61C10.94 12.62 10.82 12.64 10.7 12.61C10.56 12.57 10.43 12.45 10.37 12.17C10.37 12.17 10.37 12.17 10.37 12.16C10.37 12.16 10.36 12.16 10.35 12.16C10.22 12.26 10.14 12.41 10.12 12.54C10.11 12.61 10.11 12.67 10.12 12.72C9.99001 12.65 9.91001 12.55 9.87001 12.45C9.82001 12.32 9.81001 12.18 9.83001 12.03C9.83001 12.03 9.83001 12.03 9.83001 12.02V12.01H9.82001C9.77001 12.1 9.64001 12.23 9.48001 12.32C9.34001 12.4 9.17001 12.44 9.02001 12.39C9.12001 12.07 9.29001 11.87 9.48001 11.76C9.66001 11.65 9.85001 11.63 9.98001 11.64C9.96001 11.72 9.95001 11.82 9.95001 11.94C9.95001 11.94 9.95001 11.96 9.97001 11.96C9.97001 11.96 9.99001 11.96 9.99001 11.94C10.01 11.84 10.08 11.72 10.17 11.63C10.21 11.59 10.26 11.55 10.31 11.53C10.34 11.52 10.38 11.51 10.41 11.52C10.41 11.55 10.41 11.57 10.41 11.61C10.41 11.75 10.41 11.91 10.41 12.03C10.41 12.03 10.41 12.05 10.42 12.05C10.48 11.81 10.54 11.6 10.59 11.47C10.62 11.4 10.65 11.36 10.67 11.33C10.68 11.32 10.69 11.32 10.7 11.32C10.7 11.32 10.71 11.32 10.72 11.33C10.72 11.34 10.72 11.36 10.73 11.38C10.73 11.42 10.74 11.48 10.75 11.54C10.76 11.67 10.77 11.82 10.78 11.92C10.78 11.92 10.78 11.94 10.8 11.94C10.82 11.94 10.82 11.94 10.82 11.92C10.83 11.6 10.9 11.26 10.96 11C10.99 10.87 11.03 10.77 11.05 10.69C11.05 10.67 11.05 10.67 11.06 10.65L11.05 10.63ZM5.53001 10.73C5.53001 10.73 5.53001 10.75 5.54001 10.78C5.50001 10.78 5.45001 10.79 5.41001 10.84C5.41001 10.84 5.41001 10.84 5.41001 10.85C5.41001 10.85 5.41001 10.85 5.42001 10.86H5.43001C5.46001 10.83 5.50001 10.83 5.54001 10.83C5.54001 10.86 5.54001 10.88 5.52001 10.91C5.48001 10.91 5.42001 10.9 5.38001 10.97C5.34001 10.81 5.45001 10.75 5.53001 10.73ZM8.11001 10.82C8.11001 10.82 8.20001 10.82 8.25001 10.82C8.35001 10.82 8.45001 10.85 8.54001 10.85C8.57001 10.85 8.60001 10.85 8.63001 10.85C8.65001 11.01 8.62001 11.11 8.56001 11.16C8.50001 11.21 8.41001 11.23 8.31001 11.23C8.21001 11.23 8.10001 11.22 8.00001 11.23C7.95001 11.23 7.91001 11.23 7.87001 11.25C7.86001 11.25 7.85001 11.24 7.85001 11.22C7.85001 11.19 7.86001 11.12 7.90001 11.06C7.93001 10.99 7.98001 10.93 8.04001 10.88C8.05001 10.87 8.07001 10.86 8.08001 10.85C8.10001 10.85 8.11001 10.84 8.12001 10.84L8.11001 10.82ZM14.83 10.93H14.86C14.86 10.95 14.85 10.97 14.83 10.98C14.83 10.97 14.83 10.95 14.83 10.94C14.83 10.93 14.83 10.92 14.83 10.91V10.93ZM8.54001 11.26C8.58001 11.41 8.57001 11.5 8.51001 11.56C8.45001 11.62 8.35001 11.64 8.24001 11.66C8.13001 11.67 8.00001 11.68 7.90001 11.7C7.86001 11.71 7.82001 11.73 7.78001 11.75C7.78001 11.75 7.77001 11.75 7.76001 11.73C7.74001 11.7 7.74001 11.64 7.75001 11.57C7.75001 11.51 7.78001 11.44 7.80001 11.38C7.81001 11.35 7.82001 11.33 7.84001 11.31C7.84001 11.31 7.84001 11.31 7.85001 11.3C7.91001 11.28 7.98001 11.28 8.06001 11.28C8.17001 11.28 8.29001 11.29 8.39001 11.28C8.44001 11.28 8.49001 11.27 8.53001 11.25L8.54001 11.26ZM8.47001 11.68C8.51001 11.75 8.54001 11.81 8.54001 11.86C8.54001 11.91 8.54001 11.95 8.52001 11.97C8.48001 12.03 8.39001 12.06 8.27001 12.07C8.16001 12.09 8.03001 12.1 7.91001 12.13C7.85001 12.15 7.80001 12.17 7.75001 12.2C7.75001 12.2 7.73001 12.2 7.73001 12.18C7.71001 12.15 7.71001 12.09 7.72001 12.04C7.72001 11.98 7.75001 11.92 7.77001 11.87C7.78001 11.85 7.79001 11.82 7.81001 11.81C7.81001 11.81 7.82001 11.81 7.83001 11.8C7.87001 11.79 7.91001 11.77 7.96001 11.76C8.07001 11.74 8.20001 11.74 8.31001 11.72C8.37001 11.72 8.42001 11.7 8.47001 11.68ZM13.11 11.88C13.11 11.93 13.07 11.97 13.03 11.99C13.01 11.99 12.98 12 12.96 11.99C12.96 11.99 12.96 11.99 12.95 11.99C12.95 11.99 12.94 11.99 12.93 11.98C12.98 11.98 13.02 11.97 13.04 11.94C13.06 11.92 13.07 11.9 13.08 11.88C13.09 11.88 13.1 11.88 13.11 11.88ZM8.51001 12.12C8.51001 12.12 8.58001 12.21 8.59001 12.25C8.60001 12.29 8.59001 12.32 8.59001 12.35C8.56001 12.41 8.48001 12.46 8.38001 12.51C8.28001 12.56 8.16001 12.59 8.05001 12.63C7.99001 12.65 7.93001 12.68 7.88001 12.7C7.82001 12.69 7.78001 12.66 7.76001 12.61C7.73001 12.56 7.73001 12.5 7.73001 12.45C7.73001 12.39 7.75001 12.34 7.77001 12.3C7.77001 12.3 7.77001 12.3 7.77001 12.29C7.82001 12.26 7.89001 12.24 7.97001 12.23C8.08001 12.21 8.22001 12.21 8.33001 12.19C8.40001 12.18 8.46001 12.16 8.51001 12.13V12.12ZM6.25001 12.28C6.25001 12.28 6.29001 12.29 6.31001 12.3C6.29001 12.34 6.25001 12.39 6.20001 12.39C6.20001 12.39 6.19001 12.39 6.18001 12.39C6.18001 12.39 6.18001 12.4 6.18001 12.41C6.18001 12.42 6.19001 12.41 6.20001 12.41C6.26001 12.41 6.32001 12.36 6.36001 12.32C6.38001 12.33 6.40001 12.35 6.42001 12.36C6.36001 12.42 6.22001 12.51 6.08001 12.37C6.17001 12.37 6.23001 12.31 6.25001 12.27V12.28ZM11.65 12.43C11.65 12.49 11.61 12.54 11.57 12.57C11.55 12.58 11.51 12.59 11.51 12.58C11.54 12.57 11.56 12.55 11.57 12.53C11.58 12.51 11.59 12.49 11.6 12.47C11.6 12.47 11.6 12.46 11.6 12.45C11.62 12.45 11.63 12.45 11.65 12.43ZM13.5 12.44C13.61 12.44 13.72 12.49 13.75 12.57C13.75 12.57 13.75 12.57 13.75 12.59C13.75 12.61 13.75 12.64 13.75 12.67C13.75 12.73 13.74 12.82 13.73 12.9C13.72 13.05 13.71 13.17 13.71 13.2C13.57 13.31 13.44 13.2 13.4 13.12C13.4 13.09 13.37 12.98 13.35 12.84C13.34 12.76 13.32 12.68 13.31 12.62C13.31 12.6 13.31 12.58 13.3 12.56C13.36 12.49 13.43 12.46 13.51 12.46L13.5 12.44ZM13.04 12.48C13.1 12.48 13.16 12.51 13.2 12.56C13.2 12.58 13.2 12.6 13.21 12.63C13.22 12.69 13.24 12.77 13.25 12.85C13.28 13 13.3 13.12 13.3 13.14C13.26 13.21 13.04 13.26 12.96 13.16L12.81 12.57C12.81 12.57 12.93 12.48 13.03 12.48H13.04ZM8.55001 12.5C8.63001 12.55 8.69001 12.6 8.72001 12.64C8.75001 12.68 8.77001 12.72 8.76001 12.75C8.76001 12.82 8.69001 12.89 8.60001 12.95C8.50001 13.01 8.38001 13.07 8.26001 13.12C8.20001 13.15 8.15001 13.17 8.10001 13.2C8.04001 13.21 7.99001 13.2 7.95001 13.16C7.90001 13.12 7.87001 13.07 7.84001 13.01C7.81001 12.95 7.80001 12.89 7.80001 12.83C7.80001 12.79 7.81001 12.77 7.82001 12.75C8.02001 12.66 8.27001 12.62 8.45001 12.54C8.48001 12.53 8.51001 12.51 8.53001 12.49L8.55001 12.5ZM12.58 12.53C12.64 12.53 12.7 12.54 12.75 12.58L12.89 13.14C12.85 13.25 12.67 13.28 12.6 13.24L12.39 12.66C12.39 12.61 12.47 12.54 12.58 12.53ZM13.92 12.54C14.04 12.54 14.21 12.67 14.21 12.77L14.07 13.34C14.04 13.41 13.83 13.38 13.79 13.23C13.79 13.23 13.8 13.06 13.81 12.9C13.81 12.82 13.82 12.73 13.83 12.67C13.83 12.64 13.83 12.61 13.83 12.59C13.83 12.59 13.83 12.59 13.83 12.58C13.85 12.55 13.88 12.54 13.92 12.54ZM12.23 12.65C12.23 12.65 12.29 12.65 12.31 12.67L12.53 13.27C12.51 13.35 12.25 13.49 12.18 13.41L11.96 12.8C11.96 12.73 12.12 12.64 12.24 12.64L12.23 12.65ZM14.38 12.77C14.5 12.77 14.64 12.88 14.64 13.04L14.41 13.61C14.33 13.64 14.13 13.56 14.13 13.41L14.28 12.8C14.28 12.8 14.34 12.77 14.38 12.77ZM11.78 12.81C11.78 12.81 11.85 12.82 11.88 12.84L12.09 13.43C12.06 13.54 11.85 13.68 11.76 13.58L11.51 13.01C11.51 12.96 11.64 12.83 11.77 12.82L11.78 12.81ZM8.79001 12.91C8.91001 12.99 8.95001 13.06 8.95001 13.14C8.95001 13.22 8.89001 13.31 8.81001 13.39C8.68001 13.52 8.51001 13.61 8.36001 13.68C8.33001 13.68 8.29001 13.67 8.25001 13.64C8.20001 13.61 8.16001 13.56 8.13001 13.51C8.10001 13.46 8.07001 13.41 8.06001 13.36C8.06001 13.34 8.06001 13.32 8.06001 13.3C8.06001 13.29 8.07001 13.28 8.08001 13.27C8.28001 13.18 8.54001 13.1 8.70001 12.98C8.74001 12.95 8.77001 12.92 8.79001 12.89V12.91ZM11.35 13.01C11.35 13.01 11.41 13.01 11.44 13.02L11.7 13.62C11.7 13.78 11.4 13.92 11.33 13.85L11.1 13.2C11.1 13.14 11.24 13.03 11.36 13.01H11.35ZM14.8 13.07C14.91 13.07 15.07 13.15 15.06 13.25L14.84 13.85C14.72 13.94 14.49 13.73 14.48 13.65L14.71 13.09C14.71 13.09 14.76 13.06 14.8 13.07ZM10.91 13.18C10.91 13.18 10.99 13.18 11.04 13.22L11.27 13.87C11.27 13.94 11.01 14.12 10.87 14.04C10.84 13.97 10.72 13.7 10.7 13.53C10.71 13.47 10.73 13.42 10.75 13.37C10.77 13.32 10.79 13.29 10.81 13.25C10.83 13.23 10.87 13.19 10.91 13.18ZM13.36 13.27C13.36 13.32 13.65 13.37 13.69 13.37C13.67 13.43 13.85 13.55 13.95 13.59C13.98 13.63 13.98 13.7 13.97 13.74C13.97 13.84 13.99 13.98 14.14 14.07C14.24 14.13 14.56 14.25 14.56 14.51C14.56 14.7 14.41 14.78 14.34 14.82C14.4 14.71 14.34 14.59 14.21 14.57C14.12 14.56 13.9 14.54 13.71 14.57C13.69 14.57 13.68 14.59 13.68 14.61C13.68 14.63 13.7 14.64 13.72 14.64C13.8 14.66 13.85 14.65 13.83 14.73C13.53 14.97 12.87 15.58 12.86 15.81C12.86 15.88 12.92 15.95 13.01 15.94C13.01 15.94 13.33 15.79 13.46 15.9C13.39 15.97 13.44 16.14 13.44 16.15C13.27 16.27 13.08 16.1 12.75 16.1C12.43 16.1 12.16 16.31 11.95 16.31C11.92 16.31 11.91 16.31 11.89 16.31C11.91 16.28 11.92 16.26 11.93 16.26L11.95 16.25C11.95 16.25 11.96 16.25 11.96 16.24C11.96 16.24 11.96 16.23 11.96 16.22C11.96 16.22 11.95 16.22 11.94 16.22C11.94 16.22 11.94 16.22 11.93 16.22C11.93 16.22 11.78 16.26 11.75 16.26C11.67 16.26 11.5 16.32 11.4 16.38C11.33 16.41 11.19 16.57 10.98 16.52C11.01 16.43 10.98 16.31 10.9 16.22C10.91 16.22 10.93 16.19 10.94 16.16C11.25 16.11 11.22 16.27 11.3 16.16C11.35 16.08 11.37 16.29 11.76 15.96C11.76 15.96 11.76 15.96 11.76 15.95V15.94C11.76 15.94 11.75 15.94 11.74 15.94C11.27 16.13 11.41 16 11.2 16.01C11 16.01 11.05 16.07 10.93 16.06C10.87 16.06 10.8 16 10.78 15.97C10.83 15.96 10.83 15.8 10.8 15.73C10.83 15.7 10.9 15.68 10.97 15.68C11.15 15.68 11.22 15.84 11.41 15.86C11.54 15.86 11.67 15.75 11.78 15.82H11.8C11.8 15.82 11.8 15.81 11.8 15.8C12.61 15.83 13.22 14.04 13.09 13.85V13.84C13.07 13.79 13.04 13.71 12.96 13.69C12.94 13.66 12.9 13.51 12.73 13.48C12.73 13.44 12.74 13.41 12.75 13.39C12.83 13.37 12.93 13.34 12.95 13.31C13 13.37 13.38 13.36 13.36 13.31V13.27ZM15.19 13.3C15.3 13.3 15.45 13.39 15.46 13.48L15.28 13.96C15.2 14.06 14.99 13.99 14.96 13.96C14.94 13.94 14.93 13.9 14.93 13.87L15.12 13.33C15.12 13.33 15.16 13.3 15.19 13.3ZM8.94001 13.35C8.94001 13.35 8.94001 13.4 8.94001 13.42C8.94001 13.57 8.94001 13.7 8.93001 13.82C8.91001 13.91 8.87001 13.96 8.83001 13.99C8.79001 14.02 8.74001 14.02 8.69001 14C8.59001 13.97 8.49001 13.86 8.41001 13.72C8.61001 13.65 8.81001 13.53 8.93001 13.37C8.93001 13.37 8.94001 13.35 8.95001 13.34L8.94001 13.35ZM12.63 13.39C12.61 13.61 12.26 13.87 12.13 13.87C12.1 13.85 12.07 13.83 12.05 13.81C12 13.72 12.52 13.42 12.63 13.4V13.39ZM12.74 13.54C12.88 13.55 12.93 13.72 12.88 13.74C12.88 13.74 12.75 14.05 12.6 14.13C12.55 14.16 12.48 14.14 12.44 14.13C12.36 14.1 12.28 14.02 12.25 13.94C12.29 13.87 12.49 13.8 12.66 13.54C12.68 13.54 12.71 13.54 12.73 13.54H12.74ZM15.53 13.54C15.63 13.52 15.82 13.62 15.83 13.77L15.72 14.07C15.65 14.12 15.35 14.12 15.35 14.01L15.52 13.55C15.52 13.55 15.52 13.55 15.53 13.55V13.54ZM10.66 13.78C10.72 13.75 10.78 13.99 10.81 14.07C10.81 14.07 10.71 14.37 10.63 13.96C10.63 13.94 10.64 13.86 10.65 13.8C10.65 13.8 10.65 13.79 10.66 13.78ZM12.97 13.8C12.97 13.8 13.03 13.83 13.05 13.9C13.03 14.02 13 14.16 12.95 14.31C12.88 14.34 12.76 14.29 12.68 14.25C12.67 14.23 12.66 14.21 12.67 14.18C12.83 14.07 12.91 13.88 12.94 13.81C12.95 13.8 12.97 13.79 12.97 13.8ZM15.88 13.85C15.94 13.85 16.12 13.97 16.14 14.13C16.11 14.24 15.87 14.22 15.8 14.09L15.88 13.84V13.85ZM8.91001 13.97C8.91001 14.04 8.91001 14.09 8.91001 14.14C8.89001 14.12 8.88001 14.1 8.87001 14.08C8.89001 14.05 8.90001 14.02 8.92001 13.98L8.91001 13.97ZM11.21 15.23C11.21 15.23 11.27 15.24 11.32 15.28C11.36 15.32 11.4 15.4 11.48 15.48C11.55 15.55 11.76 15.66 11.88 15.69C11.84 15.7 11.8 15.71 11.75 15.72C11.64 15.69 11.5 15.77 11.32 15.61C11.29 15.59 11.23 15.57 11.16 15.56C11.12 15.53 11.02 15.45 11.03 15.44C11.08 15.36 11.14 15.28 11.12 15.26C11.14 15.23 11.18 15.22 11.23 15.22L11.21 15.23ZM10.91 15.25C10.91 15.25 11.01 15.25 11.05 15.28C11.05 15.29 11.04 15.3 11.03 15.31C11 15.29 10.96 15.27 10.89 15.29C10.89 15.29 10.88 15.29 10.88 15.3C10.88 15.31 10.88 15.31 10.88 15.32C10.88 15.33 10.89 15.32 10.9 15.32C10.96 15.31 10.99 15.32 11.01 15.35C11.01 15.36 11 15.37 10.99 15.38C10.95 15.35 10.82 15.27 10.79 15.4C10.79 15.3 10.85 15.26 10.9 15.25H10.91ZM15.45 15.31C15.5 15.31 15.54 15.34 15.56 15.35C15.56 15.35 15.56 15.37 15.56 15.38C15.52 15.35 15.45 15.32 15.36 15.34C15.36 15.34 15.35 15.34 15.35 15.35C15.35 15.35 15.35 15.36 15.35 15.37C15.35 15.38 15.36 15.37 15.37 15.37C15.44 15.35 15.48 15.41 15.52 15.44C15.51 15.46 15.49 15.47 15.48 15.48C15.46 15.46 15.32 15.35 15.22 15.5C15.28 15.33 15.37 15.3 15.45 15.3V15.31ZM7.18001 15.33C7.23001 15.32 7.27001 15.36 7.29001 15.39V15.4C7.29001 15.4 7.29001 15.41 7.29001 15.42C7.26001 15.4 7.22001 15.4 7.14001 15.42C7.14001 15.42 7.13001 15.42 7.13001 15.43C7.13001 15.44 7.13001 15.44 7.13001 15.45C7.13001 15.45 7.14001 15.45 7.15001 15.45C7.21001 15.44 7.23001 15.45 7.26001 15.48C7.25001 15.5 7.24001 15.51 7.23001 15.52C7.19001 15.49 7.09001 15.44 7.04001 15.52C7.09001 15.4 7.14001 15.35 7.19001 15.34L7.18001 15.33ZM10.73 15.69C10.73 15.69 10.75 15.7 10.76 15.71C10.76 15.71 10.76 15.73 10.77 15.74C10.72 15.74 10.67 15.74 10.62 15.78C10.62 15.78 10.62 15.78 10.62 15.8C10.62 15.82 10.62 15.81 10.63 15.81C10.63 15.81 10.64 15.81 10.65 15.81C10.7 15.77 10.76 15.81 10.8 15.81C10.8 15.83 10.8 15.84 10.8 15.86C10.76 15.83 10.66 15.77 10.58 15.86C10.57 15.7 10.68 15.68 10.74 15.69H10.73ZM15.25 15.83C15.25 15.83 15.26 15.83 15.27 15.83C15.27 15.85 15.27 15.87 15.27 15.89C15.22 15.89 15.16 15.89 15.11 15.93C15.11 15.93 15.11 15.94 15.11 15.95C15.11 15.95 15.11 15.96 15.12 15.96C15.13 15.96 15.13 15.96 15.14 15.96C15.18 15.93 15.23 15.94 15.26 15.96C15.26 15.97 15.26 15.98 15.25 15.99C15.2 15.97 15.08 15.94 15.05 16.11C14.96 15.85 15.15 15.82 15.25 15.82V15.83ZM13.55 15.94C13.67 15.94 13.89 16.1 13.62 16.27C13.71 16.15 13.54 16.11 13.52 16.11C13.52 16.11 13.52 16.11 13.52 16.1C13.56 16.1 13.6 16.08 13.67 16.15C13.67 16.15 13.67 16.16 13.68 16.16C13.69 16.16 13.69 16.16 13.7 16.16C13.7 16.16 13.7 16.15 13.7 16.14C13.67 16.07 13.57 16.03 13.52 16.02C13.52 16 13.53 15.97 13.54 15.94H13.55ZM7.05001 15.97C7.05001 15.97 7.05001 16.01 7.05001 16.03C7.00001 16.03 6.94001 16.03 6.88001 16.07C6.88001 16.07 6.88001 16.07 6.88001 16.09C6.88001 16.09 6.88001 16.1 6.89001 16.1C6.89001 16.1 6.90001 16.1 6.91001 16.1C6.95001 16.07 7.00001 16.08 7.04001 16.1C7.03001 16.12 7.02001 16.14 7.01001 16.16C6.97001 16.14 6.89001 16.11 6.82001 16.18C6.85001 15.98 6.99001 15.97 7.07001 15.98L7.05001 15.97ZM18.12 16.1C18.17 16.12 18.47 16.23 18.22 16.46C18.28 16.28 18.11 16.26 18.08 16.26C18.08 16.26 18.08 16.24 18.08 16.23C18.12 16.23 18.18 16.23 18.21 16.29C18.21 16.29 18.21 16.3 18.22 16.3C18.22 16.3 18.23 16.3 18.24 16.3C18.24 16.3 18.24 16.29 18.24 16.28C18.21 16.21 18.14 16.17 18.09 16.16C18.09 16.14 18.1 16.11 18.12 16.1ZM15.47 16.26C15.47 16.26 15.49 16.3 15.49 16.32C15.45 16.32 15.37 16.36 15.33 16.44C15.33 16.44 15.33 16.45 15.33 16.46C15.33 16.46 15.34 16.46 15.35 16.46C15.35 16.46 15.36 16.46 15.36 16.45C15.39 16.39 15.45 16.39 15.5 16.39C15.5 16.39 15.5 16.41 15.5 16.42C15.46 16.42 15.29 16.44 15.35 16.62C15.09 16.38 15.44 16.27 15.46 16.26H15.47ZM10.9 16.27C10.9 16.27 10.91 16.29 10.92 16.31C10.87 16.32 10.81 16.35 10.78 16.42C10.78 16.42 10.78 16.43 10.78 16.44C10.78 16.44 10.79 16.44 10.8 16.44C10.8 16.44 10.81 16.44 10.81 16.43C10.84 16.37 10.89 16.37 10.94 16.37C10.94 16.4 10.94 16.42 10.94 16.44C10.89 16.43 10.76 16.44 10.72 16.55C10.61 16.44 10.75 16.29 10.89 16.27H10.9ZM9.76001 16.32C9.88001 16.34 10.11 16.45 9.86001 16.68C9.94001 16.55 9.77001 16.52 9.73001 16.51C9.73001 16.5 9.73001 16.48 9.73001 16.47C9.78001 16.47 9.86001 16.47 9.88001 16.53C9.88001 16.53 9.88001 16.54 9.89001 16.54C9.89001 16.54 9.90001 16.54 9.91001 16.54C9.91001 16.54 9.91001 16.53 9.91001 16.52C9.88001 16.45 9.79001 16.41 9.74001 16.39C9.74001 16.36 9.76001 16.34 9.77001 16.33L9.76001 16.32ZM7.18001 16.57C7.18001 16.57 7.20001 16.6 7.21001 16.62C7.17001 16.64 7.12001 16.67 7.09001 16.73C7.09001 16.73 7.09001 16.74 7.09001 16.75C7.09001 16.75 7.09001 16.75 7.11001 16.75C7.11001 16.75 7.12001 16.75 7.12001 16.74C7.14001 16.69 7.18001 16.69 7.23001 16.68C7.23001 16.71 7.23001 16.73 7.23001 16.75C7.17001 16.75 7.07001 16.75 7.12001 16.9C6.96001 16.71 7.09001 16.57 7.17001 16.56L7.18001 16.57Z" fill="#D21034"/>
</g>
</g>
<defs>
<clipPath id="clip0_104_14128">
<rect width="24" height="24" fill="white"/>
</clipPath>
</defs>
</svg>
