<svg width="24" height="24" viewBox="0 0 24 24" fill="none" xmlns="http://www.w3.org/2000/svg">
<g clip-path="url(#clip0_170_14217)">
<mask id="mask0_170_14217" style="mask-type:luminance" maskUnits="userSpaceOnUse" x="0" y="0" width="24" height="24">
<path d="M12 24C18.6274 24 24 18.6274 24 12C24 5.37258 18.6274 0 12 0C5.37258 0 0 5.37258 0 12C0 18.6274 5.37258 24 12 24Z" fill="white"/>
</mask>
<g mask="url(#mask0_170_14217)">
<path d="M12 0H16V24H12V0Z" fill="#DE2010"/>
<path d="M16 0H20V24H16V0Z" fill="black"/>
<path d="M20 0H24V24H20V0Z" fill="#EF7D00"/>
<path d="M0 0H24V9.82H12V24H0V0Z" fill="#198A00"/>
<path d="M17.79 8.51L17.91 8.57C17.98 8.53 18.12 8.55 18.13 8.54C18.14 8.53 18.15 8.51 18.15 8.51V8.36C18.15 8.36 18.09 8.42 18.07 8.41C18.12 8.18 18.05 8.06 17.88 7.76C17.88 7.94 17.88 8.09 17.86 8.21C17.89 8.3 17.88 8.29 17.89 8.38C17.86 8.37 17.82 8.33 17.79 8.28C17.79 8.28 17.77 8.48 17.79 8.52V8.51ZM18.45 8.09C18.52 8.21 18.58 8.18 18.6 8.23C18.53 8.27 18.44 8.15 18.39 8.14C18.34 8.17 18.55 8.43 18.54 8.45C18.54 8.45 18.43 8.45 18.34 8.37C18.34 8.42 18.34 8.46 18.34 8.47C18.34 8.47 18.34 8.5 18.47 8.5C18.57 8.51 18.58 8.65 18.55 8.61C18.53 8.57 18.45 8.55 18.45 8.55C18.45 8.55 18.39 8.55 18.4 8.6C18.52 8.64 18.5 8.75 18.48 8.81C18.46 8.87 18.38 8.87 18.38 8.87C18.38 8.87 18.43 8.81 18.38 8.78C18.28 8.8 18.26 8.69 18.26 8.69C18.26 8.69 18.24 8.65 18.2 8.69C18.24 8.89 18.12 8.9 18.12 8.9C18.12 8.9 18.1 8.96 18.14 8.99C18.03 8.99 18.06 8.89 18.05 8.87C18.04 8.87 18 8.82 18.05 8.69C17.97 8.82 17.88 8.77 17.88 8.77C17.88 8.77 17.88 8.81 17.89 8.87C17.83 8.82 17.82 8.8 17.82 8.71C17.82 8.69 17.82 8.68 17.82 8.66C17.81 8.67 17.79 8.69 17.77 8.7C17.87 8.84 17.75 8.92 17.75 8.92C17.75 8.92 17.74 8.98 17.79 9.03C17.7 9.03 17.7 8.94 17.7 8.94C17.7 8.94 17.61 8.9 17.61 8.76C17.61 8.92 17.47 8.94 17.47 8.94C17.47 8.94 17.45 8.98 17.48 9.02C17.38 9 17.41 8.9 17.41 8.9C17.41 8.9 17.33 8.85 17.46 8.72C17.31 8.83 17.22 8.8 17.19 8.8C17.19 8.8 17.17 8.82 17.14 8.87C17.13 8.79 17.14 8.78 17.14 8.78C17.14 8.78 17.16 8.61 17.34 8.61C17.52 8.61 17.54 8.48 17.55 8.42C17.53 8.44 17.51 8.44 17.5 8.44C17.47 8.43 17.57 8.09 17.54 8C17.57 8.29 17.37 8.41 17.38 8.37C17.41 8.28 17.41 8.19 17.43 8.11C17.45 8.03 17.48 7.97 17.49 7.92C17.47 7.97 17.4 8.04 17.4 8.04C17.38 8.05 17.44 7.92 17.41 7.94C17.36 7.97 17.05 8.02 16.95 7.87C16.95 7.8 17.26 7.67 17.23 7.68C17.18 7.71 16.6 7.93 16.61 7.8C16.58 7.77 16.94 7.57 16.94 7.57C16.94 7.57 16.63 7.73 16.62 7.73C16.61 7.73 16.36 7.81 16.31 7.73C16.31 7.71 17.02 7.36 17.02 7.31C16.97 7.38 16.47 7.63 16.45 7.64C16.43 7.64 16.13 7.74 16.04 7.66C16.02 7.64 16.44 7.45 16.42 7.41C16.26 7.54 16.14 7.59 16.02 7.61C15.95 7.61 15.88 7.62 15.83 7.61C15.72 7.59 15.66 7.53 15.66 7.52C15.66 7.51 15.96 7.45 16.02 7.38C15.4 7.57 15.19 7.39 15.2 7.37C15.2 7.37 15.34 7.35 15.36 7.35L15.75 7.22C15.75 7.22 15.36 7.34 15.15 7.33C14.91 7.32 14.8 7.23 14.81 7.21C14.81 7.2 14.96 7.18 14.98 7.18C15.01 7.18 15.42 7.06 15.43 7.05C15.46 7.03 15.15 7.13 15.09 7.13C14.65 7.15 14.58 7.04 14.59 7.01C14.59 7.01 14.74 6.98 14.77 6.99C14.8 6.99 15.07 6.94 15.07 6.93C15.08 6.93 14.8 6.99 14.78 6.98C14.01 6.81 13.88 6.53 13.88 6.47C13.88 6.41 13.96 6.52 14.08 6.58C14.35 6.68 14.9 6.88 14.88 6.88C14.58 6.78 14.25 6.63 14.17 6.6C14.01 6.53 13.88 6.31 13.91 6.29C13.95 6.27 14.15 6.47 14.31 6.53C14.34 6.54 15.19 6.87 15.19 6.86C15.19 6.84 14.46 6.6 14.4 6.56C14.03 6.41 13.98 6.08 14 6.06C14.05 6.05 14.18 6.22 14.27 6.27C14.33 6.3 14.45 6.37 15.23 6.69C15.23 6.69 14.72 6.47 14.65 6.43C14.52 6.34 14.4 6.21 14.33 6.1C14.28 6.02 14.28 5.95 14.3 5.95C14.34 5.95 14.49 6.07 14.67 6.13C14.93 6.23 15.2 6.35 15.5 6.51C15.52 6.51 15.17 6.21 15.23 6.18C15.28 6.14 15.77 6.44 16.24 6.57C16.41 6.6 16.9 6.66 17.08 6.74C17.04 6.72 17.04 6.71 17.03 6.7C17.17 6.07 17.74 6.15 17.88 6.3C18.3 6.34 18.14 6.52 18.06 6.54C18.1 6.41 17.92 6.45 17.85 6.4C17.9 6.42 17.95 6.44 18.01 6.46C17.97 6.48 17.95 6.47 17.89 6.48C17.82 6.49 17.67 6.56 17.8 6.8C17.8 6.8 17.98 6.7 18.65 6.75C18.72 6.75 19.11 6.63 19.23 6.59C19.42 6.56 20.04 6.43 20.21 6.32C20.33 6.31 20.18 6.52 20.03 6.57C20.03 6.57 21.13 6.14 21.23 6.06C21.28 6.11 20.82 6.62 19.93 6.8C20.74 6.63 21.42 6.08 21.56 6.09C21.6 6.09 21.59 6.63 19.75 7.08C21.03 6.77 21.76 6.21 21.76 6.27C21.76 6.3 21.63 6.71 20.52 7.05C20.83 6.98 21.68 6.51 21.67 6.6C21.7 6.64 20.85 7.63 19.32 7.31C20.54 7.6 21.33 6.9 21.45 6.91C21.47 6.91 21.22 7.52 19.69 7.56C20.43 7.49 20.22 7.56 20.22 7.56C20.22 7.56 19.79 7.87 19.26 7.66C19.67 7.76 19.72 7.77 19.73 7.8C19.7 7.84 19.36 7.9 19.04 7.74C19.26 7.83 19.54 7.86 19.54 7.89C19.5 7.93 19.35 7.96 19.27 7.94C19.2 7.92 19.06 7.85 18.89 7.69C19.04 7.86 19.43 8.04 19.36 8.11C19.2 8.18 18.86 8 18.73 7.91C18.92 8.13 19.1 8.12 19.04 8.2C18.88 8.27 18.63 8.08 18.57 8.03C18.57 8.05 18.74 8.14 18.68 8.18C18.54 8.18 18.39 8.04 18.38 8.03C18.39 8.06 18.4 8.08 18.41 8.11L18.45 8.09Z" fill="#EF7D00"/>
<path d="M17.82 9.03C17.73 9.03 17.72 8.96 17.71 8.94C17.69 8.94 17.65 8.9 17.63 8.84C17.6 8.92 17.53 8.94 17.5 8.94C17.5 8.95 17.5 8.97 17.51 9C17.51 9 17.51 9.01 17.51 9.02C17.51 9.02 17.51 9.02 17.5 9.02C17.47 9.02 17.44 9 17.43 8.97C17.41 8.94 17.42 8.9 17.42 8.89C17.42 8.89 17.4 8.87 17.4 8.85C17.4 8.83 17.4 8.8 17.43 8.77C17.33 8.82 17.26 8.81 17.24 8.81C17.24 8.81 17.22 8.84 17.2 8.88C17.2 8.88 17.2 8.88 17.19 8.88C17.19 8.88 17.19 8.88 17.18 8.87C17.18 8.81 17.18 8.78 17.18 8.77C17.18 8.74 17.22 8.59 17.39 8.59C17.53 8.59 17.57 8.51 17.58 8.44C17.57 8.44 17.56 8.44 17.55 8.44C17.53 8.44 17.53 8.4 17.55 8.26C17.52 8.31 17.49 8.34 17.46 8.36C17.44 8.37 17.43 8.37 17.42 8.36C17.42 8.36 17.42 8.35 17.42 8.34C17.44 8.29 17.44 8.24 17.45 8.19C17.45 8.15 17.46 8.12 17.47 8.08C17.47 8.05 17.49 8.01 17.5 7.98C17.48 8 17.47 8.02 17.46 8.02C17.46 8.02 17.45 8.02 17.44 8.02C17.43 8.02 17.44 8 17.44 7.96C17.44 7.96 17.44 7.94 17.44 7.93C17.39 7.95 17.26 7.97 17.15 7.95C17.07 7.93 17.01 7.9 16.98 7.85C16.98 7.82 17.02 7.79 17.07 7.76C16.91 7.81 16.72 7.86 16.67 7.82C16.66 7.82 16.65 7.8 16.65 7.78C16.65 7.78 16.65 7.78 16.65 7.77C16.65 7.75 16.68 7.73 16.72 7.7C16.69 7.71 16.68 7.72 16.67 7.72C16.66 7.72 16.4 7.8 16.35 7.72C16.35 7.71 16.35 7.7 16.42 7.66C16.32 7.68 16.15 7.71 16.08 7.66C16.08 7.66 16.08 7.66 16.08 7.65C16.08 7.64 16.09 7.63 16.15 7.59C16.12 7.59 16.1 7.6 16.07 7.61C16 7.62 15.92 7.62 15.87 7.61C15.77 7.59 15.68 7.53 15.69 7.5C15.69 7.49 15.7 7.48 15.78 7.46C15.84 7.44 15.92 7.42 15.99 7.39C15.41 7.55 15.25 7.37 15.25 7.36C15.24 7.35 15.24 7.34 15.25 7.33C15.25 7.32 15.27 7.32 15.35 7.31C15.37 7.31 15.41 7.31 15.41 7.31C15.41 7.31 15.43 7.31 15.51 7.28C15.41 7.3 15.3 7.32 15.21 7.31C14.99 7.3 14.88 7.23 14.86 7.2C14.86 7.2 14.86 7.19 14.86 7.18C14.86 7.17 14.88 7.16 15.03 7.14H15.05C15.05 7.14 15.1 7.13 15.15 7.11C14.79 7.13 14.69 7.05 14.67 7.01C14.66 7 14.66 6.98 14.67 6.97C14.67 6.96 14.74 6.95 14.79 6.94C14.11 6.78 13.95 6.52 13.95 6.43C13.95 6.42 13.95 6.41 13.96 6.4C13.98 6.4 14 6.4 14.04 6.44C14.07 6.47 14.12 6.5 14.17 6.53C14.17 6.53 14.18 6.53 14.19 6.53C14.07 6.45 13.98 6.31 13.98 6.26C13.98 6.24 13.98 6.23 13.99 6.23C14.01 6.22 14.06 6.24 14.15 6.31C14.19 6.34 14.23 6.37 14.27 6.4C14.15 6.3 14.09 6.17 14.07 6.08C14.07 6.05 14.07 6.02 14.07 6C14.1 6 14.14 6.03 14.22 6.1C14.26 6.14 14.31 6.19 14.36 6.21C14.36 6.21 14.46 6.27 14.68 6.37C14.57 6.29 14.47 6.18 14.4 6.07C14.36 6 14.35 5.94 14.36 5.91C14.36 5.91 14.37 5.89 14.38 5.89C14.4 5.89 14.44 5.91 14.49 5.94C14.56 5.98 14.65 6.03 14.75 6.07C15 6.17 15.25 6.28 15.52 6.42C15.51 6.41 15.5 6.4 15.49 6.39C15.35 6.25 15.29 6.18 15.29 6.15C15.29 6.15 15.29 6.14 15.3 6.13C15.33 6.11 15.41 6.15 15.59 6.23C15.78 6.32 16.05 6.44 16.31 6.51C16.33 6.51 16.35 6.51 16.38 6.51C16.57 6.54 16.89 6.58 17.08 6.64C17.16 6.3 17.35 6.18 17.49 6.14C17.67 6.09 17.86 6.14 17.94 6.22C18.12 6.24 18.22 6.28 18.23 6.35C18.23 6.41 18.17 6.47 18.13 6.49H18.12C18.12 6.49 18.12 6.49 18.12 6.48C18.12 6.46 18.12 6.44 18.12 6.42C18.12 6.42 18.11 6.41 18.1 6.4C18.07 6.41 18.05 6.42 18.02 6.42C18.01 6.42 17.99 6.42 17.97 6.42C17.95 6.42 17.89 6.44 17.86 6.49C17.83 6.54 17.84 6.61 17.89 6.71C17.94 6.69 18.15 6.62 18.73 6.66C18.79 6.66 19.07 6.58 19.22 6.53C19.25 6.52 19.28 6.51 19.31 6.5C19.51 6.46 20.13 6.34 20.29 6.23C20.33 6.23 20.34 6.25 20.35 6.26C20.35 6.3 20.31 6.37 20.25 6.42C20.55 6.3 21.23 6.03 21.31 5.96C21.31 5.96 21.32 5.96 21.33 5.96C21.33 5.96 21.33 5.98 21.33 6C21.31 6.05 21.21 6.18 21.01 6.32C21.11 6.27 21.21 6.21 21.29 6.17C21.48 6.07 21.6 6 21.66 6C21.66 6 21.68 6 21.68 6.04C21.68 6.05 21.68 6.21 21.37 6.43C21.5 6.36 21.61 6.31 21.68 6.26C21.81 6.19 21.84 6.17 21.86 6.18C21.86 6.18 21.86 6.18 21.86 6.2C21.86 6.2 21.83 6.37 21.54 6.57C21.67 6.51 21.74 6.49 21.76 6.51C21.76 6.51 21.76 6.52 21.76 6.53C21.76 6.53 21.76 6.55 21.75 6.57C21.72 6.62 21.62 6.73 21.45 6.86C21.49 6.84 21.52 6.83 21.53 6.83C21.53 6.83 21.54 6.83 21.54 6.85C21.54 6.93 21.27 7.33 20.32 7.46C20.32 7.46 20.32 7.48 20.28 7.49C20.26 7.51 20.03 7.66 19.71 7.66C19.78 7.68 19.79 7.69 19.79 7.71C19.79 7.71 19.79 7.71 19.79 7.72C19.77 7.75 19.68 7.77 19.56 7.77C19.59 7.78 19.6 7.79 19.6 7.8C19.6 7.8 19.6 7.8 19.6 7.81C19.56 7.85 19.4 7.89 19.32 7.87C19.31 7.87 19.3 7.87 19.28 7.86C19.38 7.93 19.43 7.97 19.44 8.01C19.44 8.02 19.44 8.03 19.43 8.04C19.29 8.1 19.01 7.97 18.87 7.89C18.94 7.95 19 7.99 19.05 8.02C19.09 8.05 19.12 8.06 19.13 8.09C19.13 8.1 19.13 8.12 19.11 8.14C19.01 8.19 18.87 8.13 18.77 8.07C18.77 8.07 18.77 8.08 18.77 8.09C18.77 8.09 18.77 8.11 18.75 8.12C18.65 8.12 18.54 8.06 18.49 8.01C18.49 8.01 18.49 8.02 18.49 8.03C18.53 8.1 18.57 8.11 18.6 8.13C18.62 8.13 18.64 8.15 18.65 8.17C18.65 8.17 18.65 8.18 18.65 8.19C18.6 8.22 18.54 8.18 18.49 8.14C18.47 8.12 18.45 8.11 18.43 8.1C18.43 8.14 18.5 8.25 18.55 8.32C18.59 8.38 18.6 8.39 18.6 8.4C18.59 8.4 18.5 8.39 18.41 8.34V8.36V8.41C18.41 8.41 18.43 8.43 18.53 8.43C18.6 8.44 18.63 8.5 18.64 8.54C18.64 8.56 18.64 8.57 18.63 8.57C18.63 8.57 18.62 8.57 18.61 8.56C18.59 8.53 18.54 8.51 18.52 8.51C18.51 8.51 18.49 8.51 18.49 8.52C18.53 8.54 18.56 8.56 18.58 8.59C18.6 8.63 18.6 8.68 18.58 8.74C18.55 8.81 18.47 8.81 18.47 8.81C18.47 8.81 18.47 8.81 18.46 8.81V8.8C18.46 8.8 18.49 8.76 18.48 8.75C18.48 8.75 18.48 8.75 18.48 8.74C18.45 8.74 18.42 8.74 18.4 8.73C18.36 8.7 18.35 8.65 18.35 8.64C18.35 8.64 18.34 8.64 18.33 8.64C18.34 8.72 18.33 8.78 18.31 8.82C18.29 8.85 18.26 8.86 18.25 8.86C18.25 8.87 18.25 8.91 18.27 8.93C18.27 8.93 18.27 8.93 18.27 8.94C18.27 8.94 18.27 8.94 18.26 8.94C18.16 8.94 18.16 8.87 18.16 8.83C18.16 8.83 18.16 8.82 18.16 8.81C18.16 8.81 18.15 8.8 18.14 8.79C18.14 8.77 18.13 8.74 18.14 8.69C18.09 8.73 18.05 8.73 18.02 8.72C18.02 8.74 18.02 8.76 18.03 8.79C18.03 8.79 18.03 8.8 18.03 8.81C18.03 8.81 18.02 8.81 18.01 8.81C17.98 8.79 17.97 8.77 17.96 8.75C17.96 8.8 17.91 8.84 17.9 8.85C17.9 8.86 17.9 8.91 17.94 8.94C17.94 8.94 17.94 8.95 17.94 8.96C17.94 8.96 17.94 8.96 17.93 8.96L17.82 9.03ZM17.65 8.75C17.65 8.88 17.73 8.91 17.73 8.92C17.73 8.92 17.73 8.92 17.73 8.93C17.73 8.93 17.73 8.98 17.77 9C17.75 8.96 17.75 8.92 17.75 8.91C17.75 8.91 17.79 8.88 17.8 8.83C17.8 8.79 17.8 8.75 17.76 8.71C17.76 8.71 17.76 8.71 17.76 8.7C17.77 8.7 17.79 8.68 17.8 8.67C17.8 8.67 17.8 8.67 17.81 8.67C17.81 8.67 17.81 8.67 17.81 8.68C17.81 8.69 17.81 8.71 17.81 8.72C17.81 8.79 17.81 8.81 17.84 8.84C17.84 8.8 17.84 8.78 17.84 8.78C17.84 8.78 17.84 8.78 17.84 8.77C17.84 8.77 17.84 8.77 17.85 8.77C17.85 8.77 17.93 8.81 18 8.69C18 8.69 18.01 8.69 18.02 8.69C18.02 8.69 18.02 8.7 18.02 8.71C17.97 8.82 18 8.86 18.01 8.87C18.01 8.87 18.01 8.89 18.01 8.91C18.01 8.94 18.01 8.98 18.05 8.99C18.03 8.95 18.05 8.91 18.05 8.91C18.05 8.91 18.05 8.91 18.06 8.91C18.06 8.91 18.09 8.91 18.11 8.87C18.13 8.83 18.14 8.78 18.12 8.71C18.12 8.71 18.12 8.71 18.12 8.7C18.14 8.68 18.16 8.68 18.17 8.68C18.19 8.68 18.2 8.7 18.2 8.7C18.2 8.7 18.2 8.75 18.24 8.77C18.26 8.78 18.28 8.78 18.3 8.77C18.31 8.77 18.32 8.79 18.33 8.8C18.33 8.82 18.33 8.84 18.32 8.85C18.34 8.85 18.37 8.83 18.38 8.81C18.4 8.76 18.4 8.71 18.38 8.68C18.37 8.65 18.34 8.63 18.3 8.62C18.3 8.6 18.3 8.59 18.3 8.58C18.32 8.56 18.35 8.55 18.36 8.55C18.36 8.55 18.42 8.57 18.45 8.59C18.45 8.59 18.45 8.57 18.44 8.56C18.43 8.54 18.41 8.52 18.38 8.52C18.29 8.52 18.24 8.5 18.24 8.48C18.24 8.48 18.24 8.46 18.24 8.43V8.39V8.38H18.25C18.32 8.43 18.39 8.45 18.42 8.45C18.42 8.44 18.4 8.42 18.39 8.4C18.32 8.3 18.26 8.21 18.27 8.16C18.27 8.16 18.27 8.14 18.28 8.14C18.3 8.14 18.33 8.16 18.35 8.18C18.39 8.21 18.43 8.24 18.46 8.23C18.46 8.23 18.45 8.23 18.43 8.22C18.4 8.21 18.36 8.19 18.31 8.11C18.31 8.11 18.28 8.06 18.28 8.03C18.28 8.03 18.28 8.02 18.28 8.01C18.28 8.01 18.29 8.01 18.3 8.01C18.3 8.01 18.44 8.16 18.58 8.16C18.58 8.14 18.53 8.1 18.5 8.08C18.47 8.05 18.45 8.04 18.45 8.03V8.02H18.46C18.49 8.04 18.75 8.26 18.91 8.19V8.17C18.91 8.16 18.88 8.14 18.84 8.12C18.78 8.08 18.69 8.03 18.59 7.92C18.59 7.92 18.59 7.91 18.59 7.9C18.59 7.9 18.6 7.9 18.61 7.9C18.68 7.95 19.06 8.17 19.23 8.1C19.23 8.07 19.13 8 19.04 7.93C18.94 7.86 18.83 7.78 18.76 7.7C18.76 7.7 18.76 7.69 18.76 7.68C18.76 7.68 18.77 7.68 18.78 7.68C18.94 7.83 19.08 7.91 19.15 7.92C19.22 7.94 19.36 7.91 19.4 7.88C19.38 7.88 19.32 7.86 19.26 7.84C19.15 7.83 19.03 7.8 18.91 7.74C18.91 7.74 18.91 7.73 18.91 7.72C18.91 7.71 18.92 7.72 18.93 7.72C19.04 7.76 19.16 7.79 19.26 7.82C19.26 7.82 19.26 7.82 19.27 7.82C19.44 7.84 19.57 7.82 19.6 7.79C19.59 7.78 19.54 7.76 19.42 7.73C19.33 7.73 19.24 7.7 19.15 7.66C19.15 7.66 19.14 7.66 19.15 7.64C19.15 7.64 19.15 7.63 19.17 7.64C19.25 7.66 19.31 7.67 19.36 7.69C19.39 7.69 19.41 7.7 19.44 7.71C19.83 7.75 20.11 7.55 20.12 7.54C20.11 7.54 20.09 7.54 20.06 7.54C19.92 7.56 19.76 7.57 19.59 7.57C19.59 7.57 19.58 7.57 19.58 7.56C19.58 7.55 19.58 7.55 19.59 7.55C19.84 7.53 19.98 7.52 20.06 7.52C20.55 7.46 20.85 7.34 21.02 7.24C21.24 7.11 21.32 6.98 21.34 6.93C21.31 6.93 21.26 6.97 21.19 7C21.12 7.04 21.02 7.09 20.91 7.14C20.91 7.14 20.89 7.14 20.89 7.15C20.76 7.21 20.6 7.27 20.41 7.32C20.08 7.4 19.69 7.43 19.23 7.32C19.23 7.32 19.22 7.32 19.22 7.3C19.22 7.3 19.22 7.29 19.24 7.29C19.7 7.39 20.1 7.36 20.42 7.29C20.6 7.25 20.75 7.19 20.88 7.13C21.01 7.07 21.12 7 21.2 6.94C21.43 6.78 21.55 6.63 21.56 6.6C21.53 6.6 21.36 6.67 21.2 6.74C21.06 6.82 20.88 6.9 20.65 6.99C20.57 7.02 20.49 7.05 20.43 7.06C20.43 7.06 20.42 7.06 20.41 7.06C20.41 7.06 20.41 7.05 20.41 7.04C20.49 7.02 20.56 6.99 20.63 6.97C20.77 6.91 20.93 6.84 21.09 6.77C21.12 6.75 21.15 6.74 21.18 6.73C21.55 6.52 21.63 6.34 21.65 6.29C21.63 6.29 21.57 6.33 21.51 6.36C21.38 6.43 21.18 6.54 20.91 6.67C20.68 6.79 20.36 6.91 19.91 7.03C19.83 7.05 19.75 7.07 19.66 7.09C19.66 7.09 19.65 7.09 19.64 7.09C19.64 7.09 19.64 7.08 19.64 7.07C19.73 7.05 19.81 7.03 19.89 7C20.27 6.89 20.6 6.76 20.86 6.65C21.3 6.43 21.41 6.24 21.44 6.17C21.45 6.13 21.45 6.11 21.44 6.1C21.39 6.1 21.26 6.17 21.1 6.26C20.94 6.35 20.73 6.47 20.5 6.57C20.32 6.66 20.09 6.74 19.82 6.8C19.82 6.8 19.81 6.8 19.8 6.79C19.8 6.79 19.8 6.78 19.81 6.77C20.03 6.72 20.25 6.64 20.45 6.56C20.55 6.51 20.64 6.46 20.71 6.42C20.92 6.29 21.05 6.16 21.1 6.08C21.1 6.08 21.1 6.08 21.1 6.07C20.93 6.17 20.1 6.5 19.94 6.56C19.94 6.56 19.92 6.56 19.91 6.56C19.91 6.56 19.9 6.56 19.89 6.56C19.89 6.56 19.89 6.55 19.89 6.54C19.89 6.54 19.89 6.54 19.92 6.53C20.03 6.48 20.12 6.36 20.11 6.33C20.11 6.33 20.11 6.32 20.09 6.33C19.92 6.45 19.32 6.57 19.11 6.6C19.09 6.6 19.06 6.62 19.03 6.63C18.81 6.7 18.59 6.77 18.53 6.76C17.88 6.72 17.69 6.81 17.69 6.81C17.69 6.81 17.69 6.81 17.68 6.81C17.63 6.7 17.61 6.62 17.65 6.56C17.69 6.49 17.76 6.47 17.78 6.47C17.8 6.47 17.82 6.47 17.83 6.47C17.84 6.47 17.85 6.47 17.86 6.47C17.85 6.47 17.83 6.47 17.82 6.46H17.8C17.8 6.46 17.75 6.44 17.74 6.43C17.74 6.43 17.74 6.42 17.74 6.41C17.74 6.41 17.75 6.41 17.76 6.41C17.78 6.41 17.8 6.42 17.82 6.43C17.82 6.43 17.84 6.43 17.85 6.43C17.9 6.43 17.95 6.45 17.97 6.48C17.97 6.49 17.98 6.51 17.98 6.53C18.01 6.51 18.05 6.47 18.04 6.43C18.04 6.4 18 6.34 17.77 6.32C17.7 6.24 17.51 6.19 17.34 6.24C17.2 6.28 17.02 6.39 16.95 6.71C16.95 6.71 16.97 6.73 16.99 6.74C16.99 6.74 16.99 6.75 16.99 6.76C16.99 6.76 16.98 6.76 16.97 6.76C16.81 6.69 16.42 6.63 16.21 6.6C16.18 6.6 16.16 6.6 16.14 6.59C15.88 6.52 15.61 6.4 15.41 6.31C15.29 6.25 15.16 6.19 15.14 6.2C15.14 6.23 15.27 6.36 15.33 6.42C15.41 6.5 15.42 6.51 15.41 6.52C15.41 6.52 15.41 6.52 15.41 6.53C15.41 6.53 15.41 6.53 15.4 6.53C15.11 6.37 14.84 6.26 14.57 6.15C14.47 6.11 14.37 6.06 14.31 6.02C14.26 5.99 14.22 5.97 14.21 5.97C14.21 5.97 14.21 6.03 14.25 6.1C14.33 6.22 14.45 6.35 14.57 6.43C14.6 6.45 14.76 6.52 14.89 6.58C15.05 6.65 15.11 6.68 15.14 6.69C15.14 6.69 15.14 6.69 15.14 6.7V6.71C14.38 6.4 14.25 6.33 14.18 6.29C14.18 6.29 14.09 6.22 14.04 6.17C14 6.13 13.94 6.08 13.92 6.08C13.92 6.09 13.92 6.13 13.94 6.19C13.97 6.27 14.06 6.45 14.32 6.55C14.32 6.55 14.35 6.56 14.37 6.57C14.37 6.57 14.39 6.57 14.4 6.58C14.42 6.58 14.44 6.6 14.47 6.61C14.54 6.64 14.63 6.67 14.72 6.7C15.06 6.82 15.11 6.84 15.12 6.86C15.12 6.86 15.12 6.86 15.12 6.87C15.12 6.87 15.12 6.87 14.48 6.63C14.44 6.62 14.41 6.6 14.38 6.59C14.3 6.56 14.24 6.54 14.23 6.53C14.14 6.5 14.05 6.43 13.97 6.37C13.92 6.33 13.86 6.29 13.84 6.29C13.84 6.29 13.84 6.29 13.84 6.32C13.87 6.4 13.97 6.53 14.09 6.58C14.11 6.58 14.13 6.6 14.17 6.61C14.24 6.64 14.35 6.69 14.47 6.74C14.57 6.78 14.66 6.81 14.72 6.83C14.75 6.84 14.77 6.85 14.78 6.85C14.78 6.85 14.78 6.85 14.79 6.85C14.79 6.85 14.8 6.86 14.79 6.87C14.79 6.87 14.78 6.88 14.77 6.87C14.66 6.83 14.54 6.79 14.44 6.75C14.28 6.69 14.09 6.62 13.97 6.58C13.91 6.55 13.87 6.52 13.83 6.49C13.81 6.48 13.79 6.46 13.78 6.46C13.78 6.46 13.82 6.78 14.67 6.96C14.67 6.96 14.67 6.96 14.69 6.96C14.71 6.96 14.73 6.96 14.76 6.95C14.8 6.95 14.84 6.93 14.87 6.93C14.9367 6.91667 14.9734 6.91667 14.98 6.93C14.98 6.93 14.98 6.94 14.98 6.95C14.98 6.95 14.88 6.97 14.8 6.99C14.75 7 14.72 7.01 14.7 7.01C14.69 7.01 14.67 7.01 14.67 7.01C14.65 7.01 14.54 7.02 14.51 7.03C14.51 7.03 14.51 7.03 14.52 7.05C14.55 7.08 14.65 7.15 14.99 7.13C15.02 7.13 15.1 7.1 15.18 7.08C15.33 7.04 15.33 7.04 15.34 7.05C15.34 7.05 15.34 7.06 15.34 7.07C15.32 7.09 14.91 7.2 14.88 7.21H14.86C14.78 7.22 14.74 7.23 14.72 7.23C14.74 7.25 14.84 7.32 15.05 7.33C15.21 7.33 15.48 7.26 15.59 7.23C15.63 7.21667 15.6534 7.21667 15.66 7.23C15.66 7.23 15.66 7.24 15.66 7.25C15.66 7.25 15.63 7.26 15.44 7.33C15.36 7.36 15.27 7.38 15.27 7.39C15.27 7.39 15.24 7.39 15.2 7.4C15.18 7.4 15.15 7.4 15.13 7.4C15.17 7.44 15.39 7.56 15.93 7.4C15.93 7.4 15.94 7.4 15.95 7.4C15.96 7.4 15.95 7.41 15.95 7.42C15.91 7.48 15.76 7.52 15.66 7.54C15.64 7.54 15.61 7.55 15.6 7.56C15.62 7.58 15.67 7.62 15.75 7.63C15.8 7.63 15.87 7.63 15.94 7.63C16.04 7.61 16.17 7.57 16.34 7.43C16.34 7.43 16.34 7.43 16.35 7.43C16.36 7.46 16.31 7.5 16.11 7.61C16.06 7.64 16 7.67 15.98 7.69C16.07 7.75 16.34 7.67 16.36 7.66H16.37C16.7 7.49 16.9 7.37 16.93 7.33C16.93 7.33 16.93 7.33 16.95 7.33C16.95 7.33 16.95 7.33 16.95 7.34C16.95 7.37 16.84 7.43 16.46 7.64C16.37 7.69 16.27 7.74 16.24 7.76C16.29 7.8 16.5 7.75 16.52 7.74C16.52 7.74 16.59 7.7 16.66 7.67C16.74 7.63 16.84 7.58 16.84 7.58C16.84 7.58 16.85 7.58 16.86 7.58C16.86 7.58 16.86 7.59 16.86 7.6C16.66 7.71 16.55 7.79 16.54 7.81C16.54 7.81 16.54 7.82 16.54 7.83C16.61 7.87 16.95 7.76 17.08 7.7C17.11 7.68 17.14 7.67 17.14 7.67C17.14 7.67 17.15 7.67 17.16 7.67C17.16 7.67 17.16 7.68 17.16 7.69C17.16 7.69 17.14 7.7 17.11 7.71C17.03 7.75 16.9 7.82 16.89 7.86C16.92 7.9 16.97 7.93 17.04 7.95C17.16 7.97 17.3 7.95 17.33 7.93C17.34 7.93 17.35 7.93 17.35 7.93C17.36 7.93 17.35 7.96 17.35 8C17.37 7.98 17.4 7.94 17.41 7.91C17.41 7.91 17.42 7.91 17.43 7.91C17.43 7.91 17.44 7.91 17.43 7.93C17.43 7.95 17.42 7.98 17.4 8.01C17.39 8.04 17.37 8.08 17.36 8.12C17.36 8.15 17.35 8.19 17.34 8.22C17.34 8.26 17.32 8.31 17.31 8.36C17.32 8.36 17.34 8.34 17.36 8.32C17.39 8.28 17.47 8.18 17.45 8C17.45 8 17.45 7.99 17.46 7.99C17.46 7.99 17.47 7.99 17.48 7.99C17.5 8.05 17.48 8.17 17.45 8.28C17.45 8.34 17.43 8.41 17.43 8.43C17.43 8.43 17.44 8.43 17.46 8.41C17.46 8.41 17.47 8.41 17.48 8.41C17.48 8.41 17.48 8.41 17.48 8.42C17.47 8.49 17.44 8.62 17.25 8.62C17.08 8.62 17.06 8.77 17.06 8.78C17.06 8.78 17.06 8.78 17.06 8.82C17.08 8.79 17.09 8.78 17.09 8.78C17.09 8.78 17.09 8.78 17.1 8.78C17.1 8.78 17.22 8.8 17.35 8.7C17.35 8.7 17.36 8.7 17.37 8.7C17.37 8.7 17.37 8.71 17.37 8.72C17.3 8.78 17.29 8.82 17.3 8.85C17.3 8.87 17.32 8.88 17.32 8.88C17.32 8.88 17.32 8.88 17.32 8.9C17.32 8.9 17.31 8.94 17.32 8.97C17.32 8.97 17.33 8.99 17.34 8.99C17.33 8.96 17.34 8.93 17.34 8.93C17.34 8.93 17.34 8.93 17.35 8.93C17.35 8.93 17.48 8.92 17.47 8.77C17.47 8.77 17.47 8.76 17.48 8.76C17.48 8.76 17.49 8.76 17.49 8.77L17.65 8.75ZM17.82 8.7C17.82 8.7 17.83 8.72 17.84 8.73C17.84 8.73 17.84 8.71 17.84 8.7C17.84 8.7 17.84 8.69 17.84 8.68C17.84 8.68 17.83 8.68 17.82 8.69V8.7ZM17.91 8.58C17.91 8.58 17.83 8.55 17.79 8.52C17.77 8.48 17.79 8.31 17.79 8.28V8.27H17.8C17.83 8.31 17.85 8.33 17.87 8.35C17.87 8.35 17.87 8.33 17.87 8.32C17.87 8.28 17.87 8.27 17.85 8.21C17.86 8.11 17.87 7.96 17.87 7.8V7.77C17.87 7.77 17.87 7.76 17.88 7.76C17.88 7.76 17.89 7.76 17.9 7.76C18.06 8.04 18.14 8.18 18.09 8.4C18.09 8.4 18.11 8.38 18.13 8.35C18.13 8.35 18.13 8.35 18.14 8.35C18.14 8.35 18.14 8.35 18.15 8.36V8.51C18.15 8.51 18.14 8.53 18.12 8.55C18.12 8.55 18.1 8.55 18.07 8.55C18.03 8.55 17.94 8.55 17.89 8.58H17.91ZM17.8 8.5C17.8 8.5 17.89 8.54 17.9 8.55C17.95 8.52 18.03 8.52 18.08 8.52C18.09 8.52 18.1 8.52 18.11 8.52C18.11 8.52 18.12 8.5 18.13 8.5V8.39C18.13 8.39 18.09 8.43 18.06 8.42C18.06 8.42 18.06 8.42 18.06 8.4C18.1 8.19 18.06 8.08 17.9 7.8C17.9 7.96 17.9 8.09 17.88 8.2C17.9 8.26 17.9 8.28 17.9 8.32C17.9 8.33 17.9 8.35 17.9 8.37C17.9 8.37 17.9 8.37 17.9 8.38C17.9 8.38 17.9 8.38 17.89 8.38C17.86 8.37 17.84 8.35 17.81 8.31C17.81 8.38 17.81 8.47 17.81 8.5H17.8Z" fill="black"/>
<path d="M17.85 8.67C17.85 8.67 17.84 8.67 17.84 8.66C17.84 8.61 17.86 8.58 17.9 8.56C17.9 8.56 17.91 8.56 17.92 8.56C17.92 8.56 17.92 8.57 17.92 8.58C17.88 8.6 17.87 8.64 17.87 8.66C17.87 8.66 17.87 8.67 17.86 8.67H17.85ZM17.6 8.41C17.6 8.41 17.6 8.4 17.6 8.39C17.65 8.34 17.71 8.24 17.72 8.16C17.72 8.16 17.72 8.15 17.73 8.15H17.74C17.74 8.15 17.78 8.22 17.8 8.26C17.8 8.26 17.8 8.27 17.8 8.28C17.8 8.28 17.79 8.28 17.78 8.28C17.76 8.25 17.74 8.22 17.73 8.2C17.71 8.27 17.66 8.36 17.61 8.41H17.6ZM18.34 8.38C18.3 8.35 18.25 8.3 18.21 8.22C18.2 8.27 18.18 8.32 18.16 8.36C18.16 8.36 18.15 8.36 18.14 8.36C18.14 8.36 18.14 8.35 18.14 8.34C18.17 8.29 18.2 8.2 18.19 8.15C18.19 8.15 18.19 8.14 18.2 8.14C18.2 8.14 18.21 8.14 18.22 8.15C18.25 8.26 18.32 8.32 18.36 8.35C18.36 8.35 18.36 8.36 18.36 8.37C18.36 8.37 18.36 8.37 18.35 8.37L18.34 8.38ZM18.41 8.02C18.41 8.02 18.41 8.02 18.4 8.02C18.39 8 18.38 7.97 18.37 7.95C18.35 7.88 18.32 7.8 18.23 7.69C18.18 7.65 18.14 7.6 18.1 7.56C18.1 7.56 18.1 7.55 18.1 7.54C18.1 7.54 18.11 7.54 18.12 7.54C18.17 7.59 18.21 7.63 18.25 7.67C18.4 7.79 18.58 7.85 18.63 7.84C18.63 7.84 18.63 7.84 18.64 7.84C18.64 7.81 18.55 7.72 18.49 7.66C18.39 7.56 18.33 7.5 18.34 7.46C18.34 7.46 18.34 7.46 18.35 7.46H18.36C18.42 7.58 18.75 7.85 18.99 7.83C18.99 7.81 18.93 7.77 18.89 7.73C18.83 7.69 18.77 7.64 18.74 7.59C18.6 7.5 18.3 7.26 18.18 7.14C18.2 7.24 18.24 7.44 18.24 7.47C18.24 7.47 18.24 7.48 18.22 7.48C18.22 7.48 18.21 7.48 18.21 7.46C18.21 7.43 18.15 7.13 18.14 7.08C18.14 7.08 17.97 6.85 17.86 6.79C17.75 6.72 17.71 6.62 17.71 6.62C17.71 6.62 17.71 6.61 17.71 6.6C17.71 6.6 17.72 6.6 17.73 6.6C17.73 6.6 17.77 6.7 17.87 6.76C17.96 6.81 18.08 6.96 18.13 7.03C18.24 7.07 18.37 7.05 18.37 7.05C18.37 7.05 18.37 7.05 18.38 7.05C18.38 7.05 18.38 7.04 18.33 7.02C18.31 7.02 18.3 7.02 18.28 7.01C18.28 7.01 18.28 7 18.28 6.99C18.28 6.99 18.28 6.98 18.3 6.99C18.32 6.99 18.33 6.99 18.35 7C18.46 7.02 18.62 7.01 18.64 7.01C18.64 7.01 18.64 7 18.58 6.97C18.54 6.97 18.51 6.95 18.49 6.93C18.49 6.93 18.49 6.92 18.49 6.91C18.49 6.91 18.5 6.91 18.51 6.91C18.55 6.92 18.58 6.93 18.6 6.95C18.73 6.98 18.94 6.97 18.94 6.97C18.94 6.97 18.94 6.95 18.81 6.88C18.81 6.88 18.81 6.87 18.81 6.86C18.81 6.86 18.81 6.85 18.83 6.86C19.05 6.91 19.2 6.87 19.23 6.83C19.23 6.83 19.23 6.82 19.23 6.81C19.23 6.8 19.2 6.79 19.16 6.78C19.15 6.78 19.13 6.78 19.12 6.78C19.12 6.78 19.11 6.78 19.11 6.77C19.11 6.77 19.11 6.76 19.12 6.76C19.13 6.76 19.15 6.76 19.16 6.76C19.39 6.76 19.9 6.6 20.05 6.53C20.05 6.53 20.06 6.53 20.07 6.53C20.07 6.53 20.07 6.54 20.07 6.55C19.98 6.59 19.74 6.67 19.52 6.72C19.63 6.74 20.06 6.82 20.22 6.77C20.22 6.77 20.23 6.77 20.24 6.77C20.24 6.77 20.24 6.78 20.24 6.79C20.13 6.93 19.96 6.96 19.81 6.95C19.82 6.95 19.84 6.97 19.85 6.98C19.85 6.98 19.85 7 19.85 7.01C19.83 7.03 19.73 7.04 19.63 7.03C19.71 7.05 19.71 7.06 19.72 7.09C19.72 7.09 19.72 7.11 19.7 7.12C19.64 7.15 19.31 7.12 19.12 7.07C19.18 7.1 19.22 7.12 19.27 7.15C19.3 7.17 19.33 7.18 19.37 7.2C19.42 7.2 19.58 7.2 19.64 7.2C19.64 7.2 19.65 7.2 19.66 7.21C19.66 7.21 19.66 7.22 19.65 7.23C19.59 7.23 19.45 7.23 19.39 7.23C19.28 7.28 19.1 7.31 18.8 7.17C19.11 7.38 19.39 7.44 19.56 7.49C19.66 7.51 19.72 7.53 19.75 7.56C19.75 7.56 19.75 7.57 19.75 7.58C19.68 7.67 19.47 7.76 18.83 7.43C19.05 7.56 19.27 7.69 19.31 7.69H19.32C19.32 7.69 19.32 7.7 19.32 7.71C19.24 7.78 18.99 7.75 18.82 7.66C18.85 7.69 18.88 7.71 18.92 7.74C18.99 7.8 19.05 7.84 19.03 7.87C19.03 7.87 19.03 7.87 19.02 7.87C18.88 7.88 18.71 7.8 18.57 7.7C18.64 7.77 18.68 7.82 18.68 7.85C18.68 7.85 18.68 7.87 18.65 7.88C18.59 7.89 18.45 7.84 18.32 7.75C18.37 7.83 18.39 7.89 18.41 7.95C18.41 7.97 18.43 8 18.44 8.02C18.44 8.02 18.44 8.03 18.44 8.04L18.41 8.02ZM18.76 7.56C18.9 7.66 19.16 7.71 19.27 7.67C19.09 7.61 18.5 7.22 18.4 7.15C18.4 7.15 18.4 7.14 18.4 7.13C18.4 7.13 18.4267 7.14333 18.48 7.17C18.79 7.36 19.53 7.77 19.72 7.54C19.69 7.52 19.63 7.51 19.56 7.49C19.35 7.44 19 7.36 18.62 7.04C18.57 7.04 18.51 7.04 18.46 7.04C18.46 7.04 18.46 7.04 18.46 7.05C18.46 7.07 18.43 7.08 18.43 7.08C18.43 7.08 18.3 7.1 18.19 7.07C18.23 7.15 18.62 7.46 18.78 7.56H18.76ZM18.64 7.03C19 7.26 19.21 7.24 19.34 7.2C19.31 7.19 19.29 7.17 19.26 7.16C19.19 7.13 19.12 7.09 19.01 7.02C18.99 7.02 18.98 7 18.97 6.99C18.97 6.99 18.97 6.98 18.97 6.97C18.97 6.97 18.98 6.97 18.99 6.97C19 6.97 19.01 6.99 19.03 7C19.1 7.03 19.28 7.07 19.46 7.09C19.6 7.1 19.67 7.09 19.69 7.09C19.69 7.07 19.67 7.06 19.48 7.01C19.47 7.01 19.46 7.01 19.45 7.01C19.38 7 19.31 6.98 19.28 6.96C19.28 6.96 19.28 6.95 19.28 6.94C19.28 6.94 19.28 6.94 19.3 6.94C19.37 6.96 19.43 6.98 19.48 6.99C19.63 7.01 19.8 7.02 19.84 7C19.8 6.97 19.78 6.96 19.72 6.94C19.62 6.92 19.55 6.89 19.54 6.89C19.54 6.89 19.54 6.88 19.54 6.87C19.54 6.87 19.54 6.86 19.56 6.87C19.59 6.87 19.62 6.89 19.65 6.89C19.69 6.9 19.72 6.91 19.74 6.91C19.88 6.94 20.08 6.94 20.22 6.81C20.01 6.84 19.54 6.75 19.52 6.74C19.43 6.76 19.35 6.77 19.28 6.78C19.28 6.78 19.29 6.79 19.3 6.8C19.3 6.81 19.3 6.83 19.3 6.84C19.26 6.89 19.13 6.92 18.95 6.89C19.02 6.93 19.02 6.95 19.02 6.97C19.02 6.99 19 6.99 19 6.99C18.99 6.99 18.84 6.99 18.72 6.99C18.73 7 18.73 7.01 18.73 7.02C18.73 7.04 18.7 7.05 18.7 7.05C18.7 7.05 18.69 7.05 18.67 7.05L18.64 7.03ZM17.47 7.92C17.47 7.92 17.47 7.91 17.47 7.9C17.47 7.9 17.57 7.74 17.26 7.39C17.06 7.54 16.95 7.48 16.95 7.48C16.95 7.48 16.95 7.48 16.95 7.47C16.95 7.45 17.02 7.36 17.14 7.22C17.11 7.19 17.09 7.16 17.07 7.13C16.71 7.47 16.44 7.39 16.4 7.36C16.38 7.35 16.39 7.33 16.39 7.33C16.48 7.27 16.58 7.22 16.67 7.16C16.31 7.3 16.21 7.27 16.11 7.24C16.09 7.24 16.07 7.23 16.05 7.22C16.05 7.22 16.04 7.22 16.04 7.21V7.2C16.14 7.16 16.18 7.13 16.29 7.06C16.29 7.06 16.3 7.06 16.31 7.05C16.15 7.11 15.97 7.14 15.86 7.12C15.86 7.12 15.85 7.12 15.85 7.11C15.85 7.11 15.85 7.1 15.86 7.1C15.86 7.1 15.92 7.07 15.98 7.03C15.88 7.05 15.75 7.05 15.72 7.03C15.71 7.03 15.71 7.01 15.71 7.01C15.71 7.01 15.71 7 15.72 7C15.74 7 15.8 6.94 15.87 6.87C15.78 6.89 15.59 6.89 15.53 6.85C15.53 6.85 15.53 6.85 15.53 6.84C15.53 6.84 15.53 6.84 15.54 6.83C15.61 6.81 15.69 6.75 15.74 6.7C15.67 6.72 15.56 6.74 15.49 6.7C15.47 6.69 15.45 6.67 15.44 6.64C15.44 6.64 15.44 6.64 15.44 6.63C15.44 6.62 15.44 6.63 15.45 6.63C15.55 6.63 15.65 6.59 15.68 6.57C15.6 6.54 15.55 6.51 15.54 6.51C15.54 6.51 15.54 6.5 15.54 6.49C15.54 6.49 15.55 6.49 15.56 6.49C15.56 6.49 15.97 6.69 16.14 6.67H16.15C16.15 6.67 16.15 6.68 16.15 6.69C16.12 6.71 16.09 6.73 16.07 6.74C16.13 6.76 16.23 6.79 16.37 6.76H16.38C16.38 6.76 16.38 6.77 16.38 6.78C16.35 6.8 16.32 6.83 16.3 6.85C16.35 6.86 16.47 6.88 16.6 6.81C16.6 6.81 16.61 6.81 16.62 6.81C16.62 6.81 16.62 6.82 16.62 6.83C16.59 6.87 16.56 6.9 16.55 6.91H16.65C16.65 6.91 16.66 6.92 16.66 6.93C16.66 6.93 16.66 6.94 16.65 6.94H16.53C16.53 6.94 16.53 6.93 16.52 6.93C16.52 6.93 16.52 6.93 16.52 6.92C16.52 6.92 16.54 6.89 16.57 6.86C16.44 6.91 16.32 6.88 16.29 6.87C16.1 6.99 15.98 7.07 15.92 7.1C16.06 7.11 16.32 7.05 16.5 6.95C16.5 6.95 16.51 6.95 16.52 6.95C16.52 6.95 16.52 6.96 16.52 6.97C16.44 7.02 16.38 7.06 16.33 7.09C16.23 7.15 16.19 7.18 16.11 7.21C16.11 7.21 16.12 7.21 16.13 7.21C16.23 7.24 16.33 7.27 16.68 7.13C16.77 7.09 16.84 7.04 16.9 7C16.96 6.95 17.01 6.89 17.06 6.84C17.06 6.84 17.06 6.83 17.06 6.82C17.06 6.81 17.07 6.79 17.07 6.78C17.07 6.78 17.07 6.77 17.08 6.76C17.08 6.76 17.09 6.76 17.1 6.77C17.1 6.78 17.1 6.8 17.09 6.82C17.06 6.9 17 7.04 17.17 7.21C17.17 7.21 17.17 7.22 17.17 7.23C17.04 7.38 16.99 7.44 16.98 7.46C17.01 7.46 17.11 7.48 17.26 7.36C17.26 7.36 17.27 7.36 17.28 7.36C17.35 7.44 17.4 7.51 17.44 7.58C17.44 7.55 17.45 7.51 17.47 7.46C17.47 7.46 17.47 7.46 17.48 7.46C17.48 7.46 17.48 7.46 17.49 7.46C17.52 7.49 17.55 7.51 17.58 7.52C17.6 7.52 17.61 7.53 17.62 7.54C17.62 7.54 17.65 7.55 17.66 7.56C17.74 7.59 17.89 7.63 17.91 7.76C17.91 7.76 17.91 7.77 17.9 7.77C17.9 7.77 17.89 7.77 17.89 7.76C17.88 7.65 17.74 7.61 17.66 7.59C17.63 7.59 17.61 7.58 17.61 7.57C17.61 7.57 17.59 7.56 17.58 7.55C17.56 7.54 17.53 7.52 17.5 7.5C17.46 7.62 17.48 7.65 17.48 7.65C17.56 7.83 17.51 7.91 17.5 7.92C17.5 7.92 17.5 7.92 17.49 7.92H17.47ZM16.41 7.34C16.41 7.34 16.44 7.36 16.48 7.36C16.56 7.36 16.77 7.36 17.04 7.11C17 7.02 17 6.95 17.02 6.89C16.99 6.92 16.94 6.97 16.88 7.02C16.74 7.14 16.57 7.24 16.41 7.34ZM15.76 7C15.82 7.01 16.01 7 16.06 6.96C16.12 6.91 16.25 6.85 16.27 6.84C16.27 6.84 16.3 6.82 16.33 6.79C16.18 6.81 16.08 6.77 16.04 6.75C16.04 6.75 15.99 6.81 15.96 6.84C15.89 6.91 15.81 6.99 15.76 7.02V7ZM15.59 6.83C15.68 6.86 15.87 6.84 15.91 6.83C15.91 6.83 15.93 6.82 15.94 6.81C15.97 6.78 16 6.75 16.03 6.72C16.03 6.72 16.07 6.72 16.11 6.69C16 6.69 15.85 6.63 15.73 6.58C15.71 6.59 15.61 6.65 15.49 6.66C15.49 6.67 15.51 6.68 15.52 6.68C15.61 6.73 15.8 6.66 15.8 6.66C15.8 6.66 15.81 6.66 15.82 6.66C15.82 6.66 15.82 6.67 15.82 6.68C15.82 6.68 15.7 6.8 15.6 6.84L15.59 6.83ZM18.02 7.71C18.02 7.71 18.01 7.71 18.01 7.7C18.01 7.7 18.01 7.62 17.9 7.54C17.8 7.45 17.77 7.34 17.77 7.34C17.77 7.34 17.77 7.33 17.78 7.32C17.78 7.32 17.79 7.32 17.8 7.33C17.8 7.33 17.83 7.44 17.92 7.52C18.03 7.61 18.03 7.69 18.04 7.7C18.04 7.7 18.04 7.71 18.03 7.71H18.02ZM17.67 6.32C17.67 6.32 17.62 6.32 17.59 6.31C17.56 6.31 17.53 6.3 17.51 6.3H17.5V6.29C17.62 6.21 17.68 6.22 17.72 6.24C17.75 6.25 17.76 6.28 17.76 6.29C17.74 6.32 17.71 6.33 17.68 6.33L17.67 6.32ZM17.54 6.27C17.54 6.27 17.57 6.27 17.59 6.27C17.66 6.28 17.7 6.29 17.72 6.26C17.72 6.26 17.71 6.24 17.69 6.23C17.66 6.22 17.62 6.22 17.54 6.26V6.27Z" fill="black"/>
</g>
</g>
<defs>
<clipPath id="clip0_170_14217">
<rect width="24" height="24" fill="white"/>
</clipPath>
</defs>
</svg>
