<svg width="24" height="24" viewBox="0 0 24 24" fill="none" xmlns="http://www.w3.org/2000/svg">
<g clip-path="url(#clip0_170_14320)">
<mask id="mask0_170_14320" style="mask-type:luminance" maskUnits="userSpaceOnUse" x="0" y="0" width="24" height="24">
<path d="M12 24C18.6274 24 24 18.6274 24 12C24 5.3726 18.6274 1.43051e-05 12 1.43051e-05C5.37258 1.43051e-05 0 5.3726 0 12C0 18.6274 5.37258 24 12 24Z" fill="white"/>
</mask>
<g mask="url(#mask0_170_14320)">
<path d="M0 -0.149985H36.45V24.15H0V-0.149985Z" fill="#006400"/>
<path d="M0.289978 3.32001H36.45V20.68H0.289978V3.32001Z" fill="#FFD200"/>
<path d="M0.289978 6.79001H36.45V17.2H0.289978V6.79001Z" fill="#D40000"/>
<path d="M0.289978 10.26H36.45V13.73H0.289978V10.26Z" fill="black"/>
<mask id="mask1_170_14320" style="mask-type:luminance" maskUnits="userSpaceOnUse" x="0" y="-1" width="19" height="26">
<path d="M18.22 -0.149985H0V24.15H18.22V-0.149985Z" fill="white"/>
</mask>
<g mask="url(#mask1_170_14320)">
<path d="M12.15 12L0 24.15V-0.149985L12.15 12Z" fill="black" stroke="black" stroke-miterlimit="38.1"/>
</g>
<path d="M12.15 12L0 24.15V-0.149985L12.15 12Z" fill="white"/>
<path d="M4.63002 7.76001L6.82002 14.51L1.08002 10.34H8.18002L2.44002 14.51L4.63002 7.76001Z" fill="#D40000"/>
<path d="M3.41998 9.64001C3.39998 9.58001 3.39998 9.51001 3.42998 9.46001C3.45998 9.40001 3.51998 9.36001 3.57998 9.35001C3.64998 9.34001 3.71998 9.33001 3.78998 9.34001C3.85998 9.24001 3.95998 9.17002 4.07998 9.16002C4.19998 9.16002 4.31998 9.20001 4.39998 9.29001C4.48998 9.40001 4.54998 9.53001 4.55998 9.68001L4.60998 10.3L6.48998 11.77C6.48998 11.77 6.54998 11.88 6.50998 11.93C6.47998 11.97 6.43998 11.98 6.38998 11.97L6.30998 11.95C6.00998 12.14 5.77998 12.47 5.73998 12.82L5.62998 13.72H3.63998L3.37998 12.7C3.28998 12.59 3.26998 12.42 3.34998 12.3C3.44998 12.13 3.55998 11.98 3.69998 11.84C3.78998 11.75 3.82998 11.63 3.80998 11.5C3.78998 11.38 3.77998 11.25 3.77998 11.13C3.77998 11.03 3.79998 10.92 3.84998 10.83L3.81998 9.91002C3.81998 9.80002 3.75998 9.70001 3.65998 9.65001H3.42998L3.41998 9.64001Z" fill="#FFD200"/>
<path d="M5.62 13.73H3.63C3.63 13.73 3.61 13.73 3.61 13.71L3.35 12.69C3.25 12.57 3.24 12.4 3.32 12.26C3.42 12.09 3.54 11.94 3.67 11.8C3.75 11.72 3.79 11.6 3.77 11.48C3.75 11.36 3.74 11.23 3.74 11.11C3.74 11.01 3.76 10.9 3.81 10.81L3.78 9.89001C3.78 9.79001 3.72 9.70001 3.64 9.65001H3.41H3.39C3.36 9.58001 3.37 9.51001 3.4 9.44001C3.43 9.38001 3.5 9.33001 3.57 9.32001C3.63 9.31001 3.7 9.30001 3.77 9.30001C3.84 9.20001 3.95 9.13001 4.08 9.12001C4.21 9.12001 4.33 9.16001 4.42 9.26001C4.52 9.37001 4.58 9.51002 4.59 9.66002L4.64 10.27L6.51 11.74C6.51 11.74 6.56 11.8 6.56 11.83C6.56 11.87 6.56 11.9 6.53 11.93C6.5 11.97 6.44 11.99 6.39 11.98L6.32 11.96C6.02 12.15 5.81 12.47 5.77 12.8L5.66 13.7C5.66 13.7 5.65 13.72 5.63 13.72L5.62 13.73ZM3.65 13.68H5.6L5.71 12.81C5.75 12.46 5.98 12.12 6.29 11.92C6.29 11.92 6.3 11.92 6.31 11.92L6.39 11.94C6.39 11.94 6.46 11.94 6.48 11.91C6.51 11.87 6.51 11.82 6.47 11.78L4.59 10.31C4.59 10.31 4.59 10.3 4.59 10.29L4.54 9.67001C4.53 9.53001 4.47 9.40001 4.38 9.30001C4.31 9.22001 4.2 9.17001 4.08 9.18001C3.97 9.18001 3.87 9.25001 3.81 9.34001C3.81 9.34001 3.8 9.35001 3.79 9.35001C3.72 9.35001 3.65 9.35001 3.59 9.36001C3.53 9.36001 3.48 9.40002 3.46 9.45002C3.44 9.50002 3.43 9.55001 3.44 9.60001H3.65C3.65 9.60001 3.65 9.59001 3.66 9.60001C3.76 9.66001 3.83 9.77001 3.83 9.88001L3.86 10.8C3.86 10.8 3.86 10.8 3.86 10.81C3.82 10.9 3.8 11 3.8 11.1C3.8 11.23 3.81 11.35 3.83 11.47C3.85 11.6 3.8 11.74 3.71 11.83C3.58 11.97 3.46 12.12 3.36 12.28C3.29 12.4 3.3 12.55 3.39 12.65L3.65 13.66V13.68Z" fill="black"/>
<path d="M3.94002 13.73C3.94002 13.73 3.91002 13.72 3.91002 13.7V13.32L3.74002 12.83H3.39002C3.39002 12.83 3.36002 12.82 3.36002 12.8C3.36002 12.78 3.37002 12.77 3.39002 12.77H3.54002C3.48002 12.72 3.44002 12.66 3.41002 12.6L3.38002 12.68C3.38002 12.68 3.36002 12.7 3.35002 12.69C3.34002 12.69 3.33002 12.67 3.34002 12.66L3.40002 12.52C3.40002 12.52 3.41002 12.5 3.43002 12.5C3.44002 12.5 3.45002 12.5 3.45002 12.52C3.47002 12.59 3.50002 12.65 3.55002 12.7C3.52002 12.44 3.63002 12.05 3.99002 11.88C4.19002 11.79 4.21002 11.57 4.22002 11.48C4.22002 11.42 4.22002 11.34 4.32002 11.3C4.33002 11.3 4.35002 11.3 4.35002 11.31C4.35002 11.32 4.35002 11.34 4.34002 11.34C4.28002 11.37 4.27002 11.41 4.27002 11.48C4.27002 11.58 4.24002 11.82 4.02002 11.93C3.68002 12.09 3.58002 12.45 3.60002 12.69C3.63002 12.63 3.65002 12.57 3.67002 12.5C3.67002 12.5 3.68002 12.48 3.69002 12.48C3.70002 12.48 3.71002 12.48 3.71002 12.49C3.73002 12.53 3.75002 12.58 3.76002 12.62C3.79002 12.47 3.89002 12.35 4.02002 12.3L4.35002 12.15L4.59002 12.04C4.66002 12.01 4.78002 11.94 4.87002 11.82C4.92002 11.76 4.95002 11.68 4.97002 11.59L4.60002 11.48C4.49002 11.45 4.39002 11.37 4.34002 11.27C4.29002 11.17 4.28002 11.05 4.32002 10.94C4.32002 10.93 4.34002 10.92 4.35002 10.92C4.36002 10.92 4.37002 10.94 4.37002 10.95C4.33002 11.08 4.36002 11.18 4.39002 11.24C4.44002 11.33 4.52002 11.4 4.62002 11.43L5.01002 11.54L5.47002 11.67L6.28002 11.9C6.28002 11.9 6.30002 11.92 6.30002 11.93C6.30002 11.94 6.28002 11.95 6.27002 11.95L5.48002 11.73C5.36002 11.95 5.11002 11.92 4.89002 11.86C4.82002 11.96 4.72002 12.03 4.59002 12.09L4.45002 12.15H5.97002C5.97002 12.15 6.00002 12.16 6.00002 12.18C6.00002 12.2 5.99002 12.21 5.97002 12.21H4.33002L4.00002 12.36C3.85002 12.43 3.75002 12.59 3.76002 12.77H5.69002C5.69002 12.77 5.72002 12.78 5.72002 12.8C5.72002 12.82 5.71002 12.83 5.69002 12.83H5.36002L5.51002 12.98L5.66002 12.83C5.66002 12.83 5.69002 12.83 5.70002 12.83C5.71002 12.83 5.70002 12.86 5.70002 12.87L5.53002 13.04C5.53002 13.04 5.50002 13.04 5.49002 13.04L5.34002 12.89L5.19002 13.04C5.19002 13.04 5.16002 13.04 5.15002 13.04L5.00002 12.89L4.85002 13.04C4.85002 13.04 4.82002 13.04 4.81002 13.04L4.66002 12.89L4.51002 13.04C4.51002 13.04 4.48002 13.04 4.47002 13.04L4.32002 12.89L4.17002 13.04C4.17002 13.04 4.14002 13.04 4.13002 13.04L3.98002 12.89L3.83002 13.04L3.87002 13.17L3.96002 13.08C3.96002 13.08 3.99002 13.08 4.00002 13.08L4.15002 13.23L4.30002 13.08C4.30002 13.08 4.33002 13.08 4.34002 13.08L4.49002 13.23L4.64002 13.08C4.64002 13.08 4.67002 13.08 4.68002 13.08L4.83002 13.23L4.98002 13.08C4.98002 13.08 5.01002 13.08 5.02002 13.08L5.17002 13.23L5.32002 13.08C5.32002 13.08 5.35002 13.08 5.36002 13.08L5.51002 13.23L5.62002 13.12C5.62002 13.12 5.65002 13.12 5.66002 13.12C5.66002 13.12 5.66002 13.15 5.66002 13.16L5.53002 13.29H5.62002C5.62002 13.29 5.65002 13.3 5.65002 13.32C5.65002 13.34 5.64002 13.35 5.62002 13.35H3.92002V13.71C3.92002 13.71 3.91002 13.74 3.89002 13.74L3.94002 13.73ZM5.24002 13.29H5.55002L5.40002 13.14L5.25002 13.29H5.24002ZM4.90002 13.29H5.21002L5.06002 13.14L4.91002 13.29H4.90002ZM4.56002 13.29H4.87002L4.72002 13.14L4.57002 13.29H4.56002ZM4.22002 13.29H4.53002L4.38002 13.14L4.23002 13.29H4.22002ZM3.96002 13.29H4.19002L4.04002 13.14L3.95002 13.23L3.97002 13.3L3.96002 13.29ZM3.81002 12.83L3.86002 12.99L4.01002 12.84H3.80002L3.81002 12.83ZM4.73002 12.83L4.88002 12.98L5.03002 12.83H4.72002H4.73002ZM4.04002 12.83L4.19002 12.98L4.34002 12.83H4.03002H4.04002ZM5.07002 12.83L5.22002 12.98L5.37002 12.83H5.06002H5.07002ZM4.39002 12.83L4.54002 12.98L4.69002 12.83H4.38002H4.39002ZM3.62002 12.78H3.76002C3.75002 12.72 3.73002 12.65 3.70002 12.58C3.68002 12.65 3.65002 12.71 3.62002 12.78ZM4.96002 11.83C5.23002 11.9 5.39002 11.87 5.47002 11.73L5.05002 11.61C5.03002 11.69 5.00002 11.76 4.96002 11.83ZM3.83002 10.84C3.83002 10.84 3.81002 10.84 3.81002 10.83C3.81002 10.82 3.81002 10.8 3.81002 10.79L4.58002 10.27C4.58002 10.27 4.61002 10.27 4.62002 10.27C4.62002 10.28 4.62002 10.3 4.62002 10.31L3.85002 10.83C3.85002 10.83 3.85002 10.83 3.84002 10.83L3.83002 10.84ZM3.65002 9.65001C3.65002 9.65001 3.63002 9.64001 3.62002 9.63001C3.62002 9.62001 3.62002 9.60001 3.64002 9.60001H3.86002C3.86002 9.60001 3.89002 9.60001 3.89002 9.61001C3.89002 9.62001 3.89002 9.64001 3.87002 9.64001H3.65002V9.65001Z" fill="black"/>
<path d="M4.09002 9.60001C4.02002 9.60001 3.96002 9.54001 3.96002 9.47001C3.96002 9.40001 4.02002 9.34001 4.09002 9.34001C4.16002 9.34001 4.22002 9.40001 4.22002 9.47001C4.22002 9.54001 4.16002 9.60001 4.09002 9.60001ZM4.09002 9.40001C4.09002 9.40001 4.01002 9.43001 4.01002 9.48001C4.01002 9.53001 4.04002 9.56001 4.09002 9.56001C4.14002 9.56001 4.17002 9.53001 4.17002 9.48001C4.17002 9.43001 4.14002 9.40001 4.09002 9.40001Z" fill="black"/>
<path d="M4.55002 12.72C4.43002 12.72 4.33002 12.62 4.33002 12.5C4.33002 12.38 4.43002 12.28 4.55002 12.28C4.67002 12.28 4.77002 12.38 4.77002 12.5C4.77002 12.62 4.67002 12.72 4.55002 12.72ZM4.55002 12.34C4.46002 12.34 4.38002 12.42 4.38002 12.51C4.38002 12.6 4.46002 12.68 4.55002 12.68C4.64002 12.68 4.72002 12.6 4.72002 12.51C4.72002 12.42 4.64002 12.34 4.55002 12.34Z" fill="black"/>
<path d="M5.31003 12.72C5.19003 12.72 5.09003 12.62 5.09003 12.5C5.09003 12.38 5.19003 12.28 5.31003 12.28C5.43003 12.28 5.53003 12.38 5.53003 12.5C5.53003 12.62 5.43003 12.72 5.31003 12.72ZM5.31003 12.34C5.22003 12.34 5.14003 12.42 5.14003 12.51C5.14003 12.6 5.22003 12.68 5.31003 12.68C5.40003 12.68 5.48003 12.6 5.48003 12.51C5.48003 12.42 5.40003 12.34 5.31003 12.34Z" fill="black"/>
</g>
</g>
<defs>
<clipPath id="clip0_170_14320">
<rect width="24" height="24" fill="white"/>
</clipPath>
</defs>
</svg>
